<?xml version="1.0" encoding="UTF-8" standalone="no"?>
<!-- Created with Inkscape (http://www.inkscape.org/) -->
<svg xmlns:svg="http://www.w3.org/2000/svg" xmlns="http://www.w3.org/2000/svg" version="1.1" width="367.35001" height="367.35001" id="svg2" xml:space="preserve"><defs id="defs6"/><g transform="matrix(1.25,0,0,-1.25,0,367.35)" id="g12"><g transform="scale(0.12,0.12)" id="g14"><path d="M 1226.9688,33 C 568.61487,33 32,569.60726 32,1227.9688 c 0,658.3641 536.61441,1195 1194.9688,1195 658.3639,0 1195,-536.6361 1195,-1195 C 2421.9688,569.60741 1885.3322,33 1226.9688,33 z m 0,271.65625 c 511.5565,0 923.3437,411.75984 923.3437,923.31255 0,511.556 -411.7877,923.3437 -923.3437,923.3437 -511.54371,0 -923.31255,-411.7879 -923.31255,-923.3437 0,-511.55256 411.76838,-923.31255 923.31255,-923.31255 z" id="path20" style="font-size:medium;font-style:normal;font-variant:normal;font-weight:normal;font-stretch:normal;text-indent:0;text-align:start;text-decoration:none;line-height:normal;letter-spacing:normal;word-spacing:normal;text-transform:none;direction:ltr;block-progression:tb;writing-mode:lr-tb;text-anchor:start;color:#000000;fill:#231f20;fill-opacity:1;stroke:none;stroke-width:271.65301514;marker:none;visibility:visible;display:inline;overflow:visible;enable-background:accumulate;font-family:Bitstream Vera Sans;-inkscape-font-specification:Bitstream Vera Sans"/><path d="m 1594.84,412.418 437.46,1210.662 -35.41,20.83 c -106.25,95.83 -152.09,156.25 -264.59,200 -173.05,67.3 -316.66,-64.58 -464.58,-104.17 -227.28,-60.82 -436.49,-44.92 -628.157,82.16 -20.594,13.66 -27.668,27.07 -43.75,45.84 -135.418,-150.01 -240.032,-343.1 -260.223,-566.33 -0.59,-6.52 1.019,-10.2 2.082,-16.66 45.836,-37.5 375.914,-347.332 836.328,-182.75 186.21,66.56 310.42,-8.33 470.84,-108.332 26.1,-16.273 24.5,-16.016 39.58,-27.082 l -197.92,-600 52.09,14.582 56.25,31.25" id="path22" style="fill:#ed1c24;fill-opacity:1;fill-rule:nonzero;stroke:none"/><path d="M 1451.09,1054.09 1190.05,333.039 c -12.89,-0.531 -20.22,-0.621 -33.06,0.555 -22.9,2.101 -35.92,4.949 -57.64,12.5 l 132.99,393.406 -20.84,14.586 c -77.08,29.164 -111.89,53.996 -214.578,35.414 -218.75,-39.582 -504.766,62.648 -611.742,286.32 -22.914,47.92 -35.653,69.93 -43.34,118.55 -3.164,20.02 -4.184,31.54 -4.168,51.81 210.375,-174.17 423.109,-262.332 713.418,-212.93 136.41,23.21 223.37,94.55 352.08,43.75 19.27,-7.61 29.96,-12.59 47.92,-22.91" id="path24" style="fill:#231f20;fill-opacity:1;fill-rule:nonzero;stroke:none"/><path d="m 294.24667,1670.4 -47.96667,46.7 66.92,-9.4867 m 29.296,-4.1833 39.199,-4.79 16.633,32.65 -191.211,22.52 -12.078,-23.7 129.774,-143.11 16.417,32.23 -26.488,29.73" id="path2833" style="fill:#ffffff;fill-opacity:1;fill-rule:evenodd;stroke:none"/><path d="m 2254.28,1656.07 27.29,12.14 -37.02,83.13 -160.72,-71.55 37.01,-83.13 27.29,12.14 -23.06,51.8 43.48,19.36 22.21,-49.88 27.28,12.15 -22.2,49.88 35.38,15.75 23.06,-51.79" id="path26" style="fill:#ffffff;fill-opacity:1;fill-rule:evenodd;stroke:none"/><path d="M 516.8,2125.1733 625.113,1986.54 652.141,2007.65 543.82667,2146.2933 516.8,2125.1733 z" id="path2857" style="fill:#ffffff;fill-opacity:1;fill-rule:evenodd;stroke:none"/><path d="m 432.56,1782.6133 -94.142,73.5467 0.289,0.37 153.926,-2.71 15.23,19.49 -141.394,110.47 -21.121,-27.03 93.222,-72.83 -0.285,-0.37 -153.93,2.71 -15.226,-19.49 142.311,-111.8567 21.12,27.7 z" id="path2845" style="fill:#ffffff;fill-opacity:1;fill-rule:evenodd;stroke:none"/><path d="m 2062.1067,1715.7933 149.2133,93.2267 -18.18,29.09 -58.78,-36.73 -33.63,53.83 58.77,36.72 -18.17,29.09 -149.2,-93.23 18.17,-29.09 66.69,41.67 33.34,-53.37 -66.39,-42.12 18.1667,-29.0867 z" id="path2843" style="fill:#ffffff;fill-opacity:1;fill-rule:evenodd;stroke:none"/><path d="m 474.34,2049.66 25.512,24.63 -20.75,21.49 -75.696,-73.1 20.75,-21.48 25.512,24.63 101.465,-105.07 24.672,23.83 -101.465,105.07 z" id="path2841" style="fill:#ffffff;fill-opacity:1;fill-rule:evenodd;stroke:none"/><path d="m 2088.74,1972.31 c -3.34,13.16 -9.84,25.6 -19.23,35.67 -35.17,37.72 -91.45,33.41 -127.97,-0.64 -35.49,-33.11 -41.74,-89.01 -8,-125.19 9.71,-10.42 21.7,-16.77 34.89,-22.02 l 29.86,27.84 c -14.54,-0.48 -30.2,5.02 -40.22,15.77 -21.8,23.38 -13.5,57.92 8.17,78.13 22.19,20.69 57.26,27.55 79.7,3.49 10.02,-10.75 14.77,-26.11 12.76,-41.06 l 30.04,28.01" id="path28" style="fill:#ffffff;fill-opacity:1;fill-rule:evenodd;stroke:none"/><path d="m 663.56,2226.54 -73.193,-47.54 95.81967,-147.54 28.76666,18.68 -42.18666,64.9733 41.67833,27.0567 -16.265,25.05 -41.684,-27.07 -21.094,32.49 44.42467,28.84 -16.26667,25.06 z" id="path2875" style="fill:#ffffff;fill-opacity:1;fill-rule:evenodd;stroke:none"/><path d="m 1428.1067,2176.76 30.5533,173.26 -33.77,5.96 -30.55,-173.26 33.7667,-5.96 z" id="path2909" style="fill:#ffffff;fill-opacity:1;fill-rule:evenodd;stroke:none"/><path d="m 1652.7067,2099.1133 59.4133,133.4367 32.4,-14.42 12.15,27.28 -96.13,42.8 -12.15,-27.28 32.4,-14.43 -59.41,-133.4267 31.3267,-13.96 z" id="path2903" style="fill:#ffffff;fill-opacity:1;fill-rule:evenodd;stroke:none"/><path d="m 1739.2133,2050.9333 87.9667,152.3567 -29.7,17.15 -87.9733,-152.36 29.7066,-17.1467 z" id="path2901" style="fill:#ffffff;fill-opacity:1;fill-rule:evenodd;stroke:none"/><path d="m 1160.95,2368.13 c -12.61,5.03 -26.49,7.08 -40.16,5.41 -51.18,-6.29 -80.78,-54.35 -74.69,-103.91 5.91,-48.17 47.47,-86.09 96.58,-80.06 14.12,1.73 26.32,7.7 38.32,15.28 l -4.98,40.53 c -8.16,-12.05 -21.81,-21.48 -36.4,-23.27 -31.73,-3.9 -54.79,23.12 -58.41,52.53 -3.69,30.11 11.37,62.52 44.03,66.53 14.58,1.79 29.8,-3.39 40.72,-13.81 l -5.01,40.77 z" id="path2899" style="fill:#ffffff;fill-opacity:1;fill-rule:evenodd;stroke:none"/><path d="m 1262.95,2303.95 4.83,69.13 -34.21,2.39 -12.28,-175.5 34.22,-2.39 5.49,78.44 63.3,-4.43 -5.48,-78.44 34.22,-2.39 12.27,175.5 -34.21,2.39 -4.84,-69.13 -63.31,4.43" id="path32" style="fill:#ffffff;fill-opacity:1;fill-rule:evenodd;stroke:none"/><path d="m 1652.97,150.949 30.56,15.571 -54.23,106.445 0.41,0.211 138.36,-67.508 22.04,11.23 -81.46,159.875 -30.56,-15.57 53.71,-105.41 -0.42,-0.211 -138.36,67.508 -22.04,-11.227 81.99,-160.914" id="path34" style="fill:#ffffff;fill-opacity:1;fill-rule:evenodd;stroke:none"/><path d="m 1488.5,97.9492 c 50.02,11.5468 75.25,60.9488 63.92,110.0588 -11.08,47.972 -55.57,82 -105.59,70.453 -50.02,-11.547 -75.09,-61.637 -64.02,-109.609 11.34,-49.11 55.67,-82.4497 105.69,-70.9028 z m -34.06,147.5468 c 29.33,6.77 56.7,-16.363 63.11,-44.101 5.98,-25.918 -8.24,-63.922 -36.66,-70.485 -28.42,-6.558 -57.85,21.367 -63.84,47.285 -6.4,27.739 8.06,60.532 37.39,67.301 z" id="path2830" style="fill:#ffffff;fill-opacity:1;fill-rule:evenodd;stroke:none"/><path d="m 1314.04,256.137 -34.29,-0.598 3.07,-175.9101 34.29,0.6016 -3.07,175.9065 z" id="path2832" style="fill:#ffffff;fill-opacity:1;fill-rule:evenodd;stroke:none"/><path d="m 1181.68,229.285 35.27,-3.707 3.12,29.703 -104.65,11 -3.13,-29.707 35.28,-3.707 -15.27,-145.2615 34.11,-3.586 15.27,145.2655 z" id="path2834" style="fill:#ffffff;fill-opacity:1;fill-rule:evenodd;stroke:none"/><path d="m 957.797,224.055 -0.457,0.105 16.691,72.297 -33.422,7.719 -39.574,-171.426 33.422,-7.715 17.793,77.07 0.453,-0.105 37,-89.719 42.977,-9.922 -47.356,108.157 83.286,64.109 -41.15,9.5 -69.663,-60.07 z" id="path2836" style="fill:#ffffff;fill-opacity:1;fill-rule:evenodd;stroke:none"/><path d="m 794.617,212.41 -2.035,-39.437 33.719,-14.313 9.137,192.317 -24.489,10.39 -133.703,-139.437 33.289,-14.129 27.809,28.5 56.273,-23.891 z m 2.133,29.512 -38.441,16.32 42.804,51.285 0.43,-0.183 -4.793,-67.422 z" id="path2838" style="fill:#ffffff;fill-opacity:1;fill-rule:evenodd;stroke:none"/></g></g><path d="m 118.31334,42.932528 -1.18318,-9.971869 6.90545,7.422995 m 3.02019,3.253148 4.11732,4.258685 5.02106,-2.235949 -20.16398,-20.675153 -3.6452,1.622623 1.61866,28.932998 4.95627,-2.20736 -0.28133,-5.966098" id="path2833-0" style="fill:#ffffff;fill-opacity:1;fill-rule:evenodd;stroke:none"/><path d="m 142.21613,16.200803 c -1.04369,-0.01 -2.02973,0.100749 -2.875,0.343749 -4.2726,1.2255 -6.42475,5.512751 -5.21875,9.718751 1.12905,3.936 3.9758,4.903 7.625,5.3125 2.20725,0.2055 4.8409,0.25 5.59375,2.875 0.55965,1.95 -0.2002,4.01475 -2.21875,4.59375 -2.11995,0.6075 -4.39335,-0.617 -5.625,-2.375 l -1.5,2.625 -0.8125,1.40625 c 2.5887,2.424 5.71955,3.72225 9.21875,2.71875 2.5617,-0.735 4.40125,-2.208 5.40625,-4.125 1.029,-1.9635 1.20525,-4.3695 0.46875,-6.9375 -2.44065,-8.5125 -11.99355,-3.853 -13.21875,-8.125 -0.47235,-1.65 0.70025,-3.2955 2.28125,-3.75 1.6482,-0.4725 3.09735,-0.008 4.40625,1 l 1.3125,-4.093751 c -1.27481,-0.79594 -3.10427,-1.171369 -4.84375,-1.187499 z" id="path3917" style="fill:#ffffff;fill-opacity:1;fill-rule:evenodd;stroke:none"/><path d="m 238.99303,20.177745 c -0.84924,-0.606829 -1.72046,-1.081654 -2.55225,-1.367466 -4.20282,-1.446793 -8.42482,0.8307 -9.84937,4.96779 -1.33267,3.871799 0.44454,6.296725 3.1989,8.725262 1.69019,1.434364 3.82202,2.981411 2.93312,5.563517 -0.66002,1.918356 -2.4668,3.17385 -4.45239,2.490344 -2.08499,-0.718319 -3.24492,-3.025339 -3.24549,-5.171854 l -2.73438,1.289905 -1.47217,0.6859 c 0.73021,3.470443 2.55022,6.329698 5.9922,7.514736 2.51997,0.867247 4.87172,0.715759 6.79452,-0.278108 1.96913,-1.01819 3.49353,-2.887978 4.36314,-5.414014 2.88336,-8.372907 -7.61454,-10.03541 -6.16781,-14.237557 0.5595,-1.622527 2.46377,-2.297892 4.0196,-1.763354 1.62111,0.55831 2.54177,1.770023 3.0358,3.346475 l 3.42321,-2.600574 c -0.58772,-1.383203 -1.87102,-2.740084 -3.28663,-3.751016 z" id="path3917-1" style="fill:#ffffff;fill-opacity:1;fill-rule:evenodd;stroke:none"/><path d="m 283.86414,44.71603 c -2.22613,0.10069 -4.39088,1.21731 -5.90625,3.15625 -0.381,0.486 -0.7035,0.965 -0.9375,1.4375 -1.3125,2.663997 -0.4155,5.131747 1.125,7.843747 1.131,1.9065 2.64875,4.06775 0.96875,6.21875 -1.2495,1.6005 -3.37675,2.2305 -5.03125,0.9375 -1.737,-1.3575 -2.074,-3.93925 -1.375,-5.96875 l -4.625,0.5 c -0.441,3.5205 0.35075,6.8215 3.21875,9.0625 4.248,3.3195 9.15275,2.38275 12.40625,-1.78125 5.4525,-6.978 -3.9235,-11.96625 -1.1875,-15.46875 1.056,-1.351497 3.04625,-1.356247 4.34375,-0.34375 1.3515,1.056 1.82775,2.50475 1.78125,4.15625 l 4.125,-1.34375 c -0.087,-1.227 -0.6325,-2.5825 -1.375,-3.812497 -0.708,-1.1685 -1.597,-2.2325 -2.5,-2.9375 -1.53234,-1.19766 -3.29981,-1.73456 -5.03125,-1.65625 z" id="path2847-4" style="fill:#ffffff;fill-opacity:1;fill-rule:evenodd;stroke:none"/></svg>