<?xml version="1.0" encoding="UTF-8"?>
<svg xmlns="http://www.w3.org/2000/svg" xmlns:xlink="http://www.w3.org/1999/xlink" clip-rule="evenodd" stroke-miterlimit="10" viewBox="0 0 600.00 600.00" class="mozwebext">
    <desc>SVG generated by Lineform</desc>
    <defs/>
    <g>
        <rect width="600.00" height="600.00" x="0.00" y="0.00" fill="#F8DF00"/>
        <path d="M 175.00 76.75 C 99.54 120.32 52.48 199.95 50.22 286.75 L 50.00 416.22 L 69.25 403.78 L 69.25 293.25 L 86.12 293.25 L 86.12 392.87 L 105.38 380.44 L 105.38 293.25 L 121.56 293.25 L 121.56 369.97 L 140.81 357.53 L 140.81 293.25 L 157.00 293.25 L 157.00 347.06 L 176.25 334.63 L 176.25 293.25 L 192.44 293.25 L 192.44 324.16 L 211.69 311.72 L 211.69 293.25 L 225.00 293.25 C 225.00 266.98 238.81 242.75 261.22 229.19 C 285.01 214.77 314.99 214.77 338.78 229.19 C 361.19 242.75 375.00 266.98 375.00 293.25 L 388.31 293.25 L 388.31 311.72 L 407.56 324.16 L 407.56 293.25 L 423.75 293.25 L 423.75 334.63 L 443.00 347.06 L 443.00 293.25 L 459.19 293.25 L 459.19 357.53 L 478.44 369.97 L 478.44 293.25 L 494.62 293.25 L 494.62 380.44 L 513.88 392.87 L 513.88 293.25 L 530.75 293.25 L 530.75 403.78 L 550.00 416.22 L 549.78 286.75 C 547.52 199.95 500.46 120.32 425.00 76.75 L 342.41 219.78 C 340.07 218.14 337.54 216.70 334.88 215.31 C 331.85 202.73 327.66 169.76 324.88 160.75 C 324.32 158.98 323.17 152.77 322.72 150.97 C 319.94 139.97 311.75 131.40 306.91 129.31 C 302.80 127.54 297.91 126.38 289.66 126.50 C 268.08 126.86 263.88 135.19 263.56 138.25 C 263.07 143.48 264.56 149.54 265.09 151.87 C 265.27 150.14 265.24 148.37 266.72 146.50 C 268.17 144.61 271.43 143.19 275.34 143.19 L 291.09 143.19 C 291.09 143.19 293.06 143.17 293.06 144.78 C 293.06 146.38 291.09 146.41 291.09 146.41 L 276.72 146.41 C 273.54 146.41 271.17 147.13 269.75 148.63 C 269.56 148.79 269.46 148.99 269.34 149.16 C 269.51 149.08 269.69 149.03 269.91 148.97 C 270.82 148.74 271.93 148.69 272.97 148.81 C 274.97 149.11 280.97 151.14 280.78 155.84 C 280.75 156.54 280.59 157.39 280.38 157.97 C 277.50 165.54 268.35 208.50 265.69 215.94 C 263.43 216.92 260.76 217.70 257.53 219.72 L 175.00 76.75 Z M 287.47 130.00 C 289.71 130.00 291.50 131.83 291.50 134.06 C 291.50 136.33 289.71 138.12 287.47 138.13 C 285.24 138.13 283.41 136.33 283.41 134.06 C 283.41 131.83 285.24 130.00 287.47 130.00 Z M 300.00 243.25 C 287.20 243.25 274.42 248.14 264.66 257.91 C 245.13 277.43 245.13 309.07 264.66 328.59 C 284.18 348.12 315.82 348.12 335.34 328.59 C 354.87 309.07 354.87 277.43 335.34 257.91 C 325.58 248.14 312.80 243.25 300.00 243.25 Z M 262.50 358.19 L 175.00 509.75 C 252.35 554.41 347.65 554.41 425.00 509.75 L 337.50 358.19 C 314.29 371.58 285.71 371.59 262.50 358.19 Z M 262.50 358.19 " fill="#000000"/>
    </g>
</svg>