<?xml version="1.0" encoding="UTF-8" standalone="no"?>
<!-- Created with Inkscape (http://www.inkscape.org/) -->

<svg
   xmlns:dc="http://purl.org/dc/elements/1.1/"
   xmlns:cc="http://creativecommons.org/ns#"
   xmlns:rdf="http://www.w3.org/1999/02/22-rdf-syntax-ns#"
   xmlns:svg="http://www.w3.org/2000/svg"
   xmlns="http://www.w3.org/2000/svg"
   xmlns:sodipodi="http://sodipodi.sourceforge.net/DTD/sodipodi-0.dtd"
   xmlns:inkscape="http://www.inkscape.org/namespaces/inkscape"
   width="297mm"
   height="420mm"
   viewBox="0 0 297 420"
   version="1.1"
   id="svg8"
   inkscape:version="0.92.3 (2405546, 2018-03-11)"
   sodipodi:docname="BSOrtsschild.svg"
   inkscape:export-filename="/home/housemeista/Dropbox/Fla/Stencilkram Inkscape/Vorlagen/schildcyber.png"
   inkscape:export-xdpi="96"
   inkscape:export-ydpi="96">
  <defs
     id="defs2" />
  <sodipodi:namedview
     id="base"
     pagecolor="#ffffff"
     bordercolor="#666666"
     borderopacity="1.0"
     inkscape:pageopacity="0"
     inkscape:pageshadow="2"
     inkscape:zoom="0.35"
     inkscape:cx="1111.1897"
     inkscape:cy="762.24423"
     inkscape:document-units="mm"
     inkscape:current-layer="text26"
     showgrid="true"
     inkscape:pagecheckerboard="true"
     inkscape:window-width="1920"
     inkscape:window-height="1031"
     inkscape:window-x="0"
     inkscape:window-y="25"
     inkscape:window-maximized="1"
     showguides="false"
     inkscape:guide-bbox="true">
    <inkscape:grid
       type="xygrid"
       id="grid3713" />
    <sodipodi:guide
       position="13.229167,395"
       orientation="0,1"
       id="guide664"
       inkscape:locked="false"
       inkscape:label=""
       inkscape:color="rgb(0,0,255)" />
    <sodipodi:guide
       position="22.489584,415"
       orientation="0,1"
       id="guide666"
       inkscape:locked="false"
       inkscape:label=""
       inkscape:color="rgb(0,0,255)" />
  </sodipodi:namedview>
  <metadata
     id="metadata5">
    <rdf:RDF>
      <cc:Work
         rdf:about="">
        <dc:format>image/svg+xml</dc:format>
        <dc:type
           rdf:resource="http://purl.org/dc/dcmitype/StillImage" />
        <dc:title></dc:title>
      </cc:Work>
    </rdf:RDF>
  </metadata>
  <g
     inkscape:label="Ebene 1"
     inkscape:groupmode="layer"
     id="layer1"
     transform="translate(0,123)">
    <text
       xml:space="preserve"
       style="font-style:normal;font-variant:normal;font-weight:normal;font-stretch:normal;font-size:10.41260052px;line-height:1.25;font-family:'Leipzig Fraktur UNZ1A';-inkscape-font-specification:'Leipzig Fraktur UNZ1A';letter-spacing:0px;word-spacing:0px;fill:#000000;fill-opacity:1;stroke:none;stroke-width:0.260315"
       x="26.135876"
       y="9.153347"
       id="text378"><tspan
         sodipodi:role="line"
         id="tspan376"
         x="26.135876"
         y="18.680193"
         style="stroke-width:0.260315" /></text>
    <text
       xml:space="preserve"
       style="font-style:normal;font-variant:normal;font-weight:normal;font-stretch:normal;font-size:10.41260052px;line-height:1.25;font-family:'Leipzig Fraktur UNZ1A';-inkscape-font-specification:'Leipzig Fraktur UNZ1A';letter-spacing:0px;word-spacing:0px;fill:#000000;fill-opacity:1;stroke:none;stroke-width:0.260315"
       x="171.91231"
       y="9.1533546"
       id="text378-2"><tspan
         sodipodi:role="line"
         id="tspan376-6"
         x="171.91231"
         y="18.680201"
         style="stroke-width:0.260315" /></text>
    <g
       aria-label="Mutantenpack unerwünscht"
       style="font-style:normal;font-variant:normal;font-weight:normal;font-stretch:normal;font-size:10.58333302px;line-height:1.25;font-family:'Highway Gothic';-inkscape-font-specification:'Highway Gothic';letter-spacing:0px;word-spacing:0px;fill:#000000;fill-opacity:1;stroke:none;stroke-width:0.26458332"
       id="text26"
       transform="matrix(5.1437688,0,0,5.1437688,-379.43761,-372.44537)">
      <path
         inkscape:connector-curvature="0"
         id="path4130"
         style="font-style:normal;font-variant:normal;font-weight:normal;font-stretch:normal;font-size:medium;line-height:1.25;font-family:'DIN 1451 Std';-inkscape-font-specification:'DIN 1451 Std';letter-spacing:0px;word-spacing:0px;fill:#000000;fill-opacity:1;stroke:none;stroke-width:0.54932845"
         d="m 112.6974,55.419515 v 6.591943 c 0,2.351126 1.73588,4.350682 4.43858,4.350682 1.58207,0 3.20808,-0.83498 3.6036,-2.548885 h 0.0439 c 0.81301,1.823771 2.06548,2.30718 3.36189,2.30718 2.46099,0 4.19687,-1.582066 4.19687,-4.636334 v -6.064586 z m 6.94352,6.020641 c 0,1.757851 -1.12063,2.548885 -2.35113,2.548885 -1.23049,0 -2.35112,-0.791034 -2.35112,-2.548885 v -3.647542 h 4.70225 z m 6.59194,-0.219732 c 0,1.713905 -1.03274,2.526912 -2.24126,2.526912 -1.2305,0 -2.24126,-0.813007 -2.24126,-2.526912 v -3.42781 h 4.48252 z" />
      <path
         inkscape:connector-curvature="0"
         id="path4132"
         style="font-style:normal;font-variant:normal;font-weight:normal;font-stretch:normal;font-size:medium;line-height:1.25;font-family:'DIN 1451 Std';-inkscape-font-specification:'DIN 1451 Std';letter-spacing:0px;word-spacing:0px;fill:#000000;fill-opacity:1;stroke:none;stroke-width:0.54932845"
         d="m 116.43284,68.611641 c -2.52691,0 -3.86727,1.977583 -3.86727,3.735434 0,1.164576 0.43946,2.17534 1.31839,2.878481 v 0.04395 h -1.18656 v 2.24126 h 11.14039 v -2.24126 h -6.63589 c -1.51615,0 -2.39507,-0.944844 -2.39507,-2.197313 0,-1.274444 0.87892,-2.219288 2.39507,-2.219288 h 6.63589 v -2.24126 z" />
      <path
         inkscape:connector-curvature="0"
         id="path4134"
         style="font-style:normal;font-variant:normal;font-weight:normal;font-stretch:normal;font-size:medium;line-height:1.25;font-family:'DIN 1451 Std';-inkscape-font-specification:'DIN 1451 Std';letter-spacing:0px;word-spacing:0px;fill:#000000;fill-opacity:1;stroke:none;stroke-width:0.54932845"
         d="m 112.6974,80.413621 v 2.241261 h 6.63589 c 1.51615,0 2.39508,0.944845 2.39508,2.219287 0,1.252469 -0.87893,2.197315 -2.39508,2.197315 h -6.63589 v 2.24126 h 7.40495 c 2.52691,0 3.86728,-1.977583 3.86728,-3.713461 0,-1.18655 -0.43947,-2.197315 -1.31839,-2.900454 v -0.04395 h 1.18655 v -2.241261 z" />
      <path
         inkscape:connector-curvature="0"
         id="path4136"
         style="font-style:normal;font-variant:normal;font-weight:normal;font-stretch:normal;font-size:medium;line-height:1.25;font-family:'DIN 1451 Std';-inkscape-font-specification:'DIN 1451 Std';letter-spacing:0px;word-spacing:0px;fill:#000000;fill-opacity:1;stroke:none;stroke-width:0.54932845"
         d="m 112.6974,92.215601 v 2.241261 h 3.20808 l 1.99956,1.757851 -5.20764,2.966374 v 2.812563 l 6.78971,-4.372657 4.35068,3.845297 v -2.680719 l -5.22961,-4.284764 v -0.04395 h 9.7341 v -2.241261 z" />
      <path
         inkscape:connector-curvature="0"
         id="path4138"
         style="font-style:normal;font-variant:normal;font-weight:normal;font-stretch:normal;font-size:medium;line-height:1.25;font-family:'DIN 1451 Std';-inkscape-font-specification:'DIN 1451 Std';letter-spacing:0px;word-spacing:0px;fill:#000000;fill-opacity:1;stroke:none;stroke-width:0.54932845"
         d="m 117.42163,112.00927 h 1.84574 c 2.87849,0 4.70226,-2.1314 4.70226,-4.59239 0,-2.15337 -1.40628,-4.59238 -5.73499,-4.59238 -4.57042,0 -5.66907,2.65874 -5.66907,4.94395 0,1.49417 0.52735,2.92243 1.80179,4.02108 l 1.38431,-1.62601 c -0.68117,-0.65919 -1.07668,-1.58206 -1.07668,-2.43902 0,-1.53812 0.92287,-2.65874 2.74664,-2.65874 z m 1.84574,-6.94351 c 1.69194,0.0439 2.59284,1.03273 2.59284,2.35112 0,1.31839 -0.9009,2.28521 -2.59284,2.35113 z" />
      <path
         inkscape:connector-curvature="0"
         id="path4140"
         style="font-style:normal;font-variant:normal;font-weight:normal;font-stretch:normal;font-size:medium;line-height:1.25;font-family:'DIN 1451 Std';-inkscape-font-specification:'DIN 1451 Std';letter-spacing:0px;word-spacing:0px;fill:#000000;fill-opacity:1;stroke:none;stroke-width:0.54932845"
         d="m 112.6974,114.36039 v 2.24127 h 6.70181 c 1.62602,0 2.32916,1.07668 2.32916,2.17534 0,0.5713 -0.15382,0.94484 -0.54933,1.4722 l 1.93363,1.62601 c 0.52736,-0.68117 0.85696,-1.42825 0.85696,-2.32916 0,-1.18654 -0.43947,-2.19731 -1.31839,-2.90045 v -0.0439 h 1.18655 v -2.24127 z" />
      <path
         inkscape:connector-curvature="0"
         id="path4142"
         style="font-style:normal;font-variant:normal;font-weight:normal;font-stretch:normal;font-size:medium;line-height:1.25;font-family:'DIN 1451 Std';-inkscape-font-specification:'DIN 1451 Std';letter-spacing:0px;word-spacing:0px;fill:#000000;fill-opacity:1;stroke:none;stroke-width:0.54932845"
         d="m 95.587114,53.279149 c -1.45022,1.64799 -2.15336,3.66951 -2.15336,5.976695 0,3.36189 1.66996,5.49328 4.548396,5.49328 2.13129,0 4.15281,-1.36233 4.50438,-4.28476 0.0879,-0.74709 0.17578,-1.34036 0.24171,-1.75785 0.2417,-1.582065 1.12063,-2.219285 1.99955,-2.219285 1.49417,0 2.24126,1.164575 2.24126,2.614795 0,1.38431 -0.48341,2.72467 -1.20852,3.86728 l 1.95561,1.31838 c 0.94484,-1.42825 1.62601,-3.14216 1.62601,-5.07579 0,-3.230045 -1.88969,-5.097765 -4.57041,-5.097765 -2.26324,0 -4.02108,1.45023 -4.39462,4.152915 -0.10987,0.81301 -0.19776,1.36234 -0.28565,2.06548 -0.175785,1.40628 -1.010725,2.0435 -2.10932,2.0435 -1.296376,0 -2.175296,-1.16457 -2.175296,-3.09821 0,-1.66996 0.61524,-3.252025 1.560076,-4.438575 z" />
      <path
         inkscape:connector-curvature="0"
         id="path4144"
         style="font-style:normal;font-variant:normal;font-weight:normal;font-stretch:normal;font-size:medium;line-height:1.25;font-family:'DIN 1451 Std';-inkscape-font-specification:'DIN 1451 Std';letter-spacing:0px;word-spacing:0px;fill:#000000;fill-opacity:1;stroke:none;stroke-width:0.54932845"
         d="m 89.061094,67.061114 v 2.24126 h 5.69105 c -0.79104,0.83498 -1.31839,1.73588 -1.31839,2.87848 0,1.36234 0.61524,2.35113 1.45022,2.98835 0.79104,0.61525 1.51615,0.79103 4.240721,0.79103 2.746585,0 3.471705,-0.17578 4.262735,-0.79103 0.83498,-0.63722 1.45023,-1.62601 1.45023,-2.98835 0,-1.1426 -0.52736,-2.17534 -1.29642,-2.87848 h 1.16458 v -2.24126 z m 6.61392,4.43857 c 0,-2.08744 1.845721,-2.19731 3.449681,-2.19731 1.625965,0 3.471705,0.10987 3.471705,2.19731 0,2.10943 -1.73587,2.21929 -3.471705,2.21929 -1.713825,0 -3.449681,-0.10986 -3.449681,-2.21929 z" />
      <path
         inkscape:connector-curvature="0"
         id="path4146"
         style="font-style:normal;font-variant:normal;font-weight:normal;font-stretch:normal;font-size:medium;line-height:1.25;font-family:'DIN 1451 Std';-inkscape-font-specification:'DIN 1451 Std';letter-spacing:0px;word-spacing:0px;fill:#000000;fill-opacity:1;stroke:none;stroke-width:0.54932845"
         d="m 93.565584,78.476844 v 2.24126 h 6.701666 c 1.62601,0 2.32915,1.07668 2.32915,2.17534 0,0.5713 -0.15382,0.94485 -0.54933,1.4722 l 1.93363,1.62601 c 0.52736,-0.68116 0.85696,-1.42825 0.85696,-2.32915 0,-1.18655 -0.43947,-2.19731 -1.31839,-2.90045 v -0.0439 h 1.18655 v -2.24126 z" />
      <path
         inkscape:connector-curvature="0"
         id="path4148"
         style="font-style:normal;font-variant:normal;font-weight:normal;font-stretch:normal;font-size:medium;line-height:1.25;font-family:'DIN 1451 Std';-inkscape-font-specification:'DIN 1451 Std';letter-spacing:0px;word-spacing:0px;fill:#000000;fill-opacity:1;stroke:none;stroke-width:0.54932845"
         d="m 93.565584,87.083114 v 2.24126 h 11.140236 v -2.24126 z m 13.403466,0 v 2.24126 h 2.24126 v -2.24126 z" />
      <path
         inkscape:connector-curvature="0"
         id="path4150"
         style="font-style:normal;font-variant:normal;font-weight:normal;font-stretch:normal;font-size:medium;line-height:1.25;font-family:'DIN 1451 Std';-inkscape-font-specification:'DIN 1451 Std';letter-spacing:0px;word-spacing:0px;fill:#000000;fill-opacity:1;stroke:none;stroke-width:0.54932845"
         d="m 93.565584,92.295894 v 2.24126 h 6.635746 c 1.51614,0 2.39507,0.94485 2.39507,2.21929 0,1.25247 -0.87893,2.19732 -2.39507,2.19732 h -6.635746 v 2.241256 h 7.404806 c 2.5269,0 3.86727,-1.977586 3.86727,-3.713456 0,-1.18655 -0.43947,-2.19732 -1.31839,-2.90046 v -0.0439 h 1.18655 v -2.24126 z" />
      <path
         inkscape:connector-curvature="0"
         id="path4152"
         style="font-style:normal;font-variant:normal;font-weight:normal;font-stretch:normal;font-size:medium;line-height:1.25;font-family:'DIN 1451 Std';-inkscape-font-specification:'DIN 1451 Std';letter-spacing:0px;word-spacing:0px;fill:#000000;fill-opacity:1;stroke:none;stroke-width:0.54932845"
         d="m 93.587564,110.36019 c -1.56009,0 -2.41705,-1.05471 -2.41705,-2.54888 0,-0.85695 0.46144,-1.62601 1.01077,-2.17534 l -1.38431,-1.73588 c -1.12063,0.98879 -1.86772,2.43902 -1.86772,3.86727 0,2.54889 1.53812,4.83409 4.90001,4.83409 h 10.876556 v -2.24126 h -1.18655 c 0.87892,-0.83498 1.31839,-1.73588 1.31839,-2.87848 0,-1.45023 -0.72512,-2.43902 -1.36234,-2.9444 -0.83498,-0.63722 -1.25247,-0.83498 -4.350625,-0.83498 -3.076141,0 -3.493631,0.19776 -4.328611,0.83498 -0.63722,0.50538 -1.36233,1.49417 -1.36233,2.9444 0,1.1426 0.52735,2.17534 1.29641,2.87848 z m 5.537131,-4.4166 c 1.801755,0 2.109365,0.0439 2.614745,0.43946 0.39552,0.30763 0.85696,0.87893 0.85696,1.77983 0,0.87892 -0.46144,1.45023 -0.85696,1.75785 -0.50538,0.39552 -0.81299,0.43946 -2.614745,0.43946 -1.779735,0 -2.08735,-0.0439 -2.592731,-0.43946 -0.39552,-0.30762 -0.85695,-0.87893 -0.85695,-1.75785 0,-0.9009 0.46143,-1.4722 0.85695,-1.77983 0.505381,-0.39551 0.812996,-0.43946 2.592731,-0.43946 z" />
      <path
         inkscape:connector-curvature="0"
         id="path4154"
         style="font-style:normal;font-variant:normal;font-weight:normal;font-stretch:normal;font-size:medium;line-height:1.25;font-family:'DIN 1451 Std';-inkscape-font-specification:'DIN 1451 Std';letter-spacing:0px;word-spacing:0px;fill:#000000;fill-opacity:1;stroke:none;stroke-width:0.54932845"
         d="m 95.433304,114.28308 c -1.34036,1.42826 -1.99955,3.09822 -1.99955,4.90001 0,2.59283 1.25246,4.61436 3.42781,4.61436 1.779746,0 3.185956,-0.92287 3.339766,-3.23005 l 0.13184,-1.84574 c 0.0879,-1.12063 0.5713,-1.4722 1.0547,-1.4722 0.76906,0 1.34037,0.48341 1.34037,1.91166 0,1.20852 -0.41749,2.10942 -1.03274,2.98835 l 1.62601,1.38431 c 0.92287,-1.09866 1.51615,-2.41705 1.51615,-4.37266 0,-2.35113 -1.16458,-4.15292 -3.42781,-4.15292 -1.911635,0 -3.01023,1.36233 -3.16404,3.20808 l -0.175775,1.97758 c -0.06589,0.76906 -0.307605,1.36233 -1.098611,1.36233 -0.94484,0 -1.42825,-0.92287 -1.42825,-2.19731 0,-1.49418 0.48341,-2.54889 1.42825,-3.5157 z" />
      <g
         aria-label="Westerwaldkreis"
         style="font-style:normal;font-variant:normal;font-weight:normal;font-stretch:normal;font-size:3.45458984px;line-height:1.25;font-family:'DIN 1451 Std';-inkscape-font-specification:'DIN 1451 Std';letter-spacing:0px;word-spacing:0px;fill:#000000;fill-opacity:1;stroke:none;stroke-width:0.08636475"
         id="text4213"
         transform="matrix(0,3.2084244,-3.2084244,0,391.33541,-412.48549)">
        <path
           d="m 144.74745,97.545517 h 0.31091 l 0.46982,-1.772205 h 0.007 l 0.46983,1.772205 h 0.31091 l 0.61492,-2.459668 h -0.39383 l -0.38691,1.748022 h -0.007 l -0.47673,-1.748022 h -0.26946 l -0.47673,1.748022 h -0.007 l -0.38692,-1.748022 h -0.39382 z"
           style="stroke-width:0.08636475"
           id="path4300"
           inkscape:connector-curvature="0" />
        <path
           d="m 148.4668,96.80278 v -0.290185 c 0,-0.452552 -0.3351,-0.739283 -0.72201,-0.739283 -0.33855,0 -0.72201,0.221094 -0.72201,0.901648 0,0.718555 0.418,0.891285 0.77728,0.891285 0.23491,0 0.45946,-0.08291 0.63219,-0.283277 l -0.25564,-0.217639 c -0.10364,0.107092 -0.24873,0.169275 -0.38346,0.169275 -0.24182,0 -0.418,-0.145093 -0.418,-0.431824 z m -1.09165,-0.290185 c 0.007,-0.266004 0.16236,-0.407642 0.36964,-0.407642 0.20727,0 0.35928,0.141638 0.36964,0.407642 z"
           style="stroke-width:0.08636475"
           id="path4302"
           inkscape:connector-curvature="0" />
        <path
           d="m 148.64298,97.251877 c 0.22455,0.21073 0.4871,0.314368 0.77038,0.314368 0.40764,0 0.72546,-0.196912 0.72546,-0.538917 0,-0.279821 -0.14509,-0.500915 -0.50783,-0.525097 l -0.29018,-0.02073 c -0.17619,-0.01382 -0.23146,-0.08982 -0.23146,-0.16582 0,-0.120911 0.076,-0.21073 0.30055,-0.21073 0.19,0 0.33164,0.06564 0.46982,0.162366 l 0.21764,-0.25564 c -0.17273,-0.145093 -0.38,-0.238367 -0.68746,-0.238367 -0.36964,0 -0.65292,0.183094 -0.65292,0.538916 0,0.30055 0.21419,0.473279 0.50437,0.497461 l 0.31092,0.02764 c 0.12091,0.01036 0.21418,0.04836 0.21418,0.17273 0,0.148547 -0.14509,0.224548 -0.34546,0.224548 -0.23491,0 -0.40073,-0.076 -0.55273,-0.224548 z"
           style="stroke-width:0.08636475"
           id="path4304"
           inkscape:connector-curvature="0" />
        <path
           d="m 150.51699,95.79404 h -0.17619 v 0.269458 h 0.17619 v 1.050195 c 0,0.276367 0.17964,0.431824 0.42491,0.431824 h 0.1831 v -0.331641 h -0.13128 c -0.0864,0 -0.12436,-0.03455 -0.12436,-0.131274 V 96.063498 H 151.125 V 95.79404 h -0.25564 v -0.532007 h -0.35237 z"
           style="stroke-width:0.08636475"
           id="path4306"
           inkscape:connector-curvature="0" />
        <path
           d="m 152.81202,96.80278 v -0.290185 c 0,-0.452552 -0.33509,-0.739283 -0.72201,-0.739283 -0.33855,0 -0.722,0.221094 -0.722,0.901648 0,0.718555 0.418,0.891285 0.77728,0.891285 0.23491,0 0.45946,-0.08291 0.63219,-0.283277 l -0.25564,-0.217639 c -0.10364,0.107092 -0.24873,0.169275 -0.38346,0.169275 -0.24182,0 -0.41801,-0.145093 -0.41801,-0.431824 z m -1.09165,-0.290185 c 0.007,-0.266004 0.16237,-0.407642 0.36964,-0.407642 0.20728,0 0.35928,0.141638 0.36965,0.407642 z"
           style="stroke-width:0.08636475"
           id="path4308"
           inkscape:connector-curvature="0" />
        <path
           d="m 153.18166,97.545517 h 0.35237 v -1.05365 c 0,-0.25564 0.16928,-0.366186 0.34201,-0.366186 0.0898,0 0.14854,0.02418 0.23145,0.08636 l 0.25564,-0.304004 c -0.10709,-0.08291 -0.22454,-0.134729 -0.36618,-0.134729 -0.18655,0 -0.34546,0.06909 -0.45601,0.207276 h -0.007 V 95.79404 h -0.35237 z"
           style="stroke-width:0.08636475"
           id="path4310"
           inkscape:connector-curvature="0" />
        <path
           d="m 155.91311,97.545517 h 0.31091 l 0.55965,-1.751477 h -0.3731 l -0.33509,1.226379 h -0.007 L 155.6712,95.79404 h -0.25564 l -0.39728,1.226379 h -0.007 l -0.33509,-1.226379 h -0.3731 l 0.55965,1.751477 h 0.31091 l 0.36619,-1.226379 h 0.007 z"
           style="stroke-width:0.08636475"
           id="path4312"
           inkscape:connector-curvature="0" />
        <path
           d="m 157.93977,97.545517 h 0.35237 v -1.195288 c 0,-0.431824 -0.2971,-0.576917 -0.72892,-0.576917 -0.26255,0 -0.45601,0.06909 -0.59074,0.25564 l 0.27637,0.21073 c 0.0622,-0.100183 0.14855,-0.134729 0.33164,-0.134729 0.25219,0 0.35928,0.05873 0.35928,0.224548 v 0.183094 h -0.4871 c -0.37655,0 -0.57001,0.238366 -0.57001,0.518188 0,0.304004 0.22801,0.535462 0.61838,0.535462 0.23836,0 0.35927,-0.05527 0.43182,-0.176185 h 0.007 z m 0,-0.614917 c 0,0.272913 -0.10018,0.304004 -0.39382,0.304004 -0.23837,0 -0.33165,-0.103638 -0.33165,-0.221094 0,-0.12782 0.0967,-0.21073 0.30401,-0.21073 h 0.42146 z"
           style="stroke-width:0.08636475"
           id="path4314"
           inkscape:connector-curvature="0" />
        <path
           d="m 158.74814,97.120602 c 0,0.314368 0.19346,0.424915 0.4491,0.424915 h 0.15546 v -0.331641 h -0.12091 c -0.0864,0 -0.13128,-0.04145 -0.13128,-0.12091 v -2.007117 h -0.35237 z"
           style="stroke-width:0.08636475"
           id="path4316"
           inkscape:connector-curvature="0" />
        <path
           d="m 160.68552,97.545517 h 0.35237 v -2.459668 h -0.35237 v 0.894739 c -0.13127,-0.124365 -0.27291,-0.207276 -0.45255,-0.207276 -0.21419,0 -0.36964,0.09673 -0.46983,0.228003 -0.0967,0.124366 -0.12436,0.238367 -0.12436,0.666736 0,0.431824 0.0276,0.545825 0.12436,0.670191 0.10019,0.131274 0.25564,0.228003 0.46983,0.228003 0.17964,0 0.342,-0.08291 0.45255,-0.203821 z m -0.34546,-1.419836 c 0.32819,0 0.34546,0.290185 0.34546,0.54237 0,0.25564 -0.0173,0.545825 -0.34546,0.545825 -0.33164,0 -0.34891,-0.272912 -0.34891,-0.545825 0,-0.269458 0.0173,-0.54237 0.34891,-0.54237 z"
           style="stroke-width:0.08636475"
           id="path4318"
           inkscape:connector-curvature="0" />
        <path
           d="m 161.43355,97.545517 h 0.35236 v -0.50437 l 0.27637,-0.314368 0.46637,0.818738 h 0.44219 l -0.68746,-1.067468 0.60455,-0.684009 h -0.42146 l -0.67365,0.822192 h -0.007 v -1.530383 h -0.35236 z"
           style="stroke-width:0.08636475"
           id="path4320"
           inkscape:connector-curvature="0" />
        <path
           d="m 163.22831,97.545517 h 0.35237 v -1.05365 c 0,-0.25564 0.16928,-0.366186 0.34201,-0.366186 0.0898,0 0.14854,0.02418 0.23145,0.08636 l 0.25564,-0.304004 c -0.10709,-0.08291 -0.22454,-0.134729 -0.36618,-0.134729 -0.18655,0 -0.34546,0.06909 -0.45601,0.207276 h -0.007 V 95.79404 h -0.35237 z"
           style="stroke-width:0.08636475"
           id="path4322"
           inkscape:connector-curvature="0" />
        <path
           d="m 165.86794,96.80278 v -0.290185 c 0,-0.452552 -0.33509,-0.739283 -0.722,-0.739283 -0.33855,0 -0.72201,0.221094 -0.72201,0.901648 0,0.718555 0.418,0.891285 0.77728,0.891285 0.23491,0 0.45946,-0.08291 0.63219,-0.283277 l -0.25564,-0.217639 c -0.10364,0.107092 -0.24873,0.169275 -0.38346,0.169275 -0.24182,0 -0.41801,-0.145093 -0.41801,-0.431824 z m -1.09165,-0.290185 c 0.007,-0.266004 0.16237,-0.407642 0.36965,-0.407642 0.20727,0 0.35927,0.141638 0.36964,0.407642 z"
           style="stroke-width:0.08636475"
           id="path4324"
           inkscape:connector-curvature="0" />
        <path
           d="m 166.24795,97.545517 h 0.35237 V 95.79404 h -0.35237 z m 0,-2.1073 h 0.35237 v -0.352368 h -0.35237 z"
           style="stroke-width:0.08636475"
           id="path4326"
           inkscape:connector-curvature="0" />
        <path
           d="m 166.87404,97.251877 c 0.22455,0.21073 0.4871,0.314368 0.77037,0.314368 0.40764,0 0.72547,-0.196912 0.72547,-0.538917 0,-0.279821 -0.1451,-0.500915 -0.50783,-0.525097 l -0.29018,-0.02073 c -0.17619,-0.01382 -0.23146,-0.08982 -0.23146,-0.16582 0,-0.120911 0.076,-0.21073 0.30055,-0.21073 0.19,0 0.33164,0.06564 0.46982,0.162366 l 0.21764,-0.25564 c -0.17273,-0.145093 -0.38,-0.238367 -0.68746,-0.238367 -0.36964,0 -0.65292,0.183094 -0.65292,0.538916 0,0.30055 0.21418,0.473279 0.50437,0.497461 l 0.31091,0.02764 c 0.12091,0.01036 0.21419,0.04836 0.21419,0.17273 0,0.148547 -0.14509,0.224548 -0.34546,0.224548 -0.23491,0 -0.40073,-0.076 -0.55274,-0.224548 z"
           style="stroke-width:0.08636475"
           id="path4328"
           inkscape:connector-curvature="0" />
      </g>
    </g>
  </g>
</svg>
