<?xml version="1.0" encoding="UTF-8" standalone="no"?>
<svg xmlns="http://www.w3.org/2000/svg" width="900" height="600" version="1.0">
<rect width="100%" height="100%" fill="#fe0"/>
<path transform="scale(0.9)translate(-20)" d="M 513.00303,618.89732 C 510.10423,615.40445 506.34319,602.4109 504.6452,590.02276 L 501.55798,567.49888 L 492.77395,584.62066 C 487.94276,594.03765 480.57127,601.74245 476.39292,601.74245 C 469.98675,601.74245 469.21794,597.65281 471.48844,575.65362 L 474.18105,549.5648 L 464.71804,561.59508 C 459.51339,568.21171 453.11894,572.30516 450.50817,570.69164 C 443.06613,566.09222 449.45475,542.58853 474.35504,482.95919 C 489.78621,446.00581 495.35213,427.80127 491.21929,427.80127 C 484.21431,427.80127 462.00331,452.72489 454.67508,468.80862 C 448.66938,481.98968 441.90457,482.72719 441.90457,470.20084 C 441.90457,464.14261 437.72092,459.83816 429.93286,457.88349 C 413.90274,453.86018 411.40741,457.54414 420.62938,471.61865 C 429.63225,485.35874 423.70208,491.58019 410.86464,481.86299 C 397.08973,471.43615 384.30913,473.51212 367.44433,488.91574 C 358.95168,496.67257 351.07596,503.01908 349.94274,503.01908 C 345.65284,503.01908 348.10753,485.86989 353.11404,480.86334 C 361.09581,472.88156 353.89388,465.79517 340.3046,468.25937 C 325.45891,470.95142 326.87402,460.69054 342.31006,453.7179 C 355.17047,447.90871 355.7192,432.44217 343.18121,429.16341 C 329.67603,425.63173 331.58909,418.39905 346.02841,418.39905 C 352.7656,418.39905 364.56316,423.6878 372.24522,430.15183 C 382.86937,439.09145 391.47127,441.87039 408.1822,441.76165 C 426.19904,441.64442 428.5812,440.70598 421.42239,436.54575 C 413.77663,432.10255 416.89162,429.15432 446.51567,412.79585 C 478.23256,395.28171 480.12504,393.3381 476.91277,381.57812 C 475.02871,374.6807 472.15478,361.63311 470.52626,352.58346 L 467.56536,336.12957 L 461.40864,350.94382 C 458.02244,359.09167 450.02184,370.67149 443.62953,376.67675 C 425.30095,393.89556 421.8187,380.61288 435.28328,344.84079 C 447.36792,312.73485 446.94994,305.44087 434.44733,330.25318 C 425.00392,348.99431 399.85202,376.08903 391.89814,376.08903 C 379.81992,376.08903 380.72502,366.12491 394.64042,345.89956 C 414.43127,317.13455 412.61114,314.23857 389.01706,336.95226 C 369.06232,356.16241 352.94835,366.6868 343.49027,366.6868 C 333.11465,366.6868 339.0854,350.00945 355.46728,333.23288 L 372.45447,315.83642 L 348.20748,327.44061 C 323.57068,339.23135 296.10522,340.89402 292.79517,330.79509 C 291.83353,327.86112 305.20839,318.83356 322.51709,310.73384 C 355.5755,295.26394 360.75436,288.43368 333.49866,296.25051 C 324.63734,298.7919 305.20907,300.87122 290.32473,300.87122 C 269.25709,300.87122 261.11446,298.72338 253.56626,291.17518 C 237.17068,274.77961 244.23822,270.53261 293.28601,267.30697 C 318.43394,265.6531 340.04488,263.26457 341.31034,261.99911 C 342.5758,260.73366 331.3503,258.31454 316.3648,256.62331 C 264.94405,250.82005 245.22029,244.37068 232.43883,229.18078 C 221.80795,216.5467 221.18978,213.99894 227.27802,207.9107 C 233.36625,201.82246 237.76572,202.21235 264.00714,211.16568 C 280.40396,216.76012 307.57029,222.3404 324.37676,223.5663 L 354.93399,225.79521 L 326.07514,217.12969 C 260.62307,197.47624 225.6534,172.39366 225.6534,145.10051 C 225.6534,124.01408 240.7203,125.31443 277.36564,149.56352 C 291.5865,158.9738 322.26126,173.81306 345.53177,182.53965 C 395.89659,201.42678 399.59456,204.07174 399.59456,221.20781 C 399.59456,230.51718 395.43196,237.37944 385.49122,244.45787 C 368.98729,256.20971 367.67299,264.82827 380.96505,274.13839 C 389.24492,279.93784 393.16375,279.94329 409.89573,274.17866 C 424.29501,269.2177 434.60716,268.65356 450.17964,271.97485 C 470.13466,276.23083 471.93509,275.69346 488.81505,260.44344 C 501.25203,249.20735 507.36879,239.14024 509.37259,226.60928 C 511.08074,215.92699 518.96592,200.89542 529.02771,189.14045 L 545.83033,169.51039 L 529.47262,176.34506 C 494.15589,191.10135 434.68109,189.46847 402.57194,172.86102 C 389.37937,166.03757 397.68079,160.58984 472.46181,126.99646 C 508.66037,110.73521 544.16068,92.513985 551.35141,86.504844 C 575.60779,66.234304 607.89169,62.934442 626.29565,78.844512 C 631.64021,83.464822 639.27439,84.870465 648.74074,82.9772 C 661.90935,80.343476 662.6777,80.871768 658.10512,89.415712 C 655.3654,94.534923 650.02503,98.72337 646.23758,98.72337 C 641.41227,98.72337 639.35454,103.99952 639.36211,116.35254 C 639.37184,132.23098 635.75363,137.42581 602.92849,168.66227 C 543.6791,225.04404 538.57158,238.498 567.65933,261.56644 C 583.8612,274.41555 586.96596,275.20625 606.0073,271.33266 C 621.04089,268.27436 631.36063,268.89916 643.6162,273.60968 C 663.94193,281.42204 675.58832,279.69175 679.19647,268.32355 C 682.88976,256.68695 677.7867,245.35378 667.36415,242.0458 C 657.19418,238.81797 651.62788,224.71164 655.59364,212.21659 C 658.42597,203.29278 672.99956,195.6787 719.95573,178.59017 C 734.55362,173.27763 759.56227,160.48676 775.53049,150.16601 C 814.01154,125.29448 824.56427,124.25151 826.56041,145.12251 C 829.21001,172.82598 792.49977,199.02076 723.6634,218.54522 L 698.11521,225.7916 L 728.67244,223.83392 C 745.47891,222.75719 773.51517,217.02012 790.9752,211.08486 C 815.32189,202.80863 824.01043,201.58314 828.25408,205.82679 C 836.72868,214.30141 823.42886,235.21988 804.54722,243.11392 C 795.8589,246.74633 770.4729,252.18977 748.13387,255.21045 C 701.0211,261.58103 710.64729,266.46818 772.15773,267.40722 C 804.91207,267.90726 808.59135,268.886 808.59135,277.09909 C 808.59135,298.3467 765.31911,307.7312 722.35522,295.8012 C 692.57574,287.53219 696.85992,295.12481 730.60784,310.42684 C 748.8711,318.7078 761.44591,327.16726 760.36917,330.44815 C 756.95809,340.84175 733.57922,339.26319 706.28377,326.79623 L 679.31076,314.47655 L 700.25017,335.86109 C 716.74539,352.70696 719.9704,358.46486 715.44506,362.99017 C 707.78605,370.6492 681.56155,356.71479 662.25785,334.7291 C 643.29158,313.12768 641.24002,317.63985 658.32118,343.38743 C 674.47543,367.73774 675.75808,376.08903 663.34385,376.08903 C 653.56521,376.08903 629.58747,351.10599 618.16348,329.01445 C 606.08877,305.6645 606.54449,313.16276 619.1886,345.8803 C 636.92332,391.77016 619.60221,401.30012 597.33783,357.90245 L 588.86958,341.39611 L 581.46801,366.64529 C 572.86854,395.98089 572.33017,395.19361 616.33456,417.63219 C 638.42645,428.8972 641.46219,431.89617 635.13901,436.2088 C 629.09173,440.33326 631.42513,441.40644 646.92221,441.62815 C 660.12044,441.81697 671.73585,438.17905 683.5646,430.15183 C 700.55842,418.61951 714.65179,415.34766 720.8094,421.50526 C 722.51779,423.21368 719.33532,426.91581 713.73719,429.73221 C 698.80425,437.24494 698.08531,445.72268 711.84927,451.99397 C 723.7869,457.43312 729.53584,471.85554 718.09493,467.66257 C 714.86292,466.47807 709.35575,467.33318 705.85676,469.56281 C 700.87152,472.73954 700.66424,475.80137 704.89891,483.71391 C 711.29769,495.6702 707.42237,505.24449 699.04198,498.18403 C 675.60341,478.43715 669.55661,474.8124 660.05354,474.8124 C 654.13179,474.8124 646.33259,479.02996 642.72204,484.18473 C 639.1115,489.3395 634.76052,492.16016 633.05327,490.45286 C 627.35547,484.75511 629.85989,469.85043 636.97376,467.12058 C 646.32648,463.53159 641.21712,456.00795 629.42706,456.00795 C 623.19856,456.00795 618.37343,460.8396 615.03329,470.42118 L 610.00879,484.83442 L 600.69518,469.2459 C 588.16836,448.27936 568.48729,427.80127 560.86355,427.80127 C 556.29078,427.80127 555.89198,429.97213 559.35223,436.02822 C 571.8398,457.88368 606.44351,546.60103 606.44351,556.76131 C 606.44351,574.53024 598.14196,575.5729 588.10283,559.06495 L 579.01957,544.12871 L 581.6317,572.93558 C 583.79191,596.75899 583.00362,601.74245 577.07486,601.74245 C 573.13195,601.74245 566.0217,593.80932 561.27438,584.11327 L 552.64281,566.4841 L 550.00431,588.2809 C 546.05805,620.88124 527.43694,636.28914 513.00303,618.89732 z M 582.93795,105.77504 C 582.93795,101.89662 579.7647,98.72337 575.88628,98.72337 C 572.00786,98.72337 568.83461,101.89662 568.83461,105.77504 C 568.83461,109.65346 572.00786,112.82671 575.88628,112.82671 C 579.7647,112.82671 582.93795,109.65346 582.93795,105.77504 z"/>
</svg>