<?xml version="1.0" encoding="UTF-8" standalone="no"?>
<!-- Created with Inkscape (http://www.inkscape.org/) -->

<svg
   xmlns:dc="http://purl.org/dc/elements/1.1/"
   xmlns:cc="http://creativecommons.org/ns#"
   xmlns:rdf="http://www.w3.org/1999/02/22-rdf-syntax-ns#"
   xmlns:svg="http://www.w3.org/2000/svg"
   xmlns="http://www.w3.org/2000/svg"
   xmlns:sodipodi="http://sodipodi.sourceforge.net/DTD/sodipodi-0.dtd"
   xmlns:inkscape="http://www.inkscape.org/namespaces/inkscape"
   width="420mm"
   height="297mm"
   viewBox="0 0 420 297"
   version="1.1"
   id="svg8"
   inkscape:version="0.92.3 (2405546, 2018-03-11)"
   sodipodi:docname="imsi.svg">
  <defs
     id="defs2" />
  <sodipodi:namedview
     id="base"
     pagecolor="#ffffff"
     bordercolor="#666666"
     borderopacity="1.0"
     inkscape:pageopacity="0.0"
     inkscape:pageshadow="2"
     inkscape:zoom="0.49497475"
     inkscape:cx="1282.1486"
     inkscape:cy="388.67805"
     inkscape:document-units="mm"
     inkscape:current-layer="layer1"
     showgrid="false"
     inkscape:window-width="1920"
     inkscape:window-height="1031"
     inkscape:window-x="0"
     inkscape:window-y="25"
     inkscape:window-maximized="1" />
  <metadata
     id="metadata5">
    <rdf:RDF>
      <cc:Work
         rdf:about="">
        <dc:format>image/svg+xml</dc:format>
        <dc:type
           rdf:resource="http://purl.org/dc/dcmitype/StillImage" />
        <dc:title></dc:title>
      </cc:Work>
    </rdf:RDF>
  </metadata>
  <g
     inkscape:label="Ebene 1"
     inkscape:groupmode="layer"
     id="layer1">
    <path
       inkscape:connector-curvature="0"
       id="path894"
       d="m 210.07794,164.93298 c -3.10654,-0.0456 -4.7254,-0.16129 -7.33987,-0.52447 -7.80815,-1.08462 -14.74854,-3.23027 -21.70168,-6.7091 -1.06401,-0.53236 -1.19677,-0.60113 -2.08722,-1.08114 -7.09558,-3.82492 -13.61084,-9.03069 -19.00115,-15.18215 -4.17779,-4.76771 -7.73339,-10.19758 -10.44792,-15.95534 -3.3238,-7.05008 -5.46614,-14.67723 -6.30808,-22.45807 -0.22078,-2.04029 -0.32637,-5.569912 -0.26632,-8.901856 0.0623,-3.45587 0.17386,-4.99087 0.55659,-7.65779 1.26973,-8.84762 4.13046,-17.2384 8.47647,-24.86225 5.08372,-8.91797 12.1051,-16.59027 20.53416,-22.43781 3.65297,-2.5342 7.59077,-4.73671 11.76417,-6.58001 7.33161,-3.23821 14.8436,-5.05043 23.60922,-5.69556 1.48169,-0.10905 7.51847,-0.003 10.27028,0.18092 0.52578,0.0351 1.71391,0.16178 2.59868,0.27711 4.6162,0.60171 9.13711,1.65017 13.47716,3.12556 1.23253,0.419 1.25324,0.42632 2.01812,0.71343 2.2624,0.84924 4.26512,1.72058 6.45521,2.80853 2.30963,1.14732 4.18594,2.20648 6.41375,3.62051 0.4349,0.27603 2.23608,1.47957 2.45593,1.64103 0.0785,0.0577 0.34179,0.24656 0.58507,0.41979 1.74063,1.23942 3.56335,2.68364 5.24608,4.1567 7.64327,6.69088 13.64207,14.81794 17.7551,24.0543 0.94555,2.12337 1.85344,4.49382 2.55177,6.66256 1.6562,5.14346 2.70682,10.26744 3.0723,14.98383 0.15021,1.93846 0.19527,3.1758 0.21392,5.87467 0.0259,3.753382 -0.0407,5.671826 -0.26844,7.726916 -1.5154,13.67546 -6.86974,26.4114 -15.46368,36.78233 -2.9115,3.51351 -6.41145,6.96487 -9.98311,9.84453 -4.20347,3.38903 -8.88697,6.33246 -13.64304,8.57418 -0.40293,0.18992 -0.78858,0.37024 -0.857,0.40071 -0.0684,0.0305 -0.42298,0.18885 -0.7879,0.35193 -4.26005,1.90388 -9.10625,3.46396 -13.8642,4.46312 -3.08346,0.64752 -6.53837,1.14023 -8.92948,1.27344 -1.23262,0.0687 -4.63378,0.15082 -5.5291,0.13355 -0.11404,-0.002 -0.82314,-0.0131 -1.57579,-0.0241 z m 6.37228,-3.50673 c 2.81045,-0.12304 4.70242,-0.36188 8.14159,-1.02777 6.34032,-1.22761 12.68471,-3.49454 18.41188,-6.57884 6.94689,-3.74116 13.1357,-8.66622 18.35345,-14.60572 3.27421,-3.72713 6.12637,-7.83419 8.51676,-12.26402 0.39425,-0.73062 1.3562,-2.64736 1.68573,-3.35893 2.25311,-4.86518 3.89633,-9.92112 4.89237,-15.053 0.91283,-4.70311 1.08014,-6.65739 1.08043,-12.620166 3.1e-4,-5.98061 -0.16929,-7.96792 -1.07812,-12.63397 -1.56279,-8.02353 -4.63324,-15.70407 -9.03487,-22.60016 -4.64367,-7.2753 -10.78278,-13.69863 -17.80869,-18.63318 -4.11195,-2.88797 -8.47987,-5.25045 -13.18793,-7.13297 -5.10471,-2.04112 -10.57274,-3.46558 -16.17135,-4.21276 -2.3273,-0.3106 -3.52953,-0.36503 -8.69449,-0.39364 -3.92301,-0.0217 -4.18629,-0.0119 -6.41375,0.24038 -2.2467,0.25442 -3.73253,0.47317 -5.55674,0.81809 -11.1057,2.09983 -21.60743,7.15286 -30.27177,14.56559 -2.85759,2.44479 -5.60131,5.22573 -7.92319,8.03064 -4.8299,5.83471 -8.53488,12.2587 -11.12913,19.29653 -1.44048,3.90785 -2.48263,7.9023 -3.22767,12.37134 -0.41,2.45942 -0.55686,4.07929 -0.62646,6.9103 -0.0377,1.53176 -0.0178,7.685016 0.0274,8.474416 0.0599,1.04674 0.14306,1.89789 0.29449,3.01336 0.95311,7.02128 2.74042,13.27742 5.52862,19.35187 0.36033,0.78501 1.36007,2.78527 1.78245,3.56626 6.36637,11.77169 15.99144,21.23699 27.82456,27.36273 5.78437,2.99443 11.94743,5.08839 18.48099,6.27909 3.33659,0.60808 5.19804,0.79925 8.47333,0.87022 0.90194,0.0195 7.02249,-0.009 7.63015,-0.0357 z m -5.98525,-1.26292 c -2.34808,-0.073 -3.93234,-0.18345 -5.94377,-0.4144 -9.4673,-1.08709 -18.60033,-4.29913 -26.71933,-9.3971 -5.13055,-3.2215 -9.83227,-7.20882 -13.92064,-11.80545 -3.03854,-3.41632 -5.74027,-7.21014 -8.00232,-11.23709 -3.70165,-6.58973 -6.18711,-13.73176 -7.39354,-21.24559 -0.36981,-2.30319 -0.56878,-4.115 -0.6649,-6.05436 -0.0861,-1.736962 -0.0861,-6.473746 0,-8.210706 0.0939,-1.8944 0.3041,-3.80887 0.66484,-6.05435 1.39684,-8.69543 4.49581,-16.86661 9.20639,-24.27485 5.72297,-9.00042 13.6975,-16.53171 22.99912,-21.72077 8.3837,-4.67698 17.5936,-7.38966 27.14784,-7.9961 1.36519,-0.0867 2.14463,-0.10798 3.93948,-0.10779 2.12345,2.1e-4 3.45418,0.0514 5.3494,0.2058 7.09202,0.57773 13.93137,2.27911 20.39473,5.07347 1.42798,0.61737 3.78418,1.76085 4.95615,2.40525 0.87952,0.4836 1.66478,0.92949 2.25311,1.27937 9.14057,5.43597 16.77762,13.02682 22.29714,22.16224 4.25196,7.03749 7.13881,14.94273 8.41468,23.04249 0.58469,3.7119 0.71316,5.52955 0.71316,10.0906 0,3.791109 -0.0739,5.299376 -0.37942,7.740736 -0.86864,6.94198 -2.72598,13.39205 -5.64017,19.58686 -5.10713,10.85638 -13.25653,20.17379 -23.3458,26.69181 -2.89787,1.87211 -6.1208,3.59695 -9.26621,4.95908 -6.69105,2.89757 -13.88522,4.64112 -21.22674,5.14444 -1.3255,0.0909 -2.36247,0.12679 -3.92565,0.13595 -0.8895,0.005 -1.74789,0.005 -1.90755,0.001 z m 6.87619,-4.70471 c 0.12299,-0.0702 0.12597,-0.12507 0.0179,-0.32903 -0.23208,-0.43807 -1.00151,-1.59194 -1.88409,-2.82545 -0.94583,-1.32192 -1.27779,-1.84448 -1.27785,-2.0115 0,-0.0802 0.0591,-0.14189 0.3113,-0.325 0.65265,-0.4739 1.14077,-1.04656 1.5007,-1.76068 0.26345,-0.52268 0.29905,-0.76676 0.28194,-1.93289 -0.0147,-1.00424 -0.0369,-1.14049 -0.25726,-1.5792 -0.37479,-0.74626 -0.82758,-1.28667 -1.43584,-1.71367 -0.20527,-0.1441 -0.6648,-0.3941 -0.88139,-0.4795 -0.73681,-0.29053 -2.10033,-0.37915 -6.44748,-0.41911 -1.2696,-0.0117 -2.02699,-0.009 -2.0372,0.008 -0.009,0.0144 -0.0296,0.56052 -0.0458,1.21347 -0.14101,5.66442 -0.16068,6.69208 -0.18527,9.68122 l -0.0187,2.27384 h 1.44157 1.44156 l 0.0126,-0.0622 c 0.007,-0.0342 0.0322,-0.47274 0.0562,-0.97451 0.0891,-1.86581 0.12689,-2.66598 0.14682,-3.11011 l 0.0205,-0.45615 h 1.28443 1.28443 l 0.91339,1.31547 c 0.78217,1.12653 1.9413,2.76561 2.29985,3.25216 0.0638,0.0865 0.13959,0.1553 0.18932,0.17169 0.0708,0.0233 0.7207,0.0632 1.54814,0.0951 0.58133,0.0224 1.66041,0.002 1.72029,-0.0317 z m -7.44291,-7.40445 c -0.7727,-0.0274 -1.66663,-0.0709 -1.71813,-0.0836 -0.0406,-0.01 -0.0639,-0.0423 -0.0736,-0.10224 -0.0346,-0.2133 0.1232,-3.13831 0.17087,-3.16786 0.0346,-0.0214 1.99564,0.0158 2.74049,0.052 1.56229,0.076 1.86115,0.24318 2.19785,1.22932 0.0938,0.27477 0.10202,0.32229 0.0907,0.52526 -0.0148,0.265 -0.12029,0.54236 -0.32447,0.85322 -0.23862,0.36329 -0.53043,0.5826 -0.87457,0.65731 -0.13164,0.0286 -1.70146,0.0546 -2.20912,0.0366 z m 13.03483,6.44098 c 0.94885,-0.20896 2.58017,-0.60143 4.35416,-1.04755 2.58443,-0.64992 3.69471,-0.95214 3.78052,-1.02907 0.1253,-0.11235 -0.0227,-1.06022 -0.29953,-1.9177 -0.12658,-0.39217 -0.18576,-0.47824 -0.33638,-0.48926 -0.23702,-0.0173 -1.26011,0.19834 -3.44871,0.72697 -2.2694,0.54814 -2.6619,0.63395 -2.71148,0.5928 -0.15565,-0.12917 -0.55897,-1.67176 -0.60972,-2.33198 -0.0171,-0.2226 -0.0154,-0.23245 0.0488,-0.27449 0.0833,-0.0546 0.86381,-0.26711 2.36011,-0.64259 2.32731,-0.58401 3.34588,-0.88823 3.39401,-1.01365 0.0426,-0.11095 -0.21798,-1.29646 -0.39832,-1.81242 -0.1555,-0.44485 -0.2691,-0.57978 -0.4591,-0.54528 -0.29831,0.0541 -1.12373,0.24541 -2.27396,0.52687 -1.50556,0.36842 -2.06912,0.49788 -2.75618,0.63314 -0.54065,0.10643 -0.67687,0.11862 -0.72071,0.0645 -0.0475,-0.0587 -0.18805,-0.53166 -0.34712,-1.16802 -0.18388,-0.73562 -0.20305,-0.84873 -0.15111,-0.89185 0.114,-0.0946 1.28965,-0.41987 3.57426,-0.9889 2.25436,-0.5615 2.58107,-0.65193 2.64629,-0.73247 0.0903,-0.11151 0.0561,-0.41131 -0.134,-1.17421 -0.26588,-1.06711 -0.3968,-1.36845 -0.59454,-1.36845 -0.16838,0 -6.92317,1.74339 -8.64942,2.23238 l -0.37321,0.10572 0.005,0.16484 c 0.009,0.31739 0.49928,2.43457 1.57379,6.79976 1.16126,4.71756 1.37771,5.48713 1.59469,5.6697 0.10617,0.0893 0.13638,0.0865 0.93206,-0.0888 z m -33.19821,-4.62764 c 1.58879,-0.15602 2.83975,-0.71252 3.89627,-1.73324 0.61828,-0.59733 1.03274,-1.18917 1.36079,-1.94313 0.34824,-0.80039 0.50245,-1.5594 0.49988,-2.46045 -0.004,-1.27559 -0.3418,-2.36584 -1.07497,-3.46583 -1.08406,-1.62643 -2.26441,-2.52764 -5.15593,-3.93665 -0.92109,-0.44883 -1.26503,-0.60038 -1.49656,-0.65941 -0.22012,-0.0561 -0.2972,-0.0305 -0.40118,0.13349 -0.14109,0.22245 -2.23509,4.55171 -3.52731,7.29256 -1.4124,2.99573 -1.91391,4.17496 -1.86258,4.3795 0.0267,0.10649 0.47261,0.35009 1.49474,0.81662 1.96168,0.89538 3.04762,1.28226 4.10975,1.46419 0.27702,0.0474 0.44044,0.0671 1.01965,0.12238 0.2267,0.0216 0.87289,0.016 1.13745,-0.01 z m -1.33096,-2.73834 c -0.31584,-0.0262 -0.74694,-0.12095 -1.32065,-0.29014 -0.74795,-0.22057 -1.31211,-0.43449 -1.36532,-0.5177 -0.01,-0.0156 -0.0111,-0.0482 -0.002,-0.0724 0.0249,-0.07 0.53884,-1.14555 1.07115,-2.2418 0.53423,-1.1002 1.42263,-2.96348 1.71462,-3.59617 0.26119,-0.56593 0.47954,-0.97982 0.55361,-1.04941 0.0577,-0.0542 0.0735,-0.0567 0.16945,-0.0263 0.25662,0.0812 0.93562,0.50562 1.46041,0.91286 1.02028,0.79177 1.52506,1.49042 1.70141,2.35484 0.0652,0.31972 0.078,0.90263 0.0277,1.266 -0.22538,1.62824 -1.26616,2.82134 -2.77346,3.17933 -0.18814,0.0447 -0.88775,0.1218 -0.95992,0.10581 -0.008,-0.002 -0.13201,-0.0129 -0.27645,-0.0249 z m 50.99204,1.26144 c 1.85193,-0.29129 3.80915,-1.3159 5.22664,-2.73616 0.26015,-0.26066 0.41002,-0.43389 0.45322,-0.52389 l 0.0645,-0.13445 -0.0564,-0.116 c -0.031,-0.0638 -0.13527,-0.21478 -0.23171,-0.33552 -0.24221,-0.30322 -1.2663,-1.33916 -1.32383,-1.33916 -0.0258,0 -0.28819,0.19396 -0.58304,0.43103 -0.80777,0.64943 -1.54496,1.12184 -2.38836,1.5305 -0.78596,0.38083 -0.99652,0.42526 -2.00429,0.42282 -0.95186,-0.002 -1.22846,-0.0621 -1.76731,-0.38199 -0.86265,-0.51211 -1.57141,-1.37278 -1.89154,-2.29696 -0.18685,-0.5394 -0.22542,-0.78311 -0.22464,-1.41942 6.8e-4,-0.52537 0.006,-0.58881 0.0768,-0.86932 0.22397,-0.89061 0.64323,-1.54819 1.34899,-2.1159 0.73128,-0.58821 1.38304,-0.93643 2.64216,-1.41163 1.0247,-0.38674 1.04745,-0.4047 1.04281,-0.82354 -0.005,-0.45038 -0.2571,-1.50764 -0.4327,-1.81456 -0.18381,-0.32127 -0.46076,-0.31391 -1.49514,0.0397 -1.39961,0.47845 -2.49039,1.05425 -3.45182,1.82217 -1.54217,1.23175 -2.49214,2.82645 -2.71933,4.5649 -0.0628,0.48091 -0.0429,1.39933 0.0406,1.86607 0.22753,1.27263 0.80583,2.48998 1.66267,3.50005 0.80115,0.9444 1.87632,1.63091 3.1089,1.98506 0.17806,0.0512 0.83635,0.17861 1.06435,0.20607 0.25733,0.031 1.54678,-0.004 1.83843,-0.0498 z m -60.39074,-2.90835 c 0.15436,-0.10251 0.52343,-0.49097 0.83678,-0.88073 0.37002,-0.46025 0.51911,-0.6775 0.58707,-0.85546 0.0419,-0.10961 0.042,-0.12606 0.001,-0.20489 -0.0475,-0.0919 -0.92695,-0.83558 -1.95107,-1.6499 -1.74915,-1.39083 -2.57103,-2.09642 -2.57103,-2.20728 0,-0.0906 1.11168,-1.53021 3.15136,-4.08107 1.29608,-1.62089 2.58916,-3.27864 2.9792,-3.81938 0.0949,-0.1316 0.17271,-0.26845 0.17282,-0.3041 0,-0.12125 -0.69194,-0.73478 -1.58983,-1.40887 -0.44602,-0.33483 -0.53598,-0.39057 -0.60306,-0.37356 -0.0951,0.0241 -0.69478,0.72048 -1.95597,2.27119 -2.34251,2.88026 -5.2389,6.5885 -5.95133,7.61949 -0.10637,0.15392 -0.18413,0.29552 -0.18413,0.33526 0,0.0515 0.0642,0.12733 0.25572,0.30204 1.34488,1.2267 5.99152,4.91078 6.61377,5.2437 0.13203,0.0706 0.12339,0.0701 0.2085,0.0136 z m 70.97896,-4.91568 c 1.86646,-0.29842 3.52282,-1.42194 4.58701,-3.1114 0.67863,-1.07737 0.91263,-1.9437 0.91098,-3.37275 -6.8e-4,-0.75477 -0.0499,-1.1819 -0.20172,-1.75791 -0.44122,-1.67378 -1.6936,-3.27929 -3.32687,-4.26496 -0.69273,-0.41805 -1.5861,-0.74772 -2.25968,-0.83386 -0.64818,-0.0829 -1.97513,-0.0588 -2.52756,0.046 -0.67075,0.12717 -1.56784,0.52719 -2.21339,0.98698 -0.76505,0.54492 -1.47174,1.29251 -1.95152,2.06448 -0.3352,0.53933 -0.64677,1.29114 -0.76743,1.85174 -0.12872,0.59806 -0.17762,1.58143 -0.1141,2.29458 0.11054,1.2409 0.5886,2.38759 1.45699,3.49473 0.24361,0.3106 0.93179,0.97677 1.27905,1.23813 1.05986,0.79773 2.28499,1.28192 3.58009,1.41493 0.2493,0.0256 1.2826,-0.008 1.54815,-0.0507 z m -1.07818,-2.81042 c -0.97471,-0.0912 -1.67447,-0.44184 -2.4759,-1.2405 -0.72589,-0.72339 -1.14615,-1.35858 -1.37758,-2.0821 -0.36874,-1.15281 -0.11264,-2.32165 0.71795,-3.27676 0.42139,-0.48456 0.96327,-0.85672 1.60121,-1.0997 0.20335,-0.0774 0.21798,-0.079 0.76025,-0.0782 0.46883,10e-4 0.59687,0.0103 0.84204,0.0634 0.88788,0.1922 1.47593,0.49654 2.12646,1.10055 0.64162,0.59572 1.13922,1.30177 1.37031,1.94435 0.26777,0.74454 0.31881,1.43611 0.15134,2.05044 -0.13986,0.51303 -0.53854,1.14379 -1.04747,1.6572 -0.79588,0.8029 -1.53121,1.06779 -2.66861,0.96133 z m -35.80086,-0.41224 c 3.25111,-0.1089 6.14266,-0.51814 9.187,-1.30024 4.01296,-1.03095 7.78033,-2.6205 11.29935,-4.76751 7.54799,-4.60515 13.55933,-11.72144 16.84892,-19.946 1.23631,-3.09098 2.08033,-6.23403 2.55377,-9.51004 0.55885,-3.867022 0.56394,-7.896066 0.0148,-11.735506 -0.56611,-3.95814 -1.62393,-7.59084 -3.29877,-11.32848 -0.48368,-1.0794 -1.30823,-2.6643 -1.988,-3.82124 -2.7459,-4.67341 -6.45108,-8.8392 -10.77287,-12.11211 -4.89391,-3.70618 -10.49971,-6.24415 -16.6011,-7.51597 -5.03997,-1.05057 -10.12758,-1.14258 -15.26029,-0.27599 -7.94123,1.34078 -15.0539,4.79641 -21.05202,10.22793 -0.61994,0.56138 -2.16309,2.10519 -2.69451,2.69567 -2.35829,2.62033 -4.19511,5.20561 -5.85852,8.2457 -0.3022,0.5523 -0.96526,1.87764 -1.25494,2.50838 -2.0242,4.40741 -3.27073,9.31543 -3.61251,14.22358 -0.14135,2.02977 -0.13252,4.29111 0.0245,6.275532 0.64117,8.103394 3.59082,15.707224 8.5847,22.130244 5.88571,7.57007 14.20896,12.86952 23.5549,14.99748 3.3482,0.76236 7.0069,1.11972 10.32558,1.00857 z m -2.33382,-6.914 c -0.1128,-0.0131 -0.24965,-0.0464 -0.3041,-0.0742 -0.17946,-0.0914 -0.19071,-0.14476 -0.22264,-1.05638 -0.11316,-3.23061 -0.11316,-20.01847 0,-23.24907 0.0318,-0.90944 0.0435,-0.96529 0.2204,-1.05511 0.15564,-0.079 0.53508,-0.10595 1.49286,-0.10595 0.95779,0 1.33723,0.0269 1.49286,0.10595 0.17688,0.0898 0.18855,0.14567 0.22041,1.05511 0.11316,3.2306 0.11316,20.01846 0,23.24907 -0.0318,0.90945 -0.0435,0.9653 -0.22041,1.05512 -0.0532,0.027 -0.20873,0.0619 -0.34556,0.0775 -0.29459,0.0336 -2.0391,0.0321 -2.33382,-0.002 z m -4.86783,-0.52365 c -0.87457,-0.15825 -2.41234,-0.49037 -2.43481,-0.52587 -0.0145,-0.0229 -0.025,-4.87496 -0.0252,-11.71049 0,-10.03084 0.005,-11.67687 0.0387,-11.71051 0.0215,-0.0215 0.16148,-0.0655 0.311,-0.0978 0.14953,-0.0323 0.67294,-0.14515 1.16314,-0.25091 1.04308,-0.22501 1.53246,-0.30144 1.64375,-0.25673 0.15764,0.0633 0.17153,0.12216 0.19304,0.81842 0.0108,0.35076 0.0282,3.38087 0.0386,6.73358 0.0187,6.06625 -0.0172,14.22908 -0.0708,16.0896 -0.0243,0.84442 -0.0269,0.87221 -0.0849,0.91921 -0.08,0.0648 -0.38585,0.0615 -0.77251,-0.009 z m 11.33989,0.0117 c -0.0633,-0.0514 -0.0641,-0.0598 -0.0888,-0.93627 -0.0789,-2.80171 -0.10319,-20.55119 -0.0313,-22.82787 0.019,-0.60008 0.0256,-0.66292 0.0774,-0.73261 0.10004,-0.13455 0.10659,-0.13396 1.33044,0.1186 1.03312,0.21319 1.54562,0.35259 1.83668,0.49951 0.10681,0.0539 0.13532,0.0846 0.15854,0.17088 0.10061,0.37363 0.13866,3.51982 0.13866,11.46469 0,7.96096 -0.038,11.09086 -0.13924,11.46682 -0.0257,0.0955 -0.0477,0.116 -0.2,0.18654 -0.47612,0.22051 -2.11405,0.59527 -2.74215,0.6274 -0.24217,0.0124 -0.28437,0.008 -0.34031,-0.0377 z m -17.7951,-1.85461 c -0.0304,-0.008 -0.22947,-0.0791 -0.44234,-0.15911 -0.87321,-0.32815 -2.2078,-0.94148 -2.32795,-1.06985 -0.0543,-0.0581 -0.0642,-0.11209 -0.0897,-0.49317 -0.15129,-2.26195 -0.17179,-14.99385 -0.0278,-17.29058 0.0249,-0.39658 0.0338,-0.44777 0.089,-0.50649 0.0736,-0.0783 1.17771,-0.62912 1.7206,-0.85833 0.51881,-0.21903 1.01918,-0.39183 1.13465,-0.39183 0.19358,0 0.22244,0.15874 0.26133,1.43756 0.035,1.14962 0.0347,13.75039 0,16.31087 -0.0254,1.85292 -0.0601,2.89511 -0.0999,2.99886 -0.0159,0.0414 -0.10352,0.0502 -0.21761,0.0221 z m 24.80276,-0.0189 c -0.0936,-0.24403 -0.12824,-3.6958 -0.12875,-12.84523 -3.2e-4,-6.10357 0.007,-7.90171 0.0327,-7.92736 0.0555,-0.0555 0.15545,-0.0385 0.53686,0.0908 0.67197,0.22794 2.4423,1.0339 2.55921,1.1651 0.1096,0.12299 0.1486,1.28527 0.193,5.75135 0.0469,4.71532 -0.0123,10.87871 -0.11642,12.13166 -0.0256,0.30731 -0.0387,0.36871 -0.0904,0.42406 -0.17154,0.18328 -2.48556,1.18867 -2.85121,1.23878 -0.0934,0.0128 -0.12117,0.007 -0.13498,-0.0292 z m -27.26321,-25.25875 c -2.8256,-0.0199 -4.57175,-0.0576 -4.96742,-0.10732 -0.14085,-0.0177 -0.21123,-0.0401 -0.23706,-0.0754 -0.14481,-0.19799 -0.50431,-1.79968 -0.50431,-2.2469 0,-0.10618 0.0118,-0.14376 0.0519,-0.16523 0.16652,-0.0891 7.62949,-0.13964 20.62687,-0.13964 12.99737,0 20.46035,0.0505 20.62688,0.13964 0.0401,0.0215 0.0519,0.0591 0.0519,0.16523 0,0.44722 -0.3595,2.04891 -0.50431,2.2469 -0.0258,0.0352 -0.096,0.0577 -0.23535,0.0752 -0.40636,0.051 -2.08135,0.0841 -5.54969,0.10965 -4.06509,0.0299 -25.02646,0.0284 -29.35947,-0.002 z m 4.28505,-4.106551 c -6.55091,-0.0336 -11.6931,-0.1213 -12.01196,-0.20496 -0.0718,-0.0188 -0.11552,-0.0565 -0.16956,-0.146291 -0.38735,-0.64319 -1.21271,-3.826254 -1.21271,-4.676914 0,-0.12678 0.008,-0.25007 0.0166,-0.27395 0.0424,-0.11055 0.50476,-0.14272 2.70641,-0.18835 2.43047,-0.0504 40.28177,-0.0504 42.71224,0 2.20165,0.0456 2.66399,0.0778 2.70641,0.18835 0.14644,0.3816 -0.48905,3.21996 -1.0263,4.583884 -0.14222,0.36106 -0.22263,0.482671 -0.33931,0.513191 -0.23581,0.0617 -2.55794,0.11826 -6.95283,0.16935 -2.23672,0.026 -22.87797,0.0539 -26.42906,0.0357 z m 1.65063,-8.364325 c -0.16261,-0.0364 -0.28218,-0.19717 -0.28218,-0.37945 0,-0.0924 1.2769,-6.44872 2.00646,-9.98808 0.012,-0.0584 -0.004,-0.095 -0.0764,-0.17041 -0.0992,-0.10383 -5.35383,-4.96782 -6.39559,-5.9201 -0.34932,-0.31931 -0.73139,-0.65987 -0.84906,-0.7568 -0.1908,-0.15719 -0.38043,-0.38312 -0.38043,-0.45326 0,-0.0141 0.02,-0.0678 0.0445,-0.11942 0.0332,-0.0699 0.0885,-0.11544 0.21723,-0.17882 0.15036,-0.074 0.24206,-0.0935 0.70883,-0.15072 0.29486,-0.0361 2.57635,-0.30925 5.06998,-0.60692 2.49361,-0.29767 4.55903,-0.55186 4.58983,-0.56487 0.0581,-0.0245 0.0744,-0.0582 3.01998,-6.23691 1.29358,-2.71341 1.4064,-2.93912 1.52361,-3.04791 0.15901,-0.14758 0.23616,-0.15169 0.37194,-0.0198 0.10338,0.10041 0.26713,0.38031 0.26724,0.45679 0,0.0237 0.0312,0.0852 0.0692,0.13668 0.038,0.0515 0.0691,0.10992 0.0691,0.12977 0,0.0198 0.0302,0.0952 0.0671,0.16741 0.12331,0.24143 0.20937,0.43587 0.20937,0.47303 0,0.0203 0.0232,0.0698 0.0517,0.11018 0.0284,0.0404 0.0608,0.10448 0.0719,0.1425 0.023,0.0784 0.12736,0.3109 0.2252,0.50169 0.0362,0.0707 0.0659,0.146 0.0659,0.16741 0,0.0214 0.0311,0.0811 0.0691,0.13261 0.038,0.0515 0.0691,0.11614 0.0691,0.14359 0,0.0275 0.0298,0.109 0.0663,0.18124 0.0618,0.12227 0.0992,0.20263 0.28022,0.60077 0.038,0.0836 0.10021,0.22047 0.13822,0.3041 0.038,0.0836 0.0998,0.21748 0.13735,0.29745 0.0375,0.08 0.12588,0.26981 0.19635,0.42186 0.14361,0.30986 1.4435,3.0057 1.9942,4.13574 0.19709,0.40444 0.37092,0.74311 0.38628,0.75261 0.0154,0.01 2.3529,0.29749 5.19454,0.64 2.84163,0.34251 5.20704,0.62954 5.25646,0.63783 0.0494,0.008 0.0898,0.0313 0.0898,0.051 0,0.0198 0.0262,0.0596 0.0581,0.0885 0.10026,0.0907 0.13633,0.19025 0.11784,0.32514 l -0.017,0.12414 -3.7494,3.34896 c -2.06218,1.84192 -3.78362,3.39357 -3.82544,3.44812 -0.0507,0.0661 -0.076,0.13232 -0.0758,0.19873 0,0.0548 0.45952,2.28908 1.02085,4.96516 0.60262,2.87293 1.01048,4.87599 0.99589,4.89096 -0.0136,0.0139 -0.0171,0.0978 -0.008,0.18626 0.015,0.14365 0.009,0.17292 -0.0573,0.27295 -0.0408,0.0616 -0.10784,0.12497 -0.14903,0.14076 -0.1567,0.0601 -0.21628,0.0351 -1.471,-0.61728 -0.60517,-0.31468 -1.91793,-0.98042 -4.02241,-2.03995 -1.12517,-0.56648 -2.43143,-1.22639 -2.90277,-1.46647 -0.47135,-0.24007 -0.90204,-0.44484 -0.95707,-0.45502 -0.0927,-0.0172 -0.43998,0.15256 -4.71865,2.30608 -2.54024,1.27855 -4.62875,2.3233 -4.64114,2.32167 -0.0124,-0.002 -0.0759,-0.0149 -0.14122,-0.0295 z m -34.33236,46.584636 c 0.16814,-0.0766 0.28354,-0.41385 1.14859,-3.35657 0.22804,-0.77572 0.47287,-1.59679 0.54408,-1.8246 0.0712,-0.2278 0.14153,-0.45772 0.15626,-0.51094 0.0494,-0.17844 0.0677,-0.1812 0.3561,-0.0537 0.44584,0.19717 1.13969,0.29653 1.86346,0.26682 0.61295,-0.0251 0.94693,-0.11458 1.52248,-0.40761 0.62162,-0.31648 1.22234,-0.81236 1.57137,-1.29713 0.55264,-0.76754 0.81807,-1.70788 0.78356,-2.77585 -0.0111,-0.34244 -0.0264,-0.46119 -0.0842,-0.65348 -0.25786,-0.85747 -0.76976,-1.65168 -2.86874,-4.45092 -0.96151,-1.28228 -1.85688,-2.44431 -1.99702,-2.59176 -0.047,-0.0494 -0.10372,-0.0898 -0.12613,-0.0898 -0.0538,0 -0.39921,0.23628 -1.20629,0.82527 -2.68756,1.9614 -8.57778,6.47193 -9.13016,6.99159 -0.0986,0.0927 -0.0979,0.10603 0.0172,0.3307 0.22692,0.44291 1.31873,1.77329 1.59581,1.94454 l 0.0969,0.0599 0.15766,-0.10377 c 0.22748,-0.14971 0.97816,-0.69628 1.89256,-1.37798 0.78587,-0.58587 1.5161,-1.09539 1.56987,-1.09539 0.0537,0 0.28547,0.23841 0.53747,0.55291 0.3611,0.45068 1.03718,1.38185 1.03718,1.42852 0,0.0804 -0.66253,2.34865 -1.25973,4.31293 -0.20424,0.67179 -0.37135,1.2485 -0.37135,1.28159 0,0.0598 0.88082,1.2937 1.31133,1.83699 0.26119,0.3296 0.51428,0.6005 0.66256,0.7092 0.12188,0.0893 0.12708,0.0905 0.21913,0.0485 z m 2.95133,-8.44527 c -0.0824,-0.0222 -0.21524,-0.0777 -0.29525,-0.12351 -0.17528,-0.10028 -0.55232,-0.49116 -0.9919,-1.02828 -0.51069,-0.62402 -1.67774,-2.1753 -1.66812,-2.21733 0.0103,-0.0452 1.2144,-0.97557 1.80569,-1.39522 0.469,-0.33285 0.81115,-0.55498 0.85488,-0.55498 0.10589,0 0.88294,0.97216 1.62414,2.03194 0.52296,0.74773 0.67875,1.03327 0.75794,1.38923 0.11652,0.52378 -0.0716,1.07339 -0.50271,1.46839 -0.19853,0.18192 -0.54097,0.36737 -0.79796,0.43214 -0.20578,0.0519 -0.58929,0.0507 -0.78671,-0.002 z m 89.76094,1.09527 c 0.12161,-0.0651 0.69362,-1.06541 1.0342,-1.8086 0.21549,-0.47023 0.28513,-0.67261 0.25038,-0.72764 -0.0279,-0.0442 -0.54236,-0.34516 -1.72534,-1.00931 -1.37855,-0.77394 -2.03841,-1.15432 -2.07138,-1.19404 -0.0593,-0.0715 0.15288,-0.59457 0.56404,-1.39047 0.26669,-0.51624 0.45367,-0.81641 0.54498,-0.87484 0.0719,-0.046 0.54196,-0.12497 1.83319,-0.30789 0.95622,-0.13547 3.01084,-0.40514 3.52358,-0.46247 l 0.31671,-0.0354 0.14485,-0.17963 c 0.41213,-0.51105 1.46231,-2.3897 1.51708,-2.71385 0.0158,-0.0935 0.009,-0.12233 -0.0403,-0.17143 -0.0559,-0.0557 -0.0847,-0.0589 -0.5075,-0.0561 -0.47375,0.003 -0.92644,0.0538 -3.03311,0.33995 -1.55382,0.21103 -2.40278,0.31363 -2.44891,0.29593 -0.0752,-0.0289 -0.14773,-0.25029 -0.21925,-0.66965 -0.0386,-0.22632 -0.0892,-0.47991 -0.11247,-0.56354 -0.31861,-1.14568 -1.12302,-2.08313 -2.26466,-2.63921 -0.64005,-0.31176 -0.92793,-0.37457 -1.71073,-0.37328 -0.71651,0.001 -1.13414,0.0636 -1.66202,0.24844 -0.73685,0.25798 -1.3253,0.73276 -1.79827,1.45089 -0.51255,0.77822 -1.74075,2.88628 -2.61734,4.4924 -0.73508,1.34681 -1.00421,1.89123 -0.97392,1.97015 0.0833,0.21702 6.12009,3.66938 10.02014,5.73036 0.45313,0.23945 1.33555,0.67221 1.37718,0.67539 0.005,0 0.0313,-0.0114 0.0588,-0.0261 z m -5.54134,-6.39682 c -0.76296,-0.39512 -2.15028,-1.17735 -2.28593,-1.28889 l -0.0639,-0.0526 0.15741,-0.31266 c 0.2913,-0.57858 1.30437,-2.22737 1.76696,-2.87578 0.10538,-0.1477 0.2332,-0.30029 0.28404,-0.33906 0.32919,-0.2511 0.99973,-0.33025 1.50187,-0.17729 0.69938,0.21303 1.14549,0.84102 1.10748,1.55897 -0.0149,0.28141 -0.10626,0.51653 -0.54787,1.40993 -0.63182,1.27818 -1.26226,2.33747 -1.39,2.33555 -0.0178,0 -0.25634,-0.11646 -0.53003,-0.2582 z m -92.88874,-2.69959 c 1.54884,-0.18192 3.01063,-0.87949 4.09656,-1.95486 0.18088,-0.17913 0.41347,-0.43143 0.51685,-0.56067 0.6456,-0.80706 1.22996,-1.9696 1.3688,-2.72309 0.0867,-0.47075 0.11245,-1.80902 0.0459,-2.39136 -0.0814,-0.71223 -0.25646,-1.31892 -0.54892,-1.90193 -0.35236,-0.70237 -0.64663,-1.11064 -1.19072,-1.65203 -1.65294,-1.64469 -3.68431,-2.30257 -5.96106,-1.93058 -1.46258,0.23897 -2.81597,0.93763 -3.86198,1.99367 -0.56985,0.57531 -0.93299,1.09776 -1.33851,1.92567 -0.38665,0.78938 -0.47079,1.09216 -0.52527,1.89042 -0.0395,0.57925 -0.0162,1.66054 0.0439,2.03849 0.17539,1.10166 0.55798,1.94577 1.2781,2.81985 0.28013,0.34002 0.86074,0.91941 1.15536,1.15292 0.55555,0.44032 1.18756,0.78415 1.8446,1.0035 0.53601,0.17893 0.90554,0.2519 1.66638,0.32909 0.18434,0.0187 1.14458,-0.008 1.40992,-0.0391 z m -1.99686,-2.95963 c -0.5771,-0.0751 -1.11401,-0.35684 -1.62103,-0.85072 -0.30413,-0.29625 -0.52088,-0.59681 -0.71023,-0.98483 -0.18537,-0.37986 -0.28108,-0.68772 -0.34258,-1.1019 -0.20564,-1.38494 0.41606,-2.7228 1.60205,-3.44745 0.47216,-0.2885 1.2476,-0.62928 1.72785,-0.75933 0.56583,-0.15323 1.26145,-0.19648 1.78761,-0.11114 0.70997,0.11515 1.37966,0.45108 1.86317,0.93458 0.63018,0.63018 0.97016,1.43498 1.01358,2.39933 0.0514,1.14252 -0.31674,2.00976 -1.1761,2.77029 -0.75191,0.66541 -1.62219,1.03777 -2.69236,1.15194 -0.30813,0.0329 -1.19692,0.0324 -1.45196,-0.001 z m 107.93158,-3.40004 c 0.11231,-0.28067 0.52408,-1.9455 0.67659,-2.73551 0.53587,-2.77578 0.34919,-4.87877 -0.5799,-6.53275 -0.87913,-1.56504 -1.94877,-2.45605 -3.56998,-2.9738 -1.72166,-0.54983 -3.65746,-0.25825 -5.21854,0.78604 -1.68437,1.12675 -2.73762,2.82365 -3.50807,5.65185 -0.30813,1.13114 -0.58316,2.39776 -0.59188,2.72589 -0.007,0.27852 0.027,0.31015 0.4784,0.43989 1.61607,0.46447 8.39205,2.02352 11.15494,2.56656 1.15389,0.2268 1.09783,0.22332 1.15844,0.0718 z m -2.30572,-3.43145 c -1.33874,-0.28536 -5.07616,-1.14045 -6.63954,-1.51908 -0.35723,-0.0865 -0.57687,-0.15273 -0.58606,-0.17668 -0.0317,-0.0826 0.20297,-0.92169 0.39696,-1.41944 0.36832,-0.94514 0.94917,-1.75123 1.59626,-2.21527 0.29463,-0.21128 0.76618,-0.44319 1.09162,-0.53685 0.79598,-0.2291 1.71232,-0.13613 2.55623,0.25935 0.70931,0.33239 1.43261,1.00035 1.73607,1.60326 0.19997,0.3973 0.33678,0.89784 0.40312,1.47493 0.0838,0.72938 -0.0755,2.13926 -0.2797,2.47508 -0.0562,0.0924 -0.0777,0.0967 -0.27496,0.0547 z m -100.83756,-6.25003 c 0.10062,-0.0876 0.12474,-0.3455 0.12474,-1.3339 0,-1.19287 -0.0312,-1.3672 -0.26496,-1.48036 -0.17165,-0.0831 -1.48933,-0.40887 -3.89527,-0.96304 -2.18936,-0.5043 -3.03401,-0.707627 -3.10531,-0.747527 -0.0277,-0.0155 -0.0302,-0.0279 -0.008,-0.0414 0.0171,-0.0106 0.65006,-0.22874 1.40656,-0.484817 2.87977,-0.974868 4.57516,-1.564338 5.14908,-1.790288 0.64965,-0.255764 0.62312,-0.222914 0.61827,-0.765824 -0.005,-0.5387 -0.0896,-1.56654 -0.133,-1.6135 -0.0301,-0.0326 -2.11598,-0.66868 -5.69644,-1.73718 -0.79066,-0.23595 -1.45311,-0.43399 -1.47212,-0.44008 -0.0739,-0.0237 -0.0282,-0.0684 0.11058,-0.108 0.28597,-0.0816 3.05684,-0.83117 5.0238,-1.35893 1.10194,-0.29568 2.01631,-0.5504 2.03193,-0.56607 0.0412,-0.0412 0.035,-2.27993 -0.007,-2.51094 -0.0365,-0.20113 -0.14593,-0.38216 -0.24632,-0.40736 -0.0756,-0.019 -0.15145,0 -2.34468,0.59865 -4.56595,1.24546 -10.16511,2.80141 -10.36145,2.87936 -0.12545,0.0498 -0.16597,0.1653 -0.17981,0.51234 -0.0196,0.49158 0.0234,1.87934 0.0598,1.92876 0.0307,0.0418 0.36439,0.144 3.51476,1.07705 3.16434,0.93719 4.03325,1.20427 4.08438,1.25539 0.0522,0.0522 -0.0247,0.10573 -0.34724,0.24189 -0.54424,0.22975 -1.06406,0.41331 -3.32246,1.173224 -2.61523,0.879961 -3.74644,1.279268 -3.78901,1.337478 -0.0597,0.0816 -0.0918,1.968904 -0.0372,2.185824 0.0502,0.19939 0.0947,0.22245 0.74952,0.38855 1.94146,0.49239 9.66143,2.30008 11.54999,2.70451 0.25088,0.0537 0.48104,0.10314 0.51144,0.1098 0.12738,0.0279 0.20817,0.0151 0.27571,-0.0437 z m 104.91736,-5.463684 c 0.0468,-0.0285 0.12363,-0.110117 0.1708,-0.181327 0.29536,-0.445911 0.68165,-2.142745 0.84055,-3.692255 0.0458,-0.44644 0.0454,-1.74639 -6.8e-4,-2.14253 -0.28481,-2.44985 -1.23352,-3.99721 -2.7959,-4.56015 -0.37321,-0.13447 -0.66822,-0.18464 -1.18007,-0.20068 -0.8653,-0.0271 -1.40997,0.11273 -2.01528,0.51745 -0.49793,0.33293 -0.64211,0.51194 -1.01752,1.26337 -0.36452,0.72965 -0.65586,1.44376 -1.31246,3.21694 -0.72612,1.96094 -0.9677,2.4409 -1.31378,2.61022 -0.17847,0.0873 -0.43392,0.11887 -0.57784,0.0714 -0.11272,-0.0372 -0.26679,-0.19543 -0.35098,-0.36047 -0.0816,-0.15989 -0.18665,-0.57405 -0.2541,-1.00156 -0.0479,-0.30388 -0.0602,-0.53317 -0.0708,-1.32047 -0.0178,-1.32408 0.0549,-2.5922 0.19086,-3.33232 0.0953,-0.51886 0.0953,-0.50101 3.1e-4,-0.58988 -0.17333,-0.16191 -0.64683,-0.26069 -1.75429,-0.36595 -0.39802,-0.0378 -0.66716,-0.0525 -0.682,-0.0371 -0.0135,0.0139 -0.0748,0.27416 -0.13633,0.57827 -0.20241,1.00085 -0.25206,1.73039 -0.25197,3.70246 0,1.98357 0.0435,2.39564 0.34574,3.28017 0.12516,0.36634 0.44489,1.012614 0.60755,1.228074 0.45993,0.60919 0.97767,0.945821 1.72826,1.123701 0.29762,0.0705 1.22004,0.10198 1.58127,0.0539 0.70819,-0.0942 1.14758,-0.30655 1.66365,-0.803901 0.73006,-0.703544 1.06601,-1.367804 1.96954,-3.894194 0.40155,-1.12279 0.61206,-1.66772 0.80045,-2.072 0.29361,-0.63009 0.57808,-0.89037 0.97307,-0.89037 0.38483,0 0.7171,0.32353 0.94961,0.92463 0.13826,0.35743 0.16497,0.56222 0.18178,1.3937 0.0268,1.32677 -0.10584,2.79845 -0.33927,3.76367 -0.15816,0.653954 -0.23062,1.114144 -0.18552,1.178134 0.0657,0.0931 0.51785,0.248801 1.32108,0.454731 0.58043,0.148817 0.77873,0.167117 0.9144,0.0844 z M 171.54018,69.885694 c 0.71947,-0.0778 1.43635,-0.29928 2.19483,-0.67814 1.10558,-0.55225 2.05657,-1.37389 2.90631,-2.51098 0.84087,-1.12522 1.79683,-2.86207 1.949,-3.54106 0.038,-0.16975 0.007,-0.21895 -0.31522,-0.50401 -0.98619,-0.87173 -3.85995,-3.07996 -4.45105,-3.42024 l -0.13511,-0.0778 -0.11969,0.0635 c -0.30428,0.16141 -1.09886,1.12265 -1.40493,1.69961 -0.14593,0.27506 -0.13754,0.3497 0.0601,0.53428 0.23308,0.21771 0.88978,0.75117 1.45829,1.18463 0.5646,0.43047 0.98626,0.76937 1.2786,1.02765 0.22447,0.19833 0.23785,0.23895 0.14125,0.42894 -0.25429,0.50011 -1.25838,1.71469 -1.73462,2.09826 -0.4689,0.37766 -0.90202,0.60563 -1.38214,0.72748 -0.39132,0.0993 -1.2578,0.0976 -1.79948,-0.004 -0.83952,-0.15672 -1.61275,-0.61143 -2.35495,-1.38485 -0.7352,-0.76614 -0.99384,-1.39478 -0.99275,-2.41301 0.001,-0.72902 0.12711,-1.24655 0.47242,-1.93518 0.41765,-0.83291 0.94388,-1.48928 2.46984,-3.08062 0.24119,-0.25152 0.43241,-0.473 0.42496,-0.49221 -0.007,-0.0192 -0.21884,-0.27127 -0.46974,-0.56017 -0.48436,-0.5577 -0.95317,-1.0315 -1.14857,-1.16081 -0.11419,-0.0756 -0.12184,-0.0769 -0.20862,-0.0355 -0.44826,0.21376 -2.35344,2.19424 -2.98542,3.1034 -0.59034,0.84927 -1.02724,1.86286 -1.23353,2.86173 -0.20116,0.97403 -0.20089,2.08201 10e-4,2.99643 0.17348,0.78687 0.48823,1.54619 0.83683,2.01887 0.3803,0.51565 1.25638,1.42074 1.73239,1.78977 0.74578,0.57817 1.63749,0.97163 2.64775,1.16829 0.73792,0.14366 1.43175,0.1742 2.16256,0.0952 z m 81.25204,0.0155 c 0.33284,-0.0559 0.75436,-0.19533 1.0663,-0.3528 0.76277,-0.38506 1.37381,-1.05906 1.62132,-1.78841 0.20051,-0.59084 0.17822,-1.46795 -0.0653,-2.57006 -0.1157,-0.52357 -0.26057,-1.04768 -0.61133,-2.21163 -0.33439,-1.1096 -0.58062,-2.04472 -0.63208,-2.40041 -0.0675,-0.46697 -0.003,-0.75536 0.21215,-0.94404 0.30203,-0.26519 0.66055,-0.26052 1.07411,0.014 0.40962,0.27189 1.15005,1.1623 2.01083,2.41816 0.32023,0.46721 0.52804,0.80332 0.87171,1.40992 0.15937,0.28129 0.35755,0.61407 0.44041,0.73952 0.16739,0.25341 0.20433,0.26987 0.41331,0.18418 0.76293,-0.31283 1.84166,-0.92763 1.87738,-1.06998 0.0601,-0.2395 -0.68501,-1.70346 -1.45928,-2.86707 -0.86848,-1.30522 -1.8257,-2.40523 -2.70045,-3.10328 -0.6369,-0.50826 -1.28483,-0.81161 -1.93727,-0.90701 -0.34176,-0.05 -0.83879,-0.0199 -1.14713,0.0693 -0.33124,0.0959 -0.74625,0.30028 -1.04741,0.5159 -0.65771,0.47089 -1.32342,1.33809 -1.4653,1.9088 -0.10308,0.41461 -0.10368,1.21365 -0.001,1.87567 0.11668,0.75541 0.28123,1.41494 0.63455,2.54339 0.49497,1.58087 0.73307,2.53166 0.74064,2.95761 0.003,0.1722 -0.008,0.22775 -0.0622,0.32431 -0.0767,0.13562 -0.20532,0.24558 -0.41712,0.35649 -0.13179,0.069 -0.18111,0.0791 -0.38608,0.0791 -0.21375,-1e-5 -0.25458,-0.009 -0.45173,-0.10263 -0.29765,-0.14093 -0.53425,-0.31515 -0.87169,-0.64186 -0.66362,-0.64253 -1.3611,-1.65414 -1.95453,-2.8348 -0.1261,-0.25089 -0.30592,-0.63032 -0.39959,-0.84319 -0.22603,-0.51364 -0.48155,-1.01205 -0.56502,-1.10211 -0.1361,-0.14685 -0.42227,-0.0802 -1.28851,0.30031 -0.81438,0.35768 -0.91034,0.4315 -0.91028,0.70025 3.1e-4,1.07182 1.69157,4.12268 3.07869,5.55341 0.96948,0.99997 1.97606,1.599 2.98945,1.77907 0.36098,0.0641 0.99199,0.0688 1.34284,0.01 z m -9.46732,-9.75717 c 0.38799,-0.0665 0.63528,-0.14573 0.99194,-0.31786 0.83686,-0.40389 1.42164,-1.06956 1.79982,-2.04882 0.29381,-0.76078 0.215,-1.50059 -0.26726,-2.50876 -0.23056,-0.48197 -0.42161,-0.81902 -1.044,-1.8418 -1.84094,-3.02523 -2.11129,-3.64769 -1.75158,-4.03281 0.31947,-0.34203 0.98511,-0.19414 2.00945,0.44645 0.72499,0.45339 1.45004,1.03605 2.4266,1.95006 0.69963,0.65481 1.12282,1.02366 1.25242,1.0916 0.0714,0.0374 0.16873,-0.017 0.42633,-0.23838 0.32837,-0.28219 1.35463,-1.31439 1.35463,-1.36247 0,-0.093 -0.705,-0.9251 -1.22924,-1.45079 -1.53517,-1.53939 -3.44527,-2.84902 -4.78877,-3.28335 -0.53692,-0.17357 -0.82137,-0.22058 -1.3495,-0.22302 -0.61299,-0.003 -0.96272,0.0752 -1.43757,0.32079 -0.59517,0.30781 -1.1403,0.89475 -1.50317,1.61845 -0.69566,1.38742 -0.36174,2.6179 1.525,5.61962 0.98786,1.57165 1.29923,2.12554 1.41315,2.51384 0.0609,0.20755 0.057,0.44861 -0.009,0.57853 -0.0742,0.14546 -0.25348,0.29924 -0.4633,0.39743 -0.16375,0.0766 -0.19581,0.0822 -0.40427,0.0701 -0.27162,-0.0158 -0.47171,-0.0803 -0.92736,-0.29918 -0.77333,-0.37143 -1.55303,-0.98918 -2.6998,-2.13905 -0.5482,-0.54967 -0.82973,-0.86348 -1.52712,-1.70219 -0.12011,-0.14444 -0.23641,-0.26137 -0.25845,-0.25982 -0.0637,0.004 -1.20135,0.93092 -1.48513,1.20947 -0.31498,0.30917 -0.35184,0.37029 -0.30776,0.51035 0.20132,0.63973 2.03017,2.67223 3.38529,3.76226 1.06499,0.85666 2.31298,1.43496 3.49374,1.61896 0.33526,0.0522 1.07144,0.0525 1.37515,3.4e-4 z m -60.67125,-0.16374 c 0.6639,-0.10015 1.65908,-0.59384 2.48809,-1.23432 0.30994,-0.23945 0.86698,-0.78597 1.08811,-1.06759 0.57716,-0.73498 0.97928,-1.59411 1.15593,-2.46969 0.0555,-0.27502 0.0639,-0.39854 0.0639,-0.93871 0,-0.54064 -0.008,-0.66363 -0.0641,-0.93995 -0.13022,-0.64601 -0.354,-1.2108 -0.70287,-1.77402 -0.84839,-1.36965 -3.06503,-4.4644 -4.29348,-5.99435 -0.47207,-0.58793 -0.64657,-0.77408 -0.72567,-0.77408 -0.27299,0 -1.8787,1.15087 -2.12502,1.52308 l -0.068,0.10269 0.0571,0.11187 c 0.12559,0.24617 1.01873,1.53721 2.03002,2.93445 2.15431,2.97641 2.78033,3.90051 2.91227,4.29886 0.0663,0.20029 0.0733,0.26163 0.0742,0.64967 0.001,0.50571 -0.0452,0.71587 -0.24756,1.12456 -0.37868,0.76477 -1.06563,1.34434 -1.94803,1.64354 -0.23479,0.0796 -0.29558,0.0889 -0.59334,0.0906 -0.57584,0.003 -1.22532,-0.21151 -1.63541,-0.54094 -0.30309,-0.24348 -1.60024,-1.9333 -3.392,-4.41882 -0.33431,-0.46375 -0.81437,-1.1231 -1.0668,-1.46521 -0.81436,-1.10369 -0.74772,-1.02288 -0.84365,-1.02288 -0.31394,0 -2.11994,1.26351 -2.2979,1.60764 -0.0761,0.14718 -0.0517,0.21674 0.21291,0.60608 1.02152,1.50317 4.45644,6.00879 5.09203,6.67922 0.2376,0.25065 0.65491,0.52526 1.27686,0.84026 0.84653,0.42876 1.01222,0.46155 2.34985,0.46513 0.68659,0.002 1.01074,-0.008 1.20258,-0.0371 z m 8.85125,-5.37596 c 0.69333,-0.19828 1.96999,-0.85722 2.16164,-1.11571 l 0.0566,-0.0764 -0.14884,-0.36593 c -0.30444,-0.74851 -0.97771,-2.23185 -2.06709,-4.55421 -0.28886,-0.61581 -0.96963,-2.07134 -1.5128,-3.23452 -0.99426,-2.12913 -1.53201,-3.22836 -1.67783,-3.42965 -0.0706,-0.0974 -0.0914,-0.10896 -0.19626,-0.10882 -0.2296,3.2e-4 -0.56127,0.13327 -1.55488,0.62332 -0.78978,0.38953 -0.98141,0.50181 -0.98141,0.57502 0,0.11076 0.38527,0.95209 2.81871,6.1552 1.81928,3.88994 2.52176,5.32026 2.71462,5.52727 0.066,0.0709 0.15178,0.0718 0.3875,0.004 z m 41.19081,-0.32395 c 0.1718,-0.15548 0.75916,-1.93158 0.73724,-2.22932 l -0.008,-0.11429 -0.3594,-0.14832 c -0.31507,-0.13003 -1.46778,-0.56511 -3.17923,-1.19996 -1.34847,-0.50021 -2.40408,-0.94727 -2.43656,-1.03191 -0.0501,-0.13047 0.79931,-2.35225 0.93017,-2.43313 0.0473,-0.0292 1.00824,0.30951 3.82862,1.34948 1.43379,0.5287 1.81072,0.63584 1.93796,0.5509 0.14889,-0.0994 0.56536,-1.14933 0.74336,-1.874 0.10046,-0.40901 0.0932,-0.44985 -0.0965,-0.54399 -0.22521,-0.11177 -1.65648,-0.67625 -2.93042,-1.15574 -1.85747,-0.69913 -2.51573,-0.99431 -2.51573,-1.12814 0,-0.0809 0.68211,-1.93838 0.73042,-1.98902 0.0276,-0.0289 0.27434,0.0512 1.30361,0.42356 1.66566,0.60249 1.99917,0.72446 2.9698,1.08611 1.00571,0.37472 1.37737,0.49834 1.56441,0.52032 0.41892,0.0492 0.52422,-0.082 0.86561,-1.0787 0.17383,-0.5075 0.2601,-0.8167 0.29198,-1.04656 0.0159,-0.11428 0.01,-0.13925 -0.0472,-0.19628 -0.14917,-0.14917 -4.44687,-1.76075 -7.63719,-2.86384 -1.12496,-0.38897 -1.10442,-0.38354 -1.19487,-0.31601 -0.13543,0.10111 -0.31633,0.52873 -0.95737,2.26302 -0.19108,0.51697 -0.77203,2.08447 -1.291,3.48333 -1.37809,3.71461 -2.26554,6.21789 -2.26554,6.39053 0,0.0309 0.0223,0.0762 0.0494,0.10085 0.10734,0.0971 1.29424,0.58461 2.67364,1.09807 1.00521,0.37418 5.29989,1.93445 5.54581,2.0148 0.42792,0.13984 0.64618,0.15977 0.74731,0.0682 z m -35.74867,-2.15417 c 0.90818,-0.17834 1.67687,-0.38595 1.77542,-0.47951 0.0459,-0.0436 0.0456,-0.062 -0.006,-0.37691 -0.1195,-0.72735 -0.33596,-1.73118 -0.92681,-4.29822 -0.64937,-2.82128 -0.70517,-3.09629 -0.62822,-3.09629 0.0162,0 0.0957,0.06 0.17678,0.13325 0.0811,0.0733 1.59045,1.40085 3.35423,2.95014 1.76379,1.54928 3.36629,2.95788 3.56114,3.13021 0.24077,0.21296 0.36919,0.30869 0.40086,0.29886 0.0256,-0.008 0.41981,-0.10207 0.87596,-0.20913 0.92134,-0.21624 1.31914,-0.33051 1.51031,-0.43381 0.20223,-0.10928 0.20758,-0.13465 0.1221,-0.57913 -0.30628,-1.59251 -1.98267,-9.09144 -2.54231,-11.37239 -0.21724,-0.88541 -0.21694,-0.88485 -0.47162,-0.88441 -0.30667,5.1e-4 -2.03667,0.40894 -2.30462,0.54406 -0.0848,0.0427 -0.17909,0.11224 -0.20962,0.15442 l -0.0555,0.0767 0.13407,0.66973 c 0.12092,0.60412 0.35573,1.67112 0.88352,4.01483 0.27366,1.21526 0.59765,2.75397 0.59765,2.83839 0,0.048 -0.068,0.0192 -0.19067,-0.0807 -0.63178,-0.51443 -2.54346,-2.1869 -6.29145,-5.50415 -0.48696,-0.43101 -0.90405,-0.79339 -0.92686,-0.80531 -0.0439,-0.0229 -1.7761,0.37432 -2.30084,0.52767 -0.41365,0.12087 -0.39583,0.0999 -0.34008,0.39937 0.32916,1.76803 2.73045,12.20672 2.86645,12.46085 0.0264,0.0494 0.048,0.0525 0.24041,0.0354 0.11625,-0.0103 0.42939,-0.0616 0.69586,-0.11394 z m 24.51861,-1.74091 c 0.0155,-0.0155 0.0905,-0.80544 0.16683,-1.75549 0.0763,-0.95004 0.2069,-2.5733 0.29021,-3.60724 0.49385,-6.12946 0.58808,-7.54791 0.50834,-7.65199 -0.0791,-0.10327 -0.98693,-0.20784 -2.01467,-0.23205 -0.62182,-0.0147 -0.71116,-0.0114 -0.74974,0.0272 -0.095,0.095 -0.23082,1.34871 -0.54863,5.0647 -0.14517,1.69738 -0.24369,2.6461 -0.2784,2.68081 -0.0186,0.0186 -0.0345,0.0187 -0.0476,3.1e-4 -0.26013,-0.36735 -1.43758,-2.26982 -2.72877,-4.40898 -1.99575,-3.30644 -2.29889,-3.75694 -2.62392,-3.89926 -0.20951,-0.0917 -1.20558,-0.19278 -1.9491,-0.19772 -0.56847,-0.004 -0.56294,-0.007 -0.59302,0.30053 -0.27667,2.82424 -0.9852,11.65059 -0.98496,12.26979 0,0.33422 0.0321,0.49721 0.10542,0.53642 0.12666,0.0678 0.77884,0.13942 1.93442,0.21248 0.50095,0.0317 0.76376,0.0385 0.78204,0.0202 0.0152,-0.0151 0.0518,-0.23946 0.0814,-0.49849 0.10549,-0.92271 0.44112,-5.02154 0.55186,-6.73962 0.03,-0.46508 0.0523,-0.59788 0.10359,-0.61496 0.0171,-0.006 0.0925,0.0806 0.16745,0.19171 0.37353,0.55356 1.79002,2.86827 3.7779,6.17351 0.64928,1.07955 1.18905,1.97166 1.19948,1.98245 0.0294,0.0304 0.94414,0.13265 1.41779,0.15843 0.56362,0.0307 1.39614,0.0233 1.43206,-0.0127 z m 47.26492,98.059796 c -0.94488,-0.1659 -1.67735,-0.53744 -2.31341,-1.17351 -0.82587,-0.82586 -1.2506,-1.90617 -1.2059,-3.0672 0.024,-0.62434 0.14198,-1.10239 0.40675,-1.64858 0.5667,-1.16904 1.60314,-1.97511 2.90243,-2.25731 0.4207,-0.0914 1.2104,-0.0914 1.63109,0 1.29929,0.2822 2.33573,1.08827 2.90243,2.25731 0.16337,0.33702 0.2534,0.59975 0.3363,0.98141 0.0532,0.24511 0.063,0.37203 0.063,0.81554 0,0.44352 -0.01,0.57044 -0.063,0.81555 -0.35977,1.65639 -1.58077,2.88126 -3.22491,3.23512 -0.35685,0.0768 -1.11003,0.0987 -1.43478,0.0417 z m 0.94646,-0.76156 c 1.22783,-0.12933 2.28355,-0.91438 2.75042,-2.04526 0.70585,-1.70975 -0.10489,-3.67472 -1.80595,-4.37698 -1.38985,-0.57378 -3.00453,-0.15341 -3.91049,1.01806 -0.22397,0.28961 -0.32409,0.45829 -0.4558,0.76793 -0.58188,1.368 -0.18453,2.97319 0.96462,3.89682 0.71795,0.57706 1.56859,0.83303 2.4572,0.73943 z m -1.54362,-1.37436 c -0.1442,-0.0265 -0.13823,0.0533 -0.13823,-1.84722 v -1.77773 l 0.0728,-0.0573 c 0.0691,-0.0543 0.10703,-0.0573 0.73017,-0.0573 0.72319,0 0.98757,0.0325 1.22844,0.15095 0.21813,0.10728 0.33536,0.22141 0.43466,0.42308 0.0826,0.16783 0.0911,0.20823 0.0911,0.43443 0,0.31558 -0.0582,0.49088 -0.22463,0.67592 -0.0682,0.0758 -0.19171,0.17665 -0.2745,0.22401 -0.0828,0.0474 -0.15054,0.0909 -0.15054,0.0968 0,0.006 0.0606,0.0673 0.13457,0.13656 0.15887,0.1486 0.2362,0.28876 0.49613,0.89922 0.23159,0.54391 0.24127,0.57732 0.18832,0.64967 -0.0364,0.0498 -0.0724,0.0553 -0.35982,0.0553 -0.28287,0 -0.32554,-0.006 -0.37352,-0.0553 -0.0298,-0.0304 -0.12994,-0.24585 -0.22256,-0.47875 -0.29726,-0.7475 -0.39938,-0.905 -0.63152,-0.97395 -0.0563,-0.0167 -0.16463,-0.0264 -0.24065,-0.0215 l -0.13823,0.009 -0.0138,0.7326 -0.0138,0.73261 -0.0968,0.033 c -0.095,0.0324 -0.3615,0.0409 -0.49762,0.0159 z m 1.38653,-2.19801 c 0.17698,-0.10392 0.25549,-0.26579 0.23906,-0.49292 -0.0225,-0.31051 -0.2008,-0.43567 -0.65653,-0.46078 -0.20158,-0.0111 -0.28792,-0.006 -0.31868,0.0198 -0.0348,0.0289 -0.0422,0.11801 -0.0422,0.51082 0,0.2617 0.009,0.48527 0.0207,0.49684 0.0114,0.0116 0.15758,0.0167 0.32484,0.0114 0.27193,-0.009 0.31771,-0.0176 0.43276,-0.0852 z"
       style="fill:#638d9d;stroke-width:0.02764546" />
    <text
       xml:space="preserve"
       style="font-style:normal;font-variant:normal;font-weight:normal;font-stretch:normal;font-size:42.33333206px;line-height:1.25;font-family:'Bebas Neue';-inkscape-font-specification:'Bebas Neue';text-align:center;letter-spacing:0px;word-spacing:0px;text-anchor:middle;fill:#000000;fill-opacity:1;stroke:none;stroke-width:0.26458332"
       x="209.20302"
       y="210.36781"
       id="text1004"><tspan
         sodipodi:role="line"
         id="tspan1002"
         x="212.59299"
         y="210.36781"
         style="text-align:center;letter-spacing:0px;text-anchor:middle;stroke-width:0.26458332">WORLD'S LARGEST </tspan><tspan
         sodipodi:role="line"
         x="209.20302"
         y="263.28448"
         style="text-align:center;letter-spacing:0px;text-anchor:middle;stroke-width:0.26458332"
         id="tspan1006">IMSI CATCHER</tspan></text>
    <path
       style="opacity:1;vector-effect:none;fill:#000000;fill-opacity:1;stroke:none;stroke-width:0.99995625;stroke-linecap:butt;stroke-linejoin:miter;stroke-miterlimit:4;stroke-dasharray:none;stroke-dashoffset:0;stroke-opacity:1"
       d="M 37.794922 26.457031 L 37.794922 1084.7246 L 1549.6055 1084.7246 L 1549.6055 26.457031 L 37.794922 26.457031 z M 75.589844 64.251953 L 1511.8105 64.251953 L 1511.8105 1046.9297 L 75.589844 1046.9297 L 75.589844 64.251953 z "
       transform="scale(0.26458333)"
       id="rect1008" />
  </g>
</svg>
