<?xml version="1.0" encoding="UTF-8"?>
<!DOCTYPE svg PUBLIC "-//W3C//DTD SVG 1.1//EN" "http://www.w3.org/Graphics/SVG/1.1/DTD/svg11.dtd">
<svg version="1.1" xmlns="http://www.w3.org/2000/svg" xmlns:xlink="http://www.w3.org/1999/xlink" x="0" y="0" width="1450" height="400" viewBox="0, 0, 145, 40">

  <defs xmlns="http://www.w3.org/2000/svg">
    <clipPath id="baseline-clip">
      <rect x="0" y="0" width="145" height="39"/>
    </clipPath>
    </defs>

    <path d="M5,39 L5,10 C5,6.686 7.686,4 11,4 C13.603,4 15.818,5.664 16.644,7.988 L23.356,32.012 C24.182,34.336 26.397,36 29,36 C32.314,36 35,33.314 35,30 L35,1" fill-opacity="0" stroke="#FF0000" stroke-width="8" id="N"/>
    <path d="M40.5,41.5 L51.356,7.988 C52.181,5.664 54.397,4 57,4 C59.603,4 61.819,5.664 62.644,7.988 L73.5,41.5" fill-opacity="0" stroke="red" stroke-width="8" id="A" clip-path="url(#baseline-clip)"/>
    <path d="M104,5 L84.494,5 C80.35,5 76.99,8.359 76.99,12.502 C76.99,16.645 80.35,20.004 84.5,20.004 L94.5,20.004 C98.642,20.004 102,23.361 102,27.502 C102,31.643 98.642,35 94.5,35 L74,34.992" fill-opacity="0" stroke="red" stroke-width="8" stroke-miterlimit="0" id="S"/>
    <path d="M106.625,41.5 L117.5,7.988 C118.327,5.664 120.546,4 123.154,4 C125.762,4 127.981,5.664 128.808,7.988 L139.683,41.5" fill-opacity="0" stroke="red" clip-path="url(#baseline-clip)" stroke-width="8"/>

</svg>