<?xml version="1.0" encoding="UTF-8" standalone="no"?>
<!-- Created with Inkscape (http://www.inkscape.org/) -->

<svg
   xmlns:dc="http://purl.org/dc/elements/1.1/"
   xmlns:cc="http://creativecommons.org/ns#"
   xmlns:rdf="http://www.w3.org/1999/02/22-rdf-syntax-ns#"
   xmlns:svg="http://www.w3.org/2000/svg"
   xmlns="http://www.w3.org/2000/svg"
   xmlns:sodipodi="http://sodipodi.sourceforge.net/DTD/sodipodi-0.dtd"
   xmlns:inkscape="http://www.inkscape.org/namespaces/inkscape"
   width="297mm"
   height="551.83044mm"
   viewBox="0 0 297 551.83044"
   version="1.1"
   id="svg8"
   inkscape:version="0.92.3 (2405546, 2018-03-11)"
   sodipodi:docname="schildabgelehntgrossvertikalrest.svg"
   inkscape:export-filename="/home/housemeista/Dropbox/Fla/Stencilkram Inkscape/Vorlagen/schildcyber.png"
   inkscape:export-xdpi="96"
   inkscape:export-ydpi="96">
  <defs
     id="defs2" />
  <sodipodi:namedview
     id="base"
     pagecolor="#ffffff"
     bordercolor="#666666"
     borderopacity="1.0"
     inkscape:pageopacity="0"
     inkscape:pageshadow="2"
     inkscape:zoom="0.49497475"
     inkscape:cx="600.8624"
     inkscape:cy="1060.0173"
     inkscape:document-units="mm"
     inkscape:current-layer="layer1"
     showgrid="true"
     inkscape:pagecheckerboard="true"
     inkscape:window-width="1920"
     inkscape:window-height="1031"
     inkscape:window-x="0"
     inkscape:window-y="25"
     inkscape:window-maximized="1"
     showguides="false"
     height="580mm"
     fit-margin-top="20"
     fit-margin-left="20"
     fit-margin-right="20"
     fit-margin-bottom="20">
    <inkscape:grid
       type="xygrid"
       id="grid3713"
       originx="-0.53695902"
       originy="127.42312" />
  </sodipodi:namedview>
  <metadata
     id="metadata5">
    <rdf:RDF>
      <cc:Work
         rdf:about="">
        <dc:format>image/svg+xml</dc:format>
        <dc:type
           rdf:resource="http://purl.org/dc/dcmitype/StillImage" />
        <dc:title></dc:title>
      </cc:Work>
    </rdf:RDF>
  </metadata>
  <g
     inkscape:label="Ebene 1"
     inkscape:groupmode="layer"
     id="layer1"
     transform="translate(-0.536959,127.40734)">
    <path
       style="fill:#ffcc00;stroke-width:0.16900268"
       d="m 276.45182,257.55276 h -14.21737 v 90 h 14.21737 z"
       id="path4019"
       inkscape:connector-curvature="0" />
    <path
       style="fill:#ffcc00;stroke-width:0.32907125"
       d="m 276.45182,361.77026 h -14.21737 v 14.2174 c 0,7.87647 -6.34087,14.21736 -14.21737,14.21736 h -14.21737 v 14.21811 h 14.21737 c 15.75299,0 28.43474,-12.68251 28.43474,-28.43547 z"
       id="path4017"
       inkscape:connector-curvature="0" />
    <path
       style="fill:#ffcc00;stroke-width:0.32907125"
       d="M 219.58234,390.20502 H 77.40717 v 14.21811 h 142.17517 z"
       id="path4013"
       inkscape:connector-curvature="0" />
    <path
       style="fill:#ffcc00;stroke-width:0.32907125"
       d="m 63.189795,-107.40734 h -14.2181 c -15.752994,0 -28.434736,12.681743 -28.434736,28.434735 v 14.217372 h 14.217375 v -14.217372 c -1.4e-5,-7.876497 6.340864,-14.21737 14.217361,-14.21737 h 14.2181 z"
       id="path4011"
       inkscape:connector-curvature="0" />
    <path
       style="fill:#ffcc00;stroke-width:0.32907125"
       d="m 63.189795,390.20502 h -14.2181 c -7.876497,0 -14.217375,-6.34089 -14.217361,-14.21736 v -14.2174 H 20.536959 v 14.2174 c 0,15.75296 12.681742,28.43547 28.434736,28.43547 h 14.2181 z"
       id="path4009"
       inkscape:connector-curvature="0" />
    <path
       style="fill:#ffcc00;stroke-width:0.16900268"
       d="M 34.754334,257.55276 H 20.536959 v 90 h 14.217375 z"
       id="path3757"
       inkscape:connector-curvature="0" />
    <path
       id="path682"
       style="font-style:normal;font-variant:normal;font-weight:normal;font-stretch:normal;font-size:42.33333206px;line-height:6.61458302px;font-family:'Capture Smallz Clean';-inkscape-font-specification:'Capture Smallz Clean';text-align:center;letter-spacing:0px;word-spacing:0px;text-anchor:middle;fill:#f9f9f9;fill-opacity:1;stroke:none;stroke-width:0.37617141"
       d="m 208.46642,305.58004 v -9.58062 h 32.65049 v 9.58062 z m 41.96661,10.66799 h -7.75853 v -31.38682 h 7.75853 z"
       inkscape:connector-curvature="0" />
    <path
       id="path125"
       style="font-style:normal;font-variant:normal;font-weight:normal;font-stretch:normal;font-size:14.11111069px;line-height:14.11111069px;font-family:'Capture Smallz Clean';-inkscape-font-specification:'Capture Smallz Clean';text-align:center;letter-spacing:0px;word-spacing:0px;text-anchor:middle;fill:#f9f9f9;fill-opacity:1;stroke:none;stroke-width:0.37617141"
       d="m 193.3783,285.64271 q 0,-0.93064 -0.51919,-1.55759 l 0.0882,-0.14695 2.47842,0.01 0.14694,0.098 q 0.41144,0.87186 0.41144,1.59678 z m 2.58618,-2.36087 h -10.65819 l -0.098,-0.098 v -2.99762 l 0.098,-0.098 h 10.65819 z"
       inkscape:connector-curvature="0" />
    <path
       id="path127"
       style="font-style:normal;font-variant:normal;font-weight:normal;font-stretch:normal;font-size:14.11111069px;line-height:14.11111069px;font-family:'Capture Smallz Clean';-inkscape-font-specification:'Capture Smallz Clean';text-align:center;letter-spacing:0px;word-spacing:0px;text-anchor:middle;fill:#f9f9f9;fill-opacity:1;stroke:none;stroke-width:0.37617141"
       d="m 185.20833,295.54661 v -3.19355 h 14.07703 v 3.19355 z m 14.04765,7.13157 h -2.58618 v -6.58299 h 2.58618 z m -5.3193,-0.5192 h -2.58618 v -6.0442 h 2.58618 z m -6.12258,0.5486 h -2.58618 v -6.583 h 2.58618 z"
       inkscape:connector-curvature="0" />
    <path
       id="path129"
       style="font-style:normal;font-variant:normal;font-weight:normal;font-stretch:normal;font-size:14.11111069px;line-height:14.11111069px;font-family:'Capture Smallz Clean';-inkscape-font-specification:'Capture Smallz Clean';text-align:center;letter-spacing:0px;word-spacing:0px;text-anchor:middle;fill:#f9f9f9;fill-opacity:1;stroke:none;stroke-width:0.37617141"
       d="m 193.3783,309.23179 q 0,-0.93063 -0.51919,-1.55758 l 0.0882,-0.14694 2.47842,0.01 0.14694,0.098 q 0.41144,0.87186 0.41144,1.59677 z m 2.58618,-2.36087 h -10.65819 l -0.098,-0.098 v -2.99762 l 0.098,-0.098 h 10.65819 z"
       inkscape:connector-curvature="0" />
    <path
       id="path131"
       style="font-style:normal;font-variant:normal;font-weight:normal;font-stretch:normal;font-size:14.11111069px;line-height:14.11111069px;font-family:'Capture Smallz Clean';-inkscape-font-specification:'Capture Smallz Clean';text-align:center;letter-spacing:0px;word-spacing:0px;text-anchor:middle;fill:#f9f9f9;fill-opacity:1;stroke:none;stroke-width:0.37617141"
       d="m 185.31608,314.87436 -0.2155,-0.1372 v -2.87025 l 0.20571,-0.18614 h 7.32751 l 0.15674,0.12739 v 2.89965 l -0.17634,0.16654 z m 11.32433,0.90124 q -0.0587,-0.63675 -0.7347,-0.73471 v 1.58698 l -0.098,0.10776 h -2.2923 l -0.098,-0.10776 v -6.46546 l 0.098,-0.10777 h 2.2923 l 0.098,0.10777 v 1.5282 q 1.52819,0.0587 2.20412,0.64656 1.06778,0.78368 1.14615,2.5274 v 1.7633 l -0.15674,0.11757 -2.31188,-0.01 -0.12739,-0.1372 z"
       inkscape:connector-curvature="0" />
    <path
       id="path133"
       style="font-style:normal;font-variant:normal;font-weight:normal;font-stretch:normal;font-size:14.11111069px;line-height:14.11111069px;font-family:'Capture Smallz Clean';-inkscape-font-specification:'Capture Smallz Clean';text-align:center;letter-spacing:0px;word-spacing:0px;text-anchor:middle;fill:#f9f9f9;fill-opacity:1;stroke:none;stroke-width:0.37617141"
       d="m 185.22792,324.51375 h 10.6582 l 0.0979,0.0979 v 2.99762 l -0.0979,0.098 h -10.6582 z m 0.53879,-0.66614 -0.2449,-0.098 q -0.31348,-0.48001 -0.31348,-1.59678 0,-1.9984 1.19512,-3.31108 1.20494,-1.3029 3.40906,-1.33228 h 6.03442 l 0.12739,0.0589 0.01,3.03678 -0.11758,0.098 h -6.59279 q -1.16574,0.15674 -1.26371,1.54779 0,0.81307 0.54859,1.44982 l -0.15674,0.14695 z m 11.54964,-3.66375 h 1.84167 v 2.10617 h -1.84167 z m 0,2.74291 h 1.84167 v 2.10617 h -1.84167 z"
       inkscape:connector-curvature="0" />
    <path
       id="path135"
       style="font-style:normal;font-variant:normal;font-weight:normal;font-stretch:normal;font-size:14.11111069px;line-height:14.11111069px;font-family:'Capture Smallz Clean';-inkscape-font-specification:'Capture Smallz Clean';text-align:center;letter-spacing:0px;word-spacing:0px;text-anchor:middle;fill:#f9f9f9;fill-opacity:1;stroke:none;stroke-width:0.37617141"
       d="m 185.20833,331.94902 v -3.19354 h 14.07703 v 3.19354 z"
       inkscape:connector-curvature="0" />
    <path
       id="path137"
       style="font-style:normal;font-variant:normal;font-weight:normal;font-stretch:normal;font-size:14.11111069px;line-height:14.11111069px;font-family:'Capture Smallz Clean';-inkscape-font-specification:'Capture Smallz Clean';text-align:center;letter-spacing:0px;word-spacing:0px;text-anchor:middle;fill:#f9f9f9;fill-opacity:1;stroke:none;stroke-width:0.37617141"
       d="m 185.20833,336.14176 v -3.19354 h 14.07703 v 3.19354 z"
       inkscape:connector-curvature="0" />
    <path
       id="path139"
       style="font-style:normal;font-variant:normal;font-weight:normal;font-stretch:normal;font-size:14.11111069px;line-height:14.11111069px;font-family:'Capture Smallz Clean';-inkscape-font-specification:'Capture Smallz Clean';text-align:center;letter-spacing:0px;word-spacing:0px;text-anchor:middle;fill:#f9f9f9;fill-opacity:1;stroke:none;stroke-width:0.37617141"
       d="m 185.22792,344.1452 h 10.6582 l 0.0979,0.098 v 2.99761 l -0.0979,0.098 h -10.6582 z m 0.53879,-0.66613 -0.2449,-0.098 q -0.31348,-0.48001 -0.31348,-1.59677 0,-1.99841 1.19512,-3.3111 1.20494,-1.30287 3.40906,-1.33226 h 6.03442 l 0.12739,0.0587 0.01,3.0368 -0.11758,0.098 h -6.59279 q -1.16574,0.15673 -1.26371,1.54779 0,0.81307 0.54859,1.44983 l -0.15674,0.14693 z"
       inkscape:connector-curvature="0" />
    <path
       id="path141"
       style="font-style:normal;font-variant:normal;font-weight:normal;font-stretch:normal;font-size:14.11111069px;line-height:14.11111069px;font-family:'Capture Smallz Clean';-inkscape-font-specification:'Capture Smallz Clean';text-align:center;letter-spacing:0px;word-spacing:0px;text-anchor:middle;fill:#f9f9f9;fill-opacity:1;stroke:none;stroke-width:0.37617141"
       d="m 195.96448,351.58047 h -10.65819 l -0.098,-0.098 v -2.99761 l 0.098,-0.098 h 10.65819 z m -0.53878,0.66614 0.24489,0.098 q 0.31348,0.48002 0.31348,1.59677 0,1.99841 -1.20492,3.30129 -1.19513,1.31269 -3.39926,1.34208 h -6.03442 l -0.12739,-0.0587 -0.01,-3.0368 0.11758,-0.098 h 6.5928 q 1.16573,-0.15675 1.26371,-1.54779 0,-0.81308 -0.54859,-1.44983 l 0.15691,-0.14699 z"
       inkscape:connector-curvature="0" />
    <path
       id="path143"
       style="font-style:normal;font-variant:normal;font-weight:normal;font-stretch:normal;font-size:14.11111069px;line-height:14.11111069px;font-family:'Capture Smallz Clean';-inkscape-font-specification:'Capture Smallz Clean';text-align:center;letter-spacing:0px;word-spacing:0px;text-anchor:middle;fill:#f9f9f9;fill-opacity:1;stroke:none;stroke-width:0.37617141"
       d="m 192.72197,366.35304 q 0.61715,-0.69552 0.61715,-1.62615 0,-1.07758 -0.82288,-1.84167 -0.82287,-0.7641 -1.98862,-0.7641 -1.16573,0 -1.9886,0.7641 -0.82288,0.76409 -0.82288,1.84167 0,0.93063 0.61715,1.62615 h -2.86046 q -0.31348,-0.80327 -0.31348,-1.72411 0,-2.06699 1.57718,-3.52661 1.57717,-1.45963 3.81069,-1.45963 2.23352,0 3.8107,1.45963 1.57717,1.45962 1.57717,3.52661 0,0.92084 -0.31348,1.72411 z m -0.92084,0.75431 4.01641,0.01 0.098,0.098 v 2.99762 l -0.098,0.098 h -4.036 l -0.0196,0.0196 h -7.02383 q -2.70373,-0.0882 -3.49723,-3.30129 -0.0881,-0.48001 -0.0685,-1.32248 h 2.72332 q 0.10776,1.25389 1.09717,1.39105 h 6.79852 z m -10.60922,-1.98861 q -0.0196,-1.05799 0.1372,-1.48902 0.88166,-2.83109 3.30131,-2.82129 l 0.17632,0.18613 0.01,2.47843 -0.11757,0.26449 q -0.65634,0.0489 -0.78369,1.38126 z"
       inkscape:connector-curvature="0" />
    <path
       id="path201"
       style="font-style:normal;font-variant:normal;font-weight:normal;font-stretch:normal;font-size:14.11111069px;line-height:14.11111069px;font-family:'Capture Smallz Clean';-inkscape-font-specification:'Capture Smallz Clean';text-align:center;letter-spacing:0px;word-spacing:0px;text-anchor:middle;fill:#f9f9f9;fill-opacity:1;stroke:none;stroke-width:0.37617141"
       d="m 175.9216,273.98532 h -10.65819 l -0.098,-0.098 v -2.99761 l 0.098,-0.098 h 10.65819 z m -10.75615,3.5266 0.11758,-0.0881 h 6.59279 q 1.16574,-0.14694 1.26371,-1.2637 0,-0.7739 -0.54859,-1.37146 l 0.15674,-0.1372 h 2.63516 l 0.2449,0.0881 q 0.31348,0.46042 0.31348,1.50861 0,1.79268 -1.08737,2.99761 1.08737,1.30288 1.08737,2.88006 v 0.54858 q 0,1.97882 -1.40085,3.3111 -1.39104,1.33227 -3.20333,1.36167 h -6.04422 l -0.12739,-0.0587 v -3.05639 l 0.11758,-0.0881 h 6.39688 q 1.33227,-0.20572 1.57718,-1.83187 -0.14695,-1.54779 -1.57718,-1.65556 h -6.39688 l -0.11758,-0.0881 z"
       inkscape:connector-curvature="0" />
    <path
       id="path203"
       style="font-style:normal;font-variant:normal;font-weight:normal;font-stretch:normal;font-size:14.11111069px;line-height:14.11111069px;font-family:'Capture Smallz Clean';-inkscape-font-specification:'Capture Smallz Clean';text-align:center;letter-spacing:0px;word-spacing:0px;text-anchor:middle;fill:#f9f9f9;fill-opacity:1;stroke:none;stroke-width:0.37617141"
       d="m 161.91314,291.36365 -0.11758,-0.11758 v -2.92903 l 0.098,-0.1372 h 13.88111 l 0.098,0.0979 v 2.99762 l -0.098,0.098 z m 13.66559,0.77388 q 0.31348,0.80329 0.31348,1.72413 0,2.06699 -1.57717,3.5266 -1.57718,1.45962 -3.81071,1.45962 -2.23351,0 -3.81069,-1.45962 -1.57717,-1.45961 -1.57717,-3.5266 0,-0.92084 0.31348,-1.72413 h 2.86046 q -0.61715,0.69554 -0.61715,1.62616 0,1.07757 0.82286,1.84168 0.82288,0.76409 1.98862,0.76409 1.16575,0 1.98862,-0.76409 0.82288,-0.76411 0.82288,-1.84168 0,-0.93062 -0.61716,-1.62616 z"
       inkscape:connector-curvature="0" />
    <path
       id="path205"
       style="font-style:normal;font-variant:normal;font-weight:normal;font-stretch:normal;font-size:14.11111069px;line-height:14.11111069px;font-family:'Capture Smallz Clean';-inkscape-font-specification:'Capture Smallz Clean';text-align:center;letter-spacing:0px;word-spacing:0px;text-anchor:middle;fill:#f9f9f9;fill-opacity:1;stroke:none;stroke-width:0.37617141"
       d="m 175.88242,305.11742 q 0.0196,0.83266 -0.0685,1.30288 -0.7935,3.17395 -3.49722,3.26212 h -7.02383 l -0.16653,-0.18614 v -2.87026 l 0.13719,-0.1372 h 6.79852 q 0.98941,-0.12739 1.09717,-1.37146 z m -5.98545,0.76409 -0.19591,-0.20571 q 0.0587,-0.52899 -0.0196,-1.08737 -0.098,-0.98941 -0.48001,-1.60657 -0.37226,-0.61716 -1.06778,-0.61716 -0.4996,0 -0.7739,0.66614 -0.25469,0.59756 -0.27429,1.38125 -0.01,0.79349 0.1372,1.30289 l -0.15673,0.16653 h -1.89066 q -0.10777,-0.33306 -0.1372,-1.70452 0.01,-0.96982 0.16653,-1.7633 0.16653,-0.7837 0.63675,-1.47922 0.18613,-0.29389 0.41144,-0.48981 0.23511,-0.18613 0.43103,-0.29389 0.19592,-0.10776 0.37226,-0.16652 0.44082,-0.14694 0.97961,-0.14694 1.78289,0 2.71352,1.20492 0.93064,1.21471 1.0286,3.25231 0.0882,0.83267 0.0196,1.43024 l -0.14694,0.15673 z m 3.24253,-1.32247 q -0.12739,-1.2735 -0.78369,-1.32248 l -0.11758,-0.2449 0.01,-2.37067 0.17633,-0.17633 q 2.41964,-0.01 3.3013,2.69394 0.15673,0.41144 0.1372,1.42044 z"
       inkscape:connector-curvature="0" />
    <path
       id="path207"
       style="font-style:normal;font-variant:normal;font-weight:normal;font-stretch:normal;font-size:14.11111069px;line-height:14.11111069px;font-family:'Capture Smallz Clean';-inkscape-font-specification:'Capture Smallz Clean';text-align:center;letter-spacing:0px;word-spacing:0px;text-anchor:middle;fill:#f9f9f9;fill-opacity:1;stroke:none;stroke-width:0.37617141"
       d="m 172.61051,315.56009 h -4.12418 q -0.77389,0.0685 -0.83266,0.90125 l -0.0196,0.82286 -0.12739,0.1372 -2.3119,0.01 -0.15673,-0.11758 v -1.76329 q 0.0783,-1.74372 1.14614,-2.52741 0.67593,-0.58776 2.20413,-0.64654 h 4.22214 z m 0.78369,-4.76092 h 2.42944 v 1.56738 h 3.16415 l 0.20571,0.18612 v 2.87028 l -0.21551,0.1372 h -3.15435 v 1.82207 h -2.42944 z"
       inkscape:connector-curvature="0" />
    <path
       id="path209"
       style="font-style:normal;font-variant:normal;font-weight:normal;font-stretch:normal;font-size:14.11111069px;line-height:14.11111069px;font-family:'Capture Smallz Clean';-inkscape-font-specification:'Capture Smallz Clean';text-align:center;letter-spacing:0px;word-spacing:0px;text-anchor:middle;fill:#f9f9f9;fill-opacity:1;stroke:none;stroke-width:0.37617141"
       d="m 165.14585,318.2932 0.098,-0.098 h 13.88112 l 0.098,0.098 v 2.99762 l -0.098,0.098 h -13.88112 l -0.098,-0.098 z m 10.21737,3.76171 0.2449,0.098 q 0.31348,0.48001 0.31348,1.59677 0,1.99841 -1.20492,3.3013 -1.19514,1.31268 -3.39926,1.34208 H 165.283 l -0.12739,-0.0587 -0.01,-3.03679 0.11757,-0.0979 h 6.5928 q 1.16574,-0.15674 1.26371,-1.54779 0,-0.81307 -0.5486,-1.44983 l 0.15675,-0.14694 z"
       inkscape:connector-curvature="0" />
    <path
       id="path211"
       style="font-style:normal;font-variant:normal;font-weight:normal;font-stretch:normal;font-size:14.11111069px;line-height:14.11111069px;font-family:'Capture Smallz Clean';-inkscape-font-specification:'Capture Smallz Clean';text-align:center;letter-spacing:0px;word-spacing:0px;text-anchor:middle;fill:#f9f9f9;fill-opacity:1;stroke:none;stroke-width:0.37617141"
       d="m 165.24381,332.63474 -0.098,-0.098 v -2.99762 l 0.098,-0.0979 h 10.51126 l 0.14694,0.15673 0.01,2.83109 -0.20571,0.20571 z m 11.41249,-3.12496 0.0783,-0.0685 h 2.39025 l 0.098,0.098 v 2.99761 l -0.098,0.098 h -2.38045 l -0.0881,-0.098 z"
       inkscape:connector-curvature="0" />
    <path
       id="path213"
       style="font-style:normal;font-variant:normal;font-weight:normal;font-stretch:normal;font-size:14.11111069px;line-height:14.11111069px;font-family:'Capture Smallz Clean';-inkscape-font-specification:'Capture Smallz Clean';text-align:center;letter-spacing:0px;word-spacing:0px;text-anchor:middle;fill:#f9f9f9;fill-opacity:1;stroke:none;stroke-width:0.37617141"
       d="m 166.69364,342.04883 q -1.44003,-1.36167 -1.57717,-3.23273 l 0.098,-0.0685 h 2.43924 l 0.11757,0.098 q 0.12739,0.80329 0.7837,1.40085 0.0489,0.0392 0.0882,0.0783 l -1.81229,1.84168 q -0.0685,-0.0587 -0.1372,-0.11758 z m 4.88828,-1.2735 q 0.45061,-0.17633 0.83266,-0.52899 0.64654,-0.60736 0.7739,-1.41065 l 0.098,-0.0881 h 2.51761 l 0.10777,0.1372 q -0.14694,1.82209 -1.56738,3.26212 -1.19513,1.12655 -2.76251,1.2637 -1.18534,0.0392 -1.97882,-0.17633 v -7.14138 q -0.57797,0.17633 -1.04818,0.60736 -0.62697,0.56817 -0.76411,1.33228 l -0.14694,0.0881 h -2.42944 l -0.0881,-0.0881 q 0.1372,-1.85148 1.56738,-3.21314 1.57718,-1.4988 3.82049,-1.4988 2.24332,0 3.83029,1.4988 1.43024,1.36166 1.56738,3.21314 l -0.098,0.0881 h -2.56658 l -0.0685,-0.0587 q -0.12739,-0.7739 -0.76411,-1.36167 -0.38205,-0.34287 -0.83266,-0.52899 z"
       inkscape:connector-curvature="0" />
    <path
       id="path215"
       style="font-style:normal;font-variant:normal;font-weight:normal;font-stretch:normal;font-size:14.11111069px;line-height:14.11111069px;font-family:'Capture Smallz Clean';-inkscape-font-specification:'Capture Smallz Clean';text-align:center;letter-spacing:0px;word-spacing:0px;text-anchor:middle;fill:#f9f9f9;fill-opacity:1;stroke:none;stroke-width:0.37617141"
       d="m 162.70661,345.02683 2.45884,0.7837 v -1.08737 h 2.80168 v 3.15435 h -2.80168 l -2.45884,-1.66534 z"
       inkscape:connector-curvature="0" />
    <path
       id="path279"
       style="font-style:normal;font-variant:normal;font-weight:normal;font-stretch:normal;font-size:14.11111069px;line-height:14.11111069px;font-family:'Capture Smallz Clean';-inkscape-font-specification:'Capture Smallz Clean';text-align:center;letter-spacing:0px;word-spacing:0px;text-anchor:middle;fill:#f9f9f9;fill-opacity:1;stroke:none;stroke-width:0.37617141"
       d="m 152.54802,284.56514 h -4.12417 q -0.77388,0.0685 -0.83266,0.90124 l -0.0196,0.82287 -0.12739,0.1372 -2.31189,0.01 -0.15674,-0.11758 v -1.7633 q 0.0783,-1.74372 1.14615,-2.5274 0.67593,-0.58776 2.20412,-0.64654 h 4.22213 z m 0.7837,-4.76092 h 2.42945 v 1.56738 h 3.16414 l 0.20572,0.18612 v 2.87027 l -0.21551,0.1372 h -3.15435 v 1.82207 h -2.42945 z"
       inkscape:connector-curvature="0" />
    <path
       id="path281"
       style="font-style:normal;font-variant:normal;font-weight:normal;font-stretch:normal;font-size:14.11111069px;line-height:14.11111069px;font-family:'Capture Smallz Clean';-inkscape-font-specification:'Capture Smallz Clean';text-align:center;letter-spacing:0px;word-spacing:0px;text-anchor:middle;fill:#f9f9f9;fill-opacity:1;stroke:none;stroke-width:0.37617141"
       d="m 153.25335,292.75469 q 0,-0.93062 -0.51919,-1.55759 l 0.0881,-0.14693 2.47842,0.01 0.14694,0.098 q 0.41144,0.87186 0.41144,1.59676 z m 2.58618,-2.36086 h -10.65819 l -0.098,-0.098 v -2.99762 l 0.098,-0.098 h 10.65819 z"
       inkscape:connector-curvature="0" />
    <path
       id="path283"
       style="font-style:normal;font-variant:normal;font-weight:normal;font-stretch:normal;font-size:14.11111069px;line-height:14.11111069px;font-family:'Capture Smallz Clean';-inkscape-font-specification:'Capture Smallz Clean';text-align:center;letter-spacing:0px;word-spacing:0px;text-anchor:middle;fill:#f9f9f9;fill-opacity:1;stroke:none;stroke-width:0.37617141"
       d="m 155.81994,298.92625 q 0.0196,0.83268 -0.0685,1.30289 -0.79349,3.17395 -3.49722,3.26211 h -7.02383 l -0.16653,-0.18612 v -2.87028 l 0.1372,-0.13719 h 6.79851 q 0.98941,-0.12739 1.09718,-1.37147 z m -5.98544,0.76411 -0.19592,-0.20573 q 0.0587,-0.52899 -0.0196,-1.08737 -0.098,-0.98941 -0.48001,-1.60656 -0.37226,-0.61716 -1.06778,-0.61716 -0.4996,0 -0.7739,0.66613 -0.25469,0.59757 -0.27428,1.38126 -0.01,0.79348 0.1372,1.30288 l -0.15674,0.16655 h -1.89065 q -0.10777,-0.33308 -0.1372,-1.70454 0.01,-0.96982 0.16653,-1.7633 0.16653,-0.7837 0.63674,-1.47922 0.18614,-0.29389 0.41144,-0.4898 0.23512,-0.18612 0.43103,-0.29389 0.19592,-0.10777 0.37226,-0.16653 0.44081,-0.14694 0.97962,-0.14694 1.78288,0 2.71352,1.20492 0.93063,1.21473 1.02859,3.25232 0.0882,0.83267 0.0196,1.43023 l -0.14693,0.15675 z m 3.24251,-1.32249 q -0.12738,-1.27349 -0.78368,-1.32248 l -0.11758,-0.2449 0.01,-2.37067 0.17632,-0.17632 q 2.41965,-0.01 3.3013,2.69393 0.15674,0.41144 0.1372,1.42044 z m 4.11438,-2.22372 h 1.84168 v 2.10617 h -1.84168 z m 0,2.74292 h 1.84168 v 2.10616 h -1.84168 z"
       inkscape:connector-curvature="0" />
    <path
       id="path285"
       style="font-style:normal;font-variant:normal;font-weight:normal;font-stretch:normal;font-size:14.11111069px;line-height:14.11111069px;font-family:'Capture Smallz Clean';-inkscape-font-specification:'Capture Smallz Clean';text-align:center;letter-spacing:0px;word-spacing:0px;text-anchor:middle;fill:#f9f9f9;fill-opacity:1;stroke:none;stroke-width:0.37617141"
       d="m 152.59702,311.27918 q 0.61715,-0.69552 0.61715,-1.62615 0,-1.07757 -0.82288,-1.84167 -0.82287,-0.7641 -1.98862,-0.7641 -1.16573,0 -1.98861,0.7641 -0.82287,0.7641 -0.82287,1.84167 0,0.93063 0.61715,1.62615 h -2.86047 q -0.31347,-0.80327 -0.31347,-1.72411 0,-2.06698 1.57718,-3.52661 1.57717,-1.45962 3.81069,-1.45962 2.23352,0 3.8107,1.45962 1.57717,1.45963 1.57717,3.52661 0,0.92084 -0.31348,1.72411 z m -0.92084,0.75431 4.01641,0.01 0.098,0.0979 v 2.99762 l -0.098,0.098 h -4.036 l -0.0196,0.0196 h -7.02383 q -2.70373,-0.0881 -3.49723,-3.30129 -0.0881,-0.48001 -0.0685,-1.32248 h 2.72332 q 0.10776,1.25391 1.09716,1.39105 h 6.79853 z m -10.60922,-1.98861 q -0.0196,-1.05798 0.1372,-1.48902 0.88166,-2.83107 3.30131,-2.82127 l 0.17632,0.18612 0.01,2.47842 -0.11757,0.26449 q -0.65634,0.0489 -0.7837,1.38126 z"
       inkscape:connector-curvature="0" />
    <path
       id="path287"
       style="font-style:normal;font-variant:normal;font-weight:normal;font-stretch:normal;font-size:14.11111069px;line-height:14.11111069px;font-family:'Capture Smallz Clean';-inkscape-font-specification:'Capture Smallz Clean';text-align:center;letter-spacing:0px;word-spacing:0px;text-anchor:middle;fill:#f9f9f9;fill-opacity:1;stroke:none;stroke-width:0.37617141"
       d="m 146.63117,324.84682 q -1.44004,-1.36167 -1.57718,-3.23272 l 0.098,-0.0685 h 2.43924 l 0.11758,0.098 q 0.12739,0.80328 0.7837,1.40084 0.0489,0.0392 0.0882,0.0783 l -1.8123,1.84166 q -0.0685,-0.0587 -0.13719,-0.11758 z m 4.88826,-1.27351 q 0.45062,-0.17632 0.83268,-0.52899 0.64654,-0.60735 0.7739,-1.41063 l 0.098,-0.0881 h 2.5176 l 0.10777,0.1372 q -0.14694,1.82207 -1.56738,3.26211 -1.19514,1.12655 -2.76252,1.26371 -1.18532,0.0392 -1.9788,-0.17634 v -7.14138 q -0.57799,0.17634 -1.04819,0.60737 -0.62696,0.56817 -0.7641,1.33226 l -0.14694,0.0881 h -2.42944 l -0.0882,-0.0881 q 0.1372,-1.85146 1.56738,-3.21312 1.57717,-1.49881 3.82048,-1.49881 2.24332,0 3.8303,1.49881 1.43023,1.36166 1.56738,3.21312 l -0.098,0.0881 h -2.56659 l -0.0685,-0.0587 q -0.12739,-0.77388 -0.7641,-1.36165 -0.38205,-0.34287 -0.83268,-0.52899 z"
       inkscape:connector-curvature="0" />
    <path
       id="path289"
       style="font-style:normal;font-variant:normal;font-weight:normal;font-stretch:normal;font-size:14.11111069px;line-height:14.11111069px;font-family:'Capture Smallz Clean';-inkscape-font-specification:'Capture Smallz Clean';text-align:center;letter-spacing:0px;word-spacing:0px;text-anchor:middle;fill:#f9f9f9;fill-opacity:1;stroke:none;stroke-width:0.37617141"
       d="m 153.25335,333.07555 q 0,-0.93063 -0.51919,-1.55758 l 0.0881,-0.14694 2.47842,0.01 0.14694,0.098 q 0.41144,0.87186 0.41144,1.59677 z m 2.58618,-2.36087 h -10.65819 l -0.098,-0.098 v -2.99762 l 0.098,-0.098 h 10.65819 z"
       inkscape:connector-curvature="0" />
    <path
       id="path291"
       style="font-style:normal;font-variant:normal;font-weight:normal;font-stretch:normal;font-size:14.11111069px;line-height:14.11111069px;font-family:'Capture Smallz Clean';-inkscape-font-specification:'Capture Smallz Clean';text-align:center;letter-spacing:0px;word-spacing:0px;text-anchor:middle;fill:#f9f9f9;fill-opacity:1;stroke:none;stroke-width:0.37617141"
       d="m 154.92849,342.11742 q -0.67593,0.84247 -2.21392,1.15595 h -0.10777 l -0.21552,-2.95843 q 1.01879,-0.10777 1.06777,-1.20494 h 2.3021 l 0.0392,0.0392 h 0.0392 q 0,1.62616 -0.91104,2.96822 z m -7.37648,-8.05241 q 0.67593,-0.15675 0.97961,-0.15675 l 0.0783,0.0783 0.10777,2.91925 -0.0294,0.0392 q -1.08737,0.0783 -1.26371,1.57718 h -2.2629 l -0.0783,-0.0587 q 0.0587,-1.78289 0.61715,-2.84087 l 0.18613,-0.31348 q 0.58778,-0.90125 1.66535,-1.24411 z m 1.60656,5.33888 q 0.17633,-0.56817 0.30367,-1.46942 0.21553,-1.02859 0.61717,-1.90045 0.27428,-0.54858 0.63675,-0.93062 0.64654,-0.61717 1.2343,-0.74452 0.34287,-0.0881 0.73472,-0.0881 0.69552,0.0196 1.05798,0.1372 0.54858,0.19593 0.87185,0.52899 0.5388,0.5094 0.81308,1.31269 0.2743,0.80328 0.37226,1.60657 l 0.0392,0.61715 -0.0392,0.0489 h -2.36087 q -0.14694,-1.16574 -0.61716,-1.16574 -0.57797,0 -0.81308,1.12655 -0.0294,0.18614 -0.18612,1.24412 -0.14694,1.05798 -0.63675,1.88085 -0.82288,1.53799 -2.24332,1.83188 l -0.5192,0.0392 q -0.64654,-0.0392 -1.04818,-0.16653 -0.1372,-0.0587 -0.48981,-0.22532 -0.34285,-0.16653 -0.89144,-0.81307 -0.57797,-0.82288 -0.79349,-1.62617 -0.11758,-0.54858 -0.11758,-1.49879 l 0.0392,-0.0392 h 2.28249 q 0.098,1.2833 0.91105,1.2833 h 0.17634 q 0.34285,-0.0587 0.59756,-0.7543 z"
       inkscape:connector-curvature="0" />
    <path
       id="path293"
       style="font-style:normal;font-variant:normal;font-weight:normal;font-stretch:normal;font-size:14.11111069px;line-height:14.11111069px;font-family:'Capture Smallz Clean';-inkscape-font-specification:'Capture Smallz Clean';text-align:center;letter-spacing:0px;word-spacing:0px;text-anchor:middle;fill:#f9f9f9;fill-opacity:1;stroke:none;stroke-width:0.37617141"
       d="m 142.64414,344.59583 2.45883,0.78368 v -1.08737 h 2.80169 v 3.15435 h -2.80169 l -2.45883,-1.66534 z"
       inkscape:connector-curvature="0" />
    <path
       id="path363"
       style="font-style:normal;font-variant:normal;font-weight:normal;font-stretch:normal;font-size:14.11111069px;line-height:14.11111069px;font-family:'Capture Smallz Clean';-inkscape-font-specification:'Capture Smallz Clean';text-align:center;letter-spacing:0px;word-spacing:0px;text-anchor:middle;fill:#f9f9f9;fill-opacity:1;stroke:none;stroke-width:0.37617141"
       d="m 125.02091,275.34698 0.0979,-0.098 h 13.88112 l 0.098,0.098 v 2.99761 l -0.098,0.098 h -13.88112 l -0.0979,-0.098 z m 10.21736,3.76172 0.2449,0.098 q 0.31348,0.48001 0.31348,1.59677 0,1.99841 -1.20493,3.30129 -1.19513,1.31268 -3.39925,1.34207 h -6.03442 l -0.12739,-0.0587 -0.01,-3.0368 0.11757,-0.098 h 6.5928 q 1.16574,-0.15675 1.2637,-1.54779 0,-0.81308 -0.54858,-1.44983 l 0.15674,-0.14693 z"
       inkscape:connector-curvature="0" />
    <path
       id="path365"
       style="font-style:normal;font-variant:normal;font-weight:normal;font-stretch:normal;font-size:14.11111069px;line-height:14.11111069px;font-family:'Capture Smallz Clean';-inkscape-font-specification:'Capture Smallz Clean';text-align:center;letter-spacing:0px;word-spacing:0px;text-anchor:middle;fill:#f9f9f9;fill-opacity:1;stroke:none;stroke-width:0.37617141"
       d="m 135.75747,291.83385 q 0.0196,0.83267 -0.0685,1.30289 -0.7935,3.17394 -3.49722,3.26211 h -7.02383 l -0.16653,-0.18612 v -2.87028 l 0.13719,-0.1372 h 6.79852 q 0.98941,-0.12738 1.09716,-1.37146 z m -5.98545,0.7641 -0.19591,-0.20572 q 0.0587,-0.52899 -0.0196,-1.08737 -0.098,-0.98941 -0.48001,-1.60657 -0.37226,-0.61715 -1.06778,-0.61715 -0.4996,0 -0.7739,0.66613 -0.25469,0.59756 -0.27429,1.38126 -0.01,0.79348 0.1372,1.30288 l -0.15673,0.16654 h -1.89066 q -0.10777,-0.33307 -0.1372,-1.70453 0.01,-0.96982 0.16653,-1.7633 0.16653,-0.7837 0.63675,-1.47922 0.18613,-0.29389 0.41144,-0.4898 0.2351,-0.18613 0.43103,-0.29389 0.19592,-0.10777 0.37226,-0.16653 0.44081,-0.14694 0.9796,-0.14694 1.7829,0 2.71353,1.20492 0.93064,1.21473 1.0286,3.25232 0.0881,0.83266 0.0196,1.43023 l -0.14694,0.15674 z m 3.24252,-1.32248 q -0.12739,-1.27349 -0.78368,-1.32248 l -0.11758,-0.2449 0.01,-2.37067 0.17633,-0.17632 q 2.41964,-0.01 3.30129,2.69393 0.15674,0.41144 0.13719,1.42044 z"
       inkscape:connector-curvature="0" />
    <path
       id="path367"
       style="font-style:normal;font-variant:normal;font-weight:normal;font-stretch:normal;font-size:14.11111069px;line-height:14.11111069px;font-family:'Capture Smallz Clean';-inkscape-font-specification:'Capture Smallz Clean';text-align:center;letter-spacing:0px;word-spacing:0px;text-anchor:middle;fill:#f9f9f9;fill-opacity:1;stroke:none;stroke-width:0.37617141"
       d="m 125.12866,302.27655 -0.21551,-0.1372 v -2.87026 l 0.20571,-0.18614 h 7.32751 l 0.15674,0.12739 v 2.89965 l -0.17634,0.16654 z m 11.32433,0.90123 q -0.0587,-0.63674 -0.73471,-0.7347 v 1.58697 l -0.098,0.10777 H 133.328 l -0.098,-0.10777 v -6.46544 l 0.098,-0.10777 h 2.29228 l 0.098,0.10777 v 1.52818 q 1.5282,0.0587 2.20413,0.64656 1.06777,0.78368 1.14614,2.5274 v 1.7633 l -0.15673,0.11758 -2.3119,-0.01 -0.12738,-0.1372 z"
       inkscape:connector-curvature="0" />
    <path
       id="path369"
       style="font-style:normal;font-variant:normal;font-weight:normal;font-stretch:normal;font-size:14.11111069px;line-height:14.11111069px;font-family:'Capture Smallz Clean';-inkscape-font-specification:'Capture Smallz Clean';text-align:center;letter-spacing:0px;word-spacing:0px;text-anchor:middle;fill:#f9f9f9;fill-opacity:1;stroke:none;stroke-width:0.37617141"
       d="m 132.48555,309.7216 h -4.12417 q -0.77389,0.0685 -0.83266,0.90125 l -0.0196,0.82286 -0.12739,0.1372 -2.31188,0.01 -0.15674,-0.11757 v -1.7633 q 0.0783,-1.74372 1.14615,-2.5274 0.67593,-0.58777 2.20412,-0.64655 h 4.22213 z m 0.7837,-4.76092 h 2.42944 v 1.56738 h 3.16415 l 0.20571,0.18613 v 2.87027 l -0.21551,0.1372 h -3.15435 v 1.82207 h -2.42944 z"
       inkscape:connector-curvature="0" />
    <path
       id="path371"
       style="font-style:normal;font-variant:normal;font-weight:normal;font-stretch:normal;font-size:14.11111069px;line-height:14.11111069px;font-family:'Capture Smallz Clean';-inkscape-font-specification:'Capture Smallz Clean';text-align:center;letter-spacing:0px;word-spacing:0px;text-anchor:middle;fill:#f9f9f9;fill-opacity:1;stroke:none;stroke-width:0.37617141"
       d="m 127.52872,323.66151 0.11757,0.0979 q 0.12739,0.80328 0.78369,1.40085 0.79349,0.73471 1.92004,0.73471 1.13635,0 1.93964,-0.73471 0.64654,-0.60737 0.77389,-1.41064 l 0.098,-0.0881 h 2.5176 l 0.10777,0.1372 q -0.14694,1.82209 -1.56738,3.16415 -1.58697,1.48901 -3.83029,1.48901 -2.24331,0 -3.82049,-1.48901 -1.44003,-1.36167 -1.57717,-3.23272 l 0.0979,-0.0685 z m -0.96003,-3.92826 q 1.57718,-1.49881 3.82049,-1.49881 2.24332,0 3.83029,1.49881 1.43024,1.36167 1.56738,3.21313 l -0.098,0.0882 h -2.56658 l -0.0685,-0.0587 q -0.12739,-0.77389 -0.76409,-1.36165 -0.80329,-0.73472 -1.93964,-0.73472 -1.12655,0 -1.92004,0.73472 -0.62695,0.56817 -0.76409,1.33226 l -0.14694,0.0881 h -2.42945 l -0.0881,-0.0881 q 0.1372,-1.85146 1.56738,-3.21312 z"
       inkscape:connector-curvature="0" />
    <path
       id="path373"
       style="font-style:normal;font-variant:normal;font-weight:normal;font-stretch:normal;font-size:14.11111069px;line-height:14.11111069px;font-family:'Capture Smallz Clean';-inkscape-font-specification:'Capture Smallz Clean';text-align:center;letter-spacing:0px;word-spacing:0px;text-anchor:middle;fill:#f9f9f9;fill-opacity:1;stroke:none;stroke-width:0.37617141"
       d="m 138.98039,337.09198 0.11758,0.11758 v 2.95844 l -0.098,0.1372 h -13.88112 l -0.098,-0.098 v -2.99762 l 0.098,-0.098 z m -13.66561,-0.74451 q -0.31347,-0.80327 -0.31347,-1.72411 0,-2.06699 1.57718,-3.52661 1.57718,-1.45963 3.81069,-1.45963 2.23353,0 3.8107,1.45963 1.57718,1.45962 1.57718,3.52661 0,0.92084 -0.31348,1.72411 h -2.86047 q 0.61716,-0.69552 0.61716,-1.62615 0,-1.07758 -0.82288,-1.84167 -0.82287,-0.7641 -1.98862,-0.7641 -1.16574,0 -1.98862,0.7641 -0.82286,0.76409 -0.82286,1.84167 0,0.93063 0.61715,1.62615 z"
       inkscape:connector-curvature="0" />
    <path
       id="path375"
       style="font-style:normal;font-variant:normal;font-weight:normal;font-stretch:normal;font-size:14.11111069px;line-height:14.11111069px;font-family:'Capture Smallz Clean';-inkscape-font-specification:'Capture Smallz Clean';text-align:center;letter-spacing:0px;word-spacing:0px;text-anchor:middle;fill:#f9f9f9;fill-opacity:1;stroke:none;stroke-width:0.37617141"
       d="m 126.56869,349.9641 q -1.44003,-1.36165 -1.57717,-3.23272 l 0.098,-0.0685 h 2.43924 l 0.11757,0.098 q 0.12739,0.80329 0.78369,1.40085 0.049,0.0392 0.0882,0.0783 l -1.81229,1.84168 q -0.0685,-0.0587 -0.1372,-0.11758 z m 4.88827,-1.27349 q 0.45062,-0.17634 0.83267,-0.52899 0.64654,-0.60736 0.77389,-1.41065 l 0.098,-0.0881 h 2.5176 l 0.10777,0.1372 q -0.14693,1.82209 -1.56738,3.26211 -1.19513,1.12657 -2.76251,1.26371 -1.18533,0.0392 -1.97881,-0.17633 v -7.14138 q -0.57799,0.17633 -1.0482,0.60736 -0.62695,0.56817 -0.76409,1.33226 l -0.14694,0.0882 h -2.42944 l -0.0881,-0.0882 q 0.1372,-1.85146 1.56738,-3.21312 1.57717,-1.49881 3.82048,-1.49881 2.24333,0 3.8303,1.49881 1.43024,1.36166 1.56738,3.21312 l -0.098,0.0882 h -2.56659 l -0.0685,-0.0587 q -0.12738,-0.7739 -0.76409,-1.36166 -0.38205,-0.34287 -0.83267,-0.52899 z"
       inkscape:connector-curvature="0" />
    <path
       id="path377"
       style="font-style:normal;font-variant:normal;font-weight:normal;font-stretch:normal;font-size:14.11111069px;line-height:14.11111069px;font-family:'Capture Smallz Clean';-inkscape-font-specification:'Capture Smallz Clean';text-align:center;letter-spacing:0px;word-spacing:0px;text-anchor:middle;fill:#f9f9f9;fill-opacity:1;stroke:none;stroke-width:0.37617141"
       d="m 133.19088,358.19283 q 0,-0.93062 -0.5192,-1.55758 l 0.0881,-0.14694 2.47843,0.01 0.14693,0.098 q 0.41144,0.87186 0.41144,1.59677 z m 2.58618,-2.36085 h -10.6582 l -0.0979,-0.098 v -2.99762 l 0.0979,-0.098 h 10.6582 z"
       inkscape:connector-curvature="0" />
    <path
       id="path443"
       style="font-style:normal;font-variant:normal;font-weight:normal;font-stretch:normal;font-size:14.11111069px;line-height:14.11111069px;font-family:'Capture Smallz Clean';-inkscape-font-specification:'Capture Smallz Clean';text-align:center;letter-spacing:0px;word-spacing:0px;text-anchor:middle;fill:#f9f9f9;fill-opacity:1;stroke:none;stroke-width:0.37617141"
       d="m 105.05639,279.38298 -0.098,-0.0979 v -2.99762 l 0.098,-0.098 h 13.88112 l 0.0979,0.1372 v 2.95843 l -0.11757,0.11758 z m 3.09558,0.76411 q -0.61716,0.69552 -0.61716,1.62615 0,1.07758 0.82287,1.84167 0.82288,0.7641 1.98862,0.7641 1.16575,0 1.98861,-0.7641 0.82288,-0.76409 0.82288,-1.84167 0,-0.93063 -0.61715,-1.62615 h 2.86046 q 0.31348,0.80327 0.31348,1.72411 0,2.06699 -1.57717,3.52661 -1.57718,1.45963 -3.81071,1.45963 -2.23351,0 -3.81069,-1.45963 -1.57717,-1.45962 -1.57717,-3.52661 0,-0.92084 0.31347,-1.72411 z"
       inkscape:connector-curvature="0" />
    <path
       id="path445"
       style="font-style:normal;font-variant:normal;font-weight:normal;font-stretch:normal;font-size:14.11111069px;line-height:14.11111069px;font-family:'Capture Smallz Clean';-inkscape-font-specification:'Capture Smallz Clean';text-align:center;letter-spacing:0px;word-spacing:0px;text-anchor:middle;fill:#f9f9f9;fill-opacity:1;stroke:none;stroke-width:0.37617141"
       d="m 104.95843,290.98159 v -3.19355 h 14.07703 v 3.19355 z"
       inkscape:connector-curvature="0" />
    <path
       id="path447"
       style="font-style:normal;font-variant:normal;font-weight:normal;font-stretch:normal;font-size:14.11111069px;line-height:14.11111069px;font-family:'Capture Smallz Clean';-inkscape-font-specification:'Capture Smallz Clean';text-align:center;letter-spacing:0px;word-spacing:0px;text-anchor:middle;fill:#f9f9f9;fill-opacity:1;stroke:none;stroke-width:0.37617141"
       d="m 106.50622,300.70915 q -1.44004,-1.36166 -1.57718,-3.23272 l 0.098,-0.0685 h 2.43924 l 0.11758,0.0979 q 0.12739,0.80328 0.78368,1.40084 0.049,0.0392 0.0881,0.0783 l -1.81229,1.84166 q -0.0685,-0.0587 -0.1372,-0.11758 z m 4.88826,-1.2735 q 0.45062,-0.17633 0.83268,-0.52899 0.64654,-0.60736 0.77388,-1.41063 l 0.098,-0.0882 h 2.51761 l 0.10777,0.1372 q -0.14695,1.82207 -1.56738,3.2621 -1.19514,1.12655 -2.76252,1.26371 -1.18533,0.0392 -1.97882,-0.17634 v -7.14138 q -0.57797,0.17634 -1.04819,0.60737 -0.62694,0.56818 -0.76409,1.33227 l -0.14693,0.0881 H 105.027 l -0.0881,-0.0881 q 0.1372,-1.85148 1.56738,-3.21313 1.57718,-1.49881 3.82049,-1.49881 2.24332,0 3.83029,1.49881 1.43023,1.36165 1.56738,3.21313 l -0.098,0.0881 h -2.56658 l -0.0685,-0.0587 q -0.12739,-0.77389 -0.76409,-1.36165 -0.38205,-0.34287 -0.83268,-0.52901 z"
       inkscape:connector-curvature="0" />
    <path
       id="path449"
       style="font-style:normal;font-variant:normal;font-weight:normal;font-stretch:normal;font-size:14.11111069px;line-height:14.11111069px;font-family:'Capture Smallz Clean';-inkscape-font-specification:'Capture Smallz Clean';text-align:center;letter-spacing:0px;word-spacing:0px;text-anchor:middle;fill:#f9f9f9;fill-opacity:1;stroke:none;stroke-width:0.37617141"
       d="m 115.73417,306.54766 h -10.65819 l -0.098,-0.098 v -2.99762 l 0.098,-0.098 h 10.65819 z m -10.75615,3.5266 0.11758,-0.0881 h 6.5928 q 1.16573,-0.14696 1.26369,-1.26371 0,-0.77389 -0.54858,-1.37147 l 0.15675,-0.13719 h 2.63516 l 0.24489,0.0881 q 0.31348,0.46042 0.31348,1.50861 0,1.7927 -1.08736,2.99762 1.08736,1.30289 1.08736,2.88007 v 0.54858 q 0,1.97882 -1.40085,3.31108 -1.39105,1.33228 -3.20333,1.36167 h -6.04421 l -0.12739,-0.0587 v -3.05639 l 0.11758,-0.0882 h 6.39686 q 1.33228,-0.20573 1.57719,-1.83188 -0.14695,-1.54779 -1.57719,-1.65554 h -6.39686 l -0.11758,-0.0881 z"
       inkscape:connector-curvature="0" />
    <path
       id="path451"
       style="font-style:normal;font-variant:normal;font-weight:normal;font-stretch:normal;font-size:14.11111069px;line-height:14.11111069px;font-family:'Capture Smallz Clean';-inkscape-font-specification:'Capture Smallz Clean';text-align:center;letter-spacing:0px;word-spacing:0px;text-anchor:middle;fill:#f9f9f9;fill-opacity:1;stroke:none;stroke-width:0.37617141"
       d="m 115.69499,326.08115 q 0.0196,0.83267 -0.0685,1.30288 -0.79349,3.17395 -3.49722,3.26212 h -7.02383 l -0.16653,-0.18613 v -2.87026 l 0.1372,-0.1372 h 6.79851 q 0.98941,-0.12739 1.09717,-1.37145 z m -5.98544,0.7641 -0.19592,-0.20572 q 0.0587,-0.52899 -0.0196,-1.08737 -0.098,-0.98941 -0.48001,-1.60656 -0.37226,-0.61717 -1.06778,-0.61717 -0.4996,0 -0.7739,0.66615 -0.25469,0.59756 -0.27428,1.38124 -0.01,0.7935 0.1372,1.3029 l -0.15674,0.16653 h -1.89065 q -0.10777,-0.33306 -0.1372,-1.70453 0.01,-0.96982 0.16653,-1.76331 0.16653,-0.78368 0.63674,-1.4792 0.18612,-0.29389 0.41144,-0.48981 0.2351,-0.18613 0.43103,-0.29389 0.19592,-0.10777 0.37225,-0.16653 0.44082,-0.14695 0.97961,-0.14695 1.7829,0 2.71354,1.20493 0.93062,1.21472 1.02859,3.25231 0.0881,0.83268 0.0196,1.43024 l -0.14695,0.15674 z m 3.24251,-1.32247 q -0.12738,-1.27351 -0.78368,-1.32249 l -0.11758,-0.24489 0.01,-2.37067 0.17632,-0.17633 q 2.41965,-0.01 3.30129,2.69393 0.15675,0.41144 0.1372,1.42045 z"
       inkscape:connector-curvature="0" />
    <path
       id="path453"
       style="font-style:normal;font-variant:normal;font-weight:normal;font-stretch:normal;font-size:14.11111069px;line-height:14.11111069px;font-family:'Capture Smallz Clean';-inkscape-font-specification:'Capture Smallz Clean';text-align:center;letter-spacing:0px;word-spacing:0px;text-anchor:middle;fill:#f9f9f9;fill-opacity:1;stroke:none;stroke-width:0.37617141"
       d="m 112.42307,336.52382 h -4.12417 q -0.77388,0.0685 -0.83266,0.90125 l -0.0196,0.82287 -0.12739,0.1372 -2.31188,0.01 -0.15673,-0.11758 v -1.7633 q 0.0783,-1.74372 1.14614,-2.5274 0.67593,-0.58776 2.20413,-0.64654 h 4.22213 z m 0.7837,-4.76093 h 2.42945 v 1.5674 h 3.16414 l 0.20572,0.18612 v 2.87027 l -0.21551,0.1372 h -3.15435 v 1.82207 h -2.42945 z"
       inkscape:connector-curvature="0" />
    <path
       id="path455"
       style="font-style:normal;font-variant:normal;font-weight:normal;font-stretch:normal;font-size:14.11111069px;line-height:14.11111069px;font-family:'Capture Smallz Clean';-inkscape-font-specification:'Capture Smallz Clean';text-align:center;letter-spacing:0px;word-spacing:0px;text-anchor:middle;fill:#f9f9f9;fill-opacity:1;stroke:none;stroke-width:0.37617141"
       d="m 105.05639,342.35252 -0.098,-0.098 v -2.99762 l 0.098,-0.098 h 10.51124 l 0.14695,0.15674 0.01,2.83107 -0.20572,0.20573 z m 11.41249,-3.12497 0.0783,-0.0685 h 2.39026 l 0.098,0.098 v 2.99762 l -0.098,0.098 h -2.38047 l -0.0881,-0.098 z"
       inkscape:connector-curvature="0" />
    <path
       id="path457"
       style="font-style:normal;font-variant:normal;font-weight:normal;font-stretch:normal;font-size:14.11111069px;line-height:14.11111069px;font-family:'Capture Smallz Clean';-inkscape-font-specification:'Capture Smallz Clean';text-align:center;letter-spacing:0px;word-spacing:0px;text-anchor:middle;fill:#f9f9f9;fill-opacity:1;stroke:none;stroke-width:0.37617141"
       d="m 104.95843,343.02845 v 3.21312 h 14.04765 v -3.21312 z m 5.88747,6.11278 -5.83849,5.11358 h -0.049 v -3.83028 l 3.99682,-3.41885 3.67355,0.01 3.0466,2.94864 v 3.99681 h -0.0489 z"
       inkscape:connector-curvature="0" />
    <path
       id="path519"
       style="font-style:normal;font-variant:normal;font-weight:normal;font-stretch:normal;font-size:14.11111069px;line-height:14.11111069px;font-family:'Capture Smallz Clean';-inkscape-font-specification:'Capture Smallz Clean';text-align:center;letter-spacing:0px;word-spacing:0px;text-anchor:middle;fill:#f9f9f9;fill-opacity:1;stroke:none;stroke-width:0.37617141"
       d="m 93.06593,285.81905 q 0,-0.93064 -0.519195,-1.5576 l 0.08815,-0.14694 2.478424,0.01 0.146938,0.098 q 0.41144,0.87186 0.41144,1.59678 z m 2.586178,-2.36088 H 84.993914 l -0.09796,-0.0979 v -2.99762 l 0.09796,-0.098 h 10.658194 z"
       inkscape:connector-curvature="0" />
    <path
       id="path521"
       style="font-style:normal;font-variant:normal;font-weight:normal;font-stretch:normal;font-size:14.11111069px;line-height:14.11111069px;font-family:'Capture Smallz Clean';-inkscape-font-specification:'Capture Smallz Clean';text-align:center;letter-spacing:0px;word-spacing:0px;text-anchor:middle;fill:#f9f9f9;fill-opacity:1;stroke:none;stroke-width:0.37617141"
       d="m 98.855439,294.10656 0.117579,0.11758 v 2.95842 l -0.09796,0.1372 H 84.993942 l -0.09796,-0.098 v -2.99761 l 0.09796,-0.098 z m -13.665608,-0.7445 q -0.313467,-0.80329 -0.313467,-1.72411 0,-2.06699 1.577176,-3.52661 1.577176,-1.45963 3.810689,-1.45963 2.233527,0 3.810703,1.45963 1.577176,1.45962 1.577176,3.52661 0,0.92082 -0.313482,1.72411 H 92.47815 q 0.617167,-0.69552 0.617167,-1.62616 0,-1.07757 -0.82288,-1.84167 -0.822881,-0.7641 -1.988617,-0.7641 -1.165735,0 -1.988616,0.7641 -0.822867,0.7641 -0.822867,1.84167 0,0.93064 0.617154,1.62616 z"
       inkscape:connector-curvature="0" />
    <path
       id="path523"
       style="font-style:normal;font-variant:normal;font-weight:normal;font-stretch:normal;font-size:14.11111069px;line-height:14.11111069px;font-family:'Capture Smallz Clean';-inkscape-font-specification:'Capture Smallz Clean';text-align:center;letter-spacing:0px;word-spacing:0px;text-anchor:middle;fill:#f9f9f9;fill-opacity:1;stroke:none;stroke-width:0.37617141"
       d="m 86.443744,306.97869 q -1.440034,-1.36167 -1.577176,-3.23274 l 0.09796,-0.0685 h 2.43924 l 0.117579,0.0979 q 0.127389,0.80328 0.783683,1.40084 0.04891,0.0392 0.08815,0.0783 l -1.812291,1.84168 q -0.06853,-0.0587 -0.137199,-0.11758 z m 4.888262,-1.27351 q 0.450623,-0.17632 0.832676,-0.52899 0.646541,-0.60735 0.773887,-1.41063 l 0.09796,-0.0881 h 2.517593 l 0.107768,0.1372 q -0.146952,1.82207 -1.56738,3.26211 -1.195137,1.12655 -2.762518,1.26369 -1.185327,0.0392 -1.97882,-0.17632 v -7.14138 q -0.57797,0.17634 -1.048185,0.60735 -0.62695,0.56818 -0.764092,1.33228 l -0.146938,0.0882 h -2.429444 l -0.08815,-0.0882 q 0.137198,-1.85147 1.56738,-3.21312 1.577176,-1.49881 3.820485,-1.49881 2.243322,0 3.830294,1.49881 1.430224,1.36165 1.567381,3.21312 l -0.09796,0.0882 h -2.566586 l -0.06853,-0.0587 q -0.127389,-0.7739 -0.764091,-1.36166 -0.382053,-0.34286 -0.832676,-0.52899 z"
       inkscape:connector-curvature="0" />
    <path
       id="path525"
       style="font-style:normal;font-variant:normal;font-weight:normal;font-stretch:normal;font-size:14.11111069px;line-height:14.11111069px;font-family:'Capture Smallz Clean';-inkscape-font-specification:'Capture Smallz Clean';text-align:center;letter-spacing:0px;word-spacing:0px;text-anchor:middle;fill:#f9f9f9;fill-opacity:1;stroke:none;stroke-width:0.37617141"
       d="M 95.652108,312.84655 H 84.993914 l -0.09796,-0.098 v -2.99762 l 0.09796,-0.098 h 10.658194 z m -0.538787,0.66613 0.244897,0.098 q 0.313481,0.48001 0.313481,1.59677 0,1.99841 -1.204933,3.30129 -1.195123,1.31269 -3.399249,1.34207 h -6.03442 l -0.127388,-0.0587 -0.01,-3.03681 0.117579,-0.0979 h 6.592798 q 1.165736,-0.15675 1.263695,-1.54779 0,-0.81309 -0.548583,-1.44983 l 0.156734,-0.14695 z"
       inkscape:connector-curvature="0" />
    <path
       id="path527"
       style="font-style:normal;font-variant:normal;font-weight:normal;font-stretch:normal;font-size:14.11111069px;line-height:14.11111069px;font-family:'Capture Smallz Clean';-inkscape-font-specification:'Capture Smallz Clean';text-align:center;letter-spacing:0px;word-spacing:0px;text-anchor:middle;fill:#f9f9f9;fill-opacity:1;stroke:none;stroke-width:0.37617141"
       d="m 87.482133,324.09251 h -2.586178 v -3.19354 h 2.586178 z"
       inkscape:connector-curvature="0" />
    <path
       id="path583"
       style="font-style:normal;font-variant:normal;font-weight:normal;font-stretch:normal;font-size:14.11111069px;line-height:14.11111069px;font-family:'Capture Smallz Clean';-inkscape-font-specification:'Capture Smallz Clean';text-align:center;letter-spacing:0px;word-spacing:0px;text-anchor:middle;fill:#f9f9f9;fill-opacity:1;stroke:none;stroke-width:0.37617141"
       d="m 66.381269,285.97578 q -1.440034,-1.36167 -1.577176,-3.23272 l 0.09796,-0.0685 h 2.439241 l 0.117578,0.098 q 0.127389,0.80328 0.783683,1.40085 0.04891,0.0392 0.08815,0.0783 l -1.812277,1.84167 q -0.06853,-0.0587 -0.137199,-0.11758 z m 4.888262,-1.27349 q 0.450624,-0.17634 0.832676,-0.52899 0.646541,-0.60737 0.773887,-1.41065 l 0.09796,-0.0881 h 2.517607 l 0.107769,0.1372 q -0.146952,1.82207 -1.567381,3.2621 -1.195137,1.12655 -2.762517,1.26371 -1.185328,0.0392 -1.978821,-0.17634 v -7.14138 q -0.57797,0.17634 -1.048185,0.60737 -0.626949,0.56818 -0.764091,1.33227 l -0.146953,0.0882 h -2.42943 l -0.08815,-0.0882 q 0.137199,-1.85146 1.56738,-3.21313 1.577176,-1.49881 3.820485,-1.49881 2.243309,0 3.830295,1.49881 1.430224,1.36167 1.56738,3.21313 l -0.09796,0.0882 h -2.566586 l -0.06853,-0.0587 q -0.127389,-0.77389 -0.764092,-1.36166 -0.382052,-0.34287 -0.832676,-0.52899 z"
       inkscape:connector-curvature="0" />
    <path
       id="path585"
       style="font-style:normal;font-variant:normal;font-weight:normal;font-stretch:normal;font-size:14.11111069px;line-height:14.11111069px;font-family:'Capture Smallz Clean';-inkscape-font-specification:'Capture Smallz Clean';text-align:center;letter-spacing:0px;word-spacing:0px;text-anchor:middle;fill:#f9f9f9;fill-opacity:1;stroke:none;stroke-width:0.37617141"
       d="m 73.003455,294.20452 q 0,-0.93064 -0.519195,-1.55759 l 0.08815,-0.14693 2.478423,0.01 0.146938,0.098 q 0.41144,0.87186 0.41144,1.59676 z m 2.586178,-2.36088 H 64.931439 l -0.09796,-0.0979 v -2.99762 l 0.09796,-0.098 h 10.658194 z"
       inkscape:connector-curvature="0" />
    <path
       id="path587"
       style="font-style:normal;font-variant:normal;font-weight:normal;font-stretch:normal;font-size:14.11111069px;line-height:14.11111069px;font-family:'Capture Smallz Clean';-inkscape-font-specification:'Capture Smallz Clean';text-align:center;letter-spacing:0px;word-spacing:0px;text-anchor:middle;fill:#f9f9f9;fill-opacity:1;stroke:none;stroke-width:0.37617141"
       d="M 75.589633,298.23074 H 64.931439 l -0.09796,-0.098 v -2.99761 l 0.09796,-0.098 h 10.658194 z m -0.538787,0.66614 0.244897,0.0979 q 0.313482,0.48002 0.313482,1.59677 0,1.99841 -1.204934,3.30129 -1.195123,1.31269 -3.399248,1.34208 h -6.034421 l -0.127388,-0.0587 -0.01,-3.0368 0.117579,-0.098 h 6.592798 q 1.165736,-0.15675 1.263695,-1.5478 0,-0.81307 -0.548583,-1.44982 l 0.156734,-0.14695 z"
       inkscape:connector-curvature="0" />
    <path
       id="path589"
       style="font-style:normal;font-variant:normal;font-weight:normal;font-stretch:normal;font-size:14.11111069px;line-height:14.11111069px;font-family:'Capture Smallz Clean';-inkscape-font-specification:'Capture Smallz Clean';text-align:center;letter-spacing:0px;word-spacing:0px;text-anchor:middle;fill:#f9f9f9;fill-opacity:1;stroke:none;stroke-width:0.37617141"
       d="m 66.381269,315.01151 q -1.440034,-1.36167 -1.577176,-3.23274 l 0.09796,-0.0685 h 2.439241 l 0.117578,0.098 q 0.127389,0.80329 0.783683,1.40085 0.04891,0.0392 0.08815,0.0783 l -1.812277,1.84168 q -0.06853,-0.0587 -0.137199,-0.11758 z m 4.888262,-1.27351 q 0.450624,-0.17632 0.832676,-0.52899 0.646541,-0.60736 0.773887,-1.41065 l 0.09796,-0.0881 h 2.517607 l 0.107769,0.13719 q -0.146952,1.82209 -1.567381,3.26213 -1.195137,1.12655 -2.762517,1.26369 -1.185328,0.0392 -1.978821,-0.17633 v -7.14138 q -0.57797,0.17633 -1.048185,0.60736 -0.626949,0.56818 -0.764091,1.33228 l -0.146953,0.0881 h -2.42943 l -0.08815,-0.0881 q 0.137199,-1.85147 1.56738,-3.21313 1.577176,-1.49881 3.820485,-1.49881 2.243309,0 3.830295,1.49881 1.430224,1.36166 1.56738,3.21313 l -0.09796,0.0881 h -2.566586 l -0.06853,-0.0587 q -0.127389,-0.7739 -0.764092,-1.36167 -0.382052,-0.34285 -0.832676,-0.52899 z"
       inkscape:connector-curvature="0" />
    <path
       id="path591"
       style="font-style:normal;font-variant:normal;font-weight:normal;font-stretch:normal;font-size:14.11111069px;line-height:14.11111069px;font-family:'Capture Smallz Clean';-inkscape-font-specification:'Capture Smallz Clean';text-align:center;letter-spacing:0px;word-spacing:0px;text-anchor:middle;fill:#f9f9f9;fill-opacity:1;stroke:none;stroke-width:0.37617141"
       d="m 64.853072,324.69009 h 10.65818 l 0.09796,0.098 v 2.99762 l -0.09796,0.098 h -10.65818 z m 0.538787,-0.66614 -0.244911,-0.098 q -0.313468,-0.47999 -0.313468,-1.59676 0,-1.99842 1.195124,-3.31109 1.204919,-1.30289 3.409058,-1.33228 h 6.034406 l 0.127389,0.0587 0.01,3.0368 -0.117578,0.098 h -6.592785 q -1.165749,0.15673 -1.263708,1.54779 0,0.81307 0.548582,1.44981 l -0.156733,0.14696 z"
       inkscape:connector-curvature="0" />
    <path
       id="path593"
       style="font-style:normal;font-variant:normal;font-weight:normal;font-stretch:normal;font-size:14.11111069px;line-height:14.11111069px;font-family:'Capture Smallz Clean';-inkscape-font-specification:'Capture Smallz Clean';text-align:center;letter-spacing:0px;word-spacing:0px;text-anchor:middle;fill:#f9f9f9;fill-opacity:1;stroke:none;stroke-width:0.37617141"
       d="m 72.298124,333.74172 h -4.12417 q -0.773887,0.0685 -0.832662,0.90124 l -0.01962,0.82287 -0.127388,0.1372 -2.31188,0.01 -0.156748,-0.11758 v -1.7633 q 0.07834,-1.7437 1.146158,-2.5274 0.675929,-0.58776 2.204125,-0.64654 h 4.22213 z m 0.783698,-4.76092 h 2.42943 v 1.56738 h 3.164162 l 0.205713,0.18612 v 2.87027 l -0.215509,0.1372 h -3.154366 v 1.82209 h -2.42943 z"
       inkscape:connector-curvature="0" />
    <path
       id="path651"
       style="font-style:normal;font-variant:normal;font-weight:normal;font-stretch:normal;font-size:14.11111069px;line-height:14.11111069px;font-family:'Capture Smallz Clean';-inkscape-font-specification:'Capture Smallz Clean';text-align:center;letter-spacing:0px;word-spacing:0px;text-anchor:middle;fill:#f9f9f9;fill-opacity:1;stroke:none;stroke-width:0.37617141"
       d="m 47.954745,288.66971 q -0.519195,0.90125 -0.617153,1.71432 l -0.04905,0.2841 -2.517592,-0.0196 q -0.06853,-2.55679 1.048185,-3.91846 0.979614,-1.5184 3.409045,-1.62616 l 0.284094,2.94864 q -1.028594,0.0783 -1.518401,0.61716 z m 2.811483,1.05799 q 0.764105,-4.23193 3.928253,-4.23193 h 0.186122 q 3.301304,0 3.88907,4.27111 l 0.01962,0.88165 -2.341282,0.0196 q -0.07834,-0.96003 -0.2351,-1.33228 -0.29389,-0.77389 -1.33228,-0.7543 -0.969818,0 -1.420442,2.45883 -0.107769,0.61716 -0.205713,1.009 -0.724908,4.35928 -4.153558,4.35928 H 48.905 q -3.516813,0 -4.143762,-4.27111 l -0.02943,-0.96003 h 2.478423 q 0.107769,1.0188 0.274299,1.39106 0.313467,0.77389 1.420442,0.75429 1.03839,0 1.606564,-2.42944 0.166529,-0.54858 0.28408,-1.20492 z m 8.052424,1.40085 q 0,2.10616 -1.185327,3.71273 -0.783698,0.94043 -2.89966,1.37146 h -0.137199 l -0.195931,-1.60656 -0.08815,-1.33228 q 1.15594,-0.18612 1.518401,-0.66614 0.333073,-0.39184 0.617153,-1.46942 z"
       inkscape:connector-curvature="0" />
    <path
       id="path653"
       style="font-style:normal;font-variant:normal;font-weight:normal;font-stretch:normal;font-size:14.11111069px;line-height:14.11111069px;font-family:'Capture Smallz Clean';-inkscape-font-specification:'Capture Smallz Clean';text-align:center;letter-spacing:0px;word-spacing:0px;text-anchor:middle;fill:#f9f9f9;fill-opacity:1;stroke:none;stroke-width:0.37617141"
       d="m 52.23565,302.21776 h -4.124171 q -0.773887,0.0685 -0.832677,0.90125 l -0.01962,0.82288 -0.127389,0.13719 -2.311879,0.01 -0.156748,-0.11758 v -1.76331 q 0.07834,-1.74371 1.146158,-2.52741 0.675929,-0.58776 2.204125,-0.64654 h 4.222129 z m 0.783697,-4.76092 h 2.42943 v 1.56738 h 3.164162 l 0.205713,0.18612 v 2.87028 l -0.215523,0.13719 h -3.154352 v 1.82209 h -2.42943 z"
       inkscape:connector-curvature="0" />
    <path
       id="path655"
       style="font-style:normal;font-variant:normal;font-weight:normal;font-stretch:normal;font-size:14.11111069px;line-height:14.11111069px;font-family:'Capture Smallz Clean';-inkscape-font-specification:'Capture Smallz Clean';text-align:center;letter-spacing:0px;word-spacing:0px;text-anchor:middle;fill:#f9f9f9;fill-opacity:1;stroke:none;stroke-width:0.37617141"
       d="m 46.318794,313.58127 q -1.440034,-1.36166 -1.577176,-3.23272 l 0.09796,-0.0685 h 2.439225 l 0.117579,0.098 q 0.127389,0.80327 0.783683,1.40085 0.04891,0.0392 0.08815,0.0783 l -1.812277,1.84166 q -0.06853,-0.0587 -0.137199,-0.11758 z m 4.888262,-1.27349 q 0.450624,-0.17634 0.832676,-0.52899 0.646541,-0.60737 0.773888,-1.41065 l 0.09796,-0.0881 h 2.517607 l 0.107769,0.1372 q -0.146952,1.82209 -1.567395,3.26211 -1.195123,1.12656 -2.762503,1.26371 -1.185328,0.0392 -1.978821,-0.17634 v -7.14137 q -0.57797,0.17633 -1.048185,0.60736 -0.626949,0.56817 -0.764091,1.33226 l -0.146952,0.0882 h -2.42943 l -0.08815,-0.0882 q 0.137199,-1.85146 1.56738,-3.21312 1.577176,-1.49881 3.820485,-1.49881 2.243309,0 3.830281,1.49881 1.430238,1.36166 1.567394,3.21312 l -0.09796,0.0882 h -2.566586 l -0.06853,-0.0587 q -0.127389,-0.77388 -0.764092,-1.36165 -0.382052,-0.34287 -0.832676,-0.52899 z"
       inkscape:connector-curvature="0" />
    <path
       id="path657"
       style="font-style:normal;font-variant:normal;font-weight:normal;font-stretch:normal;font-size:14.11111069px;line-height:14.11111069px;font-family:'Capture Smallz Clean';-inkscape-font-specification:'Capture Smallz Clean';text-align:center;letter-spacing:0px;word-spacing:0px;text-anchor:middle;fill:#f9f9f9;fill-opacity:1;stroke:none;stroke-width:0.37617141"
       d="m 44.771006,319.44916 v -3.19354 H 58.84804 v 3.19354 z"
       inkscape:connector-curvature="0" />
    <path
       id="path659"
       style="font-style:normal;font-variant:normal;font-weight:normal;font-stretch:normal;font-size:14.11111069px;line-height:14.11111069px;font-family:'Capture Smallz Clean';-inkscape-font-specification:'Capture Smallz Clean';text-align:center;letter-spacing:0px;word-spacing:0px;text-anchor:middle;fill:#f9f9f9;fill-opacity:1;stroke:none;stroke-width:0.37617141"
       d="m 44.771006,323.64191 v -3.19355 H 58.84804 v 3.19355 z"
       inkscape:connector-curvature="0" />
    <path
       id="path661"
       style="font-style:normal;font-variant:normal;font-weight:normal;font-stretch:normal;font-size:14.11111069px;line-height:14.11111069px;font-family:'Capture Smallz Clean';-inkscape-font-specification:'Capture Smallz Clean';text-align:center;letter-spacing:0px;word-spacing:0px;text-anchor:middle;fill:#f9f9f9;fill-opacity:1;stroke:none;stroke-width:0.37617141"
       d="m 46.318794,333.36947 q -1.440034,-1.36166 -1.577176,-3.23272 l 0.09796,-0.0685 h 2.439225 l 0.117579,0.0979 q 0.127389,0.80328 0.783683,1.40084 0.04891,0.0392 0.08815,0.0783 l -1.812277,1.84166 q -0.06853,-0.0587 -0.137199,-0.11758 z m 4.888262,-1.2735 q 0.450624,-0.17633 0.832676,-0.52899 0.646541,-0.60736 0.773888,-1.41063 l 0.09796,-0.0881 h 2.517607 l 0.107769,0.1372 q -0.146952,1.82207 -1.567395,3.2621 -1.195123,1.12655 -2.762503,1.26371 -1.185328,0.0392 -1.978821,-0.17634 v -7.14138 q -0.57797,0.17634 -1.048185,0.60737 -0.626949,0.56818 -0.764091,1.33227 l -0.146952,0.0881 h -2.42943 l -0.08815,-0.0881 q 0.137199,-1.85148 1.56738,-3.21313 1.577176,-1.49881 3.820485,-1.49881 2.243309,0 3.830281,1.49881 1.430238,1.36165 1.567394,3.21313 l -0.09796,0.0881 h -2.566586 l -0.06853,-0.0587 q -0.127389,-0.77389 -0.764092,-1.36165 -0.382052,-0.34287 -0.832676,-0.52901 z"
       inkscape:connector-curvature="0" />
    <path
       id="path663"
       style="font-style:normal;font-variant:normal;font-weight:normal;font-stretch:normal;font-size:14.11111069px;line-height:14.11111069px;font-family:'Capture Smallz Clean';-inkscape-font-specification:'Capture Smallz Clean';text-align:center;letter-spacing:0px;word-spacing:0px;text-anchor:middle;fill:#f9f9f9;fill-opacity:1;stroke:none;stroke-width:0.37617141"
       d="m 47.357184,339.23733 h -2.586178 v -3.19353 h 2.586178 z"
       inkscape:connector-curvature="0" />
  </g>
</svg>
