<?xml version="1.0" encoding="UTF-8" standalone="no"?>
<!-- Created with Inkscape (http://www.inkscape.org/) -->

<svg
   xmlns:dc="http://purl.org/dc/elements/1.1/"
   xmlns:cc="http://creativecommons.org/ns#"
   xmlns:rdf="http://www.w3.org/1999/02/22-rdf-syntax-ns#"
   xmlns:svg="http://www.w3.org/2000/svg"
   xmlns="http://www.w3.org/2000/svg"
   xmlns:sodipodi="http://sodipodi.sourceforge.net/DTD/sodipodi-0.dtd"
   xmlns:inkscape="http://www.inkscape.org/namespaces/inkscape"
   width="420mm"
   height="297mm"
   viewBox="0 0 420 297"
   version="1.1"
   id="svg8"
   inkscape:version="0.92.3 (2405546, 2018-03-11)"
   sodipodi:docname="schildraw380-5mmnurkreuz.svg"
   inkscape:export-filename="/home/housemeista/Dropbox/Fla/Stencilkram Inkscape/Vorlagen/schildabgelehnt.png"
   inkscape:export-xdpi="96"
   inkscape:export-ydpi="96">
  <defs
     id="defs2" />
  <sodipodi:namedview
     id="base"
     pagecolor="#ffffff"
     bordercolor="#666666"
     borderopacity="1.0"
     inkscape:pageopacity="0"
     inkscape:pageshadow="2"
     inkscape:zoom="1"
     inkscape:cx="893.45866"
     inkscape:cy="603.38653"
     inkscape:document-units="mm"
     inkscape:current-layer="layer1"
     showgrid="true"
     inkscape:pagecheckerboard="true"
     inkscape:window-width="1920"
     inkscape:window-height="1031"
     inkscape:window-x="0"
     inkscape:window-y="25"
     inkscape:window-maximized="1"
     showguides="false">
    <inkscape:grid
       type="xygrid"
       id="grid3713" />
  </sodipodi:namedview>
  <metadata
     id="metadata5">
    <rdf:RDF>
      <cc:Work
         rdf:about="">
        <dc:format>image/svg+xml</dc:format>
        <dc:type
           rdf:resource="http://purl.org/dc/dcmitype/StillImage" />
        <dc:title></dc:title>
      </cc:Work>
    </rdf:RDF>
  </metadata>
  <g
     inkscape:label="Ebene 1"
     inkscape:groupmode="layer"
     id="layer1">
    <rect
       style="opacity:1;vector-effect:none;fill:#000000;fill-opacity:1;stroke-width:1.21852946;stroke-linecap:butt;stroke-linejoin:miter;stroke-miterlimit:4;stroke-dasharray:none;stroke-dashoffset:0;stroke-opacity:1"
       id="rect3986"
       width="400"
       height="220"
       x="10"
       y="37"
       inkscape:export-xdpi="96"
       inkscape:export-ydpi="96" />
    <text
       xml:space="preserve"
       style="font-style:normal;font-variant:normal;font-weight:normal;font-stretch:normal;font-size:14.11111069px;line-height:6.61458302px;font-family:'Capture Smallz Clean';-inkscape-font-specification:'Capture Smallz Clean';letter-spacing:0px;word-spacing:0px;fill:#f9f9f9;fill-opacity:1;stroke:none;stroke-width:0.26458332"
       x="207.56253"
       y="105.02262"
       id="text3931"><tspan
         sodipodi:role="line"
         id="tspan3929"
         x="207.56253"
         y="105.02262"
         style="font-size:42.33333206px;text-align:center;text-anchor:middle;fill:#f9f9f9;stroke-width:0.26458332">ABGELEHNT</tspan></text>
    <text
       xml:space="preserve"
       style="font-style:normal;font-variant:normal;font-weight:normal;font-stretch:normal;font-size:14.11111069px;line-height:14.11111069px;font-family:'Capture Smallz Clean';-inkscape-font-specification:'Capture Smallz Clean';letter-spacing:0px;word-spacing:0px;fill:#f9f9f9;fill-opacity:1;stroke:none;stroke-width:0.26458332"
       x="210.26544"
       y="120.79021"
       id="text3935"><tspan
         sodipodi:role="line"
         x="210.26544"
         y="120.79021"
         style="font-size:14.11111069px;line-height:14.11111069px;text-align:center;text-anchor:middle;fill:#f9f9f9;stroke-width:0.26458332"
         id="tspan3979">Ihr Anliegen kann aufgrund mangelnder Erfüllung</tspan><tspan
         sodipodi:role="line"
         x="210.26544"
         y="134.90132"
         style="font-size:14.11111069px;line-height:14.11111069px;text-align:center;text-anchor:middle;fill:#f9f9f9;stroke-width:0.26458332"
         id="tspan4077">von Grundvoraussetzungen wie Sympathie,</tspan><tspan
         sodipodi:role="line"
         x="210.26544"
         y="149.01244"
         style="font-size:14.11111069px;line-height:14.11111069px;text-align:center;text-anchor:middle;fill:#f9f9f9;stroke-width:0.26458332"
         id="tspan4089"> fehlender Motivation des Leistungsträgers,</tspan><tspan
         sodipodi:role="line"
         x="212.3325"
         y="163.12354"
         style="font-size:14.11111069px;line-height:14.11111069px;text-align:center;text-anchor:middle;fill:#f9f9f9;stroke-width:0.26458332"
         id="tspan4087">Defiziten in der Kooperationsbereitschaft oder </tspan><tspan
         sodipodi:role="line"
         x="212.3325"
         y="177.23465"
         style="font-size:14.11111069px;line-height:14.11111069px;text-align:center;text-anchor:middle;fill:#f9f9f9;stroke-width:0.26458332"
         id="tspan4091">allgemeiner Unverständnisse der Problematik </tspan><tspan
         sodipodi:role="line"
         x="210.26544"
         y="191.34576"
         style="font-size:14.11111069px;line-height:14.11111069px;text-align:center;text-anchor:middle;fill:#f9f9f9;stroke-width:0.26458332"
         id="tspan4093">zur Zeit leider nicht akzeptiert werden.</tspan><tspan
         sodipodi:role="line"
         x="210.26544"
         y="205.45688"
         style="font-size:14.11111069px;line-height:14.11111069px;text-align:center;text-anchor:middle;fill:#f9f9f9;stroke-width:0.26458332"
         id="tspan4095">Bitte wenden sie sich in 30 Tagen erneut</tspan><tspan
         sodipodi:role="line"
         x="210.26544"
         y="219.56798"
         style="font-size:14.11111069px;line-height:14.11111069px;text-align:center;text-anchor:middle;fill:#f9f9f9;stroke-width:0.26458332"
         id="tspan4097">zwecks Wiederablehnung an diese Stelle.</tspan></text>
    <path
       style="fill:#d40000;stroke-width:0.07319284"
       d="m 27.4998,227.00018 v 7.49981 H 20 v 5.0002 h 7.4998 V 247 h 5.000212 v -7.49981 h 7.4998 v -5.0002 h -7.4998 v -7.49981 z"
       id="path4015-0"
       inkscape:connector-curvature="0" />
    <path
       style="fill:#d40000;stroke-width:0.07319284"
       d="m 27.4998,46.80018 v 7.49981 H 20 v 5.0002 h 7.4998 V 66.8 h 5.000212 v -7.49981 h 7.4998 v -5.0002 h -7.4998 v -7.49981 z"
       id="path4015-0-3"
       inkscape:connector-curvature="0" />
    <path
       style="fill:#d40000;stroke-width:0.07319284"
       d="m 57.4998,227.00018 v 7.49981 H 50 v 5.0002 h 7.4998 V 247 h 5.00021 v -7.49981 h 7.4998 v -5.0002 h -7.4998 v -7.49981 z"
       id="path4015-0-6"
       inkscape:connector-curvature="0" />
    <path
       style="fill:#d40000;stroke-width:0.07319284"
       d="m 57.4998,46.80018 v 7.49981 H 50 v 5.0002 h 7.4998 V 66.8 h 5.00021 v -7.49981 h 7.4998 v -5.0002 h -7.4998 v -7.49981 z"
       id="path4015-0-3-1"
       inkscape:connector-curvature="0" />
    <path
       style="fill:#d40000;stroke-width:0.07319284"
       d="m 87.4998,227.00018 v 7.49981 H 80 v 5.0002 h 7.4998 V 247 h 5.00021 v -7.49981 h 7.4998 v -5.0002 h -7.4998 v -7.49981 z"
       id="path4015-0-8"
       inkscape:connector-curvature="0" />
    <path
       style="fill:#d40000;stroke-width:0.07319284"
       d="m 87.4998,46.80018 v 7.49981 H 80 v 5.0002 h 7.4998 V 66.8 h 5.00021 v -7.49981 h 7.4998 v -5.0002 h -7.4998 v -7.49981 z"
       id="path4015-0-3-7"
       inkscape:connector-curvature="0" />
    <path
       style="fill:#d40000;stroke-width:0.07319284"
       d="m 117.4998,227.00018 v 7.49981 H 110 v 5.0002 h 7.4998 V 247 h 5.00021 v -7.49981 h 7.4998 v -5.0002 h -7.4998 v -7.49981 z"
       id="path4015-0-6-9"
       inkscape:connector-curvature="0" />
    <path
       style="fill:#d40000;stroke-width:0.07319284"
       d="m 117.4998,46.80018 v 7.49981 H 110 v 5.0002 h 7.4998 V 66.8 h 5.00021 v -7.49981 h 7.4998 v -5.0002 h -7.4998 v -7.49981 z"
       id="path4015-0-3-1-2"
       inkscape:connector-curvature="0" />
    <path
       style="fill:#d40000;stroke-width:0.07319284"
       d="m 147.4998,227.00018 v 7.49981 H 140 v 5.0002 h 7.4998 V 247 h 5.00021 v -7.49981 h 7.4998 v -5.0002 h -7.4998 v -7.49981 z"
       id="path4015-0-89"
       inkscape:connector-curvature="0" />
    <path
       style="fill:#d40000;stroke-width:0.07319284"
       d="m 147.4998,46.80018 v 7.49981 H 140 v 5.0002 h 7.4998 V 66.8 h 5.00021 v -7.49981 h 7.4998 v -5.0002 h -7.4998 v -7.49981 z"
       id="path4015-0-3-73"
       inkscape:connector-curvature="0" />
    <path
       style="fill:#d40000;stroke-width:0.07319284"
       d="m 177.4998,227.00018 v 7.49981 H 170 v 5.0002 h 7.4998 V 247 h 5.00021 v -7.49981 h 7.4998 v -5.0002 h -7.4998 v -7.49981 z"
       id="path4015-0-6-6"
       inkscape:connector-curvature="0" />
    <path
       style="fill:#d40000;stroke-width:0.07319284"
       d="m 177.4998,46.80018 v 7.49981 H 170 v 5.0002 h 7.4998 V 66.8 h 5.00021 v -7.49981 h 7.4998 v -5.0002 h -7.4998 v -7.49981 z"
       id="path4015-0-3-1-1"
       inkscape:connector-curvature="0" />
    <path
       style="fill:#d40000;stroke-width:0.07319284"
       d="m 207.4998,227.00018 v 7.49981 H 200 v 5.0002 h 7.4998 V 247 h 5.00021 v -7.49981 h 7.4998 v -5.0002 h -7.4998 v -7.49981 z"
       id="path4015-0-8-2"
       inkscape:connector-curvature="0" />
    <path
       style="fill:#d40000;stroke-width:0.07319284"
       d="m 207.4998,46.80018 v 7.49981 H 200 v 5.0002 h 7.4998 V 66.8 h 5.00021 v -7.49981 h 7.4998 v -5.0002 h -7.4998 v -7.49981 z"
       id="path4015-0-3-7-9"
       inkscape:connector-curvature="0" />
    <path
       style="fill:#d40000;stroke-width:0.07319284"
       d="m 237.4998,227.00018 v 7.49981 H 230 v 5.0002 h 7.4998 V 247 h 5.00021 v -7.49981 h 7.4998 v -5.0002 h -7.4998 v -7.49981 z"
       id="path4015-0-6-9-3"
       inkscape:connector-curvature="0" />
    <path
       style="fill:#d40000;stroke-width:0.07319284"
       d="m 237.4998,46.80018 v 7.49981 H 230 v 5.0002 h 7.4998 V 66.8 h 5.00021 v -7.49981 h 7.4998 v -5.0002 h -7.4998 v -7.49981 z"
       id="path4015-0-3-1-2-1"
       inkscape:connector-curvature="0" />
    <path
       style="fill:#d40000;stroke-width:0.07319284"
       d="m 267.4998,227.00018 v 7.49981 H 260 v 5.0002 h 7.4998 V 247 h 5.00021 v -7.49981 h 7.4998 v -5.0002 h -7.4998 v -7.49981 z"
       id="path4015-0-9"
       inkscape:connector-curvature="0" />
    <path
       style="fill:#d40000;stroke-width:0.07319284"
       d="m 267.4998,46.80018 v 7.49981 H 260 v 5.0002 h 7.4998 V 66.8 h 5.00021 v -7.49981 h 7.4998 v -5.0002 h -7.4998 v -7.49981 z"
       id="path4015-0-3-4"
       inkscape:connector-curvature="0" />
    <path
       style="fill:#d40000;stroke-width:0.07319284"
       d="m 297.4998,227.00018 v 7.49981 H 290 v 5.0002 h 7.4998 V 247 h 5.00021 v -7.49981 h 7.4998 v -5.0002 h -7.4998 v -7.49981 z"
       id="path4015-0-6-7"
       inkscape:connector-curvature="0" />
    <path
       style="fill:#d40000;stroke-width:0.07319284"
       d="m 297.4998,46.80018 v 7.49981 H 290 v 5.0002 h 7.4998 V 66.8 h 5.00021 v -7.49981 h 7.4998 v -5.0002 h -7.4998 v -7.49981 z"
       id="path4015-0-3-1-8"
       inkscape:connector-curvature="0" />
    <path
       style="fill:#d40000;stroke-width:0.07319284"
       d="m 357.4998,227.00018 v 7.49981 H 350 v 5.0002 h 7.4998 V 247 h 5.00021 v -7.49981 h 7.4998 v -5.0002 h -7.4998 v -7.49981 z"
       id="path4015-0-8-4"
       inkscape:connector-curvature="0" />
    <path
       style="fill:#d40000;stroke-width:0.07319284"
       d="m 357.4998,46.80018 v 7.49981 H 350 v 5.0002 h 7.4998 V 66.8 h 5.00021 v -7.49981 h 7.4998 v -5.0002 h -7.4998 v -7.49981 z"
       id="path4015-0-3-7-5"
       inkscape:connector-curvature="0" />
    <path
       style="fill:#d40000;stroke-width:0.07319284"
       d="m 387.4998,227.00018 v 7.49981 H 380 v 5.0002 h 7.4998 V 247 h 5.00021 v -7.49981 h 7.4998 v -5.0002 h -7.4998 v -7.49981 z"
       id="path4015-0-6-9-0"
       inkscape:connector-curvature="0" />
    <path
       style="fill:#d40000;stroke-width:0.07319284"
       d="m 357.4998,46.80018 v 7.49981 H 350 v 5.0002 h 7.4998 V 66.8 h 5.00021 v -7.49981 h 7.4998 v -5.0002 h -7.4998 v -7.49981 z"
       id="path4015-0-3-1-2-3"
       inkscape:connector-curvature="0" />
    <path
       style="fill:#d40000;stroke-width:0.07319284"
       d="m 27.4998,47.00018 v 7.49981 H 20 v 5.0002 h 7.4998 V 67 h 5.000212 v -7.49981 h 7.4998 v -5.0002 h -7.4998 v -7.49981 z"
       id="path4015-0-3-0"
       inkscape:connector-curvature="0" />
    <path
       style="fill:#d40000;stroke-width:0.07319284"
       d="m 387.4998,46.80018 v 7.49981 H 380 v 5.0002 h 7.4998 V 66.8 H 392.5 v -7.49981 h 7.4998 v -5.0002 H 392.5 v -7.49981 z"
       id="path4015-0-3-1-2-3-6"
       inkscape:connector-curvature="0" />
    <path
       style="fill:#d40000;stroke-width:0.07319284"
       d="m 27.4998,197.00018 v 7.49981 H 20 v 5.0002 h 7.4998 V 217 h 5.000212 v -7.49981 h 7.4998 v -5.0002 h -7.4998 v -7.49981 z"
       id="path4015-0-32"
       inkscape:connector-curvature="0" />
    <path
       style="fill:#d40000;stroke-width:0.07319284"
       d="m 27.4998,197.00018 v 7.49981 H 20 v 5.0002 h 7.4998 V 217 h 5.000212 v -7.49981 h 7.4998 v -5.0002 h -7.4998 v -7.49981 z"
       id="path4015-0-32-6"
       inkscape:connector-curvature="0" />
    <path
       style="fill:#d40000;stroke-width:0.07319284"
       d="m 387.4998,197.00018 v 7.49981 H 380 v 5.0002 h 7.4998 V 217 H 392.5 v -7.49981 h 7.4998 v -5.0002 H 392.5 v -7.49981 z"
       id="path4015-0-6-9-0-0-1"
       inkscape:connector-curvature="0" />
    <path
       style="fill:#d40000;stroke-width:0.07319284"
       d="m 27.4998,167.00018 v 7.49981 H 20 v 5.0002 h 7.4998 V 187 h 5.000212 v -7.49981 h 7.4998 v -5.0002 h -7.4998 v -7.49981 z"
       id="path4015-0-5"
       inkscape:connector-curvature="0" />
    <path
       style="fill:#d40000;stroke-width:0.07319284"
       d="m 387.4998,167.00018 v 7.49981 H 380 v 5.0002 h 7.4998 V 187 H 392.5 v -7.49981 h 7.4998 v -5.0002 H 392.5 v -7.49981 z"
       id="path4015-0-6-9-0-5"
       inkscape:connector-curvature="0" />
    <path
       style="fill:#d40000;stroke-width:0.07319284"
       d="m 27.4998,137.00018 v 7.49981 H 20 v 5.0002 h 7.4998 V 157 h 5.000212 v -7.49981 h 7.4998 v -5.0002 h -7.4998 v -7.49981 z"
       id="path4015-0-32-6-4"
       inkscape:connector-curvature="0" />
    <path
       style="fill:#d40000;stroke-width:0.07319284"
       d="m 387.4998,137.00018 v 7.49981 H 380 v 5.0002 h 7.4998 V 157 H 392.5 v -7.49981 h 7.4998 v -5.0002 H 392.5 v -7.49981 z"
       id="path4015-0-6-9-0-0-1-7"
       inkscape:connector-curvature="0" />
    <path
       style="fill:#d40000;stroke-width:0.07319284"
       d="m 27.499804,107.00018 v 7.49981 H 20 v 5.0002 h 7.499804 V 127 h 5.000215 v -7.49981 h 7.499804 v -5.0002 h -7.499804 v -7.49981 z"
       id="path4015-0-65"
       inkscape:connector-curvature="0" />
    <path
       style="fill:#d40000;stroke-width:0.07319284"
       d="m 387.49999,107.00018 v 7.49981 h -7.4998 v 5.0002 h 7.4998 V 127 h 5.00021 v -7.49981 H 400 v -5.0002 h -7.4998 v -7.49981 z"
       id="path4015-0-6-9-0-6"
       inkscape:connector-curvature="0" />
    <path
       style="fill:#d40000;stroke-width:0.07319284"
       d="m 27.499804,77.00018 v 7.49981 H 20 v 5.0002 h 7.499804 V 97 h 5.000215 v -7.49981 h 7.499804 v -5.0002 h -7.499804 v -7.49981 z"
       id="path4015-0-32-6-9"
       inkscape:connector-curvature="0" />
    <path
       style="fill:#d40000;stroke-width:0.07319284"
       d="m 387.49999,77.00018 v 7.49981 h -7.4998 v 5.0002 h 7.4998 V 97 h 5.00021 V 89.50019 H 400 v -5.0002 h -7.4998 v -7.49981 z"
       id="path4015-0-6-9-0-0-1-3"
       inkscape:connector-curvature="0" />
    <path
       style="fill:#d40000;stroke-width:0.07319284"
       d="m 327.4998,227.00018 v 7.49981 H 320 v 5.0002 h 7.4998 V 247 h 5.00021 v -7.49981 h 7.4998 v -5.0002 h -7.4998 v -7.49981 z"
       id="path4015-0-6-7-7"
       inkscape:connector-curvature="0" />
    <path
       style="fill:#d40000;stroke-width:0.07319284"
       d="m 327.4998,46.800181 v 7.49981 H 320 v 5.0002 h 7.4998 v 7.49981 h 5.00021 v -7.49981 h 7.4998 v -5.0002 h -7.4998 v -7.49981 z"
       id="path4015-0-3-1-8-4"
       inkscape:connector-curvature="0" />
  </g>
</svg>
