<?xml version="1.0" encoding="UTF-8" standalone="no"?>
<!-- Created with Inkscape (http://www.inkscape.org/) -->

<svg
   xmlns:dc="http://purl.org/dc/elements/1.1/"
   xmlns:cc="http://creativecommons.org/ns#"
   xmlns:rdf="http://www.w3.org/1999/02/22-rdf-syntax-ns#"
   xmlns:svg="http://www.w3.org/2000/svg"
   xmlns="http://www.w3.org/2000/svg"
   xmlns:sodipodi="http://sodipodi.sourceforge.net/DTD/sodipodi-0.dtd"
   xmlns:inkscape="http://www.inkscape.org/namespaces/inkscape"
   width="300mm"
   height="500mm"
   viewBox="0 0 300 500"
   version="1.1"
   id="svg8"
   inkscape:version="0.92.3 (2405546, 2018-03-11)"
   sodipodi:docname="WarnschildWarnung.svg"
   inkscape:export-filename="/home/housemeista/Dropbox/Fla/Stencilkram Inkscape/Vorlagen/schildcyber.png"
   inkscape:export-xdpi="96"
   inkscape:export-ydpi="96">
  <defs
     id="defs2" />
  <sodipodi:namedview
     id="base"
     pagecolor="#ffffff"
     bordercolor="#666666"
     borderopacity="1.0"
     inkscape:pageopacity="0"
     inkscape:pageshadow="2"
     inkscape:zoom="0.44873333"
     inkscape:cx="566.92913"
     inkscape:cy="744.65303"
     inkscape:document-units="mm"
     inkscape:current-layer="layer1"
     showgrid="true"
     inkscape:pagecheckerboard="true"
     inkscape:window-width="1920"
     inkscape:window-height="1031"
     inkscape:window-x="0"
     inkscape:window-y="25"
     inkscape:window-maximized="1"
     showguides="false">
    <inkscape:grid
       type="xygrid"
       id="grid3713" />
  </sodipodi:namedview>
  <metadata
     id="metadata5">
    <rdf:RDF>
      <cc:Work
         rdf:about="">
        <dc:format>image/svg+xml</dc:format>
        <dc:type
           rdf:resource="http://purl.org/dc/dcmitype/StillImage" />
        <dc:title></dc:title>
      </cc:Work>
    </rdf:RDF>
  </metadata>
  <g
     inkscape:label="Ebene 1"
     inkscape:groupmode="layer"
     id="layer1"
     transform="translate(0,203)">
    <path
       style="fill:#ff0000;stroke-width:0.23145503"
       d="m 289.99972,-112.99991 c 0,-11.08 -8.91981,-19.99981 -19.99981,-19.99981 H 260 v 9.99991 h 9.99991 c 5.54,0 9.9999,4.4599 9.9999,9.9999 V -103 h 9.99991 z"
       id="path4021"
       inkscape:connector-curvature="0" />
    <path
       style="fill:#ff0000;stroke-width:0.27950829"
       d="m 289.99972,-103 h -9.99991 v 350 h 9.99991 z"
       id="path4019"
       inkscape:connector-curvature="0" />
    <path
       style="fill:#ff0000;stroke-width:0.23145503"
       d="m 289.99972,246.99974 h -9.99991 v 9.99993 c 0,5.53998 -4.4599,9.9999 -9.9999,9.9999 H 260 V 277 h 9.99991 c 11.08,0 19.99981,-8.92035 19.99981,-20.00033 z"
       id="path4017"
       inkscape:connector-curvature="0" />
    <path
       style="fill:#ff0000;stroke-width:0.34330311"
       d="M 260,-132.99972 H 40 v 9.99991 h 220 z"
       id="path4015"
       inkscape:connector-curvature="0" />
    <path
       style="fill:#ff0000;stroke-width:0.34330299"
       d="M 260,266.99957 H 40 V 277 h 220 z"
       id="path4013"
       inkscape:connector-curvature="0" />
    <path
       style="fill:#ff0000;stroke-width:0.23145503"
       d="M 40.00023,-132.99972 H 29.99981 c -11.08,0 -19.99981,8.91981 -19.99981,19.99981 V -103 h 9.99991 v -9.99991 c -10e-6,-5.54 4.4599,-9.9999 9.9999,-9.9999 h 10.00042 z"
       id="path4011"
       inkscape:connector-curvature="0" />
    <path
       style="fill:#ff0000;stroke-width:0.23145503"
       d="M 40.00023,266.99957 H 29.99981 c -5.54,0 -9.99991,-4.45992 -9.9999,-9.9999 v -9.99993 H 10 v 9.99993 C 10,268.07965 18.91981,277 29.99981,277 h 10.00042 z"
       id="path4009"
       inkscape:connector-curvature="0" />
    <path
       style="fill:#ff0000;stroke-width:0.27950829"
       d="M 19.99991,-103 H 10 v 350 h 9.99991 z"
       id="path3757"
       inkscape:connector-curvature="0" />
  </g>
</svg>
