<?xml version="1.0" encoding="UTF-8" standalone="no"?>
<!-- Created with Inkscape (http://www.inkscape.org/) -->

<svg
   xmlns:dc="http://purl.org/dc/elements/1.1/"
   xmlns:cc="http://creativecommons.org/ns#"
   xmlns:rdf="http://www.w3.org/1999/02/22-rdf-syntax-ns#"
   xmlns:svg="http://www.w3.org/2000/svg"
   xmlns="http://www.w3.org/2000/svg"
   xmlns:sodipodi="http://sodipodi.sourceforge.net/DTD/sodipodi-0.dtd"
   xmlns:inkscape="http://www.inkscape.org/namespaces/inkscape"
   width="297mm"
   height="500mm"
   viewBox="0 0 297 500"
   version="1.1"
   id="svg52356"
   sodipodi:docname="zerofucks_clean.svg"
   inkscape:version="0.92.5 (2060ec1f9f, 2020-04-08)">
  <metadata
     id="metadata874">
    <rdf:RDF>
      <cc:Work
         rdf:about="">
        <dc:format>image/svg+xml</dc:format>
        <dc:type
           rdf:resource="http://purl.org/dc/dcmitype/StillImage" />
        <dc:title></dc:title>
      </cc:Work>
    </rdf:RDF>
  </metadata>
  <sodipodi:namedview
     id="namedview52358"
     pagecolor="#505050"
     bordercolor="#ffffff"
     borderopacity="1"
     inkscape:pageshadow="0"
     inkscape:pageopacity="0"
     inkscape:pagecheckerboard="1"
     inkscape:document-units="mm"
     showgrid="false"
     height="500mm"
     showguides="false"
     inkscape:guide-bbox="true"
     inkscape:zoom="0.37727623"
     inkscape:cx="178.9053"
     inkscape:cy="911.49737"
     inkscape:window-width="1920"
     inkscape:window-height="1031"
     inkscape:window-x="0"
     inkscape:window-y="25"
     inkscape:window-maximized="1"
     inkscape:current-layer="text69258-7">
    <sodipodi:guide
       position="400.44157,509.11688"
       orientation="1,0"
       id="guide68058"
       inkscape:locked="false" />
    <sodipodi:guide
       position="0.70129872,494.38961"
       orientation="1,0"
       id="guide68060"
       inkscape:locked="false" />
    <sodipodi:guide
       position="335.73794,362.05276"
       orientation="0,-1"
       id="guide75086"
       inkscape:locked="false" />
    <sodipodi:guide
       position="244.75325,500.70129"
       orientation="0,-1"
       id="guide75878"
       inkscape:locked="false" />
    <sodipodi:guide
       position="138.5065,446.9026"
       orientation="1,0"
       id="guide1517"
       inkscape:locked="false" />
  </sodipodi:namedview>
  <defs
     id="defs52353" />
  <g
     inkscape:label="Ebene 1"
     inkscape:groupmode="layer"
     id="layer1">
    <g
       aria-label="WC Dusche"
       id="text54817"
       style="font-weight:bold;font-size:63.5px;line-height:1.25;font-family:Aurebesh_english;-inkscape-font-specification:'Aurebesh_english Bold';letter-spacing:0px;word-spacing:0px;stroke-width:0.264583"
       transform="translate(-25.1209, -69.4322)">
      <g
         aria-label="Ot-BEreich Toiletten Dusche"
         id="text69258-7"
         style="font-size:49.3889px;line-height:1;stroke-width:0.0700042"
         transform="matrix(6.12323e-17 1 -1 6.12323e-17 601.19 73.5208)">
        <path
           style="color:#000000;font-style:normal;font-variant:normal;font-weight:bold;font-stretch:normal;font-size:49.38890076px;line-height:1;font-family:Aurebesh_english;-inkscape-font-specification:'Aurebesh_english Bold';font-variant-ligatures:normal;font-variant-position:normal;font-variant-caps:normal;font-variant-numeric:normal;font-variant-alternates:normal;font-feature-settings:normal;text-indent:0;text-align:start;text-decoration:none;text-decoration-line:none;text-decoration-style:solid;text-decoration-color:#000000;letter-spacing:0px;word-spacing:0px;text-transform:none;writing-mode:lr-tb;direction:ltr;text-orientation:mixed;dominant-baseline:auto;baseline-shift:baseline;text-anchor:start;white-space:normal;shape-padding:0;clip-rule:nonzero;display:inline;overflow:visible;visibility:visible;opacity:1;isolation:auto;mix-blend-mode:normal;color-interpolation:sRGB;color-interpolation-filters:linearRGB;solid-color:#000000;solid-opacity:1;vector-effect:none;fill:none;fill-opacity:1;fill-rule:evenodd;stroke:#000000;stroke-width:0.29417339;stroke-linecap:butt;stroke-linejoin:miter;stroke-miterlimit:6.41057158;stroke-dasharray:none;stroke-dashoffset:0;stroke-opacity:1;color-rendering:auto;image-rendering:auto;shape-rendering:auto;text-rendering:auto;enable-background:accumulate"
           d="m 34.552107,287.5211 c -15.75173,0 -28.5696301,12.84037 -28.5696301,28.57528 V 538.6573 c 0,15.75482 12.8189751,28.56962 28.5696301,28.56962 h 158.364963 45.64622 153.38799 c 15.73073,0 28.5715,-12.8139 28.5715,-28.56962 V 316.09638 c 0,-15.7358 -12.8397,-28.57528 -28.5715,-28.57528 H 242.04266 196.88999 Z m 0,1.98175 h 162.337883 45.15267 149.90862 c 14.65498,0 26.58976,11.93426 26.58976,26.59353 V 538.6573 c 0,14.68065 -11.9337,26.58788 -26.58976,26.58788 H 238.56329 192.91707 34.552107 c -14.677444,0 -26.5897621,-11.90634 -26.5897621,-26.58788 V 316.09638 c 0,-14.66017 11.9133941,-26.59353 26.5897621,-26.59353 z"
           id="path3347-6"
           inkscape:connector-curvature="0" />
        <g
           id="g30"
           transform="matrix(0,-0.29408316,0.29408316,0,9.2523009,564.25789)"
           style="fill:none;stroke:#000000;stroke-width:1.00030673;stroke-linecap:butt;stroke-miterlimit:4;stroke-dasharray:none;stroke-opacity:1">
          <path
             d="M 73.88,13.4 C 38.18,19.6 9.25,51.35 9.25,88.54 q -0.01,603.32 0,1206.64 0,13 1.3,19.93 c 5.99,32.01 31.65,57.51 64.01,62.65 q 6.23,0.99 19.94,0.99 371.09,0 742.18,0 13.01,0 19.92,-1.31 c 31.95,-6.04 57.28,-31.76 62.4,-64 q 1,-6.27 1,-19.94 0,-598.84 0,-1197.68 0,-13.07 -1.27,-19.91 C 912.59,42.86 885.54,17.26 852.21,12.97 q -5.6,-0.72 -19.96,-0.72 -369.22,-0.01 -738.43,0.01 -13.37,0 -19.94,1.14"
             id="path2"
             inkscape:connector-curvature="0"
             style="vector-effect:non-scaling-stroke;fill:none;stroke:#000000;stroke-width:1.00030673;stroke-miterlimit:4;stroke-dasharray:none;stroke-opacity:1" />
          <path
             d="M 889,90.5 A 47.24,47.24 0 0 0 841.76,43.26 H 87.5 A 47.24,47.24 0 0 0 40.26,90.5 v 1210 a 47.24,47.24 0 0 0 47.24,47.24 H 841.76 A 47.24,47.24 0 0 0 889,1300.5 V 90.5"
             id="path4"
             inkscape:connector-curvature="0"
             style="vector-effect:non-scaling-stroke;fill:none;stroke:#000000;stroke-width:1.00030673;stroke-miterlimit:4;stroke-dasharray:none;stroke-opacity:1" />
          <path
             d="m 401.34,167.58 c -26.07,40.09 -16.75,117.59 35.75,133.83 q 16.63,5.14 35.97,3.34 c 34.14,-3.17 55.04,-26.87 61.74,-59.21 q 0.1,-0.48 -0.38,-0.6 l -29.19,-7.39 q -0.5,-0.13 -0.59,0.38 -1.84,11.33 -6.19,19.74 c -10.15,19.63 -33.83,24.52 -53.14,16.47 -19.14,-8 -24.92,-26.23 -26.56,-45.38 -2.34,-27.42 4.29,-59.72 36.77,-65.17 18.51,-3.11 35.83,2.29 43.22,20.9 q 3.16,7.95 4.1,10.91 0.17,0.53 0.7,0.4 l 28.47,-6.73 q 0.48,-0.12 0.36,-0.6 c -7.31,-28.73 -26.05,-48.32 -55.8,-52.33 -28.46,-3.84 -59.29,6.92 -75.23,31.44"
             id="path6"
             inkscape:connector-curvature="0"
             style="vector-effect:non-scaling-stroke;fill:none;stroke:#000000;stroke-width:1.00030673;stroke-miterlimit:4;stroke-dasharray:none;stroke-opacity:1" />
          <path
             d="m 807.76,236.69 c 10.6,2.79 22.64,9.42 19.69,22.68 -2.09,9.32 -10.78,14.15 -19.71,16.05 q -19.95,4.25 -36.7,-3.43 c -14.11,-6.47 -15.97,-16.48 -18.1,-30.4 q -0.08,-0.57 -0.65,-0.52 l -27.53,2.46 q -0.43,0.04 -0.42,0.48 0.21,8.11 0.62,10.74 c 6.54,41.54 44.42,53.64 81.05,49.77 25.93,-2.73 49.13,-19.83 51.22,-47.31 2.3,-30.24 -20.72,-44.62 -46.67,-51.26 q -14.77,-3.78 -29.52,-7.61 -11.4,-2.95 -14.52,-5.11 c -12.65,-8.78 -5.47,-24.29 6.97,-27.76 q 12.64,-3.53 25.82,-1.55 c 17.71,2.67 22.93,12.02 24.53,28.76 q 0.06,0.56 0.61,0.52 l 28.15,-2.11 a 0.26,0.25 -2.5 0 0 0.24,-0.25 c 0.37,-26.64 -14.22,-45.47 -39.1,-52.28 -27.54,-7.54 -67.47,-3.02 -79.94,27.72 q -5.49,13.54 -2.52,25.94 c 5.12,21.34 24.15,31.05 43.96,36.08 q 16.28,4.13 32.52,8.39"
             id="path8"
             inkscape:connector-curvature="0"
             style="vector-effect:non-scaling-stroke;fill:none;stroke:#000000;stroke-width:1.00030673;stroke-miterlimit:4;stroke-dasharray:none;stroke-opacity:1" />
          <path
             d="m 98.5,203.75 v -37.02 q 0,-0.56 0.54,-0.66 c 1.95,-0.37 4.46,0.25 5.8,0.24 q 38.57,-0.3 77.17,-0.34 0.49,0 0.49,-0.49 V 138.5 A 0.5,0.5 0 0 0 182,138 H 68.75 a 0.5,0.5 0 0 0 -0.5,0.5 v 163.66 q 0,0.41 0.41,0.41 l 29.54,-0.03 a 0.3,0.3 0 0 0 0.3,-0.3 v -69.49 a 0.5,0.5 0 0 1 0.5,-0.5 h 71.75 q 0.5,0 0.5,-0.5 v -27 a 0.5,0.5 0 0 0 -0.5,-0.5 H 99 q -0.5,0 -0.5,-0.5"
             id="path10"
             inkscape:connector-curvature="0"
             style="vector-effect:non-scaling-stroke;fill:none;stroke:#000000;stroke-width:1.00030673;stroke-miterlimit:4;stroke-dasharray:none;stroke-opacity:1" />
          <path
             d="m 256.69,301.31 c 15.38,5.08 35.96,5.29 51.63,1.12 31.92,-8.49 41.52,-35.78 41.58,-65.69 q 0.1,-49.05 0.12,-98.19 0,-0.55 -0.56,-0.55 h -29.37 a 0.37,0.36 90 0 0 -0.36,0.37 q 0.08,48.56 -0.03,97.06 -0.02,12.36 -3.21,23.56 c -2.4,8.44 -7.99,13.16 -16.54,15.7 -11.36,3.38 -28.37,3.73 -38.64,-3.32 -12,-8.23 -12.47,-24.37 -12.49,-37.88 q -0.05,-47.44 -0.09,-94.97 0,-0.52 -0.52,-0.52 h -29.19 q -0.5,0 -0.5,0.5 -0.07,45.94 0.01,91.87 c 0.06,30.76 4.68,59.89 38.16,70.94"
             id="path12"
             inkscape:connector-curvature="0"
             style="vector-effect:non-scaling-stroke;fill:none;stroke:#000000;stroke-width:1.00030673;stroke-miterlimit:4;stroke-dasharray:none;stroke-opacity:1" />
          <path
             d="m 598.28,207.34 a 0.31,0.31 0 0 1 -0.53,-0.22 V 138.31 A 0.31,0.31 0 0 0 597.44,138 h -29.63 a 0.31,0.31 0 0 0 -0.31,0.31 v 163.83 a 0.31,0.31 0 0 0 0.31,0.31 l 29.63,0.19 a 0.31,0.31 0 0 0 0.31,-0.31 v -56.02 a 0.31,0.31 0 0 1 0.09,-0.22 l 19.36,-18.86 a 0.31,0.31 0 0 1 0.47,0.05 l 52.94,75.09 a 0.31,0.31 0 0 0 0.25,0.13 l 38.47,0.04 a 0.31,0.31 0 0 0 0.25,-0.49 L 639.2,206.4 a 0.31,0.31 0 0 1 0.04,-0.41 l 69.85,-67.46 A 0.31,0.31 0 0 0 708.87,138 h -41.11 a 0.31,0.31 0 0 0 -0.22,0.09 l -69.26,69.25"
             id="path14"
             inkscape:connector-curvature="0"
             style="vector-effect:non-scaling-stroke;fill:none;stroke:#000000;stroke-width:1.00030673;stroke-miterlimit:4;stroke-dasharray:none;stroke-opacity:1" />
          <path
             d="m 228.61,497.54 a 0.39,0.39 0 0 1 0.39,0.39 v 20.76 q 0,0.51 -0.42,0.8 c -19.97,13.65 -44.94,17.78 -66.82,6.63 -21.45,-10.93 -25.95,-35 -24.68,-56.75 1.42,-24.42 13.58,-45.39 39.41,-49.88 19.08,-3.32 41.25,0.68 49.09,20.7 q 2.32,5.94 4.07,12.27 0.15,0.51 0.66,0.37 L 257,445.49 q 0.52,-0.14 0.4,-0.66 -2.04,-9.35 -5.8,-18.16 c -11.94,-27.91 -41.04,-36.79 -69.22,-35.39 -30.37,1.5 -54.94,15.44 -67.45,43.55 -22.33,50.19 -3.9,112.41 54.99,124.11 32.74,6.5 62.84,-3.65 88.34,-24.22 q 0.38,-0.31 0.42,-0.81 c 0.08,-0.92 0.37,-2.09 0.37,-2.94 q -0.25,-30.37 -0.28,-60.93 0,-0.56 -0.55,-0.56 l -74.27,0.05 q -0.45,0 -0.45,0.46 v 27 q 0,0.49 0.49,0.49 l 44.62,0.06"
             id="path16"
             inkscape:connector-curvature="0"
             style="vector-effect:non-scaling-stroke;fill:none;stroke:#000000;stroke-width:1.00030673;stroke-miterlimit:4;stroke-dasharray:none;stroke-opacity:1" />
          <path
             d="m 324.99,393.99 a 0.26,0.26 0 0 0 -0.26,-0.26 h -29.72 a 0.26,0.26 0 0 0 -0.26,0.26 v 164 a 0.26,0.26 0 0 0 0.26,0.26 h 29.72 a 0.26,0.26 0 0 0 0.26,-0.26 v -164"
             id="path18"
             inkscape:connector-curvature="0"
             style="vector-effect:non-scaling-stroke;fill:none;stroke:#000000;stroke-width:1.00030673;stroke-miterlimit:4;stroke-dasharray:none;stroke-opacity:1" />
          <path
             d="m 469.88,393.76 a 0.32,0.32 0 0 0 -0.3,0.21 L 423.3,518.53 a 0.32,0.32 0 0 1 -0.61,-0.01 L 378.11,393.94 a 0.32,0.32 0 0 0 -0.31,-0.21 l -32.05,0.03 a 0.32,0.32 0 0 0 -0.3,0.44 l 63.49,163.85 a 0.32,0.32 0 0 0 0.3,0.2 h 27.3 a 0.32,0.32 0 0 0 0.3,-0.2 L 501,394.16 a 0.32,0.32 0 0 0 -0.3,-0.44 l -30.82,0.04"
             id="path20"
             inkscape:connector-curvature="0"
             style="vector-effect:non-scaling-stroke;fill:none;stroke:#000000;stroke-width:1.00030673;stroke-miterlimit:4;stroke-dasharray:none;stroke-opacity:1" />
          <path
             d="m 550.58,530.25 a 0.33,0.33 0 0 1 -0.33,-0.33 v -42.1 a 0.33,0.33 0 0 1 0.33,-0.33 l 84.84,-0.32 a 0.33,0.33 0 0 0 0.33,-0.33 v -26.99 a 0.33,0.33 0 0 0 -0.33,-0.33 l -84.84,-0.16 a 0.33,0.33 0 0 1 -0.33,-0.33 v -36.95 a 0.33,0.33 0 0 1 0.33,-0.33 h 90.61 a 0.33,0.33 0 0 0 0.33,-0.33 l -0.02,-27.34 a 0.33,0.33 0 0 0 -0.33,-0.33 H 520.08 a 0.33,0.33 0 0 0 -0.33,0.33 v 163.84 a 0.33,0.33 0 0 0 0.33,0.33 h 124.84 a 0.33,0.33 0 0 0 0.33,-0.33 v -27.34 a 0.33,0.33 0 0 0 -0.33,-0.33 h -94.34"
             id="path22"
             inkscape:connector-curvature="0"
             style="vector-effect:non-scaling-stroke;fill:none;stroke:#000000;stroke-width:1.00030673;stroke-miterlimit:4;stroke-dasharray:none;stroke-opacity:1" />
          <path
             d="m 705.27,448.56 73.02,109.17 q 0.35,0.52 0.97,0.52 h 27.49 q 0.5,0 0.5,-0.5 v -163.5 q 0,-0.5 -0.5,-0.5 h -28.5 q -0.5,0 -0.5,0.5 v 107.21 q 0,2.5 -1.39,0.42 l -72.1,-107.7 q -0.29,-0.43 -0.8,-0.43 H 675.8 q -0.37,0 -0.36,0.37 0.19,9.64 -0.13,27.19 -0.54,30.06 0.15,134.19 0,1.11 -0.1,2.3 -0.04,0.45 0.41,0.45 h 28.48 q 0.49,0 0.49,-0.5 l 0.02,-109.04 a 0.28,0.28 0 0 1 0.51,-0.15"
             id="path24"
             inkscape:connector-curvature="0"
             style="vector-effect:non-scaling-stroke;fill:none;stroke:#000000;stroke-width:1.00030673;stroke-miterlimit:4;stroke-dasharray:none;stroke-opacity:1" />
          <path
             d="m 300.38,1208.12 c 38.55,38.04 88.97,58.17 142.88,60.99 66.55,3.47 130.22,-13.18 178.85,-60.64 57.44,-56.05 82.97,-133.32 90.27,-211.65 5.6,-60.1 3.42,-121.75 -12.28,-180.27 -24.73,-92.16 -88.33,-168.74 -186.69,-184.3 -69.26,-10.96 -143.95,3.07 -197.46,48.95 -86.68,74.31 -106.48,194.53 -101.4,302.12 3.84,81.4 26.13,165.89 85.83,224.8"
             id="path26"
             inkscape:connector-curvature="0"
             style="vector-effect:non-scaling-stroke;fill:none;stroke:#000000;stroke-width:1.00030673;stroke-miterlimit:4;stroke-dasharray:none;stroke-opacity:1" />
          <path
             d="m 311.43,1012.92 c 7.12,69.47 36.19,152.9 112.83,171.79 q 32.19,7.93 65.68,1.94 c 83.23,-14.88 118.38,-103.54 127.88,-176.83 12.69,-97.89 7.69,-279.61 -126.83,-297.93 q -29.13,-3.97 -57.91,1.73 C 355.5,728.99 324.92,802.17 314.52,872.01 q -10.39,69.72 -3.09,140.91"
             id="path28"
             inkscape:connector-curvature="0"
             style="vector-effect:non-scaling-stroke;fill:none;stroke:#000000;stroke-width:1.00030673;stroke-miterlimit:4;stroke-dasharray:none;stroke-opacity:1" />
        </g>
      </g>
    </g>
  </g>
</svg>
