<?xml version="1.0" encoding="UTF-8" standalone="no"?>
<!DOCTYPE svg PUBLIC "-//W3C//DTD SVG 1.1//EN" "http://www.w3.org/Graphics/SVG/1.1/DTD/svg11.dtd">
<svg xmlns="http://www.w3.org/2000/svg" version="1.1" viewBox="0.00 0.00 929.00 1393.00">
<g stroke-width="2.00" fill="none" stroke-linecap="butt">
<path stroke="#908f8f" vector-effect="non-scaling-stroke" d="
  M 73.88 13.40
  C 38.18 19.60 9.25 51.35 9.25 88.54
  Q 9.24 691.86 9.25 1295.18
  Q 9.25 1308.18 10.55 1315.11
  C 16.54 1347.12 42.20 1372.62 74.56 1377.76
  Q 80.79 1378.75 94.50 1378.75
  Q 465.59 1378.75 836.68 1378.75
  Q 849.69 1378.75 856.60 1377.44
  C 888.55 1371.40 913.88 1345.68 919.00 1313.44
  Q 920.00 1307.17 920.00 1293.50
  Q 920.00 694.66 920.00 95.82
  Q 920.00 82.75 918.73 75.91
  C 912.59 42.86 885.54 17.26 852.21 12.97
  Q 846.61 12.25 832.25 12.25
  Q 463.03 12.24 93.82 12.26
  Q 80.45 12.26 73.88 13.40"
/>
<path stroke="#898888" vector-effect="non-scaling-stroke" d="
  M 889.00 90.50
  A 47.24 47.24 0.0 0 0 841.76 43.26
  L 87.50 43.26
  A 47.24 47.24 0.0 0 0 40.26 90.50
  L 40.26 1300.50
  A 47.24 47.24 0.0 0 0 87.50 1347.74
  L 841.76 1347.74
  A 47.24 47.24 0.0 0 0 889.00 1300.50
  L 889.00 90.50"
/>
<path stroke="#898888" vector-effect="non-scaling-stroke" d="
  M 401.34 167.58
  C 375.27 207.67 384.59 285.17 437.09 301.41
  Q 453.72 306.55 473.06 304.75
  C 507.20 301.58 528.10 277.88 534.80 245.54
  Q 534.90 245.06 534.42 244.94
  L 505.23 237.55
  Q 504.73 237.42 504.64 237.93
  Q 502.80 249.26 498.45 257.67
  C 488.30 277.30 464.62 282.19 445.31 274.14
  C 426.17 266.14 420.39 247.91 418.75 228.76
  C 416.41 201.34 423.04 169.04 455.52 163.59
  C 474.03 160.48 491.35 165.88 498.74 184.49
  Q 501.90 192.44 502.84 195.40
  Q 503.01 195.93 503.54 195.80
  L 532.01 189.07
  Q 532.49 188.95 532.37 188.47
  C 525.06 159.74 506.32 140.15 476.57 136.14
  C 448.11 132.30 417.28 143.06 401.34 167.58"
/>
<path stroke="#898888" vector-effect="non-scaling-stroke" d="
  M 807.76 236.69
  C 818.36 239.48 830.40 246.11 827.45 259.37
  C 825.36 268.69 816.67 273.52 807.74 275.42
  Q 787.79 279.67 771.04 271.99
  C 756.93 265.52 755.07 255.51 752.94 241.59
  Q 752.86 241.02 752.29 241.07
  L 724.76 243.53
  Q 724.33 243.57 724.34 244.01
  Q 724.55 252.12 724.96 254.75
  C 731.50 296.29 769.38 308.39 806.01 304.52
  C 831.94 301.79 855.14 284.69 857.23 257.21
  C 859.53 226.97 836.51 212.59 810.56 205.95
  Q 795.79 202.17 781.04 198.34
  Q 769.64 195.39 766.52 193.23
  C 753.87 184.45 761.05 168.94 773.49 165.47
  Q 786.13 161.94 799.31 163.92
  C 817.02 166.59 822.24 175.94 823.84 192.68
  Q 823.90 193.24 824.45 193.20
  L 852.60 191.09
  A 0.26 0.25 -2.5 0 0 852.84 190.84
  C 853.21 164.20 838.62 145.37 813.74 138.56
  C 786.20 131.02 746.27 135.54 733.80 166.28
  Q 728.31 179.82 731.28 192.22
  C 736.40 213.56 755.43 223.27 775.24 228.30
  Q 791.52 232.43 807.76 236.69"
/>
<path stroke="#898888" vector-effect="non-scaling-stroke" d="
  M 98.50 203.75
  L 98.50 166.73
  Q 98.50 166.17 99.04 166.07
  C 100.99 165.70 103.50 166.32 104.84 166.31
  Q 143.41 166.01 182.01 165.97
  Q 182.50 165.97 182.50 165.48
  L 182.50 138.50
  A 0.50 0.50 0.0 0 0 182.00 138.00
  L 68.75 138.00
  A 0.50 0.50 0.0 0 0 68.25 138.50
  L 68.25 302.16
  Q 68.25 302.57 68.66 302.57
  L 98.20 302.54
  A 0.30 0.30 0.0 0 0 98.50 302.24
  L 98.50 232.75
  A 0.50 0.50 0.0 0 1 99.00 232.25
  L 170.75 232.25
  Q 171.25 232.25 171.25 231.75
  L 171.25 204.75
  A 0.50 0.50 0.0 0 0 170.75 204.25
  L 99.00 204.25
  Q 98.50 204.25 98.50 203.75"
/>
<path stroke="#898888" vector-effect="non-scaling-stroke" d="
  M 256.69 301.31
  C 272.07 306.39 292.65 306.60 308.32 302.43
  C 340.24 293.94 349.84 266.65 349.90 236.74
  Q 350.00 187.69 350.02 138.55
  Q 350.02 138.00 349.46 138.00
  L 320.09 138.00
  A 0.37 0.36 90.0 0 0 319.73 138.37
  Q 319.81 186.93 319.70 235.43
  Q 319.68 247.79 316.49 258.99
  C 314.09 267.43 308.50 272.15 299.95 274.69
  C 288.59 278.07 271.58 278.42 261.31 271.37
  C 249.31 263.14 248.84 247.00 248.82 233.49
  Q 248.77 186.05 248.73 138.52
  Q 248.73 138.00 248.21 138.00
  L 219.02 138.00
  Q 218.52 138.00 218.52 138.50
  Q 218.45 184.44 218.53 230.37
  C 218.59 261.13 223.21 290.26 256.69 301.31"
/>
<path stroke="#898888" vector-effect="non-scaling-stroke" d="
  M 598.28 207.34
  A 0.31 0.31 0.0 0 1 597.75 207.12
  L 597.75 138.31
  A 0.31 0.31 0.0 0 0 597.44 138.00
  L 567.81 138.00
  A 0.31 0.31 0.0 0 0 567.50 138.31
  L 567.50 302.14
  A 0.31 0.31 0.0 0 0 567.81 302.45
  L 597.44 302.64
  A 0.31 0.31 0.0 0 0 597.75 302.33
  L 597.75 246.31
  A 0.31 0.31 0.0 0 1 597.84 246.09
  L 617.20 227.23
  A 0.31 0.31 0.0 0 1 617.67 227.28
  L 670.61 302.37
  A 0.31 0.31 0.0 0 0 670.86 302.50
  L 709.33 302.54
  A 0.31 0.31 0.0 0 0 709.58 302.05
  L 639.20 206.40
  A 0.31 0.31 0.0 0 1 639.24 205.99
  L 709.09 138.53
  A 0.31 0.31 0.0 0 0 708.87 138.00
  L 667.76 138.00
  A 0.31 0.31 0.0 0 0 667.54 138.09
  L 598.28 207.34"
/>
<path stroke="#898888" vector-effect="non-scaling-stroke" d="
  M 228.61 497.54
  A 0.39 0.39 0.0 0 1 229.00 497.93
  L 229.00 518.69
  Q 229.00 519.20 228.58 519.49
  C 208.61 533.14 183.64 537.27 161.76 526.12
  C 140.31 515.19 135.81 491.12 137.08 469.37
  C 138.50 444.95 150.66 423.98 176.49 419.49
  C 195.57 416.17 217.74 420.17 225.58 440.19
  Q 227.90 446.13 229.65 452.46
  Q 229.80 452.97 230.31 452.83
  L 257.00 445.49
  Q 257.52 445.35 257.40 444.83
  Q 255.36 435.48 251.60 426.67
  C 239.66 398.76 210.56 389.88 182.38 391.28
  C 152.01 392.78 127.44 406.72 114.93 434.83
  C 92.60 485.02 111.03 547.24 169.92 558.94
  C 202.66 565.44 232.76 555.29 258.26 534.72
  Q 258.64 534.41 258.68 533.91
  C 258.76 532.99 259.05 531.82 259.05 530.97
  Q 258.80 500.60 258.77 470.04
  Q 258.77 469.48 258.22 469.48
  L 183.95 469.53
  Q 183.50 469.53 183.50 469.99
  L 183.50 496.99
  Q 183.50 497.48 183.99 497.48
  L 228.61 497.54"
/>
<path stroke="#898888" vector-effect="non-scaling-stroke" d="
  M 324.99 393.99
  A 0.26 0.26 0.0 0 0 324.73 393.73
  L 295.01 393.73
  A 0.26 0.26 0.0 0 0 294.75 393.99
  L 294.75 557.99
  A 0.26 0.26 0.0 0 0 295.01 558.25
  L 324.73 558.25
  A 0.26 0.26 0.0 0 0 324.99 557.99
  L 324.99 393.99"
/>
<path stroke="#898888" vector-effect="non-scaling-stroke" d="
  M 469.88 393.76
  A 0.32 0.32 0.0 0 0 469.58 393.97
  L 423.30 518.53
  A 0.32 0.32 0.0 0 1 422.69 518.52
  L 378.11 393.94
  A 0.32 0.32 0.0 0 0 377.80 393.73
  L 345.75 393.76
  A 0.32 0.32 0.0 0 0 345.45 394.20
  L 408.94 558.05
  A 0.32 0.32 0.0 0 0 409.24 558.25
  L 436.54 558.25
  A 0.32 0.32 0.0 0 0 436.84 558.05
  L 501.00 394.16
  A 0.32 0.32 0.0 0 0 500.70 393.72
  L 469.88 393.76"
/>
<path stroke="#898888" vector-effect="non-scaling-stroke" d="
  M 550.58 530.25
  A 0.33 0.33 0.0 0 1 550.25 529.92
  L 550.25 487.82
  A 0.33 0.33 0.0 0 1 550.58 487.49
  L 635.42 487.17
  A 0.33 0.33 0.0 0 0 635.75 486.84
  L 635.75 459.85
  A 0.33 0.33 0.0 0 0 635.42 459.52
  L 550.58 459.36
  A 0.33 0.33 0.0 0 1 550.25 459.03
  L 550.25 422.08
  A 0.33 0.33 0.0 0 1 550.58 421.75
  L 641.19 421.75
  A 0.33 0.33 0.0 0 0 641.52 421.42
  L 641.50 394.08
  A 0.33 0.33 0.0 0 0 641.17 393.75
  L 520.08 393.75
  A 0.33 0.33 0.0 0 0 519.75 394.08
  L 519.75 557.92
  A 0.33 0.33 0.0 0 0 520.08 558.25
  L 644.92 558.25
  A 0.33 0.33 0.0 0 0 645.25 557.92
  L 645.25 530.58
  A 0.33 0.33 0.0 0 0 644.92 530.25
  L 550.58 530.25"
/>
<path stroke="#898888" vector-effect="non-scaling-stroke" d="
  M 705.27 448.56
  L 778.29 557.73
  Q 778.64 558.25 779.26 558.25
  L 806.75 558.25
  Q 807.25 558.25 807.25 557.75
  L 807.25 394.25
  Q 807.25 393.75 806.75 393.75
  L 778.25 393.75
  Q 777.75 393.75 777.75 394.25
  L 777.75 501.46
  Q 777.75 503.96 776.36 501.88
  L 704.26 394.18
  Q 703.97 393.75 703.46 393.75
  L 675.80 393.75
  Q 675.43 393.75 675.44 394.12
  Q 675.63 403.76 675.31 421.31
  Q 674.77 451.37 675.46 555.50
  Q 675.46 556.61 675.36 557.80
  Q 675.32 558.25 675.77 558.25
  L 704.25 558.25
  Q 704.74 558.25 704.74 557.75
  L 704.76 448.71
  A 0.28 0.28 0.0 0 1 705.27 448.56"
/>
<path stroke="#898888" vector-effect="non-scaling-stroke" d="
  M 300.38 1208.12
  C 338.93 1246.16 389.35 1266.29 443.26 1269.11
  C 509.81 1272.58 573.48 1255.93 622.11 1208.47
  C 679.55 1152.42 705.08 1075.15 712.38 996.82
  C 717.98 936.72 715.80 875.07 700.10 816.55
  C 675.37 724.39 611.77 647.81 513.41 632.25
  C 444.15 621.29 369.46 635.32 315.95 681.20
  C 229.27 755.51 209.47 875.73 214.55 983.32
  C 218.39 1064.72 240.68 1149.21 300.38 1208.12"
/>
<path stroke="#898888" vector-effect="non-scaling-stroke" d="
  M 311.43 1012.92
  C 318.55 1082.39 347.62 1165.82 424.26 1184.71
  Q 456.45 1192.64 489.94 1186.65
  C 573.17 1171.77 608.32 1083.11 617.82 1009.82
  C 630.51 911.93 625.51 730.21 490.99 711.89
  Q 461.86 707.92 433.08 713.62
  C 355.50 728.99 324.92 802.17 314.52 872.01
  Q 304.13 941.73 311.43 1012.92"
/>
</g>
<path fill="#ffffff" d="
  M 0.00 0.00
  L 929.00 0.00
  L 929.00 1393.00
  L 0.00 1393.00
  L 0.00 0.00
  Z
  M 73.88 13.40
  C 38.18 19.60 9.25 51.35 9.25 88.54
  Q 9.24 691.86 9.25 1295.18
  Q 9.25 1308.18 10.55 1315.11
  C 16.54 1347.12 42.20 1372.62 74.56 1377.76
  Q 80.79 1378.75 94.50 1378.75
  Q 465.59 1378.75 836.68 1378.75
  Q 849.69 1378.75 856.60 1377.44
  C 888.55 1371.40 913.88 1345.68 919.00 1313.44
  Q 920.00 1307.17 920.00 1293.50
  Q 920.00 694.66 920.00 95.82
  Q 920.00 82.75 918.73 75.91
  C 912.59 42.86 885.54 17.26 852.21 12.97
  Q 846.61 12.25 832.25 12.25
  Q 463.03 12.24 93.82 12.26
  Q 80.45 12.26 73.88 13.40
  Z"
/>
<path fill="#201e1e" d="
  M 9.25 88.54
  C 9.25 51.35 38.18 19.60 73.88 13.40
  Q 80.45 12.26 93.82 12.26
  Q 463.03 12.24 832.25 12.25
  Q 846.61 12.25 852.21 12.97
  C 885.54 17.26 912.59 42.86 918.73 75.91
  Q 920.00 82.75 920.00 95.82
  Q 920.00 694.66 920.00 1293.50
  Q 920.00 1307.17 919.00 1313.44
  C 913.88 1345.68 888.55 1371.40 856.60 1377.44
  Q 849.69 1378.75 836.68 1378.75
  Q 465.59 1378.75 94.50 1378.75
  Q 80.79 1378.75 74.56 1377.76
  C 42.20 1372.62 16.54 1347.12 10.55 1315.11
  Q 9.25 1308.18 9.25 1295.18
  Q 9.24 691.86 9.25 88.54
  Z
  M 889.00 90.50
  A 47.24 47.24 0.0 0 0 841.76 43.26
  L 87.50 43.26
  A 47.24 47.24 0.0 0 0 40.26 90.50
  L 40.26 1300.50
  A 47.24 47.24 0.0 0 0 87.50 1347.74
  L 841.76 1347.74
  A 47.24 47.24 0.0 0 0 889.00 1300.50
  L 889.00 90.50
  Z"
/>
<path fill="#f1f1f1" d="
  M 889.00 1300.50
  A 47.24 47.24 0.0 0 1 841.76 1347.74
  L 87.50 1347.74
  A 47.24 47.24 0.0 0 1 40.26 1300.50
  L 40.26 90.50
  A 47.24 47.24 0.0 0 1 87.50 43.26
  L 841.76 43.26
  A 47.24 47.24 0.0 0 1 889.00 90.50
  L 889.00 1300.50
  Z
  M 401.34 167.58
  C 375.27 207.67 384.59 285.17 437.09 301.41
  Q 453.72 306.55 473.06 304.75
  C 507.20 301.58 528.10 277.88 534.80 245.54
  Q 534.90 245.06 534.42 244.94
  L 505.23 237.55
  Q 504.73 237.42 504.64 237.93
  Q 502.80 249.26 498.45 257.67
  C 488.30 277.30 464.62 282.19 445.31 274.14
  C 426.17 266.14 420.39 247.91 418.75 228.76
  C 416.41 201.34 423.04 169.04 455.52 163.59
  C 474.03 160.48 491.35 165.88 498.74 184.49
  Q 501.90 192.44 502.84 195.40
  Q 503.01 195.93 503.54 195.80
  L 532.01 189.07
  Q 532.49 188.95 532.37 188.47
  C 525.06 159.74 506.32 140.15 476.57 136.14
  C 448.11 132.30 417.28 143.06 401.34 167.58
  Z
  M 807.76 236.69
  C 818.36 239.48 830.40 246.11 827.45 259.37
  C 825.36 268.69 816.67 273.52 807.74 275.42
  Q 787.79 279.67 771.04 271.99
  C 756.93 265.52 755.07 255.51 752.94 241.59
  Q 752.86 241.02 752.29 241.07
  L 724.76 243.53
  Q 724.33 243.57 724.34 244.01
  Q 724.55 252.12 724.96 254.75
  C 731.50 296.29 769.38 308.39 806.01 304.52
  C 831.94 301.79 855.14 284.69 857.23 257.21
  C 859.53 226.97 836.51 212.59 810.56 205.95
  Q 795.79 202.17 781.04 198.34
  Q 769.64 195.39 766.52 193.23
  C 753.87 184.45 761.05 168.94 773.49 165.47
  Q 786.13 161.94 799.31 163.92
  C 817.02 166.59 822.24 175.94 823.84 192.68
  Q 823.90 193.24 824.45 193.20
  L 852.60 191.09
  A 0.26 0.25 -2.5 0 0 852.84 190.84
  C 853.21 164.20 838.62 145.37 813.74 138.56
  C 786.20 131.02 746.27 135.54 733.80 166.28
  Q 728.31 179.82 731.28 192.22
  C 736.40 213.56 755.43 223.27 775.24 228.30
  Q 791.52 232.43 807.76 236.69
  Z
  M 98.50 203.75
  L 98.50 166.73
  Q 98.50 166.17 99.04 166.07
  C 100.99 165.70 103.50 166.32 104.84 166.31
  Q 143.41 166.01 182.01 165.97
  Q 182.50 165.97 182.50 165.48
  L 182.50 138.50
  A 0.50 0.50 0.0 0 0 182.00 138.00
  L 68.75 138.00
  A 0.50 0.50 0.0 0 0 68.25 138.50
  L 68.25 302.16
  Q 68.25 302.57 68.66 302.57
  L 98.20 302.54
  A 0.30 0.30 0.0 0 0 98.50 302.24
  L 98.50 232.75
  A 0.50 0.50 0.0 0 1 99.00 232.25
  L 170.75 232.25
  Q 171.25 232.25 171.25 231.75
  L 171.25 204.75
  A 0.50 0.50 0.0 0 0 170.75 204.25
  L 99.00 204.25
  Q 98.50 204.25 98.50 203.75
  Z
  M 256.69 301.31
  C 272.07 306.39 292.65 306.60 308.32 302.43
  C 340.24 293.94 349.84 266.65 349.90 236.74
  Q 350.00 187.69 350.02 138.55
  Q 350.02 138.00 349.46 138.00
  L 320.09 138.00
  A 0.37 0.36 90.0 0 0 319.73 138.37
  Q 319.81 186.93 319.70 235.43
  Q 319.68 247.79 316.49 258.99
  C 314.09 267.43 308.50 272.15 299.95 274.69
  C 288.59 278.07 271.58 278.42 261.31 271.37
  C 249.31 263.14 248.84 247.00 248.82 233.49
  Q 248.77 186.05 248.73 138.52
  Q 248.73 138.00 248.21 138.00
  L 219.02 138.00
  Q 218.52 138.00 218.52 138.50
  Q 218.45 184.44 218.53 230.37
  C 218.59 261.13 223.21 290.26 256.69 301.31
  Z
  M 598.28 207.34
  A 0.31 0.31 0.0 0 1 597.75 207.12
  L 597.75 138.31
  A 0.31 0.31 0.0 0 0 597.44 138.00
  L 567.81 138.00
  A 0.31 0.31 0.0 0 0 567.50 138.31
  L 567.50 302.14
  A 0.31 0.31 0.0 0 0 567.81 302.45
  L 597.44 302.64
  A 0.31 0.31 0.0 0 0 597.75 302.33
  L 597.75 246.31
  A 0.31 0.31 0.0 0 1 597.84 246.09
  L 617.20 227.23
  A 0.31 0.31 0.0 0 1 617.67 227.28
  L 670.61 302.37
  A 0.31 0.31 0.0 0 0 670.86 302.50
  L 709.33 302.54
  A 0.31 0.31 0.0 0 0 709.58 302.05
  L 639.20 206.40
  A 0.31 0.31 0.0 0 1 639.24 205.99
  L 709.09 138.53
  A 0.31 0.31 0.0 0 0 708.87 138.00
  L 667.76 138.00
  A 0.31 0.31 0.0 0 0 667.54 138.09
  L 598.28 207.34
  Z
  M 228.61 497.54
  A 0.39 0.39 0.0 0 1 229.00 497.93
  L 229.00 518.69
  Q 229.00 519.20 228.58 519.49
  C 208.61 533.14 183.64 537.27 161.76 526.12
  C 140.31 515.19 135.81 491.12 137.08 469.37
  C 138.50 444.95 150.66 423.98 176.49 419.49
  C 195.57 416.17 217.74 420.17 225.58 440.19
  Q 227.90 446.13 229.65 452.46
  Q 229.80 452.97 230.31 452.83
  L 257.00 445.49
  Q 257.52 445.35 257.40 444.83
  Q 255.36 435.48 251.60 426.67
  C 239.66 398.76 210.56 389.88 182.38 391.28
  C 152.01 392.78 127.44 406.72 114.93 434.83
  C 92.60 485.02 111.03 547.24 169.92 558.94
  C 202.66 565.44 232.76 555.29 258.26 534.72
  Q 258.64 534.41 258.68 533.91
  C 258.76 532.99 259.05 531.82 259.05 530.97
  Q 258.80 500.60 258.77 470.04
  Q 258.77 469.48 258.22 469.48
  L 183.95 469.53
  Q 183.50 469.53 183.50 469.99
  L 183.50 496.99
  Q 183.50 497.48 183.99 497.48
  L 228.61 497.54
  Z
  M 324.99 393.99
  A 0.26 0.26 0.0 0 0 324.73 393.73
  L 295.01 393.73
  A 0.26 0.26 0.0 0 0 294.75 393.99
  L 294.75 557.99
  A 0.26 0.26 0.0 0 0 295.01 558.25
  L 324.73 558.25
  A 0.26 0.26 0.0 0 0 324.99 557.99
  L 324.99 393.99
  Z
  M 469.88 393.76
  A 0.32 0.32 0.0 0 0 469.58 393.97
  L 423.30 518.53
  A 0.32 0.32 0.0 0 1 422.69 518.52
  L 378.11 393.94
  A 0.32 0.32 0.0 0 0 377.80 393.73
  L 345.75 393.76
  A 0.32 0.32 0.0 0 0 345.45 394.20
  L 408.94 558.05
  A 0.32 0.32 0.0 0 0 409.24 558.25
  L 436.54 558.25
  A 0.32 0.32 0.0 0 0 436.84 558.05
  L 501.00 394.16
  A 0.32 0.32 0.0 0 0 500.70 393.72
  L 469.88 393.76
  Z
  M 550.58 530.25
  A 0.33 0.33 0.0 0 1 550.25 529.92
  L 550.25 487.82
  A 0.33 0.33 0.0 0 1 550.58 487.49
  L 635.42 487.17
  A 0.33 0.33 0.0 0 0 635.75 486.84
  L 635.75 459.85
  A 0.33 0.33 0.0 0 0 635.42 459.52
  L 550.58 459.36
  A 0.33 0.33 0.0 0 1 550.25 459.03
  L 550.25 422.08
  A 0.33 0.33 0.0 0 1 550.58 421.75
  L 641.19 421.75
  A 0.33 0.33 0.0 0 0 641.52 421.42
  L 641.50 394.08
  A 0.33 0.33 0.0 0 0 641.17 393.75
  L 520.08 393.75
  A 0.33 0.33 0.0 0 0 519.75 394.08
  L 519.75 557.92
  A 0.33 0.33 0.0 0 0 520.08 558.25
  L 644.92 558.25
  A 0.33 0.33 0.0 0 0 645.25 557.92
  L 645.25 530.58
  A 0.33 0.33 0.0 0 0 644.92 530.25
  L 550.58 530.25
  Z
  M 705.27 448.56
  L 778.29 557.73
  Q 778.64 558.25 779.26 558.25
  L 806.75 558.25
  Q 807.25 558.25 807.25 557.75
  L 807.25 394.25
  Q 807.25 393.75 806.75 393.75
  L 778.25 393.75
  Q 777.75 393.75 777.75 394.25
  L 777.75 501.46
  Q 777.75 503.96 776.36 501.88
  L 704.26 394.18
  Q 703.97 393.75 703.46 393.75
  L 675.80 393.75
  Q 675.43 393.75 675.44 394.12
  Q 675.63 403.76 675.31 421.31
  Q 674.77 451.37 675.46 555.50
  Q 675.46 556.61 675.36 557.80
  Q 675.32 558.25 675.77 558.25
  L 704.25 558.25
  Q 704.74 558.25 704.74 557.75
  L 704.76 448.71
  A 0.28 0.28 0.0 0 1 705.27 448.56
  Z
  M 300.38 1208.12
  C 338.93 1246.16 389.35 1266.29 443.26 1269.11
  C 509.81 1272.58 573.48 1255.93 622.11 1208.47
  C 679.55 1152.42 705.08 1075.15 712.38 996.82
  C 717.98 936.72 715.80 875.07 700.10 816.55
  C 675.37 724.39 611.77 647.81 513.41 632.25
  C 444.15 621.29 369.46 635.32 315.95 681.20
  C 229.27 755.51 209.47 875.73 214.55 983.32
  C 218.39 1064.72 240.68 1149.21 300.38 1208.12
  Z"
/>
<path fill="#201e1e" d="
  M 437.09 301.41
  C 384.59 285.17 375.27 207.67 401.34 167.58
  C 417.28 143.06 448.11 132.30 476.57 136.14
  C 506.32 140.15 525.06 159.74 532.37 188.47
  Q 532.49 188.95 532.01 189.07
  L 503.54 195.80
  Q 503.01 195.93 502.84 195.40
  Q 501.90 192.44 498.74 184.49
  C 491.35 165.88 474.03 160.48 455.52 163.59
  C 423.04 169.04 416.41 201.34 418.75 228.76
  C 420.39 247.91 426.17 266.14 445.31 274.14
  C 464.62 282.19 488.30 277.30 498.45 257.67
  Q 502.80 249.26 504.64 237.93
  Q 504.73 237.42 505.23 237.55
  L 534.42 244.94
  Q 534.90 245.06 534.80 245.54
  C 528.10 277.88 507.20 301.58 473.06 304.75
  Q 453.72 306.55 437.09 301.41
  Z"
/>
<path fill="#201e1e" d="
  M 827.45 259.37
  C 830.40 246.11 818.36 239.48 807.76 236.69
  Q 791.52 232.43 775.24 228.30
  C 755.43 223.27 736.40 213.56 731.28 192.22
  Q 728.31 179.82 733.80 166.28
  C 746.27 135.54 786.20 131.02 813.74 138.56
  C 838.62 145.37 853.21 164.20 852.84 190.84
  A 0.26 0.25 -2.5 0 1 852.60 191.09
  L 824.45 193.20
  Q 823.90 193.24 823.84 192.68
  C 822.24 175.94 817.02 166.59 799.31 163.92
  Q 786.13 161.94 773.49 165.47
  C 761.05 168.94 753.87 184.45 766.52 193.23
  Q 769.64 195.39 781.04 198.34
  Q 795.79 202.17 810.56 205.95
  C 836.51 212.59 859.53 226.97 857.23 257.21
  C 855.14 284.69 831.94 301.79 806.01 304.52
  C 769.38 308.39 731.50 296.29 724.96 254.75
  Q 724.55 252.12 724.34 244.01
  Q 724.33 243.57 724.76 243.53
  L 752.29 241.07
  Q 752.86 241.02 752.94 241.59
  C 755.07 255.51 756.93 265.52 771.04 271.99
  Q 787.79 279.67 807.74 275.42
  C 816.67 273.52 825.36 268.69 827.45 259.37
  Z"
/>
<path fill="#201e1e" d="
  M 99.00 204.25
  L 170.75 204.25
  A 0.50 0.50 0.0 0 1 171.25 204.75
  L 171.25 231.75
  Q 171.25 232.25 170.75 232.25
  L 99.00 232.25
  A 0.50 0.50 0.0 0 0 98.50 232.75
  L 98.50 302.24
  A 0.30 0.30 0.0 0 1 98.20 302.54
  L 68.66 302.57
  Q 68.25 302.57 68.25 302.16
  L 68.25 138.50
  A 0.50 0.50 0.0 0 1 68.75 138.00
  L 182.00 138.00
  A 0.50 0.50 0.0 0 1 182.50 138.50
  L 182.50 165.48
  Q 182.50 165.97 182.01 165.97
  Q 143.41 166.01 104.84 166.31
  C 103.50 166.32 100.99 165.70 99.04 166.07
  Q 98.50 166.17 98.50 166.73
  L 98.50 203.75
  Q 98.50 204.25 99.00 204.25
  Z"
/>
<path fill="#201e1e" d="
  M 256.69 301.31
  C 223.21 290.26 218.59 261.13 218.53 230.37
  Q 218.45 184.44 218.52 138.50
  Q 218.52 138.00 219.02 138.00
  L 248.21 138.00
  Q 248.73 138.00 248.73 138.52
  Q 248.77 186.05 248.82 233.49
  C 248.84 247.00 249.31 263.14 261.31 271.37
  C 271.58 278.42 288.59 278.07 299.95 274.69
  C 308.50 272.15 314.09 267.43 316.49 258.99
  Q 319.68 247.79 319.70 235.43
  Q 319.81 186.93 319.73 138.37
  A 0.37 0.36 90.0 0 1 320.09 138.00
  L 349.46 138.00
  Q 350.02 138.00 350.02 138.55
  Q 350.00 187.69 349.90 236.74
  C 349.84 266.65 340.24 293.94 308.32 302.43
  C 292.65 306.60 272.07 306.39 256.69 301.31
  Z"
/>
<path fill="#201e1e" d="
  M 598.28 207.34
  L 667.54 138.09
  A 0.31 0.31 0.0 0 1 667.76 138.00
  L 708.87 138.00
  A 0.31 0.31 0.0 0 1 709.09 138.53
  L 639.24 205.99
  A 0.31 0.31 0.0 0 0 639.20 206.40
  L 709.58 302.05
  A 0.31 0.31 0.0 0 1 709.33 302.54
  L 670.86 302.50
  A 0.31 0.31 0.0 0 1 670.61 302.37
  L 617.67 227.28
  A 0.31 0.31 0.0 0 0 617.20 227.23
  L 597.84 246.09
  A 0.31 0.31 0.0 0 0 597.75 246.31
  L 597.75 302.33
  A 0.31 0.31 0.0 0 1 597.44 302.64
  L 567.81 302.45
  A 0.31 0.31 0.0 0 1 567.50 302.14
  L 567.50 138.31
  A 0.31 0.31 0.0 0 1 567.81 138.00
  L 597.44 138.00
  A 0.31 0.31 0.0 0 1 597.75 138.31
  L 597.75 207.12
  A 0.31 0.31 0.0 0 0 598.28 207.34
  Z"
/>
<path fill="#201e1e" d="
  M 228.61 497.54
  L 183.99 497.48
  Q 183.50 497.48 183.50 496.99
  L 183.50 469.99
  Q 183.50 469.53 183.95 469.53
  L 258.22 469.48
  Q 258.77 469.48 258.77 470.04
  Q 258.80 500.60 259.05 530.97
  C 259.05 531.82 258.76 532.99 258.68 533.91
  Q 258.64 534.41 258.26 534.72
  C 232.76 555.29 202.66 565.44 169.92 558.94
  C 111.03 547.24 92.60 485.02 114.93 434.83
  C 127.44 406.72 152.01 392.78 182.38 391.28
  C 210.56 389.88 239.66 398.76 251.60 426.67
  Q 255.36 435.48 257.40 444.83
  Q 257.52 445.35 257.00 445.49
  L 230.31 452.83
  Q 229.80 452.97 229.65 452.46
  Q 227.90 446.13 225.58 440.19
  C 217.74 420.17 195.57 416.17 176.49 419.49
  C 150.66 423.98 138.50 444.95 137.08 469.37
  C 135.81 491.12 140.31 515.19 161.76 526.12
  C 183.64 537.27 208.61 533.14 228.58 519.49
  Q 229.00 519.20 229.00 518.69
  L 229.00 497.93
  A 0.39 0.39 0.0 0 0 228.61 497.54
  Z"
/>
<rect fill="#201e1e" x="294.75" y="393.73" width="30.24" height="164.52" rx="0.26"/>
<path fill="#201e1e" d="
  M 469.88 393.76
  L 500.70 393.72
  A 0.32 0.32 0.0 0 1 501.00 394.16
  L 436.84 558.05
  A 0.32 0.32 0.0 0 1 436.54 558.25
  L 409.24 558.25
  A 0.32 0.32 0.0 0 1 408.94 558.05
  L 345.45 394.20
  A 0.32 0.32 0.0 0 1 345.75 393.76
  L 377.80 393.73
  A 0.32 0.32 0.0 0 1 378.11 393.94
  L 422.69 518.52
  A 0.32 0.32 0.0 0 0 423.30 518.53
  L 469.58 393.97
  A 0.32 0.32 0.0 0 1 469.88 393.76
  Z"
/>
<path fill="#201e1e" d="
  M 550.58 530.25
  L 644.92 530.25
  A 0.33 0.33 0.0 0 1 645.25 530.58
  L 645.25 557.92
  A 0.33 0.33 0.0 0 1 644.92 558.25
  L 520.08 558.25
  A 0.33 0.33 0.0 0 1 519.75 557.92
  L 519.75 394.08
  A 0.33 0.33 0.0 0 1 520.08 393.75
  L 641.17 393.75
  A 0.33 0.33 0.0 0 1 641.50 394.08
  L 641.52 421.42
  A 0.33 0.33 0.0 0 1 641.19 421.75
  L 550.58 421.75
  A 0.33 0.33 0.0 0 0 550.25 422.08
  L 550.25 459.03
  A 0.33 0.33 0.0 0 0 550.58 459.36
  L 635.42 459.52
  A 0.33 0.33 0.0 0 1 635.75 459.85
  L 635.75 486.84
  A 0.33 0.33 0.0 0 1 635.42 487.17
  L 550.58 487.49
  A 0.33 0.33 0.0 0 0 550.25 487.82
  L 550.25 529.92
  A 0.33 0.33 0.0 0 0 550.58 530.25
  Z"
/>
<path fill="#201e1e" d="
  M 705.27 448.56
  A 0.28 0.28 0.0 0 0 704.76 448.71
  L 704.74 557.75
  Q 704.74 558.25 704.25 558.25
  L 675.77 558.25
  Q 675.32 558.25 675.36 557.80
  Q 675.46 556.61 675.46 555.50
  Q 674.77 451.37 675.31 421.31
  Q 675.63 403.76 675.44 394.12
  Q 675.43 393.75 675.80 393.75
  L 703.46 393.75
  Q 703.97 393.75 704.26 394.18
  L 776.36 501.88
  Q 777.75 503.96 777.75 501.46
  L 777.75 394.25
  Q 777.75 393.75 778.25 393.75
  L 806.75 393.75
  Q 807.25 393.75 807.25 394.25
  L 807.25 557.75
  Q 807.25 558.25 806.75 558.25
  L 779.26 558.25
  Q 778.64 558.25 778.29 557.73
  L 705.27 448.56
  Z"
/>
<path fill="#201e1e" d="
  M 300.38 1208.12
  C 240.68 1149.21 218.39 1064.72 214.55 983.32
  C 209.47 875.73 229.27 755.51 315.95 681.20
  C 369.46 635.32 444.15 621.29 513.41 632.25
  C 611.77 647.81 675.37 724.39 700.10 816.55
  C 715.80 875.07 717.98 936.72 712.38 996.82
  C 705.08 1075.15 679.55 1152.42 622.11 1208.47
  C 573.48 1255.93 509.81 1272.58 443.26 1269.11
  C 389.35 1266.29 338.93 1246.16 300.38 1208.12
  Z
  M 311.43 1012.92
  C 318.55 1082.39 347.62 1165.82 424.26 1184.71
  Q 456.45 1192.64 489.94 1186.65
  C 573.17 1171.77 608.32 1083.11 617.82 1009.82
  C 630.51 911.93 625.51 730.21 490.99 711.89
  Q 461.86 707.92 433.08 713.62
  C 355.50 728.99 324.92 802.17 314.52 872.01
  Q 304.13 941.73 311.43 1012.92
  Z"
/>
<path fill="#f1f1f1" d="
  M 424.26 1184.71
  C 347.62 1165.82 318.55 1082.39 311.43 1012.92
  Q 304.13 941.73 314.52 872.01
  C 324.92 802.17 355.50 728.99 433.08 713.62
  Q 461.86 707.92 490.99 711.89
  C 625.51 730.21 630.51 911.93 617.82 1009.82
  C 608.32 1083.11 573.17 1171.77 489.94 1186.65
  Q 456.45 1192.64 424.26 1184.71
  Z"
/>
</svg>
