<?xml version="1.0" encoding="UTF-8" standalone="no"?>
<!-- Created with Inkscape (http://www.inkscape.org/) -->

<svg
   xmlns:dc="http://purl.org/dc/elements/1.1/"
   xmlns:cc="http://creativecommons.org/ns#"
   xmlns:rdf="http://www.w3.org/1999/02/22-rdf-syntax-ns#"
   xmlns:svg="http://www.w3.org/2000/svg"
   xmlns="http://www.w3.org/2000/svg"
   xmlns:sodipodi="http://sodipodi.sourceforge.net/DTD/sodipodi-0.dtd"
   xmlns:inkscape="http://www.inkscape.org/namespaces/inkscape"
   width="297mm"
   height="420mm"
   viewBox="0 0 297 420"
   version="1.1"
   id="svg8"
   inkscape:version="0.92.3 (2405546, 2018-03-11)"
   sodipodi:docname="zisterne01.svg"
   inkscape:export-filename="/home/housemeista/Dropbox/Fla/Stencilkram Inkscape/Vorlagen/schildabgelehnt.png"
   inkscape:export-xdpi="96"
   inkscape:export-ydpi="96">
  <defs
     id="defs2" />
  <sodipodi:namedview
     id="base"
     pagecolor="#ffffff"
     bordercolor="#666666"
     borderopacity="1.0"
     inkscape:pageopacity="0"
     inkscape:pageshadow="2"
     inkscape:zoom="0.37772166"
     inkscape:cx="909.87562"
     inkscape:cy="874.72888"
     inkscape:document-units="mm"
     inkscape:current-layer="layer1"
     showgrid="true"
     inkscape:pagecheckerboard="true"
     inkscape:window-width="1920"
     inkscape:window-height="1031"
     inkscape:window-x="0"
     inkscape:window-y="25"
     inkscape:window-maximized="1"
     showguides="false">
    <inkscape:grid
       type="xygrid"
       id="grid3713" />
  </sodipodi:namedview>
  <metadata
     id="metadata5">
    <rdf:RDF>
      <cc:Work
         rdf:about="">
        <dc:format>image/svg+xml</dc:format>
        <dc:type
           rdf:resource="http://purl.org/dc/dcmitype/StillImage" />
        <dc:title></dc:title>
      </cc:Work>
    </rdf:RDF>
  </metadata>
  <g
     inkscape:label="Ebene 1"
     inkscape:groupmode="layer"
     id="layer1"
     transform="translate(0,123)">
    <flowRoot
       xml:space="preserve"
       id="flowRoot904"
       style="fill:black;fill-opacity:1;stroke:none;font-family:PreussischeIV44Ausgabe3;font-style:normal;font-weight:normal;font-size:120px;line-height:1.25;letter-spacing:0px;word-spacing:0px;-inkscape-font-specification:PreussischeIV44Ausgabe3;font-stretch:normal;font-variant:normal"><flowRegion
         id="flowRegion906"><rect
           id="rect908"
           width="520"
           height="200"
           x="-1440"
           y="787.40155" /></flowRegion><flowPara
         id="flowPara910" /></flowRoot>    <flowRoot
       xml:space="preserve"
       id="flowRoot924"
       style="fill:black;fill-opacity:1;stroke:none;font-family:PreussischeIV44Ausgabe3;font-style:normal;font-weight:normal;font-size:80px;line-height:1.25;letter-spacing:0px;word-spacing:0px;-inkscape-font-specification:PreussischeIV44Ausgabe3;font-stretch:normal;font-variant:normal"><flowRegion
         id="flowRegion926"><rect
           id="rect928"
           width="1120"
           height="920"
           x="-1120"
           y="787.40155" /></flowRegion><flowPara
         id="flowPara930" /></flowRoot>    <text
       xml:space="preserve"
       style="font-style:normal;font-variant:normal;font-weight:normal;font-stretch:normal;font-size:21.16666603px;line-height:1.25;font-family:PreussischeIV44Ausgabe3;-inkscape-font-specification:PreussischeIV44Ausgabe3;letter-spacing:0px;word-spacing:0px;fill:#000000;fill-opacity:1;stroke:none;stroke-width:0.26458332"
       x="-32.40802"
       y="22.429251"
       id="text961"><tspan
         sodipodi:role="line"
         x="-32.40802"
         y="41.632286"
         style="font-size:19.04999924px;stroke-width:0.26458332"
         id="tspan973" /></text>
    <flowRoot
       xml:space="preserve"
       id="flowRoot1054"
       style="fill:black;fill-opacity:1;stroke:none;font-family:PreussischeIV44Ausgabe3;font-style:normal;font-weight:normal;font-size:80px;line-height:1.25;letter-spacing:0px;word-spacing:0px;-inkscape-font-specification:PreussischeIV44Ausgabe3;font-stretch:normal;font-variant:normal"><flowRegion
         id="flowRegion1056"><rect
           id="rect1058"
           width="760"
           height="160"
           x="-1520"
           y="507.40158" /></flowRegion><flowPara
         id="flowPara1060" /></flowRoot>    <flowRoot
       xml:space="preserve"
       id="flowRoot1062"
       style="fill:black;fill-opacity:1;stroke:none;font-family:PreussischeIV44Ausgabe3;font-style:normal;font-weight:normal;font-size:80px;line-height:1.25;letter-spacing:0px;word-spacing:0px;-inkscape-font-specification:PreussischeIV44Ausgabe3;font-stretch:normal;font-variant:normal"><flowRegion
         id="flowRegion1064"><rect
           id="rect1066"
           width="480"
           height="120"
           x="-1280"
           y="547.40155" /></flowRegion><flowPara
         id="flowPara1068" /></flowRoot>    <flowRoot
       xml:space="preserve"
       id="flowRoot1070"
       style="fill:black;fill-opacity:1;stroke:none;font-family:PreussischeIV44Ausgabe3;font-style:normal;font-weight:normal;font-size:80px;line-height:1.25;letter-spacing:0px;word-spacing:0px;-inkscape-font-specification:PreussischeIV44Ausgabe3;font-stretch:normal;font-variant:normal"><flowRegion
         id="flowRegion1072"><rect
           id="rect1074"
           width="800"
           height="160"
           x="-1520"
           y="507.40158" /></flowRegion><flowPara
         id="flowPara1076" /></flowRoot>    <g
       id="g1884"
       transform="rotate(90,147.5,89.5)">
      <g
         transform="rotate(-90,147.5,89.5)"
         id="g983">
        <path
           style="fill:#d40000;stroke-width:0.11572859"
           d="m 285,-98 c 0,-5.54005 -4.45995,-10 -10,-10 h -5 v 5 h 5 c 2.77003,0 5,2.22997 5,5 v 5 h 5 z"
           id="path4021"
           inkscape:connector-curvature="0" />
        <path
           style="fill:#d40000;stroke-width:0.19904998"
           d="m 285,-88 h -5 v 355 h 5 z"
           id="path4019"
           inkscape:connector-curvature="0" />
        <path
           style="fill:#d40000;stroke-width:0.25089234"
           d="M 265,-108 H 30 v 5 h 235 z"
           id="path4015"
           inkscape:connector-curvature="0" />
        <path
           style="fill:#d40000;stroke-width:0.11572761"
           d="M 25,-108 H 19.99983 C 14.45987,-108 10,-103.54005 10,-98 v 5 h 4.99992 v -5 c -10e-6,-2.77003 2.22993,-5 4.99991,-5 H 25 Z"
           id="path4011"
           inkscape:connector-curvature="0" />
        <path
           style="fill:#d40000;stroke-width:0.19904983"
           d="m 15,-88 h -5 v 355 h 5 z"
           id="path3757"
           inkscape:connector-curvature="0" />
        <path
           style="fill:#d40000;stroke-width:0.11572859"
           d="m 285,277 c 0,5.54005 -4.45994,10 -10,10 h -5 v -5 h 5 c 2.77003,0 5,-2.22997 5,-5 v -5 h 5 z"
           id="path4021-6"
           inkscape:connector-curvature="0" />
        <path
           style="fill:#d40000;stroke-width:0.2508924"
           d="M 265,287 H 30 v -5 h 235 z"
           id="path4015-2"
           inkscape:connector-curvature="0" />
        <path
           style="fill:#d40000;stroke-width:0.11572761"
           d="m 25.00001,287 h -5.00017 c -5.53996,0 -9.99983,-4.45995 -9.99983,-10 v -5 h 4.99992 v 5 c -1e-5,2.77003 2.22993,5 4.99991,5 h 5.00017 z"
           id="path4011-9"
           inkscape:connector-curvature="0" />
      </g>
      <g
         id="text884"
         style="font-style:normal;font-variant:normal;font-weight:normal;font-stretch:normal;font-size:31.75px;line-height:1.25;font-family:PreussischeIV44Ausgabe3;-inkscape-font-specification:PreussischeIV44Ausgabe3;text-align:center;letter-spacing:0px;word-spacing:0px;text-anchor:middle;fill:#000000;fill-opacity:1;stroke:none;stroke-width:0.26458332"
         aria-label="LÖSCHWASSERZISTERNE
">
        <path
           id="path1706"
           style="font-size:42.33333206px;text-align:center;text-anchor:middle;stroke-width:0.26458332"
           d="m -13.924995,15.824251 v -26.669999 h -4.445 v 31.114999 h 13.3349995 v -4.445 z"
           inkscape:connector-curvature="0" />
        <path
           id="path1708"
           style="font-size:42.33333206px;text-align:center;text-anchor:middle;stroke-width:0.26458332"
           d="m 5.6396192,-6.4007483 h 0.042333 c 1.1853333,0 2.1589999,0.8466666 2.2436666,2.2436666 H 7.8409525 V 4.732918 c 0,0.4656667 0.042333,0.9736666 0.042333,1.524 v 1.6933332 c 0,0.5926667 0.042333,1.3546667 0.042333,2.2859998 l -0.042333,3.344333 c 0,1.227667 -0.9313333,2.243667 -2.2436666,2.243667 -1.2699999,0 -2.2859999,-0.931333 -2.2436666,-2.201333 l 0.042333,-3.344333 c 0,-0.9313338 -0.042333,-1.6933338 -0.042333,-2.3283338 V 1.5155848 l 0.042333,-5.6726665 c 0,-1.143 0.8466666,-2.2436666 2.2013339,-2.2436666 z M 12.328286,13.580584 V -4.1570817 c 0,-3.6829999 -3.0056669,-6.6886663 -6.6886668,-6.6886663 -3.6406665,0 -6.6463331,3.090333 -6.6463331,6.6886663 V 13.622918 c 0,3.598333 2.8363333,6.646333 6.6463331,6.646333 3.6406666,0 6.6886668,-3.048 6.6886668,-6.688667 z m 0,-26.627665 v -4.487334 H 7.8832858 v 4.487334 z m -8.89,0 v -4.487334 h -4.4449999 v 4.487334 z"
           inkscape:connector-curvature="0" />
        <path
           id="path1710"
           style="font-size:42.33333206px;text-align:center;text-anchor:middle;stroke-width:0.26458332"
           d="m 23.581674,-6.4007483 h 0.04233 c 1.185334,0 2.159,0.8466666 2.243667,2.2436666 h -0.08467 c 0,1.6509999 0.08467,0.5503333 0.08467,2.2013332 h 4.402666 v -2.2013332 c 0,-3.6829999 -3.005666,-6.6886663 -6.688666,-6.6886663 -3.640667,0 -6.646333,3.090333 -6.646333,6.6886663 v 4.4026665 c 0,3.8523332 3.005666,6.6886665 6.646333,6.6886665 h 0.04233 c 1.185334,0 2.243667,0.9736666 2.243667,2.2013332 h -0.08467 c 0,3.3019995 0.08467,1.2276665 0.08467,4.4873335 0,1.227666 -1.016,2.201333 -2.243667,2.201333 h -0.04233 c -1.27,0 -2.243667,-0.931333 -2.243667,-2.201333 h 0.04233 c 0,-0.719667 0,-1.058334 -0.04233,-1.100667 v -1.143 h -4.402666 v 2.243667 c 0,3.598333 2.836333,6.646333 6.646333,6.646333 3.81,0 6.688666,-3.090333 6.688666,-6.646333 V 9.1355845 c 0,-3.5983332 -3.090333,-6.6463331 -6.688666,-6.6463331 -1.27,0 -2.243667,-0.9736666 -2.243667,-2.2436666 h 0.04233 c 0,-1.397 0,-2.1166666 -0.04233,-2.2013333 l 0.04233,-2.2013332 c 0,-1.143 0.846666,-2.2436666 2.201333,-2.2436666 z"
           inkscape:connector-curvature="0" />
        <path
           id="path1712"
           style="font-size:42.33333206px;text-align:center;text-anchor:middle;stroke-width:0.26458332"
           d="m 40.987289,15.824251 h -0.04233 c -1.227666,0 -2.201333,-0.973667 -2.201333,-2.201333 l -0.169333,-0.169334 h 0.127 l 0.04233,-17.6106657 c 0,-1.27 0.931333,-2.2436666 2.201333,-2.2436666 h 0.04233 c 1.143,0 2.243666,0.8889999 2.243666,2.2436666 l -0.04233,2.2013332 h 4.445 v -2.2013332 c 0,-3.6829999 -3.005667,-6.6886663 -6.688667,-6.6886663 -3.556,0 -6.646333,2.8786664 -6.646333,6.6886663 V 13.453584 h 0.169333 l -0.169333,0.169334 c 0,3.640666 3.005667,6.646333 6.646333,6.646333 3.81,0 6.688667,-3.090333 6.688667,-6.646333 v -2.243667 h -4.445 l 0.04233,2.243667 c 0,1.227666 -1.016,2.201333 -2.243666,2.201333 z"
           inkscape:connector-curvature="0" />
        <path
           id="path1714"
           style="font-size:42.33333206px;text-align:center;text-anchor:middle;stroke-width:0.26458332"
           d="M 56.27227,2.4892514 V -10.845748 h -4.445 v 31.114999 h 4.445 V 6.9342513 h 4.445 V 20.269251 h 4.445 v -31.114999 h -4.445 V 2.4892514 Z"
           inkscape:connector-curvature="0" />
        <path
           id="path1716"
           style="font-size:42.33333206px;text-align:center;text-anchor:middle;stroke-width:0.26458332"
           d="m 77.268278,7.7809179 -3.302,-18.6266659 h -4.445 l 5.545667,31.114999 h 4.445 l 3.344333,-18.6689996 3.302,18.6689996 h 4.487333 l 5.545667,-31.114999 h -4.445 l -3.302,18.6266659 -3.386667,-18.6266659 h -4.445 z"
           inkscape:connector-curvature="0" />
        <path
           id="path1718"
           style="font-size:42.33333206px;text-align:center;text-anchor:middle;stroke-width:0.26458332"
           d="m 101.63376,-10.845748 h -0.0847 l -6.561663,31.114999 h 4.445 l 1.862663,-8.89 h 5.08 l 1.86267,8.89 h 4.445 l -6.56167,-31.114999 z m 2.20133,10.32933283 2.286,7.45066647 h -3.89466 z"
           inkscape:connector-curvature="0" />
        <path
           id="path1720"
           style="font-size:42.33333206px;text-align:center;text-anchor:middle;stroke-width:0.26458332"
           d="m 122.22165,-6.4007483 h 0.0423 c 1.18534,0 2.159,0.8466666 2.24367,2.2436666 h -0.0847 c 0,1.6509999 0.0847,0.5503333 0.0847,2.2013332 h 4.40267 v -2.2013332 c 0,-3.6829999 -3.00567,-6.6886663 -6.68867,-6.6886663 -3.64067,0 -6.64633,3.090333 -6.64633,6.6886663 v 4.4026665 c 0,3.8523332 3.00566,6.6886665 6.64633,6.6886665 h 0.0423 c 1.18534,0 2.24367,0.9736666 2.24367,2.2013332 h -0.0847 c 0,3.3019995 0.0847,1.2276665 0.0847,4.4873335 0,1.227666 -1.016,2.201333 -2.24367,2.201333 h -0.0423 c -1.27,0 -2.24367,-0.931333 -2.24367,-2.201333 h 0.0423 c 0,-0.719667 0,-1.058334 -0.0423,-1.100667 v -1.143 h -4.40266 v 2.243667 c 0,3.598333 2.83633,6.646333 6.64633,6.646333 3.81,0 6.68867,-3.090333 6.68867,-6.646333 V 9.1355845 c 0,-3.5983332 -3.09034,-6.6463331 -6.68867,-6.6463331 -1.27,0 -2.24367,-0.9736666 -2.24367,-2.2436666 h 0.0423 c 0,-1.397 0,-2.1166666 -0.0423,-2.2013333 l 0.0423,-2.2013332 c 0,-1.143 0.84666,-2.2436666 2.20133,-2.2436666 z"
           inkscape:connector-curvature="0" />
        <path
           id="path1722"
           style="font-size:42.33333206px;text-align:center;text-anchor:middle;stroke-width:0.26458332"
           d="m 139.58493,-6.4007483 h 0.0423 c 1.18533,0 2.159,0.8466666 2.24366,2.2436666 h -0.0847 c 0,1.6509999 0.0847,0.5503333 0.0847,2.2013332 h 4.40267 v -2.2013332 c 0,-3.6829999 -3.00567,-6.6886663 -6.68867,-6.6886663 -3.64066,0 -6.64633,3.090333 -6.64633,6.6886663 v 4.4026665 c 0,3.8523332 3.00567,6.6886665 6.64633,6.6886665 h 0.0423 c 1.18533,0 2.24366,0.9736666 2.24366,2.2013332 h -0.0847 c 0,3.3019995 0.0847,1.2276665 0.0847,4.4873335 0,1.227666 -1.016,2.201333 -2.24366,2.201333 h -0.0423 c -1.27,0 -2.24366,-0.931333 -2.24366,-2.201333 h 0.0423 c 0,-0.719667 0,-1.058334 -0.0423,-1.100667 v -1.143 h -4.40267 v 2.243667 c 0,3.598333 2.83633,6.646333 6.64633,6.646333 3.81,0 6.68867,-3.090333 6.68867,-6.646333 V 9.1355845 c 0,-3.5983332 -3.09034,-6.6463331 -6.68867,-6.6463331 -1.27,0 -2.24366,-0.9736666 -2.24366,-2.2436666 h 0.0423 c 0,-1.397 0,-2.1166666 -0.0423,-2.2013333 l 0.0423,-2.2013332 c 0,-1.143 0.84667,-2.2436666 2.20133,-2.2436666 z"
           inkscape:connector-curvature="0" />
        <path
           id="path1724"
           style="font-size:42.33333206px;text-align:center;text-anchor:middle;stroke-width:0.26458332"
           d="m 154.70455,-10.845748 h -4.40267 v 31.114999 h 13.335 v -4.445 h -8.93233 V 6.9342513 h 4.48733 V 2.4892514 h -4.48733 v -8.8899997 h 8.93233 v -4.4449997 z"
           inkscape:connector-curvature="0" />
        <path
           id="path1726"
           style="font-size:42.33333206px;text-align:center;text-anchor:middle;stroke-width:0.26458332"
           d="m 181.49625,0.2455848 v -4.4026665 c 0,-3.6829999 -3.00566,-6.6886663 -6.68866,-6.6886663 h -6.64634 v 31.114999 h 4.445 V 6.9342513 h 2.24367 c 1.18533,0 2.24367,0.9736666 2.24367,2.2013332 V 20.269251 h 4.40266 V 9.1355845 c 0,-1.6509999 -0.55033,-3.0903332 -1.69333,-4.4026665 1.143,-1.3123333 1.69333,-2.7939999 1.69333,-4.4873332 z m -4.40266,0 c 0,1.2276666 -0.97367,2.2436666 -2.24367,2.2436666 h -2.24367 c -0.0847,-1.0583333 -0.0423,-2.2436666 -0.0423,-3.6406666 v -5.2493331 h 2.286 c 1.18533,0 2.159,0.8466666 2.24367,2.2436666 h -0.0847 v 1.5239999 c 0,1.016 0.0847,0.3386667 0.0847,2.8786666 z"
           inkscape:connector-curvature="0" />
        <path
           id="path1728"
           style="font-size:42.33333206px;text-align:center;text-anchor:middle;stroke-width:0.26458332"
           d="m 199.19025,15.824251 h -8.89 l 8.89,-22.2249993 v -4.4449997 h -13.33499 v 4.4449997 h 8.84766 l -8.84766,22.2249993 v 4.445 h 13.33499 z"
           inkscape:connector-curvature="0" />
        <path
           id="path1730"
           style="font-size:42.33333206px;text-align:center;text-anchor:middle;stroke-width:0.26458332"
           d="m 207.49818,-10.845748 h -4.445 v 31.114999 h 4.445 z"
           inkscape:connector-curvature="0" />
        <path
           id="path1732"
           style="font-size:42.33333206px;text-align:center;text-anchor:middle;stroke-width:0.26458332"
           d="m 218.21579,-6.4007483 h 0.0423 c 1.18534,0 2.159,0.8466666 2.24367,2.2436666 h -0.0847 c 0,1.6509999 0.0847,0.5503333 0.0847,2.2013332 h 4.40267 v -2.2013332 c 0,-3.6829999 -3.00567,-6.6886663 -6.68867,-6.6886663 -3.64067,0 -6.64633,3.090333 -6.64633,6.6886663 v 4.4026665 c 0,3.8523332 3.00566,6.6886665 6.64633,6.6886665 h 0.0423 c 1.18534,0 2.24367,0.9736666 2.24367,2.2013332 h -0.0847 c 0,3.3019995 0.0847,1.2276665 0.0847,4.4873335 0,1.227666 -1.016,2.201333 -2.24367,2.201333 h -0.0423 c -1.27,0 -2.24367,-0.931333 -2.24367,-2.201333 h 0.0423 c 0,-0.719667 0,-1.058334 -0.0423,-1.100667 v -1.143 h -4.40266 v 2.243667 c 0,3.598333 2.83633,6.646333 6.64633,6.646333 3.81,0 6.68867,-3.090333 6.68867,-6.646333 V 9.1355845 c 0,-3.5983332 -3.09034,-6.6463331 -6.68867,-6.6463331 -1.27,0 -2.24367,-0.9736666 -2.24367,-2.2436666 h 0.0423 c 0,-1.397 0,-2.1166666 -0.0423,-2.2013333 l 0.0423,-2.2013332 c 0,-1.143 0.84666,-2.2436666 2.20133,-2.2436666 z"
           inkscape:connector-curvature="0" />
        <path
           id="path1734"
           style="font-size:42.33333206px;text-align:center;text-anchor:middle;stroke-width:0.26458332"
           d="m 242.26774,-6.4007483 v -4.4449997 h -13.335 v 4.4449997 h 4.445 V 20.269251 h 4.445 V -6.4007483 Z"
           inkscape:connector-curvature="0" />
        <path
           id="path1736"
           style="font-size:42.33333206px;text-align:center;text-anchor:middle;stroke-width:0.26458332"
           d="m 251.11208,-10.845748 h -4.40267 v 31.114999 h 13.335 v -4.445 h -8.93233 V 6.9342513 h 4.48733 V 2.4892514 h -4.48733 v -8.8899997 h 8.93233 v -4.4449997 z"
           inkscape:connector-curvature="0" />
        <path
           id="path1738"
           style="font-size:42.33333206px;text-align:center;text-anchor:middle;stroke-width:0.26458332"
           d="m 277.90379,0.2455848 v -4.4026665 c 0,-3.6829999 -3.00567,-6.6886663 -6.68867,-6.6886663 h -6.64633 v 31.114999 h 4.445 V 6.9342513 h 2.24366 c 1.18534,0 2.24367,0.9736666 2.24367,2.2013332 V 20.269251 h 4.40267 V 9.1355845 c 0,-1.6509999 -0.55034,-3.0903332 -1.69334,-4.4026665 1.143,-1.3123333 1.69334,-2.7939999 1.69334,-4.4873332 z m -4.40267,0 c 0,1.2276666 -0.97367,2.2436666 -2.24367,2.2436666 h -2.24366 c -0.0847,-1.0583333 -0.0423,-2.2436666 -0.0423,-3.6406666 v -5.2493331 h 2.286 c 1.18534,0 2.159,0.8466666 2.24367,2.2436666 h -0.0847 v 1.5239999 c 0,1.016 0.0847,0.3386667 0.0847,2.8786666 z"
           inkscape:connector-curvature="0" />
        <path
           id="path1740"
           style="font-size:42.33333206px;text-align:center;text-anchor:middle;stroke-width:0.26458332"
           d="m 291.15282,4.7752513 -4.445,-15.6209993 h -4.445 v 31.114999 h 4.445 V 4.7752513 l 4.445,15.4939997 h 4.445 v -31.114999 h -4.445 V 4.6482513 Z"
           inkscape:connector-curvature="0" />
        <path
           id="path1742"
           style="font-size:42.33333206px;text-align:center;text-anchor:middle;stroke-width:0.26458332"
           d="m 304.85558,-10.845748 h -4.40267 v 31.114999 h 13.335 v -4.445 h -8.93233 V 6.9342513 h 4.48733 V 2.4892514 h -4.48733 v -8.8899997 h 8.93233 v -4.4449997 z"
           inkscape:connector-curvature="0" />
      </g>
      <g
         id="text1085"
         style="font-style:normal;font-variant:normal;font-weight:normal;font-stretch:normal;font-size:17.63888741px;line-height:1.25;font-family:PreussischeIV44Ausgabe3;-inkscape-font-specification:PreussischeIV44Ausgabe3;letter-spacing:0px;word-spacing:0px;fill:#000000;fill-opacity:1;stroke:none;stroke-width:0.26458332"
         aria-label="Die Nutzung zu Sport-und Freizeitzwecken
ist mit Risiken verbunden 
und unterliegt Beschränkungen">
        <path
           id="path1535"
           style="font-size:22.57777786px;text-align:center;text-anchor:middle;stroke-width:0.26458332"
           d="m -17.554441,66.130134 h -1.2192 V 54.276801 h 1.2192 c 0.632178,0 1.196622,0.474133 1.196622,1.196622 l -0.02258,9.482667 h 0.02258 c 0,0.654756 -0.541867,1.174044 -1.196622,1.174044 z m -3.567289,-14.224 v 16.594667 h 3.544711 c 2.032,0 3.567289,-1.648178 3.567289,-3.544711 v -9.482667 c 0,-1.761066 -1.490133,-3.567289 -3.544711,-3.567289 h -1.2192 -1.151467 z"
           inkscape:connector-curvature="0" />
        <path
           id="path1537"
           style="font-size:22.57777786px;text-align:center;text-anchor:middle;stroke-width:0.26458332"
           d="M -9.4024526,68.500801 V 56.647468 h -2.3706664 v 11.853333 z m 0,-13.027378 v -2.393244 h -2.3706664 v 2.393244 z"
           inkscape:connector-curvature="0" />
        <path
           id="path1539"
           style="font-size:22.57777786px;text-align:center;text-anchor:middle;stroke-width:0.26458332"
           d="m -3.2228449,66.130134 h -0.022578 c -0.6773333,0 -1.1966222,-0.496711 -1.1966222,-1.174044 v -1.196622 h 4.76391113 v -3.544711 c 0,-1.964267 -1.60302223,-3.567289 -3.56728893,-3.567289 -1.9416889,0 -3.5447111,1.512711 -3.5447111,3.567289 v 4.741333 c 0,1.919111 1.5127111,3.544711 3.5447111,3.544711 2.032,0 3.56728893,-1.648178 3.56728893,-3.544711 H -2.0262227 c 0,0.654756 -0.5418666,1.174044 -1.1966222,1.174044 z m 1.1966222,-5.915377 v 1.174044 h -2.4158222 v -1.174044 c 0,-0.677334 0.5192889,-1.196623 1.1966222,-1.196623 h 0.022578 c 0.6321778,0 1.1966222,0.474134 1.196622,1.196623 z"
           inkscape:connector-curvature="0" />
        <path
           id="path1541"
           style="font-size:22.57777786px;text-align:center;text-anchor:middle;stroke-width:0.26458332"
           d="m 12.679673,60.237334 -2.370666,-8.3312 H 7.9383399 v 16.594667 h 2.3706671 v -8.263467 l 2.370666,8.263467 H 15.05034 V 51.906134 h -2.370667 v 8.263467 z"
           inkscape:connector-curvature="0" />
        <path
           id="path1543"
           style="font-size:22.57777786px;text-align:center;text-anchor:middle;stroke-width:0.26458332"
           d="m 22.40364,66.130134 v 2.370667 h 2.348089 V 56.647468 h -2.393244 l 0.02258,8.308622 c 0,0.677333 -0.519289,1.174044 -1.196623,1.174044 -0.654755,0 -1.174044,-0.519288 -1.174044,-1.174044 v -8.308622 h -2.370667 v 9.482666 c 0,1.354667 1.106311,2.370667 2.370667,2.370667 1.286933,0 2.370667,-1.083733 2.370667,-2.370667 z"
           inkscape:connector-curvature="0" />
        <path
           id="path1545"
           style="font-size:22.57777786px;text-align:center;text-anchor:middle;stroke-width:0.26458332"
           d="m 28.140863,54.276801 v 2.370667 h -1.196622 v 2.370666 h 1.196622 v 9.482667 h 2.348089 v -9.482667 h 1.196623 v -2.370666 h -1.196623 v -4.741334 z"
           inkscape:connector-curvature="0" />
        <path
           id="path1547"
           style="font-size:22.57777786px;text-align:center;text-anchor:middle;stroke-width:0.26458332"
           d="m 40.450338,66.130134 h -4.741334 l 4.741334,-7.112 v -2.370666 h -7.112 v 2.370666 h 4.718755 l -4.718755,7.112 v 2.370667 h 7.112 z"
           inkscape:connector-curvature="0" />
        <path
           id="path1549"
           style="font-size:22.57777786px;text-align:center;text-anchor:middle;stroke-width:0.26458332"
           d="m 47.318569,66.130134 v 2.370667 h 2.348089 V 56.647468 h -2.393245 l 0.02258,8.308622 c 0,0.677333 -0.519289,1.174044 -1.196622,1.174044 -0.654756,0 -1.174045,-0.519288 -1.174045,-1.174044 V 56.647468 H 42.55466 v 9.482666 c 0,1.354667 1.106311,2.370667 2.370666,2.370667 1.286934,0 2.370667,-1.083733 2.370667,-2.370667 z"
           inkscape:connector-curvature="0" />
        <path
           id="path1551"
           style="font-size:22.57777786px;text-align:center;text-anchor:middle;stroke-width:0.26458332"
           d="m 54.207262,59.018134 v -2.370666 h -2.348089 v 11.853333 h 2.370667 v -8.286044 c 0,-0.677334 0.496711,-1.196623 1.174045,-1.196623 0.677333,0 1.174044,0.519289 1.174044,1.196623 l 0.02258,8.286044 h 2.370666 v -9.482667 c 0,-1.286933 -1.083733,-2.370666 -2.370666,-2.370666 -1.354667,0 -2.370667,1.106311 -2.370667,2.370666 z"
           inkscape:connector-curvature="0" />
        <path
           id="path1553"
           style="font-size:22.57777786px;text-align:center;text-anchor:middle;stroke-width:0.26458332"
           d="m 64.907366,70.871468 h -0.02258 c -0.654755,0 -1.196622,-0.519289 -1.196622,-1.196622 h -2.348089 c 0,1.919111 1.512711,3.544711 3.544711,3.544711 1.8288,0 3.567289,-1.535289 3.567289,-3.544711 V 64.95609 59.018134 56.647468 h -2.348089 l -0.02258,2.370666 c 0,-1.241777 -1.061155,-2.370666 -2.370666,-2.370666 -1.354667,0 -2.370667,1.106311 -2.370667,2.370666 v 5.937956 1.174044 c 0,1.354667 1.106311,2.370667 2.370667,2.370667 1.286933,0 2.370666,-1.083733 2.370666,-2.370667 l 0.02258,3.544712 c -0.04515,0.654755 -0.519289,1.196622 -1.196622,1.196622 z M 66.08141,60.214757 v 4.741333 c 0,0.677333 -0.519288,1.174044 -1.196622,1.174044 -0.654755,0 -1.174044,-0.519288 -1.174044,-1.174044 v -4.741333 c 0,-0.677334 0.496711,-1.196623 1.174044,-1.196623 0.677334,0 1.196622,0.519289 1.196622,1.196623 z"
           inkscape:connector-curvature="0" />
        <path
           id="path1555"
           style="font-size:22.57777786px;text-align:center;text-anchor:middle;stroke-width:0.26458332"
           d="m 83.224645,66.130134 h -4.741333 l 4.741333,-7.112 v -2.370666 h -7.112 v 2.370666 H 80.8314 l -4.718755,7.112 v 2.370667 h 7.112 z"
           inkscape:connector-curvature="0" />
        <path
           id="path1557"
           style="font-size:22.57777786px;text-align:center;text-anchor:middle;stroke-width:0.26458332"
           d="m 90.092872,66.130134 v 2.370667 h 2.348089 V 56.647468 h -2.393244 l 0.02258,8.308622 c 0,0.677333 -0.519288,1.174044 -1.196622,1.174044 -0.654755,0 -1.174044,-0.519288 -1.174044,-1.174044 v -8.308622 h -2.370667 v 9.482666 c 0,1.354667 1.106311,2.370667 2.370667,2.370667 1.286933,0 2.370666,-1.083733 2.370666,-2.370667 z"
           inkscape:connector-curvature="0" />
        <path
           id="path1559"
           style="font-size:22.57777786px;text-align:center;text-anchor:middle;stroke-width:0.26458332"
           d="m 103.42576,54.276801 h 0.0226 c 0.63217,0 1.15146,0.451556 1.19662,1.196622 h -0.0452 c 0,0.880534 0.0452,0.293511 0.0452,1.174045 h 2.34809 v -1.174045 c 0,-1.964266 -1.60303,-3.567289 -3.56729,-3.567289 -1.94169,0 -3.544713,1.648178 -3.544713,3.567289 v 2.348089 c 0,2.054578 1.603023,3.567289 3.544713,3.567289 h 0.0226 c 0.63217,0 1.19662,0.519289 1.19662,1.174045 h -0.0452 c 0,1.761066 0.0452,0.654755 0.0452,2.393244 0,0.654756 -0.54187,1.174044 -1.19662,1.174044 h -0.0226 c -0.67734,0 -1.19662,-0.496711 -1.19662,-1.174044 h 0.0226 c 0,-0.383822 0,-0.564444 -0.0226,-0.587022 v -0.6096 h -2.348093 v 1.196622 c 0,1.919111 1.512713,3.544711 3.544713,3.544711 2.032,0 3.56729,-1.648178 3.56729,-3.544711 v -2.393244 c 0,-1.919112 -1.64818,-3.544712 -3.56729,-3.544712 -0.67734,0 -1.19662,-0.519289 -1.19662,-1.196622 h 0.0226 c 0,-0.745067 0,-1.128889 -0.0226,-1.174044 l 0.0226,-1.174045 c 0,-0.6096 0.45156,-1.196622 1.17405,-1.196622 z"
           inkscape:connector-curvature="0" />
        <path
           id="path1561"
           style="font-size:22.57777786px;text-align:center;text-anchor:middle;stroke-width:0.26458332"
           d="m 109.14147,56.647468 v 3.567289 8.286044 4.718756 h 2.37067 v -7.089423 c 0,1.354667 1.10631,2.370667 2.37066,2.370667 1.17405,0 2.37067,-0.993422 2.37067,-2.370667 v -5.915377 -1.196623 c 0,-1.286933 -1.08373,-2.370666 -2.37067,-2.370666 -1.35466,0 -2.39324,1.106311 -2.37066,2.370666 l -0.0226,-2.370666 z m 2.37067,8.308622 -0.0226,-4.741333 c 0.0226,-0.677334 0.51929,-1.196623 1.19662,-1.196623 0.67733,0 1.17404,0.519289 1.17404,1.196623 v 4.741333 c 0,0.654756 -0.51928,1.174044 -1.17404,1.174044 -0.65476,0 -1.17404,-0.519288 -1.17404,-1.174044 z"
           inkscape:connector-curvature="0" />
        <path
           id="path1563"
           style="font-size:22.57777786px;text-align:center;text-anchor:middle;stroke-width:0.26458332"
           d="m 120.83816,64.95609 v -4.741333 c 0,-0.677334 0.51929,-1.196623 1.19662,-1.196623 h 0.0226 c 0.63218,0 1.19662,0.474134 1.19662,1.196623 v 1.174044 2.8448 0.722489 c 0,0.654756 -0.54186,1.174044 -1.19662,1.174044 h -0.0226 c -0.67733,0 -1.19662,-0.496711 -1.19662,-1.174044 z m -2.34809,-3.612444 v 3.612444 c 0,1.919111 1.51271,3.544711 3.54471,3.544711 2.032,0 3.56729,-1.648178 3.56729,-3.544711 v -4.741333 c 0,-1.964267 -1.60302,-3.567289 -3.56729,-3.567289 -1.94169,0 -3.54471,1.512711 -3.54471,3.567289 z"
           inkscape:connector-curvature="0" />
        <path
           id="path1565"
           style="font-size:22.57777786px;text-align:center;text-anchor:middle;stroke-width:0.26458332"
           d="m 130.14268,59.018134 v -2.370666 h -2.34809 v 11.853333 h 2.37067 v -8.286044 c 0,-0.677334 0.49671,-1.196623 1.17404,-1.196623 0.67734,0 1.17405,0.519289 1.17405,1.196623 h 2.39324 v -1.196623 c 0,-1.286933 -1.08373,-2.370666 -2.37067,-2.370666 -1.35466,0 -2.37066,1.106311 -2.37066,2.370666 z"
           inkscape:connector-curvature="0" />
        <path
           id="path1567"
           style="font-size:22.57777786px;text-align:center;text-anchor:middle;stroke-width:0.26458332"
           d="m 138.16344,54.276801 v 2.370667 h -1.19662 v 2.370666 h 1.19662 v 9.482667 h 2.34809 v -9.482667 h 1.19662 v -2.370666 h -1.19662 v -4.741334 z"
           inkscape:connector-curvature="0" />
        <path
           id="path1569"
           style="font-size:22.57777786px;text-align:center;text-anchor:middle;stroke-width:0.26458332"
           d="m 150.47291,61.388801 h -7.112 v 2.370667 h 7.112 z"
           inkscape:connector-curvature="0" />
        <path
           id="path1571"
           style="font-size:22.57777786px;text-align:center;text-anchor:middle;stroke-width:0.26458332"
           d="m 157.8703,66.130134 v 2.370667 h 2.34809 V 56.647468 h -2.39325 l 0.0226,8.308622 c 0,0.677333 -0.51929,1.174044 -1.19662,1.174044 -0.65476,0 -1.17404,-0.519288 -1.17404,-1.174044 v -8.308622 h -2.37067 v 9.482666 c 0,1.354667 1.10631,2.370667 2.37067,2.370667 1.28693,0 2.37066,-1.083733 2.37066,-2.370667 z"
           inkscape:connector-curvature="0" />
        <path
           id="path1573"
           style="font-size:22.57777786px;text-align:center;text-anchor:middle;stroke-width:0.26458332"
           d="m 164.759,59.018134 v -2.370666 h -2.34809 v 11.853333 h 2.37067 v -8.286044 c 0,-0.677334 0.49671,-1.196623 1.17404,-1.196623 0.67733,0 1.17404,0.519289 1.17404,1.196623 l 0.0226,8.286044 h 2.37067 v -9.482667 c 0,-1.286933 -1.08373,-2.370666 -2.37067,-2.370666 -1.35466,0 -2.37066,1.106311 -2.37066,2.370666 z"
           inkscape:connector-curvature="0" />
        <path
           id="path1575"
           style="font-size:22.57777786px;text-align:center;text-anchor:middle;stroke-width:0.26458332"
           d="M 179.0038,68.500801 V 64.95609 56.647468 51.906134 h -2.37066 v 7.112 c 0,-1.241777 -1.03858,-2.370666 -2.37067,-2.370666 -1.35467,0 -2.37067,1.106311 -2.37067,2.370666 v 5.937956 1.174044 c 0,1.354667 1.10632,2.370667 2.37067,2.370667 1.26436,0 2.37067,-1.083733 2.37067,-2.370667 l 0.0226,2.370667 z m -2.37066,-8.286044 0.0226,4.741333 c -0.0226,0.677333 -0.54187,1.174044 -1.2192,1.174044 -0.65476,0 -1.17405,-0.519288 -1.17405,-1.174044 v -4.741333 c 0,-0.677334 0.49671,-1.196623 1.17405,-1.196623 0.67733,0 1.19662,0.519289 1.19662,1.196623 z"
           inkscape:connector-curvature="0" />
        <path
           id="path1577"
           style="font-size:22.57777786px;text-align:center;text-anchor:middle;stroke-width:0.26458332"
           d="m 188.79199,51.906134 h -2.34809 v 16.594667 h 2.37066 V 64.95609 c 0,-1.151467 -0.0226,-2.325511 -0.0226,-3.567289 h 2.39324 v -2.370667 h -2.39324 v -4.741333 h 4.76391 v -2.370667 z"
           inkscape:connector-curvature="0" />
        <path
           id="path1579"
           style="font-size:22.57777786px;text-align:center;text-anchor:middle;stroke-width:0.26458332"
           d="m 198.22878,59.018134 v -2.370666 h -2.34808 v 11.853333 h 2.37066 v -8.286044 c 0,-0.677334 0.49671,-1.196623 1.17405,-1.196623 0.67733,0 1.17404,0.519289 1.17404,1.196623 h 2.39325 v -1.196623 c 0,-1.286933 -1.08374,-2.370666 -2.37067,-2.370666 -1.35467,0 -2.37067,1.106311 -2.37067,2.370666 z"
           inkscape:connector-curvature="0" />
        <path
           id="path1581"
           style="font-size:22.57777786px;text-align:center;text-anchor:middle;stroke-width:0.26458332"
           d="m 208.62021,66.130134 h -0.0226 c -0.67733,0 -1.19662,-0.496711 -1.19662,-1.174044 v -1.196622 h 4.76391 v -3.544711 c 0,-1.964267 -1.60302,-3.567289 -3.56729,-3.567289 -1.94169,0 -3.54471,1.512711 -3.54471,3.567289 v 4.741333 c 0,1.919111 1.51271,3.544711 3.54471,3.544711 2.032,0 3.56729,-1.648178 3.56729,-3.544711 h -2.34809 c 0,0.654756 -0.54186,1.174044 -1.19662,1.174044 z m 1.19662,-5.915377 v 1.174044 h -2.41582 v -1.174044 c 0,-0.677334 0.51929,-1.196623 1.19662,-1.196623 h 0.0226 c 0.63218,0 1.19662,0.474134 1.19662,1.196623 z"
           inkscape:connector-curvature="0" />
        <path
           id="path1583"
           style="font-size:22.57777786px;text-align:center;text-anchor:middle;stroke-width:0.26458332"
           d="M 216.90448,68.500801 V 56.647468 h -2.37066 v 11.853333 z m 0,-13.027378 v -2.393244 h -2.37066 v 2.393244 z"
           inkscape:connector-curvature="0" />
        <path
           id="path1585"
           style="font-size:22.57777786px;text-align:center;text-anchor:middle;stroke-width:0.26458332"
           d="m 226.6288,66.130134 h -4.74133 l 4.74133,-7.112 v -2.370666 h -7.112 v 2.370666 h 4.71876 l -4.71876,7.112 v 2.370667 h 7.112 z"
           inkscape:connector-curvature="0" />
        <path
           id="path1587"
           style="font-size:22.57777786px;text-align:center;text-anchor:middle;stroke-width:0.26458332"
           d="m 232.30042,66.130134 h -0.0226 c -0.67733,0 -1.19662,-0.496711 -1.19662,-1.174044 v -1.196622 h 4.76391 v -3.544711 c 0,-1.964267 -1.60302,-3.567289 -3.56729,-3.567289 -1.94169,0 -3.54471,1.512711 -3.54471,3.567289 v 4.741333 c 0,1.919111 1.51271,3.544711 3.54471,3.544711 2.032,0 3.56729,-1.648178 3.56729,-3.544711 h -2.34809 c 0,0.654756 -0.54187,1.174044 -1.19662,1.174044 z m 1.19662,-5.915377 v 1.174044 h -2.41582 v -1.174044 c 0,-0.677334 0.51929,-1.196623 1.19662,-1.196623 h 0.0226 c 0.63217,0 1.19662,0.474134 1.19662,1.196623 z"
           inkscape:connector-curvature="0" />
        <path
           id="path1589"
           style="font-size:22.57777786px;text-align:center;text-anchor:middle;stroke-width:0.26458332"
           d="M 240.58469,68.500801 V 56.647468 h -2.37067 v 11.853333 z m 0,-13.027378 v -2.393244 h -2.37067 v 2.393244 z"
           inkscape:connector-curvature="0" />
        <path
           id="path1591"
           style="font-size:22.57777786px;text-align:center;text-anchor:middle;stroke-width:0.26458332"
           d="m 244.39365,54.276801 v 2.370667 h -1.19662 v 2.370666 h 1.19662 v 9.482667 h 2.34809 v -9.482667 h 1.19662 v -2.370666 h -1.19662 v -4.741334 z"
           inkscape:connector-curvature="0" />
        <path
           id="path1593"
           style="font-size:22.57777786px;text-align:center;text-anchor:middle;stroke-width:0.26458332"
           d="m 256.70313,66.130134 h -4.74133 l 4.74133,-7.112 v -2.370666 h -7.112 v 2.370666 h 4.71876 l -4.71876,7.112 v 2.370667 h 7.112 z"
           inkscape:connector-curvature="0" />
        <path
           id="path1595"
           style="font-size:22.57777786px;text-align:center;text-anchor:middle;stroke-width:0.26458332"
           d="m 262.35215,62.51769 -1.17404,-5.870222 h -2.37067 l 2.37067,11.7856 -0.0226,0.06773 h 2.37066 0.0452 l -0.0226,-0.06773 1.19662,-5.8928 1.17405,5.960533 h 2.39324 l 2.34809,-11.853333 h -2.37066 l -1.19663,5.870222 -1.17404,-5.870222 h -2.39325 z"
           inkscape:connector-curvature="0" />
        <path
           id="path1597"
           style="font-size:22.57777786px;text-align:center;text-anchor:middle;stroke-width:0.26458332"
           d="m 275.64798,66.130134 h -0.0226 c -0.67733,0 -1.19662,-0.496711 -1.19662,-1.174044 v -1.196622 h 4.76391 v -3.544711 c 0,-1.964267 -1.60302,-3.567289 -3.56729,-3.567289 -1.94168,0 -3.54471,1.512711 -3.54471,3.567289 v 4.741333 c 0,1.919111 1.51271,3.544711 3.54471,3.544711 2.032,0 3.56729,-1.648178 3.56729,-3.544711 h -2.34809 c 0,0.654756 -0.54186,1.174044 -1.19662,1.174044 z m 1.19662,-5.915377 v 1.174044 h -2.41582 v -1.174044 c 0,-0.677334 0.51929,-1.196623 1.19662,-1.196623 h 0.0226 c 0.63218,0 1.19662,0.474134 1.19662,1.196623 z"
           inkscape:connector-curvature="0" />
        <path
           id="path1599"
           style="font-size:22.57777786px;text-align:center;text-anchor:middle;stroke-width:0.26458332"
           d="m 285.12888,66.130134 h -0.0226 c -0.67733,0 -1.19662,-0.496711 -1.19662,-1.174044 v -4.741333 c 0,-0.677334 0.51929,-1.196623 1.19662,-1.196623 h 0.0226 c 0.63218,0 1.19662,0.474134 1.19662,1.196623 h 2.34809 c 0,-1.964267 -1.60302,-3.567289 -3.56729,-3.567289 -1.94169,0 -3.54471,1.512711 -3.54471,3.567289 v 4.741333 c 0,1.919111 1.51271,3.544711 3.54471,3.544711 2.032,0 3.56729,-1.648178 3.56729,-3.544711 h -2.34809 c 0,0.654756 -0.54187,1.174044 -1.19662,1.174044 z"
           inkscape:connector-curvature="0" />
        <path
           id="path1601"
           style="font-size:22.57777786px;text-align:center;text-anchor:middle;stroke-width:0.26458332"
           d="m 293.76593,61.433957 v -9.527823 h -2.37066 v 16.594667 h 2.37066 v -4.809067 l 2.37067,4.809067 h 2.37067 l -2.93511,-5.960533 2.93511,-5.8928 h -2.37067 z"
           inkscape:connector-curvature="0" />
        <path
           id="path1603"
           style="font-size:22.57777786px;text-align:center;text-anchor:middle;stroke-width:0.26458332"
           d="m 303.47333,66.130134 h -0.0226 c -0.67733,0 -1.19662,-0.496711 -1.19662,-1.174044 v -1.196622 h 4.76391 v -3.544711 c 0,-1.964267 -1.60302,-3.567289 -3.56729,-3.567289 -1.94169,0 -3.54471,1.512711 -3.54471,3.567289 v 4.741333 c 0,1.919111 1.51271,3.544711 3.54471,3.544711 2.032,0 3.56729,-1.648178 3.56729,-3.544711 h -2.34809 c 0,0.654756 -0.54186,1.174044 -1.19662,1.174044 z m 1.19662,-5.915377 v 1.174044 h -2.41582 v -1.174044 c 0,-0.677334 0.51929,-1.196623 1.19662,-1.196623 h 0.0226 c 0.63218,0 1.19662,0.474134 1.19662,1.196623 z"
           inkscape:connector-curvature="0" />
        <path
           id="path1605"
           style="font-size:22.57777786px;text-align:center;text-anchor:middle;stroke-width:0.26458332"
           d="m 311.73503,59.018134 v -2.370666 h -2.34809 v 11.853333 h 2.37066 v -8.286044 c 0,-0.677334 0.49671,-1.196623 1.17405,-1.196623 0.67733,0 1.17404,0.519289 1.17404,1.196623 l 0.0226,8.286044 h 2.37067 v -9.482667 c 0,-1.286933 -1.08374,-2.370666 -2.37067,-2.370666 -1.35467,0 -2.37067,1.106311 -2.37067,2.370666 z"
           inkscape:connector-curvature="0" />
        <path
           id="path1607"
           style="font-size:22.57777786px;text-align:center;text-anchor:middle;stroke-width:0.26458332"
           d="M 49.996506,96.723023 V 84.86969 H 47.62584 v 11.853333 z m 0,-13.027377 V 81.302401 H 47.62584 v 2.393245 z"
           inkscape:connector-curvature="0" />
        <path
           id="path1609"
           style="font-size:22.57777786px;text-align:center;text-anchor:middle;stroke-width:0.26458332"
           d="m 56.153537,87.240357 h 0.02258 c 0.632178,0 1.196623,0.474133 1.196623,1.196622 h 2.348089 c 0,-1.964267 -1.603023,-3.567289 -3.567289,-3.567289 -1.919111,0 -3.544711,1.557867 -3.544711,3.544711 v 0.02258 c 0,1.919111 1.512711,3.544711 3.544711,3.544711 h 0.02258 c 0.632178,0 1.196623,0.474133 1.196623,1.196622 0,0.654756 -0.541867,1.174045 -1.196623,1.174045 h -0.02258 c -0.677334,0 -1.196623,-0.496711 -1.196623,-1.174045 h -2.348088 c 0,1.919111 1.512711,3.544711 3.544711,3.544711 2.032,0 3.567289,-1.648177 3.567289,-3.544711 0,-1.964266 -1.603023,-3.567289 -3.567289,-3.567289 -0.654756,0 -1.196623,-0.451555 -1.196623,-1.174044 h 0.02258 c 0,-0.6096 0.474134,-1.196622 1.174045,-1.196622 z"
           inkscape:connector-curvature="0" />
        <path
           id="path1611"
           style="font-size:22.57777786px;text-align:center;text-anchor:middle;stroke-width:0.26458332"
           d="m 62.97767,82.499023 v 2.370667 h -1.196622 v 2.370667 h 1.196622 v 9.482666 h 2.348089 v -9.482666 h 1.196622 V 84.86969 h -1.196622 v -4.741333 z"
           inkscape:connector-curvature="0" />
        <path
           id="path1613"
           style="font-size:22.57777786px;text-align:center;text-anchor:middle;stroke-width:0.26458332"
           d="M 75.770803,87.240357 V 84.86969 h -2.348088 v 11.853333 h 2.370666 v -8.286044 c 0,-0.677333 0.496711,-1.196622 1.174045,-1.196622 0.677333,0 1.174044,0.519289 1.174044,1.196622 l 0.04516,8.286044 h 2.370666 v -8.286044 c 0,-0.677333 0.496711,-1.196622 1.174045,-1.196622 0.632178,0 1.196622,0.474133 1.196622,1.196622 v 8.286044 h 2.370667 v -9.482666 c 0,-1.174045 -1.016,-2.370667 -2.370667,-2.370667 -1.377244,0 -2.370667,1.196622 -2.370667,2.370667 h -0.02258 c 0,-1.286934 -1.083734,-2.370667 -2.370667,-2.370667 -1.354667,0 -2.370667,1.106311 -2.370667,2.370667 z"
           inkscape:connector-curvature="0" />
        <path
           id="path1615"
           style="font-size:22.57777786px;text-align:center;text-anchor:middle;stroke-width:0.26458332"
           d="M 90.036782,96.723023 V 84.86969 h -2.370667 v 11.853333 z m 0,-13.027377 v -2.393245 h -2.370667 v 2.393245 z"
           inkscape:connector-curvature="0" />
        <path
           id="path1617"
           style="font-size:22.57777786px;text-align:center;text-anchor:middle;stroke-width:0.26458332"
           d="m 93.845724,82.499023 v 2.370667 h -1.196622 v 2.370667 h 1.196622 v 9.482666 h 2.348089 v -9.482666 h 1.196622 V 84.86969 h -1.196622 v -4.741333 z"
           inkscape:connector-curvature="0" />
        <path
           id="path1619"
           style="font-size:22.57777786px;text-align:center;text-anchor:middle;stroke-width:0.26458332"
           d="m 111.40277,86.043734 v -2.348088 c 0,-1.964267 -1.60302,-3.567289 -3.56729,-3.567289 h -3.54471 v 16.594666 h 2.37067 v -7.112 h 1.19662 c 0.63218,0 1.19662,0.519289 1.19662,1.174045 v 5.937955 h 2.34809 v -5.937955 c 0,-0.880533 -0.29351,-1.648178 -0.90311,-2.348089 0.6096,-0.699911 0.90311,-1.490133 0.90311,-2.393245 z m -2.34809,0 c 0,0.654756 -0.51929,1.196623 -1.19662,1.196623 h -1.19662 c -0.0452,-0.564445 -0.0226,-1.196623 -0.0226,-1.941689 v -2.799645 h 1.2192 c 0.63218,0 1.15147,0.451556 1.19662,1.196623 h -0.0452 v 0.8128 c 0,0.541866 0.0452,0.180622 0.0452,1.535288 z"
           inkscape:connector-curvature="0" />
        <path
           id="path1621"
           style="font-size:22.57777786px;text-align:center;text-anchor:middle;stroke-width:0.26458332"
           d="M 116.09824,96.723023 V 84.86969 h -2.37066 v 11.853333 z m 0,-13.027377 v -2.393245 h -2.37066 v 2.393245 z"
           inkscape:connector-curvature="0" />
        <path
           id="path1623"
           style="font-size:22.57777786px;text-align:center;text-anchor:middle;stroke-width:0.26458332"
           d="m 122.25528,87.240357 h 0.0226 c 0.63218,0 1.19663,0.474133 1.19663,1.196622 h 2.34808 c 0,-1.964267 -1.60302,-3.567289 -3.56728,-3.567289 -1.91912,0 -3.54472,1.557867 -3.54472,3.544711 v 0.02258 c 0,1.919111 1.51272,3.544711 3.54472,3.544711 h 0.0226 c 0.63218,0 1.19663,0.474133 1.19663,1.196622 0,0.654756 -0.54187,1.174045 -1.19663,1.174045 h -0.0226 c -0.67734,0 -1.19663,-0.496711 -1.19663,-1.174045 h -2.34809 c 0,1.919111 1.51272,3.544711 3.54472,3.544711 2.032,0 3.56728,-1.648177 3.56728,-3.544711 0,-1.964266 -1.60302,-3.567289 -3.56728,-3.567289 -0.65476,0 -1.19663,-0.451555 -1.19663,-1.174044 h 0.0226 c 0,-0.6096 0.47413,-1.196622 1.17405,-1.196622 z"
           inkscape:connector-curvature="0" />
        <path
           id="path1625"
           style="font-size:22.57777786px;text-align:center;text-anchor:middle;stroke-width:0.26458332"
           d="M 130.51804,96.723023 V 84.86969 h -2.37067 v 11.853333 z m 0,-13.027377 v -2.393245 h -2.37067 v 2.393245 z"
           inkscape:connector-curvature="0" />
        <path
           id="path1627"
           style="font-size:22.57777786px;text-align:center;text-anchor:middle;stroke-width:0.26458332"
           d="m 135.50102,89.656179 v -9.527822 h -2.37066 v 16.594666 h 2.37066 v -4.809066 l 2.37067,4.809066 h 2.37067 l -2.93511,-5.960533 2.93511,-5.8928 h -2.37067 z"
           inkscape:connector-curvature="0" />
        <path
           id="path1629"
           style="font-size:22.57777786px;text-align:center;text-anchor:middle;stroke-width:0.26458332"
           d="m 145.2084,94.352357 h -0.0226 c -0.67733,0 -1.19662,-0.496711 -1.19662,-1.174045 V 91.98169 h 4.76391 v -3.544711 c 0,-1.964267 -1.60302,-3.567289 -3.56729,-3.567289 -1.94168,0 -3.54471,1.512711 -3.54471,3.567289 v 4.741333 c 0,1.919111 1.51271,3.544711 3.54471,3.544711 2.032,0 3.56729,-1.648177 3.56729,-3.544711 H 146.405 c 0,0.654756 -0.54186,1.174045 -1.19662,1.174045 z m 1.19662,-5.915378 v 1.174044 h -2.41582 v -1.174044 c 0,-0.677333 0.51929,-1.196622 1.19662,-1.196622 h 0.0226 c 0.63218,0 1.19662,0.474133 1.19662,1.196622 z"
           inkscape:connector-curvature="0" />
        <path
           id="path1631"
           style="font-size:22.57777786px;text-align:center;text-anchor:middle;stroke-width:0.26458332"
           d="M 153.47011,87.240357 V 84.86969 h -2.34809 v 11.853333 h 2.37066 v -8.286044 c 0,-0.677333 0.49671,-1.196622 1.17405,-1.196622 0.67733,0 1.17404,0.519289 1.17404,1.196622 l 0.0226,8.286044 h 2.37067 v -9.482666 c 0,-1.286934 -1.08374,-2.370667 -2.37067,-2.370667 -1.35467,0 -2.37067,1.106311 -2.37067,2.370667 z"
           inkscape:connector-curvature="0" />
        <path
           id="path1633"
           style="font-size:22.57777786px;text-align:center;text-anchor:middle;stroke-width:0.26458332"
           d="m 169.39521,90.739912 -1.17405,-5.870222 h -2.37067 l 2.37067,11.7856 -0.0226,0.06773 h 2.37067 0.0452 l -0.0226,-0.06773 2.37066,-11.7856 h -2.39324 z"
           inkscape:connector-curvature="0" />
        <path
           id="path1635"
           style="font-size:22.57777786px;text-align:center;text-anchor:middle;stroke-width:0.26458332"
           d="m 178.7223,94.352357 h -0.0226 c -0.67734,0 -1.19662,-0.496711 -1.19662,-1.174045 V 91.98169 h 4.76391 v -3.544711 c 0,-1.964267 -1.60303,-3.567289 -3.56729,-3.567289 -1.94169,0 -3.54471,1.512711 -3.54471,3.567289 v 4.741333 c 0,1.919111 1.51271,3.544711 3.54471,3.544711 2.032,0 3.56729,-1.648177 3.56729,-3.544711 h -2.34809 c 0,0.654756 -0.54187,1.174045 -1.19662,1.174045 z m 1.19662,-5.915378 v 1.174044 h -2.41582 v -1.174044 c 0,-0.677333 0.51928,-1.196622 1.19662,-1.196622 h 0.0226 c 0.63217,0 1.19662,0.474133 1.19662,1.196622 z"
           inkscape:connector-curvature="0" />
        <path
           id="path1637"
           style="font-size:22.57777786px;text-align:center;text-anchor:middle;stroke-width:0.26458332"
           d="M 186.984,87.240357 V 84.86969 h -2.34809 v 11.853333 h 2.37067 v -8.286044 c 0,-0.677333 0.49671,-1.196622 1.17404,-1.196622 0.67733,0 1.17405,0.519289 1.17405,1.196622 h 2.39324 v -1.196622 c 0,-1.286934 -1.08373,-2.370667 -2.37067,-2.370667 -1.35466,0 -2.37066,1.106311 -2.37066,2.370667 z"
           inkscape:connector-curvature="0" />
        <path
           id="path1639"
           style="font-size:22.57777786px;text-align:center;text-anchor:middle;stroke-width:0.26458332"
           d="m 197.37543,94.352357 h -0.0226 c -0.67734,0 -1.19662,-0.496711 -1.19662,-1.174045 l 0.0226,-4.921955 c 0.0452,-0.541867 0.58703,-1.016 1.17405,-1.016 0.67733,0 1.17404,0.519289 1.17404,1.196622 l 0.0226,4.741333 h 0.0226 c 0,0.654756 -0.54187,1.174045 -1.19662,1.174045 z m 3.54471,-1.174045 v -5.937955 c 0,-1.286934 -1.08374,-2.370667 -2.37067,-2.370667 -1.24178,0 -2.28036,0.970844 -2.37067,2.167467 v -6.9088 h -2.37066 v 13.049955 c 0,1.919111 1.51271,3.544711 3.54471,3.544711 2.032,0 3.56729,-1.648177 3.56729,-3.544711 z"
           inkscape:connector-curvature="0" />
        <path
           id="path1641"
           style="font-size:22.57777786px;text-align:center;text-anchor:middle;stroke-width:0.26458332"
           d="m 207.83245,94.352357 v 2.370666 h 2.34809 V 84.86969 h -2.39324 l 0.0226,8.308622 c 0,0.677334 -0.51929,1.174045 -1.19663,1.174045 -0.65475,0 -1.17404,-0.519289 -1.17404,-1.174045 V 84.86969 h -2.37067 v 9.482667 c 0,1.354666 1.10631,2.370666 2.37067,2.370666 1.28693,0 2.37067,-1.083733 2.37067,-2.370666 z"
           inkscape:connector-curvature="0" />
        <path
           id="path1643"
           style="font-size:22.57777786px;text-align:center;text-anchor:middle;stroke-width:0.26458332"
           d="M 214.72115,87.240357 V 84.86969 h -2.34809 v 11.853333 h 2.37067 v -8.286044 c 0,-0.677333 0.49671,-1.196622 1.17404,-1.196622 0.67734,0 1.17405,0.519289 1.17405,1.196622 l 0.0226,8.286044 h 2.37066 v -9.482666 c 0,-1.286934 -1.08373,-2.370667 -2.37066,-2.370667 -1.35467,0 -2.37067,1.106311 -2.37067,2.370667 z"
           inkscape:connector-curvature="0" />
        <path
           id="path1645"
           style="font-size:22.57777786px;text-align:center;text-anchor:middle;stroke-width:0.26458332"
           d="M 228.96596,96.723023 V 93.178312 84.86969 80.128357 h -2.37067 v 7.112 c 0,-1.241778 -1.03858,-2.370667 -2.37066,-2.370667 -1.35467,0 -2.37067,1.106311 -2.37067,2.370667 v 5.937955 1.174045 c 0,1.354666 1.10631,2.370666 2.37067,2.370666 1.26435,0 2.37066,-1.083733 2.37066,-2.370666 l 0.0226,2.370666 z m -2.37067,-8.286044 0.0226,4.741333 c -0.0226,0.677334 -0.54187,1.174045 -1.2192,1.174045 -0.65476,0 -1.17404,-0.519289 -1.17404,-1.174045 v -4.741333 c 0,-0.677333 0.49671,-1.196622 1.17404,-1.196622 0.67733,0 1.19662,0.519289 1.19662,1.196622 z"
           inkscape:connector-curvature="0" />
        <path
           id="path1647"
           style="font-size:22.57777786px;text-align:center;text-anchor:middle;stroke-width:0.26458332"
           d="m 234.72577,94.352357 h -0.0226 c -0.67733,0 -1.19662,-0.496711 -1.19662,-1.174045 V 91.98169 h 4.76391 v -3.544711 c 0,-1.964267 -1.60302,-3.567289 -3.56729,-3.567289 -1.94169,0 -3.54471,1.512711 -3.54471,3.567289 v 4.741333 c 0,1.919111 1.51271,3.544711 3.54471,3.544711 2.032,0 3.56729,-1.648177 3.56729,-3.544711 h -2.34809 c 0,0.654756 -0.54187,1.174045 -1.19662,1.174045 z m 1.19662,-5.915378 v 1.174044 h -2.41582 v -1.174044 c 0,-0.677333 0.51929,-1.196622 1.19662,-1.196622 h 0.0226 c 0.63217,0 1.19662,0.474133 1.19662,1.196622 z"
           inkscape:connector-curvature="0" />
        <path
           id="path1649"
           style="font-size:22.57777786px;text-align:center;text-anchor:middle;stroke-width:0.26458332"
           d="M 242.98746,87.240357 V 84.86969 h -2.34809 v 11.853333 h 2.37067 v -8.286044 c 0,-0.677333 0.49671,-1.196622 1.17405,-1.196622 0.67733,0 1.17404,0.519289 1.17404,1.196622 l 0.0226,8.286044 h 2.37066 v -9.482666 c 0,-1.286934 -1.08373,-2.370667 -2.37066,-2.370667 -1.35467,0 -2.37067,1.106311 -2.37067,2.370667 z"
           inkscape:connector-curvature="0" />
        <path
           id="path1651"
           style="font-size:22.57777786px;text-align:center;text-anchor:middle;stroke-width:0.26458332"
           d="m 28.533153,122.57458 v 2.37067 h 2.348089 v -11.85334 h -2.393244 l 0.02258,8.30862 c 0,0.67734 -0.519289,1.17405 -1.196623,1.17405 -0.654755,0 -1.174044,-0.51929 -1.174044,-1.17405 v -8.30862 h -2.370667 v 9.48267 c 0,1.35467 1.106311,2.37067 2.370667,2.37067 1.286933,0 2.370667,-1.08374 2.370667,-2.37067 z"
           inkscape:connector-curvature="0" />
        <path
           id="path1653"
           style="font-size:22.57777786px;text-align:center;text-anchor:middle;stroke-width:0.26458332"
           d="m 35.421845,115.46258 v -2.37067 h -2.348089 v 11.85334 h 2.370667 v -8.28605 c 0,-0.67733 0.496711,-1.19662 1.174044,-1.19662 0.677334,0 1.174045,0.51929 1.174045,1.19662 l 0.02258,8.28605 h 2.370666 v -9.48267 c 0,-1.28693 -1.083733,-2.37067 -2.370666,-2.37067 -1.354667,0 -2.370667,1.10631 -2.370667,2.37067 z"
           inkscape:connector-curvature="0" />
        <path
           id="path1655"
           style="font-size:22.57777786px;text-align:center;text-anchor:middle;stroke-width:0.26458332"
           d="m 49.666658,124.94525 v -3.54472 -8.30862 -4.74133 h -2.370667 v 7.112 c 0,-1.24178 -1.038578,-2.37067 -2.370666,-2.37067 -1.354667,0 -2.370667,1.10631 -2.370667,2.37067 v 5.93795 1.17405 c 0,1.35467 1.106311,2.37067 2.370667,2.37067 1.264355,0 2.370666,-1.08374 2.370666,-2.37067 l 0.02258,2.37067 z m -2.370667,-8.28605 0.02258,4.74133 c -0.02258,0.67734 -0.541867,1.17405 -1.2192,1.17405 -0.654756,0 -1.174044,-0.51929 -1.174044,-1.17405 v -4.74133 c 0,-0.67733 0.496711,-1.19662 1.174044,-1.19662 0.677333,0 1.196622,0.51929 1.196622,1.19662 z"
           inkscape:connector-curvature="0" />
        <path
           id="path1657"
           style="font-size:22.57777786px;text-align:center;text-anchor:middle;stroke-width:0.26458332"
           d="m 61.870655,122.57458 v 2.37067 h 2.348089 v -11.85334 h -2.393245 l 0.02258,8.30862 c 0,0.67734 -0.519289,1.17405 -1.196622,1.17405 -0.654756,0 -1.174045,-0.51929 -1.174045,-1.17405 v -8.30862 h -2.370666 v 9.48267 c 0,1.35467 1.106311,2.37067 2.370666,2.37067 1.286934,0 2.370667,-1.08374 2.370667,-2.37067 z"
           inkscape:connector-curvature="0" />
        <path
           id="path1659"
           style="font-size:22.57777786px;text-align:center;text-anchor:middle;stroke-width:0.26458332"
           d="m 68.759345,115.46258 v -2.37067 h -2.348089 v 11.85334 h 2.370666 v -8.28605 c 0,-0.67733 0.496712,-1.19662 1.174045,-1.19662 0.677333,0 1.174044,0.51929 1.174044,1.19662 l 0.02258,8.28605 h 2.370667 v -9.48267 c 0,-1.28693 -1.083734,-2.37067 -2.370667,-2.37067 -1.354667,0 -2.370667,1.10631 -2.370667,2.37067 z"
           inkscape:connector-curvature="0" />
        <path
           id="path1661"
           style="font-size:22.57777786px;text-align:center;text-anchor:middle;stroke-width:0.26458332"
           d="m 77.088782,110.72125 v 2.37066 h -1.196623 v 2.37067 h 1.196623 v 9.48267 h 2.348089 v -9.48267 h 1.196622 v -2.37067 h -1.196622 v -4.74133 z"
           inkscape:connector-curvature="0" />
        <path
           id="path1663"
           style="font-size:22.57777786px;text-align:center;text-anchor:middle;stroke-width:0.26458332"
           d="m 85.853545,122.57458 h -0.02258 c -0.677333,0 -1.196622,-0.49671 -1.196622,-1.17405 v -1.19662 h 4.763911 v -3.54471 c 0,-1.96427 -1.603022,-3.56729 -3.567289,-3.56729 -1.941689,0 -3.544711,1.51271 -3.544711,3.56729 v 4.74133 c 0,1.91912 1.512711,3.54472 3.544711,3.54472 2.032,0 3.567289,-1.64818 3.567289,-3.54472 h -2.348089 c 0,0.65476 -0.541867,1.17405 -1.196622,1.17405 z m 1.196622,-5.91538 v 1.17405 h -2.415822 v -1.17405 c 0,-0.67733 0.519289,-1.19662 1.196622,-1.19662 h 0.02258 c 0.632177,0 1.196622,0.47413 1.196622,1.19662 z"
           inkscape:connector-curvature="0" />
        <path
           id="path1665"
           style="font-size:22.57777786px;text-align:center;text-anchor:middle;stroke-width:0.26458332"
           d="m 94.115248,115.46258 v -2.37067 h -2.348089 v 11.85334 h 2.370667 v -8.28605 c 0,-0.67733 0.496711,-1.19662 1.174045,-1.19662 0.677333,0 1.174044,0.51929 1.174044,1.19662 h 2.393244 v -1.19662 c 0,-1.28693 -1.083733,-2.37067 -2.370666,-2.37067 -1.354667,0 -2.370667,1.10631 -2.370667,2.37067 z"
           inkscape:connector-curvature="0" />
        <path
           id="path1667"
           style="font-size:22.57777786px;text-align:center;text-anchor:middle;stroke-width:0.26458332"
           d="m 103.31004,108.35058 h -2.37066 v 16.59467 h 2.37066 z"
           inkscape:connector-curvature="0" />
        <path
           id="path1669"
           style="font-size:22.57777786px;text-align:center;text-anchor:middle;stroke-width:0.26458332"
           d="m 108.07255,124.94525 v -11.85334 h -2.37067 v 11.85334 z m 0,-13.02738 v -2.39325 h -2.37067 v 2.39325 z"
           inkscape:connector-curvature="0" />
        <path
           id="path1671"
           style="font-size:22.57777786px;text-align:center;text-anchor:middle;stroke-width:0.26458332"
           d="m 114.25216,122.57458 h -0.0226 c -0.67733,0 -1.19662,-0.49671 -1.19662,-1.17405 v -1.19662 h 4.76391 v -3.54471 c 0,-1.96427 -1.60302,-3.56729 -3.56729,-3.56729 -1.94169,0 -3.54471,1.51271 -3.54471,3.56729 v 4.74133 c 0,1.91912 1.51271,3.54472 3.54471,3.54472 2.032,0 3.56729,-1.64818 3.56729,-3.54472 h -2.34809 c 0,0.65476 -0.54187,1.17405 -1.19662,1.17405 z m 1.19662,-5.91538 v 1.17405 h -2.41582 v -1.17405 c 0,-0.67733 0.51929,-1.19662 1.19662,-1.19662 h 0.0226 c 0.63218,0 1.19662,0.47413 1.19662,1.19662 z"
           inkscape:connector-curvature="0" />
        <path
           id="path1673"
           style="font-size:22.57777786px;text-align:center;text-anchor:middle;stroke-width:0.26458332"
           d="m 123.73306,127.31591 h -0.0226 c -0.65475,0 -1.19662,-0.51929 -1.19662,-1.19662 h -2.34809 c 0,1.91911 1.51271,3.54471 3.54471,3.54471 1.8288,0 3.56729,-1.53529 3.56729,-3.54471 v -4.71876 -5.93795 -2.37067 h -2.34809 l -0.0226,2.37067 c 0,-1.24178 -1.06116,-2.37067 -2.37067,-2.37067 -1.35467,0 -2.37067,1.10631 -2.37067,2.37067 v 5.93795 1.17405 c 0,1.35467 1.10631,2.37067 2.37067,2.37067 1.28693,0 2.37067,-1.08374 2.37067,-2.37067 l 0.0226,3.54471 c -0.0452,0.65476 -0.51929,1.19662 -1.19662,1.19662 z m 1.17405,-10.65671 v 4.74133 c 0,0.67734 -0.51929,1.17405 -1.19663,1.17405 -0.65475,0 -1.17404,-0.51929 -1.17404,-1.17405 v -4.74133 c 0,-0.67733 0.49671,-1.19662 1.17404,-1.19662 0.67734,0 1.19663,0.51929 1.19663,1.19662 z"
           inkscape:connector-curvature="0" />
        <path
           id="path1675"
           style="font-size:22.57777786px;text-align:center;text-anchor:middle;stroke-width:0.26458332"
           d="m 130.88739,110.72125 v 2.37066 h -1.19662 v 2.37067 h 1.19662 v 9.48267 h 2.34809 v -9.48267 h 1.19662 v -2.37067 h -1.19662 v -4.74133 z"
           inkscape:connector-curvature="0" />
        <path
           id="path1677"
           style="font-size:22.57777786px;text-align:center;text-anchor:middle;stroke-width:0.26458332"
           d="m 142.52906,108.35058 h -1.19662 v 16.59467 h 3.54471 c 2.032,0 3.56729,-1.64818 3.56729,-3.54472 v -2.39324 c 0,-0.88053 -0.29351,-1.64818 -0.90311,-2.34809 0.6096,-0.69991 0.90311,-1.49013 0.90311,-2.39324 v -2.34809 c 0,-1.96427 -1.60303,-3.56729 -3.56729,-3.56729 h -1.17405 z m 3.56729,10.65671 v 2.39324 c 0,0.6096 -0.88054,1.17405 -1.19662,1.17405 h -0.13547 0.11289 -1.17405 v -4.74133 h 1.17405 -0.11289 0.13547 c 0.22577,0 1.19662,0.56444 1.19662,1.17404 z m 0,-7.08942 v 2.34809 c 0,0.63217 -0.88054,1.19662 -1.19662,1.19662 h -0.13547 0.11289 -1.17405 v -4.74133 h 1.17405 -0.11289 0.13547 c 0.31608,0 1.19662,0.56444 1.19662,1.19662 z"
           inkscape:connector-curvature="0" />
        <path
           id="path1679"
           style="font-size:22.57777786px;text-align:center;text-anchor:middle;stroke-width:0.26458332"
           d="m 154.24834,122.57458 h -0.0226 c -0.67734,0 -1.19662,-0.49671 -1.19662,-1.17405 v -1.19662 h 4.76391 v -3.54471 c 0,-1.96427 -1.60303,-3.56729 -3.56729,-3.56729 -1.94169,0 -3.54471,1.51271 -3.54471,3.56729 v 4.74133 c 0,1.91912 1.51271,3.54472 3.54471,3.54472 2.032,0 3.56729,-1.64818 3.56729,-3.54472 h -2.34809 c 0,0.65476 -0.54187,1.17405 -1.19662,1.17405 z m 1.19662,-5.91538 v 1.17405 h -2.41582 v -1.17405 c 0,-0.67733 0.51928,-1.19662 1.19662,-1.19662 h 0.0226 c 0.63217,0 1.19662,0.47413 1.19662,1.19662 z"
           inkscape:connector-curvature="0" />
        <path
           id="path1681"
           style="font-size:22.57777786px;text-align:center;text-anchor:middle;stroke-width:0.26458332"
           d="m 163.70665,115.46258 h 0.0226 c 0.63218,0 1.19662,0.47413 1.19662,1.19662 h 2.34809 c 0,-1.96427 -1.60302,-3.56729 -3.56729,-3.56729 -1.91911,0 -3.54471,1.55787 -3.54471,3.54471 v 0.0226 c 0,1.91911 1.51271,3.54471 3.54471,3.54471 h 0.0226 c 0.63218,0 1.19662,0.47414 1.19662,1.19662 0,0.65476 -0.54186,1.17405 -1.19662,1.17405 h -0.0226 c -0.67733,0 -1.19662,-0.49671 -1.19662,-1.17405 h -2.34809 c 0,1.91912 1.51271,3.54472 3.54471,3.54472 2.032,0 3.56729,-1.64818 3.56729,-3.54472 0,-1.96426 -1.60302,-3.56728 -3.56729,-3.56728 -0.65475,0 -1.19662,-0.45156 -1.19662,-1.17405 h 0.0226 c 0,-0.6096 0.47413,-1.19662 1.17404,-1.19662 z"
           inkscape:connector-curvature="0" />
        <path
           id="path1683"
           style="font-size:22.57777786px;text-align:center;text-anchor:middle;stroke-width:0.26458332"
           d="m 173.16604,122.57458 h -0.0226 c -0.67734,0 -1.19663,-0.49671 -1.19663,-1.17405 v -4.74133 c 0,-0.67733 0.51929,-1.19662 1.19663,-1.19662 h 0.0226 c 0.63218,0 1.19663,0.47413 1.19663,1.19662 h 2.34809 c 0,-1.96427 -1.60303,-3.56729 -3.56729,-3.56729 -1.94169,0 -3.54471,1.51271 -3.54471,3.56729 v 4.74133 c 0,1.91912 1.51271,3.54472 3.54471,3.54472 2.032,0 3.56729,-1.64818 3.56729,-3.54472 h -2.34809 c 0,0.65476 -0.54187,1.17405 -1.19663,1.17405 z"
           inkscape:connector-curvature="0" />
        <path
           id="path1685"
           style="font-size:22.57777786px;text-align:center;text-anchor:middle;stroke-width:0.26458332"
           d="m 181.78052,115.46258 v -7.112 h -2.34809 v 16.59467 h 2.37067 v -8.28605 c 0,-0.67733 0.49671,-1.19662 1.17405,-1.19662 0.67733,0 1.17404,0.51929 1.17404,1.19662 l 0.0226,8.28605 h 2.37066 v -9.48267 c 0,-1.28693 -1.08373,-2.37067 -2.37066,-2.37067 -1.35467,0 -2.37067,1.10631 -2.37067,2.37067 z"
           inkscape:connector-curvature="0" />
        <path
           id="path1687"
           style="font-size:22.57777786px;text-align:center;text-anchor:middle;stroke-width:0.26458332"
           d="m 191.39371,115.46258 v -2.37067 h -2.34809 v 11.85334 h 2.37067 v -8.28605 c 0,-0.67733 0.49671,-1.19662 1.17405,-1.19662 0.67733,0 1.17404,0.51929 1.17404,1.19662 h 2.39324 v -1.19662 c 0,-1.28693 -1.08373,-2.37067 -2.37066,-2.37067 -1.35467,0 -2.37067,1.10631 -2.37067,2.37067 z"
           inkscape:connector-curvature="0" />
        <path
           id="path1689"
           style="font-size:22.57777786px;text-align:center;text-anchor:middle;stroke-width:0.26458332"
           d="m 200.58852,111.91787 v -2.37067 h -2.37067 v 2.37067 z m 4.74133,0 v -2.39325 h -2.39324 v 2.39325 z m -2.34809,13.02738 h 2.34809 v -8.28605 c 0,-1.96427 -1.60302,-3.56729 -3.56729,-3.56729 -1.89653,0 -3.54471,1.53529 -3.54471,3.56729 h 2.37067 c 0,-0.67733 0.49671,-1.19662 1.17404,-1.19662 h 0.0226 c 0.63218,0 1.19662,0.47413 1.19662,1.19662 0,0.65476 -0.54186,1.17405 -1.19662,1.17405 h -0.0226 c -1.89653,0 -3.54471,1.53528 -3.54471,3.56728 v 1.17405 c 0,1.35467 1.10631,2.37067 2.37067,2.37067 1.28693,0 2.37066,-1.08374 2.37066,-2.37067 h 0.0226 z m 0,-4.94454 v 1.39982 c 0,0.67734 -0.56444,1.17405 -1.2192,1.17405 -0.65475,0 -1.17404,-0.51929 -1.17404,-1.17405 0,-1.39982 1.30951,-1.03857 2.39324,-1.39982 z"
           inkscape:connector-curvature="0" />
        <path
           id="path1691"
           style="font-size:22.57777786px;text-align:center;text-anchor:middle;stroke-width:0.26458332"
           d="m 210.26733,115.46258 v -2.37067 h -2.34809 v 11.85334 h 2.37066 v -8.28605 c 0,-0.67733 0.49671,-1.19662 1.17405,-1.19662 0.67733,0 1.17404,0.51929 1.17404,1.19662 l 0.0226,8.28605 h 2.37067 v -9.48267 c 0,-1.28693 -1.08374,-2.37067 -2.37067,-2.37067 -1.35467,0 -2.37067,1.10631 -2.37067,2.37067 z"
           inkscape:connector-curvature="0" />
        <path
           id="path1693"
           style="font-size:22.57777786px;text-align:center;text-anchor:middle;stroke-width:0.26458332"
           d="m 219.77081,117.8784 v -9.52782 h -2.37066 v 16.59467 h 2.37066 v -4.80907 l 2.37067,4.80907 h 2.37067 l -2.93511,-5.96054 2.93511,-5.8928 h -2.37067 z"
           inkscape:connector-curvature="0" />
        <path
           id="path1695"
           style="font-size:22.57777786px;text-align:center;text-anchor:middle;stroke-width:0.26458332"
           d="m 231.46856,122.57458 v 2.37067 h 2.34809 v -11.85334 h -2.39324 l 0.0226,8.30862 c 0,0.67734 -0.51929,1.17405 -1.19663,1.17405 -0.65475,0 -1.17404,-0.51929 -1.17404,-1.17405 v -8.30862 h -2.37067 v 9.48267 c 0,1.35467 1.10631,2.37067 2.37067,2.37067 1.28693,0 2.37067,-1.08374 2.37067,-2.37067 z"
           inkscape:connector-curvature="0" />
        <path
           id="path1697"
           style="font-size:22.57777786px;text-align:center;text-anchor:middle;stroke-width:0.26458332"
           d="m 238.35726,115.46258 v -2.37067 h -2.34809 v 11.85334 h 2.37067 v -8.28605 c 0,-0.67733 0.49671,-1.19662 1.17404,-1.19662 0.67734,0 1.17405,0.51929 1.17405,1.19662 l 0.0226,8.28605 h 2.37067 v -9.48267 c 0,-1.28693 -1.08373,-2.37067 -2.37067,-2.37067 -1.35466,0 -2.37066,1.10631 -2.37066,2.37067 z"
           inkscape:connector-curvature="0" />
        <path
           id="path1699"
           style="font-size:22.57777786px;text-align:center;text-anchor:middle;stroke-width:0.26458332"
           d="m 249.05736,127.31591 h -0.0226 c -0.65476,0 -1.19662,-0.51929 -1.19662,-1.19662 h -2.34809 c 0,1.91911 1.51271,3.54471 3.54471,3.54471 1.8288,0 3.56729,-1.53529 3.56729,-3.54471 v -4.71876 -5.93795 -2.37067 h -2.34809 l -0.0226,2.37067 c 0,-1.24178 -1.06115,-2.37067 -2.37067,-2.37067 -1.35466,0 -2.37066,1.10631 -2.37066,2.37067 v 5.93795 1.17405 c 0,1.35467 1.10631,2.37067 2.37066,2.37067 1.28694,0 2.37067,-1.08374 2.37067,-2.37067 l 0.0226,3.54471 c -0.0452,0.65476 -0.51929,1.19662 -1.19662,1.19662 z m 1.17404,-10.65671 v 4.74133 c 0,0.67734 -0.51929,1.17405 -1.19662,1.17405 -0.65476,0 -1.17405,-0.51929 -1.17405,-1.17405 v -4.74133 c 0,-0.67733 0.49672,-1.19662 1.17405,-1.19662 0.67733,0 1.19662,0.51929 1.19662,1.19662 z"
           inkscape:connector-curvature="0" />
        <path
           id="path1701"
           style="font-size:22.57777786px;text-align:center;text-anchor:middle;stroke-width:0.26458332"
           d="m 258.58237,122.57458 h -0.0226 c -0.67734,0 -1.19662,-0.49671 -1.19662,-1.17405 v -1.19662 h 4.76391 v -3.54471 c 0,-1.96427 -1.60303,-3.56729 -3.56729,-3.56729 -1.94169,0 -3.54471,1.51271 -3.54471,3.56729 v 4.74133 c 0,1.91912 1.51271,3.54472 3.54471,3.54472 2.032,0 3.56729,-1.64818 3.56729,-3.54472 h -2.34809 c 0,0.65476 -0.54187,1.17405 -1.19662,1.17405 z m 1.19662,-5.91538 v 1.17405 h -2.41582 v -1.17405 c 0,-0.67733 0.51928,-1.19662 1.19662,-1.19662 h 0.0226 c 0.63217,0 1.19662,0.47413 1.19662,1.19662 z"
           inkscape:connector-curvature="0" />
        <path
           id="path1703"
           style="font-size:22.57777786px;text-align:center;text-anchor:middle;stroke-width:0.26458332"
           d="m 266.84406,115.46258 v -2.37067 h -2.34809 v 11.85334 h 2.37067 v -8.28605 c 0,-0.67733 0.49671,-1.19662 1.17404,-1.19662 0.67734,0 1.17405,0.51929 1.17405,1.19662 l 0.0226,8.28605 h 2.37066 v -9.48267 c 0,-1.28693 -1.08373,-2.37067 -2.37066,-2.37067 -1.35467,0 -2.37067,1.10631 -2.37067,2.37067 z"
           inkscape:connector-curvature="0" />
      </g>
      <g
         id="text869"
         style="font-style:normal;font-variant:normal;font-weight:normal;font-stretch:normal;font-size:8.46666622px;line-height:1.25;font-family:PreussischeIV44Ausgabe3;-inkscape-font-specification:PreussischeIV44Ausgabe3;letter-spacing:0px;word-spacing:0px;fill:#000000;fill-opacity:1;stroke:none;stroke-width:0.26458332"
         aria-label="Betreten auf eigene Gefahr">
        <path
           id="path1488"
           style="font-size:33.86666489px;stroke-width:0.26458332"
           d="m -7.8591538,155.69839 h -1.7949333 v 24.892 h 5.3170664 c 3.0479999,0 5.3509331,-2.47226 5.3509331,-5.31706 v -3.58987 c 0,-1.3208 -0.44026667,-2.47227 -1.35466662,-3.52213 0.91439995,-1.04987 1.35466662,-2.2352 1.35466662,-3.58987 v -3.52213 c 0,-2.9464 -2.4045332,-5.35094 -5.3509331,-5.35094 h -1.7610666 z m 5.350933,15.98507 v 3.58987 c 0,0.9144 -1.3207999,1.76106 -1.7949332,1.76106 h -0.2032 0.1693333 -1.7610666 v -7.112 h 1.7610666 -0.1693333 0.2032 c 0.3386666,0 1.7949332,0.84667 1.7949332,1.76107 z m 0,-10.63413 v 3.52213 c 0,0.94827 -1.3207999,1.79493 -1.7949332,1.79493 h -0.2032 0.1693333 -1.7610666 v -7.112 h 1.7610666 -0.1693333 0.2032 c 0.4741333,0 1.7949332,0.84667 1.7949332,1.79494 z"
           inkscape:connector-curvature="0" />
        <path
           id="path1490"
           style="font-size:33.86666489px;stroke-width:0.26458332"
           d="m 9.7197618,177.03439 h -0.033867 c -1.016,0 -1.7949333,-0.74506 -1.7949333,-1.76106 v -1.79494 h 7.1458665 v -5.31706 c 0,-2.9464 -2.404533,-5.35094 -5.3509332,-5.35094 -2.9125332,0 -5.3170664,2.26907 -5.3170664,5.35094 v 7.112 c 0,2.87866 2.2690665,5.31706 5.3170664,5.31706 3.0480002,0 5.3509332,-2.47226 5.3509332,-5.31706 h -3.522133 c 0,0.98213 -0.8128,1.76106 -1.7949332,1.76106 z m 1.7949332,-8.87306 v 1.76106 H 7.8909619 v -1.76106 c 0,-1.016 0.7789333,-1.79494 1.7949333,-1.79494 h 0.033867 c 0.9482658,0 1.7949328,0.7112 1.7949328,1.79494 z"
           inkscape:connector-curvature="0" />
        <path
           id="path1492"
           style="font-size:33.86666489px;stroke-width:0.26458332"
           d="m 20.385116,159.25439 v 3.556 h -1.794933 v 3.556 h 1.794933 v 14.224 h 3.522134 v -14.224 h 1.794933 v -3.556 H 23.90725 v -7.112 z"
           inkscape:connector-curvature="0" />
        <path
           id="path1494"
           style="font-size:33.86666489px;stroke-width:0.26458332"
           d="m 31.703461,166.36639 v -3.556 h -3.522133 v 17.78 h 3.556 v -12.42906 c 0,-1.016 0.745066,-1.79494 1.761066,-1.79494 1.016,0 1.761067,0.77894 1.761067,1.79494 h 3.589866 v -1.79494 c 0,-1.9304 -1.6256,-3.556 -3.556,-3.556 -2.031999,0 -3.555999,1.65947 -3.555999,3.556 z"
           inkscape:connector-curvature="0" />
        <path
           id="path1496"
           style="font-size:33.86666489px;stroke-width:0.26458332"
           d="m 47.290592,177.03439 h -0.03387 c -1.016,0 -1.794934,-0.74506 -1.794934,-1.76106 v -1.79494 h 7.145867 v -5.31706 c 0,-2.9464 -2.404534,-5.35094 -5.350933,-5.35094 -2.912534,0 -5.317067,2.26907 -5.317067,5.35094 v 7.112 c 0,2.87866 2.269067,5.31706 5.317067,5.31706 3.047999,0 5.350933,-2.47226 5.350933,-5.31706 h -3.522134 c 0,0.98213 -0.8128,1.76106 -1.794933,1.76106 z m 1.794933,-8.87306 v 1.76106 h -3.623733 v -1.76106 c 0,-1.016 0.778934,-1.79494 1.794934,-1.79494 h 0.03387 c 0.948267,0 1.794933,0.7112 1.794933,1.79494 z"
           inkscape:connector-curvature="0" />
        <path
           id="path1498"
           style="font-size:33.86666489px;stroke-width:0.26458332"
           d="m 57.955948,159.25439 v 3.556 h -1.794933 v 3.556 h 1.794933 v 14.224 h 3.522133 v -14.224 h 1.794933 v -3.556 h -1.794933 v -7.112 z"
           inkscape:connector-curvature="0" />
        <path
           id="path1500"
           style="font-size:33.86666489px;stroke-width:0.26458332"
           d="m 71.103096,177.03439 h -0.03387 c -1.016,0 -1.794933,-0.74506 -1.794933,-1.76106 v -1.79494 h 7.145866 v -5.31706 c 0,-2.9464 -2.404533,-5.35094 -5.350933,-5.35094 -2.912533,0 -5.317066,2.26907 -5.317066,5.35094 v 7.112 c 0,2.87866 2.269066,5.31706 5.317066,5.31706 3.048,0 5.350933,-2.47226 5.350933,-5.31706 h -3.522133 c 0,0.98213 -0.8128,1.76106 -1.794933,1.76106 z m 1.794933,-8.87306 v 1.76106 h -3.623733 v -1.76106 c 0,-1.016 0.778933,-1.79494 1.794933,-1.79494 h 0.03387 c 0.948267,0 1.794933,0.7112 1.794933,1.79494 z"
           inkscape:connector-curvature="0" />
        <path
           id="path1502"
           style="font-size:33.86666489px;stroke-width:0.26458332"
           d="m 83.495648,166.36639 v -3.556 h -3.522133 v 17.78 h 3.555999 v -12.42906 c 0,-1.016 0.745067,-1.79494 1.761067,-1.79494 1.016,0 1.761067,0.77894 1.761067,1.79494 l 0.03387,12.42906 h 3.556 v -14.224 c 0,-1.9304 -1.6256,-3.556 -3.556,-3.556 -2.032,0 -3.556,1.65947 -3.556,3.556 z"
           inkscape:connector-curvature="0" />
        <path
           id="path1504"
           style="font-size:33.86666489px;stroke-width:0.26458332"
           d="m 109.21209,180.59039 h 3.52213 v -12.42906 c 0,-2.9464 -2.40453,-5.35094 -5.35093,-5.35094 -2.8448,0 -5.31707,2.30294 -5.31707,5.35094 h 3.556 c 0,-1.016 0.74507,-1.79494 1.76107,-1.79494 h 0.0339 c 0.94827,0 1.79494,0.7112 1.79494,1.79494 0,0.98213 -0.8128,1.76106 -1.79494,1.76106 h -0.0339 c -2.8448,0 -5.31707,2.30294 -5.31707,5.35094 v 1.76106 c 0,2.032 1.65947,3.556 3.556,3.556 1.9304,0 3.556,-1.6256 3.556,-3.556 h 0.0339 z m 0,-7.4168 v 2.09974 c 0,1.016 -0.84667,1.76106 -1.8288,1.76106 -0.98214,0 -1.76107,-0.77893 -1.76107,-1.76106 0,-2.09974 1.96427,-1.55787 3.58987,-2.09974 z"
           inkscape:connector-curvature="0" />
        <path
           id="path1506"
           style="font-size:33.86666489px;stroke-width:0.26458332"
           d="m 123.10271,177.03439 v 3.556 h 3.52213 v -17.78 h -3.58986 l 0.0339,12.46294 c 0,1.016 -0.77893,1.76106 -1.79493,1.76106 -0.98213,0 -1.76107,-0.77893 -1.76107,-1.76106 v -12.46294 h -3.556 v 14.224 c 0,2.032 1.65947,3.556 3.556,3.556 1.9304,0 3.556,-1.6256 3.556,-3.556 z"
           inkscape:connector-curvature="0" />
        <path
           id="path1508"
           style="font-size:33.86666489px;stroke-width:0.26458332"
           d="m 136.99175,159.25439 0.0339,-3.556 c -2.91254,0 -5.31707,2.40454 -5.31707,5.35094 v 1.76106 h -1.79493 v 3.556 h 1.79493 v 14.224 h 3.52213 v -14.224 h 1.79494 v -3.556 h -1.79494 v -1.76106 c 0,-1.016 0.74507,-1.79494 1.76107,-1.79494 z"
           inkscape:connector-curvature="0" />
        <path
           id="path1510"
           style="font-size:33.86666489px;stroke-width:0.26458332"
           d="m 153.91767,177.03439 h -0.0339 c -1.016,0 -1.79493,-0.74506 -1.79493,-1.76106 v -1.79494 h 7.14587 v -5.31706 c 0,-2.9464 -2.40454,-5.35094 -5.35094,-5.35094 -2.91253,0 -5.31706,2.26907 -5.31706,5.35094 v 7.112 c 0,2.87866 2.26906,5.31706 5.31706,5.31706 3.048,0 5.35094,-2.47226 5.35094,-5.31706 h -3.52214 c 0,0.98213 -0.8128,1.76106 -1.79493,1.76106 z m 1.79493,-8.87306 v 1.76106 h -3.62373 v -1.76106 c 0,-1.016 0.77893,-1.79494 1.79493,-1.79494 h 0.0339 c 0.94827,0 1.79493,0.7112 1.79493,1.79494 z"
           inkscape:connector-curvature="0" />
        <path
           id="path1512"
           style="font-size:33.86666489px;stroke-width:0.26458332"
           d="m 166.3441,180.59039 v -17.78 h -3.556 v 17.78 z m 0,-19.54106 v -3.58987 h -3.556 v 3.58987 z"
           inkscape:connector-curvature="0" />
        <path
           id="path1514"
           style="font-size:33.86666489px;stroke-width:0.26458332"
           d="m 175.6135,184.14639 h -0.0339 c -0.98214,0 -1.79494,-0.77893 -1.79494,-1.79493 h -3.52213 c 0,2.87867 2.26907,5.31707 5.31707,5.31707 2.7432,0 5.35093,-2.30294 5.35093,-5.31707 v -7.07813 -8.90694 -3.556 h -3.52213 l -0.0339,3.556 c 0,-1.86266 -1.59173,-3.556 -3.556,-3.556 -2.032,0 -3.556,1.65947 -3.556,3.556 v 8.90694 1.76106 c 0,2.032 1.65947,3.556 3.556,3.556 1.9304,0 3.556,-1.6256 3.556,-3.556 l 0.0339,5.31707 c -0.0677,0.98213 -0.77894,1.79493 -1.79494,1.79493 z m 1.76107,-15.98506 v 7.112 c 0,1.016 -0.77893,1.76106 -1.79493,1.76106 -0.98214,0 -1.76107,-0.77893 -1.76107,-1.76106 v -7.112 c 0,-1.016 0.74507,-1.79494 1.76107,-1.79494 1.016,0 1.79493,0.77894 1.79493,1.79494 z"
           inkscape:connector-curvature="0" />
        <path
           id="path1516"
           style="font-size:33.86666489px;stroke-width:0.26458332"
           d="m 189.90101,177.03439 h -0.0339 c -1.016,0 -1.79493,-0.74506 -1.79493,-1.76106 v -1.79494 h 7.14586 v -5.31706 c 0,-2.9464 -2.40453,-5.35094 -5.35093,-5.35094 -2.91253,0 -5.31706,2.26907 -5.31706,5.35094 v 7.112 c 0,2.87866 2.26906,5.31706 5.31706,5.31706 3.048,0 5.35093,-2.47226 5.35093,-5.31706 h -3.52213 c 0,0.98213 -0.8128,1.76106 -1.79493,1.76106 z m 1.79493,-8.87306 v 1.76106 h -3.62373 v -1.76106 c 0,-1.016 0.77893,-1.79494 1.79493,-1.79494 h 0.0339 c 0.94827,0 1.79493,0.7112 1.79493,1.79494 z"
           inkscape:connector-curvature="0" />
        <path
           id="path1518"
           style="font-size:33.86666489px;stroke-width:0.26458332"
           d="m 202.29355,166.36639 v -3.556 h -3.52213 v 17.78 h 3.556 v -12.42906 c 0,-1.016 0.74507,-1.79494 1.76107,-1.79494 1.016,0 1.76106,0.77894 1.76106,1.79494 l 0.0339,12.42906 h 3.556 v -14.224 c 0,-1.9304 -1.6256,-3.556 -3.556,-3.556 -2.032,0 -3.556,1.65947 -3.556,3.556 z"
           inkscape:connector-curvature="0" />
        <path
           id="path1520"
           style="font-size:33.86666489px;stroke-width:0.26458332"
           d="m 218.34371,177.03439 h -0.0339 c -1.016,0 -1.79494,-0.74506 -1.79494,-1.76106 v -1.79494 h 7.14587 v -5.31706 c 0,-2.9464 -2.40453,-5.35094 -5.35093,-5.35094 -2.91254,0 -5.31707,2.26907 -5.31707,5.35094 v 7.112 c 0,2.87866 2.26907,5.31706 5.31707,5.31706 3.048,0 5.35093,-2.47226 5.35093,-5.31706 h -3.52213 c 0,0.98213 -0.8128,1.76106 -1.79494,1.76106 z m 1.79494,-8.87306 v 1.76106 h -3.62374 v -1.76106 c 0,-1.016 0.77894,-1.79494 1.79494,-1.79494 h 0.0339 c 0.94827,0 1.79494,0.7112 1.79494,1.79494 z"
           inkscape:connector-curvature="0" />
        <path
           id="path1522"
           style="font-size:33.86666489px;stroke-width:0.26458332"
           d="m 240.43642,177.03439 h -0.0339 c -0.98214,0 -1.76107,-0.77893 -1.76107,-1.76106 v -2.67547 c 0,-0.74507 -0.0339,-1.35467 -0.0339,-1.86267 v -5.14773 l 0.0339,-4.53813 c 0,-1.016 0.74507,-1.79494 1.76107,-1.79494 h 0.0339 c 0.9144,0 1.79494,0.7112 1.79494,1.79494 l -0.0339,1.76106 h 3.556 v -1.76106 c 0,-2.87867 -2.30293,-5.35094 -5.35093,-5.35094 -2.91254,0 -5.31707,2.47227 -5.31707,5.35094 v 14.224 c 0,2.91253 2.40453,5.31706 5.31707,5.31706 3.048,0 5.35093,-2.47226 5.35093,-5.31706 v -8.90694 h -3.556 -1.79493 v 3.556 h 1.79493 l 0.0339,5.35094 c 0,0.98213 -0.8128,1.76106 -1.79494,1.76106 z"
           inkscape:connector-curvature="0" />
        <path
           id="path1524"
           style="font-size:33.86666489px;stroke-width:0.26458332"
           d="m 254.3932,177.03439 h -0.0339 c -1.016,0 -1.79493,-0.74506 -1.79493,-1.76106 v -1.79494 h 7.14586 v -5.31706 c 0,-2.9464 -2.40453,-5.35094 -5.35093,-5.35094 -2.91253,0 -5.31707,2.26907 -5.31707,5.35094 v 7.112 c 0,2.87866 2.26907,5.31706 5.31707,5.31706 3.048,0 5.35093,-2.47226 5.35093,-5.31706 h -3.52213 c 0,0.98213 -0.8128,1.76106 -1.79493,1.76106 z m 1.79493,-8.87306 v 1.76106 h -3.62373 v -1.76106 c 0,-1.016 0.77893,-1.79494 1.79493,-1.79494 h 0.0339 c 0.94826,0 1.79493,0.7112 1.79493,1.79494 z"
           inkscape:connector-curvature="0" />
        <path
           id="path1526"
           style="font-size:33.86666489px;stroke-width:0.26458332"
           d="m 270.34174,159.25439 0.0339,-3.556 c -2.91254,0 -5.31707,2.40454 -5.31707,5.35094 v 1.76106 h -1.79493 v 3.556 h 1.79493 v 14.224 h 3.52213 v -14.224 h 1.79494 v -3.556 h -1.79494 v -1.76106 c 0,-1.016 0.74507,-1.79494 1.76107,-1.79494 z"
           inkscape:connector-curvature="0" />
        <path
           id="path1528"
           style="font-size:33.86666489px;stroke-width:0.26458332"
           d="m 281.19124,180.59039 h 3.52214 v -12.42906 c 0,-2.9464 -2.40454,-5.35094 -5.35094,-5.35094 -2.8448,0 -5.31706,2.30294 -5.31706,5.35094 h 3.556 c 0,-1.016 0.74506,-1.79494 1.76106,-1.79494 h 0.0339 c 0.94827,0 1.79493,0.7112 1.79493,1.79494 0,0.98213 -0.8128,1.76106 -1.79493,1.76106 h -0.0339 c -2.8448,0 -5.31706,2.30294 -5.31706,5.35094 v 1.76106 c 0,2.032 1.65946,3.556 3.556,3.556 1.9304,0 3.556,-1.6256 3.556,-3.556 h 0.0339 z m 0,-7.4168 v 2.09974 c 0,1.016 -0.84666,1.76106 -1.8288,1.76106 -0.98213,0 -1.76106,-0.77893 -1.76106,-1.76106 0,-2.09974 1.96426,-1.55787 3.58986,-2.09974 z"
           inkscape:connector-curvature="0" />
        <path
           id="path1530"
           style="font-size:33.86666489px;stroke-width:0.26458332"
           d="m 291.45813,166.36639 v -10.668 H 287.936 v 24.892 h 3.556 v -12.42906 c 0,-1.016 0.74507,-1.79494 1.76107,-1.79494 1.016,0 1.76106,0.77894 1.76106,1.79494 l 0.0339,12.42906 h 3.556 v -14.224 c 0,-1.9304 -1.6256,-3.556 -3.556,-3.556 -2.032,0 -3.556,1.65947 -3.556,3.556 z"
           inkscape:connector-curvature="0" />
        <path
           id="path1532"
           style="font-size:33.86666489px;stroke-width:0.26458332"
           d="m 305.87793,166.36639 v -3.556 h -3.52213 v 17.78 h 3.556 v -12.42906 c 0,-1.016 0.74507,-1.79494 1.76107,-1.79494 1.016,0 1.76106,0.77894 1.76106,1.79494 h 3.58987 v -1.79494 c 0,-1.9304 -1.6256,-3.556 -3.556,-3.556 -2.032,0 -3.556,1.65947 -3.556,3.556 z"
           inkscape:connector-curvature="0" />
      </g>
    </g>
  </g>
</svg>
