<?xml version="1.0" encoding="UTF-8" standalone="no"?>
<!-- Created with Inkscape (http://www.inkscape.org/) -->

<svg
   width="54mm"
   height="37mm"
   viewBox="0 0 54 37"
   version="1.1"
   id="svg428"
   inkscape:version="1.2.2 (b0a8486541, 2022-12-01)"
   sodipodi:docname="research_50_20.svg"
   xml:space="preserve"
   inkscape:export-filename="research_50_20.jpg"
   inkscape:export-xdpi="600"
   inkscape:export-ydpi="600"
   xmlns:inkscape="http://www.inkscape.org/namespaces/inkscape"
   xmlns:sodipodi="http://sodipodi.sourceforge.net/DTD/sodipodi-0.dtd"
   xmlns="http://www.w3.org/2000/svg"
   xmlns:svg="http://www.w3.org/2000/svg"><sodipodi:namedview
     id="namedview430"
     pagecolor="#ffffff"
     bordercolor="#666666"
     borderopacity="1.0"
     inkscape:showpageshadow="2"
     inkscape:pageopacity="0.0"
     inkscape:pagecheckerboard="0"
     inkscape:deskcolor="#d1d1d1"
     inkscape:document-units="mm"
     showgrid="false"
     inkscape:zoom="6.6018064"
     inkscape:cx="100.12411"
     inkscape:cy="79.296479"
     inkscape:window-width="1920"
     inkscape:window-height="1032"
     inkscape:window-x="0"
     inkscape:window-y="25"
     inkscape:window-maximized="1"
     inkscape:current-layer="layer1"><sodipodi:guide
       position="4.0000001,26.500001"
       orientation="0,1"
       id="guide569"
       inkscape:locked="false"
       inkscape:label=""
       inkscape:color="rgb(0,134,229)" /><sodipodi:guide
       position="50.000002,26.500001"
       orientation="-1,0"
       id="guide571"
       inkscape:locked="false"
       inkscape:label=""
       inkscape:color="rgb(0,134,229)" /><sodipodi:guide
       position="4.0000001,9.5000003"
       orientation="0,1"
       id="guide573"
       inkscape:locked="false"
       inkscape:label=""
       inkscape:color="rgb(0,134,229)" /><sodipodi:guide
       position="4.0000001,26.500001"
       orientation="-1,0"
       id="guide575"
       inkscape:locked="false"
       inkscape:label=""
       inkscape:color="rgb(0,134,229)" /></sodipodi:namedview><defs
     id="defs425" /><g
     inkscape:label="Ebene 1"
     inkscape:groupmode="layer"
     id="layer1"><rect
       style="fill:#ffffff;stroke:#000000;stroke-width:0.25;stroke-linecap:round;stroke-linejoin:round;stroke-miterlimit:10;stroke-dasharray:none;stop-color:#000000"
       id="rect1129"
       width="45.75"
       height="16.75"
       x="4.125"
       y="10.625"
       rx="0.99456525"
       ry="0.98437506" /><g
       aria-label="RESEARCH
PURPOSES ONLY
NOT FOR HUMAN
CONSUMPTION"
       id="text3139"
       style="font-size:4.23333px;line-height:0.8;font-family:'DIN 1451 Std';-inkscape-font-specification:'DIN 1451 Std';letter-spacing:0.132292px;stroke-width:0.248803"
       transform="matrix(1.063423,0,0,1.063423,-1.7353726,-0.3356871)"><path
         d="M 14.834221,14.211783 V 11.18148 h 1.287776 q 0.485758,0 0.704866,0.08268 0.221175,0.08061 0.353466,0.289388 0.132292,0.208773 0.132292,0.47749 0,0.341064 -0.200505,0.564306 -0.200504,0.221175 -0.599446,0.279052 0.198437,0.115756 0.326595,0.254248 0.130224,0.138493 0.349332,0.49196 l 0.370003,0.591177 h -0.731737 l -0.44235,-0.65939 q -0.235645,-0.353467 -0.322461,-0.444417 -0.08682,-0.09302 -0.183968,-0.126091 -0.09715,-0.03514 -0.307991,-0.03514 h -0.124024 v 1.265038 z m 0.611848,-1.748729 h 0.452686 q 0.440282,0 0.549836,-0.03721 0.109554,-0.03721 0.171566,-0.128157 0.06201,-0.09095 0.06201,-0.227376 0,-0.152962 -0.08268,-0.24598 -0.08061,-0.09508 -0.229443,-0.119889 -0.07441,-0.01033 -0.446484,-0.01033 h -0.47749 z"
         style="font-weight:bold;font-family:Arial;-inkscape-font-specification:'Arial Bold';text-align:center;text-anchor:middle;stroke-width:0.248803"
         id="path571" /><path
         d="M 18.021621,14.211783 V 11.18148 h 2.24689 v 0.51263 H 18.63347 v 0.671793 h 1.521352 v 0.510563 H 18.63347 v 0.824755 h 1.692918 v 0.510562 z"
         style="font-weight:bold;font-family:Arial;-inkscape-font-specification:'Arial Bold';text-align:center;text-anchor:middle;stroke-width:0.248803"
         id="path573" /><path
         d="m 20.822482,13.225798 0.595312,-0.05788 q 0.05374,0.299723 0.217041,0.440283 0.165364,0.14056 0.444417,0.14056 0.295589,0 0.444417,-0.124023 0.150895,-0.126091 0.150895,-0.293522 0,-0.107487 -0.06408,-0.181901 -0.06201,-0.07648 -0.219108,-0.132292 -0.107487,-0.03721 -0.489892,-0.132291 -0.491959,-0.121957 -0.690397,-0.299723 -0.279052,-0.250114 -0.279052,-0.609782 0,-0.23151 0.130224,-0.432014 0.132292,-0.202572 0.378272,-0.307992 0.248046,-0.105419 0.597379,-0.105419 0.570507,0 0.857828,0.250113 0.289387,0.250114 0.303857,0.667659 l -0.611849,0.02687 q -0.03927,-0.233577 -0.169498,-0.334863 -0.128158,-0.103353 -0.38654,-0.103353 -0.26665,0 -0.417545,0.109554 -0.09715,0.07028 -0.09715,0.188102 0,0.107487 0.09095,0.183968 0.115755,0.09715 0.562239,0.202572 0.446484,0.105419 0.659391,0.219107 0.214974,0.111621 0.334863,0.307992 0.121956,0.194303 0.121956,0.481624 0,0.260449 -0.144694,0.487825 -0.144694,0.227376 -0.409277,0.338997 -0.264583,0.109554 -0.65939,0.109554 -0.574642,0 -0.882633,-0.264583 -0.307991,-0.26665 -0.367936,-0.775146 z"
         style="font-weight:bold;font-family:Arial;-inkscape-font-specification:'Arial Bold';text-align:center;text-anchor:middle;stroke-width:0.248803"
         id="path575" /><path
         d="M 23.933401,14.211783 V 11.18148 h 2.246889 v 0.51263 h -1.635041 v 0.671793 h 1.521353 v 0.510563 h -1.521353 v 0.824755 h 1.692919 v 0.510562 z"
         style="font-weight:bold;font-family:Arial;-inkscape-font-specification:'Arial Bold';text-align:center;text-anchor:middle;stroke-width:0.248803"
         id="path577" /><path
         d="m 29.621938,14.211783 h -0.665592 l -0.264583,-0.688329 h -1.211295 l -0.250113,0.688329 h -0.649056 l 1.180289,-3.030303 h 0.646988 z m -1.126545,-1.198892 -0.417546,-1.124478 -0.409277,1.124478 z"
         style="font-weight:bold;font-family:Arial;-inkscape-font-specification:'Arial Bold';text-align:center;text-anchor:middle;stroke-width:0.248803"
         id="path579" /><path
         d="M 30.080825,14.211783 V 11.18148 h 1.287776 q 0.485758,0 0.704866,0.08268 0.221174,0.08061 0.353466,0.289388 0.132292,0.208773 0.132292,0.47749 0,0.341064 -0.200505,0.564306 -0.200504,0.221175 -0.599446,0.279052 0.198437,0.115756 0.326595,0.254248 0.130224,0.138493 0.349332,0.49196 l 0.370003,0.591177 h -0.731737 l -0.44235,-0.65939 q -0.235645,-0.353467 -0.322461,-0.444417 -0.08682,-0.09302 -0.183968,-0.126091 -0.09715,-0.03514 -0.307991,-0.03514 h -0.124024 v 1.265038 z m 0.611848,-1.748729 h 0.452686 q 0.440282,0 0.549836,-0.03721 0.109554,-0.03721 0.171566,-0.128157 0.06201,-0.09095 0.06201,-0.227376 0,-0.152962 -0.08268,-0.24598 -0.08062,-0.09508 -0.229443,-0.119889 -0.07441,-0.01033 -0.446484,-0.01033 h -0.47749 z"
         style="font-weight:bold;font-family:Arial;-inkscape-font-specification:'Arial Bold';text-align:center;text-anchor:middle;stroke-width:0.248803"
         id="path581" /><path
         d="m 35.207123,13.09764 0.593245,0.188103 q -0.136425,0.496093 -0.454752,0.737938 -0.316259,0.239779 -0.804084,0.239779 -0.603581,0 -0.992187,-0.411344 -0.388607,-0.413411 -0.388607,-1.128613 0,-0.756542 0.390674,-1.174087 0.390673,-0.419612 1.027327,-0.419612 0.556038,0 0.903303,0.328661 0.206705,0.194304 0.310058,0.558105 l -0.605647,0.144694 q -0.05374,-0.235644 -0.225309,-0.37207 -0.169499,-0.136425 -0.413411,-0.136425 -0.33693,0 -0.54777,0.241845 -0.208773,0.241846 -0.208773,0.783414 0,0.574642 0.206706,0.818554 0.206706,0.243913 0.537434,0.243913 0.243913,0 0.419613,-0.155029 0.175699,-0.15503 0.25218,-0.487826 z"
         style="font-weight:bold;font-family:Arial;-inkscape-font-specification:'Arial Bold';text-align:center;text-anchor:middle;stroke-width:0.248803"
         id="path583" /><path
         d="M 36.459759,14.211783 V 11.18148 h 0.611848 v 1.192691 H 38.2705 V 11.18148 h 0.611848 v 3.030303 H 38.2705 v -1.324982 h -1.198893 v 1.324982 z"
         style="font-weight:bold;font-family:Arial;-inkscape-font-specification:'Arial Bold';text-align:center;text-anchor:middle;stroke-width:0.248803"
         id="path585" /><path
         d="m 8.3436655,17.868341 v -3.030304 h 0.9818513 q 0.558105,0 0.7276032,0.04548 0.260449,0.06821 0.436149,0.297656 0.1757,0.227376 0.1757,0.58911 0,0.279053 -0.101286,0.469222 -0.101286,0.190169 -0.258382,0.299723 -0.155029,0.107487 -0.3162593,0.142627 -0.2191079,0.04341 -0.6345861,0.04341 H 8.9555139 v 1.143082 z m 0.6118484,-2.517674 v 0.859895 h 0.334863 q 0.3617347,0 0.483691,-0.04754 0.1219563,-0.04754 0.1901691,-0.148828 0.07028,-0.101286 0.07028,-0.235644 0,-0.165365 -0.097152,-0.272852 Q 9.840213,15.398211 9.6913854,15.37134 9.5818314,15.35067 9.2511025,15.35067 Z"
         style="font-weight:bold;font-family:Arial;-inkscape-font-specification:'Arial Bold';text-align:center;text-anchor:middle;stroke-width:0.248803"
         id="path587" /><path
         d="m 11.295421,14.838037 h 0.611849 v 1.641242 q 0,0.390674 0.02274,0.506429 0.03927,0.186035 0.186035,0.299723 0.148828,0.111621 0.405143,0.111621 0.260449,0 0.392741,-0.10542 0.132291,-0.107487 0.159163,-0.262516 0.02687,-0.155029 0.02687,-0.514697 v -1.676382 h 0.611848 v 1.591633 q 0,0.545703 -0.04961,0.771012 -0.04961,0.225309 -0.183968,0.380338 -0.132292,0.155029 -0.355534,0.248047 -0.223242,0.09095 -0.582909,0.09095 -0.434082,0 -0.659391,-0.09922 -0.223242,-0.101285 -0.353466,-0.260449 -0.130225,-0.16123 -0.171566,-0.33693 -0.05995,-0.260449 -0.05995,-0.768944 z"
         style="font-weight:bold;font-family:Arial;-inkscape-font-specification:'Arial Bold';text-align:center;text-anchor:middle;stroke-width:0.248803"
         id="path589" /><path
         d="m 14.49109,17.868341 v -3.030304 h 1.287775 q 0.485758,0 0.704866,0.08268 0.221175,0.08061 0.353467,0.289387 0.132291,0.208773 0.132291,0.47749 0,0.341064 -0.200504,0.564306 -0.200505,0.221175 -0.599446,0.279053 0.198437,0.115755 0.326595,0.254248 0.130224,0.138492 0.349332,0.491959 l 0.370003,0.591178 h -0.731738 l -0.44235,-0.659391 q -0.235644,-0.353466 -0.32246,-0.444417 -0.08682,-0.09302 -0.183968,-0.12609 -0.09715,-0.03514 -0.307992,-0.03514 h -0.124023 v 1.265038 z m 0.611848,-1.748729 h 0.452685 q 0.440283,0 0.549837,-0.03721 0.109554,-0.03721 0.171566,-0.128158 0.06201,-0.09095 0.06201,-0.227376 0,-0.152962 -0.08268,-0.245979 -0.08061,-0.09509 -0.229443,-0.11989 -0.07441,-0.01033 -0.446484,-0.01033 h -0.47749 z"
         style="font-weight:bold;font-family:Arial;-inkscape-font-specification:'Arial Bold';text-align:center;text-anchor:middle;stroke-width:0.248803"
         id="path591" /><path
         d="m 17.67849,17.868341 v -3.030304 h 0.981851 q 0.558105,0 0.727604,0.04548 0.260449,0.06821 0.436149,0.297656 0.175699,0.227376 0.175699,0.58911 0,0.279053 -0.101285,0.469222 -0.101286,0.190169 -0.258382,0.299723 -0.155029,0.107487 -0.31626,0.142627 -0.219108,0.04341 -0.634586,0.04341 h -0.398942 v 1.143082 z m 0.611848,-2.517674 v 0.859895 h 0.334863 q 0.361735,0 0.483691,-0.04754 0.121957,-0.04754 0.19017,-0.148828 0.07028,-0.101286 0.07028,-0.235644 0,-0.165365 -0.09715,-0.272852 -0.09715,-0.107487 -0.24598,-0.134358 -0.109554,-0.02067 -0.440283,-0.02067 z"
         style="font-weight:bold;font-family:Arial;-inkscape-font-specification:'Arial Bold';text-align:center;text-anchor:middle;stroke-width:0.248803"
         id="path593" /><path
         d="m 20.510356,16.371793 q 0,-0.463021 0.138493,-0.777213 0.103353,-0.231511 0.28112,-0.415479 0.179833,-0.183967 0.39274,-0.272851 0.283187,-0.119889 0.65319,-0.119889 0.669726,0 1.070735,0.415478 0.403075,0.415478 0.403075,1.155484 0,0.733805 -0.398941,1.149283 -0.398942,0.413411 -1.066601,0.413411 -0.675927,0 -1.074869,-0.411344 -0.398942,-0.413411 -0.398942,-1.13688 z m 0.630452,-0.02067 q 0,0.514697 0.237712,0.781347 0.237711,0.264583 0.60358,0.264583 0.365869,0 0.599446,-0.262516 0.235644,-0.264583 0.235644,-0.791682 0,-0.520898 -0.229443,-0.777213 -0.227376,-0.256315 -0.605647,-0.256315 -0.378271,0 -0.609781,0.260449 -0.231511,0.258382 -0.231511,0.781347 z"
         style="font-weight:bold;font-family:Arial;-inkscape-font-specification:'Arial Bold';text-align:center;text-anchor:middle;stroke-width:0.248803"
         id="path595" /><path
         d="m 23.904462,16.882355 0.595312,-0.05788 q 0.05374,0.299723 0.217041,0.440283 0.165365,0.140559 0.444417,0.140559 0.295589,0 0.444417,-0.124023 0.150895,-0.12609 0.150895,-0.293522 0,-0.107487 -0.06408,-0.181901 -0.06201,-0.07648 -0.219108,-0.132291 -0.107486,-0.03721 -0.489892,-0.132292 -0.491959,-0.121956 -0.690396,-0.299723 -0.279053,-0.250114 -0.279053,-0.609781 0,-0.231511 0.130225,-0.432015 0.132291,-0.202571 0.378271,-0.307991 0.248047,-0.10542 0.597379,-0.10542 0.570507,0 0.857828,0.250114 0.289388,0.250113 0.303857,0.667659 l -0.611848,0.02687 q -0.03927,-0.233577 -0.169499,-0.334863 -0.128157,-0.103352 -0.386539,-0.103352 -0.26665,0 -0.417545,0.109553 -0.09715,0.07028 -0.09715,0.188103 0,0.107486 0.09095,0.183967 0.115756,0.09715 0.56224,0.202572 0.446484,0.10542 0.65939,0.219108 0.214974,0.111621 0.334863,0.307991 0.121957,0.194303 0.121957,0.481624 0,0.260449 -0.144694,0.487825 -0.144694,0.227376 -0.409277,0.338997 -0.264583,0.109554 -0.659391,0.109554 -0.574642,0 -0.882633,-0.264583 -0.307991,-0.26665 -0.367936,-0.775146 z"
         style="font-weight:bold;font-family:Arial;-inkscape-font-specification:'Arial Bold';text-align:center;text-anchor:middle;stroke-width:0.248803"
         id="path597" /><path
         d="m 27.01538,17.868341 v -3.030304 h 2.24689 v 0.51263 h -1.635041 v 0.671793 h 1.521353 v 0.510563 h -1.521353 v 0.824755 h 1.692918 v 0.510563 z"
         style="font-weight:bold;font-family:Arial;-inkscape-font-specification:'Arial Bold';text-align:center;text-anchor:middle;stroke-width:0.248803"
         id="path599" /><path
         d="m 29.816242,16.882355 0.595312,-0.05788 q 0.05374,0.299723 0.217041,0.440283 0.165364,0.140559 0.444417,0.140559 0.295588,0 0.444416,-0.124023 0.150896,-0.12609 0.150896,-0.293522 0,-0.107487 -0.06408,-0.181901 -0.06201,-0.07648 -0.219108,-0.132291 -0.107487,-0.03721 -0.489892,-0.132292 -0.491959,-0.121956 -0.690397,-0.299723 -0.279052,-0.250114 -0.279052,-0.609781 0,-0.231511 0.130224,-0.432015 0.132292,-0.202571 0.378271,-0.307991 0.248047,-0.10542 0.597379,-0.10542 0.570508,0 0.857828,0.250114 0.289388,0.250113 0.303858,0.667659 l -0.611849,0.02687 q -0.03927,-0.233577 -0.169498,-0.334863 -0.128158,-0.103352 -0.38654,-0.103352 -0.26665,0 -0.417545,0.109553 -0.09715,0.07028 -0.09715,0.188103 0,0.107486 0.09095,0.183967 0.115755,0.09715 0.562239,0.202572 0.446484,0.10542 0.659391,0.219108 0.214973,0.111621 0.334863,0.307991 0.121956,0.194303 0.121956,0.481624 0,0.260449 -0.144694,0.487825 -0.144694,0.227376 -0.409277,0.338997 -0.264583,0.109554 -0.659391,0.109554 -0.574641,0 -0.882632,-0.264583 -0.307992,-0.26665 -0.367936,-0.775146 z"
         style="font-weight:bold;font-family:Arial;-inkscape-font-specification:'Arial Bold';text-align:center;text-anchor:middle;stroke-width:0.248803"
         id="path601" /><path
         d="m 34.111583,16.371793 q 0,-0.463021 0.138493,-0.777213 0.103353,-0.231511 0.281119,-0.415479 0.179834,-0.183967 0.392741,-0.272851 0.283187,-0.119889 0.65319,-0.119889 0.669726,0 1.070734,0.415478 0.403076,0.415478 0.403076,1.155484 0,0.733805 -0.398942,1.149283 -0.398941,0.413411 -1.0666,0.413411 -0.675927,0 -1.074869,-0.411344 -0.398942,-0.413411 -0.398942,-1.13688 z m 0.630452,-0.02067 q 0,0.514697 0.237712,0.781347 0.237711,0.264583 0.60358,0.264583 0.365869,0 0.599446,-0.262516 0.235644,-0.264583 0.235644,-0.791682 0,-0.520898 -0.229443,-0.777213 -0.227376,-0.256315 -0.605647,-0.256315 -0.378271,0 -0.609782,0.260449 -0.23151,0.258382 -0.23151,0.781347 z"
         style="font-weight:bold;font-family:Arial;-inkscape-font-specification:'Arial Bold';text-align:center;text-anchor:middle;stroke-width:0.248803"
         id="path603" /><path
         d="m 37.666919,17.868341 v -3.030304 h 0.595312 l 1.240234,2.023648 v -2.023648 h 0.56844 v 3.030304 H 39.45699 l -1.22163,-1.976105 v 1.976105 z"
         style="font-weight:bold;font-family:Arial;-inkscape-font-specification:'Arial Bold';text-align:center;text-anchor:middle;stroke-width:0.248803"
         id="path605" /><path
         d="m 40.866721,17.868341 v -3.005499 h 0.611849 v 2.494936 h 1.521353 v 0.510563 z"
         style="font-weight:bold;font-family:Arial;-inkscape-font-specification:'Arial Bold';text-align:center;text-anchor:middle;stroke-width:0.248803"
         id="path607" /><path
         d="m 43.975576,17.868341 v -1.275374 l -1.110009,-1.75493 h 0.717268 l 0.713134,1.198893 0.698665,-1.198893 H 45.6995 l -1.114143,1.759065 v 1.271239 z"
         style="font-weight:bold;font-family:Arial;-inkscape-font-specification:'Arial Bold';text-align:center;text-anchor:middle;stroke-width:0.248803"
         id="path609" /><path
         d="m 8.3963754,21.524898 v -3.030303 h 0.595312 l 1.2402336,2.023647 v -2.023647 h 0.56844 v 3.030303 H 10.186445 L 8.9648156,19.548793 v 1.976105 z"
         style="font-weight:bold;font-family:Arial;-inkscape-font-specification:'Arial Bold';text-align:center;text-anchor:middle;stroke-width:0.248803"
         id="path611" /><path
         d="m 11.455618,20.02835 q 0,-0.463021 0.138493,-0.777213 0.103353,-0.23151 0.281119,-0.415478 0.179834,-0.183968 0.392741,-0.272851 0.283187,-0.11989 0.653189,-0.11989 0.669726,0 1.070735,0.415478 0.403076,0.415479 0.403076,1.155485 0,0.733804 -0.398942,1.149282 -0.398941,0.413412 -1.0666,0.413412 -0.675927,0 -1.074869,-0.411345 -0.398942,-0.413411 -0.398942,-1.13688 z m 0.630452,-0.02067 q 0,0.514697 0.237711,0.781347 0.237712,0.264583 0.603581,0.264583 0.365868,0 0.599446,-0.262516 0.235644,-0.264583 0.235644,-0.791682 0,-0.520898 -0.229443,-0.777213 -0.227376,-0.256315 -0.605647,-0.256315 -0.378272,0 -0.609782,0.260449 -0.23151,0.258382 -0.23151,0.781347 z"
         style="font-weight:bold;font-family:Arial;-inkscape-font-specification:'Arial Bold';text-align:center;text-anchor:middle;stroke-width:0.248803"
         id="path613" /><path
         d="m 15.686881,21.524898 v -2.517674 h -0.899169 v -0.512629 h 2.40812 v 0.512629 H 16.29873 v 2.517674 z"
         style="font-weight:bold;font-family:Arial;-inkscape-font-specification:'Arial Bold';text-align:center;text-anchor:middle;stroke-width:0.248803"
         id="path615" /><path
         d="m 19.035512,21.524898 v -3.030303 h 2.077391 v 0.512629 h -1.465542 v 0.717269 h 1.265038 v 0.51263 h -1.265038 v 1.287775 z"
         style="font-weight:bold;font-family:Arial;-inkscape-font-specification:'Arial Bold';text-align:center;text-anchor:middle;stroke-width:0.248803"
         id="path617" /><path
         d="m 21.625533,20.02835 q 0,-0.463021 0.138493,-0.777213 0.103353,-0.23151 0.28112,-0.415478 0.179834,-0.183968 0.39274,-0.272851 0.283187,-0.11989 0.65319,-0.11989 0.669726,0 1.070735,0.415478 0.403075,0.415479 0.403075,1.155485 0,0.733804 -0.398941,1.149282 -0.398942,0.413412 -1.066601,0.413412 -0.675927,0 -1.074869,-0.411345 -0.398942,-0.413411 -0.398942,-1.13688 z m 0.630452,-0.02067 q 0,0.514697 0.237712,0.781347 0.237711,0.264583 0.60358,0.264583 0.365869,0 0.599446,-0.262516 0.235644,-0.264583 0.235644,-0.791682 0,-0.520898 -0.229443,-0.777213 -0.227376,-0.256315 -0.605647,-0.256315 -0.378271,0 -0.609781,0.260449 -0.231511,0.258382 -0.231511,0.781347 z"
         style="font-weight:bold;font-family:Arial;-inkscape-font-specification:'Arial Bold';text-align:center;text-anchor:middle;stroke-width:0.248803"
         id="path619" /><path
         d="m 25.176736,21.524898 v -3.030303 h 1.287775 q 0.485758,0 0.704866,0.08268 0.221175,0.08062 0.353467,0.289388 0.132291,0.208772 0.132291,0.47749 0,0.341064 -0.200504,0.564306 -0.200505,0.221175 -0.599446,0.279052 0.198437,0.115755 0.326595,0.254248 0.130224,0.138493 0.349332,0.491959 l 0.370003,0.591178 h -0.731738 l -0.44235,-0.659391 q -0.235644,-0.353466 -0.32246,-0.444417 -0.08682,-0.09302 -0.183968,-0.12609 -0.09715,-0.03514 -0.307992,-0.03514 h -0.124023 v 1.265038 z m 0.611848,-1.748729 h 0.452685 q 0.440283,0 0.549837,-0.03721 0.109554,-0.03721 0.171566,-0.128157 0.06201,-0.09095 0.06201,-0.227376 0,-0.152963 -0.08268,-0.24598 -0.08062,-0.09509 -0.229443,-0.119889 -0.07441,-0.01034 -0.446484,-0.01034 h -0.47749 z"
         style="font-weight:bold;font-family:Arial;-inkscape-font-specification:'Arial Bold';text-align:center;text-anchor:middle;stroke-width:0.248803"
         id="path621" /><path
         d="m 29.674649,21.524898 v -3.030303 h 0.611848 v 1.192691 h 1.198893 v -1.192691 h 0.611848 v 3.030303 H 31.48539 v -1.324982 h -1.198893 v 1.324982 z"
         style="font-weight:bold;font-family:Arial;-inkscape-font-specification:'Arial Bold';text-align:center;text-anchor:middle;stroke-width:0.248803"
         id="path623" /><path
         d="m 32.857914,18.494595 h 0.611849 v 1.641242 q 0,0.390673 0.02274,0.506428 0.03927,0.186035 0.186035,0.299723 0.148828,0.111621 0.405143,0.111621 0.260449,0 0.392741,-0.105419 0.132291,-0.107487 0.159163,-0.262516 0.02687,-0.15503 0.02687,-0.514697 v -1.676382 h 0.611848 v 1.591632 q 0,0.545703 -0.04961,0.771012 -0.04961,0.225309 -0.183968,0.380338 -0.132292,0.15503 -0.355534,0.248047 -0.223242,0.09095 -0.582909,0.09095 -0.434082,0 -0.659391,-0.09922 -0.223242,-0.101286 -0.353466,-0.260449 -0.130225,-0.16123 -0.171566,-0.33693 -0.05994,-0.260449 -0.05994,-0.768945 z"
         style="font-weight:bold;font-family:Arial;-inkscape-font-specification:'Arial Bold';text-align:center;text-anchor:middle;stroke-width:0.248803"
         id="path625" /><path
         d="m 36.043249,21.524898 v -3.030303 h 0.915705 l 0.549837,2.067055 0.543636,-2.067055 h 0.917772 v 3.030303 h -0.56844 v -2.385382 l -0.601513,2.385382 h -0.589111 l -0.599446,-2.385382 v 2.385382 z"
         style="font-weight:bold;font-family:Arial;-inkscape-font-specification:'Arial Bold';text-align:center;text-anchor:middle;stroke-width:0.248803"
         id="path627" /><path
         d="M 42.442852,21.524898 H 41.77726 l -0.264583,-0.688329 h -1.211295 l -0.250113,0.688329 h -0.649056 l 1.180289,-3.030303 h 0.646988 z m -1.126545,-1.198892 -0.417546,-1.124478 -0.409277,1.124478 z"
         style="font-weight:bold;font-family:Arial;-inkscape-font-specification:'Arial Bold';text-align:center;text-anchor:middle;stroke-width:0.248803"
         id="path629" /><path
         d="m 42.905874,21.524898 v -3.030303 h 0.595312 l 1.240233,2.023647 v -2.023647 h 0.568441 v 3.030303 h -0.613916 l -1.22163,-1.976105 v 1.976105 z"
         style="font-weight:bold;font-family:Arial;-inkscape-font-specification:'Arial Bold';text-align:center;text-anchor:middle;stroke-width:0.248803"
         id="path631" /><path
         d="m 12.642108,24.067313 0.593245,0.188102 q -0.136426,0.496093 -0.454752,0.737938 -0.31626,0.239779 -0.804085,0.239779 -0.60358,0 -0.992186,-0.411344 -0.388607,-0.413411 -0.388607,-1.128612 0,-0.756543 0.390674,-1.174088 0.390673,-0.419612 1.027326,-0.419612 0.556038,0 0.903304,0.328662 0.206705,0.194303 0.310058,0.558105 l -0.605647,0.144693 q -0.05374,-0.235644 -0.225309,-0.37207 -0.169499,-0.136425 -0.413412,-0.136425 -0.33693,0 -0.547769,0.241845 -0.208773,0.241846 -0.208773,0.783414 0,0.574642 0.206706,0.818554 0.206705,0.243913 0.537434,0.243913 0.243913,0 0.419612,-0.155029 0.1757,-0.155029 0.252181,-0.487825 z"
         style="font-weight:bold;font-family:Arial;-inkscape-font-specification:'Arial Bold';text-align:center;text-anchor:middle;stroke-width:0.248803"
         id="path633" /><path
         d="m 13.768654,23.684907 q 0,-0.46302 0.138493,-0.777213 0.103352,-0.23151 0.281119,-0.415478 0.179834,-0.183968 0.392741,-0.272851 0.283186,-0.119889 0.653189,-0.119889 0.669726,0 1.070735,0.415478 0.403076,0.415478 0.403076,1.155484 0,0.733805 -0.398942,1.149283 -0.398942,0.413411 -1.0666,0.413411 -0.675928,0 -1.074869,-0.411344 -0.398942,-0.413411 -0.398942,-1.136881 z m 0.630452,-0.02067 q 0,0.514697 0.237711,0.781347 0.237712,0.264583 0.60358,0.264583 0.365869,0 0.599447,-0.262516 0.235644,-0.264583 0.235644,-0.791682 0,-0.520898 -0.229443,-0.777213 -0.227376,-0.256315 -0.605648,-0.256315 -0.378271,0 -0.609781,0.260449 -0.23151,0.258382 -0.23151,0.781347 z"
         style="font-weight:bold;font-family:Arial;-inkscape-font-specification:'Arial Bold';text-align:center;text-anchor:middle;stroke-width:0.248803"
         id="path635" /><path
         d="m 17.32399,25.181456 v -3.030304 h 0.595312 l 1.240233,2.023647 v -2.023647 h 0.568441 v 3.030304 H 19.11406 L 17.89243,23.20535 v 1.976106 z"
         style="font-weight:bold;font-family:Arial;-inkscape-font-specification:'Arial Bold';text-align:center;text-anchor:middle;stroke-width:0.248803"
         id="path637" /><path
         d="m 20.352227,24.19547 0.595312,-0.05788 q 0.05374,0.299724 0.21704,0.440283 0.165365,0.14056 0.444417,0.14056 0.295589,0 0.444417,-0.124023 0.150895,-0.126091 0.150895,-0.293522 0,-0.107487 -0.06408,-0.181901 -0.06201,-0.07648 -0.219108,-0.132292 -0.107487,-0.03721 -0.489892,-0.132291 -0.49196,-0.121956 -0.690397,-0.299723 -0.279053,-0.250114 -0.279053,-0.609782 0,-0.23151 0.130225,-0.432014 0.132292,-0.202572 0.378271,-0.307991 0.248047,-0.10542 0.597379,-0.10542 0.570508,0 0.857828,0.250113 0.289388,0.250114 0.303857,0.667659 l -0.611848,0.02687 Q 22.07822,22.810539 21.947991,22.709253 21.819834,22.6059 21.561452,22.6059 q -0.26665,0 -0.417545,0.109554 -0.09715,0.07028 -0.09715,0.188102 0,0.107487 0.09095,0.183968 0.115755,0.09715 0.562239,0.202572 0.446484,0.10542 0.65939,0.219108 0.214974,0.111621 0.334863,0.307991 0.121957,0.194303 0.121957,0.481624 0,0.260449 -0.144694,0.487825 -0.144694,0.227376 -0.409277,0.338997 -0.264583,0.109554 -0.659391,0.109554 -0.574641,0 -0.882633,-0.264583 -0.307991,-0.26665 -0.367935,-0.775146 z"
         style="font-weight:bold;font-family:Arial;-inkscape-font-specification:'Arial Bold';text-align:center;text-anchor:middle;stroke-width:0.248803"
         id="path639" /><path
         d="m 23.459011,22.151152 h 0.611849 v 1.641242 q 0,0.390674 0.02274,0.506429 0.03927,0.186035 0.186035,0.299723 0.148828,0.111621 0.405143,0.111621 0.260449,0 0.392741,-0.10542 0.132291,-0.107487 0.159163,-0.262516 0.02687,-0.155029 0.02687,-0.514697 V 22.151152 H 25.8754 v 1.591633 q 0,0.545703 -0.04961,0.771012 -0.04961,0.225309 -0.183968,0.380338 -0.132292,0.155029 -0.355534,0.248046 -0.223242,0.09095 -0.582909,0.09095 -0.434082,0 -0.659391,-0.09922 -0.223242,-0.101285 -0.353466,-0.260449 -0.130225,-0.16123 -0.171566,-0.33693 -0.05994,-0.260449 -0.05994,-0.768944 z"
         style="font-weight:bold;font-family:Arial;-inkscape-font-specification:'Arial Bold';text-align:center;text-anchor:middle;stroke-width:0.248803"
         id="path641" /><path
         d="m 26.644345,25.181456 v -3.030304 h 0.915705 l 0.549837,2.067056 0.543636,-2.067056 h 0.917772 v 3.030304 h -0.56844 v -2.385383 l -0.601513,2.385383 h -0.589111 l -0.599446,-2.385383 v 2.385383 z"
         style="font-weight:bold;font-family:Arial;-inkscape-font-specification:'Arial Bold';text-align:center;text-anchor:middle;stroke-width:0.248803"
         id="path643" /><path
         d="m 30.311301,25.181456 v -3.030304 h 0.981852 q 0.558105,0 0.727603,0.04547 0.260449,0.06821 0.436149,0.297656 0.1757,0.227376 0.1757,0.589111 0,0.279053 -0.101286,0.469222 -0.101286,0.190169 -0.258382,0.299723 -0.155029,0.107487 -0.316259,0.142627 -0.219108,0.04341 -0.634586,0.04341 H 30.92315 v 1.143082 z m 0.611849,-2.517674 v 0.859895 h 0.334863 q 0.361735,0 0.483691,-0.04754 0.121956,-0.04754 0.190169,-0.148828 0.07028,-0.101286 0.07028,-0.235645 0,-0.165364 -0.09715,-0.272851 -0.09715,-0.107487 -0.245979,-0.134359 -0.109554,-0.02067 -0.440283,-0.02067 z"
         style="font-weight:bold;font-family:Arial;-inkscape-font-specification:'Arial Bold';text-align:center;text-anchor:middle;stroke-width:0.248803"
         id="path645" /><path
         d="m 33.94932,25.181456 v -2.517674 h -0.899169 v -0.51263 h 2.40812 v 0.51263 h -0.897102 v 2.517674 z"
         style="font-weight:bold;font-family:Arial;-inkscape-font-specification:'Arial Bold';text-align:center;text-anchor:middle;stroke-width:0.248803"
         id="path647" /><path
         d="m 35.966766,25.181456 v -3.030304 h 0.611849 v 3.030304 z"
         style="font-weight:bold;font-family:Arial;-inkscape-font-specification:'Arial Bold';text-align:center;text-anchor:middle;stroke-width:0.248803"
         id="path649" /><path
         d="m 37.169793,23.684907 q 0,-0.46302 0.138493,-0.777213 0.103353,-0.23151 0.28112,-0.415478 0.179834,-0.183968 0.39274,-0.272851 0.283187,-0.119889 0.65319,-0.119889 0.669726,0 1.070735,0.415478 0.403075,0.415478 0.403075,1.155484 0,0.733805 -0.398941,1.149283 -0.398942,0.413411 -1.066601,0.413411 -0.675927,0 -1.074869,-0.411344 -0.398942,-0.413411 -0.398942,-1.136881 z m 0.630452,-0.02067 q 0,0.514697 0.237712,0.781347 0.237711,0.264583 0.60358,0.264583 0.365869,0 0.599446,-0.262516 0.235644,-0.264583 0.235644,-0.791682 0,-0.520898 -0.229443,-0.777213 -0.227376,-0.256315 -0.605647,-0.256315 -0.378271,0 -0.609781,0.260449 -0.231511,0.258382 -0.231511,0.781347 z"
         style="font-weight:bold;font-family:Arial;-inkscape-font-specification:'Arial Bold';text-align:center;text-anchor:middle;stroke-width:0.248803"
         id="path651" /><path
         d="m 40.72513,25.181456 v -3.030304 h 0.595312 l 1.240233,2.023647 v -2.023647 h 0.56844 v 3.030304 H 42.5152 L 41.29357,23.20535 v 1.976106 z"
         style="font-weight:bold;font-family:Arial;-inkscape-font-specification:'Arial Bold';text-align:center;text-anchor:middle;stroke-width:0.248803"
         id="path653" /></g></g></svg>
