<?xml version="1.0" encoding="UTF-8" standalone="no"?>
<!-- Created with Inkscape (http://www.inkscape.org/) -->

<svg
   width="54mm"
   height="37mm"
   viewBox="0 0 54 37"
   version="1.1"
   id="svg5037"
   sodipodi:docname="Sansible_Print_nur_A.svg"
   inkscape:version="1.2.2 (b0a8486541, 2022-12-01)"
   inkscape:export-filename="Sansible_Print_nur_A.jpg"
   inkscape:export-xdpi="300"
   inkscape:export-ydpi="300"
   xmlns:inkscape="http://www.inkscape.org/namespaces/inkscape"
   xmlns:sodipodi="http://sodipodi.sourceforge.net/DTD/sodipodi-0.dtd"
   xmlns="http://www.w3.org/2000/svg"
   xmlns:svg="http://www.w3.org/2000/svg">
  <sodipodi:namedview
     id="namedview5039"
     pagecolor="#ffffff"
     bordercolor="#666666"
     borderopacity="1.0"
     inkscape:showpageshadow="2"
     inkscape:pageopacity="0.0"
     inkscape:pagecheckerboard="0"
     inkscape:deskcolor="#d1d1d1"
     inkscape:document-units="mm"
     showgrid="false"
     showguides="true"
     inkscape:zoom="4.2523964"
     inkscape:cx="53.381665"
     inkscape:cy="63.846353"
     inkscape:window-width="1920"
     inkscape:window-height="1032"
     inkscape:window-x="0"
     inkscape:window-y="25"
     inkscape:window-maximized="1"
     inkscape:current-layer="layer1">
    <sodipodi:guide
       position="2.0000001,35.000001"
       orientation="-1,0"
       id="guide5426"
       inkscape:locked="false"
       inkscape:label=""
       inkscape:color="rgb(0,134,229)" />
    <sodipodi:guide
       position="2.0000001,35.000001"
       orientation="0,-1"
       id="guide5428"
       inkscape:locked="false" />
    <sodipodi:guide
       position="33.000001,35.000001"
       orientation="-1,0"
       id="guide5430"
       inkscape:locked="false"
       inkscape:label=""
       inkscape:color="rgb(0,134,229)" />
    <sodipodi:guide
       position="2,24.000001"
       orientation="0,1"
       id="guide5432"
       inkscape:locked="false"
       inkscape:label=""
       inkscape:color="rgb(0,134,229)" />
  </sodipodi:namedview>
  <defs
     id="defs5034" />
  <g
     inkscape:label="Ebene 1"
     inkscape:groupmode="layer"
     id="layer1"
     transform="translate(390.02049,158.37184)">
    <path
       d="m -390.02049,-158.37184 h 54 v 37 h -54 z"
       style="fill:#323335;fill-rule:evenodd;stroke-width:0.0221644"
       id="path550" />
    <path
       style="fill:#ffffff;fill-rule:evenodd;stroke-width:0.0105833"
       d="m -358.27172,-139.3882 c 0.0541,-0.0126 0.11546,-0.0201 0.16625,0.008 0.0348,0.0203 0.0366,0.0649 0.0388,0.10052 0.004,0.063 -0.0175,0.12703 -0.0622,0.1722 -0.0587,0.0606 -0.0833,0.15187 -0.062,0.23369 0.0193,0.0796 0.0686,0.14752 0.12138,0.20858 0.0473,0.0528 0.0995,0.10298 0.16394,0.13421 -0.0707,0.0379 -0.15549,0.0495 -0.23295,0.028 -0.0639,-0.0186 -0.12011,-0.059 -0.16362,-0.1086 -0.0253,-0.0363 -0.0235,-0.0903 0.006,-0.12413 0.0188,-0.0241 0.0504,-0.0352 0.0666,-0.0617 -0.002,-0.0308 -0.0367,-0.0448 -0.0621,-0.0517 -0.0889,-0.0102 -0.17981,-0.007 -0.26768,0.0105 -0.0748,0.0178 -0.15197,0.0211 -0.22827,0.0269 -0.10774,0.006 -0.21654,0.009 -0.32333,-0.009 -0.0377,-0.009 -0.0816,-0.0183 -0.10401,-0.0529 -0.0125,-0.10211 -0.007,-0.20754 0.0211,-0.3068 0.0203,-0.0676 0.0625,-0.13524 0.13218,-0.15981 0.0992,-0.0452 0.21018,-0.0438 0.31675,-0.049 0.0811,0.003 0.16182,0.0119 0.2431,0.013 0.0768,8.2e-4 0.15557,0.009 0.23063,-0.0123 z"
       id="path755" />
    <path
       style="fill:#ffffff;fill-rule:evenodd;stroke-width:0.0105833"
       d="m -366.51463,-139.40418 c 0.10437,-0.009 0.21135,-0.0188 0.30873,-0.0601 0.0594,0.0396 0.0893,0.10836 0.10753,0.17503 0.0248,0.089 0.0296,0.18203 0.0311,0.274 -4.4e-4,0.078 -0.0548,0.15738 -0.13303,0.17431 -0.11558,0.0328 -0.23677,0.0308 -0.35572,0.0308 -0.1127,0.0103 -0.22827,0.0179 -0.33896,-0.0103 -0.0477,-0.0137 -0.0996,-0.037 -0.12045,-0.0852 -0.0177,-0.046 -0.007,-0.10384 -0.0486,-0.13897 -0.0308,0.0217 -0.0304,0.0636 -0.0554,0.0898 -0.0287,0.0309 -0.0717,0.0444 -0.11292,0.045 -0.0794,0.005 -0.15484,-0.0403 -0.23433,-0.0215 -0.075,0.0107 -0.14509,0.0978 -0.1091,0.17206 0.0148,0.0356 0.048,0.0634 0.087,0.068 0.0653,0.009 0.12998,-0.0146 0.18796,-0.0425 0.0399,-0.0318 0.0754,-0.0781 0.13071,-0.0814 0.0434,0.002 0.0606,0.0476 0.0701,0.0829 -0.065,0.0965 -0.15421,0.17971 -0.2629,0.22374 -0.10141,0.0436 -0.22215,0.0474 -0.3226,-8.2e-4 -0.0785,-0.0368 -0.14149,-0.1032 -0.17715,-0.18173 -0.0699,-0.15397 -0.0465,-0.33886 0.0373,-0.48259 0.0829,-0.14648 0.23197,-0.26269 0.403,-0.27813 0.12066,-0.0133 0.24798,0.0368 0.32066,0.13547 0.0307,0.0377 0.0429,0.0896 0.0847,0.11799 0.0156,0.0123 0.0429,0.0206 0.057,0.002 0.0313,-0.0339 0.0171,-0.0869 0.0469,-0.1217 0.0357,-0.0492 0.098,-0.0677 0.15556,-0.0764 0.0803,-0.0139 0.16202,1.2e-4 0.24288,-0.009 z"
       id="path753" />
    <path
       style="fill:#ffffff;fill-rule:evenodd;stroke-width:0.0105833"
       d="m -357.97666,-139.47202 c 0.076,-0.0741 0.18457,-0.11662 0.29104,-0.10129 0.11272,0.0133 0.21188,0.0831 0.2774,0.17369 0.11459,0.15294 0.13565,0.37179 0.048,0.54226 -0.0587,0.12809 -0.19494,0.21995 -0.33739,0.21391 -0.0838,-0.002 -0.16405,-0.037 -0.22774,-0.0903 -0.0457,-0.0539 -0.062,-0.12892 -0.047,-0.19747 0.0217,-0.13241 0.11219,-0.25305 0.0902,-0.39181 -0.007,-0.0625 -0.0549,-0.10551 -0.0945,-0.14901 z"
       id="path751" />
    <path
       style="fill:#ffffff;fill-rule:evenodd;stroke-width:0.0105833"
       d="m -364.92691,-139.32744 c 0.5243,-0.0639 1.03536,-0.21051 1.52759,-0.3993 0.15683,0.0718 0.31505,0.14086 0.47423,0.20752 -0.43954,0.16657 -0.88846,0.30873 -1.34481,0.42111 -0.28132,0.0699 -0.56548,0.12899 -0.85239,0.17113 -0.0167,-0.12139 0.007,-0.25644 0.0974,-0.34524 0.0267,-0.0267 0.0581,-0.0538 0.098,-0.0552 z"
       id="path749" />
    <path
       style="fill:#ffffff;fill-rule:evenodd;stroke-width:0.0105833"
       d="m -364.33287,-139.96985 c 0.0992,-0.0267 0.19748,-0.0572 0.29716,-0.0818 0.0572,0.0237 0.10966,0.0583 0.16511,0.0862 0.0842,0.0455 0.16997,0.088 0.25515,0.13155 -0.43972,0.15356 -0.88855,0.2904 -1.35147,0.35157 -0.11272,0.0148 -0.23855,0.002 -0.32958,-0.0716 -0.0622,-0.0496 -0.0967,-0.12593 -0.10794,-0.20339 0.36142,-0.0467 0.71882,-0.12141 1.07157,-0.21251 z"
       id="path747" />
    <path
       style="fill:#ffffff;fill-rule:evenodd;stroke-width:0.0105833"
       d="m -359.29821,-140.58412 c 0.0555,-0.0137 0.11377,0.005 0.16014,0.036 0.0736,0.0509 0.1544,0.098 0.20489,0.17432 0.02,0.0295 0.0247,0.0727 -0.002,0.10009 -0.0427,0.0444 -0.10701,0.0555 -0.16425,0.0698 -0.0691,0.13513 -0.11029,0.28214 -0.1541,0.4268 -0.0552,0.19262 -0.1054,0.3866 -0.14944,0.58188 -0.0473,0.19876 -0.11428,0.39328 -0.20658,0.57571 -0.0678,0.13072 -0.14965,0.25539 -0.25272,0.36122 -0.12204,0.12266 -0.28396,0.21261 -0.459,0.22362 -0.11789,0.005 -0.24225,0.005 -0.35021,-0.0492 -0.0872,-0.0411 -0.15313,-0.12509 -0.16943,-0.22035 -0.002,-0.0636 0.0251,-0.12912 0.0729,-0.17166 0.0634,-0.054 0.15238,-0.0632 0.23227,-0.0542 0.11761,0.0195 0.2431,0.03 0.35679,-0.0139 0.06,-0.0221 0.11228,-0.0674 0.1365,-0.12733 0.0319,-0.0783 0.0243,-0.167 0.003,-0.2469 -0.0484,-0.11365 -0.11734,-0.23845 -0.0768,-0.36481 0.12277,-0.0728 0.21136,-0.19091 0.28162,-0.31282 0.0594,-0.1048 0.10564,-0.21656 0.14382,-0.33054 0.0292,-0.0831 0.048,-0.16934 0.0784,-0.25186 0.0395,-0.10521 0.0852,-0.21018 0.15652,-0.29815 0.0413,-0.0488 0.0929,-0.0945 0.15726,-0.10774 z"
       id="path745" />
    <path
       style="fill:#ffffff;fill-rule:evenodd;stroke-width:0.0105833"
       d="m -366.20029,-140.55564 c 0.0569,-0.0365 0.13176,-0.0444 0.19303,-0.0136 0.0901,0.0448 0.14744,0.13292 0.19421,0.21866 0.0446,0.0877 0.0809,0.17981 0.10763,0.27454 0.0595,0.21355 0.13863,0.42605 0.27105,0.60599 0.0562,0.0713 0.11864,0.14106 0.19896,0.18583 0.0183,0.0446 0.0166,0.0942 0.007,0.14076 -0.0149,0.0799 -0.0514,0.15337 -0.0837,0.22721 -0.0207,0.0861 -0.0294,0.18321 0.0134,0.26439 0.0241,0.0481 0.0684,0.0832 0.11738,0.10394 0.0767,0.0327 0.16202,0.0381 0.24447,0.0326 0.0673,-0.002 0.13304,-0.0237 0.20067,-0.0168 0.0759,0.003 0.15589,0.037 0.1944,0.10572 0.0253,0.0476 0.0438,0.10606 0.023,0.15875 -0.0244,0.0783 -0.0817,0.14532 -0.15536,0.1813 -0.10996,0.0569 -0.23759,0.0569 -0.35803,0.0514 -0.18054,-0.0119 -0.34555,-0.10796 -0.46905,-0.23633 -0.15419,-0.165 -0.2613,-0.36819 -0.34109,-0.57817 -0.0826,-0.21112 -0.12204,-0.43506 -0.18001,-0.65341 -0.0528,-0.1999 -0.10607,-0.40037 -0.17994,-0.59371 -0.0141,-0.0365 -0.0302,-0.0722 -0.0481,-0.10701 -0.0582,-0.0149 -0.12416,-0.0255 -0.1666,-0.0718 -0.0266,-0.0285 -0.0192,-0.072 0.002,-0.10128 0.054,-0.0783 0.1381,-0.12659 0.21506,-0.17897 z"
       id="path743" />
    <path
       style="fill:#ffffff;fill-rule:evenodd;stroke-width:0.0105833"
       d="m -368.28722,-145.35114 c 0.46493,0.64157 0.9871,1.24027 1.54093,1.80625 0.59214,0.60007 1.22397,1.16225 1.9015,1.66442 0.44567,0.33221 0.91102,0.63839 1.39561,0.91082 0.34238,0.19665 0.69755,0.37094 1.0596,0.52832 0.77861,0.33695 1.60166,0.57539 2.4439,0.68389 -0.0115,0.0883 -0.0574,0.17409 -0.13345,0.22255 -0.0905,0.0579 -0.20375,0.0654 -0.30789,0.0529 -0.19947,-0.0247 -0.39664,-0.066 -0.59139,-0.11558 -0.4448,-0.11133 -0.87672,-0.26869 -1.29888,-0.4466 -1.10733,-0.47593 -2.13294,-1.12467 -3.08946,-1.85418 0.28055,0.26512 0.58419,0.50481 0.89143,0.73817 0.3669,0.27434 0.74908,0.52822 1.14266,0.76284 0.71407,0.41604 1.47562,0.76328 2.28197,0.95557 0.20533,0.0489 0.41317,0.0876 0.62282,0.11355 0.0536,0.002 0.0922,0.0436 0.12532,0.0811 0.0725,0.0886 0.0879,0.20892 0.0755,0.31961 -0.4355,-0.0611 -0.86423,-0.16457 -1.28682,-0.28491 -0.82973,-0.24098 -1.63512,-0.57096 -2.38609,-0.99927 -0.51288,-0.29263 -0.99992,-0.6314 -1.44665,-1.01769 -0.48333,-0.39951 -0.93937,-0.83203 -1.36471,-1.29273 -0.12563,-0.13208 -0.24161,-0.27285 -0.36162,-0.40989 -0.27716,-0.33244 -0.53561,-0.68199 -0.75259,-1.05696 -0.23906,-0.41783 -0.4355,-0.87577 -0.46164,-1.36218 z"
       id="path737" />
    <path
       style="fill:#ffffff;fill-rule:evenodd;stroke-width:0.0105833"
       d="m -358.48169,-143.67199 c 0.5067,-0.52958 0.98899,-1.08437 1.41856,-1.67882 -0.0198,0.37868 -0.14552,0.74325 -0.31166,1.08119 -0.16893,0.34279 -0.37984,0.66325 -0.60918,0.96836 -0.18087,0.24321 -0.37961,0.47234 -0.5805,0.69902 -0.43835,0.47923 -0.90687,0.93132 -1.40705,1.34588 -0.42967,0.37433 -0.89746,0.70391 -1.38915,0.99155 -0.18743,-0.0604 -0.37412,-0.12297 -0.55793,-0.19357 0.34055,-0.20563 0.67234,-0.42618 0.99068,-0.66494 0.33095,-0.24373 0.65086,-0.50303 0.95344,-0.78136 -0.62885,0.47729 -1.28332,0.92316 -1.97505,1.30481 -0.0467,0.0258 -0.0934,0.0519 -0.14023,0.0777 -0.12147,-0.0503 -0.24308,-0.10055 -0.36448,-0.15114 0.0783,-0.0462 0.16128,-0.0839 0.24141,-0.12679 0.76781,-0.40302 1.48917,-0.8911 2.1647,-1.43392 0.55191,-0.44547 1.07504,-0.92646 1.56644,-1.43795 z"
       id="path735" />
    <path
       style="fill:#ffffff;fill-rule:evenodd;stroke-width:0.0105833"
       d="m -356.3385,-145.42352 c 0.16787,-0.0347 0.35306,0.0182 0.47136,0.14382 0.1159,0.11748 0.16374,0.2975 0.11818,0.45655 -0.0423,0.15306 -0.16653,0.27846 -0.31616,0.32862 -0.16202,0.0569 -0.35145,0.0265 -0.48682,-0.0794 -0.13082,-0.0984 -0.20692,-0.26691 -0.18457,-0.4302 0.0219,-0.20754 0.19484,-0.38207 0.39801,-0.41942 z"
       id="path552" />
    <path
       style="fill:#323335;fill-opacity:1;fill-rule:evenodd;stroke-width:0.0105833"
       d="m -356.32071,-145.34203 c -0.11704,0.0234 -0.22351,0.0969 -0.28511,0.1993 -0.0692,0.11672 -0.0699,0.27165 0.002,0.387 0.10373,0.18237 0.35316,0.26193 0.54304,0.17146 0.10814,-0.0474 0.19327,-0.14309 0.22921,-0.25558 0.0314,-0.10245 0.0172,-0.21833 -0.0402,-0.30903 -0.0889,-0.15144 -0.27937,-0.22977 -0.44977,-0.19315 z"
       id="path733" />
    <path
       style="fill:#ffffff;fill-rule:evenodd;stroke-width:0.0105833"
       d="m -356.4476,-145.23672 c 0.0844,4.3e-4 0.1687,-8.2e-4 0.25315,7.3e-4 0.0557,8.2e-4 0.11548,0.0118 0.15842,0.05 0.0572,0.0528 0.0601,0.14754 0.0189,0.2106 -0.0184,0.0307 -0.0511,0.048 -0.0822,0.0628 0.0429,0.0766 0.0859,0.15323 0.12847,0.23019 -0.0434,-2.2e-4 -0.0868,0 -0.12996,-3.3e-4 -0.0365,-0.0737 -0.074,-0.14711 -0.11079,-0.22066 -0.0397,-9e-5 -0.0793,-9e-5 -0.11865,-9e-5 -3.2e-4,0.0736 -2.4e-4,0.1473 -1.2e-4,0.22095 -0.0392,-9e-5 -0.0782,-9e-5 -0.11705,0 -1.1e-4,-0.18477 -1.1e-4,-0.36946 -1.1e-4,-0.55424 z"
       id="path739" />
    <path
       style="fill:#323335;fill-opacity:1;fill-rule:evenodd;stroke-width:0.0105833"
       d="m -356.33045,-145.1421 c -1.2e-4,0.0548 -1.2e-4,0.10964 -1.2e-4,0.16455 0.0606,-0.003 0.12469,0.01 0.18267,-0.0128 0.0592,-0.0232 0.0589,-0.12476 -0.003,-0.14372 -0.0588,-0.0136 -0.11991,-0.007 -0.17961,-0.008 z"
       id="path741" />
    <g
       fill="#1a1918"
       transform="matrix(0.09988295,0,0,0.09988295,-375.80174,-137.65798)"
       id="g5240"
       style="fill:#ffffff">
      <path
         d="m 67.5168,32.0035 c -0.54152,0 -1.12617,-0.13685 -1.53212,-0.68583 L 48.60118,8.45647 v 23.3187 H 44.63687 V 3.06097 c 0,-1.14253 0.94592,-2.0571 2.0278,-2.0571 0.62971,0 1.17084,0.1826 1.57485,0.73158 l 17.3396,22.8159 V 1.32375 h 3.96392 v 28.6681 c 0,1.18907 -0.94592,2.01175 -2.02625,2.01175"
         id="path5226"
         style="fill:#ffffff" />
      <path
         d="m 100.306,32.278 c -3.96276,0 -8.10693,-0.82347 -11.9803,-2.28584 l 0.94631,-3.2927 c 3.55797,1.14332 7.43099,1.96639 11.034,1.96639 4.99958,0 7.61163,-1.7834 7.61163,-4.29759 0,-2.28663 -2.02741,-3.42956 -9.00817,-6.72187 -6.98076,-3.29192 -9.72722,-5.39477 -9.72722,-9.51055 0,-5.16563 3.96276,-7.27006 11.4384,-7.27006 3.10813,0 7.88162,0.64087 10.63,1.46395 l -0.63087,3.38302 c -3.01839,-0.73119 -6.80051,-1.23402 -9.90864,-1.23402 -5.26839,0 -7.4306,1.00528 -7.4306,3.52066 0,2.46844 1.57562,3.52026 8.96194,6.94982 7.79188,3.61216 9.77345,5.4413 9.77345,9.18992 0,5.4417 -5.13515,8.13888 -11.71,8.13888"
         id="path5228"
         style="fill:#ffffff" />
      <path
         d="m 130.798,1.32367 h 4.09833 v 30.4511 H 130.798 Z"
         id="path5230"
         style="fill:#ffffff" />
      <path
         d="m 169.758,17.9669 h -10.1798 v 10.334 h 10.1798 c 3.46746,0 5.58422,-2.19514 5.58422,-5.2591 0,-2.88057 -2.2065,-5.07492 -5.58422,-5.07492 m -1.98274,-13.1685 h -8.19705 v 9.73929 h 8.19705 c 3.28838,0 5.67512,-2.10364 5.67512,-5.02957 0,-2.88057 -2.07208,-4.70972 -5.67512,-4.70972 m 2.02741,26.9766 h -12.2499 c -1.17162,0 -2.07247,-0.91497 -2.07247,-2.0575 V 3.38138 c 0,-1.09796 0.90086,-2.0575 2.07247,-2.0575 h 10.1332 c 6.21509,0 9.90786,3.06317 9.90786,7.86439 0,2.60569 -1.53134,5.02917 -3.8738,6.44659 3.4694,1.05182 5.80992,3.932 5.80992,7.40691 0,4.84657 -4.00743,8.73322 -9.72722,8.73322"
         id="path5232"
         style="fill:#ffffff" />
      <path
         d="m 199.212,31.7751 c -1.12422,0 -2.02547,-0.96032 -2.02547,-2.0575 V 1.324 h 4.09755 v 26.7479 h 16.304 v 3.70326 h -18.3761 z"
         id="path5234"
         style="fill:#ffffff" />
      <path
         d="m 245.526,32.278 c -8.3773,0 -13.4215,-3.10892 -13.4215,-9.37291 0,-2.97207 1.66691,-5.8069 4.90984,-7.13281 -2.61244,-1.64616 -3.96314,-3.97814 -3.96314,-6.53848 0,-5.66926 4.36987,-8.36802 12.5658,-8.36802 2.74763,0 6.62026,0.32063 9.86358,1.05261 l -0.45101,3.38302 c -3.42201,-0.54898 -6.62104,-0.86804 -9.72839,-0.86804 -5.31462,0 -8.15238,1.46237 -8.15238,4.98343 0,2.78947 2.61283,4.98382 6.08146,4.98382 h 7.02504 c 0.99098,0 1.75626,0.77733 1.75626,1.73726 0,1.00568 -0.76528,1.78301 -1.75626,1.78301 h -7.56501 c -3.9647,0 -6.48546,1.96561 -6.48546,4.98421 0,4.43484 4.09833,5.76075 9.23232,5.76075 2.79269,0 6.57442,-0.3648 9.63671,-1.09678 l 0.58697,3.33727 c -2.92827,0.82347 -6.757,1.37166 -10.1347,1.37166"
         id="path5236"
         style="fill:#ffffff" />
      <path
         d="M 14.138,7.0347 21.31571,25.019 10.47511,16.34967 14.13797,7.03474 Z M 26.8894,29.1624 15.8495,2.1878 C 15.53445,1.41047 14.90358,0.99873 14.13791,0.99873 c -0.76567,0 -1.44121,0.41174 -1.75626,1.18907 L 0.26375,31.7752 h 4.14456 l 4.79757,-12.1983 14.3142,11.7408 c 0.57571,0.47208 0.99098,0.68583 1.53212,0.68583 1.08033,0 2.02625,-0.82268 2.02625,-2.01135 0,-0.19285 -0.06798,-0.49968 -0.18918,-0.82978 z"
         id="path5238"
         style="fill:#ffffff" />
    </g>
  </g>
</svg>
