<?xml version="1.0" encoding="UTF-8" standalone="no"?>
<!-- Created with Inkscape (http://www.inkscape.org/) -->

<svg
   xmlns:dc="http://purl.org/dc/elements/1.1/"
   xmlns:cc="http://creativecommons.org/ns#"
   xmlns:rdf="http://www.w3.org/1999/02/22-rdf-syntax-ns#"
   xmlns:svg="http://www.w3.org/2000/svg"
   xmlns="http://www.w3.org/2000/svg"
   xmlns:sodipodi="http://sodipodi.sourceforge.net/DTD/sodipodi-0.dtd"
   xmlns:inkscape="http://www.inkscape.org/namespaces/inkscape"
   width="297mm"
   height="420mm"
   viewBox="0 0 297 420"
   version="1.1"
   id="svg8"
   inkscape:version="0.92.3 (2405546, 2018-03-11)"
   sodipodi:docname="BuchstabenvorlageBlackout_A_H_pfad.svg"
   inkscape:export-filename="/home/housemeista/Dropbox/Fla/Stencilkram Inkscape/Vorlagen/schildcyber.png"
   inkscape:export-xdpi="96"
   inkscape:export-ydpi="96">
  <defs
     id="defs2" />
  <sodipodi:namedview
     id="base"
     pagecolor="#ffffff"
     bordercolor="#666666"
     borderopacity="1.0"
     inkscape:pageopacity="0"
     inkscape:pageshadow="2"
     inkscape:zoom="0.35"
     inkscape:cx="-159.64903"
     inkscape:cy="981.74178"
     inkscape:document-units="mm"
     inkscape:current-layer="layer1"
     showgrid="true"
     inkscape:pagecheckerboard="true"
     inkscape:window-width="1920"
     inkscape:window-height="1031"
     inkscape:window-x="0"
     inkscape:window-y="25"
     inkscape:window-maximized="1"
     showguides="true"
     inkscape:guide-bbox="true">
    <inkscape:grid
       type="xygrid"
       id="grid3713" />
    <sodipodi:guide
       position="158.75,210"
       orientation="0,1"
       id="guide21"
       inkscape:locked="false"
       inkscape:label=""
       inkscape:color="rgb(0,0,255)" />
    <sodipodi:guide
       position="30,285"
       orientation="1,0"
       id="guide23"
       inkscape:locked="false"
       inkscape:label=""
       inkscape:color="rgb(0,0,255)" />
    <sodipodi:guide
       position="201.08334,315"
       orientation="0,1"
       id="guide25"
       inkscape:locked="false"
       inkscape:label=""
       inkscape:color="rgb(0,0,255)" />
    <sodipodi:guide
       position="312.20833,105"
       orientation="0,1"
       id="guide27"
       inkscape:locked="false"
       inkscape:label=""
       inkscape:color="rgb(0,0,255)" />
    <sodipodi:guide
       position="148,269.87499"
       orientation="1,0"
       id="guide51"
       inkscape:locked="false"
       inkscape:label=""
       inkscape:color="rgb(0,0,255)" />
    <sodipodi:guide
       position="178,341.31249"
       orientation="1,0"
       id="guide141"
       inkscape:locked="false"
       inkscape:label=""
       inkscape:color="rgb(0,0,255)" />
    <sodipodi:guide
       position="118,359.83333"
       orientation="1,0"
       id="guide143"
       inkscape:locked="false"
       inkscape:label=""
       inkscape:color="rgb(0,0,255)" />
    <sodipodi:guide
       position="63.500002,399.52082"
       orientation="0,1"
       id="guide145"
       inkscape:locked="false" />
  </sodipodi:namedview>
  <metadata
     id="metadata5">
    <rdf:RDF>
      <cc:Work
         rdf:about="">
        <dc:format>image/svg+xml</dc:format>
        <dc:type
           rdf:resource="http://purl.org/dc/dcmitype/StillImage" />
        <dc:title></dc:title>
      </cc:Work>
    </rdf:RDF>
  </metadata>
  <g
     inkscape:label="Ebene 1"
     inkscape:groupmode="layer"
     id="layer1"
     transform="translate(0,123)">
    <g
       aria-label="A"
       transform="rotate(90)"
       style="font-style:normal;font-variant:normal;font-weight:normal;font-stretch:normal;font-size:10.58333302px;line-height:1.25;font-family:'Blackout MidnightUmlauts';-inkscape-font-specification:'Blackout MidnightUmlauts';letter-spacing:0px;word-spacing:0px;fill:#000000;fill-opacity:1;stroke:none;stroke-width:0.26458332"
       id="text31">
      <path
         d="m -53.434178,-201.42421 q -4.33393,0 -17.452853,0 -1.874132,5.85666 -7.847927,23.54378 -5.739529,0 -22.958112,0 6.559457,-22.25532 26.237842,-89.25553 6.676595,0 26.823513,0 6.559462,22.37245 26.120714,89.25553 -5.739529,0 -22.840983,0 -2.108398,-5.85666 -8.082194,-23.54378 z"
         style="font-style:normal;font-variant:normal;font-weight:normal;font-stretch:normal;font-size:119.94444275px;font-family:'Blackout MidnightUmlauts';-inkscape-font-specification:'Blackout MidnightUmlauts';stroke-width:0.26458332"
         id="path857" />
    </g>
    <g
       aria-label="B"
       transform="rotate(90)"
       style="font-style:normal;font-variant:normal;font-weight:normal;font-stretch:normal;font-size:10.58333302px;line-height:1.25;font-family:'Blackout MidnightUmlauts';-inkscape-font-specification:'Blackout MidnightUmlauts';letter-spacing:0px;word-spacing:0px;fill:#000000;fill-opacity:1;stroke:none;stroke-width:0.26458332"
       id="text31-3">
      <path
         d="m 43.111718,-224.68942 q 5.388129,0 9.01926,2.22553 3.748264,2.22553 6.090929,5.50527 2.342665,3.39686 3.396864,7.37939 1.171332,3.8654 1.171332,7.26226 0,4.9196 -1.522732,9.37066 -1.522732,4.45106 -4.568196,7.96506 -2.811198,3.27973 -7.262262,5.271 -4.451063,1.99126 -10.307725,1.99126 -0.234267,0 -0.585666,0 -7.145128,0 -28.5805122,0 0,-22.25531 0,-89.25553 5.3881292,0 21.3182502,0 -0.234266,0 -1.171332,0 0.117133,0 0.585666,0 6.559462,0 11.479058,1.757 4.919596,1.63986 8.082194,4.45106 3.162598,2.92833 4.68533,6.79373 1.522732,3.8654 1.522732,8.19933 0,4.68533 -1.171332,8.55072 -1.288466,3.8654 -3.396865,6.55947 -1.874131,2.81119 -4.216796,4.33393 -2.459798,1.63986 -4.568197,1.63986 z"
         style="font-style:normal;font-variant:normal;font-weight:normal;font-stretch:normal;font-size:119.94444275px;font-family:'Blackout MidnightUmlauts';-inkscape-font-specification:'Blackout MidnightUmlauts';stroke-width:0.26458332"
         id="path860" />
    </g>
    <g
       aria-label="C"
       transform="rotate(90)"
       style="font-style:normal;font-variant:normal;font-weight:normal;font-stretch:normal;font-size:10.58333302px;line-height:1.25;font-family:'Blackout MidnightUmlauts';-inkscape-font-specification:'Blackout MidnightUmlauts';letter-spacing:0px;word-spacing:0px;fill:#000000;fill-opacity:1;stroke:none;stroke-width:0.26458332"
       id="text31-7">
      <path
         d="m 140.57533,-198.04846 q 5.15387,0.3514 8.55073,-2.57693 3.39686,-3.04547 5.15386,-7.26227 5.85666,3.27973 17.45286,9.72206 -1.0542,2.1084 -3.04547,5.50527 -1.99126,3.39686 -5.62239,6.55946 -3.514,3.27973 -9.1364,5.62239 -5.62239,2.34267 -13.70459,2.34267 -0.11713,0 -0.11713,0 -9.13639,0 -15.34446,-2.92833 -6.20806,-2.8112 -10.07345,-7.61366 -3.8654,-4.9196 -5.73953,-11.36193 -1.757,-6.44233 -2.1084,-13.35319 0,-6.20806 0,-18.50705 0.11713,-6.55946 2.22553,-13.00179 2.1084,-6.44233 6.20806,-11.47906 4.09967,-5.03673 10.42486,-8.08219 6.20806,-3.04547 14.52452,-3.04547 0,0 0.11714,0 7.26226,0 12.53325,2.1084 5.271,1.99127 9.01926,5.271 3.8654,3.16259 6.20807,7.26226 2.34266,4.09966 3.63113,8.19933 -5.85667,3.16259 -17.45286,9.72205 -0.7028,-2.22553 -1.87413,-4.45106 -1.28846,-2.34266 -3.1626,-4.09966 -1.757,-1.757 -3.98253,-2.92833 -2.34266,-1.0542 -4.80246,-0.93707 -6.20806,0.46853 -9.83919,4.9196 -3.63113,4.33393 -3.63113,10.89339 0,5.85666 0,17.45285 0,6.55946 3.74826,11.12766 3.63113,4.45106 9.83919,4.9196 z"
         style="font-style:normal;font-variant:normal;font-weight:normal;font-stretch:normal;font-size:119.94444275px;font-family:'Blackout MidnightUmlauts';-inkscape-font-specification:'Blackout MidnightUmlauts';stroke-width:0.26458332"
         id="path863" />
    </g>
    <g
       aria-label="D"
       transform="rotate(90)"
       style="font-style:normal;font-variant:normal;font-weight:normal;font-stretch:normal;font-size:10.58333302px;line-height:1.25;font-family:'Blackout MidnightUmlauts';-inkscape-font-specification:'Blackout MidnightUmlauts';letter-spacing:0px;word-spacing:0px;fill:#000000;fill-opacity:1;stroke:none;stroke-width:0.26458332"
       id="text31-7-3">
      <path
         d="m 269.50294,-222.65545 q 0,9.01926 -1.99126,17.10146 -2.1084,8.08219 -6.79373,14.17312 -4.68533,6.20806 -12.18186,9.72206 -7.61366,3.63113 -18.50705,3.63113 -0.81993,0 -2.57693,0 -4.5682,0 -18.03852,0 0,-22.25532 0,-89.25553 4.45106,0 18.03852,0 10.42486,0 18.27279,3.39686 7.96506,3.514 13.23605,9.48779 5.271,5.85667 7.84793,14.05599 2.69406,8.19933 2.69406,17.68712 z"
         style="font-style:normal;font-variant:normal;font-weight:normal;font-stretch:normal;font-size:119.94444275px;font-family:'Blackout MidnightUmlauts';-inkscape-font-specification:'Blackout MidnightUmlauts';stroke-width:0.26458332"
         id="path866" />
    </g>
    <g
       style="font-style:normal;font-variant:normal;font-weight:normal;font-stretch:normal;font-size:40px;line-height:1.25;font-family:'Blackout MidnightUmlauts';-inkscape-font-specification:'Blackout MidnightUmlauts';letter-spacing:0px;word-spacing:0px;fill:#000000;fill-opacity:1;stroke:none"
       id="flowRoot131" />
    <g
       aria-label="E"
       transform="rotate(90)"
       style="font-style:normal;font-variant:normal;font-weight:normal;font-stretch:normal;font-size:10.58333302px;line-height:1.25;font-family:'Blackout MidnightUmlauts';-inkscape-font-specification:'Blackout MidnightUmlauts';letter-spacing:0px;word-spacing:0px;fill:#000000;fill-opacity:1;stroke:none;stroke-width:0.26458332"
       id="text31-36">
      <path
         d="m -45.915798,-99.200364 q -8.667861,0 -34.55431,0 0,3.631131 0,14.40739 6.325196,0 25.417916,0 0,5.03673 0,20.146919 -6.325196,0 -25.417916,0 0,3.631131 0,14.40739 8.667861,0 34.55431,0 0,5.03673 0,20.14692 -13.704591,0 -54.701232,0 0,-22.255318 0,-89.255535 13.704593,0 54.701232,0 0,5.03673 0,20.146916 z"
         style="font-style:normal;font-variant:normal;font-weight:normal;font-stretch:normal;font-size:119.94445038px;font-family:'Blackout MidnightUmlauts';-inkscape-font-specification:'Blackout MidnightUmlauts';stroke-width:0.26458332"
         id="path870" />
    </g>
    <g
       aria-label="F"
       transform="rotate(90)"
       style="font-style:normal;font-variant:normal;font-weight:normal;font-stretch:normal;font-size:10.58333302px;line-height:1.25;font-family:'Blackout MidnightUmlauts';-inkscape-font-specification:'Blackout MidnightUmlauts';letter-spacing:0px;word-spacing:0px;fill:#000000;fill-opacity:1;stroke:none;stroke-width:0.26458332"
       id="text31-3-5">
      <path
         d="m 63.93092,-99.156053 q -8.66786,0 -34.554309,0 0,3.631131 0,14.40739 6.325196,0 25.417916,0 0,5.03673 0,20.14692 -6.325196,0 -25.417916,0 0,8.66786 0,34.554309 -5.03673,0 -20.1469194,0 0,-22.255318 0,-89.255536 13.7045904,0 54.7012284,0 0,5.03673 0,20.146917 z"
         style="font-style:normal;font-variant:normal;font-weight:normal;font-stretch:normal;font-size:119.94445038px;font-family:'Blackout MidnightUmlauts';-inkscape-font-specification:'Blackout MidnightUmlauts';stroke-width:0.26458332"
         id="path873" />
    </g>
    <g
       aria-label="G"
       transform="rotate(90)"
       style="font-style:normal;font-variant:normal;font-weight:normal;font-stretch:normal;font-size:10.58333302px;line-height:1.25;font-family:'Blackout MidnightUmlauts';-inkscape-font-specification:'Blackout MidnightUmlauts';letter-spacing:0px;word-spacing:0px;fill:#000000;fill-opacity:1;stroke:none;stroke-width:0.26458332"
       id="text31-7-5">
      <path
         d="m 170.76518,-46.980047 q -2.34266,3.162598 -5.50526,6.208063 -3.1626,3.162597 -7.14513,5.388129 -3.74826,2.225532 -8.43359,3.631131 -4.68533,1.405599 -9.8392,1.405599 -0.11713,0 -0.11713,0 -8.08219,0 -14.17312,-2.694065 -6.09093,-2.576931 -10.30773,-7.262261 -4.09966,-4.68533 -6.32519,-11.127659 -2.34267,-6.442329 -2.57694,-14.173124 0,-6.208062 0,-18.507054 0,-7.145128 2.1084,-13.587457 2.22553,-6.559465 6.44233,-11.361925 4.2168,-4.9196 10.42486,-7.7308 6.20806,-2.92833 14.40739,-2.92833 0,0 0.11713,0 8.0822,0.3514 13.23606,2.8112 5.03673,2.4598 8.0822,5.73953 3.16259,3.1626 4.68533,6.44233 1.52273,3.27973 2.81119,5.03673 -5.62239,3.631131 -16.63292,10.893392 -0.58566,-1.288466 -1.4056,-2.928331 -0.7028,-1.756999 -2.22553,-3.162598 -1.28846,-1.405599 -3.27973,-2.459798 -2.1084,-1.0542 -5.15386,-1.0542 -5.9738,0 -9.60493,4.099664 -3.514,3.982531 -3.514,10.541993 0,5.856663 0,17.452855 0,3.162597 1.0542,6.090929 1.17134,2.811198 2.92833,4.802463 1.87414,1.874132 4.45107,3.162598 2.4598,1.171332 5.50526,1.171332 4.2168,0.117134 6.79373,-1.405599 2.57693,-1.639865 3.8654,-3.98253 0,-1.522732 0,-4.451064 -2.34267,0 -9.4878,0 0,-4.33393 0,-17.335721 7.26226,0 28.81478,0 0,7.847928 0,31.274578 z"
         style="font-style:normal;font-variant:normal;font-weight:normal;font-stretch:normal;font-size:119.94445038px;font-family:'Blackout MidnightUmlauts';-inkscape-font-specification:'Blackout MidnightUmlauts';stroke-width:0.26458332"
         id="path876" />
    </g>
    <g
       aria-label="H"
       transform="rotate(90)"
       style="font-style:normal;font-variant:normal;font-weight:normal;font-stretch:normal;font-size:10.58333302px;line-height:1.25;font-family:'Blackout MidnightUmlauts';-inkscape-font-specification:'Blackout MidnightUmlauts';letter-spacing:0px;word-spacing:0px;fill:#000000;fill-opacity:1;stroke:none;stroke-width:0.26458332"
       id="text31-7-3-2">
      <path
         d="m 252.60524,-119.49453 q 5.03673,0 20.14692,0 0,22.37245 0,89.255537 -5.03673,0 -20.14692,0 0,-8.66786 0,-34.554309 -5.97379,0 -23.89518,0 0,8.667861 0,34.554309 -5.03673,0 -20.14692,0 0,-22.255318 0,-89.255537 5.03673,0 20.14692,0 0,8.66786 0,34.554308 5.9738,0 23.89518,0 0,-8.66786 0,-34.554308 z"
         style="font-style:normal;font-variant:normal;font-weight:normal;font-stretch:normal;font-size:119.94445038px;font-family:'Blackout MidnightUmlauts';-inkscape-font-specification:'Blackout MidnightUmlauts';stroke-width:0.26458332"
         id="path879" />
    </g>
    <path
       style="fill:none;stroke:#000000;stroke-width:0.26458332px;stroke-linecap:butt;stroke-linejoin:miter;stroke-opacity:1"
       d="M 148.16666,-115.75 148,286.41667"
       id="path849"
       inkscape:connector-curvature="0" />
    <path
       style="fill:none;stroke:#000000;stroke-width:0.26458332px;stroke-linecap:butt;stroke-linejoin:miter;stroke-opacity:1"
       d="M 10.583333,191.16667 285.75,192"
       id="path851"
       inkscape:connector-curvature="0" />
    <path
       style="fill:none;stroke:#000000;stroke-width:0.26458332px;stroke-linecap:butt;stroke-linejoin:miter;stroke-opacity:1"
       d="M 285.75,86.999998 10.583333,85.333329"
       id="path853"
       inkscape:connector-curvature="0" />
    <path
       style="fill:none;stroke:#000000;stroke-width:0.26458332px;stroke-linecap:butt;stroke-linejoin:miter;stroke-opacity:1"
       d="M 10.583333,-18 H 285.75"
       id="path855"
       inkscape:connector-curvature="0" />
  </g>
</svg>
