<?xml version="1.0" encoding="UTF-8" standalone="no"?>
<!-- Created with Inkscape (http://www.inkscape.org/) -->

<svg
   xmlns:dc="http://purl.org/dc/elements/1.1/"
   xmlns:cc="http://creativecommons.org/ns#"
   xmlns:rdf="http://www.w3.org/1999/02/22-rdf-syntax-ns#"
   xmlns:svg="http://www.w3.org/2000/svg"
   xmlns="http://www.w3.org/2000/svg"
   xmlns:sodipodi="http://sodipodi.sourceforge.net/DTD/sodipodi-0.dtd"
   xmlns:inkscape="http://www.inkscape.org/namespaces/inkscape"
   width="297mm"
   height="420mm"
   viewBox="0 0 297 420"
   version="1.1"
   id="svg8"
   inkscape:version="0.92.3 (2405546, 2018-03-11)"
   sodipodi:docname="BuchstabenvorlageBlackout_30_pFAD.svg"
   inkscape:export-filename="/home/housemeista/Dropbox/Fla/Stencilkram Inkscape/Vorlagen/schildcyber.png"
   inkscape:export-xdpi="96"
   inkscape:export-ydpi="96">
  <defs
     id="defs2" />
  <sodipodi:namedview
     id="base"
     pagecolor="#ffffff"
     bordercolor="#666666"
     borderopacity="1.0"
     inkscape:pageopacity="0"
     inkscape:pageshadow="2"
     inkscape:zoom="0.49497475"
     inkscape:cx="240.86459"
     inkscape:cy="849.3687"
     inkscape:document-units="mm"
     inkscape:current-layer="layer1"
     showgrid="true"
     inkscape:pagecheckerboard="true"
     inkscape:window-width="1920"
     inkscape:window-height="1031"
     inkscape:window-x="0"
     inkscape:window-y="25"
     inkscape:window-maximized="1"
     showguides="true"
     inkscape:guide-bbox="true">
    <inkscape:grid
       type="xygrid"
       id="grid3713" />
    <sodipodi:guide
       position="158.75,210"
       orientation="0,1"
       id="guide21"
       inkscape:locked="false"
       inkscape:label=""
       inkscape:color="rgb(0,0,255)" />
    <sodipodi:guide
       position="30,285"
       orientation="1,0"
       id="guide23"
       inkscape:locked="false"
       inkscape:label=""
       inkscape:color="rgb(0,0,255)" />
    <sodipodi:guide
       position="201.08334,315"
       orientation="0,1"
       id="guide25"
       inkscape:locked="false"
       inkscape:label=""
       inkscape:color="rgb(0,0,255)" />
    <sodipodi:guide
       position="312.20833,105"
       orientation="0,1"
       id="guide27"
       inkscape:locked="false"
       inkscape:label=""
       inkscape:color="rgb(0,0,255)" />
    <sodipodi:guide
       position="148,269.87499"
       orientation="1,0"
       id="guide51"
       inkscape:locked="false"
       inkscape:label=""
       inkscape:color="rgb(0,0,255)" />
    <sodipodi:guide
       position="178,341.31249"
       orientation="1,0"
       id="guide141"
       inkscape:locked="false"
       inkscape:label=""
       inkscape:color="rgb(0,0,255)" />
    <sodipodi:guide
       position="118,359.83333"
       orientation="1,0"
       id="guide143"
       inkscape:locked="false"
       inkscape:label=""
       inkscape:color="rgb(0,0,255)" />
    <sodipodi:guide
       position="63.500002,399.52082"
       orientation="0,1"
       id="guide145"
       inkscape:locked="false" />
  </sodipodi:namedview>
  <metadata
     id="metadata5">
    <rdf:RDF>
      <cc:Work
         rdf:about="">
        <dc:format>image/svg+xml</dc:format>
        <dc:type
           rdf:resource="http://purl.org/dc/dcmitype/StillImage" />
        <dc:title></dc:title>
      </cc:Work>
    </rdf:RDF>
  </metadata>
  <g
     inkscape:label="Ebene 1"
     inkscape:groupmode="layer"
     id="layer1"
     transform="translate(0,123)">
    <g
       aria-label="3"
       transform="rotate(90)"
       style="font-style:normal;font-variant:normal;font-weight:normal;font-stretch:normal;font-size:10.58333302px;line-height:1.25;font-family:'Blackout MidnightUmlauts';-inkscape-font-specification:'Blackout MidnightUmlauts';letter-spacing:0px;word-spacing:0px;fill:#000000;fill-opacity:1;stroke:none;stroke-width:0.26458332"
       id="text31">
      <path
         d="m -44.067661,-205.64101 q 0,4.5682 -1.171332,8.31646 -1.288466,4.2168 -3.865397,7.84793 -2.459798,3.51399 -5.973796,6.20806 -3.513997,2.4598 -7.730794,3.98253 -4.216797,1.4056 -8.784993,1.4056 -5.856663,0 -10.776259,-2.1084 -5.036729,-2.22553 -8.784993,-5.9738 -3.748264,-3.74826 -5.973796,-8.78499 -2.108398,-5.03673 -2.108398,-10.89339 2.225532,0 6.559462,0 3.396864,0 13.587456,0 0,3.1626 2.108398,5.38813 2.225532,2.22553 5.38813,2.22553 2.459798,0 4.33393,-1.52273 1.991265,-1.52273 2.694064,-3.74827 0.3514,-0.81993 0.3514,-2.22553 0,-3.04546 -2.108398,-5.73953 -2.225532,-2.57693 -5.270996,-2.57693 -1.991266,0 -5.856663,0 0,-4.33393 0,-17.33572 1.522733,0 5.856663,0 3.045464,0 5.270996,-2.57693 2.108398,-2.69406 2.108398,-5.73953 0,-1.28846 -0.3514,-2.22553 -0.702799,-2.22553 -2.694064,-3.74826 -1.874132,-1.52274 -4.33393,-1.52274 -3.162598,0 -5.38813,2.22554 -2.108398,2.10839 -2.108398,5.27099 -6.676595,0 -20.146918,0 0,-5.62239 2.108398,-10.65912 2.225532,-5.03673 5.973796,-8.785 3.748264,-3.86539 8.784993,-5.97379 4.919596,-2.22553 10.776259,-2.22553 4.568196,0 8.784993,1.40559 4.216797,1.52274 7.730794,4.09967 3.513998,2.57693 5.973796,6.09093 2.576931,3.63113 3.865397,7.84792 1.171332,3.74827 1.171332,8.19933 0,4.9196 -1.639865,9.25353 -1.639866,4.21679 -4.451064,7.73079 2.811198,3.514 4.451064,7.7308 1.639865,4.21679 1.639865,9.13639 z"
         style="font-style:normal;font-variant:normal;font-weight:normal;font-stretch:normal;font-size:119.94444275px;font-family:'Blackout MidnightUmlauts';-inkscape-font-specification:'Blackout MidnightUmlauts';stroke-width:0.26458332"
         id="path918" />
    </g>
    <g
       style="font-style:normal;font-variant:normal;font-weight:normal;font-stretch:normal;font-size:40px;line-height:1.25;font-family:'Blackout MidnightUmlauts';-inkscape-font-specification:'Blackout MidnightUmlauts';letter-spacing:0px;word-spacing:0px;fill:#000000;fill-opacity:1;stroke:none"
       id="flowRoot131" />
    <g
       aria-label="7"
       transform="rotate(90)"
       style="font-style:normal;font-variant:normal;font-weight:normal;font-stretch:normal;font-size:10.58333302px;line-height:1.25;font-family:'Blackout MidnightUmlauts';-inkscape-font-specification:'Blackout MidnightUmlauts';letter-spacing:0px;word-spacing:0px;fill:#000000;fill-opacity:1;stroke:none;stroke-width:0.26458332"
       id="text31-36">
      <path
         d="m -51.477568,-119.34728 q 1.991265,0 8.199328,0 0,5.38813 0,21.318248 -9.019261,16.984322 -36.077042,67.937287 -5.270996,0 -21.318248,0 9.019256,-16.984322 35.959904,-67.937287 -8.784993,0 -35.257108,0 0,-5.270998 0,-21.318248 11.830458,0 47.2047,0 0,0 0,0 0.3514,0 1.288466,0 0,0 0,0 z"
         style="font-style:normal;font-variant:normal;font-weight:normal;font-stretch:normal;font-size:119.94445038px;font-family:'Blackout MidnightUmlauts';-inkscape-font-specification:'Blackout MidnightUmlauts';stroke-width:0.26458332"
         id="path922" />
    </g>
    <g
       style="font-style:normal;font-variant:normal;font-weight:normal;font-stretch:normal;font-size:42.33333206px;line-height:1.25;font-family:'Blackout MidnightUmlauts';-inkscape-font-specification:'Blackout MidnightUmlauts';letter-spacing:0px;word-spacing:0px;fill:#000000;fill-opacity:1;stroke:none;stroke-width:0.26458332"
       id="text3534" />
    <g
       style="font-style:normal;font-variant:normal;font-weight:normal;font-stretch:normal;font-size:42.33333206px;line-height:1.25;font-family:'Blackout MidnightUmlauts';-inkscape-font-specification:'Blackout MidnightUmlauts';letter-spacing:0px;word-spacing:0px;fill:#000000;fill-opacity:1;stroke:none;stroke-width:0.26458332"
       id="text3538" />
    <g
       aria-label="4"
       transform="rotate(90)"
       style="font-style:normal;font-variant:normal;font-weight:normal;font-stretch:normal;font-size:10.58333302px;line-height:1.25;font-family:'Blackout MidnightUmlauts';-inkscape-font-specification:'Blackout MidnightUmlauts';letter-spacing:0px;word-spacing:0px;fill:#000000;fill-opacity:1;stroke:none;stroke-width:0.26458332"
       id="text31-1">
      <path
         d="m 65.377704,-219.87812 q 0,5.03673 0,20.14692 -2.694065,0 -10.776259,0 0,5.73953 0,22.60672 -5.03673,0 -20.14692,0 0,-5.6224 0,-22.60672 -7.379394,0 -29.4004459,0 0,-5.03673 0,-20.14692 0,0 0,0 7.3793949,-11.47906 29.4004459,-46.26763 0,0 0,-0.23427 5.03673,0 20.14692,0 0,11.59619 0,46.5019 2.694065,0 10.776259,0 z"
         style="font-style:normal;font-variant:normal;font-weight:normal;font-stretch:normal;font-size:119.94445038px;font-family:'Blackout MidnightUmlauts';-inkscape-font-specification:'Blackout MidnightUmlauts';stroke-width:0.26458332"
         id="path927" />
    </g>
    <g
       aria-label="5"
       transform="rotate(90)"
       style="font-style:normal;font-variant:normal;font-weight:normal;font-stretch:normal;font-size:10.58333302px;line-height:1.25;font-family:'Blackout MidnightUmlauts';-inkscape-font-specification:'Blackout MidnightUmlauts';letter-spacing:0px;word-spacing:0px;fill:#000000;fill-opacity:1;stroke:none;stroke-width:0.26458332"
       id="text31-9">
      <path
         d="m 134.91963,-246.75478 q 0,2.57693 0,10.30772 0.3514,-0.81993 1.4056,-1.52273 1.17133,-0.58567 2.34267,-1.0542 1.28846,-0.46853 2.57693,-0.7028 1.4056,-0.11713 2.34266,-0.11713 7.028,0 12.06473,2.22553 4.91959,2.34266 8.08219,5.85666 3.1626,3.63113 4.68533,8.0822 1.52273,4.56819 1.52273,8.90212 0,1.0542 0,3.27973 0,0.11714 0,0.3514 0,2.1084 0,8.0822 0,5.73953 -2.10839,10.42486 -2.22554,4.56819 -6.09093,7.96506 -3.63113,3.27973 -8.66786,5.15386 -5.03673,1.757 -10.65913,1.757 -5.85666,0 -10.77626,-2.1084 -5.03673,-2.22553 -8.78499,-5.97379 -3.74827,-3.74827 -5.9738,-8.785 -2.1084,-5.03673 -2.1084,-10.89339 6.6766,0 20.14692,0 0,3.1626 2.34267,5.38813 2.34266,2.22553 5.50526,2.22553 3.04546,0 5.271,-1.87413 2.22553,-1.87413 2.22553,-4.9196 0,-2.92833 0,-8.78499 0,-2.92833 -1.87413,-5.15386 -1.99127,-2.34267 -5.6224,-2.34267 -3.1626,0 -5.50526,2.22553 -2.34267,2.1084 -2.34267,5.271 -6.67659,0 -20.14692,0 0,-13.35319 0,-53.41276 13.35319,0 53.5299,0 0,5.03673 0,20.14692 -8.31646,0 -33.38298,0 z"
         style="font-style:normal;font-variant:normal;font-weight:normal;font-stretch:normal;font-size:119.94445038px;font-family:'Blackout MidnightUmlauts';-inkscape-font-specification:'Blackout MidnightUmlauts';stroke-width:0.26458332"
         id="path930" />
    </g>
    <g
       aria-label="6"
       transform="rotate(90)"
       style="font-style:normal;font-variant:normal;font-weight:normal;font-stretch:normal;font-size:10.58333302px;line-height:1.25;font-family:'Blackout MidnightUmlauts';-inkscape-font-specification:'Blackout MidnightUmlauts';letter-spacing:0px;word-spacing:0px;fill:#000000;fill-opacity:1;stroke:none;stroke-width:0.26458332"
       id="text31-6">
      <path
         d="m 271.31983,-206.49915 q 0,5.73953 -1.757,10.65913 -1.757,5.03673 -5.15386,8.78499 -3.1626,3.74827 -8.08219,5.9738 -4.9196,2.1084 -11.36193,2.1084 -6.55946,0 -11.71333,-1.87413 -5.15386,-1.99127 -8.78499,-5.271 -3.39686,-3.514 -5.38813,-8.19933 -1.87413,-4.68533 -1.87413,-10.19059 0,-12.29899 0,-36.66271 0,-5.15386 1.87413,-10.19059 1.99127,-4.9196 5.50526,-8.785 3.63114,-3.86539 8.785,-6.20806 5.15386,-2.34266 11.59619,-2.34266 5.6224,0 10.42486,1.99126 4.9196,1.99127 8.31646,5.6224 3.63113,3.39686 5.6224,8.31646 1.99126,4.80246 1.99126,10.54199 -6.32519,0 -18.97558,0 0,-3.04546 -2.1084,-5.271 -2.22554,-2.22553 -5.271,-2.22553 -3.1626,0 -5.38813,2.22553 -2.1084,2.22554 -2.1084,5.271 0,0 -0.11713,0 0,3.27973 0,12.76753 0.23427,-0.81994 1.28846,-1.757 0.93707,-0.93707 2.34267,-1.52274 1.4056,-0.58566 2.8112,-0.93706 1.4056,-0.46853 2.34266,-0.46853 12.18186,0 18.74132,7.37939 6.44233,7.49653 6.44233,20.02979 0,0.11713 0,0.23426 z"
         style="font-style:normal;font-variant:normal;font-weight:normal;font-stretch:normal;font-size:119.94445038px;font-family:'Blackout MidnightUmlauts';-inkscape-font-specification:'Blackout MidnightUmlauts';stroke-width:0.26458332"
         id="path933" />
    </g>
    <g
       aria-label="8"
       transform="rotate(90)"
       style="font-style:normal;font-variant:normal;font-weight:normal;font-stretch:normal;font-size:10.58333302px;line-height:1.25;font-family:'Blackout MidnightUmlauts';-inkscape-font-specification:'Blackout MidnightUmlauts';letter-spacing:0px;word-spacing:0px;fill:#000000;fill-opacity:1;stroke:none;stroke-width:0.26458332"
       id="text31-62">
      <path
         d="m 64.3359,-57.65546 q 0,6.090929 -1.991265,11.479059 -1.991265,5.270996 -5.505263,9.01926 -3.63113,3.865397 -8.784994,6.090929 -5.036729,2.108399 -11.244792,2.108399 -6.325195,0 -11.361925,-2.108399 -5.153863,-2.108398 -8.667861,-5.856662 -3.631131,-3.748264 -5.622396,-9.019261 -1.9912654,-5.270996 -1.9912654,-11.713325 0,0 0,-0.117133 0,-2.459799 0.8199328,-5.153863 0.7027996,-2.694065 1.9912656,-5.270997 1.288465,-2.576931 2.811198,-4.919596 1.522732,-2.342665 3.045464,-4.099664 -2.928331,-3.396865 -5.153863,-7.730795 -2.342665,-4.216797 -2.342665,-9.253527 0,0 0,-0.117133 0,-5.622396 2.108399,-10.073462 1.991265,-4.45106 5.505263,-7.49653 3.396864,-3.04546 8.31646,-4.68533 4.802464,-1.63986 10.541993,-1.63986 5.622396,0 10.42486,1.63986 4.919596,1.63987 8.316461,4.68533 3.513997,3.04547 5.505262,7.49653 2.108399,4.451066 2.108399,10.073462 0,0 0,0.117133 0,5.03673 -2.342665,9.253527 -2.225532,4.33393 -5.153863,7.730795 1.522732,1.756999 2.928331,4.099664 1.522732,2.342665 2.694065,4.919596 1.405599,2.576932 2.225532,5.270997 0.819932,2.694064 0.819932,5.153863 0,0.117133 0,0.117133 z"
         style="font-style:normal;font-variant:normal;font-weight:normal;font-stretch:normal;font-size:119.94445038px;font-family:'Blackout MidnightUmlauts';-inkscape-font-specification:'Blackout MidnightUmlauts';stroke-width:0.26458332"
         id="path936" />
    </g>
    <g
       aria-label="9"
       transform="rotate(90)"
       style="font-style:normal;font-variant:normal;font-weight:normal;font-stretch:normal;font-size:10.58333302px;line-height:1.25;font-family:'Blackout MidnightUmlauts';-inkscape-font-specification:'Blackout MidnightUmlauts';letter-spacing:0px;word-spacing:0px;fill:#000000;fill-opacity:1;stroke:none;stroke-width:0.26458332"
       id="text31-18">
      <path
         d="m 111.18568,-92.550341 q 0,-5.856662 1.757,-10.776259 1.757,-5.03673 4.9196,-8.66786 3.39686,-3.8654 8.31646,-6.09093 4.9196,-2.1084 11.36193,-2.1084 6.55946,0 11.71332,1.87413 5.15386,1.99127 8.55073,5.50527 3.63113,3.27973 5.50526,7.96506 1.99127,4.68533 1.99127,10.190591 0,12.298991 0,36.779841 0,5.270996 -1.4056,10.190593 -1.4056,4.919596 -4.5682,8.667861 -3.27973,3.865397 -8.55073,6.208062 -5.27099,2.342665 -13.23605,2.342665 -5.6224,0 -10.42486,-1.991265 -4.9196,-1.991266 -8.4336,-5.38813 -3.514,-3.631131 -5.50526,-8.550727 -1.99127,-4.802464 -1.99127,-10.541993 6.3252,0 18.97559,0 0,3.045465 2.1084,5.270996 2.22553,2.225532 5.271,2.225532 3.16259,0 5.27099,-2.225532 2.22553,-2.225531 2.22553,-5.270996 0,0 0.11714,0 0,-3.162598 0,-12.767525 -0.23427,0.937066 -1.28847,1.874132 -1.0542,0.819933 -2.4598,1.4056 -1.28846,0.585666 -2.69406,1.054199 -1.4056,0.3514 -2.34267,0.3514 -12.18186,0 -18.74132,-7.379395 -6.44233,-7.496529 -6.44233,-20.029787 0,-0.117133 0,-0.117133 z"
         style="font-style:normal;font-variant:normal;font-weight:normal;font-stretch:normal;font-size:119.94445038px;font-family:'Blackout MidnightUmlauts';-inkscape-font-specification:'Blackout MidnightUmlauts';stroke-width:0.26458332"
         id="path939" />
    </g>
    <g
       aria-label="0"
       transform="rotate(90)"
       style="font-style:normal;font-variant:normal;font-weight:normal;font-stretch:normal;font-size:10.58333302px;line-height:1.25;font-family:'Blackout MidnightUmlauts';-inkscape-font-specification:'Blackout MidnightUmlauts';letter-spacing:0px;word-spacing:0px;fill:#000000;fill-opacity:1;stroke:none;stroke-width:0.26458332"
       id="text31-2">
      <path
         d="m 267.60404,-56.707567 q 0,0 0.11714,0.117133 0,0 -0.11714,0 0,5.622396 -1.99126,10.424859 -1.99127,4.802464 -5.6224,8.316461 -3.514,3.396864 -8.55072,5.38813 -5.03673,1.991265 -11.12766,1.991265 -6.09093,0 -11.12766,-1.991265 -5.15387,-1.991266 -8.785,-5.270997 -3.63113,-3.513997 -5.73953,-8.082194 -1.99126,-4.568197 -1.99126,-9.604927 0,-12.650391 0,-38.068307 0,-5.622396 1.99126,-10.424861 1.99127,-4.80246 5.6224,-8.19933 3.514,-3.63113 8.66786,-5.62239 5.03673,-1.99127 11.36193,-1.99127 6.09093,0 11.12766,1.99127 5.03672,1.99126 8.55072,5.62239 3.63113,3.39687 5.6224,8.19933 1.99126,4.802465 1.99126,10.424861 0,0.117134 0,0.117134 0,0 0.11714,0 0,0 -0.11714,0 0,0.819932 0.11714,1.522732 0,0.819933 0,1.405599 0,10.307726 0,30.806045 0,0.585667 0,1.288466 -0.11714,0.819933 -0.11714,1.522732 0,0 0,0.117134 z"
         style="font-style:normal;font-variant:normal;font-weight:normal;font-stretch:normal;font-size:119.94445038px;font-family:'Blackout MidnightUmlauts';-inkscape-font-specification:'Blackout MidnightUmlauts';stroke-width:0.26458332"
         id="path942" />
    </g>
    <path
       style="fill:none;stroke:#000000;stroke-width:0.26458332px;stroke-linecap:butt;stroke-linejoin:miter;stroke-opacity:1"
       d="M 148.16666,-115.75 148,291.70833"
       id="path910"
       inkscape:connector-curvature="0" />
    <path
       style="fill:none;stroke:#000000;stroke-width:0.26458332px;stroke-linecap:butt;stroke-linejoin:miter;stroke-opacity:1"
       d="M 5.2916666,192 H 291.04166"
       id="path912"
       inkscape:connector-curvature="0" />
    <path
       style="fill:none;stroke:#000000;stroke-width:0.26458332px;stroke-linecap:butt;stroke-linejoin:miter;stroke-opacity:1"
       d="M 5.2916666,85.333329 291.04166,86.999998"
       id="path914"
       inkscape:connector-curvature="0" />
    <path
       style="fill:none;stroke:#000000;stroke-width:0.26458332px;stroke-linecap:butt;stroke-linejoin:miter;stroke-opacity:1"
       d="M 5.2916666,-18 H 291.04166"
       id="path916"
       inkscape:connector-curvature="0" />
  </g>
</svg>
