<?xml version="1.0" encoding="UTF-8" standalone="no"?>
<!-- Created with Inkscape (http://www.inkscape.org/) -->

<svg
   xmlns:dc="http://purl.org/dc/elements/1.1/"
   xmlns:cc="http://creativecommons.org/ns#"
   xmlns:rdf="http://www.w3.org/1999/02/22-rdf-syntax-ns#"
   xmlns:svg="http://www.w3.org/2000/svg"
   xmlns="http://www.w3.org/2000/svg"
   xmlns:sodipodi="http://sodipodi.sourceforge.net/DTD/sodipodi-0.dtd"
   xmlns:inkscape="http://www.inkscape.org/namespaces/inkscape"
   width="297mm"
   height="420mm"
   viewBox="0 0 297 420"
   version="1.1"
   id="svg8"
   inkscape:version="0.92.3 (2405546, 2018-03-11)"
   sodipodi:docname="BuchstabenvorlageBlackout_I-Q_Pfad.svg"
   inkscape:export-filename="/home/housemeista/Dropbox/Fla/Stencilkram Inkscape/Vorlagen/schildcyber.png"
   inkscape:export-xdpi="96"
   inkscape:export-ydpi="96">
  <defs
     id="defs2" />
  <sodipodi:namedview
     id="base"
     pagecolor="#ffffff"
     bordercolor="#666666"
     borderopacity="1.0"
     inkscape:pageopacity="0"
     inkscape:pageshadow="2"
     inkscape:zoom="0.49497476"
     inkscape:cx="-241.21848"
     inkscape:cy="823.11954"
     inkscape:document-units="mm"
     inkscape:current-layer="layer1"
     showgrid="true"
     inkscape:pagecheckerboard="true"
     inkscape:window-width="1920"
     inkscape:window-height="1031"
     inkscape:window-x="0"
     inkscape:window-y="25"
     inkscape:window-maximized="1"
     showguides="true"
     inkscape:guide-bbox="true">
    <inkscape:grid
       type="xygrid"
       id="grid3713" />
    <sodipodi:guide
       position="158.75,210"
       orientation="0,1"
       id="guide21"
       inkscape:locked="false"
       inkscape:label=""
       inkscape:color="rgb(0,0,255)" />
    <sodipodi:guide
       position="30,285"
       orientation="1,0"
       id="guide23"
       inkscape:locked="false"
       inkscape:label=""
       inkscape:color="rgb(0,0,255)" />
    <sodipodi:guide
       position="201.08334,315"
       orientation="0,1"
       id="guide25"
       inkscape:locked="false"
       inkscape:label=""
       inkscape:color="rgb(0,0,255)" />
    <sodipodi:guide
       position="312.20833,105"
       orientation="0,1"
       id="guide27"
       inkscape:locked="false"
       inkscape:label=""
       inkscape:color="rgb(0,0,255)" />
    <sodipodi:guide
       position="148,269.87499"
       orientation="1,0"
       id="guide51"
       inkscape:locked="false"
       inkscape:label=""
       inkscape:color="rgb(0,0,255)" />
    <sodipodi:guide
       position="178,341.31249"
       orientation="1,0"
       id="guide141"
       inkscape:locked="false"
       inkscape:label=""
       inkscape:color="rgb(0,0,255)" />
    <sodipodi:guide
       position="118,359.83333"
       orientation="1,0"
       id="guide143"
       inkscape:locked="false"
       inkscape:label=""
       inkscape:color="rgb(0,0,255)" />
    <sodipodi:guide
       position="63.500002,399.52082"
       orientation="0,1"
       id="guide145"
       inkscape:locked="false" />
  </sodipodi:namedview>
  <metadata
     id="metadata5">
    <rdf:RDF>
      <cc:Work
         rdf:about="">
        <dc:format>image/svg+xml</dc:format>
        <dc:type
           rdf:resource="http://purl.org/dc/dcmitype/StillImage" />
        <dc:title></dc:title>
      </cc:Work>
    </rdf:RDF>
  </metadata>
  <g
     inkscape:label="Ebene 1"
     inkscape:groupmode="layer"
     id="layer1"
     transform="translate(0,123)">
    <g
       aria-label="I"
       transform="rotate(90)"
       style="font-style:normal;font-variant:normal;font-weight:normal;font-stretch:normal;font-size:10.58333302px;line-height:1.25;font-family:'Blackout MidnightUmlauts';-inkscape-font-specification:'Blackout MidnightUmlauts';letter-spacing:0px;word-spacing:0px;fill:#000000;fill-opacity:1;stroke:none;stroke-width:0.26458332"
       id="text31">
      <path
         d="m -59.20894,-267.13596 q 0,22.37245 0,89.25553 -5.036729,0 -20.146918,0 0,-22.25532 0,-89.25553 5.03673,0 20.146918,0 z"
         style="font-style:normal;font-variant:normal;font-weight:normal;font-stretch:normal;font-size:119.94444275px;font-family:'Blackout MidnightUmlauts';-inkscape-font-specification:'Blackout MidnightUmlauts';stroke-width:0.26458332"
         id="path1545" />
    </g>
    <g
       aria-label="J"
       transform="rotate(90)"
       style="font-style:normal;font-variant:normal;font-weight:normal;font-stretch:normal;font-size:10.58333302px;line-height:1.25;font-family:'Blackout MidnightUmlauts';-inkscape-font-specification:'Blackout MidnightUmlauts';letter-spacing:0px;word-spacing:0px;fill:#000000;fill-opacity:1;stroke:none;stroke-width:0.26458332"
       id="text31-3">
      <path
         d="m 62.540276,-205.27831 q 0,6.79373 -2.225532,11.83046 -2.225532,5.15386 -6.090929,8.66786 -3.63113,3.27973 -8.66786,5.03673 -5.036729,1.63987 -10.659125,1.63987 -5.856662,0 -10.776259,-1.757 -5.036729,-1.757 -8.784993,-5.03673 -3.748264,-3.514 -5.9737955,-8.785 -2.1083984,-5.15386 -2.1083984,-12.18185 0,-2.92833 0,-8.785 5.1538629,0 20.4983179,0 0,1.87414 0,7.61366 0,3.1626 1.991265,5.38813 1.991265,2.22554 5.153863,2.22554 3.045464,0 5.153863,-2.22554 1.991265,-2.22553 1.991265,-5.38813 0,-20.02978 0,-60.32362 5.153863,0 20.498318,0 0,15.46159 0,62.08062 z"
         style="font-style:normal;font-variant:normal;font-weight:normal;font-stretch:normal;font-size:119.94444275px;font-family:'Blackout MidnightUmlauts';-inkscape-font-specification:'Blackout MidnightUmlauts';stroke-width:0.26458332"
         id="path1548" />
    </g>
    <g
       aria-label="K"
       transform="rotate(90)"
       style="font-style:normal;font-variant:normal;font-weight:normal;font-stretch:normal;font-size:10.58333302px;line-height:1.25;font-family:'Blackout MidnightUmlauts';-inkscape-font-specification:'Blackout MidnightUmlauts';letter-spacing:0px;word-spacing:0px;fill:#000000;fill-opacity:1;stroke:none;stroke-width:0.26458332"
       id="text31-7">
      <path
         d="m 167.17211,-267.35629 q -8.31646,11.2448 -33.26584,44.7449 8.31646,11.12766 33.14871,44.51064 -6.20806,0 -24.94938,0 -3.63113,-4.80247 -14.40739,-19.32699 0,4.80246 0,19.32699 -5.03673,0 -20.14692,0 0,-22.25532 0,-89.25554 5.03673,0 20.14692,0 0,5.15387 0,20.73259 3.63113,-5.15386 14.52452,-20.73259 6.20806,0 24.94938,0 z"
         style="font-style:normal;font-variant:normal;font-weight:normal;font-stretch:normal;font-size:119.94444275px;font-family:'Blackout MidnightUmlauts';-inkscape-font-specification:'Blackout MidnightUmlauts';stroke-width:0.26458332"
         id="path1551" />
    </g>
    <g
       aria-label="L"
       transform="rotate(90)"
       style="font-style:normal;font-variant:normal;font-weight:normal;font-stretch:normal;font-size:10.58333302px;line-height:1.25;font-family:'Blackout MidnightUmlauts';-inkscape-font-specification:'Blackout MidnightUmlauts';letter-spacing:0px;word-spacing:0px;fill:#000000;fill-opacity:1;stroke:none;stroke-width:0.26458332"
       id="text31-7-3">
      <path
         d="m 233.96941,-197.91727 q 5.9738,0 23.89518,0 0,5.03673 0,20.14691 -11.01052,0 -44.0421,0 0,-22.25531 0,-89.25553 5.03673,0 20.14692,0 0,17.33572 0,69.10862 z"
         style="font-style:normal;font-variant:normal;font-weight:normal;font-stretch:normal;font-size:119.94444275px;font-family:'Blackout MidnightUmlauts';-inkscape-font-specification:'Blackout MidnightUmlauts';stroke-width:0.26458332"
         id="path1554" />
    </g>
    <g
       aria-label="N"
       transform="rotate(90)"
       style="font-style:normal;font-variant:normal;font-weight:normal;font-stretch:normal;font-size:10.58333302px;line-height:1.25;font-family:'Blackout MidnightUmlauts';-inkscape-font-specification:'Blackout MidnightUmlauts';letter-spacing:0px;word-spacing:0px;fill:#000000;fill-opacity:1;stroke:none;stroke-width:0.26458332"
       id="text31-6">
      <path
         d="m -57.193591,-119.10646 q 5.270996,0 21.318251,0 0,22.372454 0,89.255536 -5.03673,0 -20.381185,0 -5.973795,-11.010525 -24.012315,-43.924966 0,11.010525 0,43.924966 -5.270996,0 -21.31825,0 0,-22.255316 0,-89.255536 5.153862,0 20.498317,0 5.973796,11.01053 23.895182,43.807837 0,-11.010525 0,-43.807837 z"
         style="font-style:normal;font-variant:normal;font-weight:normal;font-stretch:normal;font-size:119.94444275px;font-family:'Blackout MidnightUmlauts';-inkscape-font-specification:'Blackout MidnightUmlauts';stroke-width:0.26458332"
         id="path1557" />
    </g>
    <g
       aria-label="O"
       transform="rotate(90)"
       style="font-style:normal;font-variant:normal;font-weight:normal;font-stretch:normal;font-size:10.58333302px;line-height:1.25;font-family:'Blackout MidnightUmlauts';-inkscape-font-specification:'Blackout MidnightUmlauts';letter-spacing:0px;word-spacing:0px;fill:#000000;fill-opacity:1;stroke:none;stroke-width:0.26458332"
       id="text31-3-9">
      <path
         d="m 68.828328,-65.377516 q 0,6.442329 -1.874131,13.118923 -1.991266,6.676595 -6.793729,11.713325 -4.919596,5.270996 -11.244791,7.965061 -6.325195,2.811198 -13.35319,2.811198 -0.117133,0 -0.117133,0 -7.027995,0 -13.236057,-2.811198 -6.325195,-2.694065 -11.361925,-7.847928 -4.6853296,-5.036729 -6.6765947,-11.361925 -1.9912652,-6.442328 -2.1083984,-13.587456 0,-6.910861 0,-20.849718 0,-5.739529 2.3426649,-11.713324 2.2255316,-5.973792 6.4423282,-10.541992 5.03673,-5.15386 11.244792,-7.84793 6.208062,-2.8112 13.35319,-2.8112 0,0 0.117133,0 7.027995,0 13.35319,2.8112 6.325195,2.69407 11.244791,7.84793 4.33393,4.5682 6.442329,10.307726 2.108398,5.739529 2.225531,11.94759 0,6.910862 0,20.849718 z"
         style="font-style:normal;font-variant:normal;font-weight:normal;font-stretch:normal;font-size:119.94444275px;font-family:'Blackout MidnightUmlauts';-inkscape-font-specification:'Blackout MidnightUmlauts';stroke-width:0.26458332"
         id="path1560" />
    </g>
    <g
       aria-label="P"
       transform="rotate(90)"
       style="font-style:normal;font-variant:normal;font-weight:normal;font-stretch:normal;font-size:10.58333302px;line-height:1.25;font-family:'Blackout MidnightUmlauts';-inkscape-font-specification:'Blackout MidnightUmlauts';letter-spacing:0px;word-spacing:0px;fill:#000000;fill-opacity:1;stroke:none;stroke-width:0.26458332"
       id="text31-7-2">
      <path
         d="m 139.01991,-119.35095 q 5.85667,0 10.542,2.10839 4.56819,1.99127 7.84792,5.85667 3.39687,3.63113 5.15387,9.01926 1.87413,5.388126 1.87413,11.947588 0,6.442329 -1.87413,11.713325 -1.757,5.270996 -5.15387,9.136393 -3.27973,3.865397 -7.84792,5.973795 -4.68533,2.108399 -10.542,2.108399 0,0 -0.11713,0 -1.63986,0 -6.55946,0 0,7.847927 0,31.391709 -5.15386,0 -20.49832,0 0,-22.255316 0,-89.255529 6.79373,0 27.05778,0 0.11713,0 0.11713,0 z"
         style="font-style:normal;font-variant:normal;font-weight:normal;font-stretch:normal;font-size:119.94444275px;font-family:'Blackout MidnightUmlauts';-inkscape-font-specification:'Blackout MidnightUmlauts';stroke-width:0.26458332"
         id="path1563" />
    </g>
    <g
       aria-label="Q"
       transform="rotate(90)"
       style="font-style:normal;font-variant:normal;font-weight:normal;font-stretch:normal;font-size:10.58333302px;line-height:1.25;font-family:'Blackout MidnightUmlauts';-inkscape-font-specification:'Blackout MidnightUmlauts';letter-spacing:0px;word-spacing:0px;fill:#000000;fill-opacity:1;stroke:none;stroke-width:0.26458332"
       id="text31-7-3-0">
      <path
         d="m 266.78557,-30.051186 q -3.63113,0 -14.64166,0 -2.34266,0 -6.67659,0.117134 -4.2168,0 -10.07346,0 -0.11713,0 -0.11713,0 -4.68533,0 -8.19933,-0.7028 -3.63113,-0.702799 -6.44233,-2.108398 -2.8112,-1.288466 -5.15386,-3.279731 -2.4598,-2.108399 -4.80247,-4.568197 -4.80246,-5.036729 -6.79372,-11.361924 -1.99127,-6.442329 -1.99127,-13.587457 0,-6.910861 0,-20.849717 0.46853,-6.442329 2.4598,-12.064725 1.99126,-5.622399 6.32519,-10.190589 4.9196,-5.15387 11.2448,-7.84793 6.20806,-2.8112 13.35319,-2.8112 0,0 0.11713,0 6.91086,0 13.23606,2.8112 6.32519,2.69406 11.36192,7.84793 4.2168,4.56819 6.09093,10.190589 1.99126,5.622396 2.57693,12.064725 0,0.819932 0,2.576931 0,2.811198 0,11.010525 0,1.522732 0,6.090929 0,0.585666 0,2.576931 -0.11713,3.98253 -0.7028,7.027995 -0.58566,3.045464 -2.57693,6.559462 4.09966,-0.234267 12.18186,-0.585667 0,5.153863 0,20.849718 -2.69407,0 -10.77626,0.234266 z"
         style="font-style:normal;font-variant:normal;font-weight:normal;font-stretch:normal;font-size:119.94444275px;font-family:'Blackout MidnightUmlauts';-inkscape-font-specification:'Blackout MidnightUmlauts';stroke-width:0.26458332"
         id="path1566" />
    </g>
    <g
       style="font-style:normal;font-variant:normal;font-weight:normal;font-stretch:normal;font-size:40px;line-height:1.25;font-family:'Blackout MidnightUmlauts';-inkscape-font-specification:'Blackout MidnightUmlauts';letter-spacing:0px;word-spacing:0px;fill:#000000;fill-opacity:1;stroke:none"
       id="flowRoot131" />
    <path
       style="fill:none;stroke:#000000;stroke-width:0.26458332px;stroke-linecap:butt;stroke-linejoin:miter;stroke-opacity:1"
       d="M 148,-115.75 V 291.70833"
       id="path1537"
       inkscape:connector-curvature="0" />
    <path
       style="fill:none;stroke:#000000;stroke-width:0.26458332px;stroke-linecap:butt;stroke-linejoin:miter;stroke-opacity:1"
       d="M 10.583333,185.875 H 291.04166"
       id="path1539"
       inkscape:connector-curvature="0" />
    <path
       style="fill:none;stroke:#000000;stroke-width:0.26458332px;stroke-linecap:butt;stroke-linejoin:miter;stroke-opacity:1"
       d="M 291.04166,85.333329 H 5.2916666"
       id="path1541"
       inkscape:connector-curvature="0" />
    <path
       style="fill:none;stroke:#000000;stroke-width:0.26458332px;stroke-linecap:butt;stroke-linejoin:miter;stroke-opacity:1"
       d="M 10.583333,-15.208336 H 291.04166"
       id="path1543"
       inkscape:connector-curvature="0" />
  </g>
</svg>
