<?xml version="1.0" encoding="UTF-8" standalone="no"?>
<!-- Created with Inkscape (http://www.inkscape.org/) -->

<svg
   xmlns:dc="http://purl.org/dc/elements/1.1/"
   xmlns:cc="http://creativecommons.org/ns#"
   xmlns:rdf="http://www.w3.org/1999/02/22-rdf-syntax-ns#"
   xmlns:svg="http://www.w3.org/2000/svg"
   xmlns="http://www.w3.org/2000/svg"
   xmlns:sodipodi="http://sodipodi.sourceforge.net/DTD/sodipodi-0.dtd"
   xmlns:inkscape="http://www.inkscape.org/namespaces/inkscape"
   width="297mm"
   height="420mm"
   viewBox="0 0 297 420"
   version="1.1"
   id="svg8"
   inkscape:version="0.92.3 (2405546, 2018-03-11)"
   sodipodi:docname="BuchstabenvorlageBlackout_R-Z_Pfad.svg"
   inkscape:export-filename="/home/housemeista/Dropbox/Fla/Stencilkram Inkscape/Vorlagen/schildcyber.png"
   inkscape:export-xdpi="96"
   inkscape:export-ydpi="96">
  <defs
     id="defs2" />
  <sodipodi:namedview
     id="base"
     pagecolor="#ffffff"
     bordercolor="#666666"
     borderopacity="1.0"
     inkscape:pageopacity="0"
     inkscape:pageshadow="2"
     inkscape:zoom="0.49497474"
     inkscape:cx="172.64227"
     inkscape:cy="833.33717"
     inkscape:document-units="mm"
     inkscape:current-layer="layer1"
     showgrid="true"
     inkscape:pagecheckerboard="true"
     inkscape:window-width="1920"
     inkscape:window-height="1031"
     inkscape:window-x="0"
     inkscape:window-y="25"
     inkscape:window-maximized="1"
     showguides="true"
     inkscape:guide-bbox="true">
    <inkscape:grid
       type="xygrid"
       id="grid3713" />
    <sodipodi:guide
       position="158.75,210"
       orientation="0,1"
       id="guide21"
       inkscape:locked="false"
       inkscape:label=""
       inkscape:color="rgb(0,0,255)" />
    <sodipodi:guide
       position="30,285"
       orientation="1,0"
       id="guide23"
       inkscape:locked="false"
       inkscape:label=""
       inkscape:color="rgb(0,0,255)" />
    <sodipodi:guide
       position="201.08334,315"
       orientation="0,1"
       id="guide25"
       inkscape:locked="false"
       inkscape:label=""
       inkscape:color="rgb(0,0,255)" />
    <sodipodi:guide
       position="312.20833,105"
       orientation="0,1"
       id="guide27"
       inkscape:locked="false"
       inkscape:label=""
       inkscape:color="rgb(0,0,255)" />
    <sodipodi:guide
       position="148,269.87499"
       orientation="1,0"
       id="guide51"
       inkscape:locked="false"
       inkscape:label=""
       inkscape:color="rgb(0,0,255)" />
    <sodipodi:guide
       position="178,341.31249"
       orientation="1,0"
       id="guide141"
       inkscape:locked="false"
       inkscape:label=""
       inkscape:color="rgb(0,0,255)" />
    <sodipodi:guide
       position="118,359.83333"
       orientation="1,0"
       id="guide143"
       inkscape:locked="false"
       inkscape:label=""
       inkscape:color="rgb(0,0,255)" />
    <sodipodi:guide
       position="63.500002,399.52082"
       orientation="0,1"
       id="guide145"
       inkscape:locked="false" />
  </sodipodi:namedview>
  <metadata
     id="metadata5">
    <rdf:RDF>
      <cc:Work
         rdf:about="">
        <dc:format>image/svg+xml</dc:format>
        <dc:type
           rdf:resource="http://purl.org/dc/dcmitype/StillImage" />
        <dc:title></dc:title>
      </cc:Work>
    </rdf:RDF>
  </metadata>
  <g
     inkscape:label="Ebene 1"
     inkscape:groupmode="layer"
     id="layer1"
     transform="translate(0,123)">
    <g
       aria-label="R"
       transform="rotate(90)"
       style="font-style:normal;font-variant:normal;font-weight:normal;font-stretch:normal;font-size:10.58333302px;line-height:1.25;font-family:'Blackout MidnightUmlauts';-inkscape-font-specification:'Blackout MidnightUmlauts';letter-spacing:0px;word-spacing:0px;fill:#000000;fill-opacity:1;stroke:none;stroke-width:0.26458332"
       id="text31">
      <path
         d="m -69.554487,-177.88043 q -2.928331,-7.26226 -11.947591,-29.04905 0,0 -0.234267,0 0,7.26226 0,29.04905 -5.036729,0 -20.146915,0 0,-22.25532 0,-89.25553 6.793726,0 27.057777,0 0.117133,0 0.117133,0 7.730794,0 12.884657,2.34266 5.03673,2.34267 8.082194,6.3252 3.045464,3.86539 4.451063,9.01926 1.288466,5.27099 1.288466,11.01052 0,5.9738 -1.991265,10.65913 -1.991265,4.68533 -4.802463,7.96506 -2.576932,3.04546 -5.388129,4.68533 -2.694065,1.63986 -4.333931,1.63986 6.090929,11.83046 18.155653,35.60851 -5.739529,0 -23.192382,0 z"
         style="font-style:normal;font-variant:normal;font-weight:normal;font-stretch:normal;font-size:119.94444275px;font-family:'Blackout MidnightUmlauts';-inkscape-font-specification:'Blackout MidnightUmlauts';stroke-width:0.26458332"
         id="path1528" />
    </g>
    <g
       aria-label="S"
       transform="rotate(90)"
       style="font-style:normal;font-variant:normal;font-weight:normal;font-stretch:normal;font-size:10.58333302px;line-height:1.25;font-family:'Blackout MidnightUmlauts';-inkscape-font-specification:'Blackout MidnightUmlauts';letter-spacing:0px;word-spacing:0px;fill:#000000;fill-opacity:1;stroke:none;stroke-width:0.26458332"
       id="text31-3">
      <path
         d="m 68.525499,-198.5687 q -0.234266,4.33393 -2.459798,8.08219 -2.225532,3.74826 -6.208062,6.67659 -3.865397,2.69407 -9.37066,4.33393 -5.505262,1.63987 -12.416124,1.63987 -5.388129,0 -10.190592,-1.4056 -4.68533,-1.52273 -8.550727,-4.09966 -3.865397,-2.69407 -6.559462,-6.44233 -2.694064,-3.74827 -3.8653966,-8.55073 6.4423286,-2.69406 19.2098526,-8.08219 -0.234267,0.11713 0.468533,1.757 0.819932,1.52273 2.225531,3.27973 1.522732,1.757 3.631131,3.04546 2.108398,1.4056 4.451063,1.0542 1.991265,-0.23427 3.98253,-1.757 1.991266,-1.63986 1.874132,-4.91959 -0.117133,-2.1084 -1.639865,-3.74827 -1.405599,-1.757 -4.216797,-3.74826 -6.090929,-4.09967 -11.361925,-7.14513 -5.153862,-3.04546 -9.136393,-6.3252 -3.865397,-3.39686 -6.090929,-7.61366 -2.225531,-4.21679 -2.225531,-10.54199 0,-5.85666 2.459798,-10.30772 2.342665,-4.45107 6.325195,-7.49653 3.982531,-2.92833 9.136393,-4.5682 5.153863,-1.52273 10.659126,-1.63986 6.559461,0 11.596191,1.87413 4.919596,1.87413 8.31646,4.68533 3.513998,2.92833 5.388129,6.55946 1.874132,3.74826 2.576932,7.26226 -5.973796,2.34267 -17.68712,7.028 -0.3514,-1.4056 -1.054199,-2.92834 -0.7028,-1.63986 -2.108399,-3.04546 -1.171332,-1.4056 -2.928331,-2.34266 -1.756999,-0.93707 -3.98253,-0.93707 -2.459798,0 -4.33393,1.52273 -1.991265,1.4056 -1.991265,4.45107 0,2.22553 1.874132,3.98253 1.756998,1.75699 5.739529,4.68533 5.505262,3.04546 10.659125,6.20806 5.036729,3.16259 9.01926,7.02799 3.98253,3.98253 6.325195,9.01926 2.459798,4.9196 2.459798,11.83046 0,0.46853 0,1.63987 z"
         style="font-style:normal;font-variant:normal;font-weight:normal;font-stretch:normal;font-size:119.94444275px;font-family:'Blackout MidnightUmlauts';-inkscape-font-specification:'Blackout MidnightUmlauts';stroke-width:0.26458332"
         id="path1531" />
    </g>
    <g
       aria-label="T"
       transform="rotate(90)"
       style="font-style:normal;font-variant:normal;font-weight:normal;font-stretch:normal;font-size:10.58333302px;line-height:1.25;font-family:'Blackout MidnightUmlauts';-inkscape-font-specification:'Blackout MidnightUmlauts';letter-spacing:0px;word-spacing:0px;fill:#000000;fill-opacity:1;stroke:none;stroke-width:0.26458332"
       id="text31-7">
      <path
         d="m 166.57891,-267.50848 q 0,5.03673 0,20.14692 -5.03673,0 -20.26405,0 0,17.33572 0,69.10862 -5.03673,0 -20.14692,0 0,-17.21859 0,-69.10862 -5.03673,0 -20.26405,0 0,-5.03673 0,-20.14692 15.11019,0 60.67502,0 z"
         style="font-style:normal;font-variant:normal;font-weight:normal;font-stretch:normal;font-size:119.94444275px;font-family:'Blackout MidnightUmlauts';-inkscape-font-specification:'Blackout MidnightUmlauts';stroke-width:0.26458332"
         id="path1534" />
    </g>
    <g
       aria-label="U"
       transform="rotate(90)"
       style="font-style:normal;font-variant:normal;font-weight:normal;font-stretch:normal;font-size:10.58333302px;line-height:1.25;font-family:'Blackout MidnightUmlauts';-inkscape-font-specification:'Blackout MidnightUmlauts';letter-spacing:0px;word-spacing:0px;fill:#000000;fill-opacity:1;stroke:none;stroke-width:0.26458332"
       id="text31-7-3">
      <path
         d="m 273.95401,-213.63619 q 0,7.84793 -2.1084,14.52453 -2.1084,6.55946 -6.20806,11.36192 -3.98253,4.68533 -9.95633,7.26226 -5.73953,2.4598 -13.23606,2.4598 -0.3514,0 -0.70279,0 0,0 -0.11714,0 -0.3514,0 -0.7028,0 -8.19932,0 -14.17312,-2.8112 -6.09093,-2.8112 -9.95633,-7.73079 -3.74826,-5.03673 -5.50526,-11.47906 -1.757,-6.55946 -1.757,-13.58746 0,-17.92138 0,-53.76416 5.15387,0 20.73259,0 0,13.00179 0,52.24143 0,3.1626 0.7028,6.09093 0.58566,2.8112 2.10839,5.03673 1.4056,2.1084 3.514,3.39686 2.22553,1.28847 5.15387,1.28847 3.04546,0 5.27099,-1.28847 2.1084,-1.28846 3.39687,-3.39686 1.40559,-2.22553 2.10839,-5.03673 0.7028,-2.92833 0.7028,-6.09093 0,-17.45285 0,-52.24143 5.15387,0 20.73259,0 0,13.47033 0,53.76416 z"
         style="font-style:normal;font-variant:normal;font-weight:normal;font-stretch:normal;font-size:119.94444275px;font-family:'Blackout MidnightUmlauts';-inkscape-font-specification:'Blackout MidnightUmlauts';stroke-width:0.26458332"
         id="path1537" />
    </g>
    <g
       style="font-style:normal;font-variant:normal;font-weight:normal;font-stretch:normal;font-size:40px;line-height:1.25;font-family:'Blackout MidnightUmlauts';-inkscape-font-specification:'Blackout MidnightUmlauts';letter-spacing:0px;word-spacing:0px;fill:#000000;fill-opacity:1;stroke:none"
       id="flowRoot131" />
    <g
       aria-label="V"
       transform="rotate(90)"
       style="font-style:normal;font-variant:normal;font-weight:normal;font-stretch:normal;font-size:10.58333302px;line-height:1.25;font-family:'Blackout MidnightUmlauts';-inkscape-font-specification:'Blackout MidnightUmlauts';letter-spacing:0px;word-spacing:0px;fill:#000000;fill-opacity:1;stroke:none;stroke-width:0.26458332"
       id="text31-36">
      <path
         d="m -51.780716,-118.81812 q 5.973796,0 23.77805,0 -7.145128,22.372455 -28.697647,89.255542 -4.451063,0 -17.921387,0 -6.910862,-22.255318 -27.52631,-89.255542 5.973791,0 23.778046,0 3.396864,10.07346 13.470324,40.293842 3.279731,-10.073459 13.118924,-40.293842 z"
         style="font-style:normal;font-variant:normal;font-weight:normal;font-stretch:normal;font-size:119.94445038px;font-family:'Blackout MidnightUmlauts';-inkscape-font-specification:'Blackout MidnightUmlauts';stroke-width:0.26458332"
         id="path1541" />
    </g>
    <g
       aria-label="X"
       transform="rotate(90)"
       style="font-style:normal;font-variant:normal;font-weight:normal;font-stretch:normal;font-size:10.58333302px;line-height:1.25;font-family:'Blackout MidnightUmlauts';-inkscape-font-specification:'Blackout MidnightUmlauts';letter-spacing:0px;word-spacing:0px;fill:#000000;fill-opacity:1;stroke:none;stroke-width:0.26458332"
       id="text31-3-5">
      <path
         d="m 73.814212,-119.30297 q -6.090929,11.12766 -24.012317,44.627767 5.973796,11.127659 24.012317,44.627769 -5.622396,0 -22.606718,0 -2.811198,-5.856662 -11.479059,-23.543784 -2.928331,5.856663 -11.479058,23.543784 -5.73953,0 -22.6067181,0 5.9737961,-11.127659 24.0123171,-44.627769 -5.973796,-11.127659 -24.0123171,-44.627767 5.6223961,0 22.6067181,0 2.811198,5.85666 11.479058,23.543782 2.811198,-5.856662 11.479059,-23.543782 5.622396,0 22.606718,0 z"
         style="font-style:normal;font-variant:normal;font-weight:normal;font-stretch:normal;font-size:119.94445038px;font-family:'Blackout MidnightUmlauts';-inkscape-font-specification:'Blackout MidnightUmlauts';stroke-width:0.26458332"
         id="path1544" />
    </g>
    <g
       aria-label="Y"
       transform="rotate(90)"
       style="font-style:normal;font-variant:normal;font-weight:normal;font-stretch:normal;font-size:10.58333302px;line-height:1.25;font-family:'Blackout MidnightUmlauts';-inkscape-font-specification:'Blackout MidnightUmlauts';letter-spacing:0px;word-spacing:0px;fill:#000000;fill-opacity:1;stroke:none;stroke-width:0.26458332"
       id="text31-7-5">
      <path
         d="m 171.11658,-119.7198 q -5.97379,11.12766 -24.01231,44.627773 0,11.127659 0,44.627769 -4.68533,0 -18.97559,0 0,-11.127659 0,-44.627769 -5.6224,-11.127659 -22.84098,-44.627773 5.62239,0 22.48958,0 2.69406,5.271 10.42486,21.083989 2.57693,-5.270999 10.30773,-21.083989 5.73952,0 22.60671,0 z"
         style="font-style:normal;font-variant:normal;font-weight:normal;font-stretch:normal;font-size:119.94445038px;font-family:'Blackout MidnightUmlauts';-inkscape-font-specification:'Blackout MidnightUmlauts';stroke-width:0.26458332"
         id="path1547" />
    </g>
    <g
       aria-label="Z"
       transform="rotate(90)"
       style="font-style:normal;font-variant:normal;font-weight:normal;font-stretch:normal;font-size:10.58333302px;line-height:1.25;font-family:'Blackout MidnightUmlauts';-inkscape-font-specification:'Blackout MidnightUmlauts';letter-spacing:0px;word-spacing:0px;fill:#000000;fill-opacity:1;stroke:none;stroke-width:0.26458332"
       id="text31-7-3-2">
      <path
         d="m 265.4899,-119.49453 q 0,5.03673 0,20.146918 -7.73079,12.298992 -31.15744,48.9617 7.84792,0 31.15744,0 0,5.03673 0,20.146919 -14.17312,0 -56.92676,0 0,-5.03673 0,-20.146919 8.0822,-12.181858 32.21165,-48.9617 -7.96507,0 -32.21165,0 0,-5.036728 0,-20.146918 14.29026,0 56.92676,0 z"
         style="font-style:normal;font-variant:normal;font-weight:normal;font-stretch:normal;font-size:119.94445038px;font-family:'Blackout MidnightUmlauts';-inkscape-font-specification:'Blackout MidnightUmlauts';stroke-width:0.26458332"
         id="path1550" />
    </g>
    <path
       style="fill:none;stroke:#000000;stroke-width:0.26458332px;stroke-linecap:butt;stroke-linejoin:miter;stroke-opacity:1"
       d="M 148,-115.75 V 291.70833"
       id="path1518"
       inkscape:connector-curvature="0" />
    <path
       style="fill:none;stroke:#000000;stroke-width:0.26458332px;stroke-linecap:butt;stroke-linejoin:miter;stroke-opacity:1"
       d="M 5.2916666,185.875 H 291.04166"
       id="path1520"
       inkscape:connector-curvature="0" />
    <path
       style="fill:none;stroke:#000000;stroke-width:0.26458332px;stroke-linecap:butt;stroke-linejoin:miter;stroke-opacity:1"
       d="M 285.75,86.999998 5.2916666,85.333329"
       id="path1522"
       inkscape:connector-curvature="0" />
    <path
       style="fill:none;stroke:#000000;stroke-width:0.26458332px;stroke-linecap:butt;stroke-linejoin:miter;stroke-opacity:1"
       d="M 5.2916666,-15.208336 H 291.04166"
       id="path1526"
       inkscape:connector-curvature="0" />
  </g>
</svg>
