<?xml version="1.0" encoding="UTF-8" standalone="no"?>
<!-- Created with Inkscape (http://www.inkscape.org/) -->

<svg
   xmlns:dc="http://purl.org/dc/elements/1.1/"
   xmlns:cc="http://creativecommons.org/ns#"
   xmlns:rdf="http://www.w3.org/1999/02/22-rdf-syntax-ns#"
   xmlns:svg="http://www.w3.org/2000/svg"
   xmlns="http://www.w3.org/2000/svg"
   xmlns:sodipodi="http://sodipodi.sourceforge.net/DTD/sodipodi-0.dtd"
   xmlns:inkscape="http://www.inkscape.org/namespaces/inkscape"
   width="297mm"
   height="420mm"
   viewBox="0 0 297 420"
   version="1.1"
   id="svg8"
   inkscape:version="0.92.3 (2405546, 2018-03-11)"
   sodipodi:docname="BuchstabenvorlageBlackout_WM12_pfad.svg"
   inkscape:export-filename="/home/housemeista/Dropbox/Fla/Stencilkram Inkscape/Vorlagen/schildcyber.png"
   inkscape:export-xdpi="96"
   inkscape:export-ydpi="96">
  <defs
     id="defs2" />
  <sodipodi:namedview
     id="base"
     pagecolor="#ffffff"
     bordercolor="#666666"
     borderopacity="1.0"
     inkscape:pageopacity="0"
     inkscape:pageshadow="2"
     inkscape:zoom="0.49497475"
     inkscape:cx="411.17303"
     inkscape:cy="840.72038"
     inkscape:document-units="mm"
     inkscape:current-layer="layer1"
     showgrid="true"
     inkscape:pagecheckerboard="true"
     inkscape:window-width="1920"
     inkscape:window-height="1031"
     inkscape:window-x="0"
     inkscape:window-y="25"
     inkscape:window-maximized="1"
     showguides="true"
     inkscape:guide-bbox="true">
    <inkscape:grid
       type="xygrid"
       id="grid3713" />
    <sodipodi:guide
       position="158.75,210"
       orientation="0,1"
       id="guide21"
       inkscape:locked="false"
       inkscape:label=""
       inkscape:color="rgb(0,0,255)" />
    <sodipodi:guide
       position="30,285"
       orientation="1,0"
       id="guide23"
       inkscape:locked="false"
       inkscape:label=""
       inkscape:color="rgb(0,0,255)" />
    <sodipodi:guide
       position="201.08334,315"
       orientation="0,1"
       id="guide25"
       inkscape:locked="false"
       inkscape:label=""
       inkscape:color="rgb(0,0,255)" />
    <sodipodi:guide
       position="312.20833,105"
       orientation="0,1"
       id="guide27"
       inkscape:locked="false"
       inkscape:label=""
       inkscape:color="rgb(0,0,255)" />
    <sodipodi:guide
       position="148,269.87499"
       orientation="1,0"
       id="guide51"
       inkscape:locked="false"
       inkscape:label=""
       inkscape:color="rgb(0,0,255)" />
    <sodipodi:guide
       position="178,341.31249"
       orientation="1,0"
       id="guide141"
       inkscape:locked="false"
       inkscape:label=""
       inkscape:color="rgb(0,0,255)" />
    <sodipodi:guide
       position="118,359.83333"
       orientation="1,0"
       id="guide143"
       inkscape:locked="false"
       inkscape:label=""
       inkscape:color="rgb(0,0,255)" />
    <sodipodi:guide
       position="63.500002,399.52082"
       orientation="0,1"
       id="guide145"
       inkscape:locked="false" />
  </sodipodi:namedview>
  <metadata
     id="metadata5">
    <rdf:RDF>
      <cc:Work
         rdf:about="">
        <dc:format>image/svg+xml</dc:format>
        <dc:type
           rdf:resource="http://purl.org/dc/dcmitype/StillImage" />
        <dc:title></dc:title>
      </cc:Work>
    </rdf:RDF>
  </metadata>
  <g
     inkscape:label="Ebene 1"
     inkscape:groupmode="layer"
     id="layer1"
     transform="translate(0,123)">
    <g
       aria-label="W"
       transform="rotate(90)"
       style="font-style:normal;font-variant:normal;font-weight:normal;font-stretch:normal;font-size:10.58333302px;line-height:1.25;font-family:'Blackout MidnightUmlauts';-inkscape-font-specification:'Blackout MidnightUmlauts';letter-spacing:0px;word-spacing:0px;fill:#000000;fill-opacity:1;stroke:none;stroke-width:0.26458332"
       id="text31">
      <path
         d="m -23.403966,-267.13596 q 6.208062,0 24.9493815,0 -6.3251952,22.37245 -25.3007805,89.25553 -4.568197,0 -18.155653,0 -1.991266,-9.37066 -8.199328,-37.71691 -2.342664,9.4878 -9.370659,37.71691 -4.802463,0 -19.209852,0 -5.739529,-22.25532 -22.958113,-89.25553 5.973792,0 23.778045,0 2.342665,10.07345 9.487793,40.05957 2.342665,-9.95633 9.37066,-40.05957 4.216797,0 16.867187,0 2.342665,10.07345 9.37066,40.05957 2.342665,-9.95633 9.370659,-40.05957 z"
         style="font-style:normal;font-variant:normal;font-weight:normal;font-stretch:normal;font-size:119.94444275px;font-family:'Blackout MidnightUmlauts';-inkscape-font-specification:'Blackout MidnightUmlauts';stroke-width:0.26458332"
         id="path958" />
    </g>
    <g
       style="font-style:normal;font-variant:normal;font-weight:normal;font-stretch:normal;font-size:40px;line-height:1.25;font-family:'Blackout MidnightUmlauts';-inkscape-font-specification:'Blackout MidnightUmlauts';letter-spacing:0px;word-spacing:0px;fill:#000000;fill-opacity:1;stroke:none"
       id="flowRoot131" />
    <g
       aria-label="M"
       transform="rotate(90)"
       style="font-style:normal;font-variant:normal;font-weight:normal;font-stretch:normal;font-size:10.58333302px;line-height:1.25;font-family:'Blackout MidnightUmlauts';-inkscape-font-specification:'Blackout MidnightUmlauts';letter-spacing:0px;word-spacing:0px;fill:#000000;fill-opacity:1;stroke:none;stroke-width:0.26458332"
       id="text31-36">
      <path
         d="m -23.369707,-119.34728 q 0,0 0,0 0,22.372448 0,89.255535 -5.38813,0 -21.435385,0 0,-7.847928 0,-31.157445 -2.694065,7.730794 -10.893393,31.157445 -3.279731,0 -12.884658,0 -2.811198,-8.082195 -11.244792,-32.094512 0,7.965062 0,32.094512 -5.270996,0 -21.318255,0 0,-22.255318 0,-89.255535 5.153866,0 20.498322,0 4.68533,13.00179 18.507054,51.890027 4.568197,-13.001791 18.624187,-51.890027 0,0 0,0 5.03673,0 20.14692,0 z"
         style="font-style:normal;font-variant:normal;font-weight:normal;font-stretch:normal;font-size:119.94445038px;font-family:'Blackout MidnightUmlauts';-inkscape-font-specification:'Blackout MidnightUmlauts';stroke-width:0.26458332"
         id="path962" />
    </g>
    <g
       style="font-style:normal;font-variant:normal;font-weight:normal;font-stretch:normal;font-size:42.33333206px;line-height:1.25;font-family:'Blackout MidnightUmlauts';-inkscape-font-specification:'Blackout MidnightUmlauts';letter-spacing:0px;word-spacing:0px;fill:#000000;fill-opacity:1;stroke:none;stroke-width:0.26458332"
       id="text3534" />
    <g
       style="font-style:normal;font-variant:normal;font-weight:normal;font-stretch:normal;font-size:42.33333206px;line-height:1.25;font-family:'Blackout MidnightUmlauts';-inkscape-font-specification:'Blackout MidnightUmlauts';letter-spacing:0px;word-spacing:0px;fill:#000000;fill-opacity:1;stroke:none;stroke-width:0.26458332"
       id="text3538" />
    <g
       aria-label=":"
       transform="rotate(90)"
       style="font-style:normal;font-variant:normal;font-weight:normal;font-stretch:normal;font-size:10.58333302px;line-height:1.25;font-family:'Blackout MidnightUmlauts';-inkscape-font-specification:'Blackout MidnightUmlauts';letter-spacing:0px;word-spacing:0px;fill:#000000;fill-opacity:1;stroke:none;stroke-width:0.26458332"
       id="text31-1">
      <path
         d="m 55.685762,-258.13739 q 0,4.09967 0,16.51579 -4.099664,0 -16.281522,0 0,-4.09966 0,-16.51579 4.099663,0 16.281522,0 z m 0,39.12251 q 0,4.09966 0,16.51579 -4.099664,0 -16.281522,0 0,-4.09966 0,-16.51579 4.099663,0 16.281522,0 z"
         style="font-style:normal;font-variant:normal;font-weight:normal;font-stretch:normal;font-size:119.94445038px;font-family:'Blackout MidnightUmlauts';-inkscape-font-specification:'Blackout MidnightUmlauts';stroke-width:0.26458332"
         id="path967" />
    </g>
    <g
       aria-label="!"
       transform="rotate(90)"
       style="font-style:normal;font-variant:normal;font-weight:normal;font-stretch:normal;font-size:10.58333302px;line-height:1.25;font-family:'Blackout MidnightUmlauts';-inkscape-font-specification:'Blackout MidnightUmlauts';letter-spacing:0px;word-spacing:0px;fill:#000000;fill-opacity:1;stroke:none;stroke-width:0.26458332"
       id="text31-9">
      <path
         d="m 148.27418,-177.88043 q -3.98253,0 -15.81298,0 0,-4.45107 0,-17.80426 3.98253,0 15.81298,0 0,4.45107 0,17.80426 z m 2.34267,-89.25554 q -0.58567,15.46159 -2.34267,62.08062 -3.98253,0 -15.81298,0 -0.58567,-15.57872 -2.34267,-62.08062 5.15386,0 20.49832,0 z"
         style="font-style:normal;font-variant:normal;font-weight:normal;font-stretch:normal;font-size:119.94445038px;font-family:'Blackout MidnightUmlauts';-inkscape-font-specification:'Blackout MidnightUmlauts';stroke-width:0.26458332"
         id="path970" />
    </g>
    <g
       aria-label="?"
       transform="rotate(90)"
       style="font-style:normal;font-variant:normal;font-weight:normal;font-stretch:normal;font-size:10.58333302px;line-height:1.25;font-family:'Blackout MidnightUmlauts';-inkscape-font-specification:'Blackout MidnightUmlauts';letter-spacing:0px;word-spacing:0px;fill:#000000;fill-opacity:1;stroke:none;stroke-width:0.26458332"
       id="text31-6">
      <path
         d="m 245.90192,-268.22837 q 5.73953,0 10.54199,1.87413 4.80246,1.87413 8.31646,5.271 3.514,3.1626 5.50526,7.84793 1.99127,4.56819 1.99127,10.30772 0,4.9196 -1.0542,8.0822 -1.0542,3.16259 -2.92833,5.50526 -1.63987,2.22553 -3.98253,3.8654 -2.22553,1.63986 -4.68533,3.39686 -2.34267,1.757 -4.68533,3.8654 -2.4598,2.22553 -4.45107,5.38813 -0.7028,1.4056 -1.0542,3.63113 -0.11713,1.17133 -0.11713,2.4598 -5.50526,0 -16.51579,0 0,-0.81994 0,-3.514 0,-4.45106 0.81993,-7.84793 0.81994,-3.27973 2.34267,-5.85666 1.52273,-2.69407 3.514,-4.45107 1.99126,-1.87413 4.33393,-3.39686 4.91959,-3.04546 6.67659,-5.271 1.757,-2.10839 1.757,-4.21679 0,-3.1626 -2.34266,-5.03673 -2.34267,-1.87413 -5.50527,-1.87413 -3.51399,0 -5.97379,2.34266 -2.34267,2.22553 -2.34267,5.38813 -6.20806,-1.52273 -18.74132,-4.5682 0,-5.73953 2.22553,-10.07346 2.22554,-4.33393 6.09093,-7.26226 3.8654,-2.8112 9.1364,-4.33393 5.15386,-1.52273 11.01052,-1.52273 0,0 0.11714,0 z m 3.39686,89.1384 q -4.09966,0 -16.39865,0 0,-4.09966 0,-16.51578 3.27973,0 13.00179,0 0.81993,0 3.39686,0 0,4.09966 0,16.51578 z"
         style="font-style:normal;font-variant:normal;font-weight:normal;font-stretch:normal;font-size:119.94445038px;font-family:'Blackout MidnightUmlauts';-inkscape-font-specification:'Blackout MidnightUmlauts';stroke-width:0.26458332"
         id="path973" />
    </g>
    <g
       aria-label="$"
       transform="rotate(90)"
       style="font-style:normal;font-variant:normal;font-weight:normal;font-stretch:normal;font-size:10.58333302px;line-height:1.25;font-family:'Blackout MidnightUmlauts';-inkscape-font-specification:'Blackout MidnightUmlauts';letter-spacing:0px;word-spacing:0px;fill:#000000;fill-opacity:1;stroke:none;stroke-width:0.26458332"
       id="text31-62">
      <path
         d="m 33.295589,-84.361842 q 4.919596,0 9.253527,1.874132 4.451063,1.991266 7.613661,5.153864 3.279731,3.279731 5.153863,7.613661 1.991265,4.451064 1.991265,9.37066 0,6.910862 -3.513997,12.533258 -3.513998,5.505263 -9.253527,8.667861 0,3.396864 0,10.190593 -5.03673,0 -20.14692,0 0,-2.225532 0,-9.136394 -3.396864,-1.288466 -6.090929,-3.513998 -2.811198,-2.225531 -4.802463,-5.153863 -1.991265,-2.928331 -3.045465,-6.325195 -1.1713321,-3.513998 -1.1713321,-7.262262 6.6765951,0 19.9126531,0 0,1.639866 1.171332,2.811198 1.171333,1.288466 2.928332,1.288466 1.639865,0 2.811198,-1.288466 1.288465,-1.171332 1.288465,-2.811198 0,-1.639865 -1.054199,-2.694065 -0.937066,-1.054199 -2.342665,-1.288465 -0.234266,0 -0.702799,0 -4.919597,0 -9.370661,-1.874133 -4.33393,-1.991265 -7.613661,-5.153863 -3.162598,-3.279731 -5.153863,-7.730794 -1.8741321,-4.333931 -1.8741321,-9.253527 0,-7.613662 4.2167971,-13.704588 4.216797,-5.9738 10.893392,-8.66786 0,-2.69407 0,-8.0822 5.03673,0 20.14692,0 0,2.22553 0,9.1364 5.739529,3.04546 9.253527,8.78499 3.513997,5.622396 3.513997,12.533258 -6.676595,0 -19.912653,0 0,-1.639866 -1.288465,-2.928331 -1.171333,-1.288466 -2.811198,-1.288466 -1.756999,0 -2.928332,1.288466 -1.171332,1.288465 -1.171332,2.928331 0,1.405599 0.937066,2.576931 0.937066,1.171333 2.459798,1.405599 0.234267,0 0.7028,0 z"
         style="font-style:normal;font-variant:normal;font-weight:normal;font-stretch:normal;font-size:119.94445038px;font-family:'Blackout MidnightUmlauts';-inkscape-font-specification:'Blackout MidnightUmlauts';stroke-width:0.26458332"
         id="path976" />
    </g>
    <g
       aria-label="1"
       transform="rotate(90)"
       style="font-style:normal;font-variant:normal;font-weight:normal;font-stretch:normal;font-size:10.58333302px;line-height:1.25;font-family:'Blackout MidnightUmlauts';-inkscape-font-specification:'Blackout MidnightUmlauts';letter-spacing:0px;word-spacing:0px;fill:#000000;fill-opacity:1;stroke:none;stroke-width:0.26458332"
       id="text31-18">
      <path
         d="m 131.59991,-119.72526 q 5.03673,0 20.14692,0 0,22.372456 0,89.255543 -5.03673,0 -20.14692,0 0,-15.227323 0,-60.909291 -0.7028,1.054199 -3.1626,4.33393 -3.63113,-3.631131 -14.29025,-14.290252 4.33393,-4.5682 17.45285,-18.38993 0,0 0,0 0,0 0,0 0,0 0,0 0,0 0,0 z"
         style="font-style:normal;font-variant:normal;font-weight:normal;font-stretch:normal;font-size:119.94445038px;font-family:'Blackout MidnightUmlauts';-inkscape-font-specification:'Blackout MidnightUmlauts';stroke-width:0.26458332"
         id="path979" />
    </g>
    <g
       aria-label="2"
       transform="rotate(90)"
       style="font-style:normal;font-variant:normal;font-weight:normal;font-stretch:normal;font-size:10.58333302px;line-height:1.25;font-family:'Blackout MidnightUmlauts';-inkscape-font-specification:'Blackout MidnightUmlauts';letter-spacing:0px;word-spacing:0px;fill:#000000;fill-opacity:1;stroke:none;stroke-width:0.26458332"
       id="text31-2">
      <path
         d="m 241.14017,-50.616638 q 6.91086,0 27.76058,0 0,5.03673 0,20.146919 -13.47032,0 -53.64703,0 0,-5.03673 0,-20.146919 8.19933,-9.370661 32.68018,-37.716908 1.0542,-1.522732 1.0542,-3.748264 0,-1.054199 -0.23427,-2.225531 -0.7028,-2.225532 -2.57693,-4.099664 -1.757,-1.874135 -4.33393,-1.874135 -2.22553,0 -3.74827,0.819935 -1.63986,0.7028 -2.57693,2.108399 -0.81993,1.171333 -1.28846,2.576932 -0.3514,1.405599 -0.3514,2.694064 -6.3252,0 -19.09272,0 0,-5.622396 1.99126,-10.65913 2.1084,-5.03673 5.73953,-8.78499 3.514,-3.8654 8.4336,-5.9738 4.91959,-2.22553 10.54199,-2.22553 4.68533,0 8.90213,1.4056 4.21679,1.52273 7.73079,4.09967 3.39686,2.57693 5.9738,6.09092 2.45979,3.63114 3.86539,7.84793 1.17134,3.748267 1.17134,8.19933 0,5.73953 -2.1084,10.42486 -2.1084,4.68533 -5.9738,8.784994 -6.55946,7.379395 -19.91265,22.255318 z"
         style="font-style:normal;font-variant:normal;font-weight:normal;font-stretch:normal;font-size:119.94445038px;font-family:'Blackout MidnightUmlauts';-inkscape-font-specification:'Blackout MidnightUmlauts';stroke-width:0.26458332"
         id="path982" />
    </g>
    <path
       style="fill:none;stroke:#000000;stroke-width:0.26458332px;stroke-linecap:butt;stroke-linejoin:miter;stroke-opacity:1"
       d="M 148,-115.75 V 291.70833"
       id="path948"
       inkscape:connector-curvature="0" />
    <path
       style="fill:none;stroke:#000000;stroke-width:0.26458332px;stroke-linecap:butt;stroke-linejoin:miter;stroke-opacity:1"
       d="m 291.04166,16.541664 h -142.875"
       id="path950"
       inkscape:connector-curvature="0" />
    <path
       style="fill:none;stroke:#000000;stroke-width:0.26458332px;stroke-linecap:butt;stroke-linejoin:miter;stroke-opacity:1"
       d="M 148,-4.6250028 H 5.2916666"
       id="path952"
       inkscape:connector-curvature="0" />
    <path
       style="fill:none;stroke:#000000;stroke-width:0.26458332px;stroke-linecap:butt;stroke-linejoin:miter;stroke-opacity:1"
       d="M 285.75,85.333329 H 5.2916666"
       id="path954"
       inkscape:connector-curvature="0" />
    <path
       style="fill:none;stroke:#000000;stroke-width:0.26458332px;stroke-linecap:butt;stroke-linejoin:miter;stroke-opacity:1"
       d="M 10.583333,185.875 H 291.04166"
       id="path956"
       inkscape:connector-curvature="0" />
  </g>
</svg>
