<?xml version="1.0" encoding="UTF-8" standalone="no"?>
<!-- Created with Inkscape (http://www.inkscape.org/) -->

<svg
   xmlns:dc="http://purl.org/dc/elements/1.1/"
   xmlns:cc="http://creativecommons.org/ns#"
   xmlns:rdf="http://www.w3.org/1999/02/22-rdf-syntax-ns#"
   xmlns:svg="http://www.w3.org/2000/svg"
   xmlns="http://www.w3.org/2000/svg"
   xmlns:sodipodi="http://sodipodi.sourceforge.net/DTD/sodipodi-0.dtd"
   xmlns:inkscape="http://www.inkscape.org/namespaces/inkscape"
   width="297mm"
   height="420mm"
   viewBox="0 0 297 420"
   version="1.1"
   id="svg842"
   inkscape:version="0.92.3 (2405546, 2018-03-11)"
   sodipodi:docname="c3roc.svg">
  <defs
     id="defs836" />
  <sodipodi:namedview
     id="base"
     pagecolor="#ffffff"
     bordercolor="#666666"
     borderopacity="1.0"
     inkscape:pageopacity="0.0"
     inkscape:pageshadow="2"
     inkscape:zoom="0.35"
     inkscape:cx="1226.1198"
     inkscape:cy="467.38711"
     inkscape:document-units="mm"
     inkscape:current-layer="layer1"
     showgrid="false"
     showguides="true"
     inkscape:guide-bbox="true"
     inkscape:window-width="1920"
     inkscape:window-height="1031"
     inkscape:window-x="0"
     inkscape:window-y="25"
     inkscape:window-maximized="1">
    <sodipodi:guide
       position="163.28571,99.785717"
       orientation="0,1"
       id="guide1391"
       inkscape:locked="false" />
    <sodipodi:guide
       position="-64.444941,189.93304"
       orientation="0,1"
       id="guide1404"
       inkscape:locked="false" />
  </sodipodi:namedview>
  <metadata
     id="metadata839">
    <rdf:RDF>
      <cc:Work
         rdf:about="">
        <dc:format>image/svg+xml</dc:format>
        <dc:type
           rdf:resource="http://purl.org/dc/dcmitype/StillImage" />
        <dc:title></dc:title>
      </cc:Work>
    </rdf:RDF>
  </metadata>
  <g
     inkscape:label="Ebene 1"
     inkscape:groupmode="layer"
     id="layer1"
     transform="translate(0,123)">
    <g
       aria-label="C3ROC"
       style="font-style:normal;font-variant:normal;font-weight:normal;font-stretch:normal;font-size:42.33333206px;line-height:1;font-family:'Blackout MidnightUmlauts';-inkscape-font-specification:'Blackout MidnightUmlauts';letter-spacing:0px;word-spacing:0px;fill:#000000;fill-opacity:1;stroke:none;stroke-width:0.26458332"
       id="text1389"
       transform="matrix(0,2.859203,-2.859203,0,637.0405,-188.94643)">
      <path
         d="m 49.662527,180.40025 q 1.819011,0.12402 3.017904,-0.90951 1.198893,-1.07487 1.81901,-2.56315 2.067058,1.15755 6.159831,3.43132 -0.37207,0.74414 -1.07487,1.94303 -0.702799,1.19889 -1.984375,2.31511 -1.240234,1.15755 -3.224609,1.98437 -1.984375,0.82682 -4.836914,0.82682 -0.04134,0 -0.04134,0 -3.224609,0 -5.41569,-1.03353 -2.191081,-0.99218 -3.555339,-2.68717 -1.364257,-1.73633 -2.025716,-4.01009 -0.620117,-2.27376 -0.74414,-4.71289 0,-2.19108 0,-6.5319 0.04134,-2.31511 0.785481,-4.58887 0.744141,-2.27376 2.191081,-4.05143 1.44694,-1.77767 3.679362,-2.85254 2.191081,-1.07487 5.126302,-1.07487 0,0 0.04134,0 2.563151,0 4.423503,0.74414 1.860351,0.7028 3.183268,1.86035 1.364257,1.11621 2.19108,2.56315 0.826823,1.44694 1.281576,2.89388 -2.067057,1.11621 -6.159831,3.43132 -0.248047,-0.78548 -0.661458,-1.57097 -0.454753,-0.82682 -1.116211,-1.44694 -0.620117,-0.62011 -1.405599,-1.03352 -0.826823,-0.37207 -1.694987,-0.33073 -2.19108,0.16536 -3.472656,1.73632 -1.281575,1.52963 -1.281575,3.84473 0,2.06706 0,6.15983 0,2.31511 1.322916,3.92741 1.281576,1.57096 3.472656,1.73633 z"
         style="stroke-width:0.26458332"
         id="path1393"
         inkscape:connector-curvature="0" />
      <path
         d="m 82.239349,177.58905 q 0,1.61231 -0.413412,2.93522 -0.454752,1.48828 -1.364257,2.76986 -0.868164,1.24023 -2.108399,2.19108 -1.240234,0.86816 -2.728515,1.4056 -1.488282,0.49609 -3.100586,0.49609 -2.067057,0 -3.803386,-0.74414 -1.777669,-0.78548 -3.100585,-2.1084 -1.322917,-1.32291 -2.108399,-3.10058 -0.74414,-1.77767 -0.74414,-3.84473 0.785481,0 2.315104,0 1.198893,0 4.795573,0 0,1.11621 0.74414,1.90169 0.785482,0.78548 1.901693,0.78548 0.868164,0 1.529622,-0.53743 0.7028,-0.53743 0.950846,-1.32292 0.124024,-0.28938 0.124024,-0.78548 0,-1.07487 -0.744141,-2.02571 -0.785481,-0.90951 -1.860351,-0.90951 -0.7028,0 -2.067057,0 0,-1.52962 0,-6.11849 0.537434,0 2.067057,0 1.07487,0 1.860351,-0.9095 0.744141,-0.95085 0.744141,-2.02572 0,-0.45475 -0.124024,-0.78548 -0.248046,-0.78548 -0.950846,-1.32292 -0.661458,-0.53743 -1.529622,-0.53743 -1.116211,0 -1.901693,0.78548 -0.74414,0.74414 -0.74414,1.86035 -2.356446,0 -7.110677,0 0,-1.98438 0.74414,-3.76204 0.785482,-1.77767 2.108399,-3.10059 1.322916,-1.36426 3.100585,-2.1084 1.736329,-0.78548 3.803386,-0.78548 1.612304,0 3.100586,0.49609 1.488281,0.53744 2.728515,1.44694 1.240235,0.90951 2.108399,2.14974 0.909505,1.28158 1.364257,2.76986 0.413412,1.32292 0.413412,2.89388 0,1.73633 -0.578776,3.26595 -0.578776,1.48828 -1.570964,2.72852 0.992188,1.24023 1.570964,2.72851 0.578776,1.48828 0.578776,3.22461 z"
         style="stroke-width:0.26458332"
         id="path1395"
         inkscape:connector-curvature="0" />
      <path
         d="m 95.344494,187.3869 q -1.033529,-2.56315 -4.216797,-10.2526 0,0 -0.08268,0 0,2.56315 0,10.2526 -1.777669,0 -7.110676,0 0,-7.85482 0,-31.50195 2.397786,0 9.549804,0 0.04134,0 0.04134,0 2.728516,0 4.547526,0.82682 1.777669,0.82683 2.852539,2.23242 1.07487,1.36426 1.57096,3.18327 0.45475,1.86035 0.45475,3.88607 0,2.1084 -0.7028,3.76204 -0.70279,1.65365 -1.69498,2.8112 -0.909505,1.07487 -1.901693,1.65365 -0.950846,0.57877 -1.529622,0.57877 2.149739,4.17546 6.407875,12.56771 -2.02572,0 -8.185544,0 z"
         style="stroke-width:0.26458332"
         id="path1397"
         inkscape:connector-curvature="0" />
      <path
         d="m 128.41741,174.86054 q 0,2.27376 -0.66146,4.6302 -0.7028,2.35645 -2.39778,4.13412 -1.73633,1.86035 -3.96875,2.8112 -2.23243,0.99218 -4.7129,0.99218 -0.0413,0 -0.0413,0 -2.48047,0 -4.67155,-0.99218 -2.23242,-0.95085 -4.01009,-2.76986 -1.65364,-1.77767 -2.35644,-4.01009 -0.7028,-2.27377 -0.74414,-4.79557 0,-2.43913 0,-7.35873 0,-2.02571 0.82682,-4.13411 0.78548,-2.1084 2.27376,-3.72071 1.77767,-1.81901 3.96875,-2.76985 2.19108,-0.99219 4.71289,-0.99219 0,0 0.0413,0 2.48047,0 4.7129,0.99219 2.23242,0.95084 3.96875,2.76985 1.52962,1.61231 2.27376,3.63802 0.74414,2.02572 0.78548,4.2168 0,2.43913 0,7.35873 z"
         style="stroke-width:0.26458332"
         id="path1399"
         inkscape:connector-curvature="0" />
      <path
         d="m 142.51474,180.40025 q 1.81901,0.12402 3.0179,-0.90951 1.1989,-1.07487 1.81901,-2.56315 2.06706,1.15755 6.15983,3.43132 -0.37207,0.74414 -1.07487,1.94303 -0.7028,1.19889 -1.98437,2.31511 -1.24024,1.15755 -3.22461,1.98437 -1.98438,0.82682 -4.83692,0.82682 -0.0413,0 -0.0413,0 -3.22461,0 -5.41569,-1.03353 -2.19108,-0.99218 -3.55533,-2.68717 -1.36426,-1.73633 -2.02572,-4.01009 -0.62012,-2.27376 -0.74414,-4.71289 0,-2.19108 0,-6.5319 0.0413,-2.31511 0.78548,-4.58887 0.74414,-2.27376 2.19108,-4.05143 1.44694,-1.77767 3.67936,-2.85254 2.19108,-1.07487 5.1263,-1.07487 0,0 0.0413,0 2.56315,0 4.4235,0.74414 1.86035,0.7028 3.18327,1.86035 1.36425,1.11621 2.19108,2.56315 0.82682,1.44694 1.28157,2.89388 -2.06705,1.11621 -6.15983,3.43132 -0.24804,-0.78548 -0.66146,-1.57097 -0.45475,-0.82682 -1.11621,-1.44694 -0.62011,-0.62011 -1.4056,-1.03352 -0.82682,-0.37207 -1.69498,-0.33073 -2.19108,0.16536 -3.47266,1.73632 -1.28157,1.52963 -1.28157,3.84473 0,2.06706 0,6.15983 0,2.31511 1.32291,3.92741 1.28158,1.57096 3.47266,1.73633 z"
         style="stroke-width:0.26458332"
         id="path1401"
         inkscape:connector-curvature="0" />
    </g>
  </g>
</svg>
