<?xml version="1.0" encoding="UTF-8" standalone="no"?>
<!-- Created with Inkscape (http://www.inkscape.org/) -->

<svg
   xmlns:dc="http://purl.org/dc/elements/1.1/"
   xmlns:cc="http://creativecommons.org/ns#"
   xmlns:rdf="http://www.w3.org/1999/02/22-rdf-syntax-ns#"
   xmlns:svg="http://www.w3.org/2000/svg"
   xmlns="http://www.w3.org/2000/svg"
   xmlns:sodipodi="http://sodipodi.sourceforge.net/DTD/sodipodi-0.dtd"
   xmlns:inkscape="http://www.inkscape.org/namespaces/inkscape"
   width="297mm"
   height="420mm"
   viewBox="0 0 297 420"
   version="1.1"
   id="svg842"
   inkscape:version="0.92.3 (2405546, 2018-03-11)"
   sodipodi:docname="c3roc_nichtkippen.svg">
  <defs
     id="defs836" />
  <sodipodi:namedview
     id="base"
     pagecolor="#ffffff"
     bordercolor="#666666"
     borderopacity="1.0"
     inkscape:pageopacity="0.0"
     inkscape:pageshadow="2"
     inkscape:zoom="0.24748737"
     inkscape:cx="1704.6538"
     inkscape:cy="348.19093"
     inkscape:document-units="mm"
     inkscape:current-layer="layer1"
     showgrid="false"
     showguides="true"
     inkscape:guide-bbox="true"
     inkscape:window-width="1920"
     inkscape:window-height="1031"
     inkscape:window-x="0"
     inkscape:window-y="25"
     inkscape:window-maximized="1">
    <sodipodi:guide
       position="163.28571,99.785717"
       orientation="0,1"
       id="guide1391"
       inkscape:locked="false" />
    <sodipodi:guide
       position="-64.444941,189.93304"
       orientation="0,1"
       id="guide1404"
       inkscape:locked="false" />
    <sodipodi:guide
       position="83.655365,149.67093"
       orientation="0,1"
       id="guide832"
       inkscape:locked="false" />
  </sodipodi:namedview>
  <metadata
     id="metadata839">
    <rdf:RDF>
      <cc:Work
         rdf:about="">
        <dc:format>image/svg+xml</dc:format>
        <dc:type
           rdf:resource="http://purl.org/dc/dcmitype/StillImage" />
        <dc:title></dc:title>
      </cc:Work>
    </rdf:RDF>
  </metadata>
  <g
     inkscape:label="Ebene 1"
     inkscape:groupmode="layer"
     id="layer1"
     transform="translate(0,123)">
    <g
       aria-label="NICHT KIPPEN"
       style="font-style:normal;font-variant:normal;font-weight:normal;font-stretch:normal;font-size:42.33333206px;line-height:1;font-family:'Blackout MidnightUmlauts';-inkscape-font-specification:'Blackout MidnightUmlauts';letter-spacing:0px;word-spacing:0px;fill:#000000;fill-opacity:1;stroke:none;stroke-width:0.26458332"
       id="text830"
       transform="rotate(90,213.34373,168.32611)">
      <path
         d="m 33.096527,164.95638 q 1.860352,0 7.524089,0 0,7.89615 0,31.50195 -1.77767,0 -7.19336,0 -2.108398,-3.88607 -8.474934,-15.50293 0,3.88607 0,15.50293 -1.860352,0 -7.524089,0 0,-7.85482 0,-31.50195 1.819011,0 7.234701,0 2.108398,3.88606 8.433593,15.46158 0,-3.88606 0,-15.46158 z"
         style="stroke-width:0.26458332"
         id="path838"
         inkscape:connector-curvature="0" />
      <path
         d="m 49.46762,164.95638 q 0,7.89615 0,31.50195 -1.777669,0 -7.110677,0 0,-7.85482 0,-31.50195 1.777669,0 7.110677,0 z"
         style="stroke-width:0.26458332"
         id="path840"
         inkscape:connector-curvature="0" />
      <path
         d="m 63.978363,189.47167 q 1.819011,0.12403 3.017904,-0.9095 1.198893,-1.07487 1.81901,-2.56315 2.067057,1.15755 6.159831,3.43131 -0.372071,0.74414 -1.07487,1.94304 -0.702799,1.19889 -1.984375,2.3151 -1.240234,1.15755 -3.224609,1.98438 -1.984375,0.82682 -4.836914,0.82682 -0.04134,0 -0.04134,0 -3.22461,0 -5.41569,-1.03353 -2.191081,-0.99219 -3.555339,-2.68717 -1.364257,-1.73633 -2.025716,-4.01009 -0.620117,-2.27377 -0.74414,-4.7129 0,-2.19108 0,-6.5319 0.04134,-2.3151 0.785481,-4.58886 0.744141,-2.27377 2.191081,-4.05144 1.44694,-1.77766 3.679362,-2.85253 2.191081,-1.07487 5.126302,-1.07487 0,0 0.04134,0 2.563151,0 4.423502,0.74414 1.860352,0.7028 3.183269,1.86035 1.364257,1.11621 2.19108,2.56315 0.826823,1.44694 1.281576,2.89388 -2.067057,1.11621 -6.159831,3.43131 -0.248047,-0.78548 -0.661458,-1.57096 -0.454753,-0.82682 -1.116211,-1.44694 -0.620117,-0.62012 -1.405599,-1.03353 -0.826823,-0.37207 -1.694987,-0.33073 -2.19108,0.16537 -3.472656,1.73633 -1.281575,1.52962 -1.281575,3.84473 0,2.06705 0,6.15983 0,2.3151 1.322916,3.92741 1.281576,1.57096 3.472656,1.73632 z"
         style="stroke-width:0.26458332"
         id="path842"
         inkscape:connector-curvature="0" />
      <path
         d="m 92.627772,164.95638 q 1.777669,0 7.110677,0 0,7.89615 0,31.50195 -1.777669,0 -7.110677,0 0,-3.05925 0,-12.19564 -2.108398,0 -8.433593,0 0,3.05925 0,12.19564 -1.77767,0 -7.110677,0 0,-7.85482 0,-31.50195 1.777669,0 7.110677,0 0,3.05924 0,12.19563 2.108398,0 8.433593,0 0,-3.05924 0,-12.19563 z"
         style="stroke-width:0.26458332"
         id="path844"
         inkscape:connector-curvature="0" />
      <path
         d="m 124.00571,164.95638 q 0,1.77767 0,7.11067 -1.77767,0 -7.15202,0 0,6.11849 0,24.39128 -1.77767,0 -7.11068,0 0,-6.07715 0,-24.39128 -1.77767,0 -7.15202,0 0,-1.77767 0,-7.11067 5.33301,0 21.41472,0 z"
         style="stroke-width:0.26458332"
         id="path846"
         inkscape:connector-curvature="0" />
      <path
         d="m 158.81495,164.95638 q -2.93522,3.96875 -11.74089,15.79231 2.93523,3.92741 11.69955,15.70964 -2.19108,0 -8.80567,0 -1.28157,-1.69499 -5.08496,-6.82129 0,1.69499 0,6.82129 -1.77767,0 -7.11067,0 0,-7.85482 0,-31.50195 1.77767,0 7.11067,0 0,1.81901 0,7.31738 1.28158,-1.81901 5.12631,-7.31738 2.19108,0 8.80566,0 z"
         style="stroke-width:0.26458332"
         id="path848"
         inkscape:connector-curvature="0" />
      <path
         d="m 168.19938,164.95638 q 0,7.89615 0,31.50195 -1.77767,0 -7.11067,0 0,-7.85482 0,-31.50195 1.77766,0 7.11067,0 z"
         style="stroke-width:0.26458332"
         id="path850"
         inkscape:connector-curvature="0" />
      <path
         d="m 180.43637,164.95638 q 2.06705,0 3.7207,0.74414 1.6123,0.7028 2.76986,2.06705 1.19889,1.28158 1.81901,3.18327 0.66145,1.90169 0.66145,4.2168 0,2.27376 -0.66145,4.13411 -0.62012,1.86035 -1.81901,3.22461 -1.15756,1.36426 -2.76986,2.1084 -1.65365,0.74414 -3.7207,0.74414 0,0 -0.0414,0 -0.57877,0 -2.3151,0 0,2.76986 0,11.07943 -1.81901,0 -7.2347,0 0,-7.85482 0,-31.50195 2.39779,0 9.5498,0 0.0414,0 0.0414,0 z"
         style="stroke-width:0.26458332"
         id="path852"
         inkscape:connector-curvature="0" />
      <path
         d="m 201.18962,164.95638 q 2.06705,0 3.7207,0.74414 1.6123,0.7028 2.76986,2.06705 1.19889,1.28158 1.81901,3.18327 0.66145,1.90169 0.66145,4.2168 0,2.27376 -0.66145,4.13411 -0.62012,1.86035 -1.81901,3.22461 -1.15756,1.36426 -2.76986,2.1084 -1.65365,0.74414 -3.7207,0.74414 0,0 -0.0413,0 -0.57878,0 -2.31511,0 0,2.76986 0,11.07943 -1.81901,0 -7.2347,0 0,-7.85482 0,-31.50195 2.39779,0 9.54981,0 0.0413,0 0.0413,0 z"
         style="stroke-width:0.26458332"
         id="path854"
         inkscape:connector-curvature="0" />
      <path
         d="m 231.65805,172.06705 q -3.05924,0 -12.19564,0 0,1.28158 0,5.08496 2.23242,0 8.97103,0 0,1.77767 0,7.11068 -2.23242,0 -8.97103,0 0,1.28158 0,5.08496 3.05925,0 12.19564,0 0,1.77767 0,7.11068 -4.83691,0 -19.30631,0 0,-7.85482 0,-31.50195 4.83691,0 19.30631,0 0,1.77767 0,7.11067 z"
         style="stroke-width:0.26458332"
         id="path856"
         inkscape:connector-curvature="0" />
      <path
         d="m 249.64145,164.95638 q 1.86035,0 7.52409,0 0,7.89615 0,31.50195 -1.77767,0 -7.19336,0 -2.1084,-3.88607 -8.47494,-15.50293 0,3.88607 0,15.50293 -1.86035,0 -7.52408,0 0,-7.85482 0,-31.50195 1.81901,0 7.2347,0 2.10839,3.88606 8.43359,15.46158 0,-3.88606 0,-15.46158 z"
         style="stroke-width:0.26458332"
         id="path858"
         inkscape:connector-curvature="0" />
    </g>
    <g
       aria-label="DA STAND EINSELF!"
       style="font-style:normal;font-variant:normal;font-weight:normal;font-stretch:normal;font-size:42.33333206px;line-height:1;font-family:'Blackout MidnightUmlauts';-inkscape-font-specification:'Blackout MidnightUmlauts';letter-spacing:0px;word-spacing:0px;fill:#000000;fill-opacity:1;stroke:none;stroke-width:0.26458332"
       id="text836"
       transform="translate(-121.8749,79.11178)">
      <g
         id="g907"
         transform="rotate(90,328.93518,108.11276)">
        <path
           inkscape:connector-curvature="0"
           id="path861"
           style="stroke-width:0.26458332"
           d="m 77.869149,231.26962 q 0,3.18327 -0.7028,6.03581 -0.74414,2.85254 -2.39779,5.00228 -1.65364,2.19108 -4.29948,3.43131 -2.68717,1.28158 -6.5319,1.28158 -0.28938,0 -0.9095,0 -1.61231,0 -6.36654,0 0,-7.85482 0,-31.50195 1.57097,0 6.36654,0 3.67936,0 6.44922,1.19889 2.81119,1.24023 4.67155,3.34863 1.86035,2.06706 2.76985,4.96094 0.95085,2.89388 0.95085,6.24251 z" />
        <path
           inkscape:connector-curvature="0"
           id="path863"
           style="stroke-width:0.26458332"
           d="m 94.52963,238.71103 q -1.52962,0 -6.15983,0 -0.66146,2.06706 -2.76986,8.30957 -2.02571,0 -8.10286,0 2.3151,-7.85482 9.26042,-31.50195 2.35644,0 9.46712,0 2.3151,7.89616 9.21907,31.50195 -2.02571,0 -8.06152,0 -0.74414,-2.06706 -2.85254,-8.30957 z" />
        <path
           inkscape:connector-curvature="0"
           id="path865"
           style="stroke-width:0.26458332"
           d="m 139.63282,239.70321 q -0.0827,1.52962 -0.86817,2.85254 -0.78548,1.32292 -2.19108,2.35644 -1.36425,0.95085 -3.30729,1.52963 -1.94303,0.57878 -4.38216,0.57878 -1.90169,0 -3.59668,-0.4961 -1.65364,-0.53744 -3.0179,-1.44694 -1.36426,-0.95085 -2.31511,-2.27377 -0.95084,-1.32291 -1.36425,-3.0179 2.27377,-0.95085 6.77995,-2.85254 -0.0827,0.0413 0.16536,0.62012 0.28939,0.53744 0.78549,1.15755 0.53743,0.62012 1.28157,1.07487 0.74414,0.4961 1.57096,0.37207 0.7028,-0.0827 1.4056,-0.62012 0.7028,-0.57877 0.66146,-1.73633 -0.0413,-0.74414 -0.57878,-1.3229 -0.49609,-0.62012 -1.48828,-1.32293 -2.14973,-1.44693 -4.01008,-2.5218 -1.81901,-1.07487 -3.22461,-2.23242 -1.36426,-1.19889 -2.14975,-2.68718 -0.78548,-1.48829 -0.78548,-3.7207 0,-2.06706 0.86816,-3.63803 0.82682,-1.57096 2.23242,-2.64582 1.4056,-1.03354 3.22461,-1.61232 1.81901,-0.53743 3.76205,-0.57876 2.3151,0 4.09277,0.66146 1.73633,0.66145 2.93522,1.65364 1.24024,1.03353 1.90169,2.31511 0.66146,1.32291 0.90951,2.56315 -2.1084,0.82682 -6.24251,2.48047 -0.12403,-0.4961 -0.37207,-1.03353 -0.24805,-0.57878 -0.74414,-1.07487 -0.41342,-0.49611 -1.03353,-0.82684 -0.62012,-0.33072 -1.4056,-0.33072 -0.86817,0 -1.52962,0.53744 -0.7028,0.49609 -0.7028,1.57096 0,0.78548 0.66145,1.4056 0.62012,0.62012 2.02572,1.65365 1.94303,1.07487 3.76204,2.19108 1.77767,1.11621 3.18327,2.48047 1.4056,1.4056 2.23242,3.18327 0.86817,1.73632 0.86817,4.17544 0,0.16537 0,0.57878 z" />
        <path
           inkscape:connector-curvature="0"
           id="path867"
           style="stroke-width:0.26458332"
           d="m 162.53581,215.51865 q 0,1.77767 0,7.11067 -1.77766,0 -7.15201,0 0,6.11849 0,24.39128 -1.77767,0 -7.11068,0 0,-6.07715 0,-24.39128 -1.77767,0 -7.15202,0 0,-1.77767 0,-7.11067 5.33301,0 21.41471,0 z" />
        <path
           inkscape:connector-curvature="0"
           id="path869"
           style="stroke-width:0.26458332"
           d="m 176.55046,238.71103 q -1.52962,0 -6.15983,0 -0.66146,2.06706 -2.76986,8.30957 -2.02572,0 -8.10286,0 2.3151,-7.85482 9.26041,-31.50195 2.35645,0 9.46712,0 2.31511,7.89616 9.21908,31.50195 -2.02572,0 -8.06152,0 -0.74414,-2.06706 -2.85254,-8.30957 z" />
        <path
           inkscape:connector-curvature="0"
           id="path871"
           style="stroke-width:0.26458332"
           d="m 204.41439,215.51865 q 1.86035,0 7.52408,0 0,7.89616 0,31.50195 -1.77767,0 -7.19336,0 -2.1084,-3.88607 -8.47493,-15.50293 0,3.88607 0,15.50293 -1.86036,0 -7.5241,0 0,-7.85482 0,-31.50195 1.81901,0 7.23471,0 2.10839,3.88606 8.4336,15.46159 0,-3.88607 0,-15.46159 z" />
        <path
           inkscape:connector-curvature="0"
           id="path873"
           style="stroke-width:0.26458332"
           d="m 234.88282,231.26962 q 0,3.18327 -0.7028,6.03581 -0.74414,2.85254 -2.39779,5.00228 -1.65364,2.19108 -4.29948,3.43131 -2.68717,1.28158 -6.5319,1.28158 -0.28938,0 -0.9095,0 -1.61231,0 -6.36654,0 0,-7.85482 0,-31.50195 1.57097,0 6.36654,0 3.67936,0 6.44922,1.19889 2.81119,1.24023 4.67155,3.34863 1.86035,2.06706 2.76985,4.96094 0.95085,2.89388 0.95085,6.24251 z" />
        <path
           inkscape:connector-curvature="0"
           id="path875"
           style="stroke-width:0.26458332"
           d="m 269.44402,222.62933 q -3.05925,0 -12.19565,0 0,1.28158 0,5.08496 2.23242,0 8.97103,0 0,1.77767 0,7.11068 -2.23242,0 -8.97103,0 0,1.28158 0,5.08496 3.05924,0 12.19565,0 0,1.77767 0,7.11068 -4.83693,0 -19.30632,0 0,-7.85482 0,-31.50195 4.83692,0 19.30632,0 0,1.77767 0,7.11067 z" />
        <path
           inkscape:connector-curvature="0"
           id="path877"
           style="stroke-width:0.26458332"
           d="m 278.82846,215.51866 q 0,7.89616 0,31.50195 -1.77767,0 -7.11068,0 0,-7.85482 0,-31.50195 1.77767,0 7.11068,0 z" />
        <path
           inkscape:connector-curvature="0"
           id="path879"
           style="stroke-width:0.26458332"
           d="m 297.18392,215.51864 q 1.86034,0 7.52409,0 0,7.89616 0,31.50196 -1.77767,0 -7.19336,0 -2.1084,-3.88607 -8.47494,-15.50293 0,3.88606 0,15.50293 -1.86035,0 -7.5241,0 0,-7.85482 0,-31.50196 1.81901,0 7.2347,0 2.1084,3.88607 8.43361,15.46159 0,-3.88606 0,-15.46159 z" />
        <path
           inkscape:connector-curvature="0"
           id="path881"
           style="stroke-width:0.26458332"
           d="m 327.48699,239.70322 q -0.0827,1.52962 -0.86817,2.85254 -0.78548,1.32291 -2.19108,2.35644 -1.36426,0.95085 -3.30729,1.52962 -1.94303,0.57878 -4.38216,0.57878 -1.90169,0 -3.59668,-0.49609 -1.65365,-0.53744 -3.0179,-1.44694 -1.36426,-0.95085 -2.31511,-2.27377 -0.95084,-1.32291 -1.36426,-3.0179 2.27377,-0.95085 6.77995,-2.85254 -0.0827,0.0413 0.16537,0.62012 0.28938,0.53743 0.78548,1.15755 0.53743,0.62012 1.28157,1.07487 0.74414,0.49609 1.57097,0.37207 0.7028,-0.0827 1.4056,-0.62012 0.70279,-0.57877 0.66145,-1.73633 -0.0413,-0.74414 -0.57877,-1.32291 -0.4961,-0.62012 -1.48828,-1.32292 -2.14974,-1.44694 -4.01009,-2.52181 -1.81901,-1.07487 -3.22461,-2.23242 -1.36426,-1.19889 -2.14974,-2.68718 -0.78548,-1.48828 -0.78548,-3.7207 0,-2.06706 0.86816,-3.63802 0.82682,-1.57096 2.23242,-2.64583 1.4056,-1.03353 3.22461,-1.61231 1.81901,-0.53743 3.76204,-0.57877 2.31511,0 4.09278,0.66146 1.73633,0.66145 2.93522,1.65364 1.24023,1.03353 1.90169,2.31511 0.66146,1.32291 0.90951,2.56315 -2.1084,0.82682 -6.24252,2.48047 -0.12402,-0.4961 -0.37207,-1.03353 -0.24804,-0.57878 -0.74414,-1.07487 -0.41341,-0.4961 -1.03353,-0.82683 -0.62011,-0.33073 -1.40559,-0.33073 -0.86817,0 -1.52963,0.53744 -0.7028,0.49609 -0.7028,1.57096 0,0.78548 0.66146,1.4056 0.62012,0.62012 2.02572,1.65365 1.94303,1.07487 3.76204,2.19108 1.77767,1.11621 3.18327,2.48047 1.4056,1.4056 2.23242,3.18327 0.86817,1.73632 0.86817,4.17545 0,0.16537 0,0.57878 z" />
        <path
           inkscape:connector-curvature="0"
           id="path883"
           style="stroke-width:0.26458332"
           d="m 348.65364,222.62932 q -3.05924,0 -12.19563,0 0,1.28158 0,5.08496 2.23242,0 8.97102,0 0,1.77767 0,7.11068 -2.23242,0 -8.97102,0 0,1.28158 0,5.08496 3.05924,0 12.19563,0 0,1.77767 0,7.11068 -4.83691,0 -19.30631,0 0,-7.85482 0,-31.50195 4.83691,0 19.30631,0 0,1.77767 0,7.11067 z" />
        <path
           inkscape:connector-curvature="0"
           id="path885"
           style="stroke-width:0.26458332"
           d="m 358.03808,239.90992 q 2.1084,0 8.4336,0 0,1.77767 0,7.11068 -3.88607,0 -15.54427,0 0,-7.85482 0,-31.50195 1.77767,0 7.11067,0 0,6.11849 0,24.39127 z" />
        <path
           inkscape:connector-curvature="0"
           id="path887"
           style="stroke-width:0.26458332"
           d="m 388.05176,222.62932 q -3.05924,0 -12.19563,0 0,1.28158 0,5.08496 2.23242,0 8.97103,0 0,1.77767 0,7.11068 -2.23243,0 -8.97103,0 0,3.05925 0,12.19564 -1.77767,0 -7.11068,0 0,-7.85482 0,-31.50195 4.83691,0 19.30631,0 0,1.77767 0,7.11067 z" />
        <path
           inkscape:connector-curvature="0"
           id="path889"
           style="stroke-width:0.26458332"
           d="m 396.27864,247.0206 q -1.40559,0 -5.58105,0 0,-1.57096 0,-6.28384 1.40561,0 5.58105,0 0,1.57096 0,6.28384 z m 0.82684,-31.50195 q -0.20671,5.45703 -0.82684,21.9108 -1.40559,0 -5.58105,0 -0.2067,-5.49837 -0.82682,-21.9108 1.81902,0 7.23471,0 z" />
      </g>
    </g>
  </g>
</svg>
