<?xml version="1.0" encoding="UTF-8" standalone="no"?>
<!-- Created with Inkscape (http://www.inkscape.org/) -->

<svg
   xmlns:dc="http://purl.org/dc/elements/1.1/"
   xmlns:cc="http://creativecommons.org/ns#"
   xmlns:rdf="http://www.w3.org/1999/02/22-rdf-syntax-ns#"
   xmlns:svg="http://www.w3.org/2000/svg"
   xmlns="http://www.w3.org/2000/svg"
   xmlns:sodipodi="http://sodipodi.sourceforge.net/DTD/sodipodi-0.dtd"
   xmlns:inkscape="http://www.inkscape.org/namespaces/inkscape"
   width="297mm"
   height="600mm"
   viewBox="0 0 297 600"
   version="1.1"
   id="svg8"
   inkscape:version="0.92.3 (2405546, 2018-03-11)"
   sodipodi:docname="chaosfertisch.svg">
  <defs
     id="defs2" />
  <sodipodi:namedview
     id="base"
     pagecolor="#ffffff"
     bordercolor="#666666"
     borderopacity="1.0"
     inkscape:pageopacity="0.0"
     inkscape:pageshadow="2"
     inkscape:zoom="0.35"
     inkscape:cx="980.58027"
     inkscape:cy="1125.7143"
     inkscape:document-units="mm"
     inkscape:current-layer="layer1"
     showgrid="false"
     height="600mm"
     inkscape:window-width="1920"
     inkscape:window-height="1031"
     inkscape:window-x="0"
     inkscape:window-y="25"
     inkscape:window-maximized="1" />
  <metadata
     id="metadata5">
    <rdf:RDF>
      <cc:Work
         rdf:about="">
        <dc:format>image/svg+xml</dc:format>
        <dc:type
           rdf:resource="http://purl.org/dc/dcmitype/StillImage" />
        <dc:title></dc:title>
      </cc:Work>
    </rdf:RDF>
  </metadata>
  <g
     inkscape:label="Ebene 1"
     inkscape:groupmode="layer"
     id="layer1"
     transform="translate(0,303)">
    <g
       aria-label="DEFLECTOR SHIELD
HARMONICS MODULATOR"
       transform="rotate(90,-0.79374999,-0.79374999)"
       style="font-style:normal;font-variant:normal;font-weight:normal;font-stretch:normal;font-size:42.33333206px;line-height:1;font-family:'Blackout Zwo Uhr Nachts';-inkscape-font-specification:'Blackout Zwo Uhr Nachts';letter-spacing:0px;word-spacing:0px;fill:#000000;fill-opacity:1;stroke:none;stroke-width:0.26458332"
       id="text817">
      <path
         style="line-height:1.20000005;stroke-width:0.99999994"
         d="m 706.94727,54.787109 v 105.625001 124.21875 92.8125 126.875 104.53125 103.125 45.78125 105.46875 94.84375 47.34374 125.1563 104.5312 102.5 103.2813 78.4375 125 90.3125 102.3437 3.125 92.0313 h 167.34375 v -92.0313 -3.125 -104.0625 -95.9375 -119.6875 -78.75 -104.0625 -102.5 -104.0625 -126.5625 -45.78124 -95.15625 -104.21875 -46.40625 -104.0625 -104.0625 -126.5625 -92.8125 -124.6875 -102.812501 z m 192,0 v 105.625001 90.46875 85.625 79.375 91.25 104.53125 94.84375 105.46875 92.03125 46.71875 93.59379 103.9062 44.8438 92.1875 78.4375 103.2812 H 1066.291 v -105.625 -78.4375 -91.25 -46.5625 -102.5 -95.93749 -45.78125 -92.03125 -104.0625 -95.9375 -104.21875 -91.09375 -78.4375 -86.5625 -91.25 -102.500001 z m -167.15625,7.03125 h 119.0625 v 26.875 h -46.09375 v 31.875001 h 46.09375 v 26.875 h -119.0625 v -26.875 h 46.09375 V 88.693359 h -46.09375 z m 192,4.84375 h 119.06248 v 23.90625 c 0,9.270854 -1.5104,17.447941 -4.5312,24.531251 -3.125,7.08334 -7.3438,12.96875 -12.6563,17.65625 -5.2083,4.6875 -11.4583,8.17707 -18.75,10.46875 -7.29165,2.39584 -15.15624,3.59375 -23.59373,3.59375 -8.02084,0 -15.625,-0.9375 -22.8125,-2.8125 -7.18751,-1.77084 -13.48961,-4.73957 -18.90625,-8.90625 -5.52086,-4.16668 -9.84377,-9.58334 -12.96875,-16.25 -3.22918,-6.77082 -4.84375,-14.99999 -4.84375,-24.687501 v -3.59375 z m -192,99.375001 c 59.47918,17.49999 99.16666,29.11459 119.0625,34.84375 v 35.9375 c -59.58335,17.39583 -99.27083,29.01043 -119.0625,34.84375 v -30.625 c 15.72918,-5.3125 26.19793,-8.85417 31.40625,-10.625 v -23.28125 c -15.72916,-5.20834 -26.19791,-8.69792 -31.40625,-10.46875 z m 192,1.40625 h 119.06248 v 72.96875 h -26.875 v -46.09375 h -19.21873 v 34.0625 h -26.875 v -34.0625 h -19.21875 v 46.09375 h -26.875 z m 0,89.0625 h 119.06248 v 72.96875 h -26.875 v -46.09375 h -19.21873 v 33.90625 h -26.875 v -33.90625 h -46.09375 z m -192,35.93945 h 119.0625 v 36.25 0.1543 c 0,6.77082 -1.04165,12.44792 -3.125,17.03125 -2.08333,4.47917 -4.89584,8.07292 -8.4375,10.78125 -3.43751,2.8125 -7.44792,4.79167 -12.03125,5.9375 -4.6875,1.14585 -9.58335,1.71875 -14.6875,1.71875 -5.31251,0 -10.05208,-0.88542 -14.21875,-2.65625 -4.16666,-1.77084 -7.70832,-3.85416 -10.625,-6.25 -2.70834,-2.39584 -4.79169,-4.79168 -6.25,-7.1875 -1.45768,-2.49887 -2.18684,-4.42524 -2.1875,-5.7793 -23.75,12.08333 -39.58333,20.15431 -47.5,24.2168 v -30.93555 c 19.37501,-8.02084 32.29166,-13.33333 38.75,-15.9375 v -0.46875 h -38.75 z m 192,54.5293 h 119.06248 v 26.875 h -92.18748 v 31.71875 h -26.875 z m -192,41.5625 h 119.0625 v 27.34375 c -34.58334,12.29168 -57.65625,20.52082 -69.21875,24.6875 34.58333,12.39582 57.65624,20.62499 69.21875,24.6875 v 26.875 h -119.0625 v -28.4375 h 41.5625 c -20.72918,-7.29167 -34.58333,-12.13543 -41.5625,-14.53125 v -17.34375 c 21.45834,-7.39583 35.72916,-12.34374 42.8125,-14.84375 h -42.8125 z m 192,35.15625 h 119.06248 v 72.96875 h -26.875 v -46.09375 h -19.21873 v 34.0625 h -26.875 v -34.0625 h -19.21875 v 46.09375 h -26.875 z m -144.65625,87.34375 h 27.8125 c 5.10417,0 10.31249,1.0436 15.625,3.12695 5.3125,1.97916 10.00001,4.84376 14.0625,8.59375 4.58333,4.47917 8.0729,9.47917 10.46875,15 2.5,5.625 3.75,11.5625 3.75,17.8125 v 0.1543 c 0,6.25 -1.25,12.1875 -3.75,17.8125 -2.39585,5.62499 -5.88542,10.62499 -10.46875,15 -4.06249,3.85416 -8.64583,6.71875 -13.75,8.59375 -5.10416,1.97929 -10.41665,3.02094 -15.9375,3.125 h -27.8125 c -5.72916,0 -11.56249,-0.88542 -17.5,-2.65625 -5.93749,-1.77084 -11.14584,-4.79166 -15.625,-9.0625 -4.6875,-4.37501 -8.22916,-9.37501 -10.625,-15 -2.50001,-5.625 -3.75,-11.5625 -3.75,-17.8125 v -0.1543 c 0,-6.14584 1.24999,-12.03125 3.75,-17.65625 2.39584,-5.62499 5.88541,-10.67708 10.46875,-15.15625 4.47916,-4.16667 9.53125,-7.13737 15.15625,-8.9082 5.72915,-1.77094 11.77083,-2.70844 18.125,-2.8125 z m 191.53125,1.87695 h 24.6875 c 5.83328,0.10417 11.61458,1.09375 17.34378,2.96875 5.7291,1.875 10.8333,4.63542 15.3125,8.28125 4.4791,3.75 8.0729,8.3854 10.7812,13.90625 2.7083,5.52083 4.0625,11.97917 4.0625,19.375 v 0.1543 c 0,6.45833 -0.9375,12.03125 -2.8125,16.71875 -1.7708,4.6875 -4.1145,8.69791 -7.0312,12.03125 -2.8125,3.4375 -6.0417,6.19792 -9.6875,8.28125 -3.6459,2.08333 -7.2917,3.6979 -10.9375,4.84375 -5.7292,-10.31252 -10.0521,-18.02085 -12.96878,-23.125 1.97918,-0.72917 3.95838,-1.61459 5.93748,-2.65625 2.0833,-1.14585 3.9063,-2.50002 5.4688,-4.0625 1.5625,-1.66667 2.8646,-3.48959 3.9062,-5.46875 0.9374,-2.08335 1.3541,-4.21876 1.25,-6.40625 -0.4166,-5.41667 -2.6041,-9.79166 -6.5625,-13.125 -3.8541,-3.22915 -8.6979,-4.84375 -14.53123,-4.84375 h -23.28125 c -5.83333,0 -10.78127,1.66668 -14.84375,5 -3.95835,3.33334 -6.14585,7.70833 -6.5625,13.125 -0.31252,4.58333 0.83333,8.38542 3.4375,11.40625 2.70833,3.02085 5.9375,5.36458 9.6875,7.03125 -5.72916,10.31249 -10.05209,18.02082 -12.96875,23.125 -1.875,-0.9375 -4.32293,-2.29167 -7.34375,-4.0625 -3.02085,-1.77084 -5.93751,-4.27082 -8.75,-7.5 -2.91667,-3.12499 -5.41668,-7.18749 -7.5,-12.1875 -2.08336,-4.99999 -3.125,-11.09375 -3.125,-18.28125 v -0.1543 c 0,-8.125 1.30208,-14.94792 3.90625,-20.46875 2.5,-5.52083 5.8854,-9.99999 10.15625,-13.4375 4.37498,-3.4375 9.42706,-5.93749 15.15625,-7.5 5.72915,-1.66667 11.66666,-2.65626 17.8125,-2.96875 z m -238.875,102.18555 h 119.0625 v 27.34375 c -29.16667,15.93749 -48.64583,26.5625 -58.4375,31.875 h 58.4375 v 28.4375 h -119.0625 v -27.1875 c 29.27085,-15.93751 48.8021,-26.56252 58.59375,-31.875 h -58.59375 z m 284.18748,1.40625 h 26.875 v 80.9375 h -26.875 v -27.03125 h -92.18748 v -26.875 h 92.18748 z m -44.84373,97.6582 h 27.8125 c 5.10413,0 10.31253,1.03972 15.62503,3.12305 5.3125,1.97916 10,4.84375 14.0625,8.59375 4.5833,4.47917 8.0729,9.47917 10.4687,15 2.5,5.62499 3.75,11.5625 3.75,17.8125 v 0.15625 c 0,6.25001 -1.25,12.1875 -3.75,17.8125 -2.3958,5.625 -5.8854,10.625 -10.4687,15 -4.0625,3.85417 -8.6459,6.71875 -13.75,8.59375 -5.1042,1.97917 -10.4167,3.02084 -15.93753,3.125 h -27.8125 c -5.72916,0 -11.56249,-0.88542 -17.5,-2.65625 -5.93749,-1.77083 -11.14584,-4.79167 -15.625,-9.0625 -4.6875,-4.375 -8.22916,-9.375 -10.625,-15 -2.50001,-5.625 -3.75,-11.56249 -3.75,-17.8125 v -0.15625 c 0,-6.14581 1.24999,-12.03123 3.75,-17.65625 2.39584,-5.625 5.88541,-10.67708 10.46875,-15.15625 4.47916,-4.16665 9.53125,-7.13542 15.15625,-8.90625 5.72915,-1.77094 11.77083,-2.70648 18.125,-2.81055 z m -239.34375,5.7793 h 119.0625 v 26.875 h -119.0625 z m 46.875,44.53125 h 24.6875 c 5.83332,0.10416 11.61456,1.09376 17.34375,2.96875 5.72915,1.875 10.83333,4.63542 15.3125,8.28125 4.47916,3.75 8.07291,8.38542 10.78125,13.90625 2.70833,5.52083 4.0625,11.97917 4.0625,19.375 v 0.15625 c 0,6.45833 -0.93751,12.03125 -2.8125,16.71875 -1.77084,4.6875 -4.11457,8.69792 -7.03125,12.03125 -2.8125,3.4375 -6.04167,6.19792 -9.6875,8.28125 -3.64584,2.08333 -7.29167,3.69792 -10.9375,4.84375 -5.72916,-10.3125 -10.05209,-18.02083 -12.96875,-23.125 1.97916,-0.72917 3.95833,-1.61458 5.9375,-2.65625 2.08332,-1.14583 3.90624,-2.5 5.46875,-4.0625 1.5625,-1.66667 2.86458,-3.48958 3.90625,-5.46875 0.93739,-2.08333 1.35406,-4.21875 1.25,-6.40625 -0.41668,-5.41667 -2.60418,-9.79167 -6.5625,-13.125 -3.85417,-3.22917 -8.69791,-4.84375 -14.53125,-4.84375 h -23.28125 c -5.83333,0 -10.78127,1.66667 -14.84375,5 -3.95835,3.33333 -6.14585,7.70833 -6.5625,13.125 -0.31252,4.58333 0.83333,8.38542 3.4375,11.40625 2.70833,3.02083 5.9375,5.36458 9.6875,7.03125 -5.72916,10.3125 -10.05209,18.02083 -12.96875,23.125 -1.875,-0.9375 -4.3229,-2.29167 -7.34375,-4.0625 -3.02083,-1.77083 -5.93751,-4.27083 -8.75,-7.5 -2.91667,-3.125 -5.41668,-7.1875 -7.5,-12.1875 -2.08336,-5 -3.125,-11.09375 -3.125,-18.28125 v -0.15625 c 0,-8.125 1.30208,-14.94792 3.90625,-20.46875 2.5,-5.52083 5.8854,-10 10.15625,-13.4375 4.37498,-3.4375 9.42706,-5.9375 15.15625,-7.5 5.72915,-1.66667 11.66666,-2.65626 17.8125,-2.96875 z m 145.125,54.53125 h 119.06248 v 36.25 0.15625 c 0,6.77083 -1.0416,12.44792 -3.125,17.03125 -2.0833,4.47917 -4.8958,8.07292 -8.4375,10.78125 -3.4375,2.8125 -7.4479,4.79167 -12.0312,5.9375 -4.6875,1.14583 -9.5834,1.71875 -14.6875,1.71875 -5.31254,0 -10.05211,-0.88542 -14.21878,-2.65625 -4.16666,-1.77084 -7.70832,-3.85417 -10.625,-6.25 -2.70834,-2.39583 -4.79169,-4.79167 -6.25,-7.1875 -1.45835,-2.5 -2.1875,-4.42708 -2.1875,-5.78125 -23.75,12.08333 -39.58333,20.15625 -47.5,24.21875 v -30.9375 c 19.37501,-8.02083 32.29166,-13.33333 38.75,-15.9375 v -0.46875 h -38.75 z m -164.65625,50 c 4.79168,11.35416 8.38543,19.89583 10.78125,25.625 -0.10417,-0.20833 -0.88544,0.0521 -2.34375,0.78125 -1.35418,0.625 -2.8125,1.61458 -4.375,2.96875 -1.56249,1.25 -2.91665,2.8125 -4.0625,4.6875 -1.24999,1.875 -1.71875,3.85417 -1.40625,5.9375 0.20835,1.875 0.98959,3.69791 2.34375,5.46875 1.45834,1.66666 3.64583,2.44791 6.5625,2.34375 1.87499,-0.10417 3.54165,-0.78125 5,-2.03125 1.56248,-1.35417 3.22916,-3.28125 5,-5.78125 3.64583,-5.41667 6.82291,-10.46875 9.53125,-15.15625 2.70833,-4.58334 5.52083,-8.64583 8.4375,-12.1875 3.02085,-3.4375 6.40625,-6.14584 10.15625,-8.125 3.74999,-1.97917 8.4375,-2.96875 14.0625,-2.96875 5.20834,0 9.79167,1.09375 13.75,3.28125 3.95835,2.08333 7.29166,4.89583 10,8.4375 2.60414,3.54167 4.6354,7.60417 6.09375,12.1875 1.35428,4.58333 2.08343,9.32292 2.1875,14.21875 0,5.83333 -0.83333,10.98958 -2.5,15.46875 -1.66668,4.375 -3.75,8.07292 -6.25,11.09375 -2.60417,3.125 -5.52085,5.52083 -8.75,7.1875 -3.33335,1.77083 -6.56252,2.91667 -9.6875,3.4375 -4.16668,-10.52083 -7.29168,-18.38542 -9.375,-23.59375 1.24999,-0.3125 2.55207,-0.78125 3.90625,-1.40625 1.45831,-0.625 2.81248,-1.51042 4.0625,-2.65625 1.24999,-1.14583 2.29166,-2.5 3.125,-4.0625 0.83333,-1.45833 1.25,-3.22917 1.25,-5.3125 0,-2.08333 -0.67707,-4.01042 -2.03125,-5.78125 -1.24999,-1.77083 -3.22917,-2.65625 -5.9375,-2.65625 -1.97917,0 -3.75,0.83333 -5.3125,2.5 -1.56251,1.66667 -3.64586,4.21875 -6.25,7.65625 -2.70834,5 -5.46876,9.73958 -8.28125,14.21875 -2.81253,4.58333 -5.93752,8.59375 -9.375,12.03125 -3.54167,3.54167 -7.55209,6.40625 -12.03125,8.59375 -4.37501,2.08333 -9.63542,3.125 -15.78125,3.125 h -2.1875 c -3.85419,-0.20833 -7.44794,-1.30208 -10.78125,-3.28125 -3.33335,-1.97917 -6.30208,-4.73958 -8.90625,-8.28125 -2.39582,-3.33333 -4.32291,-7.44792 -5.78125,-12.34375 -1.45835,-5 -2.1875,-10.57292 -2.1875,-16.71875 0,-4.79167 0.62498,-9.27083 1.875,-13.4375 1.35415,-4.27083 3.17707,-8.125 5.46875,-11.5625 2.39581,-3.33333 5.2604,-6.25 8.59375,-8.75 3.33334,-2.39583 7.13543,-4.11459 11.40625,-5.15625 z m 192,86.25 c 4.79168,11.35417 8.38543,19.89583 10.78125,25.625 -0.10417,-0.20834 -0.88544,0.0521 -2.34375,0.78125 -1.35418,0.625 -2.8125,1.61458 -4.375,2.96875 -1.56249,1.25 -2.91665,2.8125 -4.0625,4.6875 -1.24999,1.875 -1.71875,3.85417 -1.40625,5.9375 0.20835,1.875 0.98959,3.69792 2.34375,5.46874 1.45834,1.6667 3.64583,2.4479 6.5625,2.3438 1.87499,-0.1042 3.54165,-0.7813 5,-2.0313 1.56248,-1.35416 3.22916,-3.28124 5,-5.78124 3.64583,-5.41667 6.82291,-10.46875 9.53125,-15.15625 2.70833,-4.58333 5.52083,-8.64583 8.4375,-12.1875 3.02085,-3.4375 6.40625,-6.14583 10.15625,-8.125 3.75003,-1.97917 8.43753,-2.96875 14.06253,-2.96875 5.2083,0 9.7916,1.09375 13.75,3.28125 3.9583,2.08333 7.2916,4.89583 10,8.4375 2.6041,3.54167 4.6354,7.60416 6.0937,12.1875 1.3543,4.58333 2.0835,9.32292 2.1875,14.21875 0,5.83334 -0.8333,10.98954 -2.5,15.46874 -1.6667,4.375 -3.75,8.0729 -6.25,11.0938 -2.6042,3.125 -5.5208,5.5208 -8.75,7.1875 -3.3333,1.7708 -6.5625,2.9166 -9.6875,3.4375 -4.1667,-10.5209 -7.2917,-18.3855 -9.375,-23.5938 1.25,-0.3125 2.5521,-0.7812 3.9063,-1.4062 1.4583,-0.625 2.8124,-1.5105 4.0625,-2.6563 1.25,-1.1458 2.2916,-2.5 3.125,-4.0625 0.8333,-1.45832 1.25,-3.22916 1.25,-5.31249 0,-2.08333 -0.6771,-4.01042 -2.0313,-5.78125 -1.25,-1.77084 -3.2292,-2.65625 -5.9375,-2.65625 -1.9791,0 -3.75,0.83333 -5.3125,2.5 -1.5625,1.66667 -3.6458,4.21875 -6.24998,7.65625 -2.70834,5.00004 -5.46876,9.73954 -8.28125,14.21874 -2.81253,4.5833 -5.93752,8.5938 -9.375,12.0313 -3.54167,3.5416 -7.55209,6.4062 -12.03125,8.5937 -4.37501,2.0833 -9.63542,3.125 -15.78125,3.125 h -2.1875 c -3.85419,-0.2083 -7.44794,-1.3021 -10.78125,-3.2812 -3.33335,-1.9792 -6.30208,-4.7396 -8.90625,-8.2813 -2.39582,-3.3333 -4.32291,-7.4479 -5.78125,-12.3437 -1.45835,-5 -2.1875,-10.573 -2.1875,-16.71879 0,-4.79167 0.62498,-9.27084 1.875,-13.4375 1.35415,-4.27083 3.17707,-8.125 5.46875,-11.5625 2.39581,-3.33333 5.2604,-6.25 8.59375,-8.75 3.33334,-2.39584 7.13543,-4.11459 11.40625,-5.15625 z m -219.34375,59.53124 h 119.0625 v 27.3438 c -34.58334,12.2916 -57.65625,20.5208 -69.21875,24.6875 34.58333,12.3958 57.65624,20.625 69.21875,24.6875 v 26.875 h -119.0625 v -28.4375 h 41.5625 c -20.72918,-7.2917 -34.58333,-12.1355 -41.5625,-14.5313 v -17.3437 c 21.45834,-7.3959 35.72916,-12.3438 42.8125,-14.8438 h -42.8125 z m 192,34.8438 h 119.06248 v 26.875 h -46.09373 v 31.875 h 46.09373 v 26.875 H 923.79102 v -26.875 h 46.09375 v -31.875 h -46.09375 z m -144.65625,87.6562 h 27.8125 c 5.10417,0 10.31249,1.0417 15.625,3.125 5.3125,1.9792 10.00001,4.8438 14.0625,8.5938 4.58333,4.4791 8.0729,9.4791 10.46875,15 2.5,5.625 3.75,11.5625 3.75,17.8125 v 0.1562 c 0,6.25 -1.25,12.1875 -3.75,17.8125 -2.39585,5.625 -5.88542,10.625 -10.46875,15 -4.06249,3.8542 -8.64583,6.7188 -13.75,8.5938 -5.10416,1.9791 -10.41665,3.0208 -15.9375,3.125 h -27.8125 c -5.72916,0 -11.56249,-0.8855 -17.5,-2.6563 -5.93749,-1.7708 -11.14584,-4.7917 -15.625,-9.0625 -4.6875,-4.375 -8.22916,-9.375 -10.625,-15 -2.50001,-5.625 -3.75,-11.5625 -3.75,-17.8125 v -0.1562 c 0,-6.1459 1.24999,-12.0313 3.75,-17.6563 2.39584,-5.625 5.88541,-10.6771 10.46875,-15.1562 4.47916,-4.1667 9.53125,-7.1355 15.15625,-8.9063 5.72915,-1.7708 11.77083,-2.7083 18.125,-2.8125 z m 144.65625,17.9688 h 119.06248 v 26.875 H 923.79102 Z m 0,46.5625 h 119.06248 v 72.9687 h -26.875 v -46.0937 h -19.21873 v 34.0625 h -26.875 v -34.0625 h -19.21875 v 46.0937 h -26.875 z m -192,42.0312 h 119.0625 v 23.9063 c 0,9.2708 -1.5104,17.4479 -4.53125,24.5312 -3.12499,7.0833 -7.34375,12.9688 -12.65625,17.6563 -5.20834,4.6875 -11.45834,8.177 -18.75,10.4687 -7.29167,2.3958 -15.15626,3.5938 -23.59375,3.5938 -8.02084,0 -15.625,-0.9375 -22.8125,-2.8125 -7.18751,-1.7709 -13.48959,-4.7396 -18.90625,-8.9063 -5.52084,-4.1667 -9.84377,-9.5833 -12.96875,-16.25 -3.22918,-6.7708 -4.84375,-15 -4.84375,-24.6875 v -3.5937 z m 192,50.9375 h 119.06248 v 26.875 h -92.18748 v 31.7188 h -26.875 z m -144.5,50 h 71.71875 v 27.8125 h -69.6875 c -2.8125,0 -5.52083,0.2604 -8.125,0.7813 -2.50001,0.625 -4.73959,1.5625 -6.71875,2.8125 -1.875,1.25 -3.38543,2.8645 -4.53125,4.8437 -1.14586,1.875 -1.71875,4.1667 -1.71875,6.875 0,2.7083 0.57289,5 1.71875,6.875 1.14582,1.875 2.65625,3.4375 4.53125,4.6875 1.97916,1.25 4.21874,2.1875 6.71875,2.8125 2.60417,0.5208 5.3125,0.7813 8.125,0.7813 h 69.6875 v 27.6562 h -71.71875 c -6.97915,0 -13.43749,-0.9375 -19.375,-2.8125 -5.83333,-1.7708 -10.88541,-4.4792 -15.15625,-8.125 -4.16668,-3.5417 -7.39585,-7.9687 -9.6875,-13.2812 -2.29158,-5.3125 -3.38532,-11.5105 -3.28125,-18.5938 v -0.1562 c -0.10417,-7.8125 1.14583,-14.4271 3.75,-19.8438 2.5,-5.4167 5.93749,-9.8437 10.3125,-13.2812 4.47916,-3.4375 9.58334,-5.9375 15.3125,-7.5 5.83332,-1.5625 11.87499,-2.3438 18.125,-2.3438 z m 144.5,28.4375 h 119.06248 v 23.9063 c 0,9.2708 -1.5104,17.4479 -4.5312,24.5312 -3.125,7.0833 -7.3438,12.9688 -12.6563,17.6563 -5.2083,4.6875 -11.4583,8.177 -18.75,10.4687 -7.29165,2.3958 -15.15624,3.5938 -23.59373,3.5938 -8.02084,0 -15.625,-0.9375 -22.8125,-2.8125 -7.18751,-1.7709 -13.48961,-4.7396 -18.90625,-8.9063 -5.52086,-4.1667 -9.84377,-9.5833 -12.96875,-16.25 -3.22918,-6.7708 -4.84375,-15 -4.84375,-24.6875 v -3.5937 z m -192,77.1875 h 119.0625 v 26.875 h -92.1875 v 31.7188 h -26.875 z m 0,75.3125 c 59.47918,17.5 99.16666,29.1146 119.0625,34.8438 v 35.9375 c -59.58335,17.3958 -99.27083,29.0104 -119.0625,34.8437 v -30.625 c 15.72918,-5.3125 26.19793,-8.8542 31.40625,-10.625 v -23.2812 c -15.72916,-5.2084 -26.19791,-8.698 -31.40625,-10.4688 z m 92.1875,118.9063 h 26.875 v 80.9375 h -26.875 v -27.0313 h -92.1875 v -26.875 h 92.1875 z m -44.84375,97.6582 h 27.8125 c 5.10417,0 10.31249,1.0416 15.625,3.125 5.3125,1.9791 10.00001,4.8437 14.0625,8.5937 4.58333,4.4792 8.0729,9.4792 10.46875,15 2.5,5.625 3.75,11.5625 3.75,17.8125 v 0.1543 c 0,6.25 -1.25,12.1875 -3.75,17.8125 -2.39585,5.625 -5.88542,10.625 -10.46875,15 -4.06249,3.8542 -8.64583,6.7188 -13.75,8.5938 -5.10416,1.9792 -10.41665,3.0209 -15.9375,3.125 h -27.8125 c -5.72916,0 -11.56249,-0.8855 -17.5,-2.6563 -5.93749,-1.7708 -11.14584,-4.7916 -15.625,-9.0625 -4.6875,-4.375 -8.22916,-9.375 -10.625,-15 -2.50001,-5.625 -3.75,-11.5625 -3.75,-17.8125 v -0.1543 c 0,-6.1458 1.24999,-12.0312 3.75,-17.6562 2.39584,-5.625 5.88541,-10.6771 10.46875,-15.1563 4.47916,-4.1666 9.53125,-7.1354 15.15625,-8.9062 5.72915,-1.771 11.77083,-2.7085 18.125,-2.8125 z m -47.34375,104.8437 h 119.0625 v 36.25 0.1543 c 0,6.7709 -1.04165,12.4479 -3.125,17.0313 -2.08333,4.4791 -4.89584,8.0729 -8.4375,10.7812 -3.43751,2.8125 -7.44792,4.7917 -12.03125,5.9375 -4.6875,1.1458 -9.58335,1.7188 -14.6875,1.7188 -5.31251,0 -10.05208,-0.8855 -14.21875,-2.6563 -4.16666,-1.7708 -7.70832,-3.8542 -10.625,-6.25 -2.70834,-2.3958 -4.79169,-4.7916 -6.25,-7.1875 -1.45768,-2.4988 -2.18684,-4.4252 -2.1875,-5.7793 -23.75,12.0833 -39.58333,20.1562 -47.5,24.2188 v -30.9375 c 19.37501,-8.0209 32.29166,-13.3334 38.75,-15.9375 v -0.4688 h -38.75 z"
         transform="matrix(0,-0.26458333,0.26458333,0,-303,0)"
         id="path864"
         inkscape:connector-curvature="0" />
    </g>
    <g
       aria-label="CHAOSPATEN CHAOSPATEN"
       transform="rotate(90,1.3229166,1.3229166)"
       style="font-style:normal;font-variant:normal;font-weight:normal;font-stretch:normal;font-size:42.33333206px;line-height:1;font-family:'Blackout Zwo Uhr Nachts';-inkscape-font-specification:'Blackout Zwo Uhr Nachts';letter-spacing:0px;word-spacing:0px;fill:#000000;fill-opacity:1;stroke:none;stroke-width:0.26458332"
       id="text827">
      <path
         style="stroke-width:0.99999994"
         d="m 476.80859,50.484375 v 107.031245 102.8125 124.21876 104.84374 94.53126 89.21874 126.09376 90.3125 88.125 103.90622 46.875 102.8125 102.8125 124.2188 104.8437 94.5313 89.2187 126.0938 90.3125 85.7812 2.3438 103.9062 h 167.34375 v -103.9062 -2.3438 -91.25 -92.1875 -119.6875 -90 -95.9375 -104.0625 -124.6875 -102.8125 -104.2187 -45.625 -103.28128 -91.25 -92.1875 -119.6875 -90 -95.9375 -104.0625 -124.6875 -102.8125 -104.218745 z m 71.71875,8.28125 h 24.6875 c 5.83335,0.104164 11.61459,1.093752 17.34375,2.96875 5.72916,1.874998 10.83334,4.635417 15.3125,8.28125 4.47917,3.749997 8.07292,8.385393 10.78125,13.90625 2.70834,5.520831 4.0625,11.97917 4.0625,19.375005 v 0.15624 c 0,6.45834 -0.9375,12.03126 -2.8125,16.71876 -1.77083,4.68749 -4.11458,8.6979 -7.03125,12.03124 -2.81249,3.43751 -6.04166,6.19793 -9.6875,8.28126 -3.64583,2.08332 -7.29166,3.69789 -10.9375,4.84374 -5.72918,-10.31251 -10.05208,-18.02084 -12.96875,-23.125 1.97917,-0.72917 3.95832,-1.61458 5.9375,-2.65624 2.08333,-1.14586 3.90625,-2.50002 5.46875,-4.0625 1.56249,-1.66668 2.86459,-3.48959 3.90625,-5.46876 0.9374,-2.08335 1.35407,-4.21876 1.25,-6.40624 -0.41665,-5.416673 -2.60417,-9.791663 -6.5625,-13.125005 -3.85418,-3.229153 -8.69792,-4.84375 -14.53125,-4.84375 h -23.28125 c -5.83334,0 -10.78126,1.666683 -14.84375,5 -3.95832,3.333342 -6.14582,7.708332 -6.5625,13.124995 -0.31249,4.58334 0.83333,8.38543 3.4375,11.40626 2.70834,3.02085 5.93751,5.36457 9.6875,7.03124 -5.72916,10.3125 -10.05206,18.02083 -12.96875,23.125 -1.87499,-0.93749 -4.32292,-2.29166 -7.34375,-4.0625 -3.02082,-1.77083 -5.9375,-4.27082 -8.75,-7.5 -2.91668,-3.12498 -5.41667,-7.18748 -7.5,-12.1875 -2.08332,-4.99998 -3.125,-11.09374 -3.125,-18.28124 v -0.15626 c 0,-8.124997 1.30208,-14.947914 3.90625,-20.468745 2.49998,-5.520831 5.88541,-9.999994 10.15625,-13.4375 4.37501,-3.437506 9.42709,-5.937493 15.15625,-7.5 5.72916,-1.666671 11.66666,-2.656259 17.8125,-2.96875 z m -46.875,102.968755 h 119.0625 v 26.875 h -46.09375 v 31.875 h 46.09375 v 26.875 h -119.0625 v -26.875 h 46.09375 v -31.875 h -46.09375 z m 0,104.21874 c 59.47916,17.5 99.16667,29.1146 119.0625,34.84376 v 35.9375 c -59.58332,17.39582 -99.27082,29.01042 -119.0625,34.84374 v -30.625 c 15.72916,-5.3125 26.19791,-8.85416 31.40625,-10.625 v -23.28124 c -15.72916,-5.20835 -26.19791,-8.69792 -31.40625,-10.46876 z m 47.34375,125.625 h 27.8125 c 5.10418,0 10.31253,1.04168 15.625,3.125 5.31251,1.97917 9.99999,4.84376 14.0625,8.59376 4.58334,4.47916 8.07294,9.47916 10.46875,15 2.50001,5.62499 3.75,11.56249 3.75,17.8125 v 0.15624 c 0,6.25001 -1.24999,12.18751 -3.75,17.8125 -2.39581,5.62503 -5.88541,10.62503 -10.46875,15 -4.06251,3.85419 -8.64585,6.71876 -13.75,8.59376 -5.10417,1.97926 -10.41666,3.02093 -15.9375,3.125 h -27.8125 c -5.72918,0 -11.56251,-0.88542 -17.5,-2.65626 -5.93751,-1.77083 -11.14583,-4.79165 -15.625,-9.0625 -4.68749,-4.37497 -8.22918,-9.37497 -10.625,-15 -2.5,-5.62499 -3.75,-11.56249 -3.75,-17.8125 v -0.15624 c 0,-6.14582 1.25,-12.03123 3.75,-17.65626 2.39582,-5.62499 5.88542,-10.67708 10.46875,-15.15624 4.47917,-4.16666 9.53126,-7.13542 15.15625,-8.90626 5.72919,-1.77093 11.77084,-2.70843 18.125,-2.8125 z m -20,103.28126 c 4.79166,11.35417 8.38541,19.89584 10.78125,25.625 -0.10416,-0.20833 -0.8854,0.0521 -2.34375,0.78124 -1.35415,0.62499 -2.81249,1.61458 -4.375,2.96876 -1.5625,1.24999 -2.91667,2.8125 -4.0625,4.6875 -1.24999,1.87499 -1.71874,3.85414 -1.40625,5.9375 0.20833,1.87499 0.98957,3.69791 2.34375,5.46874 1.45832,1.66655 3.64584,2.44782 6.5625,2.34376 1.875,-0.10417 3.54166,-0.78126 5,-2.03126 1.56251,-1.35417 3.22917,-3.28126 5,-5.78124 3.64584,-5.41667 6.82292,-10.46876 9.53125,-15.15626 2.70834,-4.58333 5.52084,-8.64583 8.4375,-12.1875 3.02083,-3.4375 6.40626,-6.14583 10.15625,-8.125 3.75,-1.97916 8.43748,-2.96874 14.0625,-2.96874 5.20832,-10e-6 9.79165,1.09376 13.75,3.28124 3.95833,2.08333 7.29167,4.89584 10,8.4375 2.60417,3.54167 4.63544,7.60417 6.09375,12.1875 1.35428,4.58334 2.08344,9.32293 2.1875,14.21876 0,5.83334 -0.83333,10.98958 -2.5,15.46874 -1.66667,4.37501 -3.75002,8.07293 -6.25,11.09376 -2.60417,3.12498 -5.52082,5.52082 -8.75,7.1875 -3.33331,1.77083 -6.56248,2.91665 -9.6875,3.4375 -4.16665,-10.52085 -7.29165,-18.38541 -9.375,-23.59376 1.25002,-0.31249 2.5521,-0.78124 3.90625,-1.40624 1.45835,-0.62499 2.81251,-1.5104 4.0625,-2.65626 1.25002,-1.14582 2.29169,-2.50001 3.125,-4.0625 0.83334,-1.45834 1.25,-3.22917 1.25,-5.3125 0,-2.08335 -0.67709,-4.01041 -2.03125,-5.78124 -1.25001,-1.77084 -3.22919,-2.65626 -5.9375,-2.65626 -1.97918,0 -3.75001,0.83333 -5.3125,2.5 -1.5625,1.66668 -3.64583,4.21875 -6.25,7.65626 -2.70833,4.99998 -5.46875,9.73958 -8.28125,14.21874 -2.81249,4.58334 -5.93749,8.59375 -9.375,12.03126 -3.54167,3.54166 -7.55208,6.40626 -12.03125,8.59374 -4.375,2.08336 -9.63543,3.12501 -15.78125,3.125 h -2.1875 c -3.85416,-0.20835 -7.4479,-1.30208 -10.78125,-3.28124 -3.33331,-1.97917 -6.30208,-4.73959 -8.90625,-8.28126 -2.39584,-3.33331 -4.3229,-7.4479 -5.78125,-12.34374 -1.45831,-4.99999 -2.1875,-10.57292 -2.1875,-16.71876 0,-4.79165 0.62501,-9.27082 1.875,-13.4375 1.35418,-4.27084 3.1771,-8.12501 5.46875,-11.5625 2.39585,-3.33334 5.26041,-6.24999 8.59375,-8.75 3.33332,-2.39581 7.13541,-4.11456 11.40625,-5.15624 z m -27.34375,97.5 h 119.0625 v 36.25 0.15624 c 0,5.10418 -0.9375,9.7396 -2.8125,13.90626 -1.77083,4.16667 -4.37499,7.70833 -7.8125,10.625 -3.22915,2.91666 -7.23956,5.20832 -12.03125,6.875 -4.79166,1.5625 -10.10417,2.34374 -15.9375,2.34374 -5.72916,0 -10.93747,-0.78124 -15.625,-2.34374 -4.68749,-1.66668 -8.74999,-3.95834 -12.1875,-6.875 -3.43748,-2.91667 -6.09375,-6.45833 -7.96875,-10.625 -1.87499,-4.16666 -2.8125,-8.80208 -2.8125,-13.90626 v -0.15624 -8.75 h -41.875 z m 0,88.28124 c 59.47916,17.5 99.16667,29.1146 119.0625,34.84376 v 35.9375 c -59.58332,17.39581 -99.27082,29.01041 -119.0625,34.84374 v -30.625 c 15.72916,-5.3125 26.19791,-8.85416 31.40625,-10.625 v -23.28124 c -15.72916,-5.20835 -26.19791,-8.69792 -31.40625,-10.46876 z m 92.1875,118.90626 h 26.875 v 80.9375 h -26.875 v -27.03126 h -92.1875 v -26.875 h 92.1875 z m -92.1875,94.6875 h 119.0625 v 72.96874 h -26.875 v -46.09374 h -19.21875 v 34.0625 h -26.875 v -34.0625 h -19.21875 v 46.09374 h -26.875 z m 0,90.46874 h 119.0625 v 27.34378 c -29.16666,15.9375 -48.64582,26.5625 -58.4375,31.875 h 58.4375 v 28.4375 h -119.0625 v -27.1875 c 29.27083,-15.9375 48.80208,-26.5625 58.59375,-31.875 h -58.59375 z m 46.875,147.81248 h 24.6875 c 5.83335,0.1042 11.61459,1.0938 17.34375,2.9688 5.72916,1.875 10.83334,4.6354 15.3125,8.2812 4.47917,3.75 8.07292,8.3854 10.78125,13.9063 2.70834,5.5208 4.0625,11.9791 4.0625,19.375 v 0.1562 c 0,6.4584 -0.9375,12.0313 -2.8125,16.7188 -1.77083,4.6875 -4.11458,8.6979 -7.03125,12.0312 -2.81249,3.4375 -6.04166,6.1979 -9.6875,8.2813 -3.64583,2.0833 -7.29166,3.6979 -10.9375,4.8437 -5.72918,-10.3125 -10.05208,-18.0208 -12.96875,-23.125 1.97917,-0.7291 3.95832,-1.6146 5.9375,-2.6562 2.08333,-1.1459 3.90625,-2.5 5.46875,-4.0625 1.56249,-1.6667 2.86459,-3.4896 3.90625,-5.4688 0.9374,-2.0833 1.35407,-4.2187 1.25,-6.4062 -0.41665,-5.4167 -2.60417,-9.7917 -6.5625,-13.125 -3.85418,-3.2292 -8.69792,-4.8438 -14.53125,-4.8438 h -23.28125 c -5.83334,0 -10.78126,1.6667 -14.84375,5 -3.95832,3.3334 -6.14582,7.7084 -6.5625,13.125 -0.31249,4.5834 0.83333,8.3854 3.4375,11.4063 2.70834,3.0208 5.93751,5.3646 9.6875,7.0312 -5.72916,10.3125 -10.05206,18.0209 -12.96875,23.125 -1.87499,-0.9375 -4.32292,-2.2916 -7.34375,-4.0625 -3.02082,-1.7708 -5.9375,-4.2708 -8.75,-7.5 -2.91668,-3.125 -5.41667,-7.1875 -7.5,-12.1875 -2.08332,-5 -3.125,-11.0937 -3.125,-18.2812 v -0.1563 c 0,-8.125 1.30208,-14.9479 3.90625,-20.4687 2.49998,-5.5209 5.88541,-10 10.15625,-13.4375 4.37501,-3.4375 9.42709,-5.9375 15.15625,-7.5 5.72916,-1.6667 11.66666,-2.6563 17.8125,-2.9688 z m -46.875,102.9688 h 119.0625 v 26.875 h -46.09375 v 31.875 h 46.09375 v 26.875 h -119.0625 v -26.875 h 46.09375 v -31.875 h -46.09375 z m 0,104.2187 c 59.47916,17.5 99.16667,29.1146 119.0625,34.8438 v 35.9375 c -59.58332,17.3958 -99.27082,29.0104 -119.0625,34.8437 v -30.625 c 15.72916,-5.3125 26.19791,-8.8541 31.40625,-10.625 v -23.2812 c -15.72916,-5.2084 -26.19791,-8.6979 -31.40625,-10.4688 z m 47.34375,125.625 h 27.8125 c 5.10418,0 10.31253,1.0417 15.625,3.125 5.31251,1.9792 9.99999,4.8438 14.0625,8.5938 4.58334,4.4791 8.07294,9.4791 10.46875,15 2.50001,5.625 3.75,11.5625 3.75,17.8125 v 0.1562 c 0,6.25 -1.24999,12.1875 -3.75,17.8125 -2.39581,5.625 -5.88541,10.625 -10.46875,15 -4.06251,3.8542 -8.64585,6.7188 -13.75,8.5938 -5.10417,1.9792 -10.41666,3.0209 -15.9375,3.125 h -27.8125 c -5.72918,0 -11.56251,-0.8854 -17.5,-2.6563 -5.93751,-1.7708 -11.14583,-4.7916 -15.625,-9.0625 -4.68749,-4.375 -8.22918,-9.375 -10.625,-15 -2.5,-5.625 -3.75,-11.5625 -3.75,-17.8125 v -0.1562 c 0,-6.1459 1.25,-12.0313 3.75,-17.6563 2.39582,-5.625 5.88542,-10.6771 10.46875,-15.1562 4.47917,-4.1667 9.53126,-7.1354 15.15625,-8.9063 5.72919,-1.7708 11.77084,-2.7083 18.125,-2.8125 z m -20,103.2813 c 4.79166,11.3542 8.38541,19.8958 10.78125,25.625 -0.10416,-0.2084 -0.8854,0.052 -2.34375,0.7812 -1.35415,0.625 -2.81249,1.6146 -4.375,2.9688 -1.5625,1.25 -2.91667,2.8125 -4.0625,4.6875 -1.24999,1.875 -1.71874,3.8541 -1.40625,5.9375 0.20833,1.875 0.98957,3.6979 2.34375,5.4687 1.45832,1.6666 3.64584,2.4478 6.5625,2.3438 1.875,-0.1042 3.54166,-0.7813 5,-2.0313 1.56251,-1.3542 3.22917,-3.2812 5,-5.7812 3.64584,-5.4167 6.82292,-10.4688 9.53125,-15.1563 2.70834,-4.5833 5.52084,-8.6458 8.4375,-12.1875 3.02083,-3.4375 6.40626,-6.1458 10.15625,-8.125 3.75,-1.9792 8.43748,-2.9687 14.0625,-2.9687 5.20832,0 9.79165,1.0937 13.75,3.2812 3.95833,2.0834 7.29167,4.8959 10,8.4375 2.60417,3.5417 4.63544,7.6042 6.09375,12.1875 1.35428,4.5834 2.08344,9.323 2.1875,14.2188 0,5.8333 -0.83333,10.9896 -2.5,15.4687 -1.66667,4.375 -3.75002,8.0729 -6.25,11.0938 -2.60417,3.125 -5.52082,5.5208 -8.75,7.1875 -3.33331,1.7708 -6.56248,2.9166 -9.6875,3.4375 -4.16665,-10.5209 -7.29165,-18.3854 -9.375,-23.5938 1.25002,-0.3125 2.5521,-0.7812 3.90625,-1.4062 1.45835,-0.625 2.81251,-1.5104 4.0625,-2.6563 1.25002,-1.1458 2.29169,-2.5 3.125,-4.0625 0.83334,-1.4583 1.25,-3.2291 1.25,-5.3125 0,-2.0833 -0.67709,-4.0104 -2.03125,-5.7812 -1.25001,-1.7709 -3.22919,-2.6563 -5.9375,-2.6563 -1.97918,0 -3.75001,0.8334 -5.3125,2.5 -1.5625,1.6667 -3.64583,4.2188 -6.25,7.6563 -2.70833,5 -5.46875,9.7396 -8.28125,14.2187 -2.81249,4.5834 -5.93749,8.5938 -9.375,12.0313 -3.54167,3.5416 -7.55208,6.4062 -12.03125,8.5937 -4.375,2.0834 -9.63543,3.125 -15.78125,3.125 h -2.1875 c -3.85416,-0.2083 -7.4479,-1.3021 -10.78125,-3.2812 -3.33331,-1.9792 -6.30208,-4.7396 -8.90625,-8.2813 -2.39584,-3.3333 -4.3229,-7.4479 -5.78125,-12.3437 -1.45831,-5 -2.1875,-10.5729 -2.1875,-16.7188 0,-4.7916 0.62501,-9.2708 1.875,-13.4375 1.35418,-4.2708 3.1771,-8.125 5.46875,-11.5625 2.39585,-3.3333 5.26041,-6.25 8.59375,-8.75 3.33332,-2.3958 7.13541,-4.1146 11.40625,-5.1562 z m -27.34375,97.5 h 119.0625 v 36.25 0.1562 c 0,5.1042 -0.9375,9.7396 -2.8125,13.9063 -1.77083,4.1666 -4.37499,7.7083 -7.8125,10.625 -3.22915,2.9167 -7.23956,5.2083 -12.03125,6.875 -4.79166,1.5625 -10.10417,2.3437 -15.9375,2.3437 -5.72916,0 -10.93747,-0.7812 -15.625,-2.3437 -4.68749,-1.6667 -8.74999,-3.9583 -12.1875,-6.875 -3.43748,-2.9167 -6.09375,-6.4584 -7.96875,-10.625 -1.87499,-4.1667 -2.8125,-8.8021 -2.8125,-13.9063 v -0.1562 -8.75 h -41.875 z m 0,88.2812 c 59.47916,17.5 99.16667,29.1146 119.0625,34.8438 v 35.9375 c -59.58332,17.3958 -99.27082,29.0104 -119.0625,34.8437 v -30.625 c 15.72916,-5.3125 26.19791,-8.8541 31.40625,-10.625 v -23.2812 c -15.72916,-5.2084 -26.19791,-8.6979 -31.40625,-10.4688 z m 92.1875,118.9063 h 26.875 v 80.9375 h -26.875 v -27.0313 h -92.1875 v -26.875 h 92.1875 z m -92.1875,94.6875 h 119.0625 v 72.9687 h -26.875 v -46.0937 h -19.21875 v 34.0625 h -26.875 v -34.0625 h -19.21875 v 46.0937 h -26.875 z m 0,90.4687 h 119.0625 v 27.3438 c -29.16666,15.9375 -48.64582,26.5625 -58.4375,31.875 h 58.4375 v 28.4375 h -119.0625 v -27.1875 c 29.27083,-15.9375 48.80208,-26.5625 58.59375,-31.875 h -58.59375 z"
         transform="matrix(0,-0.26458333,0.26458333,0,-303,0)"
         id="path935"
         inkscape:connector-curvature="0" />
    </g>
    <g
       aria-label="CHAOSPATINNEN "
       transform="rotate(90,0.52916666,0.52916666)"
       style="font-style:normal;font-variant:normal;font-weight:normal;font-stretch:normal;font-size:42.33333206px;line-height:1;font-family:'Blackout Zwo Uhr Nachts';-inkscape-font-specification:'Blackout Zwo Uhr Nachts';letter-spacing:0px;word-spacing:0px;fill:#000000;fill-opacity:1;stroke:none;stroke-width:0.26458332"
       id="text835">
      <path
         style="stroke-width:0.99999994"
         d="m 266.75195,49.111328 v 107.031252 102.8125 124.21875 104.84375 94.53125 89.21875 126.09375 90.3125 43.4375 102.65627 104.0625 91.4062 100.9375 2.9688 46.875 H 434.0957 v -46.875 -2.9688 -103.2812 -91.25 -104.0625 -104.06252 -44.375 -93.125 -119.6875 -90 -95.9375 -104.0625 -124.6875 -102.8125 -104.218752 z m 71.71875,8.28125 h 24.6875 c 5.83334,0.104164 11.61459,1.093752 17.34375,2.96875 5.72916,1.874999 10.83333,4.635417 15.3125,8.28125 4.47917,3.750022 8.07292,8.385419 10.78125,13.90625 2.70834,5.520832 4.0625,11.97917 4.0625,19.375002 v 0.15625 c 0,6.45833 -0.9375,12.03125 -2.8125,16.71875 -1.77083,4.68749 -4.11459,8.69791 -7.03125,12.03125 -2.81249,3.4375 -6.04166,6.19792 -9.6875,8.28125 -3.64583,2.08332 -7.29166,3.6979 -10.9375,4.84375 -5.72916,-10.31252 -10.05208,-18.02085 -12.96875,-23.125 1.97917,-0.72917 3.95834,-1.61459 5.9375,-2.65625 2.08334,-1.14585 3.90625,-2.50002 5.46875,-4.0625 1.56251,-1.66667 2.86459,-3.48959 3.90625,-5.46875 0.9374,-2.08335 1.35407,-4.21876 1.25,-6.40625 -0.41668,-5.41667 -2.60417,-9.79166 -6.5625,-13.125002 -3.85417,-3.229153 -8.69791,-4.84375 -14.53125,-4.84375 H 339.4082 c -5.83333,0 -10.78125,1.666658 -14.84375,5 -3.95833,3.333317 -6.14583,7.708332 -6.5625,13.125002 -0.3125,4.58333 0.83334,8.38542 3.4375,11.40625 2.70834,3.02085 5.9375,5.36458 9.6875,7.03125 -5.72916,10.31249 -10.05208,18.02082 -12.96875,23.125 -1.875,-0.9375 -4.32291,-2.29167 -7.34375,-4.0625 -3.02083,-1.77084 -5.9375,-4.27082 -8.75,-7.5 -2.91666,-3.12499 -5.41666,-7.18749 -7.5,-12.1875 -2.08333,-4.99999 -3.125,-11.09375 -3.125,-18.28125 v -0.15625 c 0,-8.125003 1.30209,-14.94792 3.90625,-20.468752 2.5,-5.520831 5.88542,-9.999994 10.15625,-13.4375 4.37501,-3.437505 9.42709,-5.937493 15.15625,-7.5 5.72917,-1.666646 11.66667,-2.656233 17.8125,-2.96875 z m -46.875,102.968752 h 119.0625 v 26.875 h -46.09375 v 31.875 h 46.09375 v 26.875 H 291.5957 v -26.875 h 46.09375 v -31.875 H 291.5957 Z m 0,104.21875 c 59.47916,17.49999 99.16667,29.11459 119.0625,34.84375 v 35.9375 c -59.58332,17.39583 -99.27083,29.01043 -119.0625,34.84375 v -30.625 c 15.72917,-5.31251 26.19792,-8.85417 31.40625,-10.625 v -23.28125 c -15.72916,-5.20834 -26.19791,-8.69792 -31.40625,-10.46875 z m 47.34375,125.625 h 27.8125 c 5.10417,0 10.31249,1.04167 15.625,3.125 5.31248,1.97916 9.99999,4.84375 14.0625,8.59375 4.58334,4.47917 8.07291,9.47917 10.46875,15 2.49998,5.62499 3.75,11.56249 3.75,17.8125 v 0.15625 c 0,6.25 -1.25002,12.18748 -3.75,17.8125 -2.39584,5.62499 -5.88541,10.62502 -10.46875,15 -4.06251,3.85418 -8.64585,6.71875 -13.75,8.59375 -5.10417,1.97926 -10.41666,3.02094 -15.9375,3.125 h -27.8125 c -5.72916,0 -11.5625,-0.88542 -17.5,-2.65625 -5.9375,-1.77084 -11.14583,-4.79166 -15.625,-9.0625 -4.6875,-4.37498 -8.22916,-9.37501 -10.625,-15 -2.5,-5.62502 -3.75,-11.5625 -3.75,-17.8125 v -0.15625 c 0,-6.14582 1.25,-12.03123 3.75,-17.65625 2.39584,-5.625 5.88542,-10.67708 10.46875,-15.15625 4.47917,-4.16665 9.53125,-7.13542 15.15625,-8.90625 5.72917,-1.77094 11.77084,-2.70844 18.125,-2.8125 z m -20,103.28125 c 4.79167,11.35418 8.38542,19.89584 10.78125,25.625 -0.10416,-0.20833 -0.88541,0.0521 -2.34375,0.78125 -1.35416,0.62498 -2.8125,1.61457 -4.375,2.96875 -1.5625,1.24999 -2.91667,2.8125 -4.0625,4.6875 -1.25,1.875 -1.71875,3.85415 -1.40625,5.9375 0.20834,1.875 0.98959,3.69791 2.34375,5.46875 1.45834,1.66654 3.64584,2.44781 6.5625,2.34375 1.875,-0.10417 3.54167,-0.78126 5,-2.03125 1.56251,-1.35416 3.22917,-3.28125 5,-5.78125 3.64584,-5.41667 6.82292,-10.46876 9.53125,-15.15625 2.70834,-4.58333 5.52084,-8.64583 8.4375,-12.1875 3.02084,-3.43751 6.40625,-6.14584 10.15625,-8.125 3.75,-1.97916 8.4375,-2.96875 14.0625,-2.96875 5.20834,0 9.79168,1.09376 13.75,3.28125 3.95833,2.08332 7.29167,4.89583 10,8.4375 2.60417,3.54167 4.63541,7.60417 6.09375,12.1875 1.35426,4.58333 2.08344,9.3229 2.1875,14.21875 0,5.83332 -0.83333,10.98958 -2.5,15.46875 -1.66664,4.375 -3.74999,8.07292 -6.25,11.09375 -2.60417,3.12499 -5.52082,5.52083 -8.75,7.1875 -3.33331,1.77083 -6.56248,2.91665 -9.6875,3.4375 -4.16665,-10.52085 -7.29166,-18.38541 -9.375,-23.59375 1.25,-0.31249 2.5521,-0.78124 3.90625,-1.40625 1.45835,-0.62498 2.81251,-1.51043 4.0625,-2.65625 1.25002,-1.14585 2.29167,-2.50002 3.125,-4.0625 0.83334,-1.45835 1.25,-3.22918 1.25,-5.3125 0,-2.08335 -0.67707,-4.01042 -2.03125,-5.78125 -1.24999,-1.77084 -3.22916,-2.65625 -5.9375,-2.65625 -1.97917,0 -3.75,0.83333 -5.3125,2.5 -1.5625,1.66667 -3.64583,4.21874 -6.25,7.65625 -2.70833,4.99999 -5.46875,9.73958 -8.28125,14.21875 -2.8125,4.58333 -5.9375,8.59374 -9.375,12.03125 -3.54166,3.54167 -7.55208,6.40626 -12.03125,8.59375 -4.375,2.08335 -9.63541,3.125 -15.78125,3.125 h -2.1875 c -3.85416,-0.20835 -7.44791,-1.30209 -10.78125,-3.28125 -3.33333,-1.97916 -6.30208,-4.73958 -8.90625,-8.28125 -2.39583,-3.33332 -4.32291,-7.4479 -5.78125,-12.34375 -1.45833,-4.99999 -2.1875,-10.57291 -2.1875,-16.71875 0,-4.79166 0.62501,-9.27082 1.875,-13.4375 1.35417,-4.27084 3.17709,-8.12502 5.46875,-11.5625 2.39584,-3.33334 5.26042,-6.25 8.59375,-8.75 3.33334,-2.39582 7.13542,-4.11456 11.40625,-5.15625 z m -27.34375,97.5 h 119.0625 v 36.25 0.15625 c 0,5.10417 -0.9375,9.7396 -2.8125,13.90625 -1.77083,4.16668 -4.37499,7.70834 -7.8125,10.625 -3.22915,2.91666 -7.23959,5.20833 -12.03125,6.875 -4.79168,1.56251 -10.10417,2.34375 -15.9375,2.34375 -5.72916,0 -10.9375,-0.78124 -15.625,-2.34375 -4.6875,-1.66667 -8.75,-3.95834 -12.1875,-6.875 -3.43749,-2.91666 -6.09375,-6.45832 -7.96875,-10.625 -1.875,-4.16665 -2.8125,-8.80208 -2.8125,-13.90625 v -0.15625 -8.75 h -41.875 z m 0,88.28125 c 59.47916,17.49999 99.16667,29.11459 119.0625,34.84375 v 35.9375 c -59.58332,17.39582 -99.27083,29.01042 -119.0625,34.84375 v -30.625 c 15.72917,-5.31251 26.19792,-8.85417 31.40625,-10.625 v -23.28125 c -15.72916,-5.20834 -26.19791,-8.69792 -31.40625,-10.46875 z m 92.1875,118.90625 h 26.875 v 80.9375 h -26.875 v -27.03125 h -92.1875 v -26.875 h 92.1875 z m -92.1875,95.625 h 119.0625 v 26.875 H 291.5957 Z m 0,43.59375 h 119.0625 v 27.34375 c -29.16666,15.9375 -48.64583,26.5625 -58.4375,31.875 h 58.4375 v 28.43747 H 291.5957 v -27.18747 c 29.27083,-15.9375 48.80209,-26.5625 58.59375,-31.875 H 291.5957 Z m 0,104.06252 h 119.0625 v 27.3437 c -29.16666,15.9375 -48.64583,26.5625 -58.4375,31.875 h 58.4375 v 28.4375 H 291.5957 v -27.1875 c 29.27083,-15.9375 48.80209,-26.5625 58.59375,-31.875 H 291.5957 Z m 0,104.8437 h 119.0625 v 72.9688 h -26.875 v -46.0938 h -19.21875 v 34.0625 h -26.875 v -34.0625 H 318.4707 v 46.0938 h -26.875 z m 0,90.4688 h 119.0625 v 27.3437 c -29.16666,15.9375 -48.64583,26.5625 -58.4375,31.875 h 58.4375 v 28.4375 H 291.5957 v -27.1875 c 29.27083,-15.9375 48.80209,-26.5625 58.59375,-31.875 H 291.5957 Z"
         transform="matrix(0,-0.26458333,0.26458333,0,-303,0)"
         id="path978"
         inkscape:connector-curvature="0" />
    </g>
    <g
       aria-label="CHAOSPATENTAMT"
       transform="rotate(90)"
       style="font-style:normal;font-variant:normal;font-weight:normal;font-stretch:normal;font-size:42.33333206px;line-height:1;font-family:'Blackout Zwo Uhr Nachts';-inkscape-font-specification:'Blackout Zwo Uhr Nachts';letter-spacing:0px;word-spacing:0px;fill:#000000;fill-opacity:1;stroke:none;stroke-width:0.26458332"
       id="text862">
      <path
         style="stroke-width:0.99999994"
         d="M 58.181641 51.96875 L 58.181641 159 L 58.181641 261.8125 L 58.181641 386.03125 L 58.181641 490.875 L 58.181641 585.40625 L 58.181641 674.625 L 58.181641 800.71875 L 58.181641 891.03125 L 58.181641 979.15625 L 58.181641 1083.0625 L 58.181641 1178.5312 L 58.181641 1298.2188 L 58.181641 1422.4375 L 58.181641 1425.0938 L 58.181641 1520.0938 L 225.52539 1520.0938 L 225.52539 1425.0938 L 225.52539 1422.4375 L 225.52539 1295.875 L 225.52539 1171.1875 L 225.52539 1080.875 L 225.52539 976.8125 L 225.52539 885.5625 L 225.52539 793.375 L 225.52539 673.6875 L 225.52539 583.6875 L 225.52539 487.75 L 225.52539 383.6875 L 225.52539 259 L 225.52539 156.1875 L 225.52539 51.96875 L 58.181641 51.96875 z M 129.90039 60.25 L 154.58789 60.25 C 160.42122 60.354164 166.20247 61.343752 171.93164 63.21875 C 177.66081 65.093748 182.76497 67.854167 187.24414 71.5 C 191.72331 75.250022 195.31706 79.885419 198.02539 85.40625 C 200.73372 90.927081 202.08789 97.38542 202.08789 104.78125 L 202.08789 104.9375 C 202.08789 111.39583 201.15039 116.96875 199.27539 121.65625 C 197.50456 126.34375 195.16081 130.35416 192.24414 133.6875 C 189.43164 137.12501 186.20247 139.88542 182.55664 141.96875 C 178.91081 144.05208 175.26497 145.66665 171.61914 146.8125 C 165.88997 136.49998 161.56706 128.79165 158.65039 123.6875 C 160.62956 122.95833 162.60872 122.07291 164.58789 121.03125 C 166.67122 119.8854 168.49414 118.53123 170.05664 116.96875 C 171.61914 115.30208 172.92122 113.47916 173.96289 111.5 C 174.90039 109.41665 175.31705 107.28124 175.21289 105.09375 C 174.79622 99.677082 172.60872 95.302092 168.65039 91.96875 C 164.79622 88.739597 159.95248 87.125 154.11914 87.125 L 130.83789 87.125 C 125.00456 87.125 120.05664 88.791658 115.99414 92.125 C 112.03581 95.458317 109.84831 99.833332 109.43164 105.25 C 109.11914 109.83333 110.26498 113.6354 112.86914 116.65625 C 115.57747 119.67708 118.80664 122.02083 122.55664 123.6875 C 116.82747 133.99999 112.50456 141.70832 109.58789 146.8125 C 107.71289 145.875 105.26498 144.52083 102.24414 142.75 C 99.223308 140.97917 96.306641 138.47918 93.494141 135.25 C 90.577474 132.12501 88.077474 128.06251 85.994141 123.0625 C 83.91081 118.06251 82.869141 111.96875 82.869141 104.78125 L 82.869141 104.625 C 82.869141 96.499998 84.171226 89.677081 86.775391 84.15625 C 89.275392 78.635419 92.660807 74.156256 96.931641 70.71875 C 101.30664 67.281244 106.35872 64.781257 112.08789 63.21875 C 117.81706 61.552104 123.75456 60.562517 129.90039 60.25 z M 83.025391 163.21875 L 202.08789 163.21875 L 202.08789 190.09375 L 155.99414 190.09375 L 155.99414 221.96875 L 202.08789 221.96875 L 202.08789 248.84375 L 83.025391 248.84375 L 83.025391 221.96875 L 129.11914 221.96875 L 129.11914 190.09375 L 83.025391 190.09375 L 83.025391 163.21875 z M 83.025391 267.4375 C 142.50455 284.93749 182.19206 296.55209 202.08789 302.28125 L 202.08789 338.21875 C 142.50456 355.61458 102.81706 367.22918 83.025391 373.0625 L 83.025391 342.4375 C 98.754557 337.125 109.22331 333.58333 114.43164 331.8125 L 114.43164 308.53125 C 98.702474 303.32291 88.233723 299.83333 83.025391 298.0625 L 83.025391 267.4375 z M 130.36914 393.0625 L 158.18164 393.0625 C 163.28581 393.0625 168.49414 394.10417 173.80664 396.1875 C 179.11914 398.16666 183.80664 401.03125 187.86914 404.78125 C 192.45247 409.26042 195.94206 414.26042 198.33789 419.78125 C 200.83789 425.40627 202.08789 431.34377 202.08789 437.59375 L 202.08789 437.75 C 202.08789 444 200.83789 449.93748 198.33789 455.5625 C 195.94206 461.1875 192.45247 466.1875 187.86914 470.5625 C 183.80664 474.41666 179.22331 477.28125 174.11914 479.15625 C 169.01497 481.13551 163.70247 482.17719 158.18164 482.28125 L 130.36914 482.28125 C 124.63998 482.28125 118.80664 481.39583 112.86914 479.625 C 106.93164 477.85417 101.72331 474.83332 97.244141 470.5625 C 92.55664 466.1875 89.014973 461.1875 86.619141 455.5625 C 84.119142 449.93748 82.869141 444 82.869141 437.75 L 82.869141 437.59375 C 82.869141 431.44794 84.119142 425.56252 86.619141 419.9375 C 89.014973 414.3125 92.504556 409.26042 97.087891 404.78125 C 101.56706 400.6146 106.61914 397.64583 112.24414 395.875 C 117.97331 394.10406 124.01498 393.16656 130.36914 393.0625 z M 110.36914 496.34375 C 115.16081 507.69793 118.75456 516.23959 121.15039 521.96875 C 121.04622 521.76042 120.26497 522.02083 118.80664 522.75 C 117.45247 523.37501 115.99414 524.3646 114.43164 525.71875 C 112.86914 526.96874 111.51497 528.53125 110.36914 530.40625 C 109.11914 532.28127 108.65039 534.26042 108.96289 536.34375 C 109.17122 538.21875 109.95247 540.04167 111.30664 541.8125 C 112.76497 543.47907 114.95247 544.26031 117.86914 544.15625 C 119.74414 544.05206 121.41081 543.37499 122.86914 542.125 C 124.43164 540.77085 126.09831 538.84376 127.86914 536.34375 C 131.51497 530.92708 134.69206 525.875 137.40039 521.1875 C 140.10872 516.60417 142.92122 512.54167 145.83789 509 C 148.85872 505.56249 152.24414 502.85416 155.99414 500.875 C 159.74414 498.89584 164.43164 497.90625 170.05664 497.90625 C 175.26497 497.90625 179.84831 499.00001 183.80664 501.1875 C 187.76497 503.27083 191.09831 506.08333 193.80664 509.625 C 196.41081 513.16667 198.44206 517.22917 199.90039 521.8125 C 201.25456 526.39583 201.98373 531.1354 202.08789 536.03125 C 202.08789 541.86457 201.25456 547.02083 199.58789 551.5 C 197.92122 555.875 195.83789 559.57292 193.33789 562.59375 C 190.73372 565.71874 187.81706 568.11458 184.58789 569.78125 C 181.25456 571.55208 178.02539 572.69791 174.90039 573.21875 C 170.73372 562.69791 167.60872 554.83331 165.52539 549.625 C 166.77539 549.31248 168.07747 548.84376 169.43164 548.21875 C 170.88997 547.59377 172.24414 546.70833 173.49414 545.5625 C 174.74414 544.41665 175.78581 543.06248 176.61914 541.5 C 177.45247 540.04166 177.86914 538.27083 177.86914 536.1875 C 177.86914 534.10415 177.19206 532.17708 175.83789 530.40625 C 174.58789 528.63544 172.60872 527.75 169.90039 527.75 C 167.92122 527.75 166.15039 528.58335 164.58789 530.25 C 163.02539 531.91667 160.94206 534.46874 158.33789 537.90625 C 155.62956 542.90624 152.86914 547.64583 150.05664 552.125 C 147.24414 556.70833 144.11914 560.71874 140.68164 564.15625 C 137.13997 567.69792 133.12956 570.56251 128.65039 572.75 C 124.27539 574.83335 119.01497 575.875 112.86914 575.875 L 110.68164 575.875 C 106.82747 575.66667 103.23372 574.57294 99.900391 572.59375 C 96.567059 570.61459 93.598308 567.85417 90.994141 564.3125 C 88.598308 560.97918 86.671224 556.8646 85.212891 551.96875 C 83.754557 546.96876 83.025391 541.39584 83.025391 535.25 C 83.025391 530.45834 83.650393 525.97918 84.900391 521.8125 C 86.254558 517.54166 88.077474 513.68748 90.369141 510.25 C 92.764976 506.91666 95.629559 504.00001 98.962891 501.5 C 102.29622 499.10418 106.09831 497.38544 110.36914 496.34375 z M 83.025391 593.84375 L 202.08789 593.84375 L 202.08789 630.09375 L 202.08789 630.25 C 202.08789 635.35418 201.15039 639.9896 199.27539 644.15625 C 197.50456 648.32293 194.90039 651.86459 191.46289 654.78125 C 188.23373 657.69791 184.22331 659.98958 179.43164 661.65625 C 174.63997 663.21876 169.32747 664 163.49414 664 C 157.76497 664 152.55664 663.21876 147.86914 661.65625 C 143.18164 659.98958 139.11914 657.69791 135.68164 654.78125 C 132.24414 651.86459 129.58789 648.32293 127.71289 644.15625 C 125.83789 639.9896 124.90039 635.35418 124.90039 630.25 L 124.90039 630.09375 L 124.90039 621.34375 L 83.025391 621.34375 L 83.025391 593.84375 z M 83.025391 682.125 C 142.50455 699.62499 182.19206 711.23959 202.08789 716.96875 L 202.08789 752.90625 C 142.50456 770.30207 102.81706 781.91667 83.025391 787.75 L 83.025391 757.125 C 98.754557 751.8125 109.22331 748.27083 114.43164 746.5 L 114.43164 723.21875 C 98.702474 718.01041 88.233723 714.52083 83.025391 712.75 L 83.025391 682.125 z M 175.21289 801.03125 L 202.08789 801.03125 L 202.08789 881.96875 L 175.21289 881.96875 L 175.21289 854.9375 L 83.025391 854.9375 L 83.025391 828.0625 L 175.21289 828.0625 L 175.21289 801.03125 z M 83.025391 895.71875 L 202.08789 895.71875 L 202.08789 968.6875 L 175.21289 968.6875 L 175.21289 922.59375 L 155.99414 922.59375 L 155.99414 956.65625 L 129.11914 956.65625 L 129.11914 922.59375 L 109.90039 922.59375 L 109.90039 968.6875 L 83.025391 968.6875 L 83.025391 895.71875 z M 83.025391 986.1875 L 202.08789 986.1875 L 202.08789 1013.5312 C 172.92122 1029.4688 153.44206 1040.0938 143.65039 1045.4062 L 202.08789 1045.4062 L 202.08789 1073.8438 L 83.025391 1073.8438 L 83.025391 1046.6562 C 112.29622 1030.7188 131.82747 1020.0937 141.61914 1014.7812 L 83.025391 1014.7812 L 83.025391 986.1875 z M 175.21289 1088.5312 L 202.08789 1088.5312 L 202.08789 1169.4688 L 175.21289 1169.4688 L 175.21289 1142.4375 L 83.025391 1142.4375 L 83.025391 1115.5625 L 175.21289 1115.5625 L 175.21289 1088.5312 z M 83.025391 1179.625 C 142.50455 1197.125 182.19206 1208.7396 202.08789 1214.4688 L 202.08789 1250.4062 C 142.50456 1267.8021 102.81706 1279.4167 83.025391 1285.25 L 83.025391 1254.625 C 98.754557 1249.3125 109.22331 1245.7708 114.43164 1244 L 114.43164 1220.7188 C 98.702474 1215.5104 88.233723 1212.0208 83.025391 1210.25 L 83.025391 1179.625 z M 83.025391 1309.3125 L 202.08789 1309.3125 L 202.08789 1336.6562 C 167.50456 1348.9479 144.43164 1357.1771 132.86914 1361.3438 C 167.45247 1373.7396 190.52539 1381.9688 202.08789 1386.0312 L 202.08789 1412.9062 L 83.025391 1412.9062 L 83.025391 1384.4688 L 124.58789 1384.4688 C 103.85872 1377.1771 90.004555 1372.3333 83.025391 1369.9375 L 83.025391 1352.5938 C 104.48372 1345.1979 118.75456 1340.25 125.83789 1337.75 L 83.025391 1337.75 L 83.025391 1309.3125 z M 175.21289 1430.0938 L 202.08789 1430.0938 L 202.08789 1511.0312 L 175.21289 1511.0312 L 175.21289 1484 L 83.025391 1484 L 83.025391 1457.125 L 175.21289 1457.125 L 175.21289 1430.0938 z "
         transform="matrix(0,-0.26458333,0.26458333,0,-303,0)"
         id="path1007" />
    </g>
  </g>
</svg>
