<?xml version="1.0" encoding="UTF-8" standalone="no"?>
<!-- Created with Inkscape (http://www.inkscape.org/) -->

<svg
   xmlns:dc="http://purl.org/dc/elements/1.1/"
   xmlns:cc="http://creativecommons.org/ns#"
   xmlns:rdf="http://www.w3.org/1999/02/22-rdf-syntax-ns#"
   xmlns:svg="http://www.w3.org/2000/svg"
   xmlns="http://www.w3.org/2000/svg"
   xmlns:sodipodi="http://sodipodi.sourceforge.net/DTD/sodipodi-0.dtd"
   xmlns:inkscape="http://www.inkscape.org/namespaces/inkscape"
   width="297mm"
   height="600mm"
   viewBox="0 0 297 600"
   version="1.1"
   id="svg8"
   inkscape:version="0.92.3 (2405546, 2018-03-11)"
   sodipodi:docname="restaurant02.svg"
   inkscape:export-filename="/home/housemeista/Dropbox/Fla/Stencilkram Inkscape/Vorlagen/schildcyber.png"
   inkscape:export-xdpi="96"
   inkscape:export-ydpi="96">
  <defs
     id="defs2" />
  <sodipodi:namedview
     id="base"
     pagecolor="#ffffff"
     bordercolor="#666666"
     borderopacity="1.0"
     inkscape:pageopacity="0"
     inkscape:pageshadow="2"
     inkscape:zoom="0.35"
     inkscape:cx="1329.6964"
     inkscape:cy="1244.8045"
     inkscape:document-units="mm"
     inkscape:current-layer="text838"
     showgrid="true"
     inkscape:pagecheckerboard="true"
     inkscape:window-width="1920"
     inkscape:window-height="1031"
     inkscape:window-x="0"
     inkscape:window-y="25"
     inkscape:window-maximized="1"
     showguides="true"
     inkscape:guide-bbox="true">
    <inkscape:grid
       type="xygrid"
       id="grid3713" />
    <sodipodi:guide
       position="158.75,210"
       orientation="0,1"
       id="guide21"
       inkscape:locked="false"
       inkscape:label=""
       inkscape:color="rgb(0,0,255)" />
    <sodipodi:guide
       position="30,285"
       orientation="1,0"
       id="guide23"
       inkscape:locked="false"
       inkscape:label=""
       inkscape:color="rgb(0,0,255)" />
    <sodipodi:guide
       position="201.08334,315"
       orientation="0,1"
       id="guide25"
       inkscape:locked="false"
       inkscape:label=""
       inkscape:color="rgb(0,0,255)" />
    <sodipodi:guide
       position="312.20833,105"
       orientation="0,1"
       id="guide27"
       inkscape:locked="false"
       inkscape:label=""
       inkscape:color="rgb(0,0,255)" />
    <sodipodi:guide
       position="148,269.87499"
       orientation="1,0"
       id="guide51"
       inkscape:locked="false"
       inkscape:label=""
       inkscape:color="rgb(0,0,255)" />
    <sodipodi:guide
       position="178,341.31249"
       orientation="1,0"
       id="guide141"
       inkscape:locked="false"
       inkscape:label=""
       inkscape:color="rgb(0,0,255)" />
    <sodipodi:guide
       position="118,359.83333"
       orientation="1,0"
       id="guide143"
       inkscape:locked="false"
       inkscape:label=""
       inkscape:color="rgb(0,0,255)" />
    <sodipodi:guide
       position="63.500002,399.52082"
       orientation="0,1"
       id="guide145"
       inkscape:locked="false" />
  </sodipodi:namedview>
  <metadata
     id="metadata5">
    <rdf:RDF>
      <cc:Work
         rdf:about="">
        <dc:format>image/svg+xml</dc:format>
        <dc:type
           rdf:resource="http://purl.org/dc/dcmitype/StillImage" />
        <dc:title />
      </cc:Work>
    </rdf:RDF>
  </metadata>
  <g
     inkscape:label="Ebene 1"
     inkscape:groupmode="layer"
     id="layer1"
     transform="translate(0,303)">
    <text
       xml:space="preserve"
       style="font-style:normal;font-variant:normal;font-weight:normal;font-stretch:normal;font-size:14.11111069px;line-height:1.25;font-family:'Blackout Zwo Uhr Nachts';-inkscape-font-specification:'Blackout Zwo Uhr Nachts';letter-spacing:0px;word-spacing:0px;fill:#000000;fill-opacity:1;stroke:none;stroke-width:0.26458332"
       x="79.375"
       y="106.49999"
       id="text864"><tspan
         sodipodi:role="line"
         id="tspan862"
         x="79.375"
         y="120.28007"
         style="stroke-width:0.26458332" /></text>
    <g
       aria-label="RESOURCEFUL MISchIEF"
       style="font-style:normal;font-variant:normal;font-weight:normal;font-stretch:normal;font-size:14.11111069px;line-height:1.25;font-family:'Blackout Zwo Uhr Nachts';-inkscape-font-specification:'Blackout Zwo Uhr Nachts';letter-spacing:0px;word-spacing:0px;fill:#ff0000;fill-opacity:1;stroke:none;stroke-width:0.26458332"
       id="text854-5">
      <g
         aria-label="EPSTEIN DIDN'T KILL HIMSELF"
         transform="rotate(90)"
         style="font-style:normal;font-variant:normal;font-weight:normal;font-stretch:normal;font-size:42.33333206px;line-height:1.25;font-family:'Blackout Zwo Uhr Nachts';-inkscape-font-specification:'Blackout Zwo Uhr Nachts';letter-spacing:0px;word-spacing:0px;fill:#000000;fill-opacity:1;stroke:none;stroke-width:0.07000434"
         id="text910">
        <path
           style="font-size:43.7444458px;text-align:center;text-anchor:middle;stroke-width:0.07000434"
           d="m -301.13196,-23.207648 h 25.58862 24.22177 26.35808 25.0331 24.09362 12.47417 28.06651 12.81575 27.767298 12.260752 28.493349 28.194672 8.800491 26.1012513 12.9438927 26.656771 12.516564 21.701521 21.445198 12.77286 27.76731 12.26074 34.94413 25.97308 25.11888 20.8044 0.6408 23.40993 V -68.959895 H 264.68362 264.04282 242.59763 217.6498 191.42039 156.81786 144.08735 116.06375 103.54668 82.315428 60.870235 48.140258 20.970857 8.45379 h -26.015976 -9.013402 -28.237563 -28.023613 -12.730488 -28.023618 -12.51706 -28.23704 -12.13259 -24.94783 -25.20415 -25.03361 -24.52098 -24.94783 z M -298.35539,-30 v -32.552018 h 19.9502 v 7.347874 h -12.60233 v 5.254458 h 9.31261 v 7.347873 h -9.31261 v 5.254459 h 12.60233 V -30 Z m 24.94835,0 v -32.552018 h 9.91051 0.0429 c 1.39549,0 2.66265,0.256316 3.80183,0.768946 1.13917,0.48415 2.10731,1.196483 2.90473,2.136304 0.79743,0.882864 1.42432,1.979149 1.87999,3.289205 0.42719,1.310055 0.64079,2.762506 0.64079,4.357356 0,1.566371 -0.2136,2.990517 -0.64079,4.272092 -0.45567,1.281576 -1.08256,2.392273 -1.87999,3.332097 -0.79742,0.939821 -1.76556,1.666046 -2.90473,2.178677 -1.13918,0.51263 -2.40634,0.768945 -3.80183,0.768945 h -0.0429 -2.39211 V -30 Z m 24.09362,-7.475511 c 3.10426,-1.310055 5.4394,-2.292596 7.00577,-2.947625 -0.057,0.02848 0.0141,0.242076 0.21342,0.640789 0.17089,0.370232 0.44161,0.768599 0.81184,1.195793 0.34176,0.427191 0.76895,0.797769 1.28158,1.111043 0.51263,0.341752 1.05357,0.469911 1.62316,0.384472 0.51263,-0.05696 1.01136,-0.270555 1.49551,-0.640787 0.45565,-0.398714 0.66926,-0.996783 0.64079,-1.794205 -0.0285,-0.512633 -0.21377,-0.968648 -0.55552,-1.367359 -0.37024,-0.427194 -0.89728,-0.882692 -1.58078,-1.366843 -1.48093,-0.996781 -2.86184,-1.865577 -4.14342,-2.606043 -1.2531,-0.740465 -2.3638,-1.50941 -3.3321,-2.306835 -0.93982,-0.825905 -1.68046,-1.751315 -2.22157,-2.776575 -0.54111,-1.02526 -0.81183,-2.306836 -0.81183,-3.844726 0,-1.423972 0.29903,-2.67724 0.8971,-3.75946 0.56958,-1.08222 1.33854,-1.993217 2.30683,-2.733683 0.96831,-0.711988 2.07901,-1.267335 3.3321,-1.666049 1.25309,-0.370232 2.54908,-0.569934 3.88762,-0.598414 1.59485,0 3.00458,0.228008 4.2292,0.683681 1.19614,0.455671 2.20698,1.025433 3.03289,1.708939 0.85438,0.711985 1.50958,1.509238 1.96525,2.392103 0.48415,0.911341 0.7976,1.794034 0.94,2.648415 -2.87643,1.13918 -5.0268,1.993564 -6.45077,2.563151 -0.0854,-0.341751 -0.21359,-0.697402 -0.38448,-1.067633 -0.17087,-0.398714 -0.41277,-0.769292 -0.72605,-1.111044 -0.31328,-0.341754 -0.68385,-0.626377 -1.11104,-0.854212 -0.39872,-0.227836 -0.88252,-0.34158 -1.45211,-0.34158 -0.56959,0 -1.09663,0.184772 -1.58078,0.555003 -0.48415,0.341755 -0.72606,0.883209 -0.72606,1.623674 0,0.54111 0.22749,1.024917 0.68317,1.452108 0.45566,0.427193 1.15358,0.996952 2.09341,1.708941 1.36701,0.740465 2.663,1.494999 3.88762,2.263944 1.2531,0.768945 2.34938,1.623327 3.2892,2.563151 0.9683,0.968301 1.75166,2.065105 2.34973,3.289721 0.56959,1.196138 0.85421,2.634178 0.85421,4.314465 v 0.597897 c -0.057,1.05374 -0.35599,2.036281 -0.8971,2.947622 -0.54111,0.911345 -1.29565,1.723007 -2.26395,2.434995 -0.91134,0.655027 -2.03645,1.182069 -3.37499,1.580782 -1.36701,0.398712 -2.89049,0.597895 -4.57078,0.597895 -1.31005,0 -2.53501,-0.170876 -3.67419,-0.51263 -1.16766,-0.370231 -2.22123,-0.86845 -3.16105,-1.494999 -0.91134,-0.655026 -1.70859,-1.438383 -2.3921,-2.349727 -0.65503,-0.911342 -1.12494,-1.950498 -1.40973,-3.118155 z m 24.77678,-17.728633 v -7.347874 h 22.12888 v 7.347874 h -7.39076 V -30 h -7.34736 V -55.204144 Z M -198.64881,-30 v -32.552018 h 19.9502 v 7.347874 h -12.60233 v 5.254458 h 9.31261 v 7.347873 h -9.31261 v 5.254459 h 12.60233 V -30 Z m 24.94834,0 v -32.552018 h 7.34736 V -30 Z m 11.91865,0 v -32.552018 h 7.47552 c 4.35736,7.974248 7.26226,13.300253 8.71471,15.97732 v -15.97732 h 7.77524 V -30 h -7.43314 c -4.35736,-8.002727 -7.26227,-13.342625 -8.71471,-16.019692 V -30 Z m 41.43727,0 v -32.552018 h 6.53603 c 2.53468,0 4.77049,0.413298 6.70709,1.239203 1.93661,0.854382 3.54552,2.007801 4.82709,3.460253 1.28158,1.423974 2.23581,3.13274 2.862361,5.126302 0.655027,1.993561 0.982369,4.143417 0.982369,6.450253 0,2.192917 -0.256315,4.272261 -0.768945,6.237345 -0.484153,1.965082 -1.295815,3.687744 -2.434995,5.168675 -1.13918,1.509411 -2.61994,2.691654 -4.44262,3.546039 -1.85116,0.882861 -4.10087,1.323948 -6.74946,1.323948 h -0.98289 z m 27.553872,0 v -32.552018 h 7.347871 V -30 Z m 13.200227,0 v -32.552018 h 6.536036 c 2.534671,0 4.77048,0.413298 6.707084,1.239203 1.936602,0.854382 3.54552,2.007801 4.827096,3.460253 1.281575,1.423974 2.235808,3.13274 2.862357,5.126302 0.655027,1.993561 0.982369,4.143417 0.982369,6.450253 0,2.192917 -0.256315,4.272261 -0.768945,6.237345 -0.48415,1.965082 -1.295815,3.687744 -2.434995,5.168675 -1.139177,1.509411 -2.619936,2.691654 -4.442621,3.546039 C -67.173235,-30.441087 -69.42294,-30 -72.07153,-30 h -0.982885 z M -52.25,-30 v -32.552018 h 7.47603 c 4.357367,7.974248 7.262254,13.300253 8.71471,15.97732 v -15.97732 h 7.774729 V -30 h -7.433152 c -4.357343,-8.002727 -7.262256,-13.342625 -8.714708,-16.019692 V -30 Z m 28.237563,-32.552018 h 4.442619 c -0.227833,2.990345 -0.384307,4.98425 -0.469741,5.981031 h -3.546052 c -0.199337,-2.990342 -0.341392,-4.98425 -0.426826,-5.981031 z m 8.543661,7.347874 v -7.347874 H 6.659571 v 7.347874 H -0.73066471 V -30 H -8.0785407 V -55.204144 Z M 23.747421,-30 v -32.552018 h 7.347876 v 7.561297 c 2.648585,-3.787769 4.413964,-6.308201 5.296826,-7.561297 h 9.099206 c -6.03766,8.173604 -10.067158,13.613353 -12.089183,16.318902 6.037633,8.116644 10.05324,13.527569 12.046796,16.233116 h -9.099179 c -2.620116,-3.531452 -4.371605,-5.881007 -5.254466,-7.048664 V -30 Z m 27.169401,0 v -32.552018 h 7.347875 V -30 Z m 13.200221,0 v -32.552018 h 7.347876 v 25.204664 h 8.671824 V -30 Z m 21.445219,0 v -32.552018 h 7.347347 v 25.204664 h 8.672351 V -30 Z m 32.423868,0 v -32.552018 h 7.34735 v 12.602332 h 8.71471 v -12.602332 h 7.34788 V -30 h -7.34788 v -12.601813 h -8.71471 V -30 Z m 28.87781,0 v -32.552018 h 7.34788 V -30 Z m 13.62758,0 v -32.552018 h 7.47604 c 3.36058,9.455179 5.61028,15.763724 6.74947,18.924945 3.38905,-9.455182 5.63875,-15.763724 6.74944,-18.924945 h 7.34788 V -30 h -7.77471 v -11.363129 c -1.99358,5.667412 -3.31787,9.455007 -3.9729,11.363129 h -4.74181 c -2.02205,-5.866767 -3.37518,-9.768107 -4.05868,-11.704711 V -30 Z m 33.27807,-7.475511 c 3.10428,-1.310055 5.43994,-2.292596 7.0063,-2.947625 -0.057,0.02848 0.0141,0.242076 0.21342,0.640789 0.17089,0.370232 0.44161,0.768599 0.81184,1.195793 0.34177,0.427191 0.76896,0.797769 1.28159,1.111043 0.51263,0.341752 1.05357,0.469911 1.62314,0.384472 0.51263,-0.05696 1.01087,-0.270555 1.495,-0.640787 0.45567,-0.398714 0.66927,-0.996783 0.6408,-1.794205 -0.0285,-0.512633 -0.21326,-0.968648 -0.55502,-1.367359 -0.37023,-0.427194 -0.89725,-0.882692 -1.58078,-1.366843 -1.48092,-0.996781 -2.86234,-1.865577 -4.14393,-2.606043 -1.25309,-0.740465 -2.36379,-1.50941 -3.33208,-2.306835 -0.93983,-0.825905 -1.67995,-1.751315 -2.22107,-2.776575 -0.5411,-1.02526 -0.81182,-2.306836 -0.81182,-3.844726 0,-1.423972 0.29903,-2.67724 0.89709,-3.75946 0.5696,-1.08222 1.33853,-1.993217 2.30683,-2.733683 0.96832,-0.711988 2.07901,-1.267335 3.3321,-1.666049 1.2531,-0.370232 2.54908,-0.569934 3.88763,-0.598414 1.59483,0 3.00459,0.228008 4.22918,0.683681 1.19616,0.455671 2.207,1.025433 3.03289,1.708939 0.8544,0.711985 1.50959,1.509238 1.96528,2.392103 0.48413,0.911341 0.79705,1.794034 0.93945,2.648415 -2.87641,1.13918 -5.02626,1.993564 -6.45025,2.563151 -0.0854,-0.341751 -0.2136,-0.697402 -0.38446,-1.067633 -0.17087,-0.398714 -0.41331,-0.769292 -0.72658,-1.111044 -0.31326,-0.341754 -0.68334,-0.626377 -1.11053,-0.854212 -0.3987,-0.227836 -0.88302,-0.34158 -1.45262,-0.34158 -0.56959,0 -1.09611,0.184772 -1.58025,0.555003 -0.48416,0.341755 -0.72657,0.883209 -0.72657,1.623674 0,0.54111 0.22799,1.024917 0.68366,1.452108 0.45569,0.427193 1.15361,0.996952 2.09343,1.708941 1.367,0.740465 2.66248,1.494999 3.8871,2.263944 1.2531,0.768945 2.3499,1.623327 3.28973,2.563151 0.96829,0.968301 1.75114,2.065105 2.34921,3.289721 0.56956,1.196138 0.85471,2.634178 0.85471,4.314465 v 0.597897 c -0.0569,1.05374 -0.35598,2.036281 -0.8971,2.947622 -0.5411,0.911345 -1.29614,1.723007 -2.26446,2.434995 -0.91133,0.655027 -2.03595,1.182069 -3.37447,1.580782 -1.36703,0.398712 -2.891,0.597895 -4.57129,0.597895 -1.31006,0 -2.53452,-0.170876 -3.67369,-0.51263 -1.16765,-0.370231 -2.22123,-0.86845 -3.16105,-1.494999 -0.91133,-0.655026 -1.7091,-1.438383 -2.3926,-2.349727 -0.65503,-0.911342 -1.12496,-1.950498 -1.40976,-3.118155 z M 220.42637,-30 v -32.552018 h 19.95021 v 7.347874 h -12.60234 v 5.254458 h 9.31262 v 7.347873 h -9.31262 v 5.254459 h 12.60234 V -30 Z m 25.41809,0 v -32.552018 h 7.34788 v 25.204664 h 8.67182 V -30 Z m 20.37705,0 v -32.552018 h 19.94969 v 7.347874 h -12.60182 v 5.254458 h 9.26973 v 7.347873 h -9.26973 V -30 Z"
           id="path1148"
           inkscape:connector-curvature="0" />
        <g
           aria-label="YOU JUSt LOST THE GAME"
           style="font-style:normal;font-variant:normal;font-weight:normal;font-stretch:normal;font-size:42.33333206px;line-height:1.25;font-family:'Blackout Zwo Uhr Nachts';-inkscape-font-specification:'Blackout Zwo Uhr Nachts';letter-spacing:0px;word-spacing:0px;fill:#000000;fill-opacity:1;stroke:none;stroke-width:0.01852198"
           id="text838">
          <path
             style="stroke-width:0.07000433"
             d="M 359.79883 179.07812 L 359.79883 279.70312 L 359.79883 380.64062 L 359.79883 483.92188 L 359.79883 530.64062 L 359.79883 624.85938 L 359.79883 728.92188 L 359.79883 824.23438 L 359.79883 915.79688 L 359.79883 963.14062 L 359.79883 1039.8594 L 359.79883 1144.7031 L 359.79883 1239.2344 L 359.79883 1330.7969 L 359.79883 1378.1406 L 359.79883 1471.7344 L 359.79883 1575.6406 L 359.79883 1666.1094 L 359.79883 1712.8281 L 359.79883 1817.3594 L 359.79883 1935.1719 L 359.79883 2059.3906 L 359.79883 2062.0469 L 359.79883 2152.9844 L 527.14258 2152.9844 L 527.14258 2062.0469 L 527.14258 2059.3906 L 527.14258 1932.8281 L 527.14258 1808.1406 L 527.14258 1708.7656 L 527.14258 1662.9844 L 527.14258 1572.5156 L 527.14258 1470.0156 L 527.14258 1374.0781 L 527.14258 1328.2969 L 527.14258 1233.1406 L 527.14258 1141.5781 L 527.14258 1037.5156 L 527.14258 959.07812 L 527.14258 913.29688 L 527.14258 818.14062 L 527.14258 726.57812 L 527.14258 622.51562 L 527.14258 526.57812 L 527.14258 480.79688 L 527.14258 377.51562 L 527.14258 273.45312 L 527.14258 179.07812 L 359.79883 179.07812 z M 503.70508 184.23438 L 503.70508 214.23438 C 489.64256 221.21355 480.26757 225.84897 475.58008 228.14062 C 489.64257 235.01564 499.01756 239.59897 503.70508 241.89062 L 503.70508 272.04688 C 473.91341 256.00522 454.06966 245.32813 444.17383 240.01562 L 384.64258 240.01562 L 384.64258 214.70312 L 444.17383 214.70312 C 473.9655 199.49481 493.80924 189.33855 503.70508 184.23438 z M 431.98633 282.82812 L 459.79883 282.82812 C 464.903 282.82812 470.11132 283.86977 475.42383 285.95312 C 480.73633 287.93229 485.42384 290.79688 489.48633 294.54688 C 494.06966 299.02604 497.55924 304.02604 499.95508 309.54688 C 502.45508 315.17187 503.70508 321.10937 503.70508 327.35938 L 503.70508 327.51562 C 503.70508 333.76563 502.45508 339.70313 499.95508 345.32812 C 497.55924 350.95312 494.06966 355.95312 489.48633 360.32812 C 485.42384 364.18229 480.8405 367.04688 475.73633 368.92188 C 470.63215 370.90116 465.31966 371.94281 459.79883 372.04688 L 431.98633 372.04688 C 426.25717 372.04688 420.42384 371.16146 414.48633 369.39062 C 408.54884 367.61979 403.3405 364.59897 398.86133 360.32812 C 394.17383 355.95312 390.63217 350.95312 388.23633 345.32812 C 385.73632 339.70313 384.48633 333.76563 384.48633 327.51562 L 384.48633 327.35938 C 384.48633 321.21354 385.73632 315.32812 388.23633 309.70312 C 390.63217 304.07813 394.12175 299.02604 398.70508 294.54688 C 403.18425 290.3802 408.23633 287.41146 413.86133 285.64062 C 419.59049 283.86969 425.63216 282.93219 431.98633 282.82812 z M 432.14258 387.82812 L 503.86133 387.82812 L 503.86133 415.64062 L 434.17383 415.64062 C 431.36131 415.64063 428.65297 415.90106 426.04883 416.42188 C 423.54882 417.04688 421.30924 417.98438 419.33008 419.23438 C 417.45508 420.48439 415.94468 422.09896 414.79883 424.07812 C 413.653 425.95312 413.08008 428.24479 413.08008 430.95312 C 413.08008 433.66146 413.653 435.95313 414.79883 437.82812 C 415.94468 439.70312 417.45508 441.26563 419.33008 442.51562 C 421.30924 443.76564 423.54882 444.70314 426.04883 445.32812 C 428.65297 445.84897 431.36131 446.10937 434.17383 446.10938 L 503.86133 446.10938 L 503.86133 473.76562 L 432.14258 473.76562 C 425.1634 473.76562 418.70506 472.82812 412.76758 470.95312 C 406.93423 469.18229 401.88214 466.47396 397.61133 462.82812 C 393.44465 459.28646 390.21548 454.85938 387.92383 449.54688 C 385.63225 444.2344 384.53852 438.03646 384.64258 430.95312 L 384.64258 430.79688 C 384.53841 422.98436 385.78841 416.36979 388.39258 410.95312 C 390.89258 405.53646 394.33007 401.10938 398.70508 397.67188 C 403.18425 394.23439 408.28842 391.73438 414.01758 390.17188 C 419.8509 388.60937 425.89257 387.82813 432.14258 387.82812 z M 421.67383 538.45312 L 433.39258 538.45312 L 433.39258 565.79688 L 423.23633 565.79688 C 420.42381 565.79687 418.02799 566.68229 416.04883 568.45312 C 414.06967 570.22396 413.08008 572.46354 413.08008 575.17188 C 413.08008 577.98437 414.06967 580.27604 416.04883 582.04688 C 418.02799 583.92187 420.42381 584.85938 423.23633 584.85938 L 503.70508 584.85938 L 503.70508 612.20312 L 420.89258 612.20312 C 414.8509 612.20312 409.5905 611.21354 405.11133 609.23438 C 400.528 607.25521 396.67382 604.54688 393.54883 601.10938 C 390.63217 597.77606 388.39259 593.86979 386.83008 589.39062 C 385.37173 584.91146 384.64258 580.17189 384.64258 575.17188 C 384.64258 570.06772 385.42382 565.32813 386.98633 560.95312 C 388.54884 556.47396 390.78842 552.51563 393.70508 549.07812 C 396.83007 545.84897 400.73631 543.24481 405.42383 541.26562 C 410.00716 539.39063 415.42385 538.45312 421.67383 538.45312 z M 432.14258 632.82812 L 503.86133 632.82812 L 503.86133 660.64062 L 434.17383 660.64062 C 431.36131 660.64062 428.65297 660.90103 426.04883 661.42188 C 423.54882 662.04688 421.30924 662.98438 419.33008 664.23438 C 417.45508 665.48437 415.94468 667.09894 414.79883 669.07812 C 413.653 670.95312 413.08008 673.24479 413.08008 675.95312 C 413.08008 678.66146 413.653 680.95313 414.79883 682.82812 C 415.94468 684.70312 417.45508 686.26563 419.33008 687.51562 C 421.30924 688.76562 423.54882 689.70312 426.04883 690.32812 C 428.65297 690.84897 431.36131 691.10938 434.17383 691.10938 L 503.86133 691.10938 L 503.86133 718.76562 L 432.14258 718.76562 C 425.1634 718.76563 418.70506 717.82812 412.76758 715.95312 C 406.93423 714.18229 401.88214 711.47396 397.61133 707.82812 C 393.44465 704.28646 390.21548 699.85938 387.92383 694.54688 C 385.63225 689.23437 384.53852 683.03644 384.64258 675.95312 L 384.64258 675.79688 C 384.53841 667.98436 385.78841 661.36979 388.39258 655.95312 C 390.89258 650.53646 394.33007 646.10938 398.70508 642.67188 C 403.18425 639.23437 408.28842 636.73436 414.01758 635.17188 C 419.8509 633.60937 425.89257 632.82812 432.14258 632.82812 z M 411.98633 735.17188 C 416.77801 746.52605 420.37176 755.06772 422.76758 760.79688 C 422.66341 760.58855 421.88215 760.84898 420.42383 761.57812 C 419.06965 762.20313 417.61134 763.1927 416.04883 764.54688 C 414.48635 765.79687 413.13218 767.35937 411.98633 769.23438 C 410.73634 771.10937 410.26759 773.08854 410.58008 775.17188 C 410.78843 777.04688 411.56967 778.86979 412.92383 780.64062 C 414.38217 782.30729 416.56967 783.08854 419.48633 782.98438 C 421.36133 782.88021 423.02801 782.20313 424.48633 780.95312 C 426.04884 779.59896 427.71549 777.67188 429.48633 775.17188 C 433.13216 769.7552 436.30924 764.70312 439.01758 760.01562 C 441.72591 755.43229 444.53842 751.36979 447.45508 747.82812 C 450.47593 744.39064 453.86133 741.68231 457.61133 739.70312 C 461.36132 737.72396 466.04883 736.73437 471.67383 736.73438 C 476.88217 736.73438 481.4655 737.82811 485.42383 740.01562 C 489.38215 742.09895 492.71549 744.91146 495.42383 748.45312 C 498.028 751.99479 500.05923 756.05729 501.51758 760.64062 C 502.87186 765.22395 503.60102 769.96354 503.70508 774.85938 C 503.70508 780.69271 502.87175 785.84896 501.20508 790.32812 C 499.53841 794.70312 497.45508 798.40104 494.95508 801.42188 C 492.35091 804.54688 489.43423 806.94271 486.20508 808.60938 C 482.87174 810.38021 479.64257 811.52604 476.51758 812.04688 C 472.3509 801.52604 469.2259 793.66146 467.14258 788.45312 C 468.39257 788.14063 469.69465 787.67188 471.04883 787.04688 C 472.50715 786.42187 473.86131 785.53646 475.11133 784.39062 C 476.36132 783.24479 477.40299 781.89062 478.23633 780.32812 C 479.06966 778.86979 479.48633 777.09896 479.48633 775.01562 C 479.48633 772.93229 478.80926 771.00521 477.45508 769.23438 C 476.20509 767.46354 474.22591 766.57812 471.51758 766.57812 C 469.53842 766.57812 467.76759 767.41145 466.20508 769.07812 C 464.64257 770.74479 462.55925 773.29687 459.95508 776.73438 C 457.24674 781.73437 454.48633 786.47396 451.67383 790.95312 C 448.86133 795.53646 445.73631 799.54687 442.29883 802.98438 C 438.75716 806.52604 434.74675 809.39063 430.26758 811.57812 C 425.89257 813.66146 420.63217 814.70313 414.48633 814.70312 L 412.29883 814.70312 C 408.44464 814.49479 404.85089 813.40104 401.51758 811.42188 C 398.18424 809.44271 395.2155 806.68229 392.61133 803.14062 C 390.21549 799.80729 388.2884 795.69271 386.83008 790.79688 C 385.37173 785.79688 384.64258 780.22396 384.64258 774.07812 C 384.64258 769.28645 385.26756 764.80728 386.51758 760.64062 C 387.87173 756.36978 389.69465 752.51563 391.98633 749.07812 C 394.38215 745.74481 397.24674 742.82813 400.58008 740.32812 C 403.91342 737.93228 407.71551 736.21354 411.98633 735.17188 z M 476.83008 825.79688 L 503.70508 825.79688 L 503.70508 906.73438 L 476.83008 906.73438 L 476.83008 879.70312 L 384.64258 879.70312 L 384.64258 852.82812 L 476.83008 852.82812 L 476.83008 825.79688 z M 384.64258 970.95312 L 503.70508 970.95312 L 503.70508 997.82812 L 411.51758 997.82812 L 411.51758 1029.5469 L 384.64258 1029.5469 L 384.64258 970.95312 z M 431.98633 1046.8906 L 459.79883 1046.8906 C 464.903 1046.8906 470.11132 1047.9323 475.42383 1050.0156 C 480.73633 1051.9948 485.42384 1054.8594 489.48633 1058.6094 C 494.06966 1063.0885 497.55924 1068.0885 499.95508 1073.6094 C 502.45508 1079.2344 503.70508 1085.1719 503.70508 1091.4219 L 503.70508 1091.5781 C 503.70508 1097.8281 502.45508 1103.7656 499.95508 1109.3906 C 497.55924 1115.0156 494.06966 1120.0156 489.48633 1124.3906 C 485.42384 1128.2448 480.8405 1131.1094 475.73633 1132.9844 C 470.63215 1134.9635 465.31966 1136.0052 459.79883 1136.1094 L 431.98633 1136.1094 C 426.25717 1136.1094 420.42384 1135.224 414.48633 1133.4531 C 408.54884 1131.6823 403.3405 1128.6615 398.86133 1124.3906 C 394.17383 1120.0156 390.63217 1115.0156 388.23633 1109.3906 C 385.73632 1103.7656 384.48633 1097.8281 384.48633 1091.5781 L 384.48633 1091.4219 C 384.48633 1085.276 385.73632 1079.3906 388.23633 1073.7656 C 390.63217 1068.1406 394.12175 1063.0885 398.70508 1058.6094 C 403.18425 1054.4427 408.23633 1051.474 413.86133 1049.7031 C 419.59049 1047.9323 425.63216 1046.9948 431.98633 1046.8906 z M 411.98633 1150.1719 C 416.77801 1161.526 420.37176 1170.0677 422.76758 1175.7969 C 422.66341 1175.5885 421.88215 1175.849 420.42383 1176.5781 C 419.06965 1177.2031 417.61134 1178.1927 416.04883 1179.5469 C 414.48635 1180.7969 413.13218 1182.3594 411.98633 1184.2344 C 410.73634 1186.1094 410.26759 1188.0885 410.58008 1190.1719 C 410.78843 1192.0469 411.56967 1193.8698 412.92383 1195.6406 C 414.38217 1197.3073 416.56967 1198.0885 419.48633 1197.9844 C 421.36133 1197.8802 423.02801 1197.2031 424.48633 1195.9531 C 426.04884 1194.599 427.71549 1192.6719 429.48633 1190.1719 C 433.13216 1184.7552 436.30924 1179.7031 439.01758 1175.0156 C 441.72591 1170.4323 444.53842 1166.3698 447.45508 1162.8281 C 450.47593 1159.3906 453.86133 1156.6823 457.61133 1154.7031 C 461.36132 1152.724 466.04883 1151.7344 471.67383 1151.7344 C 476.88217 1151.7344 481.4655 1152.8281 485.42383 1155.0156 C 489.38215 1157.099 492.71549 1159.9115 495.42383 1163.4531 C 498.028 1166.9948 500.05923 1171.0573 501.51758 1175.6406 C 502.87186 1180.224 503.60102 1184.9635 503.70508 1189.8594 C 503.70508 1195.6927 502.87175 1200.849 501.20508 1205.3281 C 499.53841 1209.7031 497.45508 1213.401 494.95508 1216.4219 C 492.35091 1219.5469 489.43423 1221.9427 486.20508 1223.6094 C 482.87174 1225.3802 479.64257 1226.526 476.51758 1227.0469 C 472.3509 1216.526 469.2259 1208.6615 467.14258 1203.4531 C 468.39257 1203.1406 469.69465 1202.6719 471.04883 1202.0469 C 472.50715 1201.4219 473.86131 1200.5365 475.11133 1199.3906 C 476.36132 1198.2448 477.40299 1196.8906 478.23633 1195.3281 C 479.06966 1193.8698 479.48633 1192.099 479.48633 1190.0156 C 479.48633 1187.9323 478.80926 1186.0052 477.45508 1184.2344 C 476.20509 1182.4635 474.22591 1181.5781 471.51758 1181.5781 C 469.53842 1181.5781 467.76759 1182.4115 466.20508 1184.0781 C 464.64257 1185.7448 462.55925 1188.2969 459.95508 1191.7344 C 457.24674 1196.7344 454.48633 1201.474 451.67383 1205.9531 C 448.86133 1210.5365 445.73631 1214.5469 442.29883 1217.9844 C 438.75716 1221.526 434.74675 1224.3906 430.26758 1226.5781 C 425.89257 1228.6615 420.63217 1229.7031 414.48633 1229.7031 L 412.29883 1229.7031 C 408.44464 1229.4948 404.85089 1228.401 401.51758 1226.4219 C 398.18424 1224.4427 395.2155 1221.6823 392.61133 1218.1406 C 390.21549 1214.8073 388.2884 1210.6927 386.83008 1205.7969 C 385.37173 1200.7969 384.64258 1195.224 384.64258 1189.0781 C 384.64258 1184.2865 385.26756 1179.8073 386.51758 1175.6406 C 387.87173 1171.3698 389.69465 1167.5156 391.98633 1164.0781 C 394.38215 1160.7448 397.24674 1157.8281 400.58008 1155.3281 C 403.91342 1152.9323 407.71551 1151.2135 411.98633 1150.1719 z M 476.83008 1240.7969 L 503.70508 1240.7969 L 503.70508 1321.7344 L 476.83008 1321.7344 L 476.83008 1294.7031 L 384.64258 1294.7031 L 384.64258 1267.8281 L 476.83008 1267.8281 L 476.83008 1240.7969 z M 476.83008 1381.7344 L 503.70508 1381.7344 L 503.70508 1462.6719 L 476.83008 1462.6719 L 476.83008 1435.6406 L 384.64258 1435.6406 L 384.64258 1408.7656 L 476.83008 1408.7656 L 476.83008 1381.7344 z M 384.64258 1477.0469 L 503.70508 1477.0469 L 503.70508 1503.9219 L 457.61133 1503.9219 L 457.61133 1535.7969 L 503.70508 1535.7969 L 503.70508 1562.6719 L 384.64258 1562.6719 L 384.64258 1535.7969 L 430.73633 1535.7969 L 430.73633 1503.9219 L 384.64258 1503.9219 L 384.64258 1477.0469 z M 384.64258 1582.6719 L 503.70508 1582.6719 L 503.70508 1655.6406 L 476.83008 1655.6406 L 476.83008 1609.5469 L 457.61133 1609.5469 L 457.61133 1643.6094 L 430.73633 1643.6094 L 430.73633 1609.5469 L 411.51758 1609.5469 L 411.51758 1655.6406 L 384.64258 1655.6406 L 384.64258 1582.6719 z M 431.51758 1716.2656 L 456.20508 1716.2656 C 462.55925 1716.2656 468.60092 1717.2031 474.33008 1719.0781 C 480.1634 1721.0573 485.21549 1723.9219 489.48633 1727.6719 C 493.86133 1731.4219 497.29882 1736.0573 499.79883 1741.5781 C 502.403 1747.099 503.70508 1753.5052 503.70508 1760.7969 L 503.70508 1760.9531 C 503.39256 1768.1406 502.14257 1774.026 499.95508 1778.6094 C 497.76756 1783.0885 495.21549 1786.6823 492.29883 1789.3906 C 489.48633 1792.2031 486.62174 1794.2864 483.70508 1795.6406 C 480.78842 1796.9948 478.54884 1798.1927 476.98633 1799.2344 C 470.528 1789.4427 465.68426 1782.099 462.45508 1777.2031 C 463.60093 1776.6823 464.90301 1776.0573 466.36133 1775.3281 C 467.92384 1774.7031 469.33009 1773.7135 470.58008 1772.3594 C 471.83009 1771.2135 472.92383 1769.7552 473.86133 1767.9844 C 474.79883 1766.1094 475.26758 1763.8177 475.26758 1761.1094 C 475.26758 1755.7969 473.44466 1751.5261 469.79883 1748.2969 C 466.25716 1745.1719 461.56968 1743.6094 455.73633 1743.6094 L 432.45508 1743.6094 C 429.64258 1743.6094 426.93425 1744.0781 424.33008 1745.0156 C 421.8301 1746.0573 419.69466 1747.3594 417.92383 1748.9219 C 416.25716 1750.5885 414.8509 1752.5677 413.70508 1754.8594 C 412.66339 1757.0469 412.14258 1759.4948 412.14258 1762.2031 C 412.03841 1765.9531 412.6634 1768.9739 414.01758 1771.2656 C 415.4759 1773.5573 417.24673 1775.276 419.33008 1776.4219 L 425.26758 1776.4219 L 425.26758 1763.7656 L 448.39258 1763.7656 L 448.39258 1802.2031 L 406.67383 1802.2031 C 403.86133 1800.1198 401.10091 1797.6719 398.39258 1794.8594 C 395.58008 1792.0469 393.18424 1788.8698 391.20508 1785.3281 C 389.22592 1781.9948 387.61132 1778.2448 386.36133 1774.0781 C 385.11131 1769.9114 384.48633 1765.5365 384.48633 1760.9531 L 384.48633 1760.7969 C 384.48633 1753.6094 385.68424 1747.3073 388.08008 1741.8906 C 390.37173 1736.474 393.6009 1731.8906 397.76758 1728.1406 C 401.93423 1724.4948 406.88214 1721.6823 412.61133 1719.7031 C 418.34049 1717.6198 424.64257 1716.474 431.51758 1716.2656 z M 384.64258 1817.3594 L 387.30273 1817.3594 C 445.02296 1834.3397 484.16506 1845.7952 503.70508 1851.4219 L 503.70508 1887.3594 C 444.12173 1904.7552 404.43425 1916.3698 384.64258 1922.2031 L 384.64258 1891.5781 C 400.37176 1886.2656 410.84051 1882.724 416.04883 1880.9531 L 416.04883 1857.6719 C 400.31967 1852.4636 389.85092 1848.974 384.64258 1847.2031 L 384.64258 1817.3594 z M 384.64258 1946.2656 L 503.70508 1946.2656 L 503.70508 1973.6094 C 469.12175 1985.9011 446.04884 1994.1302 434.48633 1998.2969 C 469.06966 2010.6927 492.14257 2018.9219 503.70508 2022.9844 L 503.70508 2049.8594 L 384.64258 2049.8594 L 384.64258 2021.4219 L 426.20508 2021.4219 C 405.47591 2014.1302 391.62175 2009.2864 384.64258 2006.8906 L 384.64258 1989.5469 C 406.10092 1982.151 420.37174 1977.2031 427.45508 1974.7031 L 384.64258 1974.7031 L 384.64258 1946.2656 z M 384.64258 2069.5469 L 503.70508 2069.5469 L 503.70508 2142.5156 L 476.83008 2142.5156 L 476.83008 2096.4219 L 457.61133 2096.4219 L 457.61133 2130.4844 L 430.73633 2130.4844 L 430.73633 2096.4219 L 411.51758 2096.4219 L 411.51758 2142.5156 L 384.64258 2142.5156 L 384.64258 2069.5469 z "
             transform="matrix(0,-0.26458333,0.26458333,0,-303,0)"
             id="path840" />
        </g>
      </g>
      <g
         aria-label="END OPPRESSION WORLD WIDE"
         transform="rotate(90)"
         style="font-style:normal;font-variant:normal;font-weight:normal;font-stretch:normal;font-size:42.33333206px;line-height:1.25;font-family:'Blackout Zwo Uhr Nachts';-inkscape-font-specification:'Blackout Zwo Uhr Nachts';letter-spacing:0px;word-spacing:0px;fill:#000000;fill-opacity:1;stroke:none;stroke-width:0.07000434"
         id="text910-3">
        <path
           style="font-size:43.7444458px;text-align:center;text-anchor:middle;stroke-width:0.26458332"
           d="M 847.32812 458.74414 L 847.32812 555.45898 L 847.32812 662.82812 L 847.32812 769.71289 L 847.32812 817.18164 L 847.32812 923.74414 L 847.32812 1014.4844 L 847.32812 1107.1621 L 847.32812 1204.1973 L 847.32812 1298.4902 L 847.32812 1396.9785 L 847.32812 1496.1152 L 847.32812 1540.0312 L 847.32812 1649.3379 L 847.32812 1755.9004 L 1020.25 1755.9004 L 1020.25 1646.1094 L 1020.25 1538.5781 L 1020.25 1490.4629 L 1020.25 1395.2031 L 1020.25 1296.0684 L 1020.25 1201.7754 L 1020.25 1105.8691 L 1020.25 1013.1934 L 1020.25 920.51562 L 1020.25 812.98438 L 1020.25 765.67773 L 1020.25 660.56836 L 1020.25 553.03711 L 1020.25 458.74414 L 847.32812 458.74414 z M 873 469.24023 L 996.03125 469.24023 L 996.03125 544.64062 L 968.25977 544.64062 L 968.25977 497.00977 L 948.40039 497.00977 L 948.40039 532.20898 L 920.63086 532.20898 L 920.63086 497.00977 L 900.77148 497.00977 L 900.77148 544.64062 L 873 544.64062 L 873 469.24023 z M 873 562.72461 L 996.03125 562.72461 L 996.03125 590.97852 C 965.89236 607.44728 945.76453 618.42643 935.64648 623.91602 L 996.03125 623.91602 L 996.03125 653.30273 L 873 653.30273 L 873 625.20898 C 903.24653 608.74025 923.4288 597.76107 933.54688 592.27148 L 873 592.27148 L 873 562.72461 z M 640.66211 601.47461 L 640.66211 765.19336 L 640.66211 874.33789 L 640.66211 969.4375 L 640.66211 1050.4902 L 640.66211 1157.2129 L 640.66211 1204.6816 L 640.66211 1364.2031 L 640.66211 1412.1562 L 640.66211 1516.6191 L 640.66211 1519.8496 L 640.66211 1613.334 L 813.58398 1613.334 L 813.58398 1519.8496 L 813.58398 1516.6191 L 813.58398 1410.7031 L 813.58398 1362.5879 L 813.58398 1200.4844 L 813.58398 1153.1777 L 813.58398 1048.0684 L 813.58398 967.01562 L 813.58398 871.10938 L 813.58398 763.57812 L 813.58398 601.47461 L 640.66211 601.47461 z M 789.36523 612.29102 L 789.36523 645.06836 C 761.70202 651.63433 743.29579 655.99369 734.14648 658.14648 C 761.70206 664.60482 780.10829 668.90973 789.36523 671.0625 L 789.36523 694.3125 C 761.70202 700.77083 743.29579 705.07572 734.14648 707.22852 C 761.70206 713.68685 780.10829 717.99372 789.36523 720.14648 L 789.36523 754.53711 C 727.79577 737.0996 686.78536 725.47462 666.33398 719.66211 L 666.33398 694.63477 C 692.27495 689.03754 709.60353 685.32399 718.32227 683.49414 C 692.27366 677.03581 674.94508 672.73092 666.33398 670.57812 L 666.33398 643.9375 C 727.79578 628.11458 768.80619 617.56532 789.36523 612.29102 z M 873 672.83789 L 996.03125 672.83789 L 996.03125 697.54102 C 996.03125 707.12088 994.47112 715.57117 991.34961 722.89062 C 988.12043 730.21006 983.76107 736.29102 978.27148 741.13477 C 972.88954 745.97853 966.4312 749.58507 958.89648 751.95312 C 951.36177 754.42882 943.23439 755.66602 934.51562 755.66602 C 926.22745 755.66602 918.37046 754.69725 910.94336 752.75977 C 903.51629 750.92989 897.00348 747.8622 891.40625 743.55664 C 885.70138 739.25108 881.23501 733.65449 878.00586 726.76562 C 874.66904 719.76909 873 711.26627 873 701.25586 L 873 697.54102 L 873 672.83789 z M 715.25586 773.26562 L 743.99414 773.26562 C 749.26845 773.26562 754.65104 774.34136 760.14062 776.49414 C 765.63021 778.53928 770.47395 781.5 774.67188 785.375 C 779.40798 790.00347 783.01454 795.17014 785.49023 800.875 C 788.07359 806.6875 789.36523 812.82291 789.36523 819.28125 L 789.36523 819.44336 C 789.36523 825.90169 788.07359 832.03711 785.49023 837.84961 C 783.01454 843.66211 779.40798 848.82878 774.67188 853.34961 C 770.47395 857.33225 765.7372 860.29102 760.46289 862.22852 C 755.18859 864.27365 749.69901 865.35134 743.99414 865.45898 L 715.25586 865.45898 C 709.33571 865.45898 703.30728 864.54275 697.17188 862.71289 C 691.03647 860.88303 685.65388 857.7628 681.02539 853.34961 C 676.18165 848.82878 672.52257 843.66211 670.04688 837.84961 C 667.46354 832.03711 666.17188 825.90169 666.17188 819.44336 L 666.17188 819.28125 C 666.17187 812.93056 667.46354 806.84961 670.04688 801.03711 C 672.52257 795.22461 676.12913 790.00347 680.86523 785.375 C 685.49372 781.06944 690.71291 778.00174 696.52539 776.17188 C 702.44554 774.34202 708.68989 773.37327 715.25586 773.26562 z M 921.92188 822.67188 L 950.66211 822.67188 C 955.93641 822.67187 961.31705 823.74761 966.80664 825.90039 C 972.29623 827.94553 977.13997 830.90625 981.33789 834.78125 C 986.07399 839.40972 989.68056 844.57639 992.15625 850.28125 C 994.73958 856.09375 996.03125 862.22917 996.03125 868.6875 L 996.03125 868.84961 C 996.03125 875.30794 994.73958 881.44336 992.15625 887.25586 C 989.68056 893.06836 986.07399 898.23503 981.33789 902.75586 C 977.13997 906.7385 972.40516 909.69726 967.13086 911.63477 C 961.85655 913.6799 956.36698 914.75759 950.66211 914.86523 L 921.92188 914.86523 C 916.00172 914.86523 909.9733 913.949 903.83789 912.11914 C 897.70246 910.28928 892.32182 907.16905 887.69336 902.75586 C 882.84962 898.23503 879.18861 893.06836 876.71289 887.25586 C 874.12956 881.44336 872.83789 875.30794 872.83789 868.84961 L 872.83789 868.6875 C 872.83789 862.33681 874.12956 856.25586 876.71289 850.44336 C 879.18861 844.63086 882.79515 839.40972 887.53125 834.78125 C 892.15971 830.4757 897.38085 827.40799 903.19336 825.57812 C 909.11351 823.74827 915.3559 822.77952 921.92188 822.67188 z M 666.33398 881.60352 L 789.36523 881.60352 L 789.36523 919.0625 L 789.36523 919.22461 C 789.36523 926.22114 788.28756 932.08615 786.13477 936.82227 C 783.982 941.45074 781.07573 945.16428 777.41602 947.96289 C 773.86391 950.86914 769.72048 952.91558 764.98438 954.09961 C 760.14061 955.28364 755.08095 955.875 749.80664 955.875 C 744.31708 955.875 739.4208 954.96072 735.11523 953.13086 C 730.80967 951.301 727.14866 949.14757 724.13477 946.67188 C 721.33618 944.19618 719.18468 941.71984 717.67773 939.24414 C 716.17079 936.66081 715.41602 934.67079 715.41602 933.27148 C 690.87433 945.75759 674.51452 954.09896 666.33398 958.29688 L 666.33398 926.32812 C 686.3548 918.03993 699.70139 912.55035 706.375 909.85938 L 706.375 909.375 L 666.33398 909.375 L 666.33398 881.60352 z M 873 931.00977 L 996.03125 931.00977 L 996.03125 968.46875 L 996.03125 968.63086 C 996.03125 973.90516 995.06249 978.69444 993.125 983 C 991.29513 987.30555 988.60481 990.96463 985.05273 993.97852 C 981.71592 996.9924 977.57052 999.36176 972.61914 1001.084 C 967.66776 1002.6986 962.17818 1003.5059 956.15039 1003.5059 C 950.23026 1003.5059 944.8496 1002.6986 940.00586 1001.084 C 935.16209 999.36176 930.96418 996.9924 927.41211 993.97852 C 923.86003 990.96463 921.11525 987.30555 919.17773 983 C 917.24022 978.69444 916.27148 973.90516 916.27148 968.63086 L 916.27148 968.46875 L 916.27148 959.42773 L 873 959.42773 L 873 931.00977 z M 666.33398 979.28711 L 789.36523 979.28711 L 789.36523 1007.0566 L 694.10352 1007.0566 L 694.10352 1039.834 L 666.33398 1039.834 L 666.33398 979.28711 z M 873 1023.6875 L 996.03125 1023.6875 L 996.03125 1061.1465 L 996.03125 1061.3066 C 996.03125 1066.5809 995.06249 1071.3722 993.125 1075.6777 C 991.29513 1079.9833 988.60481 1083.6424 985.05273 1086.6562 C 981.71592 1089.6701 977.57052 1092.0375 972.61914 1093.7598 C 967.66776 1095.3743 962.17818 1096.1816 956.15039 1096.1816 C 950.23026 1096.1816 944.8496 1095.3743 940.00586 1093.7598 C 935.16209 1092.0375 930.96418 1089.6701 927.41211 1086.6562 C 923.86003 1083.6424 921.11525 1079.9833 919.17773 1075.6777 C 917.24022 1071.3722 916.27148 1066.5809 916.27148 1061.3066 L 916.27148 1061.1465 L 916.27148 1052.1035 L 873 1052.1035 L 873 1023.6875 z M 666.33398 1060.3379 L 789.36523 1060.3379 L 789.36523 1085.041 C 789.36523 1094.6209 787.80318 1103.0712 784.68164 1110.3906 C 781.45246 1117.7101 777.0931 1123.791 771.60352 1128.6348 C 766.22159 1133.4785 759.76326 1137.0851 752.22852 1139.4531 C 744.6938 1141.9288 736.56835 1143.166 727.84961 1143.166 C 719.56141 1143.166 711.70249 1142.1973 704.27539 1140.2598 C 696.84832 1138.4299 690.33746 1135.3622 684.74023 1131.0566 C 679.03539 1126.7511 674.56707 1121.1545 671.33789 1114.2656 C 668.0011 1107.2691 666.33398 1098.7663 666.33398 1088.7559 L 666.33398 1085.041 L 666.33398 1060.3379 z M 873 1116.3652 L 996.03125 1116.3652 L 996.03125 1153.8223 L 996.03125 1153.9844 C 996.03125 1160.9809 994.9555 1166.8479 992.80273 1171.584 C 990.64997 1176.2125 987.74373 1179.926 984.08398 1182.7246 C 980.53191 1185.6309 976.38649 1187.6753 971.65039 1188.8594 C 966.80662 1190.0434 961.74891 1190.6348 956.47461 1190.6348 C 950.98502 1190.6348 946.08679 1189.7205 941.78125 1187.8906 C 937.47569 1186.0608 933.81663 1183.9073 930.80273 1181.4316 C 928.00412 1178.9559 925.8507 1176.4816 924.34375 1174.0059 C 922.83683 1171.4225 922.08398 1169.4306 922.08398 1168.0312 C 897.5423 1180.5174 881.18056 1188.8587 873 1193.0566 L 873 1161.0879 C 893.02084 1152.7997 906.3674 1147.3101 913.04102 1144.6191 L 913.04102 1144.1348 L 873 1144.1348 L 873 1116.3652 z M 789.36523 1211.3027 L 789.36523 1244.0781 C 761.70202 1250.6441 743.29579 1255.0035 734.14648 1257.1562 C 761.70206 1263.6146 780.10829 1267.9195 789.36523 1270.0723 L 789.36523 1293.3223 C 761.70202 1299.7806 743.29579 1304.0875 734.14648 1306.2402 C 761.70206 1312.6986 780.10829 1317.0035 789.36523 1319.1562 L 789.36523 1353.5469 C 727.79577 1336.1094 686.78536 1324.4844 666.33398 1318.6719 L 666.33398 1293.6465 C 692.27495 1288.0493 709.60353 1284.3357 718.32227 1282.5059 C 692.27366 1276.0475 674.94508 1271.7407 666.33398 1269.5879 L 666.33398 1242.9473 C 727.79578 1227.1243 768.80619 1216.577 789.36523 1211.3027 z M 873 1212.2715 L 996.03125 1212.2715 L 996.03125 1287.6719 L 968.25977 1287.6719 L 968.25977 1240.041 L 948.40039 1240.041 L 948.40039 1275.2402 L 920.63086 1275.2402 L 920.63086 1240.041 L 900.77148 1240.041 L 900.77148 1287.6719 L 873 1287.6719 L 873 1212.2715 z M 901.25586 1304.9473 C 906.20724 1316.6799 909.92079 1325.5076 912.39648 1331.4277 C 912.28887 1331.2125 911.48156 1331.4809 909.97461 1332.2344 C 908.5753 1332.8802 907.06771 1333.9034 905.45312 1335.3027 C 903.83854 1336.5944 902.43988 1338.209 901.25586 1340.1465 C 899.96419 1342.084 899.47981 1344.1285 899.80273 1346.2812 C 900.01802 1348.2187 900.8253 1350.1018 902.22461 1351.9316 C 903.73153 1353.6539 905.99196 1354.4612 909.00586 1354.3535 C 910.94337 1354.2459 912.66493 1353.5475 914.17188 1352.2559 C 915.78644 1350.8566 917.50802 1348.8646 919.33789 1346.2812 C 923.10525 1340.684 926.38889 1335.4629 929.1875 1330.6191 C 931.98611 1325.883 934.89235 1321.6851 937.90625 1318.0254 C 941.02776 1314.4733 944.52539 1311.676 948.40039 1309.6309 C 952.27539 1307.5857 957.11913 1306.5625 962.93164 1306.5625 C 968.31359 1306.5625 973.05034 1307.6927 977.14062 1309.9531 C 981.23091 1312.1059 984.676 1315.0122 987.47461 1318.6719 C 990.16558 1322.3316 992.26456 1326.5295 993.77148 1331.2656 C 995.17084 1336.0017 995.92366 1340.9 996.03125 1345.959 C 996.03125 1351.9868 995.16947 1357.3149 993.44727 1361.9434 C 991.72504 1366.4642 989.57357 1370.2847 986.99023 1373.4062 C 984.29926 1376.6354 981.28408 1379.1118 977.94727 1380.834 C 974.50283 1382.6638 971.16668 1383.8466 967.9375 1384.3848 C 963.63196 1373.5132 960.40279 1365.3878 958.25 1360.0059 C 959.54167 1359.6829 960.8878 1359.1986 962.28711 1358.5527 C 963.79406 1357.9069 965.19271 1356.9907 966.48438 1355.8066 C 967.77604 1354.6226 968.85176 1353.224 969.71289 1351.6094 C 970.57399 1350.1024 971.00586 1348.2719 971.00586 1346.1191 C 971.00586 1343.9664 970.30556 1341.9763 968.90625 1340.1465 C 967.61458 1338.3166 965.5701 1337.4004 962.77148 1337.4004 C 960.72636 1337.4004 958.89584 1338.2622 957.28125 1339.9844 C 955.66666 1341.7066 953.51324 1344.3444 950.82227 1347.8965 C 948.02365 1353.0632 945.17188 1357.9594 942.26562 1362.5879 C 939.3594 1367.324 936.13023 1371.4694 932.57812 1375.0215 C 928.91841 1378.6812 924.77494 1381.64 920.14648 1383.9004 C 915.62564 1386.0532 910.18858 1387.1309 903.83789 1387.1309 L 901.57812 1387.1309 C 897.59549 1386.9156 893.88193 1385.7854 890.4375 1383.7402 C 886.99304 1381.6951 883.92535 1378.8414 881.23438 1375.1816 C 878.75868 1371.7372 876.76671 1367.4868 875.25977 1362.4277 C 873.75282 1357.2611 873 1351.5011 873 1345.1504 C 873 1340.199 873.64583 1335.5712 874.9375 1331.2656 C 876.33681 1326.8524 878.21984 1322.8704 880.58789 1319.3184 C 883.06361 1315.8739 886.02432 1312.8587 889.46875 1310.2754 C 892.91318 1307.7997 896.84266 1306.0237 901.25586 1304.9473 z M 666.33398 1373.084 L 789.36523 1373.084 L 789.36523 1400.8535 L 666.33398 1400.8535 L 666.33398 1373.084 z M 901.25586 1404.084 C 906.20724 1415.8166 909.92079 1424.6424 912.39648 1430.5625 C 912.28887 1430.3472 911.48156 1430.6157 909.97461 1431.3691 C 908.5753 1432.015 907.06771 1433.0382 905.45312 1434.4375 C 903.83854 1435.7292 902.43988 1437.3437 901.25586 1439.2812 C 899.96419 1441.2187 899.47981 1443.2632 899.80273 1445.416 C 900.01802 1447.3535 900.8253 1449.2385 902.22461 1451.0684 C 903.73153 1452.7906 905.99196 1453.5979 909.00586 1453.4902 C 910.94337 1453.3826 912.66493 1452.6823 914.17188 1451.3906 C 915.78644 1449.9913 917.50802 1447.9993 919.33789 1445.416 C 923.10525 1439.8188 926.38889 1434.5996 929.1875 1429.7559 C 931.98611 1425.0197 934.89235 1420.8218 937.90625 1417.1621 C 941.02776 1413.61 944.52539 1410.8108 948.40039 1408.7656 C 952.27539 1406.7205 957.11913 1405.6973 962.93164 1405.6973 C 968.31359 1405.6973 973.05034 1406.8275 977.14062 1409.0879 C 981.23091 1411.2407 984.676 1414.1469 987.47461 1417.8066 C 990.16558 1421.4664 992.26456 1425.6643 993.77148 1430.4004 C 995.17084 1435.1365 995.92366 1440.0347 996.03125 1445.0938 C 996.03125 1451.1215 995.16947 1456.4497 993.44727 1461.0781 C 991.72504 1465.599 989.57357 1469.4195 986.99023 1472.541 C 984.29926 1475.7702 981.28408 1478.2465 977.94727 1479.9688 C 974.50283 1481.7986 971.16668 1482.9833 967.9375 1483.5215 C 963.63196 1472.65 960.40279 1464.5226 958.25 1459.1406 C 959.54167 1458.8177 960.8878 1458.3333 962.28711 1457.6875 C 963.79406 1457.0417 965.19271 1456.1274 966.48438 1454.9434 C 967.77604 1453.7593 968.85176 1452.3587 969.71289 1450.7441 C 970.57399 1449.2372 971.00586 1447.4086 971.00586 1445.2559 C 971.00586 1443.1031 970.30556 1441.1111 968.90625 1439.2812 C 967.61458 1437.4514 965.5701 1436.5371 962.77148 1436.5371 C 960.72636 1436.5371 958.89584 1437.3969 957.28125 1439.1191 C 955.66666 1440.8414 953.51324 1443.4792 950.82227 1447.0312 C 948.02365 1452.1979 945.17188 1457.0961 942.26562 1461.7246 C 939.3594 1466.4607 936.13023 1470.6042 932.57812 1474.1562 C 928.91841 1477.816 924.77494 1480.7767 920.14648 1483.0371 C 915.62564 1485.1899 910.18858 1486.2656 903.83789 1486.2656 L 901.57812 1486.2656 C 897.59549 1486.0503 893.88193 1484.9201 890.4375 1482.875 C 886.99304 1480.8299 883.92535 1477.9781 881.23438 1474.3184 C 878.75868 1470.8739 876.76671 1466.6215 875.25977 1461.5625 C 873.75282 1456.3958 873 1450.6378 873 1444.2871 C 873 1439.3357 873.64583 1434.7059 874.9375 1430.4004 C 876.33681 1425.9872 878.21984 1422.0052 880.58789 1418.4531 C 883.06361 1415.0087 886.02432 1411.9954 889.46875 1409.4121 C 892.91318 1406.9364 896.84266 1405.1604 901.25586 1404.084 z M 666.33398 1422.9746 L 789.36523 1422.9746 L 789.36523 1447.6777 C 789.36523 1457.2576 787.80318 1465.7059 784.68164 1473.0254 C 781.45246 1480.3448 777.0931 1486.4277 771.60352 1491.2715 C 766.22159 1496.1152 759.76326 1499.7198 752.22852 1502.0879 C 744.6938 1504.5636 736.56835 1505.8027 727.84961 1505.8027 C 719.56141 1505.8027 711.70249 1504.834 704.27539 1502.8965 C 696.84832 1501.0666 690.33746 1497.9989 684.74023 1493.6934 C 679.03539 1489.3878 674.56707 1483.7893 671.33789 1476.9004 C 668.0011 1469.9039 666.33398 1461.401 666.33398 1451.3906 L 666.33398 1447.6777 L 666.33398 1422.9746 z M 873 1500.959 L 996.03125 1500.959 L 996.03125 1528.7285 L 873 1528.7285 L 873 1500.959 z M 666.33398 1527.1152 L 789.36523 1527.1152 L 789.36523 1602.5156 L 761.59375 1602.5156 L 761.59375 1554.8848 L 741.73438 1554.8848 L 741.73438 1590.084 L 713.96289 1590.084 L 713.96289 1554.8848 L 694.10352 1554.8848 L 694.10352 1602.5156 L 666.33398 1602.5156 L 666.33398 1527.1152 z M 921.92188 1548.2656 L 950.66211 1548.2656 C 955.93641 1548.2656 961.31705 1549.3413 966.80664 1551.4941 C 972.29623 1553.5393 977.13997 1556.5 981.33789 1560.375 C 986.07399 1565.0035 989.68056 1570.1701 992.15625 1575.875 C 994.73958 1581.6875 996.03125 1587.8229 996.03125 1594.2812 L 996.03125 1594.4434 C 996.03125 1600.9017 994.73958 1607.0371 992.15625 1612.8496 C 989.68056 1618.6621 986.07399 1623.8288 981.33789 1628.3496 C 977.13997 1632.3322 972.40516 1635.291 967.13086 1637.2285 C 961.85655 1639.2737 956.36698 1640.3514 950.66211 1640.459 L 921.92188 1640.459 C 916.00172 1640.459 909.9733 1639.5428 903.83789 1637.7129 C 897.70246 1635.883 892.32182 1632.7628 887.69336 1628.3496 C 882.84962 1623.8288 879.18861 1618.6621 876.71289 1612.8496 C 874.12956 1607.0371 872.83789 1600.9017 872.83789 1594.4434 L 872.83789 1594.2812 C 872.83789 1587.9306 874.12956 1581.8496 876.71289 1576.0371 C 879.18861 1570.2246 882.79515 1565.0035 887.53125 1560.375 C 892.15971 1556.0695 897.38085 1553.0017 903.19336 1551.1719 C 909.11351 1549.342 915.3559 1548.3732 921.92188 1548.2656 z M 873 1655.7969 L 996.03125 1655.7969 L 996.03125 1684.0527 C 965.89236 1700.5215 945.76453 1711.5007 935.64648 1716.9902 L 996.03125 1716.9902 L 996.03125 1746.375 L 873 1746.375 L 873 1718.2812 C 903.24653 1701.8125 923.4288 1690.8333 933.54688 1685.3438 L 873 1685.3438 L 873 1655.7969 z "
           transform="matrix(0,-0.26458333,0.26458333,0,-303,0)"
           id="path1203" />
      </g>
    </g>
  </g>
</svg>
