<?xml version="1.0" encoding="UTF-8" standalone="no"?>
<!-- Created with Inkscape (http://www.inkscape.org/) -->

<svg
   xmlns:dc="http://purl.org/dc/elements/1.1/"
   xmlns:cc="http://creativecommons.org/ns#"
   xmlns:rdf="http://www.w3.org/1999/02/22-rdf-syntax-ns#"
   xmlns:svg="http://www.w3.org/2000/svg"
   xmlns="http://www.w3.org/2000/svg"
   xmlns:sodipodi="http://sodipodi.sourceforge.net/DTD/sodipodi-0.dtd"
   xmlns:inkscape="http://www.inkscape.org/namespaces/inkscape"
   width="297mm"
   height="600mm"
   viewBox="0 0 297 600"
   version="1.1"
   id="svg8"
   inkscape:version="0.92.3 (2405546, 2018-03-11)"
   sodipodi:docname="restaurant01.svg"
   inkscape:export-filename="/home/housemeista/Dropbox/Fla/Stencilkram Inkscape/Vorlagen/schildcyber.png"
   inkscape:export-xdpi="96"
   inkscape:export-ydpi="96">
  <defs
     id="defs2" />
  <sodipodi:namedview
     id="base"
     pagecolor="#ffffff"
     bordercolor="#666666"
     borderopacity="1.0"
     inkscape:pageopacity="0"
     inkscape:pageshadow="2"
     inkscape:zoom="0.35"
     inkscape:cx="765.41069"
     inkscape:cy="1115.7306"
     inkscape:document-units="mm"
     inkscape:current-layer="text910"
     showgrid="true"
     inkscape:pagecheckerboard="true"
     inkscape:window-width="1920"
     inkscape:window-height="1031"
     inkscape:window-x="0"
     inkscape:window-y="25"
     inkscape:window-maximized="1"
     showguides="true"
     inkscape:guide-bbox="true">
    <inkscape:grid
       type="xygrid"
       id="grid3713" />
    <sodipodi:guide
       position="158.75,210"
       orientation="0,1"
       id="guide21"
       inkscape:locked="false"
       inkscape:label=""
       inkscape:color="rgb(0,0,255)" />
    <sodipodi:guide
       position="30,285"
       orientation="1,0"
       id="guide23"
       inkscape:locked="false"
       inkscape:label=""
       inkscape:color="rgb(0,0,255)" />
    <sodipodi:guide
       position="201.08334,315"
       orientation="0,1"
       id="guide25"
       inkscape:locked="false"
       inkscape:label=""
       inkscape:color="rgb(0,0,255)" />
    <sodipodi:guide
       position="312.20833,105"
       orientation="0,1"
       id="guide27"
       inkscape:locked="false"
       inkscape:label=""
       inkscape:color="rgb(0,0,255)" />
    <sodipodi:guide
       position="148,269.87499"
       orientation="1,0"
       id="guide51"
       inkscape:locked="false"
       inkscape:label=""
       inkscape:color="rgb(0,0,255)" />
    <sodipodi:guide
       position="178,341.31249"
       orientation="1,0"
       id="guide141"
       inkscape:locked="false"
       inkscape:label=""
       inkscape:color="rgb(0,0,255)" />
    <sodipodi:guide
       position="118,359.83333"
       orientation="1,0"
       id="guide143"
       inkscape:locked="false"
       inkscape:label=""
       inkscape:color="rgb(0,0,255)" />
    <sodipodi:guide
       position="63.500002,399.52082"
       orientation="0,1"
       id="guide145"
       inkscape:locked="false" />
  </sodipodi:namedview>
  <metadata
     id="metadata5">
    <rdf:RDF>
      <cc:Work
         rdf:about="">
        <dc:format>image/svg+xml</dc:format>
        <dc:type
           rdf:resource="http://purl.org/dc/dcmitype/StillImage" />
        <dc:title />
      </cc:Work>
    </rdf:RDF>
  </metadata>
  <g
     inkscape:label="Ebene 1"
     inkscape:groupmode="layer"
     id="layer1"
     transform="translate(0,303)">
    <text
       xml:space="preserve"
       style="font-style:normal;font-variant:normal;font-weight:normal;font-stretch:normal;font-size:14.11111069px;line-height:1.25;font-family:'Blackout Zwo Uhr Nachts';-inkscape-font-specification:'Blackout Zwo Uhr Nachts';letter-spacing:0px;word-spacing:0px;fill:#000000;fill-opacity:1;stroke:none;stroke-width:0.26458332"
       x="79.375"
       y="106.49999"
       id="text864"><tspan
         sodipodi:role="line"
         id="tspan862"
         x="79.375"
         y="120.28007"
         style="stroke-width:0.26458332" /></text>
    <g
       aria-label="RESOURCEFUL MISchIEF"
       style="font-style:normal;font-variant:normal;font-weight:normal;font-stretch:normal;font-size:14.11111069px;line-height:1.25;font-family:'Blackout Zwo Uhr Nachts';-inkscape-font-specification:'Blackout Zwo Uhr Nachts';letter-spacing:0px;word-spacing:0px;fill:#ff0000;fill-opacity:1;stroke:none;stroke-width:0.26458332"
       id="text854-5">
      <g
         aria-label="THE RESTAURANT AT  THe END OF THE UNIVERSE"
         transform="rotate(90)"
         style="font-style:normal;font-variant:normal;font-weight:normal;font-stretch:normal;font-size:42.33333206px;line-height:1.25;font-family:'Blackout Zwo Uhr Nachts';-inkscape-font-specification:'Blackout Zwo Uhr Nachts';letter-spacing:0px;word-spacing:0px;fill:#000000;fill-opacity:1;stroke:none;stroke-width:0.07000434"
         id="text910">
        <path
           style="font-size:43.7444458px;text-align:center;text-anchor:middle;stroke-width:0.26458332"
           d="M 132.08984 82.869141 L 132.08984 183.78125 L 132.08984 291.15039 L 132.08984 384.63477 L 132.08984 432.91211 L 132.08984 525.42773 L 132.08984 632.79688 L 132.08984 739.68164 L 132.08984 787.15039 L 132.08984 893.71289 L 132.08984 981.38477 L 132.08984 1030.6309 L 132.08984 1127.3438 L 132.08984 1234.7129 L 132.08984 1328.1973 L 132.08984 1376.4746 L 132.08984 1482.2285 L 132.08984 1589.5996 L 132.08984 1636.9062 L 132.08984 1751.2188 L 132.08984 1842.6035 L 132.08984 1938.5098 L 132.08984 2035.2246 L 132.08984 2037 L 132.08984 2131.9375 L 305.01172 2131.9375 L 305.01172 2037 L 305.01172 2035.2246 L 305.01172 1936.0879 L 305.01172 1840.1816 L 305.01172 1745.8906 L 305.01172 1635.4531 L 305.01172 1587.3379 L 305.01172 1479.8066 L 305.01172 1372.2754 L 305.01172 1324.9688 L 305.01172 1231.4844 L 305.01172 1125.5684 L 305.01172 1026.4316 L 305.01172 979.125 L 305.01172 890.48438 L 305.01172 782.95312 L 305.01172 735.64648 L 305.01172 630.53711 L 305.01172 523.00586 L 305.01172 428.71289 L 305.01172 381.40625 L 305.01172 287.92188 L 305.01172 182.00586 L 305.01172 82.869141 L 132.08984 82.869141 z M 253.02344 90.78125 L 280.79297 90.78125 L 280.79297 174.41602 L 253.02344 174.41602 L 253.02344 146.48438 L 157.76172 146.48438 L 157.76172 118.71289 L 253.02344 118.71289 L 253.02344 90.78125 z M 157.76172 189.27148 L 280.79297 189.27148 L 280.79297 217.04102 L 233.16406 217.04102 L 233.16406 249.97852 L 280.79297 249.97852 L 280.79297 277.75 L 157.76172 277.75 L 157.76172 249.97852 L 205.39258 249.97852 L 205.39258 217.04102 L 157.76172 217.04102 L 157.76172 189.27148 z M 338.75781 280.17188 L 338.75781 381.08398 L 338.75781 488.45312 L 338.75781 581.9375 L 338.75781 630.21289 L 338.75781 724.34375 L 338.75781 818.63477 L 338.75781 917.125 L 338.75781 1011.7402 L 338.75781 1135.416 L 338.75781 1242.9473 L 338.75781 1338.8535 L 338.75781 1463.5 L 338.75781 1565.7031 L 338.75781 1664.3535 L 338.75781 1713.2754 L 338.75781 1840.666 L 338.75781 1933.9902 L 338.75781 1982.9121 L 511.67969 1982.9121 L 511.67969 1931.4062 L 511.67969 1833.0781 L 511.67969 1709.4004 L 511.67969 1661.7715 L 511.67969 1563.4434 L 511.67969 1455.9121 L 511.67969 1332.2344 L 511.67969 1240.5254 L 511.67969 1132.9941 L 511.67969 1004.1504 L 511.67969 910.82812 L 511.67969 816.21289 L 511.67969 721.92188 L 511.67969 626.01562 L 511.67969 578.70898 L 511.67969 485.22461 L 511.67969 379.30664 L 511.67969 280.17188 L 338.75781 280.17188 z M 459.68945 288.08398 L 487.46094 288.08398 L 487.46094 371.71875 L 459.68945 371.71875 L 459.68945 343.78711 L 364.42969 343.78711 L 364.42969 316.01562 L 459.68945 316.01562 L 459.68945 288.08398 z M 157.76172 298.41602 L 280.79297 298.41602 L 280.79297 373.81836 L 253.02344 373.81836 L 253.02344 326.1875 L 233.16406 326.1875 L 233.16406 361.38477 L 205.39258 361.38477 L 205.39258 326.1875 L 185.5332 326.1875 L 185.5332 373.81836 L 157.76172 373.81836 L 157.76172 298.41602 z M 364.42969 386.57227 L 487.46094 386.57227 L 487.46094 414.34375 L 439.83008 414.34375 L 439.83008 447.28125 L 487.46094 447.28125 L 487.46094 475.05273 L 364.42969 475.05273 L 364.42969 447.28125 L 412.05859 447.28125 L 412.05859 414.34375 L 364.42969 414.34375 L 364.42969 386.57227 z M 157.76172 439.20898 L 280.79297 439.20898 L 280.79297 514.60938 L 253.02344 514.60938 L 253.02344 466.97852 L 233.16406 466.97852 L 233.16406 502.17773 L 205.39258 502.17773 L 205.39258 466.97852 L 185.5332 466.97852 L 185.5332 514.60938 L 157.76172 514.60938 L 157.76172 439.20898 z M 364.42969 495.71875 L 487.46094 495.71875 L 487.46094 571.11914 L 459.68945 571.11914 L 459.68945 523.49023 L 439.83008 523.49023 L 439.83008 558.6875 L 412.05859 558.6875 L 412.05859 523.49023 L 392.19922 523.49023 L 392.19922 571.11914 L 364.42969 571.11914 L 364.42969 495.71875 z M 157.76172 532.69336 L 280.79297 532.69336 L 280.79297 560.94727 C 250.65408 577.416 230.52626 588.39518 220.4082 593.88477 L 280.79297 593.88477 L 280.79297 623.27148 L 157.76172 623.27148 L 157.76172 595.17773 C 188.00825 578.709 208.19054 567.72982 218.30859 562.24023 L 157.76172 562.24023 L 157.76172 532.69336 z M 364.42969 636.50977 L 487.46094 636.50977 L 487.46094 673.96875 L 487.46094 674.13086 C 487.46094 681.12739 486.38324 686.99241 484.23047 691.72852 C 482.0777 696.357 479.17146 700.07053 475.51172 702.86914 C 471.95964 705.7754 467.81618 707.82183 463.08008 709.00586 C 458.23631 710.18988 453.17665 710.78125 447.90234 710.78125 C 442.41276 710.78125 437.51647 709.86698 433.21094 708.03711 C 428.90538 706.20726 425.24436 704.05382 422.23047 701.57812 C 419.43185 699.10241 417.28039 696.62608 415.77344 694.15039 C 414.26651 691.56706 413.51172 689.57704 413.51172 688.17773 C 388.97004 700.66386 372.61024 709.0052 364.42969 713.20312 L 364.42969 681.23438 C 384.45052 672.94617 397.79709 667.4566 404.4707 664.76562 L 404.4707 664.28125 L 364.42969 664.28125 L 364.42969 636.50977 z M 157.76172 642.80664 L 280.79297 642.80664 L 280.79297 667.50977 C 280.79297 677.08963 279.23286 685.53992 276.11133 692.85938 C 272.88216 700.17881 268.52279 706.25977 263.0332 711.10352 C 257.65126 715.94728 251.19293 719.55382 243.6582 721.92188 C 236.12348 724.39757 227.99609 725.63477 219.27734 725.63477 C 210.98915 725.63477 203.13216 724.666 195.70508 722.72852 C 188.27799 720.89864 181.76519 717.83095 176.16797 713.52539 C 170.46311 709.21985 165.99675 703.62327 162.76758 696.73438 C 159.43077 689.73784 157.76172 681.23502 157.76172 671.22461 L 157.76172 667.50977 L 157.76172 642.80664 z M 364.42969 732.41602 L 487.46094 732.41602 L 487.46094 807.81836 L 459.68945 807.81836 L 459.68945 760.1875 L 439.83008 760.1875 L 439.83008 795.38477 L 412.05859 795.38477 L 412.05859 760.1875 L 392.19922 760.1875 L 392.19922 807.81836 L 364.42969 807.81836 L 364.42969 732.41602 z M 206.68359 792.64062 L 235.42383 792.64062 C 240.69813 792.64063 246.08073 793.71636 251.57031 795.86914 C 257.0599 797.91428 261.90365 800.875 266.10156 804.75 C 270.83767 809.37847 274.44227 814.54514 276.91797 820.25 C 279.5013 826.0625 280.79297 832.19792 280.79297 838.65625 L 280.79297 838.81836 C 280.79297 845.27669 279.5013 851.41211 276.91797 857.22461 C 274.44227 863.03711 270.83767 868.20378 266.10156 872.72461 C 261.90365 876.70725 257.16688 879.66601 251.89258 881.60352 C 246.61827 883.64865 241.12869 884.72634 235.42383 884.83398 L 206.68359 884.83398 C 200.76346 884.83398 194.73698 883.91775 188.60156 882.08789 C 182.46615 880.25803 177.08355 877.1378 172.45508 872.72461 C 167.61133 868.20378 163.95226 863.03711 161.47656 857.22461 C 158.89323 851.41211 157.60156 845.27669 157.60156 838.81836 L 157.60156 838.65625 C 157.60156 832.30556 158.89323 826.22461 161.47656 820.41211 C 163.95226 814.59961 167.55686 809.37847 172.29297 804.75 C 176.92144 800.44444 182.14258 797.37674 187.95508 795.54688 C 193.87522 793.71702 200.11762 792.74827 206.68359 792.64062 z M 392.68359 825.09375 C 397.63498 836.82639 401.3485 845.65213 403.82422 851.57227 C 403.71658 851.35699 402.90929 851.62739 401.40234 852.38086 C 400.00304 853.02669 398.4974 854.04796 396.88281 855.44727 C 395.26822 856.73893 393.86762 858.35352 392.68359 860.29102 C 391.39193 862.22851 390.90755 864.27496 391.23047 866.42773 C 391.44575 868.36524 392.25304 870.24826 393.65234 872.07812 C 395.15929 873.80035 397.41972 874.60764 400.43359 874.5 C 402.37111 874.39236 404.09461 873.69206 405.60156 872.40039 C 407.21613 871.00109 408.93771 869.01107 410.76758 866.42773 C 414.53494 860.83051 417.81857 855.60938 420.61719 850.76562 C 423.4158 846.02951 426.32204 841.8316 429.33594 838.17188 C 432.45745 834.61979 435.95508 831.82053 439.83008 829.77539 C 443.70508 827.73025 448.54882 826.70898 454.36133 826.70898 C 459.74327 826.70898 464.48003 827.83919 468.57031 830.09961 C 472.66059 832.25239 476.10373 835.15864 478.90234 838.81836 C 481.59332 842.47808 483.6923 846.676 485.19922 851.41211 C 486.59858 856.14822 487.35335 861.04449 487.46094 866.10352 C 487.46094 872.13129 486.59916 877.45942 484.87695 882.08789 C 483.15472 886.60872 481.0013 890.43121 478.41797 893.55273 C 475.727 896.7819 472.71377 899.25629 469.37695 900.97852 C 465.93252 902.80838 462.59637 903.99306 459.36719 904.53125 C 455.06165 893.65972 451.83248 885.53233 449.67969 880.15039 C 450.97135 879.82747 452.31554 879.3431 453.71484 878.69727 C 455.22179 878.05143 456.6224 877.13715 457.91406 875.95312 C 459.20573 874.7691 460.28145 873.37044 461.14258 871.75586 C 462.00368 870.24892 462.43359 868.4184 462.43359 866.26562 C 462.43359 864.11285 461.73524 862.12088 460.33594 860.29102 C 459.04427 858.46115 456.99783 857.54688 454.19922 857.54688 C 452.15409 857.54688 450.32553 858.40864 448.71094 860.13086 C 447.09635 861.85308 444.94293 864.48893 442.25195 868.04102 C 439.45334 873.20768 436.60157 878.1059 433.69531 882.73438 C 430.78908 887.47049 427.55991 891.61393 424.00781 895.16602 C 420.3481 898.82574 416.20268 901.78646 411.57422 904.04688 C 407.05337 906.19965 401.61827 907.27539 395.26758 907.27539 L 393.00781 907.27539 C 389.02517 907.06011 385.31162 905.92991 381.86719 903.88477 C 378.42273 901.83963 375.35504 898.98785 372.66406 895.32812 C 370.18837 891.88368 368.1964 887.63129 366.68945 882.57227 C 365.18251 877.4056 364.42969 871.64757 364.42969 865.29688 C 364.42969 860.34548 365.07552 855.71766 366.36719 851.41211 C 367.76649 846.99891 369.64952 843.01497 372.01758 839.46289 C 374.49327 836.01845 377.454 833.00521 380.89844 830.42188 C 384.34287 827.94618 388.27039 826.17014 392.68359 825.09375 z M 157.76172 898.71875 L 280.79297 898.71875 L 280.79297 974.11914 L 253.02344 974.11914 L 253.02344 926.49023 L 233.16406 926.49023 L 233.16406 961.52539 L 205.39258 961.52539 L 205.39258 926.49023 L 157.76172 926.49023 L 157.76172 898.71875 z M 459.68945 918.74023 L 487.46094 918.74023 L 487.46094 1002.375 L 459.68945 1002.375 L 459.68945 974.44336 L 364.42969 974.44336 L 364.42969 946.67188 L 459.68945 946.67188 L 459.68945 918.74023 z M 364.42969 1012.8691 C 425.8915 1030.9525 466.90192 1042.9549 487.46094 1048.875 L 487.46094 1086.0098 C 425.8915 1103.9855 384.88108 1115.9878 364.42969 1122.0156 L 364.42969 1090.3691 C 380.68316 1084.8796 391.50087 1081.2205 396.88281 1079.3906 L 396.88281 1055.334 C 380.62934 1049.952 369.81163 1046.3455 364.42969 1044.5156 L 364.42969 1012.8691 z M 253.02344 1034.3438 L 280.79297 1034.3438 L 280.79297 1117.9785 L 253.02344 1117.9785 L 253.02344 1090.0469 L 157.76172 1090.0469 L 157.76172 1062.2754 L 253.02344 1062.2754 L 253.02344 1034.3438 z M 157.76172 1132.834 L 280.79297 1132.834 L 280.79297 1160.6035 L 233.16406 1160.6035 L 233.16406 1193.541 L 280.79297 1193.541 L 280.79297 1221.3125 L 157.76172 1221.3125 L 157.76172 1193.541 L 205.39258 1193.541 L 205.39258 1160.6035 L 157.76172 1160.6035 L 157.76172 1132.834 z M 413.51172 1143.6504 L 487.62109 1143.6504 L 487.62109 1172.3906 L 415.61133 1172.3906 C 412.70507 1172.3906 409.90582 1172.6591 407.21484 1173.1973 C 404.63151 1173.8431 402.31859 1174.8118 400.27344 1176.1035 C 398.33595 1177.3952 396.77387 1179.0642 395.58984 1181.1094 C 394.40582 1183.0469 393.81445 1185.4143 393.81445 1188.2129 C 393.81445 1191.0115 394.40582 1193.3809 395.58984 1195.3184 C 396.77387 1197.2559 398.33595 1198.8704 400.27344 1200.1621 C 402.31859 1201.4538 404.63151 1202.4225 407.21484 1203.0684 C 409.90582 1203.6066 412.70507 1203.875 415.61133 1203.875 L 487.62109 1203.875 L 487.62109 1232.4531 L 413.51172 1232.4531 C 406.2999 1232.4531 399.6276 1231.4844 393.49219 1229.5469 C 387.4644 1227.717 382.24327 1224.9178 377.83008 1221.1504 C 373.52452 1217.4907 370.18837 1212.9173 367.82031 1207.4277 C 365.45225 1201.9381 364.32205 1195.5323 364.42969 1188.2129 L 364.42969 1188.0527 C 364.32205 1179.9798 365.61372 1173.1441 368.30469 1167.5469 C 370.88802 1161.9497 374.44011 1157.3743 378.96094 1153.8223 C 383.58942 1150.2702 388.86308 1147.6868 394.7832 1146.0723 C 400.811 1144.4577 407.05339 1143.6504 413.51172 1143.6504 z M 157.76172 1241.9785 L 280.79297 1241.9785 L 280.79297 1317.3809 L 253.02344 1317.3809 L 253.02344 1269.75 L 233.16406 1269.75 L 233.16406 1304.9473 L 205.39258 1304.9473 L 205.39258 1269.75 L 185.5332 1269.75 L 185.5332 1317.3809 L 157.76172 1317.3809 L 157.76172 1241.9785 z M 364.42969 1251.0215 L 487.46094 1251.0215 L 487.46094 1288.4785 L 487.46094 1288.6406 C 487.46094 1295.6372 486.38324 1301.5041 484.23047 1306.2402 C 482.0777 1310.8687 479.17146 1314.5822 475.51172 1317.3809 C 471.95964 1320.2871 467.81618 1322.3316 463.08008 1323.5156 C 458.23631 1324.6997 453.17665 1325.291 447.90234 1325.291 C 442.41276 1325.291 437.51647 1324.3767 433.21094 1322.5469 C 428.90538 1320.717 425.24436 1318.5636 422.23047 1316.0879 C 419.43185 1313.6122 417.28039 1311.1378 415.77344 1308.6621 C 414.26651 1306.0788 413.51172 1304.0868 413.51172 1302.6875 C 388.97004 1315.1736 372.61024 1323.515 364.42969 1327.7129 L 364.42969 1295.7441 C 384.45052 1287.4559 397.79709 1281.9664 404.4707 1279.2754 L 404.4707 1278.791 L 364.42969 1278.791 L 364.42969 1251.0215 z M 364.42969 1340.9531 C 425.8915 1359.0365 466.90192 1371.0388 487.46094 1376.959 L 487.46094 1414.0938 C 425.8915 1432.0694 384.88108 1444.0718 364.42969 1450.0996 L 364.42969 1418.4531 C 380.68316 1412.9635 391.50087 1409.3045 396.88281 1407.4746 L 396.88281 1383.416 C 380.62934 1378.0341 369.81163 1374.4295 364.42969 1372.5996 L 364.42969 1340.9531 z M 206.8457 1382.9316 L 280.95508 1382.9316 L 280.95508 1411.6719 L 208.94531 1411.6719 C 206.03906 1411.6719 203.2398 1411.9403 200.54883 1412.4785 C 197.96549 1413.1243 195.65061 1414.0931 193.60547 1415.3848 C 191.66797 1416.6764 190.10786 1418.3455 188.92383 1420.3906 C 187.7398 1422.3281 187.14844 1424.6955 187.14844 1427.4941 C 187.14844 1430.2928 187.7398 1432.6621 188.92383 1434.5996 C 190.10786 1436.5371 191.66797 1438.1517 193.60547 1439.4434 C 195.65061 1440.735 197.96549 1441.7038 200.54883 1442.3496 C 203.2398 1442.8878 206.03906 1443.1563 208.94531 1443.1562 L 280.95508 1443.1562 L 280.95508 1471.7344 L 206.8457 1471.7344 C 199.6339 1471.7344 192.95964 1470.7656 186.82422 1468.8281 C 180.79644 1466.9983 175.57726 1464.199 171.16406 1460.4316 C 166.85851 1456.7719 163.5204 1452.1986 161.15234 1446.709 C 158.78429 1441.2194 157.65408 1434.8136 157.76172 1427.4941 L 157.76172 1427.334 C 157.65408 1419.2611 158.94575 1412.4253 161.63672 1406.8281 C 164.22005 1401.2309 167.77214 1396.6556 172.29297 1393.1035 C 176.92144 1389.5514 182.19705 1386.9681 188.11719 1385.3535 C 194.14496 1383.7389 200.38737 1382.9316 206.8457 1382.9316 z M 364.42969 1465.5996 L 487.46094 1465.5996 L 487.46094 1493.8535 C 457.32205 1510.3223 437.19227 1521.3014 427.07422 1526.791 L 487.46094 1526.791 L 487.46094 1556.1777 L 364.42969 1556.1777 L 364.42969 1528.084 C 394.67623 1511.6152 414.85852 1500.6361 424.97656 1495.1465 L 364.42969 1495.1465 L 364.42969 1465.5996 z M 157.76172 1489.4941 L 280.79297 1489.4941 L 280.79297 1517.75 C 250.65408 1534.2188 230.52626 1545.1979 220.4082 1550.6875 L 280.79297 1550.6875 L 280.79297 1580.0723 L 157.76172 1580.0723 L 157.76172 1551.9785 C 188.00825 1535.5098 208.19054 1524.5306 218.30859 1519.041 L 157.76172 1519.041 L 157.76172 1489.4941 z M 459.68945 1571.3535 L 487.46094 1571.3535 L 487.46094 1654.9902 L 459.68945 1654.9902 L 459.68945 1627.0566 L 364.42969 1627.0566 L 364.42969 1599.2871 L 459.68945 1599.2871 L 459.68945 1571.3535 z M 157.76172 1597.834 L 280.79297 1597.834 L 280.79297 1625.6035 L 157.76172 1625.6035 L 157.76172 1597.834 z M 280.79297 1642.2344 L 280.79297 1675.0098 C 253.02213 1684.2667 234.5089 1690.4021 225.25195 1693.416 C 253.02279 1702.5653 271.53602 1708.6482 280.79297 1711.6621 L 280.79297 1744.4375 C 219.22352 1724.6319 178.21311 1711.4468 157.76172 1704.8809 L 157.76172 1680.0156 C 219.22353 1661.1788 260.23394 1648.5851 280.79297 1642.2344 z M 364.42969 1718.1191 C 425.8915 1736.2025 466.90192 1748.2049 487.46094 1754.125 L 487.46094 1791.2598 C 425.8915 1809.2355 384.88108 1821.2378 364.42969 1827.2656 L 364.42969 1795.6191 C 380.68316 1790.1296 391.50087 1786.4705 396.88281 1784.6406 L 396.88281 1760.584 C 380.62934 1755.202 369.81163 1751.5955 364.42969 1749.7656 L 364.42969 1718.1191 z M 157.76172 1756.3848 L 280.79297 1756.3848 L 280.79297 1831.7871 L 253.02344 1831.7871 L 253.02344 1784.1562 L 233.16406 1784.1562 L 233.16406 1819.3535 L 205.39258 1819.3535 L 205.39258 1784.1562 L 185.5332 1784.1562 L 185.5332 1831.7871 L 157.76172 1831.7871 L 157.76172 1756.3848 z M 459.68945 1840.9902 L 487.46094 1840.9902 L 487.46094 1924.625 L 459.68945 1924.625 L 459.68945 1896.6934 L 364.42969 1896.6934 L 364.42969 1868.9219 L 459.68945 1868.9219 L 459.68945 1840.9902 z M 157.76172 1850.6777 L 280.79297 1850.6777 L 280.79297 1888.1348 L 280.79297 1888.2969 C 280.79297 1895.2934 279.71723 1901.1604 277.56445 1905.8965 C 275.41168 1910.525 272.50543 1914.2385 268.8457 1917.0371 C 265.29362 1919.9434 261.15017 1921.9878 256.41406 1923.1719 C 251.57031 1924.3559 246.51063 1924.9473 241.23633 1924.9473 C 235.74674 1924.9473 230.84852 1924.033 226.54297 1922.2031 C 222.23741 1920.3733 218.57834 1918.2199 215.56445 1915.7441 C 212.76584 1913.2684 210.61241 1910.7941 209.10547 1908.3184 C 207.59852 1905.735 206.8457 1903.7431 206.8457 1902.3438 C 182.30404 1914.8299 165.94227 1923.1712 157.76172 1927.3691 L 157.76172 1895.4004 C 177.78255 1887.1122 191.13107 1881.6226 197.80469 1878.9316 L 197.80469 1878.4473 L 157.76172 1878.4473 L 157.76172 1850.6777 z M 186.01758 1944.9688 C 190.96897 1956.7014 194.68251 1965.5271 197.1582 1971.4473 C 197.05056 1971.232 196.24327 1971.5024 194.73633 1972.2559 C 193.33702 1972.9017 191.82943 1973.923 190.21484 1975.3223 C 188.60026 1976.6139 187.20161 1978.2285 186.01758 1980.166 C 184.72591 1982.1035 184.24154 1984.1499 184.56445 1986.3027 C 184.77973 1988.2402 185.58702 1990.1233 186.98633 1991.9531 C 188.49327 1993.6753 190.75369 1994.4826 193.76758 1994.375 C 195.70508 1994.2674 197.42665 1993.5671 198.93359 1992.2754 C 200.54818 1990.8761 202.2717 1988.8861 204.10156 1986.3027 C 207.86892 1980.7055 211.15061 1975.4844 213.94922 1970.6406 C 216.74783 1965.9045 219.65408 1961.7066 222.66797 1958.0469 C 225.7895 1954.4948 229.28906 1951.6955 233.16406 1949.6504 C 237.03906 1947.6053 241.88281 1946.584 247.69531 1946.584 C 253.07726 1946.584 257.81207 1947.7142 261.90234 1949.9746 C 265.99262 1952.1274 269.43772 1955.0336 272.23633 1958.6934 C 274.9273 1962.3531 277.02626 1966.551 278.5332 1971.2871 C 279.93251 1976.0232 280.68533 1980.9195 280.79297 1985.9785 C 280.79297 1992.0063 279.93316 1997.3344 278.21094 2001.9629 C 276.48872 2006.4837 274.33529 2010.3062 271.75195 2013.4277 C 269.06098 2016.6569 266.04774 2019.1313 262.71094 2020.8535 C 259.26649 2022.6834 255.92838 2023.8681 252.69922 2024.4062 C 248.39366 2013.5347 245.16449 2005.4073 243.01172 2000.0254 C 244.30338 1999.7025 245.64952 1999.2181 247.04883 1998.5723 C 248.55577 1997.9264 249.95443 1997.0122 251.24609 1995.8281 C 252.53776 1994.6441 253.61545 1993.2454 254.47656 1991.6309 C 255.33767 1990.1239 255.76758 1988.2934 255.76758 1986.1406 C 255.76758 1983.9878 255.06727 1981.9959 253.66797 1980.166 C 252.3763 1978.3361 250.33181 1977.4219 247.5332 1977.4219 C 245.48806 1977.4219 243.65755 1978.2836 242.04297 1980.0059 C 240.42839 1981.7281 238.27691 1984.3639 235.58594 1987.916 C 232.78733 1993.0827 229.93359 1997.9809 227.02734 2002.6094 C 224.12109 2007.3455 220.89193 2011.4889 217.33984 2015.041 C 213.68012 2018.7007 209.53668 2021.6614 204.9082 2023.9219 C 200.38737 2026.0746 194.95226 2027.1504 188.60156 2027.1504 L 186.33984 2027.1504 C 182.3572 2026.9351 178.64366 2025.8049 175.19922 2023.7598 C 171.75477 2021.7146 168.68707 2018.8628 165.99609 2015.2031 C 163.5204 2011.7587 161.53038 2007.5063 160.02344 2002.4473 C 158.51649 1997.2806 157.76172 1991.5226 157.76172 1985.1719 C 157.76172 1980.2205 158.40755 1975.5927 159.69922 1971.2871 C 161.09852 1966.8739 162.98351 1962.89 165.35156 1959.3379 C 167.82726 1955.8935 170.78602 1952.8802 174.23047 1950.2969 C 177.67491 1947.8212 181.60439 1946.0452 186.01758 1944.9688 z M 157.76172 2045.7188 L 280.79297 2045.7188 L 280.79297 2121.1191 L 253.02344 2121.1191 L 253.02344 2073.4902 L 233.16406 2073.4902 L 233.16406 2108.6875 L 205.39258 2108.6875 L 205.39258 2073.4902 L 185.5332 2073.4902 L 185.5332 2121.1191 L 157.76172 2121.1191 L 157.76172 2045.7188 z "
           transform="matrix(0,-0.26458333,0.26458333,0,-303,0)"
           id="path949" />
      </g>
      <g
         aria-label="THE RESTAURANT AT  THe END OF THE UNIVERSE"
         transform="rotate(90)"
         style="font-style:normal;font-variant:normal;font-weight:normal;font-stretch:normal;font-size:42.33333206px;line-height:1.25;font-family:'Blackout Zwo Uhr Nachts';-inkscape-font-specification:'Blackout Zwo Uhr Nachts';letter-spacing:0px;word-spacing:0px;fill:#000000;fill-opacity:1;stroke:none;stroke-width:0.07000434"
         id="text910-3">
        <path
           style="font-size:43.7444458px;text-align:center;text-anchor:middle;stroke-width:0.26458332"
           d="M 640.66211 82.869141 L 640.66211 183.78125 L 640.66211 291.15039 L 640.66211 384.63477 L 640.66211 432.91211 L 640.66211 525.42773 L 640.66211 632.79688 L 640.66211 739.68164 L 640.66211 787.15039 L 640.66211 893.71289 L 640.66211 981.38477 L 640.66211 1030.6309 L 640.66211 1127.3438 L 640.66211 1234.7129 L 640.66211 1328.1973 L 640.66211 1376.4746 L 640.66211 1482.2285 L 640.66211 1589.5996 L 640.66211 1636.9062 L 640.66211 1751.2188 L 640.66211 1842.6035 L 640.66211 1938.5098 L 640.66211 2035.2246 L 640.66211 2037 L 640.66211 2131.9375 L 813.58398 2131.9375 L 813.58398 2037 L 813.58398 2035.2246 L 813.58398 1936.0879 L 813.58398 1840.1816 L 813.58398 1745.8906 L 813.58398 1635.4531 L 813.58398 1587.3379 L 813.58398 1479.8066 L 813.58398 1372.2754 L 813.58398 1324.9688 L 813.58398 1231.4844 L 813.58398 1125.5684 L 813.58398 1026.4316 L 813.58398 979.125 L 813.58398 890.48438 L 813.58398 782.95312 L 813.58398 735.64648 L 813.58398 630.53711 L 813.58398 523.00586 L 813.58398 428.71289 L 813.58398 381.40625 L 813.58398 287.92188 L 813.58398 182.00586 L 813.58398 82.869141 L 640.66211 82.869141 z M 761.59375 90.78125 L 789.36523 90.78125 L 789.36523 174.41602 L 761.59375 174.41602 L 761.59375 146.48438 L 666.33398 146.48438 L 666.33398 118.71289 L 761.59375 118.71289 L 761.59375 90.78125 z M 666.33398 189.27148 L 789.36523 189.27148 L 789.36523 217.04102 L 741.73438 217.04102 L 741.73438 249.97852 L 789.36523 249.97852 L 789.36523 277.75 L 666.33398 277.75 L 666.33398 249.97852 L 713.96289 249.97852 L 713.96289 217.04102 L 666.33398 217.04102 L 666.33398 189.27148 z M 847.32812 280.17188 L 847.32812 381.08398 L 847.32812 488.45312 L 847.32812 581.9375 L 847.32812 630.21289 L 847.32812 724.34375 L 847.32812 818.63477 L 847.32812 917.125 L 847.32812 1011.7402 L 847.32812 1135.416 L 847.32812 1242.9473 L 847.32812 1338.8535 L 847.32812 1463.5 L 847.32812 1565.7031 L 847.32812 1664.3535 L 847.32812 1713.2754 L 847.32812 1840.666 L 847.32812 1933.9902 L 847.32812 1982.9121 L 1020.25 1982.9121 L 1020.25 1931.4062 L 1020.25 1833.0781 L 1020.25 1709.4004 L 1020.25 1661.7715 L 1020.25 1563.4434 L 1020.25 1455.9121 L 1020.25 1332.2344 L 1020.25 1240.5254 L 1020.25 1132.9941 L 1020.25 1004.1504 L 1020.25 910.82812 L 1020.25 816.21289 L 1020.25 721.92188 L 1020.25 626.01562 L 1020.25 578.70898 L 1020.25 485.22461 L 1020.25 379.30664 L 1020.25 280.17188 L 847.32812 280.17188 z M 968.25977 288.08398 L 996.03125 288.08398 L 996.03125 371.71875 L 968.25977 371.71875 L 968.25977 343.78711 L 873 343.78711 L 873 316.01562 L 968.25977 316.01562 L 968.25977 288.08398 z M 666.33398 298.41602 L 789.36523 298.41602 L 789.36523 373.81836 L 761.59375 373.81836 L 761.59375 326.1875 L 741.73438 326.1875 L 741.73438 361.38477 L 713.96289 361.38477 L 713.96289 326.1875 L 694.10352 326.1875 L 694.10352 373.81836 L 666.33398 373.81836 L 666.33398 298.41602 z M 873 386.57227 L 996.03125 386.57227 L 996.03125 414.34375 L 948.40039 414.34375 L 948.40039 447.28125 L 996.03125 447.28125 L 996.03125 475.05273 L 873 475.05273 L 873 447.28125 L 920.63086 447.28125 L 920.63086 414.34375 L 873 414.34375 L 873 386.57227 z M 666.33398 439.20898 L 789.36523 439.20898 L 789.36523 514.60938 L 761.59375 514.60938 L 761.59375 466.97852 L 741.73438 466.97852 L 741.73438 502.17773 L 713.96289 502.17773 L 713.96289 466.97852 L 694.10352 466.97852 L 694.10352 514.60938 L 666.33398 514.60938 L 666.33398 439.20898 z M 873 495.71875 L 996.03125 495.71875 L 996.03125 571.11914 L 968.25977 571.11914 L 968.25977 523.49023 L 948.40039 523.49023 L 948.40039 558.6875 L 920.63086 558.6875 L 920.63086 523.49023 L 900.77148 523.49023 L 900.77148 571.11914 L 873 571.11914 L 873 495.71875 z M 666.33398 532.69336 L 789.36523 532.69336 L 789.36523 560.94727 C 759.22632 577.416 739.09656 588.39518 728.97852 593.88477 L 789.36523 593.88477 L 789.36523 623.27148 L 666.33398 623.27148 L 666.33398 595.17773 C 696.58051 578.709 716.76281 567.72982 726.88086 562.24023 L 666.33398 562.24023 L 666.33398 532.69336 z M 873 636.50977 L 996.03125 636.50977 L 996.03125 673.96875 L 996.03125 674.13086 C 996.03125 681.12739 994.9555 686.99241 992.80273 691.72852 C 990.64997 696.357 987.74373 700.07053 984.08398 702.86914 C 980.53191 705.7754 976.38649 707.82183 971.65039 709.00586 C 966.80662 710.18988 961.74891 710.78125 956.47461 710.78125 C 950.98502 710.78125 946.08679 709.86698 941.78125 708.03711 C 937.47569 706.20726 933.81663 704.05384 930.80273 701.57812 C 928.00412 699.10243 925.8507 696.62608 924.34375 694.15039 C 922.83683 691.56706 922.08398 689.57704 922.08398 688.17773 C 897.5423 700.66386 881.18056 709.0052 873 713.20312 L 873 681.23438 C 893.02084 672.94617 906.3674 667.4566 913.04102 664.76562 L 913.04102 664.28125 L 873 664.28125 L 873 636.50977 z M 666.33398 642.80664 L 789.36523 642.80664 L 789.36523 667.50977 C 789.36523 677.08963 787.80318 685.53992 784.68164 692.85938 C 781.45246 700.17881 777.0931 706.25977 771.60352 711.10352 C 766.22159 715.94728 759.76326 719.55382 752.22852 721.92188 C 744.6938 724.39757 736.56835 725.63477 727.84961 725.63477 C 719.56141 725.63477 711.70249 724.666 704.27539 722.72852 C 696.84832 720.89864 690.33746 717.83095 684.74023 713.52539 C 679.03539 709.21983 674.56707 703.62324 671.33789 696.73438 C 668.0011 689.73784 666.33398 681.23502 666.33398 671.22461 L 666.33398 667.50977 L 666.33398 642.80664 z M 873 732.41602 L 996.03125 732.41602 L 996.03125 807.81836 L 968.25977 807.81836 L 968.25977 760.1875 L 948.40039 760.1875 L 948.40039 795.38477 L 920.63086 795.38477 L 920.63086 760.1875 L 900.77148 760.1875 L 900.77148 807.81836 L 873 807.81836 L 873 732.41602 z M 715.25586 792.64062 L 743.99414 792.64062 C 749.26845 792.64062 754.65104 793.71636 760.14062 795.86914 C 765.63021 797.91428 770.47395 800.875 774.67188 804.75 C 779.40798 809.37847 783.01454 814.54514 785.49023 820.25 C 788.07359 826.0625 789.36523 832.19792 789.36523 838.65625 L 789.36523 838.81836 C 789.36523 845.27669 788.07359 851.41211 785.49023 857.22461 C 783.01454 863.03711 779.40798 868.20378 774.67188 872.72461 C 770.47395 876.70725 765.7372 879.66602 760.46289 881.60352 C 755.18859 883.64865 749.69901 884.72634 743.99414 884.83398 L 715.25586 884.83398 C 709.33571 884.83398 703.30728 883.91775 697.17188 882.08789 C 691.03647 880.25803 685.65388 877.1378 681.02539 872.72461 C 676.18165 868.20378 672.52257 863.03711 670.04688 857.22461 C 667.46354 851.41211 666.17188 845.27669 666.17188 838.81836 L 666.17188 838.65625 C 666.17187 832.30556 667.46354 826.22461 670.04688 820.41211 C 672.52257 814.59961 676.12913 809.37847 680.86523 804.75 C 685.49372 800.44445 690.71291 797.37674 696.52539 795.54688 C 702.44554 793.71702 708.68989 792.74827 715.25586 792.64062 z M 901.25586 825.09375 C 906.20724 836.82639 909.92079 845.65212 912.39648 851.57227 C 912.28887 851.35699 911.48156 851.62739 909.97461 852.38086 C 908.5753 853.02669 907.06771 854.04796 905.45312 855.44727 C 903.83854 856.73893 902.43988 858.35351 901.25586 860.29102 C 899.96419 862.22851 899.47981 864.27496 899.80273 866.42773 C 900.01802 868.36523 900.8253 870.24826 902.22461 872.07812 C 903.73153 873.80035 905.99196 874.60764 909.00586 874.5 C 910.94337 874.39236 912.66493 873.69206 914.17188 872.40039 C 915.78644 871.00108 917.50802 869.01107 919.33789 866.42773 C 923.10525 860.83051 926.38889 855.60937 929.1875 850.76562 C 931.98611 846.02951 934.89235 841.8316 937.90625 838.17188 C 941.02776 834.61979 944.52539 831.82053 948.40039 829.77539 C 952.27539 827.73025 957.11913 826.70898 962.93164 826.70898 C 968.31359 826.70898 973.05034 827.83919 977.14062 830.09961 C 981.23091 832.25239 984.676 835.15864 987.47461 838.81836 C 990.16558 842.47808 992.26456 846.676 993.77148 851.41211 C 995.17084 856.14822 995.92366 861.04449 996.03125 866.10352 C 996.03125 872.1313 995.16947 877.45942 993.44727 882.08789 C 991.72504 886.60872 989.57357 890.4312 986.99023 893.55273 C 984.29926 896.7819 981.28408 899.25629 977.94727 900.97852 C 974.50283 902.80838 971.16668 903.99306 967.9375 904.53125 C 963.63196 893.65972 960.40279 885.53234 958.25 880.15039 C 959.54167 879.82748 960.8878 879.3431 962.28711 878.69727 C 963.79406 878.05143 965.19271 877.13715 966.48438 875.95312 C 967.77604 874.7691 968.85176 873.37044 969.71289 871.75586 C 970.57399 870.24891 971.00586 868.4184 971.00586 866.26562 C 971.00586 864.11285 970.30556 862.12088 968.90625 860.29102 C 967.61458 858.46115 965.5701 857.54688 962.77148 857.54688 C 960.72636 857.54687 958.89584 858.40864 957.28125 860.13086 C 955.66666 861.85308 953.51324 864.48893 950.82227 868.04102 C 948.02365 873.20768 945.17188 878.1059 942.26562 882.73438 C 939.3594 887.47049 936.13023 891.61393 932.57812 895.16602 C 928.91841 898.82574 924.77494 901.78646 920.14648 904.04688 C 915.62564 906.19965 910.18858 907.27539 903.83789 907.27539 L 901.57812 907.27539 C 897.59549 907.06011 893.88193 905.9299 890.4375 903.88477 C 886.99304 901.83963 883.92535 898.98785 881.23438 895.32812 C 878.75868 891.88368 876.76671 887.63129 875.25977 882.57227 C 873.75282 877.4056 873 871.64757 873 865.29688 C 873 860.34549 873.64583 855.71767 874.9375 851.41211 C 876.33681 846.99892 878.21984 843.01497 880.58789 839.46289 C 883.06361 836.01845 886.02432 833.00521 889.46875 830.42188 C 892.91318 827.94618 896.84266 826.17014 901.25586 825.09375 z M 666.33398 898.71875 L 789.36523 898.71875 L 789.36523 974.11914 L 761.59375 974.11914 L 761.59375 926.49023 L 741.73438 926.49023 L 741.73438 961.52539 L 713.96289 961.52539 L 713.96289 926.49023 L 666.33398 926.49023 L 666.33398 898.71875 z M 968.25977 918.74023 L 996.03125 918.74023 L 996.03125 1002.375 L 968.25977 1002.375 L 968.25977 974.44336 L 873 974.44336 L 873 946.67188 L 968.25977 946.67188 L 968.25977 918.74023 z M 873 1012.8691 C 934.46182 1030.9525 975.47223 1042.9549 996.03125 1048.875 L 996.03125 1086.0098 C 934.46181 1103.9855 893.4514 1115.9878 873 1122.0156 L 873 1090.3691 C 889.25348 1084.8796 900.07118 1081.2205 905.45312 1079.3906 L 905.45312 1055.334 C 889.19964 1049.952 878.38195 1046.3455 873 1044.5156 L 873 1012.8691 z M 761.59375 1034.3438 L 789.36523 1034.3438 L 789.36523 1117.9785 L 761.59375 1117.9785 L 761.59375 1090.0469 L 666.33398 1090.0469 L 666.33398 1062.2754 L 761.59375 1062.2754 L 761.59375 1034.3438 z M 666.33398 1132.834 L 789.36523 1132.834 L 789.36523 1160.6035 L 741.73438 1160.6035 L 741.73438 1193.541 L 789.36523 1193.541 L 789.36523 1221.3125 L 666.33398 1221.3125 L 666.33398 1193.541 L 713.96289 1193.541 L 713.96289 1160.6035 L 666.33398 1160.6035 L 666.33398 1132.834 z M 922.08398 1143.6504 L 996.19336 1143.6504 L 996.19336 1172.3906 L 924.18164 1172.3906 C 921.27541 1172.3906 918.47808 1172.6591 915.78711 1173.1973 C 913.20378 1173.8431 910.8889 1174.8118 908.84375 1176.1035 C 906.90626 1177.3952 905.34613 1179.0642 904.16211 1181.1094 C 902.97806 1183.0469 902.38477 1185.4143 902.38477 1188.2129 C 902.38477 1191.0115 902.97806 1193.3809 904.16211 1195.3184 C 905.34613 1197.2559 906.90626 1198.8704 908.84375 1200.1621 C 910.8889 1201.4538 913.20378 1202.4225 915.78711 1203.0684 C 918.47808 1203.6066 921.27541 1203.875 924.18164 1203.875 L 996.19336 1203.875 L 996.19336 1232.4531 L 922.08398 1232.4531 C 914.87217 1232.4531 908.19791 1231.4844 902.0625 1229.5469 C 896.03471 1227.717 890.81357 1224.9178 886.40039 1221.1504 C 882.09483 1217.4907 878.75868 1212.9173 876.39062 1207.4277 C 874.0226 1201.9382 872.89241 1195.5323 873 1188.2129 L 873 1188.0527 C 872.89236 1179.9798 874.18403 1173.1441 876.875 1167.5469 C 879.45833 1161.9497 883.01041 1157.3743 887.53125 1153.8223 C 892.15971 1150.2702 897.43336 1147.6868 903.35352 1146.0723 C 909.38128 1144.4577 915.62563 1143.6504 922.08398 1143.6504 z M 666.33398 1241.9785 L 789.36523 1241.9785 L 789.36523 1317.3809 L 761.59375 1317.3809 L 761.59375 1269.75 L 741.73438 1269.75 L 741.73438 1304.9473 L 713.96289 1304.9473 L 713.96289 1269.75 L 694.10352 1269.75 L 694.10352 1317.3809 L 666.33398 1317.3809 L 666.33398 1241.9785 z M 873 1251.0215 L 996.03125 1251.0215 L 996.03125 1288.4785 L 996.03125 1288.6406 C 996.03125 1295.6372 994.9555 1301.5041 992.80273 1306.2402 C 990.64997 1310.8687 987.74373 1314.5822 984.08398 1317.3809 C 980.53191 1320.2871 976.38649 1322.3316 971.65039 1323.5156 C 966.80662 1324.6997 961.74891 1325.291 956.47461 1325.291 C 950.98502 1325.291 946.08679 1324.3767 941.78125 1322.5469 C 937.47569 1320.717 933.81663 1318.5636 930.80273 1316.0879 C 928.00412 1313.6122 925.8507 1311.1378 924.34375 1308.6621 C 922.83683 1306.0788 922.08398 1304.0868 922.08398 1302.6875 C 897.5423 1315.1736 881.18056 1323.515 873 1327.7129 L 873 1295.7441 C 893.02084 1287.4559 906.3674 1281.9664 913.04102 1279.2754 L 913.04102 1278.791 L 873 1278.791 L 873 1251.0215 z M 873 1340.9531 C 934.46182 1359.0365 975.47223 1371.0388 996.03125 1376.959 L 996.03125 1414.0938 C 934.46181 1432.0694 893.4514 1444.0718 873 1450.0996 L 873 1418.4531 C 889.25348 1412.9635 900.07118 1409.3045 905.45312 1407.4746 L 905.45312 1383.416 C 889.19964 1378.0341 878.38195 1374.4295 873 1372.5996 L 873 1340.9531 z M 715.41602 1382.9316 L 789.52539 1382.9316 L 789.52539 1411.6719 L 717.51562 1411.6719 C 714.60937 1411.6719 711.81011 1411.9403 709.11914 1412.4785 C 706.53581 1413.1244 704.22286 1414.0931 702.17773 1415.3848 C 700.24022 1416.6764 698.67817 1418.3455 697.49414 1420.3906 C 696.31012 1422.3281 695.71875 1424.6955 695.71875 1427.4941 C 695.71875 1430.2928 696.31012 1432.6621 697.49414 1434.5996 C 698.67817 1436.5371 700.24022 1438.1517 702.17773 1439.4434 C 704.22286 1440.735 706.53581 1441.7038 709.11914 1442.3496 C 711.81011 1442.8878 714.60937 1443.1563 717.51562 1443.1562 L 789.52539 1443.1562 L 789.52539 1471.7344 L 715.41602 1471.7344 C 708.2042 1471.7344 701.53189 1470.7656 695.39648 1468.8281 C 689.36869 1466.9983 684.14755 1464.199 679.73438 1460.4316 C 675.42881 1456.7719 672.09266 1452.1986 669.72461 1446.709 C 667.35661 1441.2194 666.22639 1434.8136 666.33398 1427.4941 L 666.33398 1427.334 C 666.22634 1419.2611 667.51801 1412.4253 670.20898 1406.8281 C 672.79232 1401.2309 676.34442 1396.6556 680.86523 1393.1035 C 685.49372 1389.5514 690.76737 1386.9681 696.6875 1385.3535 C 702.71529 1383.7389 708.95768 1382.9316 715.41602 1382.9316 z M 873 1465.5996 L 996.03125 1465.5996 L 996.03125 1493.8535 C 965.89236 1510.3223 945.76453 1521.3014 935.64648 1526.791 L 996.03125 1526.791 L 996.03125 1556.1777 L 873 1556.1777 L 873 1528.084 C 903.24653 1511.6152 923.4288 1500.6361 933.54688 1495.1465 L 873 1495.1465 L 873 1465.5996 z M 666.33398 1489.4941 L 789.36523 1489.4941 L 789.36523 1517.75 C 759.22632 1534.2188 739.09656 1545.1979 728.97852 1550.6875 L 789.36523 1550.6875 L 789.36523 1580.0723 L 666.33398 1580.0723 L 666.33398 1551.9785 C 696.58051 1535.5098 716.76281 1524.5306 726.88086 1519.041 L 666.33398 1519.041 L 666.33398 1489.4941 z M 968.25977 1571.3535 L 996.03125 1571.3535 L 996.03125 1654.9902 L 968.25977 1654.9902 L 968.25977 1627.0566 L 873 1627.0566 L 873 1599.2871 L 968.25977 1599.2871 L 968.25977 1571.3535 z M 666.33398 1597.834 L 789.36523 1597.834 L 789.36523 1625.6035 L 666.33398 1625.6035 L 666.33398 1597.834 z M 789.36523 1642.2344 L 789.36523 1675.0098 C 761.5944 1684.2667 743.07921 1690.4021 733.82227 1693.416 C 761.5931 1702.5653 780.10829 1708.6482 789.36523 1711.6621 L 789.36523 1744.4375 C 727.79577 1724.6319 686.78536 1711.4468 666.33398 1704.8809 L 666.33398 1680.0156 C 727.79578 1661.1788 768.80619 1648.5851 789.36523 1642.2344 z M 873 1718.1191 C 934.46182 1736.2025 975.47223 1748.2049 996.03125 1754.125 L 996.03125 1791.2598 C 934.46181 1809.2355 893.4514 1821.2379 873 1827.2656 L 873 1795.6191 C 889.25348 1790.1296 900.07118 1786.4705 905.45312 1784.6406 L 905.45312 1760.584 C 889.19964 1755.202 878.38195 1751.5955 873 1749.7656 L 873 1718.1191 z M 666.33398 1756.3848 L 789.36523 1756.3848 L 789.36523 1831.7871 L 761.59375 1831.7871 L 761.59375 1784.1562 L 741.73438 1784.1562 L 741.73438 1819.3535 L 713.96289 1819.3535 L 713.96289 1784.1562 L 694.10352 1784.1562 L 694.10352 1831.7871 L 666.33398 1831.7871 L 666.33398 1756.3848 z M 968.25977 1840.9902 L 996.03125 1840.9902 L 996.03125 1924.625 L 968.25977 1924.625 L 968.25977 1896.6934 L 873 1896.6934 L 873 1868.9219 L 968.25977 1868.9219 L 968.25977 1840.9902 z M 666.33398 1850.6777 L 789.36523 1850.6777 L 789.36523 1888.1348 L 789.36523 1888.2969 C 789.36523 1895.2934 788.28756 1901.1604 786.13477 1905.8965 C 783.982 1910.525 781.07573 1914.2385 777.41602 1917.0371 C 773.86391 1919.9433 769.72048 1921.9878 764.98438 1923.1719 C 760.14061 1924.3559 755.08095 1924.9473 749.80664 1924.9473 C 744.31708 1924.9473 739.4208 1924.033 735.11523 1922.2031 C 730.80967 1920.3733 727.14866 1918.2198 724.13477 1915.7441 C 721.33618 1913.2684 719.18468 1910.7941 717.67773 1908.3184 C 716.17079 1905.735 715.41602 1903.7431 715.41602 1902.3438 C 690.87433 1914.8299 674.51452 1923.1712 666.33398 1927.3691 L 666.33398 1895.4004 C 686.3548 1887.1122 699.70139 1881.6226 706.375 1878.9316 L 706.375 1878.4473 L 666.33398 1878.4473 L 666.33398 1850.6777 z M 694.58789 1944.9688 C 699.5393 1956.7014 703.25282 1965.5271 705.72852 1971.4473 C 705.62087 1971.232 704.81359 1971.5024 703.30664 1972.2559 C 701.90733 1972.9017 700.4017 1973.923 698.78711 1975.3223 C 697.17252 1976.6139 695.77192 1978.2285 694.58789 1980.166 C 693.29622 1982.1035 692.81184 1984.1499 693.13477 1986.3027 C 693.35005 1988.2402 694.15733 1990.1233 695.55664 1991.9531 C 697.06359 1993.6753 699.32402 1994.4826 702.33789 1994.375 C 704.2754 1994.2674 705.99891 1993.5671 707.50586 1992.2754 C 709.12045 1990.8761 710.84203 1988.8861 712.67188 1986.3027 C 716.43923 1980.7055 719.72287 1975.4844 722.52148 1970.6406 C 725.3201 1965.9045 728.22634 1961.7066 731.24023 1958.0469 C 734.36175 1954.4948 737.85935 1951.6955 741.73438 1949.6504 C 745.60937 1947.6053 750.45314 1946.584 756.26562 1946.584 C 761.64757 1946.584 766.38433 1947.7142 770.47461 1949.9746 C 774.56489 1952.1274 778.00803 1955.0336 780.80664 1958.6934 C 783.49761 1962.3531 785.59657 1966.551 787.10352 1971.2871 C 788.50287 1976.0232 789.25764 1980.9195 789.36523 1985.9785 C 789.36523 1992.0063 788.50348 1997.3344 786.78125 2001.9629 C 785.05902 2006.4837 782.9056 2010.3062 780.32227 2013.4277 C 777.63129 2016.6569 774.61804 2019.1313 771.28125 2020.8535 C 767.83679 2022.6834 764.50064 2023.8681 761.27148 2024.4062 C 756.96592 2013.5347 753.73675 2005.4073 751.58398 2000.0254 C 752.87565 1999.7025 754.21983 1999.2181 755.61914 1998.5723 C 757.12606 1997.9264 758.52669 1997.0122 759.81836 1995.8281 C 761.11003 1994.6441 762.18575 1993.2454 763.04688 1991.6309 C 763.90798 1990.1239 764.33789 1988.2934 764.33789 1986.1406 C 764.33789 1983.9878 763.63954 1981.9959 762.24023 1980.166 C 760.94857 1978.3361 758.90213 1977.4219 756.10352 1977.4219 C 754.05839 1977.4219 752.22982 1978.2836 750.61523 1980.0059 C 749.00065 1981.7281 746.84722 1984.3639 744.15625 1987.916 C 741.35764 1993.0827 738.50584 1997.9809 735.59961 2002.6094 C 732.69335 2007.3455 729.46418 2011.4889 725.91211 2015.041 C 722.25237 2018.7007 718.10698 2021.6614 713.47852 2023.9219 C 708.95767 2026.0746 703.52256 2027.1504 697.17188 2027.1504 L 694.91211 2027.1504 C 690.92947 2026.9351 687.21592 2025.8049 683.77148 2023.7598 C 680.32702 2021.7146 677.25933 2018.8628 674.56836 2015.2031 C 672.09267 2011.7587 670.1007 2007.5063 668.59375 2002.4473 C 667.08683 1997.2806 666.33398 1991.5226 666.33398 1985.1719 C 666.33398 1980.2205 666.97982 1975.5927 668.27148 1971.2871 C 669.67079 1966.8739 671.55382 1962.89 673.92188 1959.3379 C 676.39757 1955.8935 679.3583 1952.8802 682.80273 1950.2969 C 686.24719 1947.8212 690.17471 1946.0452 694.58789 1944.9688 z M 666.33398 2045.7188 L 789.36523 2045.7188 L 789.36523 2121.1191 L 761.59375 2121.1191 L 761.59375 2073.4902 L 741.73438 2073.4902 L 741.73438 2108.6875 L 713.96289 2108.6875 L 713.96289 2073.4902 L 694.10352 2073.4902 L 694.10352 2121.1191 L 666.33398 2121.1191 L 666.33398 2045.7188 z "
           transform="matrix(0,-0.26458333,0.26458333,0,-303,0)"
           id="path1032" />
      </g>
    </g>
  </g>
</svg>
