<?xml version="1.0" encoding="UTF-8" standalone="no"?>
<!-- Created with Inkscape (http://www.inkscape.org/) -->

<svg
   xmlns:dc="http://purl.org/dc/elements/1.1/"
   xmlns:cc="http://creativecommons.org/ns#"
   xmlns:rdf="http://www.w3.org/1999/02/22-rdf-syntax-ns#"
   xmlns:svg="http://www.w3.org/2000/svg"
   xmlns="http://www.w3.org/2000/svg"
   xmlns:sodipodi="http://sodipodi.sourceforge.net/DTD/sodipodi-0.dtd"
   xmlns:inkscape="http://www.inkscape.org/namespaces/inkscape"
   width="297mm"
   height="420mm"
   viewBox="0 0 297 420"
   version="1.1"
   id="svg8"
   inkscape:version="0.92.3 (2405546, 2018-03-11)"
   sodipodi:docname="RM.svg"
   inkscape:export-filename="/home/housemeista/Dropbox/Fla/Stencilkram Inkscape/Vorlagen/schildcyber.png"
   inkscape:export-xdpi="96"
   inkscape:export-ydpi="96">
  <defs
     id="defs2" />
  <sodipodi:namedview
     id="base"
     pagecolor="#ffffff"
     bordercolor="#666666"
     borderopacity="1.0"
     inkscape:pageopacity="0"
     inkscape:pageshadow="2"
     inkscape:zoom="0.7"
     inkscape:cx="854.00935"
     inkscape:cy="996.69189"
     inkscape:document-units="mm"
     inkscape:current-layer="text854-5"
     showgrid="true"
     inkscape:pagecheckerboard="true"
     inkscape:window-width="1920"
     inkscape:window-height="1031"
     inkscape:window-x="0"
     inkscape:window-y="25"
     inkscape:window-maximized="1"
     showguides="true"
     inkscape:guide-bbox="true">
    <inkscape:grid
       type="xygrid"
       id="grid3713" />
    <sodipodi:guide
       position="158.75,210"
       orientation="0,1"
       id="guide21"
       inkscape:locked="false"
       inkscape:label=""
       inkscape:color="rgb(0,0,255)" />
    <sodipodi:guide
       position="30,285"
       orientation="1,0"
       id="guide23"
       inkscape:locked="false"
       inkscape:label=""
       inkscape:color="rgb(0,0,255)" />
    <sodipodi:guide
       position="201.08334,315"
       orientation="0,1"
       id="guide25"
       inkscape:locked="false"
       inkscape:label=""
       inkscape:color="rgb(0,0,255)" />
    <sodipodi:guide
       position="312.20833,105"
       orientation="0,1"
       id="guide27"
       inkscape:locked="false"
       inkscape:label=""
       inkscape:color="rgb(0,0,255)" />
    <sodipodi:guide
       position="148,269.87499"
       orientation="1,0"
       id="guide51"
       inkscape:locked="false"
       inkscape:label=""
       inkscape:color="rgb(0,0,255)" />
    <sodipodi:guide
       position="178,341.31249"
       orientation="1,0"
       id="guide141"
       inkscape:locked="false"
       inkscape:label=""
       inkscape:color="rgb(0,0,255)" />
    <sodipodi:guide
       position="118,359.83333"
       orientation="1,0"
       id="guide143"
       inkscape:locked="false"
       inkscape:label=""
       inkscape:color="rgb(0,0,255)" />
    <sodipodi:guide
       position="63.500002,399.52082"
       orientation="0,1"
       id="guide145"
       inkscape:locked="false" />
  </sodipodi:namedview>
  <metadata
     id="metadata5">
    <rdf:RDF>
      <cc:Work
         rdf:about="">
        <dc:format>image/svg+xml</dc:format>
        <dc:type
           rdf:resource="http://purl.org/dc/dcmitype/StillImage" />
        <dc:title />
      </cc:Work>
    </rdf:RDF>
  </metadata>
  <g
     inkscape:label="Ebene 1"
     inkscape:groupmode="layer"
     id="layer1"
     transform="translate(0,123)">
    <text
       xml:space="preserve"
       style="font-style:normal;font-variant:normal;font-weight:normal;font-stretch:normal;font-size:14.11111069px;line-height:1.25;font-family:'Blackout Zwo Uhr Nachts';-inkscape-font-specification:'Blackout Zwo Uhr Nachts';letter-spacing:0px;word-spacing:0px;fill:#000000;fill-opacity:1;stroke:none;stroke-width:0.26458332"
       x="79.375"
       y="106.49999"
       id="text864"><tspan
         sodipodi:role="line"
         id="tspan862"
         x="79.375"
         y="120.28007"
         style="stroke-width:0.26458332" /></text>
    <g
       aria-label="RESOURCEFUL MISchIEF"
       style="font-style:normal;font-variant:normal;font-weight:normal;font-stretch:normal;font-size:14.11111069px;line-height:1.25;font-family:'Blackout Zwo Uhr Nachts';-inkscape-font-specification:'Blackout Zwo Uhr Nachts';letter-spacing:0px;word-spacing:0px;fill:#ff0000;fill-opacity:1;stroke:none;stroke-width:0.26458332"
       id="text854-5">
      <path
         style="font-size:33.86666489px;text-align:center;text-anchor:middle;fill:#ff0000;stroke-width:0.34478199"
         d="m 5.1643591,-118.78827 v 46.15769 h 26.2465299 25.169086 26.289628 29.090977 28.48762 25.60006 28.8324 24.26403 23.61757 28.96169 21.63507 v -46.15769 H 271.72395 242.76226 219.14469 194.88066 166.04826 140.4482 111.96058 82.869603 56.579975 31.410889 Z m 108.7787209,6.42156 h 7.6714 v 19.221601 c 0,0.77576 0.0718,1.522789 0.21549,2.241083 0.17239,0.689564 0.43098,1.3073 0.77576,1.853203 0.34478,0.517173 0.79013,0.933784 1.33603,1.249835 0.51717,0.316052 1.14927,0.474075 1.8963,0.474075 0.74703,0 1.37913,-0.158023 1.8963,-0.474075 0.51717,-0.316051 0.94815,-0.732662 1.29293,-1.249835 0.34478,-0.545903 0.60337,-1.163639 0.77576,-1.853203 0.14366,-0.718294 0.21549,-1.465323 0.21549,-2.241083 v -19.221601 h 7.6283 v 19.781872 c 0,1.925032 -0.25858,3.706406 -0.77576,5.344121 -0.48844,1.608984 -1.23546,3.002475 -2.24108,4.180482 -0.97687,1.149272 -2.19798,2.039961 -3.66331,2.67206 -1.46532,0.6321 -3.17486,0.933784 -5.12863,0.905053 h -0.0431 c -2.15488,0.02873 -3.97936,-0.316051 -5.47341,-1.034346 -1.49406,-0.689564 -2.71516,-1.637714 -3.66331,-2.844451 -0.94815,-1.235468 -1.63772,-2.64333 -2.06869,-4.22358 -0.43098,-1.608984 -0.64647,-3.275429 -0.64647,-4.999339 z m 131.27575,0 h 7.6714 v 19.221601 c 0,0.77576 0.0718,1.522789 0.21549,2.241083 0.17238,0.689564 0.43097,1.3073 0.77576,1.853203 0.34478,0.517173 0.79012,0.933784 1.33603,1.249835 0.51717,0.316052 1.14927,0.474075 1.8963,0.474075 0.74702,0 1.37912,-0.158023 1.8963,-0.474075 0.51717,-0.316051 0.94815,-0.732662 1.29293,-1.249835 0.34479,-0.545903 0.60337,-1.163639 0.77576,-1.853203 0.14366,-0.718294 0.21549,-1.465323 0.21549,-2.241083 v -19.221601 h 7.6283 v 19.781872 c 0,1.925032 -0.25858,3.706406 -0.77576,5.344121 -0.48844,1.608984 -1.23547,3.002475 -2.24108,4.180482 -0.97688,1.149272 -2.19798,2.039961 -3.66331,2.67206 -1.46532,0.6321 -3.17487,0.933784 -5.12863,0.905053 h -0.0431 c -2.15488,0.02873 -3.97935,-0.316051 -5.47341,-1.034346 -1.49406,-0.689564 -2.71517,-1.637714 -3.66331,-2.844451 -0.94816,-1.235468 -1.63772,-2.64333 -2.06869,-4.22358 -0.43099,-1.608984 -0.64647,-3.275429 -0.64647,-4.999339 z m -237.2531171,0.0431 h 9.9986781 0.0431 c 1.86757,0 3.433456,0.28732 4.697655,0.86196 1.235471,0.57464 2.226719,1.3504 2.973744,2.32728 0.77576,0.94815 1.321667,2.05432 1.637715,3.31852 0.316051,1.29294 0.474075,2.64333 0.474075,4.05119 0,1.46532 -0.244219,2.772624 -0.732662,3.921896 -0.488442,1.149276 -1.063076,2.126157 -1.72391,2.930647 -0.66083,0.747029 -1.321663,1.321664 -1.982496,1.72391 -0.689564,0.402247 -1.221101,0.603369 -1.594617,0.603369 3.332894,6.550858 5.55961,10.918098 6.680151,13.101716 H 19.90379 c -2.212353,-5.344121 -3.677676,-8.906867 -4.395971,-10.688242 h -0.129293 v 10.688242 H 7.9657129 Z m 25.6000641,0 h 20.126649 v 7.41282 H 40.97859 v 5.301019 h 9.395309 v 7.412813 H 40.97859 v 5.301023 h 12.713836 v 7.412813 H 33.565777 Z m 35.684937,0 c 1.608984,0 3.03121,0.22985 4.266677,0.68957 1.206737,0.4597 2.22672,1.03434 3.059941,1.72391 0.861955,0.7183 1.522788,1.52278 1.982496,2.41347 0.488443,0.91942 0.80449,1.81011 0.948151,2.67206 -2.901917,1.14927 -5.071168,2.01123 -6.507761,2.58587 -0.0862,-0.34479 -0.215488,-0.70394 -0.387879,-1.07745 -0.172391,-0.40224 -0.416611,-0.77576 -0.732662,-1.12054 -0.316048,-0.34478 -0.689564,-0.6321 -1.120542,-0.86195 -0.402246,-0.22986 -0.890685,-0.34479 -1.465323,-0.34479 -0.574635,0 -1.106175,0.18676 -1.594617,0.56027 -0.488442,0.34479 -0.732662,0.89069 -0.732662,1.63772 0,0.5459 0.229856,1.03434 0.689564,1.46532 0.459712,0.43098 1.16364,1.00562 2.11179,1.72391 1.379128,0.747031 2.686428,1.508424 3.921895,2.284183 1.264202,0.77576 2.370377,1.637715 3.318527,2.585865 0.976881,0.976881 1.767008,2.083059 2.370376,3.318527 0.574638,1.206737 0.861955,2.657693 0.861955,4.352873 v 0.603368 c -0.05746,1.063077 -0.359149,2.054329 -0.905052,2.973745 -0.545904,0.91942 -1.3073,1.738277 -2.284181,2.456572 -0.91942,0.660833 -2.054325,1.19237 -3.404722,1.594617 -1.379128,0.402246 -2.91628,0.603368 -4.61146,0.603368 -1.321663,0 -2.557134,-0.172391 -3.706406,-0.517173 -1.178007,-0.373513 -2.241083,-0.876322 -3.189234,-1.508421 -0.919416,-0.660834 -1.72391,-1.450957 -2.413474,-2.370376 -0.66083,-0.919417 -1.134908,-1.96813 -1.422226,-3.146136 3.131769,-1.321663 5.487782,-2.312912 7.068032,-2.973745 -0.05746,0.02873 0.01437,0.244219 0.215488,0.646466 0.172391,0.373513 0.445345,0.77576 0.818858,1.206737 0.344782,0.430978 0.775759,0.80449 1.292932,1.120542 0.517173,0.344782 1.063077,0.474075 1.637715,0.387879 0.517173,-0.05746 1.019979,-0.272953 1.508421,-0.646466 0.459708,-0.402247 0.675197,-1.005615 0.646466,-1.810105 -0.02873,-0.517173 -0.215489,-0.976881 -0.560271,-1.379128 -0.373512,-0.430978 -0.905052,-0.890686 -1.594616,-1.379128 -1.494055,-1.005616 -2.88755,-1.881934 -4.180482,-2.628963 -1.264199,-0.747029 -2.384744,-1.522788 -3.361625,-2.327279 -0.94815,-0.833224 -1.695179,-1.767007 -2.241083,-2.801353 -0.545903,-1.034349 -0.818857,-2.327279 -0.818857,-3.878799 0,-1.43659 0.301684,-2.70079 0.905053,-3.7926 0.574638,-1.09181 1.350397,-2.01123 2.327278,-2.75826 0.976881,-0.71829 2.097423,-1.27856 3.361625,-1.68081 1.264202,-0.37349 2.571501,-0.57461 3.921895,-0.60337 z m 28.013538,0 h 0.0431 c 1.723906,0 3.361618,0.34478 4.913138,1.03435 1.55153,0.66083 2.93065,1.62335 4.13739,2.88755 1.06308,1.12054 1.8532,2.38474 2.37037,3.7926 0.54589,1.40786 0.8332,2.87318 0.86196,4.39597 v 7.6714 c 0,1.580253 -0.24422,3.189233 -0.73266,4.826948 -0.48845,1.637714 -1.32167,3.074307 -2.49967,4.309775 -1.20674,1.292932 -2.58586,2.269813 -4.13739,2.930647 -1.55152,0.689564 -3.189232,1.034346 -4.913138,1.034346 h -0.0431 c -1.695176,0 -3.318523,-0.344782 -4.870046,-1.034346 -1.551512,-0.660834 -2.945007,-1.623348 -4.180482,-2.887549 -1.149275,-1.235468 -1.968129,-2.628963 -2.456571,-4.180482 -0.488439,-1.58025 -0.747029,-3.246699 -0.77576,-4.999339 v -7.6714 c 0,-1.40786 0.287321,-2.84445 0.861955,-4.30977 0.545911,-1.46533 1.336034,-2.75826 2.370376,-3.8788 1.235475,-1.2642 2.614603,-2.22672 4.137384,-2.88755 1.551523,-0.68957 3.189237,-1.03435 4.913144,-1.03435 z m 45.338838,0 h 9.99867 0.0431 c 1.86757,0 3.43345,0.28732 4.69766,0.86196 1.23546,0.57464 2.22671,1.3504 2.97374,2.32728 0.77576,0.94815 1.32167,2.05432 1.63772,3.31852 0.31604,1.29294 0.47407,2.64333 0.47407,4.05119 0,1.46532 -0.24422,2.772624 -0.73266,3.921896 -0.48844,1.149276 -1.06308,2.126157 -1.72391,2.930647 -0.66083,0.747029 -1.32166,1.321664 -1.9825,1.72391 -0.68956,0.402247 -1.2211,0.603369 -1.59461,0.603369 3.33289,6.550858 5.5596,10.918098 6.68015,13.101716 h -8.53336 c -2.21235,-5.344121 -3.67767,-8.906867 -4.39597,-10.688242 h -0.12929 v 10.688242 h -7.41281 z m 37.32265,0 h 0.0431 c 1.78137,0 3.31852,0.25859 4.61145,0.77576 1.29294,0.48844 2.39911,1.13491 3.31853,1.9394 0.94816,0.77576 1.70955,1.66645 2.28418,2.67206 0.57464,1.00562 1.01998,2.01123 1.33603,3.01684 -2.84444,1.58025 -4.9706,2.77263 -6.37846,3.57712 -0.20113,-0.54591 -0.44535,-1.09181 -0.73267,-1.63772 -0.31604,-0.57463 -0.68956,-1.07744 -1.12054,-1.50842 -0.45971,-0.43098 -0.96252,-0.79013 -1.50842,-1.07744 -0.57464,-0.25859 -1.16364,-0.37351 -1.76701,-0.34478 -1.49406,0.11492 -2.70079,0.71829 -3.62021,1.8101 -0.89068,1.06308 -1.33603,2.39911 -1.33603,4.008092 v 6.421564 c 0,1.608984 0.45971,2.973745 1.37913,4.094287 0.91943,1.091811 2.12616,1.695179 3.62021,1.810105 1.2642,0.0862 2.31292,-0.229856 3.14614,-0.94815 0.83322,-0.747029 1.47969,-1.637715 1.9394,-2.672061 2.84445,1.580253 4.97061,2.772623 6.37846,3.577113 -0.25858,0.517173 -0.6321,1.192374 -1.12054,2.025595 -0.48844,0.833224 -1.17801,1.637714 -2.06869,2.413474 -0.86196,0.804493 -1.9825,1.494057 -3.36163,2.068692 -1.37912,0.574638 -3.05994,0.861955 -5.04243,0.861955 h -0.0431 c -2.24108,0 -4.12302,-0.359149 -5.64581,-1.077444 -1.52279,-0.689564 -2.75826,-1.623347 -3.7064,-2.801354 -0.94816,-1.206737 -1.63772,-2.600228 -2.06869,-4.180482 -0.45973,-1.580249 -0.73268,-3.217964 -0.81886,-4.913143 v -6.809445 c 0.0287,-1.608988 0.30168,-3.203598 0.81886,-4.783848 0.51717,-1.58025 1.27856,-2.98811 2.28418,-4.22358 1.03434,-1.23547 2.3129,-2.22672 3.8357,-2.97375 1.52278,-0.74703 3.30416,-1.12054 5.34412,-1.12054 z m 16.20475,0 h 20.12665 v 7.41282 H 203.5433 v 5.301019 h 9.39531 v 7.412813 h -9.39531 v 5.301023 h 12.71384 v 7.412813 h -20.12665 z m 24.56572,0 h 20.12665 v 7.41282 h -12.71384 v 5.301019 h 9.35221 v 7.412813 h -9.35221 v 12.713836 h -7.41281 z m 53.6567,0 h 7.41281 v 25.427675 h 8.74885 v 7.412813 H 274.35291 Z M 52.916667,-63.62315 v 46.157691 h 35.641839 12.498344 25.51387 29.00479 28.35832 12.36905 24.78121 0.64647 23.61756 V -63.62315 h -23.61756 -0.64647 -24.78121 -12.36905 -28.35832 -29.00479 -25.51387 -12.498344 z m 3.706406,6.464663 h 7.542107 c 3.390355,9.538966 5.660172,15.90307 6.809444,19.092303 3.419089,-9.538966 5.688903,-15.90307 6.809445,-19.092303 h 7.412813 v 32.840486 h -7.843791 v -11.464002 c -2.011227,5.717634 -3.347257,9.53897 -4.008091,11.464002 h -4.78385 c -2.039958,-5.918759 -3.404722,-9.855018 -4.094286,-11.808784 v 11.808784 h -7.843791 z m 34.004125,0 h 7.412813 v 32.840486 h -7.412813 z m 22.324632,0 c 1.60898,0 3.03122,0.229856 4.26668,0.689564 1.20674,0.459711 2.22672,1.034346 3.05994,1.72391 0.86196,0.718295 1.5228,1.522788 1.9825,2.413474 0.48844,0.91942 0.80448,1.810105 0.94815,2.67206 -2.90192,1.149273 -5.07118,2.011228 -6.50776,2.585865 -0.0862,-0.344782 -0.21549,-0.703931 -0.38788,-1.077443 -0.17239,-0.402247 -0.41661,-0.77576 -0.73266,-1.120542 -0.31605,-0.344782 -0.68957,-0.632099 -1.12055,-0.861955 -0.40224,-0.229856 -0.89068,-0.344782 -1.46532,-0.344782 -0.57464,0 -1.10617,0.186758 -1.59462,0.560271 -0.48844,0.344782 -0.73266,0.890686 -0.73266,1.637714 0,0.545904 0.22985,1.034346 0.68957,1.465324 0.4597,0.430977 1.16363,1.005615 2.11179,1.72391 1.37912,0.747029 2.68642,1.508421 3.92189,2.284181 1.2642,0.775759 2.37037,1.637714 3.31853,2.585865 0.97688,0.976881 1.76701,2.083059 2.37037,3.318527 0.57464,1.206737 0.86196,2.657693 0.86196,4.352872 v 0.603369 c -0.0575,1.063077 -0.35915,2.054328 -0.90505,2.973745 -0.54591,0.919419 -1.3073,1.738277 -2.28418,2.456571 -0.91942,0.660834 -2.05433,1.19237 -3.40473,1.594617 -1.37912,0.402247 -2.91628,0.603369 -4.61146,0.603369 -1.32166,0 -2.55713,-0.172391 -3.7064,-0.517173 -1.17801,-0.373513 -2.24108,-0.876322 -3.18924,-1.508422 -0.91941,-0.660833 -1.72391,-1.450956 -2.41347,-2.370376 -0.66083,-0.919416 -1.1349,-1.968129 -1.42223,-3.146136 3.13178,-1.321663 5.48779,-2.312911 7.06804,-2.973744 -0.0575,0.02873 0.0144,0.244219 0.21548,0.646466 0.1724,0.373513 0.44536,0.775759 0.81886,1.206737 0.34479,0.430977 0.77576,0.80449 1.29293,1.120541 0.51718,0.344782 1.06308,0.474076 1.63772,0.38788 0.51717,-0.05747 1.01998,-0.272953 1.50842,-0.646466 0.45974,-0.402247 0.67522,-1.005615 0.64647,-1.810106 -0.0287,-0.517173 -0.2155,-0.976881 -0.56027,-1.379128 -0.37352,-0.430977 -0.90506,-0.890685 -1.59462,-1.379128 -1.49406,-1.005615 -2.88755,-1.881934 -4.18048,-2.628962 -1.26421,-0.747026 -2.38474,-1.522785 -3.36163,-2.327279 -0.94815,-0.833224 -1.69518,-1.767008 -2.24108,-2.801354 -0.54591,-1.034346 -0.81886,-2.327278 -0.81886,-3.878797 0,-1.436593 0.30168,-2.700792 0.90505,-3.792602 0.57464,-1.091811 1.3504,-2.011228 2.32728,-2.758256 0.97689,-0.718295 2.09743,-1.278566 3.36163,-1.680813 1.2642,-0.373516 2.5715,-0.574637 3.92189,-0.603368 z m 27.66876,0 h 0.0431 c 1.78137,0 3.31853,0.258586 4.61146,0.775759 1.29293,0.488443 2.3991,1.134909 3.31852,1.939399 0.94815,0.77576 1.70955,1.666445 2.28418,2.672061 0.57464,1.005615 1.01999,2.011227 1.33603,3.016842 -2.84445,1.58025 -4.9706,2.772623 -6.37846,3.577113 -0.20112,-0.545903 -0.44534,-1.091807 -0.73267,-1.637714 -0.31604,-0.574634 -0.68955,-1.077444 -1.12054,-1.508421 -0.4597,-0.430978 -0.96251,-0.790127 -1.50842,-1.077444 -0.57464,-0.258583 -1.16364,-0.373509 -1.76701,-0.344782 -1.49405,0.11493 -2.70079,0.718298 -3.62021,1.810105 -0.89068,1.063077 -1.33603,2.399111 -1.33603,4.008091 v 6.421565 c 0,1.608984 0.45971,2.973745 1.37913,4.094286 0.91942,1.091811 2.12615,1.69518 3.62021,1.810106 1.2642,0.0862 2.31291,-0.229856 3.14614,-0.948151 0.83322,-0.747028 1.47969,-1.637714 1.9394,-2.67206 2.84445,1.580253 4.97061,2.772623 6.37846,3.577113 -0.25858,0.517173 -0.6321,1.192374 -1.12054,2.025594 -0.48844,0.833225 -1.178,1.637715 -2.06869,2.413474 -0.86195,0.804494 -1.9825,1.494058 -3.36162,2.068692 -1.37913,0.574638 -3.05994,0.861955 -5.04244,0.861955 h -0.0431 c -2.24107,0 -4.12301,-0.359149 -5.6458,-1.077443 -1.52279,-0.689564 -2.75826,-1.623348 -3.70641,-2.801354 -0.94814,-1.206737 -1.63771,-2.600232 -2.06869,-4.180482 -0.45972,-1.58025 -0.73268,-3.217964 -0.81886,-4.913143 v -6.809445 c 0.0287,-1.60898 0.30169,-3.203597 0.81886,-4.78385 0.51717,-1.58025 1.27856,-2.988112 2.28418,-4.22358 1.03434,-1.235468 2.31291,-2.226716 3.8357,-2.973745 1.52278,-0.747025 3.30416,-1.120541 5.34412,-1.120541 z m 16.11856,0 h 7.41281 v 12.713836 h 8.79194 v -12.713836 h 7.41281 v 32.840486 h -7.41281 v -12.713837 h -8.79194 v 12.713837 h -7.41281 z m 29.13408,0 h 7.41281 v 32.840486 h -7.41281 z m 12.84313,0 h 20.12665 v 7.412813 h -12.71384 v 5.301023 h 9.39531 v 7.412813 h -9.39531 v 5.301024 h 12.71384 v 7.412813 h -20.12665 z m 24.56571,0 h 20.12665 v 7.412813 h -12.71383 v 5.301023 h 9.35221 v 7.412813 h -9.35221 v 12.713837 h -7.41282 z"
         id="path920"
         inkscape:connector-curvature="0" />
    </g>
  </g>
</svg>
