<?xml version="1.0" encoding="UTF-8" standalone="no"?>
<svg xmlns:svg="http://www.w3.org/2000/svg" xmlns="http://www.w3.org/2000/svg"
     version="1.1" width="575px" height="575px" viewBox="-2 -2 579 579">
    <defs />
    <g transform="translate(-107.73,-241.82)">
		<circle cx="396" cy="529" r="285" style="fill:#ffffff; stroke:#000000; stroke-width:1;" />
		<circle cx="396" cy="529" r="281" style="fill:#004488; stroke:none;" />
    </g>
    <g
         transform="translate(830.61,0)"
         id="g10"
         style="fill:#ffffff">
        <path
             d="M -603.16,177.97 C -624.51,177.97 -638.88,188.27 -638.85,203.56 -638.83,209.59 -654.06,246.08 -678.94,299.72 -720.83,390.01 -722.32,395.25 -709.82,406.56 -706.9,409.2 -700.33,412.16 -695.22,413.19 -680.61,416.11 -671.88,405.47 -649.66,357.65 L -629.69,314.65 -629.66,348.81 C -629.65,378.29 -628.81,384 -623.5,390.75 -620.13,395.04 -617.38,399.85 -617.38,401.4 -617.38,402.96 -622.9,422.68 -629.66,445.22 -642.37,487.61 -643.71,494.34 -639.41,494.34 -638.01,494.34 -630.59,473.26 -622.94,447.5 L -609.04,400.65 -584.04,399.78 C -570.28,399.29 -559.01,399.83 -559.01,401 -559.01,402.17 -565.93,426.22 -574.38,454.44 -590.36,507.82 -591.42,512.78 -587.1,512.78 -585.66,512.78 -576.93,487.55 -567.69,456.72 -552.09,404.64 -550.38,400.66 -543.66,400.66 -536.95,400.66 -535.25,404.65 -519.82,455.97 -510.67,486.38 -502.61,511.83 -501.91,512.53 -501.21,513.23 -499.71,512.89 -498.57,511.75 -497.43,510.61 -503.64,485.65 -512.38,456.31 -521.12,426.97 -528.29,402.06 -528.29,400.94 -528.29,399.81 -517.05,399.29 -503.29,399.78 L -478.26,400.65 -464.35,447.5 C -456.7,473.26 -449.28,494.34 -447.88,494.34 -443.58,494.34 -444.92,487.61 -457.63,445.22 -464.39,422.68 -469.91,403.09 -469.91,401.69 -469.91,400.28 -467.17,396.38 -463.79,393 -458.41,387.62 -457.61,382.54 -457.38,352.28 L -457.1,317.72 -436.07,361.31 C -413.32,408.43 -406.21,416.51 -390.51,413.06 -378.27,410.37 -370.37,400.86 -370.54,389 -370.62,383.04 -385.96,346.66 -409.54,296.56 -434.55,243.41 -448.41,210.37 -448.41,203.91 -448.41,188.2 -462.59,177.97 -484.29,177.97 -502.03,177.97 -517.85,184.61 -520.6,193.22 -521.43,195.81 -526.95,201.78 -532.88,206.5 L -543.66,215.09 -554.41,206.5 C -560.34,201.78 -565.99,195.51 -566.94,192.53 -569.65,184.06 -584.79,177.97 -603.16,177.97 z M -456.1,216.34 -444.16,240.94 C -403.92,323.76 -377.76,382.27 -377.76,389.53 -377.76,394.13 -379.42,399.56 -381.44,401.59 -386.28,406.43 -403.8,406.33 -407.79,401.43 -409.51,399.32 -421.46,374.86 -434.35,347.09 L -457.82,296.59 -456.94,256.47 -456.1,216.34 z M -632.16,219.44 C -630.63,219.69 -629.66,234.07 -629.66,257 V 297.31 L -652.94,347.41 C -665.74,374.97 -677.64,399.28 -679.41,401.41 -684.57,407.62 -702.65,406.24 -706.35,399.34 -708.1,396.08 -709.54,390.85 -709.54,387.75 -709.54,381.96 -637.53,224.85 -632.47,219.59 -632.37,219.48 -632.26,219.42 -632.16,219.43 z"
             id="path12" />
        <path
             d="M -544.69,64.219 C -553.83,64.288 -562.79,66.112 -570,69.813 -616.54,93.673 -616.4,155.02 -569.75,179.28 -556.79,186.02 -530.64,185.44 -516.25,178.1 -475.13,157.11 -471.07,103.26 -508.44,74.755 -517.6,67.765 -531.33,64.123 -544.69,64.224 z M -542.03,71 C -534.12,71.125 -526.29,72.923 -519.22,76.531 -480.84,96.111 -480.84,152.3 -519.22,171.88 -534.2,179.52 -554.11,179.45 -568.75,171.72 -587.58,161.77 -597.86,149.25 -597.86,124.22 -597.86,106.44 -593.04,100.89 -586.94,92.344 -577.03,78.451 -559.42,70.725 -542.03,71 z"
             id="path14" />
    </g>
</svg>
