<?xml version="1.0" encoding="UTF-8" standalone="no"?>
<svg xmlns:svg="http://www.w3.org/2000/svg" xmlns="http://www.w3.org/2000/svg"
     version="1.1" width="575px" height="575px" viewBox="-10 -10 1536 1536">
    <defs />
	<circle cx="758" cy="758" r="765" style="fill:#ffffff; stroke:#000000; stroke-width:4;" />
    <g
         transform="translate(328,135)"
         id="layer1">
        <path
             d="M 411.43,1387.5 C 216.55,1382.9 30.694,1303.1 -107.91,1164.7 -213.68,1059.1 -286.76,923.3 -315.93,778.15 -326.44,725.84 -330.77,681.54 -330.77,626.15 -330.77,586.44 -329.25,562.14 -324.5,525.68 -309.43,410.11 -267.43,299.2 -201.79,201.65 -153.89,130.47 -95.598,68.932 -27.571,17.737 76.651,-60.698 198.3,-110.86 326.43,-128.24 364.86,-133.45 389.02,-135.03 430.43,-135.03 471.84,-135.03 496,-133.45 534.43,-128.24 769.01,-96.423 976,44.226 1093.7,251.81 1145.6,343.31 1178.3,446.66 1188.4,551.65 1192.9,598.96 1192.9,653.34 1188.4,700.65 1176.3,825.71 1133.2,945.84 1062.6,1050.6 975.63,1180 852.55,1278.7 707.43,1335.7 614.74,1372 512.66,1389.9 411.43,1387.5 z M 487.93,1255.7 C 519.26,1252.9 543.06,1249.6 550.15,1247.1 553.19,1246 553.2,1246 553.94,1236.3 554.35,1231 554.51,1136.4 554.31,1026.1 553.95,835.94 554.02,825.48 555.7,822.41 557.92,818.34 562.1,816.15 567.66,816.15 572.86,816.15 575.6,817.89 577.85,822.62 579.41,825.9 579.52,841.28 579.45,1033.2 579.41,1165.4 579.73,1240.1 580.35,1240.1 583.22,1240.1 615.31,1231.2 630.43,1226.2 682.45,1209 730.28,1185.3 780.43,1151.9 832.7,1117 863.28,1090.1 906.68,1040.5 929.07,1014.9 943.6,996.51 947.84,988.32 949.25,985.59 949.43,976.47 949.43,905.67 949.43,820.06 949.35,821.42 954.55,817.78 957.26,815.88 964.21,815.64 967.91,817.32 969.32,817.96 971.48,820.1 972.7,822.07 L 974.93,825.65 974.64,884.15 C 974.48,917.04 974.74,943.22 975.24,943.96 976.33,945.57 981.33,937.37 990.69,918.65 1025.7,848.66 1042.3,798.07 1054.4,725.15 1059.1,696.64 1062.2,667.22 1060.7,664.71 1060.3,664 1055,658.82 1048.9,653.2 1036.8,641.91 1016.3,627.61 1002.1,620.48 977.23,607.99 946.37,599.26 919.93,597.24 900.14,595.72 630.06,595.55 614.93,597.05 580.73,600.43 550.13,608.16 529.47,618.63 512.88,627.04 490.68,642.7 476.28,656.15 439.65,690.38 416.98,735.73 409.28,790.15 408.38,796.5 407.99,856.3 407.72,1027.1 407.52,1152.7 407.61,1256.2 407.92,1257 408.4,1258.2 412.9,1258.4 439.7,1257.8 456.88,1257.5 478.58,1256.6 487.93,1255.7 z M -135.07,658.99 C -125.11,657.5 -112.3,653.03 -99.301,646.51 -83.364,638.52 -71.92,634.32 -58.627,631.61 -40.733,627.95 -24.516,626.8 -9.6435,628.15 11.553,630.06 21.306,632.63 54.929,645.18 80.885,654.86 90.277,657.61 104.66,659.74 131.9,663.76 163.6,657.65 198.48,641.65 212.89,635.05 227.34,630.04 239.43,627.46 252.35,624.71 283.29,624.96 297,627.93 309.55,630.65 326.7,636.47 340.43,642.66 362.8,652.74 372.74,655.08 396.43,655.83 415.82,656.44 420.37,655.75 425.54,651.4 430.07,647.59 432.54,641.28 433.19,631.85 433.7,624.4 433.61,623.87 431.93,624.51 426.06,626.76 410.6,628.54 396.93,628.54 375.05,628.53 362.17,625.52 338.17,614.78 321.3,607.24 312.18,604.08 298.24,600.96 289.32,598.96 285.3,598.66 268.43,598.71 241.98,598.79 236.37,600.15 194.43,616.67 157.41,631.25 147.82,633.57 124.43,633.6 104.42,633.62 98.016,632.41 73.429,623.97 63.804,620.66 48.279,615.32 38.929,612.1 13.407,603.31 0.14491,600.85 -22.071,600.78 -50.96,600.69 -65.798,603.93 -90.234,615.65 -127.76,633.65 -142.9,636.27 -176.58,630.58 -184.93,629.17 -191.93,628.17 -192.12,628.37 -193.04,629.29 -189.14,642.44 -186.25,648.18 -183.55,653.53 -182.22,655.03 -178.53,656.86 -170.2,661 -153.84,661.8 -135.07,658.99 z M -131.83,599.18 C -121.5,596.68 -110.03,592.25 -92.009,583.83 -68.344,572.76 -52.147,569.16 -25.856,569.15 2.3887,569.14 20.351,572.93 58.429,586.94 71.904,591.9 87.879,597.23 93.929,598.78 103.88,601.33 106.55,601.6 121.93,601.6 136.04,601.6 140.72,601.21 149.43,599.28 164.16,596.03 175.82,592.15 196.25,583.69 232.85,568.56 243.73,565.82 267.43,565.78 292.25,565.74 309.11,569.72 336.82,582.16 361.9,593.43 377.83,597.14 401.13,597.14 417.71,597.15 423.54,595.99 426.88,592.02 430.01,588.31 432.35,580.71 433.14,571.73 433.71,565.21 433.64,564.85 431.84,565.55 427.01,567.41 417.03,569.12 407.43,569.73 387.33,571 364.6,566.93 344.6,558.48 318.65,547.52 314.54,545.9 307.93,544.09 296.46,540.94 281.78,539.16 267.31,539.15 243.79,539.14 231.83,542.12 192.93,557.66 156.58,572.17 139.67,576.09 118.56,574.87 101.79,573.91 92.939,571.55 46.929,555.79 32.797,550.94 16.277,546.03 8.9286,544.48 -2.726,542.02 -6.1413,541.74 -24.071,541.72 -41.242,541.7 -45.557,542.02 -54.571,543.99 -69.74,547.3 -78,550.28 -96.571,559.15 -114.99,567.95 -124.51,571.35 -135.94,573.19 -145.9,574.8 -162.23,573.99 -178.83,571.08 -185.85,569.85 -191.78,569.03 -192.01,569.26 -192.92,570.17 -189.44,583.47 -187.06,588.16 -183,596.17 -177.9,599.09 -163.57,601.58 -158.31,602.49 -139.72,601.09 -131.83,599.18 z M 153.21,550.66 C 165.1,548.2 182.43,543.12 185.36,541.23 186.88,540.25 187.16,541.39 171.93,486.29 168.84,475.1 166.59,465.65 166.94,465.31 167.28,464.96 173.27,466.19 180.25,468.03 247.01,485.7 253.76,486.96 263.59,483.61 269.64,481.55 275.9,475.18 278.37,468.57 281.64,459.82 289.65,429.6 302.9,375.97 316.84,319.57 317.38,315.89 313.07,306.63 308.28,296.34 299.71,290.82 288.43,290.75 284.85,290.73 280.17,291.32 278.01,292.06 273.15,293.74 265.9,300.31 263.31,305.38 260.99,309.92 256.6,325.7 249.44,355.15 246.57,366.97 241.6,387 238.39,399.65 L 232.55,422.65 229.74,422.35 C 227.11,422.08 189.26,412.45 146.14,401.08 123.61,395.14 115.67,393.89 108.3,395.09 102.42,396.04 60.501,407.94 51.325,411.26 48.243,412.37 44.101,414.62 42.121,416.25 40.141,417.88 32.087,427.34 24.225,437.27 16.362,447.2 2.3665,464.85 -6.876,476.49 -30.115,505.75 -40.572,519.26 -40.571,520.01 -40.571,520.36 -32.808,520.69 -23.321,520.73 -7.8424,520.81 -4.5922,521.14 8.3366,523.98 16.261,525.72 23.321,527.15 24.026,527.15 24.73,527.15 28.667,522.86 32.774,517.62 L 40.24,508.09 41.818,512.37 C 42.685,514.72 44.492,520.85 45.833,525.99 47.174,531.12 48.481,535.53 48.737,535.79 48.992,536.05 55.89,538.66 64.065,541.6 80.126,547.37 95.808,551.58 106.93,553.09 118.31,554.63 139.29,553.53 153.21,550.66 z M 787.53,534.69 C 814.47,529.99 839.43,518.06 858.56,500.75 865.07,494.86 877.42,480.92 882.59,473.65 891.5,461.08 898.7,443.95 902.57,426.1 905.83,411.09 905.87,381.26 902.65,366.81 895.98,336.85 885.04,316.6 864.49,296.13 836.16,267.91 803.63,254 765.93,254 742.12,253.99 720.87,258.78 702.11,268.38 682.81,278.25 672.27,286.25 659.11,301.01 642.45,319.69 631.54,341.16 625.89,366.4 623.32,377.89 622.8,405.42 624.91,418.21 632.38,463.42 660.3,501.25 701.18,521.57 728.91,535.36 758.18,539.81 787.54,534.69 z M 410.53,462.65 C 409.91,450 409.16,436.93 408.86,433.6 L 408.31,427.55 443.62,425.81 C 477.47,424.15 513.81,422.29 553.43,420.2 563.6,419.66 578.38,418.92 586.25,418.55 L 600.58,417.88 600.03,413.27 C 599.73,410.73 599.18,400.83 598.82,391.28 L 598.16,373.91 585.05,374.56 C 577.83,374.93 563.6,375.66 553.43,376.2 531.33,377.38 467.86,380.58 432.7,382.3 418.83,382.98 407.22,383.28 406.91,382.96 406.6,382.65 405.6,368.61 404.7,351.77 403.8,334.93 402.8,321.18 402.49,321.23 401.89,321.32 368.15,358.25 352.49,375.97 347.3,381.84 338.39,391.76 332.69,398.01 327,404.25 322.47,409.69 322.63,410.09 322.93,410.82 360.57,445.03 393.43,474.43 408.59,488 410.98,489.8 411.3,487.87 411.5,486.65 411.15,475.3 410.53,462.65 z M 75.557,380.1 C 88.997,375.58 100.06,365.77 106.49,352.68 117.14,331.01 113.38,307.25 96.599,290.19 86.119,279.54 73.523,274.15 59.141,274.15 49.436,274.15 41.009,276.23 32.376,280.75 7.2658,293.92 -3.3616,326.36 8.9929,352.14 20.285,375.71 50.695,388.48 75.557,380.1 z"
             id="path7764"
             style="fill:#004488;fill-opacity:1" />
    </g>
</svg>
