<?xml version="1.0" encoding="UTF-8" standalone="no"?>
<svg xmlns:svg="http://www.w3.org/2000/svg" xmlns="http://www.w3.org/2000/svg"
     version="1.1" width="575px" height="575px" viewBox="-10 -10 1536 1536">
    <defs />

	<circle cx="758" cy="758" r="765" style="fill:#ffffff; stroke:#000000; stroke-width:4;" />
    <g  transform="translate(362,157.89)"
         id="layer1">
        <path
             d="M 377.14,1364.6 C 182.16,1360 -4.0652,1280.1 -142.4,1141.6 -227.23,1056.8 -290.57,953.75 -327.72,840.29 -347.84,778.83 -358.83,721.65 -363.95,651.79 -365.37,632.45 -365.37,574.13 -363.95,554.79 -357.32,464.34 -339.89,389.92 -306.28,308.5 -297.64,287.6 -274.32,240.81 -262.3,220.29 -210.91,132.57 -142.31,55.43 -61.857,-5.1204 42.365,-83.556 164.01,-133.72 292.14,-151.1 330.58,-156.31 354.73,-157.89 396.14,-157.89 437.55,-157.89 461.71,-156.31 500.14,-151.1 734.72,-119.28 941.71,21.369 1059.4,228.95 1111.3,320.44 1144,423.82 1154.1,528.79 1158.6,576.1 1158.6,630.48 1154.1,677.79 1142,802.87 1098.9,922.96 1028.4,1027.8 941.34,1157.1 818.27,1255.9 673.14,1312.8 580.45,1349.2 478.38,1367 377.14,1364.6 z M 911.29,911.27 C 921.31,908.48 944.29,875.14 967.08,830.29 993.24,778.85 1010.4,720.54 1017.7,658.29 1019.9,639.93 1020.7,587.35 1019.2,567.28 1012.3,476.07 984.36,395.41 933.11,318.75 921.76,301.76 917.17,296.92 910.77,295.2 902.08,292.85 890.76,298.94 888.25,307.32 886.09,314.55 888.1,319.75 899.64,336.77 914.01,357.96 920.94,369.76 931.6,391.14 959.23,446.53 972.67,491.29 979.7,551.29 981.82,569.38 982.7,617.78 981.24,636.11 976.46,696.24 961.54,754.29 938.51,802.29 925.72,828.98 909.43,856.81 897.43,872.52 891.2,880.68 887.14,888.84 887.16,893.14 887.21,900.76 892.56,908.25 899.8,910.83 904.48,912.5 906.56,912.58 911.29,911.27 z M 832.72,835.71 C 836.67,833.15 845.67,820.41 856.58,801.96 874.46,771.7 891.27,727.86 900.17,688.29 911.28,638.9 912.51,582.27 903.52,533.29 896.32,494.06 885.66,462.39 866.67,423.79 854.83,399.71 838.45,373.88 832.83,370.4 823.25,364.49 809.38,372.35 810.47,383.08 811.03,388.59 815.23,396.97 824.5,411.06 850.42,450.47 868.93,503 876.1,557.49 882.51,606.28 877.85,662.58 863.46,710.23 854.46,740 835.94,779.26 818.9,804.64 809.5,818.65 808.38,822.92 812.18,830.37 816.22,838.28 825.17,840.61 832.72,835.71 z M 695.57,832.89 C 697.45,832.1 699.81,830.2 700.82,828.67 702.57,825.99 702.64,817.2 702.64,603.29 702.64,389.38 702.57,380.59 700.82,377.91 698.26,374.02 693.11,372.17 684.24,371.96 L 676.64,371.79 676.48,389.45 C 676.28,410.71 676.13,411.16 663.88,426.29 637.94,458.36 606.26,480.35 558.89,499.17 471.88,533.74 338.41,552.93 158.14,556.78 144.12,557.08 128.48,557.57 123.39,557.87 L 114.14,558.41 114.14,552.35 114.14,546.29 90.893,546.29 C 78.105,546.28 62.58,545.99 56.393,545.63 L 45.143,544.98 45.143,551.14 45.143,557.29 37.893,557.27 C 31.079,557.25 18.667,555.88 14.993,554.73 14.086,554.45 12.129,551.65 10.645,548.5 5.4267,537.45 -4.9393,522.96 -14.235,513.73 -28.199,499.85 -45.474,489.46 -64.554,483.45 -78.996,478.9 -85.711,477.91 -102.36,477.87 -114.38,477.85 -119.4,478.3 -127.69,480.13 -161.14,487.53 -188.88,506.24 -207.42,533.91 -221.27,554.57 -227.86,576.89 -227.86,603.2 -227.86,624.88 -224.07,641.84 -215.28,659.54 -208.79,672.61 -203.61,679.71 -192.45,690.88 -173.44,709.9 -151.16,721.61 -123.86,726.93 -113.48,728.95 -91.453,729.17 -80.857,727.35 -63.242,724.32 -42.027,715.32 -28.531,705.16 -13.392,693.76 1.5313,676.05 9.6222,659.9 14.174,650.81 14.691,650.58 32.893,649.62 L 45.143,648.98 45.143,654.64 45.143,660.29 76.643,660.44 C 93.968,660.52 109.38,660.64 110.89,660.69 113.58,660.79 113.65,660.65 113.94,654.46 L 114.24,648.14 123.94,648.69 C 129.28,649 144.67,649.5 158.14,649.8 186.52,650.44 221.92,651.84 247.64,653.33 439.03,664.46 559.59,693.4 627.51,744.5 638.21,752.55 662.51,776.94 668.64,785.79 675.71,795.98 676.05,797.4 676.1,816.87 676.12,826.27 676.48,834.31 676.89,834.74 678,835.89 691.61,834.54 695.57,832.89 z M 762.96,766.99 C 768.78,761.54 779.65,740.67 790.56,714.05 799.63,691.89 805.88,667.93 809.79,640.29 812.53,620.94 812.26,580.6 809.27,561.29 805.38,536.18 799.88,515.7 791.11,493.67 782.5,472.02 766.62,442.39 761.48,438.34 755.03,433.27 744.14,438.63 744.14,446.89 744.14,450.89 746.1,455.56 751.33,464.05 762.26,481.8 774.4,511.15 780.11,533.61 796.02,596.2 790.56,660.83 764.61,717.09 762.65,721.33 757.25,731.8 752.6,740.36 742.17,759.56 741.72,763.55 749.46,768.39 753.41,770.86 759.51,770.23 762.96,766.99 z"
             id="path8291"
             style="fill:#004488;fill-opacity:1" />
    </g>
</svg>
