<?xml version="1.0" encoding="UTF-8" standalone="no"?>
<svg xmlns:svg="http://www.w3.org/2000/svg" xmlns="http://www.w3.org/2000/svg" version="1.1"
     width="420px" height="420px" viewBox="-10 -10 420 420">
    <defs id="def1" />
    <circle cx="200" cy="200" r="205" style="fill :#ffffff; stroke :#000000; stroke-width :2;" />
    <path style="fill :#004488; stroke :none;" d="M 182.9,399.6 C 182.68,399.4 179.65,398.94 176.17,398.58 141.72,395.01 101.49,377.92 73.5,354.98 64.967,347.99 48.095,330.67 41.857,322.5 19.729,293.53 5.593,259.2 1.2939,224 0.29794,215.85 0.25911,186.86 1.2314,177.34 3.8485,151.73 14.432,120.67 28.778,96.5 39.158,79.015 61.222,54.268 77.5,41.851 106.36,19.839 143.62,4.6691 177.24,1.2405 186.63,0.28249 214.6,0.28617 223.12,1.2466 257.43,5.1124 293.91,20.02 322.5,41.857 330.99,48.338 348.13,65.148 355.28,74 364.51,85.422 372.54,98.145 379.59,112.5 389.13,131.92 393.62,146.71 398.53,175 399.62,181.24 399.91,214.29 398.94,222 392.99,269.55 372.56,310.88 338.86,343.53 321.84,360.01 307.1,370.26 285.72,380.48 267.05,389.41 251.14,394.22 226,398.55 222.07,399.22 183.52,400.17 182.9,399.6 z M 254,320.93 C 256.48,319.81 260.52,316.93 263,314.52 L 267.5,310.15 273.7,311.79 C 284.86,314.74 295.74,310.72 302.47,301.14 305.24,297.2 305.5,296.14 305.5,288.67 305.5,284.17 305.27,278.02 305,275 L 304.5,269.5 328.33,269 C 350.7,268.53 352.25,268.38 353.63,266.5 355.89,263.4 356.46,259.91 354.89,258.87 354.08,258.34 337,258.13 314,258.37 292.27,258.59 267.98,258.47 260,258.11 243.64,257.35 240.27,256.27 233.68,249.68 220.29,236.29 224.08,214.32 241.38,205.2 L 246.5,202.5 301.99,202.21 357.49,201.92 360.86,198.71 C 374.02,186.2 364.65,164.85 344.45,161.29 336.19,159.84 330.66,161.33 315.22,169.2 301.95,175.96 300.38,177.07 293.87,184.25 L 286.84,192 272.01,192 257.19,192 243.84,180.94 C 236.5,174.85 230.08,169.27 229.56,168.53 228.88,167.54 233.21,161.72 245.82,146.69 L 263.01,126.2 281.75,117.02 C 292.06,111.97 306.69,104.88 314.25,101.26 322.08,97.517 328,94.09 328,93.307 328,91.257 324.96,87 323.49,87 322.79,87 307.66,94.122 289.86,102.83 L 257.5,118.66 236.69,143.33 215.88,168 196.05,168 C 178.88,168 176.13,168.21 175.61,169.58 175.27,170.45 175,174.95 175,179.58 L 175,188 153.75,188 C 129.18,188 126.63,188.63 124.12,195.31 122.84,198.7 122.87,199.5 124.35,202.61 127.1,208.38 129.97,209 153.88,209 L 174.82,209 175.16,224.13 C 175.35,232.44 175.28,242.01 175,245.38 L 174.5,251.5 152.19,251.77 C 127.42,252.07 126.01,252.4 124.01,258.48 122.62,262.68 123.49,266.17 126.66,269.16 129.09,271.44 129.75,271.51 151.83,272 L 174.5,272.5 175,281.67 C 175.28,286.72 175.87,291.22 176.33,291.67 176.79,292.13 184.42,292.73 193.29,293 L 209.43,293.5 215.66,302.5 C 222.79,312.79 230.65,320.55 235.3,321.9 240.95,323.53 249.18,323.1 254,320.93 z M 237.5,311.43 C 235.85,310.57 233.43,308.88 232.13,307.68 229.16,304.96 222,295.4 222,294.17 222,293.67 223.79,293.02 225.98,292.73 229.35,292.28 231.96,290.39 242.73,280.6 L 255.5,269.01 274.69,269.01 C 285.25,269 294.1,269.35 294.36,269.77 294.62,270.19 295.36,275.1 296.01,280.67 297.07,289.75 297.01,291.18 295.45,294.46 292.89,299.86 287.7,303 281.33,303 274.24,303 271.47,301.75 266.42,296.25 264.05,293.67 261.85,291.82 261.53,292.14 261.2,292.46 260.52,295.33 260,298.52 258.92,305.14 256.51,308.34 250.5,311.11 245.59,313.38 241.44,313.48 237.5,311.43 z M 183.69,238.36 C 183.31,237.98 183,234.19 183,229.94 183,223.82 183.33,222.09 184.58,221.61 186.84,220.74 214.28,220.88 215.57,221.77 216.2,222.19 216.62,225.83 216.57,230.5 L 216.5,238.5 200.44,238.77 C 191.61,238.92 184.07,238.74 183.69,238.36 z M 302.6,191.16 C 301.47,189.34 309.17,183.72 321.29,177.51 335.05,170.47 340.36,169.42 347.28,172.38 354.83,175.61 359.04,184.24 355.6,189.48 L 353.95,192 328.54,192 C 314.56,192 302.88,191.62 302.6,191.16 z M 98.8,307.8 C 99.719,306.88 100,281.23 100,198.42 100,106.64 99.787,90.068 98.592,89.077 97.72,88.353 94.395,88.021 89.842,88.204 L 82.5,88.5 82.242,197.5 C 82.101,257.45 82.199,307.06 82.461,307.75 83.097,309.42 97.137,309.46 98.8,307.8 z M 216.5,87.667 C 230.25,79.857 241.5,72.926 241.5,72.265 241.5,71.108 187.8,38 185.93,38 184.84,38 179.05,46.962 179.02,48.686 179.01,49.339 183.95,52.855 190,56.5 196.05,60.145 201,63.544 201,64.052 201,64.597 185.31,65.084 162.75,65.238 L 124.5,65.5 124.5,72 124.5,78.5 161.46,78.763 C 181.79,78.907 198.81,79.407 199.27,79.873 199.74,80.339 195.61,83.275 190.1,86.396 184.58,89.517 179.82,92.49 179.5,93.001 178.83,94.091 182.21,101.07 184.55,103.4 186.02,104.88 186.39,104.88 188.83,103.44 190.3,102.58 202.75,95.477 216.5,87.667 z" />
</svg>
