<?xml version="1.0" encoding="UTF-8" standalone="no"?>
<svg xmlns:svg="http://www.w3.org/2000/svg" xmlns="http://www.w3.org/2000/svg" version="1.1"
     width="420px" height="420px" viewBox="-10 -10 420 420">
    <defs id="def1" />
    <circle cx="200" cy="200" r="205" style="fill :#ffffff; stroke :#000000; stroke-width :2;" />
    <path
         d="M 182.95,399.66 C 182.7,399.43 179.65,398.94 176.17,398.58 141.72,395.01 101.49,377.92 73.5,354.98 64.967,347.99 48.095,330.67 41.857,322.5 19.629,293.4 5.6126,259.36 1.2939,224 0.29794,215.85 0.25911,186.86 1.2314,177.34 4.7722,142.68 20.375,105.1 43.507,75.5 50.565,66.469 68.474,48.743 77.5,41.854 101.7,23.384 131.64,9.6867 160,4.1162 176.3,0.91349 176.4,0.90374 196,0.49278 221.7,-0.04606 239.25,2.4944 262.5,10.119 293.47,20.276 321.7,38.226 345.02,62.598 359.86,78.106 369.57,92.119 379.59,112.5 388.92,131.47 394.14,148.72 398.53,175 399.6,181.45 399.9,214.41 398.95,222 392.98,269.59 372.56,310.88 338.86,343.53 321.84,360.01 307.1,370.26 285.72,380.48 267.04,389.41 251.31,394.17 226,398.55 221.83,399.27 183.6,400.25 182.95,399.66 z M 174.18,359.83 C 178.35,358.58 183.63,353.41 184.5,349.73 184.79,348.5 186.76,333.27 188.88,315.87 191,298.47 193.05,283.73 193.43,283.12 194.31,281.69 205.66,281.65 206.54,283.07 206.9,283.65 208.96,298.62 211.11,316.32 213.27,334.02 215.29,349.32 215.6,350.32 216.75,353.94 222.19,358.97 226.11,360.03 236.07,362.71 246,355.48 246,345.54 246,343.59 244.42,328.86 242.48,312.82 240.54,296.77 239.3,283.31 239.73,282.91 240.15,282.5 241.62,282.02 243,281.83 L 245.5,281.5 246,231.5 246.5,181.5 263,181 279.5,180.5 279.8,177.41 C 279.97,175.68 279.5,173.83 278.73,173.19 277.87,172.47 271.49,171.95 261.51,171.78 L 245.66,171.5 239.79,149.58 C 236.57,137.53 234.29,127.31 234.72,126.88 235.41,126.19 269.49,137.19 270.94,138.58 271.25,138.88 277.83,149.33 285.56,161.81 300.47,185.86 303.27,189 309.75,189 317.91,189 324,182.94 324,174.82 324,170.84 322.37,167.71 308.44,144.94 299.88,130.95 291.43,118.12 289.66,116.43 287.04,113.94 280.99,111.55 257.37,103.64 L 228.31,93.914 198.41,94.214 168.5,94.513 141,103.97 C 119.23,111.46 112.83,114.07 110.3,116.47 107.63,119 82.141,159.11 77.343,168.32 72.437,177.75 79.378,188.99 90.102,189 96.774,189 99.445,186.01 114.2,162.04 121.8,149.69 128.36,139.24 128.78,138.82 129.2,138.4 136.71,135.57 145.47,132.53 160.47,127.32 166.07,126.01 165.95,127.75 165.92,128.16 163.28,138.18 160.08,150 L 154.27,171.5 138.45,171.78 C 128.5,171.95 122.13,172.47 121.27,173.19 120.5,173.83 120.03,175.68 120.2,177.41 L 120.5,180.5 137,181 153.5,181.5 154,231.5 154.5,281.5 157,281.83 C 158.37,282.02 159.84,282.49 160.25,282.88 160.66,283.28 159.42,296.58 157.5,312.44 155.57,328.31 154,343.05 154,345.19 154,353.3 160.73,360.41 168.88,360.91 169.65,360.96 172.03,360.47 174.18,359.83 z M 161.9,351.89 C 158.25,347.99 158.24,348.83 162.82,312 L 166.5,282.5 176.27,282.21 C 184.42,281.97 186.14,282.19 186.64,283.51 186.97,284.37 185.57,299.13 183.52,316.29 179.01,354.03 178.65,355 168.82,355 165.62,355 164.22,354.37 161.9,351.89 z M 224.36,353.54 C 223.21,352.74 221.77,350.82 221.16,349.29 220.07,346.58 213,290.77 213,284.92 L 213,282 222.98,282 C 232.51,282 232.99,282.1 233.48,284.25 234.95,290.65 241.05,345.65 240.53,347.74 239.43,352.13 235.57,355 230.77,355 228.39,355 225.51,354.34 224.36,353.54 z M 84.182,181.5 C 80.753,178.61 80.022,174.76 82.132,170.68 86.732,161.8 113.6,119.75 115.23,118.88 120.08,116.28 164.44,102.04 165.22,102.82 165.7,103.3 165.95,107.4 165.79,111.94 L 165.5,120.19 145.5,126.94 125.5,133.69 111.5,156.33 C 103.8,168.78 96.598,179.86 95.497,180.96 92.062,184.37 87.837,184.58 84.182,181.5 z M 305.13,181.35 C 303.4,179.78 295.8,168.41 288.23,156.08 L 274.47,133.66 254.49,127 234.5,120.34 234.21,112.01 C 234.05,107.43 234.3,103.3 234.78,102.82 235.57,102.03 279.93,116.29 284.78,118.88 287.83,120.51 319,171.72 319,175.1 319,178.74 315.31,182.85 311.38,183.6 308.86,184.08 307.65,183.65 305.13,181.35 z M 178.22,112.27 178.5,99.5 200,99.5 221.5,99.5 221.5,112 221.5,124.5 199.72,124.77 177.94,125.04 178.22,112.27 z M 209.42,85.597 C 214.47,83.486 221.08,77.05 223.28,72.089 229.26,58.616 221.73,41.669 207.94,37.575 201.36,35.621 198.7,35.604 192.39,37.477 179.68,41.25 172.01,54.906 175.36,67.796 177.56,76.297 183.32,82.918 190.84,85.604 195.71,87.343 205.25,87.34 209.42,85.597 z M 192.01,80.469 C 184.5,77.081 180,70.195 180,62.105 180,55.797 181.3,52.364 185.31,48.131 189.51,43.695 193.71,42 200.52,42 206.89,42 210.15,43.42 214.69,48.165 218.73,52.391 220,55.789 220,62.369 220,68.743 216.17,75.498 210.6,78.941 205.82,81.894 196.8,82.635 192.01,80.469 z"
         style="fill:#004488; stroke :none;" />
</svg>
