<?xml version="1.0" encoding="UTF-8" standalone="no"?>
<svg xmlns:svg="http://www.w3.org/2000/svg" xmlns="http://www.w3.org/2000/svg" version="1.1"
     width="420px" height="420px" viewBox="-10 -10 420 420">
    <defs id="def1" />
    <circle cx="200" cy="200" r="205" style="fill :#ffffff;  stroke :#000000; stroke-width :2;" />
    <path style="fill :#004488; stroke :none;" d="M 177,398.49 C 139.44,393.57 108.76,381.25 79,359.16 69.186,351.87 47.884,330.53 40.771,320.86 18.178,290.15 6.3029,260.28 1.4684,222 -1.725,196.72 0.89563,168.05 8.7828,142 18.439,110.1 34.708,83.17 58.944,58.955 92.332,25.597 129.66,7.5739 178,1.4684 200.05,-1.3161 222.55,0.14349 248,6.0084 266.9,10.363 289.98,20.36 309,32.42 324.73,42.397 348.39,64.399 359.23,79.136 381.82,109.85 393.7,139.72 398.53,178 401.73,203.28 399.1,231.95 391.22,258 381.56,289.9 365.29,316.83 341.06,341.04 307.67,374.4 270.34,392.43 222,398.53 208.42,400.25 190.25,400.23 177,398.49 z M 68.539,286.5 C 69.202,284.3 70.955,278.27 72.435,273.09 80.058,246.44 92.223,234.83 120.5,227.23 131.75,224.21 146.2,221.11 152.52,220.37 158.71,219.64 161.82,220.93 172.05,228.45 188.95,240.9 201.99,241.12 222.27,229.31 226.55,226.82 234.42,222.79 239.77,220.36 250.08,215.68 250.22,215.66 261.5,218.18 284.34,223.3 297.35,228.82 306.74,237.39 313.47,243.53 317.94,250.28 321.92,260.29 325.1,268.3 330,285.71 330,289 330,291.64 334.05,291.7 336.42,289.09 337.8,287.57 338.01,286.19 337.47,282.34 334.71,262.75 326.67,243.93 316.45,233.1 305.78,221.79 291.3,215.49 262.26,209.51 260.48,209.15 258.75,208.4 258.41,207.86 258.08,207.32 259.38,204.49 261.31,201.59 265.66,195.03 269.97,186.41 272.93,178.32 274.18,174.92 276.05,171.36 277.1,170.41 279.29,168.42 279.48,166.75 277.82,164.08 276.9,162.61 276.9,161.27 277.82,158.22 278.47,156.05 279,153.38 279,152.29 279,151.2 279.9,149.5 281,148.5 283.28,146.43 283.5,144.77 281.83,142.11 280.95,140.68 280.95,138.56 281.83,133.18 284.59,116.47 281.59,90.752 275.31,77.285 271.76,69.675 259.79,57.739 250.79,52.844 241.93,48.02 227.74,43.406 216,41.528 204.93,39.758 180.47,39.511 172.8,41.092 151.96,45.388 134.91,57.479 124.17,75.592 116.77,88.067 115.56,92.606 115.54,108 115.53,115.42 116.11,126.37 116.84,132.33 118.02,142 118,143.35 116.58,144.91 114.59,147.11 114.6,147.9 116.62,150.13 118.51,152.22 120.99,165.42 119.83,167.25 118.56,169.25 118.88,172.83 120.4,173.7 121.17,174.14 123,178.09 124.47,182.49 128.15,193.48 134.52,205.37 138.69,209.04 140.61,210.72 141.96,212.66 141.69,213.35 141.43,214.06 136.2,215.62 129.92,216.88 88.435,225.22 72.414,238.58 63.563,272.25 60.556,283.68 60.401,286.68 62.688,289.21 65.17,291.95 67.177,291.02 68.539,286.5 z M 189.12,228.85 C 185.19,227.72 182.61,226.17 174.83,220.3 171.72,217.94 164.74,213.96 159.33,211.46 147.23,205.85 142.92,202.93 139.55,198.07 136.52,193.71 129.71,174.88 130.78,173.84 131.18,173.45 135.87,173.02 141.22,172.88 148.88,172.68 151.31,172.96 152.72,174.2 153.7,175.06 156.49,176.77 158.92,177.99 167.72,182.42 178.58,180.45 186.5,173 192.93,166.95 205.63,166.77 211.11,172.64 212.43,174.04 215.51,176.37 217.97,177.82 221.67,179.99 223.64,180.44 229.47,180.41 237.72,180.38 241.71,178.65 247.21,172.74 250.93,168.75 250.93,168.75 255.41,169.87 257.87,170.49 261.26,171 262.94,171 266.43,171 266.59,171.72 264.47,177.82 262.25,184.17 258.28,191.73 253.73,198.25 249.5,204.3 243.9,208.55 233,213.99 229.43,215.77 222.74,219.48 218.15,222.24 205.81,229.65 198.05,231.42 189.12,228.85 z M 212.9,209.2 C 217.79,207.31 220.1,204.7 218.4,203 217.65,202.25 215.6,202.39 211.46,203.47 204.16,205.37 199.44,205.38 190.54,203.49 183,201.89 180.62,202.58 182.63,205.78 184.51,208.78 191.88,210.89 200.5,210.89 205.63,210.89 210.08,210.28 212.9,209.2 z M 195.8,189.8 C 197.48,188.12 197.3,183.49 195.48,181.98 194.24,180.95 193.6,181.05 191.98,182.52 189.57,184.7 189.47,186.75 191.65,189.17 193.6,191.32 194.19,191.41 195.8,189.8 z M 207.8,188.8 C 210.83,185.77 207.63,179.49 204.17,181.66 202.07,182.97 201.47,186.66 203.05,188.56 204.51,190.31 206.2,190.4 207.8,188.8 z M 130.52,165.09 C 129.1,164.53 128.21,162.67 127.33,158.41 125.81,150.97 126.78,150 135.76,150 145.09,150 146,150.75 146,158.43 146,163.3 145.63,164.93 144.42,165.39 142.23,166.23 132.93,166.03 130.52,165.09 z M 255.39,162.04 C 253.79,161.38 253.15,160 252.73,156.33 251.95,149.48 252.79,148.87 262.4,149.21 L 270.5,149.5 270.18,153.5 C 269.6,160.74 268.16,162.47 262.49,162.71 259.75,162.83 256.55,162.53 255.39,162.04 z M 190.91,143.63 C 188.94,142.92 185.75,141.15 183.84,139.69 173.84,132.06 160.15,132.75 152.19,141.28 149.95,143.68 149.54,143.74 138.19,143.42 L 126.5,143.09 125.33,135.29 C 123.58,123.7 123.69,98.608 125.51,92.602 129.36,79.887 142.25,63.906 154,57.258 171.75,47.219 197.57,45.299 224.5,52.016 236.66,55.05 251.52,62.647 258.37,69.333 269.67,80.365 274.36,95.838 274.31,122 274.28,141.16 274.84,140.38 259.98,141.84 L 247.78,143.03 244.09,139.7 C 237.11,133.4 226.68,132.5 218.5,137.51 206.16,145.07 199.23,146.6 190.91,143.63 z M 210.26,79.794 C 216.86,76.71 227.32,68.962 229.61,65.467 231.28,62.931 230.7,59 228.67,59 228.01,59 224.73,61.588 221.38,64.75 218.03,67.912 212.66,72.075 209.44,74 204.43,76.994 202.71,77.493 197.54,77.454 188.59,77.387 179.16,75.902 177.88,74.358 176.95,73.237 177.95,72.994 183.63,72.967 192.85,72.923 203.75,71.453 205.48,70.019 207.6,68.255 206.15,66 202.89,66 200.49,66 200,65.584 200,63.561 200,60.752 198.46,60.419 181.69,59.621 174.46,59.276 171.99,59.462 172.27,60.327 172.75,61.804 183.58,65.861 187.25,65.941 193.9,66.084 187.88,69 180.93,69 179.39,69 177.83,69.464 177.48,70.031 177.11,70.628 175.41,70.792 173.43,70.421 170.71,69.91 169.88,70.142 169.33,71.571 168.37,74.096 175.69,80.392 181.21,81.773 183.57,82.364 189.78,82.766 195,82.667 202.99,82.515 205.42,82.058 210.26,79.794 z" />
</svg>
