<?xml version="1.0" encoding="UTF-8" standalone="no"?>
<svg xmlns:svg="http://www.w3.org/2000/svg" xmlns="http://www.w3.org/2000/svg" version="1.1"
     width="420px" height="420px" viewBox="-10 -10 420 420">
    <defs id="def1" />
    <circle cx="200" cy="200" r="205" style="fill :#ffffff; stroke :#000000; stroke-width :2;" />
    <path style="fill :#004488; stroke :none;" d="M 182.89,399.6 C 182.68,399.4 179.82,398.96 176.55,398.62 140.98,394.86 102.02,378.36 73.5,354.98 64.967,347.99 48.095,330.67 41.857,322.5 19.693,293.48 5.6001,259.26 1.2939,224 0.29794,215.85 0.25911,186.86 1.2314,177.34 4.8381,142.04 21.791,101.84 45.02,73.5 52.014,64.967 69.333,48.095 77.5,41.857 106.29,19.867 143.61,4.6696 177.24,1.2405 186.63,0.28249 214.6,0.28617 223.12,1.2466 259.04,5.2941 297.13,21.391 326,44.719 334.86,51.875 351.66,69.018 358.14,77.5 371.59,95.103 383.15,116.98 389.91,137.6 393.3,147.94 395.42,157.12 398.54,175 399.62,181.22 399.91,214.28 398.94,222 394.32,258.97 380.33,293.45 358.14,322.5 351.66,330.99 334.85,348.13 326,355.28 314.42,364.63 301.74,372.66 287.5,379.65 268.78,388.83 252.1,393.96 226,398.56 222.17,399.24 183.52,400.17 182.89,399.6 z M 267.26,351.54 C 272.3,349.43 276.76,345.37 279.25,340.62 281.21,336.88 281.48,334.36 282.11,313.5 283.2,277.17 287.8,260.13 304.78,229.43 312.13,216.15 316.22,202.93 318.04,186.6 319.85,170.39 318.26,166.65 310.5,168.81 L 307.5,169.64 306.91,182.07 C 306.02,200.82 303.48,208.41 288.56,237 276.57,259.98 272.02,279.56 271.12,312 270.43,336.89 269.96,338.77 263.78,340.93 261.75,341.63 244.24,342 212.3,342 160.13,342 159.77,341.97 156.78,336.74 155.93,335.25 155.33,328.44 155,316.5 L 154.5,298.5 145,297.98 C 133.81,297.37 127.77,294.85 122.26,288.51 115.76,281.02 115,277.9 114.98,258.67 114.98,249.23 114.64,240.98 114.23,240.35 113.79,239.66 109.64,239.07 103.83,238.85 95.233,238.54 93.871,238.23 91.579,236.08 89.696,234.31 89,232.64 89,229.9 89,227.84 91.925,214.14 95.5,199.46 99.075,184.79 102,171.94 102,170.91 102,168.6 97.752,167.35 94.181,168.61 92.58,169.17 91.341,170.61 90.824,172.5 89.068,178.93 78.814,221.76 77.968,226.19 75.53,238.98 85.361,249.97 99.25,249.99 L 103,250 103.01,259.25 C 103.01,271.51 104.33,278.98 107.8,286.39 113.22,297.96 125.33,306.92 138,308.74 L 143.5,309.52 144.03,323.51 C 144.62,338.88 145.3,341.07 151.29,346.82 157.64,352.92 157.47,352.91 213.13,352.96 255.37,352.99 264.34,352.76 267.26,351.54 z M 142.96,195.4 C 155.72,190.29 152.16,171.67 138.42,171.67 133.64,171.67 128.38,174.88 126.93,178.68 124.35,185.46 127.72,193.52 134.03,195.69 138.55,197.25 138.32,197.26 142.96,195.4 z M 325.96,156.55 C 327.34,154.89 326.69,145.88 324.37,134.58 311.2,70.211 248.92,28.377 184.35,40.521 160.5,45.005 139.75,56.099 121.88,73.909 107.69,88.045 98.918,102.19 92.983,120.5 87.685,136.85 88.155,136.04 82.4,138.67 79.516,139.99 73.859,141.76 69.828,142.6 61.447,144.34 58.314,146.04 56.955,149.62 55.625,153.12 55.763,156.74 57.25,157.34 57.938,157.62 118.41,157.88 191.63,157.92 306.95,157.99 324.92,157.81 325.96,156.55 z" />
</svg>
