<?xml version="1.0" encoding="UTF-8" standalone="no"?>
<svg xmlns:svg="http://www.w3.org/2000/svg" xmlns="http://www.w3.org/2000/svg" version="1.1"
     width="420px" height="420px" viewBox="-10 -10 420 420">
    <defs id="def1" />
    <circle cx="200" cy="200" r="205" style="fill :#ffffff; stroke :#000000; stroke-width :2;" />
    <path style="fill :#004488; stroke :none;" d="M 182.89,399.6 C 182.68,399.4 179.82,398.96 176.55,398.62 140.98,394.86 102.03,378.37 73.5,354.98 64.967,347.99 48.095,330.67 41.857,322.5 19.554,293.3 5.6271,259.48 1.2939,224 0.30355,215.89 0.25697,186.87 1.2192,177.5 4.903,141.65 21.542,102.14 45.02,73.5 52.014,64.967 69.333,48.095 77.5,41.857 106.29,19.867 143.61,4.6696 177.24,1.2405 186.63,0.28249 214.6,0.28617 223.12,1.2466 257.43,5.1121 293.87,20.005 322.5,41.854 331.53,48.743 349.44,66.469 356.49,75.5 365.96,87.614 373.44,99.613 380.01,113.21 389.22,132.29 393.69,147.19 398.54,175 399.62,181.22 399.91,214.28 398.94,222 394.24,259.62 380.71,292.95 358.14,322.5 351.66,330.98 334.86,348.13 326,355.28 297.49,378.32 267.7,391.22 226,398.56 222.17,399.24 183.52,400.17 182.89,399.6 z M 248.4,351.52 C 256.05,350.19 262.69,348.71 263.17,348.23 263.67,347.73 261.45,330.93 258.06,309.43 254.77,288.57 248.43,248.32 243.97,220 L 235.87,168.5 237.44,134.5 C 238.31,115.8 239.02,99.938 239.01,99.25 238.97,94.32 242.45,102.99 254.61,138.12 262.34,160.46 269.11,178.48 269.88,178.78 271.67,179.47 292.29,174.14 293.14,172.77 293.79,171.72 290.02,160.2 270.99,105 265.4,88.775 259.9,72.638 258.78,69.139 254.68,56.353 248.09,51.988 231.5,51.093 L 220.51,50.5 218.76,46.776 C 217.8,44.728 215.99,42.42 214.75,41.648 211.89,39.863 206.77,38.909 205.21,39.87 204.31,40.428 203.95,56.269 203.76,104.55 L 203.5,168.5 200.5,168.5 197.5,168.5 197.24,104.78 C 196.99,42.255 196.95,41.042 194.99,39.994 193.59,39.247 191.83,39.237 189.15,39.958 184.98,41.081 183.02,42.866 180.87,47.5 L 179.48,50.5 168.49,51.093 C 151.4,52.016 145.48,56.224 140.67,70.872 139.29,75.068 132.9,93.8 126.47,112.5 108.45,164.89 106.62,170.56 107.22,172.12 107.91,173.93 129.73,179.7 130.92,178.4 131.37,177.9 137.25,161.53 143.98,142 158.2,100.78 158.76,99.332 159.91,100.57 160.38,101.08 161.87,116.12 163.23,134 L 165.69,166.5 151.03,256.78 C 140.66,320.7 136.7,347.33 137.47,347.97 138.07,348.47 145.44,350.09 153.86,351.57 166.84,353.86 169.35,354.06 170.42,352.88 171.12,352.12 177.88,319.77 185.46,281 193.04,242.22 199.63,210.08 200.1,209.57 200.58,209.05 201.16,208.83 201.4,209.07 201.64,209.31 207.75,241.23 214.98,280 222.2,318.78 228.53,351.52 229.04,352.77 229.75,354.48 230.53,354.91 232.24,354.49 233.48,354.19 240.76,352.85 248.4,351.52 z M 214.17,94.148 C 213.42,93.659 212.98,92.028 213.17,90.391 L 213.5,87.5 222,87.5 230.5,87.5 230.5,91 230.5,94.5 223,94.756 C 218.87,94.898 214.9,94.624 214.17,94.148 z" />
</svg>
