<?xml version="1.0" encoding="UTF-8" standalone="no"?>
<svg xmlns:svg="http://www.w3.org/2000/svg" xmlns="http://www.w3.org/2000/svg" version="1.1"
     width="420px" height="420px" viewBox="-10 -10 420 420">
    <defs id="def1" />
    <circle cx="200" cy="200" r="205" style="fill :#ffffff; stroke :#000000; stroke-width :2;" />
    <path style="fill :#004488; stroke :none;" d="M 183.95,399.65 C 183.7,399.42 180.35,398.92 176.5,398.54 142.88,395.27 104.88,379.45 75.5,356.49 66.471,349.44 48.745,331.53 41.854,322.5 19.765,293.56 5.5828,259.12 1.2939,224 0.26335,215.56 0.27067,184.36 1.3051,176.01 5.5976,141.35 20.033,106.25 41.822,77.5 53.023,62.721 74.229,43.312 91.5,32.03 112.76,18.145 146.37,5.3191 169,2.4608 172.03,2.0787 175.4,1.5538 176.5,1.2945 181.78,0.05041 214.2,0.20646 224,1.5231 292.78,10.763 350.2,51.701 379.45,112.36 390.21,134.67 396.46,156.23 398.73,178.82 399.74,188.9 399.71,212.54 398.68,222 392.29,280.62 359.25,334.44 309.5,367.28 287.76,381.63 254.04,394.63 231,397.54 227.97,397.92 224.6,398.45 223.5,398.71 220.87,399.34 184.54,400.2 183.95,399.65 z M 138.5,289.46 C 163.25,275.86 183.77,264.31 184.11,263.79 184.44,263.27 184.08,261.01 183.31,258.77 181.76,254.28 182.65,247.51 185.5,242 187.32,238.47 187.35,237.98 185.75,238.05 185.06,238.08 158.62,252.39 127,269.84 83.846,293.65 69.428,302.06 69.211,303.55 69.021,304.86 71.275,308.04 75.844,312.91 L 82.766,320.28 88.133,317.24 C 91.085,315.56 113.75,303.06 138.5,289.46 z M 209.78,264.15 C 212.03,262.55 216.09,254.63 228.39,227.8 238.94,204.81 244.13,192.35 244.16,190 244.2,185.96 233.42,121.03 231.94,116.41 231.4,114.72 229.59,112.02 227.91,110.41 L 224.87,107.5 206.3,107.19 C 186.74,106.86 183.87,107.31 180.23,111.33 179.15,112.52 174.86,120.03 170.7,128 166.54,135.97 160.25,148.04 156.72,154.81 153.19,161.58 149.44,168.23 148.4,169.59 146.94,171.48 139.45,174.61 116.18,183.05 99.506,189.1 84.808,194.74 83.518,195.58 77.061,199.81 76.434,209.9 82.267,215.73 88.406,221.87 89.146,221.74 128.32,207.56 147.47,200.63 164.16,194.29 165.4,193.47 166.65,192.66 168.27,190.86 169,189.49 169.74,188.12 170.71,187 171.17,187 171.63,187 172,197.1 172,209.44 172,230.53 171.87,232.1 169.88,235.49 168.71,237.47 168.01,239.34 168.31,239.65 168.62,239.96 174.11,237.33 180.51,233.81 L 192.15,227.4 201.06,207.95 C 205.96,197.25 209.98,187.2 209.99,185.61 209.99,184.02 209.08,177.32 207.95,170.71 206.82,164.1 206.15,158.06 206.45,157.28 206.75,156.48 207.98,156 209.25,156.18 211.34,156.48 211.69,157.61 214.15,172 L 216.8,187.5 209.52,203.5 C 205.52,212.3 201.33,221.53 200.21,224 199.09,226.47 196.05,233 193.46,238.5 187.97,250.16 187.2,256.07 190.57,260.67 195.21,267 203.64,268.53 209.78,264.15 z M 296.78,202.41 C 332.37,182.83 362.1,166.23 362.84,165.53 363.97,164.45 363.73,162.64 361.43,154.53 359.91,149.18 358.09,144.59 357.37,144.31 356.27,143.89 316.69,165.22 258.5,197.59 L 245.5,204.82 238.32,220.16 C 231.57,234.6 230.27,238 231.53,238 231.81,238 261.18,221.98 296.78,202.41 z M 216.15,92.616 C 220.77,90.401 226.34,84.867 228.68,80.15 231.52,74.457 231.19,62.855 228.03,56.657 221.84,44.549 206.1,39.172 193.8,44.963 187.3,48.021 181.49,54.599 179.57,61.087 177.62,67.639 177.61,70.309 179.48,76.612 183.98,91.766 201.74,99.519 216.15,92.616 z"/>
</svg>
