<?xml version="1.0" encoding="UTF-8" standalone="no"?>
<svg xmlns:svg="http://www.w3.org/2000/svg" xmlns="http://www.w3.org/2000/svg" version="1.1"
     width="420px" height="420px" viewBox="-10 -10 420 420">
    <defs id="def1" />
    <circle cx="200" cy="200" r="205" style="fill :#ffffff; stroke :#000000; stroke-width :2;" />
    <path style="fill :#004488; stroke :none;" d="M 182.89,399.6 C 182.68,399.4 179.82,398.96 176.55,398.62 140.98,394.86 102.02,378.36 73.5,354.98 64.967,347.99 48.095,330.67 41.857,322.5 19.629,293.4 5.6126,259.36 1.2939,224 0.29794,215.85 0.25911,186.86 1.2314,177.34 4.8368,142.05 21.727,101.99 45.01,73.489 53.502,63.096 72.347,45.397 82.798,38 111.65,17.577 145.24,4.5034 177.24,1.2405 186.63,0.28249 214.6,0.28617 223.12,1.2466 257.45,5.1142 294.24,20.161 322.48,41.875 331.19,48.572 348.25,65.268 355.26,73.966 379.07,103.49 395.03,141.79 398.78,178.44 399.75,187.92 399.69,214.82 398.69,223.5 394.69,258.01 380.01,293.87 358.14,322.5 351.66,330.99 334.85,348.13 326,355.28 314.42,364.63 301.74,372.66 287.5,379.65 268.78,388.83 252.1,393.96 226,398.56 222.17,399.24 183.52,400.17 182.89,399.6 z M 220.34,353.54 C 230.51,351.72 240.65,346.83 250,339.23 268.64,324.09 284.69,298.29 291.52,272.5 293.56,264.82 294.18,264.04 298.28,264.02 309.42,263.95 322.16,248.12 330.29,224.25 334.76,211.16 336.24,197.17 334.02,189.04 332.62,183.88 326.75,177.42 322.68,176.56 321.21,176.25 318.95,175.78 317.66,175.52 315.36,175.05 315.33,174.89 315.75,164.77 317.3,127.44 299.5,90.307 269.07,67.42 248.06,51.611 224.6,43.711 198.5,43.658 153.04,43.567 111.72,70.175 92.009,112.24 84.746,127.74 80.522,148.84 81.171,166.38 L 81.5,175.26 76.692,176.49 C 71.017,177.94 65.591,182.76 63.801,187.93 63.121,189.89 62.586,195.32 62.612,200 62.713,218.09 72.699,243.77 84.415,256.06 89.801,261.71 92.211,263.12 98.747,264.43 104.03,265.49 104.44,265.78 105.24,269.03 111.43,294.38 123.07,315.41 140.37,332.51 155.98,347.94 166.56,353.08 186.5,354.93 198.04,355.99 209.18,355.54 220.34,353.54 z M 178.55,341.94 C 170.33,340.56 159.58,334.54 151.22,326.64 133.41,309.8 122.31,289.38 115.53,261 114.54,256.87 113.05,252.71 112.21,251.75 110.31,249.56 106.68,249.51 103.46,251.62 99.898,253.95 95.766,251.95 91.039,245.59 77.037,226.77 69.632,196.34 77.115,188.38 79.954,185.36 81.523,185.38 84.412,188.5 87.262,191.58 91.949,191.82 94.48,189.02 96.061,187.28 96.141,186.37 95.167,181.27 92.184,165.65 92.874,148.26 97.092,132.79 100.05,121.94 108.92,104.68 116.29,95.434 130.26,77.9 149.82,65.066 172,58.883 179.49,56.795 182.64,56.513 198.5,56.507 219.47,56.499 226.93,58.02 242.85,65.548 273.27,79.926 294.62,106.76 301.61,139.41 303.93,150.19 304.38,167.01 302.64,177 301.25,184.93 301.27,185.67 302.92,188 305.38,191.46 309.05,191.67 312.75,188.55 316.62,185.3 318.33,185.34 321.04,188.75 323.04,191.27 323.18,192.32 322.72,201.5 321.95,217.09 315.61,233.89 306.03,245.75 301.71,251.1 301.11,251.49 297.44,251.33 295.27,251.24 292.02,250.85 290.21,250.46 285.62,249.49 283.35,251.81 282.48,258.33 281.45,266.1 275.6,283.42 270.77,293 257.3,319.69 238.44,337.47 219.27,341.53 211.87,343.1 186.99,343.35 178.55,341.94 z M 165.5,239.61 C 174.05,237.74 177.76,235.94 183.95,230.64 194.26,221.83 204.8,221.63 215,230.06 226.96,239.95 242.34,243.27 257.14,239.17 266.06,236.7 272,233.03 277.62,226.51 L 282.33,221.06 293.91,220.78 305.5,220.5 305.5,216.5 305.5,212.5 295.5,212 285.5,211.5 285.5,207.5 285.5,203.5 293.5,203.25 C 305.5,202.87 306,202.66 306,198.09 306,195.48 305.48,194.02 304.42,193.61 303.55,193.27 298.12,193 292.37,193 L 281.89,193 276.55,187.23 C 262.62,172.19 238.96,169.58 220,181.01 210.59,186.68 201.95,188.74 193.58,187.31 188.99,186.52 185.89,185.3 183.26,183.23 178.11,179.18 174.47,177.43 167.31,175.58 160.43,173.8 147.69,173.54 141.11,175.06 131.85,177.2 121.8,183.81 117.24,190.75 115.86,192.86 115.08,193 104.58,193 92.537,193 91,193.57 91,198 91,202.3 92.637,203 102.76,203 L 112.11,203 111.81,207.25 111.5,211.5 101.5,212 91.5,212.5 91.5,216.5 91.5,220.5 103.1,221 114.7,221.5 119.93,227.23 C 130.57,238.88 147.67,243.53 165.5,239.61 z" />
</svg>
