<?xml version="1.0" encoding="UTF-8" standalone="no"?>
<svg xmlns:svg="http://www.w3.org/2000/svg" xmlns="http://www.w3.org/2000/svg" version="1.1"
     width="420px" height="420px" viewBox="-10 -10 420 420">
    <defs id="def1" />
    <circle cx="200" cy="200" r="205" style="fill :#ffffff; stroke :#000000; stroke-width :2;" />
    <path
         d="M 182.89,399.59 C 182.68,399.4 179.65,398.94 176.17,398.58 143.38,395.18 105.8,379.77 77.5,358.13 69.281,351.85 54.07,337.06 46.51,328 22.307,299 5.8237,261.09 1.2939,224 0.30355,215.89 0.25697,186.87 1.2192,177.5 4.2575,147.93 16.235,115.36 33.651,89.312 66.391,40.343 118.17,8.5834 177.16,1.2933 185.33,0.28376 213.43,0.27249 222.54,1.2751 313.85,11.324 388.38,86.067 398.76,178 399.72,186.49 399.71,213.64 398.74,222.24 390.97,291.4 346.63,352.47 282.85,381.89 267.62,388.91 244.98,395.74 231,397.53 227.97,397.92 224.6,398.45 223.5,398.72 221.13,399.3 183.46,400.11 182.89,399.59 z M 284.41,332.05 C 286.94,329.52 287.48,328.2 287.4,324.73 287.32,320.98 285.15,317.24 268.48,292 L 249.66,263.5 244.19,237 238.73,210.5 238.87,183.5 C 239.02,154.26 239.75,140 241.08,140 241.55,140 248.17,145.81 255.79,152.91 L 269.65,165.82 279.07,187.51 C 284.26,199.45 289.49,210.29 290.7,211.6 293.73,214.9 299.84,214.9 303.67,211.61 308.36,207.58 307.61,204.3 295.94,177.61 L 285.5,153.72 263.63,132.36 241.75,111 215.93,111 190.1,111 184.3,115.84 C 181.11,118.5 172.87,125.52 166,131.43 159.12,137.34 151.93,142.98 150,143.97 148.07,144.95 135.7,150.34 122.5,155.95 96.927,166.81 93,169.33 93,174.94 93,178.55 97.055,183.55 100.73,184.47 102.91,185.02 109.49,182.57 133.05,172.46 L 162.64,159.77 175.27,148.88 C 182.23,142.9 188.38,138 188.96,138 189.66,138 189.99,148.81 189.97,171.25 L 189.94,204.5 169.98,227.79 C 159,240.6 149.78,252.07 149.49,253.29 149.2,254.51 146.76,270.51 144.05,288.86 140.32,314.17 139.38,322.86 140.13,324.86 143.55,333.87 155.16,335.51 160.27,327.71 161.27,326.19 163.56,313.69 166.55,293.41 L 171.26,261.5 181.91,249 C 187.77,242.12 197.46,230.74 203.44,223.71 209.42,216.67 214.69,211.29 215.16,211.76 215.62,212.22 218.7,226.06 222,242.5 226.94,267.13 228.47,273.11 230.68,276.45 258.4,318.38 268.76,333.35 270.92,334.57 274.89,336.82 280.74,335.72 284.41,332.05 z M 224.09,102.67 C 235.82,96.483 238.5,81.334 229.65,71.257 221.9,62.43 209.72,61.739 200.99,69.63 187.05,82.219 195.76,105 214.5,105 218,105 221.12,104.24 224.09,102.67 z"
         style="fill:#004488; stroke :none;" />
</svg>
