<?xml version="1.0" encoding="UTF-8" standalone="no"?>
<svg xmlns:svg="http://www.w3.org/2000/svg" xmlns="http://www.w3.org/2000/svg" version="1.1"
     width="420px" height="420px" viewBox="-10 -10 420 420">
    <defs id="def1" />
    <circle cx="200" cy="200" r="205" style="fill :#ffffff; stroke :#000000; stroke-width :2;" />
    <path style="fill:#004488; stroke :none;" d="M 182.9,399.61 C 182.68,399.41 179.82,398.96 176.55,398.62 147.57,395.56 116.47,384.22 90.5,367.25 77.305,358.63 68.645,351.41 56.427,338.85 25.689,307.26 6.6076,267.51 1.2939,224 0.29794,215.85 0.25911,186.86 1.2314,177.34 4.6606,143.78 19.966,106.16 41.857,77.5 48.724,68.51 65.395,51.67 75,44.022 104.39,20.617 142.15,4.8189 177.24,1.2405 186.63,0.28249 214.6,0.28617 223.12,1.2466 260.07,5.41 298.61,21.997 327.5,46.166 359.17,72.664 381.58,106.99 392.35,145.5 394.54,153.34 395.64,158.59 398.53,175 399.62,181.19 399.91,214.25 398.94,222 394.31,259.05 380.38,293.39 358.14,322.5 351.66,330.99 334.85,348.13 326,355.28 297.62,378.21 266.86,391.52 226,398.55 222.09,399.22 183.52,400.17 182.9,399.61 z M 216.67,354.41 C 229.19,352.55 234.8,350.53 243.88,344.62 264.5,331.21 282.58,305.51 291.12,277.5 292.79,272 294.51,266.82 294.94,266 295.37,265.16 297.65,264.27 300.11,263.98 305.77,263.31 310.91,260.1 315.76,254.2 333.82,232.25 342.25,194.33 331.74,182.36 328.02,178.12 325.62,176.77 320.58,176.05 L 316.65,175.5 316.87,163.5 C 317.72,117.09 292.51,76.049 250.5,55.411 226.6,43.673 199.48,40.506 173.83,46.461 134.86,55.51 102.33,84.606 89.147,122.19 84.534,135.34 82.799,145.77 82.613,161.46 L 82.446,175.42 78.473,176.46 C 69.687,178.76 65.621,183.41 64.091,192.92 61.387,209.7 71.637,240.52 84.738,255 91.101,262.03 92.628,262.98 99.918,264.45 L 105.34,265.55 109.02,277.81 C 115.69,299.99 125.66,316.82 141.44,332.5 156.7,347.67 167.6,353.08 186.5,354.88 200.43,356.2 205.1,356.12 216.67,354.41 z M 179.55,342 C 169.84,340.26 160.33,334.5 149.96,324.08 132.63,306.67 124.45,291.24 116.96,261.83 115.8,257.25 114.13,252.71 113.27,251.75 111.34,249.62 108.05,249.5 105.44,251.47 102.67,253.56 99.892,253.33 96.901,250.75 84.476,240.01 72.321,206.66 75.938,193.23 76.914,189.6 80.009,186 82.146,186 82.531,186 84.119,187.05 85.673,188.33 89.944,191.85 91.58,192.12 94.546,189.78 96.84,187.98 97.147,187.13 96.705,183.84 96.422,181.73 96.608,179.74 97.119,179.43 97.63,179.11 101.38,180.65 105.44,182.84 109.51,185.03 113.1,186.57 113.42,186.25 114.71,184.95 113.9,179.22 112.2,177.68 111.21,176.78 107.04,174.33 102.95,172.23 L 95.5,168.41 95.532,155.96 C 95.581,136.57 100.83,119.86 112.22,102.83 126.13,82.03 146.75,66.954 171.72,59.327 179.84,56.846 181.89,56.638 199,56.572 215.36,56.508 218.48,56.768 226,58.814 254.53,66.58 279.6,86.523 292.96,112.08 301.03,127.52 305.45,145.75 304.81,160.99 L 304.5,168.48 297.28,172.06 C 287.6,176.86 286,178.43 286,183.15 286,185.27 286.19,187 286.42,187 286.66,187 290.18,185.2 294.26,183 298.34,180.8 301.97,179.3 302.34,179.67 302.7,180.03 303,181.99 303,184.01 303,190.76 309.44,193.35 314.04,188.46 316.97,185.34 319.64,185.61 322.39,189.31 325.25,193.16 325.13,204.56 322.11,215.44 319.13,226.15 312.13,240.45 307,246.27 301.29,252.75 299.87,253.39 295.4,251.52 290.84,249.62 287.59,249.58 286.07,251.42 285.42,252.2 283.83,257.49 282.54,263.17 274.35,299.25 250.94,331.29 226.25,340.23 221.38,342 217.76,342.36 202.5,342.6 192.6,342.75 182.27,342.48 179.55,342 z M 170.07,244.31 C 177.38,241.05 183.77,233.61 186.16,225.56 187.48,221.08 187.22,178.97 185.86,177.33 184.99,176.29 179.44,176.02 160.13,176.07 131.21,176.15 120.32,176.94 118.87,179.03 118.21,179.98 118.07,188.22 118.46,202.42 118.95,220.57 119.37,225.05 120.88,228.47 124.41,236.45 131.56,242.75 140.32,245.62 146.66,247.7 164.21,246.92 170.07,244.31 z M 142.55,238.27 C 139.82,237.58 133.91,233.68 131.3,230.86 126.93,226.13 126.19,222.45 125.84,203.54 L 125.5,185.61 129,184.72 C 132.79,183.76 177.6,183.27 178.51,184.18 179.71,185.38 180.25,217.53 179.13,221.6 177.35,228.08 172.57,233.82 166.69,236.56 162.39,238.56 160.03,238.96 153,238.87 148.32,238.82 143.62,238.55 142.55,238.27 z M 164.62,233.09 C 169.75,230.76 173.48,225.95 175.07,219.66 176.55,213.75 175.79,190.39 174.06,188.66 172.5,187.1 135.6,187.3 131.65,188.88 L 128.79,190.03 129.47,204.76 C 129.84,212.87 130.57,220.88 131.09,222.57 132.26,226.35 137.32,231.39 142,233.41 147.09,235.61 159.45,235.43 164.62,233.09 z M 264.23,243.68 C 267.43,242.11 271.67,238.91 273.91,236.36 280.36,229.04 281.07,225.45 281.09,200.51 281.09,188.55 280.87,178.53 280.59,178.25 278.69,176.36 214.77,174.94 213.64,176.77 213.38,177.2 213.01,187.66 212.83,200.02 212.47,224.59 212.83,226.89 218.21,234.78 224.29,243.68 233.01,247.11 248.51,246.72 257.14,246.5 259.32,246.08 264.23,243.68 z M 236.5,238.15 C 229.4,235.82 224.25,230.84 221.48,223.59 220.04,219.82 219.83,216.4 220.16,202.11 220.37,192.77 220.9,184.77 221.32,184.34 222.37,183.3 266.58,183.65 271,184.74 L 274.5,185.61 274.16,203.54 C 273.95,214.98 273.37,222.57 272.56,224.49 270.54,229.33 266.1,233.92 260.9,236.55 256.79,238.63 254.75,238.99 247.28,238.9 242.45,238.85 237.6,238.51 236.5,238.15 z M 258.98,232.75 C 261.4,231.51 264.74,228.8 266.4,226.71 269.36,222.98 269.42,222.67 270.25,206.81 270.79,196.38 270.74,190.34 270.1,189.7 268.52,188.12 249.46,186.8 237.5,187.44 228.87,187.91 226.23,188.4 225.25,189.71 223.32,192.29 223.55,217.99 225.55,222.77 229.09,231.25 235.59,234.94 247.04,234.98 252.91,235 255.55,234.5 258.98,232.75 z M 114.65,212.34 C 114.29,206.48 114,199.78 114,197.44 114,193.48 113.67,192.97 109.31,190.08 106.39,188.15 104.27,187.33 103.68,187.92 102.73,188.87 106.32,212.09 108.19,217 109.45,220.32 111.96,223 113.81,223 115.08,223 115.21,221.43 114.65,212.34 z M 289.42,221.09 C 290.36,220.04 291.77,216.78 292.53,213.84 294.86,204.91 297.16,188.76 296.24,187.84 295.76,187.36 293.38,188.3 290.84,189.99 L 286.29,192.99 285.65,200.65 C 285.29,204.86 285,211.61 285,215.65 285,223.53 286.04,224.82 289.42,221.09 z M 208.74,197.28 C 208.97,196.61 208.01,194.92 206.62,193.53 203.22,190.13 197.22,190.05 193.39,193.34 191.56,194.91 190.88,196.24 191.32,197.38 191.87,198.82 193.21,199.04 200.15,198.79 205.49,198.6 208.48,198.07 208.74,197.28 z M 208.56,186.9 C 208.94,186.3 208.35,184.61 207.27,183.15 204.1,178.89 194.22,178.85 191.95,183.09 189.82,187.07 191.33,188 199.91,188 204.63,188 208.16,187.55 208.56,186.9 z M 131.25,172.45 C 134.96,172.12 138,171.52 138,171.13 138,170.28 106.08,166.58 105.32,167.34 105.03,167.63 106.98,169.25 109.65,170.94 113.84,173.59 115.18,173.94 119.5,173.53 122.25,173.27 127.54,172.79 131.25,172.45 z M 289.57,171.4 C 295.4,167.99 295.29,166.58 289.25,167.34 286.64,167.66 279.66,168.46 273.75,169.1 267.84,169.75 263,170.63 263,171.06 263,171.49 266.04,172.13 269.75,172.47 273.46,172.82 277.4,173.25 278.5,173.42 283.47,174.19 285.43,173.83 289.57,171.4 z" />
</svg>
