<?xml version="1.0" encoding="UTF-8" standalone="no"?>
<svg xmlns:svg="http://www.w3.org/2000/svg" xmlns="http://www.w3.org/2000/svg" version="1.1"
     width="420px" height="420px" viewBox="-10 -10 420 420">
    <defs id="def1" />
    <circle cx="200" cy="200" r="205" style="fill :#ffffff; stroke :#000000; stroke-width :2;" />
    <path style="fill :#004488; stroke :none;" d="M 182.89,399.59 C 182.68,399.4 179.65,398.94 176.17,398.58 141.72,395.01 101.49,377.92 73.5,354.98 64.967,347.99 48.095,330.67 41.857,322.5 19.354,293.04 5.8779,260.18 1.2561,223.5 0.29121,215.84 0.27558,186.7 1.2314,177.34 3.8657,151.56 14.605,120.06 28.794,96.5 45.622,68.56 71.585,43.278 100.74,26.442 123.39,13.362 152.54,3.7591 177.24,1.2405 186.63,0.28249 214.6,0.28617 223.12,1.2466 257.43,5.1121 293.87,20.005 322.5,41.854 331.53,48.743 349.44,66.469 356.49,75.5 365.96,87.614 373.44,99.613 380.01,113.21 389.22,132.29 393.69,147.19 398.54,175 399.62,181.22 399.91,214.28 398.94,222 394.32,258.97 380.33,293.45 358.14,322.5 351.66,330.99 334.85,348.13 326,355.28 314.42,364.63 301.74,372.66 287.5,379.65 268.78,388.83 252.1,393.96 226,398.56 222.16,399.24 183.52,400.16 182.89,399.59 z M 140.78,351.61 C 160.81,341.46 195.82,329.09 230.25,320 232.86,319.3 235,318.31 235,317.77 235,316.91 226.7,297.33 175.56,177.5 162.01,145.75 161.34,144.43 157.86,142.73 153.55,140.61 150.01,141.53 147.45,145.43 144.71,149.62 145.57,153.68 153.3,173.17 160.27,190.73 161.24,195.08 157.85,193.76 157.11,193.47 151.78,181.82 146.02,167.87 140.25,153.92 134.57,141.52 133.38,140.32 128.28,135.15 119.18,136.93 116.37,143.65 114.56,147.99 114.24,146.97 127.14,178.3 136.04,199.9 136.9,202.53 135.53,203.9 134.18,205.25 133.82,205.25 132.53,203.96 131.72,203.15 126.52,191.69 120.98,178.49 115.44,165.3 110.36,153.95 109.69,153.27 107.4,150.96 102.7,150.8 99.304,152.91 93.378,156.61 93.662,158.23 105.97,190.94 115.88,217.29 116.88,220.55 115.52,221.91 114.19,223.24 113.84,223.25 112.67,221.96 111.93,221.16 107.82,211.15 103.52,199.71 94.782,176.48 93.521,174.72 85.681,174.82 82.207,174.87 80.95,175.48 78.25,178.43 74.101,182.95 74.118,185.32 78.389,197.13 80.252,202.28 93.35,239.12 107.5,279 121.64,318.87 133.67,352.06 134.23,352.75 135.53,354.36 135.27,354.4 140.78,351.61 z M 238.85,270.05 C 244.43,268.32 258.56,264.5 270.25,261.54 290.41,256.44 291.5,256.05 291.41,253.83 291.36,252.55 289.69,244.3 287.69,235.5 285.69,226.7 282.48,210.28 280.57,199 274.55,163.49 273.03,147.02 271.9,105 271.33,83.825 270.65,65.051 270.39,63.279 269.75,58.92 265.49,54.104 260.19,51.76 256.73,50.229 254.62,49.964 250.09,50.49 L 244.36,51.154 243.18,47.213 C 239.89,36.235 228.09,31.05 217.42,35.896 215.18,36.915 212.4,38.952 211.24,40.422 L 209.14,43.096 203.63,41.494 C 199.32,40.241 197.26,40.121 194.21,40.944 188.59,42.457 183.86,45.967 181.3,50.53 179.1,54.458 179.01,54.5 173.08,54.542 167.94,54.579 166.54,55.019 163.29,57.607 156.3,63.182 156.23,63.568 155.85,100.84 L 155.5,134.17 159.43,135.53 C 161.6,136.28 163.74,136.66 164.18,136.39 164.63,136.11 165,120.88 165,102.55 165,72.263 165.16,69.033 166.75,67.153 169.45,63.964 173.13,63.526 176.29,66.016 L 179,68.145 179,91.244 C 179,111.33 179.22,114.58 180.65,116.17 182.71,118.44 184.79,118.5 187.17,116.35 188.69,114.97 189,113.13 189,105.6 189,100.59 189.3,87.293 189.67,76.039 190.3,56.494 190.43,55.476 192.62,53.289 195.63,50.279 200.11,50.329 203.69,53.412 L 206.5,55.823 206.81,77.406 C 207.09,97.736 207.23,99.05 209.09,100.05 211.83,101.51 214.93,100.31 216.06,97.349 216.58,95.986 217,84.364 217,71.524 L 217,48.178 220.08,45.589 C 223.59,42.636 225.89,42.375 229.94,44.47 234.44,46.798 234.9,49.793 234.27,72.927 233.74,92.33 233.84,94.162 235.5,96.002 237.7,98.434 239.75,98.539 242.17,96.345 243.78,94.89 244,92.976 244,80.48 244,67.492 244.18,66.037 246.13,63.56 247.3,62.07 249.31,60.452 250.59,59.964 253.65,58.804 258.67,60.565 260.27,63.355 261.15,64.887 261.68,76.212 262.14,103 262.57,128.33 263.32,144.72 264.43,153.5 267.42,177.07 271.95,205.19 276.08,225.84 278.32,237.02 279.92,246.75 279.65,247.47 279.38,248.18 276.76,249.31 273.83,249.99 258.32,253.55 223.72,263.96 222.83,265.34 221.82,266.88 225.88,274.26 227.41,273.67 228.11,273.4 233.26,271.77 238.85,270.05 z M 211.58,204.83 C 216.29,177.76 216.9,168.79 214.48,161.94 208.09,143.84 185.47,139.7 177.42,155.16 176.19,157.53 176.28,158.4 178.15,162.91 179.32,165.71 180.55,168 180.9,168 181.25,168 182.33,165.75 183.3,163.01 184.58,159.41 185.93,157.57 188.11,156.44 196.16,152.28 206.93,161.17 206.97,172 206.98,173.93 205.21,184.59 203.04,195.71 L 199.1,215.91 201.65,222.21 C 204.24,228.6 205.93,231.4 206.73,230.61 206.97,230.37 209.15,218.77 211.58,204.83 z" />
</svg>
