<?xml version="1.0" encoding="UTF-8" standalone="no"?>
<svg xmlns:svg="http://www.w3.org/2000/svg" xmlns="http://www.w3.org/2000/svg" version="1.1"
     width="420px" height="420px" viewBox="-10 -10 420 420">
    <defs id="def1" />
    <circle cx="200" cy="200" r="205" style="fill :#ffffff; stroke :#000000; stroke-width :2;" />
    <path style="fill :#004488; stroke :none;" d="M 182.89,399.59 C 182.68,399.4 179.65,398.94 176.17,398.58 141.65,395 101.58,377.98 73.5,354.98 64.971,347.99 48.098,330.67 41.857,322.5 19.629,293.4 5.6126,259.36 1.2939,224 0.29882,215.85 0.25878,186.86 1.2294,177.36 2.8126,161.87 9.2451,137.15 15.502,122.5 22.403,106.35 34.344,86.523 45.02,73.5 52.014,64.967 69.333,48.095 77.5,41.857 106.29,19.867 143.61,4.6696 177.24,1.2405 186.63,0.28249 214.6,0.28617 223.12,1.2466 259.04,5.2941 297.13,21.391 326,44.719 334.86,51.875 351.66,69.018 358.14,77.5 379.53,105.5 392.86,137.55 398.51,174.5 399.6,181.68 399.9,214.31 398.94,222 394.32,258.97 380.33,293.45 358.14,322.5 351.66,330.99 334.85,348.13 326,355.28 301.34,375.2 269.98,390.01 240,395.89 234.22,397.02 227.93,398.22 226,398.56 222.16,399.24 183.52,400.16 182.89,399.59 z M 239.5,333.5 239.5,324.5 200.5,324.24 C 155.76,323.93 159,323.2 159,333.61 159,344 154.82,343.06 199.86,342.76 L 239.5,342.5 239.5,333.5 z M 274.5,292.5 274.5,283.5 200,283.5 125.5,283.5 125.21,291.41 C 125.04,295.76 125.14,299.93 125.43,300.67 125.85,301.78 138.75,301.97 200.22,301.76 L 274.5,301.5 274.5,292.5 z M 304.79,250.75 C 304.95,245.94 304.95,241.9 304.79,241.77 304.63,241.65 282.9,241.31 256.5,241.02 L 208.5,240.5 208,147 207.5,53.5 200,53.5 192.5,53.5 192,147 191.5,240.5 143.5,241.02 C 117.1,241.31 95.388,241.65 95.25,241.77 94.666,242.3 95.06,258.73 95.671,259.34 96.04,259.71 143.18,259.89 200.42,259.75 L 304.5,259.5 304.79,250.75 z" />
</svg>
