<?xml version="1.0" encoding="UTF-8" standalone="no"?>
<svg xmlns:svg="http://www.w3.org/2000/svg" xmlns="http://www.w3.org/2000/svg" version="1.1"
     width="420px" height="420px" viewBox="-10 -10 420 420">
    <defs id="def1" />
    <circle cx="200" cy="200" r="205" style="fill :#ffffff;  stroke :#000000; stroke-width :2;" />
    <path style="fill :#004488; stroke :none;" d="M 182.95,399.66 C 182.7,399.43 179.82,398.96 176.55,398.62 141.45,394.91 105.46,379.91 75.5,356.49 66.469,349.44 48.743,331.53 41.854,322.5 19.611,293.36 5.6126,259.36 1.2939,224 0.29794,215.85 0.25911,186.86 1.2314,177.34 4.6606,143.78 19.966,106.16 41.857,77.5 48.724,68.51 65.395,51.67 75,44.022 104.39,20.617 142.15,4.8189 177.24,1.2405 186.62,0.28431 214.62,0.28538 223,1.2423 281.45,7.9174 335.13,41.337 367.96,91.5 383.91,115.88 395.81,149.43 398.78,178.44 399.74,187.8 399.7,214.72 398.72,223.5 394.63,260.04 377.97,298.65 353.83,327.5 334.68,350.4 313.04,367.34 286.79,380 268.08,389.02 251.06,394.22 226,398.55 221.84,399.27 183.61,400.25 182.95,399.66 z M 195.8,320.8 C 197.14,319.46 197.4,312.18 196.18,310.26 195.58,309.31 184.28,308.96 147.45,308.76 L 99.5,308.5 99.5,298.5 99.5,288.5 146.91,288.24 C 179.89,288.06 194.73,287.64 195.66,286.87 196.47,286.19 197,283.67 197,280.46 197,271.15 201.96,272 147.36,272 L 98.932,272 99.216,261.25 99.5,250.5 113.5,250 127.5,249.5 127.76,162.37 C 127.96,94.291 128.28,75.027 129.26,74.279 130.4,73.4 145.19,69.535 147.5,69.51 148.16,69.504 148.67,100.49 149,159.5 L 149.5,249.5 172.5,249.5 195.5,249.5 195.78,204.5 196.05,159.5 175.32,112.75 C 157.65,72.928 154.28,66.006 152.54,66.042 151.42,66.065 143.75,67.809 135.5,69.916 L 120.5,73.749 119.73,85.124 C 117,125.31 111.71,146.41 100.09,163.5 L 96.005,169.5 96.002,244.55 C 96.001,301.59 96.288,319.89 97.2,320.8 98.1,321.7 110.42,322 146.5,322 182.58,322 194.9,321.7 195.8,320.8 z M 301.42,321.39 C 302.84,320.85 303,313.13 303,244.4 L 303,168.02 299.38,163.28 C 288.31,148.77 280,114.95 280,84.379 280,78.261 279.59,74.921 278.75,74.264 277.02,72.908 248.49,65.756 246.45,66.167 245.33,66.391 237.98,81.724 223.88,113.25 L 202.98,160 203.24,204.75 203.5,249.5 226.5,249.5 249.5,249.5 249.76,160.04 C 249.9,110.84 250.35,70.25 250.76,69.835 251.54,69.056 266.04,72.417 269.2,74.11 270.89,75.013 271,79.751 271.24,162.28 L 271.5,249.5 286,250 300.5,250.5 300.5,261 300.5,271.5 252,272 203.5,272.5 203.5,280 203.5,287.5 252,288 300.5,288.5 300.5,298.5 300.5,308.5 252,309 203.5,309.5 203.19,314.37 C 203.02,317.05 203.12,319.87 203.41,320.62 203.85,321.77 212.09,322 251.89,322 278.26,322 300.55,321.73 301.42,321.39 z M 214.97,117.43 C 231.83,81.467 232.43,80.099 231.79,79.456 231.5,79.169 227.72,79.953 223.38,81.199 216.71,83.118 213.13,83.464 200,83.461 188.44,83.458 182.97,83.025 178.5,81.757 175.2,80.822 171.42,79.749 170.1,79.373 167.94,78.758 167.77,78.934 168.32,81.154 168.66,82.51 171.82,89.667 175.34,97.059 178.86,104.45 182.65,112.53 183.78,115 192.84,134.92 199.14,147.12 200.19,146.77 200.86,146.55 207.51,133.34 214.97,117.43 z" />
</svg>
