<?xml version="1.0" encoding="UTF-8" standalone="no"?>
<svg xmlns:svg="http://www.w3.org/2000/svg" xmlns="http://www.w3.org/2000/svg" version="1.1"
     width="420px" height="420px" viewBox="-10 -10 420 420">
    <defs id="def1" />
    <circle cx="200" cy="200" r="205" style="fill :#ffffff; stroke :#000000; stroke-width :2;" />
    <path
         d="M 182.95,399.66 C 182.7,399.43 179.65,398.94 176.17,398.58 141.72,395.01 101.49,377.92 73.5,354.98 64.967,347.99 48.095,330.67 41.857,322.5 19.629,293.4 5.6126,259.36 1.2939,224 0.28176,215.71 0.26369,185.61 1.2655,176.68 4.0578,151.8 13.558,123.17 26.461,100.74 38.193,80.347 56.349,58.948 74,44.711 103.58,20.849 140.49,5.4302 178.5,1.0535 186.78,0.1001 219.84,0.38979 226,1.4697 268.45,8.9092 299.09,22.402 327.5,46.166 350.37,65.296 366.45,85.774 379.59,112.5 389.11,131.86 393.87,147.59 398.52,175 399.6,181.39 399.9,214.38 398.95,222 394.3,259.03 380.33,293.46 358.14,322.5 351.66,330.99 334.85,348.13 326,355.28 301.43,375.13 269.88,390.03 240,395.89 234.22,397.02 227.93,398.22 226,398.55 221.83,399.27 183.6,400.25 182.95,399.66 z M 102.69,303.79 C 103.14,303.12 110.7,282.76 119.5,258.54 L 135.51,214.5 199.95,214.5 264.4,214.5 280.12,258 C 288.77,281.93 296.33,302.29 296.93,303.25 297.87,304.77 299.71,305 310.95,305 318.06,305 324.09,304.66 324.34,304.25 324.6,303.84 321.93,295.62 318.42,286 311.59,267.26 311.49,266.88 312.98,264.24 313.98,262.46 327,215.08 327,213.21 327,211.8 289.15,124.89 287.85,123.32 287.17,122.49 283.19,121.97 276.18,121.78 L 265.56,121.5 265.39,118.21 C 265.3,116.39 264.57,114.14 263.76,113.21 262.95,112.27 254.12,101.51 244.14,89.302 234.15,77.093 224.99,66.406 223.77,65.552 222.02,64.326 218.57,64 207.34,64 199.53,64 192.03,64.418 190.69,64.928 189.01,65.566 185.99,69.767 181.03,78.388 177.05,85.28 173.28,91.347 172.65,91.87 172.02,92.393 165.9,95.261 159.05,98.244 144.57,104.55 141.53,107.29 144.05,111.8 146.52,116.21 149.71,115.79 165.34,108.97 173.13,105.57 180.3,102.02 181.28,101.08 182.26,100.15 184.74,96.516 186.78,93.015 188.83,89.514 191.06,86.466 191.75,86.242 193.51,85.668 193.55,119.05 191.8,120.8 190.91,121.69 180.65,122 151.82,122 L 113.05,122 111.6,124.25 C 109.53,127.45 73,211.67 73,213.22 73,215.33 85.927,262.31 87.177,264.74 88.155,266.64 87.338,269.71 81.73,285.19 78.101,295.21 75.354,303.76 75.625,304.2 76.464,305.56 101.77,305.17 102.69,303.79 z M 91.637,253.22 C 90.749,251.78 81,215.75 81,213.9 81,212.11 115.58,132.22 117.21,130.25 118.73,128.42 186.85,128.44 187.55,130.27 187.82,130.97 183.33,144.13 177.57,159.52 L 167.11,187.5 142.14,188 C 128.4,188.28 116.96,188.72 116.72,189 116.48,189.28 111.2,203.68 104.98,221 98.768,238.32 93.355,252.88 92.955,253.34 92.554,253.8 91.961,253.75 91.637,253.22 z M 306.16,251.91 C 305.66,250.59 300.46,236.27 294.61,220.09 288.76,203.91 283.48,190.08 282.87,189.34 281.97,188.25 272.42,188 232.38,188 186,188 183,187.89 183.05,186.25 183.07,185.29 187.75,172.12 193.45,157 L 203.8,129.5 207.15,129.5 C 210.37,129.5 210.74,129.92 216.72,140.5 220.14,146.55 224.01,153.33 225.33,155.56 227.35,158.99 230.41,161.19 245.11,169.74 254.68,175.3 263.71,180.15 265.2,180.52 267.31,181.04 268.46,180.63 270.45,178.64 276.09,173 273.38,169.78 253.1,158.04 L 237.7,149.12 232.85,140.43 C 230.18,135.66 228,131.13 228,130.37 228,128.45 281.21,128.33 282.76,130.25 284.17,131.99 319,212.3 319,213.8 319,216.02 308.82,252.48 307.94,253.41 307.43,253.95 306.7,253.32 306.16,251.91 z M 222.2,120.8 C 220.45,119.05 220.5,82.976 222.25,83.06 223.71,83.129 252.34,118.15 252.82,120.45 253.1,121.79 251.18,122 238.27,122 228.04,122 223.03,121.63 222.2,120.8 z M 212.09,59.451 C 215.81,57.531 218.99,52.474 218.99,48.5 218.99,41.352 211.55,35.244 204.45,36.575 200.51,37.315 195.06,42.845 194.89,46.285 194.54,53.312 196.3,56.911 201.3,59.376 205.37,61.381 208.32,61.402 212.09,59.451 z"
         style="fill:#004488; stroke :none;" />
</svg>
