<?xml version="1.0" encoding="UTF-8" standalone="no"?>
<svg 
		xmlns:svg="http://www.w3.org/2000/svg"
		xmlns="http://www.w3.org/2000/svg" version="1.1"
     width="420px" height="420px" viewBox="-10 -10 420 420">
    <defs id="def1" />
    <circle cx="200" cy="200" r="205" style="fill :#ffffff;  stroke :#000000; stroke-width :2;" />
    <path style="fill :#004488; stroke :none;" d="M 182.89,399.59 C 182.68,399.4 179.65,398.94 176.17,398.58 141.72,395.01 101.49,377.92 73.5,354.98 64.967,347.99 48.095,330.67 41.857,322.5 19.729,293.53 5.593,259.2 1.2939,224 0.29794,215.85 0.25911,186.86 1.2314,177.34 4.7811,142.6 20.318,105.17 43.507,75.5 50.565,66.469 68.474,48.743 77.5,41.854 106.33,19.853 143.61,4.6694 177.24,1.2405 186.62,0.28431 214.62,0.28538 223,1.2423 260.64,5.5409 298.26,21.715 327.5,46.168 350.36,65.286 366.45,85.772 379.59,112.5 389.13,131.91 393.59,146.63 398.54,175 399.62,181.22 399.91,214.28 398.94,222 394.32,258.97 380.33,293.45 358.14,322.5 351.66,330.99 334.85,348.13 326,355.28 314.42,364.63 301.74,372.66 287.5,379.65 268.78,388.83 252.1,393.96 226,398.56 222.16,399.24 183.52,400.16 182.89,399.59 z M 270.5,343.55 C 276.81,341.65 283.47,335.17 285.41,329.06 286.41,325.91 287.01,317.68 287.35,302.5 287.73,285.21 288.3,278.36 289.98,270.5 293.89,252.24 299.19,238.69 310.41,218.25 319.65,201.44 324,184.38 324,165.02 324,125.41 305.25,90.26 272.48,68.456 253.35,55.73 232.72,49.621 209,49.662 165.24,49.737 127.05,73.146 106.65,112.4 101.64,122.04 98.759,131.23 92.196,158.55 88.441,174.17 85.979,182.54 84.995,183.03 84.173,183.43 82.151,184.17 80.502,184.66 76.494,185.85 75.442,188.43 73.443,202 71.422,215.72 71.902,238.71 74.486,251.89 78.613,272.94 92.477,304.85 98.143,306.33 99.286,306.63 109.8,305.49 121.52,303.79 133.23,302.1 143.53,300.99 144.4,301.32 145.73,301.83 146,303.78 146,312.79 146,326.74 147.6,332.3 153.23,337.87 160.29,344.86 160.19,344.85 216.09,344.93 256.7,344.99 266.56,344.74 270.5,343.55 z M 163.5,331.84 C 158.56,329.12 158.05,327.33 158.02,312.71 L 158,298.93 162.25,297.08 C 170.04,293.68 176,285.23 176,277.59 176,275.68 176.53,273.79 177.18,273.39 178.75,272.42 276.28,270.98 277.27,271.91 277.7,272.31 277.59,275.85 277.03,279.76 276.48,283.67 275.72,295.92 275.35,306.97 L 274.68,327.07 271.31,330.04 267.93,333 216.72,332.97 C 181.4,332.95 164.88,332.6 163.5,331.84 z M 174.23,258.56 C 173.16,256.82 167.1,217.51 167.8,216.86 168.19,216.51 175.7,214.12 184.5,211.55 193.3,208.97 203.2,206.02 206.5,205 209.8,203.97 221.95,200.37 233.5,197 245.05,193.63 257.2,190.03 260.5,189 279.23,183.16 307.97,175 309.83,175 312.62,175 312.66,177.64 310,189 308.53,195.3 305.42,202.67 297.97,217.5 292.44,228.5 286.4,242 284.55,247.5 L 281.19,257.5 265.84,258.21 C 240.89,259.35 174.87,259.61 174.23,258.56 z M 161.12,198.7 C 158.18,193.94 151.07,189.22 144.34,187.57 140.99,186.75 130.06,185.85 118.68,185.46 104.61,184.97 98.716,184.42 98.386,183.56 98.13,182.9 100.84,170.54 104.42,156.11 109.74,134.61 111.8,128.02 115.79,119.68 133.26,83.25 168.39,61.093 208.79,61.022 226.98,60.99 240.72,64.211 256.5,72.212 287.04,87.693 307.99,117.89 312.41,152.76 313.19,158.97 314.48,158.16 294.5,164.04 287.35,166.14 275.43,169.66 268,171.86 260.57,174.06 248.43,177.66 241,179.86 209.09,189.31 199.8,192.05 188,195.49 181.12,197.5 173.57,199.78 171.22,200.57 164.94,202.66 163.4,202.38 161.12,198.7 z M 145.36,170.62 C 147.18,169.86 149.68,167.95 150.93,166.37 152.81,163.99 153.12,162.6 152.77,158.24 151.81,146.54 139.66,142.14 131.32,150.48 128.47,153.33 128,154.49 128,158.68 128,164.19 129.7,167.23 134.37,170.08 138.09,172.35 140.9,172.49 145.36,170.62 z" />
</svg>
