<?xml version="1.0" encoding="UTF-8" standalone="no"?>
<svg xmlns:svg="http://www.w3.org/2000/svg" xmlns="http://www.w3.org/2000/svg" version="1.1"
     width="420px" height="420px" viewBox="-10 -10 420 420">
    <defs id="def1" />
    <circle cx="200" cy="200" r="205" style="fill :#ffffff; stroke :#000000; stroke-width :2;" />
    <path style="fill :#004488; stroke :none;" d="M 182.89,399.59 C 182.68,399.4 179.65,398.94 176.17,398.58 141.72,395.01 101.49,377.92 73.5,354.98 64.967,347.99 48.095,330.67 41.857,322.5 19.735,293.53 5.5919,259.19 1.2939,224 0.28176,215.71 0.26369,185.61 1.2655,176.68 4.7032,146.05 18.013,111.03 35.914,85.5 45.883,71.283 64.356,51.897 77.5,41.857 106.29,19.867 143.61,4.6696 177.24,1.2405 186.63,0.28249 214.6,0.28617 223.12,1.2466 257.43,5.1121 293.87,20.005 322.5,41.854 331.53,48.743 349.44,66.469 356.49,75.5 379.13,104.47 392.71,136.46 398.51,174.5 399.6,181.7 399.9,214.33 398.94,222 394.32,259 380.33,293.45 358.14,322.5 351.66,330.99 334.85,348.13 326,355.28 314.42,364.63 301.74,372.66 287.5,379.65 268.78,388.83 252.1,393.96 226,398.56 222.16,399.24 183.52,400.16 182.89,399.59 z M 283,335.85 C 287.64,333.11 291.18,329.09 293.19,324.26 293.86,322.65 294.64,311.71 295.07,298 296.23,260.5 299.56,248.36 318.83,211.54 352.76,146.72 318.18,68.056 247.11,48.38 204.85,36.681 159.32,50.854 129.71,84.921 126.64,88.453 121.79,95.283 118.94,100.1 L 113.76,108.86 99.461,109.18 C 85.419,109.49 85.088,109.55 80.909,112.5 78.568,114.15 75.606,117.48 74.327,119.91 L 72,124.31 72,208.21 C 72,283.49 72.166,292.43 73.617,295.3 77.466,302.92 83.959,307 92.21,307 95.12,306.99 108.75,305.87 122.5,304.5 136.25,303.14 148.96,302.01 150.75,302.01 L 154,302 154,308.36 C 154,324.92 159.44,334.54 170.76,338.02 172.27,338.48 197.12,338.78 226,338.68 L 278.5,338.5 283,335.85 z M 172.3,326.38 C 166.83,323.68 165.89,321.19 166.21,310.23 L 166.5,300.5 174,299.73 C 189.71,298.12 195.44,295.37 199.08,287.65 200.29,285.1 205.08,261.57 211.54,226.5 217.31,195.15 222.24,168.93 222.49,168.24 222.85,167.25 233.12,167.04 271.22,167.24 L 319.5,167.5 319.83,170.36 C 320.29,174.42 317.31,187.23 313.9,195.83 312.3,199.86 308.32,207.96 305.06,213.83 295.07,231.78 288.14,252.22 285.06,272.78 284.46,276.79 283.69,289.17 283.34,300.28 282.63,323.13 282.04,325.06 275.21,326.96 272.9,327.6 253.41,327.98 223.5,327.97 181.81,327.96 175.08,327.75 172.3,326.38 z M 165.9,286.14 C 164.9,283.28 164.83,283.26 155.13,282.79 146.76,282.39 144.6,281.91 140.03,279.42 133.19,275.7 127.6,268.39 125.54,260.51 124.47,256.38 124,249.81 124,238.9 124,225.52 123.77,223.12 122.42,222.61 121.55,222.27 116.8,222 111.87,222 103.69,222 102.7,221.79 100.45,219.55 99.044,218.14 98,215.93 98,214.35 98,211.43 115.97,135.87 118.66,127.5 119.54,124.75 120.71,121.94 121.25,121.25 122.02,120.28 132.57,120 167.9,120 218.72,120 218,119.91 218,126.36 218,128.15 211.7,163.79 203.99,205.56 193.86,260.48 189.48,282.18 188.17,283.95 186.06,286.81 184.04,287.45 174.2,288.35 L 166.9,289.02 165.9,286.14 z M 158.25,175.04 C 163.28,169.43 161.82,159.9 155.32,155.89 144.58,149.25 131.57,161.54 137.4,172.8 141.27,180.3 152.46,181.5 158.25,175.04 z M 228.61,135.25 C 230.5,122.37 228.86,116.97 221.43,111.74 L 216.97,108.59 217.23,82.546 217.5,56.5 226,56.565 C 259.64,56.82 295.62,81.925 311.45,116.18 314.61,123.03 319,136.71 319,139.73 319,140.74 309.6,141 273.38,141 L 227.77,141 228.61,135.25 z M 128,107.63 C 128,105.94 133.82,97.306 139.43,90.69 145.68,83.311 159.07,72.842 168.89,67.666 173.76,65.1 178.48,63 179.39,63 180.88,63 181.01,65.178 180.77,85.75 L 180.5,108.5 154.25,108.77 C 132.25,108.99 128,108.81 128,107.63 z" />
</svg>
