<?xml version="1.0" encoding="UTF-8" standalone="no"?>
<svg xmlns:svg="http://www.w3.org/2000/svg" xmlns="http://www.w3.org/2000/svg" version="1.1"
     width="420px" height="420px" viewBox="-10 -10 420 420">
    <defs id="def1" />
    <circle cx="200" cy="200" r="205" style="fill :#ffffff; stroke :#000000; stroke-width :2;" />
    <path style="fill :#004488; stroke :none;" d="M 182.96,399.66 C 182.71,399.43 179.65,398.94 176.17,398.58 141.72,395.01 101.49,377.92 73.5,354.98 64.967,347.99 48.095,330.67 41.857,322.5 19.629,293.4 5.6126,259.36 1.2939,224 0.29794,215.85 0.25911,186.86 1.2314,177.34 4.6606,143.78 19.966,106.16 41.857,77.5 48.336,69.018 65.145,51.875 74,44.719 102.29,21.854 136.61,7.0883 174.5,1.4776 181.87,0.38566 214.42,0.09504 221.5,1.058 272.15,7.9498 311.47,27.539 345.02,62.598 358.82,77.018 368.6,90.787 377.9,108.9 388.55,129.63 393.41,145.22 398.51,175 399.6,181.35 399.9,214.35 398.95,222 392.98,269.59 372.56,310.88 338.86,343.53 321.84,360.01 307.1,370.26 285.72,380.48 267.07,389.4 250.54,394.4 226,398.54 221.72,399.26 183.6,400.26 182.96,399.66 z M 172.16,352.7 C 179.37,349.01 185.53,346.71 192.5,345.11 223.47,338.01 235.47,332.91 255,318.55 259.68,315.11 276.55,304.52 292.5,295 308.45,285.49 322.51,276.8 323.75,275.68 327.91,271.93 326.4,265.24 320.87,262.95 317.75,261.65 317.08,261.92 293.58,273.86 280.34,280.59 268.9,286.07 268.18,286.05 264.02,285.9 270.74,281.17 299.5,263.97 317.1,253.44 332.29,244.13 333.25,243.26 336.11,240.69 335.57,234.59 332.25,231.98 328.41,228.96 325.77,229.66 310.5,237.76 269,259.77 264.01,262.18 263.37,260.53 263.03,259.64 262.92,258.75 263.13,258.56 263.33,258.36 277.9,249.57 295.5,239.03 313.1,228.49 328.06,219.13 328.75,218.24 332.25,213.7 328.36,205.99 322.58,206.01 320.53,206.02 308.4,211.91 286.5,223.52 268.35,233.14 252.94,240.8 252.25,240.54 251.56,240.28 251,239.64 251,239.12 251,238.6 261.69,231.55 274.75,223.45 287.81,215.36 299.54,207.74 300.81,206.53 304.17,203.34 304.07,198.32 300.6,195.33 299.11,194.05 296.96,193 295.81,193 294.67,193 281.81,199.13 267.22,206.63 L 240.71,220.26 221.61,219.54 C 211.1,219.14 202.14,218.59 201.7,218.31 201.26,218.04 201.16,214.82 201.49,211.16 202.22,203.05 201.23,199.26 197.73,196.64 193.5,193.49 190.95,195.44 182.88,207.99 L 175.79,219 163.52,219 C 154.01,219 150.97,218.67 150.04,217.55 147.63,214.65 149.54,212.58 160,206.77 171.76,200.22 176.84,195.82 181.08,188.5 184.63,182.38 184.88,177.73 181.78,175.56 180.56,174.7 178.68,174 177.6,174 175.2,174 124.04,201.12 118.5,205.33 116.3,207 111.12,211.6 107,215.54 96.599,225.48 89.069,228.97 77.95,228.99 74.898,229 71.86,229.54 71.2,230.2 69.632,231.77 69.478,296.16 71.035,299.07 71.954,300.78 73.22,301 82.285,301.02 93.357,301.04 101.39,302.42 113.03,306.29 117.14,307.66 123.2,309.35 126.5,310.04 129.8,310.74 133.01,311.8 133.64,312.4 134.27,313.01 139.83,322.5 146,333.5 159.23,357.09 159.78,358 160.93,358 161.42,358 166.47,355.62 172.16,352.7 z M 115,301.06 C 102.82,297.02 97.116,295.85 86.171,295.13 L 76.5,294.5 76.5,265.06 76.5,235.61 84,234.24 C 94.902,232.25 103.17,227.8 111.48,219.46 122.17,208.73 121.19,209.35 163.14,187.16 174.14,181.34 178,179.95 178,181.8 178,183.29 172.29,191.48 169.38,194.16 167.8,195.62 162.18,199.11 156.89,201.92 145.93,207.75 144.14,209.38 143.35,214.24 142.88,217.14 143.28,218.29 145.79,221.09 L 148.8,224.46 159.96,224.84 C 168.83,225.15 171.02,225.5 170.61,226.58 170.32,227.32 167.43,232.11 164.19,237.22 156.08,249.96 154.52,253.27 151.5,264 150.06,269.12 148.05,274.93 147.03,276.91 144.15,282.49 138.34,288.69 131.89,293.07 128.65,295.27 126,297.42 126,297.85 126,298.27 126.66,299.49 127.47,300.56 128.28,301.63 128.95,302.84 128.97,303.25 129.03,304.72 123.37,303.83 115,301.06 z M 186.92,246.4 C 185.79,245.04 186.02,244.01 188.42,239.56 189.98,236.67 192.78,232.22 194.64,229.66 L 198.02,225 208.76,225.01 C 219.91,225.02 227,225.77 227,226.94 227,227.89 191.3,248 189.62,248 188.86,248 187.65,247.28 186.92,246.4 z M 228,191.59 C 228,189.63 225.27,187.68 223.49,188.37 221.01,189.32 220.47,192.14 222.48,193.61 224.53,195.11 228,193.84 228,191.59 z M 195.5,185 C 195.5,183.17 194.9,182.41 193.25,182.18 191.89,181.99 190.75,182.49 190.39,183.43 189.39,186.02 190.79,188.17 193.25,187.82 194.9,187.59 195.5,186.83 195.5,185 z M 258.5,185 C 258.5,183.17 257.9,182.41 256.25,182.18 254.89,181.99 253.75,182.49 253.39,183.43 252.39,186.02 253.79,188.17 256.25,187.82 257.9,187.59 258.5,186.83 258.5,185 z M 227.38,177.77 C 228.21,176.44 228.08,175.66 226.81,174.38 223.81,171.39 219.35,175.3 222.05,178.56 223.6,180.43 225.92,180.09 227.38,177.77 z M 201.81,170.68 C 201.59,169.11 200.81,168.5 199.01,168.5 196.2,168.5 195.12,171.23 197.02,173.53 198.75,175.61 202.22,173.55 201.81,170.68 z M 252.8,170.59 C 252.59,169.11 251.77,168.5 250.01,168.5 246.93,168.5 246,171.8 248.56,173.67 250.83,175.33 253.23,173.59 252.8,170.59 z M 227.38,162.77 C 228.21,161.44 228.08,160.66 226.81,159.38 223.81,156.39 219.35,160.3 222.05,163.56 223.6,165.43 225.92,165.09 227.38,162.77 z M 206.99,159.51 C 208.47,157.73 207.68,155.2 205.38,154.31 203.01,153.41 200.76,156.69 202.07,159.14 203.27,161.38 205.31,161.54 206.99,159.51 z M 247.38,158.77 C 248.21,157.44 248.08,156.66 246.81,155.38 243.81,152.39 239.35,156.3 242.05,159.56 243.6,161.43 245.92,161.09 247.38,158.77 z M 226.99,148.51 C 228.78,146.36 227.47,144 224.5,144 223.09,144 221.68,144.68 221.36,145.51 220.69,147.24 222.63,150 224.5,150 225.19,150 226.31,149.33 226.99,148.51 z M 212.99,145.51 C 214.78,143.36 213.47,141 210.5,141 209.09,141 207.68,141.68 207.36,142.51 206.69,144.24 208.63,147 210.5,147 211.19,147 212.31,146.33 212.99,145.51 z M 241.5,144 C 241.5,141.02 238.05,140.04 236.04,142.45 234.99,143.71 234.99,144.29 236.04,145.55 238.05,147.96 241.5,146.98 241.5,144 z M 236.1,132.58 C 237.14,126.19 238.54,125.7 253.91,126.4 261.28,126.73 271.07,127 275.66,127 283.71,127 284,127.08 284,129.31 284,134.45 285.6,135.1 297.51,134.79 L 308.5,134.5 308.77,117.13 C 308.96,105.17 308.69,99.333 307.9,98.382 307.07,97.379 304.11,97.004 297.13,97.015 287.02,97.031 285.98,97.308 284.28,100.42 283.28,102.25 281.76,102.35 253.79,102.42 L 224.35,102.5 220.68,105.3 C 215.07,109.57 213.67,113.11 213.19,124.23 212.96,129.58 213.04,134.66 213.37,135.51 213.87,136.81 215.73,137.02 224.72,136.78 L 235.47,136.5 236.1,132.58 z M 308.8,85.666 C 308.98,82.225 308.62,79.251 307.93,78.416 306.16,76.287 287.73,76.416 285.57,78.571 283.67,80.473 283.43,89.032 285.23,90.831 286.09,91.693 289.76,91.977 297.48,91.781 L 308.5,91.5 308.8,85.666 z" />
</svg>
