<?xml version="1.0" encoding="UTF-8" standalone="no"?>
<svg xmlns:svg="http://www.w3.org/2000/svg" xmlns="http://www.w3.org/2000/svg" version="1.1"
     width="420px" height="420px" viewBox="-10 -10 420 420">
    <defs id="def1" />
    <circle cx="200" cy="200" r="205" style="fill :#ffffff; stroke :#000000; stroke-width :2;" />
    <path style="fill:#004488; stroke :none;" d="M 182.89,399.59 C 182.68,399.4 179.65,398.94 176.17,398.58 156.95,396.59 132.77,389.46 113.21,380.01 90.74,369.16 73.795,356.82 56,338.34 25.664,306.84 6.5262,266.84 1.2939,224 0.30355,215.89 0.25697,186.87 1.2192,177.5 4.527,145.31 17.541,111.79 38,82.76 45.515,72.098 63.137,53.473 74,44.711 103.84,20.641 140.35,5.3747 178,1.2176 186.51,0.27804 214.69,0.29612 223.12,1.2466 257.43,5.1121 293.87,20.005 322.5,41.854 331.53,48.743 349.44,66.469 356.49,75.5 384.97,111.94 399.6,153.88 399.76,199.5 399.86,231.07 393.67,258.45 380,286.79 363.93,320.11 339.43,347.83 307.98,368.29 284.69,383.43 259.88,392.59 226,398.56 222.16,399.24 183.52,400.16 182.89,399.59 z M 180.51,306.34 C 184.31,305.82 190.99,302.27 212.9,289.09 L 240.5,272.5 259.86,250 C 270.5,237.62 279.63,226.43 280.13,225.13 283.44,216.53 273.66,207.52 264.71,210.92 263.38,211.43 254.63,220.76 245.27,231.67 235.91,242.58 227.4,252.23 226.37,253.13 223.97,255.22 181.62,263.01 172.84,262.98 164.25,262.95 160.18,260.83 150.25,251.26 142.97,244.24 142,242.89 142,239.76 142,237.82 142.79,235.31 143.75,234.2 144.71,233.09 152.25,228.28 160.5,223.51 168.75,218.73 177.37,213.02 179.65,210.8 188.33,202.39 191.79,190.91 187.59,184.5 186.04,182.13 185.3,181.83 182.06,182.26 179.58,182.6 161.5,192.51 127.92,211.96 100.19,228.02 75.989,242.31 74.141,243.71 67.725,248.59 67.047,251.74 67.022,276.79 67.003,296.11 67.226,299.42 68.702,301.67 72.11,306.87 72.652,306.92 126.11,306.96 153.4,306.98 177.88,306.7 180.51,306.34 z M 180.76,254.9 C 184.76,254.24 188.66,253.21 189.43,252.6 190.2,252 196.49,244.82 203.4,236.66 214.06,224.09 215.82,221.54 214.97,219.94 214.41,218.9 213.09,217.59 212.04,217.02 209.6,215.72 203.42,215.7 201,217 198.08,218.56 167.9,255.03 168.6,256.16 168.94,256.71 170.18,256.92 171.36,256.63 172.54,256.33 176.77,255.56 180.76,254.9 z M 213.5,248.92 C 217.35,248.28 221.3,247.33 222.28,246.83 224.22,245.81 248,218.35 248,217.11 248,215.54 243.41,212.17 241,211.98 233.56,211.38 234.05,210.97 215.05,233.59 202.91,248.04 200.63,251.84 204.83,250.58 205.75,250.31 209.65,249.56 213.5,248.92 z M 190.05,163.3 C 198.13,154.09 201.07,139.33 197.49,125.97 193.79,112.16 193.62,110.36 195.34,103.41 196.23,99.819 197.86,95.598 198.98,94.035 201.65,90.281 201.88,80.276 199.32,79.293 196.85,78.346 189.6,86.816 186.92,93.78 183.67,102.2 183.18,114.88 185.77,123.68 190.08,138.32 189.4,145.6 182.91,154.24 180.76,157.1 179,160.28 179,161.29 179,167.93 185.02,169.02 190.05,163.3 z M 345.45,115.08 C 346.3,113.71 335.19,97.603 326.7,87.886 318.29,78.271 304.1,65.986 293.12,58.818 L 285.74,54 266.62,54.003 247.5,54.005 234.07,63.977 C 226.69,69.462 220.29,74.523 219.84,75.225 218.79,76.879 218.79,94.113 219.83,95.765 220.28,96.461 226.46,101.28 233.57,106.48 L 246.5,115.92 295.69,115.96 C 324.6,115.98 345.12,115.62 345.45,115.08 z M 255.2,107.8 C 253.93,106.53 253.4,65.735 254.61,62.582 255.13,61.224 257.66,61 272.51,61 L 289.81,61 290.4,65.75 C 291.16,71.981 290.51,106.37 289.59,107.85 288.58,109.49 256.85,109.45 255.2,107.8 z M 208.79,86.142 C 209.1,77.255 207.97,73.947 205.37,76.11 204.41,76.901 204,79.731 204,85.456 204,94.032 204.39,95.262 206.95,94.774 208.17,94.54 208.56,92.718 208.79,86.142 z M 216.39,93.418 C 216.73,92.548 217,88.985 217,85.5 217,77.873 216.39,76 213.89,76 212.18,76 212,76.833 212,84.833 212,89.692 212.3,93.967 212.67,94.333 213.85,95.515 215.77,95.044 216.39,93.418 z" />
</svg>
