<?xml version="1.0" encoding="UTF-8" standalone="no"?>
<svg xmlns:svg="http://www.w3.org/2000/svg" xmlns="http://www.w3.org/2000/svg" version="1.1"
     width="420px" height="420px" viewBox="-10 -10 420 420">
    <defs id="def1" />
    <circle cx="200" cy="200" r="205" style="fill :#ffffff; stroke :#000000; stroke-width :2;" />
    <path style="fill :#004488; stroke :none;" d="M 178,398.89 C 142.55,394.9 106.46,380.26 77.5,358.14 69.014,351.66 51.872,334.85 44.721,326 35.367,314.42 27.339,301.74 20.351,287.5 -13.078,219.38 -4.8048,138.59 41.857,77.5 48.336,69.018 65.145,51.875 74,44.719 134.25,-3.9732 217.21,-13.615 286.79,19.988 327.54,39.669 359.39,71.419 379.59,112.5 413,180.46 404.73,261.51 358.14,322.5 351.66,330.98 334.86,348.13 326,355.28 296.23,379.34 259.08,394.75 220.79,398.94 209.66,400.16 188.99,400.13 178,398.89 z M 210,349.32 C 218.38,345.91 223.94,337.31 223.98,327.72 224,320.84 222.06,315.71 217.7,311.16 208.01,301.05 193.19,300.75 183.47,310.47 172.45,321.49 174.52,339.94 187.62,347.63 195.23,352.08 201.96,352.59 210,349.32 z M 206.32,269.55 C 211.33,267.76 213.71,265.51 216.6,259.8 218.67,255.72 220.53,243.78 230.56,170.3 238.54,111.81 241.97,83.835 241.62,80.133 240.93,72.758 237,65.253 230.41,58.712 212.98,41.421 187.29,41.513 169.96,58.93 162.91,66.004 159.75,72.514 159.24,81 158.97,85.531 162.05,111.13 169.42,165.5 175.23,208.4 180.46,246.38 181.05,249.9 182.78,260.34 186.7,266.24 194.01,269.41 198.32,271.28 201.38,271.31 206.32,269.55 z" />
</svg>
