<?xml version="1.0" encoding="UTF-8" standalone="no"?>
<svg xmlns:svg="http://www.w3.org/2000/svg" xmlns="http://www.w3.org/2000/svg" version="1.1"
     width="420px" height="420px" viewBox="-10 -10 420 420">
    <defs id="def1" />
    <circle cx="200" cy="200" r="205" style="fill :#ffffff; stroke :#000000; stroke-width :2;" />
    <path style="fill :#004488; stroke :none;" d="M 183.95,399.65 C 183.7,399.42 180.35,398.92 176.5,398.54 143.99,395.38 106.35,380.03 77.5,358.18 68.711,351.52 50.732,333.7 43.523,324.5 20.247,294.79 5.7167,260.21 1.2939,224 0.28276,215.72 0.2633,185.61 1.2633,176.7 5.317,140.61 21.777,101.8 45.035,73.5 52.083,64.926 68.228,49.184 77,42.334 101.87,22.914 136.24,7.6916 166,2.9209 182.11,0.33802 207.47,-0.39742 222.5,1.2825 238.76,3.1003 260.1,8.5283 274.9,14.613 338.23,40.641 383.65,96.168 396.48,163.25 398.66,174.62 399.5,185 399.5,200.5 399.5,217.34 398.61,226.43 395.51,241.29 384.8,292.53 353.68,338.11 309.5,367.28 287.76,381.63 254.04,394.63 231,397.54 227.97,397.92 224.6,398.45 223.5,398.71 220.87,399.34 184.54,400.2 183.95,399.65 z M 218.62,352.46 C 232.35,350.07 241.84,345.01 252.76,334.25 266.33,320.88 274.98,307.58 282.49,288.5 L 285.64,280.5 299.57,279.91 C 317.05,279.17 324.51,276.45 332.7,267.86 337.83,262.47 339.48,257.23 346.03,225.52 352.82,192.64 352.98,190 348.69,180.63 344.22,170.87 334.88,162.88 322.87,158.53 L 316.5,156.22 316.22,141.08 C 315.95,126.04 315.93,125.92 313.5,125 312,124.43 310.82,122.99 310.45,121.29 308.27,111.21 304.35,99.364 300.93,92.5 290.83,72.232 272.92,57.517 250,50.64 234.73,46.059 229.24,45.5 199.5,45.5 169.83,45.5 163.42,46.207 148,51.183 118.05,60.845 98.827,82.475 90.978,115.34 88.923,123.94 88.547,124.62 85.5,125.16 83.628,125.5 83.468,126.51 83,140.92 L 82.5,156.31 75.727,159.05 C 60.571,165.19 50.191,177.03 48.378,190.26 47.551,196.29 59.051,253.23 62.597,260.66 66.638,269.13 75.308,275.65 86.5,278.64 89.25,279.38 96.507,279.98 102.63,279.99 110.34,280 114.05,280.38 114.71,281.25 115.23,281.94 116.69,285.43 117.94,289 123.33,304.4 133.5,320.32 146.1,333.11 157.36,344.52 168.54,350.51 183,352.87 191.88,354.32 209.05,354.12 218.62,352.46 z M 187.5,342.37 C 176.72,340.25 173.74,339.38 168.76,336.87 161.94,333.44 150.87,323.27 143.96,314.09 134.48,301.51 126.79,284.3 123.47,268.19 122.61,264.05 121.29,259.5 120.53,258.08 119.09,255.39 114,235.33 114,232.34 114,231.4 114.98,229.58 116.18,228.31 L 118.36,225.98 116.61,216.69 C 114.55,205.72 114.12,204.88 109.8,203.44 107,202.5 106.3,201.6 105.14,197.42 103.18,190.32 102.51,167.36 103.99,158.16 107.23,138.07 117.99,117.72 132.61,104.05 145.02,92.433 159.64,84.268 176,79.814 183.25,77.839 186.85,77.503 200.5,77.522 214.08,77.54 217.69,77.885 224.38,79.805 260.22,90.088 285.54,115.58 294.58,150.51 298.17,164.37 298.28,182.54 294.84,195 292.5,203.5 292.5,203.5 289.17,203.5 287.21,203.5 285.34,204.19 284.62,205.17 283.95,206.09 282.57,211.24 281.56,216.62 L 279.71,226.4 282.9,229.06 286.1,231.73 282.47,245.61 C 280.47,253.25 277.98,263.32 276.93,268 271.81,290.86 263.16,307.51 248.29,323.12 236.8,335.19 228.68,339.78 215,341.95 208.78,342.94 191.7,343.2 187.5,342.37 z M 102.04,123.36 C 101.96,119.4 107.08,103.63 110.76,96.537 113.27,91.685 117.06,86.829 122.95,80.897 130.1,73.708 133.06,71.531 141,67.642 157.36,59.629 162.16,58.796 195,58.267 232.14,57.669 242.98,59.328 260.5,68.292 271.1,73.713 284,86.398 289.2,96.5 294.14,106.11 299.42,124.01 297.3,123.99 296.86,123.99 294.51,120.76 292.08,116.82 259.58,64.149 188.25,49.94 137.2,85.968 127.38,92.903 116.08,104.51 110.06,113.83 107.35,118.05 104.44,122.4 103.61,123.5 102.1,125.49 102.09,125.49 102.04,123.36 z" />
</svg>
