<?xml version="1.0" encoding="UTF-8" standalone="no"?>
<svg xmlns:svg="http://www.w3.org/2000/svg" xmlns="http://www.w3.org/2000/svg" version="1.1"
     width="420px" height="420px" viewBox="-10 -10 420 420">
    <defs id="def1" />
    <circle cx="200" cy="200" r="205" style="fill :#ffffff; stroke :#000000; stroke-width :2;" />
    <path style="fill :#004488; stroke :none;" d="M 182.89,399.59 C 182.68,399.4 179.65,398.94 176.17,398.58 141.72,395.01 101.49,377.92 73.5,354.98 64.967,347.99 48.095,330.67 41.857,322.5 19.962,293.83 5.5478,258.83 1.2939,224 0.29794,215.85 0.25911,186.86 1.2314,177.34 4.8381,142.04 21.791,101.84 45.02,73.5 52.014,64.967 69.333,48.095 77.5,41.857 106.29,19.867 143.61,4.6696 177.24,1.2405 186.63,0.28249 214.6,0.28617 223.12,1.2466 259.04,5.2941 297.13,21.391 326,44.719 334.86,51.875 351.66,69.018 358.14,77.5 371.59,95.103 383.15,116.98 389.91,137.6 393.3,147.94 395.42,157.12 398.54,175 399.62,181.22 399.91,214.28 398.94,222 394.32,258.97 380.33,293.45 358.14,322.5 351.66,330.99 334.85,348.13 326,355.28 314.42,364.63 301.74,372.66 287.5,379.65 268.78,388.83 252.1,393.96 226,398.56 222.16,399.24 183.52,400.16 182.89,399.59 z M 150.84,309.7 C 151.43,308.98 152.05,304.37 152.21,299.45 152.5,290.6 152.53,290.5 155.15,290.19 158.39,289.82 167.45,293.84 180.05,301.26 197.8,311.71 193.14,311.06 248.31,310.76 L 296.5,310.5 296.36,304.63 C 296.29,301.4 295.71,298.44 295.09,298.05 294.4,297.63 293.85,293.63 293.69,287.93 293.38,276.46 291.58,272.17 285.08,267.44 280.58,264.16 270.68,260.9 261,259.5 253.85,258.47 243.76,255.88 240.5,254.24 238.85,253.41 234.35,249.75 230.5,246.11 223.71,239.69 216.65,233.92 197.09,218.78 191.92,214.78 186.3,209.77 184.59,207.66 L 181.5,203.81 181.52,189.66 C 181.53,181.87 181.96,164.47 182.47,151 182.99,137.53 183.43,119.53 183.45,111 L 183.5,95.5 132.22,95.241 C 85.572,95.005 80.888,95.129 80.318,96.614 79.745,98.107 80.968,118.92 84.249,163.5 86.351,192.07 85.968,198.99 81.226,218 75.723,240.07 74.735,246.37 75.155,256.74 75.42,263.27 76.082,266.66 77.757,270.07 79.657,273.93 80.157,277.31 80.994,291.9 81.539,301.4 82.24,309.58 82.551,310.08 82.877,310.61 97.311,311 116.44,311 142.58,311 149.99,310.72 150.84,309.7 z M 210.5,301.52 C 209.95,301.34 207.13,300.47 204.23,299.57 201.34,298.68 193.24,295.22 186.23,291.89 163.59,281.1 169,282 126.5,282 89.625,282 89.054,281.97 87.958,279.92 85.244,274.85 84.887,274.89 128.23,275.21 L 168.5,275.5 184.54,283.22 C 210.03,295.49 204.14,294.39 247.39,294.98 280.82,295.44 285.4,295.69 286.3,297.11 286.86,298 287.04,299.46 286.69,300.36 286.12,301.84 282.42,301.99 248.78,301.92 228.28,301.88 211.05,301.7 210.5,301.52 z M 277.53,283.46 C 274.44,280.69 269.9,277.99 265.53,276.32 256.94,273.03 256,272.36 256,269.5 256,261.23 275.08,263.31 285.09,272.68 291.12,278.33 292.58,283.3 289.03,286.17 285.6,288.95 282.97,288.33 277.53,283.46 z M 329.52,295.3 C 330.53,291.86 330.51,290.75 329.4,289.16 328.25,287.52 328.28,286.42 329.62,281.91 330.64,278.47 331.07,274.04 330.83,269.36 330.53,263.28 329.99,261.45 327.48,257.89 323.64,252.44 316.01,247.39 303.5,242.02 288.43,235.55 286.71,234.1 276.16,218.99 270.98,211.57 261.89,199.16 255.95,191.4 243.78,175.5 241,170.86 241,166.49 241,164.81 246.87,141.65 254.04,115.02 261.2,88.392 266.94,65.937 266.79,65.124 266.5,63.669 264.88,63.183 243.5,58.17 238.55,57.009 228.87,54.738 222,53.123 174.88,42.056 168.84,40.764 168.01,41.595 166.49,43.127 159.74,82.139 160.81,83.209 161.34,83.737 162.83,84.019 164.13,83.835 166.31,83.527 166.69,82.559 168.77,72 170.01,65.675 171.52,58.084 172.11,55.131 L 173.19,49.762 176.85,50.342 C 178.86,50.66 184.32,51.839 189,52.961 193.68,54.083 201.32,55.894 206,56.986 240.92,65.144 256.43,69.033 257.23,69.833 257.81,70.407 253.47,88.149 245.93,116.13 234.2,159.59 232.72,166.9 234.33,173.24 234.72,174.74 242.08,185.31 250.69,196.74 259.31,208.16 269.01,221.55 272.26,226.5 281.38,240.42 283.98,242.63 297.55,248.02 309.71,252.85 314.31,255.53 318.79,260.39 322.82,264.76 323,265.23 322.97,271.23 322.95,275.36 322.17,279.38 320.7,283 L 318.46,288.5 312.48,288.5 C 306.95,288.5 306.47,288.68 306.17,290.87 305.98,292.17 306.34,293.74 306.96,294.36 308.17,295.57 324.57,299.93 326.89,299.66 327.66,299.57 328.84,297.61 329.52,295.3 z" />
</svg>
