<?xml version="1.0" encoding="UTF-8" standalone="no"?>
<svg xmlns:svg="http://www.w3.org/2000/svg" xmlns="http://www.w3.org/2000/svg" version="1.1"
     width="420px" height="420px" viewBox="-10 -10 420 420">
    <defs id="def1" />
    <circle cx="200" cy="200" r="205" style="fill :#ffffff; stroke :#000000; stroke-width :2;" />
    <path style="fill:#004488; stroke :none;" d="M 183.95,399.65 C 183.7,399.42 180.49,398.92 176.8,398.55 142.53,395.13 105.02,379.56 75.5,356.49 66.471,349.44 48.745,331.53 41.854,322.5 19.765,293.56 5.5828,259.12 1.2939,224 0.26335,215.56 0.27067,184.36 1.3051,176.01 5.5976,141.35 20.033,106.25 41.822,77.5 53.023,62.721 74.229,43.312 91.5,32.03 112.76,18.145 146.37,5.3191 169,2.4608 172.03,2.0787 175.4,1.5538 176.5,1.2945 181.78,0.05041 214.2,0.20646 224,1.5231 263.26,6.7969 298.58,22.028 327.5,46.148 363.75,76.387 388.55,118.97 396.91,165.32 401.44,190.46 400.23,224.38 393.95,248.5 384.75,283.84 368.16,313.47 343.1,339.32 322.92,360.13 300.28,375.25 273.29,385.94 262.3,390.29 239.94,396.42 231,397.55 227.97,397.92 224.6,398.45 223.5,398.71 220.87,399.34 184.54,400.2 183.95,399.65 z M 221.12,358.93 C 222.84,358.01 223,356.54 223,341.37 223,326.69 223.22,324.51 224.9,322.13 228.18,317.53 230.3,309.45 229.73,303.72 L 229.21,298.5 270.69,215.79 C 293.5,170.3 311.87,132.6 311.5,132.01 311.14,131.41 302.26,126.64 291.78,121.39 276.12,113.55 272.5,112.09 271.47,113.18 270.79,113.9 251.9,151.09 229.5,195.81 192.02,270.64 188.47,277.31 185.05,279.47 176.14,285.09 170,295.74 170,305.58 170,310.58 172.38,318.29 175.12,322.15 176.78,324.5 177,326.76 177,341.35 177,353.48 177.33,358.1 178.25,358.69 181.73,360.94 217,361.14 221.12,358.93 z M 193.38,319.56 C 191.66,318.82 188.98,316.53 187.41,314.48 181.69,306.97 184.88,295.04 193.6,291.39 204.42,286.87 214.99,293.85 214.99,305.5 214.99,317.17 204.13,324.24 193.38,319.56 z M 154.81,180.5 C 168.11,172.8 178.98,166.05 178.97,165.5 178.96,164.17 121.83,131.13 120.46,131.65 119.25,132.12 116,137.31 116,138.78 116,139.31 123.2,143.91 132,149 140.8,154.09 148,158.65 148,159.13 148,159.61 131.45,160 111.2,160 83.911,160 74.09,160.31 73.2,161.2 71.396,163 71.673,169.66 73.582,170.39 74.452,170.73 91.552,171 111.58,171 133.5,171 148,171.37 148,171.93 148,172.45 141.29,176.75 133.08,181.49 124.87,186.23 117.64,190.72 117.02,191.48 115.72,193.04 117.96,198.47 120.23,199.26 121.63,199.75 120.82,200.19 154.81,180.5 z M 221.42,131.39 C 222.83,130.85 223,125.95 223,86.368 L 223,41.95 220.25,40.809 C 216.29,39.166 182.21,39.176 179.25,40.821 L 177,42.07 177,85.835 C 177,118.54 177.3,129.9 178.2,130.8 179.47,132.07 218.27,132.6 221.42,131.39 z" />
</svg>
