<?xml version="1.0" encoding="UTF-8" standalone="no"?>
<svg xmlns:svg="http://www.w3.org/2000/svg" xmlns="http://www.w3.org/2000/svg" version="1.1"
     width="420px" height="420px" viewBox="-10 -10 420 420">
    <defs id="def1" />
    <circle cx="200" cy="200" r="205" style="fill :#ffffff; stroke :#000000; stroke-width :2;" />
    <path style="fill:#004488; stroke :none;" d="M 182.95,399.66 C 182.7,399.43 179.65,398.94 176.17,398.58 141.72,395.01 101.49,377.92 73.5,354.98 64.967,347.99 48.095,330.67 41.857,322.5 19.7,293.49 5.5987,259.25 1.2939,224 0.29794,215.85 0.25911,186.86 1.2314,177.34 4.7722,142.68 20.375,105.1 43.507,75.5 50.565,66.469 68.474,48.743 77.5,41.854 106.94,19.381 142.09,5.1709 178,1.2158 186.52,0.27775 214.7,0.29694 223.12,1.2466 260.07,5.41 298.61,21.997 327.5,46.166 350.37,65.296 366.45,85.774 379.59,112.5 388.92,131.47 394.14,148.72 398.53,175 399.6,181.45 399.9,214.41 398.95,222 393.97,261.69 378.37,298.18 353.83,327.5 334.37,350.76 312.82,367.53 285.72,380.48 267.04,389.41 251.31,394.17 226,398.55 221.83,399.27 183.6,400.25 182.95,399.66 z M 231.24,358.77 C 238.44,353.27 238,360.55 238,248.07 238,160.49 238.2,146.86 239.45,146.38 240.74,145.89 257.18,157.6 259.23,160.47 259.64,161.04 259.98,172.53 260,186 260.03,209.48 260.13,210.67 262.27,214.5 264.69,218.82 271.43,223 276,223 280.96,223 287.33,218.84 289.78,214 292.03,209.57 292.06,209.04 291.78,179 291.55,154.28 291.22,147.94 290,145.54 289.18,143.91 283.32,138.6 277,133.74 270.68,128.88 264.32,123.89 262.87,122.65 L 260.24,120.39 263.11,109.45 C 266.79,95.411 268.92,80.996 269.69,64.952 L 270.3,52.194 266.19,50.097 C 259.01,46.434 259,46.443 258.98,60.25 258.96,74.061 257.18,89.22 253.99,102.81 251.55,113.22 250.9,113.67 245.04,109.03 242.98,107.4 240.07,105.6 238.58,105.03 236.96,104.41 224.83,104 208.4,104 185.88,104 180.27,104.28 177.23,105.55 174.95,106.5 166.81,113.78 155.98,124.55 L 138.43,142 113.18,142 C 94.122,142 87.136,142.33 84.671,143.36 79.872,145.37 76.238,150.23 75.409,155.75 74.806,159.77 75.083,161.19 77.205,165 81.851,173.34 82.381,173.46 115.69,173.81 135.32,174.01 146.26,173.74 149.11,172.97 152.46,172.07 155.77,169.45 165,160.42 171.42,154.14 176.96,149 177.33,149 177.7,149 177.99,160.59 177.98,174.75 L 177.96,200.5 157.32,217 C 129.07,239.58 127.53,241.03 126.01,246.45 125.11,249.68 125.03,252.04 125.74,254.73 127.89,262.92 151.34,322.69 153.54,325.61 157.01,330.21 162.18,332.32 168.68,331.78 174.68,331.28 178.25,329.16 181.75,324.01 185.97,317.8 185.13,313.51 174,284.45 168.5,270.1 164,257.9 164,257.36 164,256.13 200.36,227 201.89,227 202.69,227 203.01,243.68 203.04,286.75 203.09,349.71 203.19,351.18 207.65,356.21 211.68,360.74 215.17,362.13 221.63,361.76 226.38,361.5 228.54,360.83 231.24,358.77 z M 213.11,354.44 C 211.43,353.03 209.6,350.21 209.03,348.19 208.39,345.86 208.01,322.56 208.01,285.19 L 208,225.89 211.25,222.9 C 215.3,219.17 225.59,214.01 229.54,213.72 L 232.5,213.5 232.76,280.79 C 232.98,339.45 232.82,348.45 231.49,351.02 228.27,357.24 218.58,359.04 213.11,354.44 z M 160.42,325.11 C 156.58,322.77 156.78,323.22 141.92,284.17 L 129.62,251.84 131.06,247.69 C 132.32,244.06 135.3,241.26 154.5,225.7 166.6,215.9 177.32,207.42 178.33,206.86 179.86,206.01 181.39,207.15 188.06,214.17 192.41,218.75 195.86,223.02 195.74,223.66 195.61,224.29 187.26,231.41 177.19,239.47 167.13,247.53 158.68,254.68 158.42,255.35 158.16,256.02 162.69,268.93 168.48,284.03 180.63,315.74 181.02,317.92 175.47,323.47 172.54,326.4 171.21,327 167.72,327 165.36,326.99 162.14,326.17 160.42,325.11 z M 270.76,216.43 C 265.36,213.5 265,211.45 265,183.61 L 265,158.12 253.25,149.08 C 246.79,144.1 240.76,140.02 239.86,140.02 238.96,140.01 237.16,140.86 235.86,141.91 233.52,143.8 233.5,144.04 233,168.66 L 232.5,193.5 230.25,193.82 C 228.82,194.02 227.75,193.5 227.33,192.41 226.42,190.06 228.65,144.83 230.52,127.5 232.3,110.97 233.07,108.57 236.25,109.58 237.48,109.97 248.91,118.33 261.65,128.16 279.37,141.83 285.07,146.76 285.91,149.16 286.6,151.15 287,162.75 287,180.78 287,207.64 286.88,209.45 284.97,212.54 283.06,215.64 278.67,218.05 275.1,217.96 274.22,217.94 272.27,217.25 270.76,216.43 z M 197.1,208.42 C 192.3,203.16 191.02,200.98 192.75,201.01 193.16,201.02 195.89,201.66 198.82,202.44 201.75,203.22 207.03,204.17 210.57,204.54 214.11,204.92 216.98,205.52 216.95,205.87 216.89,206.84 205.08,214 203.55,214 202.81,214 199.91,211.49 197.1,208.42 z M 199.66,191.57 C 194.8,190.28 190.36,188.76 189.79,188.19 188.95,187.35 188.61,171.93 188.99,151.75 189.01,150.57 216.78,150.84 217.52,152.03 217.87,152.6 217.84,162.28 217.44,173.53 L 216.72,194 212.61,193.95 C 210.35,193.93 204.52,192.85 199.66,191.57 z M 87.326,167.9 C 83.864,166.9 80,161.72 80,158.08 80,155.07 82.542,150.43 85.217,148.56 87.099,147.24 91.538,147 113.82,147 L 140.19,147 158.75,129 C 168.95,119.1 177.75,111 178.29,111 178.92,111 179.02,116.28 178.57,125.75 L 177.86,140.5 165.2,153.25 C 158.24,160.26 151.11,166.67 149.37,167.5 146.77,168.73 141.2,168.98 118.35,168.91 103.03,168.86 89.072,168.41 87.326,167.9 z M 200.25,140.25 C 192.33,140.03 188.97,139.57 188.9,138.72 188.59,135.13 189.19,112.24 189.62,110.75 190.08,109.18 191.75,109 205.98,109 216.37,109 221.96,109.37 222.19,110.07 222.73,111.68 219.94,136.16 218.92,138.75 218.23,140.52 217.35,140.95 214.77,140.79 212.97,140.67 206.44,140.43 200.25,140.25 z M 219.52,94.541 C 227.6,89.808 231.92,78.345 228.98,69.451 225.86,59.976 214.91,53.147 205.18,54.602 199.16,55.502 192.13,60.53 189.23,66 185.77,72.53 186.34,82.148 190.54,88.207 194.87,94.456 202.76,98.325 209.8,97.646 212.91,97.345 216.92,96.067 219.52,94.541 z M 201.4,91.095 C 187.69,84.867 189.43,63.922 203.99,60.002 214.38,57.204 225,65.551 225,76.518 225,80.806 223.18,84.548 219.34,88.186 213.96,93.273 208.24,94.201 201.4,91.095 z" />
</svg>
