<?xml version="1.0" encoding="UTF-8" standalone="no"?>
<svg xmlns:svg="http://www.w3.org/2000/svg" xmlns="http://www.w3.org/2000/svg" version="1.1"
     width="420px" height="420px" viewBox="-10 -10 420 420">
    <defs id="def1" />
    <circle cx="200" cy="200" r="205" style="fill :#ffffff; stroke :#000000; stroke-width :2;" />
    <path style="fill:#004488; stroke :none;" d="M 182.89,399.59 C 182.68,399.4 179.65,398.94 176.17,398.58 141.72,395.01 101.49,377.92 73.5,354.98 64.967,347.99 48.095,330.67 41.857,322.5 19.962,293.83 5.5478,258.83 1.2939,224 0.29882,215.85 0.25878,186.86 1.2294,177.36 2.8109,161.89 9.211,137.28 15.495,122.5 22.084,107 32.362,89.76 43.507,75.5 50.565,66.469 68.474,48.743 77.5,41.854 106.33,19.853 143.61,4.6694 177.24,1.2405 186.63,0.28249 214.6,0.28617 223.12,1.2466 257.43,5.1121 293.87,20.005 322.5,41.854 331.53,48.743 349.44,66.469 356.49,75.5 365.96,87.614 373.44,99.613 380.01,113.21 389.22,132.29 393.69,147.19 398.54,175 399.62,181.22 399.91,214.28 398.94,222 396.06,245.04 390.12,265.57 380.48,285.72 370.26,307.1 360.02,321.83 343.53,338.86 326.32,356.64 310,368.54 287.69,379.59 269.35,388.67 252.21,393.94 226,398.56 222.16,399.24 183.52,400.16 182.89,399.59 z M 282.35,334.92 C 287.75,333.42 294.32,326.59 295.76,320.97 296.39,318.51 297.12,307.5 297.39,296.5 298.11,266.16 301.19,254.42 316.15,225 326.65,204.34 329.82,193.76 330.67,176.5 333.44,119.86 289.59,70.981 232.79,67.398 227.68,67.075 222.1,66.188 220.39,65.425 213.23,62.235 207.16,61.881 164.86,62.19 123.9,62.49 122.35,62.571 117.82,64.661 112.01,67.347 104.43,74.229 101.97,79.057 99.173,84.542 97.872,94.187 98.203,107 L 98.5,118.5 124.6,119 C 144.67,119.38 151.08,119.82 152.35,120.87 153.81,122.09 154,125.37 154,149.29 154,173.06 153.8,176.56 152.35,178.17 150.83,179.85 148.63,180 125.47,180 104.97,180 100.03,180.26 99.073,181.41 98.202,182.46 97.979,196.49 98.201,236.16 L 98.5,289.5 101.11,295 C 104.49,302.12 109.97,307.62 116.93,310.89 122.34,313.43 123.14,313.51 145.31,313.82 161.77,314.05 168.21,314.47 168.44,315.32 168.62,315.97 169.29,318.42 169.93,320.77 171.38,326.11 176.27,331.76 181.49,334.14 185.18,335.81 189.18,335.96 232,335.97 261.99,335.98 279.87,335.61 282.35,334.92 z M 185.31,324.56 C 181.99,323.09 178.49,317.77 179.36,315.51 179.74,314.52 184.08,314.12 197.18,313.85 213.74,313.52 214.75,313.38 220.16,310.72 226.38,307.67 231.67,302.41 235.21,295.8 L 237.5,291.5 238,233.5 238.5,175.5 279.5,175.5 320.5,175.5 320.21,180 C 319.37,193.1 316.01,203.09 305.94,222.5 291.88,249.57 288.06,264.76 287.13,297.23 L 286.5,318.96 283.23,322.23 279.96,325.5 234.23,325.73 C 196.74,325.92 187.93,325.71 185.31,324.56 z M 105.65,272.17 C 100.72,266.72 108.72,258.72 113.91,263.91 116.4,266.4 116.56,268.76 114.44,271.78 112.52,274.52 107.97,274.73 105.65,272.17 z M 122.58,272.09 C 120.11,269.36 120.88,264.91 124.13,263.09 126.49,261.77 127.04,261.8 129.38,263.33 131.18,264.51 132,265.93 132,267.87 132,273.23 126.03,275.9 122.58,272.09 z M 138.56,271.78 C 137.7,270.56 137,268.96 137,268.23 137,266.41 141.57,262 143.45,262 145.78,262 149,265.69 149,268.35 149,273.56 141.53,276.02 138.56,271.78 z M 238.67,149.33 C 238.3,148.97 238,135.03 238,118.37 238,93.451 237.72,87.248 236.43,83.44 235.56,80.894 235.11,78.556 235.42,78.244 236.43,77.234 250.29,80.163 258.38,83.096 272.2,88.111 281.38,94.023 292.84,105.29 304.49,116.75 315.28,135.22 316.76,146.23 L 317.26,150 278.3,150 C 256.87,150 239.03,149.7 238.67,149.33 z M 149.77,150.62 C 149.96,133.11 149.7,125.34 148.9,124.37 147.99,123.28 142.93,123 124,123 98.621,123 97.012,123.31 98.478,127.93 99.093,129.87 100.03,129.97 119.31,130.23 L 139.5,130.5 139.5,148 139.5,165.5 119.55,165.77 C 105.11,165.97 99.375,166.38 98.811,167.27 97.845,168.79 97.756,174.42 98.683,175.35 99.059,175.73 110.65,175.91 124.43,175.77 L 149.5,175.5 149.77,150.62 z" />
</svg>
