<?xml version="1.0" encoding="UTF-8" standalone="no"?>
<svg xmlns:svg="http://www.w3.org/2000/svg" xmlns="http://www.w3.org/2000/svg" version="1.1"
     width="420px" height="420px" viewBox="-10 -10 420 420">
     <defs id="def1" />
    <circle cx="200" cy="200" r="205" style="fill :#ffffff; stroke :#000000; stroke-width :2;" />
     <path style="fill :#004488; stroke :none;" d="M 184,399.44 C 182.62,399.2 177.45,398.5 172.5,397.88 139.86,393.81 105.31,379.36 77.5,358.14 68.478,351.26 50.567,333.53 43.507,324.5 1.4241,270.66 -11.043,201.03 10.052,137.65 17.035,116.68 28.507,94.98 41.857,77.5 48.726,68.508 65.396,51.669 75,44.023 104.65,20.419 139.44,5.9439 177.02,1.5706 193.91,-0.39444 205.93,-0.41316 222.51,1.4998 296.95,10.092 359.46,58.49 386.51,128.47 391.5,141.38 396.24,159.58 398.11,173 399.82,185.19 399.82,214.75 398.12,227 393.53,260.14 380.4,292.19 360.43,319.03 329.33,360.82 285.04,387.97 233,397.14 222.09,399.06 190.44,400.54 184,399.44 z M 164,324.77 164,290.54 148.88,267.81 C 139.46,253.66 133.97,244.51 134.34,243.56 134.66,242.72 135.5,242.27 136.21,242.55 136.92,242.84 145.6,255.29 155.5,270.22 165.4,285.16 174.61,298.71 175.96,300.33 181.99,307.57 194.28,309.95 203.5,305.65 210.22,302.52 276.62,264.4 280.86,261.24 284.92,258.2 288.98,249.92 288.99,244.62 289.03,229.36 274.08,217.56 260.37,222.02 258.24,222.72 245.16,229.8 231.29,237.77 217.43,245.73 205.46,252.01 204.7,251.71 203.93,251.42 193.29,234.83 181.06,214.84 168.82,194.85 157.74,177.08 156.43,175.35 151.74,169.14 148.13,168.26 120.14,166.55 84.266,164.36 80.52,164.44 74.278,167.55 71.465,168.95 67.943,171.7 66.453,173.65 61.133,180.62 61,182.16 60.996,236.41 L 60.991,286.5 66.555,294.7 C 81.623,316.91 108.27,338.78 134,350.05 143.8,354.34 157.78,358.91 161.25,358.96 L 164,359 164,324.77 z M 332.85,217.43 C 349.16,204.47 362.5,193.34 362.5,192.7 362.5,190.9 298.86,164.75 296.83,165.71 292.76,167.63 233.09,208.6 233.06,209.5 233.03,210.05 237.78,212.6 243.61,215.17 254,219.76 254.27,219.82 258.22,218.42 263.37,216.6 268.36,216.62 274.57,218.47 281.02,220.4 286.39,224.94 290.22,231.73 292.56,235.89 294.3,237.65 297.41,239.04 299.66,240.04 301.88,240.89 302.35,240.93 302.82,240.97 316.54,230.39 332.85,217.43 z M 208.92,217.75 C 216.3,215.4 222.5,212.99 222.7,212.39 223.06,211.32 197.57,179.84 195.78,179.14 194.5,178.65 173.81,185.99 172.14,187.54 171,188.59 172.41,191.46 180.51,204.65 192.1,223.51 191.85,223.18 193.89,222.53 194.78,222.25 201.54,220.1 208.92,217.75 z M 261.97,183.77 C 278.42,172.62 292.07,163.05 292.28,162.5 292.5,161.95 287.91,149.57 282.09,135 274.41,115.78 271.06,108.5 269.9,108.5 267.99,108.5 205.25,147.02 204.63,148.57 204.26,149.49 224.17,195.89 227.9,202.83 228.65,204.22 229.73,204.93 230.6,204.6 231.4,204.29 245.51,194.92 261.97,183.77 z M 220,196.65 C 220,196.46 215.05,185.57 209,172.45 202.95,159.34 198,148.09 198,147.46 198,146.83 211.05,138.33 227.01,128.56 242.96,118.8 256.99,110.02 258.18,109.05 L 260.35,107.3 258.11,104.15 C 256.87,102.42 255.15,101 254.28,101 252.24,101 177,145.15 177,146.34 177,147.51 218.26,196.96 219.25,196.98 219.66,196.99 220,196.84 220,196.65 z M 131.64,152.51 C 154.03,145.86 167.42,120.04 159.96,97.89 147.35,60.451 95.904,57.387 79.554,93.101 68.866,116.45 80.812,143.67 105.49,152.2 111.78,154.38 124.84,154.53 131.64,152.51 z" />
</svg>
