<?xml version="1.0" encoding="UTF-8" standalone="no"?>
<svg xmlns:svg="http://www.w3.org/2000/svg" xmlns="http://www.w3.org/2000/svg" version="1.1"
     width="420px" height="420px" viewBox="-10 -10 420 420">
    <defs id="def1" />
    <circle cx="200" cy="200" r="205" style="fill :#ffffff; stroke :#000000; stroke-width :2;" />
    <path style="fill:#004488; stroke :none;" d="M 182.9,399.6 C 182.68,399.4 179.65,398.94 176.17,398.58 141.72,395.01 101.49,377.92 73.5,354.98 64.967,347.99 48.095,330.67 41.857,322.5 19.629,293.4 5.6126,259.36 1.2939,224 0.29794,215.85 0.25911,186.86 1.2314,177.34 4.8381,142.04 21.791,101.84 45.02,73.5 52.014,64.967 69.333,48.095 77.5,41.857 106.29,19.867 143.61,4.6696 177.24,1.2405 186.63,0.28249 214.6,0.28617 223.12,1.2466 259.04,5.2941 297.13,21.391 326,44.719 334.86,51.875 351.66,69.018 358.14,77.5 371.59,95.103 383.15,116.98 389.91,137.6 393.3,147.93 395.44,157.21 398.53,175 399.62,181.24 399.91,214.29 398.94,222 394.32,259 380.33,293.45 358.14,322.5 351.66,330.99 334.85,348.13 326,355.28 297.62,378.21 266.86,391.52 226,398.55 222.07,399.22 183.52,400.17 182.9,399.6 z M 153.95,314.31 C 172.68,303.48 187.98,294.15 187.96,293.56 187.94,292.98 172.53,283.66 153.71,272.86 129.07,258.71 119.06,253.44 117.93,254.05 117.07,254.5 115.51,256.76 114.48,259.05 112.17,264.16 110.59,262.75 133.25,275.68 142.46,280.94 150,285.64 150,286.12 150,286.61 132.14,287 109.54,287 70.552,287 69.032,287.07 68.035,288.93 66.63,291.56 66.727,297.33 68.2,298.8 69.094,299.69 79.707,300 109.78,300 140.28,300 150.07,300.29 149.77,301.18 149.56,301.82 141.2,307.1 131.19,312.91 121.19,318.71 113,324.06 113,324.78 113,326.9 117.38,333.98 118.7,333.99 119.35,334 135.22,325.14 153.95,314.31 z M 284.75,329.75 C 285.99,327.41 287,325.03 287,324.46 287,323.89 278.82,318.71 268.83,312.94 258.83,307.18 250.47,301.92 250.25,301.25 249.93,300.3 259,299.96 290.67,299.76 L 331.5,299.5 331.5,293.5 331.5,287.5 290.75,287.24 C 268.34,287.1 250,286.59 250,286.12 250,285.65 257.55,280.94 266.77,275.66 289.68,262.54 288.01,264.09 285.15,258.63 283.85,256.16 282.25,253.93 281.59,253.67 279.87,253.01 211.99,292.25 212.27,293.75 212.53,295.15 278.68,333.84 281,333.94 281.83,333.97 283.52,332.09 284.75,329.75 z M 304.08,234.42 306.5,231.84 306.5,188.45 306.5,145.05 304.22,142.78 301.95,140.5 259.48,140.22 C 211.29,139.9 211.94,139.81 209.98,147.06 209.26,149.75 209,164.62 209.2,191.64 L 209.5,232.18 212.31,234.59 215.11,237 258.38,237 301.65,237 304.08,234.42 z M 236.23,211.16 C 235.25,210.54 235.02,205.3 235.23,188.43 L 235.5,166.5 258,166.5 280.5,166.5 280.77,188.43 C 280.98,205.3 280.75,210.54 279.77,211.16 279.07,211.61 269.27,211.97 258,211.97 246.72,211.97 236.93,211.61 236.23,211.16 z M 274.5,189 274.5,172.5 258,172.5 241.5,172.5 241.22,187.96 C 241.07,196.46 241.17,204.01 241.45,204.73 241.85,205.76 245.5,205.99 258.23,205.77 L 274.5,205.5 274.5,189 z M 142.08,230 147.3,224 166.2,224 C 185.01,224 185.1,223.99 187.59,221.5 L 190.08,219.01 189.79,187.92 C 189.52,158.49 189.4,156.76 187.56,155.42 186.05,154.31 181.5,154 167.03,154 L 148.44,154 141.98,147.48 135.52,140.96 115.01,141.23 94.5,141.5 94,147.5 93.5,153.5 67.219,153.77 40.938,154.03 40.005,156.49 C 39.491,157.84 38.047,164.02 36.795,170.22 34.89,179.66 34.517,184.7 34.509,201.1 34.502,216.16 34.815,221.07 35.86,222.33 37.05,223.77 40.721,224 65.36,224.23 L 93.5,224.5 93.782,229 C 94.25,236.46 92.796,236 115.9,236 L 136.86,236 142.08,230 z M 102.46,226.75 C 102.19,226.06 102.09,208.4 102.24,187.5 L 102.5,149.5 106.5,149.5 110.5,149.5 110.76,188.75 111.02,228 106.98,228 C 104.66,228 102.73,227.47 102.46,226.75 z M 154.46,207.75 C 154.18,207.03 154.08,198.13 154.23,187.97 L 154.5,169.5 166,169.5 177.5,169.5 177.5,189 177.5,208.5 166.23,208.78 C 157.64,209 154.84,208.75 154.46,207.75 z M 364.17,222.75 C 365.04,221.18 365.42,214.73 365.43,201.5 365.45,181.91 363.88,168.82 360.15,157.5 L 358.5,152.5 335.5,152.5 312.5,152.5 312.24,187.49 C 312.09,206.74 312.19,223.05 312.46,223.74 312.82,224.71 318.8,225 337.93,225 362.82,225 362.94,224.99 364.17,222.75 z" />
</svg>
