<?xml version="1.0" encoding="UTF-8" standalone="no"?>
<svg xmlns:svg="http://www.w3.org/2000/svg" xmlns="http://www.w3.org/2000/svg"
     version="1.0" width="575" height="575" id="svg2">
    <defs />
	<g style="fill:none;stroke:#000000;stroke-width:6;stroke-linecap:butt;stroke-linejoin:miter;stroke-miterlimit:4;">
    <path d="M 573.75,287.53 A 286.25,286.36 0 0 1 1.25,287.53 286.25,286.36 0 1 1 573.75,287.53 z"
         style="fill:#FFFFFF;stroke-width:1;" />
    <path d="M 135.88,466.32 C 135.88,466.32 181.47,424.05 205.1,408.23 216.82,400.39 212.24,401.33 226.53,402.14 248.32,403.38 289.85,412.12 289.85,412.12" />
    <path d="M 66.393,348.09 H 111.27 L 109.34,323.97 C 95.583,323.71 97.873,303.7 97.873,303.7 97.873,303.7 96.583,292.07 106.44,285.84 L 108.37,258.34 C 120.05,230.31 152.28,229.94 152.28,229.94 152.28,229.94 188.7,221.5 200.54,270.89 200.28,273.74 202.92,279.5 206.81,280.54 V 283.43 H 128.16" />
    <path d="M 147.46,374.15 C 168.74,374.67 180.52,367.21 190.41,343.71 193.52,328.14 195.45,304.45 194.94,283.43" />
    <path d="M 249.76,345.68 H 188.48" />
    <path d="M 176.14,340.29 C 176.14,349.96 170.27,357.81 163.04,357.81 155.8,357.81 149.93,349.96 149.93,340.29 149.93,330.62 155.8,322.77 163.04,322.77 170.27,322.77 176.14,330.62 176.14,340.29 z" />
    </g>
    <path d="M 286.99,9.6298 C 218.46,9.6298 155.71,34.578 107.27,75.88 106,76.964 104.74,78.055 103.49,79.161 102.99,79.605 102.49,80.057 101.99,80.505 100.92,81.465 99.857,82.434 98.801,83.411 98.52,83.672 98.238,83.93 97.958,84.192 96.708,85.358 95.466,86.536 94.239,87.723 92.831,89.086 91.43,90.457 90.051,91.848 88.698,93.214 87.345,94.581 86.02,95.973 84.646,97.419 83.301,98.905 81.958,100.38 81.804,100.55 81.642,100.71 81.489,100.88 80.327,102.16 79.189,103.45 78.051,104.75 76.809,106.18 75.609,107.62 74.395,109.07 74.348,109.12 74.286,109.17 74.239,109.22 33.743,157.6 9.3329,219.95 9.3329,288 9.3329,441.66 133.71,566.34 286.99,566.34 355.67,566.34 418.53,541.27 467.02,499.81 L 467.05,499.84 C 467.44,499.51 467.83,499.18 468.21,498.84 468.37,498.71 468.52,498.57 468.68,498.44 469.62,497.62 470.56,496.8 471.49,495.97 472.23,495.31 472.95,494.66 473.68,494 473.89,493.81 474.1,493.63 474.3,493.44 475.27,492.55 476.22,491.65 477.18,490.75 478.04,489.94 478.89,489.13 479.74,488.31 479.86,488.2 479.97,488.08 480.09,487.97 481.17,486.91 482.23,485.85 483.3,484.78 483.62,484.47 483.93,484.16 484.24,483.84 485.49,482.58 486.73,481.29 487.96,480 488.08,479.87 488.21,479.75 488.34,479.62 489.74,478.14 491.15,476.64 492.52,475.12 493.78,473.73 495.01,472.32 496.24,470.91 496.47,470.64 496.7,470.39 496.93,470.12 497.98,468.91 499.02,467.67 500.05,466.44 540.38,418.11 564.68,355.89 564.68,288 564.68,134.34 440.27,9.6172 286.99,9.6172 z M 286.99,71.692 C 406.1,71.692 502.77,168.6 502.77,288 502.77,338.85 485.25,385.62 455.93,422.56 L 151.43,119.78 C 188.48,89.72 235.64,71.688 286.99,71.688 z M 118.37,153.1 422.93,455.94 C 385.81,486.18 338.51,504.31 286.99,504.31 167.88,504.31 71.24,407.4 71.24,288 71.24,237 88.876,190.09 118.37,153.09 z"
         style="fill:#CC0000; stroke:none;" />
    <path d="M 287.04,318.7 298.6,161.04 C 301.47,134.54 332.81,140.48 332.23,161.57 L 327.5,246.18 C 326.39,257.98 336.29,258.03 336.96,248.28 L 348,136.87 C 354.79,114.26 384.3,123.34 383.2,141.08 L 371.12,257.21 C 368.29,270.36 379.38,269.39 381.1,262.47 L 392.66,160.52 C 398.83,139.6 429.97,149.48 427.35,165.25 L 412.63,276.66 C 408.99,287.46 418.17,287.12 420.52,279.81 L 444.16,219.9 C 452.05,206.91 475.08,216.25 468.86,234.09 468.86,234.09 440.31,307.25 435.85,317.31 425.77,340.04 422.93,367.72 417.89,384.38 412.63,398.05 386.58,429.76 367.2,438.08 346.25,447.08 302.24,437.84 286.51,424.99 263.14,405.9 269.44,397.82 263.64,389.57 255.17,377.55 240.69,348.99 236.59,339.19 229.76,328.95 214.85,310.63 210.84,303.98 202.53,290.47 214.53,282.12 222.92,281.39 238.27,280.14 245.65,286.11 253.4,296.1 L 275.48,326.05 C 279.77,335.66 287.46,333.66 287.04,318.7 z"
         style="fill:#000000;fill-rule:evenodd;" />
</svg>
