<?xml version="1.0" encoding="UTF-8" standalone="no"?>
<svg
     xmlns:svg="http://www.w3.org/2000/svg"
     xmlns="http://www.w3.org/2000/svg"
     version="1.1" width="575px" height="575px" viewBox="-2 -2 180 180">
	<g transform="translate(-200,-295)" style="fill-rule:evenodd;">
		<circle cx="288.8" cy="383.5" r="88.2" style="fill:#FFFFFF; stroke:#000000; stroke-width:1;" />
		<path style="fill:#808080; stroke:none;" d="m 315.66,324.09 c -0.0913,40.938 -0.20216,81.875 -0.28125,122.81,20.499 -8.4154,36.309 -27.272,40.438 -49.188,5.5806 -24.838 -4.6259 -51.968 -24.595 -67.498 -4.6606 -3.893 -9.957 -6.8976 -15.561 -9.221 v 3.0938 z" />
		<path style="fill:#000000; stroke:none;" d="m 299.97,385.59 c 0.13733 -4.1744,8.9212 -3.992,8.0483 -0.47044 -0.81768,3.0428 -4.7246,4.8398 -6.6296,1.7709 -0.47289 -0.43349 -0.94579 -0.86698 -1.4187 -1.3005 z m 12.6 -9.9 c 2.8208,5.3134 -8.2137,9.1696 -8.9544,4.1553,2.9188 -3.122,2.4984 -8.4059,8.9544 -4.1553 z m -21,19.8 c -3.8877,5.5896 -6.9154,12.47 -13.461,15.466 -9.7632,6.2287 -19.856,12.377 -27.662,21.054 -0.94968,2.4818 -3.5506,5.7176 -5.4166,1.8721 -5.6176 -4.8487 -10.464 -10.616 -14.118 -17.083 -0.41495 -4.7639,4.2507  -8.045,5.3013 -12.515,4.9001 -11.62,7.0069 -24.132,10.816 -36.106,4.4862 -6.7414,12.296 -10.002,18.961 -14.111,4.7033 -2.5601,9.2695 -5.4018,14.011 -7.8684,5.3312 -1.3786,10.746,0.95414,16.153,0.57363,5.6736,0.46012,11.504 -0.3861,17.079,0.78087,2.9147,4.1147 -2.9202,9.0809 -7.1162,8.892 -6.5199,1.5038 -13.291,1.9683 -19.947,1.2442 -3.5241,1.7567 -8.7702,4.1071 -9.0874,8.3836,3.6787 -1.8141,7.8254 -3.8678,11.806 -1.0102,2.1091,1.5708,8.6044,2.0872,4.2262,5.3806 -2.0287,1.9518 -5.1015,6.5944 -5.3573,7.7674,6.0384 -3.5036,8.1897 -11.239,14.71 -14.165,4.0227 -3.3589,13.192,0.30829,7.3048,5.2243 -6.4493,8.457 -12.423,17.293 -18.202,26.22 z" />
		<path style="fill:#CC0000; stroke:none;" d="m 288.77,298.5 c 22.902,0.29859,45.769,9.5062,61.356,26.516,24.483,24.467,30.691,64.709,15.155,95.58 -6.8363,15.001 -19.08,27.216 -32.784,36.089 -24.132,14.397 -55.405,16.154 -80.642,3.5054 -14.999 -6.837 -27.214 -19.08 -36.088 -32.783 -14.238 -23.888 -16.132 -54.757 -3.9034 -79.869,7.8783 -17.235,22.187 -31.522,39.077 -40.013,11.753 -5.9775,24.707 -8.6327,37.83 -9.0256 z m 52.138,127.31 l -94.274 -94.274 c 21.174 -17.763,53.597 -19.84,76.987 -5.1407,24.654,14.336,37.529,45.616,30.273,73.179 -2.2252,9.638 -6.8858,18.495 -12.987,26.235 z m -104.28 -84.26 l 94.274,94.274 c -20.275,16.846 -50.698,19.773 -73.788,7.0491 -21.55 -11.554 -36.151 -35.406 -35.339 -59.995 -0.0531 -14.931,5.4347 -29.855,14.853 -41.327 z" />
		<path style="fill:#FFFFFF; stroke:none;" d="m 347.37,365.19 -9,31.5,5.7 -3 -11.7,16.5 -3.6 -19.2,4.2,4.8,2.7 -19.5 -15.6,8.1,10.8 -35.7,12,0 -12,24.6,16.5 -8.1" />
		<path style="fill:#000000; stroke:none;" d="m 329.07,375.09,16.8 -8.4 -8.7,31.8,4.2 -2.4 -8.4,12 -2.7 -14.1,3,3.6,3.6 -22.5 -15.6,7.8,10.2 -33.6,9.9,0 -12.3,25.8" />
	</g>
</svg>
