<?xml version="1.0" encoding="UTF-8" standalone="no"?>
<svg
     xmlns:svg="http://www.w3.org/2000/svg"
     xmlns="http://www.w3.org/2000/svg"
     version="1.1"
     viewBox ="0 0 1530 1530"
     width="575px"
     height="575px">
    <defs
         id="defs3" />
    <g transform="translate(289.71,201.05)"
         id="layer1">

        <path d="M 434.82,1327.7 C 336.74,1322.3 247.32,1300.4 157.63,1259.8 63.752,1217.3 -21.028,1155.2 -91.87,1077.1 -144.39,1019.3 -193.21,944.87 -221.68,879.33 -259.22,792.92 -281,709.19 -286.6,629.83 -287.16,621.86 -288.13,608.36 -288.76,599.83 -291.59,561.24 -287.87,490.17 -280.64,444.83 -262.42,330.45 -223.94,233.65 -156.62,132.83 -138.81,106.17 -132.93,98.999 -90.285,51.942 -42.959,-0.27492 -27.776,-14.546 15.319,-47.316 87.069,-101.88 172.24,-144.67 260.72,-170.63 379.32,-205.43 509.37,-210.52 631.82,-185.15 747.12,-161.27 857.24,-109.81 949.32,-36.788 956.19,-31.336 965.19,-23.887 969.32,-20.234 1025.6,29.625 1051,56.646 1091.1,109.56 1099.5,120.54 1125.9,160.77 1136.7,178.83 1146.4,195.2 1167.2,235.76 1175.8,255.33 1204.4,320.07 1224.6,392.59 1233.8,462.7 1237.6,491.91 1240.3,532.42 1240.3,559.48 1240.4,764.45 1162,957.74 1020.9,1100.2 1003.4,1117.8 958.37,1157.6 940.32,1171.3 892.17,1207.8 844.84,1236.6 798.22,1257.7 747.42,1280.7 693.64,1299.1 644.32,1310.2 578.46,1325.1 502.95,1331.4 434.82,1327.7 z"
        style="fill:#ffffff;fill-opacity:1; stroke:none;" />


        <path
             d="M 492.43,1204.7 C 493.18,1201.4 497.37,1181.7 501.74,1160.8 517.12,1087.2 570.32,839.37 579.14,800.29 581.55,789.57 584.09,777.47 584.77,773.41 L 587.26,761.65 636.91,811.29 C 684.08,858.45 682.17,851.59 681.35,854.67 680.9,856.39 662.07,936.87 640.27,1021.3 618.48,1105.7 599.17,1180.4 597.38,1187.2 594.29,1199 593.97,1199.7 591.2,1200.5 579.75,1203.7 531.62,1209.2 508.67,1210 L 491.06,1210.6 z M 747.86,1145 C 738.64,1099.4 724.51,1030 710.26,960.48 700.53,913.01 692.87,866.38 693.23,866.01 693.59,865.65 725.54,900.78 763.46,938.74 812.63,987.95 831.16,1004 831.16,1005.6 831.16,1007.4 842.38,1081.3 844.34,1091.7 844.95,1095 844.75,1095.3 837.63,1100.3 819.76,1112.9 779.39,1136.4 761.29,1144.8 747.98,1151 749.06,1151 747.86,1145 z M 71.612,1069.1 C 65.383,1064.1 55.786,1056.1 50.286,1051.4 36.963,1040 -6.0962,996.58 -17.715,982.79 -39.797,956.59 -67.341,917.37 -83.725,888.8 -169.6,739.04 -193.71,566.69 -151.71,402.79 -133.9,333.28 -103.71,265.46 -64.227,206.29 -49.468,184.17 -26.77,153.45 -25.1,153.33 -24.762,153.31 -19.41,158.71 -13.207,165.34 -6.653,172.35 -1.3805,177.18 -0.6218,176.89 0.15537,176.6 0.48125,176.92 0.1832,177.7 -0.11027,178.46 21.235,192.48 45.484,217.79 L 85.036,259.07 83.786,367.68 C 83.125,425.13 84.17,471.29 84.649,471.29 85.858,471.29 92.337,464.19 106.82,447 121.57,429.48 123.84,426.84 147.29,399.84 157.19,388.43 166.89,377.18 168.84,374.82 178.94,362.66 183.1,356.74 184.97,357.77 187.55,359.17 213.81,387.73 213.81,388.95 213.81,389.5 202.44,401.6 192.25,413.38 182.05,425.16 169.46,439.7 164.25,445.71 159.05,451.72 155,456.84 155.25,457.09 155.79,457.63 165.1,450.75 196.46,426.62 209.2,416.81 221.05,407.96 222.78,406.94 L 229.62,402.41 243.96,417.26 C 251.49,425.06 257.71,431.53 258.22,432.46 258.99,433.87 245.43,443.94 191.54,484.42 156.2,510.97 119.86,538.36 110.79,545.31 101.71,552.25 92.374,559.2 90.036,560.74 87.044,562.72 85.477,564.63 84.738,567.17 84.016,569.67 83.783,649.7 83.988,824.54 84.152,964.1 83.983,1078.3 83.612,1078.3 83.242,1078.3 77.842,1074.2 71.612,1069.1 z M 434.47,849.54 C 407.69,849.28 405.7,849.14 406.15,847.53 406.42,846.57 416.18,797.64 427.84,738.79 439.5,679.94 451.31,625.75 451.77,625.23 452.7,624.22 528.54,699.17 529.43,701.97 529.9,703.47 496.45,847.41 495.21,849.42 494.91,849.9 487.61,850.19 478.98,850.06 470.35,849.93 450.32,849.7 434.47,849.54 z M 879.38,845.44 C 879.09,844.97 876.6,832.71 873.86,818.19 853.96,712.88 835.04,612.47 831.75,594.72 829.61,583.12 827.45,572.55 826.96,571.23 826.17,569.1 825.94,569.47 825.04,574.3 824.48,577.32 816.96,616.47 808.34,661.29 799.72,706.12 792.19,745.81 791.61,749.5 790.7,755.3 790.92,758.45 793.25,772.84 794.73,781.99 796.4,799.01 796.2,799.21 795.99,799.42 719.49,725.54 633.47,638.48 L 479.24,482.37 485.78,448.14 C 488.65,433.09 491.42,419.83 491.85,418.67 492.39,417.23 493.88,416.31 496.46,415.82 501.4,414.9 525.43,407.56 558.79,396.8 573.36,392.09 590.18,386.85 596.17,385.14 L 607.05,382.04 618.76,388.15 C 631.55,394.84 646.66,400.2 660.44,402.96 673.88,405.65 702.98,405.43 715.97,402.54 733.67,398.6 749.76,392.28 762.41,384.29 765.89,382.09 769.69,380.29 770.85,380.29 774.26,380.29 796.21,385.59 826.79,393.81 842.46,398.02 863.84,403.67 874.29,406.36 896.02,411.95 899.52,413.32 900.25,416.51 900.54,417.77 916.79,513.74 936.36,629.79 955.93,745.84 972.19,842.03 972.49,843.54 L 973.04,846.29 926.47,846.29 C 900.86,846.29 879.67,845.91 879.38,845.44 z M 666.29,370.25 C 635.7,362.54 610.86,337.95 602.65,307.28 599.77,296.49 599.51,276.56 602.11,265.96 609.84,234.56 632.15,211.17 663.49,201.63 671.3,199.25 673.9,198.95 686.79,198.96 704.14,198.97 712.49,200.84 726.29,207.79 755.71,222.62 773.85,252.08 774,285.29 774.12,310.64 765.21,331.24 746.46,348.93 736.7,358.14 726.96,363.95 713.79,368.41 705.05,371.37 703.09,371.65 689.29,371.94 676.82,372.21 672.94,371.92 666.29,370.25 z M 342.19,345.59 325.55,328.59 349.06,311.49 C 368.13,297.62 392.98,278.22 483.85,209.84 582.32,135.75 646.7,86.78 646.74,85.951 646.77,85.489 637.9,75.896 627.04,64.633 616.17,53.371 607.15,43.791 606.99,43.347 606.83,42.902 613.57,35.953 621.97,27.905 L 637.24,13.272 653.61,29.531 C 674.41,50.196 712.81,90.196 712.71,91.102 712.68,91.481 709.64,93.997 705.96,96.694 702.29,99.391 660.14,131.15 612.29,167.26 564.44,203.38 488.84,260.3 444.29,293.75 399.74,327.21 357.78,358.3 357.2,358.75 356.55,359.25 351.49,355.09 342.19,345.59 z M 279.52,281.89 263.45,265.79 271.49,256.78 C 274.35,253.57 306.7,215.69 343.6,172.79 L 410.7,94.791 273.24,94.537 135.79,94.284 135.79,72.787 135.79,51.291 145.54,51.211 C 178.2,50.942 505.06,51.227 505.35,51.525 505.55,51.725 498.42,60.219 489.5,70.402 480.58,80.585 470.48,92.263 467.06,96.353 463.63,100.44 458.06,106.94 454.69,110.79 429.92,139.03 422.18,148.01 408.16,164.79 399.43,175.24 389.1,187.16 385.21,191.29 381.33,195.42 371.19,206.89 362.68,216.79 333.18,251.14 294.61,296.32 294.43,296.32 294.33,296.32 287.81,290.2 279.52,281.89 z M 75.41,74.043 C 71.258,68.326 66.728,62.954 66.985,62.168 67.233,61.41 71.074,57.977 75.521,54.538 L 83.606,48.284 84.268,56.538 C 84.632,61.077 84.785,68.391 84.608,72.791 L 83.036,84.541 z"
             style="fill:#000000;stroke:none;" />

        <path
             d="M 434.82,1327.7 C 336.74,1322.3 247.32,1300.4 157.63,1259.8 63.752,1217.3 -21.028,1155.2 -91.87,1077.1 -144.39,1019.3 -193.21,944.87 -221.68,879.33 -259.22,792.92 -281,709.19 -286.6,629.83 -287.16,621.86 -288.13,608.36 -288.76,599.83 -291.59,561.24 -287.87,490.17 -280.64,444.83 -262.42,330.45 -223.94,233.65 -156.62,132.83 -138.81,106.17 -132.93,98.999 -90.285,51.942 -42.959,-0.27492 -27.776,-14.546 15.319,-47.316 87.069,-101.88 172.24,-144.67 260.72,-170.63 379.32,-205.43 509.37,-210.52 631.82,-185.15 747.12,-161.27 857.24,-109.81 949.32,-36.788 956.19,-31.336 965.19,-23.887 969.32,-20.234 1025.6,29.625 1051,56.646 1091.1,109.56 1099.5,120.54 1125.9,160.77 1136.7,178.83 1146.4,195.2 1167.2,235.76 1175.8,255.33 1204.4,320.07 1224.6,392.59 1233.8,462.7 1237.6,491.91 1240.3,532.42 1240.3,559.48 1240.4,764.45 1162,957.74 1020.9,1100.2 1003.4,1117.8 958.37,1157.6 940.32,1171.3 892.17,1207.8 844.84,1236.6 798.22,1257.7 747.42,1280.7 693.64,1299.1 644.32,1310.2 578.46,1325.1 502.95,1331.4 434.82,1327.7 z M 487.28,1211.2 C 492.91,1206.8 496.1,1209.7 502.66,1209.8 518.85,1209.8 568.59,1204.7 585.05,1201.3 589.13,1200.4 595.28,1199.5 598.72,1199.3 608.36,1198.6 639.92,1190.5 673.09,1180.2 697.7,1172.6 743.02,1154.6 746.99,1150.9 748.08,1149.9 750.06,1148.7 751.4,1148.3 755.59,1147 778.55,1135.2 792.46,1127.3 821.12,1110.8 841.11,1097.7 842.95,1094 843.93,1092 844.18,1091.9 844.47,1093.3 844.76,1094.8 845.96,1094.3 851.82,1090.3 862.78,1082.9 884.46,1065.7 884.12,1064.8 883.96,1064.4 878.87,1058.7 872.82,1052.2 866.69,1045.7 861.94,1039.8 862.1,1038.9 862.26,1037.9 827.61,1002.6 772.59,947.74 610.38,785.91 579.4,754.93 526.76,701.83 472.21,646.8 465.35,639.94 326.52,501.43 279.05,454.07 224.6,399.58 205.52,380.33 167.02,341.49 152.68,327.16 62.718,237.5 12.872,187.83 -0.07321,177.41 -0.07321,177.41 -14.159,164.86 -14.65,165.07 -26.981,156.88 -27.641,157.73 -31.147,162.23 -34.772,166.88 -136.88,297.83 -184.77,463.23 -168.1,627.32 -157.45,732.26 -120.28,835.85 -62.273,922.33 -50.416,940.01 -27.983,970.1 -17.089,982.94 -5.1498,997.01 34.166,1036.6 49.25,1049.8 63.967,1062.6 81.407,1076.8 82.503,1076.8 86.555,1080.3 86.176,1080.9 91.569,1085 142.36,1123.2 208.45,1157.4 272.98,1178.7 324.94,1195.9 373.57,1205.2 436.32,1209.8 444.84,1210.4 452.94,1211.1 454.32,1211.2 459.54,1211.8 484.21,1211.8 487.28,1211.2 z M 983.61,964.58 C 1004.4,937.82 1023.9,908.82 1037.4,884.83 1084.1,801.57 1110.1,719.45 1119.9,624.83 1122.1,603.53 1122.9,546.24 1121.4,522.71 1114.9,423.49 1086.7,328.88 1038.3,243.83 1023.1,217.28 986.29,164.41 970.17,146.14 949.24,122.42 941.9,114.67 926.23,99.736 902.21,76.84 893.81,69.522 871.32,51.865 844.46,30.785 820.94,15.433 783.95,-5.1506 631.21,-90.156 439.83,-106.81 268.82,-49.982 225.73,-35.662 185.89,-17.048 141.55,9.4838 114.38,25.743 83.319,47.203 83.319,49.718 83.319,50.147 80.956,52.156 78.069,54.182 75.181,56.209 71.472,58.976 69.825,60.331 L 66.831,62.795 C 78.46,77.944 79.657,78.918 88.319,89.069 88.319,90.738 275.45,277.83 277.12,277.83 277.85,277.83 278.17,278.27 277.83,278.81 277.5,279.34 283.21,285.61 290.52,292.72 297.84,299.84 421.46,423.49 565.25,567.5 937.09,939.91 948.31,951.07 950.34,950.53 951.53,950.22 955.85,953.68 963.95,961.4 970.48,967.63 976.13,972.75 976.51,972.78 976.9,972.81 980.09,969.12 983.61,964.58 z"
             style="fill:#CC0000;fill-opacity:1;" />

    </g>
</svg>
