<?xml version="1.0" encoding="UTF-8" standalone="no"?>
<svg
     xmlns:svg="http://www.w3.org/2000/svg"
     xmlns="http://www.w3.org/2000/svg"
     version="1.1"
     viewBox ="0 0 1530 1530"
     width="575px"
     height="575px">
     id="svg4331">
    <defs
         id="defs3" />
    <g
         transform="translate(452.83,194.01)"
         id="layer1">
        <path
             d="M 280.63,1335.8 C 248.8,1333.8 239.34,1333 221.63,1330.8 155.83,1322.7 91.713,1306.4 32.126,1282.6 -52.364,1248.7 -120.18,1207.8 -188.87,1149 -206.87,1133.6 -249.59,1090.9 -265.03,1072.9 -289.34,1044.5 -303.18,1026.1 -331.71,984.22 -366.88,932.64 -401.21,857.03 -424.4,780.11 -435.42,743.55 -446.56,681.77 -451.04,632.38 -453.41,606.22 -453.43,538.49 -451.07,511.38 -447.85,474.29 -441.99,437.09 -432.92,396.02 -422.09,346.96 -397.4,280.36 -369.11,223.85 -350.69,187.05 -341.6,172.17 -310.5,127.88 -248.81,40.012 -167.59,-33.693 -67.152,-92.96 -29.368,-115.26 17.414,-136.51 65.378,-153.16 107.45,-167.77 168.25,-182.04 214.55,-188.16 250.1,-192.87 269.18,-194.01 312.63,-194.01 390.29,-194.01 442.06,-186.64 526.87,-163.52 577.18,-149.81 645.21,-120.81 692.4,-92.96 782.41,-39.852 851.59,19.957 913.73,98.379 934.64,124.76 965.22,169.58 977.98,192.54 991.12,216.16 1015.6,266.71 1023.1,285.88 1036.4,319.47 1052.3,369.54 1058.2,395.95 1067.2,437.09 1073.1,474.27 1076.3,511.38 1078.7,538.49 1078.7,606.22 1076.3,632.38 1073.3,665.11 1069.6,690.09 1062.5,725.61 1053.8,769.37 1045.8,796.39 1025.1,852.38 1011.5,889.23 979.33,951.42 956.97,984.22 916.1,1044.2 894.81,1070.4 853.21,1112 827.68,1137.5 811.55,1151.9 785.63,1172.5 710.89,1231.7 621.48,1277.4 523.13,1306.7 481.91,1319 423.06,1329.7 374.09,1333.9 357.47,1335.3 293.45,1336.6 280.63,1335.8 z" 
             style="fill:#FFFFFF;fill-opacity:1;" />
        <path
             d="M 124.64,1074.2 C 124.64,1073.5 126.48,1067.7 128.72,1061.1 133.69,1046.6 141.73,1015.4 144.6,999.52 149.7,971.29 152.26,929.08 150.72,898.72 148.9,862.86 147.24,849.9 138.62,804.06 131.55,766.51 125.28,740.65 111.61,692.72 99.076,648.76 76.872,567.96 69.294,538.72 59.261,500.01 50.52,444.26 48.307,404.86 L 47.894,397.49 64.214,413.79 C 73.189,422.75 80.363,428.15 80.155,428.49 79.595,429.4 82.212,452.98 85.118,471.22 88.381,491.71 98.532,539.29 104.32,561.22 106.78,570.57 113.52,594.87 119.29,615.22 133.05,663.76 147.46,716.96 154.09,743.72 161.55,773.76 171.42,821.3 172.68,833.22 173.26,838.72 174.38,847.04 175.17,851.72 176.76,861.19 179.62,909.9 179.64,927.75 179.65,953.48 171.23,1017 165.03,1038 164.57,1039.5 165.29,1039.7 171.33,1039.7 179.74,1039.6 185.68,1037.6 196.5,1031.2 206.95,1025 216.91,1014.7 221.39,1005.6 L 224.64,998.97 224.64,978.6 C 224.63,950.93 223.29,931.35 218.63,891.08 215.38,862.92 213.54,851.44 208.15,825.58 196.86,771.45 186.34,730.3 165.63,659.22 141.82,577.5 140.87,574.07 130.65,532.27 124.22,505.96 116.64,470.6 116.64,466.88 116.64,466.53 126.22,475.81 137.93,487.5 151.6,501.16 159.83,507.63 159.95,509.06 160.05,510.28 162.27,525.37 165.56,540.22 172.98,573.7 183.1,612.48 192.97,645.22 199.55,667.03 208.02,696.6 224.28,754.56 230.48,776.66 235.99,801.76 241.59,833.47 248.72,873.86 250.39,886.86 252.65,919.66 253.77,935.85 254.82,949.23 254.99,949.4 255.15,949.56 257.67,948.51 260.58,947.07 267.46,943.63 272.83,936.22 280.73,919.2 L 286.7,906.33 284.12,884.78 C 280.98,858.54 277.4,835.7 273.59,817.72 257.79,743.11 237.01,671.85 204.22,579.81 L 189.82,539.4 216.22,565.81 242.61,592.22 250.68,622.22 C 255.12,638.72 260.95,659.19 263.65,667.72 268,681.49 282.11,730.96 292.02,767.22 296.35,783.08 301.61,807.12 305.62,829.41 309.35,850.19 310.7,851.47 319.82,842.97 L 324.92,838.22 324.29,823.22 C 323.94,814.97 323.2,804.32 322.65,799.55 319.95,776.3 305.34,711.6 292.05,663.95 291.24,661.05 289.51,653.45 288.21,647.05 L 285.85,635.43 307.16,656.83 328.47,678.22 341.11,734.72 C 348.05,765.79 353.96,791.86 354.23,792.65 355.22,795.53 357.54,791.36 359.11,783.89 361.63,771.9 364.64,745.04 364.62,734.78 364.61,729.52 363.98,722.29 363.23,718.72 362.47,715.14 361.94,712.12 362.05,712.01 362.15,711.89 369.42,718.98 378.19,727.77 L 394.14,743.74 394.01,757.48 C 393.77,781.38 389.38,800.78 379.9,819.72 373.48,832.55 357.53,857.19 342.67,877.23 321.08,906.35 320.66,907.1 288.25,974.11 270.89,1010 261.68,1023.7 243.46,1040.5 233.62,1049.7 230.83,1051.6 219.73,1057.2 199.24,1067.4 195.1,1068.4 157.39,1072.1 134.15,1074.4 124.64,1075 124.64,1074.2 z M 264.64,433.98 C 191.77,360.97 137.64,306.6 144.35,313.17 152.46,321.1 156.71,324.62 157.02,323.66 157.27,322.87 157.74,313.89 158.07,303.72 159.84,248.85 166.84,222.04 189.9,181.72 209.05,148.25 246.65,107.46 282.64,81.103 307.48,62.92 332.85,47.376 356.14,36.075 362.19,33.139 366.69,30.745 366.14,30.755 363.83,30.794 339.3,36.733 329.16,39.711 323.12,41.484 314.12,44.975 309.16,47.469 304.2,49.963 296.36,53.285 291.74,54.851 279.62,58.955 254.61,73.268 236.38,86.532 216.13,101.27 200.76,116.9 184.56,139.24 166.75,163.81 160.14,176.17 151.42,201.22 144.52,221.02 141.22,234.27 139.72,248.22 138.14,262.91 132.36,300.72 131.7,300.72 131.38,300.72 110.43,279.91 85.133,254.47 79.677,243.95 26.426,204.4 54.971,222.67 55.183,222.42 56.329,215.64 57.516,207.59 61.21,182.56 69.488,160.08 85.63,131.22 98.38,108.43 108.19,94.991 129.01,71.828 160.59,36.683 194.76,16.646 245.14,3.7224 279.44,-5.0743 295.97,-7.4309 323.27,-7.4164 359,-7.3974 391.79,-1.7308 418.64,9.0679 439.13,17.305 440.26,17.866 453.14,26.228 484.31,46.454 516.79,79.172 528.21,101.86 543.97,133.15 550.06,168.59 546.51,208.42 L 545.37,221.16 528.12,260.69 C 510.85,300.26 500.86,322.28 483.68,358.63 456.09,417.04 423.79,465.51 388.94,500.8 L 373.56,516.38 374.71,530.3 375.86,544.22 386.99,555.47 C 393.1,561.66 397.89,566.72 397.63,566.72 397.36,566.72 337.52,506.99 264.64,433.98 z M 348.22,506.97 C 350.32,504.36 356.37,497.72 361.67,492.22 400.09,452.35 427.34,410.16 442.1,367.72 447.94,350.91 450.33,341.39 453.52,322.22 458.57,291.89 459.51,257.27 456.01,230.51 L 455.4,225.8 451.77,227.74 C 448.29,229.6 444.37,232.43 430.48,243.08 421.56,249.91 415.7,252.63 406.3,254.28 386.52,257.76 366.44,254.61 340.64,243.99 335.97,242.06 330.42,239.61 328.3,238.54 324.67,236.69 324.5,236.69 325.01,238.4 325.31,239.4 326.94,245.84 328.64,252.72 332.34,267.71 335.81,278.54 340.25,288.95 342.07,293.2 345.42,303.76 347.7,312.43 351.83,328.13 351.84,328.22 351.46,343.2 351.13,355.67 350.71,358.99 349.01,362.75 345.08,371.4 338.53,375.22 319.03,380.27 297.89,385.73 297.92,386.48 319.29,386.94 336.56,387.31 337.52,387.45 348.84,391.01 364.22,395.85 370.19,398.78 376.91,404.77 383.4,410.55 386.31,415.97 387.25,424 387.86,429.22 387.69,430.04 385.53,432.37 378.86,439.56 357.63,450.98 340.64,456.53 321.11,462.91 321.17,462.9 307.01,461.75 300.03,461.18 294.07,460.96 293.77,461.26 293.21,461.82 342.65,511.72 343.76,511.72 344.12,511.72 346.12,509.58 348.22,506.97 z M 275.85,298.7 C 278.26,284.14 282.96,267.34 289.18,251.02 299.46,224.04 309.05,207.5 333.17,175.22 348.12,155.21 379.36,124.23 400.64,108.31 418.32,95.087 437.6,82.247 448.79,76.237 458.15,71.21 458.09,70.967 448.14,73.619 417,81.921 373.09,105.27 345.48,128.22 317.43,151.53 299.58,171.51 282.2,199.06 266.8,223.47 257.88,247.72 254.12,275.45 253.24,281.92 251.22,295.77 249.64,306.22 246.28,328.38 244.64,355.66 244.64,389.51 L 244.64,413.19 258.89,427.47 273.14,441.75 273.71,374.98 C 274.17,320.94 274.58,306.41 275.85,298.7 z M 345.48,425.85 C 347.82,424 349.58,422.33 349.4,422.14 349.21,421.95 340.98,420.88 331.1,419.75 321.22,418.62 311.46,417.43 309.39,417.12 L 305.64,416.54 305.64,423.19 305.64,429.85 323.44,429.53 341.23,429.22 z M 212.64,372.29 C 212.64,361.99 221.33,273.8 223.19,265.22 227.15,246.92 234.78,225.03 242.35,210.22 262.05,171.72 283.01,146.35 328.98,105.39 344.99,91.124 389.36,62.523 413.86,50.676 421.56,46.952 421.82,46.719 418.39,46.719 408.6,46.719 394.97,51.331 369.64,63.208 347.77,73.468 339.59,77.852 326.14,86.519 275.66,119.06 236.69,158.33 214.56,198.95 205.04,216.41 194.23,245.39 190.77,262.72 187.87,277.22 186.74,298.29 187.3,327.22 L 187.87,356.22 199.49,367.97 C 205.88,374.43 211.46,379.72 211.88,379.72 212.3,379.72 212.64,376.37 212.64,372.29 z M 312.06,350.42 C 319.94,340.08 320.32,324 313.2,301.72 311.35,295.94 309.64,290.32 309.4,289.22 309.01,287.44 308.89,287.5 308.35,289.72 308.01,291.09 306.36,304.37 304.67,319.22 302.99,334.07 301.35,347.91 301.04,349.97 L 300.47,353.72 305,353.72 C 308.96,353.72 309.86,353.3 312.06,350.42 z M 105.57,260.72 C 106.25,255.49 107.64,244.69 108.64,236.72 111.3,215.72 114.49,202.86 121.79,183.72 127.91,167.68 136.85,150.13 145.41,137.35 162.07,112.47 194.18,79.125 215.88,64.178 233.21,52.241 259.66,37.561 276.14,30.738 281.64,28.461 287.04,26.169 288.14,25.645 295.95,21.929 244.51,33.68 228.67,39.231 211.69,45.185 182.3,61.192 167.64,72.477 151.6,84.828 134.27,102.28 124.21,116.22 116.1,127.46 113.35,133.18 98.241,170.22 90.222,189.89 88.612,195.2 87.043,207.2 86.251,213.26 84.417,225.12 82.968,233.55 L 80.333,248.6 91.705,260.28 C 97.884,266.63 103.36,271.36 103.7,270.95 104.05,270.55 104.89,265.94 105.57,260.72 z M 499.34,259.75 501.52,249.78 495.43,236.23 C 492.08,228.78 489.24,222.81 489.11,222.95 488.65,223.47 496.08,269.72 496.62,269.72 496.92,269.72 498.15,265.23 499.34,259.75 z M 401.99,226.12 C 405.25,225.01 407.15,223.63 408.17,221.67 410.13,217.88 410.18,218.03 405.89,215.87 399.96,212.87 384.69,209.72 376.08,209.72 362.89,209.72 351.42,214.37 353.2,219 353.57,219.96 358.1,222.01 364.48,224.12 374.03,227.27 376.3,227.64 386.21,227.68 393.84,227.71 398.75,227.22 401.99,226.12 z M 450.07,198.47 C 448.76,187.78 444.38,168.98 441.39,161.22 436.14,147.56 423.1,127.95 420.05,129.12 417.72,130.01 366.66,175.94 367.14,176.71 367.38,177.1 371.98,177.72 377.36,178.09 402.64,179.82 424.58,186.56 441.36,197.76 446.19,200.99 450.27,203.65 450.43,203.67 450.58,203.7 450.42,201.36 450.07,198.47 z M 522.25,181.22 C 521.56,167.01 519.16,157.95 511.43,140.45 L 505.14,126.23 504.83,132.72 C 504.66,136.3 505.19,143.49 506.02,148.72 506.84,153.94 507.8,160.41 508.16,163.09 509.52,173.4 514.38,189.69 517.75,195.25 L 521.14,200.85 521.96,196.54 C 522.41,194.16 522.54,187.27 522.25,181.22 z M 455.56,115.36 C 455.47,110.06 454.81,110.97 453.34,118.43 452.84,120.99 453,121.52 454.18,121.07 455.22,120.67 455.62,119.02 455.56,115.36 z"
             id="path4348"
             style="fill:#000000" />
        <path
             d="M 280.63,1335.8 C 248.8,1333.8 239.34,1333 221.63,1330.8 155.83,1322.7 91.713,1306.4 32.126,1282.6 -52.364,1248.7 -120.18,1207.8 -188.87,1149 -206.87,1133.6 -249.59,1090.9 -265.03,1072.9 -289.34,1044.5 -303.18,1026.1 -331.71,984.22 -366.88,932.64 -401.21,857.03 -424.4,780.11 -435.42,743.55 -446.56,681.77 -451.04,632.38 -453.41,606.22 -453.43,538.49 -451.07,511.38 -447.85,474.29 -441.99,437.09 -432.92,396.02 -422.09,346.96 -397.4,280.36 -369.11,223.85 -350.69,187.05 -341.6,172.17 -310.5,127.88 -248.81,40.012 -167.59,-33.693 -67.152,-92.96 -29.368,-115.26 17.414,-136.51 65.378,-153.16 107.45,-167.77 168.25,-182.04 214.55,-188.16 250.1,-192.87 269.18,-194.01 312.63,-194.01 390.29,-194.01 442.06,-186.64 526.87,-163.52 577.18,-149.81 645.21,-120.81 692.4,-92.96 782.41,-39.852 851.59,19.957 913.73,98.379 934.64,124.76 965.22,169.58 977.98,192.54 991.12,216.16 1015.6,266.71 1023.1,285.88 1036.4,319.47 1052.3,369.54 1058.2,395.95 1067.2,437.09 1073.1,474.27 1076.3,511.38 1078.7,538.49 1078.7,606.22 1076.3,632.38 1073.3,665.11 1069.6,690.09 1062.5,725.61 1053.8,769.37 1045.8,796.39 1025.1,852.38 1011.5,889.23 979.33,951.42 956.97,984.22 916.1,1044.2 894.81,1070.4 853.21,1112 827.68,1137.5 811.55,1151.9 785.63,1172.5 710.89,1231.7 621.48,1277.4 523.13,1306.7 481.91,1319 423.06,1329.7 374.09,1333.9 357.47,1335.3 293.45,1336.6 280.63,1335.8 z M 359.13,1174.3 C 411.97,1170.7 481.2,1154.6 534.63,1133.3 564.87,1121.3 574.68,1116.6 611.63,1096.1 631.76,1084.9 661.78,1064.6 683.42,1047.5 L 691.72,1041 548.13,897.43 C 469.16,818.48 395.16,744.88 383.69,733.88 372.21,722.88 362.78,713.39 362.73,712.78 362.67,712.18 346.01,695.41 325.7,675.51 297.98,648.35 288.67,639.78 288.32,641.11 288.06,642.11 288.37,642.96 288.32,641.26 288.24,638.67 281.23,630.52 240.4,590.27 214.4,564.63 192.68,543.05 192.13,542.32 189.29,538.53 119.02,469.67 118.38,470.05 117.96,470.3 117.63,469.62 117.63,468.54 117.63,466.48 51.105,400.66 49.491,401.13 49.015,401.27 48.626,400.59 48.626,399.63 48.626,398.64 3.9783,353.23 -54.19,295.06 L -157.01,192.25 -165.02,202.57 C -191.59,236.77 -202.67,254 -223.11,292.88 -239.32,323.7 -251.46,352.17 -260.21,379.88 -282.06,448.99 -290.65,502.83 -290.69,570.88 -290.73,639.24 -282.13,694.17 -260.71,762.38 -253.16,786.41 -237.31,824.21 -226.18,844.71 -199.82,893.29 -188.81,910.23 -159.47,947.38 -132.97,980.93 -95.712,1018 -61.374,1045 -27.707,1071.5 -5.6343,1085.8 39.137,1110.1 65.503,1124.4 111.52,1142.5 145.59,1151.9 201.99,1167.5 237.43,1173.3 292.63,1175.8 304.02,1176.3 342.25,1175.5 359.13,1174.3 z M 790.32,940.13 C 816.77,906.08 825.69,892.15 851.43,844.71 862.56,824.21 878.41,786.41 885.96,762.38 902.18,710.73 911.42,663.76 914.77,615.88 916.29,594.18 916.27,547.58 914.74,526.88 911.06,477.25 902.25,432.98 885.47,379.88 872.12,337.66 846.48,284.29 820.02,243.69 787.8,194.24 741.62,142.55 696.32,105.25 651.59,68.411 623.26,50.16 572.68,25.608 530.99,5.3685 502.47,-4.7816 452.67,-17.112 422.63,-24.548 405.72,-27.44 373.77,-30.61 347.3,-33.235 339.47,-33.621 312.63,-33.621 285.78,-33.621 277.95,-33.235 251.48,-30.61 219.53,-27.44 202.62,-24.548 172.59,-17.112 122.78,-4.7816 94.265,5.3685 52.571,25.608 14.098,44.284 -5.7111,55.984 -37.374,78.733 -44.249,83.672 -53.649,90.863 -58.264,94.713 L -66.654,101.71 18.236,186.34 C 64.926,232.88 103.35,271.02 103.63,271.09 103.9,271.16 110.39,277.53 118.04,285.26 125.69,292.98 132.33,299.06 132.79,298.78 133.25,298.49 133.63,299.08 133.63,300.09 133.63,301.09 139.03,307.3 145.63,313.88 152.23,320.46 157.63,325.6 157.63,325.29 157.63,324.98 164.26,331.42 172.38,339.6 L 187.13,354.48 188.63,356.32 266.59,434.5 C 337.34,505.45 344.72,512.56 346.34,511.33 347.82,510.21 347.92,510.21 346.93,511.32 345.97,512.41 350.79,517.91 371.9,539.77 400.83,569.75 780.75,950.38 781.74,950.38 782.08,950.38 785.94,945.77 790.32,940.13 z"
             id="path4361"
             style="fill:#cc0000;fill-opacity:1" />
    </g>
</svg>
