<?xml version="1.0" encoding="UTF-8" standalone="no"?>
<svg xmlns:svg="http://www.w3.org/2000/svg" xmlns="http://www.w3.org/2000/svg"
     version="1.1" width="575px" height="575px" viewBox="-2 -2 578 578">
    <g transform="translate(-104.42,-276.78)"
         id="g6">
		<circle cx="392" cy="564" r="285" style="fill:#ffffff; stroke:#000000; stroke-width:1;" />
        <path
             d="M 371.71,621.1 543.43,621.1 C 544.69,621.1 545.7,622.11 545.7,623.37 V 646.28 C 545.7,647.54 544.69,648.55 543.43,648.55 H 371.71 C 370.45,648.55 369.44,647.54 369.44,646.28 V 623.37 C 369.44,622.11 370.45,621.1 371.71,621.1 z M 371.71,567.1 543.43,567.1 C 544.69,567.1 545.7,568.11 545.7,569.37 V 592.28 C 545.7,593.54 544.69,594.55 543.43,594.55 H 371.71 C 370.45,594.55 369.44,593.54 369.44,592.28 V 569.37 C 369.44,568.11 370.45,567.1 371.71,567.1 z M 220.5,481.76 562.36,481.76 C 563.6,481.76 564.61,482.77 564.61,484.01 V 506.97 C 564.61,508.22 563.6,509.22 562.36,509.22 H 220.5 C 219.26,509.22 218.25,508.22 218.25,506.97 V 484.01 C 218.25,482.77 219.26,481.76 220.5,481.76 z"
             style="fill:#808080" />
        <rect
             width="346.36"
             height="225.89"
             ry="19.082"
             x="218.25"
             y="450.85"
             id="rect12"
             style="fill:none;stroke:#000000;stroke-width:5.3;stroke-linecap:round;stroke-linejoin:bevel;stroke-miterlimit:4;stroke-dasharray:none" />
        <rect width="77.093" height="66.463" ry="10.143" x="251.42" y="535.48"
             style="fill:#000000;stroke:none;" />
        <path
             d="M 233.94,636.7 266.82,609.5 266.82,663.9 233.94,636.7 z"
             id="path16"
             style="fill:#000000;stroke:none;" />
        <g
             transform="translate(678.51,-13.931)"
             id="g18"
             style="fill:none;stroke:#ffffff;stroke-miterlimit:4;">
            <path
                 d="M -535.6,283.1 -545.06,287.02 -554.52,283.1 -558.43,273.64 -554.52,264.18 -545.06,260.27 -535.6,264.18 -531.68,273.64 z"
                 transform="matrix(1.3757,0,0,1.3757,361.31,206.19)"
                 id="path20"
                 style="stroke-width:2.57559;stroke-linecap:round;stroke-linejoin:bevel" />
            <path
                 d="M -427.02,562.91 -406.8,562.91 -401.39,569.65"
                 id="path22"
                 style="stroke-width:3.54331;stroke-linecap:butt;stroke-linejoin:miter" />
            <path
                 d="M -350.07,562.91 -370.29,562.91 -375.7,569.65"
                 id="path24"
                 style="stroke-width:3.54331;stroke-linecap:butt;stroke-linejoin:miter" />
            <path
                 d="M -427.02,602.1 -406.8,602.1 -401.39,595.36"
                 id="path26"
                 style="stroke-width:3.54331;stroke-linecap:butt;stroke-linejoin:miter" />
            <path
                 d="M -350.07,602.1 -370.29,602.1 -375.7,595.36"
                 id="path28"
                 style="stroke-width:3.54331;stroke-linecap:butt;stroke-linejoin:miter" />
            <path
                 d="M -406.91,582.59 -427.01,582.59"
                 id="path30"
                 style="stroke-width:3.54331;stroke-linecap:butt;stroke-linejoin:miter" />
            <path
                 d="M -350.07,582.59 -370.17,582.59"
                 id="path32"
                 style="stroke-width:3.54331;stroke-linecap:butt;stroke-linejoin:miter" />
            <path
                 d="M -388.54,564.38 -388.54,549.49"
                 id="path34"
                 style="stroke-width:3.54331;stroke-linecap:butt;stroke-linejoin:miter" />
            <path
                 d="M -388.54,615.81 -388.54,600.92"
                 id="path36"
                 style="stroke-width:3.54331;stroke-linecap:butt;stroke-linejoin:miter" />
        </g>
        <path
             d="M 391.41,285.43 C 322.88,285.43 260.13,310.38 211.69,351.68 210.42,352.76 209.16,353.86 207.91,354.96 207.41,355.41 206.91,355.86 206.41,356.31 205.34,357.27 204.28,358.23 203.22,359.21 202.94,359.47 202.66,359.73 202.38,359.99 201.13,361.16 199.89,362.34 198.66,363.52 197.25,364.89 195.85,366.26 194.47,367.65 193.12,369.01 191.76,370.38 190.44,371.77 189.07,373.22 187.72,374.7 186.38,376.18 186.22,376.35 186.06,376.51 185.91,376.68 184.75,377.96 183.61,379.25 182.47,380.55 181.23,381.98 180.03,383.42 178.82,384.87 178.77,384.92 178.71,384.97 178.66,385.02 138.16,433.4 113.75,495.75 113.75,563.8 113.75,717.46 238.13,842.14 391.41,842.14 460.09,842.14 522.95,817.07 571.44,775.61 L 571.47,775.64 C 571.86,775.31 572.25,774.98 572.63,774.64 572.79,774.51 572.94,774.37 573.1,774.24 574.04,773.42 574.98,772.6 575.91,771.77 576.65,771.11 577.37,770.46 578.1,769.8 578.31,769.61 578.52,769.43 578.72,769.24 579.69,768.35 580.64,767.45 581.6,766.55 582.46,765.74 583.31,764.93 584.16,764.11 584.28,764 584.39,763.88 584.51,763.77 585.59,762.71 586.65,761.65 587.72,760.58 588.04,760.27 588.35,759.96 588.66,759.64 589.91,758.38 591.15,757.09 592.38,755.8 592.5,755.67 592.63,755.55 592.76,755.42 594.16,753.94 595.57,752.44 596.94,750.92 598.2,749.53 599.43,748.12 600.66,746.71 600.89,746.44 601.12,746.19 601.35,745.92 602.4,744.71 603.44,743.48 604.47,742.24 644.8,693.91 669.1,631.69 669.1,563.8 669.1,410.14 544.69,285.42 391.41,285.42 z M 391.41,347.49 C 510.52,347.49 607.19,444.4 607.19,563.8 607.19,614.65 589.68,661.42 560.35,698.36 L 255.85,395.58 C 292.9,365.52 340.06,347.49 391.41,347.49 z M 222.79,428.9 527.35,731.74 C 490.23,761.98 442.93,780.11 391.41,780.11 272.3,780.11 175.66,683.2 175.66,563.8 175.66,512.8 193.3,465.89 222.79,428.89 z"
             id="path38"
             style="fill:#cc0000;stroke:none;" />
    </g>
</svg>
