<?xml version="1.0" encoding="UTF-8" standalone="no"?>
<svg xmlns:svg="http://www.w3.org/2000/svg" xmlns="http://www.w3.org/2000/svg"
     version="1.1" width="575px" height="575px" viewBox="-2 -2 579 579">

    <g transform="translate(-104.42,-225.35)"
         id="g6">
		<circle cx="392" cy="512" r="285" style="fill:#ffffff; stroke:#000000; stroke-width:1;" />
        <g transform="translate(737.04,29.123)"
             style="fill:#000000">
            <g id="g12">
                <path
                     d="M -383.38,147.53 C -442.85,147.53 -491.09,195.81 -491.09,255.28 -491.09,314.76 -442.85,363.03 -383.38,363.03 -323.9,363.03 -275.62,314.76 -275.62,255.28 -275.62,195.81 -323.9,147.53 -383.38,147.53 z M -383.38,159.91 C -330.73,159.91 -288,202.63 -288,255.28 -288,307.93 -330.73,350.66 -383.38,350.66 -436.02,350.66 -478.75,307.93 -478.75,255.28 -478.75,202.63 -436.02,159.91 -383.38,159.91 z"
                     transform="translate(104.42,225.35)" />
                <rect
                     width="15.28"
                     height="34.768"
                     ry="0"
                     x="-169.27"
                     y="463.25"
                     id="rect16" />
                <path
                     d="M -366.01,256.09 C -366.01,264.17 -372.56,270.72 -380.64,270.72 -388.73,270.72 -395.28,264.17 -395.28,256.09 -395.28,248.01 -388.73,241.46 -380.64,241.46 -372.56,241.46 -366.01,248.01 -366.01,256.09 z"
                     transform="matrix(1.0071,0,0,1.0071,104.4,222.72)" />
                <rect
                     width="15.296"
                     height="52.414"
                     x="-545.68"
                     y="85.34"
                     transform="matrix(0.71101,-0.70319,0.70319,0.71101,0,0)" />
                <rect
                     width="10.019"
                     height="77.86"
                     x="142.57"
                     y="453.42"
                     transform="matrix(0.7057,0.70851,-0.70851,0.7057,0,0)" />
                <path
                     d="M -411.41,12.844 V 151.25 C -402.46,148.84 -393.08,147.53 -383.38,147.53 -373.69,147.53 -364.28,148.82 -355.34,151.22 V 12.844 H -411.41 z M -411.41,359.31 V 491.12 H -355.34 V 359.34 C -364.28,361.75 -373.69,363.03 -383.38,363.03 -393.08,363.03 -402.46,361.72 -411.41,359.31 z"
                     transform="translate(104.42,225.35)" />
            </g>
            <path
                 d="M -614.78,242 -615.03,277.78 H -582.88 L -583.38,305.03 -556.41,305.81 -556.94,329.41 -537.88,348.88 C -539.59,353.46 -540.53,358.41 -540.53,363.59 -540.53,386.89 -521.61,405.78 -498.31,405.78 -475.02,405.78 -456.12,386.89 -456.12,363.59 -456.12,340.3 -475.02,321.38 -498.31,321.38 -503.98,321.38 -509.4,322.5 -514.34,324.53 L -599.97,242 H -614.78 z M -490.69,360.31 C -483.89,360.31 -478.38,365.83 -478.38,372.62 -478.37,379.42 -483.89,384.91 -490.69,384.91 -497.48,384.91 -503,379.42 -503,372.62 -503,365.83 -497.48,360.31 -490.69,360.31 z"
                 transform="translate(104.42,225.35)" />
        </g>
        <rect width="55.21" height="10.662" x="430.4" y="609.49"
             style="fill:#000000; stroke:none;" />
        <path
             d="M 391.41,234 C 322.88,234 260.13,258.95 211.69,300.25 210.42,301.33 209.16,302.43 207.91,303.53 207.41,303.98 206.91,304.43 206.41,304.87 205.34,305.84 204.28,306.8 203.22,307.78 202.94,308.04 202.66,308.3 202.38,308.56 201.13,309.73 199.89,310.91 198.66,312.09 197.25,313.46 195.85,314.83 194.47,316.22 193.12,317.58 191.76,318.95 190.44,320.34 189.07,321.79 187.72,323.27 186.38,324.75 186.22,324.92 186.06,325.08 185.91,325.25 184.75,326.53 183.61,327.82 182.47,329.12 181.23,330.55 180.03,331.99 178.82,333.44 178.77,333.49 178.71,333.54 178.66,333.59 138.16,381.97 113.75,444.32 113.75,512.37 113.75,666.03 238.13,790.71 391.41,790.71 460.09,790.71 522.95,765.64 571.44,724.18 L 571.47,724.21 C 571.86,723.88 572.25,723.55 572.63,723.21 572.79,723.08 572.94,722.94 573.1,722.81 574.04,721.99 574.98,721.17 575.91,720.34 576.65,719.68 577.37,719.03 578.1,718.37 578.31,718.18 578.52,718 578.72,717.81 579.69,716.92 580.64,716.02 581.6,715.12 582.46,714.31 583.31,713.5 584.16,712.68 584.28,712.57 584.39,712.45 584.51,712.34 585.59,711.28 586.65,710.22 587.72,709.15 588.04,708.84 588.35,708.53 588.66,708.21 589.91,706.95 591.15,705.66 592.38,704.37 592.5,704.24 592.63,704.12 592.76,703.99 594.16,702.51 595.57,701.01 596.94,699.49 598.2,698.1 599.43,696.69 600.66,695.28 600.89,695.01 601.12,694.76 601.35,694.49 602.4,693.28 603.44,692.05 604.47,690.81 644.8,642.48 669.1,580.26 669.1,512.37 669.1,358.71 544.69,233.99 391.41,233.99 z M 391.41,296.06 C 510.52,296.06 607.19,392.97 607.19,512.37 607.19,563.22 589.68,609.99 560.35,646.93 L 255.85,344.15 C 292.9,314.09 340.06,296.06 391.41,296.06 z M 222.79,377.47 527.35,680.31 C 490.23,710.55 442.93,728.68 391.41,728.68 272.3,728.68 175.66,631.77 175.66,512.37 175.66,461.37 193.3,414.46 222.79,377.46 z"
             id="path30"
             style="fill:#cc0000;stroke:none;" />
    </g>
</svg>
