<?xml version="1.0" encoding="UTF-8" standalone="no"?>
<svg xmlns:svg="http://www.w3.org/2000/svg" xmlns="http://www.w3.org/2000/svg"
     version="1.1" width="575px" height="575px" viewBox="-2 -2 579 579">
		<circle cx="287" cy="287" r="285" style="fill:#ffffff;fill-rule:evenodd; stroke:#000000; stroke-width:1;" />
    <g transform="translate(555.49,-226.36)"
         style="fill:#000000">
        <rect
             width="12.402"
             height="414.56"
             ry="0"
             x="-368.19"
             y="306.37"
             id="rect10" />
        <rect
             width="12.402"
             height="414.56"
             ry="0"
             x="-180.18"
             y="306.37"
             id="rect12" />
        <rect
             width="12.402"
             height="187.78"
             ry="0"
             x="368.83"
             y="172.24"
             transform="matrix(0,1,-1,0,0,0)"
             id="rect14" />
        <rect
             width="12.402"
             height="187.78"
             ry="0"
             x="522.83"
             y="172.24"
             transform="matrix(0,1,-1,0,0,0)"
             id="rect16" />
        <rect
             width="12.402"
             height="187.78"
             ry="0"
             x="599.83"
             y="172.24"
             transform="matrix(0,1,-1,0,0,0)"
             id="rect18" />
        <rect
             width="12.402"
             height="187.78"
             ry="0"
             x="676.83"
             y="172.24"
             transform="matrix(0,1,-1,0,0,0)"
             id="rect20" />
        <g id="g22">
            <rect
                 width="12.402"
                 height="187.78"
                 ry="0"
                 x="445.83"
                 y="172.24"
                 transform="matrix(0,1,-1,0,0,0)"
                 id="rect24" />
            <path
                 d="M -460.47,119.39 -439.23,115.14 -428.07,164.53 -386.12,171.44 C -373.87,183 -360.35,181.56 -347.06,173.91 L -318.67,144.35 -310.7,87.523 -289.46,91.772 -298.48,154.97 -341.5,202.77 -343.63,296.25 -354.25,363.7 V 439.11 H -375.49 V 362.63 L -367,294.65 -416.92,302.09 -432.85,362.1 H -455.16 L -434.45,281.37 -389.11,277.13 -387.18,195.34 -443.47,186.84 C -443.47,186.84 -460.47,119.39 -460.47,119.39 z"
                 transform="translate(107.73,241.82)"
                 id="path26" />
            <path
                 d="M -345.75,147.48 C -345.75,158.19 -354.43,166.87 -365.14,166.87 -375.85,166.87 -384.53,158.19 -384.53,147.48 -384.53,136.77 -375.85,128.09 -365.14,128.09 -354.43,128.09 -345.75,136.77 -345.75,147.48 z"
                 transform="matrix(1.3086,0,0,1.3086,219.16,192.94)"
                 id="path28" />
        </g>
    </g>
    <path
         d="M 287.48,9.1495 C 218.95,9.1495 156.2,34.097 107.76,75.4 106.49,76.483 105.23,77.575 103.98,78.681 103.48,79.125 102.98,79.576 102.48,80.025 101.41,80.985 100.35,81.954 99.291,82.931 99.01,83.191 98.728,83.45 98.448,83.712 97.198,84.877 95.956,86.055 94.729,87.243 93.321,88.605 91.92,89.977 90.541,91.368 89.188,92.733 87.835,94.1 86.51,95.493 85.136,96.939 83.791,98.424 82.448,99.899 82.294,100.07 82.132,100.23 81.979,100.4 80.817,101.68 79.679,102.97 78.541,104.27 77.299,105.7 76.099,107.14 74.885,108.59 74.838,108.64 74.776,108.69 74.729,108.74 34.233,157.12 9.8229,219.47 9.8229,287.52 9.8229,441.18 134.2,565.86 287.48,565.86 356.16,565.86 419.02,540.79 467.51,499.33 L 467.54,499.36 C 467.93,499.03 468.32,498.7 468.7,498.36 468.86,498.23 469.01,498.09 469.17,497.96 470.11,497.14 471.05,496.32 471.98,495.49 472.72,494.83 473.44,494.18 474.17,493.52 474.38,493.33 474.59,493.15 474.79,492.96 475.76,492.07 476.71,491.17 477.67,490.27 478.53,489.46 479.38,488.65 480.23,487.83 480.35,487.72 480.46,487.6 480.58,487.49 481.66,486.43 482.72,485.37 483.79,484.3 484.11,483.99 484.42,483.68 484.73,483.36 485.98,482.1 487.22,480.81 488.45,479.52 488.57,479.39 488.7,479.27 488.83,479.14 490.23,477.66 491.64,476.16 493.01,474.64 494.27,473.25 495.5,471.84 496.73,470.43 496.96,470.16 497.19,469.91 497.42,469.64 498.47,468.43 499.51,467.19 500.54,465.96 540.87,417.63 565.17,355.41 565.17,287.52 565.17,133.86 440.76,9.1369 287.48,9.1369 z M 287.48,71.212 C 406.59,71.212 503.26,168.12 503.26,287.52 503.26,338.37 485.75,385.14 456.42,422.08 L 151.92,119.3 C 188.98,89.242 236.13,71.21 287.48,71.21 z M 118.86,152.62 423.42,455.46 C 386.3,485.7 339,503.83 287.48,503.83 168.37,503.83 71.73,406.92 71.73,287.52 71.73,236.52 89.366,189.61 118.86,152.61 z"
         id="path30"
         style="fill:#CC0000;stroke:none;" />
</svg>
