<?xml version="1.0" encoding="UTF-8" standalone="no"?>
<svg xmlns:svg="http://www.w3.org/2000/svg" xmlns="http://www.w3.org/2000/svg"
     version="1.1" width="575px" height="575px" viewBox="-2 -2 579 579">
    <g transform="translate(-107.73,-241.82)">
		<circle cx="396" cy="529" r="285" style="fill:#ffffff; stroke:#000000; stroke-width:1;" />
        <path
             d="M 487.33,358.19 C 480.35,358.34 472.55,360.24 463.73,364.5 L 406.73,408.63 C 408.94,411.5 409.99,413.97 406.89,416.63 406.89,416.63 285.72,511.23 228.23,554.47 201.41,574.64 200.13,608.59 217.33,626.94 229.3,639.71 242.99,651.94 287.64,635.66 376.59,603.17 583.51,529.94 583.51,529.94 583.51,529.94 553.43,523.29 483.79,545.19 413.5,567.29 302.33,608.63 302.33,608.63 309.18,586.95 298.23,556.95 273.45,550.09 307.31,525.28 422.76,438.94 422.76,438.94 422.76,438.94 437.56,452.89 459.64,453.59 457.43,462.22 455.48,467.38 457.89,478.38 460.5,490.33 462.19,492.46 472.36,489.63 482.52,486.79 484.82,479.59 497.2,469.03 488.8,462.17 498.32,462.82 504.51,462.38 517.45,449.62 523.49,449.22 528.48,440.56 546.1,410.01 535.04,387.14 519.2,371.91 510.89,363.92 500.64,357.89 487.33,358.19 z M 254.48,569.75 C 268.98,569.75 280.73,581.51 280.73,596 280.73,610.49 268.98,622.25 254.48,622.25 239.99,622.25 228.2,610.49 228.2,596 228.2,581.51 239.99,569.75 254.48,569.75 z"
             style="fill:#000000;fill-rule:evenodd;stroke:none;" />
        <path
             d="M 394.72,250.47 C 326.19,250.47 263.44,275.42 215,316.72 213.73,317.8 212.47,318.9 211.22,320 210.72,320.45 210.22,320.9 209.72,321.35 208.65,322.31 207.59,323.27 206.53,324.25 206.25,324.51 205.97,324.77 205.69,325.03 204.44,326.2 203.2,327.38 201.97,328.56 200.56,329.93 199.16,331.3 197.78,332.69 196.43,334.05 195.07,335.42 193.75,336.81 192.38,338.26 191.03,339.74 189.69,341.22 189.53,341.39 189.37,341.55 189.22,341.72 188.06,343 186.92,344.29 185.78,345.59 184.54,347.02 183.34,348.46 182.13,349.91 182.08,349.96 182.02,350.01 181.97,350.06 141.47,398.44 117.06,460.79 117.06,528.84 117.06,682.5 241.44,807.18 394.72,807.18 463.4,807.18 526.26,782.11 574.75,740.65 L 574.78,740.68 C 575.17,740.35 575.56,740.02 575.94,739.68 576.1,739.55 576.25,739.41 576.41,739.28 577.35,738.46 578.29,737.64 579.22,736.81 579.96,736.15 580.68,735.5 581.41,734.84 581.62,734.65 581.83,734.47 582.03,734.28 583,733.39 583.95,732.49 584.91,731.59 585.77,730.78 586.62,729.97 587.47,729.15 587.59,729.04 587.7,728.92 587.82,728.81 588.9,727.75 589.96,726.69 591.03,725.62 591.35,725.31 591.66,725 591.97,724.68 593.22,723.42 594.46,722.13 595.69,720.84 595.81,720.71 595.94,720.59 596.07,720.46 597.47,718.98 598.88,717.48 600.25,715.96 601.51,714.57 602.74,713.16 603.97,711.75 604.2,711.48 604.43,711.23 604.66,710.96 605.71,709.75 606.75,708.52 607.78,707.28 648.11,658.95 672.41,596.73 672.41,528.84 672.41,375.18 548,250.46 394.72,250.46 z M 394.72,312.53 C 513.83,312.53 610.5,409.44 610.5,528.84 610.5,579.69 592.99,626.46 563.66,663.4 L 259.16,360.62 C 296.21,330.56 343.37,312.53 394.72,312.53 z M 226.1,393.94 530.66,696.78 C 493.54,727.02 446.24,745.15 394.72,745.15 275.61,745.15 178.97,648.24 178.97,528.84 178.97,477.84 196.61,430.93 226.1,393.93 z"
             style="fill:#CC0000;stroke:none;" />
    </g>
</svg>
