<?xml version="1.0" encoding="UTF-8" standalone="no"?>
<svg
     xmlns:svg="http://www.w3.org/2000/svg"
     xmlns="http://www.w3.org/2000/svg"
     version="1.1"
     viewBox ="0 0 1530 1530"
     width="575px"
     height="575px">
     id="svg4871">
    <defs
         id="defs3" />
    <g
         transform="translate(474.34,204.73)"
         id="layer1">
        <path
             d="M 251.94,1324.1 C 227.45,1322.6 210.75,1321.2 194.62,1319.1 94.899,1306.2 -3.1564,1273.8 -86.059,1226.4 -124.57,1204.3 -167.74,1174.4 -197.59,1149 -204.31,1143.3 -212.93,1136 -216.74,1132.8 -228.18,1123.2 -270.64,1080.9 -281.96,1067.9 -297.55,1049.9 -331.33,1006.6 -341.43,991.66 -384.98,927.38 -415.83,863.22 -440.71,785.16 -468.32,698.52 -479.39,598.87 -472.21,501.57 -469.73,467.89 -466.55,444.43 -460.02,411.42 -439.8,309.25 -403.19,221.56 -343.21,131.66 -327.27,107.77 -275.38,45.064 -251.06,20.298 -203.22,-28.415 -140.81,-75.65 -79.429,-109.61 -30.859,-136.48 26.26,-160.11 79.382,-175.32 208.68,-212.33 349.55,-214.47 478.94,-181.38 532.62,-167.64 579.54,-150.44 626.3,-127.34 667.43,-107.03 692.62,-91.84 733.94,-62.454 788.19,-23.872 805.93,-7.7507 858.17,50.423 885.99,81.404 900.41,98.339 909.05,110.16 987.75,217.92 1035.6,341.33 1050.9,476.16 1056.3,523.58 1056.3,597.56 1050.9,644.16 1047.1,676.95 1040.6,713.33 1032.4,746.98 1012.3,830.12 975.75,911.33 923.12,990.16 900.45,1024.1 862.73,1069.8 831.92,1100.6 820.18,1112.4 779.8,1148.5 766.41,1159.3 720.03,1196.6 654.58,1236.1 600.44,1259.7 532.82,1289 469.39,1307.4 401.94,1317.1 353.59,1324 296.83,1326.7 251.94,1324.1 z"
             style="fill:#FFFFFF; stroke:none;" />         
        <path
             d="M -189.14,876.61 C -189.93,870 -189.71,337.47 -188.89,279.36 L -188.29,236.36 -154.42,236.1 -120.55,235.84 -83.667,272.69 C -63.382,292.95 -46.786,310.06 -46.786,310.7 -46.786,311.54 -52.251,311.86 -66.805,311.86 L -86.825,311.86 -86.555,333.61 -86.286,355.36 -43.786,355.46 -1.2857,355.55 18.931,375.46 C 30.05,386.4 39.393,396.04 39.691,396.86 40.171,398.19 33.059,398.36 -20.525,398.36 -53.944,398.36 -82.523,398.53 -84.036,398.74 L -86.786,399.11 -86.786,420.34 -86.786,441.58 -77.979,442.24 C -73.135,442.61 -34.159,442.88 8.6338,442.84 L 86.439,442.77 108.33,464.68 130.21,486.59 130.21,545.73 130.21,604.86 114.86,604.86 99.511,604.86 98.868,596.61 C 98.515,592.07 98.224,567.55 98.22,542.1 L 98.214,495.84 49.464,496.1 0.71428,496.36 0.45386,562.36 C 0.22985,619.14 0.41496,629.55 1.7783,636.84 5.949,659.14 18.83,679.49 36.427,691.56 44.694,697.24 68.737,711.52 96.714,727.38 107.16,733.31 132.81,748.14 153.71,760.33 201.24,788.06 226.21,802.2 226.73,801.68 226.95,801.46 225.75,797.02 224.05,791.82 221.46,783.89 220.96,780.75 220.92,772.36 220.84,753.35 227.2,737.83 240.6,724.32 253.73,711.09 269.43,704.59 288.21,704.59 299.85,704.59 307.95,706.53 319.21,712.01 331.04,717.76 342.2,728.95 348.07,740.93 353.69,752.4 355.55,760.23 355.53,772.36 355.51,780.82 355.03,783.82 352.4,791.82 350.69,797.02 349.42,801.4 349.57,801.55 349.72,801.7 363.31,794.19 379.78,784.86 396.24,775.53 411.03,767.58 411.53,767.57 412.61,767.56 504.9,860.57 516.4,873.11 L 526.55,881.86 167.96,881.86 -188.51,881.86 z M 608.23,793.22 C 529.65,714.53 519.92,704.46 521.58,703.47 552.73,685 566.87,668.47 573.84,642.36 575.59,635.84 575.71,630.6 575.71,565.86 L 575.71,496.36 532.21,496.07 C 508.29,495.9 486.35,496.05 483.46,496.39 L 478.21,497.01 478.21,550.93 478.21,604.86 462.22,604.86 446.22,604.86 445.97,420.61 445.71,236.36 287.94,236.11 130.17,235.86 130.44,275.29 C 130.71,314.33 130.69,314.7 128.76,313.04 127.69,312.12 109.91,294.49 89.26,273.86 L 51.714,236.36 74.964,236.09 98.214,235.83 98.214,219.34 98.214,202.86 288.21,202.86 478.21,202.86 478.21,219.36 478.21,235.86 621.96,236.11 765.71,236.36 765.97,559.11 766.22,881.86 731.48,881.86 696.74,881.86 z M 662.61,441.28 C 662.94,440.41 663.21,430.51 663.21,419.28 L 663.21,398.86 574.46,398.76 C 489.57,398.66 479.05,398.72 478.45,399.31 477.84,399.9 477.31,433.71 477.85,437.61 L 478.44,441.85 567.58,442.11 C 616.6,442.26 657.9,442.48 659.36,442.62 661.01,442.77 662.23,442.27 662.61,441.28 z M 662.71,333.86 662.71,312.36 571,312.11 C 484.38,311.87 479.25,311.95 478.5,313.61 478.07,314.57 477.85,324.25 478.02,335.11 L 478.33,354.85 544.52,355.12 C 580.93,355.27 622.41,355.39 636.71,355.38 L 662.71,355.36 662.71,333.86 z"
             id="path4888"
             style="fill:#000000" />
        <path
             d="M 251.94,1324.1 C 227.45,1322.6 210.75,1321.2 194.62,1319.1 94.899,1306.2 -3.1564,1273.8 -86.059,1226.4 -124.57,1204.3 -167.74,1174.4 -197.59,1149 -204.31,1143.3 -212.93,1136 -216.74,1132.8 -228.18,1123.2 -270.64,1080.9 -281.96,1067.9 -297.55,1049.9 -331.33,1006.6 -341.43,991.66 -384.98,927.38 -415.83,863.22 -440.71,785.16 -468.32,698.52 -479.39,598.87 -472.21,501.57 -469.73,467.89 -466.55,444.43 -460.02,411.42 -439.8,309.25 -403.19,221.56 -343.21,131.66 -327.27,107.77 -275.38,45.064 -251.06,20.298 -203.22,-28.415 -140.81,-75.65 -79.429,-109.61 -30.859,-136.48 26.26,-160.11 79.382,-175.32 208.68,-212.33 349.55,-214.47 478.94,-181.38 532.62,-167.64 579.54,-150.44 626.3,-127.34 667.43,-107.03 692.62,-91.84 733.94,-62.454 788.19,-23.872 805.93,-7.7507 858.17,50.423 885.99,81.404 900.41,98.339 909.05,110.16 987.75,217.92 1035.6,341.33 1050.9,476.16 1056.3,523.58 1056.3,597.56 1050.9,644.16 1047.1,676.95 1040.6,713.33 1032.4,746.98 1012.3,830.12 975.75,911.33 923.12,990.16 900.45,1024.1 862.73,1069.8 831.92,1100.6 820.18,1112.4 779.8,1148.5 766.41,1159.3 720.03,1196.6 654.58,1236.1 600.44,1259.7 532.82,1289 469.39,1307.4 401.94,1317.1 353.59,1324 296.83,1326.7 251.94,1324.1 z M 344.83,1170.7 C 434.22,1162.6 519.73,1135.2 600.44,1088.9 626.88,1073.7 677.28,1037.9 677.39,1034.2 677.44,1032.7 528.17,883.16 526.68,883.16 525.61,883.16 411.75,769.18 412.29,768.65 412.53,768.41 349.86,705.38 273.02,628.59 196.18,551.79 133.12,489.14 132.9,489.37 132.4,489.87 86.441,443.98 86.441,442.97 86.441,441.23 44.056,400.16 42.253,400.16 41.191,400.16 40.553,399.79 40.834,399.33 41.116,398.88 31.918,389.11 20.393,377.64 8.8694,366.16 -0.55941,356.53 -0.55941,356.23 -0.55941,355.92 -10.118,346.11 -21.801,334.42 L -43.042,313.16 -45.544,311.66 -81.801,275.53 C -101.74,255.65 -118.96,238.91 -120.06,238.31 -121.44,237.56 -121.6,237.21 -120.57,237.19 -119.74,237.18 -133.47,222.76 -151.06,205.16 -168.65,187.56 -183.5,173.17 -184.05,173.19 -184.61,173.2 -188.51,177.59 -192.73,182.94 -266.62,276.66 -309.89,389.32 -320.74,516.16 -322.58,537.71 -322.28,591.64 -320.19,614.13 -311.53,707.46 -284.17,792.59 -237.74,870.66 -208.77,919.37 -181.3,954.64 -141.14,994.68 -104.16,1031.6 -62.96,1063.4 -19.374,1088.9 -2.9936,1098.4 37.779,1119.2 52.448,1125.4 114.17,1151.7 191.31,1169.1 261.44,1172.5 277.01,1173.3 328.6,1172.2 344.83,1170.7 z M 772.08,939.16 C 780.02,929.2 799.27,901.71 809.21,886.16 836.63,843.24 856.11,801.81 872.23,752.16 901.42,662.26 910.04,572.94 898.33,481.66 886.08,386.05 847.18,284.5 795.24,212.5 778.7,189.57 741.67,145.23 724.52,127.82 699.21,102.12 660.4,69.92 630.94,50.169 569.45,8.9425 492.84,-23.217 417.5,-39.419 286.46,-67.6 144.93,-50.477 24.941,8.0752 -10.123,25.185 -33.639,38.94 -61.941,58.896 -84.956,75.123 -96.94,84.578 -96.391,86.076 -95.669,88.048 53.156,237.17 54.501,237.27 55.293,237.33 79.777,261.74 108.91,291.52 193.7,378.19 521.6,705.31 523.11,704.73 523.84,704.45 524.44,704.69 524.44,705.26 524.44,706.62 618.87,802.2 664.14,846.66 L 699.77,881.66 699.95,883.16 732.42,915.64 C 750.28,933.5 765.16,947.79 765.49,947.39 765.83,946.99 768.79,943.29 772.08,939.16 z"
             id="path4901"
             style="fill:#cc0000;fill-opacity:1" />
    </g>
</svg>
