<?xml version="1.0" encoding="UTF-8" standalone="no"?>
<svg xmlns:svg="http://www.w3.org/2000/svg" xmlns="http://www.w3.org/2000/svg"
     version="1.1" width="575px" height="575px" viewBox="0 0 180 180">
    <defs />
	<circle cx="89" cy="89" r="87" style="fill:#ffffff; stroke:#000000; stroke-width:0.5;" />
    <g transform="translate(-282.63,-383.56)"
         id="layer1">
        <path
             d="M 342.03,479.56 342.33,480.46 342.63,481.36 342.93,481.96 343.23,482.86 343.23,483.46 343.53,484.36 343.83,485.26 344.13,485.86 344.43,485.26 344.43,484.66 344.73,484.36 344.73,481.36 346.23,482.26 347.13,483.76 347.73,485.26 348.33,487.06 348.63,488.86 348.93,490.66 349.23,492.16 349.83,493.66 350.13,493.36 350.43,492.76 350.73,492.46 350.73,491.86 351.03,491.26 351.03,490.96 351.33,490.36 351.33,489.76 352.53,491.56 352.83,493.36 353.13,495.46 352.83,497.56 352.53,499.66 352.23,501.76 352.23,503.56 352.53,504.76 352.53,504.46 352.83,504.46 353.13,504.16 353.43,503.86 353.43,503.56 353.73,503.26 354.03,502.96 354.03,502.66 354.33,503.26 354.63,503.86 354.63,505.66 354.33,506.26 354.33,507.16 354.03,508.06 354.03,508.96 353.43,510.46 352.53,511.96 350.13,514.36 348.93,515.26 345.93,516.46 344.43,516.76 342.33,516.76 341.73,516.46 340.83,516.46 340.23,516.16 341.13,515.86 342.03,515.26 342.93,514.66 344.13,513.76 345.63,512.26 346.23,511.06 346.83,510.16 347.13,509.56 347.43,508.96 347.73,508.36 347.73,507.76 348.03,507.16 348.03,505.06 347.73,505.36 347.43,505.36 347.43,505.66 346.83,505.66 346.83,505.96 346.23,505.96 346.53,505.36 346.83,504.46 346.83,502.06 346.53,501.46 346.23,500.56 345.93,499.96 345.63,500.56 345.33,501.16 344.73,502.36 344.43,502.96 344.13,503.56 343.23,504.46 343.53,502.36 343.53,500.26 342.93,496.66 342.03,495.16 341.13,493.96 339.33,492.16 339.33,493.96 339.63,495.76 339.63,497.86 339.93,499.96 339.63,502.06 339.63,503.86 339.03,505.36 338.43,504.76 338.13,504.16 337.83,503.56 337.53,502.66 337.23,502.06 336.93,501.46 336.93,500.86 336.63,499.96 336.03,501.16 335.73,502.36 335.73,507.46 336.03,508.66 336.33,509.86 335.43,508.96 334.83,507.76 334.23,506.56 333.93,505.36 333.63,503.86 333.33,502.66 333.03,501.16 332.73,499.96 332.43,500.86 332.13,501.46 331.83,502.36 331.83,503.26 331.53,503.86 331.53,504.76 331.23,505.66 331.23,506.56 330.93,506.26 330.63,505.96 330.63,505.66 329.43,504.46 329.73,506.26 330.33,508.06 330.63,509.86 331.53,511.66 333.33,514.66 334.83,515.86 336.03,516.76 335.13,517.06 334.23,517.06 333.33,516.76 332.43,516.76 331.53,516.46 330.63,516.16 329.73,515.56 328.83,514.66 328.53,514.66 328.23,514.36 327.93,514.06 327.93,513.76 327.33,513.16 327.33,512.86 327.03,512.56 326.73,511.96 326.73,511.66 326.43,511.36 326.43,510.76 326.13,510.46 326.13,509.56 325.83,509.26 325.83,508.06 325.53,507.76 325.53,497.56 325.83,497.56 326.13,497.86 326.43,497.86 326.73,498.16 327.33,498.76 327.63,498.76 327.93,498.46 327.93,496.06 328.23,494.86 328.53,493.66 328.83,492.16 328.83,488.26 329.43,488.56 330.33,489.46 330.63,490.06 330.93,490.66 331.53,491.26 331.83,491.86 332.13,492.46 332.73,491.26 333.33,489.76 333.33,487.96 333.63,485.86 333.33,483.76 333.33,481.66 333.03,480.46 332.73,479.56 333.93,480.16 334.53,480.46 334.83,481.06 335.43,481.66 336.03,482.86 336.33,483.46 336.93,482.26 337.23,480.76 337.23,475.06 337.53,473.56 338.13,472.36 338.43,473.56 338.73,474.46 339.03,475.36 339.63,476.26 340.23,477.16 341.13,477.76 341.73,478.66 342.03,479.56 z M 339.33,485.26 339.63,485.26 339.93,484.66 339.93,484.36 340.23,484.06 340.53,483.46 340.53,481.96 340.23,481.66 339.93,481.36 339.63,481.06 339.33,480.76 339.03,480.46 339.03,480.16 338.73,479.56 338.73,481.66 338.73,482.56 339.03,483.16 339.03,484.06 339.33,484.66 339.33,485.26 z M 348.33,517.66 348.33,518.26 329.43,518.26 329.43,517.66 348.33,517.66 348.33,518.26 348.33,517.66 z M 346.53,480.16 346.23,478.96 346.83,478.06 348.93,475.96 350.43,475.06 351.93,473.86 353.13,472.96 354.03,472.06 352.83,472.36 351.63,472.66 350.43,473.56 348.03,474.76 346.83,475.36 345.93,475.66 345.03,475.66 344.73,475.06 345.03,474.76 345.33,474.16 346.23,472.96 350.13,469.06 349.83,469.36 348.93,469.66 348.03,470.26 346.83,470.86 345.63,471.16 344.73,471.16 344.43,470.86 344.13,470.56 344.13,469.96 344.43,469.36 345.03,468.16 345.63,467.26 348.33,464.56 349.23,463.96 350.43,463.06 352.83,461.26 354.33,460.06 355.83,458.86 357.63,457.66 359.43,456.46 361.23,455.56 363.03,454.36 364.53,453.76 377.73,448.36 376.83,447.16 375.93,445.96 375.33,444.76 374.43,443.56 373.83,442.36 372.93,441.16 372.33,439.96 371.43,438.76 377.43,436.06 375.93,421.36 375.93,420.46 376.83,419.56 377.43,419.26 378.93,419.26 379.23,419.56 379.83,419.56 379.83,419.86 380.13,420.16 380.43,420.46 380.43,420.76 381.93,434.26 411.63,423.16 424.53,443.86 390.93,468.46 388.53,470.26 386.13,472.06 384.03,474.46 382.23,476.56 380.43,478.96 378.63,481.06 377.13,483.46 375.63,485.86 374.73,487.66 373.83,489.76 373.23,491.86 372.33,494.26 371.43,496.36 370.23,498.46 369.03,500.56 367.83,502.06 367.23,500.56 366.93,499.06 366.63,497.86 366.93,496.36 367.23,494.86 367.53,493.66 367.83,492.16 368.43,490.96 368.43,490.36 368.73,490.06 368.73,489.46 368.43,489.16 366.63,490.06 366.03,490.36 365.43,490.66 364.83,491.26 364.23,491.86 363.63,492.76 363.33,493.96 363.03,495.46 362.73,497.26 362.13,498.76 361.53,500.56 360.63,501.76 359.43,502.66 357.93,503.26 357.63,502.96 357.33,502.66 357.03,502.36 356.73,501.76 356.73,500.56 357.03,499.96 357.63,498.76 358.23,497.56 358.83,496.66 359.73,495.46 360.33,494.86 361.23,493.96 362.13,493.36 363.03,492.46 363.03,490.66 363.33,489.76 363.93,488.86 364.23,487.96 364.83,487.06 365.43,486.46 365.73,485.86 366.33,484.96 366.93,484.36 367.53,483.76 368.43,483.16 370.23,481.36 370.53,480.76 372.33,478.96 373.83,477.46 375.33,475.96 376.83,474.46 378.33,472.96 379.83,471.16 381.33,469.36 382.83,467.56 380.73,468.76 378.93,469.96 375.33,472.96 373.53,474.46 372.03,476.26 370.23,477.76 369.03,479.56 367.23,480.76 365.73,482.26 364.53,483.76 363.03,485.26 361.53,486.46 359.73,487.66 357.93,488.26 355.53,488.86 355.53,487.06 356.13,486.16 357.33,484.36 359.13,482.56 359.73,481.96 359.43,481.96 358.83,482.26 358.23,482.86 357.33,483.16 356.73,483.76 355.83,484.06 354.93,484.06 354.93,482.56 355.53,481.66 356.13,480.46 357.03,479.86 358.23,478.96 359.13,478.06 359.73,477.46 360.33,476.26 359.13,476.56 357.63,477.16 355.53,478.06 353.13,478.96 351.03,479.56 348.93,480.16 347.43,480.46 346.53,480.16 z M 378.93,421.06 382.53,454.36 380.43,454.36 377.43,421.36 377.43,420.76 378.63,420.76 378.93,421.06 z M 383.13,469.06 384.03,467.56 384.33,466.66 383.73,466.36 382.83,466.36 381.63,466.96 380.43,467.26 379.53,467.86 378.63,468.46 367.83,478.36 366.33,479.86 363.63,482.56 362.43,483.76 360.93,484.96 359.73,485.86 358.23,486.76 357.03,487.36 357.33,486.46 357.93,485.56 358.83,484.66 359.73,483.46 360.63,482.56 361.23,481.66 361.83,480.76 361.83,480.16 361.23,479.86 360.93,479.86 360.03,480.16 359.43,480.76 358.53,481.06 357.63,481.66 357.03,482.26 356.43,482.56 356.73,481.96 357.33,481.06 358.23,480.46 359.13,479.86 360.03,478.96 360.93,477.76 361.53,476.56 361.83,475.36 361.23,475.06 359.73,475.36 357.93,475.96 355.53,476.86 353.43,477.46 351.33,478.36 349.23,478.66 347.73,478.96 349.23,477.46 350.13,476.86 351.03,475.96 351.93,475.36 352.53,474.76 354.33,473.56 354.93,472.36 355.23,471.76 355.53,471.16 355.53,470.86 354.93,470.56 354.33,470.56 353.43,470.86 352.23,471.16 351.63,471.46 350.73,472.06 350.13,472.36 349.23,472.66 348.63,473.26 347.73,473.56 347.13,473.86 346.53,474.16 348.63,472.06 349.53,471.16 350.73,469.96 351.63,469.36 352.23,468.46 352.53,467.86 352.53,467.56 351.33,467.56 350.43,467.86 349.53,468.46 348.33,468.76 347.43,469.36 346.23,469.66 345.63,469.66 346.23,468.76 346.83,467.86 347.73,466.96 349.53,465.16 351.93,463.36 353.43,462.46 355.23,460.96 357.03,459.76 358.53,458.86 359.73,457.96 361.23,457.06 362.73,456.16 364.23,455.56 366.03,454.66 369.03,453.46 370.53,452.86 372.03,452.26 375.03,451.06 376.53,450.46 378.03,449.86 378.93,451.06 378.03,451.66 377.43,452.26 377.13,452.86 376.83,453.46 376.83,454.96 377.43,456.46 378.33,457.36 379.53,458.26 381.33,458.26 382.23,457.96 383.13,457.66 383.73,458.86 384.63,460.06 385.53,461.26 386.43,462.46 387.33,463.96 388.23,465.16 389.13,466.36 389.73,467.56 387.63,469.36 385.23,471.46 383.13,473.26 381.33,475.36 379.53,477.76 377.73,479.86 376.23,482.26 374.43,484.96 373.83,486.46 372.93,488.56 371.13,493.36 370.23,495.46 369.33,497.56 368.73,498.76 368.43,499.36 368.13,499.06 368.13,497.26 368.43,496.06 368.73,494.86 369.33,491.86 369.93,490.36 370.23,490.06 370.23,489.46 369.93,489.16 369.93,488.86 369.63,488.26 369.33,487.96 368.13,487.96 367.23,488.26 366.63,488.56 366.03,488.86 365.43,489.46 365.73,488.56 366.33,487.36 366.93,486.46 367.83,485.26 370.83,482.26 371.73,481.66 373.23,480.16 374.73,478.36 376.23,476.86 377.73,475.36 378.93,473.86 380.43,472.36 381.93,470.56 383.13,469.06 z M 358.53,501.76 358.23,501.16 358.23,500.56 358.83,498.76 359.43,497.56 360.33,496.66 360.93,495.76 361.83,495.16 361.83,496.06 361.53,496.96 361.23,498.16 360.63,499.06 360.33,499.96 359.73,500.56 358.53,501.76 z M 354.63,481.06 353.73,481.96 353.13,482.86 352.83,484.06 352.53,485.26 351.93,486.46 351.33,487.36 350.43,487.96 349.23,488.26 348.63,487.66 348.63,487.06 348.33,486.76 348.63,486.16 348.63,485.56 348.93,484.96 349.23,484.66 349.53,484.06 350.13,483.46 350.73,482.86 351.33,482.26 353.13,481.36 354.03,481.06 354.63,481.06 z M 349.83,487.06 349.53,486.76 349.53,486.16 349.83,485.26 350.43,484.66 350.73,484.06 351.33,483.46 351.93,483.16 351.93,484.06 351.63,484.66 351.33,485.56 350.73,486.16 350.43,486.76 350.13,487.06 349.83,487.06 z M 328.23,484.36 327.93,483.76 327.93,483.16 328.23,482.26 328.83,481.36 329.43,480.46 330.03,479.56 330.63,478.96 331.23,478.96 331.23,479.26 330.93,480.16 330.63,480.76 330.33,481.66 329.73,482.56 329.13,483.46 328.83,484.06 328.23,484.36 z M 334.23,476.56 333.03,477.76 332.43,478.96 331.83,480.46 331.53,481.96 330.93,483.46 330.33,484.36 329.73,484.96 329.13,485.26 327.33,485.26 326.73,484.96 326.43,484.06 326.43,483.46 326.73,482.86 326.73,482.26 327.03,481.66 327.33,481.06 327.63,480.46 329.13,478.96 330.03,478.36 330.63,477.76 331.53,477.46 332.43,476.86 333.33,476.86 334.23,476.56"
             id="path5512"
             style="fill:#000000;fill-opacity:1;fill-rule:evenodd;stroke:none" />
        <path
             d="M 371.43,388.06 375.63,388.36 380.13,388.66 384.33,389.26 388.23,389.86 392.43,390.76 396.33,391.96 400.23,393.16 404.13,394.96 407.73,396.46 411.33,398.26 414.93,400.36 418.53,402.46 421.83,404.86 424.83,407.56 427.83,409.96 430.83,412.96 433.53,415.66 436.23,418.96 438.93,421.96 441.03,425.26 443.43,428.86 445.53,432.16 447.33,435.76 448.83,439.66 450.33,443.56 451.83,447.46 453.03,451.36 453.93,455.26 454.53,459.46 455.13,463.66 455.43,468.16 455.73,472.36 455.43,476.56 455.13,481.06 454.53,485.26 453.93,489.16 453.03,493.36 451.83,497.26 450.33,501.16 448.83,505.06 447.33,508.66 445.53,512.26 443.43,515.86 441.03,519.46 438.93,522.76 436.23,525.76 433.53,528.76 430.83,531.76 427.83,534.46 424.83,537.16 421.83,539.86 418.53,541.96 414.93,544.36 411.33,546.46 407.73,548.26 404.13,549.76 400.23,551.26 396.33,552.76 392.43,553.96 388.23,554.86 384.33,555.46 380.13,556.06 375.63,556.36 371.43,556.66 367.23,556.36 362.73,556.06 358.53,555.46 354.63,554.86 350.43,553.96 346.53,552.76 342.63,551.26 338.73,549.76 335.13,548.26 331.53,546.46 327.93,544.36 324.33,541.96 321.03,539.86 318.03,537.16 312.03,531.76 309.33,528.76 306.63,525.76 303.93,522.76 301.83,519.46 299.43,515.86 297.33,512.26 295.53,508.66 294.03,505.06 292.53,501.16 291.03,497.26 289.83,493.36 288.93,489.16 288.33,485.26 287.73,481.06 287.43,476.56 287.13,472.36 287.43,468.16 287.73,463.66 288.33,459.46 288.93,455.26 289.83,451.36 291.03,447.46 292.53,443.56 294.03,439.66 295.53,435.76 297.33,432.16 299.43,428.86 301.83,425.26 303.93,421.96 306.63,418.96 309.33,415.66 312.03,412.96 315.03,409.96 318.03,407.56 321.03,404.86 324.33,402.46 327.93,400.36 331.53,398.26 335.13,396.46 338.73,394.96 342.63,393.16 346.53,391.96 350.43,390.76 354.63,389.86 358.53,389.26 362.73,388.66 367.23,388.36 371.43,388.06 z M 423.03,514.06 329.73,420.76 330.33,420.16 330.93,419.86 331.53,419.26 332.13,418.96 332.73,418.66 334.23,417.16 335.43,416.56 336.33,415.96 337.53,415.36 338.43,414.76 339.63,414.16 340.53,413.56 341.73,412.96 342.63,412.36 344.73,411.76 346.53,410.86 348.33,410.26 350.13,409.36 352.23,408.76 354.03,408.16 356.13,407.86 357.93,407.26 364.53,406.36 366.03,406.06 376.23,406.06 377.43,406.36 378.63,406.36 379.83,406.66 381.03,406.66 382.23,406.96 383.43,406.96 384.93,407.26 386.13,407.56 387.33,407.86 388.23,408.16 390.63,408.76 391.83,409.06 393.03,409.66 394.23,409.96 396.03,410.86 397.83,411.46 405.03,415.06 406.83,416.26 408.63,417.16 409.53,418.06 410.43,418.66 411.33,419.26 412.23,420.16 413.13,420.76 414.33,421.66 415.23,422.26 417.63,424.66 418.83,426.16 420.33,427.36 421.53,428.86 422.73,430.36 424.23,432.16 425.43,433.66 426.63,435.16 427.23,436.36 427.83,437.26 428.43,438.46 429.03,439.36 429.63,440.26 430.23,441.46 430.83,442.66 431.43,443.56 432.03,445.36 432.93,447.46 433.53,449.26 434.43,451.06 435.03,453.16 435.63,454.96 435.93,457.06 436.53,458.86 436.83,460.36 436.83,461.56 437.13,462.76 437.13,463.96 437.43,465.16 437.43,466.36 437.73,467.56 437.73,477.76 437.43,479.26 437.43,480.46 437.13,481.66 437.13,482.86 436.53,485.26 436.23,486.46 435.93,487.66 435.63,488.86 435.33,490.06 435.03,491.26 434.73,492.46 434.43,493.66 433.83,494.56 433.23,496.96 429.03,505.36 427.83,506.86 426.93,508.66 425.73,510.46 424.53,511.96 424.53,512.26 423.33,513.46 423.33,513.76 423.03,514.06 z M 319.83,430.66 413.13,523.96 412.23,524.56 411.33,525.46 410.43,526.06 408.63,527.26 407.73,527.86 405.93,529.06 404.73,529.66 403.53,530.26 402.63,530.86 401.43,531.46 400.53,532.06 399.33,532.66 398.43,532.96 397.23,533.56 395.13,534.46 393.33,535.06 391.53,535.66 389.43,536.26 387.63,536.86 385.53,537.16 383.43,537.76 381.63,538.06 380.13,538.06 378.93,538.36 377.73,538.36 376.53,538.66 375.33,538.66 366.33,538.66 365.13,538.36 363.93,538.36 362.73,538.06 361.23,538.06 358.83,537.46 357.63,537.16 356.43,537.16 355.23,536.86 354.03,536.56 352.83,536.26 351.63,535.66 348.03,534.46 345.93,533.56 344.13,532.96 340.53,531.16 338.73,530.26 336.93,529.06 335.13,527.86 333.93,527.26 333.03,526.36 332.13,525.76 331.23,525.16 330.33,524.26 329.13,523.66 327.63,522.16 326.13,520.96 324.93,519.46 323.43,517.96 322.23,516.76 320.73,515.26 319.53,513.76 318.33,511.96 317.43,511.06 316.83,510.16 316.23,508.96 315.03,507.16 314.13,505.96 313.53,505.06 312.93,503.86 312.03,502.06 311.13,500.26 310.53,498.46 309.63,496.66 309.03,494.56 308.43,492.76 307.53,490.96 307.23,488.86 306.93,487.66 306.63,486.46 306.33,485.26 306.03,484.06 305.73,482.86 305.73,481.66 305.43,480.46 305.43,479.26 305.13,477.76 305.13,467.56 305.43,466.36 305.43,465.16 305.73,463.96 305.73,462.76 306.03,461.56 306.03,460.36 306.33,458.86 306.63,457.66 306.93,456.46 307.23,455.26 307.53,454.36 307.83,453.16 308.13,451.96 308.73,450.76 309.03,449.56 309.93,447.76 310.53,445.66 311.43,443.86 312.33,442.36 314.13,438.76 315.33,436.96 316.23,435.16 316.83,434.56 317.13,433.96 317.73,433.66 318.03,433.06 318.33,432.46 318.93,431.86 319.23,431.26 319.83,430.66"
             id="path5514"
             style="fill:#CC0000;fill-opacity:1;fill-rule:evenodd;stroke:none" />
    </g>
</svg>
