<?xml version="1.0" encoding="UTF-8" standalone="no"?>
<svg xmlns:svg="http://www.w3.org/2000/svg" xmlns="http://www.w3.org/2000/svg"
     version="1.1" width="575px" height="575px" viewBox="-2 -2 578 578">
    <g transform="translate(-107.73,-241.82)" style="stroke-miterlimit:4;">
		<circle cx="396" cy="529" r="285" style="fill:#ffffff; stroke:#000000; stroke-width:1;" />
        <g transform="translate(0,-6)"
             style="fill:none;stroke:#000000;stroke-linecap:butt;stroke-linejoin:miter;stroke-width:7;">
            <path d="M 189.27,557.03 C 189.27,557.03 203,560.95 214.45,558.68 230.17,558.24 240.39,534.43 252.84,534.33 267.23,534.2 272.52,553.56 284.62,559.92 308.86,565.33 345.68,558.66 370.89,556.2 406.9,552.7 414.85,551.56 453.03,547.12 491.21,542.69 493.07,539.8 523.61,538.45 554.16,537.11 557.05,537.32 575.21,541.76 593.37,546.19 600.29,561.57 598.32,566.94 596.36,572.3 583.05,581.49 570.26,583.45 557.46,585.41 558.7,585.1 537.24,585.51 515.77,585.92 484.4,585.1 484.4,585.1 L 485.64,568.59 C 485.64,568.59 501.22,569.1 517.42,569.41 533.62,569.72 566.13,569.93 573.15,567.76 580.16,565.59 566.03,553.73 551.68,552.9 537.34,552.08 512.57,553.93 481.51,557.44 450.45,560.95 423.62,563.74 389.05,566.94 355.14,567.27 321.35,575.75 287.51,574.37 266.8,575.08 264.84,550.88 252.43,550.84 247.53,550.82 243.55,561.49 237.98,565.7 223.46,573.9 205.42,572.54 189.27,571.06 V 557.03 z" />
            <path d="M 188.87,555.64 C 188.87,555.64 276.93,479.5 318.88,441.04 329.73,431.1 326.41,438.77 336.63,440.22 346.85,441.66 348.19,444.65 359.75,446.82 371.3,448.99 372.03,448.47 382.86,448.88 393.7,449.3 394.42,449.5 403.09,448.47 411.75,447.44 407.63,446.1 417.53,444.76 427.44,443.42 429.71,442.8 442.71,443.11 455.71,443.42 457.98,444.65 469.54,446 481.1,447.34 486.89,446.54 488.94,448.47 539.54,496.02 606.14,563.14 587.62,547.62" />
            <path d="M 256.97,523.18 330.44,437.74" />
        </g>
        <path d="M 394.72,250.47 C 326.19,250.47 263.44,275.42 215,316.72 213.73,317.8 212.47,318.9 211.22,320 210.72,320.45 210.22,320.9 209.72,321.35 208.65,322.31 207.59,323.27 206.53,324.25 206.25,324.51 205.97,324.77 205.69,325.03 204.44,326.2 203.2,327.38 201.97,328.56 200.56,329.93 199.16,331.3 197.78,332.69 196.43,334.05 195.07,335.42 193.75,336.81 192.38,338.26 191.03,339.74 189.69,341.22 189.53,341.39 189.37,341.55 189.22,341.72 188.06,343 186.92,344.29 185.78,345.59 184.54,347.02 183.34,348.46 182.13,349.91 182.08,349.96 182.02,350.01 181.97,350.06 141.47,398.44 117.06,460.79 117.06,528.84 117.06,682.5 241.44,807.18 394.72,807.18 463.4,807.18 526.26,782.11 574.75,740.65 L 574.78,740.68 C 575.17,740.35 575.56,740.02 575.94,739.68 576.1,739.55 576.25,739.41 576.41,739.28 577.35,738.46 578.29,737.64 579.22,736.81 579.96,736.15 580.68,735.5 581.41,734.84 581.62,734.65 581.83,734.47 582.03,734.28 583,733.39 583.95,732.49 584.91,731.59 585.77,730.78 586.62,729.97 587.47,729.15 587.59,729.04 587.7,728.92 587.82,728.81 588.9,727.75 589.96,726.69 591.03,725.62 591.35,725.31 591.66,725 591.97,724.68 593.22,723.42 594.46,722.13 595.69,720.84 595.81,720.71 595.94,720.59 596.07,720.46 597.47,718.98 598.88,717.48 600.25,715.96 601.51,714.57 602.74,713.16 603.97,711.75 604.2,711.48 604.43,711.23 604.66,710.96 605.71,709.75 606.75,708.52 607.78,707.28 648.11,658.95 672.41,596.73 672.41,528.84 672.41,375.18 548,250.46 394.72,250.46 z M 394.72,312.53 C 513.83,312.53 610.5,409.44 610.5,528.84 610.5,579.69 592.99,626.46 563.66,663.4 L 259.16,360.62 C 296.21,330.56 343.37,312.53 394.72,312.53 z M 226.1,393.94 530.66,696.78 C 493.54,727.02 446.24,745.15 394.72,745.15 275.61,745.15 178.97,648.24 178.97,528.84 178.97,477.84 196.61,430.93 226.1,393.93 z"
             style="fill:#CC0000;stroke:none;" />
    </g>
</svg>
