<?xml version="1.0" encoding="UTF-8" standalone="no"?>
<svg
     xmlns:svg="http://www.w3.org/2000/svg"
     xmlns="http://www.w3.org/2000/svg"
     version="1.0"
     width="575px"
     height="575px"
     id="svg2">
    <defs
         id="defs16" />
    <path
         d="M 574.07,287.5 C 574.07,445.77 445.77,574.07 287.5,574.07 129.23,574.07 0.93,445.77 0.93,287.5 0.93,129.23 129.23,0.93 287.5,0.93 445.77,0.93 574.07,129.23 574.07,287.5 z"
         id="path6"
         style="fill:#ffffff;stroke:#000000;stroke-width:1;stroke-linecap:square;stroke-miterlimit:4;" />
    <path
         d="M 106.23,310.62 C 107.32,313.45 105.77,316.68 102.77,317.83 99.776,318.98 96.464,317.62 95.376,314.8 94.288,311.97 95.836,308.74 98.833,307.59 101.83,306.43 105.14,307.79 106.23,310.62 M 121.75,304.65 C 122.84,307.48 121.29,310.71 118.29,311.86 115.3,313.01 111.99,311.65 110.9,308.82 109.81,306 111.36,302.77 114.35,301.62 117.35,300.46 120.66,301.82 121.75,304.65 M 137.27,298.68 C 138.36,301.51 136.81,304.73 133.82,305.89 130.82,307.04 127.51,305.68 126.42,302.85 125.33,300.03 126.88,296.8 129.87,295.65 132.87,294.49 136.18,295.85 137.27,298.68 M 152.79,292.71 C 153.88,295.54 152.33,298.76 149.34,299.92 146.34,301.07 143.03,299.71 141.94,296.88 140.85,294.05 142.4,290.83 145.4,289.67 148.39,288.52 151.7,289.88 152.79,292.71 M 168.31,286.74 C 169.4,289.57 167.85,292.79 164.86,293.95 161.86,295.1 158.55,293.74 157.46,290.91 156.37,288.08 157.92,284.86 160.92,283.7 163.91,282.55 167.23,283.91 168.31,286.74 M 183.84,280.77 C 184.92,283.59 183.38,286.82 180.38,287.98 177.38,289.13 174.07,287.77 172.98,284.94 171.89,282.11 173.44,278.89 176.44,277.73 179.44,276.58 182.75,277.94 183.84,280.77 M 199.36,274.8 C 200.44,277.62 198.9,280.85 195.9,282 192.9,283.16 189.59,281.8 188.5,278.97 187.41,276.14 188.96,272.91 191.96,271.76 194.96,270.61 198.27,271.97 199.36,274.8 M 214.88,268.82 C 215.97,271.65 214.42,274.88 211.42,276.03 208.42,277.19 205.11,275.83 204.02,273 202.94,270.17 204.48,266.94 207.48,265.79 210.48,264.64 213.79,266 214.88,268.82 M 230.4,262.85 C 231.49,265.68 229.94,268.91 226.94,270.06 223.94,271.22 220.63,269.86 219.54,267.03 218.46,264.2 220,260.97 223,259.82 226,258.67 229.31,260.03 230.4,262.85 M 245.92,256.88 C 247.01,259.71 245.46,262.94 242.46,264.09 239.47,265.24 236.15,263.89 235.07,261.06 233.98,258.23 235.52,255 238.52,253.85 241.52,252.7 244.83,254.05 245.92,256.88 M 261.44,250.91 C 262.53,253.74 260.98,256.97 257.98,258.12 254.99,259.27 251.67,257.92 250.59,255.09 249.5,252.26 251.05,249.03 254.04,247.88 257.04,246.73 260.35,248.08 261.44,250.91 M 276.96,244.94 C 278.05,247.77 276.5,251 273.5,252.15 270.51,253.3 267.2,251.95 266.11,249.12 265.02,246.29 266.57,243.06 269.56,241.91 272.56,240.75 275.87,242.11 276.96,244.94 M 292.48,238.97 C 293.57,241.8 292.02,245.03 289.03,246.18 286.03,247.33 282.72,245.97 281.63,243.15 280.54,240.32 282.09,237.09 285.08,235.94 288.08,234.78 291.39,236.14 292.48,238.97 M 308.01,232.99 C 309.1,235.82 307.55,239.05 304.56,240.2 301.56,241.35 298.25,239.99 297.16,237.17 296.07,234.34 297.62,231.11 300.61,229.96 303.61,228.8 306.92,230.16 308.01,232.99 M 113.27,357.18 C 114.78,359.81 113.75,363.23 110.97,364.84 108.19,366.44 104.71,365.61 103.19,362.98 101.68,360.36 102.71,356.93 105.49,355.33 108.28,353.72 111.76,354.55 113.27,357.18 M 127.68,348.88 C 129.19,351.51 128.16,354.94 125.38,356.54 122.6,358.14 119.12,357.31 117.6,354.69 116.09,352.06 117.12,348.63 119.9,347.03 122.69,345.43 126.17,346.25 127.68,348.88 M 142.09,340.58 C 143.6,343.21 142.57,346.64 139.79,348.24 137.01,349.84 133.53,349.01 132.01,346.39 130.5,343.76 131.53,340.33 134.31,338.73 137.1,337.13 140.58,337.96 142.09,340.58 M 156.5,332.28 C 158.01,334.91 156.98,338.34 154.2,339.94 151.42,341.54 147.94,340.71 146.42,338.09 144.91,335.46 145.94,332.03 148.72,330.43 151.51,328.83 154.99,329.66 156.5,332.28 M 170.91,323.98 C 172.42,326.61 171.39,330.04 168.61,331.64 165.83,333.24 162.35,332.41 160.83,329.79 159.32,327.16 160.35,323.73 163.13,322.13 165.92,320.53 169.4,321.36 170.91,323.98 M 185.32,315.68 C 186.83,318.31 185.8,321.74 183.02,323.34 180.24,324.94 176.76,324.11 175.24,321.49 173.73,318.86 174.76,315.43 177.54,313.83 180.33,312.23 183.81,313.06 185.32,315.68 M 199.73,307.38 C 201.24,310.01 200.21,313.44 197.43,315.04 194.65,316.64 191.17,315.81 189.65,313.19 188.14,310.56 189.17,307.13 191.95,305.53 194.74,303.93 198.22,304.76 199.73,307.38 M 214.14,299.08 C 215.65,301.71 214.62,305.14 211.84,306.74 209.06,308.34 205.58,307.51 204.06,304.89 202.55,302.26 203.58,298.83 206.36,297.23 209.15,295.63 212.63,296.46 214.14,299.08 M 228.55,290.78 C 230.06,293.41 229.03,296.84 226.25,298.44 223.47,300.04 219.99,299.21 218.47,296.59 216.96,293.96 217.99,290.53 220.77,288.93 223.56,287.33 227.04,288.16 228.55,290.78 M 242.96,282.48 C 244.47,285.11 243.44,288.54 240.66,290.14 237.88,291.74 234.4,290.91 232.88,288.29 231.37,285.66 232.4,282.23 235.18,280.63 237.97,279.03 241.45,279.86 242.96,282.48 M 257.37,274.19 C 258.88,276.81 257.85,280.24 255.07,281.84 252.29,283.44 248.81,282.62 247.29,279.99 245.78,277.36 246.81,273.94 249.59,272.33 252.38,270.73 255.86,271.56 257.37,274.19 M 271.78,265.89 C 273.29,268.51 272.26,271.94 269.48,273.54 266.7,275.15 263.22,274.32 261.7,271.69 260.19,269.06 261.22,265.64 264,264.03 266.79,262.43 270.27,263.26 271.78,265.89 M 286.19,257.59 C 287.7,260.21 286.67,263.64 283.89,265.24 281.11,266.85 277.63,266.02 276.11,263.39 274.6,260.76 275.63,257.34 278.41,255.73 281.2,254.13 284.68,254.96 286.19,257.59 M 300.6,249.29 C 302.11,251.91 301.08,255.34 298.3,256.94 295.52,258.55 292.04,257.72 290.52,255.09 289.01,252.46 290.04,249.04 292.82,247.43 295.61,245.83 299.09,246.66 300.6,249.29 M 315.01,241 C 316.52,243.62 315.49,247.05 312.71,248.65 309.93,250.26 306.45,249.43 304.93,246.8 303.42,244.17 304.45,240.75 307.23,239.14 310.02,237.54 313.5,238.37 315.01,241 M 256.95,462.21 C 259.77,463.32 261.11,466.64 259.93,469.63 258.76,472.61 255.52,474.14 252.7,473.03 249.88,471.92 248.55,468.6 249.72,465.61 250.89,462.62 254.13,461.1 256.95,462.21 M 263.03,446.73 C 265.86,447.84 267.19,451.16 266.02,454.15 264.84,457.14 261.6,458.66 258.78,457.55 255.96,456.44 254.63,453.12 255.8,450.13 256.98,447.15 260.21,445.62 263.03,446.73 M 269.12,431.25 C 271.94,432.36 273.27,435.68 272.1,438.67 270.92,441.66 267.68,443.18 264.86,442.07 262.04,440.97 260.71,437.65 261.88,434.66 263.06,431.67 266.3,430.14 269.12,431.25 M 275.2,415.77 C 278.02,416.88 279.35,420.2 278.18,423.19 277,426.18 273.77,427.7 270.94,426.6 268.12,425.49 266.79,422.17 267.96,419.18 269.14,416.19 272.38,414.66 275.2,415.77 M 281.28,400.29 C 284.1,401.4 285.43,404.72 284.26,407.71 283.09,410.7 279.85,412.23 277.03,411.12 274.21,410.01 272.87,406.69 274.05,403.7 275.22,400.71 278.46,399.19 281.28,400.29 M 287.36,384.82 C 290.18,385.93 291.52,389.25 290.34,392.24 289.17,395.22 285.93,396.75 283.11,395.64 280.29,394.53 278.95,391.21 280.13,388.22 281.3,385.23 284.54,383.71 287.36,384.82 M 293.44,369.34 C 296.26,370.45 297.6,373.77 296.42,376.76 295.25,379.75 292.01,381.27 289.19,380.16 286.37,379.05 285.03,375.73 286.21,372.74 287.38,369.76 290.62,368.23 293.44,369.34 M 299.52,353.86 C 302.34,354.97 303.68,358.29 302.5,361.28 301.33,364.27 298.09,365.79 295.27,364.68 292.45,363.58 291.12,360.26 292.29,357.27 293.46,354.28 296.7,352.75 299.52,353.86 M 305.6,338.38 C 308.43,339.49 309.76,342.81 308.59,345.8 307.41,348.79 304.17,350.31 301.35,349.21 298.53,348.1 297.2,344.78 298.37,341.79 299.55,338.8 302.78,337.27 305.6,338.38 M 311.69,322.9 C 314.51,324.01 315.84,327.33 314.67,330.32 313.49,333.31 310.25,334.84 307.43,333.73 304.61,332.62 303.28,329.3 304.45,326.31 305.63,323.32 308.87,321.8 311.69,322.9 M 317.77,307.43 C 320.59,308.54 321.92,311.86 320.75,314.85 319.57,317.83 316.34,319.36 313.51,318.25 310.69,317.14 309.36,313.82 310.53,310.83 311.71,307.84 314.95,306.32 317.77,307.43 M 323.85,291.95 C 326.67,293.06 328,296.38 326.83,299.37 325.66,302.36 322.42,303.88 319.6,302.77 316.78,301.66 315.44,298.34 316.62,295.35 317.79,292.37 321.03,290.84 323.85,291.95 M 329.93,276.47 C 332.75,277.58 334.09,280.9 332.91,283.89 331.74,286.88 328.5,288.4 325.68,287.29 322.86,286.19 321.52,282.87 322.7,279.88 323.87,276.89 327.11,275.36 329.93,276.47 M 336.03,261.02 C 338.85,262.13 340.19,265.45 339.01,268.44 337.84,271.43 334.6,272.95 331.78,271.84 328.96,270.74 327.62,267.42 328.8,264.43 329.97,261.44 333.21,259.91 336.03,261.02 M 205.36,451.41 C 207.93,453.01 208.63,456.52 206.93,459.25 205.23,461.97 201.76,462.87 199.19,461.27 196.62,459.66 195.92,456.15 197.62,453.43 199.32,450.71 202.79,449.8 205.36,451.41 M 214.17,437.31 C 216.74,438.91 217.44,442.42 215.74,445.14 214.04,447.87 210.58,448.77 208.01,447.17 205.44,445.56 204.73,442.05 206.44,439.33 208.14,436.6 211.6,435.7 214.17,437.31 M 222.99,423.2 C 225.56,424.81 226.26,428.32 224.56,431.04 222.85,433.77 219.39,434.67 216.82,433.07 214.25,431.46 213.55,427.95 215.25,425.23 216.95,422.5 220.42,421.6 222.99,423.2 M 231.8,409.1 C 234.37,410.71 235.07,414.22 233.37,416.94 231.67,419.67 228.21,420.57 225.64,418.96 223.07,417.36 222.36,413.85 224.07,411.13 225.77,408.4 229.23,407.5 231.8,409.1 M 240.62,395 C 243.18,396.61 243.89,400.12 242.19,402.84 240.48,405.56 237.02,406.47 234.45,404.86 231.88,403.26 231.18,399.75 232.88,397.02 234.58,394.3 238.05,393.4 240.62,395 M 249.43,380.9 C 252,382.51 252.7,386.02 251,388.74 249.3,391.46 245.84,392.37 243.27,390.76 240.7,389.16 239.99,385.65 241.69,382.92 243.4,380.2 246.86,379.29 249.43,380.9 M 258.24,366.8 C 260.81,368.41 261.52,371.92 259.81,374.64 258.11,377.36 254.65,378.27 252.08,376.66 249.51,375.06 248.81,371.55 250.51,368.82 252.21,366.1 255.67,365.19 258.24,366.8 M 267.06,352.7 C 269.63,354.31 270.33,357.82 268.63,360.54 266.93,363.26 263.46,364.17 260.89,362.56 258.32,360.95 257.62,357.44 259.32,354.72 261.03,352 264.49,351.09 267.06,352.7 M 275.87,338.6 C 278.44,340.2 279.15,343.71 277.44,346.44 275.74,349.16 272.28,350.07 269.71,348.46 267.14,346.85 266.44,343.34 268.14,340.62 269.84,337.9 273.3,336.99 275.87,338.6 M 284.69,324.5 C 287.26,326.1 287.96,329.61 286.26,332.34 284.56,335.06 281.09,335.96 278.52,334.36 275.95,332.75 275.25,329.24 276.95,326.52 278.65,323.8 282.12,322.89 284.69,324.5 M 293.5,310.4 C 296.07,312 296.78,315.51 295.07,318.24 293.37,320.96 289.91,321.86 287.34,320.26 284.77,318.65 284.07,315.14 285.77,312.42 287.47,309.7 290.93,308.79 293.5,310.4 M 302.32,296.3 C 304.89,297.9 305.59,301.41 303.89,304.13 302.19,306.86 298.72,307.76 296.15,306.16 293.58,304.55 292.88,301.04 294.58,298.32 296.28,295.59 299.75,294.69 302.32,296.3 M 311.13,282.19 C 313.7,283.8 314.4,287.31 312.7,290.03 311,292.76 307.54,293.66 304.97,292.06 302.4,290.45 301.69,286.94 303.4,284.22 305.1,281.49 308.56,280.59 311.13,282.19 M 319.95,268.09 C 322.52,269.7 323.22,273.21 321.52,275.93 319.81,278.66 316.35,279.56 313.78,277.95 311.21,276.35 310.51,272.84 312.21,270.12 313.91,267.39 317.38,266.49 319.95,268.09 M 328.76,253.99 C 331.33,255.6 332.03,259.11 330.33,261.83 328.63,264.55 325.17,265.46 322.6,263.85 320.03,262.25 319.32,258.74 321.03,256.01 322.73,253.29 326.19,252.39 328.76,253.99 M 154.6,410.23 C 156.71,412.41 156.56,415.98 154.25,418.22 151.95,420.46 148.37,420.51 146.26,418.34 144.15,416.16 144.3,412.59 146.61,410.35 148.91,408.11 152.49,408.06 154.6,410.23 M 166.53,398.65 C 168.64,400.82 168.48,404.39 166.18,406.63 163.88,408.87 160.3,408.92 158.19,406.75 156.08,404.57 156.23,401 158.53,398.76 160.84,396.52 164.42,396.47 166.53,398.65 M 178.46,387.06 C 180.57,389.23 180.41,392.81 178.11,395.05 175.81,397.28 172.23,397.34 170.11,395.16 168,392.99 168.16,389.41 170.46,387.17 172.77,384.94 176.34,384.88 178.46,387.06 M 190.38,375.47 C 192.5,377.64 192.34,381.22 190.04,383.46 187.73,385.7 184.15,385.75 182.04,383.57 179.93,381.4 180.09,377.82 182.39,375.59 184.69,373.35 188.27,373.3 190.38,375.47 M 202.3,363.89 C 204.42,366.06 204.26,369.64 201.96,371.88 199.65,374.12 196.07,374.17 193.96,371.99 191.85,369.82 192.01,366.24 194.31,364.01 196.61,361.77 200.19,361.72 202.3,363.89 M 214.23,352.31 C 216.35,354.48 216.19,358.06 213.89,360.3 211.58,362.54 208,362.59 205.89,360.41 203.78,358.24 203.94,354.66 206.24,352.43 208.54,350.19 212.12,350.14 214.23,352.31 M 226.16,340.72 C 228.27,342.9 228.12,346.47 225.81,348.71 223.51,350.95 219.93,351 217.82,348.83 215.71,346.65 215.86,343.08 218.17,340.84 220.47,338.6 224.05,338.55 226.16,340.72 M 238.09,329.14 C 240.2,331.31 240.05,334.89 237.74,337.12 235.44,339.36 231.86,339.41 229.75,337.24 227.64,335.07 227.79,331.49 230.1,329.25 232.4,327.02 235.98,326.96 238.09,329.14 M 250.02,317.55 C 252.13,319.72 251.97,323.3 249.67,325.54 247.37,327.78 243.79,327.83 241.68,325.65 239.57,323.48 239.72,319.9 242.02,317.67 244.33,315.43 247.91,315.38 250.02,317.55 M 261.95,305.96 C 264.06,308.14 263.9,311.71 261.6,313.95 259.3,316.19 255.72,316.24 253.6,314.07 251.49,311.89 251.65,308.32 253.95,306.08 256.26,303.84 259.83,303.79 261.95,305.96 M 273.87,294.38 C 275.99,296.55 275.83,300.13 273.53,302.36 271.22,304.6 267.64,304.65 265.53,302.48 263.42,300.31 263.58,296.73 265.88,294.49 268.18,292.25 271.76,292.2 273.87,294.38 M 285.8,282.79 C 287.91,284.96 287.76,288.54 285.45,290.78 283.15,293.01 279.57,293.07 277.46,290.89 275.35,288.72 275.5,285.14 277.81,282.91 280.11,280.67 283.69,280.62 285.8,282.79 M 297.73,271.2 C 299.84,273.38 299.69,276.95 297.38,279.19 295.08,281.43 291.5,281.48 289.39,279.31 287.28,277.13 287.43,273.56 289.74,271.32 292.04,269.08 295.62,269.03 297.73,271.2 M 309.66,259.62 C 311.77,261.79 311.61,265.36 309.31,267.6 307.01,269.84 303.43,269.89 301.32,267.72 299.21,265.54 299.36,261.97 301.66,259.73 303.97,257.49 307.55,257.44 309.66,259.62 M 321.59,248.03 C 323.68,250.23 323.52,253.8 321.22,256.04 318.91,258.28 315.33,258.33 313.22,256.15 311.11,253.98 311.27,250.4 313.57,248.17 315.87,245.93 319.45,245.88 321.56,248.05"
         id="path8"
         style="fill:#000000;stroke:none; fill-rule:nonzero;" />
    <path
         d="M 287.48,9.1495 C 218.95,9.1495 156.2,34.097 107.76,75.4 106.49,76.483 105.23,77.575 103.98,78.681 103.48,79.125 102.98,79.576 102.48,80.025 101.41,80.985 100.35,81.954 99.291,82.931 99.01,83.191 98.728,83.45 98.448,83.712 97.198,84.877 95.956,86.055 94.729,87.243 93.321,88.605 91.92,89.977 90.541,91.368 89.188,92.733 87.835,94.1 86.51,95.493 85.136,96.939 83.791,98.424 82.448,99.899 82.294,100.07 82.132,100.23 81.979,100.4 80.817,101.68 79.679,102.97 78.541,104.27 77.299,105.7 76.099,107.14 74.885,108.59 74.838,108.64 74.776,108.69 74.729,108.74 34.233,157.12 9.8229,219.47 9.8229,287.52 9.8229,441.18 134.2,565.86 287.48,565.86 356.16,565.86 419.02,540.79 467.51,499.33 L 467.54,499.36 C 467.93,499.03 468.32,498.7 468.7,498.36 468.86,498.23 469.01,498.09 469.17,497.96 470.11,497.14 471.05,496.32 471.98,495.49 472.72,494.83 473.44,494.18 474.17,493.52 474.38,493.33 474.59,493.15 474.79,492.96 475.76,492.07 476.71,491.17 477.67,490.27 478.53,489.46 479.38,488.65 480.23,487.83 480.35,487.72 480.46,487.6 480.58,487.49 481.66,486.43 482.72,485.37 483.79,484.3 484.11,483.99 484.42,483.68 484.73,483.36 485.98,482.1 487.22,480.81 488.45,479.52 488.57,479.39 488.7,479.27 488.83,479.14 490.23,477.66 491.64,476.16 493.01,474.64 494.27,473.25 495.5,471.84 496.73,470.43 496.96,470.16 497.19,469.91 497.42,469.64 498.47,468.43 499.51,467.19 500.54,465.96 540.87,417.63 565.17,355.41 565.17,287.52 565.17,133.86 440.76,9.1369 287.48,9.1369 z M 287.48,71.212 C 406.59,71.212 503.26,168.12 503.26,287.52 503.26,338.37 485.75,385.14 456.42,422.08 L 151.92,119.3 C 188.98,89.242 236.13,71.21 287.48,71.21 z M 118.86,152.62 423.42,455.46 C 386.3,485.7 339,503.83 287.48,503.83 168.37,503.83 71.73,406.92 71.73,287.52 71.73,236.52 89.366,189.61 118.86,152.61 z"
         id="path10"
         style="fill:#CC0000;stroke:#CC0000;stroke-width:2;stroke-miterlimit:4;" />
    <path
         d="M 463.6,294.28 C 456.6,291.46 451.41,277.17 439.41,227.65 425.91,171.96 424.43,168.3 415.39,168.3 405.45,168.3 396.83,177.22 400.37,183.83 404.63,191.8 397.98,199.33 367.25,221.31 340.4,240.51 340.14,240.61 334.09,234.56 328.03,228.5 328.16,228.22 350.01,198.76 372.68,168.21 377.64,163.88 384.88,168.36 387.53,170 391.92,168.73 396.73,164.95 407.22,156.7 422.71,157.16 430.67,165.96 434.92,170.67 440.88,189.49 448.7,222.97 460.63,274.01 465.74,287 473.89,287 476.43,287 478.5,289.11 478.5,291.69 478.5,296.26 471.54,297.48 463.6,294.28 z"
         id="path12"
         style="fill:#000000;stroke:none;" />
</svg>
