<?xml version="1.0" encoding="UTF-8" standalone="no"?>

<svg
   xmlns="http://www.w3.org/2000/svg"
   version="1.1"
   width="624"
   height="548">
  <path
     d="m 620.39142,508.37156 c 6.37311,11.13472 -4.16208,33.81099 -17.35075,34.20774 L 27.796186,542.8762 C 12.049276,543.2929 1.1619856,521.18324 7.3203456,509.46378 L 289.63944,19.235299 c 11.86572,-21.8526702 35.92739,-21.9375402 47.68937,-0.30794 L 620.39142,508.37156 z"
     style="fill:#f6f618" />
  <path
     style="fill:#000000"
     d="m 338.57587,330.24025 -1.8125,2.4375 9.40625,6.96875 -11.9375,-0.125 14.09375,10.5625 -11.125,-0.5625 17.25,18.71875 2.1875,-2.0625 -12.25,-13.28125 13.625,0.6875 -14.65625,-10.9375 12.03125,0.125 -16.8125,-12.53125 z m -23.9375,3.625 -5.96875,17.71875 7.0625,-1.46875 -6.9375,12.3125 11,-0.37495 -4.875,10.90625 2.75,1.25 6.84375,-15.34375 -10.46875,0.37495 7.5625,-13.4375 -8.4375,1.78125 4.28125,-12.78125 -2.8125,-0.9375 z m -16.65625,-3.125 -6.875,12.5 -6,-3.71875 -6.3125,14.5 -4.03125,-2.96875 -10.34375,16.09375 2.5,1.625 8.625,-13.40625 4.5,3.28125 6.4375,-14.75 5.75,3.53125 8.375,-15.25 -2.625,-1.4375 z m 54.60937,-34.20312 -2.25,23.09375 -30.59375,0 2.5,-22.90625 30.34375,-0.1875 z m -28.6875,1.93745 -2.3125,19.09375 26.96875,0.0625 2,-19.25 -26.65625,0.0937 z m -63,-2.0312 2.25,23.09375 30.59375,0 -2.5,-22.90625 -30.34375,-0.1875 z m 28.6875,1.93745 2.3125,19.09375 -26.96875,0.0625 -2,-19.25 26.65625,0.0937 z m -28.70471,-2.79154 c -8.46421,-84.09985 -21.32274,-128.68414 46.28284,-128.9375 67.60558,-0.25336 56.06753,46.75 45.28284,129 l -30,-0.0106 c 7.49037,-80.49999 17.82816,-101.29596 -15.53284,-101.12499 -33.35878,0.17096 -24.43838,20.48275 -16.28284,101.125 l -29.75,-0.0519 0,-10e-6 z m -64.71716,113.18221 0,22.875 c -6.53748,0.0679 -7.11312,-22.99659 0,-22.875 z m -0.28125,-27.21875 0,86.28125 52.03125,0 0,-86.28125 -52.03125,0 z m 3.46875,3.03125 45.46875,0.0312 0,79.96875 -45.46875,0 0,-80 z m 58.51007,22.08151 166.31567,0 0,27.86441 -166.31567,0 0,-27.86441 z M 301.9006,16.477 16.84182,508.81916 c -5.27596,8.628 -1.32202,25.27399 12.62389,25.17267 l 570.28442,0.33051 c 9.43942,0.0932 18.19317,-12.43583 12.98199,-23.22775 L 327.50384,16.4235 C 322.69946,8.7917392 306.46554,9.1262892 301.9006,16.477 z m 11.74995,41.88877 c 0,0 165.34973,287.24888 256.82575,444.17956 0,0 -512.24841,-0.14301 -512.24841,-0.14301 0,0 255.42266,-444.03655 255.42266,-444.03655 z" />
</svg>
