<?xml version="1.0" encoding="UTF-8" standalone="no"?>
<!-- Generator: Adobe Illustrator 11.0, SVG Export Plug-In . SVG Version: 6.0.0 Build 78)  -->
<!-- Created by Cary Bass http://commons.wikipedia.com/wiki/User:Bastique on January 20, 2006 -->
<svg
   xmlns:dc="http://purl.org/dc/elements/1.1/"
   xmlns:cc="http://web.resource.org/cc/"
   xmlns:rdf="http://www.w3.org/1999/02/22-rdf-syntax-ns#"
   xmlns:svg="http://www.w3.org/2000/svg"
   xmlns="http://www.w3.org/2000/svg"
   xmlns:sodipodi="http://sodipodi.sourceforge.net/DTD/sodipodi-0.dtd"
   xmlns:inkscape="http://www.inkscape.org/namespaces/inkscape"
   version="1.0"
   width="623.92822"
   height="548.17328"
   id="radioactive"
   sodipodi:version="0.32"
   inkscape:version="0.44"
   sodipodi:docname="autoanlauf.svg"
   sodipodi:docbase="C:\Dokumente und Einstellungen\henning\Desktop\Sicherheitszeichen">
  <defs
     id="defs58" />
  <sodipodi:namedview
     inkscape:window-height="966"
     inkscape:window-width="1272"
     inkscape:pageshadow="2"
     inkscape:pageopacity="0.0"
     guidetolerance="10.0"
     gridtolerance="10.0"
     objecttolerance="10.0"
     borderopacity="1.0"
     bordercolor="#666666"
     pagecolor="#ffffff"
     id="base"
     inkscape:zoom="1.4064896"
     inkscape:cx="311.9641"
     inkscape:cy="274.08664"
     inkscape:window-x="0"
     inkscape:window-y="0"
     inkscape:current-layer="radioactive"
     inkscape:document-units="mm"
     gridspacingx="0.25mm"
     gridspacingy="0.25mm"
     grid_units="mm" />
  <metadata
     id="metadata60">
    <rdf:RDF>
      <cc:Work
         rdf:about="">
        <dc:format>image/svg+xml</dc:format>
        <dc:type
           rdf:resource="http://purl.org/dc/dcmitype/StillImage" />
      </cc:Work>
    </rdf:RDF>
  </metadata>
  <g
     id="g2907"
     transform="translate(15.37952,-9.607801)">
    <path
       id="path2889"
       d="M 295.84375,9.625 C 280.56684,9.7059068 270.50089,23.813625 265.0625,36.5 C 172.18368,198.06519 78.058421,358.93364 -14,520.9375 C -20.829463,540.11547 -1.0883658,561.5426 18.53125,557.21875 C 207.86361,556.9309 397.20493,557.89808 586.53125,556.65625 C 606.05502,553.39207 615.65348,526.10648 602.46875,511.28125 C 507.43559,347.23157 413.38004,182.58741 317.6875,18.9375 C 312.13891,12.888602 304.08329,9.328277 295.84375,9.625 z "
       style="fill:yellow" />
    <g
       transform="translate(-3.188547,21.62979)"
       id="g4">
      <path
         id="sign_border"
         d="M 597.6,499.6 L 313.8,8 C 310.9,3 305.6,0 299.9,0 C 294.2,0 288.9,3.1 286,8 L 2.2,499.6 C -0.7,504.6 -0.7,510.7 2.2,515.6 C 5.1,520.6 10.4,523.6 16.1,523.6 L 583.7,523.6 C 589.4,523.6 594.7,520.5 597.6,515.6 C 600.5,510.6 600.5,504.5 597.6,499.6 z " />
      <polygon
         points="43.9,491.5 299.9,48.2 555.9,491.5 43.9,491.5 "
         id="sign_bg"
         style="fill:#f7f619" />
    </g>
  </g>
  <path
     style="fill:black;fill-opacity:1;stroke:none;stroke-width:0.60186303;stroke-linecap:butt;stroke-linejoin:bevel;stroke-miterlimit:4;stroke-dasharray:none;stroke-opacity:1"
     d="M 356.98176,249.14692 L 352.17019,261.82605 C 386.8596,269.90235 412.73745,301.02532 412.73745,338.16096 C 412.73746,373.2671 389.62884,403.00673 357.79452,412.96788 C 371.75251,402.41867 381.35334,386.45107 383.51042,368.20077 C 383.62629,367.22037 383.73076,366.23538 383.80301,365.2423 C 383.80854,365.16634 383.83026,365.09077 383.83552,365.01473 C 383.85093,364.80875 383.85457,364.60301 383.86803,364.39703 C 383.90766,363.73609 383.94561,363.07992 383.96557,362.41388 C 383.9891,361.74203 383.99514,361.06931 383.99808,360.39822 C 384.00301,359.27236 383.9531,358.13903 383.90054,357.01712 C 383.85026,355.94369 383.77534,354.86635 383.67297,353.79857 C 383.66885,353.75558 383.67717,353.7115 383.67297,353.66853 C 383.66968,353.63621 383.6763,353.6033 383.67297,353.57099 C 383.60814,352.91828 383.52954,352.27031 383.4454,351.62036 C 382.41248,338.30576 378.47124,325.00449 371.35145,312.67265 C 345.87865,268.55246 289.428,253.38881 245.30782,278.86161 C 208.52672,300.0972 191.86014,342.90479 202.10122,382.11531 L 215.49559,379.9371 C 205.14515,345.85705 219.16186,307.89785 251.32228,289.33003 C 281.57109,271.86585 318.64965,276.88236 343.19726,299.18074 C 332.86491,294.92173 321.918,293.4692 311.30435,294.59675 C 311.06639,294.62042 310.82701,294.63547 310.58912,294.66177 C 310.25339,294.70112 309.91625,294.74736 309.58129,294.79181 C 308.51947,294.92586 307.45391,295.09252 306.39525,295.27947 C 304.29069,295.65111 302.20162,296.12621 300.1207,296.70994 L 300.02317,296.41734 C 298.07609,297.09203 296.14155,297.85609 294.23628,298.66057 C 294.11752,298.70642 293.99729,298.74403 293.87867,298.79062 C 290.84804,299.98078 287.84314,301.40488 284.93825,303.08202 C 283.82549,303.72447 282.78036,304.43382 281.7197,305.13019 C 269.13137,312.89803 258.22428,323.77804 250.31445,337.47824 C 224.84163,381.59845 239.97278,438.08159 284.09297,463.55438 C 320.87408,484.78998 366.24743,477.78904 395.08419,449.31474 L 386.50139,438.81381 C 362.16241,464.81756 322.26786,471.6863 290.10744,453.11848 C 259.95464,435.70976 245.74234,401.23496 252.6227,368.916 C 253.73348,377.18523 256.45212,385.36888 260.8804,393.03887 C 263.9501,398.35575 267.65441,403.08297 271.83647,407.18099 C 271.99913,407.34191 272.15983,407.5094 272.32413,407.66865 L 272.09656,407.92873 C 274.12036,409.6811 276.23129,411.36187 278.40362,412.93537 C 278.49858,413.00415 278.60098,413.062 278.69621,413.13043 C 278.70847,413.13962 278.71646,413.15376 278.72872,413.16294 C 280.76445,414.68576 282.92548,416.07356 285.13331,417.35681 C 285.73068,417.70401 286.31233,418.06838 286.9214,418.39715 C 300.37669,426.05263 315.92493,430.42607 332.50127,430.42607 C 383.44688,430.42607 424.79889,389.10657 424.79889,338.16096 C 424.79889,295.68979 396.05961,259.88314 356.98176,249.14692 z M 317.90401,310.10431 C 345.68087,310.1043 368.23043,332.62135 368.23043,360.39822 C 368.23043,369.07849 366.02652,377.26038 362.15095,384.39105 C 361.79395,385.04788 361.43056,385.67039 361.04559,386.30918 C 361.01263,386.36387 360.98122,386.41717 360.94805,386.47173 C 360.92739,386.5049 360.90376,386.53616 360.88303,386.56926 C 360.59492,387.04078 360.27577,387.50608 359.97274,387.96722 C 359.85316,388.14919 359.73698,388.33958 359.61512,388.5199 C 359.42606,388.79324 359.2236,389.06411 359.02993,389.33266 C 344.11707,410.01146 315.65042,416.46268 293.09841,403.44227 C 271.29814,390.85588 262.47435,364.36548 271.34881,341.60709 C 271.96085,340.03755 272.68009,338.48646 273.462,336.95807 C 273.75855,336.37843 274.08352,335.80759 274.40481,335.23501 C 274.5071,335.05272 274.59259,334.86387 274.69741,334.68233 C 274.83239,334.44852 274.98188,334.23043 275.12005,333.99961 C 275.47424,333.42072 275.81449,332.842 276.1929,332.27654 C 276.26193,332.17447 276.3507,332.0855 276.42047,331.98395 C 276.44756,331.9441 276.45828,331.89368 276.48549,331.85391 C 276.92666,331.21567 277.38148,330.58468 277.85094,329.96829 C 278.25034,329.43921 278.66465,328.92233 279.08634,328.40778 C 279.12105,328.36577 279.14904,328.31963 279.18387,328.27774 C 279.44248,327.96427 279.72979,327.67524 279.99664,327.36744 C 280.276,327.04761 280.52215,326.70475 280.8094,326.39212 C 281.29839,325.85633 281.82278,325.34819 282.3374,324.83162 C 283.65624,323.51395 285.04094,322.25846 286.49876,321.09289 C 286.90457,320.76779 287.31616,320.43158 287.73416,320.11758 C 296.14155,313.81631 306.594,310.10431 317.90401,310.10431 z "
     id="path1950" />
</svg>
