<?xml version="1.0" encoding="UTF-8" standalone="no"?>
<!-- Created with Inkscape (http://www.inkscape.org/) -->
<svg
   xmlns:svg="http://www.w3.org/2000/svg"
   xmlns="http://www.w3.org/2000/svg"
   version="1.0"
   width="175.64mm"
   height="152.00999mm"
   id="svg2383">
  <defs
     id="defs2454" />
  <path
     d="M 332.18811,12.869238 L 330.56812,10.709366 L 328.58813,8.8194775 L 326.24814,7.1995735 L 323.63816,5.8496535 L 320.75817,4.7697174 L 317.69819,4.0497601 L 314.45821,3.5997867 L 311.21823,3.4197974 L 307.97825,3.5097921 L 304.73826,3.9597654 L 301.67828,4.5897281 L 298.7083,5.6696641 L 296.00831,6.9295895 L 293.57833,8.5494935 L 291.50834,10.439382 L 289.79835,12.689248 L 5.1299708,506.66998 L 4.3199754,508.64987 L 3.7799785,510.89973 L 3.5999795,513.32959 L 3.5999795,515.84944 L 3.869978,518.45929 L 4.4999744,521.06913 L 5.3099697,523.76897 L 6.3899636,526.28882 L 7.6499564,528.71868 L 9.1799477,530.96854 L 10.979937,533.03842 L 12.959926,534.92831 L 15.119914,536.36822 L 17.5499,537.53815 L 20.069886,538.34811 L 22.85987,538.61809 L 597.0566,538.61809 L 600.20658,538.34811 L 603.08656,537.71814 L 605.78655,536.7282 L 608.12654,535.37828 L 610.28652,533.66838 L 612.17651,531.6885 L 613.7065,529.52863 L 615.0565,527.00878 L 615.95649,524.39893 L 616.58649,521.6091 L 616.94649,518.72927 L 616.85649,515.66945 L 616.49649,512.51964 L 615.68649,509.36982 L 614.5165,506.22001 L 612.98651,503.0702 L 332.18811,12.869238 z "
     style="fill:#ffff00;fill-opacity:1;fill-rule:evenodd;stroke:none"
     id="path2385" />
  <path
     d="M 326.24814,24.208566 L 324.89815,22.228683 L 323.36816,20.518784 L 321.65817,18.988875 L 319.76818,17.818944 L 317.87819,16.829003 L 315.8082,16.19904 L 313.64821,15.749067 L 311.57822,15.659072 L 309.41824,15.839062 L 307.25825,16.19904 L 305.18826,16.918998 L 303.20827,17.818944 L 301.22828,19.07887 L 299.42829,20.518784 L 297.8083,22.318678 L 296.36831,24.388555 L 21.599877,507.92991 L 20.699882,509.63981 L 20.159885,511.25971 L 19.799887,512.96961 L 19.709888,514.58951 L 19.889887,516.11942 L 20.339884,517.64933 L 20.969881,519.08925 L 21.779876,520.34917 L 22.85987,521.5191 L 24.119863,522.59904 L 25.559854,523.49899 L 27.179845,524.30894 L 28.979835,524.84891 L 30.959824,525.20889 L 33.119811,525.38887 L 35.369799,525.29888 L 580.40669,525.92884 L 584.18667,525.92884 L 587.51665,525.74885 L 590.48664,525.29888 L 593.00662,524.75891 L 595.25661,523.94896 L 596.9666,522.95902 L 598.40659,521.78909 L 599.48658,520.43917 L 600.20658,518.81926 L 600.56658,517.10937 L 600.56658,515.21948 L 600.20658,513.0596 L 599.57658,510.80974 L 598.58659,508.37988 L 597.3266,505.68004 L 595.70661,502.89021 L 326.24814,24.208566 z "
     style="fill:#000000;fill-opacity:1;fill-rule:evenodd;stroke:none"
     id="path2399" />
  <path
     d="M 66.959619,493.71075 L 553.49685,493.89074 L 309.68824,73.525644 L 66.959619,493.71075 z "
     style="fill:#ffff00;fill-opacity:1;fill-rule:evenodd;stroke:none"
     id="path2401" />
  <path
     d="M 235.53125,296 L 210.25,394.625 L 371.4375,432.875 L 395.71875,334.25 L 235.53125,296 z M 240.71875,304.46875 L 387.15625,339.46875 L 366.25,424.40625 L 218.875,389.4375 L 240.71875,304.46875 z "
     style="fill:#000000;fill-opacity:1;fill-rule:nonzero;stroke:none"
     id="path2405" />
  <path
     d="M 261.64722,284.73278 L 256.43848,302.64413 L 260.16861,303.51785 L 264.3356,289.30303 L 374.02159,315.95162 L 370.42588,329.83039 C 370.42588,329.83039 374.12241,330.80493 374.12241,330.80493 L 378.65905,313.19603 L 261.64722,284.73278 z "
     style="fill:#000000;fill-opacity:1;fill-rule:evenodd;stroke:none"
     id="path2413" />
  <path
     d="M 309.25,211.84375 L 308.0625,211.9375 L 307,212.21875 L 306,212.5625 L 305.09375,213.09375 L 304.28125,213.8125 L 303.46875,214.71875 L 302.65625,215.90625 L 302.03125,217.25 L 301.3125,218.875 L 300.6875,220.75 L 283.125,291.9375 L 359,310.9375 L 359,310.75 L 359.1875,310.40625 L 359.375,309.65625 L 359.5625,308.6875 L 359.90625,307.5 L 360.28125,306.15625 L 360.625,304.53125 L 361.0625,302.65625 L 361.625,300.6875 L 362.15625,298.5 L 362.6875,296.25 L 363.3125,293.84375 L 364.0625,291.21875 L 364.6875,288.53125 L 365.40625,285.8125 L 366.125,282.9375 L 366.84375,280.0625 L 367.5625,277.09375 L 368.375,274.125 L 369.09375,271.15625 L 369.90625,268.09375 L 370.625,265.125 L 371.34375,262.15625 L 372.15625,259.1875 L 372.875,256.3125 L 373.5,253.5 L 374.21875,250.8125 L 374.84375,248.21875 L 375.46875,245.6875 L 376.09375,243.25 L 376.65625,241 L 377.1875,238.9375 L 377.5625,237.125 L 377.71875,235.59375 L 377.8125,234.15625 L 377.8125,232.90625 L 377.5625,231.75 L 377.28125,230.75 L 376.75,229.84375 L 376.09375,229.03125 L 375.3125,228.40625 L 374.3125,227.78125 L 373.125,227.15625 L 371.78125,226.59375 L 370.25,226.15625 L 368.5625,225.625 L 366.65625,225.15625 L 364.59375,224.625 L 318.15625,213.375 L 316.34375,212.9375 L 314.71875,212.5625 L 313.1875,212.3125 L 311.75,212.03125 L 310.5,211.9375 L 309.25,211.84375 z M 308.96875,225.96875 L 367.21875,239.90625 L 367.28125,239.75 L 367.375,239.9375 L 367.21875,239.90625 L 367.1875,239.9375 L 367.03125,240.5625 L 366.65625,241.53125 L 366.3125,242.8125 L 365.84375,244.4375 L 365.40625,246.3125 L 364.84375,248.46875 L 364.21875,250.8125 L 363.59375,253.34375 L 362.875,256.125 L 362.15625,259 L 361.4375,261.96875 L 360.71875,265.03125 L 360,268.1875 L 359.1875,271.34375 L 358.375,274.5625 L 357.65625,277.71875 L 356.9375,280.875 L 356.21875,283.9375 L 355.5,286.90625 L 354.78125,289.78125 L 354.15625,292.46875 L 353.53125,295.09375 L 352.96875,297.4375 L 352.53125,299.5 L 352.0625,301.40625 L 351.71875,303 L 351.34375,304.28125 L 351.1875,305.1875 L 351.09375,305.8125 L 351,305.96875 L 292.5,292.03125 L 308.96875,225.96875 z "
     style="fill:#000000;fill-opacity:1;fill-rule:evenodd;stroke:none"
     id="path2423" />
  <path
     d="M 228.7787,332.35031 L 226.16871,332.5303 L 223.82872,333.25026 L 221.75874,334.33019 L 219.95875,335.8601 L 218.51876,337.66 L 217.43876,339.72987 L 216.71877,341.88975 L 216.26877,344.22961 L 216.35877,346.47947 L 216.80876,348.72934 L 217.61876,350.88921 L 218.96875,352.8691 L 220.67874,354.57899 L 222.92873,355.92891 L 225.71871,356.91886 L 228.7787,332.35031 z "
     style="fill:#000000;fill-opacity:1;fill-rule:nonzero;stroke:none"
     id="path2427" />
  <path
     d="M 380.96783,369.6081 L 231.65868,332.80028 L 225.71871,356.91886 L 375.02786,393.72667 L 377.99785,381.66739 L 380.96783,369.6081 z "
     style="fill:#000000;fill-opacity:1;fill-rule:nonzero;stroke:none"
     id="path2429" />
  <path
     d="M 377.90785,394.17665 L 380.51783,393.99666 L 382.85782,393.2767 L 384.92781,392.19677 L 386.7278,390.66686 L 388.16779,388.86696 L 389.24778,386.79709 L 390.05778,384.63721 L 390.41778,382.29735 L 390.32778,380.04748 L 389.87778,377.79762 L 389.06778,375.63775 L 387.71779,373.65786 L 386.0078,371.94796 L 383.75781,370.59804 L 380.96783,369.6081 L 377.90785,394.17665 z "
     style="fill:#000000;fill-opacity:1;fill-rule:nonzero;stroke:none"
     id="path2431" />
  <path
     d="M 295.19832,411.72561 L 295.19832,447.63348 L 157.9491,447.63348 L 157.9491,411.72561 L 295.19832,411.72561 z "
     style="fill:#000000;fill-opacity:1;fill-rule:evenodd;stroke:none"
     id="path2433" />
  <path
     d="M 342.62805,436.74413 L 342.62805,448.08345 L 295.19832,448.08345 L 295.19832,436.74413 L 342.62805,436.74413 z "
     style="fill:#000000;fill-opacity:1;fill-rule:evenodd;stroke:none"
     id="path2435" />
  <path
     d="M 390.86777,435.93417 L 390.86777,446.82353 L 342.62805,446.82353 L 342.62805,435.93417 L 390.86777,435.93417 z "
     style="fill:#000000;fill-opacity:1;fill-rule:evenodd;stroke:none"
     id="path2437" />
  <path
     d="M 434.06753,441.78383 L 434.06753,450.15333 L 389.96778,450.15333 L 389.96778,441.78383 L 434.06753,441.78383 z "
     style="fill:#000000;fill-opacity:1;fill-rule:evenodd;stroke:none"
     id="path2439" />
  <path
     d="M 310.22823,429.99453 L 311.66822,430.71448 L 312.92822,431.79442 L 313.82821,433.32433 L 314.45821,435.12422 L 314.63821,437.1941 L 314.45821,439.44397 L 313.91821,441.87382 L 313.01822,444.30368 L 311.75822,446.55354 L 310.31823,448.62342 L 308.69824,450.42332 L 306.89825,451.86323 L 305.00826,452.94317 L 303.02827,453.66312 L 301.13828,453.93311 L 299.33829,453.66312 L 297.8983,452.94317 L 296.63831,451.86323 L 295.73832,450.42332 L 295.10832,448.62342 L 294.92832,446.55354 L 295.01832,444.30368 L 295.55832,441.87382 L 296.45831,439.44397 L 297.7183,437.1941 L 299.2483,435.12422 L 300.86829,433.32433 L 302.66828,431.79442 L 304.55826,430.71448 L 306.53825,429.99453 L 308.42824,429.72454 L 310.22823,429.99453 z "
     style="fill:#000000;fill-opacity:1;fill-rule:evenodd;stroke:none"
     id="path2441" />
  <path
     d="M 338.57807,430.98447 L 339.83806,431.70442 L 341.00806,432.69437 L 341.90805,434.04429 L 342.62805,435.66419 L 343.07805,437.46408 L 343.25804,439.53396 L 343.16804,441.69383 L 342.71805,443.8537 L 342.08805,445.92358 L 341.18806,447.72348 L 340.19806,449.34338 L 338.93807,450.60331 L 337.67808,451.68324 L 336.23808,452.3132 L 334.79809,452.49319 L 333.4481,452.3132 L 332.18811,451.68324 L 331.10811,450.60331 L 330.20812,449.34338 L 329.48812,447.72348 L 329.12812,445.92358 L 328.94813,443.8537 L 329.03813,441.69383 L 329.39812,439.53396 L 330.02812,437.46408 L 330.92811,435.66419 L 331.91811,434.04429 L 333.0881,432.69437 L 334.43809,431.70442 L 335.78809,430.98447 L 337.22808,430.80448 L 338.57807,430.98447 z "
     style="fill:#000000;fill-opacity:1;fill-rule:evenodd;stroke:none"
     id="path2443" />
  <path
     d="M 365.12792,429.54455 L 367.46791,430.17452 L 369.53789,431.25445 L 371.42788,432.69437 L 372.86788,434.40426 L 374.03787,436.38415 L 374.75787,438.54402 L 375.02786,440.88388 L 374.75787,443.22374 L 374.03787,445.47361 L 372.86788,447.45349 L 371.42788,449.16339 L 369.53789,450.60331 L 367.46791,451.68324 L 365.12792,452.3132 L 362.60793,452.58319 L 360.08795,452.3132 L 357.74796,451.68324 L 355.67797,450.60331 L 353.87798,449.16339 L 352.34799,447.45349 L 351.178,445.47361 L 350.458,443.22374 L 350.18801,440.88388 L 350.458,438.54402 L 351.178,436.38415 L 352.34799,434.40426 L 353.87798,432.69437 L 355.67797,431.25445 L 357.74796,430.17452 L 360.08795,429.54455 L 362.60793,429.27457 L 365.12792,429.54455 z "
     style="fill:#000000;fill-opacity:1;fill-rule:evenodd;stroke:none"
     id="path2445" />
  <path
     d="M 389.06778,430.26451 L 390.41778,430.89447 L 391.58777,431.97441 L 392.48776,433.23433 L 393.20776,434.85424 L 393.65776,436.74413 L 393.83776,438.814 L 393.74776,440.97388 L 393.29776,443.13375 L 392.66776,445.20362 L 391.76777,447.09351 L 390.59777,448.71342 L 389.33778,449.97334 L 387.98779,451.05328 L 386.4578,451.68324 L 384.92781,451.86323 L 383.48782,451.68324 L 382.13782,451.05328 L 380.96783,449.97334 L 380.06783,448.71342 L 379.34784,447.09351 L 378.89784,445.20362 L 378.71784,443.13375 L 378.80784,440.97388 L 379.25784,438.814 L 379.88784,436.74413 L 380.78783,434.85424 L 381.95782,433.23433 L 383.21782,431.97441 L 384.56781,430.89447 L 386.0978,430.26451 L 387.62779,430.08452 L 389.06778,430.26451 z "
     style="fill:#000000;fill-opacity:1;fill-rule:evenodd;stroke:none"
     id="path2447" />
  <path
     d="M 413.81764,432.78436 L 415.34763,433.41432 L 416.69763,434.49426 L 417.68762,435.75418 L 418.40762,437.37409 L 418.85761,439.26398 L 418.94761,441.33385 L 418.67761,443.49373 L 418.04762,445.6536 L 417.05762,447.72348 L 415.79763,449.61336 L 414.35764,451.23327 L 412.73765,452.49319 L 411.02766,453.57313 L 409.22767,454.20309 L 407.33768,454.38308 L 405.62769,454.20309 L 404.0977,453.57313 L 402.74771,452.49319 L 401.75771,451.23327 L 400.94772,449.61336 L 400.49772,447.72348 L 400.49772,445.6536 L 400.76772,443.49373 L 401.39771,441.33385 L 402.38771,439.26398 L 403.6477,437.37409 L 405.08769,435.75418 L 406.70768,434.49426 L 408.41767,433.41432 L 410.21766,432.78436 L 412.10765,432.60437 L 413.81764,432.78436 z "
     style="fill:#000000;fill-opacity:1;fill-rule:evenodd;stroke:none"
     id="path2449" />
  <path
     d="M 431.18754,440.97388 L 433.07753,441.42385 L 434.69752,442.2338 L 435.95752,443.31374 L 437.03751,444.57366 L 437.66751,446.10357 L 438.0275,447.72348 L 437.93751,449.61336 L 437.57751,451.50325 L 437.03751,453.48313 L 436.31751,455.37302 L 435.23752,456.99293 L 433.70753,458.34285 L 431.81754,459.24279 L 429.29755,459.60277 L 426.14757,459.33279 L 423.08759,458.70283 L 420.8376,457.98287 L 419.30761,457.08292 L 418.31762,456.09298 L 417.68762,454.92305 L 417.32762,453.57313 L 417.23762,451.95323 L 417.14762,450.06334 L 417.32762,448.08345 L 418.13762,446.37356 L 419.30761,444.75365 L 420.8376,443.40373 L 422.72759,442.3238 L 424.79758,441.51384 L 426.95757,440.97388 L 429.11756,440.79389 L 431.18754,440.97388 z "
     style="fill:#000000;fill-opacity:1;fill-rule:evenodd;stroke:none"
     id="path2451" />
</svg>
