<?xml version="1.0" encoding="UTF-8" standalone="no"?>
<!-- Generator: Adobe Illustrator 11.0, SVG Export Plug-In . SVG Version: 6.0.0 Build 78)  -->
<!-- Created by Cary Bass http://commons.wikipedia.com/wiki/User:Bastique on January 20, 2006 -->
<svg
   xmlns:dc="http://purl.org/dc/elements/1.1/"
   xmlns:cc="http://web.resource.org/cc/"
   xmlns:rdf="http://www.w3.org/1999/02/22-rdf-syntax-ns#"
   xmlns:svg="http://www.w3.org/2000/svg"
   xmlns="http://www.w3.org/2000/svg"
   xmlns:sodipodi="http://sodipodi.sourceforge.net/DTD/sodipodi-0.dtd"
   xmlns:inkscape="http://www.inkscape.org/namespaces/inkscape"
   version="1.0"
   width="623.92822"
   height="548.17328"
   id="radioactive"
   sodipodi:version="0.32"
   inkscape:version="0.44"
   sodipodi:docname="funkwarnung.svg"
   sodipodi:docbase="C:\Dokumente und Einstellungen\henning\Desktop\Sicherheitszeichen">
  <defs
     id="defs58" />
  <sodipodi:namedview
     inkscape:window-height="966"
     inkscape:window-width="1272"
     inkscape:pageshadow="2"
     inkscape:pageopacity="0.0"
     guidetolerance="10.0"
     gridtolerance="10.0"
     objecttolerance="10.0"
     borderopacity="1.0"
     bordercolor="#666666"
     pagecolor="#ffffff"
     id="base"
     inkscape:zoom="1.4064896"
     inkscape:cx="311.9641"
     inkscape:cy="274.08664"
     inkscape:window-x="0"
     inkscape:window-y="0"
     inkscape:current-layer="radioactive"
     inkscape:document-units="mm"
     gridspacingx="0.25mm"
     gridspacingy="0.25mm"
     grid_units="mm" />
  <metadata
     id="metadata60">
    <rdf:RDF>
      <cc:Work
         rdf:about="">
        <dc:format>image/svg+xml</dc:format>
        <dc:type
           rdf:resource="http://purl.org/dc/dcmitype/StillImage" />
      </cc:Work>
    </rdf:RDF>
  </metadata>
  <g
     id="g2907"
     transform="translate(15.37952,-9.607801)">
    <path
       id="path2889"
       d="M 295.84375,9.625 C 280.56684,9.7059068 270.50089,23.813625 265.0625,36.5 C 172.18368,198.06519 78.058421,358.93364 -14,520.9375 C -20.829463,540.11547 -1.0883658,561.5426 18.53125,557.21875 C 207.86361,556.9309 397.20493,557.89808 586.53125,556.65625 C 606.05502,553.39207 615.65348,526.10648 602.46875,511.28125 C 507.43559,347.23157 413.38004,182.58741 317.6875,18.9375 C 312.13891,12.888602 304.08329,9.328277 295.84375,9.625 z "
       style="fill:yellow" />
    <g
       transform="translate(-3.188547,21.62979)"
       id="g4">
      <path
         id="sign_border"
         d="M 597.6,499.6 L 313.8,8 C 310.9,3 305.6,0 299.9,0 C 294.2,0 288.9,3.1 286,8 L 2.2,499.6 C -0.7,504.6 -0.7,510.7 2.2,515.6 C 5.1,520.6 10.4,523.6 16.1,523.6 L 583.7,523.6 C 589.4,523.6 594.7,520.5 597.6,515.6 C 600.5,510.6 600.5,504.5 597.6,499.6 z " />
      <polygon
         points="43.9,491.5 299.9,48.2 555.9,491.5 43.9,491.5 "
         id="sign_bg"
         style="fill:#f7f619" />
    </g>
  </g>
  <g
     style="fill:black;stroke:none"
     id="g2865"
     transform="matrix(1.050753,0,0,1.050753,726.8145,-2.695693)">
    <path
       style="fill:black;fill-opacity:1;stroke:none;stroke-width:0.67679876;stroke-linecap:butt;stroke-linejoin:bevel;stroke-miterlimit:4;stroke-dasharray:none;stroke-opacity:1"
       d="M -473.59375,270.34375 C -493.67926,290.47717 -506.09375,318.26799 -506.09375,348.9375 C -506.09375,379.60702 -493.67926,407.39783 -473.59375,427.53125 L -459.8125,413.75 C -476.37551,397.1391 -486.625,374.22825 -486.625,348.9375 C -486.625,323.64675 -476.37551,300.7359 -459.8125,284.125 L -473.59375,270.34375 z M -316.03125,270.34375 L -329.8125,284.125 C -313.24949,300.7359 -303,323.64675 -303,348.9375 C -303,374.22826 -313.24949,397.1391 -329.8125,413.75 L -316.03125,427.53125 C -295.94574,407.39783 -283.53125,379.60702 -283.53125,348.9375 C -283.53125,318.26798 -295.94574,290.47717 -316.03125,270.34375 z M -448.5625,295.375 C -462.24184,309.10177 -470.6875,328.04708 -470.6875,348.9375 C -470.6875,369.82792 -462.24184,388.77323 -448.5625,402.5 L -436.03125,389.96875 C -446.50315,379.44927 -452.96875,364.93799 -452.96875,348.9375 C -452.96875,332.93701 -446.50315,318.42573 -436.03125,307.90625 L -448.5625,295.375 z M -341.0625,295.375 L -353.59375,307.90625 C -343.12184,318.42573 -336.65625,332.93701 -336.65625,348.9375 C -336.65625,364.938 -343.12185,379.44927 -353.59375,389.96875 L -341.0625,402.5 C -327.38316,388.77323 -318.9375,369.82792 -318.9375,348.9375 C -318.9375,328.04708 -327.38316,309.10177 -341.0625,295.375 z M -424.75,319.1875 C -432.32969,326.81493 -437,337.33803 -437,348.9375 C -437,360.53697 -432.32969,371.06007 -424.75,378.6875 L -412.21875,366.15625 C -416.59249,361.73597 -419.28125,355.6483 -419.28125,348.9375 C -419.28125,342.22764 -416.59142,336.14664 -412.21875,331.71875 L -424.75,319.1875 z M -364.875,319.1875 L -377.40625,331.71875 C -373.02582,336.14664 -370.3125,342.22763 -370.3125,348.9375 C -370.3125,355.64831 -373.02475,361.73597 -377.40625,366.15625 L -364.875,378.6875 C -357.29531,371.06007 -352.625,360.53698 -352.625,348.9375 C -352.625,337.33803 -357.29531,326.81493 -364.875,319.1875 z M -394.8125,340.40625 C -397.21711,340.40625 -399.38507,341.39886 -400.9375,343 C -400.96842,343.03189 -401.00082,343.06138 -401.03125,343.09375 C -401.15775,343.22832 -401.28859,343.35745 -401.40625,343.5 C -401.43008,343.5289 -401.44529,343.56453 -401.46875,343.59375 C -401.63688,343.80294 -401.78934,344.02533 -401.9375,344.25 C -402.07076,344.45208 -402.19644,344.66144 -402.3125,344.875 C -402.3237,344.89569 -402.33271,344.91671 -402.34375,344.9375 C -402.59217,345.40355 -402.80927,345.89385 -402.96875,346.40625 C -403.05196,346.67359 -403.13059,346.94089 -403.1875,347.21875 C -403.18949,347.22851 -403.18554,347.24023 -403.1875,347.25 C -403.2414,347.51813 -403.28439,347.78595 -403.3125,348.0625 C -403.31355,348.07268 -403.31149,348.08356 -403.3125,348.09375 C -403.33965,348.37075 -403.34375,348.6534 -403.34375,348.9375 C -403.34375,349.22614 -403.34049,349.50003 -403.3125,349.78125 C -403.3115,349.7915 -403.31354,349.80226 -403.3125,349.8125 C -403.28457,350.08324 -403.24016,350.36242 -403.1875,350.625 C -403.12955,350.9133 -403.05497,351.19172 -402.96875,351.46875 C -402.80927,351.98115 -402.59217,352.47145 -402.34375,352.9375 C -402.33295,352.95776 -402.32346,352.97983 -402.3125,353 C -402.19534,353.21633 -402.0723,353.42045 -401.9375,353.625 C -401.78934,353.84967 -401.63688,354.07206 -401.46875,354.28125 C -401.30181,354.48896 -401.1228,354.68388 -400.9375,354.875 C -399.38507,356.47613 -397.2171,357.46874 -394.8125,357.46875 C -392.40789,357.46875 -390.23993,356.47614 -388.6875,354.875 C -388.65668,354.84321 -388.62408,354.81351 -388.59375,354.78125 C -388.4667,354.64607 -388.33687,354.51823 -388.21875,354.375 C -388.19502,354.34625 -388.17961,354.31031 -388.15625,354.28125 C -387.98812,354.07206 -387.83566,353.84967 -387.6875,353.625 C -387.5527,353.42045 -387.42966,353.21633 -387.3125,353 C -387.30154,352.97983 -387.29205,352.95776 -387.28125,352.9375 C -387.03283,352.47145 -386.81573,351.98115 -386.65625,351.46875 C -386.65327,351.45916 -386.6592,351.4471 -386.65625,351.4375 C -386.57919,351.18454 -386.49107,350.91861 -386.4375,350.65625 C -386.43544,350.64618 -386.43953,350.63508 -386.4375,350.625 C -386.38484,350.36242 -386.34043,350.08324 -386.3125,349.8125 C -386.31146,349.80226 -386.3135,349.7915 -386.3125,349.78125 C -386.28451,349.50003 -386.28125,349.22614 -386.28125,348.9375 C -386.28125,348.6384 -386.28247,348.3536 -386.3125,348.0625 C -386.34061,347.78595 -386.3836,347.51813 -386.4375,347.25 C -386.43946,347.24023 -386.43551,347.22851 -386.4375,347.21875 C -386.49237,346.95085 -386.57691,346.69564 -386.65625,346.4375 C -386.65917,346.42792 -386.6533,346.41582 -386.65625,346.40625 C -386.81573,345.89385 -387.03283,345.40355 -387.28125,344.9375 C -387.29229,344.91671 -387.3013,344.89569 -387.3125,344.875 C -387.42856,344.66144 -387.55424,344.45208 -387.6875,344.25 C -387.83566,344.02533 -387.98812,343.80294 -388.15625,343.59375 C -388.17971,343.56453 -388.19492,343.5289 -388.21875,343.5 C -388.36462,343.32328 -388.52812,343.16438 -388.6875,343 C -390.23993,341.39887 -392.40789,340.40625 -394.8125,340.40625 z "
       id="path2867" />
    <path
       style="fill:black;fill-rule:evenodd;stroke:none;stroke-width:0.63779527;stroke-linecap:butt;stroke-linejoin:miter;stroke-miterlimit:4;stroke-dasharray:none;stroke-opacity:1"
       d="M -402.92095,368.4375 L -428.7647,453.5 L -360.85845,453.5 L -386.73345,368.4375 C -390.20876,371.35544 -392.97718,371.21833 -394.7647,371.21875 C -396.55252,371.21917 -399.44565,371.35544 -402.92095,368.4375 z "
       id="path2869"
       sodipodi:nodetypes="cccczc" />
  </g>
</svg>
