<?xml version="1.0" encoding="UTF-8" standalone="no"?>
<!-- Created with Inkscape (http://www.inkscape.org/) -->
<svg
   xmlns:dc="http://purl.org/dc/elements/1.1/"
   xmlns:cc="http://creativecommons.org/ns#"
   xmlns:rdf="http://www.w3.org/1999/02/22-rdf-syntax-ns#"
   xmlns:svg="http://www.w3.org/2000/svg"
   xmlns="http://www.w3.org/2000/svg"
   xmlns:sodipodi="http://sodipodi.sourceforge.net/DTD/sodipodi-0.dtd"
   xmlns:inkscape="http://www.inkscape.org/namespaces/inkscape"
   width="155.55"
   height="136.95"
   id="svg18718"
   sodipodi:version="0.32"
   inkscape:version="0.46"
   version="1.0"
   sodipodi:docname="D-W029.svg"
   inkscape:output_extension="org.inkscape.output.svg.inkscape">
  <defs
     id="defs18720">
    <inkscape:perspective
       sodipodi:type="inkscape:persp3d"
       inkscape:vp_x="0 : 526.18109 : 1"
       inkscape:vp_y="0 : 1000 : 0"
       inkscape:vp_z="744.09448 : 526.18109 : 1"
       inkscape:persp3d-origin="372.04724 : 350.78739 : 1"
       id="perspective18726" />
  </defs>
  <sodipodi:namedview
     id="base"
     pagecolor="#ffffff"
     bordercolor="#666666"
     borderopacity="1.0"
     gridtolerance="10000"
     guidetolerance="10"
     objecttolerance="10"
     inkscape:pageopacity="0.0"
     inkscape:pageshadow="2"
     inkscape:zoom="0.35"
     inkscape:cx="375"
     inkscape:cy="405.71429"
     inkscape:document-units="px"
     inkscape:current-layer="layer1"
     showgrid="false"
     inkscape:window-width="640"
     inkscape:window-height="687"
     inkscape:window-x="0"
     inkscape:window-y="-4" />
  <metadata
     id="metadata18723">
    <rdf:RDF>
      <cc:Work
         rdf:about="">
        <dc:format>image/svg+xml</dc:format>
        <dc:type
           rdf:resource="http://purl.org/dc/dcmitype/StillImage" />
      </cc:Work>
    </rdf:RDF>
  </metadata>
  <g
     inkscape:label="Layer 1"
     inkscape:groupmode="layer"
     id="layer1"
     transform="translate(-1079.1393,-381.25862)">
    <path
       d="M 1157.2143,381.25862 L 1157.5143,381.55862 L 1158.7143,381.55862 L 1159.3143,381.85862 L 1159.9143,381.85862 L 1160.5143,382.15862 L 1160.8143,382.45862 L 1161.4143,382.75862 L 1162.0143,383.05862 L 1162.3143,383.35862 L 1162.6143,383.65862 L 1163.2143,384.25862 L 1163.5143,384.55862 L 1163.8143,385.15862 L 1164.1143,385.75862 L 1198.6893,445.53362 L 1233.1893,505.30862 L 1233.4893,505.90862 L 1233.7893,506.50862 L 1234.0893,507.10862 L 1234.3893,507.70862 L 1234.3893,509.20862 L 1234.6893,509.80862 L 1234.3893,510.40862 L 1234.3893,511.60862 L 1234.0893,512.20862 L 1233.7893,512.80862 L 1233.7893,513.40862 L 1233.4893,513.70862 L 1233.1893,514.00862 L 1233.1893,514.30862 L 1232.8893,514.90862 L 1232.5893,515.20862 L 1232.2893,515.50862 L 1231.9893,515.80862 L 1231.3893,516.10862 L 1231.0893,516.40862 L 1230.4893,516.70862 L 1229.8893,517.00862 L 1229.5893,517.30862 L 1228.9893,517.60862 L 1228.3893,517.60862 L 1227.7893,517.90862 L 1226.8893,517.90862 L 1225.9893,518.20862 L 1156.9143,518.20862 L 1087.8393,517.90862 L 1086.0393,517.90862 L 1085.4393,517.60862 L 1084.8393,517.60862 L 1084.2393,517.30862 L 1083.9393,517.00862 L 1083.3393,517.00862 L 1082.4393,516.10862 L 1081.8393,515.80862 L 1081.5393,515.20862 L 1080.9393,514.90862 L 1080.6393,514.30862 L 1080.6393,514.00862 L 1080.3393,513.70862 L 1080.0393,513.40862 L 1080.0393,512.80862 L 1079.7393,512.50862 L 1079.7393,512.20862 L 1079.4393,511.60862 L 1079.4393,510.40862 L 1079.1393,509.80862 L 1079.4393,509.20862 L 1079.4393,507.70862 L 1079.7393,507.10862 L 1080.0393,506.50862 L 1080.0393,505.90862 L 1080.3393,505.30862 L 1114.8393,445.53362 L 1149.7143,385.75862 L 1150.3143,384.55862 L 1150.6143,384.25862 L 1151.2143,383.65862 L 1151.5143,383.35862 L 1151.8143,383.05862 L 1152.4143,382.75862 L 1152.7143,382.45862 L 1153.3143,382.15862 L 1153.9143,381.85862 L 1154.5143,381.85862 L 1155.1143,381.55862 L 1156.6143,381.55862 L 1157.2143,381.25862"
       style="fill:#f9d100;fill-opacity:1;fill-rule:evenodd;stroke:none"
       id="path21020" />
    <path
       d="M 1157.8143,385.75862 L 1158.1143,385.75862 L 1158.7143,386.05862 L 1159.0143,386.35862 L 1159.3143,386.35862 L 1159.9143,386.65862 L 1160.2143,387.25862 L 1160.5143,387.55862 L 1160.5143,387.85862 L 1229.5893,507.40862 L 1229.8893,507.70862 L 1229.8893,508.00862 L 1230.1893,508.30862 L 1230.1893,509.20862 L 1230.4893,509.50862 L 1230.4893,509.80862 L 1230.1893,510.70862 L 1229.8893,511.30862 L 1229.5893,512.20862 L 1228.9893,512.50862 L 1228.6893,513.10862 L 1228.0893,513.40862 L 1227.1893,513.70862 L 1226.2893,513.70862 L 1226.2893,514.00862 L 1087.5393,514.00862 L 1087.2393,513.70862 L 1086.3393,513.70862 L 1086.0393,513.40862 L 1085.7393,513.40862 L 1085.4393,513.10862 L 1084.8393,512.80862 L 1084.2393,512.20862 L 1083.9393,511.60862 L 1083.6393,510.70862 L 1083.6393,508.60862 L 1083.9393,508.00862 L 1083.9393,507.40862 L 1084.2393,507.40862 L 1153.3143,387.85862 L 1153.3143,387.55862 L 1153.6143,387.25862 L 1153.6143,386.95862 L 1153.9143,386.65862 L 1154.2143,386.65862 L 1154.5143,386.35862 L 1154.8143,386.05862 L 1155.1143,386.05862 L 1155.4143,385.75862 L 1156.3143,385.75862 L 1156.6143,385.45862 L 1157.2143,385.45862 L 1157.8143,385.75862 z M 1216.0893,503.80862 L 1097.7393,503.80862 L 1156.9143,401.35862 L 1216.0893,503.80862"
       style="fill:#1f1a17;fill-opacity:1;fill-rule:evenodd;stroke:none"
       id="path21022" />
    <path
       d="M 1121.5143,481.53362 L 1121.5143,490.00862 L 1121.8143,490.60862 L 1121.8143,491.20862 L 1122.1143,491.80862 L 1122.1143,492.10862 L 1122.4143,492.40862 L 1123.0143,492.70862 L 1123.3143,493.00862 L 1123.9143,493.30862 L 1124.8143,493.30862 L 1125.4143,493.60862 L 1125.7143,493.60862 L 1126.3143,493.90862 L 1126.6143,493.90862 L 1127.2143,494.20862 L 1127.5143,494.50862 L 1127.5143,494.80862 L 1127.8143,494.80862 L 1114.5393,494.80862 L 1114.5393,494.50862 L 1115.2143,494.20862 L 1115.5143,493.90862 L 1116.1143,493.90862 L 1116.4143,493.60862 L 1117.0143,493.60862 L 1117.6143,493.30862 L 1118.5143,493.30862 L 1119.1143,493.00862 L 1119.4143,492.70862 L 1119.7143,492.40862 L 1120.0143,492.10862 L 1120.3143,491.80862 L 1120.6143,491.20862 L 1120.6143,481.53362 L 1119.4143,481.53362 L 1118.8143,481.23362 L 1118.5143,480.93362 L 1118.2143,480.63362 L 1117.9143,480.03362 L 1117.9143,477.93362 L 1118.2143,477.63362 L 1118.2143,477.33362 L 1118.5143,477.03362 L 1118.8143,477.03362 L 1119.1143,476.73362 L 1123.3143,476.73362 L 1123.6143,477.03362 L 1123.9143,477.03362 L 1123.9143,477.33362 L 1124.2143,477.63362 L 1124.2143,477.93362 L 1124.5143,478.53362 L 1124.5143,480.03362 L 1124.2143,480.63362 L 1123.9143,480.93362 L 1123.3143,481.23362 L 1123.0143,481.53362 L 1121.5143,481.53362 z M 1167.1143,439.23362 L 1195.6893,476.13362 L 1195.9893,476.43362 L 1196.2893,476.73362 L 1196.5893,477.03362 L 1196.5893,477.93362 L 1196.8893,478.23362 L 1196.8893,480.03362 L 1196.5893,480.63362 L 1196.2893,481.23362 L 1195.9893,481.53362 L 1195.6893,482.13362 L 1195.3893,482.50862 L 1194.7893,483.10862 L 1195.3893,484.30862 L 1195.9893,485.80862 L 1196.8893,487.30862 L 1197.4893,488.50862 L 1198.0893,490.00862 L 1198.9893,491.50862 L 1199.5893,492.70862 L 1200.1893,494.20862 L 1200.1893,496.30862 L 1184.8143,496.30862 L 1178.8143,480.93362 L 1134.7143,480.93362 L 1128.7143,496.30862 L 1113.0393,496.30862 L 1113.0393,494.20862 L 1113.9393,492.70862 L 1114.5393,491.50862 L 1115.2143,490.00862 L 1116.1143,488.50862 L 1116.7143,487.30862 L 1117.3143,485.80862 L 1118.2143,484.30862 L 1118.8143,483.10862 L 1118.2143,482.50862 L 1117.9143,482.13362 L 1117.6143,481.53362 L 1117.3143,481.23362 L 1116.7143,480.03362 L 1116.7143,477.93362 L 1117.0143,477.33362 L 1117.0143,477.03362 L 1117.3143,476.73362 L 1117.6143,476.43362 L 1117.6143,476.13362 L 1146.4143,439.23362 L 1147.3143,439.53362 L 1121.2143,474.93362 L 1121.8143,474.93362 L 1122.1143,475.23362 L 1123.6143,475.23362 L 1124.2143,475.53362 L 1124.5143,475.83362 L 1124.8143,476.13362 L 1125.1143,476.73362 L 1125.4143,477.03362 L 1125.4143,477.33362 L 1125.7143,477.93362 L 1148.2143,439.53362 L 1149.1143,439.53362 L 1149.1143,444.63362 L 1144.9143,455.43362 L 1168.6143,455.43362 L 1164.4143,444.63362 L 1164.4143,439.53362 L 1165.3143,439.53362 L 1187.8143,477.93362 L 1187.8143,477.33362 L 1188.1143,477.03362 L 1188.4143,476.73362 L 1188.7143,476.13362 L 1189.0143,475.83362 L 1189.3143,475.53362 L 1189.9143,475.23362 L 1191.4143,475.23362 L 1191.4143,474.93362 L 1192.3143,474.93362 L 1166.2143,439.53362 L 1167.1143,439.23362 z M 1144.3143,456.93362 L 1137.4143,474.03362 L 1176.1143,474.03362 L 1169.2143,456.93362 L 1144.3143,456.93362 z M 1191.7143,481.53362 L 1191.7143,491.20862 L 1191.4143,491.80862 L 1190.5143,492.70862 L 1190.2143,493.00862 L 1189.6143,493.30862 L 1188.7143,493.30862 L 1188.1143,493.60862 L 1187.5143,493.60862 L 1187.2143,493.90862 L 1186.6143,493.90862 L 1186.3143,494.20862 L 1185.7143,494.50862 L 1185.7143,494.80862 L 1198.9893,494.80862 L 1198.6893,494.50862 L 1198.3893,494.20862 L 1197.7893,493.90862 L 1197.4893,493.90862 L 1196.8893,493.60862 L 1196.5893,493.60862 L 1195.9893,493.30862 L 1195.0893,493.30862 L 1194.4893,493.00862 L 1194.1893,492.70862 L 1193.8143,492.40862 L 1193.2143,492.10862 L 1193.2143,491.80862 L 1192.9143,491.20862 L 1192.9143,490.60862 L 1192.6143,490.00862 L 1192.6143,481.53362 L 1194.1893,481.53362 L 1194.4893,481.23362 L 1195.0893,480.93362 L 1195.3893,480.63362 L 1195.6893,480.03362 L 1195.6893,478.53362 L 1195.3893,477.93362 L 1195.3893,477.63362 L 1195.0893,477.33362 L 1195.0893,477.03362 L 1194.7893,477.03362 L 1194.4893,476.73362 L 1190.2143,476.73362 L 1189.9143,477.03362 L 1189.6143,477.03362 L 1189.3143,477.33362 L 1189.3143,477.63362 L 1189.0143,477.93362 L 1189.0143,480.03362 L 1189.3143,480.63362 L 1189.6143,480.93362 L 1190.2143,481.23362 L 1190.5143,481.53362 L 1191.7143,481.53362 z M 1150.9143,445.53362 L 1151.2143,445.53362 L 1151.5143,445.23362 L 1152.1143,444.93362 L 1152.4143,444.93362 L 1152.7143,444.63362 L 1153.0143,444.33362 L 1153.3143,444.33362 L 1153.6143,444.03362 L 1153.9143,444.03362 L 1153.9143,443.73362 L 1154.2143,443.43362 L 1154.5143,443.43362 L 1154.8143,443.13362 L 1155.1143,443.13362 L 1155.4143,442.83362 L 1155.7143,442.83362 L 1155.7143,443.73362 L 1155.4143,444.33362 L 1155.4143,444.93362 L 1155.4143,448.83362 L 1155.1143,449.73362 L 1155.1143,453.63362 L 1154.8143,454.53362 L 1155.4143,454.53362 L 1156.0143,454.83362 L 1158.7143,454.83362 L 1158.7143,451.53362 L 1158.4143,450.63362 L 1158.4143,446.43362 L 1158.1143,445.83362 L 1158.1143,442.83362 L 1158.4143,443.13362 L 1158.7143,443.13362 L 1159.0143,443.43362 L 1159.3143,443.43362 L 1159.6143,443.73362 L 1159.9143,444.03362 L 1160.2143,444.03362 L 1160.5143,444.33362 L 1160.8143,444.33362 L 1161.1143,444.63362 L 1161.4143,444.93362 L 1161.7143,444.93362 L 1162.0143,445.23362 L 1162.3143,445.53362 L 1162.6143,445.53362 L 1162.6143,445.23362 L 1162.3143,444.93362 L 1162.3143,444.33362 L 1162.0143,444.03362 L 1162.0143,443.13362 L 1161.4143,442.83362 L 1161.1143,442.53362 L 1160.8143,442.53362 L 1160.5143,442.23362 L 1160.2143,442.23362 L 1159.9143,441.93362 L 1159.3143,441.63362 L 1159.0143,441.63362 L 1158.7143,441.33362 L 1158.4143,441.33362 L 1157.8143,440.73362 L 1157.5143,440.73362 L 1157.5143,440.43362 L 1157.2143,440.43362 L 1156.9143,440.13362 L 1156.6143,440.43362 L 1156.3143,440.43362 L 1156.0143,440.73362 L 1155.7143,440.73362 L 1155.4143,441.03362 L 1155.1143,441.03362 L 1154.8143,441.33362 L 1154.5143,441.63362 L 1154.2143,441.63362 L 1153.9143,441.93362 L 1153.6143,441.93362 L 1153.0143,442.23362 L 1152.7143,442.53362 L 1152.4143,442.53362 L 1151.8143,443.13362 L 1151.5143,443.43362 L 1151.5143,444.33362 L 1151.2143,444.63362 L 1151.2143,445.23362 L 1150.9143,445.53362 z M 1144.6143,490.00862 L 1145.2143,490.30862 L 1145.8143,490.60862 L 1146.1143,490.90862 L 1146.7143,491.20862 L 1147.3143,491.50862 L 1148.5143,492.10862 L 1149.1143,492.40862 L 1149.7143,492.70862 L 1150.3143,493.00862 L 1150.9143,493.30862 L 1152.1143,493.90862 L 1152.7143,494.20862 L 1153.3143,494.50862 L 1153.9143,494.80862 L 1153.9143,487.90862 L 1154.2143,487.00862 L 1154.2143,481.83362 L 1159.6143,481.83362 L 1159.6143,489.70862 L 1159.9143,490.30862 L 1159.9143,494.80862 L 1160.5143,494.50862 L 1161.1143,494.20862 L 1161.7143,493.90862 L 1162.3143,493.60862 L 1163.5143,493.00862 L 1164.1143,492.70862 L 1164.7143,492.40862 L 1165.0143,492.10862 L 1166.2143,491.50862 L 1166.8143,491.20862 L 1167.4143,490.90862 L 1168.0143,490.60862 L 1168.6143,490.30862 L 1168.9143,490.00862 L 1169.2143,490.30862 L 1169.2143,492.40862 L 1169.5143,493.00862 L 1169.5143,494.20862 L 1168.9143,494.50862 L 1168.0143,495.10862 L 1167.4143,495.40862 L 1166.5143,495.70862 L 1165.9143,496.30862 L 1165.0143,496.60862 L 1164.1143,497.20862 L 1163.5143,497.50862 L 1162.6143,498.10862 L 1162.0143,498.40862 L 1161.1143,499.00862 L 1160.2143,499.30862 L 1159.3143,499.90862 L 1158.7143,500.50862 L 1157.8143,500.80862 L 1156.9143,501.40862 L 1156.0143,500.80862 L 1155.1143,500.50862 L 1154.5143,499.90862 L 1153.6143,499.60862 L 1152.7143,499.00862 L 1151.8143,498.70862 L 1151.2143,498.10862 L 1150.3143,497.80862 L 1149.4143,497.20862 L 1148.8143,496.90862 L 1147.9143,496.30862 L 1147.0143,496.00862 L 1146.4143,495.40862 L 1145.5143,495.10862 L 1144.9143,494.80862 L 1144.0143,494.20862 L 1144.0143,493.30862 L 1144.3143,492.70862 L 1144.3143,490.90862 L 1144.6143,490.60862 L 1144.6143,490.00862 z M 1146.7143,457.53362 L 1147.0143,457.53362 L 1147.3143,457.83362 L 1147.3143,458.43362 L 1147.0143,458.43362 L 1147.0143,458.73362 L 1146.7143,458.73362 L 1146.4143,459.03362 L 1145.8143,459.03362 L 1145.8143,458.73362 L 1145.5143,458.73362 L 1145.5143,458.13362 L 1145.8143,458.13362 L 1145.8143,457.83362 L 1146.1143,457.83362 L 1146.1143,457.53362 L 1146.7143,457.53362 z M 1146.1143,459.33362 L 1146.4143,459.33362 L 1146.4143,459.63362 L 1146.7143,459.63362 L 1146.7143,460.23362 L 1146.4143,460.23362 L 1146.4143,460.53362 L 1146.1143,460.83362 L 1145.8143,460.83362 L 1145.5143,461.13362 L 1145.2143,461.13362 L 1145.2143,460.83362 L 1144.9143,460.83362 L 1144.9143,459.93362 L 1145.2143,459.63362 L 1145.5143,459.33362 L 1146.1143,459.33362 z M 1145.2143,461.43362 L 1145.5143,461.43362 L 1145.8143,461.73362 L 1145.8143,462.63362 L 1145.5143,462.93362 L 1145.2143,463.23362 L 1144.0143,463.23362 L 1144.0143,462.33362 L 1144.3143,462.03362 L 1144.3143,461.73362 L 1144.6143,461.73362 L 1144.9143,461.43362 L 1145.2143,461.43362 z M 1144.3143,463.83362 L 1144.9143,463.83362 L 1144.9143,464.13362 L 1145.2143,464.43362 L 1145.2143,465.03362 L 1144.9143,465.03362 L 1144.9143,465.33362 L 1144.6143,465.63362 L 1144.3143,465.93362 L 1143.1143,465.93362 L 1143.1143,464.73362 L 1143.4143,464.43362 L 1143.7143,464.13362 L 1144.0143,463.83362 L 1144.3143,463.83362 z M 1143.4143,466.53362 L 1143.7143,466.83362 L 1144.0143,466.83362 L 1144.0143,467.13362 L 1144.3143,467.43362 L 1144.3143,467.73362 L 1144.0143,468.03362 L 1143.7143,468.33362 L 1143.7143,468.63362 L 1143.4143,468.93362 L 1143.1143,468.93362 L 1143.1143,469.23362 L 1142.2143,469.23362 L 1141.9143,468.93362 L 1141.9143,467.73362 L 1142.5143,467.13362 L 1142.8143,466.83362 L 1143.1143,466.83362 L 1143.4143,466.53362 z M 1142.2143,469.83362 L 1142.5143,469.83362 L 1142.8143,470.13362 L 1143.1143,470.43362 L 1143.1143,471.33362 L 1142.8143,471.63362 L 1142.8143,471.93362 L 1142.5143,472.23362 L 1142.2143,472.53362 L 1141.9143,472.53362 L 1141.9143,472.83362 L 1140.7143,472.83362 L 1140.7143,472.53362 L 1140.4143,472.53362 L 1140.4143,471.63362 L 1140.7143,471.33362 L 1140.7143,471.03362 L 1141.0143,470.73362 L 1141.0143,470.43362 L 1141.3143,470.43362 L 1141.6143,470.13362 L 1141.9143,470.13362 L 1142.2143,469.83362 z M 1150.6143,457.53362 L 1151.2143,457.53362 L 1151.2143,457.83362 L 1151.5143,457.83362 L 1151.5143,458.13362 L 1151.2143,458.43362 L 1151.2143,458.73362 L 1150.9143,458.73362 L 1150.6143,459.03362 L 1150.0143,459.03362 L 1150.0143,458.73362 L 1149.7143,458.73362 L 1149.7143,458.13362 L 1150.0143,457.83362 L 1150.3143,457.53362 L 1150.6143,457.53362 z M 1150.3143,459.33362 L 1150.9143,459.33362 L 1150.9143,460.53362 L 1150.6143,460.83362 L 1150.3143,460.83362 L 1150.0143,461.13362 L 1149.7143,461.13362 L 1149.7143,460.83362 L 1149.4143,460.83362 L 1149.4143,460.53362 L 1149.1143,460.53362 L 1149.1143,460.23362 L 1149.4143,460.23362 L 1149.4143,459.63362 L 1149.7143,459.63362 L 1149.7143,459.33362 L 1150.3143,459.33362 z M 1150.0143,461.43362 L 1150.3143,461.43362 L 1150.3143,461.73362 L 1150.6143,461.73362 L 1150.6143,462.63362 L 1150.3143,462.93362 L 1150.0143,463.23362 L 1149.1143,463.23362 L 1148.8143,462.93362 L 1148.8143,462.03362 L 1149.1143,461.73362 L 1149.4143,461.73362 L 1149.4143,461.43362 L 1150.0143,461.43362 z M 1149.4143,463.83362 L 1149.7143,463.83362 L 1150.0143,464.13362 L 1150.0143,464.43362 L 1150.3143,464.73362 L 1150.0143,465.03362 L 1150.0143,465.33362 L 1149.4143,465.93362 L 1148.2143,465.93362 L 1148.2143,464.43362 L 1148.5143,464.43362 L 1148.5143,464.13362 L 1148.8143,464.13362 L 1148.8143,463.83362 L 1149.4143,463.83362 z M 1148.8143,466.53362 L 1149.1143,466.83362 L 1149.4143,466.83362 L 1149.4143,467.13362 L 1149.7143,467.43362 L 1149.7143,468.03362 L 1149.4143,468.03362 L 1149.4143,468.33362 L 1149.1143,468.63362 L 1149.1143,468.93362 L 1148.8143,468.93362 L 1148.8143,469.23362 L 1147.9143,469.23362 L 1147.6143,468.93362 L 1147.3143,468.63362 L 1147.3143,468.03362 L 1147.6143,467.73362 L 1147.6143,467.13362 L 1147.9143,467.13362 L 1148.2143,466.83362 L 1148.5143,466.83362 L 1148.8143,466.53362 z M 1147.9143,469.83362 L 1148.2143,469.83362 L 1148.5143,470.13362 L 1148.8143,470.43362 L 1148.8143,470.73362 L 1149.1143,471.03362 L 1148.8143,471.33362 L 1148.8143,471.93362 L 1148.5143,472.23362 L 1148.5143,472.53362 L 1148.2143,472.53362 L 1147.9143,472.83362 L 1147.0143,472.83362 L 1146.7143,472.53362 L 1146.4143,472.23362 L 1146.4143,471.33362 L 1146.7143,471.03362 L 1146.7143,470.73362 L 1147.0143,470.43362 L 1147.3143,470.13362 L 1147.6143,470.13362 L 1147.9143,469.83362 z M 1154.8143,457.53362 L 1155.1143,457.53362 L 1155.4143,457.83362 L 1155.4143,458.73362 L 1155.1143,458.73362 L 1155.1143,459.03362 L 1154.2143,459.03362 L 1154.2143,458.73362 L 1153.9143,458.73362 L 1153.9143,457.83362 L 1154.2143,457.83362 L 1154.2143,457.53362 L 1154.8143,457.53362 z M 1154.5143,459.33362 L 1155.1143,459.33362 L 1155.1143,459.63362 L 1155.4143,459.63362 L 1155.4143,460.53362 L 1155.1143,460.83362 L 1154.8143,460.83362 L 1154.8143,461.13362 L 1154.2143,461.13362 L 1154.2143,460.83362 L 1153.9143,460.83362 L 1153.9143,460.53362 L 1153.6143,460.53362 L 1153.6143,459.93362 L 1153.9143,459.93362 L 1153.9143,459.63362 L 1154.2143,459.33362 L 1154.5143,459.33362 z M 1154.5143,461.43362 L 1154.8143,461.43362 L 1155.1143,461.73362 L 1155.4143,462.03362 L 1155.4143,462.63362 L 1155.1143,462.63362 L 1155.1143,462.93362 L 1154.8143,463.23362 L 1153.9143,463.23362 L 1153.6143,462.93362 L 1153.6143,462.63362 L 1153.3143,462.63362 L 1153.3143,462.33362 L 1153.6143,462.33362 L 1153.6143,461.73362 L 1153.9143,461.73362 L 1154.2143,461.43362 L 1154.5143,461.43362 z M 1154.2143,463.83362 L 1154.8143,463.83362 L 1154.8143,464.13362 L 1155.1143,464.13362 L 1155.1143,465.63362 L 1154.8143,465.63362 L 1154.8143,465.93362 L 1153.6143,465.93362 L 1153.3143,465.63362 L 1153.3143,464.43362 L 1153.9143,463.83362 L 1154.2143,463.83362 z M 1154.2143,466.53362 L 1154.2143,466.83362 L 1154.5143,466.83362 L 1154.8143,467.13362 L 1155.1143,467.43362 L 1155.1143,468.03362 L 1154.8143,468.33362 L 1154.8143,468.93362 L 1154.5143,468.93362 L 1154.2143,469.23362 L 1153.3143,469.23362 L 1153.3143,468.93362 L 1153.0143,468.93362 L 1153.0143,467.13362 L 1153.3143,467.13362 L 1153.3143,466.83362 L 1153.9143,466.83362 L 1154.2143,466.53362 z M 1153.9143,469.83362 L 1154.2143,470.13362 L 1154.5143,470.13362 L 1154.5143,470.43362 L 1154.8143,470.43362 L 1154.8143,471.93362 L 1154.5143,472.23362 L 1154.5143,472.53362 L 1154.2143,472.53362 L 1153.9143,472.83362 L 1153.0143,472.83362 L 1153.0143,472.53362 L 1152.7143,472.53362 L 1152.7143,472.23362 L 1152.4143,471.93362 L 1152.4143,471.03362 L 1152.7143,470.73362 L 1152.7143,470.43362 L 1153.0143,470.43362 L 1153.0143,470.13362 L 1153.3143,470.13362 L 1153.6143,469.83362 L 1153.9143,469.83362 z M 1158.7143,457.53362 L 1159.3143,457.53362 L 1159.3143,457.83362 L 1159.6143,457.83362 L 1159.6143,458.73362 L 1159.3143,458.73362 L 1159.3143,459.03362 L 1158.7143,459.03362 L 1158.4143,458.73362 L 1158.1143,458.73362 L 1158.1143,457.83362 L 1158.4143,457.83362 L 1158.4143,457.53362 L 1158.7143,457.53362 z M 1159.0143,459.33362 L 1159.3143,459.33362 L 1159.6143,459.63362 L 1159.9143,459.93362 L 1159.9143,460.53362 L 1159.6143,460.83362 L 1159.3143,460.83362 L 1159.3143,461.13362 L 1159.0143,461.13362 L 1158.7143,460.83362 L 1158.4143,460.83362 L 1158.4143,460.53362 L 1158.1143,460.53362 L 1158.1143,459.63362 L 1158.4143,459.63362 L 1158.4143,459.33362 L 1159.0143,459.33362 z M 1159.0143,461.43362 L 1159.3143,461.43362 L 1159.6143,461.73362 L 1159.9143,461.73362 L 1159.9143,462.33362 L 1160.2143,462.33362 L 1160.2143,462.63362 L 1159.9143,462.63362 L 1159.9143,462.93362 L 1159.6143,463.23362 L 1158.7143,463.23362 L 1158.4143,462.93362 L 1158.4143,462.63362 L 1158.1143,462.63362 L 1158.1143,462.03362 L 1158.4143,461.73362 L 1158.7143,461.73362 L 1158.7143,461.43362 L 1159.0143,461.43362 z M 1159.3143,463.83362 L 1159.6143,463.83362 L 1159.9143,464.13362 L 1160.2143,464.43362 L 1160.2143,465.63362 L 1159.9143,465.63362 L 1159.9143,465.93362 L 1158.7143,465.93362 L 1158.7143,465.63362 L 1158.4143,465.63362 L 1158.4143,465.03362 L 1158.1143,465.03362 L 1158.4143,464.73362 L 1158.4143,464.13362 L 1158.7143,464.13362 L 1158.7143,463.83362 L 1159.3143,463.83362 z M 1159.3143,466.53362 L 1159.6143,466.83362 L 1159.9143,466.83362 L 1160.2143,467.13362 L 1160.5143,467.43362 L 1160.5143,468.63362 L 1160.2143,468.93362 L 1159.9143,469.23362 L 1159.0143,469.23362 L 1159.0143,468.93362 L 1158.7143,468.93362 L 1158.7143,468.63362 L 1158.4143,468.33362 L 1158.4143,467.13362 L 1158.7143,467.13362 L 1158.7143,466.83362 L 1159.0143,466.83362 L 1159.3143,466.53362 z M 1159.6143,469.83362 L 1159.9143,469.83362 L 1159.9143,470.13362 L 1160.2143,470.13362 L 1160.5143,470.43362 L 1160.8143,470.73362 L 1160.8143,472.23362 L 1160.2143,472.83362 L 1159.3143,472.83362 L 1159.0143,472.53362 L 1158.7143,472.53362 L 1158.7143,471.93362 L 1158.4143,471.63362 L 1158.4143,470.73362 L 1158.7143,470.43362 L 1159.0143,470.13362 L 1159.3143,469.83362 L 1159.6143,469.83362 z M 1162.9143,457.53362 L 1163.5143,457.53362 L 1163.5143,457.83362 L 1163.8143,457.83362 L 1163.8143,458.73362 L 1163.5143,458.73362 L 1163.5143,459.03362 L 1162.9143,459.03362 L 1162.6143,458.73362 L 1162.3143,458.73362 L 1162.3143,457.83362 L 1162.6143,457.53362 L 1162.9143,457.53362 z M 1163.2143,459.33362 L 1163.8143,459.33362 L 1163.8143,459.63362 L 1164.1143,459.63362 L 1164.1143,459.93362 L 1164.4143,460.23362 L 1164.4143,460.53362 L 1164.1143,460.53362 L 1164.1143,460.83362 L 1163.8143,460.83362 L 1163.8143,461.13362 L 1163.5143,461.13362 L 1163.2143,460.83362 L 1162.9143,460.83362 L 1162.9143,460.53362 L 1162.6143,460.53362 L 1162.6143,459.63362 L 1162.9143,459.33362 L 1163.2143,459.33362 z M 1163.8143,461.43362 L 1164.1143,461.43362 L 1164.1143,461.73362 L 1164.4143,461.73362 L 1164.7143,462.03362 L 1164.7143,462.93362 L 1164.4143,463.23362 L 1163.5143,463.23362 L 1163.2143,462.93362 L 1162.9143,462.63362 L 1162.9143,461.73362 L 1163.2143,461.73362 L 1163.2143,461.43362 L 1163.8143,461.43362 z M 1164.1143,463.83362 L 1164.4143,463.83362 L 1164.7143,464.13362 L 1165.0143,464.13362 L 1165.0143,464.43362 L 1165.3143,464.43362 L 1165.3143,465.63362 L 1165.0143,465.93362 L 1163.8143,465.93362 L 1163.8143,465.63362 L 1163.5143,465.63362 L 1163.5143,465.03362 L 1163.2143,465.03362 L 1163.2143,464.43362 L 1163.5143,464.43362 L 1163.5143,464.13362 L 1163.8143,463.83362 L 1164.1143,463.83362 z M 1164.7143,466.53362 L 1165.0143,466.83362 L 1165.3143,466.83362 L 1165.9143,467.43362 L 1165.9143,468.93362 L 1165.6143,468.93362 L 1165.6143,469.23362 L 1164.7143,469.23362 L 1164.4143,468.93362 L 1164.1143,468.63362 L 1164.1143,468.33362 L 1163.8143,468.03362 L 1163.8143,467.13362 L 1164.1143,467.13362 L 1164.1143,466.83362 L 1164.4143,466.83362 L 1164.7143,466.53362 z M 1165.3143,469.83362 L 1165.6143,469.83362 L 1165.9143,470.13362 L 1166.2143,470.43362 L 1166.5143,470.43362 L 1166.5143,470.73362 L 1166.8143,471.03362 L 1166.8143,472.23362 L 1166.2143,472.83362 L 1165.3143,472.83362 L 1165.0143,472.53362 L 1164.7143,472.23362 L 1164.7143,471.93362 L 1164.4143,471.63362 L 1164.4143,470.43362 L 1164.7143,470.43362 L 1164.7143,470.13362 L 1165.0143,470.13362 L 1165.0143,469.83362 L 1165.3143,469.83362 z M 1166.8143,457.53362 L 1167.4143,457.53362 L 1167.7143,457.83362 L 1168.0143,457.83362 L 1168.0143,458.73362 L 1167.7143,459.03362 L 1167.1143,459.03362 L 1166.8143,458.73362 L 1166.5143,458.73362 L 1166.5143,458.13362 L 1166.2143,458.13362 L 1166.2143,457.83362 L 1166.5143,457.83362 L 1166.5143,457.53362 L 1166.8143,457.53362 z M 1167.7143,459.33362 L 1168.0143,459.33362 L 1168.3143,459.63362 L 1168.6143,459.93362 L 1168.6143,460.23362 L 1168.9143,460.23362 L 1168.9143,460.53362 L 1168.6143,460.53362 L 1168.6143,460.83362 L 1168.3143,460.83362 L 1168.3143,461.13362 L 1168.0143,461.13362 L 1167.7143,460.83362 L 1167.4143,460.83362 L 1167.1143,460.53362 L 1167.1143,460.23362 L 1166.8143,460.23362 L 1166.8143,459.93362 L 1167.1143,459.63362 L 1167.1143,459.33362 L 1167.7143,459.33362 z M 1168.3143,461.43362 L 1168.6143,461.43362 L 1168.9143,461.73362 L 1169.2143,461.73362 L 1169.2143,462.03362 L 1169.5143,462.33362 L 1169.5143,463.23362 L 1168.3143,463.23362 L 1168.0143,462.93362 L 1167.7143,462.63362 L 1167.7143,461.73362 L 1168.0143,461.43362 L 1168.3143,461.43362 z M 1169.2143,463.83362 L 1169.5143,463.83362 L 1169.8143,464.13362 L 1170.1143,464.43362 L 1170.4143,464.73362 L 1170.4143,465.93362 L 1169.2143,465.93362 L 1168.6143,465.33362 L 1168.6143,465.03362 L 1168.3143,465.03362 L 1168.3143,464.43362 L 1168.6143,464.13362 L 1168.6143,463.83362 L 1169.2143,463.83362 z M 1170.1143,466.53362 L 1170.1143,466.83362 L 1170.7143,466.83362 L 1171.0143,467.13362 L 1171.3143,467.43362 L 1171.3143,467.73362 L 1171.6143,468.03362 L 1171.6143,468.93362 L 1171.3143,468.93362 L 1171.3143,469.23362 L 1170.4143,469.23362 L 1170.1143,468.93362 L 1169.8143,468.93362 L 1169.8143,468.63362 L 1169.5143,468.33362 L 1169.5143,468.03362 L 1169.2143,468.03362 L 1169.2143,467.13362 L 1169.5143,466.83362 L 1169.8143,466.83362 L 1170.1143,466.53362 z M 1171.0143,469.83362 L 1171.3143,469.83362 L 1171.6143,470.13362 L 1171.9143,470.13362 L 1171.9143,470.43362 L 1172.2143,470.43362 L 1172.5143,470.73362 L 1172.5143,471.03362 L 1172.8143,471.33362 L 1172.8143,472.53362 L 1172.5143,472.53362 L 1172.5143,472.83362 L 1171.6143,472.83362 L 1171.3143,472.53362 L 1171.0143,472.53362 L 1170.7143,472.23362 L 1170.7143,471.93362 L 1170.4143,471.63362 L 1170.4143,470.13362 L 1170.7143,470.13362 L 1170.7143,469.83362 L 1171.0143,469.83362"
       style="fill:#1f1a17;fill-opacity:1;fill-rule:evenodd;stroke:none"
       id="path21024" />
  </g>
</svg>
