<?xml version="1.0" encoding="UTF-8" standalone="no"?>
<!-- Generator: Adobe Illustrator 11.0, SVG Export Plug-In . SVG Version: 6.0.0 Build 78)  -->
<!-- Created by Cary Bass http://commons.wikipedia.com/wiki/User:Bastique on January 20, 2006 -->
<svg
   xmlns:dc="http://purl.org/dc/elements/1.1/"
   xmlns:cc="http://web.resource.org/cc/"
   xmlns:rdf="http://www.w3.org/1999/02/22-rdf-syntax-ns#"
   xmlns:svg="http://www.w3.org/2000/svg"
   xmlns="http://www.w3.org/2000/svg"
   xmlns:sodipodi="http://sodipodi.sourceforge.net/DTD/sodipodi-0.dtd"
   xmlns:inkscape="http://www.inkscape.org/namespaces/inkscape"
   version="1.0"
   width="623.92822"
   height="548.17328"
   id="radioactive"
   sodipodi:version="0.32"
   inkscape:version="0.44"
   sodipodi:docname="sturzgefahr.svg"
   sodipodi:docbase="C:\Dokumente und Einstellungen\henning\Desktop\Sicherheitszeichen">
  <defs
     id="defs58" />
  <sodipodi:namedview
     inkscape:window-height="966"
     inkscape:window-width="1272"
     inkscape:pageshadow="2"
     inkscape:pageopacity="0.0"
     guidetolerance="10.0"
     gridtolerance="10.0"
     objecttolerance="10.0"
     borderopacity="1.0"
     bordercolor="#666666"
     pagecolor="#ffffff"
     id="base"
     inkscape:zoom="0.89433947"
     inkscape:cx="-40.249127"
     inkscape:cy="284.79631"
     inkscape:window-x="0"
     inkscape:window-y="0"
     inkscape:current-layer="radioactive"
     inkscape:document-units="mm"
     gridspacingx="0.25mm"
     gridspacingy="0.25mm"
     grid_units="mm" />
  <metadata
     id="metadata60">
    <rdf:RDF>
      <cc:Work
         rdf:about="">
        <dc:format>image/svg+xml</dc:format>
        <dc:type
           rdf:resource="http://purl.org/dc/dcmitype/StillImage" />
      </cc:Work>
    </rdf:RDF>
  </metadata>
  <g
     id="g2907"
     transform="translate(15.37952,-9.607801)">
    <path
       id="path2889"
       d="M 295.84375,9.625 C 280.56684,9.7059068 270.50089,23.813625 265.0625,36.5 C 172.18368,198.06519 78.058421,358.93364 -14,520.9375 C -20.829463,540.11547 -1.0883658,561.5426 18.53125,557.21875 C 207.86361,556.9309 397.20493,557.89808 586.53125,556.65625 C 606.05502,553.39207 615.65348,526.10648 602.46875,511.28125 C 507.43559,347.23157 413.38004,182.58741 317.6875,18.9375 C 312.13891,12.888602 304.08329,9.328277 295.84375,9.625 z "
       style="fill:yellow" />
    <g
       transform="translate(-3.188547,21.62979)"
       id="g4">
      <path
         id="sign_border"
         d="M 597.6,499.6 L 313.8,8 C 310.9,3 305.6,0 299.9,0 C 294.2,0 288.9,3.1 286,8 L 2.2,499.6 C -0.7,504.6 -0.7,510.7 2.2,515.6 C 5.1,520.6 10.4,523.6 16.1,523.6 L 583.7,523.6 C 589.4,523.6 594.7,520.5 597.6,515.6 C 600.5,510.6 600.5,504.5 597.6,499.6 z " />
      <polygon
         points="43.9,491.5 299.9,48.2 555.9,491.5 43.9,491.5 "
         id="sign_bg"
         style="fill:#f7f619" />
    </g>
  </g>
  <path
     style="fill:black;fill-rule:evenodd;stroke:none;stroke-width:1px;stroke-linecap:butt;stroke-linejoin:miter;stroke-opacity:1"
     d="M 303.51001,224.06688 L 303.4092,282.47231 L 345.28098,310.53245 L 300.25033,361.10792 L 257.47121,338.55899 L 200.81325,354.15169 L 204.27456,374.95316 L 254.48037,360.3014 L 301.22487,384.63139 L 264.22581,406.13856 L 238.61883,463.16618 L 258.44576,471.29858 L 278.27269,421.79847 L 324.61393,395.75463 L 373.67717,340.27284 L 395.72202,368.60182 L 395.82284,420.65591 L 414.94406,420.65591 L 415.14569,363.79631 L 391.68943,322.56302 C 373.58032,320.38993 362.63017,314.60905 360.97449,294.6373 L 326.15975,273.19734 L 325.95813,224.1677 L 303.51001,224.06688 z M 387.79125,269.63521 C 375.5673,269.63521 365.64559,279.55692 365.64558,291.78088 C 365.64558,304.00484 375.56731,313.92656 387.79125,313.92655 C 400.01521,313.92655 409.93691,304.00485 409.93692,291.78088 C 409.93692,279.55692 400.01523,269.63521 387.79125,269.63521 z M 149.39766,374.98676 L 149.39766,389.60492 L 197.41915,389.60492 L 197.41915,486.05116 L 210.18903,486.05116 L 210.18903,374.98676 L 149.39766,374.98676 z "
     id="path1934" />
</svg>
