<?xml version="1.0" encoding="UTF-8" standalone="no"?>
<!-- Created with Inkscape (http://www.inkscape.org/) -->
<svg
   xmlns:dc="http://purl.org/dc/elements/1.1/"
   xmlns:cc="http://web.resource.org/cc/"
   xmlns:rdf="http://www.w3.org/1999/02/22-rdf-syntax-ns#"
   xmlns:svg="http://www.w3.org/2000/svg"
   xmlns="http://www.w3.org/2000/svg"
   xmlns:sodipodi="http://sodipodi.sourceforge.net/DTD/sodipodi-0.dtd"
   xmlns:inkscape="http://www.inkscape.org/namespaces/inkscape"
   width="623.92822"
   height="548.17328"
   id="svg2027"
   sodipodi:version="0.32"
   inkscape:version="0.44"
   version="1.0"
   sodipodi:docbase="C:\Dokumente und Einstellungen\henning\Desktop\Sicherheitszeichen"
   sodipodi:docname="giftig.svg">
  <defs
     id="defs2029" />
  <sodipodi:namedview
     id="base"
     pagecolor="#ffffff"
     bordercolor="#666666"
     borderopacity="1.0"
     gridtolerance="10000"
     guidetolerance="10"
     objecttolerance="10"
     inkscape:pageopacity="0.0"
     inkscape:pageshadow="2"
     inkscape:zoom="1.4265562"
     inkscape:cx="311.9641"
     inkscape:cy="274.08664"
     inkscape:document-units="mm"
     inkscape:current-layer="layer1"
     inkscape:window-width="1280"
     inkscape:window-height="977"
     inkscape:window-x="-4"
     inkscape:window-y="-4"
     showguides="true"
     inkscape:guide-bbox="true" />
  <metadata
     id="metadata2032">
    <rdf:RDF>
      <cc:Work
         rdf:about="">
        <dc:format>image/svg+xml</dc:format>
        <dc:type
           rdf:resource="http://purl.org/dc/dcmitype/StillImage" />
      </cc:Work>
    </rdf:RDF>
  </metadata>
  <g
     inkscape:label="Layer 1"
     inkscape:groupmode="layer"
     id="layer1"
     transform="translate(-79.46447,-261.1326)">
    <g
       transform="translate(94.84399,251.5248)"
       id="g2907">
      <path
         style="fill:yellow"
         d="M 295.84375,9.625 C 280.56684,9.7059068 270.50089,23.813625 265.0625,36.5 C 172.18368,198.06519 78.058421,358.93364 -14,520.9375 C -20.829463,540.11547 -1.0883658,561.5426 18.53125,557.21875 C 207.86361,556.9309 397.20493,557.89808 586.53125,556.65625 C 606.05502,553.39207 615.65348,526.10648 602.46875,511.28125 C 507.43559,347.23157 413.38004,182.58741 317.6875,18.9375 C 312.13891,12.888602 304.08329,9.328277 295.84375,9.625 z "
         id="path2889" />
      <g
         id="g4"
         transform="translate(-3.188547,21.62979)">
        <path
           d="M 597.6,499.6 L 313.8,8 C 310.9,3 305.6,0 299.9,0 C 294.2,0 288.9,3.1 286,8 L 2.2,499.6 C -0.7,504.6 -0.7,510.7 2.2,515.6 C 5.1,520.6 10.4,523.6 16.1,523.6 L 583.7,523.6 C 589.4,523.6 594.7,520.5 597.6,515.6 C 600.5,510.6 600.5,504.5 597.6,499.6 z "
           id="sign_border" />
        <polygon
           style="fill:#f7f619"
           id="sign_bg"
           points="43.9,491.5 299.9,48.2 555.9,491.5 43.9,491.5 " />
      </g>
    </g>
    <g
       id="g5012"
       transform="matrix(1.117905,0,0,1.117905,699.4619,-56.42374)">
      <g
         transform="translate(0.852233,0)"
         id="g4936">
        <g
           id="g4851"
           transform="translate(3.933204,-1.090181)">
          <path
             sodipodi:nodetypes="cssccsccccsccccccsccccccsccccccsccccccsccccccsccccccsccccccsccccccsccc"
             id="path2121"
             d="M -310.00075,644.34321 C -315.1459,642.45421 -316.21012,644.87236 -315.54572,650.97264 C -314.85848,657.28264 -313.01713,664.76471 -309.05384,667.97318 C -301.49022,674.09631 -298.09991,675.37356 -279.94178,675.1951 L -280.04115,650.28885 C -285.05354,650.19962 -289.79964,650.90551 -296.81438,647.57824 C -305.86266,643.2864 -306.66757,644.29945 -310.00075,644.34321 z M -306.70805,647.59925 C -305.87001,647.59925 -305.42605,648.17319 -305.42605,649.0722 L -305.42605,651.49709 C -305.42603,652.39609 -306.2324,652.45771 -307.07045,652.45771 C -307.9085,652.45772 -308.05014,652.09411 -308.05014,651.1951 L -308.02215,649.0118 C -308.02214,648.11278 -307.5461,647.59925 -306.70805,647.59925 z M -301.04813,649.91622 C -300.089,649.91622 -299.205,651.54277 -299.205,652.5118 L -299.2654,654.97215 C -299.26541,655.94118 -299.84741,656.42015 -300.80653,656.42015 C -301.76564,656.42016 -302.71006,656.12237 -302.71006,655.15334 L -302.77046,652.6326 C -302.77045,651.66358 -302.00725,649.91622 -301.04813,649.91622 z M -293.95228,652.66385 C -292.87359,652.66385 -292.45401,653.51534 -292.45401,654.5701 L -292.27282,657.39914 C -292.27283,658.45389 -293.17558,658.8826 -294.25427,658.8826 C -295.33296,658.88259 -296.08766,657.97071 -296.08766,656.91595 L -296.02726,654.5701 C -296.02725,653.51534 -295.03097,652.66385 -293.95228,652.66385 z M -285.78679,653.17646 C -284.4705,653.17646 -282.01285,654.24497 -282.01285,655.48686 L -282.01286,659.02414 C -282.01287,660.26602 -283.26254,660.97215 -284.57882,660.97215 C -285.89507,660.97215 -288.25923,660.68882 -288.25923,659.44693 L -288.07803,655.66805 C -288.07802,654.42617 -287.10306,653.17646 -285.78679,653.17646 z M -309.64615,655.0722 C -308.80811,655.0722 -308.21607,655.1942 -308.21607,656.09321 L -308.27647,659.1269 C -308.27645,660.0259 -308.98929,659.59952 -309.82734,659.59952 C -310.66539,659.59953 -310.98855,659.53352 -310.98855,658.63451 L -311.04895,655.85162 C -311.04894,654.9526 -310.4842,655.0722 -309.64615,655.0722 z M -304.89999,659.03675 C -303.94086,659.03675 -302.42487,659.51572 -302.42487,660.48475 L -302.51328,663.87909 C -302.51329,664.84812 -303.57848,664.4535 -304.5376,664.4535 C -305.49671,664.45351 -306.59505,664.25812 -306.59505,663.28909 L -306.53466,660.36396 C -306.53465,659.39494 -305.85911,659.03675 -304.89999,659.03675 z M -297.63464,661.6305 C -296.55595,661.6305 -295.74086,661.9988 -295.74086,663.05356 L -295.92206,666.63653 C -295.92207,667.69128 -296.55595,667.6368 -297.63464,667.6368 C -298.71333,667.63679 -300.25802,667.7845 -300.25802,666.72974 L -299.99802,662.32356 C -299.99801,661.2688 -298.71333,661.6305 -297.63464,661.6305 z M -290.97522,663.76994 C -289.89653,663.76994 -288.83984,663.77585 -288.83984,664.83061 L -288.96064,668.08244 C -288.96065,669.13719 -290.01733,670.13864 -291.09602,670.13864 C -292.1747,670.13863 -293.19828,669.1372 -293.19828,668.08244 L -293.13788,665.0118 C -293.13787,663.95704 -292.0539,663.76994 -290.97522,663.76994 z M -283.71766,664.2597 C -282.64858,664.2597 -281.555,664.87156 -281.555,666.02021 L -281.6154,669.67199 C -281.61539,670.82063 -282.64856,671.85528 -283.71766,671.85528 C -284.78677,671.85528 -285.63872,670.76024 -285.63872,669.61159 L -285.63872,665.65781 C -285.63871,664.50917 -284.78676,664.2597 -283.71766,664.2597 z "
             style="fill:black;fill-opacity:1;fill-rule:evenodd;stroke:none;stroke-width:1px;stroke-linecap:butt;stroke-linejoin:miter;stroke-opacity:1" />
          <path
             sodipodi:nodetypes="csscc"
             transform="translate(79.46447,261.1326)"
             id="path2123"
             d="M -359.50415,338.66329 C -362.7164,338.66329 -371.43995,353.35308 -371.907,355.97374 C -373.51312,364.98589 -373.66927,367.64045 -370.56856,371.14269 C -367.46785,374.64493 -362.18102,371.58883 -359.50415,369.98271 L -359.50415,338.66329 z "
             style="fill:black;fill-rule:evenodd;stroke:none;stroke-width:1px;stroke-linecap:butt;stroke-linejoin:miter;stroke-opacity:1" />
          <path
             sodipodi:nodetypes="cssss"
             transform="translate(79.46447,261.1326)"
             id="path2125"
             d="M -405.011,325.63584 C -404.27486,317.06984 -392.85353,310.97995 -382.52526,311.71609 C -373.20046,312.37501 -365.35635,316.7181 -367.624,325.01123 C -369.96626,333.57723 -376.12307,345.82393 -385.46982,345.98008 C -394.81657,346.13623 -405.74714,334.20184 -405.011,325.63584 z "
             style="fill:black;fill-rule:evenodd;stroke:none;stroke-width:1px;stroke-linecap:butt;stroke-linejoin:miter;stroke-opacity:1" />
        </g>
        <g
           id="g4856"
           style="stroke:black"
           transform="translate(3.933204,-1.090181)">
          <path
             sodipodi:nodetypes="csss"
             transform="translate(79.46447,261.1326)"
             id="path2127"
             d="M -421.93309,322.98159 C -424.89391,315.57953 -432.70304,308.13518 -434.31034,293.37337 C -435.91764,278.61156 -426.52761,253.65606 -410.96214,241.09371 C -400.20175,232.40937 -380.88864,223.70945 -359.69761,223.66715"
             style="fill:none;fill-rule:evenodd;stroke:black;stroke-width:5.31496048;stroke-linecap:butt;stroke-linejoin:miter;stroke-miterlimit:4;stroke-dasharray:none;stroke-opacity:1" />
          <path
             sodipodi:nodetypes="cssssss"
             transform="translate(79.46447,261.1326)"
             id="path2129"
             d="M -359.52842,441.07611 C -368.03608,441.23236 -381.0716,440.23947 -390.65936,427.20254 C -396.17038,419.70895 -402.65169,401.0952 -406.80226,384.00313 C -410.84954,367.33642 -409.63016,369.90356 -415.00409,363.63995 C -429.53904,346.69864 -427.95748,338.6095 -421.66611,322.8124 C -417.47432,312.28717 -418.85834,313.47315 -419.9292,301.1561 C -421.22101,286.29766 -420.08908,281.61468 -419.91989,275.10087"
             style="fill:none;fill-rule:evenodd;stroke:black;stroke-width:5.31496048;stroke-linecap:round;stroke-linejoin:miter;stroke-miterlimit:4;stroke-dasharray:none;stroke-opacity:1" />
          <path
             sodipodi:nodetypes="cssssscc"
             transform="translate(79.46447,261.1326)"
             id="path2131"
             d="M -406.74619,385.04763 C -406.74619,385.04763 -443.41339,373.55723 -458.2736,367.29337 C -461.96252,365.73842 -462.99904,359.84572 -467.26682,362.73984 C -470.42671,364.88266 -468.5803,367.34519 -468.68042,372.51795 C -468.78054,377.69071 -472.43243,376.97763 -472.14486,380.98385 C -471.62711,388.14463 -465.46426,382.10427 -456.40473,383.97971 C -439.94573,387.38693 -402.74147,399.73161 -402.74147,399.73161 L -406.74619,385.04763 z "
             style="fill:none;fill-rule:evenodd;stroke:black;stroke-width:5.31496048;stroke-linecap:butt;stroke-linejoin:miter;stroke-miterlimit:4;stroke-dasharray:none;stroke-opacity:1" />
          <path
             sodipodi:nodetypes="cssssscc"
             transform="translate(79.46447,261.1326)"
             id="path2133"
             d="M -399.23695,409.56165 C -399.23695,409.56165 -437.17421,425.61076 -437.97721,426.00808 C -445.69823,429.8289 -454.09878,425.17763 -457.39302,427.80669 C -460.68726,430.43575 -455.62226,432.25745 -453.74006,436.66285 C -451.77772,441.25579 -456.29567,444.30407 -451.94485,446.17844 C -447.90611,447.91836 -445.5657,443.48765 -433.61523,438.28065 C -419.21367,432.00566 -394.16889,421.47161 -394.16889,421.47161 L -399.23695,409.56165 z "
             style="fill:none;fill-rule:evenodd;stroke:black;stroke-width:5.31496048;stroke-linecap:butt;stroke-linejoin:miter;stroke-miterlimit:4;stroke-dasharray:none;stroke-opacity:1" />
          <path
             sodipodi:nodetypes="csc"
             transform="translate(79.46447,261.1326)"
             id="path2135"
             d="M -392.73413,384.99208 C -392.63653,388.11525 -395.31736,369.61308 -401.13203,366.34628 C -410.26097,361.21746 -421.92063,354.53679 -419.57825,357.85516"
             style="fill:none;fill-rule:evenodd;stroke:black;stroke-width:5.31496048;stroke-linecap:round;stroke-linejoin:bevel;stroke-miterlimit:4;stroke-dasharray:none;stroke-opacity:1" />
        </g>
      </g>
      <g
         transform="matrix(-1,0,0,1,-551.9426,0)"
         id="g4966">
        <g
           transform="translate(3.933204,-1.090181)"
           id="g4968">
          <path
             style="fill:black;fill-opacity:1;fill-rule:evenodd;stroke:none;stroke-width:1px;stroke-linecap:butt;stroke-linejoin:miter;stroke-opacity:1"
             d="M -310.00075,644.34321 C -315.1459,642.45421 -316.21012,644.87236 -315.54572,650.97264 C -314.85848,657.28264 -313.01713,664.76471 -309.05384,667.97318 C -301.49022,674.09631 -298.09991,675.37356 -279.94178,675.1951 L -280.04115,650.28885 C -285.05354,650.19962 -289.79964,650.90551 -296.81438,647.57824 C -305.86266,643.2864 -306.66757,644.29945 -310.00075,644.34321 z M -306.70805,647.59925 C -305.87001,647.59925 -305.42605,648.17319 -305.42605,649.0722 L -305.42605,651.49709 C -305.42603,652.39609 -306.2324,652.45771 -307.07045,652.45771 C -307.9085,652.45772 -308.05014,652.09411 -308.05014,651.1951 L -308.02215,649.0118 C -308.02214,648.11278 -307.5461,647.59925 -306.70805,647.59925 z M -301.04813,649.91622 C -300.089,649.91622 -299.205,651.54277 -299.205,652.5118 L -299.2654,654.97215 C -299.26541,655.94118 -299.84741,656.42015 -300.80653,656.42015 C -301.76564,656.42016 -302.71006,656.12237 -302.71006,655.15334 L -302.77046,652.6326 C -302.77045,651.66358 -302.00725,649.91622 -301.04813,649.91622 z M -293.95228,652.66385 C -292.87359,652.66385 -292.45401,653.51534 -292.45401,654.5701 L -292.27282,657.39914 C -292.27283,658.45389 -293.17558,658.8826 -294.25427,658.8826 C -295.33296,658.88259 -296.08766,657.97071 -296.08766,656.91595 L -296.02726,654.5701 C -296.02725,653.51534 -295.03097,652.66385 -293.95228,652.66385 z M -285.78679,653.17646 C -284.4705,653.17646 -282.01285,654.24497 -282.01285,655.48686 L -282.01286,659.02414 C -282.01287,660.26602 -283.26254,660.97215 -284.57882,660.97215 C -285.89507,660.97215 -288.25923,660.68882 -288.25923,659.44693 L -288.07803,655.66805 C -288.07802,654.42617 -287.10306,653.17646 -285.78679,653.17646 z M -309.64615,655.0722 C -308.80811,655.0722 -308.21607,655.1942 -308.21607,656.09321 L -308.27647,659.1269 C -308.27645,660.0259 -308.98929,659.59952 -309.82734,659.59952 C -310.66539,659.59953 -310.98855,659.53352 -310.98855,658.63451 L -311.04895,655.85162 C -311.04894,654.9526 -310.4842,655.0722 -309.64615,655.0722 z M -304.89999,659.03675 C -303.94086,659.03675 -302.42487,659.51572 -302.42487,660.48475 L -302.51328,663.87909 C -302.51329,664.84812 -303.57848,664.4535 -304.5376,664.4535 C -305.49671,664.45351 -306.59505,664.25812 -306.59505,663.28909 L -306.53466,660.36396 C -306.53465,659.39494 -305.85911,659.03675 -304.89999,659.03675 z M -297.63464,661.6305 C -296.55595,661.6305 -295.74086,661.9988 -295.74086,663.05356 L -295.92206,666.63653 C -295.92207,667.69128 -296.55595,667.6368 -297.63464,667.6368 C -298.71333,667.63679 -300.25802,667.7845 -300.25802,666.72974 L -299.99802,662.32356 C -299.99801,661.2688 -298.71333,661.6305 -297.63464,661.6305 z M -290.97522,663.76994 C -289.89653,663.76994 -288.83984,663.77585 -288.83984,664.83061 L -288.96064,668.08244 C -288.96065,669.13719 -290.01733,670.13864 -291.09602,670.13864 C -292.1747,670.13863 -293.19828,669.1372 -293.19828,668.08244 L -293.13788,665.0118 C -293.13787,663.95704 -292.0539,663.76994 -290.97522,663.76994 z M -283.71766,664.2597 C -282.64858,664.2597 -281.555,664.87156 -281.555,666.02021 L -281.6154,669.67199 C -281.61539,670.82063 -282.64856,671.85528 -283.71766,671.85528 C -284.78677,671.85528 -285.63872,670.76024 -285.63872,669.61159 L -285.63872,665.65781 C -285.63871,664.50917 -284.78676,664.2597 -283.71766,664.2597 z "
             id="path4970"
             sodipodi:nodetypes="cssccsccccsccccccsccccccsccccccsccccccsccccccsccccccsccccccsccccccsccc" />
          <path
             style="fill:black;fill-rule:evenodd;stroke:none;stroke-width:1px;stroke-linecap:butt;stroke-linejoin:miter;stroke-opacity:1"
             d="M -359.50415,338.66329 C -362.7164,338.66329 -371.43995,353.35308 -371.907,355.97374 C -373.51312,364.98589 -373.66927,367.64045 -370.56856,371.14269 C -367.46785,374.64493 -362.18102,371.58883 -359.50415,369.98271 L -359.50415,338.66329 z "
             id="path4972"
             transform="translate(79.46447,261.1326)"
             sodipodi:nodetypes="csscc" />
          <path
             style="fill:black;fill-rule:evenodd;stroke:none;stroke-width:1px;stroke-linecap:butt;stroke-linejoin:miter;stroke-opacity:1"
             d="M -405.011,325.63584 C -404.27486,317.06984 -392.85353,310.97995 -382.52526,311.71609 C -373.20046,312.37501 -365.35635,316.7181 -367.624,325.01123 C -369.96626,333.57723 -376.12307,345.82393 -385.46982,345.98008 C -394.81657,346.13623 -405.74714,334.20184 -405.011,325.63584 z "
             id="path4974"
             transform="translate(79.46447,261.1326)"
             sodipodi:nodetypes="cssss" />
        </g>
        <g
           transform="translate(3.933204,-1.090181)"
           style="stroke:black"
           id="g4976">
          <path
             style="fill:none;fill-rule:evenodd;stroke:black;stroke-width:5.31496048;stroke-linecap:butt;stroke-linejoin:miter;stroke-miterlimit:4;stroke-dasharray:none;stroke-opacity:1"
             d="M -421.93309,322.98159 C -424.89391,315.57953 -432.70304,308.13518 -434.31034,293.37337 C -435.91764,278.61156 -426.52761,253.65606 -410.96214,241.09371 C -400.20175,232.40937 -380.88864,223.70945 -359.69761,223.66715"
             id="path4978"
             transform="translate(79.46447,261.1326)"
             sodipodi:nodetypes="csss" />
          <path
             style="fill:none;fill-rule:evenodd;stroke:black;stroke-width:5.31496048;stroke-linecap:round;stroke-linejoin:miter;stroke-miterlimit:4;stroke-dasharray:none;stroke-opacity:1"
             d="M -359.52842,441.07611 C -368.03608,441.23236 -381.0716,440.23947 -390.65936,427.20254 C -396.17038,419.70895 -402.65169,401.0952 -406.80226,384.00313 C -410.84954,367.33642 -409.63016,369.90356 -415.00409,363.63995 C -429.53904,346.69864 -427.95748,338.6095 -421.66611,322.8124 C -417.47432,312.28717 -418.85834,313.47315 -419.9292,301.1561 C -421.22101,286.29766 -420.08908,281.61468 -419.91989,275.10087"
             id="path4980"
             transform="translate(79.46447,261.1326)"
             sodipodi:nodetypes="cssssss" />
          <path
             style="fill:none;fill-rule:evenodd;stroke:black;stroke-width:5.31496048;stroke-linecap:butt;stroke-linejoin:miter;stroke-miterlimit:4;stroke-dasharray:none;stroke-opacity:1"
             d="M -406.74619,385.04763 C -406.74619,385.04763 -443.41339,373.55723 -458.2736,367.29337 C -461.96252,365.73842 -462.99904,359.84572 -467.26682,362.73984 C -470.42671,364.88266 -468.5803,367.34519 -468.68042,372.51795 C -468.78054,377.69071 -472.43243,376.97763 -472.14486,380.98385 C -471.62711,388.14463 -465.46426,382.10427 -456.40473,383.97971 C -439.94573,387.38693 -402.74147,399.73161 -402.74147,399.73161 L -406.74619,385.04763 z "
             id="path4982"
             transform="translate(79.46447,261.1326)"
             sodipodi:nodetypes="cssssscc" />
          <path
             style="fill:none;fill-rule:evenodd;stroke:black;stroke-width:5.31496048;stroke-linecap:butt;stroke-linejoin:miter;stroke-miterlimit:4;stroke-dasharray:none;stroke-opacity:1"
             d="M -399.23695,409.56165 C -399.23695,409.56165 -437.17421,425.61076 -437.97721,426.00808 C -445.69823,429.8289 -454.09878,425.17763 -457.39302,427.80669 C -460.68726,430.43575 -455.62226,432.25745 -453.74006,436.66285 C -451.77772,441.25579 -456.29567,444.30407 -451.94485,446.17844 C -447.90611,447.91836 -445.5657,443.48765 -433.61523,438.28065 C -419.21367,432.00566 -394.16889,421.47161 -394.16889,421.47161 L -399.23695,409.56165 z "
             id="path4984"
             transform="translate(79.46447,261.1326)"
             sodipodi:nodetypes="cssssscc" />
          <path
             style="fill:none;fill-rule:evenodd;stroke:black;stroke-width:5.31496048;stroke-linecap:round;stroke-linejoin:bevel;stroke-miterlimit:4;stroke-dasharray:none;stroke-opacity:1"
             d="M -392.73413,384.99208 C -392.63653,388.11525 -395.31736,369.61308 -401.13203,366.34628 C -410.26097,361.21746 -421.92063,354.53679 -419.57825,357.85516"
             id="path4986"
             transform="translate(79.46447,261.1326)"
             sodipodi:nodetypes="csc" />
        </g>
      </g>
    </g>
  </g>
</svg>
