<?xml version="1.0" encoding="UTF-8" standalone="no"?>
<!-- Created with Inkscape (http://www.inkscape.org/) -->
<svg
   xmlns:svg="http://www.w3.org/2000/svg"
   xmlns="http://www.w3.org/2000/svg"
   version="1.0"
   width="623.92822"
   height="548.17328"
   id="svg2">
  <defs
     id="defs4" />
  <g
     transform="translate(-68.03592,-283.9898)"
     id="layer1">
    <g
       transform="translate(83.41544,274.382)"
       id="g2907">
      <path
         d="M 295.84375,9.625 C 280.56684,9.7059068 270.50089,23.813625 265.0625,36.5 C 172.18368,198.06519 78.058421,358.93364 -14,520.9375 C -20.829463,540.11547 -1.0883658,561.5426 18.53125,557.21875 C 207.86361,556.9309 397.20493,557.89808 586.53125,556.65625 C 606.05502,553.39207 615.65348,526.10648 602.46875,511.28125 C 507.43559,347.23157 413.38004,182.58741 317.6875,18.9375 C 312.13891,12.888602 304.08329,9.328277 295.84375,9.625 z "
         style="fill:#ffff00"
         id="path2889" />
      <g
         transform="translate(-3.188547,21.62979)"
         id="g4">
        <path
           d="M 597.6,499.6 L 313.8,8 C 310.9,3 305.6,0 299.9,0 C 294.2,0 288.9,3.1 286,8 L 2.2,499.6 C -0.7,504.6 -0.7,510.7 2.2,515.6 C 5.1,520.6 10.4,523.6 16.1,523.6 L 583.7,523.6 C 589.4,523.6 594.7,520.5 597.6,515.6 C 600.5,510.6 600.5,504.5 597.6,499.6 z "
           id="sign_border" />
        <polygon
           points="43.9,491.5 299.9,48.2 555.9,491.5 43.9,491.5 "
           style="fill:#f7f619"
           id="sign_bg" />
      </g>
    </g>
    <g
       id="g2173">
      <g
         transform="matrix(1.8951126,0,0,1.9509158,-715.42911,-386.30459)"
         style="fill:#000000"
         id="g3134">
        <rect
           width="85.014748"
           height="5.9583478"
           x="499.66782"
           y="583.30164"
           style="opacity:1;fill:#000000;fill-opacity:1;stroke:none;stroke-width:1;stroke-miterlimit:4;stroke-dasharray:none;stroke-opacity:1"
           id="rect2241" />
        <rect
           width="70.618782"
           height="6.531991"
           x="507.83804"
           y="519.75708"
           style="opacity:1;fill:#000000;fill-opacity:1;stroke:none;stroke-width:1;stroke-miterlimit:4;stroke-dasharray:none;stroke-opacity:1"
           id="rect2239" />
        <path
           d="M 526.13835,504.36218 L 526.13835,490.36218 L 539.13835,502.36218 L 539.13835,464.36218 L 548.13835,464.36218 L 548.13835,502.36218 L 561.13835,490.36218 L 561.13835,504.36218 L 543.63979,518.36218 L 526.13835,504.36218 z "
           style="opacity:1;fill:#000000;fill-rule:evenodd;stroke:none;stroke-width:1px;stroke-linecap:butt;stroke-linejoin:miter;stroke-opacity:1"
           id="path2326" />
      </g>
      <path
         d="M 387.97157,621.86925 C 386.97218,622.06833 385.84988,624.93036 385.56423,626.64551 C 385.66289,631.61786 385.58373,631.57797 386.72638,634.2459 C 388.02226,636.85769 391.8549,638.91554 395.8162,641.43107 C 408.48866,649.4783 415.9881,648.32549 415.9881,648.32547 C 416.10419,648.35867 418.2918,648.88164 418.72748,648.98997 C 418.77064,650.26154 418.54807,651.49537 417.93887,652.68639 L 312.84574,652.68639 C 307.53115,652.68639 303.25786,657.00394 303.25786,662.32192 C 303.25786,667.63994 307.53116,671.91594 312.84574,671.91594 L 399.80077,671.91594 C 400.60503,673.85876 400.41312,675.80702 399.21969,677.56435 L 297.69606,677.56435 C 292.38146,677.56435 288.06665,681.84041 288.06665,687.15835 C 288.06665,692.47637 292.3815,696.75235 297.69606,696.75235 L 389.92234,696.75235 C 391.13334,698.55798 391.95788,700.04801 392.24666,701.36248 L 306.03876,701.36248 C 300.72415,701.36248 296.45088,705.63856 296.45088,710.95648 C 296.45088,716.2745 300.72419,720.55054 306.03876,720.55054 L 402.45715,720.55054 C 403.34703,721.78221 403.73847,723.12081 403.37029,724.57916 L 336.75319,724.57916 C 332.06711,724.57916 328.28596,728.36274 328.28596,733.05179 C 328.28596,737.74084 332.06713,741.5244 336.75319,741.52442 L 414.49388,741.52442 C 422.19527,743.89742 430.99733,746.06972 439.18994,746.92368 C 447.4998,746.92368 496.26757,744.56315 502.98464,743.76716 C 512.5551,742.63313 533.32553,734.75463 533.32553,734.75463 L 533.32553,657.67028 L 431.3868,628.30679 C 429.13296,627.7133 418.97857,627.71164 417.15028,627.5592 C 412.28164,627.15321 400.21151,624.26494 397.84999,623.65514 C 396.13414,623.29319 392.1404,622.55531 388.1791,621.86925 C 388.11391,621.85794 388.03822,621.85599 387.97157,621.86925 z "
         style="fill:#000000;fill-opacity:1;stroke:#000000;stroke-width:1.37206626;stroke-miterlimit:4;stroke-dasharray:none;stroke-dashoffset:0;stroke-opacity:1"
         id="rect10870" />
    </g>
  </g>
</svg>
