<?xml version="1.0" encoding="UTF-8" standalone="no"?>
<!-- Generator: Adobe Illustrator 11.0, SVG Export Plug-In . SVG Version: 6.0.0 Build 78)  -->
<!-- Created by Cary Bass http://commons.wikipedia.com/wiki/User:Bastique on January 20, 2006 -->
<svg
   xmlns:dc="http://purl.org/dc/elements/1.1/"
   xmlns:cc="http://web.resource.org/cc/"
   xmlns:rdf="http://www.w3.org/1999/02/22-rdf-syntax-ns#"
   xmlns:svg="http://www.w3.org/2000/svg"
   xmlns="http://www.w3.org/2000/svg"
   xmlns:sodipodi="http://sodipodi.sourceforge.net/DTD/sodipodi-0.dtd"
   xmlns:inkscape="http://www.inkscape.org/namespaces/inkscape"
   version="1.0"
   width="623.92822"
   height="548.17328"
   id="radioactive"
   sodipodi:version="0.32"
   inkscape:version="0.44"
   sodipodi:docname="biohazard.svg"
   sodipodi:docbase="C:\Dokumente und Einstellungen\henning\Desktop\Sicherheitszeichen">
  <defs
     id="defs58" />
  <sodipodi:namedview
     inkscape:window-height="966"
     inkscape:window-width="1272"
     inkscape:pageshadow="2"
     inkscape:pageopacity="0.0"
     guidetolerance="10.0"
     gridtolerance="10.0"
     objecttolerance="10.0"
     borderopacity="1.0"
     bordercolor="#666666"
     pagecolor="#ffffff"
     id="base"
     inkscape:zoom="1.4064896"
     inkscape:cx="311.9641"
     inkscape:cy="274.08664"
     inkscape:window-x="0"
     inkscape:window-y="0"
     inkscape:current-layer="radioactive"
     inkscape:document-units="mm"
     gridspacingx="0.25mm"
     gridspacingy="0.25mm"
     grid_units="mm" />
  <metadata
     id="metadata60">
    <rdf:RDF>
      <cc:Work
         rdf:about="">
        <dc:format>image/svg+xml</dc:format>
        <dc:type
           rdf:resource="http://purl.org/dc/dcmitype/StillImage" />
      </cc:Work>
    </rdf:RDF>
  </metadata>
  <g
     id="g2907"
     transform="translate(15.37952,-9.607801)">
    <path
       id="path2889"
       d="M 295.84375,9.625 C 280.56684,9.7059068 270.50089,23.813625 265.0625,36.5 C 172.18368,198.06519 78.058421,358.93364 -14,520.9375 C -20.829463,540.11547 -1.0883658,561.5426 18.53125,557.21875 C 207.86361,556.9309 397.20493,557.89808 586.53125,556.65625 C 606.05502,553.39207 615.65348,526.10648 602.46875,511.28125 C 507.43559,347.23157 413.38004,182.58741 317.6875,18.9375 C 312.13891,12.888602 304.08329,9.328277 295.84375,9.625 z "
       style="fill:yellow" />
    <g
       transform="translate(-3.188547,21.62979)"
       id="g4">
      <path
         id="sign_border"
         d="M 597.6,499.6 L 313.8,8 C 310.9,3 305.6,0 299.9,0 C 294.2,0 288.9,3.1 286,8 L 2.2,499.6 C -0.7,504.6 -0.7,510.7 2.2,515.6 C 5.1,520.6 10.4,523.6 16.1,523.6 L 583.7,523.6 C 589.4,523.6 594.7,520.5 597.6,515.6 C 600.5,510.6 600.5,504.5 597.6,499.6 z " />
      <polygon
         points="43.9,491.5 299.9,48.2 555.9,491.5 43.9,491.5 "
         id="sign_bg"
         style="fill:#f7f619" />
    </g>
  </g>
  <g
     style="fill:black;stroke:none"
     id="g2000"
     transform="matrix(1.082139,0,0,1.082139,762.2214,-41.59092)">
    <path
       style="fill:black;fill-opacity:1;stroke:none;stroke-width:0.14827491;stroke-linecap:butt;stroke-linejoin:bevel;stroke-miterlimit:4;stroke-dasharray:none;stroke-opacity:1"
       d="M -421.9375,249.1875 C -455.19125,252.16619 -481.3125,280.10179 -481.3125,314.125 C -481.3125,345.11953 -459.6538,371.08454 -430.65625,377.71875 C -430.74609,377.06114 -430.8125,376.4009 -430.8125,375.71875 C -430.81249,368.68978 -425.86851,362.81568 -419.28125,361.34375 L -419.28125,355.03125 C -444.98501,353.3654 -465.34375,331.96611 -465.34375,305.84375 C -465.34374,280.62754 -446.37369,259.81585 -421.9375,256.90625 L -421.9375,249.1875 z M -410.1875,249.1875 L -410.1875,256.90625 C -385.75131,259.81584 -366.78125,280.62753 -366.78125,305.84375 C -366.78126,331.96612 -387.13999,353.3654 -412.84375,355.03125 L -412.84375,361.34375 C -406.25649,362.81568 -401.34375,368.68978 -401.34375,375.71875 C -401.34375,376.3998 -401.37919,377.06215 -401.46875,377.71875 C -372.48449,371.07952 -350.84374,345.11467 -350.84375,314.125 C -350.84375,280.10181 -376.93684,252.16619 -410.1875,249.1875 z M -416.0625,306.9375 C -430.92471,306.9375 -444.68714,311.66283 -455.9375,319.6875 C -454.64465,323.41288 -452.81847,326.89304 -450.59375,330.0625 C -440.99101,322.78672 -429.0304,318.46875 -416.0625,318.46875 C -403.09345,318.46876 -391.13442,322.78555 -381.53125,330.0625 C -379.31378,326.89699 -377.50959,323.40707 -376.21875,319.6875 C -387.46729,311.66711 -401.20464,306.93751 -416.0625,306.9375 z "
       id="path2002" />
    <path
       id="path2004"
       d="M -522.73985,444.09977 C -503.53335,471.40901 -466.2798,480.06286 -436.81485,463.05126 C -409.97281,447.55399 -398.31581,415.81451 -407.06919,387.3848 C -407.59378,387.79141 -408.13236,388.17905 -408.72312,388.52012 C -414.81039,392.0346 -422.3695,390.69004 -426.93785,385.72127 L -432.40464,388.87752 C -420.99542,411.97054 -429.34837,440.30137 -451.97099,453.36255 C -473.80886,465.97064 -501.31733,459.94795 -516.05521,440.2404 L -522.73985,444.09977 z M -528.61485,433.92398 L -521.93021,430.0646 C -531.62853,407.44746 -523.09012,380.61307 -501.25224,368.00496 C -478.62961,354.94378 -449.91793,361.87531 -435.62339,383.30248 L -430.1566,380.14623 C -432.17551,373.70554 -429.54476,366.51393 -423.45749,362.99945 C -422.86769,362.65892 -422.27636,362.35844 -421.66294,362.1077 C -441.90481,340.32622 -475.2114,334.56721 -502.04922,350.06206 C -531.51415,367.07365 -542.66056,403.63873 -528.61485,433.92398 z M -475.6644,410.13688 C -468.2333,423.00792 -457.25983,432.56387 -444.68508,438.29462 C -442.10524,435.31229 -440.00442,431.9907 -438.37195,428.4793 C -449.47433,423.80098 -459.1941,415.60178 -465.67805,404.37125 C -472.16257,393.13973 -474.40363,380.62451 -472.9032,368.66945 C -476.75334,368.33182 -480.6778,368.51431 -484.54446,369.25619 C -485.86605,383.0079 -483.09332,397.26959 -475.6644,410.13688 z "
       style="fill:black;fill-opacity:1;stroke:none;stroke-width:0.14827487;stroke-linecap:butt;stroke-linejoin:bevel;stroke-miterlimit:4;stroke-dasharray:none;stroke-opacity:1" />
    <path
       style="fill:black;fill-opacity:1;stroke:none;stroke-width:0.14827487;stroke-linecap:butt;stroke-linejoin:bevel;stroke-miterlimit:4;stroke-dasharray:none;stroke-opacity:1"
       d="M -303.55075,434.00543 C -289.5035,403.7175 -300.6358,367.12805 -330.10075,350.11644 C -356.94279,334.61918 -390.25849,340.39365 -410.50266,362.18915 C -409.88823,362.44015 -409.28324,362.71275 -408.69248,363.05383 C -402.60522,366.56832 -399.99009,373.78698 -402.009,380.22768 L -396.54221,383.38393 C -382.24767,361.95676 -353.53598,355.02522 -330.91336,368.0864 C -309.0755,380.69452 -300.53708,407.5289 -310.23539,430.14605 L -303.55075,434.00543 z M -309.42575,444.18122 L -316.11039,440.32185 C -330.84826,460.0294 -358.35673,466.0521 -380.19461,453.44399 C -402.81723,440.3828 -411.17018,412.05199 -399.76096,388.95897 L -405.22775,385.80272 C -409.7961,390.77148 -417.33959,392.08899 -423.42686,388.5745 C -424.01666,388.23398 -424.57255,387.87211 -425.09641,387.46625 C -433.8388,415.88696 -422.17296,447.61082 -395.33513,463.10564 C -365.8702,480.11724 -328.6307,471.48778 -309.42575,444.18122 z M -356.5012,410.21832 C -349.07009,397.34728 -346.28113,383.066 -347.60552,369.31058 C -351.47821,368.56753 -355.40521,368.40896 -359.2624,368.7509 C -357.76276,380.705 -360.0036,393.22217 -366.48755,404.4527 C -372.97208,415.68421 -382.69005,423.88264 -393.79365,428.56075 C -392.16098,432.06389 -390.04071,435.37132 -387.46489,438.34901 C -374.89476,432.61769 -363.93014,423.0856 -356.5012,410.21832 z "
       id="path2006" />
  </g>
</svg>
