<?xml version="1.0" encoding="UTF-8" standalone="no"?>
<!-- Created with Inkscape (http://www.inkscape.org/) -->
<svg
   xmlns:dc="http://purl.org/dc/elements/1.1/"
   xmlns:cc="http://web.resource.org/cc/"
   xmlns:rdf="http://www.w3.org/1999/02/22-rdf-syntax-ns#"
   xmlns:svg="http://www.w3.org/2000/svg"
   xmlns="http://www.w3.org/2000/svg"
   xmlns:sodipodi="http://sodipodi.sourceforge.net/DTD/sodipodi-0.dtd"
   xmlns:inkscape="http://www.inkscape.org/namespaces/inkscape"
   width="623.92822"
   height="548.17328"
   id="svg2"
   sodipodi:version="0.32"
   inkscape:version="0.44"
   version="1.0"
   sodipodi:docbase="C:\Dokumente und Einstellungen\henning\Desktop\Sicherheitszeichen"
   sodipodi:docname="explosionswarnung.svg">
  <defs
     id="defs4" />
  <sodipodi:namedview
     id="base"
     pagecolor="#ffffff"
     bordercolor="#666666"
     borderopacity="1.0"
     gridtolerance="10000"
     guidetolerance="10"
     objecttolerance="10"
     inkscape:pageopacity="0.0"
     inkscape:pageshadow="2"
     inkscape:zoom="0.89963488"
     inkscape:cx="-40.785912"
     inkscape:cy="266.76523"
     inkscape:document-units="mm"
     inkscape:current-layer="layer1"
     width="210mm"
     height="297mm"
     units="mm"
     inkscape:window-width="1280"
     inkscape:window-height="977"
     inkscape:window-x="-4"
     inkscape:window-y="-4" />
  <metadata
     id="metadata7">
    <rdf:RDF>
      <cc:Work
         rdf:about="">
        <dc:format>image/svg+xml</dc:format>
        <dc:type
           rdf:resource="http://purl.org/dc/dcmitype/StillImage" />
      </cc:Work>
    </rdf:RDF>
  </metadata>
  <g
     inkscape:label="Layer 1"
     inkscape:groupmode="layer"
     id="layer1"
     transform="translate(-68.03585,-223.9898)">
    <path
       id="path2889"
       d="M 379.25912,224.007 C 363.98221,224.08791 353.91626,238.19563 348.47787,250.882 C 255.59905,412.44719 161.47379,573.31564 69.41537,735.3195 C 62.585907,754.49747 82.327004,775.9246 101.94662,771.60075 C 291.27898,771.3129 480.6203,772.28008 669.94662,771.03825 C 689.47039,767.77407 699.06885,740.48848 685.88412,725.66325 C 590.85096,561.61357 496.79541,396.96941 401.10287,233.3195 C 395.55428,227.2706 387.49866,223.71028 379.25912,224.007 z "
       style="fill:yellow" />
    <path
       d="M 677.82682,735.6118 L 394.02682,244.0118 C 391.12682,239.0118 385.82682,236.0118 380.12682,236.0118 C 374.42682,236.0118 369.12682,239.1118 366.22682,244.0118 L 82.42682,735.6118 C 79.52682,740.6118 79.52682,746.7118 82.42682,751.6118 C 85.32682,756.6118 90.62682,759.6118 96.32682,759.6118 L 663.92682,759.6118 C 669.62682,759.6118 674.92682,756.5118 677.82682,751.6118 C 680.72682,746.6118 680.72682,740.5118 677.82682,735.6118 z "
       id="sign_border" />
    <path
       id="path3895"
       d="M 677.82682,735.6118 L 394.02682,244.0118 C 391.12682,239.0118 385.82682,236.0118 380.12682,236.0118 C 374.42682,236.0118 369.12682,239.1118 366.22682,244.0118 L 82.42682,735.6118 C 79.52682,740.6118 79.52682,746.7118 82.42682,751.6118 C 85.32682,756.6118 90.62682,759.6118 96.32682,759.6118 L 663.92682,759.6118 C 669.62682,759.6118 674.92682,756.5118 677.82682,751.6118 C 680.72682,746.6118 680.72682,740.5118 677.82682,735.6118 z " />
    <polygon
       style="fill:#f7f619"
       id="sign_bg"
       points="43.9,491.5 299.9,48.2 555.9,491.5 43.9,491.5 "
       transform="translate(80.22682,236.0118)" />
    <polygon
       transform="translate(80.22682,236.0118)"
       points="43.9,491.5 299.9,48.2 555.9,491.5 43.9,491.5 "
       id="polygon3900"
       style="fill:#f7f619" />
    <g
       id="g3850"
       transform="matrix(1.135384,0,0,1.135384,733.0771,-76.93516)"
       style="fill:black">
      <path
         id="path1974"
         transform="translate(68.03585,223.9898)"
         d="M -503.125,390 C -519.68808,394.29684 -531.9375,409.34895 -531.9375,427.25 C -531.9375,448.49471 -514.68221,465.75 -493.4375,465.75 C -480.49151,465.75 -469.03996,459.34065 -462.0625,449.53125 C -463.02153,448.72332 -464.04516,447.81937 -464.3125,446.75 C -464.63295,445.46818 -464.23655,444.07595 -465.28125,443.03125 C -466.09485,442.21765 -466.59778,441.18649 -467.84375,440.875 C -469.0104,440.58334 -470.86961,440.43018 -472.15625,440.6875 C -473.0893,440.87411 -475.875,441.98159 -475.875,440.6875 C -475.875,439.63817 -475.741,438.65783 -476.28125,437.9375 C -476.9664,437.02396 -479.31681,438.26406 -479.59375,437.15625 C -479.91138,435.88573 -478.21785,435.7491 -477.0625,434.59375 C -476.86634,434.39759 -478.20446,433.24114 -476.46875,434 C -475.13319,434.58392 -476.78498,430.82496 -475.875,429.6875 C -474.89543,428.46302 -471.15625,427.53002 -471.15625,425.96875 C -471.15625,424.83547 -471.47091,424.32604 -471.15625,422.25 C -470.89513,420.52725 -471.36986,420.88153 -473.71875,421.46875 C -473.9803,421.53414 -474.42314,420.60339 -474.6875,420.65625 C -475.7072,420.86019 -478.18806,421.55453 -479.40625,421.25 C -480.76891,420.90933 -480.8571,419.73998 -481.96875,418.90625 C -482.99148,418.13921 -483.29865,418.12501 -484.71875,418.125 C -486.37481,418.125 -486.93739,416.65634 -488.03125,415.5625 C -489.3237,414.27006 -490.2994,413.81249 -492.15625,413.8125 C -494.35078,413.8125 -496.24246,414.1875 -498.4375,414.1875 C -499.67471,414.1875 -502.26024,414.70851 -503.15625,413.8125 C -504.22795,412.7408 -504.07948,411.6518 -503.53125,410.28125 C -503.0347,409.03986 -501.80341,408.3881 -501.375,407.53125 C -500.56655,405.91433 -497.96779,406.05077 -496.875,404.59375 C -496.09924,403.5594 -496.09374,402.32641 -496.09375,400.65625 C -496.09375,398.98274 -497.03189,397.08246 -498.03125,395.75 C -498.78174,394.74935 -500.30468,394.29429 -500.59375,393.8125 C -501.08546,392.993 -501.72033,391.31093 -502.375,390.65625 C -502.59402,390.43723 -502.84746,390.22121 -503.125,390 z "
         style="fill:black;fill-opacity:1;stroke:none;stroke-width:0.88582677;stroke-linecap:round;stroke-linejoin:bevel;stroke-miterlimit:4;stroke-dasharray:none;stroke-opacity:1" />
      <path
         sodipodi:nodetypes="csssss"
         transform="translate(68.03585,223.9898)"
         id="path2884"
         d="M -516.6802,385.36213 C -514.76766,386.39196 -513.78687,388.64778 -514.71862,390.26608 C -515.65037,391.88438 -518.34754,391.88438 -520.4072,391.83534 C -522.46686,391.7863 -522.46686,391.49207 -522.95725,390.06992 C -523.44765,388.64778 -523.93804,387.32371 -522.36878,386.14676 C -520.79952,384.96981 -518.59274,384.3323 -516.6802,385.36213 z "
         style="fill:black;fill-opacity:1;fill-rule:evenodd;stroke:none;stroke-width:0.88582677;stroke-linecap:butt;stroke-linejoin:miter;stroke-miterlimit:4;stroke-dasharray:none;stroke-opacity:1" />
      <path
         sodipodi:nodetypes="csssss"
         transform="translate(68.03585,223.9898)"
         id="path2886"
         d="M -507.85309,381.63513 C -506.6271,382.32168 -505.94054,383.8419 -506.28382,384.96981 C -506.6271,386.09772 -508.0002,386.29388 -509.22619,386.14676 C -510.45218,385.99964 -510.69737,385.36213 -511.18777,384.38134 C -511.67817,383.40055 -512.02144,382.91015 -511.18777,382.2236 C -510.3541,381.53705 -509.07908,380.94858 -507.85309,381.63513 z "
         style="fill:black;fill-opacity:1;fill-rule:evenodd;stroke:none;stroke-width:0.88582677;stroke-linecap:butt;stroke-linejoin:miter;stroke-miterlimit:4;stroke-dasharray:none;stroke-opacity:1" />
      <path
         sodipodi:nodetypes="csssssssssssssss"
         transform="translate(68.03585,223.9898)"
         id="path2888"
         d="M -482.74486,397.52393 C -480.44,397.08258 -479.21401,396.19986 -476.66396,396.54314 C -474.11391,396.88642 -474.65335,397.96528 -472.54465,398.89703 C -470.43595,399.82878 -470.19075,399.19127 -468.22917,400.27014 C -466.26759,401.34901 -464.60025,402.0846 -464.69833,403.21251 C -464.79641,404.34042 -466.85607,403.7029 -468.62149,404.78177 C -470.38691,405.86064 -470.23979,406.5472 -471.76001,407.52799 C -473.28023,408.50878 -473.28023,407.9203 -474.70238,408.70493 C -476.12453,409.48956 -476.22261,410.61747 -477.4486,410.66651 C -478.67459,410.71555 -478.13515,409.97996 -479.60633,408.90109 C -481.07752,407.82222 -482.35255,406.35104 -483.33334,406.35104 C -484.31413,406.35104 -486.7661,406.69432 -488.82576,406.35104 C -490.88542,406.00776 -491.08158,406.35104 -491.57197,404.97793 C -492.06237,403.60482 -492.20948,402.52595 -490.78734,400.85861 C -489.36519,399.19127 -487.89401,399.14223 -485.88339,398.30856 C -483.87277,397.47489 -485.04972,397.96528 -482.74486,397.52393 z "
         style="fill:black;fill-opacity:1;fill-rule:evenodd;stroke:none;stroke-width:0.88582677;stroke-linecap:butt;stroke-linejoin:miter;stroke-miterlimit:4;stroke-dasharray:none;stroke-opacity:1" />
      <path
         sodipodi:nodetypes="cssssssssssssssssssss"
         transform="translate(68.03585,223.9898)"
         id="path2890"
         d="M -465.09064,418.31668 C -463.71753,415.96278 -464.06081,414.54063 -463.12906,412.62809 C -462.19731,410.71555 -463.61946,411.1569 -461.36364,410.66651 C -459.10782,410.17612 -457.88183,410.66651 -454.10579,410.66651 C -450.32975,410.66651 -448.80952,410.37227 -446.25947,410.66651 C -443.70942,410.96075 -444.54309,410.86267 -443.90558,411.84346 C -443.26807,412.82425 -443.31711,413.31464 -443.70942,414.58967 C -444.10174,415.8647 -444.44501,416.20798 -445.47484,416.94357 C -446.50467,417.67916 -447.04411,416.60029 -447.82874,417.53204 C -448.61337,418.46379 -448.95665,419.68978 -448.61337,420.67057 C -448.27009,421.65136 -447.48546,420.37633 -446.45563,421.4552 C -445.4258,422.53407 -444.49405,423.46583 -444.49405,424.98605 C -444.49405,426.50627 -445.08252,426.45723 -446.45563,427.5361 C -447.82874,428.61497 -447.58354,428.61497 -449.98648,429.30152 C -452.38941,429.98807 -453.22308,429.98807 -456.06737,430.28231 C -458.91166,430.57655 -460.38285,430.47847 -461.36364,430.47847 C -462.34443,430.47847 -464.45313,430.67462 -466.46375,430.28231 C -468.47437,429.89 -468.47437,430.18423 -469.40612,428.90921 C -470.33787,427.63419 -470.38691,426.89859 -470.19075,425.18221 C -469.99459,423.46583 -469.89652,423.76006 -468.62149,422.04368 C -467.34646,420.3273 -466.46375,420.67058 -465.09064,418.31668 z "
         style="fill:black;fill-opacity:1;fill-rule:evenodd;stroke:none;stroke-width:0.88582677;stroke-linecap:butt;stroke-linejoin:miter;stroke-miterlimit:4;stroke-dasharray:none;stroke-opacity:1" />
      <path
         sodipodi:nodetypes="csssssssssss"
         transform="translate(68.03585,223.9898)"
         id="path2892"
         d="M -449.98648,460.09833 C -447.68162,460.88296 -445.91619,460.73585 -444.10173,462.64839 C -442.28727,464.56093 -443.07191,465.78691 -442.72863,467.74849 C -442.38536,469.71007 -441.6988,469.75912 -442.72863,470.49471 C -443.75846,471.2303 -445.08253,471.23029 -446.84795,470.69086 C -448.61337,470.15143 -448.07394,469.46488 -449.79032,468.33697 C -451.5067,467.20906 -451.80094,466.91482 -453.71348,466.17923 C -455.62602,465.44364 -456.36161,466.37539 -457.44048,465.3946 C -458.51935,464.41381 -457.93087,463.67822 -458.02895,462.25607 C -458.12703,460.83393 -459.00975,460.39257 -457.8328,459.70602 C -456.65585,459.01947 -455.28274,459.41178 -453.32116,459.50986 C -451.35958,459.60794 -452.29134,459.3137 -449.98648,460.09833 z "
         style="fill:black;fill-opacity:1;fill-rule:evenodd;stroke:none;stroke-width:0.88582677;stroke-linecap:butt;stroke-linejoin:miter;stroke-miterlimit:4;stroke-dasharray:none;stroke-opacity:1" />
      <path
         sodipodi:nodetypes="cssssssssssssssssssssssssss"
         transform="translate(68.03585,223.9898)"
         id="path2894"
         d="M -425.17826,230.96119 C -423.77798,229.40282 -422.59709,228.92085 -420.95007,226.73301 C -419.30305,224.54517 -419.08181,222.89815 -418.59016,222.20984 C -418.09851,221.52153 -416.67273,219.13704 -415.73859,217.29335 C -414.80445,215.44967 -415.8615,216.06423 -414.85362,214.8351 C -413.84574,213.60598 -412.19872,212.37685 -411.70707,212.37685 C -411.21542,212.37685 -409.54381,213.11433 -407.97053,213.55681 C -406.39725,213.9993 -406.96265,214.17137 -405.41396,214.14679 C -403.86526,214.12221 -403.42278,213.8518 -401.77575,213.45848 C -400.12873,213.06516 -400.52205,212.18019 -398.82586,212.57351 C -397.12967,212.96683 -395.94971,213.63056 -394.99099,215.03176 C -394.03227,216.43296 -394.57309,216.48212 -394.99099,218.17831 C -395.40889,219.8745 -396.36761,221.32487 -396.6626,221.81652 C -396.95759,222.30817 -397.05592,224.12727 -397.84256,225.55305 C -398.6292,226.97883 -398.53087,226.11845 -399.80916,227.51965 C -401.08745,228.92085 -402.56239,230.96119 -402.95571,231.15785 C -403.34903,231.35451 -405.02064,232.75571 -406.10227,234.30441 C -407.1839,235.8531 -406.27434,235.80393 -407.28222,237.35263 C -408.2901,238.90132 -408.51135,238.85217 -410.13379,240.49919 C -411.75623,242.14621 -412.29704,242.24454 -413.77199,243.94073 C -415.24694,245.63692 -414.53405,246.49731 -416.03358,247.28395 C -417.53311,248.07059 -418.78682,247.28395 -419.77011,247.08729 C -420.75341,246.89063 -423.015,244.62904 -423.30999,244.23572 C -423.60498,243.8424 -425.17826,241.58082 -425.47325,241.1875 C -425.76823,240.79418 -427.24318,238.2376 -427.43984,237.84428 C -427.6365,237.45096 -428.22648,234.40274 -427.83316,233.91109 C -427.43984,233.41944 -425.30209,231.09901 -425.17826,230.96119 z "
         style="fill:black;fill-opacity:1;fill-rule:evenodd;stroke:none;stroke-width:0.88582677;stroke-linecap:butt;stroke-linejoin:miter;stroke-miterlimit:4;stroke-dasharray:none;stroke-opacity:1" />
      <path
         sodipodi:nodetypes="cssssssssssssssssssssssssssss"
         transform="translate(68.03585,223.9898)"
         id="path2896"
         d="M -352.61083,229.78124 C -350.71798,229.4125 -348.67764,228.69961 -348.38265,228.30629 C -348.08766,227.91297 -347.44851,226.97884 -346.21939,226.14303 C -344.99026,225.30723 -345.359,224.98765 -343.46615,224.96307 C -341.5733,224.93849 -340.04919,224.96307 -338.64799,226.0447 C -337.24679,227.12633 -338.13176,227.83923 -337.86135,229.28959 C -337.59094,230.73995 -338.03342,230.49413 -337.56636,231.84616 C -337.09929,233.1982 -335.82101,233.17362 -335.99309,234.69773 C -336.16517,236.22184 -337.66469,237.45096 -338.25467,237.94261 C -338.84465,238.43426 -339.92628,239.51589 -341.10624,241.1875 C -342.2862,242.85911 -342.38453,244.13739 -342.9745,244.62904 C -343.56448,245.12069 -345.82607,247.08729 -346.41605,247.28395 C -347.00603,247.48061 -349.36594,249.64387 -350.15258,250.13551 C -350.93922,250.62716 -351.99627,252.05294 -353.69246,253.28207 C -355.38865,254.51119 -356.34736,255.05201 -356.93734,255.05201 C -357.52732,255.05201 -359.78891,255.44533 -360.77221,255.15034 C -361.7555,254.85535 -362.34548,254.16704 -363.32878,254.16704 C -364.31208,254.16704 -365.88536,253.77372 -366.57367,253.3804 C -367.26198,252.98708 -368.04862,251.31547 -368.54026,250.92215 C -369.03191,250.52883 -369.42523,247.87393 -369.72022,247.38228 C -370.01521,246.89063 -370.11354,245.31735 -370.11354,244.53071 C -370.11354,243.74407 -369.72022,242.1708 -369.22857,241.38416 C -368.73692,240.59752 -368.44193,240.49919 -367.95029,239.02424 C -367.45864,237.54929 -366.57367,235.97602 -366.47534,235.38604 C -366.37701,234.79606 -364.7054,232.92779 -364.21375,232.53447 C -363.7221,232.14115 -362.44381,230.96119 -362.05049,230.46955 C -361.65717,229.9779 -360.32972,229.85499 -358.80561,229.68291 C -357.2815,229.51083 -356.64235,229.78124 -355.95404,229.78124 C -355.26573,229.78124 -354.50368,230.14998 -352.61083,229.78124 z "
         style="fill:black;fill-opacity:1;fill-rule:evenodd;stroke:none;stroke-width:0.88582677;stroke-linecap:butt;stroke-linejoin:miter;stroke-miterlimit:4;stroke-dasharray:none;stroke-opacity:1" />
      <path
         sodipodi:nodetypes="cssssssssssssssss"
         transform="translate(68.03585,223.9898)"
         id="path2898"
         d="M -334.02649,361.14991 C -331.17493,359.65038 -329.01166,358.54417 -325.07847,356.72507 C -321.14527,354.90597 -318.88369,353.8735 -318.29371,353.8735 C -317.70373,353.8735 -315.98296,354.53723 -314.06553,355.93843 C -312.1481,357.33963 -311.48437,358.05252 -310.62398,359.4783 C -309.76359,360.90408 -310.50107,360.14203 -310.62398,361.64156 C -310.74689,363.14109 -310.13233,363.85398 -311.11563,365.47642 C -312.09893,367.09886 -314.16386,367.93467 -314.55718,368.13133 C -314.9505,368.32799 -315.04882,370.46667 -316.91709,371.17956 C -318.78536,371.89245 -320.16198,371.37622 -322.03025,370.9829 C -323.89852,370.58958 -323.80018,369.50795 -324.39016,369.60628 C -324.98014,369.70461 -328.1267,370.58958 -328.91334,370.58958 C -329.69997,370.58958 -331.46991,371.37622 -332.84653,371.47454 C -334.22315,371.57287 -335.59976,370.17167 -337.07471,368.72131 C -338.54966,367.27095 -338.84465,366.0664 -338.74632,365.67308 C -338.64799,365.27976 -337.66469,363.85398 -336.48473,362.72319 C -335.30477,361.5924 -336.87806,362.64944 -334.02649,361.14991 z "
         style="fill:black;fill-opacity:1;fill-rule:evenodd;stroke:none;stroke-width:0.88582677;stroke-linecap:butt;stroke-linejoin:miter;stroke-miterlimit:4;stroke-dasharray:none;stroke-opacity:1" />
      <path
         sodipodi:nodetypes="csssssssss"
         transform="translate(68.03585,223.9898)"
         id="path2900"
         d="M -373.94841,442.66535 C -372.06576,443.49276 -370.75268,443.96822 -368.73692,445.02527 C -366.72116,446.08232 -366.40159,445.78733 -365.88536,446.89354 C -365.36913,447.99975 -364.63166,448.68805 -366.672,449.45011 C -368.71235,450.21217 -372.96511,450.04009 -374.04674,449.94176 C -375.12836,449.84343 -378.37325,449.40095 -380.14319,448.17183 C -381.91313,446.94271 -380.92982,445.61525 -381.12648,445.02527 C -381.32314,444.43529 -381.42147,441.97704 -381.02815,441.97704 C -380.63484,441.97704 -378.86489,442.39494 -377.09496,442.56702 C -375.32503,442.7391 -375.92521,441.79656 -373.94841,442.66535 z "
         style="fill:black;fill-opacity:1;fill-rule:evenodd;stroke:none;stroke-width:0.88582677;stroke-linecap:butt;stroke-linejoin:miter;stroke-miterlimit:4;stroke-dasharray:none;stroke-opacity:1" />
      <path
         sodipodi:nodetypes="csssssssssssssssss"
         transform="translate(68.03585,223.9898)"
         id="path2902"
         d="M -352.90582,438.04385 C -350.74502,437.58895 -348.33348,437.9701 -344.84277,437.84719 C -341.35206,437.72428 -339.63129,437.5522 -338.94298,437.5522 C -338.25467,437.5522 -331.46991,437.94552 -330.68327,438.04385 C -329.89663,438.14218 -329.65081,439.32214 -327.93004,440.5021 C -326.20927,441.68206 -325.71761,441.55914 -323.80018,442.76368 C -321.88275,443.96822 -321.14528,444.04197 -320.26031,445.32026 C -319.37534,446.59855 -319.9899,446.57397 -320.26031,447.87684 C -320.53072,449.17971 -319.96532,449.67136 -321.34194,450.53174 C -322.71856,451.39213 -324.09517,451.51504 -325.76678,451.31838 C -327.43839,451.12172 -334.12482,450.04009 -334.81313,450.04009 C -335.50144,450.04009 -342.9745,449.54844 -343.76114,449.64677 C -344.54778,449.7451 -348.87429,449.45011 -349.26761,449.45011 C -349.66093,449.45011 -351.55378,449.49927 -352.80749,448.66347 C -354.0612,447.82767 -354.11036,447.38519 -354.28244,446.1069 C -354.45452,444.82861 -353.4958,444.04197 -353.4958,443.55032 C -353.4958,443.05867 -353.69246,441.19041 -354.18411,440.60043 C -354.67576,440.01045 -353.08036,438.0806 -352.90582,438.04385 z "
         style="fill:black;fill-opacity:1;fill-rule:evenodd;stroke:none;stroke-width:0.88582677;stroke-linecap:butt;stroke-linejoin:miter;stroke-miterlimit:4;stroke-dasharray:none;stroke-opacity:1" />
      <path
         sodipodi:nodetypes="csssssssscc"
         transform="translate(68.03585,223.9898)"
         id="path2904"
         d="M -342.58118,485.73382 C -341.69622,485.24217 -346.12105,482.34144 -349.16928,480.22735 C -352.21751,478.11326 -353.20081,478.28534 -354.77409,477.27746 C -356.34737,476.26958 -356.02779,477.27746 -355.46239,476.19583 C -354.89699,475.1142 -353.64329,474.37673 -352.5125,472.95095 C -351.38171,471.52517 -353.20081,470.71394 -350.93922,470.4927 C -348.67763,470.27146 -349.75926,470.71395 -343.46615,472.06598 C -337.17304,473.41802 -333.80525,473.59009 -325.76678,475.90084 C -317.72831,478.21159 -311.70561,481.21065 -311.31229,481.30898 C -310.91897,481.40731 -300.10269,485.83216 -300.10269,485.83216 L -342.58118,485.73382 z "
         style="fill:black;fill-opacity:1;fill-rule:evenodd;stroke:none;stroke-width:0.88582677;stroke-linecap:butt;stroke-linejoin:miter;stroke-miterlimit:4;stroke-dasharray:none;stroke-opacity:1" />
      <path
         sodipodi:nodetypes="cssssssssssssssssss"
         transform="translate(68.03585,223.9898)"
         id="path2906"
         d="M -471.28324,330.30365 C -473.4359,339.26474 -473.63615,332.08085 -476.28943,332.20601 C -478.94271,332.33117 -481.49587,331.00452 -481.89637,330.80427 C -482.29687,330.60403 -485.00021,328.8018 -485.50083,328.50142 C -486.00145,328.20105 -487.60343,326.69919 -488.00393,325.69795 C -488.40442,324.69672 -488.50455,321.59287 -488.7048,320.89201 C -488.90504,320.19114 -489.40566,317.83823 -488.90504,315.98594 C -488.40442,314.13365 -488.00393,314.83452 -486.70232,313.48284 C -485.40071,312.13117 -484.85003,312.0811 -483.6986,310.57924 C -482.54717,309.07738 -482.09662,307.8759 -482.09662,307.4754 C -482.09662,307.07491 -482.99773,302.36908 -483.09786,301.86846 C -483.19798,301.36785 -483.79872,299.56561 -483.99897,298.6645 C -484.19922,297.76338 -483.32314,296.53687 -481.79625,295.86103 C -480.26936,295.18519 -479.06787,296.18643 -477.89141,295.96115 C -476.71495,295.73587 -477.19055,295.36041 -477.09042,294.95992 C -476.9903,294.55942 -476.51471,293.75843 -474.68745,294.0588 C -472.86019,294.35917 -471.53355,295.58569 -469.78138,296.1614 C -468.02921,296.73711 -467.30331,287.82609 -467.67877,296.36165 C -468.05423,304.89721 -469.13057,321.34256 -471.28324,330.30365 z "
         style="fill:black;fill-opacity:1;fill-rule:evenodd;stroke:none;stroke-width:0.88582677;stroke-linecap:butt;stroke-linejoin:miter;stroke-miterlimit:4;stroke-dasharray:none;stroke-opacity:1" />
      <path
         sodipodi:nodetypes="csssssssssssssss"
         transform="translate(68.03585,223.9898)"
         id="path2908"
         d="M -448.45498,315.18494 C -448.45498,314.68433 -449.6815,312.75694 -449.3561,310.67937 C -449.0307,308.6018 -448.65523,308.70192 -447.15337,306.87466 C -445.65151,305.0474 -444.95065,304.84715 -443.34867,303.37032 C -441.74669,301.89349 -442.14717,301.46797 -440.74544,300.96735 C -439.34371,300.46673 -438.89315,300.74208 -437.74173,301.36785 C -436.59031,301.99362 -436.71545,302.09375 -436.13974,303.47045 C -435.56403,304.84715 -435.28869,305.69821 -435.43888,306.87466 C -435.58907,308.05111 -436.44012,307.77578 -436.74049,308.17627 C -437.04086,308.57677 -437.89192,309.87838 -438.0421,311.68061 C -438.19228,313.48284 -437.51645,313.70812 -437.34123,315.38519 C -437.16601,317.06227 -436.66539,317.33761 -437.34123,318.38891 C -438.01707,319.44021 -439.24358,319.29002 -440.04458,319.5904 C -440.84557,319.89077 -444.04953,320.49151 -444.65028,320.19114 C -445.25102,319.89077 -446.95313,318.58916 -447.15337,318.18866 C -447.35362,317.78817 -448.45498,315.28507 -448.45498,315.18494 z "
         style="fill:black;fill-opacity:1;fill-rule:evenodd;stroke:none;stroke-width:0.88582677;stroke-linecap:butt;stroke-linejoin:miter;stroke-miterlimit:4;stroke-dasharray:none;stroke-opacity:1" />
      <path
         sodipodi:nodetypes="cssssssss"
         transform="translate(68.03585,223.9898)"
         id="path2910"
         d="M -446.55263,329.80304 C -445.12587,331.00453 -444.7504,333.90812 -445.1509,334.00824 C -445.55139,334.10836 -445.95189,336.21097 -446.95313,336.31109 C -447.95436,336.41121 -449.85672,336.71158 -450.35734,336.71158 C -450.85796,336.71158 -452.48498,336.9619 -453.36106,336.21097 C -454.23715,335.46004 -453.9618,334.70911 -453.86168,333.70787 C -453.76155,332.70663 -453.46118,331.00452 -453.36106,330.60403 C -453.26093,330.20353 -452.56007,329.40254 -450.85796,329.20229 C -449.15585,329.00204 -447.9794,328.60155 -446.55263,329.80304 z "
         style="fill:black;fill-opacity:1;fill-rule:evenodd;stroke:none;stroke-width:0.88582677;stroke-linecap:butt;stroke-linejoin:miter;stroke-miterlimit:4;stroke-dasharray:none;stroke-opacity:1" />
      <path
         sodipodi:nodetypes="csssssssssssss"
         transform="translate(68.03585,223.9898)"
         id="path2912"
         d="M -507.42797,368.25062 C -506.02624,372.38073 -508.30405,370.20303 -509.63069,371.75495 C -510.95733,373.30687 -512.33404,374.4583 -512.73453,374.4583 C -513.13503,374.4583 -514.23639,375.05904 -514.93726,375.05904 C -515.63813,375.05904 -516.339,375.23426 -517.44036,374.4583 C -518.54172,373.68234 -518.74197,372.95644 -519.34271,371.9552 C -519.94345,370.95396 -520.84457,369.25185 -521.34519,368.55099 C -521.84581,367.85012 -523.24754,366.34826 -523.64804,365.64739 C -524.04854,364.94653 -524.24878,363.84516 -524.04854,362.94405 C -523.84829,362.04293 -522.6468,361.04169 -521.94593,360.54107 C -521.24507,360.04046 -519.74321,359.03922 -519.14246,358.5386 C -518.54172,358.03798 -517.54048,357.63748 -517.03986,357.03674 C -516.53924,356.43599 -517.6406,352.43104 -515.23763,355.23451 C -512.83466,358.03798 -508.8297,364.12051 -507.42797,368.25062 z "
         style="fill:black;fill-opacity:1;fill-rule:evenodd;stroke:none;stroke-width:0.88582677;stroke-linecap:butt;stroke-linejoin:miter;stroke-miterlimit:4;stroke-dasharray:none;stroke-opacity:1" />
      <path
         sodipodi:nodetypes="csssssssssssssssssssssssssssssss"
         transform="translate(68.03585,223.9898)"
         id="path2914"
         d="M -444.95065,359.53984 C -443.23748,358.68325 -443.42376,360.91654 -442.04705,361.94281 C -440.67035,362.96908 -440.24482,362.94405 -439.44383,363.64492 C -438.64284,364.34578 -438.01707,365.9728 -437.6416,367.85012 C -437.26613,369.72744 -437.94197,370.75371 -437.94197,371.15421 C -437.94197,371.5547 -437.24111,372.95644 -436.33999,372.55594 C -435.43888,372.15545 -434.23739,372.05532 -434.13727,371.35446 C -434.03714,370.65359 -432.73553,368.45086 -432.73553,368.05037 C -432.73553,367.64987 -432.53528,366.24814 -432.33504,365.64739 C -432.13479,365.04665 -431.93454,364.04541 -431.3338,363.44467 C -430.73305,362.84392 -430.03219,361.64244 -429.13107,361.54231 C -428.22996,361.44219 -425.82698,361.74256 -425.42649,361.74256 C -425.02599,361.74256 -423.8245,362.84392 -423.72438,363.24442 C -423.62426,363.64492 -423.32388,364.74628 -423.22376,365.44715 C -423.12364,366.14801 -423.22376,367.44962 -423.22376,367.95024 C -423.22376,368.45086 -424.225,370.55347 -424.62549,370.75371 C -425.02599,370.95396 -426.62797,372.65607 -427.32884,372.85632 C -428.02971,373.05656 -428.33008,373.25681 -429.33132,373.55718 C -430.33256,373.85755 -431.93454,374.75867 -432.43516,375.35941 C -432.93578,375.96016 -433.08596,376.58593 -433.83689,377.76239 C -434.58782,378.93885 -435.03838,379.66474 -435.43888,380.06524 C -435.83937,380.46573 -436.84061,382.26796 -437.34123,382.46821 C -437.84185,382.66846 -439.84433,382.76858 -440.64532,382.36809 C -441.44631,381.96759 -441.24606,381.76734 -442.14718,381.1666 C -443.04829,380.56586 -443.84928,379.76487 -444.95065,379.76487 C -446.05201,379.76487 -447.05325,379.56462 -448.35486,379.56462 C -449.65647,379.56462 -450.05697,379.16412 -451.4587,379.064 C -452.86044,378.96387 -453.13578,378.93884 -453.9618,378.86375 C -454.78782,378.78866 -454.56254,379.16412 -454.76279,378.76363 C -454.96304,378.36313 -454.53751,375.25929 -453.06068,371.9552 C -451.58385,368.65111 -449.25598,366.74876 -448.85548,365.54727 C -448.45498,364.34578 -445.03971,359.58437 -444.95065,359.53984 z "
         style="fill:black;fill-opacity:1;fill-rule:evenodd;stroke:none;stroke-width:0.88582677;stroke-linecap:butt;stroke-linejoin:miter;stroke-miterlimit:4;stroke-dasharray:none;stroke-opacity:1" />
      <path
         sodipodi:nodetypes="cscssss"
         transform="translate(68.03585,223.9898)"
         id="path2916"
         d="M -493.91124,357.83773 C -493.59084,357.75763 -489.18039,358.03798 -484.0991,358.03798 C -479.01781,358.03798 -476.31447,358.63872 -473.58609,357.83773 C -471.75883,364.74628 -476.38955,385.7723 -476.79005,385.67218 C -477.19055,385.57205 -482.69736,384.17032 -484.29934,383.6697 C -485.90133,383.16908 -488.80492,384.17032 -488.90504,382.06772 C -489.00517,379.96511 -493.99134,357.85775 -493.91124,357.83773 z "
         style="fill:black;fill-opacity:1;fill-rule:evenodd;stroke:none;stroke-width:0.88582677;stroke-linecap:butt;stroke-linejoin:miter;stroke-miterlimit:4;stroke-dasharray:none;stroke-opacity:1" />
      <path
         sodipodi:nodetypes="csssssssss"
         transform="translate(68.03585,223.9898)"
         id="path2918"
         d="M -448.45498,382.66846 C -447.44228,382.72922 -445.90182,382.51828 -444.55015,383.36933 C -443.19848,384.22038 -443.17345,385.02137 -443.04829,386.07267 C -442.92314,387.12397 -443.34867,387.07391 -444.04953,387.57453 C -444.7504,388.07515 -445.85176,388.67589 -448.05449,388.57577 C -450.25721,388.47565 -450.18212,388.70092 -451.25845,388.37552 C -452.33478,388.05012 -452.35982,388.2754 -452.35982,387.27416 C -452.35982,386.27292 -453.46118,386.67342 -452.35982,385.47193 C -451.25845,384.27044 -451.5338,384.27044 -450.55759,383.56957 C -449.58138,382.8687 -449.94537,382.57903 -448.45498,382.66846 z "
         style="fill:black;fill-opacity:1;fill-rule:evenodd;stroke:none;stroke-width:0.88582677;stroke-linecap:butt;stroke-linejoin:miter;stroke-miterlimit:4;stroke-dasharray:none;stroke-opacity:1" />
      <path
         sodipodi:nodetypes="csssssssssssss"
         transform="translate(68.03585,223.9898)"
         id="path2920"
         d="M -412.61063,388.97626 C -410.93356,389.6521 -410.48299,389.90242 -408.90604,390.7785 C -407.32909,391.65459 -407.12884,391.50439 -406.30282,392.4806 C -405.4768,393.45681 -405.15139,393.85731 -405.60195,394.68333 C -406.05251,395.50935 -407.30406,395.78469 -408.10505,395.78469 C -408.90604,395.78469 -410.8084,395.58444 -411.60939,395.48432 C -412.41038,395.3842 -415.41409,395.3842 -415.81459,395.18395 C -416.21509,394.9837 -417.41657,394.48308 -418.51794,394.18271 C -419.6193,393.88234 -420.72066,394.48308 -420.92091,393.28159 C -421.12116,392.08011 -421.12116,391.37924 -421.12116,390.7785 C -421.12116,390.17775 -422.02227,389.37676 -420.72066,388.77602 C -419.41905,388.17527 -418.81831,387.57453 -418.11744,387.67465 C -417.41657,387.77478 -416.99104,387.74975 -415.61434,388.07515 C -414.23764,388.40055 -414.28771,388.30042 -412.61063,388.97626 z "
         style="fill:black;fill-opacity:1;fill-rule:evenodd;stroke:none;stroke-width:0.88582677;stroke-linecap:butt;stroke-linejoin:miter;stroke-miterlimit:4;stroke-dasharray:none;stroke-opacity:1" />
      <path
         sodipodi:nodetypes="cssssssssssssssssss"
         transform="translate(68.03585,223.9898)"
         id="path2922"
         d="M -405.2923,308.0247 C -404.12815,307.01299 -403.21345,305.83499 -401.46722,304.53224 C -399.72099,303.22949 -398.91716,302.75829 -398.30737,302.81372 C -397.69757,302.86916 -397.15708,303.43738 -396.42255,304.08875 C -395.68802,304.74012 -395.86818,304.50452 -395.36926,305.41921 C -394.87034,306.3339 -394.59316,306.62494 -394.42685,307.74752 C -394.26054,308.8701 -394.48229,309.90953 -394.70403,309.90953 C -394.92577,309.90953 -396.31167,310.74106 -396.58885,310.85194 C -396.86603,310.96281 -398.1965,313.01394 -398.58455,313.12481 C -398.9726,313.23568 -399.40223,313.36041 -400.19219,314.06722 C -400.98215,314.77403 -401.52265,315.84117 -401.7444,315.95205 C -401.96614,316.06292 -403.1303,317.28251 -403.57378,317.33794 C -404.01727,317.39338 -404.57163,317.726 -405.12599,317.39338 C -405.68035,317.06076 -405.79122,317.1162 -406.34558,316.3401 C -406.89994,315.56399 -406.62276,316.39553 -407.4543,315.06507 C -408.28584,313.73461 -409.28369,314.23353 -409.00651,312.45958 C -408.72933,310.68563 -408.8402,310.24214 -408.17497,309.68778 C -407.50974,309.13342 -406.84451,308.99483 -406.12384,308.57906 C -405.40317,308.16329 -406.45646,309.03641 -405.2923,308.0247 z "
         style="fill:black;fill-opacity:1;fill-rule:evenodd;stroke:none;stroke-width:0.88582677;stroke-linecap:butt;stroke-linejoin:miter;stroke-miterlimit:4;stroke-dasharray:none;stroke-opacity:1" />
      <path
         sodipodi:nodetypes="cssssssssssssssssss"
         transform="translate(68.03585,223.9898)"
         id="path2924"
         d="M -444.68986,441.08727 C -443.89217,441.39408 -438.2633,442.90347 -437.63462,442.97332 C -437.00593,443.04318 -434.42134,444.64981 -433.79265,444.71967 C -433.16397,444.78952 -428.2742,447.23441 -427.71536,447.51382 C -427.15653,447.79324 -425.89916,449.33003 -425.54989,449.53959 C -425.20062,449.74915 -424.76404,451.70505 -424.85136,452.89257 C -424.93868,454.08009 -424.85136,454.14994 -425.89916,454.28965 C -426.94697,454.42936 -428.2742,455.35492 -429.60142,455.75658 C -430.92865,456.15824 -429.53157,455.61688 -431.20806,455.89629 C -432.88455,456.17571 -434.14192,456.38527 -435.18973,456.036 C -436.23754,455.68673 -437.21549,455.40731 -438.47286,455.19775 C -439.73023,454.98819 -444.41044,453.3117 -445.94723,452.26389 C -447.48402,451.21608 -450.55759,449.88886 -450.97671,449.39988 C -451.39583,448.9109 -453.35174,447.37412 -453.28189,447.0947 C -453.21203,446.81529 -452.6532,446.81529 -451.81496,445.83733 C -450.97671,444.85938 -450.20832,444.23069 -449.64949,443.67186 C -449.09065,443.11303 -447.2046,441.92551 -447.2046,441.6461 C -447.2046,441.36668 -446.36635,440.31887 -445.73767,440.38873 C -445.10898,440.45858 -444.80027,441.04481 -444.68986,441.08727 z "
         style="fill:black;fill-opacity:1;fill-rule:evenodd;stroke:none;stroke-width:0.88582677;stroke-linecap:butt;stroke-linejoin:miter;stroke-miterlimit:4;stroke-dasharray:none;stroke-opacity:1" />
      <path
         sodipodi:nodetypes="csssssssssssssss"
         transform="translate(68.03585,223.9898)"
         id="path2926"
         d="M -406.96876,430.53933 C -405.86856,431.20294 -404.0349,432.42538 -404.0349,432.77465 C -404.0349,433.12392 -402.88231,433.73515 -402.49811,434.80042 C -402.11391,435.86569 -402.42825,436.07525 -402.49811,437.03574 C -402.56797,437.99623 -402.42826,438.71223 -402.77753,438.64238 C -403.1268,438.57253 -404.0349,438.85194 -404.66358,438.36296 C -405.29227,437.87399 -405.99081,437.52472 -406.40993,437.03574 C -406.82905,436.54676 -406.27022,436.3372 -407.6673,435.77837 C -409.06438,435.21954 -409.20408,435.35925 -410.32175,434.73056 C -411.43941,434.10188 -411.2997,434.24159 -411.92839,433.82246 C -412.55707,433.40334 -413.25561,433.54305 -413.67473,432.49524 C -414.09386,431.44743 -414.37327,431.37758 -413.74459,430.67904 C -413.1159,429.9805 -414.65269,429.77094 -412.69678,429.56137 C -410.74087,429.35181 -411.36955,429.35181 -410.53131,429.35181 C -409.69306,429.35181 -409.32633,429.82333 -408.43569,430.12021 C -407.54505,430.41709 -408.06896,429.87572 -406.96876,430.53933 z "
         style="fill:black;fill-opacity:1;fill-rule:evenodd;stroke:none;stroke-width:0.88582677;stroke-linecap:butt;stroke-linejoin:miter;stroke-miterlimit:4;stroke-dasharray:none;stroke-opacity:1" />
      <path
         sodipodi:nodetypes="csssssssssssssssss"
         transform="translate(68.03585,223.9898)"
         id="path2928"
         d="M -401.86943,465.117 C -401.29645,463.81187 -400.89147,463.23095 -400.82162,462.81183 C -400.75176,462.3927 -400.12308,461.34489 -399.49439,461.20519 C -398.86571,461.06548 -397.32892,461.20519 -396.56053,461.34489 C -395.79214,461.4846 -394.32521,461.97358 -393.90608,461.97358 C -393.48696,461.97358 -392.64871,462.32285 -392.02003,462.60226 C -391.39134,462.88168 -390.79759,463.66753 -390.41339,464.48832 C -390.02919,465.3091 -390.57056,465.27418 -390.48324,465.8854 C -390.39592,466.49662 -389.7847,466.7935 -390.06412,466.93321 C -390.34353,467.07291 -391.81047,467.28247 -392.08988,467.21262 C -392.3693,467.14277 -392.87574,466.70618 -393.62667,467.07291 C -394.3776,467.43964 -394.39506,468.05086 -395.0936,468.67955 C -395.79214,469.30824 -395.54765,469.15106 -396.42082,469.58765 C -397.29399,470.02424 -397.11936,470.28619 -398.58629,470.4259 C -400.05322,470.56561 -400.05322,470.49575 -400.96133,470.21634 C -401.86943,469.93692 -402.2187,469.65751 -402.70767,469.16853 C -403.19665,468.67955 -403.33636,468.46999 -403.33636,467.98101 C -403.33636,467.49204 -401.92513,465.24388 -401.86943,465.117 z "
         style="fill:black;fill-opacity:1;fill-rule:evenodd;stroke:none;stroke-width:0.88582677;stroke-linecap:butt;stroke-linejoin:miter;stroke-miterlimit:4;stroke-dasharray:none;stroke-opacity:1" />
      <path
         sodipodi:nodetypes="cssssssssssssssssssssssssssssssss"
         transform="translate(68.03585,223.9898)"
         id="path2930"
         d="M -503.66473,298.95234 C -502.86998,298.94512 -496.96585,298.95234 -496.17107,298.95234 C -495.37629,298.95234 -491.51592,299.52004 -491.06175,298.95234 C -490.60759,298.38464 -489.81281,297.93048 -489.69927,297.02216 C -489.58573,296.11383 -489.13157,294.41073 -489.47219,293.95657 C -489.81281,293.50241 -491.85654,291.57222 -492.08362,290.43682 C -492.3107,289.30142 -493.33256,290.55036 -492.3107,288.16601 C -491.28884,285.78167 -490.38051,284.75981 -489.24511,282.94316 C -488.10971,281.12652 -488.45033,282.489 -487.08784,279.65049 C -485.72536,276.81199 -485.2712,276.81199 -484.81704,275.4495 C -484.36288,274.08702 -483.90872,273.63286 -483.90872,272.83808 C -483.90872,272.04329 -484.47642,271.70267 -483.90872,271.02143 C -483.34101,270.34019 -482.91524,270.08472 -481.52437,270.34019 C -480.1335,270.59566 -478.91294,272.04329 -478.34524,272.04329 C -477.77754,272.04329 -476.55698,272.44068 -475.27965,271.81621 C -474.00232,271.19174 -474.37133,272.61099 -473.23593,269.54541 C -472.10053,266.47982 -472.41276,267.41653 -472.10053,265.91212 C -471.7883,264.40771 -473.69009,264.77671 -471.98699,263.52777 C -470.28388,262.27883 -471.41928,263.18715 -470.17034,262.16529 C -468.9214,261.14343 -468.01308,260.12156 -467.89954,259.44032 C -467.786,258.75908 -467.44537,257.51014 -467.44537,256.37473 C -467.44537,255.23933 -467.55891,254.55809 -467.44537,253.19561 C -467.33183,251.83312 -467.33183,250.58418 -467.33183,249.56232 C -467.33183,248.54045 -467.33183,247.97275 -467.44537,247.06443 C -467.55891,246.15611 -467.55891,245.92903 -468.01308,245.0207 C -468.46724,244.11238 -468.9214,241.84158 -470.0568,241.72804 C -471.1922,241.6145 -472.32761,241.04679 -476.18798,242.1822 C -480.04835,243.3176 -484.58996,247.74567 -485.49828,249.33524 C -486.4066,250.9248 -495.03566,268.63708 -496.05753,271.36205 C -497.07939,274.08702 -501.39392,280.10465 -501.84808,282.94316 C -502.30224,285.78167 -505.25429,291.68576 -505.36783,293.27533 C -505.48137,294.86489 -505.90715,297.64663 -505.48137,299.06588 C -505.0556,300.48513 -505.99235,298.9735 -503.66473,298.95234 z "
         style="fill:black;fill-opacity:1;fill-rule:evenodd;stroke:none;stroke-width:0.88582677;stroke-linecap:butt;stroke-linejoin:miter;stroke-miterlimit:4;stroke-dasharray:none;stroke-opacity:1" />
      <path
         sodipodi:nodetypes="cccccccc"
         id="path2932"
         transform="translate(68.03585,223.9898)"
         d="M -349.15625,136.375 C -349.15625,136.375 -461.37549,379.9712 -461.81479,387.17572 C -462.4101,395.99945 -329.28125,170.9375 -329.28125,170.9375 L -349.15625,136.375 z M -348.71875,157.96875 L -345.25,160.5625 L -367.3125,197.71875 C -367.3125,195.55817 -348.71875,157.96875 -348.71875,157.96875 z "
         style="fill:black;fill-opacity:1;fill-rule:evenodd;stroke:none;stroke-width:0.88582677;stroke-linecap:butt;stroke-linejoin:miter;stroke-miterlimit:4;stroke-dasharray:none;stroke-opacity:1" />
      <path
         sodipodi:nodetypes="cccc"
         transform="translate(68.03585,223.9898)"
         id="path2934"
         d="M -451.6396,404.4719 C -456.30024,405.86412 -285.62881,242.66713 -285.62881,242.66713 L -268.47066,268.89828 C -268.47066,268.89828 -446.01656,402.80256 -451.6396,404.4719 z "
         style="fill:black;fill-opacity:1;fill-rule:evenodd;stroke:none;stroke-width:0.88582677;stroke-linecap:butt;stroke-linejoin:miter;stroke-miterlimit:4;stroke-dasharray:none;stroke-opacity:1" />
      <path
         sodipodi:nodetypes="cccccssssssc"
         id="path2936"
         transform="translate(68.03585,223.9898)"
         d="M -251.9375,293.65625 C -251.9375,293.65625 -400.71728,378.71574 -408.30619,385.01462 C -398.70291,381.88275 -244.53124,311.99999 -244.53125,312 L -251.9375,293.65625 z M -262.625,307.1875 C -262.4482,307.16963 -262.22987,307.24394 -261.8125,307.40625 C -260.14301,308.05548 -258.31283,310.20519 -258.34375,311.84375 C -258.37468,313.4823 -259.03137,312.4226 -261.9375,313.9375 C -264.84363,315.4524 -267.67596,318.41308 -269.96875,317.90625 C -270.61299,317.76384 -273.42415,316.00788 -272.1875,313.84375 C -270.95084,311.67961 -267.59696,310.85764 -265,309.25 C -263.05229,308.04428 -263.15541,307.24112 -262.625,307.1875 z "
         style="fill:black;fill-opacity:1;fill-rule:evenodd;stroke:none;stroke-width:0.88582677;stroke-linecap:butt;stroke-linejoin:miter;stroke-miterlimit:4;stroke-dasharray:none;stroke-opacity:1" />
      <path
         sodipodi:nodetypes="cccc"
         transform="translate(68.03585,223.9898)"
         id="path2938"
         d="M -421.31329,401.68589 C -417.74288,399.16074 -219.51503,354.15311 -219.51503,354.15311 L -207.84789,374.46257 C -207.84789,374.46257 -414.83266,401.68589 -421.31329,401.68589 z "
         style="fill:black;fill-opacity:1;fill-rule:evenodd;stroke:none;stroke-width:0.88582677;stroke-linecap:butt;stroke-linejoin:miter;stroke-miterlimit:4;stroke-dasharray:none;stroke-opacity:1" />
      <path
         transform="translate(68.03585,223.9898)"
         id="path2940"
         d="M -367.73088,411.62456 L -190.13113,402.55012 L -187.97055,416.37784 L -367.73088,411.62456 z "
         style="fill:black;fill-opacity:1;fill-rule:evenodd;stroke:none;stroke-width:0.88582677;stroke-linecap:butt;stroke-linejoin:miter;stroke-miterlimit:4;stroke-dasharray:none;stroke-opacity:1" />
      <path
         sodipodi:nodetypes="ccccccccsc"
         id="path2942"
         transform="translate(68.03585,223.9898)"
         d="M -434.5,418.09375 C -428.5329,423.94326 -162.46875,454.62499 -162.46875,454.625 L -167.65625,430.625 C -167.65625,430.625 -428.72178,417.57149 -434.5,418.09375 z M -221.15625,438.0625 L -182.5,439.4375 L -181.75,441.25 L -181.4375,443.375 C -181.43749,443.37501 -181.14162,445.05835 -181.75,444.90625 C -182.35837,444.75417 -221.15625,438.2146 -221.15625,438.0625 z "
         style="fill:black;fill-opacity:1;fill-rule:evenodd;stroke:none;stroke-width:0.88582677;stroke-linecap:butt;stroke-linejoin:miter;stroke-miterlimit:4;stroke-dasharray:none;stroke-opacity:1" />
      <path
         sodipodi:nodetypes="cccc"
         transform="translate(68.03585,223.9898)"
         id="path2944"
         d="M -448.1045,439.28 C -439.19648,438.86378 -185.73037,490.72599 -185.73037,490.72599 L -249.33815,489.20506 C -249.33815,489.20506 -446.68023,444.74968 -448.1045,439.28 z "
         style="fill:black;fill-opacity:1;fill-rule:evenodd;stroke:none;stroke-width:0.88582677;stroke-linecap:butt;stroke-linejoin:miter;stroke-miterlimit:4;stroke-dasharray:none;stroke-opacity:1" />
      <path
         sodipodi:nodetypes="cccc"
         transform="translate(68.03585,223.9898)"
         id="path2946"
         d="M -458.9074,446.62597 C -453.41205,445.05906 -342.23603,488.97336 -342.23603,488.97336 L -383.28707,490.70182 C -383.28707,490.70182 -457.64517,449.57118 -458.9074,446.62597 z "
         style="fill:black;fill-opacity:1;fill-rule:evenodd;stroke:none;stroke-width:0.88582677;stroke-linecap:butt;stroke-linejoin:miter;stroke-miterlimit:4;stroke-dasharray:none;stroke-opacity:1" />
      <path
         sodipodi:nodetypes="cccc"
         transform="translate(68.03585,223.9898)"
         id="path2948"
         d="M -493.4767,382.24066 C -493.4767,380.76805 -520.70002,323.47286 -520.70002,323.47286 L -530.63869,333.41153 C -530.63869,333.41153 -504.83681,384.82775 -493.4767,382.24066 z "
         style="fill:black;fill-opacity:1;fill-rule:evenodd;stroke:none;stroke-width:0.88582677;stroke-linecap:butt;stroke-linejoin:miter;stroke-miterlimit:4;stroke-dasharray:none;stroke-opacity:1" />
      <path
         sodipodi:nodetypes="cccc"
         transform="translate(68.03585,223.9898)"
         id="path2950"
         d="M -489.23621,383.73428 C -491.16913,381.62564 -509.89711,299.70647 -509.89711,299.70647 L -505.14383,280.69335 C -505.14383,280.69335 -486.41383,386.81323 -489.23621,383.73428 z "
         style="fill:black;fill-opacity:1;fill-rule:evenodd;stroke:none;stroke-width:0.88582677;stroke-linecap:butt;stroke-linejoin:miter;stroke-miterlimit:4;stroke-dasharray:none;stroke-opacity:1" />
      <path
         sodipodi:nodetypes="cccc"
         transform="translate(68.03585,223.9898)"
         id="path2952"
         d="M -477.05628,385.69759 C -473.91513,379.71505 -431.25196,178.71393 -431.25196,178.71393 L -456.74682,192.10953 C -456.74682,192.10953 -478.90134,382.18319 -477.05628,385.69759 z "
         style="fill:black;fill-opacity:1;fill-rule:evenodd;stroke:none;stroke-width:0.88582677;stroke-linecap:butt;stroke-linejoin:miter;stroke-miterlimit:4;stroke-dasharray:none;stroke-opacity:1" />
      <path
         transform="translate(68.03585,223.9898)"
         id="path2954"
         d="M -406.18922,333.41153 L -306.8025,208.09783 L -299.02441,221.92555 L -406.18922,333.41153 z "
         style="fill:black;fill-opacity:1;fill-rule:evenodd;stroke:none;stroke-width:0.88582677;stroke-linecap:butt;stroke-linejoin:miter;stroke-miterlimit:4;stroke-dasharray:none;stroke-opacity:1" />
    </g>
    <path
       d="M 312.09375 12.03125 C 306.39375 12.03125 301.0875 15.13125 298.1875 20.03125 L 14.40625 511.625 C 11.50625 516.62499 11.50625 522.725 14.40625 527.625 C 17.30625 532.62499 22.58125 535.625 28.28125 535.625 L 595.90625 535.625 C 601.60623 535.62499 606.88125 532.525 609.78125 527.625 C 612.68127 522.62499 612.68125 516.525 609.78125 511.625 L 326 20.03125 C 323.1 15.031251 317.79375 12.03125 312.09375 12.03125 z M 312.09375 60.21875 L 568.09375 503.53125 L 56.09375 503.53125 L 312.09375 60.21875 z "
       transform="translate(68.03585,223.9898)"
       id="path3902" />
  </g>
</svg>
