<?xml version="1.0" encoding="UTF-8" standalone="no"?>
<!-- Created with Inkscape (http://www.inkscape.org/) -->

<svg
   xmlns:dc="http://purl.org/dc/elements/1.1/"
   xmlns:cc="http://creativecommons.org/ns#"
   xmlns:rdf="http://www.w3.org/1999/02/22-rdf-syntax-ns#"
   xmlns:svg="http://www.w3.org/2000/svg"
   xmlns="http://www.w3.org/2000/svg"
   xmlns:sodipodi="http://sodipodi.sourceforge.net/DTD/sodipodi-0.dtd"
   xmlns:inkscape="http://www.inkscape.org/namespaces/inkscape"
   width="595.93433"
   height="532.6712"
   id="svg9328"
   version="1.1"
   inkscape:version="0.48.4 r9939"
   sodipodi:docname="Neues Dokument 36">
  <defs
     id="defs3" />
  <sodipodi:namedview
     inkscape:document-units="mm"
     id="base"
     pagecolor="#ffffff"
     bordercolor="#666666"
     borderopacity="1.0"
     inkscape:pageopacity="0.0"
     inkscape:pageshadow="2"
     inkscape:zoom="1.01"
     inkscape:cx="227.76291"
     inkscape:cy="291.43232"
     inkscape:current-layer="layer1"
     showgrid="false"
     units="mm"
     fit-margin-top="0"
     fit-margin-left="0"
     fit-margin-right="0"
     fit-margin-bottom="0"
     inkscape:window-width="1600"
     inkscape:window-height="838"
     inkscape:window-x="-8"
     inkscape:window-y="-8"
     inkscape:window-maximized="1" />
  <metadata
     id="metadata4">
    <rdf:RDF>
      <cc:Work
         rdf:about="">
        <dc:format>image/svg+xml</dc:format>
        <dc:type
           rdf:resource="http://purl.org/dc/dcmitype/StillImage" />
        <dc:title></dc:title>
      </cc:Work>
    </rdf:RDF>
  </metadata>
  <g
     inkscape:label="Layer 1"
     inkscape:groupmode="layer"
     id="layer1"
     transform="translate(-104.91036,-242.60842)">
    <path
       style="fill:#000000"
       d="m 135.11906,773.56702 c -11.58936,-3.71257 -22.61283,-13.24211 -27.5819,-23.8439 -2.30614,-4.9203 -2.67205,-6.97372 -2.62268,-14.71807 0.0484,-7.58999 0.52817,-10.17501 3.06246,-16.5 2.60919,-6.51193 21.50387,-39.93703 89.88018,-159 8.37023,-14.575 32.99967,-57.55 54.73209,-95.5 21.73241,-37.95 53.57077,-93.525 70.75191,-123.5 17.18114,-29.975 34.67589,-60.5131 38.87721,-67.86245 10.54587,-18.4478 16.64901,-24.31013 29.47787,-28.31481 14.45554,-4.51246 32.15304,0.11251 41.64069,10.88215 6.59722,7.48864 262.42512,455.59268 265.27228,464.64665 1.6415,5.21997 2.24456,9.57645 2.23539,16.14846 -0.0112,8.0196 -0.35901,9.73429 -3.19313,15.74075 -4.0571,8.59838 -10.90446,15.45739 -19.80597,19.83965 l -6.94609,3.4196 -265.02113,0.20006 c -254.79955,0.19234 -265.24244,0.12916 -270.75918,-1.63809 z"
       id="path9359"
       inkscape:connector-curvature="0" />
    <path
       style="fill:#f3ad1e;fill-opacity:1"
       d="m 675.50836,767.8538 c 13.11449,-6.21342 21.04499,-18.09721 21.11638,-31.64271 0.0417,-7.90702 -2.05436,-16.37826 -5.95906,-24.08381 C 689.2824,709.39752 630.77123,606.7783 560.64085,484.08456 483.70422,349.48325 431.68856,259.49846 429.49409,257.2065 c -4.75053,-4.96156 -11.94923,-8.36769 -20.67639,-9.78322 -11.89771,-1.92978 -23.39264,2.10386 -32.06545,11.25195 -2.54883,2.68851 -14.82962,23.09387 -32.39702,53.82982 -28.30725,49.52641 -60.65383,106.01333 -100.49802,175.5 -38.34628,66.87435 -100.58001,175.51232 -115.63183,201.85205 -16.14325,28.24968 -19.16239,35.4474 -19.16239,45.68377 0,15.43897 12.9504,30.47087 29.79412,34.58291 3.88029,0.94729 63.78457,1.18264 267.5,1.05095 l 262.5,-0.16968 6.65125,-3.15125 z"
       id="path9357"
       inkscape:connector-curvature="0" />
    <path
       style="fill:#000000"
       d="m 141.99437,749.0442 c -10.85457,-3.88068 -15.65077,-15.67636 -10.50223,-25.82899 1.99419,-3.93243 104.08573,-182.97883 210.7965,-369.6913 52.09716,-91.15472 49.439,-87.30457 60.27557,-87.30457 5.97691,0 10.04227,1.74032 13.89078,5.94643 1.42883,1.56161 12.50784,20.16428 24.62002,41.33928 12.11219,21.175 40.46437,70.675 63.00487,110 22.54049,39.325 57.09996,99.625 76.79882,134 19.69886,34.375 49.49275,86.35 66.20864,115.5 l 30.39252,53 -0.33617,6.61035 c -0.39383,7.74408 -3.24185,12.40026 -9.48013,15.49892 -3.70026,1.83799 -11.03166,1.89659 -262.80645,2.1008 -218.1606,0.17694 -259.60908,-0.008 -262.86274,-1.17092 z"
       id="path9355"
       inkscape:connector-curvature="0" />
    <path
       style="fill:#f3ad1e;fill-opacity:1"
       d="m 625.34054,709.75505 c -1.21776,-2.0625 -22.70184,-39.525 -47.74239,-83.25 -25.04054,-43.725 -60.62101,-105.825 -79.06769,-138 -18.44668,-32.175 -47.19565,-82.34109 -63.88658,-111.4802 -16.69094,-29.13911 -30.7158,-53.34883 -31.16636,-53.79939 -0.45056,-0.45056 -35.05841,59.16553 -76.90634,132.4802 -41.84793,73.31466 -91.8657,160.93854 -111.15061,194.71972 -19.2849,33.78117 -35.06346,61.79367 -35.06346,62.25 0,0.45632 100.61945,0.82967 223.59878,0.82967 l 223.59877,0 -2.21412,-3.75 z"
       id="path9353"
       inkscape:connector-curvature="0" />
    <path
       style="fill:#000000"
       d="m 249.35711,683.50821 0,-4.00316 25.75,-9.5e-4 25.75,-9.5e-4 -0.0181,-16.36719 c -0.0116,-10.44018 -0.41898,-16.8676 -1.12508,-17.74905 -0.79506,-0.99251 -0.87658,-9.69368 -0.28933,-30.88186 0.44969,-16.225 0.84347,-31.8625 0.87507,-34.75 l 0.0574,-5.25 3.65447,0 3.65448,0 -0.56959,33 -0.5696,33 21.52904,0 21.52904,0 -0.71825,-15.78919 c -0.91435,-20.1001 -1.05441,-47.52025 -0.24939,-48.82281 0.34011,-0.55031 2.1141,-0.82596 3.94218,-0.61254 l 3.32379,0.38803 -0.38393,11.16826 c -0.21115,6.14254 0.15536,21.6771 0.81448,34.52124 1.18497,23.09135 1.17512,23.37777 -0.87916,25.56445 -2.55681,2.7216 -2.66809,6.63171 -0.27294,9.5896 1.4825,1.83081 3.40137,2.40275 10.75,3.20413 4.91996,0.53653 9.96135,1.16795 11.20309,1.40316 3.77029,0.71415 8.10972,5.55709 10.64996,11.88567 l 2.40834,6 27.342,0.26272 27.34199,0.26272 -12.21222,-12.21984 -12.21223,-12.21984 -8.31611,5.70712 c -4.57386,3.13892 -8.85741,5.70712 -9.519,5.70712 -0.89401,0 -1.27191,-5.83498 -1.47167,-22.72365 l -0.26877,-22.72365 -10,-1.71419 c -5.5,-0.94281 -10.1125,-1.74217 -10.25,-1.77635 -1.73722,-0.43192 2.29941,-5.16725 15.31626,-17.96737 9.26263,-9.10841 15.35881,-15.84766 15.05399,-16.64201 -0.28174,-0.73421 -2.83054,-4.52228 -5.664,-8.41794 -3.07075,-4.2219 -4.91724,-7.69412 -4.57119,-8.5959 0.49254,-1.28354 3.57727,-1.50148 20.34775,-1.43755 10.87195,0.0414 20.94295,0.0581 22.37999,0.037 2.48209,-0.0365 2.67365,-0.42609 3.82897,-7.78837 1.6809,-10.71157 2.10856,-12.25 3.40527,-12.25 0.62162,0 8.17963,7.03909 16.79558,15.64241 l 15.66537,15.64241 8.32383,-6.0236 c 4.57811,-3.31298 8.89632,-5.80392 9.59601,-5.53542 0.97696,0.37489 1.27217,5.66534 1.27217,22.79832 l 0,22.31015 4.75,1.0012 c 2.6125,0.55066 7,1.32541 9.75,1.72166 2.75,0.39625 5.32577,1.2205 5.72393,1.83167 0.43253,0.6639 -5.67623,7.55172 -15.17582,17.1112 l -15.89977,16 5.95527,8.29786 c 3.27539,4.56383 5.69046,8.72633 5.36681,9.25 -0.34417,0.55685 -9.86187,0.95212 -22.92678,0.95212 l -22.33833,0 -1.10266,6.33191 c -0.60646,3.48256 -1.10265,6.63256 -1.10265,7 0,0.36745 1.6875,0.65821 3.75,0.64613 4.41416,-0.0259 10.49076,-2.60568 14.89436,-6.32342 l 3.14435,-2.65462 38.90625,0 38.90624,0 2.14884,5.97223 c 1.3072,3.63307 1.76658,6.20848 1.17288,6.57541 -0.53678,0.33174 -0.85153,1.35674 -0.69944,2.27777 0.25746,1.55917 -10.35534,1.69204 -153.97348,1.92775 l -154.25,0.25317 0,-4.00317 z"
       id="path9351"
       inkscape:connector-curvature="0" />
    <path
       style="fill:#f3ad1e;fill-opacity:1"
       d="m 463.92532,639.7273 c 4.89706,-2.50066 10.77437,-8.78578 13.04484,-13.94997 2.39892,-5.45636 2.25473,-15.65603 -0.30198,-21.36167 -4.37715,-9.76818 -12.5231,-15.08995 -24.07599,-15.72891 -6.31865,-0.34947 -7.97337,-0.0552 -12.70409,2.25934 -8.56245,4.18921 -14.24762,12.37974 -15.22652,21.93656 -1.261,12.31107 6.14407,23.67074 18.41312,28.24643 5.21091,1.94338 15.67781,1.2397 20.85062,-1.40178 z"
       id="path9349"
       inkscape:connector-curvature="0" />
    <path
       style="fill:#000000"
       d="m 447.30123,620.66088 c -4.78997,-3.87867 -1.61234,-12.15583 4.66666,-12.15583 5.99961,0 8.56329,8.14471 3.75436,11.92742 -3.25209,2.55809 -5.46971,2.61824 -8.42102,0.22841 z"
       id="path9345"
       inkscape:connector-curvature="0" />
  </g>
</svg>
