<?xml version="1.0" encoding="UTF-8" standalone="no"?>
<!-- Generator: Adobe Illustrator 11.0, SVG Export Plug-In . SVG Version: 6.0.0 Build 78)  -->
<!-- Created by Cary Bass http://commons.wikipedia.com/wiki/User:Bastique on January 20, 2006 -->
<svg
   xmlns:dc="http://purl.org/dc/elements/1.1/"
   xmlns:cc="http://web.resource.org/cc/"
   xmlns:rdf="http://www.w3.org/1999/02/22-rdf-syntax-ns#"
   xmlns:svg="http://www.w3.org/2000/svg"
   xmlns="http://www.w3.org/2000/svg"
   xmlns:sodipodi="http://sodipodi.sourceforge.net/DTD/sodipodi-0.dtd"
   xmlns:inkscape="http://www.inkscape.org/namespaces/inkscape"
   version="1.0"
   width="615.89575"
   height="540.0105"
   id="radioactive"
   sodipodi:version="0.32"
   inkscape:version="0.44"
   sodipodi:docname="DIN_4844-2_Warnung_vor_Gasflaschen_D-W019.svg"
   sodipodi:docbase="/export/henning/reference/Sicherheitskennzeichnung">
  <defs
     id="defs58" />
  <sodipodi:namedview
     inkscape:window-height="966"
     inkscape:window-width="1272"
     inkscape:pageshadow="2"
     inkscape:pageopacity="0.0"
     guidetolerance="10.0"
     gridtolerance="10.0"
     objecttolerance="10.0"
     borderopacity="1.0"
     bordercolor="#666666"
     pagecolor="#ffffff"
     id="base"
     inkscape:zoom="1.1087958"
     inkscape:cx="299.90001"
     inkscape:cy="259.07427"
     inkscape:window-x="0"
     inkscape:window-y="0"
     inkscape:current-layer="radioactive"
     inkscape:document-units="mm"
     width="169.33334mm"
     height="148.16667mm"
     units="mm" />
  <metadata
     id="metadata60">
    <rdf:RDF>
      <cc:Work
         rdf:about="">
        <dc:format>image/svg+xml</dc:format>
        <dc:type
           rdf:resource="http://purl.org/dc/dcmitype/StillImage" />
      </cc:Work>
    </rdf:RDF>
  </metadata>
  <path
     style="fill:none;fill-rule:evenodd;stroke:black;stroke-width:1px;stroke-linecap:butt;stroke-linejoin:miter;stroke-opacity:1"
     d="M 24.689244,-160.5126 C 24.757113,-160.5635 24.689244,-160.34292 24.689244,-160.5126 z "
     id="path1965" />
  <g
     id="g1895"
     transform="translate(8.146196,8.022892)">
    <path
       id="path1881"
       d="M 299.09375,-8 C 285.2752,-7.992418 276.97358,5.3760798 271.875,16.53125 C 179.06241,177.95887 85.093615,338.77609 -7,500.5625 C -12.655568,516.74325 3.5954928,534.90536 20.3125,531.59287 C 209.912,531.32032 399.54938,532.21713 589.125,531.09375 C 605.71557,527.93 613.80037,504.94424 602.49938,492.16558 C 507.36358,328.05043 413.40661,163.19507 317.5,-0.4375 C 312.77524,-5.3226321 305.97101,-8.3168021 299.09375,-8 z "
       style="fill:yellow" />
    <g
       id="g4">
      <path
         id="sign_border"
         d="M 597.6,499.6 L 313.8,8 C 310.9,3 305.6,0 299.9,0 C 294.2,0 288.9,3.1 286,8 L 2.2,499.6 C -0.7,504.6 -0.7,510.7 2.2,515.6 C 5.1,520.6 10.4,523.6 16.1,523.6 L 583.7,523.6 C 589.4,523.6 594.7,520.5 597.6,515.6 C 600.5,510.6 600.5,504.5 597.6,499.6 z " />
      <polygon
         points="43.9,491.5 299.9,48.2 555.9,491.5 43.9,491.5 "
         id="sign_bg"
         style="fill:#f7f619" />
    </g>
    <g
       transform="matrix(1.068655,0,0,1.068655,787.7577,98.69067)"
       id="g2858">
      <rect
         style="fill:none;fill-opacity:1;stroke:red;stroke-width:1;stroke-miterlimit:4;stroke-dasharray:none;stroke-dashoffset:0;stroke-opacity:1"
         id="rect1933"
         width="6.8659616"
         height="108.29494"
         x="-484.67447"
         y="175.14806"
         ry="0" />
      <rect
         ry="0"
         y="175.14806"
         x="-484.67447"
         height="108.29494"
         width="6.8659616"
         id="rect1935"
         style="fill:none;fill-opacity:1;stroke:red;stroke-width:1;stroke-miterlimit:4;stroke-dasharray:none;stroke-dashoffset:0;stroke-opacity:1" />
      <rect
         style="fill:#00000f;fill-opacity:0.94117647;stroke:black;stroke-width:1.01338577;stroke-miterlimit:4;stroke-dasharray:none;stroke-dashoffset:0;stroke-opacity:1"
         id="rect1937"
         width="6.9879336"
         height="108.98793"
         x="-484.66843"
         y="174.44904"
         ry="0" />
      <rect
         ry="0"
         y="189.41536"
         x="-495.60388"
         height="94.055298"
         width="7.0552983"
         id="rect1939"
         style="fill:black;fill-opacity:1;stroke:black;stroke-width:0.94470143;stroke-miterlimit:4;stroke-dasharray:none;stroke-dashoffset:0;stroke-opacity:1" />
      <path
         style="fill:none;fill-opacity:1;stroke:black;stroke-width:7.97244072;stroke-miterlimit:4;stroke-dasharray:none;stroke-dashoffset:0;stroke-opacity:1"
         d="M -456.5,81.625 C -467.0982,81.625 -476.65511,88.81536 -483.25,100.25 L -483.25,137.96875 C -498.509,143.99207 -509.25,158.83106 -509.25,176.28125 L -509.25,338.90625 L -403.78125,338.90625 L -403.78125,176.28125 C -403.78125,158.83106 -414.52225,143.99207 -429.78125,137.96875 L -429.78125,100.25 C -436.37615,88.815361 -445.90182,81.625 -456.5,81.625 z "
         id="rect1941" />
      <rect
         style="fill:#00000f;fill-opacity:0.94117647;stroke:black;stroke-width:0.73016709;stroke-miterlimit:4;stroke-dasharray:none;stroke-dashoffset:0;stroke-opacity:1"
         id="rect2856"
         width="7.2698326"
         height="54.529255"
         x="-140.27943"
         y="-482.69357"
         ry="0"
         transform="matrix(0,-1,1,0,0,0)" />
    </g>
  </g>
</svg>
