<?xml version="1.0" encoding="UTF-8" standalone="no"?>
<!-- Generator: Adobe Illustrator 11.0, SVG Export Plug-In . SVG Version: 6.0.0 Build 78)  -->
<!-- Created by Cary Bass http://commons.wikipedia.com/wiki/User:Bastique on January 20, 2006 -->
<svg
   xmlns:dc="http://purl.org/dc/elements/1.1/"
   xmlns:cc="http://web.resource.org/cc/"
   xmlns:rdf="http://www.w3.org/1999/02/22-rdf-syntax-ns#"
   xmlns:svg="http://www.w3.org/2000/svg"
   xmlns="http://www.w3.org/2000/svg"
   xmlns:sodipodi="http://sodipodi.sourceforge.net/DTD/sodipodi-0.dtd"
   xmlns:inkscape="http://www.inkscape.org/namespaces/inkscape"
   version="1.0"
   width="615.89575"
   height="540.0105"
   id="radioactive"
   sodipodi:version="0.32"
   inkscape:version="0.44"
   sodipodi:docname="DIN_4844-2_Warnung_vor_Aetzenden_Stoffen_D-W004.svg"
   sodipodi:docbase="/export/henning/reference/Sicherheitskennzeichnung">
  <defs
     id="defs58" />
  <sodipodi:namedview
     inkscape:window-height="966"
     inkscape:window-width="1272"
     inkscape:pageshadow="2"
     inkscape:pageopacity="0.0"
     guidetolerance="10.0"
     gridtolerance="10.0"
     objecttolerance="10.0"
     borderopacity="1.0"
     bordercolor="#666666"
     pagecolor="#ffffff"
     id="base"
     inkscape:zoom="1.1087958"
     inkscape:cx="299.90001"
     inkscape:cy="262.0819"
     inkscape:window-x="0"
     inkscape:window-y="0"
     inkscape:current-layer="radioactive"
     inkscape:document-units="mm"
     width="169.33334mm"
     height="148.16667mm"
     units="mm" />
  <metadata
     id="metadata60">
    <rdf:RDF>
      <cc:Work
         rdf:about="">
        <dc:format>image/svg+xml</dc:format>
        <dc:type
           rdf:resource="http://purl.org/dc/dcmitype/StillImage" />
      </cc:Work>
    </rdf:RDF>
  </metadata>
  <path
     style="fill:none;fill-rule:evenodd;stroke:black;stroke-width:1px;stroke-linecap:butt;stroke-linejoin:miter;stroke-opacity:1"
     d="M 24.689244,-160.5126 C 24.757113,-160.5635 24.689244,-160.34292 24.689244,-160.5126 z "
     id="path1965" />
  <g
     id="g1903"
     transform="translate(8.146196,8.022892)">
    <path
       id="path1889"
       d="M 299.09375,-8 C 285.2752,-7.992418 276.97358,5.3760798 271.875,16.53125 C 179.06241,177.95887 85.093615,338.77609 -7,500.5625 C -12.655568,516.74325 3.5954928,534.90536 20.3125,531.59287 C 209.912,531.32032 399.54938,532.21713 589.125,531.09375 C 605.71557,527.93 613.80037,504.94424 602.49938,492.16558 C 507.36358,328.05043 413.40661,163.19507 317.5,-0.4375 C 312.77524,-5.3226321 305.97101,-8.3168021 299.09375,-8 z "
       style="fill:yellow" />
    <g
       id="g4">
      <path
         id="sign_border"
         d="M 597.6,499.6 L 313.8,8 C 310.9,3 305.6,0 299.9,0 C 294.2,0 288.9,3.1 286,8 L 2.2,499.6 C -0.7,504.6 -0.7,510.7 2.2,515.6 C 5.1,520.6 10.4,523.6 16.1,523.6 L 583.7,523.6 C 589.4,523.6 594.7,520.5 597.6,515.6 C 600.5,510.6 600.5,504.5 597.6,499.6 z " />
      <polygon
         points="43.9,491.5 299.9,48.2 555.9,491.5 43.9,491.5 "
         id="sign_bg"
         style="fill:#f7f619" />
    </g>
    <g
       transform="matrix(1.203809,0,0,1.079602,850.3749,96.13853)"
       id="g4564">
      <path
         style="fill:black;fill-opacity:1;stroke:black;stroke-width:1.01057088;stroke-miterlimit:4;stroke-dasharray:none;stroke-dashoffset:0;stroke-opacity:1"
         d="M -619.65625,297.6875 L -619.65625,321.875 L -502.25,321.875 L -502.25,297.6875 L -536.84375,297.6875 C -536.89225,297.88683 -536.95641,298.06906 -537.03125,298.21875 C -537.44001,299.03626 -538.19677,299.94675 -538.96875,300.71875 C -539.70992,301.45992 -539.85374,302.97375 -540.90625,303.5 C -541.86394,303.97884 -542.64816,304.34376 -544.25,304.34375 C -545.60316,304.34375 -547.055,304.08626 -547.875,304.90625 C -548.57062,305.60187 -548.55436,306.99188 -549.25,307.6875 C -549.96656,308.40406 -550.3686,309.05613 -551.21875,309.90625 C -552.26691,310.95441 -552.44522,310.46874 -554.28125,310.46875 C -555.57241,310.46875 -557.35337,310.72956 -558.4375,310.1875 C -559.33949,309.7365 -560.10403,309.17756 -560.40625,307.96875 C -560.72926,306.67668 -561.20206,306.34587 -561.78125,305.1875 C -562.63357,303.48285 -563.50625,304.55627 -564.5625,303.5 C -565.20155,302.86094 -566.25001,301.79031 -566.25,300.46875 C -566.25,299.46767 -565.80574,298.47614 -565.5625,297.6875 L -619.65625,297.6875 z "
         id="rect1933" />
      <path
         style="fill:black;fill-opacity:1;fill-rule:evenodd;stroke:black;stroke-width:1px;stroke-linecap:butt;stroke-linejoin:miter;stroke-opacity:1"
         d="M -551.53125,259.53125 C -558.11524,270.69544 -558.78125,275.9375 -558.78125,275.9375 C -558.78128,275.93749 -561.83319,287.07884 -554.375,288.9375 C -553.82036,289.00204 -553.28656,289.07202 -552.6875,289.125 C -552.45565,289.1455 -552.21537,289.15897 -552,289.15625 C -551.99023,289.15613 -551.97849,289.15642 -551.96875,289.15625 C -551.42188,289.11812 -550.88903,289.00535 -550.40625,288.84375 C -550.38745,288.83684 -550.36237,288.85091 -550.34375,288.84375 C -550.28992,288.82514 -550.24055,288.80131 -550.1875,288.78125 C -550.01441,288.70602 -549.84439,288.62866 -549.6875,288.53125 C -544.77237,285.47975 -547.71056,271.74898 -551.53125,259.53125 z "
         id="path3714" />
      <path
         id="path4604"
         d="M -549.86667,217.42859 C -556.45066,228.59278 -557.11667,233.83484 -557.11667,233.83484 C -557.1167,233.83483 -560.16861,244.97618 -552.71042,246.83484 C -552.15578,246.89938 -551.62198,246.96936 -551.02292,247.02234 C -550.79107,247.04284 -550.55079,247.05631 -550.33542,247.05359 C -550.32565,247.05347 -550.31391,247.05376 -550.30417,247.05359 C -549.7573,247.01546 -549.22445,246.90269 -548.74167,246.74109 C -548.72287,246.73418 -548.69779,246.74825 -548.67917,246.74109 C -548.62534,246.72248 -548.57597,246.69865 -548.52292,246.67859 C -548.34983,246.60336 -548.17981,246.526 -548.02292,246.42859 C -543.10779,243.37709 -546.04598,229.64632 -549.86667,217.42859 z "
         style="fill:black;fill-opacity:1;fill-rule:evenodd;stroke:black;stroke-width:1px;stroke-linecap:butt;stroke-linejoin:miter;stroke-opacity:1" />
      <path
         style="fill:black;fill-opacity:1;fill-rule:evenodd;stroke:black;stroke-width:1px;stroke-linecap:butt;stroke-linejoin:miter;stroke-opacity:1"
         d="M -422.86203,163.02934 C -429.44602,174.19353 -430.11203,179.43559 -430.11203,179.43559 C -430.11206,179.43558 -433.16397,190.57693 -425.70578,192.43559 C -425.15114,192.50013 -424.61734,192.57011 -424.01828,192.62309 C -423.78643,192.64359 -423.54615,192.65706 -423.33078,192.65434 C -423.32101,192.65422 -423.30927,192.65451 -423.29953,192.65434 C -422.75266,192.61621 -422.21981,192.50344 -421.73703,192.34184 C -421.71823,192.33493 -421.69315,192.349 -421.67453,192.34184 C -421.6207,192.32323 -421.57133,192.2994 -421.51828,192.27934 C -421.34519,192.20411 -421.17517,192.12675 -421.01828,192.02934 C -416.10315,188.97784 -419.04134,175.24707 -422.86203,163.02934 z "
         id="path4606" />
      <path
         id="path4608"
         d="M -423.49276,218.53371 C -430.07675,229.6979 -430.74276,234.93996 -430.74276,234.93996 C -430.74279,234.93995 -433.7947,246.0813 -426.33651,247.93996 C -425.78187,248.0045 -425.24807,248.07448 -424.64901,248.12746 C -424.41716,248.14796 -424.17688,248.16143 -423.96151,248.15871 C -423.95174,248.15859 -423.94,248.15888 -423.93026,248.15871 C -423.38339,248.12058 -422.85054,248.00781 -422.36776,247.84621 C -422.34896,247.8393 -422.32388,247.85337 -422.30526,247.84621 C -422.25143,247.8276 -422.20206,247.80377 -422.14901,247.78371 C -421.97592,247.70848 -421.8059,247.63112 -421.64901,247.53371 C -416.73388,244.48221 -419.67207,230.75144 -423.49276,218.53371 z "
         style="fill:black;fill-opacity:1;fill-rule:evenodd;stroke:black;stroke-width:1px;stroke-linecap:butt;stroke-linejoin:miter;stroke-opacity:1" />
      <g
         id="g9975">
        <path
           style="fill:none;fill-opacity:1;stroke:black;stroke-width:2.24999928;stroke-miterlimit:4;stroke-dasharray:none;stroke-dashoffset:0;stroke-opacity:1"
           d="M -435.70841,126.2572 L -431.35226,146.54478 L -475.47165,156.0181 L -498.66183,160.99749 C -504.28293,162.20446 -509.77673,158.65289 -510.9837,153.03178 C -512.19065,147.41067 -508.6391,141.91688 -503.01798,140.70991 L -479.8278,135.73051 L -435.70841,126.2572 z "
           id="path8185" />
        <rect
           transform="matrix(-0.977715,0.209935,0.209935,0.977715,0,0)"
           style="fill:black;fill-opacity:1;stroke:none;stroke-width:2.94657755;stroke-miterlimit:4;stroke-dasharray:none;stroke-dashoffset:0;stroke-opacity:1"
           id="rect8187"
           width="2.2499993"
           height="27.171524"
           x="451.37961"
           y="28.762356" />
        <path
           id="rect8191"
           d="M -511.0625,149.09375 C -511.27883,150.36233 -511.25632,151.69195 -510.96875,153.03125 C -509.76178,158.65236 -504.27735,162.20696 -498.65625,161 L -475.46875,156.03125 L -443.25,149.09375 L -511.0625,149.09375 z "
           style="fill:black;fill-opacity:1;stroke:black;stroke-width:2.25;stroke-miterlimit:4;stroke-dasharray:none;stroke-dashoffset:0;stroke-opacity:1" />
      </g>
      <g
         id="g9980">
        <path
           id="rect6386"
           d="M -544.80963,183.25112 L -547.05188,203.87961 L -502.19113,208.75582 L -478.61128,211.31887 C -472.89572,211.94013 -467.79717,207.84131 -467.17591,202.12574 C -466.55466,196.41018 -470.65346,191.31164 -476.36903,190.69038 L -499.94888,188.12733 L -544.80963,183.25112 z "
           style="fill:none;fill-opacity:1;stroke:black;stroke-width:2.24999905;stroke-miterlimit:4;stroke-dasharray:none;stroke-dashoffset:0;stroke-opacity:1" />
        <rect
           transform="matrix(0.994144,0.10806,-0.10806,0.994144,0,0)"
           y="237.83946"
           x="-522.94232"
           height="27.171524"
           width="2.249999"
           id="rect7292"
           style="fill:black;fill-opacity:1;stroke:none;stroke-width:2.94657755;stroke-miterlimit:4;stroke-dasharray:none;stroke-dashoffset:0;stroke-opacity:1" />
        <path
           id="rect9080"
           d="M -537.28125,204.9375 L -502.1875,208.75 L -478.625,211.3125 C -473.90221,211.82586 -469.60857,209.11885 -467.90625,204.9375 L -537.28125,204.9375 z "
           style="fill:black;fill-opacity:1;stroke:black;stroke-width:2.25;stroke-miterlimit:4;stroke-dasharray:none;stroke-dashoffset:0;stroke-opacity:1" />
      </g>
      <path
         style="fill:black;fill-opacity:1;stroke:black;stroke-width:1.03270352;stroke-miterlimit:4;stroke-dasharray:none;stroke-dashoffset:0;stroke-opacity:1"
         d="M -410.4375,247.59375 C -411.18995,247.74351 -412.03493,249.89701 -412.25,251.1875 C -412.17573,254.92881 -412.23532,254.89881 -411.375,256.90625 C -410.39935,258.87139 -407.51372,260.41978 -404.53125,262.3125 C -394.9901,268.36745 -389.34375,267.50001 -389.34375,267.5 C -389.25636,267.52497 -387.60929,267.9185 -387.28125,268 C -387.24878,268.95675 -387.41636,269.88513 -387.875,270.78125 L -416.8125,270.78125 C -417.70633,274.03556 -420.0892,276.375 -422.9375,276.375 C -425.78581,276.375 -428.19992,274.03556 -429.09375,270.78125 L -435.125,270.78125 C -435.72369,273.09128 -437.20007,274.75 -438.9375,274.75 C -440.67494,274.75 -442.1513,273.09128 -442.75,270.78125 L -467,270.78125 C -471.00138,270.78125 -474.21875,274.02989 -474.21875,278.03125 C -474.21875,282.03263 -471.00136,285.25 -467,285.25 L -401.53125,285.25 C -400.92571,286.71182 -401.07021,288.17774 -401.96875,289.5 L -478.40625,289.5 C -482.40763,289.5 -485.65625,292.71739 -485.65625,296.71875 C -485.65625,300.72013 -482.40761,303.9375 -478.40625,303.9375 L -408.96875,303.9375 C -408.05698,305.29608 -407.43618,306.4172 -407.21875,307.40625 L -472.125,307.40625 C -476.12638,307.40625 -479.34375,310.62364 -479.34375,314.625 C -479.34375,318.62638 -476.12636,321.84375 -472.125,321.84375 L -399.53125,321.84375 C -398.86127,322.7705 -398.56655,323.77769 -398.84375,324.875 L -449,324.875 C -452.52814,324.875 -455.375,327.72187 -455.375,331.25 C -455.375,334.77814 -452.52813,337.62499 -449,337.625 L -390.46875,337.625 C -384.67036,339.41047 -378.04325,341.04497 -371.875,341.6875 C -365.61848,341.6875 -328.90107,339.9114 -323.84375,339.3125 C -316.63811,338.4592 -300.99999,332.53126 -301,332.53125 L -301,274.53125 L -300.84375,274.4375 L -377.75,252.4375 C -379.44695,251.99093 -387.09222,251.98971 -388.46875,251.875 C -392.13438,251.56953 -401.22199,249.39634 -403,248.9375 C -404.29187,248.66516 -407.29878,248.10995 -410.28125,247.59375 C -410.33032,247.58526 -410.38734,247.58377 -410.4375,247.59375 z "
         id="rect10870" />
    </g>
  </g>
</svg>
