<svg xmlns="http://www.w3.org/2000/svg" viewBox="0 0 600 525"><path d="M597.5,499.6L313.7,8c-2.9-5-8.2-8-13.9-8c-5.7,0-11,3.1-13.9,8L2.1,499.6c-2.9,5-2.9,11.1,0,16 c2.9,5,8.2,8,13.9,8h567.6c5.7,0,11-3.1,13.9-8C600.4,510.6,600.4,504.5,597.5,499.6z"/><polygon fill="#e8bf28" points="43.8,491.5 299.8,48.2 555.8,491.5"/><path d="M279.8,378.3L233,459.4c42.6,24.6,91.1,24.6,133.7,0l-46.8-81.1c-0.3,0.2-0.6,0.4-0.9,0.6 	c-1.1,0.6-2.3,1.2-3.5,1.7c-1.2,0.5-2.4,1-3.7,1.4c-1.3,0.4-2.5,0.7-3.8,1c-1.3,0.3-2.6,0.5-4,0.6c-1.3,0.1-2.7,0.2-4.1,0.2 c-1.4,0-2.7-0.1-4.1-0.2c-1.3-0.1-2.7-0.3-4-0.6c-1.3-0.3-2.6-0.6-3.8-1c-1.3-0.4-2.5-0.8-3.7-1.4c-1.2-0.5-2.4-1.1-3.5-1.7 C280.4,378.7,280.1,378.5,279.8,378.3z"/><path d="M233,227.8c-42.6,24.6-66.8,66.6-66.8,115.8h93.6c0-1.4,0.1-2.8,0.2-4.1c0.1-1.3,0.4-2.7,0.6-4 	c0.3-1.3,0.6-2.6,1-3.8c0.4-1.3,0.8-2.5,1.4-3.7c0.5-1.2,1.1-2.4,1.7-3.5c0.6-1.1,1.3-2.2,2-3.3c0.7-1.1,1.5-2.1,2.3-3.1 	c0.8-1,1.7-1.9,2.6-2.8c0.9-0.9,1.9-1.8,2.9-2.6c1-0.8,2-1.6,3.1-2.3c0.8-0.5,1.6-1,2.4-1.5L233,227.8z"/><path d="M366.7,227.8l-46.8,81.1c0.8,0.5,1.6,0.9,2.4,1.5c1.1,0.7,2.1,1.5,3.1,2.3c1,0.8,1.9,1.7,2.9,2.6 	c0.9,0.9,1.8,1.9,2.6,2.8c0.8,1,1.6,2,2.3,3.1c0.7,1.1,1.4,2.2,2,3.3c0.6,1.1,1.2,2.3,1.7,3.5c0.5,1.2,1,2.4,1.4,3.7 c0.4,1.3,0.7,2.5,1,3.8s0.5,2.6,0.6,4c0.1,1.3,0.2,2.7,0.2,4.1h93.6C433.5,294.4,409.3,252.4,366.7,227.8z"/><circle cx="299.8" cy="343.6" r="26.7"/> </svg>