<svg xmlns="http://www.w3.org/2000/svg" width="608.37897" height="540.03601">
  <path fill="#ce252c" d="M559.24531602 540.03599c17.5533329 0 33.77333249-9.36562643 42.5506656-24.56666605 8.77733312-15.20159962 8.77733312-33.93173249 0-49.1349321L346.74132133 24.56666954C337.96398822 9.3653366 321.74398863.0000035 304.1893224.0000035c-17.5533329 0-33.77466583 9.3653331-42.5506656 24.56666605L6.58280983 466.33439185c-8.77707979 15.20319961-8.77707979 33.93333248 0 49.1349321 8.77651978 15.20103962 24.9974527 24.56666605 42.5515856 24.56666605h510.11092058"/>
  <path fill="#ffd100" d="M546.15064968 483.34279142H62.22652844L304.1893224 64.25200189l241.96132728 419.09078953"/>
  <path d="M256.57732359 306.39732917l10.7986664-37.65599905-12.82799969-3.67866658c-7.03599982-1.93466662-12.49733302-7.48799981-14.3146663-14.5546663-1.81599996-7.0666665.28933332-14.5666663 5.51999986-19.65466618 5.23066653-5.08799987 12.78399968-6.98666649 19.79866617-4.97466654l24.68933271 7.07866649 29.20799927.51066665c18.43066621 1.3573333 34.6106658 12.76799968 42.07466562 29.6733326l37.0293324 35.75866577c4.3079999 4.1599999 6.64133317 9.95999975 6.41333318 15.9439996-1.4413333 37.89866572-12.0479997 74.88133146-30.9066659 107.7851973-2.97733325 5.19746654-8.02933313 8.87759978-13.88799965 10.12399975l-50.35333207 10.70159973c-15.28799962 10.38119974-35.05599913 11.48533305-51.40399872 2.86919993l-25.0413327-15.04679962-24.68799939-7.0786665c-10.80399973-3.09746658-17.05066624-14.3666663-13.95333298-25.17186603 3.09866659-10.80399973 14.36799964-17.05066624 25.17199937-13.95199965l13.041333 3.7399999 10.79733307-37.65599905 12.83466635-44.76133222"/>
  <path fill="#ffd100" d="M355.45998778 412.23185986c17.57199956-29.89719925 27.28266598-63.75986507 28.22266596-98.42653087l-27.87333264-26.91599933-38.25199904 133.39879667 37.90266572-8.05626647"/>
</svg>
