<?xml version="1.0" encoding="UTF-8"?>
<!DOCTYPE svg PUBLIC "-//W3C//DTD SVG 1.1//EN" "http://www.w3.org/Graphics/SVG/1.1/DTD/svg11.dtd">
<!-- Creator: CorelDRAW -->
<svg xmlns="http://www.w3.org/2000/svg" xml:space="preserve" width="2062px" height="1801px" shape-rendering="geometricPrecision" text-rendering="geometricPrecision" image-rendering="optimizeQuality" fill-rule="evenodd" clip-rule="evenodd"
viewBox="0 0 2089 1824.61"
 xmlns:xlink="http://www.w3.org/1999/xlink">
 <g id="Ebene_x0020_1">
  <metadata id="CorelCorpID_0Corel-Layer"/>
  <polygon fill="yellow" points="2066.81,1696.01 1118.53,40.4745 1113.05,33.1629 1106.39,26.7656 1098.42,21.2813 1089.68,16.7125 1079.88,13.0567 1069.57,10.576 1058.6,9.13886 1047.64,8.48668 1036.8,8.87799 1025.83,10.314 1015.52,12.4033 1005.46,16.0591 996.325,20.3683 988.099,25.8513 981.18,32.2487 975.304,39.8211 13.9698,1708.15 11.2282,1714.94 9.40092,1722.51 8.87799,1730.74 8.87799,1739.23 9.6618,1747.97 11.8816,1756.85 14.6231,1765.99 18.2789,1774.48 22.4564,1782.7 27.6798,1790.28 33.6847,1797.2 40.4745,1803.59 47.6556,1808.56 55.8814,1812.47 64.4985,1815.21 73.8983,1816.13 2013.02,1816.13 2023.59,1815.21 2033.38,1813.13 2042.52,1809.73 2050.36,1805.16 2057.67,1799.42 2064.07,1792.76 2069.29,1785.45 2073.86,1776.96 2076.86,1768.08 2078.95,1758.68 2080.13,1748.89 2079.86,1738.57 2078.69,1728 2075.95,1717.29 2072.03,1706.72 "/>
  <polygon fill="black" points="1110.96,44.1303 2059.24,1699.67 2074.38,1692.35 1126.1,36.8187 "/>
  <polygon fill="black" points="983.007,44.3911 987.838,37.9938 993.844,32.5095 1001.16,27.6798 1009.38,24.0241 1018.26,20.6291 1027.92,18.5398 1037.97,17.3647 1048.03,16.9734 1058.34,17.6255 1068.4,18.8007 1077.8,21.2813 1086.28,24.2849 1094.25,28.332 1100.91,33.1629 1106.39,38.2547 1110.96,44.1303 1126.1,36.8187 1119.71,27.9407 1111.87,20.3683 1102.73,14.2318 1092.94,9.13886 1082.1,4.8309 1070.75,2.48067 1058.99,0.653374 1047.38,0 1035.49,0.260871 1023.74,2.08936 1012.77,4.30916 1001.55,8.22581 991.494,13.0567 982.355,19.1932 974.39,26.5047 967.732,35.2523 "/>
  <polygon fill="black" points="21.9347,1712.46 21.5434,1712.72 983.007,44.3911 967.732,35.2523 6.39732,1703.58 6.13645,1703.98 "/>
  <polygon fill="black" points="73.2461,1807.64 73.507,1807.64 65.6736,1806.99 58.623,1804.51 51.9636,1801.24 45.5662,1797.2 40.0832,1791.84 34.5989,1785.45 30.0289,1778.66 26.1122,1771.48 22.8489,1763.51 20.3683,1755.02 18.2789,1747.06 17.6255,1739.49 17.6255,1731.65 18.2789,1724.34 19.7149,1717.68 21.9347,1712.46 6.13645,1703.98 2.74154,1712.2 0.653374,1720.69 0,1729.83 0,1738.97 1.17512,1748.89 3.39491,1758.68 6.39732,1768.34 10.314,1777.48 14.884,1786.62 20.6291,1795.11 27.4178,1802.68 35.2523,1809.99 43.4769,1815.74 53.1387,1820.31 63.193,1823.44 74.1591,1824.61 74.4212,1824.61 "/>
  <polygon fill="black" points="2012.36,1807.64 73.2461,1807.64 74.4212,1824.61 2013.67,1824.61 "/>
  <polygon fill="black" points="2059.24,1699.67 2063.81,1709.46 2067.46,1719.12 2070.2,1728.91 2071.12,1738.57 2071.38,1747.97 2070.2,1756.85 2068.38,1765.34 2065.63,1773.3 2061.59,1780.88 2057.15,1787.27 2051.66,1793.02 2044.87,1798.11 2038.22,1802.16 2030.64,1804.9 2021.9,1806.73 2012.36,1807.64 2013.67,1824.61 2025.42,1823.7 2036.13,1821.22 2046.7,1817.3 2055.84,1812.21 2063.81,1805.81 2071.12,1798.11 2076.86,1790.02 2081.95,1780.48 2085.35,1770.82 2087.83,1760.51 2089,1749.8 2088.74,1738.57 2087.18,1727.08 2084.43,1715.46 2080.13,1703.98 2074.38,1692.35 "/>
  <polygon fill="black" points="2008.45,1695.49 1098.42,78.7292 1093.85,72.071 1088.76,66.3258 1082.89,61.1036 1076.62,57.187 1070.22,53.7921 1063.17,51.7027 1055.86,50.1363 1048.94,49.8754 1041.63,50.3971 1034.32,51.7027 1027.27,54.0529 1020.61,57.187 1013.95,61.3645 1007.81,66.3258 1002.46,72.3318 997.5,79.3825 69.5903,1712.46 66.5867,1718.21 64.7594,1723.69 63.5843,1729.43 63.193,1734.92 63.8452,1740.14 65.4116,1745.23 67.5009,1750.19 70.2425,1754.37 73.8983,1758.29 78.077,1761.94 83.0383,1765.08 88.391,1767.82 94.5274,1769.65 101.186,1770.82 108.497,1771.48 116.071,1771.08 1956.74,1773.3 1969.54,1773.3 1980.77,1772.65 1990.82,1771.08 1999.31,1769.26 2006.88,1766.51 2012.76,1763.25 2017.59,1759.2 2021.24,1754.76 2023.59,1749.28 2024.9,1743.4 2024.9,1737.14 2023.59,1729.83 2021.5,1722.12 2018.24,1714.03 2013.93,1704.89 "/>
  <polygon fill="yellow" points="1042.54,245.328 222.741,1664.41 1865.87,1665.07 "/>
  <polygon fill="black" points="1050.64,650.072 1056.64,650.333 1062.65,650.724 1068.4,651.508 1074.14,652.553 1079.75,653.858 1085.37,655.425 1090.72,657.253 1096.07,659.342 1101.17,661.692 1106.26,664.172 1111.09,667.046 1115.79,670.048 1120.36,673.313 1124.8,676.838 1129.11,680.494 1133.15,684.41 1136.94,688.457 1140.6,692.635 1144.12,697.075 1147.39,701.645 1150.39,706.345 1153.26,711.306 1155.87,716.268 1158.09,721.49 1160.18,726.712 1162.14,732.196 1163.71,737.679 1165.01,743.294 1166.06,749.038 1166.71,754.914 1167.23,760.789 1167.36,766.795 1167.23,772.801 1166.71,778.677 1166.06,784.551 1165.01,790.296 1163.71,795.911 1162.14,801.394 1160.18,806.878 1158.09,812.101 1155.87,817.323 1153.26,822.284 1150.39,827.245 1147.39,831.946 1144.12,836.516 1140.6,840.954 1136.94,845.133 1133.15,849.18 1129.11,853.097 1124.8,856.753 1120.36,860.148 1115.79,863.412 1111.09,866.545 1106.26,869.286 1101.17,871.899 1096.07,874.249 1090.72,876.337 1085.37,878.166 1079.75,879.732 1074.14,881.038 1068.4,882.082 1062.65,882.866 1056.64,883.257 1050.64,883.388 1044.76,883.257 1038.76,882.866 1033.01,882.082 1027.27,881.038 1021.65,879.732 1016.04,878.166 1010.69,876.337 1005.33,874.249 1000.24,871.899 995.149,869.286 990.319,866.545 985.488,863.412 980.918,860.148 976.61,856.753 972.3,853.097 968.253,849.18 964.467,845.133 960.681,840.954 957.286,836.516 954.023,831.946 951.019,827.245 948.147,822.284 945.536,817.323 943.186,812.101 941.096,806.878 939.268,801.394 937.702,795.911 936.396,790.296 935.351,784.551 934.699,778.677 934.176,772.801 934.046,766.795 934.176,760.789 934.699,754.914 935.351,749.038 936.396,743.294 937.702,737.679 939.268,732.196 941.096,726.712 943.186,721.49 945.536,716.268 948.147,711.306 951.019,706.345 954.023,701.645 957.286,697.075 960.681,692.635 964.467,688.457 968.253,684.41 972.3,680.494 976.61,676.838 980.918,673.313 985.488,670.048 990.319,667.046 995.149,664.172 1000.24,661.692 1005.33,659.342 1010.69,657.253 1016.04,655.425 1021.65,653.858 1027.27,652.553 1033.01,651.508 1038.76,650.724 1044.76,650.333 "/>
  <polygon fill="black" points="1050.64,600.85 1059.26,601.111 1067.61,601.633 1075.97,602.808 1084.06,604.244 1092.03,606.072 1099.99,608.292 1107.69,610.903 1115.14,613.906 1122.58,617.301 1129.63,620.956 1136.68,624.873 1143.34,629.182 1149.87,633.883 1156.13,638.844 1162.14,644.066 1167.88,649.549 1173.37,655.294 1178.72,661.3 1183.55,667.567 1188.25,674.095 1192.56,680.885 1196.61,687.805 1200.26,694.985 1203.53,702.297 1206.53,709.87 1209.14,717.573 1211.36,725.407 1213.19,733.371 1214.76,741.596 1215.8,749.822 1216.45,758.309 1216.58,766.795 1216.45,775.282 1215.8,783.638 1214.76,791.993 1213.19,800.089 1211.36,808.184 1209.14,816.017 1206.53,823.72 1203.53,831.293 1200.26,838.604 1196.61,845.785 1192.56,852.706 1188.25,859.494 1183.55,865.893 1178.72,872.29 1173.37,878.296 1167.88,884.04 1162.14,889.524 1156.13,894.746 1149.87,899.708 1143.34,904.278 1136.68,908.586 1129.63,912.634 1122.58,916.29 1115.14,919.685 1107.69,922.687 1099.99,925.298 1092.03,927.518 1084.06,929.345 1075.97,930.783 1067.61,931.826 1059.26,932.479 1050.64,932.74 1042.15,932.479 1033.8,931.826 1025.44,930.783 1017.34,929.345 1009.25,927.518 1001.42,925.298 993.713,922.687 986.271,919.685 978.829,916.29 971.648,912.634 964.728,908.586 958.07,904.278 951.541,899.708 945.274,894.746 939.268,889.524 933.394,884.04 927.909,878.296 922.687,872.29 917.726,865.893 913.156,859.494 908.848,852.706 904.8,845.785 901.144,838.604 897.88,831.293 894.877,823.72 892.266,816.017 890.046,808.184 888.088,800.089 886.652,791.993 885.608,783.638 884.954,775.282 884.693,766.795 884.954,758.309 885.608,749.822 886.652,741.596 888.088,733.371 890.046,725.407 892.266,717.573 894.877,709.87 897.88,702.297 901.144,694.985 904.8,687.805 908.848,680.885 913.156,674.095 917.726,667.567 922.687,661.3 927.909,655.294 933.394,649.549 939.268,644.066 945.274,638.844 951.541,633.883 958.07,629.182 964.728,624.873 971.648,620.956 978.829,617.301 986.271,613.906 993.713,610.903 1001.42,608.292 1009.25,606.072 1017.34,604.244 1025.44,602.808 1033.8,601.633 1042.15,601.111 "/>
  <polygon fill="black" points="1054.03,998.414 1066.96,998.805 1079.75,999.719 1092.42,1001.42 1104.82,1003.64 1117.09,1006.38 1129.11,1009.9 1140.86,1013.82 1152.35,1018.39 1163.44,1023.48 1174.41,1029.1 1184.99,1035.1 1195.3,1041.76 1205.22,1048.81 1214.76,1056.38 1223.89,1064.35 1232.77,1072.7 1241.13,1081.45 1249.09,1090.72 1256.67,1100.25 1263.72,1110.18 1270.24,1120.49 1276.38,1131.07 1282,1141.9 1287.09,1153.13 1291.66,1164.62 1295.57,1176.37 1298.97,1188.38 1301.84,1200.52 1304.06,1213.06 1305.63,1225.59 1306.67,1238.52 1306.93,1251.44 1306.67,1264.5 1305.63,1277.3 1304.06,1289.96 1301.84,1302.36 1298.97,1314.64 1295.57,1326.52 1291.66,1338.27 1287.09,1349.76 1282,1360.99 1276.38,1371.95 1270.24,1382.53 1263.72,1392.71 1256.67,1402.64 1249.09,1412.3 1241.13,1421.44 1232.77,1430.19 1223.89,1438.67 1214.76,1446.64 1205.22,1454.08 1195.3,1461.13 1184.99,1467.79 1174.41,1473.92 1163.44,1479.41 1152.35,1484.5 1140.86,1489.07 1129.11,1493.12 1117.09,1496.51 1104.82,1499.38 1092.42,1501.6 1079.75,1503.17 1066.96,1504.21 1054.03,1504.47 1040.98,1504.21 1028.18,1503.17 1015.52,1501.6 1003.11,1499.38 990.841,1496.51 978.829,1493.12 967.078,1489.07 955.589,1484.5 944.491,1479.41 933.524,1473.92 922.948,1467.79 912.634,1461.13 902.711,1454.08 893.18,1446.64 884.04,1438.67 875.162,1430.19 866.806,1421.44 858.842,1412.3 851.4,1402.64 844.219,1392.71 837.691,1382.53 831.555,1371.95 825.94,1360.99 820.848,1349.76 816.409,1338.27 812.361,1326.52 808.967,1314.64 806.095,1302.36 803.875,1289.96 802.308,1277.3 801.264,1264.5 801.003,1251.44 801.264,1238.52 802.308,1225.59 803.875,1213.06 806.095,1200.52 808.967,1188.38 812.361,1176.37 816.409,1164.62 820.848,1153.13 825.94,1141.9 831.555,1131.07 837.691,1120.49 844.219,1110.18 851.4,1100.25 858.842,1090.72 866.806,1081.45 875.162,1072.7 884.04,1064.35 893.18,1056.38 902.711,1048.81 912.634,1041.76 922.948,1035.1 933.524,1029.1 944.491,1023.48 955.589,1018.39 967.078,1013.82 978.829,1009.9 990.841,1006.38 1003.11,1003.64 1015.52,1001.42 1028.18,999.719 1040.98,998.805 "/>
  <polygon fill="black" points="1054.03,949.192 1069.44,949.583 1084.85,950.758 1099.86,952.586 1114.75,955.328 1129.37,958.722 1143.73,962.77 1157.7,967.601 1171.41,972.954 1184.86,979.09 1197.91,985.748 1210.58,993.06 1222.85,1000.89 1234.6,1009.38 1246.09,1018.39 1257.06,1027.79 1267.63,1037.84 1277.56,1048.42 1287.09,1059.39 1296.1,1070.75 1304.58,1082.63 1312.42,1094.9 1319.73,1107.56 1326.39,1120.62 1332.52,1133.94 1337.88,1147.65 1342.71,1161.75 1346.76,1176.11 1350.15,1190.73 1352.76,1205.49 1354.72,1220.63 1355.89,1235.91 1356.29,1251.44 1355.89,1266.98 1354.72,1282.26 1352.76,1297.4 1350.15,1312.29 1346.76,1326.91 1342.71,1341.14 1337.88,1355.24 1332.52,1368.95 1326.39,1382.27 1319.73,1395.32 1312.42,1407.99 1304.58,1420.26 1296.1,1432.14 1287.09,1443.63 1277.56,1454.6 1267.63,1465.04 1257.06,1475.1 1246.09,1484.63 1234.6,1493.64 1222.85,1501.99 1210.58,1509.96 1197.91,1517.14 1184.86,1523.93 1171.41,1529.93 1157.7,1535.42 1143.73,1540.12 1129.37,1544.3 1114.75,1547.56 1099.86,1550.3 1084.85,1552.26 1069.44,1553.44 1054.03,1553.83 1038.5,1553.44 1023.09,1552.26 1008.08,1550.3 993.19,1547.56 978.569,1544.3 964.206,1540.12 950.235,1535.42 936.526,1529.93 923.078,1523.93 910.023,1517.14 897.358,1509.96 885.215,1501.99 873.335,1493.64 861.844,1484.63 850.877,1475.1 840.433,1465.04 830.38,1454.6 820.848,1443.63 811.84,1432.14 803.483,1420.26 795.519,1407.99 788.207,1395.32 781.549,1382.27 775.543,1368.95 770.06,1355.24 765.359,1341.14 761.181,1326.91 757.787,1312.29 755.175,1297.4 753.217,1282.26 752.042,1266.98 751.65,1251.44 752.042,1235.91 753.217,1220.63 755.175,1205.49 757.787,1190.73 761.181,1176.11 765.359,1161.75 770.06,1147.65 775.543,1133.94 781.549,1120.62 788.207,1107.56 795.519,1094.9 803.483,1082.63 811.84,1070.75 820.848,1059.39 830.38,1048.42 840.433,1037.84 850.877,1027.79 861.844,1018.39 873.335,1009.38 885.215,1000.89 897.358,993.06 910.023,985.748 923.078,979.09 936.526,972.954 950.235,967.601 964.206,962.77 978.569,958.722 993.19,955.328 1008.08,952.586 1023.09,950.758 1038.5,949.583 "/>
  <ellipse fill="#FFF500" cx="1050.74" cy="766.73" rx="116.625" ry="116.658"/>
  <polygon fill="black" points="978.96,843.174 975.565,831.293 1009.77,818.498 1011.6,780.765 1023.09,781.157 1031.58,834.035 978.96,843.174 1012.38,820.326 "/>
  <polygon fill="black" points="1008.08,826.331 1008.86,826.724 1009.64,827.115 1010.29,827.376 1011.08,827.638 1011.86,827.768 1012.51,827.768 1013.3,827.768 1013.95,827.638 1014.6,827.376 1015.26,827.115 1015.91,826.854 1016.43,826.463 1017.48,825.549 1018.39,824.504 1019.04,823.329 1019.56,822.023 1019.7,821.37 1019.83,820.718 1019.83,820.064 1019.83,819.412 1019.7,818.628 1019.56,817.976 1019.3,817.323 1018.91,816.671 1018.52,816.017 1018,815.365 1017.34,814.842 1016.69,814.32 "/>
  <polygon fill="black" points="977.524,766.795 977.524,766.795 977.654,771.103 978.046,775.543 978.699,779.852 979.612,784.029 980.787,788.337 982.224,792.386 983.791,796.433 985.748,800.219 987.838,804.005 990.058,807.661 992.669,811.186 995.28,814.581 998.152,817.714 1001.29,820.848 1004.55,823.72 1008.08,826.331 1016.69,814.32 1013.95,812.231 1011.34,809.881 1008.86,807.531 1006.51,805.05 1004.29,802.308 1002.33,799.436 1000.5,796.563 998.805,793.561 997.239,790.427 995.933,787.164 994.889,783.899 993.974,780.635 993.19,777.24 992.669,773.715 992.277,770.321 992.277,766.795 992.277,766.795 "/>
  <ellipse fill="#FFF500" cx="1057.06" cy="1249.9" rx="254.907" ry="254.979"/>
  <polygon fill="black" points="986.532,731.673 984.573,735.722 982.746,739.769 981.18,744.077 979.874,748.516 978.829,752.956 978.046,757.394 977.785,759.875 977.654,762.095 977.524,764.445 977.524,766.795 992.277,766.795 992.277,764.967 992.408,763.139 992.538,761.311 992.669,759.614 993.322,755.828 994.105,752.303 995.28,748.777 996.455,745.252 997.891,741.858 999.589,738.594 "/>
  <polygon fill="black" points="999.589,738.594 999.98,737.81 1000.24,737.027 1000.37,736.243 1000.5,735.46 1000.5,734.807 1000.5,734.024 1000.37,733.371 1000.11,732.718 999.85,732.066 999.589,731.413 999.196,730.891 998.675,730.368 997.761,729.454 996.585,728.671 995.28,728.148 993.974,727.757 993.322,727.757 992.538,727.626 991.885,727.757 991.233,727.887 990.579,728.018 989.927,728.28 989.274,728.671 988.622,729.062 988.099,729.585 987.577,730.237 987.054,730.891 986.532,731.673 "/>
  <polygon fill="black" points="875.815,1187.99 875.423,1189.3 875.162,1190.47 875.032,1191.65 875.162,1192.82 875.292,1193.87 875.554,1194.91 875.815,1195.96 876.337,1196.87 876.86,1197.65 877.512,1198.57 878.166,1199.22 878.948,1199.87 879.732,1200.52 880.646,1201.05 881.559,1201.57 882.474,1201.96 883.518,1202.22 884.563,1202.35 885.477,1202.48 886.522,1202.61 887.565,1202.48 888.61,1202.35 889.524,1202.09 890.569,1201.83 891.483,1201.31 892.396,1200.79 893.18,1200.13 893.964,1199.35 894.746,1198.57 895.4,1197.52 895.922,1196.35 896.444,1195.17 "/>
  <polygon fill="black" points="986.793,1074.79 981.962,1076.62 977.262,1078.58 972.563,1080.8 967.993,1083.15 963.422,1085.5 958.984,1087.98 954.675,1090.59 950.367,1093.46 946.058,1096.34 941.88,1099.34 937.832,1102.34 933.915,1105.61 929.999,1108.87 926.082,1112.26 922.426,1115.79 918.77,1119.44 915.245,1123.1 911.85,1126.89 908.455,1130.8 905.322,1134.72 902.188,1138.77 899.186,1142.82 896.313,1147.12 893.441,1151.3 890.83,1155.74 888.349,1160.18 885.868,1164.62 883.649,1169.19 881.429,1173.76 879.471,1178.46 877.512,1183.16 875.815,1187.99 896.444,1195.17 898.011,1190.99 899.708,1186.82 901.406,1182.77 903.364,1178.72 905.322,1174.67 907.412,1170.76 909.63,1166.84 911.981,1163.05 914.461,1159.27 917.072,1155.61 919.685,1151.83 922.426,1148.3 925.298,1144.77 928.17,1141.38 931.304,1137.98 934.438,1134.72 937.571,1131.59 940.966,1128.45 944.361,1125.45 947.755,1122.45 951.28,1119.58 954.936,1116.83 958.592,1114.22 962.378,1111.61 966.164,1109.26 970.082,1106.91 973.999,1104.69 977.915,1102.6 982.093,1100.64 986.141,1098.69 990.319,1096.86 994.497,1095.29 "/>
  <polygon fill="black" points="951.28,1039.41 941.88,1055.08 986.271,1086.54 974.39,1141.51 991.102,1145.17 1023.35,1072.57 951.28,1039.41 990.579,1084.98 "/>
  <polygon fill="black" points="994.497,1095.29 995.671,1094.77 996.716,1094.12 997.761,1093.46 998.675,1092.68 999.327,1091.9 999.98,1090.98 1000.5,1090.07 1000.89,1089.16 1001.29,1088.24 1001.42,1087.2 1001.55,1086.15 1001.68,1085.11 1001.55,1084.19 1001.42,1083.15 1001.16,1082.1 1000.89,1081.19 1000.5,1080.15 999.98,1079.36 999.459,1078.45 998.805,1077.66 998.152,1076.88 997.369,1076.23 996.455,1075.58 995.671,1075.05 994.758,1074.66 993.713,1074.27 992.669,1074.01 991.494,1074.01 990.449,1074.01 989.274,1074.14 987.968,1074.4 986.793,1074.79 "/>
 </g>
</svg>
