<?xml version="1.0" encoding="UTF-8" standalone="no"?>
<!-- Created with Inkscape (http://www.inkscape.org/) -->

<svg
   xmlns:dc="http://purl.org/dc/elements/1.1/"
   xmlns:cc="http://creativecommons.org/ns#"
   xmlns:rdf="http://www.w3.org/1999/02/22-rdf-syntax-ns#"
   xmlns:svg="http://www.w3.org/2000/svg"
   xmlns="http://www.w3.org/2000/svg"
   xmlns:sodipodi="http://sodipodi.sourceforge.net/DTD/sodipodi-0.dtd"
   xmlns:inkscape="http://www.inkscape.org/namespaces/inkscape"
   width="815.86383"
   height="815.86383"
   viewBox="0 0 815.8638 815.86381"
   id="svg4206"
   version="1.1"
   inkscape:version="0.91 r13725"
   sodipodi:docname="Drawing.svg">
  <defs
     id="defs4208" />
  <sodipodi:namedview
     id="base"
     pagecolor="#ffffff"
     bordercolor="#666666"
     borderopacity="1.0"
     inkscape:pageopacity="0.0"
     inkscape:pageshadow="2"
     inkscape:zoom="0.77794262"
     inkscape:cx="583.82447"
     inkscape:cy="361.75119"
     inkscape:document-units="px"
     inkscape:current-layer="layer1"
     showgrid="false"
     inkscape:window-width="1920"
     inkscape:window-height="1057"
     inkscape:window-x="-8"
     inkscape:window-y="-8"
     inkscape:window-maximized="1"
     fit-margin-top="0.2"
     fit-margin-left="0.2"
     fit-margin-right="0.2"
     fit-margin-bottom="0.2"
     units="px"
     showguides="false" />
  <metadata
     id="metadata4211">
    <rdf:RDF>
      <cc:Work
         rdf:about="">
        <dc:format>image/svg+xml</dc:format>
        <dc:type
           rdf:resource="http://purl.org/dc/dcmitype/StillImage" />
        <dc:title></dc:title>
      </cc:Work>
    </rdf:RDF>
  </metadata>
  <g
     inkscape:label="Layer 1"
     inkscape:groupmode="layer"
     id="layer1"
     transform="translate(738.42775,211.36129)">
    <rect
       ry="40"
       rx="40"
       y="72.692268"
       x="-394.69943"
       height="600"
       width="600"
       id="rect4770"
       style="fill:#fee011;fill-opacity:1;stroke:none;stroke-width:8;stroke-linejoin:miter;stroke-miterlimit:4;stroke-dasharray:none;stroke-dashoffset:0;stroke-opacity:1"
       transform="matrix(0.70710678,0.70710678,-0.70710678,0.70710678,0,0)" />
    <rect
       ry="32"
       rx="32"
       y="80.69239"
       x="-386.69946"
       height="584"
       width="584"
       id="rect4778"
       style="fill:#000000;fill-opacity:1;stroke:none;stroke-width:8;stroke-linejoin:miter;stroke-miterlimit:4;stroke-dasharray:none;stroke-dashoffset:0;stroke-opacity:1"
       transform="matrix(0.70710678,0.70710678,-0.70710678,0.70710678,0,0)" />
    <rect
       style="fill:#fee011;fill-opacity:1;stroke:none;stroke-width:8;stroke-linejoin:miter;stroke-miterlimit:4;stroke-dasharray:none;stroke-dashoffset:0;stroke-opacity:1"
       id="rect4789"
       width="552"
       height="552"
       x="-370.69937"
       y="96.692451"
       rx="16"
       ry="16"
       transform="matrix(0.70710678,0.70710678,-0.70710678,0.70710678,0,0)" />
    <path
       d="m -433.38971,79.223396 c 9.9935,-12.46001 19.67367,-22.55785 28.49293,-27.37252 12.89181,-7.03575 25.7704,-6.09595 37.9115,0.10725 6.8128,3.48259 12.35853,10.07807 19.4479,16.82877 14.24918,13.56914 38.32255,20.80244 59.4186,32.751634 16.77517,9.49953 25.70234,34.64252 49.59238,34.64252 17.77986,-0.002 7.24177,-34.27845 11.62747,-60.268094 0.71954,-4.27281 5.23235,-5.79962 7.91909,-9.10442 2.08842,-2.57385 2.66122,-7.06961 4.49859,-9.34713 4.76093,-5.90404 7.34607,-10.89087 18.63781,-10.89087 4.68484,0 10.38276,5.80809 20.19273,7.39982 13.44225,2.17591 31.94166,0.71119 41.77149,4.60018 5.19849,2.05738 12.76763,6.48823 13.37994,12.66603 0.12417,1.22202 -3.03939,-0.13275 -3.25952,1.09219 -0.33596,1.84572 -1.24471,2.99154 -3.82691,5.00377 -5.17885,4.03291 -12.58137,4.36876 -17.72906,6.61806 -6.19484,2.70649 -11.55973,8.05173 -16.90227,10.47035 -4.71014,2.13359 -9.85219,-0.60959 -12.58701,4.39135 -1.85972,3.403584 -1.53528,13.786444 -1.53528,19.744114 0,4.11759 -4.38277,8.13923 -4.93592,12.15804 -3.86935,28.12041 -21.18343,52.31512 -50.6953,52.31512 -8.65851,0 -18.59536,2.72343 -29.48635,5.54563 -18.14674,4.70179 -37.52734,11.33114 -37.84637,30.38099 1.03022,10.33208 8.62194,85.99807 9.42616,98.08274 0.40639,6.11006 5.69813,11.67545 10.56631,15.48824 3.3302,2.61053 7.23048,3.58701 9.66615,4.2587 10.23894,2.81937 8.11936,8.15615 4.13735,8.61335 -3.5194,0.4064 -12.29351,0.0621 -29.46377,0.20614 -4.91628,0.0395 -21.48553,-70.61428 -24.24,-84.64625 -10.59453,-53.96611 -12.22847,-12.77046 -20.72894,13.14298 -3.50518,10.69331 -8.55985,36.92285 -7.01035,51.12416 0.27364,2.51457 2.65287,2.56255 4.07233,4.41392 1.86829,2.4412 8.13357,2.81655 11.31137,3.81561 2.07714,0.65475 4.70179,10.43368 -8.17016,10.37723 l -22.18813,-0.1016 c -4.46201,-0.0203 -0.20546,-19.21636 -0.20546,-27.15803 0,-16.82314 4.85689,-70.77796 10.07231,-86.80805 12.34996,-37.95013 5.3877,-26.11382 -26.93213,-26.11382 -33.82418,0 -40.73936,-18.41768 -47.66792,-14.27187 -4.29816,2.56821 -5.54286,17.72906 -17.3875,45.17496 -3.7282,8.64158 -5.68395,20.0348 -5.39607,29.87299 0.19418,6.73095 2.78538,12.79303 4.31795,19.00469 3.88339,15.75635 12.16083,26.66133 19.64252,38.81372 4.32066,7.01599 14.76849,4.86265 16.60585,9.27375 1.87665,4.50988 4.25294,9.16368 1.54927,14.50611 l -21.40925,0.54469 -6.19191,-0.0339 c -3.58681,-0.0158 -7.89086,-9.64346 -10.78073,-14.94355 -1.61997,-2.97178 -0.22358,-10.93603 -1.90785,-14.15616 -8.73749,-16.68202 -17.81937,-35.30572 -21.60676,-41.22952 -3.06195,-4.79774 -8.81659,-10.44496 -8.37333,-14.6698 1.13451,-10.78927 12.95956,-20.86734 13.20494,-31.9473 1.01602,-45.71682 -30.64914,24.52774 -32.67818,38.71494 -1.59467,11.17309 -2.72058,49.22763 7.95297,57.8918 2.70078,2.19284 15.97071,2.32266 18.09594,5.74035 1.92745,3.09878 5.81084,6.03668 6.84665,10.17121 0.23708,0.93414 1.63397,2.873 0.63785,2.86735 l -37.39139,-0.14382 c -3.03377,-0.0113 -8.58521,-15.17779 -10.47036,-18.71683 -0.33307,-0.62371 -0.55886,-2.63875 -0.57575,-3.34149 -0.34998,-14.29726 -0.32178,-22.85417 -0.65185,-32.83629 -0.11059,-3.37253 -2.44401,-5.86736 -3.67181,-8.1223 -6.1693,-11.34241 -3.27934,-21.01128 0.10389,-30.65191 3.46003,-9.8523 9.9935,-19.0188 11.2267,-29.56537 1.1262,-9.61805 3.6097,-56.22387 -7.81747,-43.53244 -2.07423,2.30292 -0.89454,17.27751 -1.76947,24.05362 -0.52485,4.06396 -3.99347,2.97742 -4.9079,1.79491 -0.63215,-0.82126 -1.2445,-13.00469 -0.96513,-28.08371 0.34158,-18.47976 6.2765,-40.66791 18.97368,-49.46188 l 68.06293,-47.144854 z"
       style="fill:#000000;fill-opacity:1;fill-rule:evenodd;stroke:none"
       id="path4496"
       inkscape:connector-curvature="0"
       sodipodi:nodetypes="cccccccccsccccccccscsccccccccccccccscsccccccccccccccccccccccccccccccccc" />
  </g>
</svg>
