<?xml version="1.0" encoding="UTF-8" standalone="no"?>
<!-- Created with Inkscape (http://www.inkscape.org/) -->

<svg
   xmlns:dc="http://purl.org/dc/elements/1.1/"
   xmlns:cc="http://creativecommons.org/ns#"
   xmlns:rdf="http://www.w3.org/1999/02/22-rdf-syntax-ns#"
   xmlns:svg="http://www.w3.org/2000/svg"
   xmlns="http://www.w3.org/2000/svg"
   xmlns:sodipodi="http://sodipodi.sourceforge.net/DTD/sodipodi-0.dtd"
   xmlns:inkscape="http://www.inkscape.org/namespaces/inkscape"
   version="1.0"
   width="123.63"
   height="95.102501"
   id="svg2"
   xml:space="preserve"
   inkscape:version="0.48.2 r9819"
   sodipodi:docname="Australia G9-69.svg"><metadata
     id="metadata22"><rdf:RDF><cc:Work
         rdf:about=""><dc:format>image/svg+xml</dc:format><dc:type
           rdf:resource="http://purl.org/dc/dcmitype/StillImage" /><dc:title></dc:title></cc:Work></rdf:RDF></metadata><sodipodi:namedview
     pagecolor="#ffffff"
     bordercolor="#666666"
     borderopacity="1"
     objecttolerance="10"
     gridtolerance="10"
     guidetolerance="10"
     inkscape:pageopacity="0"
     inkscape:pageshadow="2"
     inkscape:window-width="1280"
     inkscape:window-height="1004"
     id="namedview20"
     showgrid="false"
     fit-margin-top="0"
     fit-margin-left="0"
     fit-margin-right="0"
     fit-margin-bottom="0"
     inkscape:zoom="3.9513156"
     inkscape:cx="46.81946"
     inkscape:cy="34.621015"
     inkscape:window-x="-8"
     inkscape:window-y="-8"
     inkscape:window-maximized="1"
     inkscape:current-layer="svg2" /><defs
     id="defs5"><clipPath
       id="clipPath19"><path
         d="m 0,0 3687.89,0 0,2386.86 L 0,2386.86 0,0 z"
         id="path21"
         inkscape:connector-curvature="0" /></clipPath></defs><path
     inkscape:connector-curvature="0"
     d="m 14.263749,0 95.102491,0 c 7.85125,0 14.26375,6.4125 14.26375,14.26375 l 0,66.575001 c 0,7.85125 -6.4125,14.26375 -14.26375,14.26375 l -95.102491,0 C 6.412499,95.102501 0,88.690001 0,80.838751 L 0,14.26375 C 0,6.4125 6.412499,0 14.263749,0"
     style="fill:#c0111e;fill-opacity:1;fill-rule:evenodd;stroke:none"
     id="path10834" /><path
     inkscape:connector-curvature="0"
     d="m 14.252499,2.2825 95.126241,0 c 6.59375,0 11.96875,5.375 11.96875,11.96875 l 0,66.598751 c 0,6.59375 -5.375,11.96875 -11.96875,11.96875 l -95.126241,0 c -6.59375,0 -11.96875,-5.375 -11.96875,-11.96875 l 0,-66.598751 c 0,-6.59375 5.375,-11.96875 11.96875,-11.96875"
     style="fill:#ffffff;fill-opacity:1;fill-rule:evenodd;stroke:none"
     id="path10838" /><path
     inkscape:connector-curvature="0"
     d="m 14.274999,4.56625 95.078741,0 c 5.35,0 9.71,4.36 9.71,9.71125 l 0,66.550001 c 0,5.34875 -4.36,9.70875 -9.71,9.70875 l -95.078741,0 c -5.35,0 -9.71125,-4.36 -9.71125,-9.70875 l 0,-66.550001 c 0,-5.35125 4.36125,-9.71125 9.71125,-9.71125"
     style="fill:#c0111e;fill-opacity:1;fill-rule:evenodd;stroke:none"
     id="path10842" /><path
     inkscape:connector-curvature="0"
     d="m 15.024999,13.3125 7.31875,0 c 2.33,0 4.45625,2.18625 4.45625,4.52875 0,1.545 -0.77375,3.80375 -2.48875,4.25125 l 2.83875,6.436251 -2.83875,0 -2.72875,-5.930001 -3.97375,0 0,5.930001 -2.58375,0 0,-15.216251 z m 2.58375,2.6325 0,4.02125 4.735,0 c 1.0375,0 1.9675,-0.94125 1.9675,-1.9925 0,-0.725 -1.17125,-2.02875 -1.9675,-2.02875 l -4.735,0"
     style="fill:#ffffff;fill-opacity:1;fill-rule:evenodd;stroke:none"
     id="path10846" /><path
     inkscape:connector-curvature="0"
     d="m 31.617499,13.3125 10.905,0 0,2.6325 -8.30875,0 0,3.16375 4.60125,0 0,2.6325 -4.60125,0 0,4.155001 8.58625,0 0,2.6325 -11.1825,0 0,-15.216251"
     style="fill:#ffffff;fill-opacity:1;fill-rule:evenodd;stroke:none"
     id="path10850" /><path
     inkscape:connector-curvature="0"
     d="m 47.449999,13.3125 4.93875,0 c 4.4325,0 7.18625,3.7075 7.18625,7.68 0,3.805001 -2.74125,7.536251 -6.7875,7.536251 l -5.3375,0 0,-15.216251 z m 2.6325,12.583751 2.85,0 c 2.5725,0 4.0575,-2.5725 4.0575,-4.927501 0,-2.15 -1.6175,-5.02375 -4.0575,-5.02375 l -2.85,0 0,9.951251"
     style="fill:#ffffff;fill-opacity:1;fill-rule:evenodd;stroke:none"
     id="path10854" /><path
     inkscape:connector-curvature="0"
     d="m 64.042499,22.88875 0,-9.57625 2.5125,0 0,9.28625 c 0,1.763751 1.835,3.345001 3.67,3.345001 1.7275,0 3.2975,-1.44875 3.2975,-3.212501 l 0,-9.41875 2.645,0 0,9.41875 c 0,3.212501 -2.9225,5.797501 -6.05,5.797501 -2.9225,0 -6.075,-2.585 -6.075,-5.640001"
     style="fill:#ffffff;fill-opacity:1;fill-rule:evenodd;stroke:none"
     id="path10858" /><path
     inkscape:connector-curvature="0"
     d="m 90.404999,17.70875 c -1.0025,-1.135 -1.7875,-1.76375 -3.405,-1.76375 -1.55875,0 -3.575,1.6425 -3.59875,4.04625 -0.025,3.01875 0.74875,6.086251 3.73125,6.002501 2.415,-0.06125 2.52375,-0.93 3.405,-1.86 l 2.27125,1.135 c -1.05125,1.95625 -3.17625,3.26 -5.39875,3.26 -5,0 -6.775,-3.96125 -6.72625,-8.561251 0.02375,-3.165 2.94625,-6.655 6.21875,-6.655 2.8625,0 4.42,1.26875 5.90625,3.11625 l -2.40375,1.28"
     style="fill:#ffffff;fill-opacity:1;fill-rule:evenodd;stroke:none"
     id="path10862" /><path
     inkscape:connector-curvature="0"
     d="m 97.408749,13.3125 10.905001,0 0,2.6325 -8.30875,0 0,3.16375 4.60125,0 0,2.6325 -4.60125,0 0,4.155001 8.58625,0 0,2.6325 -11.182501,0 0,-15.216251"
     style="fill:#ffffff;fill-opacity:1;fill-rule:evenodd;stroke:none"
     id="path10866" /><path
     inkscape:connector-curvature="0"
     d="m 37.682499,66.576251 2.39125,0 7.08875,10.06 0,-10.06 2.645,0 0,15.21625 -2.3675,0 -7.1125,-10.3375 0,10.3375 -2.645,0 0,-15.21625"
     style="fill:#ffffff;fill-opacity:1;fill-rule:evenodd;stroke:none"
     id="path10870" /><path
     inkscape:connector-curvature="0"
     d="m 60.543749,81.792501 c -4.16625,0 -6.2675,-3.4175 -6.2675,-7.6075 0,-4.17875 1.96875,-7.60875 6.30375,-7.60875 4.335,0 6.29125,3.43 6.29125,7.60875 0,4.19 -2.17375,7.6075 -6.3275,7.6075 z m 0.0125,-2.5725 c 2.45125,0 3.73125,-2.27 3.73125,-5.035 0,-2.76625 -1.16,-5.03625 -3.7075,-5.03625 -2.56,0 -3.72,2.27 -3.72,5.03625 0,2.765 1.25625,5.035 3.69625,5.035"
     style="fill:#ffffff;fill-opacity:1;fill-rule:evenodd;stroke:none"
     id="path10874" /><path
     inkscape:connector-curvature="0"
     d="m 69.998749,66.576251 2.59625,0 1.75125,9.19 2.25875,-9.19 2.64375,0 2.33125,9.28625 1.75125,-9.28625 2.59625,0 -2.74125,15.21625 -2.82625,0 -2.37875,-9.5525 -2.3675,9.5525 -2.87375,0 -2.74125,-15.21625"
     style="fill:#ffffff;fill-opacity:1;fill-rule:evenodd;stroke:none"
     id="path10878" /><path
     inkscape:connector-curvature="0"
     d="m 23.418749,52.250001 2.04125,-1.485 c 1.1225,1.135 2.22125,1.85875 3.88875,1.85875 1.21875,0 3.3925,-0.37375 3.3925,-1.9925 0,-1.59375 -2.30625,-1.59375 -3.3925,-1.95625 -2.53625,-0.80875 -5.29,-1.3525 -5.29,-4.565 0,-2.81375 2.9825,-4.16625 5.435,-4.16625 1.81125,0 3.8875,0.99125 5.1075,2.27125 l -1.86,1.7625 c -1.07375,-1.1225 -2.1975,-1.38875 -3.6825,-1.38875 -0.89375,0 -2.38,0.39875 -2.38,1.51 0,1.67875 3.455,2.125 3.805,2.23375 1.46125,0.4225 4.89,0.99 4.89,4.155 0,3.22375 -3.3925,4.6725 -6.15875,4.6725 -1.81125,0 -4.92625,-1.30375 -5.79625,-2.91"
     style="fill:#ffffff;fill-opacity:1;fill-rule:evenodd;stroke:none"
     id="path10882" /><path
     inkscape:connector-curvature="0"
     d="m 39.829999,39.945001 7.36625,0 c 2.3075,0 4.75875,1.9925 4.75875,4.39625 0,2.43875 -1.83625,4.89 -4.39625,4.89 l -5.08375,0 0,5.93 -2.645,0 0,-15.21625 z m 2.52375,2.6325 0,4.02125 4.8425,0 c 1.2325,0 2.11375,-0.6875 2.11375,-1.9925 0,-1.15875 -1.12375,-2.02875 -2.23375,-2.02875 l -4.7225,0"
     style="fill:#ffffff;fill-opacity:1;fill-rule:evenodd;stroke:none"
     id="path10886" /><path
     inkscape:connector-curvature="0"
     d="m 56.423749,39.945001 10.905,0 0,2.6325 -8.30875,0 0,3.16375 4.60125,0 0,2.6325 -4.60125,0 0,4.155 8.58625,0 0,2.6325 -11.1825,0 0,-15.21625"
     style="fill:#ffffff;fill-opacity:1;fill-rule:evenodd;stroke:none"
     id="path10890" /><path
     inkscape:connector-curvature="0"
     d="m 72.254999,39.945001 10.905,0 0,2.6325 -8.30875,0 0,3.16375 4.60125,0 0,2.6325 -4.60125,0 0,4.155 8.58625,0 0,2.6325 -11.1825,0 0,-15.21625"
     style="fill:#ffffff;fill-opacity:1;fill-rule:evenodd;stroke:none"
     id="path10894" /><path
     inkscape:connector-curvature="0"
     d="m 88.087499,39.945001 4.93875,0 c 4.4325,0 7.186251,3.7075 7.186251,7.68 0,3.805 -2.741251,7.53625 -6.787501,7.53625 l -5.3375,0 0,-15.21625 z m 2.6325,12.58375 2.85,0 c 2.5725,0 4.0575,-2.5725 4.0575,-4.9275 0,-2.15 -1.6175,-5.02375 -4.0575,-5.02375 l -2.85,0 0,9.95125"
     style="fill:#ffffff;fill-opacity:1;fill-rule:evenodd;stroke:none"
     id="path10898" /></svg>