<?xml version="1.0" encoding="UTF-8" standalone="no"?>
<!-- Created with Inkscape (http://www.inkscape.org/) -->
<svg
   xmlns:svg="http://www.w3.org/2000/svg"
   xmlns="http://www.w3.org/2000/svg"
   version="1.0"
   width="195.81433"
   height="142.11752"
   id="svg2">
  <defs
     id="defs4" />
  <g
     transform="translate(-393.6813,-398.66385)"
     id="layer1">
    <rect
       width="188.81433"
       height="135.11752"
       x="397.1813"
       y="402.16385"
       id="rect3229"
       style="opacity:1;fill:#ffff00;fill-opacity:1;fill-rule:evenodd;stroke:#000000;stroke-width:7;stroke-linecap:round;stroke-miterlimit:4;stroke-dasharray:none;stroke-opacity:1" />
    <rect
       width="163.7169"
       height="40.85627"
       x="409.43817"
       y="414.12891"
       id="rect3227"
       style="opacity:1;fill:#000000;fill-opacity:1;fill-rule:evenodd;stroke:none;stroke-width:1.5;stroke-linecap:round;stroke-miterlimit:4;stroke-dasharray:none;stroke-opacity:1" />
    <path
       d="M 469.76146,407.0288 L 473.27137,407.91533 C 472.53559,410.79804 471.21184,412.99625 469.30011,414.50997 C 467.38834,416.02369 465.05142,416.78055 462.28934,416.78055 C 459.43075,416.78055 457.10589,416.19859 455.31476,415.03465 C 453.52362,413.87071 452.16067,412.18511 451.2259,409.97785 C 450.29113,407.7706 449.82375,405.40051 449.82375,402.86757 C 449.82375,400.1055 450.35144,397.69621 451.40682,395.6397 C 452.4622,393.58323 453.96386,392.02126 455.91181,390.95379 C 457.85974,389.88637 460.00367,389.35265 462.34362,389.35262 C 464.99714,389.35265 467.22852,390.0281 469.03777,391.37896 C 470.84698,392.72988 472.10741,394.62957 472.81906,397.07804 L 469.36343,397.89219 C 468.74828,395.96237 467.85572,394.5572 466.68577,393.67668 C 465.51579,392.79622 464.04428,392.35597 462.27125,392.35595 C 460.23284,392.35597 458.52915,392.84446 457.16018,393.82142 C 455.79118,394.79843 454.82928,396.11012 454.27445,397.7565 C 453.71962,399.40291 453.4422,401.10057 453.44221,402.84948 C 453.4422,405.105 453.77088,407.07404 454.42824,408.75662 C 455.08558,410.43921 456.1078,411.69662 457.49488,412.52886 C 458.88195,413.36111 460.38361,413.77723 461.99987,413.77723 C 463.96588,413.77723 465.63037,413.21034 466.99334,412.07656 C 468.35628,410.94278 469.27898,409.26019 469.76146,407.0288 L 469.76146,407.0288 z M 474.70066,416.32825 L 484.88663,389.80493 L 488.66792,389.80493 L 499.5233,416.32825 L 495.5249,416.32825 L 492.43112,408.29526 L 481.34054,408.29526 L 478.42768,416.32825 L 474.70066,416.32825 z M 482.35371,405.43668 L 491.34558,405.43668 L 488.57746,398.09121 C 487.73314,395.85984 487.10594,394.02649 486.69586,392.59115 C 486.35813,394.29184 485.8817,395.98046 485.26657,397.65699 L 482.35371,405.43668 z M 519.76859,389.80493 L 523.2785,389.80493 L 523.2785,405.12911 C 523.27847,407.79472 522.97693,409.91152 522.37388,411.47951 C 521.77078,413.04751 520.68223,414.32302 519.10822,415.30603 C 517.53417,416.28905 515.46864,416.78055 512.91161,416.78055 C 510.42692,416.78055 508.39455,416.35237 506.8145,415.496 C 505.23443,414.63963 504.10668,413.40031 503.43124,411.77803 C 502.75579,410.15576 502.41807,407.93946 502.41807,405.12911 L 502.41807,389.80493 L 505.92798,389.80493 L 505.92798,405.11102 C 505.92797,407.41478 506.14206,409.11244 506.57026,410.204 C 506.99843,411.29558 507.73418,412.13687 508.77752,412.72788 C 509.82083,413.3189 511.09633,413.6144 512.60404,413.6144 C 515.18519,413.6144 517.02457,413.02942 518.12219,411.85945 C 519.21977,410.68949 519.76857,408.44001 519.76859,405.11102 L 519.76859,389.80493 z M 535.88883,416.32825 L 535.88883,392.9349 L 527.15025,392.9349 L 527.15025,389.80493 L 548.1735,389.80493 L 548.1735,392.9349 L 539.39873,392.9349 L 539.39873,416.32825 L 535.88883,416.32825 z M 552.38901,416.32825 L 552.38901,389.80493 L 555.89892,389.80493 L 555.89892,416.32825 L 552.38901,416.32825 z M 561.00095,403.41034 C 561.00094,399.0079 562.18297,395.56132 564.54704,393.07059 C 566.91109,390.57991 569.96266,389.33456 573.70174,389.33453 C 576.15022,389.33456 578.35748,389.91954 580.32353,391.08948 C 582.28953,392.25948 583.78818,393.8908 584.81946,395.98345 C 585.8507,398.07615 586.36633,400.44925 586.36635,403.10277 C 586.36633,405.79251 585.82356,408.19878 584.73805,410.3216 C 583.65248,412.44444 582.11464,414.05163 580.12451,415.1432 C 578.13434,416.23477 575.98739,416.78055 573.68365,416.78055 C 571.1869,416.78055 568.95552,416.17748 566.9895,414.97132 C 565.02346,413.76517 563.53386,412.11878 562.5207,410.03213 C 561.50753,407.94549 561.00094,405.73823 561.00095,403.41034 L 561.00095,403.41034 z M 564.61941,403.46462 C 564.6194,406.66094 565.47878,409.17878 567.19756,411.01816 C 568.91632,412.85754 571.07232,413.77723 573.66556,413.77723 C 576.30702,413.77723 578.48111,412.8485 580.18783,410.99102 C 581.89452,409.13355 582.74787,406.49811 582.74789,403.08468 C 582.74787,400.92568 582.38301,399.04107 581.65331,397.43084 C 580.92357,395.82064 579.85612,394.57227 578.45097,393.68573 C 577.04579,392.79923 575.46874,392.35597 573.71984,392.35595 C 571.23515,392.35597 569.09724,393.20932 567.30611,394.91601 C 565.51497,396.62273 564.6194,399.47227 564.61941,403.46462 L 564.61941,403.46462 z M 590.83516,416.32825 L 590.83516,389.80493 L 594.43552,389.80493 L 608.3666,410.62917 L 608.3666,389.80493 L 611.73177,389.80493 L 611.73177,416.32825 L 608.1314,416.32825 L 594.20032,395.48591 L 594.20032,416.32825 L 590.83516,416.32825 z"
       transform="scale(0.9263259,1.0795337)"
       id="text2453"
       style="font-size:37.05303574px;font-style:normal;font-weight:normal;fill:#ffff00;fill-opacity:1;stroke:#ffff00;stroke-width:1.5;stroke-linecap:butt;stroke-linejoin:miter;stroke-miterlimit:4;stroke-opacity:1;font-family:Bitstream Vera Sans" />
    <path
       d="M 471.78346,448.57977 L 471.78346,438.02132 L 475.74468,438.02132 C 476.55132,438.02133 477.19832,438.12817 477.68567,438.34182 C 478.17302,438.5555 478.55473,438.8844 478.83083,439.32852 C 479.1069,439.77267 479.24495,440.23721 479.24495,440.72215 C 479.24495,441.1735 479.12251,441.59843 478.87764,441.99695 C 478.63276,442.39548 478.26304,442.71717 477.7685,442.96204 C 478.40709,443.14931 478.89804,443.4686 479.24135,443.91994 C 479.58465,444.37128 479.7563,444.90425 479.75631,445.51883 C 479.7563,446.01339 479.65187,446.47313 479.44301,446.89806 C 479.23414,447.32299 478.97606,447.65069 478.66878,447.88116 C 478.36147,448.11163 477.97616,448.28568 477.51282,448.40332 C 477.04947,448.52095 476.4817,448.57977 475.8095,448.57977 L 471.78346,448.57977 z M 473.18069,442.45789 L 475.46379,442.45789 C 476.08318,442.45789 476.52731,442.41708 476.7962,442.33545 C 477.1515,442.22982 477.41919,442.05457 477.59925,441.80969 C 477.7793,441.56482 477.86932,441.25753 477.86933,440.8878 C 477.86932,440.5373 477.7853,440.22881 477.61725,439.96232 C 477.44919,439.69585 477.20912,439.51339 476.89703,439.41495 C 476.58493,439.31653 476.04956,439.26732 475.29094,439.26731 L 473.18069,439.26731 L 473.18069,442.45789 z M 473.18069,447.33379 L 475.8095,447.33379 C 476.26083,447.33379 476.57773,447.31699 476.76019,447.28337 C 477.08188,447.22576 477.35076,447.12973 477.56684,446.99529 C 477.7829,446.86085 477.96055,446.66519 478.0998,446.4083 C 478.23904,446.15143 478.30866,445.85494 478.30867,445.51883 C 478.30866,445.12511 478.20783,444.78301 478.00617,444.49251 C 477.8045,444.20203 477.52482,443.99797 477.16711,443.88033 C 476.8094,443.76269 476.29444,443.70388 475.62224,443.70387 L 473.18069,443.70387 L 473.18069,447.33379 z M 481.72252,448.57977 L 481.72252,438.02132 L 489.35687,438.02132 L 489.35687,439.26731 L 483.11975,439.26731 L 483.11975,442.5011 L 488.96075,442.5011 L 488.96075,443.73988 L 483.11975,443.73988 L 483.11975,447.33379 L 489.60174,447.33379 L 489.60174,448.57977 L 481.72252,448.57977 z M 493.39011,448.57977 L 490.58845,438.02132 L 492.02169,438.02132 L 493.62778,444.94265 C 493.80063,445.66768 493.94948,446.3879 494.07432,447.10332 C 494.3432,445.97497 494.50165,445.32437 494.54967,445.15152 L 496.55908,438.02132 L 498.2444,438.02132 L 499.75687,443.36537 C 500.13618,444.69058 500.40986,445.93656 500.57792,447.10332 C 500.71235,446.43592 500.88761,445.67008 501.10368,444.80581 L 502.76019,438.02132 L 504.16463,438.02132 L 501.26933,448.57977 L 499.92252,448.57977 L 497.69703,440.5349 C 497.50977,439.8627 497.39934,439.44977 497.36573,439.29611 C 497.25529,439.78107 497.15206,440.194 497.05604,440.5349 L 494.81615,448.57977 L 493.39011,448.57977 z M 504.30147,448.57977 L 508.35632,438.02132 L 509.86158,438.02132 L 514.18291,448.57977 L 512.59122,448.57977 L 511.35964,445.38199 L 506.94468,445.38199 L 505.78512,448.57977 L 504.30147,448.57977 z M 507.348,444.24404 L 510.92751,444.24404 L 509.82557,441.31994 C 509.48946,440.43167 509.23978,439.70185 509.07654,439.13046 C 508.94209,439.80748 508.75243,440.47969 508.50756,441.14708 L 507.348,444.24404 z M 515.33526,448.57977 L 515.33526,438.02132 L 520.01671,438.02132 C 520.95779,438.02133 521.67321,438.11616 522.16297,438.30581 C 522.65271,438.49548 523.04403,438.83038 523.33693,439.31052 C 523.62981,439.79068 523.77625,440.32124 523.77626,440.90221 C 523.77625,441.65125 523.53378,442.28264 523.04884,442.79639 C 522.56388,443.31016 521.81485,443.63666 520.80175,443.77589 C 521.17145,443.95355 521.45234,444.12881 521.64441,444.30166 C 522.05252,444.67618 522.43904,445.14432 522.80396,445.70609 L 524.64053,448.57977 L 522.88319,448.57977 L 521.48596,446.3831 C 521.07783,445.7493 520.74172,445.26436 520.47765,444.92825 C 520.21356,444.59215 519.97709,444.35688 519.76823,444.22243 C 519.55936,444.08799 519.34689,443.99437 519.13083,443.94154 C 518.97238,443.90794 518.7131,443.89113 518.35299,443.89113 L 516.73249,443.89113 L 516.73249,448.57977 L 515.33526,448.57977 z M 516.73249,442.68116 L 519.73582,442.68116 C 520.37441,442.68116 520.87376,442.61514 521.23388,442.4831 C 521.59398,442.35106 521.86767,442.1398 522.05493,441.8493 C 522.24218,441.55882 522.33581,441.24312 522.33582,440.90221 C 522.33581,440.40286 522.15456,439.99234 521.79205,439.67063 C 521.42953,439.34894 520.85696,439.18809 520.07432,439.18808 L 516.73249,439.18808 L 516.73249,442.68116 z M 526.00175,448.57977 L 526.00175,438.02132 L 533.6361,438.02132 L 533.6361,439.26731 L 527.39898,439.26731 L 527.39898,442.5011 L 533.23998,442.5011 L 533.23998,443.73988 L 527.39898,443.73988 L 527.39898,447.33379 L 533.88098,447.33379 L 533.88098,448.57977 L 526.00175,448.57977 z M 447.98733,467.01745 L 447.98733,456.459 L 451.94855,456.459 C 452.75519,456.45901 453.40219,456.56584 453.88955,456.7795 C 454.37689,456.99317 454.75861,457.32207 455.0347,457.7662 C 455.31078,458.21035 455.44882,458.67489 455.44883,459.15983 C 455.44882,459.61118 455.32638,460.03611 455.08151,460.43462 C 454.83663,460.83315 454.46692,461.15485 453.97237,461.39972 C 454.61096,461.58698 455.10191,461.90628 455.44523,462.35761 C 455.78852,462.80896 455.96018,463.34192 455.96019,463.95651 C 455.96018,464.45106 455.85574,464.9108 455.64689,465.33573 C 455.43802,465.76066 455.17994,466.08836 454.87265,466.31883 C 454.56535,466.54931 454.18003,466.72336 453.71669,466.841 C 453.25335,466.95863 452.68557,467.01745 452.01337,467.01745 L 447.98733,467.01745 z M 449.38456,460.89556 L 451.66766,460.89556 C 452.28705,460.89557 452.73119,460.85476 453.00007,460.77313 C 453.35538,460.6675 453.62306,460.49225 453.80312,460.24737 C 453.98317,460.0025 454.0732,459.6952 454.0732,459.32548 C 454.0732,458.97498 453.98917,458.66649 453.82113,458.4 C 453.65307,458.13352 453.41299,457.95107 453.1009,457.85263 C 452.7888,457.75421 452.25344,457.70499 451.49481,457.70498 L 449.38456,457.70498 L 449.38456,460.89556 z M 449.38456,465.77147 L 452.01337,465.77147 C 452.4647,465.77147 452.7816,465.75466 452.96406,465.72105 C 453.28576,465.66343 453.55464,465.5674 453.77071,465.43296 C 453.98677,465.29852 454.16442,465.10286 454.30368,464.84598 C 454.44291,464.5891 454.51253,464.29261 454.51254,463.95651 C 454.51253,463.56279 454.4117,463.22068 454.21005,462.93019 C 454.00838,462.63971 453.72869,462.43564 453.37099,462.318 C 453.01327,462.20037 452.49831,462.14155 451.82611,462.14155 L 449.38456,462.14155 L 449.38456,465.77147 z M 464.82611,456.459 L 466.22334,456.459 L 466.22334,462.55928 C 466.22334,463.62041 466.1033,464.46307 465.86323,465.08726 C 465.62315,465.71145 465.18982,466.2192 464.56323,466.61052 C 463.93663,467.00184 463.11438,467.1975 462.09647,467.1975 C 461.10737,467.1975 460.29832,467.02705 459.66933,466.68615 C 459.04033,466.34524 458.59139,465.85189 458.32251,465.20609 C 458.05363,464.5603 457.91919,463.67802 457.91919,462.55928 L 457.91919,456.459 L 459.31642,456.459 L 459.31642,462.55207 C 459.31642,463.46916 459.40164,464.14497 459.5721,464.5795 C 459.74255,465.01403 460.03544,465.34894 460.45077,465.58421 C 460.86609,465.81948 461.37385,465.93712 461.97404,465.93712 C 463.00155,465.93712 463.73377,465.70425 464.17071,465.2385 C 464.60764,464.77276 464.82611,463.87729 464.82611,462.55207 L 464.82611,456.459 z M 468.57847,467.01745 L 468.57847,456.459 L 473.25991,456.459 C 474.20099,456.45901 474.91641,456.55384 475.40617,456.74349 C 475.89591,456.93315 476.28723,457.26806 476.58013,457.7482 C 476.87301,458.22835 477.01946,458.75892 477.01947,459.33989 C 477.01946,460.08892 476.77698,460.72032 476.29204,461.23407 C 475.80709,461.74783 475.05806,462.07433 474.04495,462.21357 C 474.41466,462.39123 474.69555,462.56648 474.88761,462.73933 C 475.29573,463.11385 475.68225,463.582 476.04717,464.14376 L 477.88373,467.01745 L 476.12639,467.01745 L 474.72916,464.82077 C 474.32103,464.18698 473.98493,463.70203 473.72085,463.36593 C 473.45677,463.02983 473.22029,462.79455 473.01143,462.66011 C 472.80257,462.52567 472.5901,462.43204 472.37404,462.37922 C 472.21559,462.34562 471.95631,462.32881 471.5962,462.32881 L 469.9757,462.32881 L 469.9757,467.01745 L 468.57847,467.01745 z M 469.9757,461.11883 L 472.97902,461.11883 C 473.61762,461.11884 474.11697,461.05282 474.47709,460.92077 C 474.83719,460.78874 475.11087,460.57747 475.29814,460.28698 C 475.48539,459.99649 475.57902,459.6808 475.57903,459.33989 C 475.57902,458.84054 475.39776,458.43001 475.03526,458.10831 C 474.67274,457.78662 474.10016,457.62577 473.31753,457.62576 L 469.9757,457.62576 L 469.9757,461.11883 z M 479.24495,467.01745 L 479.24495,456.459 L 486.8793,456.459 L 486.8793,457.70498 L 480.64218,457.70498 L 480.64218,460.93878 L 486.48318,460.93878 L 486.48318,462.17756 L 480.64218,462.17756 L 480.64218,465.77147 L 487.12418,465.77147 L 487.12418,467.01745 L 479.24495,467.01745 z M 487.90922,467.01745 L 491.96407,456.459 L 493.46933,456.459 L 497.79066,467.01745 L 496.19897,467.01745 L 494.96739,463.81966 L 490.55244,463.81966 L 489.39288,467.01745 L 487.90922,467.01745 z M 490.95576,462.68171 L 494.53526,462.68171 L 493.43332,459.75761 C 493.09721,458.86935 492.84754,458.13952 492.68429,457.56814 C 492.54985,458.24516 492.36019,458.91736 492.11532,459.58476 L 490.95576,462.68171 z M 505.84995,456.459 L 507.24718,456.459 L 507.24718,462.55928 C 507.24717,463.62041 507.12713,464.46307 506.88707,465.08726 C 506.64698,465.71145 506.21365,466.2192 505.58707,466.61052 C 504.96047,467.00184 504.13821,467.1975 503.12031,467.1975 C 502.1312,467.1975 501.32215,467.02705 500.69316,466.68615 C 500.06416,466.34524 499.61522,465.85189 499.34634,465.20609 C 499.07746,464.5603 498.94302,463.67802 498.94302,462.55928 L 498.94302,456.459 L 500.34025,456.459 L 500.34025,462.55207 C 500.34025,463.46916 500.42547,464.14497 500.59593,464.5795 C 500.76638,465.01403 501.05927,465.34894 501.4746,465.58421 C 501.88992,465.81948 502.39768,465.93712 502.99787,465.93712 C 504.02538,465.93712 504.7576,465.70425 505.19454,465.2385 C 505.63147,464.77276 505.84994,463.87729 505.84995,462.55207 L 505.84995,456.459 z M 517.11421,463.31551 L 518.51144,463.66842 C 518.21854,464.81597 517.69158,465.69104 516.93055,466.29363 C 516.16951,466.89621 515.23923,467.1975 514.1397,467.1975 C 513.00174,467.1975 512.07626,466.96583 511.36324,466.50249 C 510.65022,466.03915 510.10765,465.36814 509.73554,464.48947 C 509.36342,463.6108 509.17737,462.66731 509.17737,461.659 C 509.17737,460.55947 509.38743,459.60037 509.80756,458.78171 C 510.22769,457.96307 510.82547,457.34128 511.60091,456.91634 C 512.37635,456.49142 513.22981,456.27895 514.1613,456.27894 C 515.21762,456.27895 516.10589,456.54784 516.82612,457.08559 C 517.54634,457.62337 518.04809,458.3796 518.33139,459.35429 L 516.95576,459.67839 C 516.71088,458.91016 516.35557,458.35079 515.88983,458.00027 C 515.42408,457.64977 514.8383,457.47452 514.13249,457.47451 C 513.32104,457.47452 512.64283,457.66898 512.09787,458.05789 C 511.5529,458.44682 511.16998,458.96898 510.94911,459.62437 C 510.72824,460.27978 510.61781,460.95559 510.61781,461.6518 C 510.61781,462.54968 510.74865,463.33352 511.01033,464.00332 C 511.27201,464.67313 511.67893,465.17368 512.23111,465.50498 C 512.78327,465.83629 513.38106,466.00194 514.02446,466.00194 C 514.80709,466.00194 515.4697,465.77627 516.01227,465.32493 C 516.55483,464.87359 516.92214,464.20379 517.11421,463.31551 L 517.11421,463.31551 z M 520.26159,467.01745 L 520.26159,456.459 L 524.94303,456.459 C 525.88411,456.45901 526.59953,456.55384 527.08929,456.74349 C 527.57903,456.93315 527.97035,457.26806 528.26325,457.7482 C 528.55613,458.22835 528.70257,458.75892 528.70258,459.33989 C 528.70257,460.08892 528.4601,460.72032 527.97516,461.23407 C 527.4902,461.74783 526.74117,462.07433 525.72807,462.21357 C 526.09777,462.39123 526.37866,462.56648 526.57073,462.73933 C 526.97885,463.11385 527.36536,463.582 527.73028,464.14376 L 529.56685,467.01745 L 527.80951,467.01745 L 526.41228,464.82077 C 526.00415,464.18698 525.66804,463.70203 525.40397,463.36593 C 525.13988,463.02983 524.90341,462.79455 524.69455,462.66011 C 524.48568,462.52567 524.27322,462.43204 524.05715,462.37922 C 523.8987,462.34562 523.63942,462.32881 523.27931,462.32881 L 521.65882,462.32881 L 521.65882,467.01745 L 520.26159,467.01745 z M 521.65882,461.11883 L 524.66214,461.11883 C 525.30073,461.11884 525.80008,461.05282 526.1602,460.92077 C 526.5203,460.78874 526.79399,460.57747 526.98125,460.28698 C 527.1685,459.99649 527.26213,459.6808 527.26214,459.33989 C 527.26213,458.84054 527.08088,458.43001 526.71837,458.10831 C 526.35585,457.78662 525.78328,457.62577 525.00064,457.62576 L 521.65882,457.62576 L 521.65882,461.11883 z M 529.7397,467.01745 L 533.79455,456.459 L 535.29981,456.459 L 539.62114,467.01745 L 538.02945,467.01745 L 536.79787,463.81966 L 532.38291,463.81966 L 531.22336,467.01745 L 529.7397,467.01745 z M 532.78624,462.68171 L 536.36574,462.68171 L 535.2638,459.75761 C 534.92769,458.86935 534.67802,458.13952 534.51477,457.56814 C 534.38032,458.24516 534.19067,458.91736 533.9458,459.58476 L 532.78624,462.68171 z M 543.43832,467.01745 L 543.43832,457.70498 L 539.95964,457.70498 L 539.95964,456.459 L 548.32862,456.459 L 548.32862,457.70498 L 544.83555,457.70498 L 544.83555,467.01745 L 543.43832,467.01745 z M 549.29372,463.62521 L 550.61173,463.50997 C 550.67415,464.03814 550.81939,464.47147 551.04746,464.80997 C 551.27553,465.14848 551.62964,465.42216 552.10979,465.63102 C 552.58993,465.83989 553.1301,465.94432 553.73029,465.94432 C 554.26325,465.94432 554.73379,465.8651 555.14192,465.70665 C 555.55004,465.5482 555.85374,465.33093 556.053,465.05485 C 556.25226,464.77876 556.35189,464.47747 556.3519,464.15097 C 556.35189,463.81967 556.25586,463.53038 556.06381,463.2831 C 555.87174,463.03583 555.55484,462.82816 555.11311,462.66011 C 554.82982,462.54968 554.20323,462.37803 553.23334,462.14515 C 552.26343,461.91228 551.58403,461.69262 551.19511,461.48615 C 550.69095,461.22207 550.31524,460.89437 550.06796,460.50304 C 549.82068,460.11173 549.69705,459.6736 549.69705,459.18864 C 549.69705,458.65568 549.84829,458.15753 550.15079,457.69418 C 550.45328,457.23085 550.89501,456.87914 551.47599,456.63905 C 552.05697,456.39899 552.70277,456.27895 553.41339,456.27894 C 554.19603,456.27895 554.88624,456.40499 555.48403,456.65706 C 556.08181,456.90915 556.54155,457.28006 556.86325,457.7698 C 557.18494,458.25956 557.3578,458.81413 557.38181,459.43351 L 556.0422,459.53435 C 555.97017,458.86695 555.7265,458.36279 555.31118,458.02188 C 554.89584,457.68098 554.28245,457.51053 553.47101,457.51052 C 552.62594,457.51053 552.01016,457.66538 551.62364,457.97507 C 551.23712,458.28477 551.04386,458.65808 551.04386,459.09501 C 551.04386,459.47433 551.1807,459.78643 551.45439,460.0313 C 551.72327,460.27618 552.42548,460.52706 553.56104,460.78393 C 554.69658,461.04082 555.47562,461.26528 555.89816,461.45734 C 556.51274,461.74063 556.96648,462.09954 557.25938,462.53407 C 557.55226,462.96861 557.6987,463.46916 557.69871,464.03573 C 557.6987,464.59751 557.53785,465.12687 557.21616,465.62382 C 556.89445,466.12077 556.43231,466.50729 555.82974,466.78338 C 555.22714,467.05946 554.54894,467.1975 553.79511,467.1975 C 552.83961,467.1975 552.03896,467.05826 551.39317,466.77978 C 550.74737,466.50129 550.24081,466.08236 549.8735,465.52299 C 549.50619,464.96362 549.31293,464.33102 549.29372,463.62521 L 549.29372,463.62521 z M 468.24717,485.45513 L 472.30202,474.89668 L 473.80728,474.89668 L 478.12861,485.45513 L 476.53692,485.45513 L 475.30534,482.25734 L 470.89038,482.25734 L 469.73082,485.45513 L 468.24717,485.45513 z M 471.29371,481.11939 L 474.87321,481.11939 L 473.77127,478.19529 C 473.43516,477.30703 473.18548,476.5772 473.02224,476.00582 C 472.88779,476.68283 472.69813,477.35504 472.45326,478.02244 L 471.29371,481.11939 z M 481.94579,485.45513 L 481.94579,476.14266 L 478.46711,476.14266 L 478.46711,474.89668 L 486.83609,474.89668 L 486.83609,476.14266 L 483.34302,476.14266 L 483.34302,485.45513 L 481.94579,485.45513 z M 494.21116,485.45513 L 491.4095,474.89668 L 492.84274,474.89668 L 494.44883,481.81801 C 494.62168,482.54303 494.77053,483.26325 494.89537,483.97867 C 495.16425,482.85033 495.3227,482.19973 495.37072,482.02687 L 497.38014,474.89668 L 499.06546,474.89668 L 500.57792,480.24072 C 500.95723,481.56593 501.23091,482.81191 501.39897,483.97867 C 501.53341,483.31127 501.70866,482.54543 501.92474,481.68116 L 503.58125,474.89668 L 504.98568,474.89668 L 502.09039,485.45513 L 500.74357,485.45513 L 498.51809,477.41025 C 498.33082,476.73805 498.22039,476.32512 498.18679,476.17147 C 498.07634,476.65643 497.97311,477.06935 497.87709,477.41025 L 495.6372,485.45513 L 494.21116,485.45513 z M 505.85715,480.31274 C 505.85714,478.56021 506.32769,477.18819 507.26878,476.19668 C 508.20987,475.20518 509.42464,474.70943 510.9131,474.70942 C 511.88779,474.70943 512.76646,474.9423 513.54911,475.40803 C 514.33174,475.87379 514.92833,476.52318 515.33886,477.35623 C 515.74938,478.1893 515.95464,479.13399 515.95465,480.1903 C 515.95464,481.26104 515.73858,482.21893 515.30645,483.06399 C 514.87431,483.90905 514.26212,484.54885 513.46989,484.98338 C 512.67764,485.41791 511.82298,485.63518 510.9059,485.63518 C 509.91199,485.63518 509.02372,485.39511 508.24108,484.91496 C 507.45844,484.43481 506.86545,483.77941 506.46213,482.94875 C 506.05881,482.1181 505.85714,481.23943 505.85715,480.31274 L 505.85715,480.31274 z M 507.29759,480.33435 C 507.29759,481.60674 507.63969,482.60905 508.3239,483.34128 C 509.00811,484.0735 509.86637,484.43961 510.8987,484.43961 C 511.95021,484.43961 512.81568,484.0699 513.4951,483.33047 C 514.1745,482.59105 514.5142,481.54192 514.51421,480.1831 C 514.5142,479.32364 514.36896,478.57341 514.07848,477.93241 C 513.78798,477.29142 513.36305,476.79447 512.80368,476.44155 C 512.2443,476.08865 511.61651,475.9122 510.9203,475.91219 C 509.93119,475.9122 509.08013,476.2519 508.36712,476.9313 C 507.6541,477.61072 507.29759,478.74507 507.29759,480.33435 L 507.29759,480.33435 z M 517.76961,485.45513 L 517.76961,474.89668 L 522.45105,474.89668 C 523.39214,474.89669 524.10756,474.99151 524.59732,475.18116 C 525.08706,475.37083 525.47838,475.70573 525.77128,476.18587 C 526.06416,476.66603 526.2106,477.19659 526.21061,477.77756 C 526.2106,478.5266 525.96813,479.15799 525.48319,479.67175 C 524.99823,480.18551 524.2492,480.51201 523.2361,480.65125 C 523.6058,480.82891 523.88669,481.00416 524.07876,481.17701 C 524.48687,481.55153 524.87339,482.01967 525.23831,482.58144 L 527.07488,485.45513 L 525.31754,485.45513 L 523.92031,483.25845 C 523.51217,482.62466 523.17607,482.13971 522.912,481.8036 C 522.64791,481.4675 522.41144,481.23223 522.20258,481.09778 C 521.99371,480.96335 521.78124,480.86972 521.56518,480.8169 C 521.40673,480.78329 521.14745,480.76649 520.78734,480.76648 L 519.16684,480.76648 L 519.16684,485.45513 L 517.76961,485.45513 z M 519.16684,479.55651 L 522.17017,479.55651 C 522.80876,479.55652 523.30811,479.4905 523.66823,479.35845 C 524.02833,479.22641 524.30202,479.01515 524.48928,478.72465 C 524.67653,478.43417 524.77016,478.11847 524.77017,477.77756 C 524.77016,477.27822 524.5889,476.86769 524.2264,476.54598 C 523.86388,476.22429 523.29131,476.06344 522.50867,476.06343 L 519.16684,476.06343 L 519.16684,479.55651 z M 528.34967,485.45513 L 528.34967,474.89668 L 529.7469,474.89668 L 529.7469,480.13269 L 534.99012,474.89668 L 536.8843,474.89668 L 532.45494,479.17479 L 537.07876,485.45513 L 535.23499,485.45513 L 531.47543,480.11108 L 529.7469,481.7964 L 529.7469,485.45513 L 528.34967,485.45513 z"
       transform="scale(0.9334662,1.071276)"
       id="text3231"
       style="font-size:14.75014114px;font-style:normal;font-weight:bold;text-align:center;text-anchor:middle;fill:#000000;fill-opacity:1;stroke:#000000;stroke-width:1.0571872px;stroke-linecap:butt;stroke-linejoin:miter;stroke-opacity:1;font-family:Bitstream Vera Sans" />
    <path
       d="M 543.70923,487.45704 C 543.70923,487.45704 538.64956,488.41428 538.44444,488.82452 C 538.23932,489.23476 542.4785,491.35435 542.27338,491.90134 C 542.06826,492.44834 542.27338,494.6363 542.68362,495.9354 C 543.09387,497.23451 541.86314,493.47394 540.56403,493.13208 C 539.26493,492.79021 540.76916,497.37126 540.76916,499.14898 C 540.76916,500.9267 544.18785,502.29418 544.46135,505.57612 C 544.73484,508.85807 548.42703,514.32798 551.98247,514.25961 C 555.53792,514.19124 560.11897,510.97766 560.73433,506.9436 C 561.3497,502.90954 564.56327,502.02068 564.63165,499.96946 C 564.70002,497.91825 567.29823,489.64501 564.2214,494.77305 C 561.14458,499.90109 563.67441,492.58508 565.31538,491.4911 C 566.95636,490.39712 569.28107,490.05525 566.75124,488.68777 C 564.2214,487.32029 560.80271,486.97842 560.25572,486.97842 C 559.70872,486.97842 543.77761,487.38867 543.70923,487.45704 z"
       id="path3239"
       style="fill:none;fill-rule:evenodd;stroke:#000000;stroke-width:1px;stroke-linecap:butt;stroke-linejoin:miter;stroke-opacity:1" />
    <path
       d="M 552.73458,473.85063 C 556.22165,473.78226 564.08465,476.38047 564.15303,481.71363 C 564.2214,487.0468 564.4949,487.59379 563.81116,488.00403 C 563.12742,488.41428 557.86263,489.9185 552.73459,489.9185 C 547.60654,489.9185 543.22215,489.28618 542.06826,486.97842 C 541.45289,485.74769 542.1929,481.37365 542.205,479.32055 C 542.22051,476.7599 549.52102,473.78226 552.73458,473.85063 z"
       id="path3241"
       style="fill:#000000;fill-rule:evenodd;stroke:#000000;stroke-width:1px;stroke-linecap:butt;stroke-linejoin:miter;stroke-opacity:1" />
    <path
       d="M 538.57066,488.78513 C 546.97711,491.89012 555.54651,492.40979 567.68258,489.62489"
       id="path3250"
       style="fill:none;fill-rule:evenodd;stroke:#000000;stroke-width:1px;stroke-linecap:butt;stroke-linejoin:miter;stroke-opacity:1" />
  </g>
</svg>
