<?xml version="1.0" encoding="UTF-8" standalone="no"?>
<!-- Generator: Adobe Illustrator 12.0.1, SVG Export Plug-In  -->

<svg
   xmlns:dc="http://purl.org/dc/elements/1.1/"
   xmlns:cc="http://creativecommons.org/ns#"
   xmlns:rdf="http://www.w3.org/1999/02/22-rdf-syntax-ns#"
   xmlns:svg="http://www.w3.org/2000/svg"
   xmlns="http://www.w3.org/2000/svg"
   xmlns:sodipodi="http://sodipodi.sourceforge.net/DTD/sodipodi-0.dtd"
   xmlns:inkscape="http://www.inkscape.org/namespaces/inkscape"
   version="1.1"
   width="286.35751"
   height="286.38239"
   viewBox="0 0 286.35751 286.38239"
   enable-background="new 0 0 289 288"
   xml:space="preserve"
   id="svg2"
   inkscape:version="0.48.2 r9819"
   sodipodi:docname="AJAX1.svg"><metadata
   id="metadata50"><rdf:RDF><cc:Work
       rdf:about=""><dc:format>image/svg+xml</dc:format><dc:type
         rdf:resource="http://purl.org/dc/dcmitype/StillImage" /></cc:Work></rdf:RDF></metadata><sodipodi:namedview
   pagecolor="#ffffff"
   bordercolor="#666666"
   borderopacity="1"
   objecttolerance="10"
   gridtolerance="10"
   guidetolerance="10"
   inkscape:pageopacity="0"
   inkscape:pageshadow="2"
   inkscape:window-width="1280"
   inkscape:window-height="1004"
   id="namedview48"
   showgrid="false"
   fit-margin-top="0"
   fit-margin-left="0"
   fit-margin-right="0"
   fit-margin-bottom="0"
   inkscape:zoom="2.3177389"
   inkscape:cx="99.481591"
   inkscape:cy="138.39422"
   inkscape:window-x="-8"
   inkscape:window-y="-8"
   inkscape:window-maximized="1"
   inkscape:current-layer="svg2" />
<defs
   id="defs4">
</defs>
<path
   d="M 135.50425,283.24775 3.1672459,150.88875 c -4.223,-4.231 -4.223,-11.124 0,-15.352 L 135.50425,3.1737502 c 4.219,-4.231 11.115,-4.231 15.343,-0.004 l 132.331,132.3679998 c 4.236,4.24 4.236,11.12 0.018,15.352 l -132.349,132.358 c -4.18,4.175 -11.167,4.184 -15.343,0"
   id="path6"
   style="fill:#ffd033;stroke:none;fill-opacity:1"
   inkscape:connector-curvature="0" />

<path
   clip-rule="evenodd"
   d="M 137.60125,281.09975 5.3282459,148.78375 c -3.043,-3.051 -3.039,-8.081 0,-11.141 L 137.60125,5.3347502 c 3.056,-3.042 8.088,-3.042 11.133,0 l 132.283,132.3199998 c 3.056,3.051 3.056,8.077 0,11.128 l -132.283,132.317 c -3.045,3.029 -8.077,3.047 -11.133,0"
   id="path10"
   inkscape:connector-curvature="0"
   style="fill:#000000;fill-rule:evenodd;stroke:none" />
<path
   clip-rule="evenodd"
   d="M 140.56125,278.08275 8.3492459,145.83675 c -1.467,-1.42 -1.467,-3.829 0,-5.252 L 140.55225,8.3557502 c 1.411,-1.472 3.828,-1.472 5.241,0 l 132.212,132.2289998 c 1.449,1.423 1.449,3.846 0,5.26 l -132.212,132.238 c -1.413,1.458 -3.824,1.458 -5.232,0"
   id="path12"
   style="fill:#ffd033;fill-rule:evenodd;stroke:none;fill-opacity:1"
   inkscape:connector-curvature="0" />
<path
   d="m 110.01325,81.82675 v -30.924 h 4.431 v 26.816 h 11.307 v 4.108 h -15.738 z"
   id="path14"
   inkscape:connector-curvature="0"
   style="fill:#000000;stroke:none" />
<path
   d="m 145.91925,77.07275 c -1.523,3.646 -3.784,5.308 -7.246,5.308 -3.692,0 -5.861,-1.662 -7.385,-5.308 -1.292,-3.046 -1.753,-6 -1.753,-10.754 0,-4.662 0.461,-7.8 1.753,-10.754 1.616,-3.692 3.785,-5.215 7.385,-5.215 3.554,0 5.722,1.523 7.246,5.308 1.292,3.046 1.754,6 1.754,10.662 0,4.752 -0.462,7.799 -1.754,10.753 z m -3.461,-18.462 c -0.785,-2.723 -1.938,-3.923 -3.784,-3.923 -1.985,0 -3.185,1.2 -3.923,3.831 -0.738,2.354 -0.969,4.431 -0.969,7.892 0,3.369 0.323,5.308 0.969,7.801 0.739,2.63 1.938,3.831 3.923,3.831 1.846,0 3,-1.2 3.784,-3.831 0.738,-2.493 0.969,-4.339 0.969,-7.893 0,-3.462 -0.323,-5.447 -0.969,-7.708 z"
   id="path16"
   inkscape:connector-curvature="0"
   style="fill:#000000;stroke:none" />
<path
   d="m 169.91825,81.82675 h -3.784 l -2.954,-16.154 -2.907,16.154 h -3.923 l -4.893,-30.924 h 4.339 l 2.631,16.477 3,-16.477 h 3.507 l 2.908,16.477 2.723,-16.477 h 4.338 l -4.985,30.924 z"
   id="path18"
   inkscape:connector-curvature="0"
   style="fill:#000000;stroke:none" />
<path
   d="m 79.397246,184.31475 -2.169,-8.446 h -6.646 l -2.031,8.446 h -4.477 l 7.708,-30.923 h 4.338 l 7.708,30.923 h -4.431 z m -5.538,-21.692 -2.169,8.908 h 4.43 l -2.261,-8.908 z"
   id="path20"
   inkscape:connector-curvature="0"
   style="fill:#000000;stroke:none" />
<path
   d="m 88.073246,184.31475 v -30.923 h 4.338 v 30.923 h -4.338 z"
   id="path22"
   inkscape:connector-curvature="0"
   style="fill:#000000;stroke:none" />
<path
   d="m 112.02625,184.31475 -4.107,-14.538 h -4.246 v 14.538 h -4.431004 v -30.923 h 9.230004 c 4.846,0 8.123,3.276 8.123,8.261 0,3.692 -1.523,6.37 -4.431,7.478 l 4.431,15.185 h -4.569 z m -3.785,-26.585 h -4.569 v 7.8 h 4.569 c 2.584,0 4.015,-1.384 4.015,-3.877 0,-2.4 -1.615,-3.923 -4.015,-3.923 z"
   id="path24"
   inkscape:connector-curvature="0"
   style="fill:#000000;stroke:none" />
<path
   d="m 134.08625,161.65275 c -0.461,-3.046 -1.662,-4.477 -3.692,-4.477 -3.6,0 -4.893,2.815 -4.893,10.847 0,8.907 1.523,12.508 5.308,12.508 2.584,0 3.277,-2.17 3.277,-4.478 h 4.431 c -0.092,5.123 -3.369,8.815 -7.708,8.815 -6.6,0 -9.553,-5.308 -9.553,-16.708 0,-10.015 3.138,-15.323 9.23,-15.323 2.492,0 4.661,1.108 6.092,3.139 1.154,1.523 1.615,2.862 1.938,5.677 h -4.43 z"
   id="path26"
   inkscape:connector-curvature="0"
   style="fill:#000000;stroke:none" />
<path
   d="m 157.48525,184.31475 -4.107,-14.538 h -4.246 v 14.538 h -4.431 v -30.923 h 9.23 c 4.846,0 8.123,3.276 8.123,8.261 0,3.692 -1.523,6.37 -4.431,7.478 l 4.431,15.185 h -4.569 z m -3.785,-26.585 h -4.569 v 7.8 h 4.569 c 2.584,0 4.015,-1.384 4.015,-3.877 0,-2.4 -1.615,-3.923 -4.015,-3.923 z"
   id="path28"
   inkscape:connector-curvature="0"
   style="fill:#000000;stroke:none" />
<path
   d="m 180.19225,184.31475 -2.17,-8.446 h -6.646 l -2.03,8.446 h -4.478 l 7.708,-30.923 h 4.338 l 7.708,30.923 h -4.43 z m -5.538,-21.692 -2.17,8.908 h 4.431 l -2.261,-8.908 z"
   id="path30"
   inkscape:connector-curvature="0"
   style="fill:#000000;stroke:none" />
<path
   d="m 193.29825,157.72975 v 7.8 h 6.185 v 4.247 h -6.185 v 14.538 h -4.431 v -30.923 h 15.738 v 4.338 h -11.307 z"
   id="path32"
   inkscape:connector-curvature="0"
   style="fill:#000000;stroke:none" />
<path
   d="m 216.65125,157.49875 v 26.815 h -4.477 v -26.815 h -5.631 v -4.107 h 15.738 v 4.107 h -5.63 z"
   id="path34"
   inkscape:connector-curvature="0"
   style="fill:#000000;stroke:none" />
<path
   d="m 90.750246,105.49875 v 7.8 h 6.184 v 4.247 h -6.184 v 14.539 h -4.431 v -30.924 h 15.737004 v 4.338 H 90.750246 z"
   id="path36"
   inkscape:connector-curvature="0"
   style="fill:#000000;stroke:none" />
<path
   d="m 106.39625,132.08375 v -30.924 h 4.431 v 26.816 h 11.307 v 4.108 h -15.738 z"
   id="path38"
   inkscape:connector-curvature="0"
   style="fill:#000000;stroke:none" />
<path
   d="m 136.11725,118.09975 v 13.985 h -4.431 v -13.985 l -7.615,-16.939 h 4.661 l 5.216,11.169 5.123,-11.169 h 4.753 l -7.707,16.939 z"
   id="path40"
   inkscape:connector-curvature="0"
   style="fill:#000000;stroke:none" />
<path
   d="m 148.07025,132.08375 v -30.924 h 4.338 v 30.924 h -4.338 z"
   id="path42"
   inkscape:connector-curvature="0"
   style="fill:#000000;stroke:none" />
<path
   d="m 173.22325,132.08375 -9.554,-20.724 v 20.724 h -4.431 v -30.924 h 4.431 l 8.492,18.555 v -18.555 h 4.431 v 30.924 h -3.369 z"
   id="path44"
   inkscape:connector-curvature="0"
   style="fill:#000000;stroke:none" />
<path
   d="m 199.15925,128.29975 c -1.2,2.677 -3.692,4.338 -6.83,4.338 -3.692,0 -6.415,-1.846 -7.938,-5.308 -0.97,-2.308 -1.615,-6.646 -1.615,-10.662 0,-4.339 0.323,-7.478 1.431,-10.431 1.062,-3.231 4.2,-5.631 7.8,-5.631 4.431,0 7.8,3.277 8.03,7.846 h -4.431 c -0.139,-2.077 -1.523,-3.508 -3.692,-3.508 -1.522,0 -2.723,0.785 -3.507,2.308 -0.831,1.523 -1.385,4.985 -1.385,8.678 0,2.584 0.23,5.308 0.646,7.708 0.646,3 2.17,4.662 4.569,4.662 2.262,0 3.369,-1.523 3.369,-4.8 v -2.031 h -3.508 v -4.339 h 7.938 v 6.37 c 0,2.169 -0.23,3.507 -0.877,4.8 z"
   id="path46"
   inkscape:connector-curvature="0"
   style="fill:#000000;stroke:none" />
</svg>