<?xml version="1.0" encoding="UTF-8"?>
<svg width="600" height="600" version="1.1" xmlns="http://www.w3.org/2000/svg">
 <g fill="#003e65">
  <path d="m206.5 324.92c0 19.091-15.564 35.247-34.361 35.247h-44.653v-121.89h44.653c18.797 0 34.361 16.155 34.361 35.246zm-34.361-116.02h-74.898v180.63h74.898c34.953 0 64.618-29.665 64.618-64.618v-51.398c0-34.953-29.665-64.618-64.618-64.618"/>
  <path d="m97.3 142.87h405.41v26.063h-405.41z"/>
  <path d="m274.5 208.9h30.25v180.63h-30.25z"/>
  <path d="m348.5 208.9h29.371c31.555 43.492 63.335 86.821 94.572 130.54v-130.54h30.259v180.63h-29.371c-31.8-43.587-63.851-86.987-94.578-131.34v131.05h-30.25z"/>
  <path d="m502.7 457.05h-405.41v-27.508h405.41z"/>
 </g>
</svg>
