<?xml version="1.0" encoding="UTF-8" standalone="no"?>
<svg
   xmlns:dc="http://purl.org/dc/elements/1.1/"
   xmlns:cc="http://creativecommons.org/ns#"
   xmlns:rdf="http://www.w3.org/1999/02/22-rdf-syntax-ns#"
   xmlns:svg="http://www.w3.org/2000/svg"
   xmlns="http://www.w3.org/2000/svg"
   xmlns:sodipodi="http://sodipodi.sourceforge.net/DTD/sodipodi-0.dtd"
   xmlns:inkscape="http://www.inkscape.org/namespaces/inkscape"
   width="332.39993"
   height="110.39961"
   viewBox="-50 -30 33.239995 11.039961"
   id="svg2"
   version="1.1"
   inkscape:version="0.48.4 r9939"
   sodipodi:docname="AJAX.svg">
  <metadata
     id="metadata14">
    <rdf:RDF>
      <cc:Work
         rdf:about="">
        <dc:format>image/svg+xml</dc:format>
        <dc:type
           rdf:resource="http://purl.org/dc/dcmitype/StillImage" />
        <dc:title></dc:title>
      </cc:Work>
    </rdf:RDF>
  </metadata>
  <defs
     id="defs12" />
  <sodipodi:namedview
     pagecolor="#ffffff"
     bordercolor="#666666"
     borderopacity="1"
     objecttolerance="10"
     gridtolerance="10"
     guidetolerance="10"
     inkscape:pageopacity="0"
     inkscape:pageshadow="2"
     inkscape:window-width="1920"
     inkscape:window-height="1057"
     id="namedview10"
     showgrid="false"
     fit-margin-top="1.2"
     fit-margin-left="1.2"
     fit-margin-right="1.2"
     fit-margin-bottom="1.2"
     inkscape:zoom="2.4887605"
     inkscape:cx="154.27258"
     inkscape:cy="50.360483"
     inkscape:window-x="-8"
     inkscape:window-y="-8"
     inkscape:window-maximized="1"
     inkscape:current-layer="svg2"
     showguides="true"
     inkscape:guide-bbox="true" />
  <path
     style="fill:#ffffff;fill-opacity:1;stroke:#000000;stroke-opacity:1;stroke-width:0.20000001;stroke-miterlimit:4;stroke-dasharray:none"
     d="m -49.879993,-27.24203 c 2e-6,-1.457403 1.18056,-2.63797 2.637979,-2.63797 l 27.724034,0 c 1.457417,0 2.637976,1.180567 2.637975,2.63797 l -4e-6,5.524012 c -10e-7,1.45742 -1.180554,2.637972 -2.637976,2.637972 l -27.724046,8e-6 c -1.457411,0 -2.637971,-1.18056 -2.637969,-2.637972 z"
     id="rect3154"
     inkscape:connector-curvature="0"
     sodipodi:nodetypes="sssssssss" />
  <path
     inkscape:connector-curvature="0"
     d="m -34.525702,-25.155554 -5.620547,-2.173278 0.149882,1.498812 -6.632246,-1.723635"
     style="fill:none;stroke:#c51521;stroke-width:0.4001883px;stroke-linecap:butt;stroke-linejoin:miter;stroke-opacity:1;marker-end:none" />
  <path
     inkscape:connector-curvature="0"
     d="m -35.687279,-24.780851 -5.095963,0.03747 0.786875,1.23652 -7.681415,0"
     style="fill:none;stroke:#c51521;stroke-width:0.4001883px;stroke-linecap:butt;stroke-linejoin:miter;stroke-opacity:1;marker-end:none" />
  <path
     inkscape:connector-curvature="0"
     d="m -34.825462,-23.50686 -5.058495,0.786876 0.636994,0.936758 -2.135804,0.636996"
     style="fill:none;stroke:#c51521;stroke-width:0.4001883px;stroke-linecap:butt;stroke-linejoin:miter;stroke-opacity:1;marker-end:none" />
  <path
     sodipodi:nodetypes="ccccc"
     inkscape:connector-curvature="0"
     id="path4491"
     d="m -48.039396,-27.774181 2.401409,-0.284885 -0.717113,0.535793 0.600332,0.895562 z"
     style="fill:#c51521;fill-opacity:1;stroke:none" />
  <path
     sodipodi:nodetypes="ccccc"
     inkscape:connector-curvature="0"
     id="path4491-0"
     d="m -49.38,-23.554263 2.350004,-0.570414 -0.647786,0.617817 0.703258,0.817224 z"
     style="fill:#c51521;fill-opacity:1;stroke:none" />
  <path
     sodipodi:nodetypes="ccccc"
     inkscape:connector-curvature="0"
     id="path4491-0-9"
     d="m -42.837572,-20.747552 2.042444,-1.29474 -0.415128,0.793094 0.928415,0.548159 z"
     style="fill:#c51521;fill-opacity:1;stroke:none" />
  <path
     inkscape:tile-y0="-53.381314"
     inkscape:tile-x0="-922.89259"
     inkscape:transform-center-y="-0.0043279849"
     inkscape:transform-center-x="0.16118845"
     d="m -784.28572,99.505042 -22.42017,92.886358 -20.91831,-93.236065 -95.26839,7.380615 82.20866,-48.706018 -36.45893,-88.324889 71.72604,63.134093 72.73554,-61.968396 -37.87953,87.725031 81.41197,50.026309 z"
     inkscape:randomized="0"
     inkscape:rounded="0"
     inkscape:flatsided="false"
     sodipodi:arg2="1.5788654"
     sodipodi:arg1="0.95054684"
     sodipodi:r2="122.89036"
     sodipodi:r1="36.867107"
     sodipodi:cy="69.505043"
     sodipodi:cx="-805.71429"
     sodipodi:sides="5"
     id="path893"
     style="fill:#c51521;fill-opacity:1;stroke:none"
     sodipodi:type="star"
     transform="matrix(0.01601399,0,0,-0.01601399,-20.472395,-23.082825)" />
  <path
     style="fill:none;stroke:#c51521;stroke-width:0.4001883px;stroke-linecap:butt;stroke-linejoin:miter;stroke-opacity:1;marker-end:none"
     d="m -32.234296,-25.155554 5.620547,-2.173278 -0.149882,1.498812 6.632247,-1.723635"
     inkscape:connector-curvature="0"
     id="path4646" />
  <path
     style="fill:none;stroke:#c51521;stroke-width:0.4001883px;stroke-linecap:butt;stroke-linejoin:miter;stroke-opacity:1;marker-end:none"
     d="m -31.072719,-24.780851 5.095964,0.03747 -0.786876,1.23652 7.681415,0"
     inkscape:connector-curvature="0"
     id="path4648" />
  <path
     style="fill:none;stroke:#c51521;stroke-width:0.4001883px;stroke-linecap:butt;stroke-linejoin:miter;stroke-opacity:1;marker-end:none"
     d="m -31.934536,-23.50686 5.058495,0.786876 -0.636994,0.936758 2.135805,0.636996"
     inkscape:connector-curvature="0"
     id="path4650" />
  <path
     style="fill:#c51521;fill-opacity:1;stroke:none"
     d="m -18.720601,-27.774181 -2.401409,-0.284885 0.717112,0.535793 -0.600332,0.895562 z"
     id="path4652"
     inkscape:connector-curvature="0"
     sodipodi:nodetypes="ccccc" />
  <path
     style="fill:#c51521;fill-opacity:1;stroke:none"
     d="m -17.379998,-23.554263 -2.350003,-0.570414 0.647785,0.617817 -0.703258,0.817224 z"
     id="path4654"
     inkscape:connector-curvature="0"
     sodipodi:nodetypes="ccccc" />
  <path
     style="fill:#c51521;fill-opacity:1;stroke:none"
     d="m -23.922426,-20.747552 -2.042444,-1.29474 0.415129,0.793094 -0.928416,0.548159 z"
     id="path4656"
     inkscape:connector-curvature="0"
     sodipodi:nodetypes="ccccc" />
</svg>
