<?xml version="1.0" encoding="utf-8"?>
<!-- Generator: Adobe Illustrator 16.0.2, SVG Export Plug-In . SVG Version: 6.00 Build 0)  -->
<!DOCTYPE svg PUBLIC "-//W3C//DTD SVG 1.1//EN" "http://www.w3.org/Graphics/SVG/1.1/DTD/svg11.dtd">
<svg version="1.1"
	 id="Ebene_1" xmlns:sodipodi="http://sodipodi.sourceforge.net/DTD/sodipodi-0.dtd" xmlns:cc="http://creativecommons.org/ns#" xmlns:inkscape="http://www.inkscape.org/namespaces/inkscape" xmlns:rdf="http://www.w3.org/1999/02/22-rdf-syntax-ns#" xmlns:dc="http://purl.org/dc/elements/1.1/" sodipodi:docname="AJAX.svg" inkscape:version="0.48.1 "
	 xmlns="http://www.w3.org/2000/svg" xmlns:xlink="http://www.w3.org/1999/xlink" x="0px" y="0px" width="539px" height="697px"
	 viewBox="0 0 539 697" style="enable-background:new 0 0 539 697;" xml:space="preserve">
<path id="path8" style="fill:#FFFFFF;stroke:#000000;stroke-width:2;stroke-linecap:round;stroke-linejoin:round;" d="
	M31.552,695.161c-18.229-1.597-30.004-13.368-31.599-31.6V31.566c1.595-18.23,13.369-30.005,31.599-31.6h473.995
	c18.23,1.595,30.007,13.369,31.601,31.6v631.995c-1.594,18.231-13.37,30.003-31.601,31.6H31.552z"/>
<polygon id="polygon10" style="fill:#D40000;" points="24.711,27.616 25.501,26.488 26.475,25.515 27.603,24.725 28.851,24.143 
	30.181,23.786 31.552,23.666 505.548,23.666 506.92,23.786 508.25,24.143 509.498,24.725 510.627,25.515 511.6,26.488 
	512.39,27.616 512.971,28.865 513.328,30.194 513.448,31.566 513.448,663.562 513.328,664.934 512.971,666.263 512.39,667.512 
	511.6,668.639 510.627,669.613 509.498,670.402 508.25,670.985 506.92,671.341 505.548,671.462 31.552,671.462 30.181,671.341 
	28.851,670.985 27.603,670.402 26.475,669.613 25.501,668.639 24.711,667.512 24.129,666.263 23.773,664.934 23.653,663.562 
	23.653,31.566 23.773,30.194 24.129,28.865 "/>
<polyline id="polyline12" style="fill:#FFFFFF;" points="55.252,55.266 55.252,639.861 481.849,639.861 481.849,55.266 
	55.252,55.266 "/>
<polygon id="polygon42" style="fill:#D40000;" points="348.74,497.813 347.537,491.494 347.537,486.68 347.537,482.166 
	348.139,477.652 351.75,470.431 354.759,462.307 357.767,455.688 357.767,446.058 356.264,437.633 352.953,428.004 347.537,420.782 
	341.821,413.861 337.005,405.737 332.191,396.109 331.891,384.072 331.891,378.055 333.395,373.24 335.501,369.027 338.51,365.417 
	337.005,372.037 338.209,380.764 342.421,387.984 348.74,396.109 357.467,400.623 366.794,405.136 373.715,411.756 377.928,416.27 
	382.14,426.198 383.645,418.977 385.15,413.561 391.469,409.047 390.265,412.357 389.663,415.667 390.265,421.083 392.07,427.703 
	395.38,432.518 398.691,435.526 401.999,439.438 405.611,441.845 408.319,445.758 409.523,452.979 412.832,447.863 417.647,443.35 
	421.258,443.35 422.762,443.35 420.656,445.758 419.151,448.466 418.55,452.678 418.851,457.492 420.355,460.501 421.859,464.714 
	423.966,471.334 426.372,480.661 427.276,488.185 429.08,498.415 428.48,510.752 426.372,520.682 422.16,531.814 415.54,539.036 
	404.707,546.559 395.983,551.674 385.15,552.877 376.724,552.577 370.706,550.771 361.378,546.258 353.856,541.143 350.546,536.629 
	346.634,528.806 346.032,522.788 346.634,519.779 348.44,511.053 348.44,504.132 "/>
<path id="path44" style="fill:#003399;" d="M310.226,394.906c-0.458-5.03-0.249-10.514-1.927-15.303
	c-2.11-6.031-4.188-12.066-6.209-18.129c-3.712-11.139-4.678-22.715-6.921-34.181c-2.182-11.146-4.119-21.712-4.886-33.02
	c-0.795-11.72-0.78-23.071-0.524-34.827c0.102-4.712,0.006-9.435,0.006-14.148c0-1.86,1.495-4.431,2.095-6.169
	c0.802-2.324,1.482-4.739,2.418-7.012c3.647-8.854,8.386-17.961,16.091-23.854c1.921-1.469,3.375-3.15,5.791-3.37
	c2.497-0.227,4.896-0.309,7.405-0.309c4.689,0,7.26-5.191,12.267-4.691c1.912,0.191,5.005,0.51,6.741-0.273
	c1.007-0.455,1.896-2.104,2.873-2.769c1.389-0.943,3.535-0.753,5.131-0.802c2.299-0.07,4.407-0.524,6.681-0.199
	c1.081,0.154,2.774,1.351,3.771,0.852c1.09-0.545,1.479-4.065,1.856-5.207c1.806,1.354,3.61,2.708,5.416,4.062
	c1.293-3.875,0.742-4.203,4.774-3.272c2.87,0.662,3.534,0.034,6.222-1.276c3.398-1.658,6.797-3.316,10.196-4.975
	c1.868-0.911,4.413-1.29,4.7-3.447c0.729-5.477,2.091-10.943,2.091-16.465c0-1.309-1.096-1.9-2.006-2.811
	c-1.039-1.039-0.549-1.922-0.368-3.377c0.274-2.189,4.692-1.388,6.47-1.388c3.737,0,3.434-1.77,4.889-5.165
	c1.086-2.533,1.215-5.474,1.665-8.18c0.965-5.792-1.698-10.389-4.919-14.762c-1.342-1.822-2.58-3.498-4.171-5.089
	c-1.653-1.654-3.966-5.155-6.111-6.09c-5.559-2.42-11.117-4.841-16.676-7.261c-6.869-2.992-13.744-5.969-20.63-8.919
	c-6.918-2.965-14.267-3.625-21.674-4.551c-3.521-0.44-6.958-1.989-10.49-2.27c-4.094-0.326-8.619,0.595-12.723,0.877
	c-1.935,0.132-6.397,3.482-7.535,5.108c-2.342,3.345-4.785,6.576-7.274,9.812l-23.02-10.381l-19.408-7.673l-22.567-4.514h-11.735
	L201.3,89.94l-16.7,2.257l-11.284,1.354l-5.416,3.16l-2.257,4.062v3.16v4.062v2.708l1.354,4.514l1.806,2.257l2.256,2.257
	l-22.567-1.806h-12.638h-6.771l-3.61,2.708l-1.806,0.903l-1.354,2.257v3.159v1.806l0.451,6.319l2.257,7.222l3.61,2.708l1.806,0.903
	l0.902,1.805l-3.61,0.452l-3.611,2.708l0.452,3.159l0.902,5.868l4.514,5.417l6.318,8.124c0,0,6.319,2.708,7.673,2.708
	c1.354,0,5.868,0,5.868,0h33.399l-7.673,2.257l-0.902,3.16v3.159v2.708l3.61,3.61l2.708,2.708l5.868,3.159l6.318,0.452
	c0,0,3.16,1.805,5.417,1.805s4.062,0,5.416,0c1.354,0,5.416-0.451,5.416-0.451l10.381,0.451c0,0,6.771,2.257,8.124,2.708
	c1.354,0.452,9.931,3.611,9.931,3.611h3.61l5.416,1.806c0,0,1.806-0.903,3.159,0.451c1.354,1.354-1.354-0.903,1.354,1.354
	s8.575,4.965,8.575,4.965l5.868,9.93l1.806,12.187l4.062,23.921l-0.902,12.187l-3.159,5.417l0.451,2.708v3.16l2.257,3.61
	l1.805,6.319l0.452,8.575l-1.354,8.576l-0.451,9.027l-2.257,8.576l0.451,9.478l-1.354,7.673v12.638l-2.709,17.603l-5.416,24.373
	L310.226,394.906L310.226,394.906z"/>
<polygon id="polygon46" style="fill:none;" points="279.834,201.426 275.773,210.002 273.516,214.967 267.197,200.523 
	276.224,191.948 279.834,195.559 "/>
<polygon id="polygon48" style="fill:#FFFFFF;" points="200.397,159.902 201.751,165.318 208.07,159.902 "/>
<polygon id="polygon50" style="fill:#FFFFFF;" points="282.091,123.794 275.773,124.245 260.878,119.731 264.94,121.988 
	282.091,132.37 "/>
<polygon id="polygon52" style="fill:#FFFFFF;" points="296.534,168.026 295.632,164.867 290.667,164.867 284.799,165.318 
	280.738,172.991 287.056,179.31 289.764,174.345 "/>
<polygon id="polygon54" style="fill:#FFFFFF;" points="302.854,171.637 308.27,178.858 310.074,161.256 "/>
<polygon id="polygon56" style="fill:#FFFFFF;" points="303.756,203.231 291.118,207.293 293.826,195.107 294.729,184.275 
	302.402,177.504 306.915,186.08 "/>
<polyline id="polyline58" style="fill:#FFFFFF;" points="266.294,198.718 276.224,191.948 279.834,195.559 279.834,201.426 
	278.481,208.196 273.516,214.967 267.197,200.523 "/>
<path id="path60" style="fill:#D40000;" d="M178.726,442.87l0.909,4.542l1.806,3.159l4.965,2.257l5.867,0.903
	c0,0,1.354,0.902,3.159,0c1.806-0.903,4.965-4.063,4.965-4.063l1.806-7.222v-8.576l-2.106-9.178l-4.213-6.318l-6.018-8.125
	l-3.912-5.416l-4.213-6.619l-1.805-9.027v-6.619l0.3-7.523l1.204-6.92l0.602,7.522l2.708,6.319l4.514,3.911l8.425,3.61l7.222,0.902
	l7.522,1.205l5.115,2.406l2.106,1.505l1.806,2.407l2.708-3.311l1.805-4.813l1.204-4.213v-2.708v-3.611l2.407,1.506l5.717,8.725
	l3.31,9.027l0.603,7.222l-1.203,5.718l1.505,7.521l3.61,8.125l4.514,6.318l4.814,4.814l-3.009-7.823l-2.407-10.531v-9.93
	l1.504-12.337l2.106-9.027l3.61-8.125l3.009-6.619l2.708-6.318l3.009-8.727l0.301-9.027v-7.522l0.301-6.921l-0.301-3.912
	l-0.902-3.611l4.813,3.31l9.027,9.93l4.213,6.319l3.611,6.619l2.105,6.619l1.203,6.621l-0.3,9.628l-0.903,8.124l3.911,1.506
	l4.213,3.61l0.301-4.814v-3.912l0.302-2.708l0.301-3.009c0,0,0.302-0.603,0.602-1.505c0.301-0.902,0.903-2.105,0.903-2.105
	l1.203-1.203l2.105-1.506l3.311-2.407l8.124-3.911l-3.009,4.213l-1.805,4.814v3.31l0.601,3.31l1.806,3.01l2.106,6.619l2.106,6.019
	l2.407,4.513l0.903,4.213l-0.302,4.814v5.416l-2.106,5.115l4.213-2.708l3.31-3.009l0.603-3.311l0.602-3.309l0.602-3.01v-1.203
	l4.514,4.514l3.61,7.521l1.505,7.222l0.602,6.319v6.62l3.31,7.222l4.815,8.726l3.61,4.213l6.62,4.813l-3.311,8.125l-2.708,4.514
	l-1.806,5.717l-1.504,3.912l-0.902,9.026l0.902,6.921l-225.073-0.602l0.15-1.806v-3.61l0.451-3.611l1.806-3.159l3.61-4.063
	c0,0,0.903-1.354,2.257-2.257c1.354-0.902,2.708-3.61,2.708-3.61l3.611-2.708l0.451-2.708l-0.451-2.257l-0.903-1.806l-3.159-2.708
	l3.159-1.354h3.16h4.514l2.708,0.452l2.257,0.902l3.61,1.354l3.61,4.062l2.709,3.16l8.124,9.026l-4.514-9.026l-3.159-8.576
	c0,0-0.451-4.514,0.451-5.867c0.902-1.354-0.451-5.868,0.902-7.673c1.354-1.806,3.16-5.417,3.16-5.417v-4.965l0.307-5.526
	l-0.003-1.47l-0.003-2.181l-1.203-4.814l-1.203-3.009l-3.009-3.611l-4.213-4.213l6.019,0.603l6.018,1.203l4.213,2.407l3.611,4.814
	l3.009,3.01l2.407,4.813L178.726,442.87L178.726,442.87z"/>
<polygon id="polygon62" style="fill:#FFFFFF;stroke:#000000;stroke-width:0.7087;stroke-linecap:round;stroke-linejoin:round;" points="
	111.631,401.525 115.241,390.993 355.962,512.558 351.148,524.292 "/>
<polygon id="polygon64" style="fill:#FFFFFF;stroke:#000000;stroke-width:0.7087;stroke-linecap:round;stroke-linejoin:round;" points="
	357.166,515.266 115.241,390.993 124.571,387.984 359.272,507.742 "/>
<path id="path66" style="fill:#FFFF00;" d="M355.962,512.558l-0.602-4.213v-4.514c0,0,0-4.814,0-5.717c0-0.903,0-5.416,0-5.416
	l1.203-4.514l1.806-4.815l1.806-3.009l3.009-3.61l2.708-5.115l2.407-4.514l0.902-5.417l0.603-5.114l0.301-4.815l-1.203-9.327
	l8.425,11.133l5.416,8.727l8.425,12.638l4.514,9.629l3.912,14.142l1.203,13.541l-1.805,12.036l-5.717,10.23l-9.931,6.019
	l-8.124,0.602c0,0-6.62,0.301-7.522-0.301c-0.903-0.603-7.522-5.416-7.522-5.416l-5.717-6.019c0,0-2.107-3.31-2.107-4.212
	C352.351,524.292,355.962,512.558,355.962,512.558z"/>
<path id="path68" style="fill:#003399;" d="M348.44,521.283c-1.673,0,5.817,10.33,6.319,10.832
	c3.091,3.091,9.185,8.515,13.732,8.773c11.914,0.678,20.152,0.422,24.03-11.858c2.933-9.288-10.156-16.53-17.15-17.827
	c-7.144-1.324-13.847,0.864-20.913,0.752l-0.302,2.708l-3.009,1.505l0.301,2.407L348.44,521.283z"/>
<polyline id="polyline70" style="fill:#D40000;" points="177.378,437.934 176.249,434.098 174.896,431.163 173.316,427.102 
	170.833,423.265 168.351,420.557 165.794,417.773 161.581,415.366 158.872,414.012 153.456,413.335 148.491,413.109 152.328,416.27 
	154.811,418.977 156.842,422.362 158.196,427.553 "/>
<g>
	<rect x="10.18" y="591.211" style="fill:none;" width="514.033" height="432.506"/>
	<path style="fill:#003399;" d="M82.586,591.284l9.053,35.767h-6.874l-1.509-6.079h-9.7l-1.533,6.079h-6.945l8.957-35.767H82.586z
		 M74.874,614.16h6.922l-3.353-13.965L74.874,614.16z"/>
	<path style="fill:#003399;" d="M110.991,591.309v6.885h-7.017v28.931h-6.515V598.12h-7.496v-6.812H110.991z"/>
	<path style="fill:#003399;" d="M136.953,591.309v6.885h-7.017v28.931h-6.515V598.12h-7.497v-6.812H136.953z"/>
	<path style="fill:#003399;" d="M162.94,591.357v6.543h-14.514v7.813h10.634v6.616h-10.634v8.179h15.137v6.616h-21.891l0.024-35.767
		H162.94z"/>
	<path style="fill:#003399;" d="M177.215,591.284l8.813,19.092v-19.092h6.515l0.024,35.84h-6.395l-10.706-22.583l-0.024,22.607
		h-6.586v-35.864H177.215z"/>
	<path style="fill:#003399;" d="M219.175,591.309v6.885h-7.017v28.931h-6.515V598.12h-7.497v-6.812H219.175z"/>
	<path style="fill:#003399;" d="M231.415,591.333v35.791h-6.658v-35.791H231.415z"/>
	<path style="fill:#003399;" d="M251.629,590.894c3.864,0.603,6.722,2.93,8.574,6.982c1.581,2.995,2.371,6.674,2.371,11.035v0.439
		c0,5.453-1.301,10.092-3.904,13.916c-1.853,2.572-4.471,4.012-7.855,4.321c-0.352,0.032-0.695,0.049-1.03,0.049
		c-3.513,0-6.458-1.514-8.837-4.541c-2.459-4.036-3.705-8.179-3.736-12.427c-0.016-0.357-0.024-0.716-0.024-1.074
		c0-5.745,1.253-10.498,3.76-14.258c1.677-2.051,3.425-3.36,5.245-3.931c1.261-0.406,2.522-0.61,3.784-0.61
		C250.535,590.796,251.086,590.829,251.629,590.894z M249.784,621.387c1.852-0.098,3.417-1.392,4.694-3.882
		c0.926-1.66,1.509-4.102,1.749-7.324c0.048-4.102-0.663-7.462-2.131-10.083c-1.198-1.822-2.523-2.84-3.976-3.052
		c-1.916,0.098-3.513,1.376-4.79,3.833c-0.91,1.726-1.501,4.199-1.772,7.422c-0.032,4.102,0.694,7.455,2.179,10.059
		C246.919,620.183,248.267,621.191,249.784,621.387z"/>
	<path style="fill:#003399;" d="M276.417,591.284l8.813,19.092v-19.092h6.515l0.024,35.84h-6.395l-10.706-22.583l-0.024,22.607
		h-6.586v-35.864H276.417z"/>
	<path style="fill:#003399;" d="M331.167,591.284l9.053,35.767h-6.874l-1.509-6.079h-9.699l-1.533,6.079h-6.945l8.957-35.767
		H331.167z M323.455,614.16h6.921l-3.353-13.965L323.455,614.16z"/>
	<path style="fill:#003399;" d="M351.981,591.382v24.219c0.303,3.093,2.012,4.818,5.125,5.176c3.065-0.342,4.79-2.042,5.174-5.103
		v-24.292h6.777v26.099c-0.591,3.19-2.067,5.673-4.431,7.446c-2.107,1.514-4.263,2.311-6.467,2.393
		c-0.352,0.032-0.694,0.049-1.029,0.049c-3.273,0-5.98-0.968-8.119-2.905c-2.443-2.408-3.736-4.866-3.88-7.373v-25.708H351.981z"/>
	<path style="fill:#003399;" d="M412.862,591.284v6.543h-14.514v7.813h10.634v6.641h-10.634l-0.023,14.795h-6.754l0.023-35.791
		H412.862z"/>
	<path style="fill:#003399;" d="M438.609,591.357v6.543h-14.514v7.813h10.634v6.616h-10.634v8.179h15.137v6.616h-21.891
		l0.024-35.767H438.609z"/>
	<path style="fill:#003399;" d="M451.447,591.382v24.219c0.303,3.093,2.012,4.818,5.125,5.176c3.065-0.342,4.79-2.042,5.174-5.103
		v-24.292h6.777v26.099c-0.591,3.19-2.067,5.673-4.431,7.446c-2.107,1.514-4.263,2.311-6.467,2.393
		c-0.352,0.032-0.694,0.049-1.029,0.049c-3.273,0-5.98-0.968-8.119-2.905c-2.443-2.408-3.736-4.866-3.88-7.373v-25.708H451.447z"/>
</g>
</svg>
