<?xml version="1.0" encoding="UTF-8" standalone="no"?>
<svg
   xmlns:dc="http://purl.org/dc/elements/1.1/"
   xmlns:cc="http://creativecommons.org/ns#"
   xmlns:rdf="http://www.w3.org/1999/02/22-rdf-syntax-ns#"
   xmlns:svg="http://www.w3.org/2000/svg"
   xmlns="http://www.w3.org/2000/svg"
   xmlns:sodipodi="http://sodipodi.sourceforge.net/DTD/sodipodi-0.dtd"
   xmlns:inkscape="http://www.inkscape.org/namespaces/inkscape"
   width="332.39993"
   height="192.39986"
   viewBox="-50 -30 33.239994 19.239985"
   id="svg2"
   version="1.1"
   inkscape:version="0.48.4 r9939"
   sodipodi:docname="AJAX.svg">
  <metadata
     id="metadata14">
    <rdf:RDF>
      <cc:Work
         rdf:about="">
        <dc:format>image/svg+xml</dc:format>
        <dc:type
           rdf:resource="http://purl.org/dc/dcmitype/StillImage" />
        <dc:title></dc:title>
      </cc:Work>
    </rdf:RDF>
  </metadata>
  <defs
     id="defs12" />
  <sodipodi:namedview
     pagecolor="#ffffff"
     bordercolor="#666666"
     borderopacity="1"
     objecttolerance="10"
     gridtolerance="10"
     guidetolerance="10"
     inkscape:pageopacity="0"
     inkscape:pageshadow="2"
     inkscape:window-width="1920"
     inkscape:window-height="1057"
     id="namedview10"
     showgrid="false"
     fit-margin-top="1.2"
     fit-margin-left="1.2"
     fit-margin-right="1.2"
     fit-margin-bottom="1.2"
     inkscape:zoom="2.4887605"
     inkscape:cx="187.99921"
     inkscape:cy="49.525459"
     inkscape:window-x="-8"
     inkscape:window-y="-8"
     inkscape:window-maximized="1"
     inkscape:current-layer="svg2"
     showguides="true"
     inkscape:guide-bbox="true" />
  <path
     style="fill:#ffffff;fill-opacity:1;stroke:#000000;stroke-opacity:1;stroke-width:0.20000000000000001;stroke-miterlimit:4;stroke-dasharray:none"
     d="m -49.879993,-27.242031 c 10e-7,-1.457403 1.18056,-2.63797 2.637979,-2.63797 l 27.724034,0 c 1.457417,0 2.637975,1.180567 2.637975,2.63797 l -4e-6,13.724036 c 0,1.45742 -1.180554,2.637972 -2.637976,2.637972 l -27.724046,8e-6 c -1.457411,0 -2.63797,-1.18056 -2.637969,-2.637972 z"
     id="rect3154"
     inkscape:connector-curvature="0"
     sodipodi:nodetypes="sssssssss" />
  <g
     id="g4756"
     transform="matrix(0.3334761,0,0,0.3334761,-54.321487,-42.113504)">
    <g
       style="font-size:13.88268089px;font-style:normal;font-variant:normal;font-weight:normal;font-stretch:normal;text-align:center;line-height:125%;letter-spacing:0px;word-spacing:0px;text-anchor:middle;fill:#000000;fill-opacity:1;stroke:none;font-family:Caracteres L1;-inkscape-font-specification:Caracteres L1"
       id="text3765"
       transform="matrix(0.99982181,0,0,0.99982181,0.01108822,0.18480917)">
      <path
         inkscape:connector-curvature="0"
         d="m 20.583499,40.254718 0,3.979069 2.731798,0 0,-3.972291 1.904801,0 0,9.930727 -1.904801,0 0,-4.107864 -2.731798,0 0,4.107864 -1.904801,0 0,-9.937505 z"
         id="path4931" />
      <path
         inkscape:connector-curvature="0"
         d="m 30.826044,40.24116 2.56233,9.930727 -1.945473,0 -0.427055,-1.687885 -2.745354,0 -0.433834,1.687885 -1.965809,0 2.535216,-9.930727 z m -2.182726,6.351598 1.95903,0 -0.949011,-3.877389 z"
         id="path4933" />
      <path
         inkscape:connector-curvature="0"
         d="m 36.140507,40.268275 0,6.724423 c 0.08586,0.858632 0.569404,1.337656 1.450632,1.437075 0.867663,-0.0949 1.355725,-0.567145 1.464189,-1.416739 l 0,-6.744759 1.918359,0 0,7.24638 c -0.167214,0.885746 -0.585231,1.574908 -1.254051,2.067489 -0.596527,0.420277 -1.206605,0.641712 -1.830236,0.664308 -0.09942,0.009 -0.196585,0.01356 -0.291482,0.01356 -0.926419,0 -1.692406,-0.268886 -2.297963,-0.80666 -0.691424,-0.668825 -1.057471,-1.351209 -1.098142,-2.047153 l 0,-7.137921 z"
         id="path4935" />
      <path
         inkscape:connector-curvature="0"
         d="m 47.860798,40.247939 0,1.91158 -1.986145,0 0,8.032704 -1.843794,0 0,-8.05304 -2.121718,0 0,-1.891244 z"
         id="path4937" />
      <path
         inkscape:connector-curvature="0"
         d="m 54.646229,40.261496 0,1.816679 -4.107864,0 0,2.169169 3.009722,0 0,1.837015 -3.009722,0 0,2.270849 4.284109,0 0,1.837015 -6.195689,0 0.0068,-9.930727 z"
         id="path4939" />
      <path
         inkscape:connector-curvature="0"
         d="m 65.864899,40.247939 0,1.91158 -1.986146,0 0,8.032704 -1.843793,0 0,-8.05304 -2.121719,0 0,-1.891244 z"
         id="path4941" />
      <path
         inkscape:connector-curvature="0"
         d="m 72.650329,40.261496 0,1.816679 -4.107863,0 0,2.169169 3.009722,0 0,1.837015 -3.009722,0 0,2.270849 4.284108,0 0,1.837015 -6.195688,0 0.0068,-9.930727 z"
         id="path4943" />
      <path
         inkscape:connector-curvature="0"
         d="m 76.107444,40.24116 2.494544,5.300907 0,-5.300907 1.843793,0 0.0068,9.951063 -1.8099,0 -3.030058,-6.270254 -0.0068,6.277032 -1.864129,0 0,-9.957841 z"
         id="path4945" />
      <path
         inkscape:connector-curvature="0"
         d="m 81.327007,48.165405 0,-0.01356 c 0,-0.04971 0.05197,-0.0836 0.15591,-0.10168 0.799879,-0.257586 1.319575,-0.442869 1.55909,-0.555849 0.122013,0.167209 0.282441,0.318599 0.481284,0.45417 0.320853,0.189804 0.664305,0.305041 1.030355,0.345711 0.388639,0.009 0.630411,2e-6 0.725316,-0.02711 0.447386,-0.126533 0.723051,-0.255327 0.826996,-0.386383 0.103934,-0.09038 0.194316,-0.309556 0.271146,-0.657529 0.01807,-0.13557 -6e-6,-0.28696 -0.05423,-0.45417 -0.06779,-0.112974 -0.140098,-0.207875 -0.216917,-0.284703 l -0.230474,-0.176245 -0.257589,-0.115238 c -1.432559,-0.447386 -2.221141,-0.709494 -2.36575,-0.786323 -0.66431,-0.266622 -1.159151,-0.707234 -1.484525,-1.321838 -0.212398,-0.411231 -0.307299,-0.910592 -0.284703,-1.498082 0.08586,-0.732086 0.386382,-1.31279 0.90156,-1.742114 0.578443,-0.420266 1.181743,-0.648481 1.809901,-0.684644 l 0.176245,0 c 0.447387,1.1e-5 0.817953,0.0339 1.111699,0.10168 0.596516,0.167217 1.061983,0.39995 1.396402,0.698202 0.334407,0.275674 0.610072,0.650759 0.826996,1.125256 l -0.02034,0.07456 -1.396403,0.671087 -0.06779,-0.03389 c -0.08587,-0.275657 -0.32764,-0.499352 -0.725316,-0.671086 -0.447395,-0.167199 -0.97161,-0.171718 -1.572647,-0.01356 -0.257592,0.08587 -0.438356,0.196589 -0.542293,0.332154 -0.03615,0.03616 -0.0836,0.149138 -0.142351,0.338933 -0.009,0.221443 -3e-6,0.350238 0.02711,0.386383 0.05875,0.153657 0.176243,0.291489 0.35249,0.413498 l 0.176245,0.07456 c 1.283421,0.379611 2.153347,0.655276 2.609781,0.826996 0.393156,0.18077 0.693676,0.37961 0.901561,0.596521 l 0.379605,0.515178 c 0.280177,0.465472 0.429307,0.97387 0.447391,1.525197 0.0045,0.03616 0.0068,0.07909 0.0068,0.128794 -8e-6,0.176248 -0.02712,0.413501 -0.08134,0.711759 -0.112985,0.420278 -0.248558,0.729836 -0.406719,0.928675 -0.271153,0.334415 -0.467734,0.535515 -0.589743,0.6033 -0.664314,0.45643 -1.348957,0.702721 -2.053932,0.738874 l -0.616857,0 c -0.460952,-0.04519 -0.849594,-0.135573 -1.165929,-0.271147 -0.506141,-0.234992 -0.915119,-0.4971 -1.226936,-0.786323 -0.257589,-0.234992 -0.481285,-0.571665 -0.671087,-1.01002 z"
         id="path4947" />
      <path
         inkscape:connector-curvature="0"
         d="m 90.993361,40.254718 0,9.937505 -1.884465,0 0,-9.937505 z"
         id="path4949" />
      <path
         inkscape:connector-curvature="0"
         d="m 96.145144,40.132702 c 1.093617,0.167217 1.902536,0.813447 2.426758,1.938695 0.447384,0.831522 0.671079,1.852838 0.671087,3.063951 l 0,0.122015 c -8e-6,1.513903 -0.368314,2.801846 -1.104921,3.863832 -0.524222,0.714019 -1.265354,1.113959 -2.223398,1.199822 -0.09942,0.009 -0.196585,0.01356 -0.291482,0.01356 -0.994205,0 -1.827979,-0.420276 -2.501323,-1.260829 -0.695942,-1.120735 -1.048432,-2.270845 -1.05747,-3.450334 -0.0045,-0.09942 -0.0068,-0.198836 -0.0068,-0.298261 -1e-6,-1.595237 0.354748,-2.914813 1.064248,-3.958733 0.474504,-0.569398 0.969345,-0.933185 1.484525,-1.091363 0.357006,-0.112968 0.714015,-0.169457 1.071027,-0.169467 0.158165,1e-5 0.314073,0.009 0.467727,0.02712 z m -0.521956,8.466537 c 0.524211,-0.02711 0.967083,-0.386381 1.328616,-1.077806 0.262102,-0.460945 0.427049,-1.138809 0.494842,-2.033595 0.01355,-1.138808 -0.187549,-2.072002 -0.6033,-2.799584 -0.338938,-0.506131 -0.714023,-0.788575 -1.125257,-0.847332 -0.542296,0.02712 -0.994205,0.381872 -1.35573,1.064249 -0.257592,0.479031 -0.424798,1.165934 -0.501621,2.06071 -0.009,1.138818 0.196579,2.069752 0.616858,2.792805 0.33441,0.506142 0.716274,0.786326 1.145592,0.840553 z"
         id="path4951" />
      <path
         inkscape:connector-curvature="0"
         d="m 102.57131,40.24116 2.49454,5.300907 0,-5.300907 1.84379,0 0.007,9.951063 -1.8099,0 -3.03005,-6.270254 -0.007,6.277032 -1.86413,0 0,-9.957841 z"
         id="path4953" />
    </g>
    <g
       style="font-size:24.6023159px;font-style:normal;font-weight:normal;text-align:center;line-height:125%;letter-spacing:0px;word-spacing:0px;text-anchor:middle;fill:#ff0000;fill-opacity:1;stroke:none;font-family:Sans"
       id="text3769"
       transform="matrix(1,0,0,-1,0,130.34515)">
      <path
         inkscape:connector-curvature="0"
         d="m 30.60024,58.153095 c 1.152884,-0.136123 2.13164,-0.596479 2.936274,-1.381069 0.804612,-0.784623 1.387062,-1.713342 1.747354,-2.786159 0.168117,-0.472378 0.292213,-1.092858 0.372288,-1.861441 l 0,-5.404187 c -0.120106,-1.825417 -0.69455,-3.298557 -1.723335,-4.419422 -1.028807,-1.120869 -2.279775,-1.717331 -3.752907,-1.789386 l -6.965395,0 0.01201,17.641664 z m -3.939051,-14.170976 2.810177,0 c 0.568433,0.08806 1.052807,0.298227 1.453125,0.630488 0.400301,0.332253 0.740565,0.914704 1.020791,1.747354 0.152108,0.512391 0.196142,2.377833 0.132102,5.596335 -0.376301,1.665277 -1.244972,2.622016 -2.606018,2.870223 l -2.810177,0 z"
         style="font-variant:normal;font-stretch:normal;fill:#c51521;fill-opacity:1;stroke:none;font-family:Caracteres L1;-inkscape-font-specification:Caracteres L1"
         id="path4956" />
      <path
         inkscape:connector-curvature="0"
         d="m 45.467755,58.117068 4.539516,-17.593628 -3.44667,0 -0.756585,2.990317 -4.863767,0 -0.768595,-2.990317 -3.482698,0 4.491479,17.593628 z m -3.866994,-11.252716 3.470687,0 -1.681302,6.869321 z"
         style="font-variant:normal;font-stretch:normal;fill:#c51521;fill-opacity:1;stroke:none;font-family:Caracteres L1;-inkscape-font-specification:Caracteres L1"
         id="path4958" />
      <path
         inkscape:connector-curvature="0"
         d="m 55.603606,58.117068 4.419423,-9.391275 0,9.391275 3.26653,0 0.01201,-17.629655 -3.206484,0 -5.368158,11.108603 -0.01201,-11.120613 -3.302557,0 0,17.641665 z"
         style="font-variant:normal;font-stretch:normal;fill:#c51521;fill-opacity:1;stroke:none;font-family:Caracteres L1;-inkscape-font-specification:Caracteres L1"
         id="path4960" />
      <path
         inkscape:connector-curvature="0"
         d="m 71.960276,58.333235 c 2.29777,-0.240204 3.931034,-1.765384 4.899796,-4.575544 l -3.122419,-0.816632 c -0.560443,1.232941 -1.200938,1.973514 -1.921488,2.22172 -0.936733,0.352258 -1.841432,-0.140123 -2.714103,-1.477144 -0.544426,-0.896706 -0.880685,-2.20572 -1.008781,-3.927042 -0.02402,-1.897477 0.274208,-3.412649 0.894693,-4.54552 0.620475,-1.132882 1.35104,-1.759367 2.191698,-1.879456 1.345033,0.06405 2.345808,1.264975 3.002325,3.602791 l -2.846204,0 0,3.206483 6.268856,0 0,-0.144112 c 0.008,-0.192157 0.012,-0.388309 0.01201,-0.588455 -1.3e-5,-2.890245 -0.66853,-5.244066 -2.005552,-7.06147 -0.896706,-1.232956 -2.209722,-1.921489 -3.939052,-2.0656 l -0.264205,0 c -3.84298,0 -6.012658,2.770144 -6.509041,8.310437 -0.008,0.160116 -0.01201,0.324243 -0.01201,0.492382 -10e-7,2.810164 0.636492,5.163985 1.909479,7.061469 0.752579,0.960728 1.565208,1.581207 2.437887,1.861442 0.688528,0.224155 1.409086,0.336242 2.161675,0.33626 0.184135,-1.8e-5 0.372281,-0.004 0.564437,-0.01201 z"
         style="font-variant:normal;font-stretch:normal;fill:#c51521;fill-opacity:1;stroke:none;font-family:Caracteres L1;-inkscape-font-specification:Caracteres L1"
         id="path4962" />
      <path
         inkscape:connector-curvature="0"
         d="m 89.493855,58.081039 0,-3.218493 -7.277637,0 0,-3.842976 5.33213,0 0,-3.254521 -5.33213,0 0,-4.023116 7.589879,0 0,-3.25452 -10.976502,0 0.01201,17.593626 z"
         style="font-variant:normal;font-stretch:normal;fill:#c51521;fill-opacity:1;stroke:none;font-family:Caracteres L1;-inkscape-font-specification:Caracteres L1"
         id="path4964" />
      <path
         inkscape:connector-curvature="0"
         d="m 97.071728,58.153095 c 1.849425,-1.7e-5 3.294542,-0.664532 4.335352,-1.993544 0.9127,-1.16892 1.36905,-2.485939 1.36907,-3.95106 -2e-5,-0.264216 -0.016,-0.576458 -0.048,-0.936726 -0.19216,-1.785392 -1.08486,-3.262534 -2.67808,-4.431432 l 2.93028,-6.340912 -3.794945,0 -2.509944,5.248066 -2.173684,0 0,-5.284093 -3.326576,0 0.01201,17.689701 z m -0.480372,-9.018986 0.984763,0.120094 c 0.560426,0.152109 1.028788,0.468354 1.405088,0.948735 0.320239,0.472355 0.512387,1.036791 0.576447,1.693311 0.03201,0.81662 -0.208171,1.529172 -0.720559,2.137656 -0.432342,0.49637 -1.060828,0.776587 -1.88546,0.840651 l -2.41387,0 0,-5.740447 z"
         style="font-variant:normal;font-stretch:normal;fill:#c51521;fill-opacity:1;stroke:none;font-family:Caracteres L1;-inkscape-font-specification:Caracteres L1"
         id="path4966" />
    </g>
  </g>
  <path
     id="path3881"
     style="fill:none;stroke:#c51521;stroke-width:0.33515769px;stroke-linecap:butt;stroke-linejoin:miter;stroke-opacity:1;marker-end:none"
     d="m -34.339526,-22.104639 -4.707208,-1.820122 0.125528,1.255256 -5.554507,-1.443545"
     inkscape:connector-curvature="0" />
  <path
     id="path3883"
     style="fill:none;stroke:#c51521;stroke-width:0.33515769px;stroke-linecap:butt;stroke-linejoin:miter;stroke-opacity:1;marker-end:none"
     d="m -35.312346,-21.790826 -4.267869,0.03139 0.659009,1.035585 -6.433186,0"
     inkscape:connector-curvature="0" />
  <path
     id="path3885"
     style="fill:none;stroke:#c51521;stroke-width:0.33515769px;stroke-linecap:butt;stroke-linejoin:miter;stroke-opacity:1;marker-end:none"
     d="m -34.590574,-20.723858 -4.23649,0.659009 0.533483,0.784534 -1.788736,0.533484"
     inkscape:connector-curvature="0" />
  <path
     style="fill:#c51521;fill-opacity:1;stroke:none"
     d="m -45.657244,-24.29774 2.01118,-0.238592 -0.600582,0.448727 0.502778,0.750033 z"
     id="path3887"
     inkscape:connector-curvature="0"
     sodipodi:nodetypes="ccccc" />
  <path
     style="fill:#c51521;fill-opacity:1;stroke:none"
     d="m -46.78,-20.763558 1.968129,-0.477721 -0.542521,0.517421 0.588979,0.684425 z"
     id="path3889"
     inkscape:connector-curvature="0"
     sodipodi:nodetypes="ccccc" />
  <path
     style="fill:#c51521;fill-opacity:1;stroke:none"
     d="m -41.300717,-18.412939 1.710547,-1.084343 -0.34767,0.664215 0.777549,0.459084 z"
     id="path3891"
     inkscape:connector-curvature="0"
     sodipodi:nodetypes="ccccc" />
  <path
     transform="matrix(0.01341171,0,0,-0.01341171,-22.569882,-20.36873)"
     sodipodi:type="star"
     style="fill:#c51521;fill-opacity:1;stroke:none"
     id="path3893"
     sodipodi:sides="5"
     sodipodi:cx="-805.71429"
     sodipodi:cy="69.505043"
     sodipodi:r1="36.867107"
     sodipodi:r2="122.89036"
     sodipodi:arg1="0.95054684"
     sodipodi:arg2="1.5788654"
     inkscape:flatsided="false"
     inkscape:rounded="0"
     inkscape:randomized="0"
     d="m -784.28572,99.505042 -22.42017,92.886358 -20.91831,-93.236065 -95.26839,7.380615 82.20866,-48.706018 -36.45893,-88.324889 71.72604,63.134093 72.73554,-61.968396 -37.87953,87.725031 81.41197,50.026309 z"
     inkscape:transform-center-x="0.13495271"
     inkscape:transform-center-y="-0.0036315266"
     inkscape:tile-x0="-922.89259"
     inkscape:tile-y0="-53.381314" />
  <path
     id="path3895"
     inkscape:connector-curvature="0"
     d="m -32.420473,-22.104639 4.707208,-1.820122 -0.125526,1.255256 5.554506,-1.443545"
     style="fill:none;stroke:#c51521;stroke-width:0.33515769px;stroke-linecap:butt;stroke-linejoin:miter;stroke-opacity:1;marker-end:none" />
  <path
     id="path3897"
     inkscape:connector-curvature="0"
     d="m -31.447653,-21.790826 4.267871,0.03139 -0.659009,1.035585 6.433185,0"
     style="fill:none;stroke:#c51521;stroke-width:0.33515769px;stroke-linecap:butt;stroke-linejoin:miter;stroke-opacity:1;marker-end:none" />
  <path
     id="path3899"
     inkscape:connector-curvature="0"
     d="m -32.169425,-20.723858 4.23649,0.659009 -0.533482,0.784534 1.788737,0.533484"
     style="fill:none;stroke:#c51521;stroke-width:0.33515769px;stroke-linecap:butt;stroke-linejoin:miter;stroke-opacity:1;marker-end:none" />
  <path
     sodipodi:nodetypes="ccccc"
     inkscape:connector-curvature="0"
     id="path3901"
     d="m -21.102754,-24.29774 -2.01118,-0.238592 0.600581,0.448727 -0.502778,0.750033 z"
     style="fill:#c51521;fill-opacity:1;stroke:none" />
  <path
     sodipodi:nodetypes="ccccc"
     inkscape:connector-curvature="0"
     id="path3903"
     d="m -19.979999,-20.763558 -1.968127,-0.477721 0.54252,0.517421 -0.588978,0.684425 z"
     style="fill:#c51521;fill-opacity:1;stroke:none" />
  <path
     sodipodi:nodetypes="ccccc"
     inkscape:connector-curvature="0"
     id="path3905"
     d="m -25.459283,-18.412939 -1.710546,-1.084343 0.347671,0.664215 -0.777549,0.459084 z"
     style="fill:#c51521;fill-opacity:1;stroke:none" />
</svg>
