<?xml version="1.0" encoding="UTF-8" ?>
<!DOCTYPE svg PUBLIC "-//W3C//DTD SVG 1.1//EN" "http://www.w3.org/Graphics/SVG/1.1/DTD/svg11.dtd">
<svg width="753pt" height="956pt" viewBox="0 0 753 956" version="1.1" xmlns="http://www.w3.org/2000/svg">
<g id="#fc9822ff">
<path fill="#fc9822" opacity="1.00" d=" M 13.17 9.23 C 19.48 3.85 27.69 0.66 36.00 0.59 C 263.33 0.61 490.66 0.60 717.99 0.60 C 728.37 0.82 738.48 5.91 744.99 13.97 C 749.58 19.51 752.17 26.46 753.00 33.56 L 753.00 922.39 C 751.69 940.56 735.18 955.69 716.99 955.51 C 676.36 955.72 635.72 955.54 595.08 955.60 C 427.73 955.60 260.38 955.60 93.03 955.60 C 73.70 955.49 54.35 955.82 35.03 955.43 C 16.61 954.94 0.26 938.54 0.54 919.98 C 0.51 625.65 0.55 331.33 0.52 37.00 C 0.27 26.45 5.09 15.99 13.17 9.23 M 36.42 12.56 C 20.93 16.07 9.02 31.08 9.52 47.03 C 9.53 332.34 9.53 617.65 9.53 902.96 C 9.39 909.35 9.45 915.97 12.04 921.94 C 16.94 934.45 29.63 943.30 42.99 943.91 C 47.00 944.11 51.01 943.95 55.02 944.00 C 270.00 944.00 484.99 944.00 699.97 944.00 C 704.60 943.98 709.28 944.21 713.86 943.33 C 725.64 941.03 736.13 932.52 740.26 921.17 C 742.97 914.45 742.52 907.08 742.53 900.00 C 742.53 618.00 742.52 336.00 742.53 54.00 C 742.56 47.59 742.79 40.97 740.45 34.87 C 735.80 21.41 722.26 11.67 708.02 11.59 C 486.34 11.62 264.67 11.57 43.00 11.61 C 40.78 11.68 38.57 12.03 36.42 12.56 Z" />
<path fill="#fc9822" opacity="1.00" d=" M 38.50 22.67 C 40.30 22.22 42.16 22.02 44.02 22.00 C 263.37 22.00 482.72 22.02 702.08 21.98 C 707.71 21.67 713.50 22.67 718.38 25.61 C 724.83 29.45 729.43 36.31 730.33 43.79 C 730.74 47.49 730.55 51.23 730.59 54.95 C 730.59 338.63 730.58 622.31 730.59 905.99 C 730.82 912.11 728.89 918.24 725.07 923.04 C 719.90 929.71 711.32 932.92 703.02 932.59 C 487.00 932.61 270.97 932.60 54.95 932.60 C 49.14 932.53 43.24 932.96 37.52 931.63 C 29.80 929.43 23.07 923.54 20.41 915.89 C 18.47 910.81 19.00 905.29 18.94 899.99 C 18.94 615.65 18.93 331.32 18.95 46.99 C 18.77 35.61 27.38 24.98 38.50 22.67 M 278.58 52.73 C 267.44 55.26 255.97 63.71 255.30 75.98 C 255.18 95.66 255.28 115.36 255.25 135.05 C 255.07 143.19 260.00 150.99 266.99 154.98 C 278.79 162.27 294.66 162.85 306.69 155.75 C 311.89 152.98 315.81 148.22 318.16 142.87 C 319.86 138.48 319.77 133.68 319.76 129.04 C 319.68 111.78 319.86 94.51 319.68 77.24 C 319.60 70.48 316.35 64.09 311.17 59.81 C 302.33 52.32 289.71 50.21 278.58 52.73 M 450.45 52.58 C 441.91 54.44 433.58 59.25 429.15 67.00 C 426.04 72.08 426.34 78.28 426.24 84.01 C 426.37 100.98 426.03 117.96 426.41 134.93 C 426.28 141.13 429.14 147.11 433.44 151.45 C 446.62 163.09 468.26 164.09 482.03 152.91 C 487.19 148.47 490.99 141.95 490.76 134.98 C 490.71 115.34 490.80 95.70 490.72 76.07 C 490.50 67.90 485.04 60.80 478.21 56.78 C 469.90 52.00 459.79 50.60 450.45 52.58 M 171.00 52.75 C 171.00 88.50 171.00 124.25 171.00 160.00 C 177.42 160.00 183.83 160.00 190.25 160.00 C 190.25 145.92 190.25 131.84 190.25 117.76 C 198.71 117.66 207.49 118.40 215.57 115.35 C 223.54 112.29 231.05 105.90 232.50 97.09 C 233.52 90.46 232.76 83.70 233.03 77.02 C 233.50 71.38 230.32 66.32 226.66 62.34 C 220.59 56.02 211.69 52.96 203.06 52.74 C 192.37 52.75 181.69 52.75 171.00 52.75 M 347.21 52.80 C 347.26 57.60 347.30 62.40 347.18 67.19 C 358.15 67.32 369.12 67.22 380.08 67.25 C 368.84 92.28 357.52 117.28 346.17 142.26 C 343.14 147.69 345.00 154.10 344.50 160.00 C 363.67 160.00 382.83 160.00 402.00 160.00 C 402.05 154.86 401.88 149.71 402.11 144.57 C 390.13 144.41 378.15 144.54 366.17 144.51 C 377.89 118.44 389.71 92.42 401.46 66.37 C 402.67 61.96 401.69 57.27 402.00 52.75 C 383.73 52.78 365.47 52.68 347.21 52.80 M 519.75 52.75 C 519.75 88.50 519.75 124.25 519.75 160.00 C 526.17 160.00 532.58 160.00 539.00 160.00 C 539.00 144.67 539.00 129.33 539.00 114.00 C 542.94 113.99 546.88 113.99 550.82 114.02 C 556.86 129.35 562.91 144.67 568.95 160.00 C 575.76 160.00 582.57 160.01 589.39 159.99 C 582.74 143.56 575.94 127.18 569.22 110.78 C 577.50 106.71 584.71 98.74 584.51 89.04 C 584.16 82.01 585.74 74.42 582.19 67.95 C 576.89 58.30 565.81 52.90 555.03 52.76 C 543.27 52.73 531.51 52.76 519.75 52.75 M 376.28 182.21 C 372.98 182.62 370.00 184.59 368.53 187.60 C 308.57 291.57 248.47 395.46 188.54 499.44 C 185.44 504.08 187.89 510.95 193.09 512.77 C 196.64 513.77 200.38 513.29 204.01 513.38 C 321.35 513.39 438.69 513.37 556.02 513.40 C 558.83 513.41 561.93 513.01 563.95 510.83 C 567.32 507.80 567.60 502.45 565.12 498.78 C 505.11 394.86 445.12 290.92 385.10 187.01 C 383.38 183.91 379.84 181.87 376.28 182.21 M 484.95 548.46 C 475.71 543.89 464.58 543.18 454.90 546.75 C 445.06 550.45 436.82 559.98 437.39 570.92 C 431.21 573.82 425.06 576.78 418.86 579.64 C 418.38 574.29 419.34 568.83 418.30 563.54 C 414.50 552.20 402.46 545.63 390.97 545.30 C 380.58 545.16 370.18 545.33 359.79 545.22 C 359.70 566.00 359.77 586.78 359.76 607.56 C 350.67 611.89 341.56 616.16 332.47 620.46 C 332.54 610.55 332.49 600.65 332.49 590.75 C 321.58 590.75 310.67 590.74 299.75 590.75 C 299.75 595.00 299.75 599.24 299.75 603.49 C 304.60 603.53 309.45 603.41 314.30 603.58 C 314.15 610.02 314.34 616.47 314.23 622.92 C 314.28 625.62 312.77 627.95 311.58 630.27 C 309.55 631.18 307.55 632.15 305.56 633.13 C 301.64 633.32 297.26 633.59 293.92 631.16 C 291.37 628.83 289.47 625.53 289.75 621.97 C 289.75 604.98 289.75 588.00 289.74 571.02 C 289.47 565.85 292.99 560.10 298.47 559.58 C 303.29 558.83 309.39 559.05 312.46 563.49 C 315.09 566.43 314.09 570.65 314.23 574.24 C 320.32 574.26 326.40 574.24 332.49 574.25 C 332.56 569.32 332.75 564.12 330.53 559.57 C 328.54 555.75 325.76 552.23 322.01 550.02 C 311.82 543.49 298.70 543.20 287.39 546.65 C 281.17 548.47 277.49 554.19 274.17 559.34 C 271.59 563.39 271.45 568.36 271.48 573.01 C 271.59 589.97 271.36 606.94 271.60 623.89 C 271.69 632.08 276.82 639.48 283.87 643.38 C 275.18 647.59 266.39 651.58 257.71 655.81 C 263.46 656.22 269.22 655.88 274.98 656.02 C 277.42 655.96 280.03 656.34 282.32 655.24 C 287.55 652.75 292.77 650.24 298.04 647.82 C 305.68 648.60 313.68 647.31 320.36 643.38 C 324.35 640.82 328.68 637.53 330.03 632.79 C 339.87 627.93 349.86 623.36 359.77 618.64 C 359.72 628.17 359.76 637.71 359.75 647.25 C 365.83 647.25 371.91 647.25 378.00 647.25 C 378.00 634.84 378.00 622.44 378.00 610.04 C 379.65 609.26 381.28 608.45 382.92 607.67 C 386.92 606.86 391.02 607.56 395.03 606.81 C 404.18 605.62 413.35 600.26 417.17 591.59 C 424.14 588.20 431.18 584.94 438.19 581.63 C 439.55 586.39 442.63 590.51 446.73 593.27 C 454.79 599.54 465.38 600.28 474.41 604.51 C 477.38 605.93 480.59 608.34 480.40 612.04 C 480.44 617.00 481.01 622.11 479.75 626.96 C 476.91 632.52 469.69 633.78 464.03 633.13 C 459.77 632.94 456.11 629.80 454.72 625.87 C 454.33 623.18 454.50 620.45 454.50 617.75 C 448.39 617.77 442.29 617.69 436.18 617.80 C 434.94 630.30 443.13 643.59 455.59 646.64 C 463.51 648.60 471.96 648.50 479.90 646.67 C 487.66 645.00 493.15 638.53 496.91 631.96 C 499.58 625.32 498.69 617.91 498.59 610.93 C 498.25 603.58 493.37 597.39 487.20 593.81 C 478.86 587.84 468.03 587.66 459.25 582.72 C 455.80 580.84 455.38 576.82 455.76 573.31 C 463.12 569.84 470.47 566.37 477.82 562.91 C 480.85 566.10 480.60 570.65 480.51 574.74 C 486.59 574.75 492.67 574.75 498.76 574.75 C 499.20 567.97 498.09 560.78 493.48 555.51 C 501.41 551.69 509.45 548.10 517.33 544.17 C 510.87 543.79 504.40 544.12 497.94 543.96 C 493.12 543.50 489.21 546.79 484.95 548.46 M 228.22 692.78 C 232.67 698.02 236.75 703.57 240.36 709.43 C 241.62 709.46 242.88 709.51 244.14 709.57 C 247.99 703.75 252.11 698.12 256.62 692.80 C 255.38 691.98 254.14 691.18 252.90 690.40 C 249.27 693.41 245.78 696.61 242.50 700.00 C 239.08 696.71 235.69 693.38 232.01 690.39 C 230.75 691.19 229.49 691.99 228.22 692.78 M 606.74 705.98 C 608.78 705.98 610.83 705.99 612.88 706.01 C 617.15 701.44 622.03 697.47 626.19 692.79 C 623.12 692.73 620.07 692.74 617.01 692.76 C 613.57 697.15 610.18 701.58 606.74 705.98 M 131.50 711.00 C 131.50 714.00 131.50 716.99 131.50 720.00 C 137.08 720.00 142.65 719.99 148.23 720.00 C 142.47 735.65 136.80 751.34 131.00 766.97 C 129.67 770.41 130.41 774.16 130.26 777.75 C 139.76 777.75 149.25 777.75 158.74 777.75 C 158.75 774.58 158.75 771.41 158.75 768.25 C 152.73 768.24 146.71 768.26 140.69 768.24 C 146.52 752.23 152.39 736.23 158.27 720.24 C 159.17 717.25 158.64 714.07 158.75 711.01 C 149.66 710.99 140.58 711.00 131.50 711.00 M 171.75 711.01 C 171.76 733.26 171.73 755.51 171.76 777.76 C 174.89 777.74 178.02 777.69 181.15 777.85 C 181.40 764.41 181.15 750.97 181.28 737.54 C 184.62 746.80 187.52 756.21 190.72 765.53 C 192.39 765.10 195.56 766.61 196.00 764.12 C 198.87 755.26 202.09 746.50 204.65 737.55 C 205.45 750.92 204.77 764.36 205.01 777.76 C 208.15 777.73 211.30 777.72 214.44 777.81 C 214.58 755.54 214.46 733.27 214.50 711.00 C 211.61 711.01 208.72 711.02 205.84 710.91 C 201.55 722.69 197.60 734.59 193.32 746.38 C 189.08 734.61 184.91 722.82 180.80 711.02 C 177.78 710.99 174.77 710.99 171.75 711.01 M 230.00 711.00 C 230.01 733.26 229.97 755.51 230.02 777.77 C 239.51 777.72 249.01 777.77 258.50 777.74 C 258.50 774.58 258.50 771.41 258.50 768.26 C 252.17 768.24 245.84 768.25 239.50 768.25 C 239.50 761.66 239.50 755.08 239.50 748.50 C 245.11 748.45 250.71 748.60 256.32 748.42 C 256.22 745.47 256.22 742.52 256.31 739.58 C 250.71 739.40 245.11 739.54 239.50 739.50 C 239.50 732.91 239.50 726.33 239.50 719.75 C 245.84 719.74 252.17 719.76 258.51 719.74 C 258.48 716.85 258.49 713.97 258.58 711.09 C 249.05 710.88 239.53 711.05 230.00 711.00 M 272.23 711.02 C 272.27 733.26 272.24 755.50 272.25 777.74 C 275.42 777.75 278.58 777.75 281.75 777.75 C 281.83 764.70 281.58 751.64 281.88 738.60 C 283.64 741.56 284.43 744.95 285.72 748.13 C 289.30 757.99 292.93 767.83 296.45 777.72 C 299.52 777.79 302.59 777.79 305.65 777.61 C 305.29 755.42 305.60 733.21 305.50 711.00 C 302.33 710.99 299.17 710.99 296.00 711.00 C 295.89 724.43 296.22 737.87 295.83 751.29 C 291.04 737.80 286.15 724.34 281.16 710.93 C 278.18 711.00 275.21 711.01 272.23 711.02 M 329.86 711.01 C 325.23 733.27 320.39 755.49 315.79 777.76 C 319.11 777.75 322.42 777.75 325.75 777.72 C 326.73 772.95 327.45 768.13 328.60 763.39 C 332.74 763.58 336.88 763.47 341.02 763.50 C 342.02 768.27 342.66 773.12 343.92 777.84 C 347.28 777.69 350.65 777.75 354.01 777.74 C 348.97 755.50 344.02 733.25 339.00 711.01 C 335.95 710.99 332.90 710.99 329.86 711.01 M 381.77 711.01 C 386.22 733.26 390.77 755.49 395.23 777.74 C 397.99 777.75 400.75 777.74 403.51 777.74 C 408.15 755.50 412.85 733.26 417.49 711.01 C 414.13 710.97 410.78 710.96 407.43 711.09 C 404.92 726.45 401.93 741.73 399.51 757.11 C 396.63 741.80 394.37 726.38 391.77 711.03 C 388.43 710.99 385.10 710.98 381.77 711.01 M 428.50 711.00 C 428.43 733.22 428.64 755.43 428.39 777.65 C 437.91 777.89 447.44 777.65 456.97 777.77 C 457.01 774.59 457.01 771.41 456.98 768.24 C 450.65 768.26 444.33 768.24 438.00 768.25 C 438.02 761.65 437.93 755.05 438.06 748.45 C 443.67 748.50 449.28 748.59 454.89 748.40 C 454.71 745.43 454.72 742.46 454.74 739.49 C 449.16 739.50 443.58 739.49 438.00 739.50 C 438.00 732.91 438.00 726.33 438.00 719.75 C 444.33 719.75 450.65 719.74 456.98 719.76 C 456.99 716.84 457.01 713.92 457.00 711.00 C 447.50 711.00 438.00 710.99 428.50 711.00 M 470.75 711.00 C 470.80 733.28 470.65 755.56 470.82 777.84 C 477.82 777.20 485.11 778.86 491.89 776.61 C 497.75 774.34 501.52 768.13 501.48 761.93 C 501.51 749.95 501.51 737.96 501.48 725.98 C 501.48 718.27 494.70 711.49 487.09 711.06 C 481.64 710.88 476.19 711.06 470.75 711.00 M 516.23 711.02 C 516.27 733.26 516.24 755.51 516.25 777.75 C 525.75 777.75 535.25 777.75 544.75 777.75 C 544.75 774.58 544.75 771.41 544.75 768.25 C 538.41 768.24 532.08 768.25 525.75 768.25 C 525.72 761.69 525.81 755.13 525.69 748.58 C 531.29 748.40 536.89 748.54 542.50 748.50 C 542.50 745.49 542.50 742.50 542.50 739.50 C 536.87 739.42 531.25 739.65 525.64 739.37 C 525.88 732.83 525.69 726.29 525.75 719.75 C 532.08 719.74 538.41 719.75 544.75 719.75 C 544.74 716.83 544.75 713.92 544.76 711.02 C 535.25 710.99 525.74 710.98 516.23 711.02 M 558.50 711.01 C 558.57 733.31 558.36 755.60 558.61 777.89 C 561.72 777.68 564.85 777.74 567.98 777.77 C 568.11 764.42 567.80 751.06 568.15 737.72 C 572.97 751.01 578.01 764.23 582.55 777.62 C 585.61 777.79 588.68 777.78 591.75 777.74 C 591.76 755.50 591.73 733.26 591.76 711.02 C 588.58 710.99 585.41 710.99 582.24 711.02 C 582.22 724.23 582.34 737.46 582.17 750.67 C 576.96 737.65 572.34 724.37 567.68 711.14 C 564.62 710.95 561.56 710.95 558.50 711.01 M 607.23 711.03 C 607.28 733.27 607.23 755.51 607.25 777.75 C 610.41 777.75 613.58 777.75 616.75 777.75 C 616.77 755.51 616.72 733.27 616.77 711.03 C 613.58 710.98 610.41 710.98 607.23 711.03 M 229.75 841.00 C 229.75 863.25 229.74 885.50 229.76 907.75 C 236.47 907.39 243.36 908.57 249.94 906.94 C 256.29 905.02 260.52 898.49 260.48 891.98 C 260.52 879.98 260.51 867.98 260.48 855.99 C 260.48 848.30 253.74 841.54 246.16 841.06 C 240.69 840.88 235.22 841.06 229.75 841.00 M 286.17 841.11 C 279.68 842.94 274.57 849.13 274.53 855.96 C 274.43 867.31 274.56 878.66 274.48 890.01 C 274.46 892.75 274.50 895.58 275.59 898.16 C 277.98 905.14 285.95 909.15 293.05 908.10 C 300.70 907.02 306.77 899.75 306.50 892.03 C 306.44 879.73 306.62 867.42 306.41 855.13 C 306.16 845.35 295.37 838.12 286.17 841.11 M 321.24 841.02 C 321.27 863.26 321.24 885.50 321.25 907.75 C 324.42 907.74 327.58 907.75 330.75 907.75 C 330.71 899.03 330.84 890.31 330.67 881.60 C 334.14 881.41 337.68 881.76 341.08 880.88 C 345.08 879.89 348.39 876.93 350.45 873.43 C 353.08 868.36 352.04 862.46 352.27 856.98 C 352.86 848.99 346.00 841.58 338.11 841.07 C 332.49 840.87 326.86 841.05 321.24 841.02 M 363.75 841.00 C 363.77 863.26 363.70 885.52 363.79 907.78 C 366.94 907.74 370.09 907.74 373.24 907.75 C 373.25 898.17 373.26 888.59 373.24 879.02 C 375.22 879.00 377.21 878.99 379.21 878.99 C 382.28 888.55 385.27 898.15 388.28 907.74 C 391.60 907.75 394.93 907.75 398.25 907.75 C 394.91 897.55 391.73 887.30 388.29 877.14 C 392.66 874.18 395.96 869.42 395.96 864.00 C 395.93 859.19 396.70 854.03 394.41 849.59 C 391.92 844.61 386.66 841.01 381.02 841.03 C 375.26 840.93 369.51 841.03 363.75 841.00 M 419.11 841.00 C 414.46 863.26 409.69 885.49 405.01 907.75 C 408.32 907.74 411.64 907.74 414.96 907.76 C 415.96 903.02 416.75 898.23 417.74 893.49 C 421.92 893.50 426.09 893.49 430.27 893.50 C 431.21 898.25 432.03 903.02 433.04 907.76 C 436.44 907.74 439.83 907.74 443.23 907.75 C 438.27 885.50 433.25 863.25 428.25 841.00 C 425.20 840.99 422.16 840.99 419.11 841.00 M 448.27 841.01 C 452.66 863.25 457.36 885.43 461.66 907.69 C 464.43 907.73 467.21 907.79 469.99 907.74 C 474.67 885.50 479.33 863.26 483.99 841.01 C 480.67 840.99 477.35 840.99 474.03 841.00 C 471.15 856.34 468.86 871.79 465.72 887.08 C 463.44 871.68 460.75 856.34 458.21 840.98 C 454.89 841.00 451.58 841.00 448.27 841.01 M 489.53 841.01 C 493.10 851.64 496.76 862.24 500.40 872.85 C 501.27 875.49 502.51 878.12 502.51 880.97 C 502.50 889.89 502.50 898.82 502.50 907.74 C 505.66 907.74 508.82 907.75 511.99 907.76 C 512.02 898.83 511.98 889.90 511.99 880.98 C 511.93 878.13 513.25 875.56 514.12 872.93 C 517.80 862.28 521.59 851.67 525.21 841.00 C 521.88 840.97 518.55 840.99 515.23 841.04 C 512.66 849.73 509.87 858.37 507.44 867.11 C 504.52 858.54 502.13 849.79 499.60 841.10 C 496.24 840.96 492.89 840.97 489.53 841.01 Z" />
<path fill="#fc9822" opacity="1.00" d=" M 190.24 67.02 C 196.94 67.54 204.57 65.34 210.47 69.51 C 213.19 71.40 214.50 74.76 214.26 78.02 C 214.17 83.67 214.42 89.33 214.14 94.98 C 213.91 99.22 209.63 101.81 205.86 102.56 C 200.69 103.37 195.44 102.88 190.23 102.98 C 190.26 90.99 190.25 79.00 190.24 67.02 Z" />
<path fill="#fc9822" opacity="1.00" d=" M 284.43 67.63 C 290.33 66.04 296.95 68.84 299.98 74.12 C 300.57 76.36 300.47 78.72 300.52 81.03 C 300.45 98.68 300.56 116.33 300.46 133.98 C 300.60 138.00 298.37 142.05 294.59 143.61 C 288.64 146.49 279.87 145.97 276.20 139.79 C 274.65 137.89 274.43 135.38 274.47 133.02 C 274.56 114.69 274.42 96.36 274.54 78.03 C 274.41 72.46 279.40 68.61 284.43 67.63 Z" />
<path fill="#fc9822" opacity="1.00" d=" M 455.53 67.64 C 461.60 66.02 469.23 68.97 471.40 75.08 C 471.63 95.04 471.44 115.02 471.50 134.99 C 471.69 139.36 468.26 143.02 464.28 144.29 C 458.73 146.18 451.16 145.61 447.71 140.25 C 445.28 137.42 445.60 133.49 445.50 130.01 C 445.50 114.01 445.51 98.02 445.49 82.02 C 445.55 78.55 445.67 74.75 447.87 71.88 C 449.81 69.61 452.69 68.36 455.53 67.64 Z" />
<path fill="#fc9822" opacity="1.00" d=" M 539.01 67.24 C 544.38 67.36 549.77 67.04 555.13 67.40 C 560.14 67.74 565.04 71.68 565.20 76.95 C 565.17 81.99 565.64 87.10 564.85 92.10 C 563.82 97.11 558.65 99.83 553.91 100.15 C 548.95 100.42 543.97 100.17 539.00 100.25 C 539.00 89.25 538.98 78.24 539.01 67.24 Z" />
<path fill="#fc9822" opacity="1.00" d=" M 375.47 251.30 C 375.84 250.23 376.51 249.44 377.45 248.92 C 377.72 249.51 378.24 250.70 378.50 251.30 C 378.53 251.35 378.58 251.45 378.61 251.50 C 380.02 253.71 381.33 255.98 382.54 258.32 C 382.57 258.37 382.62 258.46 382.64 258.50 C 383.63 260.12 384.67 261.72 385.57 263.40 C 385.58 263.43 385.62 263.49 385.63 263.52 L 386.46 265.26 L 386.54 265.43 L 386.65 265.58 C 387.74 267.12 388.74 268.73 389.60 270.43 C 389.62 270.47 389.66 270.55 389.68 270.59 L 390.48 272.27 L 390.56 272.44 L 390.66 272.59 C 391.80 274.05 392.67 275.68 393.53 277.31 C 393.56 277.36 393.61 277.45 393.63 277.49 C 394.98 279.71 396.40 281.89 397.45 284.28 L 397.54 284.46 L 397.65 284.62 C 398.73 286.15 399.73 287.75 400.59 289.43 C 400.60 289.46 400.63 289.51 400.65 289.54 L 401.46 291.25 L 401.54 291.42 L 401.65 291.57 C 402.77 293.05 403.65 294.69 404.53 296.32 C 404.55 296.37 404.60 296.45 404.62 296.49 C 406.01 298.72 407.31 301.01 408.54 303.34 C 408.57 303.38 408.62 303.47 408.64 303.52 C 410.02 305.71 411.41 307.90 412.46 310.27 L 412.54 310.45 L 412.65 310.60 C 413.70 312.06 414.66 313.59 415.43 315.23 C 415.51 315.38 415.66 315.69 415.74 315.84 L 416.34 317.04 L 416.50 317.39 L 416.67 317.61 C 417.80 319.08 418.68 320.72 419.56 322.36 C 419.58 322.40 419.63 322.48 419.65 322.52 C 421.03 324.73 422.32 327.00 423.53 329.32 C 423.56 329.36 423.61 329.46 423.64 329.50 C 424.63 331.11 425.66 332.70 426.55 334.37 C 426.57 334.41 426.61 334.47 426.62 334.51 L 427.46 336.25 L 427.54 336.43 L 427.65 336.59 C 428.74 338.11 429.73 339.71 430.59 341.39 C 430.60 341.43 430.63 341.49 430.65 341.52 L 431.48 343.28 L 431.56 343.44 L 431.67 343.59 C 432.79 345.06 433.68 346.69 434.55 348.33 C 434.57 348.37 434.62 348.46 434.65 348.50 C 435.98 350.71 437.40 352.89 438.45 355.27 L 438.53 355.45 L 438.65 355.61 C 439.73 357.15 440.73 358.75 441.59 360.43 C 441.61 360.46 441.64 360.52 441.65 360.55 L 442.48 362.28 L 442.56 362.45 L 442.67 362.61 C 443.77 364.08 444.65 365.69 445.52 367.31 C 445.55 367.35 445.59 367.43 445.61 367.47 C 447.00 369.72 448.31 372.02 449.55 374.36 C 449.58 374.40 449.63 374.49 449.66 374.54 C 451.02 376.72 452.40 378.90 453.45 381.26 L 453.53 381.44 L 453.65 381.59 C 454.69 383.06 455.66 384.59 456.43 386.23 C 456.50 386.38 456.66 386.69 456.74 386.84 L 457.33 388.03 L 457.49 388.37 L 457.66 388.60 C 458.79 390.06 459.65 391.69 460.53 393.32 C 460.55 393.36 460.60 393.44 460.62 393.48 C 462.02 395.71 463.31 398.00 464.54 400.33 C 464.57 400.38 464.62 400.47 464.65 400.52 C 465.63 402.13 466.68 403.71 467.57 405.39 C 467.58 405.42 467.61 405.48 467.63 405.51 L 468.46 407.27 L 468.54 407.44 L 468.65 407.61 C 469.72 409.12 470.73 410.70 471.57 412.37 C 471.58 412.40 471.62 412.46 471.63 412.50 L 472.47 414.26 L 472.55 414.43 L 472.65 414.58 C 473.79 416.05 474.67 417.69 475.55 419.33 C 475.57 419.38 475.62 419.47 475.65 419.51 C 476.99 421.72 478.40 423.90 479.45 426.28 L 479.53 426.45 L 479.64 426.61 C 480.72 428.15 481.72 429.74 482.58 431.42 C 482.60 431.45 482.63 431.52 482.65 431.55 L 483.47 433.27 L 483.55 433.44 L 483.66 433.60 C 484.77 435.08 485.66 436.70 486.54 438.33 C 486.56 438.37 486.61 438.44 486.63 438.48 C 488.01 440.73 489.31 443.03 490.55 445.37 C 490.58 445.41 490.63 445.51 490.66 445.55 C 492.03 447.73 493.41 449.91 494.46 452.28 L 494.54 452.45 L 494.65 452.61 C 495.72 454.13 496.72 455.70 497.56 457.37 C 497.58 457.39 497.61 457.45 497.62 457.48 L 498.46 459.25 L 498.54 459.42 L 498.65 459.57 C 499.76 461.05 500.65 462.69 501.54 464.33 C 501.56 464.37 501.61 464.46 501.63 464.50 C 503.02 466.71 504.29 469.00 505.54 471.31 C 505.57 471.35 505.62 471.44 505.65 471.49 C 506.56 472.78 507.27 474.19 507.76 475.72 C 420.58 475.71 333.41 475.72 246.23 475.71 C 246.72 474.19 247.43 472.79 248.35 471.49 C 248.38 471.45 248.43 471.36 248.46 471.31 C 249.71 468.99 250.99 466.69 252.39 464.45 C 252.41 464.41 252.45 464.33 252.48 464.29 C 253.35 462.67 254.25 461.05 255.35 459.58 L 255.46 459.42 L 255.53 459.25 L 256.36 457.52 C 256.37 457.49 256.40 457.43 256.42 457.40 C 257.27 455.72 258.28 454.13 259.35 452.60 L 259.47 452.44 L 259.55 452.26 C 260.60 449.89 261.99 447.69 263.37 445.50 C 263.39 445.45 263.44 445.36 263.47 445.32 C 264.70 443.00 265.99 440.71 267.38 438.49 C 267.40 438.45 267.45 438.37 267.47 438.33 C 268.33 436.70 269.22 435.08 270.33 433.61 L 270.45 433.46 L 270.53 433.28 L 271.35 431.55 C 271.36 431.52 271.40 431.45 271.41 431.42 C 272.27 429.73 273.27 428.14 274.36 426.60 L 274.47 426.44 L 274.56 426.26 C 275.61 423.88 277.02 421.70 278.37 419.48 C 278.39 419.44 278.44 419.36 278.46 419.32 C 279.32 417.68 280.21 416.06 281.33 414.59 L 281.44 414.43 L 281.52 414.27 L 282.35 412.54 C 282.37 412.51 282.41 412.43 282.42 412.40 C 283.27 410.71 284.26 409.11 285.36 407.59 L 285.47 407.44 L 285.55 407.26 L 286.35 405.56 C 286.37 405.52 286.42 405.43 286.44 405.39 C 287.33 403.70 288.38 402.11 289.37 400.49 C 289.40 400.44 289.45 400.35 289.48 400.30 C 290.69 397.98 291.98 395.71 293.36 393.49 C 293.39 393.45 293.43 393.37 293.46 393.33 C 294.32 391.70 295.22 390.07 296.34 388.59 L 296.45 388.44 L 296.53 388.27 L 297.37 386.51 C 297.39 386.48 297.42 386.41 297.43 386.38 C 298.28 384.71 299.27 383.12 300.36 381.59 L 300.47 381.43 L 300.55 381.26 C 301.59 378.89 302.98 376.71 304.36 374.53 C 304.38 374.48 304.44 374.39 304.46 374.35 C 305.68 372.02 306.98 369.74 308.37 367.51 C 308.39 367.47 308.44 367.39 308.46 367.35 C 309.34 365.71 310.22 364.06 311.35 362.58 L 311.46 362.42 L 311.54 362.25 L 312.35 360.54 C 312.37 360.51 312.40 360.45 312.42 360.42 C 313.27 358.73 314.28 357.14 315.36 355.60 L 315.48 355.44 L 315.56 355.26 C 316.60 352.88 318.02 350.70 319.37 348.49 C 319.40 348.44 319.45 348.35 319.48 348.31 C 320.33 346.67 321.20 345.04 322.34 343.59 L 322.45 343.44 L 322.52 343.27 L 323.36 341.52 C 323.38 341.48 323.42 341.40 323.44 341.36 C 324.28 339.69 325.27 338.10 326.36 336.58 L 326.46 336.43 L 326.54 336.25 L 327.35 334.55 C 327.37 334.52 327.40 334.46 327.41 334.43 C 328.29 332.74 329.34 331.14 330.35 329.52 C 330.38 329.48 330.43 329.38 330.46 329.34 C 331.67 327.01 332.96 324.73 334.36 322.51 C 334.38 322.47 334.43 322.38 334.46 322.34 C 335.32 320.70 336.21 319.07 337.33 317.59 L 337.45 317.43 L 337.52 317.27 L 338.35 315.53 C 338.37 315.50 338.40 315.44 338.42 315.41 C 339.26 313.73 340.26 312.14 341.35 310.61 L 341.46 310.46 L 341.54 310.29 C 342.58 307.89 343.99 305.69 345.37 303.49 C 345.40 303.44 345.45 303.35 345.48 303.31 C 346.70 300.98 348.00 298.69 349.38 296.46 C 349.40 296.42 349.44 296.34 349.47 296.30 C 350.34 294.68 351.24 293.06 352.35 291.58 L 352.46 291.43 L 352.53 291.26 L 353.35 289.54 C 353.37 289.51 353.40 289.45 353.42 289.42 C 354.27 287.73 355.27 286.13 356.37 284.59 L 356.48 284.44 L 356.56 284.26 C 357.60 281.89 359.00 279.71 360.36 277.51 C 360.38 277.47 360.43 277.38 360.46 277.33 C 361.32 275.68 362.20 274.04 363.35 272.57 L 363.45 272.42 L 363.53 272.26 L 364.36 270.52 C 364.38 270.48 364.41 270.41 364.43 270.37 C 365.27 268.69 366.26 267.10 367.35 265.58 L 367.46 265.43 L 367.54 265.25 L 368.38 263.50 C 368.40 263.47 368.43 263.40 368.44 263.37 C 369.33 261.70 370.37 260.11 371.36 258.50 C 371.39 258.45 371.44 258.36 371.47 258.31 C 372.67 255.97 373.99 253.71 375.37 251.47 C 375.39 251.43 375.44 251.34 375.47 251.30 M 361.72 321.42 C 361.68 321.48 361.59 321.60 361.55 321.66 C 357.01 327.46 357.66 335.14 358.87 341.94 C 361.97 368.00 365.35 394.02 368.36 420.09 C 368.51 423.06 370.48 425.62 372.98 427.09 C 377.88 429.93 384.73 426.44 385.51 420.90 C 388.65 394.32 392.04 367.77 395.22 341.20 C 396.46 334.62 396.77 327.23 392.44 321.65 C 392.40 321.59 392.31 321.47 392.27 321.41 C 385.15 311.55 368.83 311.56 361.72 321.42 M 370.70 438.55 C 370.64 438.59 370.51 438.66 370.44 438.70 C 367.95 440.01 365.92 442.08 364.47 444.48 C 364.45 444.51 364.42 444.57 364.40 444.60 L 363.60 446.37 C 363.58 446.42 363.55 446.52 363.53 446.58 C 362.54 450.41 362.48 454.85 364.51 458.38 C 364.54 458.43 364.61 458.53 364.64 458.58 C 365.83 460.56 367.54 462.18 369.42 463.52 C 369.45 463.55 369.51 463.59 369.54 463.61 C 374.09 466.33 379.94 466.30 384.49 463.59 C 384.53 463.57 384.59 463.52 384.63 463.50 C 386.49 462.15 388.17 460.52 389.38 458.56 C 389.41 458.51 389.47 458.41 389.50 458.36 C 391.47 454.90 391.42 450.60 390.56 446.83 C 390.49 446.66 390.35 446.34 390.29 446.17 L 389.71 444.87 C 389.66 444.77 389.55 444.58 389.50 444.48 C 388.09 442.05 386.03 440.03 383.56 438.69 C 383.50 438.66 383.37 438.59 383.31 438.56 C 379.38 436.64 374.63 436.64 370.70 438.55 Z" />
<path fill="#fc9822" opacity="1.00" d=" M 378.00 559.00 C 382.69 559.10 387.41 558.68 392.07 559.31 C 396.12 559.92 400.12 562.91 400.62 567.19 C 401.07 574.15 400.50 581.16 400.77 588.13 L 400.36 588.96 L 398.94 588.84 C 396.20 590.50 393.24 591.77 390.34 593.12 C 386.23 593.34 382.11 593.24 378.00 593.24 C 377.99 581.83 378.00 570.42 378.00 559.00 Z" />
<path fill="#fc9822" opacity="1.00" d=" M 480.24 720.01 C 482.50 720.00 484.78 719.84 487.03 720.23 C 490.03 720.84 492.23 723.83 491.99 726.89 C 492.03 737.93 491.96 748.97 492.02 760.01 C 492.05 762.63 491.82 765.70 489.59 767.45 C 486.86 769.34 483.36 768.61 480.25 768.75 C 480.24 752.50 480.26 736.26 480.24 720.01 Z" />
<path fill="#fc9822" opacity="1.00" d=" M 334.66 731.32 C 336.51 738.97 337.70 746.78 339.22 754.50 C 336.23 754.49 333.24 754.50 330.25 754.51 C 331.70 746.77 333.18 739.04 334.66 731.32 Z" />
<path fill="#fc9822" opacity="1.00" d=" M 239.23 850.02 C 242.51 850.10 246.44 849.29 249.04 851.85 C 250.78 853.37 251.10 855.78 251.02 857.97 C 250.97 869.00 251.01 880.03 251.00 891.07 C 251.04 893.58 250.35 896.57 247.95 897.86 C 245.26 899.21 242.14 898.63 239.25 898.75 C 239.23 882.51 239.28 866.27 239.23 850.02 Z" />
<path fill="#fc9822" opacity="1.00" d=" M 288.33 850.45 C 292.50 848.48 297.63 852.52 297.02 857.00 C 296.91 869.01 297.14 881.04 296.91 893.06 C 296.83 896.90 292.67 899.50 289.10 898.67 C 285.53 898.18 283.76 894.27 283.99 891.01 C 284.04 879.62 283.93 868.23 284.04 856.85 C 283.92 854.05 285.67 851.36 288.33 850.45 Z" />
<path fill="#fc9822" opacity="1.00" d=" M 330.75 849.76 C 334.22 850.00 338.67 848.68 341.23 851.77 C 343.61 854.63 342.51 858.59 342.77 862.00 C 342.56 864.99 343.57 868.73 340.95 870.96 C 338.16 873.39 334.11 872.24 330.75 872.49 C 330.75 864.91 330.74 857.34 330.75 849.76 Z" />
<path fill="#fc9822" opacity="1.00" d=" M 373.24 850.03 C 377.64 850.15 384.27 848.61 386.11 854.06 C 386.63 858.50 387.17 863.37 385.47 867.62 C 382.91 871.79 377.31 870.22 373.26 870.50 C 373.23 863.67 373.27 856.85 373.24 850.03 Z" />
<path fill="#fc9822" opacity="1.00" d=" M 423.83 861.84 C 426.06 869.20 426.85 876.98 428.47 884.52 C 425.47 884.50 422.48 884.49 419.49 884.50 C 420.94 876.95 422.32 869.38 423.83 861.84 Z" />
</g>
<g id="#000000ff">
<path fill="#000000" opacity="1.00" d=" M 36.42 12.56 C 38.57 12.03 40.78 11.68 43.00 11.61 C 264.67 11.57 486.34 11.62 708.02 11.59 C 722.26 11.67 735.80 21.41 740.45 34.87 C 742.79 40.97 742.56 47.59 742.53 54.00 C 742.52 336.00 742.53 618.00 742.53 900.00 C 742.52 907.08 742.97 914.45 740.26 921.17 C 736.13 932.52 725.64 941.03 713.86 943.33 C 709.28 944.21 704.60 943.98 699.97 944.00 C 484.99 944.00 270.00 944.00 55.02 944.00 C 51.01 943.95 47.00 944.11 42.99 943.91 C 29.63 943.30 16.94 934.45 12.04 921.94 C 9.45 915.97 9.39 909.35 9.53 902.96 C 9.53 617.65 9.53 332.34 9.52 47.03 C 9.02 31.08 20.93 16.07 36.42 12.56 M 38.50 22.67 C 27.38 24.98 18.77 35.61 18.95 46.99 C 18.93 331.32 18.94 615.65 18.94 899.99 C 19.00 905.29 18.47 910.81 20.41 915.89 C 23.07 923.54 29.80 929.43 37.52 931.63 C 43.24 932.96 49.14 932.53 54.95 932.60 C 270.97 932.60 487.00 932.61 703.02 932.59 C 711.32 932.92 719.90 929.71 725.07 923.04 C 728.89 918.24 730.82 912.11 730.59 905.99 C 730.58 622.31 730.59 338.63 730.59 54.95 C 730.55 51.23 730.74 47.49 730.33 43.79 C 729.43 36.31 724.83 29.45 718.38 25.61 C 713.50 22.67 707.71 21.67 702.08 21.98 C 482.72 22.02 263.37 22.00 44.02 22.00 C 42.16 22.02 40.30 22.22 38.50 22.67 Z" />
<path fill="#000000" opacity="1.00" d=" M 278.58 52.73 C 289.71 50.21 302.33 52.32 311.17 59.81 C 316.35 64.09 319.60 70.48 319.68 77.24 C 319.86 94.51 319.68 111.78 319.76 129.04 C 319.77 133.68 319.86 138.48 318.16 142.87 C 315.81 148.22 311.89 152.98 306.69 155.75 C 294.66 162.85 278.79 162.27 266.99 154.98 C 260.00 150.99 255.07 143.19 255.25 135.05 C 255.28 115.36 255.18 95.66 255.30 75.98 C 255.97 63.71 267.44 55.26 278.58 52.73 M 284.43 67.63 C 279.40 68.61 274.41 72.46 274.54 78.03 C 274.42 96.36 274.56 114.69 274.47 133.02 C 274.43 135.38 274.65 137.89 276.20 139.79 C 279.87 145.97 288.64 146.49 294.59 143.61 C 298.37 142.05 300.60 138.00 300.46 133.98 C 300.56 116.33 300.45 98.68 300.52 81.03 C 300.47 78.72 300.57 76.36 299.98 74.12 C 296.95 68.84 290.33 66.04 284.43 67.63 Z" />
<path fill="#000000" opacity="1.00" d=" M 450.45 52.58 C 459.79 50.60 469.90 52.00 478.21 56.78 C 485.04 60.80 490.50 67.90 490.72 76.07 C 490.80 95.70 490.71 115.34 490.76 134.98 C 490.99 141.95 487.19 148.47 482.03 152.91 C 468.26 164.09 446.62 163.09 433.44 151.45 C 429.14 147.11 426.28 141.13 426.41 134.93 C 426.03 117.96 426.37 100.98 426.24 84.01 C 426.34 78.28 426.04 72.08 429.15 67.00 C 433.58 59.25 441.91 54.44 450.45 52.58 M 455.53 67.64 C 452.69 68.36 449.81 69.61 447.87 71.88 C 445.67 74.75 445.55 78.55 445.49 82.02 C 445.51 98.02 445.50 114.01 445.50 130.01 C 445.60 133.49 445.28 137.42 447.71 140.25 C 451.16 145.61 458.73 146.18 464.28 144.29 C 468.26 143.02 471.69 139.36 471.50 134.99 C 471.44 115.02 471.63 95.04 471.40 75.08 C 469.23 68.97 461.60 66.02 455.53 67.64 Z" />
<path fill="#000000" opacity="1.00" d=" M 171.00 52.75 C 181.69 52.75 192.37 52.75 203.06 52.74 C 211.69 52.96 220.59 56.02 226.66 62.34 C 230.32 66.32 233.50 71.38 233.03 77.02 C 232.76 83.70 233.52 90.46 232.50 97.09 C 231.05 105.90 223.54 112.29 215.57 115.35 C 207.49 118.40 198.71 117.66 190.25 117.76 C 190.25 131.84 190.25 145.92 190.25 160.00 C 183.83 160.00 177.42 160.00 171.00 160.00 C 171.00 124.25 171.00 88.50 171.00 52.75 M 190.24 67.02 C 190.25 79.00 190.26 90.99 190.23 102.98 C 195.44 102.88 200.69 103.37 205.86 102.56 C 209.63 101.81 213.91 99.22 214.14 94.98 C 214.42 89.33 214.17 83.67 214.26 78.02 C 214.50 74.76 213.19 71.40 210.47 69.51 C 204.57 65.34 196.94 67.54 190.24 67.02 Z" />
<path fill="#000000" opacity="1.00" d=" M 347.21 52.80 C 365.47 52.68 383.73 52.78 402.00 52.75 C 401.69 57.27 402.67 61.96 401.46 66.37 C 389.71 92.42 377.89 118.44 366.17 144.51 C 378.15 144.54 390.13 144.41 402.11 144.57 C 401.88 149.71 402.05 154.86 402.00 160.00 C 382.83 160.00 363.67 160.00 344.50 160.00 C 345.00 154.10 343.14 147.69 346.17 142.26 C 357.52 117.28 368.84 92.28 380.08 67.25 C 369.12 67.22 358.15 67.32 347.18 67.19 C 347.30 62.40 347.26 57.60 347.21 52.80 Z" />
<path fill="#000000" opacity="1.00" d=" M 519.75 52.75 C 531.51 52.76 543.27 52.73 555.03 52.76 C 565.81 52.90 576.89 58.30 582.19 67.95 C 585.74 74.42 584.16 82.01 584.51 89.04 C 584.71 98.74 577.50 106.71 569.22 110.78 C 575.94 127.18 582.74 143.56 589.39 159.99 C 582.57 160.01 575.76 160.00 568.95 160.00 C 562.91 144.67 556.86 129.35 550.82 114.02 C 546.88 113.99 542.94 113.99 539.00 114.00 C 539.00 129.33 539.00 144.67 539.00 160.00 C 532.58 160.00 526.17 160.00 519.75 160.00 C 519.75 124.25 519.75 88.50 519.75 52.75 M 539.01 67.24 C 538.98 78.24 539.00 89.25 539.00 100.25 C 543.97 100.17 548.95 100.42 553.91 100.15 C 558.65 99.83 563.82 97.11 564.85 92.10 C 565.64 87.10 565.17 81.99 565.20 76.95 C 565.04 71.68 560.14 67.74 555.13 67.40 C 549.77 67.04 544.38 67.36 539.01 67.24 Z" />
<path fill="#000000" opacity="1.00" d=" M 361.72 321.42 C 368.83 311.56 385.15 311.55 392.27 321.41 L 392.36 321.52 L 392.44 321.65 C 396.77 327.23 396.46 334.62 395.22 341.20 C 392.04 367.77 388.65 394.32 385.51 420.90 C 384.73 426.44 377.88 429.93 372.98 427.09 C 370.48 425.62 368.51 423.06 368.36 420.09 C 365.35 394.02 361.97 368.00 358.87 341.94 C 357.66 335.14 357.01 327.46 361.55 321.66 L 361.62 321.53 L 361.72 321.42 Z" />
<path fill="#000000" opacity="1.00" d=" M 370.70 438.55 C 374.63 436.64 379.38 436.64 383.31 438.56 L 383.44 438.62 L 383.56 438.69 C 386.03 440.03 388.09 442.05 389.50 444.48 C 389.55 444.58 389.66 444.77 389.71 444.87 L 390.29 446.17 C 390.35 446.34 390.49 446.66 390.56 446.83 C 391.42 450.60 391.47 454.90 389.50 458.36 C 389.47 458.41 389.41 458.51 389.38 458.56 C 388.17 460.52 386.49 462.15 384.63 463.50 C 384.59 463.52 384.53 463.57 384.49 463.59 C 379.94 466.30 374.09 466.33 369.54 463.61 C 369.51 463.59 369.45 463.55 369.42 463.52 C 367.54 462.18 365.83 460.56 364.64 458.58 C 364.61 458.53 364.54 458.43 364.51 458.38 C 362.48 454.85 362.54 450.41 363.53 446.58 C 363.55 446.52 363.58 446.42 363.60 446.37 L 364.40 444.60 C 364.42 444.57 364.45 444.51 364.47 444.48 C 365.92 442.08 367.95 440.01 370.44 438.70 L 370.56 438.62 L 370.70 438.55 Z" />
<path fill="#000000" opacity="1.00" d=" M 287.39 546.65 C 298.70 543.20 311.82 543.49 322.01 550.02 C 325.76 552.23 328.54 555.75 330.53 559.57 C 332.75 564.12 332.56 569.32 332.49 574.25 C 326.40 574.24 320.32 574.26 314.23 574.24 C 314.09 570.65 315.09 566.43 312.46 563.49 C 309.39 559.05 303.29 558.83 298.47 559.58 C 292.99 560.10 289.47 565.85 289.74 571.02 C 289.75 588.00 289.75 604.98 289.75 621.97 C 289.47 625.53 291.37 628.83 293.92 631.16 C 297.26 633.59 301.64 633.32 305.56 633.13 C 298.35 636.60 291.12 640.00 283.87 643.38 C 276.82 639.48 271.69 632.08 271.60 623.89 C 271.36 606.94 271.59 589.97 271.48 573.01 C 271.45 568.36 271.59 563.39 274.17 559.34 C 277.49 554.19 281.17 548.47 287.39 546.65 Z" />
<path fill="#000000" opacity="1.00" d=" M 359.79 545.22 C 370.18 545.33 380.58 545.16 390.97 545.30 C 402.46 545.63 414.50 552.20 418.30 563.54 C 419.34 568.83 418.38 574.29 418.86 579.64 C 412.84 582.49 406.86 585.44 400.77 588.13 C 400.50 581.16 401.07 574.15 400.62 567.19 C 400.12 562.91 396.12 559.92 392.07 559.31 C 387.41 558.68 382.69 559.10 378.00 559.00 C 378.00 570.42 377.99 581.83 378.00 593.24 C 382.11 593.24 386.23 593.34 390.34 593.12 C 380.15 597.96 369.97 602.78 359.76 607.56 C 359.77 586.78 359.70 566.00 359.79 545.22 Z" />
<path fill="#000000" opacity="1.00" d=" M 454.90 546.75 C 464.58 543.18 475.71 543.89 484.95 548.46 C 469.11 555.97 453.24 563.43 437.39 570.92 C 436.82 559.98 445.06 550.45 454.90 546.75 Z" />
<path fill="#000000" opacity="1.00" d=" M 477.82 562.91 C 483.03 560.43 488.26 557.98 493.48 555.51 C 498.09 560.78 499.20 567.97 498.76 574.75 C 492.67 574.75 486.59 574.75 480.51 574.74 C 480.60 570.65 480.85 566.10 477.82 562.91 Z" />
<path fill="#000000" opacity="1.00" d=" M 438.19 581.63 C 444.04 578.84 449.91 576.09 455.76 573.31 C 455.38 576.82 455.80 580.84 459.25 582.72 C 468.03 587.66 478.86 587.84 487.20 593.81 C 493.37 597.39 498.25 603.58 498.59 610.93 C 498.69 617.91 499.58 625.32 496.91 631.96 C 493.15 638.53 487.66 645.00 479.90 646.67 C 471.96 648.50 463.51 648.60 455.59 646.64 C 443.13 643.59 434.94 630.30 436.18 617.80 C 442.29 617.69 448.39 617.77 454.50 617.75 C 454.50 620.45 454.33 623.18 454.72 625.87 C 456.11 629.80 459.77 632.94 464.03 633.13 C 469.69 633.78 476.91 632.52 479.75 626.96 C 481.01 622.11 480.44 617.00 480.40 612.04 C 480.59 608.34 477.38 605.93 474.41 604.51 C 465.38 600.28 454.79 599.54 446.73 593.27 C 442.63 590.51 439.55 586.39 438.19 581.63 Z" />
<path fill="#000000" opacity="1.00" d=" M 299.75 590.75 C 310.67 590.74 321.58 590.75 332.49 590.75 C 332.49 600.65 332.54 610.55 332.47 620.46 C 325.50 623.73 318.58 627.08 311.58 630.27 C 312.77 627.95 314.28 625.62 314.23 622.92 C 314.34 616.47 314.15 610.02 314.30 603.58 C 309.45 603.41 304.60 603.53 299.75 603.49 C 299.75 599.24 299.75 595.00 299.75 590.75 Z" />
<path fill="#000000" opacity="1.00" d=" M 382.92 607.67 C 394.37 602.37 405.71 596.86 417.17 591.59 C 413.35 600.26 404.18 605.62 395.03 606.81 C 391.02 607.56 386.92 606.86 382.92 607.67 Z" />
<path fill="#000000" opacity="1.00" d=" M 359.77 618.64 C 365.85 615.77 371.92 612.90 378.00 610.04 C 378.00 622.44 378.00 634.84 378.00 647.25 C 371.91 647.25 365.83 647.25 359.75 647.25 C 359.76 637.71 359.72 628.17 359.77 618.64 Z" />
<path fill="#000000" opacity="1.00" d=" M 298.04 647.82 C 308.69 642.79 319.29 637.64 330.03 632.79 C 328.68 637.53 324.35 640.82 320.36 643.38 C 313.68 647.31 305.68 648.60 298.04 647.82 Z" />
<path fill="#000000" opacity="1.00" d=" M 228.22 692.78 C 229.49 691.99 230.75 691.19 232.01 690.39 C 235.69 693.38 239.08 696.71 242.50 700.00 C 245.78 696.61 249.27 693.41 252.90 690.40 C 254.14 691.18 255.38 691.98 256.62 692.80 C 252.11 698.12 247.99 703.75 244.14 709.57 C 242.88 709.51 241.62 709.46 240.36 709.43 C 236.75 703.57 232.67 698.02 228.22 692.78 Z" />
<path fill="#000000" opacity="1.00" d=" M 606.74 705.98 C 610.18 701.58 613.57 697.15 617.01 692.76 C 620.07 692.74 623.12 692.73 626.19 692.79 C 622.03 697.47 617.15 701.44 612.88 706.01 C 610.83 705.99 608.78 705.98 606.74 705.98 Z" />
<path fill="#000000" opacity="1.00" d=" M 131.50 711.00 C 140.58 711.00 149.66 710.99 158.75 711.01 C 158.64 714.07 159.17 717.25 158.27 720.24 C 152.39 736.23 146.52 752.23 140.69 768.24 C 146.71 768.26 152.73 768.24 158.75 768.25 C 158.75 771.41 158.75 774.58 158.74 777.75 C 149.25 777.75 139.76 777.75 130.26 777.75 C 130.41 774.16 129.67 770.41 131.00 766.97 C 136.80 751.34 142.47 735.65 148.23 720.00 C 142.65 719.99 137.08 720.00 131.50 720.00 C 131.50 716.99 131.50 714.00 131.50 711.00 Z" />
<path fill="#000000" opacity="1.00" d=" M 171.75 711.01 C 174.77 710.99 177.78 710.99 180.80 711.02 C 184.91 722.82 189.08 734.61 193.32 746.38 C 197.60 734.59 201.55 722.69 205.84 710.91 C 208.72 711.02 211.61 711.01 214.50 711.00 C 214.46 733.27 214.58 755.54 214.44 777.81 C 211.30 777.72 208.15 777.73 205.01 777.76 C 204.77 764.36 205.45 750.92 204.65 737.55 C 202.09 746.50 198.87 755.26 196.00 764.12 C 195.56 766.61 192.39 765.10 190.72 765.53 C 187.52 756.21 184.62 746.80 181.28 737.54 C 181.15 750.97 181.40 764.41 181.15 777.85 C 178.02 777.69 174.89 777.74 171.76 777.76 C 171.73 755.51 171.76 733.26 171.75 711.01 Z" />
<path fill="#000000" opacity="1.00" d=" M 230.00 711.00 C 239.53 711.05 249.05 710.88 258.58 711.09 C 258.49 713.97 258.48 716.85 258.51 719.74 C 252.17 719.76 245.84 719.74 239.50 719.75 C 239.50 726.33 239.50 732.91 239.50 739.50 C 245.11 739.54 250.71 739.40 256.31 739.58 C 256.22 742.52 256.22 745.47 256.32 748.42 C 250.71 748.60 245.11 748.45 239.50 748.50 C 239.50 755.08 239.50 761.66 239.50 768.25 C 245.84 768.25 252.17 768.24 258.50 768.26 C 258.50 771.41 258.50 774.58 258.50 777.74 C 249.01 777.77 239.51 777.72 230.02 777.77 C 229.97 755.51 230.01 733.26 230.00 711.00 Z" />
<path fill="#000000" opacity="1.00" d=" M 272.23 711.02 C 275.21 711.01 278.18 711.00 281.16 710.93 C 286.15 724.34 291.04 737.80 295.83 751.29 C 296.22 737.87 295.89 724.43 296.00 711.00 C 299.17 710.99 302.33 710.99 305.50 711.00 C 305.60 733.21 305.29 755.42 305.65 777.61 C 302.59 777.79 299.52 777.79 296.45 777.72 C 292.93 767.83 289.30 757.99 285.72 748.13 C 284.43 744.95 283.64 741.56 281.88 738.60 C 281.58 751.64 281.83 764.70 281.75 777.75 C 278.58 777.75 275.42 777.75 272.25 777.74 C 272.24 755.50 272.27 733.26 272.23 711.02 Z" />
<path fill="#000000" opacity="1.00" d=" M 329.86 711.01 C 332.90 710.99 335.95 710.99 339.00 711.01 C 344.02 733.25 348.97 755.50 354.01 777.74 C 350.65 777.75 347.28 777.69 343.92 777.84 C 342.66 773.12 342.02 768.27 341.02 763.50 C 336.88 763.47 332.74 763.58 328.60 763.39 C 327.45 768.13 326.73 772.95 325.75 777.72 C 322.42 777.75 319.11 777.75 315.79 777.76 C 320.39 755.49 325.23 733.27 329.86 711.01 M 334.66 731.32 C 333.18 739.04 331.70 746.77 330.25 754.51 C 333.24 754.50 336.23 754.49 339.22 754.50 C 337.70 746.78 336.51 738.97 334.66 731.32 Z" />
<path fill="#000000" opacity="1.00" d=" M 381.77 711.01 C 385.10 710.98 388.43 710.99 391.77 711.03 C 394.37 726.38 396.63 741.80 399.51 757.11 C 401.93 741.73 404.92 726.45 407.43 711.09 C 410.78 710.96 414.13 710.97 417.49 711.01 C 412.85 733.26 408.15 755.50 403.51 777.74 C 400.75 777.74 397.99 777.75 395.23 777.74 C 390.77 755.49 386.22 733.26 381.77 711.01 Z" />
<path fill="#000000" opacity="1.00" d=" M 428.50 711.00 C 438.00 710.99 447.50 711.00 457.00 711.00 C 457.01 713.92 456.99 716.84 456.98 719.76 C 450.65 719.74 444.33 719.75 438.00 719.75 C 438.00 726.33 438.00 732.91 438.00 739.50 C 443.58 739.49 449.16 739.50 454.74 739.49 C 454.72 742.46 454.71 745.43 454.89 748.40 C 449.28 748.59 443.67 748.50 438.06 748.45 C 437.93 755.05 438.02 761.65 438.00 768.25 C 444.33 768.24 450.65 768.26 456.98 768.24 C 457.01 771.41 457.01 774.59 456.97 777.77 C 447.44 777.65 437.91 777.89 428.39 777.65 C 428.64 755.43 428.43 733.22 428.50 711.00 Z" />
<path fill="#000000" opacity="1.00" d=" M 470.75 711.00 C 476.19 711.06 481.64 710.88 487.09 711.06 C 494.70 711.49 501.48 718.27 501.48 725.98 C 501.51 737.96 501.51 749.95 501.48 761.93 C 501.52 768.13 497.75 774.34 491.89 776.61 C 485.11 778.86 477.82 777.20 470.82 777.84 C 470.65 755.56 470.80 733.28 470.75 711.00 M 480.24 720.01 C 480.26 736.26 480.24 752.50 480.25 768.75 C 483.36 768.61 486.86 769.34 489.59 767.45 C 491.82 765.70 492.05 762.63 492.02 760.01 C 491.96 748.97 492.03 737.93 491.99 726.89 C 492.23 723.83 490.03 720.84 487.03 720.23 C 484.78 719.84 482.50 720.00 480.24 720.01 Z" />
<path fill="#000000" opacity="1.00" d=" M 516.23 711.02 C 525.74 710.98 535.25 710.99 544.76 711.02 C 544.75 713.92 544.74 716.83 544.75 719.75 C 538.41 719.75 532.08 719.74 525.75 719.75 C 525.69 726.29 525.88 732.83 525.64 739.37 C 531.25 739.65 536.87 739.42 542.50 739.50 C 542.50 742.50 542.50 745.49 542.50 748.50 C 536.89 748.54 531.29 748.40 525.69 748.58 C 525.81 755.13 525.72 761.69 525.75 768.25 C 532.08 768.25 538.41 768.24 544.75 768.25 C 544.75 771.41 544.75 774.58 544.75 777.75 C 535.25 777.75 525.75 777.75 516.25 777.75 C 516.24 755.51 516.27 733.26 516.23 711.02 Z" />
<path fill="#000000" opacity="1.00" d=" M 558.50 711.01 C 561.56 710.95 564.62 710.95 567.68 711.14 C 572.34 724.37 576.96 737.65 582.17 750.67 C 582.34 737.46 582.22 724.23 582.24 711.02 C 585.41 710.99 588.58 710.99 591.76 711.02 C 591.73 733.26 591.76 755.50 591.75 777.74 C 588.68 777.78 585.61 777.79 582.55 777.62 C 578.01 764.23 572.97 751.01 568.15 737.72 C 567.80 751.06 568.11 764.42 567.98 777.77 C 564.85 777.74 561.72 777.68 558.61 777.89 C 558.36 755.60 558.57 733.31 558.50 711.01 Z" />
<path fill="#000000" opacity="1.00" d=" M 607.23 711.03 C 610.41 710.98 613.58 710.98 616.77 711.03 C 616.72 733.27 616.77 755.51 616.75 777.75 C 613.58 777.75 610.41 777.75 607.25 777.75 C 607.23 755.51 607.28 733.27 607.23 711.03 Z" />
<path fill="#000000" opacity="1.00" d=" M 229.75 841.00 C 235.22 841.06 240.69 840.88 246.16 841.06 C 253.74 841.54 260.48 848.30 260.48 855.99 C 260.51 867.98 260.52 879.98 260.48 891.98 C 260.52 898.49 256.29 905.02 249.94 906.94 C 243.36 908.57 236.47 907.39 229.76 907.75 C 229.74 885.50 229.75 863.25 229.75 841.00 M 239.23 850.02 C 239.28 866.27 239.23 882.51 239.25 898.75 C 242.14 898.63 245.26 899.21 247.95 897.86 C 250.35 896.57 251.04 893.58 251.00 891.07 C 251.01 880.03 250.97 869.00 251.02 857.97 C 251.10 855.78 250.78 853.37 249.04 851.85 C 246.44 849.29 242.51 850.10 239.23 850.02 Z" />
<path fill="#000000" opacity="1.00" d=" M 286.17 841.11 C 295.37 838.12 306.16 845.35 306.41 855.13 C 306.62 867.42 306.44 879.73 306.50 892.03 C 306.77 899.75 300.70 907.02 293.05 908.10 C 285.95 909.15 277.98 905.14 275.59 898.16 C 274.50 895.58 274.46 892.75 274.48 890.01 C 274.56 878.66 274.43 867.31 274.53 855.96 C 274.57 849.13 279.68 842.94 286.17 841.11 M 288.33 850.45 C 285.67 851.36 283.92 854.05 284.04 856.85 C 283.93 868.23 284.04 879.62 283.99 891.01 C 283.76 894.27 285.53 898.18 289.10 898.67 C 292.67 899.50 296.83 896.90 296.91 893.06 C 297.14 881.04 296.91 869.01 297.02 857.00 C 297.63 852.52 292.50 848.48 288.33 850.45 Z" />
<path fill="#000000" opacity="1.00" d=" M 321.24 841.02 C 326.86 841.05 332.49 840.87 338.11 841.07 C 346.00 841.58 352.86 848.99 352.27 856.98 C 352.04 862.46 353.08 868.36 350.45 873.43 C 348.39 876.93 345.08 879.89 341.08 880.88 C 337.68 881.76 334.14 881.41 330.67 881.60 C 330.84 890.31 330.71 899.03 330.75 907.75 C 327.58 907.75 324.42 907.74 321.25 907.75 C 321.24 885.50 321.27 863.26 321.24 841.02 M 330.75 849.76 C 330.74 857.34 330.75 864.91 330.75 872.49 C 334.11 872.24 338.16 873.39 340.95 870.96 C 343.57 868.73 342.56 864.99 342.77 862.00 C 342.51 858.59 343.61 854.63 341.23 851.77 C 338.67 848.68 334.22 850.00 330.75 849.76 Z" />
<path fill="#000000" opacity="1.00" d=" M 363.75 841.00 C 369.51 841.03 375.26 840.93 381.02 841.03 C 386.66 841.01 391.92 844.61 394.41 849.59 C 396.70 854.03 395.93 859.19 395.96 864.00 C 395.96 869.42 392.66 874.18 388.29 877.14 C 391.73 887.30 394.91 897.55 398.25 907.75 C 394.93 907.75 391.60 907.75 388.28 907.74 C 385.27 898.15 382.28 888.55 379.21 878.99 C 377.21 878.99 375.22 879.00 373.24 879.02 C 373.26 888.59 373.25 898.17 373.24 907.75 C 370.09 907.74 366.94 907.74 363.79 907.78 C 363.70 885.52 363.77 863.26 363.75 841.00 M 373.24 850.03 C 373.27 856.85 373.23 863.67 373.26 870.50 C 377.31 870.22 382.91 871.79 385.47 867.62 C 387.17 863.37 386.63 858.50 386.11 854.06 C 384.27 848.61 377.64 850.15 373.24 850.03 Z" />
<path fill="#000000" opacity="1.00" d=" M 419.11 841.00 C 422.16 840.99 425.20 840.99 428.25 841.00 C 433.25 863.25 438.27 885.50 443.23 907.75 C 439.83 907.74 436.44 907.74 433.04 907.76 C 432.03 903.02 431.21 898.25 430.27 893.50 C 426.09 893.49 421.92 893.50 417.74 893.49 C 416.75 898.23 415.96 903.02 414.96 907.76 C 411.64 907.74 408.32 907.74 405.01 907.75 C 409.69 885.49 414.46 863.26 419.11 841.00 M 423.83 861.84 C 422.32 869.38 420.94 876.95 419.49 884.50 C 422.48 884.49 425.47 884.50 428.47 884.52 C 426.85 876.98 426.06 869.20 423.83 861.84 Z" />
<path fill="#000000" opacity="1.00" d=" M 448.27 841.01 C 451.58 841.00 454.89 841.00 458.21 840.98 C 460.75 856.34 463.44 871.68 465.72 887.08 C 468.86 871.79 471.15 856.34 474.03 841.00 C 477.35 840.99 480.67 840.99 483.99 841.01 C 479.33 863.26 474.67 885.50 469.99 907.74 C 467.21 907.79 464.43 907.73 461.66 907.69 C 457.36 885.43 452.66 863.25 448.27 841.01 Z" />
<path fill="#000000" opacity="1.00" d=" M 489.53 841.01 C 492.89 840.97 496.24 840.96 499.60 841.10 C 502.13 849.79 504.52 858.54 507.44 867.11 C 509.87 858.37 512.66 849.73 515.23 841.04 C 518.55 840.99 521.88 840.97 525.21 841.00 C 521.59 851.67 517.80 862.28 514.12 872.93 C 513.25 875.56 511.93 878.13 511.99 880.98 C 511.98 889.90 512.02 898.83 511.99 907.76 C 508.82 907.75 505.66 907.74 502.50 907.74 C 502.50 898.82 502.50 889.89 502.51 880.97 C 502.51 878.12 501.27 875.49 500.40 872.85 C 496.76 862.24 493.10 851.64 489.53 841.01 Z" />
</g>
<g id="#ce161eff">
<path fill="#ce161e" opacity="1.00" d=" M 376.28 182.21 C 379.84 181.87 383.38 183.91 385.10 187.01 C 445.12 290.92 505.11 394.86 565.12 498.78 C 567.60 502.45 567.32 507.80 563.95 510.83 C 561.93 513.01 558.83 513.41 556.02 513.40 C 438.69 513.37 321.35 513.39 204.01 513.38 C 200.38 513.29 196.64 513.77 193.09 512.77 C 187.89 510.95 185.44 504.08 188.54 499.44 C 248.47 395.46 308.57 291.57 368.53 187.60 C 370.00 184.59 372.98 182.62 376.28 182.21 M 375.47 251.30 C 375.44 251.34 375.39 251.43 375.37 251.47 C 373.99 253.71 372.67 255.97 371.47 258.31 C 371.44 258.36 371.39 258.45 371.36 258.50 C 370.37 260.11 369.33 261.70 368.44 263.37 C 368.43 263.40 368.40 263.47 368.38 263.50 L 367.54 265.25 C 367.49 265.34 367.40 265.50 367.35 265.58 C 366.26 267.10 365.27 268.69 364.43 270.37 C 364.41 270.41 364.38 270.48 364.36 270.52 L 363.53 272.26 C 363.48 272.34 363.39 272.50 363.35 272.57 C 362.20 274.04 361.32 275.68 360.46 277.33 C 360.43 277.38 360.38 277.47 360.36 277.51 C 359.00 279.71 357.60 281.89 356.56 284.26 C 356.51 284.35 356.42 284.51 356.37 284.59 C 355.27 286.13 354.27 287.73 353.42 289.42 C 353.40 289.45 353.37 289.51 353.35 289.54 L 352.53 291.26 C 352.49 291.34 352.40 291.50 352.35 291.58 C 351.24 293.06 350.34 294.68 349.47 296.30 C 349.44 296.34 349.40 296.42 349.38 296.46 C 348.00 298.69 346.70 300.98 345.48 303.31 C 345.45 303.35 345.40 303.44 345.37 303.49 C 343.99 305.69 342.58 307.89 341.54 310.29 C 341.49 310.37 341.39 310.53 341.35 310.61 C 340.26 312.14 339.26 313.73 338.42 315.41 C 338.40 315.44 338.37 315.50 338.35 315.53 L 337.52 317.27 C 337.48 317.35 337.38 317.51 337.33 317.59 C 336.21 319.07 335.32 320.70 334.46 322.34 C 334.43 322.38 334.38 322.47 334.36 322.51 C 332.96 324.73 331.67 327.01 330.46 329.34 C 330.43 329.38 330.38 329.48 330.35 329.52 C 329.34 331.14 328.29 332.74 327.41 334.43 C 327.40 334.46 327.37 334.52 327.35 334.55 L 326.54 336.25 C 326.50 336.34 326.40 336.50 326.36 336.58 C 325.27 338.10 324.28 339.69 323.44 341.36 C 323.42 341.40 323.38 341.48 323.36 341.52 L 322.52 343.27 C 322.47 343.35 322.38 343.51 322.34 343.59 C 321.20 345.04 320.33 346.67 319.48 348.31 C 319.45 348.35 319.40 348.44 319.37 348.49 C 318.02 350.70 316.60 352.88 315.56 355.26 C 315.51 355.34 315.41 355.51 315.36 355.60 C 314.28 357.14 313.27 358.73 312.42 360.42 C 312.40 360.45 312.37 360.51 312.35 360.54 L 311.54 362.25 C 311.49 362.33 311.40 362.50 311.35 362.58 C 310.22 364.06 309.34 365.71 308.46 367.35 C 308.44 367.39 308.39 367.47 308.37 367.51 C 306.98 369.74 305.68 372.02 304.46 374.35 C 304.44 374.39 304.38 374.48 304.36 374.53 C 302.98 376.71 301.59 378.89 300.55 381.26 C 300.50 381.34 300.41 381.51 300.36 381.59 C 299.27 383.12 298.28 384.71 297.43 386.38 C 297.42 386.41 297.39 386.48 297.37 386.51 L 296.53 388.27 C 296.48 388.35 296.38 388.51 296.34 388.59 C 295.22 390.07 294.32 391.70 293.46 393.33 C 293.43 393.37 293.39 393.45 293.36 393.49 C 291.98 395.71 290.69 397.98 289.48 400.30 C 289.45 400.35 289.40 400.44 289.37 400.49 C 288.38 402.11 287.33 403.70 286.44 405.39 C 286.42 405.43 286.37 405.52 286.35 405.56 L 285.55 407.26 C 285.50 407.34 285.41 407.51 285.36 407.59 C 284.26 409.11 283.27 410.71 282.42 412.40 C 282.41 412.43 282.37 412.51 282.35 412.54 L 281.52 414.27 C 281.47 414.35 281.38 414.51 281.33 414.59 C 280.21 416.06 279.32 417.68 278.46 419.32 C 278.44 419.36 278.39 419.44 278.37 419.48 C 277.02 421.70 275.61 423.88 274.56 426.26 C 274.51 426.34 274.41 426.51 274.36 426.60 C 273.27 428.14 272.27 429.73 271.41 431.42 C 271.40 431.45 271.36 431.52 271.35 431.55 L 270.53 433.28 C 270.48 433.37 270.38 433.53 270.33 433.61 C 269.22 435.08 268.33 436.70 267.47 438.33 C 267.45 438.37 267.40 438.45 267.38 438.49 C 265.99 440.71 264.70 443.00 263.47 445.32 C 263.44 445.36 263.39 445.45 263.37 445.50 C 261.99 447.69 260.60 449.89 259.55 452.26 C 259.50 452.35 259.40 452.51 259.35 452.60 C 258.28 454.13 257.27 455.72 256.42 457.40 C 256.40 457.43 256.37 457.49 256.36 457.52 L 255.53 459.25 C 255.49 459.33 255.39 459.50 255.35 459.58 C 254.25 461.05 253.35 462.67 252.48 464.29 C 252.45 464.33 252.41 464.41 252.39 464.45 C 250.99 466.69 249.71 468.99 248.46 471.31 C 248.43 471.36 248.38 471.45 248.35 471.49 C 247.43 472.79 246.72 474.19 246.23 475.71 C 333.41 475.72 420.58 475.71 507.76 475.72 C 507.27 474.19 506.56 472.78 505.65 471.49 C 505.62 471.44 505.57 471.35 505.54 471.31 C 504.29 469.00 503.02 466.71 501.63 464.50 C 501.61 464.46 501.56 464.37 501.54 464.33 C 500.65 462.69 499.76 461.05 498.65 459.57 C 498.60 459.49 498.51 459.33 498.46 459.25 L 497.62 457.48 C 497.61 457.45 497.58 457.39 497.56 457.37 C 496.72 455.70 495.72 454.13 494.65 452.61 C 494.60 452.53 494.51 452.36 494.46 452.28 C 493.41 449.91 492.03 447.73 490.66 445.55 C 490.63 445.51 490.58 445.41 490.55 445.37 C 489.31 443.03 488.01 440.73 486.63 438.48 C 486.61 438.44 486.56 438.37 486.54 438.33 C 485.66 436.70 484.77 435.08 483.66 433.60 C 483.61 433.52 483.51 433.35 483.47 433.27 L 482.65 431.55 C 482.63 431.52 482.60 431.45 482.58 431.42 C 481.72 429.74 480.72 428.15 479.64 426.61 C 479.60 426.53 479.50 426.36 479.45 426.28 C 478.40 423.90 476.99 421.72 475.65 419.51 C 475.62 419.47 475.57 419.38 475.55 419.33 C 474.67 417.69 473.79 416.05 472.65 414.58 C 472.61 414.50 472.52 414.34 472.47 414.26 L 471.63 412.50 C 471.62 412.46 471.58 412.40 471.57 412.37 C 470.73 410.70 469.72 409.12 468.65 407.61 C 468.61 407.52 468.51 407.35 468.46 407.27 L 467.63 405.51 C 467.61 405.48 467.58 405.42 467.57 405.39 C 466.68 403.71 465.63 402.13 464.65 400.52 C 464.62 400.47 464.57 400.38 464.54 400.33 C 463.31 398.00 462.02 395.71 460.62 393.48 C 460.60 393.44 460.55 393.36 460.53 393.32 C 459.65 391.69 458.79 390.06 457.66 388.60 C 457.58 388.45 457.41 388.17 457.33 388.03 L 456.74 386.84 C 456.66 386.69 456.50 386.38 456.43 386.23 C 455.66 384.59 454.69 383.06 453.65 381.59 C 453.60 381.51 453.50 381.34 453.45 381.26 C 452.40 378.90 451.02 376.72 449.66 374.54 C 449.63 374.49 449.58 374.40 449.55 374.36 C 448.31 372.02 447.00 369.72 445.61 367.47 C 445.59 367.43 445.55 367.35 445.52 367.31 C 444.65 365.69 443.77 364.08 442.67 362.61 C 442.62 362.53 442.52 362.36 442.48 362.28 L 441.65 360.55 C 441.64 360.52 441.61 360.46 441.59 360.43 C 440.73 358.75 439.73 357.15 438.65 355.61 C 438.60 355.53 438.50 355.36 438.45 355.27 C 437.40 352.89 435.98 350.71 434.65 348.50 C 434.62 348.46 434.57 348.37 434.55 348.33 C 433.68 346.69 432.79 345.06 431.67 343.59 C 431.62 343.51 431.53 343.36 431.48 343.28 L 430.65 341.52 C 430.63 341.49 430.60 341.43 430.59 341.39 C 429.73 339.71 428.74 338.11 427.65 336.59 C 427.60 336.50 427.50 336.34 427.46 336.25 L 426.62 334.51 C 426.61 334.47 426.57 334.41 426.55 334.37 C 425.66 332.70 424.63 331.11 423.64 329.50 C 423.61 329.46 423.56 329.36 423.53 329.32 C 422.32 327.00 421.03 324.73 419.65 322.52 C 419.63 322.48 419.58 322.40 419.56 322.36 C 418.68 320.72 417.80 319.08 416.67 317.61 C 416.59 317.47 416.42 317.18 416.34 317.04 L 415.74 315.84 C 415.66 315.69 415.51 315.38 415.43 315.23 C 414.66 313.59 413.70 312.06 412.65 310.60 C 412.60 310.52 412.51 310.36 412.46 310.27 C 411.41 307.90 410.02 305.71 408.64 303.52 C 408.62 303.47 408.57 303.38 408.54 303.34 C 407.31 301.01 406.01 298.72 404.62 296.49 C 404.60 296.45 404.55 296.37 404.53 296.32 C 403.65 294.69 402.77 293.05 401.65 291.57 C 401.60 291.49 401.51 291.33 401.46 291.25 L 400.65 289.54 C 400.63 289.51 400.60 289.46 400.59 289.43 C 399.73 287.75 398.73 286.15 397.65 284.62 C 397.60 284.53 397.50 284.37 397.45 284.28 C 396.40 281.89 394.98 279.71 393.63 277.49 C 393.61 277.45 393.56 277.36 393.53 277.31 C 392.67 275.68 391.80 274.05 390.66 272.59 C 390.62 272.51 390.53 272.35 390.48 272.27 L 389.68 270.59 C 389.66 270.55 389.62 270.47 389.60 270.43 C 388.74 268.73 387.74 267.12 386.65 265.58 C 386.60 265.50 386.50 265.34 386.46 265.26 L 385.63 263.52 C 385.62 263.49 385.58 263.43 385.57 263.40 C 384.67 261.72 383.63 260.12 382.64 258.50 C 382.62 258.46 382.57 258.37 382.54 258.32 C 381.33 255.98 380.02 253.71 378.61 251.50 C 378.58 251.45 378.53 251.35 378.50 251.30 C 378.24 250.70 377.72 249.51 377.45 248.92 C 376.51 249.44 375.84 250.23 375.47 251.30 Z" />
<path fill="#ce161e" opacity="1.00" d=" M 484.95 548.46 C 489.21 546.79 493.12 543.50 497.94 543.96 C 504.40 544.12 510.87 543.79 517.33 544.17 C 509.45 548.10 501.41 551.69 493.48 555.51 C 488.26 557.98 483.03 560.43 477.82 562.91 C 470.47 566.37 463.12 569.84 455.76 573.31 C 449.91 576.09 444.04 578.84 438.19 581.63 C 431.18 584.94 424.14 588.20 417.17 591.59 C 405.71 596.86 394.37 602.37 382.92 607.67 C 381.28 608.45 379.65 609.26 378.00 610.04 C 371.92 612.90 365.85 615.77 359.77 618.64 C 349.86 623.36 339.87 627.93 330.03 632.79 C 319.29 637.64 308.69 642.79 298.04 647.82 C 292.77 650.24 287.55 652.75 282.32 655.24 C 280.03 656.34 277.42 655.96 274.98 656.02 C 269.22 655.88 263.46 656.22 257.71 655.81 C 266.39 651.58 275.18 647.59 283.87 643.38 C 291.12 640.00 298.35 636.60 305.56 633.13 C 307.55 632.15 309.55 631.18 311.58 630.27 C 318.58 627.08 325.50 623.73 332.47 620.46 C 341.56 616.16 350.67 611.89 359.76 607.56 C 369.97 602.78 380.15 597.96 390.34 593.12 C 393.24 591.77 396.20 590.50 398.94 588.84 L 400.36 588.96 L 400.77 588.13 C 406.86 585.44 412.84 582.49 418.86 579.64 C 425.06 576.78 431.21 573.82 437.39 570.92 C 453.24 563.43 469.11 555.97 484.95 548.46 Z" />
</g>
<g id="#e47e82ff">
<path fill="#e47e82" opacity="1.00" d=" M 375.37 251.47 C 375.39 251.43 375.44 251.34 375.47 251.30 C 375.44 251.34 375.39 251.43 375.37 251.47 Z" />
<path fill="#e47e82" opacity="1.00" d=" M 378.50 251.30 C 378.53 251.35 378.58 251.45 378.61 251.50 C 378.58 251.45 378.53 251.35 378.50 251.30 Z" />
</g>
<g id="#e6888cff">
<path fill="#e6888c" opacity="1.00" d=" M 371.36 258.50 C 371.39 258.45 371.44 258.36 371.47 258.31 C 371.44 258.36 371.39 258.45 371.36 258.50 Z" />
<path fill="#e6888c" opacity="1.00" d=" M 382.54 258.32 C 382.57 258.37 382.62 258.46 382.64 258.50 C 382.62 258.46 382.57 258.37 382.54 258.32 Z" />
</g>
<g id="#e06e73ff">
<path fill="#e06e73" opacity="1.00" d=" M 368.38 263.50 C 368.40 263.47 368.43 263.40 368.44 263.37 C 368.43 263.40 368.40 263.47 368.38 263.50 Z" />
<path fill="#e06e73" opacity="1.00" d=" M 385.57 263.40 C 385.58 263.43 385.62 263.49 385.63 263.52 C 385.62 263.49 385.58 263.43 385.57 263.40 Z" />
<path fill="#e06e73" opacity="1.00" d=" M 327.35 334.55 C 327.37 334.52 327.40 334.46 327.41 334.43 C 327.40 334.46 327.37 334.52 327.35 334.55 Z" />
<path fill="#e06e73" opacity="1.00" d=" M 426.55 334.37 C 426.57 334.41 426.61 334.47 426.62 334.51 C 426.61 334.47 426.57 334.41 426.55 334.37 Z" />
</g>
<g id="#e89194ff">
<path fill="#e89194" opacity="1.00" d=" M 367.35 265.58 C 367.40 265.50 367.49 265.34 367.54 265.25 L 367.46 265.43 L 367.35 265.58 Z" />
<path fill="#e89194" opacity="1.00" d=" M 386.46 265.26 C 386.50 265.34 386.60 265.50 386.65 265.58 L 386.54 265.43 L 386.46 265.26 Z" />
<path fill="#e89194" opacity="1.00" d=" M 326.36 336.58 C 326.40 336.50 326.50 336.34 326.54 336.25 L 326.46 336.43 L 326.36 336.58 Z" />
<path fill="#e89194" opacity="1.00" d=" M 427.46 336.25 C 427.50 336.34 427.60 336.50 427.65 336.59 L 427.54 336.43 L 427.46 336.25 Z" />
</g>
<g id="#e3787dff">
<path fill="#e3787d" opacity="1.00" d=" M 364.36 270.52 C 364.38 270.48 364.41 270.41 364.43 270.37 C 364.41 270.41 364.38 270.48 364.36 270.52 Z" />
<path fill="#e3787d" opacity="1.00" d=" M 389.60 270.43 C 389.62 270.47 389.66 270.55 389.68 270.59 C 389.66 270.55 389.62 270.47 389.60 270.43 Z" />
</g>
<g id="#ea9a9eff">
<path fill="#ea9a9e" opacity="1.00" d=" M 363.35 272.57 C 363.39 272.50 363.48 272.34 363.53 272.26 L 363.45 272.42 L 363.35 272.57 Z" />
<path fill="#ea9a9e" opacity="1.00" d=" M 390.48 272.27 C 390.53 272.35 390.62 272.51 390.66 272.59 L 390.56 272.44 L 390.48 272.27 Z" />
</g>
<g id="#e58186ff">
<path fill="#e58186" opacity="1.00" d=" M 360.36 277.51 C 360.38 277.47 360.43 277.38 360.46 277.33 C 360.43 277.38 360.38 277.47 360.36 277.51 Z" />
<path fill="#e58186" opacity="1.00" d=" M 393.53 277.31 C 393.56 277.36 393.61 277.45 393.63 277.49 C 393.61 277.45 393.56 277.36 393.53 277.31 Z" />
</g>
<g id="#e68b8fff">
<path fill="#e68b8f" opacity="1.00" d=" M 356.37 284.59 C 356.42 284.51 356.51 284.35 356.56 284.26 L 356.48 284.44 L 356.37 284.59 Z" />
<path fill="#e68b8f" opacity="1.00" d=" M 397.45 284.28 C 397.50 284.37 397.60 284.53 397.65 284.62 L 397.54 284.46 L 397.45 284.28 Z" />
</g>
<g id="#e17176ff">
<path fill="#e17176" opacity="1.00" d=" M 353.35 289.54 C 353.37 289.51 353.40 289.45 353.42 289.42 C 353.40 289.45 353.37 289.51 353.35 289.54 Z" />
<path fill="#e17176" opacity="1.00" d=" M 400.59 289.43 C 400.60 289.46 400.63 289.51 400.65 289.54 C 400.63 289.51 400.60 289.46 400.59 289.43 Z" />
</g>
<g id="#e89498ff">
<path fill="#e89498" opacity="1.00" d=" M 352.35 291.58 C 352.40 291.50 352.49 291.34 352.53 291.26 L 352.46 291.43 L 352.35 291.58 Z" />
<path fill="#e89498" opacity="1.00" d=" M 401.46 291.25 C 401.51 291.33 401.60 291.49 401.65 291.57 L 401.54 291.42 L 401.46 291.25 Z" />
</g>
<g id="#e37b7fff">
<path fill="#e37b7f" opacity="1.00" d=" M 349.38 296.46 C 349.40 296.42 349.44 296.34 349.47 296.30 C 349.44 296.34 349.40 296.42 349.38 296.46 Z" />
<path fill="#e37b7f" opacity="1.00" d=" M 404.53 296.32 C 404.55 296.37 404.60 296.45 404.62 296.49 C 404.60 296.45 404.55 296.37 404.53 296.32 Z" />
</g>
<g id="#e58388ff">
<path fill="#e58388" opacity="1.00" d=" M 345.37 303.49 C 345.40 303.44 345.45 303.35 345.48 303.31 C 345.45 303.35 345.40 303.44 345.37 303.49 Z" />
<path fill="#e58388" opacity="1.00" d=" M 408.54 303.34 C 408.57 303.38 408.62 303.47 408.64 303.52 C 408.62 303.47 408.57 303.38 408.54 303.34 Z" />
<path fill="#e58388" opacity="1.00" d=" M 304.36 374.53 C 304.38 374.48 304.44 374.39 304.46 374.35 C 304.44 374.39 304.38 374.48 304.36 374.53 Z" />
<path fill="#e58388" opacity="1.00" d=" M 449.55 374.36 C 449.58 374.40 449.63 374.49 449.66 374.54 C 449.63 374.49 449.58 374.40 449.55 374.36 Z" />
</g>
<g id="#e78d91ff">
<path fill="#e78d91" opacity="1.00" d=" M 341.35 310.61 C 341.39 310.53 341.49 310.37 341.54 310.29 L 341.46 310.46 L 341.35 310.61 Z" />
<path fill="#e78d91" opacity="1.00" d=" M 412.46 310.27 C 412.51 310.36 412.60 310.52 412.65 310.60 L 412.54 310.45 L 412.46 310.27 Z" />
</g>
<g id="#e27479ff">
<path fill="#e27479" opacity="1.00" d=" M 338.35 315.53 C 338.37 315.50 338.40 315.44 338.42 315.41 C 338.40 315.44 338.37 315.50 338.35 315.53 Z" />
<path fill="#e27479" opacity="1.00" d=" M 415.43 315.23 C 415.51 315.38 415.66 315.69 415.74 315.84 C 415.66 315.69 415.51 315.38 415.43 315.23 Z" />
</g>
<g id="#e9969aff">
<path fill="#e9969a" opacity="1.00" d=" M 337.33 317.59 C 337.38 317.51 337.48 317.35 337.52 317.27 L 337.45 317.43 L 337.33 317.59 Z" />
<path fill="#e9969a" opacity="1.00" d=" M 416.34 317.04 C 416.42 317.18 416.59 317.47 416.67 317.61 L 416.50 317.39 L 416.34 317.04 Z" />
<path fill="#e9969a" opacity="1.00" d=" M 296.34 388.59 C 296.38 388.51 296.48 388.35 296.53 388.27 L 296.45 388.44 L 296.34 388.59 Z" />
<path fill="#e9969a" opacity="1.00" d=" M 457.33 388.03 C 457.41 388.17 457.58 388.45 457.66 388.60 L 457.49 388.37 L 457.33 388.03 Z" />
</g>
<g id="#939393ff">
<path fill="#939393" opacity="1.00" d=" M 361.55 321.66 C 361.59 321.60 361.68 321.48 361.72 321.42 L 361.62 321.53 L 361.55 321.66 Z" />
<path fill="#939393" opacity="1.00" d=" M 392.27 321.41 C 392.31 321.47 392.40 321.59 392.44 321.65 L 392.36 321.52 L 392.27 321.41 Z" />
</g>
<g id="#e47d82ff">
<path fill="#e47d82" opacity="1.00" d=" M 334.36 322.51 C 334.38 322.47 334.43 322.38 334.46 322.34 C 334.43 322.38 334.38 322.47 334.36 322.51 Z" />
<path fill="#e47d82" opacity="1.00" d=" M 419.56 322.36 C 419.58 322.40 419.63 322.48 419.65 322.52 C 419.63 322.48 419.58 322.40 419.56 322.36 Z" />
</g>
<g id="#e6878bff">
<path fill="#e6878b" opacity="1.00" d=" M 330.35 329.52 C 330.38 329.48 330.43 329.38 330.46 329.34 C 330.43 329.38 330.38 329.48 330.35 329.52 Z" />
<path fill="#e6878b" opacity="1.00" d=" M 423.53 329.32 C 423.56 329.36 423.61 329.46 423.64 329.50 C 423.61 329.46 423.56 329.36 423.53 329.32 Z" />
</g>
<g id="#e2777bff">
<path fill="#e2777b" opacity="1.00" d=" M 323.36 341.52 C 323.38 341.48 323.42 341.40 323.44 341.36 C 323.42 341.40 323.38 341.48 323.36 341.52 Z" />
<path fill="#e2777b" opacity="1.00" d=" M 430.59 341.39 C 430.60 341.43 430.63 341.49 430.65 341.52 C 430.63 341.49 430.60 341.43 430.59 341.39 Z" />
</g>
<g id="#e99a9dff">
<path fill="#e99a9d" opacity="1.00" d=" M 322.34 343.59 C 322.38 343.51 322.47 343.35 322.52 343.27 L 322.45 343.44 L 322.34 343.59 Z" />
<path fill="#e99a9d" opacity="1.00" d=" M 431.48 343.28 C 431.53 343.36 431.62 343.51 431.67 343.59 L 431.56 343.44 L 431.48 343.28 Z" />
</g>
<g id="#e58084ff">
<path fill="#e58084" opacity="1.00" d=" M 319.37 348.49 C 319.40 348.44 319.45 348.35 319.48 348.31 C 319.45 348.35 319.40 348.44 319.37 348.49 Z" />
<path fill="#e58084" opacity="1.00" d=" M 434.55 348.33 C 434.57 348.37 434.62 348.46 434.65 348.50 C 434.62 348.46 434.57 348.37 434.55 348.33 Z" />
</g>
<g id="#e6898dff">
<path fill="#e6898d" opacity="1.00" d=" M 315.36 355.60 C 315.41 355.51 315.51 355.34 315.56 355.26 L 315.48 355.44 L 315.36 355.60 Z" />
<path fill="#e6898d" opacity="1.00" d=" M 438.45 355.27 C 438.50 355.36 438.60 355.53 438.65 355.61 L 438.53 355.45 L 438.45 355.27 Z" />
<path fill="#e6898d" opacity="1.00" d=" M 274.36 426.60 C 274.41 426.51 274.51 426.34 274.56 426.26 L 274.47 426.44 L 274.36 426.60 Z" />
<path fill="#e6898d" opacity="1.00" d=" M 479.45 426.28 C 479.50 426.36 479.60 426.53 479.64 426.61 L 479.53 426.45 L 479.45 426.28 Z" />
</g>
<g id="#e17175ff">
<path fill="#e17175" opacity="1.00" d=" M 312.35 360.54 C 312.37 360.51 312.40 360.45 312.42 360.42 C 312.40 360.45 312.37 360.51 312.35 360.54 Z" />
<path fill="#e17175" opacity="1.00" d=" M 441.59 360.43 C 441.61 360.46 441.64 360.52 441.65 360.55 C 441.64 360.52 441.61 360.46 441.59 360.43 Z" />
</g>
<g id="#e89397ff">
<path fill="#e89397" opacity="1.00" d=" M 311.35 362.58 C 311.40 362.50 311.49 362.33 311.54 362.25 L 311.46 362.42 L 311.35 362.58 Z" />
<path fill="#e89397" opacity="1.00" d=" M 442.48 362.28 C 442.52 362.36 442.62 362.53 442.67 362.61 L 442.56 362.45 L 442.48 362.28 Z" />
</g>
<g id="#e37a7eff">
<path fill="#e37a7e" opacity="1.00" d=" M 308.37 367.51 C 308.39 367.47 308.44 367.39 308.46 367.35 C 308.44 367.39 308.39 367.47 308.37 367.51 Z" />
<path fill="#e37a7e" opacity="1.00" d=" M 445.52 367.31 C 445.55 367.35 445.59 367.43 445.61 367.47 C 445.59 367.43 445.55 367.35 445.52 367.31 Z" />
</g>
<g id="#e78c91ff">
<path fill="#e78c91" opacity="1.00" d=" M 300.36 381.59 C 300.41 381.51 300.50 381.34 300.55 381.26 L 300.47 381.43 L 300.36 381.59 Z" />
<path fill="#e78c91" opacity="1.00" d=" M 453.45 381.26 C 453.50 381.34 453.60 381.51 453.65 381.59 L 453.53 381.44 L 453.45 381.26 Z" />
</g>
<g id="#e27378ff">
<path fill="#e27378" opacity="1.00" d=" M 297.37 386.51 C 297.39 386.48 297.42 386.41 297.43 386.38 C 297.42 386.41 297.39 386.48 297.37 386.51 Z" />
<path fill="#e27378" opacity="1.00" d=" M 456.43 386.23 C 456.50 386.38 456.66 386.69 456.74 386.84 C 456.66 386.69 456.50 386.38 456.43 386.23 Z" />
</g>
<g id="#e37c81ff">
<path fill="#e37c81" opacity="1.00" d=" M 293.36 393.49 C 293.39 393.45 293.43 393.37 293.46 393.33 C 293.43 393.37 293.39 393.45 293.36 393.49 Z" />
<path fill="#e37c81" opacity="1.00" d=" M 460.53 393.32 C 460.55 393.36 460.60 393.44 460.62 393.48 C 460.60 393.44 460.55 393.36 460.53 393.32 Z" />
</g>
<g id="#e6868aff">
<path fill="#e6868a" opacity="1.00" d=" M 289.37 400.49 C 289.40 400.44 289.45 400.35 289.48 400.30 C 289.45 400.35 289.40 400.44 289.37 400.49 Z" />
<path fill="#e6868a" opacity="1.00" d=" M 464.54 400.33 C 464.57 400.38 464.62 400.47 464.65 400.52 C 464.62 400.47 464.57 400.38 464.54 400.33 Z" />
</g>
<g id="#e06d72ff">
<path fill="#e06d72" opacity="1.00" d=" M 286.35 405.56 C 286.37 405.52 286.42 405.43 286.44 405.39 C 286.42 405.43 286.37 405.52 286.35 405.56 Z" />
<path fill="#e06d72" opacity="1.00" d=" M 467.57 405.39 C 467.58 405.42 467.61 405.48 467.63 405.51 C 467.61 405.48 467.58 405.42 467.57 405.39 Z" />
</g>
<g id="#e78f93ff">
<path fill="#e78f93" opacity="1.00" d=" M 285.36 407.59 C 285.41 407.51 285.50 407.34 285.55 407.26 L 285.47 407.44 L 285.36 407.59 Z" />
<path fill="#e78f93" opacity="1.00" d=" M 468.46 407.27 C 468.51 407.35 468.61 407.52 468.65 407.61 L 468.54 407.44 L 468.46 407.27 Z" />
</g>
<g id="#e2767bff">
<path fill="#e2767b" opacity="1.00" d=" M 282.35 412.54 C 282.37 412.51 282.41 412.43 282.42 412.40 C 282.41 412.43 282.37 412.51 282.35 412.54 Z" />
<path fill="#e2767b" opacity="1.00" d=" M 471.57 412.37 C 471.58 412.40 471.62 412.46 471.63 412.50 C 471.62 412.46 471.58 412.40 471.57 412.37 Z" />
</g>
<g id="#ea989cff">
<path fill="#ea989c" opacity="1.00" d=" M 281.33 414.59 C 281.38 414.51 281.47 414.35 281.52 414.27 L 281.44 414.43 L 281.33 414.59 Z" />
<path fill="#ea989c" opacity="1.00" d=" M 472.47 414.26 C 472.52 414.34 472.61 414.50 472.65 414.58 L 472.55 414.43 L 472.47 414.26 Z" />
</g>
<g id="#e57f83ff">
<path fill="#e57f83" opacity="1.00" d=" M 278.37 419.48 C 278.39 419.44 278.44 419.36 278.46 419.32 C 278.44 419.36 278.39 419.44 278.37 419.48 Z" />
<path fill="#e57f83" opacity="1.00" d=" M 475.55 419.33 C 475.57 419.38 475.62 419.47 475.65 419.51 C 475.62 419.47 475.57 419.38 475.55 419.33 Z" />
</g>
<g id="#e16f74ff">
<path fill="#e16f74" opacity="1.00" d=" M 271.35 431.55 C 271.36 431.52 271.40 431.45 271.41 431.42 C 271.40 431.45 271.36 431.52 271.35 431.55 Z" />
<path fill="#e16f74" opacity="1.00" d=" M 482.58 431.42 C 482.60 431.45 482.63 431.52 482.65 431.55 C 482.63 431.52 482.60 431.45 482.58 431.42 Z" />
</g>
<g id="#e89296ff">
<path fill="#e89296" opacity="1.00" d=" M 270.33 433.61 C 270.38 433.53 270.48 433.37 270.53 433.28 L 270.45 433.46 L 270.33 433.61 Z" />
<path fill="#e89296" opacity="1.00" d=" M 483.47 433.27 C 483.51 433.35 483.61 433.52 483.66 433.60 L 483.55 433.44 L 483.47 433.27 Z" />
</g>
<g id="#e3797dff">
<path fill="#e3797d" opacity="1.00" d=" M 267.38 438.49 C 267.40 438.45 267.45 438.37 267.47 438.33 C 267.45 438.37 267.40 438.45 267.38 438.49 Z" />
<path fill="#e3797d" opacity="1.00" d=" M 486.54 438.33 C 486.56 438.37 486.61 438.44 486.63 438.48 C 486.61 438.44 486.56 438.37 486.54 438.33 Z" />
</g>
<g id="#8d8d8dff">
<path fill="#8d8d8d" opacity="1.00" d=" M 370.44 438.70 C 370.51 438.66 370.64 438.59 370.70 438.55 L 370.56 438.62 L 370.44 438.70 Z" />
</g>
<g id="#8e8e8eff">
<path fill="#8e8e8e" opacity="1.00" d=" M 383.31 438.56 C 383.37 438.59 383.50 438.66 383.56 438.69 L 383.44 438.62 L 383.31 438.56 Z" />
</g>
<g id="#606060ff">
<path fill="#606060" opacity="1.00" d=" M 364.40 444.60 C 364.42 444.57 364.45 444.51 364.47 444.48 C 364.45 444.51 364.42 444.57 364.40 444.60 Z" />
</g>
<g id="#616161ff">
<path fill="#616161" opacity="1.00" d=" M 389.50 444.48 C 389.55 444.58 389.66 444.77 389.71 444.87 C 389.66 444.77 389.55 444.58 389.50 444.48 Z" />
</g>
<g id="#e58286ff">
<path fill="#e58286" opacity="1.00" d=" M 263.37 445.50 C 263.39 445.45 263.44 445.36 263.47 445.32 C 263.44 445.36 263.39 445.45 263.37 445.50 Z" />
<path fill="#e58286" opacity="1.00" d=" M 490.55 445.37 C 490.58 445.41 490.63 445.51 490.66 445.55 C 490.63 445.51 490.58 445.41 490.55 445.37 Z" />
</g>
<g id="#777777ff">
<path fill="#777777" opacity="1.00" d=" M 363.53 446.58 C 363.55 446.52 363.58 446.42 363.60 446.37 C 363.58 446.42 363.55 446.52 363.53 446.58 Z" />
</g>
<g id="#787878ff">
<path fill="#787878" opacity="1.00" d=" M 390.29 446.17 C 390.35 446.34 390.49 446.66 390.56 446.83 C 390.49 446.66 390.35 446.34 390.29 446.17 Z" />
</g>
<g id="#e78c90ff">
<path fill="#e78c90" opacity="1.00" d=" M 259.35 452.60 C 259.40 452.51 259.50 452.35 259.55 452.26 L 259.47 452.44 L 259.35 452.60 Z" />
<path fill="#e78c90" opacity="1.00" d=" M 494.46 452.28 C 494.51 452.36 494.60 452.53 494.65 452.61 L 494.54 452.45 L 494.46 452.28 Z" />
</g>
<g id="#e27277ff">
<path fill="#e27277" opacity="1.00" d=" M 256.36 457.52 C 256.37 457.49 256.40 457.43 256.42 457.40 C 256.40 457.43 256.37 457.49 256.36 457.52 Z" />
<path fill="#e27277" opacity="1.00" d=" M 497.56 457.37 C 497.58 457.39 497.61 457.45 497.62 457.48 C 497.61 457.45 497.58 457.39 497.56 457.37 Z" />
</g>
<g id="#7c7c7cff">
<path fill="#7c7c7c" opacity="1.00" d=" M 364.51 458.38 C 364.54 458.43 364.61 458.53 364.64 458.58 C 364.61 458.53 364.54 458.43 364.51 458.38 Z" />
</g>
<g id="#7e7e7eff">
<path fill="#7e7e7e" opacity="1.00" d=" M 389.38 458.56 C 389.41 458.51 389.47 458.41 389.50 458.36 C 389.47 458.41 389.41 458.51 389.38 458.56 Z" />
</g>
<g id="#e99598ff">
<path fill="#e99598" opacity="1.00" d=" M 255.35 459.58 C 255.39 459.50 255.49 459.33 255.53 459.25 L 255.46 459.42 L 255.35 459.58 Z" />
<path fill="#e99598" opacity="1.00" d=" M 498.46 459.25 C 498.51 459.33 498.60 459.49 498.65 459.57 L 498.54 459.42 L 498.46 459.25 Z" />
</g>
<g id="#575757ff">
<path fill="#575757" opacity="1.00" d=" M 369.42 463.52 C 369.45 463.55 369.51 463.59 369.54 463.61 C 369.51 463.59 369.45 463.55 369.42 463.52 Z" />
</g>
<g id="#585858ff">
<path fill="#585858" opacity="1.00" d=" M 384.49 463.59 C 384.53 463.57 384.59 463.52 384.63 463.50 C 384.59 463.52 384.53 463.57 384.49 463.59 Z" />
</g>
<g id="#e37c80ff">
<path fill="#e37c80" opacity="1.00" d=" M 252.39 464.45 C 252.41 464.41 252.45 464.33 252.48 464.29 C 252.45 464.33 252.41 464.41 252.39 464.45 Z" />
<path fill="#e37c80" opacity="1.00" d=" M 501.54 464.33 C 501.56 464.37 501.61 464.46 501.63 464.50 C 501.61 464.46 501.56 464.37 501.54 464.33 Z" />
</g>
<g id="#e68589ff">
<path fill="#e68589" opacity="1.00" d=" M 248.35 471.49 C 248.38 471.45 248.43 471.36 248.46 471.31 C 248.43 471.36 248.38 471.45 248.35 471.49 Z" />
<path fill="#e68589" opacity="1.00" d=" M 505.54 471.31 C 505.57 471.35 505.62 471.44 505.65 471.49 C 505.62 471.44 505.57 471.35 505.54 471.31 Z" />
</g>
</svg>
