<?xml version="1.0" encoding="UTF-8" standalone="no"?>
<!-- Generator: Adobe Illustrator 12.0.1, SVG Export Plug-In  -->

<svg
   xmlns:dc="http://purl.org/dc/elements/1.1/"
   xmlns:cc="http://creativecommons.org/ns#"
   xmlns:rdf="http://www.w3.org/1999/02/22-rdf-syntax-ns#"
   xmlns:svg="http://www.w3.org/2000/svg"
   xmlns="http://www.w3.org/2000/svg"
   xmlns:sodipodi="http://sodipodi.sourceforge.net/DTD/sodipodi-0.dtd"
   xmlns:inkscape="http://www.inkscape.org/namespaces/inkscape"
   version="1.1"
   width="287.99649"
   height="287.99426"
   viewBox="0 -0.006 287.99649 287.99426"
   enable-background="new 0 -0.006 290 290"
   xml:space="preserve"
   id="svg2"
   inkscape:version="0.48.2 r9819"
   sodipodi:docname="AJAX1.svg"><metadata
   id="metadata74"><rdf:RDF><cc:Work
       rdf:about=""><dc:format>image/svg+xml</dc:format><dc:type
         rdf:resource="http://purl.org/dc/dcmitype/StillImage" /></cc:Work></rdf:RDF></metadata><sodipodi:namedview
   pagecolor="#ffffff"
   bordercolor="#666666"
   borderopacity="1"
   objecttolerance="10"
   gridtolerance="10"
   guidetolerance="10"
   inkscape:pageopacity="0"
   inkscape:pageshadow="2"
   inkscape:window-width="1280"
   inkscape:window-height="1004"
   id="namedview72"
   showgrid="false"
   fit-margin-top="0"
   fit-margin-left="0"
   fit-margin-right="0"
   fit-margin-bottom="0"
   inkscape:zoom="2.3017545"
   inkscape:cx="126.27511"
   inkscape:cy="125.48637"
   inkscape:window-x="-8"
   inkscape:window-y="-8"
   inkscape:window-maximized="1"
   inkscape:current-layer="svg2" />
<defs
   id="defs4">
</defs>
<path
   d="M 4.11975,134.0005 134.00275,4.1174989 c 5.498,-5.498 14.491,-5.498 19.989,0 L 283.87375,134.0005 c 5.497,5.495 5.497,14.487 0,19.986 l -129.882,129.876 c -5.498,5.501 -14.491,5.501 -19.989,0 L 4.11975,153.9865 c -5.493,-5.499 -5.493,-14.491 0,-19.986 z"
   id="path6"
   style="fill:#ffd033;stroke:none;fill-opacity:1"
   inkscape:connector-curvature="0" />

<path
   clip-rule="evenodd"
   d="M 7.24975,136.0615 136.07075,7.2524989 c 4.36,-4.36 11.492,-4.36 15.856,0 L 280.74075,136.0615 c 4.361,4.367 4.361,11.498 0,15.86 l -128.813,128.807 c -4.364,4.363 -11.497,4.363 -15.856,0 L 7.24975,151.9225 c -4.354,-4.363 -4.354,-11.493 0,-15.861"
   id="path10"
   inkscape:connector-curvature="0"
   style="fill:#000000;fill-rule:evenodd;stroke:none" />
<path
   clip-rule="evenodd"
   d="m 11.27675,140.0315 128.76,-128.751001 c 2.176,-2.1790001 5.747,-2.1790001 7.925,0 l 128.755,128.751001 c 2.178,2.176 2.178,5.743 0,7.919 l -128.755,128.757 c -2.178,2.18 -5.749,2.18 -7.925,0 l -128.76,-128.757 c -2.177,-2.177 -2.177,-5.743 0,-7.919"
   id="path12"
   inkscape:connector-curvature="0"
   style="fill:#ffd033;fill-rule:evenodd;stroke:none;fill-opacity:1" />

<path
   d="m 78.30575,108.8345 c -1.287,3.081 -3.198,4.485 -6.123,4.485 -3.12,0 -4.953,-1.404 -6.239,-4.485 -1.093,-2.574 -1.482,-5.07 -1.482,-9.087001 0,-3.939 0.39,-6.591 1.482,-9.087 1.364,-3.12 3.197,-4.407 6.239,-4.407 3.003,0 4.836,1.287 6.123,4.485 1.092,2.574 1.482,5.07 1.482,9.009 0,4.017001 -0.391,6.591001 -1.482,9.087001 z m -2.925,-15.600001 c -0.663,-2.301 -1.638,-3.315 -3.198,-3.315 -1.677,0 -2.69,1.014 -3.314,3.237 -0.624,1.989 -0.819,3.744 -0.819,6.669 0,2.847001 0.273,4.485001 0.819,6.591001 0.624,2.223 1.638,3.237 3.314,3.237 1.561,0 2.535,-1.014 3.198,-3.237 0.624,-2.106 0.819,-3.666 0.819,-6.669001 0,-2.925 -0.273,-4.602 -0.819,-6.513 z"
   id="path16"
   inkscape:connector-curvature="0"
   style="fill:#000000;stroke:none;stroke-opacity:1" />
<path
   d="m 93.43775,93.702499 c -0.39,-2.574 -1.404,-3.783 -3.12,-3.783 -3.042,0 -4.134,2.379 -4.134,9.165 0,7.527001 1.287,10.569001 4.485,10.569001 2.184,0 2.769,-1.833 2.769,-3.783 h 3.744 c -0.078,4.329 -2.847,7.449 -6.513,7.449 -5.577,0 -8.073,-4.485 -8.073,-14.118001 0,-8.463 2.652,-12.948 7.8,-12.948 2.106,0 3.939,0.936 5.148,2.652 0.975,1.287 1.364,2.418 1.638,4.797 h -3.744 z"
   id="path18"
   inkscape:connector-curvature="0"
   style="fill:#000000;stroke:none;stroke-opacity:1" />
<path
   d="m 110.83075,93.702499 c -0.39,-2.574 -1.404,-3.783 -3.12,-3.783 -3.042,0 -4.134,2.379 -4.134,9.165 0,7.527001 1.287,10.569001 4.485,10.569001 2.184,0 2.769,-1.833 2.769,-3.783 h 3.744 c -0.078,4.329 -2.847,7.449 -6.513,7.449 -5.577,0 -8.073,-4.485 -8.073,-14.118001 0,-8.463 2.652,-12.948 7.8,-12.948 2.106,0 3.939,0.936 5.148,2.652 0.975,1.287 1.364,2.418 1.638,4.797 h -3.744 z"
   id="path20"
   inkscape:connector-curvature="0"
   style="fill:#000000;stroke:none;stroke-opacity:1" />
<path
   d="m 128.77075,112.8515 -1.833,-7.137 h -5.615 l -1.717,7.137 h -3.782 l 6.513,-26.130001 h 3.666 l 6.513,26.130001 h -3.745 z m -4.68,-18.330001 -1.833,7.527001 h 3.744 l -1.911,-7.527001 z"
   id="path22"
   inkscape:connector-curvature="0"
   style="fill:#000000;stroke:none;stroke-opacity:1" />
<path
   d="m 140.19675,113.3195 c -4.602,0 -7.332,-3.861 -7.332,-8.151 h 3.666 c 0,2.184 1.093,4.485 3.666,4.485 2.028,0 3.666,-1.833 3.666,-3.939 0,-1.482 -0.546,-2.574 -2.105,-3.783 -0.546,-0.546 0.936,0.468 -4.407,-3.120001 -2.106,-1.443 -3.198,-3.471 -3.198,-5.772 0,-3.744 2.925,-6.786 6.669,-6.786 3.706,0 6.513,2.847 6.63,6.786 h -3.588 c -0.078,-1.833 -1.365,-3.003 -3.042,-3.003 -1.716,0 -3.081,1.287 -3.081,3.003 0,1.287 0.546,2.028 2.457,3.12 5.031,2.925 7.254,5.772001 7.254,9.555001 -0.001,4.212 -3.237,7.605 -7.255,7.605 z"
   id="path24"
   inkscape:connector-curvature="0"
   style="fill:#000000;stroke:none;stroke-opacity:1" />
<path
   d="M 149.90775,112.8515 V 86.721499 h 3.666 V 112.8515 h -3.666 z"
   id="path26"
   inkscape:connector-curvature="0"
   style="fill:#000000;stroke:none;stroke-opacity:1" />
<path
   d="m 170.77275,108.8345 c -1.287,3.081 -3.199,4.485 -6.123,4.485 -3.121,0 -4.953,-1.404 -6.24,-4.485 -1.092,-2.574 -1.482,-5.07 -1.482,-9.087001 0,-3.939 0.391,-6.591 1.482,-9.087 1.365,-3.12 3.197,-4.407 6.24,-4.407 3.002,0 4.836,1.287 6.123,4.485 1.092,2.574 1.482,5.07 1.482,9.009 0.001,4.017001 -0.39,6.591001 -1.482,9.087001 z m -2.925,-15.600001 c -0.662,-2.301 -1.637,-3.315 -3.197,-3.315 -1.678,0 -2.691,1.014 -3.314,3.237 -0.625,1.989 -0.82,3.744 -0.82,6.669 0,2.847001 0.273,4.485001 0.82,6.591001 0.623,2.223 1.637,3.237 3.314,3.237 1.561,0 2.535,-1.014 3.197,-3.237 0.625,-2.106 0.82,-3.666 0.82,-6.669001 0,-2.925 -0.273,-4.602 -0.82,-6.513 z"
   id="path28"
   inkscape:connector-curvature="0"
   style="fill:#000000;stroke:none;stroke-opacity:1" />
<path
   d="m 187.34775,112.8515 -8.072,-17.511001 V 112.8515 h -3.744 V 86.721499 h 3.744 l 7.176,15.678001 V 86.721499 h 3.744 V 112.8515 h -2.848 z"
   id="path30"
   inkscape:connector-curvature="0"
   style="fill:#000000;stroke:none;stroke-opacity:1" />
<path
   d="m 204.85875,112.8515 -1.834,-7.137 h -5.615 l -1.717,7.137 h -3.781 l 6.512,-26.130001 h 3.666 l 6.514,26.130001 h -3.745 z m -4.679,-18.330001 -1.834,7.527001 h 3.744 l -1.91,-7.527001 z"
   id="path32"
   inkscape:connector-curvature="0"
   style="fill:#000000;stroke:none;stroke-opacity:1" />
<path
   d="M 210.23975,112.8515 V 86.721499 h 3.744 V 109.3805 h 9.555 v 3.471 h -13.299 z"
   id="path34"
   inkscape:connector-curvature="0"
   style="fill:#000000;stroke:none;stroke-opacity:1" />
<path
   d="m 86.90475,150.3875 h -7.684 v -26.13 h 8.229 c 3.51,0 5.967,2.769 5.967,6.786 0,2.379 -0.624,3.471 -2.73,5.694 1.989,1.638 3.198,3.822 3.198,6.513 0.001,3.939 -3.119,7.137 -6.98,7.137 z m 0,-22.464 h -3.939 v 6.981 h 3.939 c 1.755,0 2.847,-1.482 2.847,-3.861 0,-2.184 -0.819,-3.12 -2.847,-3.12 z m -0.156,10.647 h -3.783 v 8.151 h 3.783 c 2.105,0 3.471,-1.482 3.471,-3.744 0,-2.496 -1.56,-4.407 -3.471,-4.407 z"
   id="path36"
   inkscape:connector-curvature="0"
   style="fill:#000000;stroke:none;stroke-opacity:1" />
<path
   d="m 98.29275,150.3875 v -26.13 h 3.744 v 22.659 h 9.555 v 3.471 h -13.299 z"
   id="path38"
   inkscape:connector-curvature="0"
   style="fill:#000000;stroke:none;stroke-opacity:1" />
<path
   d="m 115.25775,150.3875 v -26.13 h 3.666 v 26.13 h -3.666 z"
   id="path40"
   inkscape:connector-curvature="0"
   style="fill:#000000;stroke:none;stroke-opacity:1" />
<path
   d="m 136.51275,150.3875 -8.073,-17.511 v 17.511 h -3.744 v -26.13 h 3.744 l 7.176,15.678 v -15.678 h 3.744 v 26.13 h -2.847 z"
   id="path42"
   inkscape:connector-curvature="0"
   style="fill:#000000;stroke:none;stroke-opacity:1" />
<path
   d="m 155.97375,149.1785 c -0.936,0.857 -2.223,1.209 -3.666,1.209 h -7.254 v -26.13 h 6.668 c 2.225,0 3.316,0.273 4.252,1.014 1.561,1.092 2.652,3.12 3.119,5.772 0.352,1.911 0.625,4.212 0.625,6.24 0,6.044 -1.209,9.906 -3.744,11.895 z m -0.664,-18.603 c -0.623,-1.833 -1.715,-2.652 -3.393,-2.652 h -3.119 v 18.798 h 3.119 c 2.223,0 3.393,-1.755 3.783,-3.744 0.156,-1.677 0.352,-3.51 0.352,-5.499 0,-2.964 -0.274,-5.811 -0.742,-6.903 z"
   id="path44"
   inkscape:connector-curvature="0"
   style="fill:#000000;stroke:none;stroke-opacity:1" />
<path
   d="m 164.86375,150.3875 v -26.13 h 3.666 v 26.13 h -3.666 z"
   id="path46"
   inkscape:connector-curvature="0"
   style="fill:#000000;stroke:none;stroke-opacity:1" />
<path
   d="m 186.11975,150.3875 -8.074,-17.511 v 17.511 h -3.744 v -26.13 h 3.744 l 7.176,15.678 v -15.678 h 3.744 v 26.13 h -2.846 z"
   id="path48"
   inkscape:connector-curvature="0"
   style="fill:#000000;stroke:none;stroke-opacity:1" />
<path
   d="m 208.03575,147.1895 c -1.014,2.262 -3.119,3.665 -5.771,3.665 -3.119,0 -5.42,-1.56 -6.707,-4.485 -0.82,-1.949 -1.365,-5.615 -1.365,-9.008 0,-3.666 0.273,-6.318 1.209,-8.814 0.896,-2.73 3.549,-4.758 6.59,-4.758 3.744,0 6.592,2.769 6.787,6.63 h -3.744 c -0.117,-1.755 -1.287,-2.964 -3.121,-2.964 -1.287,0 -2.301,0.663 -2.963,1.95 -0.703,1.287 -1.17,4.212 -1.17,7.332 0,2.184 0.195,4.485 0.545,6.513 0.547,2.535 1.834,3.939 3.861,3.939 1.912,0 2.848,-1.287 2.848,-4.057 v -1.716 h -2.965 v -3.666 h 6.709 v 5.382 c -0.001,1.834 -0.196,2.965 -0.743,4.057 z"
   id="path50"
   inkscape:connector-curvature="0"
   style="fill:#000000;stroke:none;stroke-opacity:1" />
<path
   d="m 120.34675,186.8235 c -0.936,0.858 -2.223,1.209 -3.666,1.209 h -7.254 v -26.13 h 6.669 c 2.224,0 3.315,0.273 4.251,1.014 1.561,1.092 2.652,3.121 3.12,5.772 0.352,1.911 0.624,4.212 0.624,6.239 0,6.046 -1.209,9.907 -3.744,11.896 z m -0.663,-18.602 c -0.624,-1.833 -1.716,-2.652 -3.393,-2.652 h -3.12 v 18.798 h 3.12 c 2.223,0 3.393,-1.755 3.783,-3.744 0.155,-1.677 0.351,-3.51 0.351,-5.499 0,-2.965 -0.273,-5.812 -0.741,-6.903 z"
   id="path52"
   inkscape:connector-curvature="0"
   style="fill:#000000;stroke:none;stroke-opacity:1" />
<path
   d="m 142.88875,184.8345 c -1.287,2.106 -3.744,3.666 -6.24,3.666 -2.574,0 -5.109,-1.482 -6.396,-3.666 -0.741,-1.404 -1.015,-2.496 -1.015,-4.602 v -18.33 h 3.744 v 18.798 c 0,2.457 1.482,4.134 3.666,4.134 2.028,0 3.51,-1.677 3.51,-4.134 v -18.798 h 3.744 v 18.33 c 0,2.106 -0.273,3.198 -1.013,4.602 z"
   id="path54"
   inkscape:connector-curvature="0"
   style="fill:#000000;stroke:none;stroke-opacity:1" />
<path
   d="m 155.64075,188.5005 c -4.602,0 -7.332,-3.861 -7.332,-8.15 h 3.666 c 0,2.184 1.093,4.484 3.666,4.484 2.028,0 3.666,-1.832 3.666,-3.938 0,-1.482 -0.546,-2.574 -2.105,-3.783 -0.546,-0.546 0.936,0.468 -4.407,-3.12 -2.106,-1.443 -3.198,-3.471 -3.198,-5.771 0,-3.744 2.925,-6.786 6.669,-6.786 3.705,0 6.513,2.847 6.63,6.786 h -3.588 c -0.078,-1.833 -1.365,-3.004 -3.042,-3.004 -1.716,0 -3.081,1.287 -3.081,3.004 0,1.287 0.546,2.027 2.457,3.119 5.031,2.926 7.254,5.772 7.254,9.556 -0.001,4.21 -3.238,7.603 -7.255,7.603 z"
   id="path56"
   inkscape:connector-curvature="0"
   style="fill:#000000;stroke:none;stroke-opacity:1" />
<path
   d="m 173.81475,165.3735 v 22.659 h -3.783 v -22.659 h -4.758 v -3.471 h 13.299 v 3.471 h -4.758 z"
   id="path58"
   inkscape:connector-curvature="0"
   style="fill:#000000;stroke:none;stroke-opacity:1" />
<path
   d="m 96.71275,226.2065 c -4.602,0 -7.332,-3.86 -7.332,-8.15 h 3.666 c 0,2.184 1.092,4.484 3.666,4.484 2.028,0 3.666,-1.833 3.666,-3.938 0,-1.482 -0.546,-2.574 -2.106,-3.783 -0.546,-0.546 0.937,0.468 -4.406,-3.12 -2.106,-1.442 -3.198,-3.471 -3.198,-5.771 0,-3.744 2.925,-6.786 6.669,-6.786 3.705,0 6.513,2.847 6.63,6.786 h -3.588 c -0.078,-1.833 -1.365,-3.003 -3.042,-3.003 -1.716,0 -3.081,1.287 -3.081,3.003 0,1.287 0.546,2.027 2.457,3.12 5.031,2.925 7.254,5.771 7.254,9.555 -10e-4,4.21 -3.239,7.603 -7.255,7.603 z"
   id="path60"
   inkscape:connector-curvature="0"
   style="fill:#000000;stroke:none;stroke-opacity:1" />
<path
   d="m 114.88675,203.0795 v 22.659 h -3.783 v -22.659 h -4.758 v -3.471 h 13.299 v 3.471 h -4.758 z"
   id="path62"
   inkscape:connector-curvature="0"
   style="fill:#000000;stroke:none;stroke-opacity:1" />
<path
   d="m 136.60875,221.7225 c -1.287,3.081 -3.198,4.484 -6.123,4.484 -3.12,0 -4.953,-1.403 -6.24,-4.484 -1.092,-2.574 -1.481,-5.07 -1.481,-9.087 0,-3.939 0.39,-6.591 1.481,-9.087 1.365,-3.12 3.198,-4.407 6.24,-4.407 3.003,0 4.836,1.287 6.123,4.485 1.092,2.573 1.481,5.069 1.481,9.009 0.001,4.016 -0.389,6.59 -1.481,9.087 z m -2.924,-15.601 c -0.663,-2.301 -1.639,-3.314 -3.198,-3.314 -1.677,0 -2.69,1.014 -3.314,3.237 -0.624,1.988 -0.819,3.743 -0.819,6.669 0,2.847 0.272,4.484 0.819,6.591 0.624,2.223 1.638,3.236 3.314,3.236 1.56,0 2.535,-1.014 3.198,-3.236 0.624,-2.106 0.818,-3.666 0.818,-6.669 0,-2.926 -0.273,-4.603 -0.818,-6.514 z"
   id="path64"
   inkscape:connector-curvature="0"
   style="fill:#000000;stroke:none;stroke-opacity:1" />
<path
   d="m 154.11975,225.7385 -3.471,-12.285 h -3.588 v 12.285 h -3.744 v -26.13 h 7.801 c 4.094,0 6.863,2.77 6.863,6.981 0,3.119 -1.287,5.382 -3.744,6.317 l 3.744,12.831 h -3.861 z m -3.197,-22.464 h -3.861 v 6.591 h 3.861 c 2.184,0 3.393,-1.17 3.393,-3.275 -0.001,-2.029 -1.366,-3.316 -3.393,-3.316 z"
   id="path66"
   inkscape:connector-curvature="0"
   style="fill:#000000;stroke:none;stroke-opacity:1" />
<path
   d="m 175.84375,225.7385 v -14.664 l -4.836,14.664 -4.875,-14.664 v 14.664 h -3.743 v -26.13 h 3.743 l 4.875,14.664 4.836,-14.664 h 3.783 v 26.13 h -3.783 z"
   id="path68"
   inkscape:connector-curvature="0"
   style="fill:#000000;stroke:none;stroke-opacity:1" />
<path
   d="m 191.36475,226.2065 c -4.602,0 -7.332,-3.86 -7.332,-8.15 h 3.666 c 0,2.184 1.093,4.484 3.666,4.484 2.028,0 3.666,-1.833 3.666,-3.938 0,-1.482 -0.546,-2.574 -2.105,-3.783 -0.546,-0.546 0.936,0.468 -4.407,-3.12 -2.106,-1.442 -3.198,-3.471 -3.198,-5.771 0,-3.744 2.925,-6.786 6.669,-6.786 3.705,0 6.514,2.847 6.63,6.786 h -3.588 c -0.078,-1.833 -1.364,-3.003 -3.042,-3.003 -1.716,0 -3.081,1.287 -3.081,3.003 0,1.287 0.546,2.027 2.457,3.12 5.031,2.925 7.254,5.771 7.254,9.555 -0.001,4.21 -3.237,7.603 -7.255,7.603 z"
   id="path70"
   inkscape:connector-curvature="0"
   style="fill:#000000;stroke:none;stroke-opacity:1" />
</svg>