<?xml version="1.0" encoding="UTF-8" standalone="no"?>
<svg
   xmlns:dc="http://purl.org/dc/elements/1.1/"
   xmlns:cc="http://creativecommons.org/ns#"
   xmlns:rdf="http://www.w3.org/1999/02/22-rdf-syntax-ns#"
   xmlns:svg="http://www.w3.org/2000/svg"
   xmlns="http://www.w3.org/2000/svg"
   xmlns:sodipodi="http://sodipodi.sourceforge.net/DTD/sodipodi-0.dtd"
   xmlns:inkscape="http://www.inkscape.org/namespaces/inkscape"
   width="89.985153"
   height="90.000923"
   viewBox="0 0 253.95815 254.0026"
   version="1.1"
   id="svg2"
   inkscape:version="0.48.2 r9819"
   sodipodi:docname="MUTCD W5-1.svg">
  <metadata
     id="metadata62">
    <rdf:RDF>
      <cc:Work
         rdf:about="">
        <dc:format>image/svg+xml</dc:format>
        <dc:type
           rdf:resource="http://purl.org/dc/dcmitype/StillImage" />
        <dc:title></dc:title>
      </cc:Work>
    </rdf:RDF>
  </metadata>
  <defs
     id="defs60" />
  <sodipodi:namedview
     pagecolor="#ffffff"
     bordercolor="#666666"
     borderopacity="1"
     objecttolerance="10"
     gridtolerance="10"
     guidetolerance="10"
     inkscape:pageopacity="0"
     inkscape:pageshadow="2"
     inkscape:window-width="1280"
     inkscape:window-height="1004"
     id="namedview58"
     showgrid="false"
     fit-margin-top="0"
     fit-margin-left="0"
     fit-margin-right="0"
     fit-margin-bottom="0"
     inkscape:zoom="5.6568543"
     inkscape:cx="34.617272"
     inkscape:cy="34.584827"
     inkscape:window-x="-8"
     inkscape:window-y="-8"
     inkscape:window-maximized="1"
     inkscape:current-layer="svg2" />
  <!-- draw the bicycle -->
  <!-- RIGHT -->
  <!-- LANE -->
  <!-- ONLY -->
  <path
     inkscape:connector-curvature="0"
     d="M 3.3615301,118.7608 118.71636,3.4024968 c 4.54025,-4.5367 11.94153,-4.5367 16.48178,0 L 250.55297,118.7608 c 4.54025,4.5368 4.54025,11.938 0,16.4783 L 135.19814,250.5974 c -4.54025,4.5403 -11.94153,4.5403 -16.48178,0 L 3.3615301,135.2391 c -4.48028,-4.4803 -4.4838,-11.998 0,-16.4783"
     style="fill:#ffd033;fill-opacity:1;fill-rule:nonzero;stroke:none"
     id="path3202" />
  <path
     inkscape:connector-curvature="0"
     d="M 5.6799901,121.0207 120.97838,5.7222968 c 3.27025,-3.2702 8.68891,-3.2631 11.95916,0 L 248.23593,121.0207 c 3.27377,3.2738 3.25966,8.6819 0,11.9592 L 132.93754,248.2783 c -3.27377,3.2632 -8.68186,3.2667 -11.95916,0 L 5.6799901,132.9799 c -3.25967,-3.2773 -3.27378,-8.6854 0,-11.9592"
     style="fill:#000000;fill-opacity:1;fill-rule:evenodd;stroke:none"
     id="path3214" />
  <path
     inkscape:connector-curvature="0"
     d="M 8.9255401,124.1834 124.14279,8.9661968 c 1.52047,-1.577 4.10986,-1.5734 5.63386,0 L 244.99037,124.1834 c 1.57339,1.5205 1.57339,4.1134 0,5.6339 L 129.77665,245.031 c -1.52047,1.5769 -4.11691,1.5804 -5.63386,0 L 8.9255401,129.8173 c -1.57339,-1.524 -1.57339,-4.1134 0,-5.6339"
     style="fill:#ffd033;fill-opacity:1;fill-rule:evenodd;stroke:none"
     id="path3218" />
  <path
     d="m 207.90451,92.193468 -5.0165,0 -2.39537,16.347722 -4.03225,-16.347722 -4.79425,0 -3.92289,16.347722 -2.39536,-16.347722 -5.00944,0 4.57552,31.055032 4.35681,0 4.79072,-19.939 4.90714,19.939 4.35681,0 4.57906,-31.055032 z m -36.50193,15.585722 c 0,2.39536 -0.5468,5.44689 -1.19944,7.08025 -1.09009,2.72345 -2.50825,3.92289 -4.79778,3.92289 -1.95792,0 -3.2632,-0.762 -4.25097,-2.39889 -1.19592,-1.96144 -1.84856,-5.33752 -1.84856,-8.60425 0,-2.61761 0.43745,-5.45042 1.19945,-7.3025 1.09008,-2.723443 2.61408,-3.922888 5.01297,-3.813527 1.85208,0.105833 3.05153,0.762 4.02872,2.395362 1.19945,2.070805 1.85561,5.231695 1.85561,8.720665 m 4.90009,0 c 0,-3.92641 -0.762,-7.849304 -2.07081,-10.572749 -1.95792,-3.813529 -4.68489,-5.556251 -8.60425,-5.556251 -3.59833,0 -6.10658,1.090083 -7.95867,3.488973 -2.06728,2.942167 -3.37608,7.514167 -3.37608,12.640027 0,3.70064 0.87136,7.84225 2.17664,10.45987 1.85561,3.81352 4.57905,5.57389 8.93586,5.57389 3.27025,0 5.77497,-1.10773 7.5177,-3.50309 2.18016,-2.72697 3.37961,-7.63058 3.37961,-12.53067 m -32.03224,-6.86858 c 0,1.3088 -0.76552,2.61761 -1.96497,3.27025 -0.75494,0.43744 -1.30175,0.54328 -2.82928,0.54328 l -5.88433,0 0,-7.62706 5.88433,0 c 1.63336,0 2.07434,0.109361 2.82928,0.546805 1.19945,0.652639 1.96497,1.961445 1.96497,3.266725 m 5.55979,22.33789 -5.45042,-14.49211 c 2.83281,-1.30528 4.79778,-4.57553 4.79778,-7.84578 0,-3.157363 -1.96497,-6.427614 -4.6849,-7.73642 -1.53105,-0.762 -3.16441,-0.980722 -5.5633,-0.980722 l -10.24467,0 0,31.055032 4.90714,0 0,-13.51139 5.88433,0 5.0165,13.51139 5.33754,0 z m -31.8241,-22.33789 c 0,1.3088 -0.762,2.61761 -1.96144,3.27025 -0.762,0.43744 -1.30528,0.54328 -2.83281,0.54328 l -5.88433,0 0,-7.62706 5.88433,0 c 1.63336,0 2.07081,0.109361 2.83281,0.546805 1.19944,0.652639 1.96144,1.961445 1.96144,3.266725 m 5.55978,22.33789 -5.45042,-14.49211 c 2.83281,-1.30528 4.79426,-4.57553 4.79426,-7.84578 0,-3.157363 -1.96145,-6.427614 -4.68489,-7.73642 -1.524,-0.762 -3.16089,-0.980722 -5.55626,-0.980722 l -10.24114,0 0,31.055032 4.90009,0 0,-13.51139 5.88433,0 5.01298,13.51139 5.34105,0 z m -35.849282,-13.72658 -6.212418,0 3.160889,-8.72067 3.051529,8.72067 z m 10.025946,13.72658 -10.682113,-31.055032 -4.900084,0 -10.682114,31.055032 5.231696,0 3.051528,-8.71361 9.697863,0 3.048001,8.71361 5.235223,0 z m -30.839839,0 0,-31.055032 -4.903612,0 0,19.833172 -11.331225,-19.833172 -4.903612,0 0,31.055032 4.903612,0 0,-21.02909 11.87803,21.02909 4.356807,0 z"
     style="fill:#000000;fill-opacity:1;fill-rule:evenodd;stroke:none"
     id="path3254"
     inkscape:connector-curvature="0" />
  <path
     d="m 194.26612,169.70864 0,-5.01297 -14.38276,0 0,-8.49842 9.0417,0 0,-5.01298 -9.0417,0 0,-7.62705 13.40203,0 0,-4.90714 -18.30917,0 0,31.05856 19.2899,0 z m -25.17423,-9.26395 0,-6.20889 -10.56923,0 0,4.90361 5.66914,0 0,1.30528 c 0,2.83634 -2.28952,4.79425 -5.44689,4.79425 -1.85561,0 -3.27025,-0.762 -4.25097,-2.50825 -0.98072,-1.95439 -1.524,-5.22817 -1.524,-8.49489 0,-2.61761 0.43392,-5.45042 1.19945,-7.3025 1.08655,-2.72344 2.71991,-3.81 5.22816,-3.81 2.39889,0 3.70417,0.97719 5.00945,3.70064 l 4.68489,-1.85208 c -2.06728,-4.90009 -4.90009,-6.86506 -9.69434,-6.86506 -3.48544,0 -6.10305,1.19944 -7.95514,3.48544 -2.06728,2.72698 -3.48544,7.62706 -3.48544,12.64356 0,3.81 0.76553,7.62706 2.07433,10.3505 1.84856,3.92289 4.572,5.68326 9.25689,5.68326 5.66209,0 9.8037,-4.15926 9.8037,-9.82487 m -31.37254,-6.31825 c 0,4.14161 -0.98778,7.5177 -2.83986,9.36978 -0.86784,0.87136 -1.84503,1.19945 -3.48545,1.19945 l -4.90714,0 0,-21.13845 5.55978,0 c 1.30881,0 2.39889,0.54327 3.16442,1.3088 1.52047,1.63336 2.50825,5.11881 2.50825,9.26042 m 5.00944,0 c 0,-6.10658 -1.85561,-11.00314 -5.12233,-13.83947 -1.62983,-1.30528 -2.82928,-1.63689 -5.9937,-1.63689 l -10.02947,0 0,31.05856 9.4862,0 1.74272,0 c 1.63336,-0.10584 3.26672,-0.65617 4.46617,-1.74272 3.48544,-2.72698 5.45041,-7.62706 5.45041,-13.83948 m -27.57311,-15.47636 -5.01297,0 0,31.05856 5.01297,0 0,-31.05856 z m -14.8202,8.72066 c 0,1.30528 -0.761999,2.61409 -1.961443,3.27026 -0.758473,0.43391 -1.308806,0.54327 -2.829279,0.54327 l -5.884334,0 0,-7.62705 5.884334,0 c 1.633362,0 2.070806,0.10936 2.829279,0.54327 1.199444,0.65617 1.961443,1.96145 1.961443,3.27025 m 5.55625,22.3379 -5.44689,-14.49212 c 2.83281,-1.3088 4.79778,-4.57552 4.79778,-7.84578 0,-3.16088 -1.96497,-6.43114 -4.68489,-7.73641 -1.527527,-0.762 -3.164416,-0.98425 -5.559777,-0.98425 l -10.244669,0 0,31.05856 4.90714,0 0,-13.51139 5.884334,0 5.012972,13.51139 5.334,0 z m -30.398865,-8.61131 c 0,2.39889 -1.308806,3.59834 -3.813528,3.59834 l -7.411863,0 0,-8.49842 6.212418,0 c 1.090084,0 1.418167,0 2.070806,0.21519 1.742723,0.65617 2.942167,2.62114 2.942167,4.68489 m -0.656166,-14.38275 c 0,1.41817 -0.65264,2.72697 -1.742723,3.59833 -0.871361,0.64911 -1.524,0.87136 -2.942167,0.87136 l -5.884335,0 0,-7.62705 7.19314,0 c 2.180168,0 3.376085,1.09008 3.376085,3.15736 m 5.66914,14.27339 c 0,-3.37608 -1.852084,-5.99017 -5.122335,-7.5177 2.942167,-1.63336 4.356807,-3.91936 4.356807,-6.97089 0,-4.46969 -3.704168,-7.8493 -8.604252,-7.8493 l -11.768669,0 0,31.05856 11.768669,0 c 1.414639,0 3.266723,-0.32809 4.356806,-0.762 2.942168,-1.19945 5.012974,-4.57906 5.012974,-7.95867"
     style="fill:#000000;fill-opacity:1;fill-rule:evenodd;stroke:none"
     id="path3258"
     inkscape:connector-curvature="0" />
</svg>
