<?xml version="1.0" encoding="UTF-8" standalone="no"?>
<!-- Generator: Adobe Illustrator 12.0.1, SVG Export Plug-In  -->

<svg
   xmlns:dc="http://purl.org/dc/elements/1.1/"
   xmlns:cc="http://creativecommons.org/ns#"
   xmlns:rdf="http://www.w3.org/1999/02/22-rdf-syntax-ns#"
   xmlns:svg="http://www.w3.org/2000/svg"
   xmlns="http://www.w3.org/2000/svg"
   xmlns:sodipodi="http://sodipodi.sourceforge.net/DTD/sodipodi-0.dtd"
   xmlns:inkscape="http://www.inkscape.org/namespaces/inkscape"
   version="1.1"
   width="312.46875"
   height="188.09375"
   viewBox="-0.999 0 312.46875 188.09375"
   enable-background="new -0.999 0 289 289"
   xml:space="preserve"
   id="svg2"
   inkscape:version="0.48.2 r9819"
   sodipodi:docname="AJAX1.svg"><metadata
   id="metadata18"><rdf:RDF><cc:Work
       rdf:about=""><dc:format>image/svg+xml</dc:format><dc:type
         rdf:resource="http://purl.org/dc/dcmitype/StillImage" /><dc:title></dc:title></cc:Work></rdf:RDF></metadata><sodipodi:namedview
   pagecolor="#ffffff"
   bordercolor="#666666"
   borderopacity="1"
   objecttolerance="10"
   gridtolerance="10"
   guidetolerance="10"
   inkscape:pageopacity="0"
   inkscape:pageshadow="2"
   inkscape:window-width="1280"
   inkscape:window-height="1004"
   id="namedview16"
   showgrid="false"
   fit-margin-top="0"
   fit-margin-left="0"
   fit-margin-right="0"
   fit-margin-bottom="0"
   inkscape:zoom="1.1548595"
   inkscape:cx="122.74095"
   inkscape:cy="-28.167917"
   inkscape:window-x="-8"
   inkscape:window-y="-8"
   inkscape:window-maximized="1"
   inkscape:current-layer="svg2" />
<defs
   id="defs4">
</defs>





<path
   inkscape:connector-curvature="0"
   d="m 310.72299,171.78387 c 0,8.55125 -6.99625,15.5475 -15.54875,15.5475 l -279.865003,0 c -8.55125,0 -15.54875,-6.99625 -15.54875,-15.5475 l 0,-155.48125 c 0,-8.55125 6.9975,-15.5475 15.54875,-15.5475 l 279.865003,0 c 8.5525,0 15.54875,6.99625 15.54875,15.5475 l 0,155.48125 z"
   style="fill:#ffffff;stroke:#000000;stroke-width:1.5;stroke-linecap:butt;stroke-linejoin:miter;stroke-miterlimit:4;stroke-opacity:1;stroke-dasharray:none"
   id="path3405" /><path
   inkscape:connector-curvature="0"
   d="m 304.24463,171.78388 c 0,4.98875 -4.08126,9.07 -9.07001,9.07 l -279.864995,0 c -4.98875,0 -9.07,-4.08125 -9.07,-9.07 l 0,-155.48125 c 0,-4.9875 4.08125,-9.07 9.07,-9.07 l 279.865005,0 c 4.98875,0 9.07,4.0825 9.07,9.07 l 0,155.48125 z"
   style="fill:#bf2033;fill-opacity:1;fill-rule:nonzero;stroke:none"
   id="path3409" /><path
   inkscape:connector-curvature="0"
   d="m 78.95713,83.67625 -7.29375,0 -8.137501,-33.24375 -8.0625,33.24375 -7.21625,0 -7.6775,-51.82375 8.36875,0 3.9925,27.25625 6.6025,-27.25625 7.98375,0 6.680001,27.25625 4.06875,-27.25625 8.2925,0 -7.60125,51.82375 z"
   style="fill:#ffffff;fill-opacity:1;fill-rule:nonzero;stroke:none"
   id="path3413" /><path
   inkscape:connector-curvature="0"
   d="m 121.62524,83.67625 -8.36875,-22.5725 -9.75,0 0,22.5725 -8.215,0 0,-51.82375 18.81,0 c 11.9,0 15.355,9.52 15.355,14.51125 0,5.5275 -3.225,10.97875 -7.985,13.12875 l 9.06,24.18375 -8.90625,0 z m -7.21625,-43.60875 -10.9025,0 0,12.66875 10.825,0 c 3.9925,0 6.98625,-2.84125 6.98625,-6.3725 0,-3.37875 -2.9175,-6.29625 -6.90875,-6.29625"
   style="fill:#ffffff;fill-opacity:1;fill-rule:nonzero;stroke:none"
   id="path3417" /><path
   inkscape:connector-curvature="0"
   d="m 169.91851,78.76263 c -2.99375,3.915 -7.06375,5.835 -12.515,5.835 -7.2925,0 -11.74625,-2.9175 -14.89375,-9.29 -2.15,-4.37625 -3.685,-11.28625 -3.685,-17.4275 0,-8.59875 2.14875,-16.27625 5.68125,-21.11375 2.99375,-4.06875 7.29375,-5.835 13.2825,-5.835 14.35625,0 17.81125,15.355 17.81125,26.94875 0,8.1375 -2.0725,16.27625 -5.68125,20.8825 m -12.13,-39.4625 c -4.6075,0 -6.75625,1.8425 -8.6,6.3725 -1.2275,3.07125 -1.995,7.83125 -1.995,12.2075 0,5.45125 1.15125,11.055 3.1475,14.35625 1.6125,2.6875 3.76125,3.9925 7.0625,3.9925 3.84,0 6.22,-1.99625 7.985,-6.52625 1.075,-2.76375 1.99625,-7.83 1.99625,-11.8225 0,-5.98875 -1.305,-18.58 -9.59625,-18.58"
   style="fill:#ffffff;fill-opacity:1;fill-rule:nonzero;stroke:none"
   id="path3421" /><path
   inkscape:connector-curvature="0"
   d="M 215.2135,83.67625 195.406,48.59 l 0,35.08625 -8.215,0 0,-51.82375 8.215,0 18.88625,33.09 0,-33.09 8.13875,0 0,51.82375 -7.2175,0 z"
   style="fill:#ffffff;fill-opacity:1;fill-rule:nonzero;stroke:none"
   id="path3425" /><path
   inkscape:connector-curvature="0"
   d="m 253.56126,84.5975 c -7.83125,0 -12.36125,-2.9175 -15.50875,-9.44375 -2.14875,-4.60625 -3.455,-10.90125 -3.455,-17.27375 0,-8.36875 2.30375,-16.66 5.835,-21.11375 3.07125,-3.83875 7.4475,-5.835 13.2825,-5.835 7.985,0 12.745,3.30125 16.19875,11.44 l -7.83,3.1475 C 259.93376,40.9125 257.70751,39.3 253.71501,39.3 c -4.14625,0 -6.91,1.8425 -8.7525,6.3725 -1.22875,3.07125 -1.99625,7.83125 -1.99625,12.2075 0,5.45125 0.845,10.90125 2.61125,14.12625 1.535,2.99375 3.99125,4.2225 7.0625,4.2225 5.2975,0 9.06,-3.30125 9.06,-7.98375 l 0,-2.2275 -9.44375,0 0,-8.1375 17.6575,0 0,10.365 c 0,9.4425 -6.90875,16.3525 -16.3525,16.3525"
   style="fill:#ffffff;fill-opacity:1;fill-rule:nonzero;stroke:none"
   id="path3429" /><path
   inkscape:connector-curvature="0"
   d="m 124.30161,156.23386 -7.29375,0 -8.1375,-33.24375 -8.0625,33.24375 -7.21625,0 -7.6775,-51.8225 8.36875,0 3.9925,27.255 6.6025,-27.255 7.98375,0 6.68,27.255 4.06875,-27.255 8.2925,0 -7.60125,51.8225 z"
   style="fill:#ffffff;fill-opacity:1;fill-rule:nonzero;stroke:none"
   id="path3433" /><path
   inkscape:connector-curvature="0"
   d="m 170.13689,156.23386 -5.0675,-14.51 -16.19875,0 -5.0675,14.51 -8.7525,0 17.81125,-51.8225 8.215,0 17.8125,51.8225 -8.7525,0 z m -13.05125,-37.46625 -5.2975,14.5875 10.36375,0 -5.06625,-14.5875 z"
   style="fill:#ffffff;fill-opacity:1;fill-rule:nonzero;stroke:none"
   id="path3437" /><path
   inkscape:connector-curvature="0"
   d="m 206.605,133.66214 0,22.57125 -8.215,0 0,-22.57125 -18.19625,-29.25125 9.8275,0 12.36125,19.96125 12.59125,-19.96125 9.59625,0 -17.965,29.25125 z"
   style="fill:#ffffff;fill-opacity:1;fill-rule:nonzero;stroke:none"
   id="path3441" /></svg>