<?xml version="1.0" encoding="UTF-8" standalone="no"?>
<!-- Created with Inkscape (http://www.inkscape.org/) -->

<svg
   xmlns:dc="http://purl.org/dc/elements/1.1/"
   xmlns:cc="http://creativecommons.org/ns#"
   xmlns:rdf="http://www.w3.org/1999/02/22-rdf-syntax-ns#"
   xmlns:svg="http://www.w3.org/2000/svg"
   xmlns="http://www.w3.org/2000/svg"
   xmlns:sodipodi="http://sodipodi.sourceforge.net/DTD/sodipodi-0.dtd"
   xmlns:inkscape="http://www.inkscape.org/namespaces/inkscape"
   width="1183.1206"
   height="1183.4011"
   id="svg4312"
   version="1.1"
   inkscape:version="0.48.4 r9939"
   sodipodi:docname="Neues Dokument 9">
  <defs
     id="defs3" />
  <sodipodi:namedview
     inkscape:document-units="mm"
     id="base"
     pagecolor="#ffffff"
     bordercolor="#666666"
     borderopacity="1.0"
     inkscape:pageopacity="0.0"
     inkscape:pageshadow="2"
     inkscape:zoom="0.35"
     inkscape:cx="545.66499"
     inkscape:cy="611.82778"
     inkscape:current-layer="layer1"
     showgrid="false"
     units="mm"
     fit-margin-top="0"
     fit-margin-left="0"
     fit-margin-right="0"
     fit-margin-bottom="0"
     inkscape:window-width="1600"
     inkscape:window-height="838"
     inkscape:window-x="-8"
     inkscape:window-y="-8"
     inkscape:window-maximized="1" />
  <metadata
     id="metadata4">
    <rdf:RDF>
      <cc:Work
         rdf:about="">
        <dc:format>image/svg+xml</dc:format>
        <dc:type
           rdf:resource="http://purl.org/dc/dcmitype/StillImage" />
        <dc:title></dc:title>
      </cc:Work>
    </rdf:RDF>
  </metadata>
  <g
     inkscape:label="Layer 1"
     inkscape:groupmode="layer"
     id="layer1"
     transform="translate(245.66499,39.211177)">
    <path
       style="fill:#215e8f;fill-opacity:1"
       d="m 305.71429,1143.2519 c -61.88341,-4.0745 -127.96786,-19.5401 -185.72503,-43.4647 -19.25476,-7.9758 -53.373219,-24.6986 -70.274989,-34.4444 -26.499,-15.2797 -58.2426996,-37.5634 -83.6139,-58.6958 C -137.17483,920.62596 -208.24443,800.91217 -234.72653,668.36216 c -7.896,-39.52139 -10.9638,-72.05489 -10.9383,-116 0.02,-34.50993 0.9459,-49.28874 4.9492,-79 12.7455,-94.59272 49.1612,-186.88159 103.9731,-263.5 C -50.460429,89.253271 75.527781,5.8557774 218.8148,-25.49779 c 72.05333,-15.766459 144.26227,-17.924609 218.89949,-6.542375 93.75079,14.297068 186.42106,53.476232 263.5,111.402596 23.0778,17.34342 38.5198,30.886579 62.0651,54.433279 54.1362,54.13933 92.8108,110.22536 123.4475,179.02417 77.95225,175.05223 65.45675,379.30087 -33.2832,544.04228 -77.314,128.99351 -200.19554,223.22164 -345.67546,265.07114 -38.40392,11.0474 -83.09634,18.7267 -124.53687,21.3984 -18.26954,1.1779 -59.0528,1.1359 -77.51707,-0.08 z m 189.5,-231.31714 c 8.12225,-2.1989 21.50504,-8.6871 29.10605,-14.11102 3.43711,-2.45268 9.30458,-7.79295 13.03882,-11.86728 l 6.78953,-7.40786 4.5328,2.2929 c 13.63359,6.89652 34.30353,9.4171 49.6429,6.05367 8.64033,-1.89454 21.60057,-7.51782 28.89751,-12.53824 19.35294,-13.31518 32.52727,-38.34408 32.47809,-61.70261 -0.008,-3.73569 -1.35143,-17.59216 -2.9857,-30.79216 -1.63427,-13.2 -2.97783,-24.7875 -2.9857,-25.75 -0.0135,-1.65131 4.23581,-1.75 75.3524,-1.75 l 75.3666,0 2.2204,-5.25 c 5.5004,-13.00549 9.7966,-24.66639 9.2786,-25.18433 -0.3111,-0.31112 -72.0596,-0.56567 -159.44112,-0.56567 -174.33184,0 -166.08457,0.2711 -180.95825,-5.94832 -21.22585,-8.87557 -39.15071,-28.48879 -46.48498,-50.86345 -2.67316,-8.15501 -2.84581,-9.70088 -2.81301,-25.18823 0.0327,-15.43493 0.21515,-17.0164 2.82685,-24.5 3.74082,-10.71902 8.59125,-19.73503 14.63628,-27.20597 9.87983,-12.21033 26.66343,-22.83604 43.50193,-27.54111 l 8,-2.23538 159.5839,-0.50877 159.5839,-0.50877 5.4161,-4.18885 c 14.4846,-11.20251 21.9161,-26.29033 21.9161,-44.4954 0,-10.36658 -1.8441,-17.67845 -7.1684,-28.42336 -10.097,-20.37661 -28.8849,-37.39075 -49.3316,-44.67414 -15.0908,-5.37556 -31.5194,-5.97384 -47.252,-1.72078 -5.4683,1.47826 -20.2993,8.48117 -50.40558,23.80053 l -42.65759,21.70599 -22.2892,23.748 -22.28921,23.74801 -42.82469,0 -42.8247,0 -41.97852,-36.01843 c -23.08818,-19.81014 -41.97851,-36.2295 -41.97851,-36.48747 0,-0.72092 101.48323,-119.77879 103.62041,-121.56516 1.03377,-0.86409 46.31709,-23.12532 100.62959,-49.4694 54.3125,-26.34408 98.75,-48.18871 98.75,-48.54361 0,-1.32924 -19.0846,-22.91628 -20.2668,-22.92432 -0.6783,-0.005 -45.7832,21.63639 -100.2332,48.09111 l -99,48.0995 -61.98657,72.90105 -61.98656,72.90106 -59.01344,0.25784 -59.01343,0.25783 -0.26445,30.75 -0.26445,30.75 -65.30405,0 c -73.04093,0 -71.52646,-0.13099 -80.50034,6.96246 -9.3626,7.40071 -13.32125,20.77951 -9.62527,32.52997 2.33101,7.4109 9.44712,15.3531 16.68845,18.62577 l 5.27011,2.3818 66.75,0.29615 66.75,0.29615 0,63.42677 0,63.42677 -67.25,0.27708 -67.25,0.27708 -4.92291,2.42291 c -6.29029,3.09589 -12.19451,9.00604 -14.91297,14.92792 -3.08256,6.71506 -3.0268,18.89819 0.11568,25.27645 3.15136,6.39627 8.56889,11.6738 15.15362,14.76202 l 5.56658,2.6107 66.75,0.27726 66.75,0.27727 0,30.47273 0,30.47274 49.84273,0 49.84273,0 15.6008,25.25 c 8.58043,13.8875 18.04976,28.21314 21.04295,31.83475 11.49502,13.9084 29.2399,24.28295 48.67079,28.45535 8.45641,1.8159 30.24096,1.2684 38.5,-0.9675 z m -37,-30.43919 c -16.33706,-4.69448 -25.37018,-12.99119 -39.88498,-36.63341 l -10.4369,-17 12.74799,-0.27789 12.74798,-0.27789 38.91295,-36.44838 38.91296,-36.44838 55.58681,-0.0237 55.58681,-0.0237 2.77585,22.75 c 3.8514,31.5648 4.20561,39.46698 2.09816,46.80963 -8.77826,30.58478 -44.6605,43.25585 -71.48518,25.24352 -3.85273,-2.58705 -11.00202,-9.44431 -18.4286,-17.67587 l -12.13385,-13.44911 -1.26376,14.91088 c -0.74898,8.83718 -2.12738,17.76223 -3.38395,21.91089 -1.8476,6.10004 -2.92245,7.77608 -8.3603,13.03646 -6.85033,6.62677 -15.75425,11.60314 -24.95209,13.94563 -7.82717,1.99341 -21.45887,1.82974 -29.0399,-0.34868 z m -155.5,-239.63341 0,-25.5 47.07196,0 47.07195,0 -0.82195,5.75 c -0.45208,3.1625 -0.82196,12.05 -0.82196,19.75 0,7.7 0.36988,16.5875 0.82196,19.75 l 0.82195,5.75 -47.07195,0 -47.07196,0 z m 350.43052,-124.75 10.57347,-11.25 38.74801,-19.69911 c 21.9364,-11.15225 41.3339,-20.37199 44.7081,-21.25 11.4484,-2.97901 24.36,-1.42377 34.965,4.21165 6.6048,3.50969 19.3586,16.22928 23.3554,23.29276 1.7289,3.05542 3.8422,8.23042 4.6962,11.5 1.9522,7.47375 0.737,14.46914 -3.5387,20.37158 l -2.9505,4.07312 -80.5652,0 -80.56525,0 z m -603.679039,35.5 0.2515,-327.25 -27.0015,0 -27.0014996,0 0,327.51633 0,327.51634 26.7499996,-0.26634 26.75,-0.26633 z m 340.590089,-325.75 C 454.76618,187.96667 476.27152,174.5811 475.3912,173.74687 473.6785,172.12384 301.62042,69.107721 301.30616,69.517151 c -0.14566,0.18976 -5.29008,8.65227 -11.43205,18.80559 -8.76261,14.485499 -10.89727,18.705779 -9.91352,19.599299 0.68953,0.62629 17.63245,10.99403 37.65092,23.03942 l 36.39722,21.9007 -117.64722,0.25411 -117.64722,0.25412 0,21.49175 0,21.49176 117.17851,0.25413 117.17851,0.25413 -37.23438,22.33239 c -20.47891,12.28282 -37.09674,22.69194 -36.92851,23.13138 1.52949,3.9953 22.5812,37.00418 23.47053,36.80157 0.64056,-0.14594 40.09517,-23.66534 87.67691,-52.26534 z"
       id="path4329"
       inkscape:connector-curvature="0"
       sodipodi:nodetypes="csssssssssssssssccssscssscssscscssssssscccsssssscccccssssscscccccccsssscccccccsssscccccccsssssscccccccsssscsssssccccsssccccccsssscscccccccccccccsscssscccccccssss" />
  </g>
</svg>
