<?xml version="1.0" encoding="UTF-8" standalone="no"?>
<!-- Created with Inkscape (http://www.inkscape.org/) -->

<svg
   xmlns:dc="http://purl.org/dc/elements/1.1/"
   xmlns:cc="http://creativecommons.org/ns#"
   xmlns:rdf="http://www.w3.org/1999/02/22-rdf-syntax-ns#"
   xmlns:svg="http://www.w3.org/2000/svg"
   xmlns="http://www.w3.org/2000/svg"
   xmlns:sodipodi="http://sodipodi.sourceforge.net/DTD/sodipodi-0.dtd"
   xmlns:inkscape="http://www.inkscape.org/namespaces/inkscape"
   id="svg17624"
   version="1.1"
   inkscape:version="0.48.2 r9819"
   width="389.76251"
   height="212.5975"
   xml:space="preserve"
   sodipodi:docname="AJAX6.svg"><metadata
     id="metadata17630"><rdf:RDF><cc:Work
         rdf:about=""><dc:format>image/svg+xml</dc:format><dc:type
           rdf:resource="http://purl.org/dc/dcmitype/StillImage" /><dc:title></dc:title></cc:Work></rdf:RDF></metadata><defs
     id="defs17628"><inkscape:perspective
       sodipodi:type="inkscape:persp3d"
       inkscape:vp_x="0 : 0.5 : 1"
       inkscape:vp_y="0 : 1000 : 0"
       inkscape:vp_z="1 : 0.5 : 1"
       inkscape:persp3d-origin="0.5 : 0.33333333 : 1"
       id="perspective17632" /><clipPath
       clipPathUnits="userSpaceOnUse"
       id="clipPath17642"><path
         d="m -2,710 501,0 0,-711 -501,0 0,711 z"
         id="path17644"
         inkscape:connector-curvature="0" /></clipPath><clipPath
       clipPathUnits="userSpaceOnUse"
       id="clipPath17648"><path
         d="m 0,708.06 498,0 0,-708 -498,0 0,708 z"
         id="path17650"
         inkscape:connector-curvature="0" /></clipPath><clipPath
       clipPathUnits="userSpaceOnUse"
       id="clipPath17798"><path
         d="m -2,710 501,0 0,-711 -501,0 0,711 z"
         id="path17800"
         inkscape:connector-curvature="0" /></clipPath><clipPath
       clipPathUnits="userSpaceOnUse"
       id="clipPath17804"><path
         d="m 0,708.06 498,0 0,-708 -498,0 0,708 z"
         id="path17806"
         inkscape:connector-curvature="0" /></clipPath><clipPath
       id="Clip0"><path
         inkscape:connector-curvature="0"
         d="m 0,0 212.597,0 0,269.292 L 0,269.292 0,0 z"
         transform="translate(0.923828,0.879883)"
         id="path7" /></clipPath></defs><sodipodi:namedview
     pagecolor="#ffffff"
     bordercolor="#666666"
     borderopacity="1"
     objecttolerance="10"
     gridtolerance="10"
     guidetolerance="10"
     inkscape:pageopacity="0"
     inkscape:pageshadow="2"
     inkscape:window-width="1280"
     inkscape:window-height="1004"
     id="namedview17626"
     showgrid="false"
     inkscape:zoom="0.70790574"
     inkscape:cx="123.44149"
     inkscape:cy="-81.374356"
     inkscape:window-x="-8"
     inkscape:window-y="-8"
     inkscape:window-maximized="1"
     inkscape:current-layer="g17634"
     fit-margin-top="0"
     fit-margin-left="0"
     fit-margin-right="0"
     fit-margin-bottom="0"
     showguides="true"
     inkscape:guide-bbox="true" /><g
     id="g17634"
     inkscape:groupmode="layer"
     inkscape:label="GG1999P002"
     transform="matrix(1.25,0,0,-1.25,158.2219,92.018278)"><path
       inkscape:connector-curvature="0"
       style="fill:#000000;fill-rule:nonzero;stroke:none"
       d="m -126.57752,56.606722 c 0,9.39364 7.61426,17.0079 17.0078,17.0079 l 277.7952,0 c 9.393,0 17.007,-7.61426 17.007,-17.0079 l 0,-136.0621 c 0,-9.393 -7.614,-17.008 -17.007,-17.008 l -277.7952,0 c -9.39354,0 -17.0078,7.615 -17.0078,17.008 l 0,136.0621 z"
       id="path11" /><path
       inkscape:connector-curvature="0"
       style="fill:#a2ff31;fill-opacity:1;fill-rule:nonzero;stroke:none"
       d="m -120.90857,56.607778 c 0,6.26168 5.07613,11.3379 11.3388,11.3379 l 277.7952,0 c 6.262,0 11.338,-5.07622 11.338,-11.3379 l 0,-136.0641 c 0,-6.263 -5.076,-11.339 -11.338,-11.339 l -277.7952,0 c -6.26267,0 -11.3388,5.076 -11.3388,11.339 l 0,136.0641 z"
       id="path13-4" /><path
       inkscape:connector-curvature="0"
       style="fill:#000000;fill-rule:nonzero;stroke:none"
       d="m -111.69564,-58.550842 c 0,-4.222 1.1621,-7.525 3.4853,-9.906 2.127,-2.183 4.8623,-3.274 8.207,-3.274 3.2598,0 5.9815,1.077 8.1641,3.231 2.2676,2.268 3.4014,5.244 3.4014,8.93 0,7.142 -4.0821,12.727 -12.2461,16.752 -1.9278,0.935 -2.8906,2.58 -2.8906,4.932 0,1.219 0.538,2.282 1.6152,3.189 0.9922,0.851 2.084,1.275 3.2744,1.275 1.0488,0 2.0547,-0.552 3.0186,-1.658 0.9921,-1.077 1.4882,-2.153 1.4882,-3.23 l 5.8672,0 c 0,3.06 -0.9912,5.612 -2.9756,7.653 -1.956,2.069 -4.4228,3.103 -7.3984,3.103 -2.8633,0 -5.3721,-0.977 -7.5264,-2.933 -2.2675,-2.013 -3.4013,-4.45 -3.4013,-7.314 0,-1.899 0.4111,-3.699 1.2324,-5.4 0.8223,-1.672 1.9424,-3.019 3.3603,-4.039 1.9551,-1.19 3.9112,-2.381 5.8672,-3.571 2.0694,-1.475 3.4727,-3.416 4.209,-5.826 0.3115,-1.02 0.4678,-1.999 0.4678,-2.933 0,-1.816 -0.5098,-3.331 -1.5303,-4.551 -0.9922,-1.218 -2.3242,-1.813 -3.9971,-1.785 -2.0127,0.028 -3.458,0.638 -4.3369,1.828 -0.8506,1.191 -1.29,3.033 -1.3183,5.527 l -6.0371,0 z"
       id="path15" /><path
       inkscape:connector-curvature="0"
       style="fill:#000000;fill-rule:nonzero;stroke:none"
       d="m -79.21224,-28.402842 0,-42.521 21.2607,0 0,5.613 -15.2227,0 0,36.908 -6.038,0 z"
       id="path17" /><path
       inkscape:connector-curvature="0"
       style="fill:#000000;fill-rule:evenodd;stroke:none"
       d="m -38.13904,-71.730842 c 4.1387,0 7.2568,1.984 9.354504,5.952 1.956,3.77 2.9332,9.156 2.9332,16.158 0,14.711 -4.067,22.067 -12.202704,22.067 -8.334,0 -12.5,-7.356 -12.5,-22.067 0,-14.74 4.1377,-22.11 12.415,-22.11 z m 0,6.123 c -2.4092,0 -4.124,1.545 -5.1445,4.635 -0.8223,2.522 -1.2334,6.306 -1.2334,11.352 0,10.772 2.1259,16.157 6.3779,16.157 4.2236,0 6.3359,-5.385 6.3359,-16.157 0,-10.658 -2.1123,-15.987 -6.3359,-15.987 z"
       id="path19" /><path
       inkscape:connector-curvature="0"
       style="fill:#000000;fill-rule:nonzero;stroke:none"
       d="m -18.409344,-28.402842 6.887,-42.521 5.018,0 4.167,21.771 4.082,-21.771 5.273,0 6.462,42.521 -6.081,0 -3.273,-22.493 -4.039,22.493 -4.976,0 -3.996,-22.11 -3.528992,22.11 -5.995008,0 z"
       id="path21" /><path
       inkscape:connector-curvature="0"
       style="fill:#000000;fill-rule:evenodd;stroke:none"
       d="m 54.170656,-28.402842 -9.652,0 0,-42.521 9.652,0 c 5.386,0 9.128,2.112 11.225,6.335 1.672,3.346 2.508,8.703 2.508,16.074 0,6.264 -0.907,11.012 -2.72,14.244 -2.211,3.912 -5.882,5.868 -11.013,5.868 z m -0.213,-5.868 c 3.26,0 5.471,-1.46 6.633,-4.38 0.794,-2.013 1.19,-5.343 1.19,-9.992 l 0,-2.423 c 0,-4.366 -0.353,-7.513 -1.062,-9.44 -1.077,-2.948 -3.147,-4.423 -6.208,-4.423 l -4.082,0 0,30.658 3.529,0 z"
       id="path23" /><path
       inkscape:connector-curvature="0"
       style="fill:#000000;fill-rule:evenodd;stroke:none"
       d="m 87.803656,-71.730842 c 4.138,0 7.257,1.984 9.354,5.952 1.956,3.77 2.934004,9.156 2.934004,16.158 0,14.711 -4.068004,22.067 -12.203004,22.067 -8.334,0 -12.5,-7.356 -12.5,-22.067 0,-14.74 4.137,-22.11 12.415,-22.11 z m 0,6.123 c -2.409,0 -4.124,1.545 -5.145,4.635 -0.822,2.522 -1.233,6.306 -1.233,11.352 0,10.772 2.126,16.157 6.378,16.157 4.223,0 6.336,-5.385 6.336,-16.157 0,-10.658 -2.113,-15.987 -6.336,-15.987 z"
       id="path25" /><path
       inkscape:connector-curvature="0"
       style="fill:#000000;fill-rule:nonzero;stroke:none"
       d="m 107.40466,-28.402842 6.888,-42.521 5.018,0 4.167,21.771 4.082,-21.771 5.272,0 6.463,42.521 -6.08,0 -3.275,-22.493 -4.039,22.493 -4.975,0 -3.996,-22.11 -3.53,22.11 -5.995,0 z"
       id="path27" /><path
       inkscape:connector-curvature="0"
       style="fill:#000000;fill-rule:nonzero;stroke:none"
       d="m 146.81966,-28.402842 0,-42.521 5.867,0 0,27.936 12.671,-27.936 4.848,0 0,42.521 -6.165,0 0,-24.577 -11.354,24.577 -5.867,0 z"
       id="path29" /><path
       inkscape:connector-curvature="0"
       style="fill:#000000;fill-rule:evenodd;stroke:none"
       d="m -78.55994,48.110758 -12.8682,0 0,-56.6934 12.8682,0 c 7.1816,0 12.1709,2.8154 14.9678,8.44630005 2.2295,4.46089995 3.3447,11.60349995 3.3447,21.43059995 0,8.3526 -1.21,14.6836 -3.6289,18.9922 -2.9473,5.2159 -7.8418,7.8243 -14.6836,7.8243 z m -0.2832,-7.8243 c 4.3467,0 7.2949,-1.9472 8.8447,-5.8398 1.0576,-2.6836 1.5869,-7.124 1.5869,-13.3233 l 0,-3.2304 c 0,-5.8213 -0.4726,-10.0156 -1.417,-12.586 -1.4365,-3.9306 -4.1953,-5.89639995 -8.2773,-5.89639995 l -5.4424,0 0,40.87589995 4.7051,0 z"
       id="path31" /><path
       inkscape:connector-curvature="0"
       style="fill:#000000;fill-rule:evenodd;stroke:none"
       d="m -37.00334,15.000358 3.9678,15.252 4.025404,-15.252 -7.993204,0 z m -13.5498,-23.583 8.2198,0 3.7988,15.7607 11.565404,0 4.0818,-15.7607 8.108,0 -14.2308,56.6934 -7.993204,0 -13.5498,-56.6934 z"
       id="path33" /><path
       inkscape:connector-curvature="0"
       style="fill:#000000;fill-rule:nonzero;stroke:none"
       d="m -5.143344,48.110758 0,-56.6934 7.823,0 0,37.2471 16.894,-37.2471 6.463,0 0,56.6934 -8.22,0 0,-32.7696 -15.137,32.7696 -7.823,0 z"
       id="path35" /><path
       inkscape:connector-curvature="0"
       style="fill:#000000;fill-rule:nonzero;stroke:none"
       d="m 60.903656,34.559958 8.22,0 c 0,4.082 -1.492,7.541 -4.479,10.375 -2.948,2.873 -6.462,4.3086 -10.544,4.3086 -6.463,0 -10.98,-3.5147 -13.55,-10.544 -1.74,-4.6875 -2.608,-11.2637 -2.608,-19.7295 0,-7.5595 0.907,-13.6826 2.721,-18.36909995 2.684,-6.84080005 7.163,-10.26080005 13.437,-10.26080005 3.137,0 5.953,0.7754 8.447,2.3233 2.267,1.3994 3.912,3.1748 4.932,5.3301 1.02,2.19230005 1.531,5.4423 1.531,9.7509 l 0,11.2256 -14.514,0 0,-8.164 6.803,0 0,-6.4063 c 0,-1.5879 -0.793,-3.0234 -2.38,-4.30859995 -1.55,-1.28510005 -3.156,-1.92770005 -4.819,-1.92770005 -5.368,0 -8.051,6.4629 -8.051,19.3896 l 0,3.4014 c 0,13.4551 2.683,20.1826 8.051,20.1826 2.078,0 3.722,-0.5869 4.932,-1.7578 1.247,-1.1338 1.871,-2.7402 1.871,-4.8193 z"
       id="path37" /><path
       inkscape:connector-curvature="0"
       style="fill:#000000;fill-rule:nonzero;stroke:none"
       d="m 81.085656,48.110758 0,-56.6934 28.347004,0 0,7.99320005 -20.580004,0 0,18.70889995 12.075004,0 0,7.7666 -12.075004,0 0,14.2305 19.672004,0 0,7.9942 -27.439004,0 z"
       id="path39" /><path
       inkscape:connector-curvature="0"
       style="fill:#000000;fill-rule:evenodd;stroke:none"
       d="m 142.02966,19.026758 c 2.494,0.8681 4.516,2.7021 6.066,5.499 1.398,2.5693 2.097,5.3096 2.097,8.2197 0,3.7422 -1.152,7.1817 -3.457,10.3194 -2.457,3.3632 -5.367,5.0449 -8.731,5.0459 l -18.992,0 0,-56.6934 7.823,0 0,26.3047 7.37,0 7.54,-26.3047 8.447,0 -8.163,27.6094 z m -5.272,6.8593 -9.922,0 0,14.1172 9.978,0 c 3.402,0 5.103,-2.3252 5.103,-6.9736 0,-1.8906 -0.417,-3.4961 -1.248,-4.8193 -0.944,-1.5498 -2.248,-2.3243 -3.911,-2.3243 z"
       id="path41" /></g></svg>