<?xml version="1.0" encoding="UTF-8" standalone="no"?>
<!-- Created with Inkscape (http://www.inkscape.org/) -->
<svg
   xmlns:svg="http://www.w3.org/2000/svg"
   xmlns="http://www.w3.org/2000/svg"
   version="1.0"
   width="282.0625"
   height="282"
   id="svg2"
   xml:space="preserve"><defs
     id="defs5"><clipPath
       id="clipPath19"><path
         d="M 0.496094,0 L 2255.52,0 L 2255.52,2255.03 L 0.496094,2255.03 L 0.496094,0 z"
         id="path21" /></clipPath></defs><g
     transform="matrix(1.25,0,0,-1.25,0,282)"
     id="g11"><g
       transform="scale(0.1,0.1)"
       id="g13"><g
         id="g15"><g
           clip-path="url(#clipPath19)"
           id="g17"><path
             d="M 2254.45,1126.44 C 2254.45,1746.35 1746.85,2253.96 1126.93,2253.96 C 509.164,2253.96 1.56641,1746.35 1.56641,1126.44 C 1.56641,508.672 509.168,1.07031 1126.93,1.07031 C 1746.85,1.07031 2254.45,508.672 2254.45,1126.44"
             id="path23"
             style="fill:#e23828;fill-opacity:1;fill-rule:nonzero;stroke:none" /><path
             d="M 2254.45,1126.44 C 2254.45,1746.35 1746.85,2253.96 1126.93,2253.96 C 509.164,2253.96 1.56641,1746.35 1.56641,1126.44 C 1.56641,508.672 509.168,1.07031 1126.93,1.07031 C 1746.85,1.07031 2254.45,508.672 2254.45,1126.44 z"
             id="path25"
             style="fill:none;stroke:#e23828;stroke-width:2.1500001;stroke-linecap:butt;stroke-linejoin:miter;stroke-miterlimit:4;stroke-dasharray:none;stroke-opacity:1" /><path
             d="M 1972.21,1126.44 C 1972.21,1591.56 1592.05,1971.71 1126.93,1971.71 C 663.965,1971.71 283.805,1591.56 283.805,1126.44 C 283.805,663.48 663.965,283.32 1126.93,283.32 C 1592.05,283.32 1972.21,663.48 1972.21,1126.44"
             id="path27"
             style="fill:#ffffff;fill-opacity:1;fill-rule:nonzero;stroke:none" /><path
             d="M 1972.21,1126.44 C 1972.21,1591.56 1592.05,1971.71 1126.93,1971.71 C 663.965,1971.71 283.805,1591.56 283.805,1126.44 C 283.805,663.48 663.965,283.32 1126.93,283.32 C 1592.05,283.32 1972.21,663.48 1972.21,1126.44 z"
             id="path29"
             style="fill:none;stroke:#e23828;stroke-width:2.1500001;stroke-linecap:butt;stroke-linejoin:miter;stroke-miterlimit:4;stroke-dasharray:none;stroke-opacity:1" /><path
             d="M 522.855,1083.96 C 419.176,1097.64 419.176,1250.27 522.855,1263.96 L 1718.77,1263.96 C 1767.01,1256.03 1800.85,1219.32 1800.85,1173.96 C 1800.85,1126.43 1767.01,1089.71 1718.77,1083.95 L 522.855,1083.95"
             id="path31"
             style="fill:#000000;fill-opacity:1;fill-rule:nonzero;stroke:none" /><path
             d="M 522.855,1083.96 C 419.176,1097.64 419.176,1250.27 522.855,1263.96 L 1718.77,1263.96 C 1767.01,1256.03 1800.85,1219.32 1800.85,1173.96 C 1800.85,1126.43 1767.01,1089.71 1718.77,1083.95 L 522.855,1083.95 L 522.855,1083.96 z"
             id="path33"
             style="fill:none;stroke:#000000;stroke-width:2.1500001;stroke-linecap:butt;stroke-linejoin:miter;stroke-miterlimit:4;stroke-dasharray:none;stroke-opacity:1" /><path
             d="M 1795.09,931.309 C 1783.57,934.199 1772.05,937.078 1764.12,937.078 C 1755.48,937.078 1749.73,937.078 1743.96,934.199 C 1730.29,931.309 1718.77,925.559 1710.12,920.512 C 1696.45,908.988 1690.69,894.602 1690.69,878.031 C 1690.69,860.75 1699.32,844.199 1713.01,835.559 C 1718.77,832.68 1724.53,826.91 1733.17,826.91 L 1769.17,816.109 C 1772.05,813.23 1777.8,813.23 1780.69,810.359 C 1786.45,807.48 1792.21,801.711 1792.21,795.949 C 1792.21,788.031 1786.45,782.281 1780.69,779.398 C 1752.61,770.75 1724.53,776.512 1704.37,793.078 L 1679.17,765 C 1699.32,748.43 1727.41,736.91 1755.48,736.91 C 1764.12,736.91 1772.05,739.801 1780.69,739.801 C 1789.32,742.68 1800.85,745.559 1808.77,754.199 C 1823.17,762.109 1831.8,779.398 1831.8,795.949 C 1831.8,816.109 1820.29,832.68 1803.01,841.309 C 1795.09,847.078 1786.45,849.961 1777.8,852.828 L 1743.96,860.75 C 1743.96,860.75 1741.09,860.75 1738.21,863.629 C 1727.41,869.398 1724.53,886.68 1738.21,894.602 C 1743.96,897.48 1746.85,897.48 1752.61,900.359 C 1764.12,900.359 1772.05,900.359 1783.57,897.48 C 1789.32,894.602 1795.09,889.559 1800.85,886.68 L 1826.05,914.762 C 1817.41,920.512 1805.89,928.43 1795.09,931.309"
             id="path35"
             style="fill:#000000;fill-opacity:1;fill-rule:nonzero;stroke:none" /><path
             d="M 1795.09,931.309 C 1783.57,934.199 1772.05,937.078 1764.12,937.078 C 1755.48,937.078 1749.73,937.078 1743.96,934.199 C 1730.29,931.309 1718.77,925.559 1710.12,920.512 C 1696.45,908.988 1690.69,894.602 1690.69,878.031 C 1690.69,860.75 1699.32,844.199 1713.01,835.559 C 1718.77,832.68 1724.53,826.91 1733.17,826.91 L 1769.17,816.109 C 1772.05,813.23 1777.8,813.23 1780.69,810.359 C 1786.45,807.48 1792.21,801.711 1792.21,795.949 C 1792.21,788.031 1786.45,782.281 1780.69,779.398 C 1752.61,770.75 1724.53,776.512 1704.37,793.078 L 1679.17,765 C 1699.32,748.43 1727.41,736.91 1755.48,736.91 C 1764.12,736.91 1772.05,739.801 1780.69,739.801 C 1789.32,742.68 1800.85,745.559 1808.77,754.199 C 1823.17,762.109 1831.8,779.398 1831.8,795.949 C 1831.8,816.109 1820.29,832.68 1803.01,841.309 C 1795.09,847.078 1786.45,849.961 1777.8,852.828 L 1743.96,860.75 C 1743.96,860.75 1741.09,860.75 1738.21,863.629 C 1727.41,869.398 1724.53,886.68 1738.21,894.602 C 1743.96,897.48 1746.85,897.48 1752.61,900.359 C 1764.12,900.359 1772.05,900.359 1783.57,897.48 C 1789.32,894.602 1795.09,889.559 1800.85,886.68 L 1826.05,914.762 C 1817.41,920.512 1805.89,928.43 1795.09,931.309 L 1795.09,931.309 z"
             id="path37"
             style="fill:none;stroke:#000000;stroke-width:2.1500001;stroke-linecap:butt;stroke-linejoin:miter;stroke-miterlimit:4;stroke-dasharray:none;stroke-opacity:1" /><path
             d="M 1594.94,869.398 L 1594.94,742.68 L 1633.8,742.68 L 1633.8,878.031 C 1633.8,908.988 1608.61,937.078 1574.77,937.078 C 1555.32,937.078 1535.18,928.43 1521.48,911.879 C 1509.96,928.43 1493.41,937.078 1473.25,937.078 C 1456.69,937.078 1442.29,931.309 1430.78,920.512 L 1430.78,931.309 L 1391.89,931.309 L 1391.89,742.68 L 1430.78,742.68 L 1430.78,869.398 C 1430.78,908.988 1493.41,908.988 1493.41,869.398 L 1493.41,742.68 L 1532.29,742.68 L 1532.29,869.398 C 1532.29,908.988 1594.94,908.988 1594.94,869.398"
             id="path39"
             style="fill:#000000;fill-opacity:1;fill-rule:nonzero;stroke:none" /><path
             d="M 1594.94,869.398 L 1594.94,742.68 L 1633.8,742.68 L 1633.8,878.031 C 1633.8,908.988 1608.61,937.078 1574.77,937.078 L 1574.77,937.078 C 1555.32,937.078 1535.18,928.43 1521.48,911.879 C 1509.96,928.43 1493.41,937.078 1473.25,937.078 C 1456.69,937.078 1442.29,931.309 1430.78,920.512 L 1430.78,931.309 L 1391.89,931.309 L 1391.89,742.68 L 1430.78,742.68 L 1430.78,869.398 C 1430.78,908.988 1493.41,908.988 1493.41,869.398 L 1493.41,742.68 L 1532.29,742.68 L 1532.29,869.398 C 1532.29,908.988 1594.94,908.988 1594.94,869.398 z"
             id="path41"
             style="fill:none;stroke:#000000;stroke-width:2.1500001;stroke-linecap:butt;stroke-linejoin:miter;stroke-miterlimit:4;stroke-dasharray:none;stroke-opacity:1" /><path
             d="M 1180.21,875.16 C 1177.32,863.629 1177.32,849.961 1177.32,838.43 C 1177.32,824.762 1177.32,810.359 1180.21,798.828 C 1188.85,762.109 1222.69,736.91 1259.41,736.91 C 1296.12,736.91 1327.09,762.109 1335.01,798.828 C 1337.89,810.359 1340.78,824.762 1340.78,838.43 C 1340.78,849.961 1337.89,863.629 1335.01,875.16 C 1327.09,911.879 1296.12,937.078 1259.41,937.078 C 1222.69,937.078 1188.85,911.879 1180.21,875.16"
             id="path43"
             style="fill:#000000;fill-opacity:1;fill-rule:nonzero;stroke:none" /><path
             d="M 1180.21,875.16 C 1177.32,863.629 1177.32,849.961 1177.32,838.43 C 1177.32,824.762 1177.32,810.359 1180.21,798.828 C 1188.85,762.109 1222.69,736.91 1259.41,736.91 C 1296.12,736.91 1327.09,762.109 1335.01,798.828 C 1337.89,810.359 1340.78,824.762 1340.78,838.43 C 1340.78,849.961 1337.89,863.629 1335.01,875.16 C 1327.09,911.879 1296.12,937.078 1259.41,937.078 C 1222.69,937.078 1188.85,911.879 1180.21,875.16 z"
             id="path45"
             style="fill:none;stroke:#000000;stroke-width:2.1500001;stroke-linecap:butt;stroke-linejoin:miter;stroke-miterlimit:4;stroke-dasharray:none;stroke-opacity:1" /><path
             d="M 1219.82,872.281 C 1216.93,860.75 1216.93,849.961 1216.93,838.43 C 1216.93,824.762 1216.93,813.23 1219.82,801.711 C 1225.57,788.031 1239.25,773.629 1259.41,773.629 C 1275.96,773.629 1290.37,788.031 1296.12,801.711 C 1298.29,813.23 1301.17,824.762 1301.17,838.43 C 1301.17,849.961 1298.29,860.75 1296.12,872.281 C 1290.37,889.559 1275.96,900.359 1259.41,900.359 C 1239.25,900.359 1225.57,889.559 1219.82,872.281"
             id="path47"
             style="fill:#ffffff;fill-opacity:1;fill-rule:nonzero;stroke:none" /><path
             d="M 1219.82,872.281 C 1216.93,860.75 1216.93,849.961 1216.93,838.43 C 1216.93,824.762 1216.93,813.23 1219.82,801.711 C 1225.57,788.031 1239.25,773.629 1259.41,773.629 C 1275.96,773.629 1290.37,788.031 1296.12,801.711 C 1298.29,813.23 1301.17,824.762 1301.17,838.43 C 1301.17,849.961 1298.29,860.75 1296.12,872.281 C 1290.37,889.559 1275.96,900.359 1259.41,900.359 C 1239.25,900.359 1225.57,889.559 1219.82,872.281 z"
             id="path49"
             style="fill:none;stroke:#000000;stroke-width:2.1500001;stroke-linecap:butt;stroke-linejoin:miter;stroke-miterlimit:4;stroke-dasharray:none;stroke-opacity:1" /><path
             d="M 1095.25,931.309 L 1140.61,931.309 L 1140.61,894.602 L 1095.25,894.602 L 1095.25,790.91 C 1095.25,782.281 1101.02,773.629 1109.64,773.629 C 1118.29,773.629 1124.05,776.512 1129.09,776.512 L 1140.61,742.68 C 1131.96,739.801 1121.17,736.91 1109.64,736.91 C 1078.69,736.91 1056.38,762.109 1056.38,793.078 L 1056.38,894.602 L 1027.57,894.602 L 1027.57,931.309 L 1056.38,931.309 L 1056.38,970.91 L 1095.25,1007.64 L 1095.25,931.309"
             id="path51"
             style="fill:#000000;fill-opacity:1;fill-rule:nonzero;stroke:none" /><path
             d="M 1095.25,931.309 L 1140.61,931.309 L 1140.61,894.602 L 1095.25,894.602 L 1095.25,790.91 C 1095.25,782.281 1101.02,773.629 1109.64,773.629 L 1109.64,773.629 C 1118.29,773.629 1124.05,776.512 1129.09,776.512 L 1140.61,742.68 C 1131.96,739.801 1121.17,736.91 1109.64,736.91 C 1078.69,736.91 1056.38,762.109 1056.38,793.078 L 1056.38,894.602 L 1027.57,894.602 L 1027.57,931.309 L 1056.38,931.309 L 1056.38,970.91 L 1095.25,1007.64 L 1095.25,931.309 z"
             id="path53"
             style="fill:none;stroke:#000000;stroke-width:2.1500001;stroke-linecap:butt;stroke-linejoin:miter;stroke-miterlimit:4;stroke-dasharray:none;stroke-opacity:1" /><path
             d="M 954.848,931.309 C 946.207,934.199 934.695,937.078 923.887,937.078 C 918.125,937.078 909.484,937.078 903.727,934.199 C 892.926,931.309 881.406,925.559 869.887,920.512 C 859.086,908.988 850.438,894.602 850.438,878.031 C 850.438,860.75 859.074,844.199 872.758,835.559 C 878.516,832.68 887.156,826.91 892.918,826.91 L 928.918,816.109 C 934.688,813.23 937.555,813.23 943.316,810.359 C 949.074,807.48 951.957,801.711 951.957,795.949 C 951.957,788.031 946.195,782.281 940.426,779.398 C 915.227,770.75 884.266,776.512 864.105,793.078 L 838.906,765 C 861.227,748.43 887.145,736.91 915.227,736.91 C 923.867,736.91 931.785,739.801 940.426,739.801 C 951.957,742.68 959.875,745.559 968.508,754.199 C 982.906,762.109 991.547,779.398 991.547,795.949 C 991.547,816.109 980.035,832.68 962.746,841.309 C 954.824,847.078 946.195,849.961 937.547,852.828 L 903.707,860.75 C 903.707,860.75 900.824,860.75 900.824,863.629 C 887.145,869.398 887.145,886.68 897.945,894.602 C 903.707,897.48 909.465,897.48 915.227,900.359 C 923.867,900.359 934.676,900.359 943.305,897.48 C 949.066,894.602 957.707,889.559 962.746,886.68 L 985.785,914.762 C 977.145,920.512 965.637,928.43 954.824,931.309"
             id="path55"
             style="fill:#000000;fill-opacity:1;fill-rule:nonzero;stroke:none" /><path
             d="M 954.848,931.309 C 946.207,934.199 934.695,937.078 923.887,937.078 C 918.125,937.078 909.484,937.078 903.727,934.199 C 892.926,931.309 881.406,925.559 869.887,920.512 C 859.086,908.988 850.438,894.602 850.438,878.031 C 850.438,860.75 859.074,844.199 872.758,835.559 C 878.516,832.68 887.156,826.91 892.918,826.91 L 928.918,816.109 C 934.688,813.23 937.555,813.23 943.316,810.359 C 949.074,807.48 951.957,801.711 951.957,795.949 C 951.957,788.031 946.195,782.281 940.426,779.398 C 915.227,770.75 884.266,776.512 864.105,793.078 L 838.906,765 C 861.227,748.43 887.145,736.91 915.227,736.91 C 923.867,736.91 931.785,739.801 940.426,739.801 C 951.957,742.68 959.875,745.559 968.508,754.199 C 982.906,762.109 991.547,779.398 991.547,795.949 C 991.547,816.109 980.035,832.68 962.746,841.309 C 954.824,847.078 946.195,849.961 937.547,852.828 L 903.707,860.75 C 903.707,860.75 900.824,860.75 900.824,863.629 C 887.145,869.398 887.145,886.68 897.945,894.602 C 903.707,897.48 909.465,897.48 915.227,900.359 C 923.867,900.359 934.676,900.359 943.305,897.48 C 949.066,894.602 957.707,889.559 962.746,886.68 L 985.785,914.762 C 977.145,920.512 965.637,928.43 954.824,931.309 L 954.824,931.309 L 954.848,931.309 z"
             id="path57"
             style="fill:none;stroke:#000000;stroke-width:2.1500001;stroke-linecap:butt;stroke-linejoin:miter;stroke-miterlimit:4;stroke-dasharray:none;stroke-opacity:1" /><path
             d="M 635.887,931.309 L 635.887,804.602 C 635.887,767.879 663.965,736.91 700.688,736.91 C 717.965,736.91 734.527,742.68 748.926,754.199 L 748.926,742.68 L 788.527,742.68 L 788.527,931.309 L 748.926,931.309 L 748.926,810.359 C 748.926,790.91 731.645,773.629 712.207,773.629 C 692.047,773.629 675.477,790.91 675.477,810.359 L 675.477,931.309 L 635.875,931.309"
             id="path59"
             style="fill:#000000;fill-opacity:1;fill-rule:nonzero;stroke:none" /><path
             d="M 635.887,931.309 L 635.887,804.602 C 635.887,767.879 663.965,736.91 700.688,736.91 C 717.965,736.91 734.527,742.68 748.926,754.199 L 748.926,742.68 L 788.527,742.68 L 788.527,931.309 L 748.926,931.309 L 748.926,810.359 C 748.926,790.91 731.645,773.629 712.207,773.629 C 692.047,773.629 675.477,790.91 675.477,810.359 L 675.477,931.309 L 635.875,931.309 L 635.887,931.309 z"
             id="path61"
             style="fill:none;stroke:#000000;stroke-width:2.1500001;stroke-linecap:butt;stroke-linejoin:miter;stroke-miterlimit:4;stroke-dasharray:none;stroke-opacity:1" /><path
             d="M 599.168,965.16 L 562.445,942.828 C 551.645,959.398 534.367,968.031 514.926,968.031 C 491.887,968.031 472.445,954.359 463.805,934.199 C 455.168,914.762 453.008,894.602 453.008,875.16 C 453.008,855.711 455.168,835.559 463.805,816.109 C 472.445,795.949 491.887,779.398 514.926,779.398 C 534.367,779.398 551.645,790.91 562.445,807.48 L 599.168,785.16 C 554.527,714.602 447.246,725.398 419.168,804.602 C 404.766,849.961 404.766,900.359 419.168,945.711 C 447.246,1024.91 554.527,1035.71 599.168,965.16"
             id="path63"
             style="fill:#000000;fill-opacity:1;fill-rule:nonzero;stroke:none" /><path
             d="M 599.168,965.16 L 562.445,942.828 C 551.645,959.398 534.367,968.031 514.926,968.031 C 491.887,968.031 472.445,954.359 463.805,934.199 C 455.168,914.762 453.008,894.602 453.008,875.16 C 453.008,855.711 455.168,835.559 463.805,816.109 C 472.445,795.949 491.887,779.398 514.926,779.398 C 534.367,779.398 551.645,790.91 562.445,807.48 L 599.168,785.16 C 554.527,714.602 447.246,725.398 419.168,804.602 C 404.766,849.961 404.766,900.359 419.168,945.711 C 447.246,1024.91 554.527,1035.71 599.168,965.16 z"
             id="path65"
             style="fill:none;stroke:#000000;stroke-width:2.1500001;stroke-linecap:butt;stroke-linejoin:miter;stroke-miterlimit:4;stroke-dasharray:none;stroke-opacity:1" /><path
             d="M 951.977,1752.11 L 951.977,1690.19 L 853.336,1690.19 L 853.336,1357.55 L 785.656,1357.55 L 785.656,1690.19 L 687.016,1690.19 L 687.016,1752.11 L 951.977,1752.11"
             id="path67"
             style="fill:#000000;fill-opacity:1;fill-rule:nonzero;stroke:none" /><path
             d="M 951.977,1752.11 L 951.977,1690.19 L 853.336,1690.19 L 853.336,1357.55 L 785.656,1357.55 L 785.656,1690.19 L 687.016,1690.19 L 687.016,1752.11 L 951.977,1752.11 z"
             id="path69"
             style="fill:none;stroke:#000000;stroke-width:2.1500001;stroke-linecap:butt;stroke-linejoin:miter;stroke-miterlimit:4;stroke-dasharray:none;stroke-opacity:1" /><path
             d="M 974.285,1557.71 C 971.406,1537.55 968.527,1518.11 968.527,1497.95 C 968.527,1478.51 971.406,1459.07 974.285,1441.8 C 988.688,1388.51 1036.21,1348.91 1093.09,1348.91 C 1146.38,1348.91 1194.61,1388.51 1208.29,1441.8 C 1211.17,1459.07 1214.05,1478.51 1214.05,1497.95 C 1214.05,1518.11 1211.17,1537.55 1208.29,1554.83 C 1194.61,1610.99 1146.38,1647.71 1093.09,1647.71 C 1036.21,1647.71 988.688,1610.99 974.285,1557.71"
             id="path71"
             style="fill:#000000;fill-opacity:1;fill-rule:nonzero;stroke:none" /><path
             d="M 974.285,1557.71 C 971.406,1537.55 968.527,1518.11 968.527,1497.95 C 968.527,1478.51 971.406,1459.07 974.285,1441.8 C 988.688,1388.51 1036.21,1348.91 1093.09,1348.91 C 1146.38,1348.91 1194.61,1388.51 1208.29,1441.8 C 1211.17,1459.07 1214.05,1478.51 1214.05,1497.95 C 1214.05,1518.11 1211.17,1537.55 1208.29,1554.83 C 1194.61,1610.99 1146.38,1647.71 1093.09,1647.71 C 1036.21,1647.71 988.688,1610.99 974.285,1557.71 z"
             id="path73"
             style="fill:none;stroke:#000000;stroke-width:2.1500001;stroke-linecap:butt;stroke-linejoin:miter;stroke-miterlimit:4;stroke-dasharray:none;stroke-opacity:1" /><path
             d="M 1036.21,1549.07 C 1030.45,1531.8 1027.57,1515.23 1027.57,1497.95 C 1027.57,1481.39 1030.45,1464.11 1036.21,1447.55 C 1041.96,1422.35 1064.29,1405.07 1093.09,1405.07 C 1118.29,1405.07 1140.61,1422.35 1149.25,1447.55 C 1152.12,1464.11 1155.01,1481.39 1155.01,1497.95 C 1155.01,1515.23 1152.12,1531.8 1149.25,1549.07 C 1140.61,1574.27 1118.29,1591.56 1093.09,1591.56 C 1064.29,1591.56 1041.96,1574.27 1036.21,1549.07"
             id="path75"
             style="fill:#ffffff;fill-opacity:1;fill-rule:nonzero;stroke:none" /><path
             d="M 1036.21,1549.07 C 1030.45,1531.8 1027.57,1515.23 1027.57,1497.95 C 1027.57,1481.39 1030.45,1464.11 1036.21,1447.55 C 1041.96,1422.35 1064.29,1405.07 1093.09,1405.07 C 1118.29,1405.07 1140.61,1422.35 1149.25,1447.55 C 1152.12,1464.11 1155.01,1481.39 1155.01,1497.95 C 1155.01,1515.23 1152.12,1531.8 1149.25,1549.07 C 1140.61,1574.27 1118.29,1591.56 1093.09,1591.56 C 1064.29,1591.56 1041.96,1574.27 1036.21,1549.07 z"
             id="path77"
             style="fill:none;stroke:#000000;stroke-width:2.1500001;stroke-linecap:butt;stroke-linejoin:miter;stroke-miterlimit:4;stroke-dasharray:none;stroke-opacity:1" /><path
             d="M 1293.25,1357.55 L 1352.2891,1357.55 L 1352.2891,1752.109 L 1293.25,1752.109 L 1293.25,1357.55 z"
             id="path79"
             style="fill:#000000;fill-opacity:1;fill-rule:nonzero;stroke:none" /><path
             d="M 1293.25,1357.55 L 1352.2891,1357.55 L 1352.2891,1752.109 L 1293.25,1752.109 L 1293.25,1357.55 z"
             id="path81"
             style="fill:none;stroke:#000000;stroke-width:2.1500001;stroke-linecap:butt;stroke-linejoin:miter;stroke-miterlimit:4;stroke-dasharray:none;stroke-opacity:1" /><path
             d="M 1450.93,1357.55 L 1509.9691,1357.55 L 1509.9691,1752.109 L 1450.93,1752.109 L 1450.93,1357.55 z"
             id="path83"
             style="fill:#000000;fill-opacity:1;fill-rule:nonzero;stroke:none" /><path
             d="M 1450.93,1357.55 L 1509.9691,1357.55 L 1509.9691,1752.109 L 1450.93,1752.109 L 1450.93,1357.55 z"
             id="path85"
             style="fill:none;stroke:#000000;stroke-width:2.1500001;stroke-linecap:butt;stroke-linejoin:miter;stroke-miterlimit:4;stroke-dasharray:none;stroke-opacity:1" /></g></g></g></g></svg>