<?xml version="1.0" encoding="UTF-8" standalone="no"?>
<!-- Created with Inkscape (http://www.inkscape.org/) -->

<svg
   xmlns:dc="http://purl.org/dc/elements/1.1/"
   xmlns:cc="http://creativecommons.org/ns#"
   xmlns:rdf="http://www.w3.org/1999/02/22-rdf-syntax-ns#"
   xmlns:svg="http://www.w3.org/2000/svg"
   xmlns="http://www.w3.org/2000/svg"
   xmlns:sodipodi="http://sodipodi.sourceforge.net/DTD/sodipodi-0.dtd"
   xmlns:inkscape="http://www.inkscape.org/namespaces/inkscape"
   version="1.1"
   width="319.276"
   height="279.61874"
   id="svg2"
   xml:space="preserve"
   inkscape:version="0.48.4 r9939"
   sodipodi:docname="AJAX1.svg"><sodipodi:namedview
     pagecolor="#ffffff"
     bordercolor="#666666"
     borderopacity="1"
     objecttolerance="10"
     gridtolerance="10"
     guidetolerance="10"
     inkscape:pageopacity="0"
     inkscape:pageshadow="2"
     inkscape:window-width="1280"
     inkscape:window-height="1004"
     id="namedview9"
     showgrid="false"
     fit-margin-top="0.2"
     fit-margin-left="0.2"
     fit-margin-right="0.2"
     fit-margin-bottom="0.2"
     inkscape:zoom="2.0062924"
     inkscape:cx="143.79701"
     inkscape:cy="108.24302"
     inkscape:window-x="-8"
     inkscape:window-y="-8"
     inkscape:window-maximized="1"
     inkscape:current-layer="svg2"
     showguides="true"
     inkscape:guide-bbox="true" /><defs
     id="defs52" /><metadata
     id="metadata4"><rdf:RDF><cc:Work
         rdf:about=""><dc:format>image/svg+xml</dc:format><dc:type
           rdf:resource="http://purl.org/dc/dcmitype/StillImage" /><dc:title /></cc:Work></rdf:RDF></metadata><path
     style="fill:#cd1e00;fill-opacity:1;fill-rule:nonzero;stroke:none"
     d="m 159.638,0.2 c 3.75736,1.3e-4 7.51377,1.87636 9.71878,5.65625 l 148.18797,256.81249 c 1.08125,1.71125 1.53125,3.61374 1.53125,5.59375 0,6.12 -4.94627,11.15625 -11.15629,11.15625 l -296.56343,0 C 5.14627,279.41874 0.2,274.38249 0.2,268.26249 c 0,-1.98001 0.45,-3.8825 1.53125,-5.59375 L 149.91922,5.85625 C 152.12423,2.07636 155.88064,0.20013 159.638,0.2 z"
     id="path11"
     inkscape:connector-curvature="0"
     sodipodi:nodetypes="cccssssccc" /><path
     inkscape:connector-curvature="0"
     style="fill:#ffffff;fill-opacity:1;fill-rule:nonzero;stroke:none"
     d="m 159.638,56.12835 109.574,189.71997 -219.1475,0 z"
     id="path13"
     sodipodi:nodetypes="cccc" /><path
     inkscape:connector-curvature="0"
     style="fill:#000000;fill-rule:nonzero;stroke:none"
     d="m 196.97201,234.09637 c -1.01061,-0.26767 -2.06896,0.22047 -2.52062,1.16349 -0.45167,0.94248 -0.16897,2.07325 0.67266,2.69335 4.92271,2.53136 10.92039,1.55829 14.79118,-2.39939 l 29.06364,-29.71807 -2.80171,-4.85243 -30.11931,30.79787 c -2.35755,2.41013 -5.8625,3.30326 -9.08584,2.31518 z"
     id="path15" /><path
     inkscape:connector-curvature="0"
     style="fill:#000000;fill-rule:nonzero;stroke:none"
     d="m 120.49497,238.76481 59.84864,0 0,-6.20528 -60.47517,0 c -3.86435,0 -7.18961,-2.73143 -7.93952,-6.5223 -0.17916,-0.90225 -1.00793,-1.52557 -1.92413,-1.44618 -0.9162,0.0794 -1.62534,0.83574 -1.6468,1.75462 -0.0746,3.26732 1.171,6.42682 3.45507,8.76399 2.2846,2.33771 5.41459,3.65515 8.68299,3.65515 l -8.6e-4,0 z"
     id="path17" /><path
     inkscape:connector-curvature="0"
     style="fill:#000000;fill-rule:nonzero;stroke:none"
     d="m 203.90145,174.19409 c -0.38461,1.78252 -1.79485,3.16326 -3.58595,3.51032 -1.79056,0.34599 -3.61491,-0.40982 -4.63625,-1.92038 l -11.72287,-17.3413 -10.99173,0 27.54986,40.75217 20.90634,0 c 3.01735,0 5.46341,2.44607 5.46341,5.46341 0,3.01735 -2.44606,5.46288 -5.46341,5.46288 l -26.90134,0 c -1.8147,0 -3.51031,-0.90011 -4.52629,-2.40315 l -14.7724,-21.8515 -25.09468,17.39333 0,20.46379 c 0,3.01735 -2.44607,5.46288 -5.46288,5.46288 -3.01735,0 -5.46341,-2.44553 -5.46341,-5.46288 l 0,-26.4427 c 0,-1.79217 0.87812,-3.46954 2.35058,-4.49035 l 20.12692,-13.95061 -13.78861,-20.39727 -27.66412,0 21.73724,32.15394 -2.62147,1.81738 -22.96564,-33.97132 -0.72631,0 c -2.51419,0 -4.55257,-2.03839 -4.55257,-4.55311 0,-2.51365 2.03838,-4.55258 4.55257,-4.55258 l 70.24172,0 c 1.8147,0 3.51032,0.90065 4.52629,2.40315 l 13.02261,19.26383 15.43005,0 1.84099,3.19007 -16.80865,0 z"
     id="path19" /><path
     inkscape:connector-curvature="0"
     style="fill:#000000;fill-rule:nonzero;stroke:none"
     d="m 151.36794,123.65981 c -3.09405,-2.03785 -7.11075,-2.01317 -10.18013,0.0617 -3.06938,2.0754 -4.58905,5.79331 -3.85147,9.42432 1.20264,5.9199 5.24294,10.86835 10.80237,13.2302 2.57695,1.09429 5.53207,0.80892 7.85101,-0.75903 2.31893,-1.56741 3.68572,-4.20337 3.62993,-7.00186 -0.12015,-6.03952 -3.20616,-11.63275 -8.25171,-14.95532 z"
     id="path21" /></svg>