<?xml version="1.0" encoding="UTF-8" standalone="no"?>
<!-- Created with Inkscape (http://www.inkscape.org/) -->

<svg
   xmlns:dc="http://purl.org/dc/elements/1.1/"
   xmlns:cc="http://creativecommons.org/ns#"
   xmlns:rdf="http://www.w3.org/1999/02/22-rdf-syntax-ns#"
   xmlns:svg="http://www.w3.org/2000/svg"
   xmlns="http://www.w3.org/2000/svg"
   xmlns:sodipodi="http://sodipodi.sourceforge.net/DTD/sodipodi-0.dtd"
   xmlns:inkscape="http://www.inkscape.org/namespaces/inkscape"
   width="1029.5959mm"
   height="1029.5959mm"
   viewBox="0 0 1029.5959 1029.5959"
   version="1.1"
   id="svg8"
   inkscape:version="0.92.4 (5da689c313, 2019-01-14)"
   sodipodi:docname="Ontario_Wa-25.svg">
  <defs
     id="defs2" />
  <sodipodi:namedview
     id="base"
     pagecolor="#ffffff"
     bordercolor="#666666"
     borderopacity="1.0"
     inkscape:pageopacity="0.0"
     inkscape:pageshadow="2"
     inkscape:zoom="0.12584153"
     inkscape:cx="3020.365"
     inkscape:cy="2515.2177"
     inkscape:document-units="mm"
     inkscape:current-layer="layer1"
     showgrid="false"
     inkscape:window-width="1920"
     inkscape:window-height="1057"
     inkscape:window-x="-8"
     inkscape:window-y="-8"
     inkscape:window-maximized="1"
     showborder="true"
     inkscape:snap-global="false" />
  <metadata
     id="metadata5">
    <rdf:RDF>
      <cc:Work
         rdf:about="">
        <dc:format>image/svg+xml</dc:format>
        <dc:type
           rdf:resource="http://purl.org/dc/dcmitype/StillImage" />
        <dc:title></dc:title>
      </cc:Work>
    </rdf:RDF>
  </metadata>
  <g
     inkscape:label="Layer 1"
     inkscape:groupmode="layer"
     id="layer1"
     transform="translate(0,732.59634)">
    <rect
       style="opacity:1;fill:#ff8214;fill-opacity:1;fill-rule:nonzero;stroke:none;stroke-width:11.58005238;stroke-linecap:round;stroke-linejoin:round;stroke-miterlimit:4;stroke-dasharray:none;stroke-opacity:1"
       id="rect1383"
       width="750"
       height="750"
       x="143.02367"
       y="-164.98946"
       rx="40"
       ry="40"
       transform="rotate(-45)" />
    <rect
       ry="27.5"
       rx="27.5"
       y="-152.48946"
       x="155.52367"
       height="725"
       width="725"
       id="rect1396"
       style="opacity:1;fill:#000000;fill-opacity:1;fill-rule:nonzero;stroke:none;stroke-width:11.19404984;stroke-linecap:round;stroke-linejoin:round;stroke-miterlimit:4;stroke-dasharray:none;stroke-opacity:1"
       transform="rotate(-45)" />
    <rect
       ry="15"
       rx="15"
       y="-139.98946"
       x="168.02367"
       height="700"
       width="700"
       id="rect1398"
       style="opacity:1;fill:#ff8214;fill-opacity:1;fill-rule:nonzero;stroke:none;stroke-width:10.80804825;stroke-linecap:round;stroke-linejoin:round;stroke-miterlimit:4;stroke-dasharray:none;stroke-opacity:1"
       transform="rotate(-45)" />
    <rect
       style="opacity:1;fill:#000000;fill-opacity:1;fill-rule:nonzero;stroke:none;stroke-width:0.25530761;stroke-linecap:round;stroke-linejoin:round;stroke-miterlimit:4;stroke-dasharray:none;stroke-opacity:1"
       id="rect1493"
       width="150"
       height="590"
       x="439.798"
       y="-512.79822" />
    <rect
       style="opacity:1;fill:#ff8214;fill-opacity:1;fill-rule:nonzero;stroke:none;stroke-width:0.15077047;stroke-linecap:round;stroke-linejoin:round;stroke-miterlimit:4;stroke-dasharray:none;stroke-opacity:1"
       id="rect3486"
       width="22.6"
       height="66"
       x="503.49808"
       y="3.2017825" />
    <rect
       y="-219.79823"
       x="503.49808"
       height="66"
       width="22.6"
       id="rect3490"
       style="opacity:1;fill:#ff8214;fill-opacity:1;fill-rule:nonzero;stroke:none;stroke-width:0.15077047;stroke-linecap:round;stroke-linejoin:round;stroke-miterlimit:4;stroke-dasharray:none;stroke-opacity:1" />
    <rect
       y="-108.29821"
       x="503.49808"
       height="66"
       width="22.6"
       id="rect3492"
       style="opacity:1;fill:#ff8214;fill-opacity:1;fill-rule:nonzero;stroke:none;stroke-width:0.15077047;stroke-linecap:round;stroke-linejoin:round;stroke-miterlimit:4;stroke-dasharray:none;stroke-opacity:1" />
    <rect
       style="opacity:1;fill:#ff8214;fill-opacity:1;fill-rule:nonzero;stroke:none;stroke-width:0.2668328;stroke-linecap:round;stroke-linejoin:round;stroke-miterlimit:4;stroke-dasharray:none;stroke-opacity:1"
       id="rect3505"
       width="142.39999"
       height="281.20001"
       x="443.59805"
       y="-508.99823" />
    <path
       d="m 577.8185,-495.31886 c -3.07844,6.47389 5.17344,13.61627 -3.10644,16.57521 -3.9684,0.10552 -7.0282,-1.54265 -8.3726,-5.49593 l 3.1916,-6.36595 c 0.6905,-3.95173 -3.0243,-12.40697 3.3233,-12.62175 l 1.9244,0.76911 3.03974,7.13931"
       style="fill:#000000;fill-opacity:1;fill-rule:nonzero;stroke:none;stroke-width:3.12572598"
       id="path3507"
       inkscape:connector-curvature="0" />
    <path
       d="m 550.26076,-491.27985 c -7.1413,0.98379 -6.0948,-7.24754 -6.4219,-12.18766 l 7.0314,-1.53071 c 0,3.51179 -2.182,9.32925 -0.6095,13.71837"
       style="fill:#000000;fill-opacity:1;fill-rule:nonzero;stroke:none;stroke-width:3.12572598"
       id="path3509"
       inkscape:connector-curvature="0" />
    <path
       d="m 560.01056,-450.76171 -7.1353,-3.1904 -3.2719,-3.62437 c -4.7533,-3.07773 -9.8492,-4.28859 -12.7848,-9.33997 1.1426,-3.07319 1.4949,-6.47669 5.7997,-6.4739 7.706,0.22498 7.1197,8.02091 14.7095,8.35436 0.7895,2.74277 4.1762,7.13931 8.03,6.92026 -0.5744,2.08784 -3.9809,5.15788 -5.3472,7.35402"
       style="fill:#000000;fill-opacity:1;fill-rule:nonzero;stroke:none;stroke-width:3.12572598"
       id="path3511"
       inkscape:connector-curvature="0" />
    <path
       d="m 527.33996,-480.31341 -3.5295,4.49593 c -3.17,-0.44209 -1.5648,-6.36873 -3.4895,-7.57645 l -19.0127,-10.11493 c -1.6951,-1.20614 -4.9812,-1.76047 -4.0679,-4.39191 3.6338,-1.31758 7.478,1.32152 11.2216,-0.32263 7.9388,-2.18873 12.4592,3.08356 18.4547,5.83245 1.014,3.18271 5.1873,9.2241 0.4231,12.07789"
       style="fill:#000000;fill-opacity:1;fill-rule:nonzero;stroke:none;stroke-width:3.12572598"
       id="path3513"
       inkscape:connector-curvature="0" />
    <path
       d="m 571.82316,-419.68857 c -2.8397,1.6446 -5.2137,-0.66271 -6.5693,-1.54116 l -9.753,1.53044 c -0.6689,-4.39348 -2.4687,-8.3452 -7.2283,-9.22558 l 0.235,-2.41822 c 5.1131,-4.27776 16.7827,-3.06115 21.6506,-0.97175 0.6717,3.73389 5.98148,8.45646 1.6659,12.62627"
       style="fill:#000000;fill-opacity:1;fill-rule:nonzero;stroke:none;stroke-width:3.12572598"
       id="path3515"
       inkscape:connector-curvature="0" />
    <path
       d="m 519.23536,-461.33193 c -0.5716,2.30714 3.7252,6.6994 -1.7183,7.35437 -4.4073,-4.50179 -12.3642,3.61391 -15.2954,-2.09559 -2.3744,-2.52644 -6.1132,-3.07929 -7.2375,-6.15396 3.2878,-0.10814 6.3552,-2.40925 7.3833,-4.93577 5.8947,-1.31106 10.8696,3.74314 15.1884,-1.08591 l 3.8538,1.10099 c 0,1.97525 0.098,4.50169 -2.1743,5.81587"
       style="fill:#000000;fill-opacity:1;fill-rule:nonzero;stroke:none;stroke-width:3.12572598"
       id="path3517"
       inkscape:connector-curvature="0" />
    <path
       d="m 568.44986,-389.72092 c -4.2132,7.78808 -9.0628,-1.54431 -15.1929,1.08589 l -2.7139,-0.4421 2.7527,-13.17145 -4.6154,-9.77101 c 1.8161,-0.87855 6.1243,-1.97212 8.3914,-0.8727 1.2329,4.27933 9.6275,0.55285 11.4309,4.287 2.4798,5.05149 0.081,12.62638 -0.054,18.88402"
       style="fill:#000000;fill-opacity:1;fill-rule:nonzero;stroke:none;stroke-width:3.12572598"
       id="path3519"
       inkscape:connector-curvature="0" />
    <path
       d="m 465.72046,-493.75214 c -4.2024,3.83906 -11.116,2.40619 -16.6662,2.2951 -1.5864,-1.31872 -2.483,-3.51642 -1.0032,-5.81893 4.5404,-1.75594 9.1838,-0.763 13.8329,-2.4062 l 7.1444,-2.52226 c 2.6025,3.4069 -1.2621,6.47852 -3.3079,8.45229"
       style="fill:#000000;fill-opacity:1;fill-rule:nonzero;stroke:none;stroke-width:3.12572598"
       id="path3521"
       inkscape:connector-curvature="0" />
    <path
       d="m 483.58406,-478.59043 -0.2322,1.97681 c -9.0553,-3.9579 -13.0548,7.34355 -21.201,2.0697 l -6.9025,-2.9695 c 5.682,-4.82757 13.8437,-6.35514 20.6535,-9.42553 l 3.0597,0.33223 c 0.5555,2.74436 0.7688,7.79428 4.6212,8.01664"
       style="fill:#000000;fill-opacity:1;fill-rule:nonzero;stroke:none;stroke-width:3.12572598"
       id="path3523"
       inkscape:connector-curvature="0" />
    <path
       d="m 521.75396,-430.26182 c -1.0313,4.93735 1.5556,12.73311 -4.913,14.15552 l -3.1665,-1.53655 c -3.8322,-7.90833 -5.7318,-16.57993 -14.6831,-18.89448 0.1269,-4.49864 8.7264,0.33659 10.3313,-5.81004 3.0538,2.52958 6.1195,-0.43425 10.3113,0.55721 -2.9603,4.82904 0.5474,7.57487 2.12,11.52808"
       style="fill:#000000;fill-opacity:1;fill-rule:nonzero;stroke:none;stroke-width:3.12572598"
       id="path3525"
       inkscape:connector-curvature="0" />
    <path
       d="m 538.56316,-401.82 c -1.7198,6.69599 -9.9995,8.77641 -12.276,12.94596 -2.9528,0.65662 -5.8916,-1.97952 -3.5004,-4.50449 1.4826,-3.62011 2.1743,-7.79112 2.1884,-12.18339 5.8944,-1.9722 7.5818,2.75195 13.594,1.10866 v 2.63326"
       style="fill:#000000;fill-opacity:1;fill-rule:nonzero;stroke:none;stroke-width:3.12572598"
       id="path3527"
       inkscape:connector-curvature="0" />
    <path
       d="m 473.99246,-452.9098 c -7.3785,4.49584 -15.1884,0.42641 -22.7781,-0.56767 -4.6459,-1.20772 1.4873,-5.37606 -1.4514,-8.23133 3.9748,-2.96061 5.7784,1.64913 9.5188,1.32178 6.9088,1.43443 11.2276,-3.39304 18.0265,-2.50988 1.2342,3.62291 0.4258,9.00322 -3.3158,9.98701"
       style="fill:#000000;fill-opacity:1;fill-rule:nonzero;stroke:none;stroke-width:3.12572598"
       id="path3529"
       inkscape:connector-curvature="0" />
    <path
       d="m 571.09266,-362.71546 c -10.3177,1.64031 -20.9637,-1.22273 -25.03,-6.93223 -4.7533,-1.10098 -6.3301,-4.39775 -12.4561,-3.74288 -1.5724,-4.17286 5.0013,-4.60693 7.7276,-6.8015 l 4.7612,0.006 c 7.6949,3.95784 13.4514,12.195 23.8774,12.63989 1.5865,0.66273 2.8242,3.84674 1.1199,4.8321"
       style="fill:#000000;fill-opacity:1;fill-rule:nonzero;stroke:none;stroke-width:3.12572598"
       id="path3531"
       inkscape:connector-curvature="0" />
    <path
       d="m 493.47366,-407.1194 c -4.53,-1.97987 -0.09,-9.11142 -3.8227,-13.17764 0.235,-2.41388 4.657,-2.95896 6.0125,-1.64172 4.5297,1.3203 4.288,6.58952 10.871,3.74001 0.6608,6.80587 -8.4083,8.11874 -13.0608,11.07935"
       style="fill:#000000;fill-opacity:1;fill-rule:nonzero;stroke:none;stroke-width:3.12572598"
       id="path3533"
       inkscape:connector-curvature="0" />
    <path
       d="m 578.1409,-330.10725 -6.57064,-0.44472 c 0.6959,-5.92688 -5.5332,-7.57767 -4.3873,-12.18915 0.5798,-4.27784 2.5186,-9.21668 8.29676,-7.3479 -1.27016,7.79419 6.08687,11.2024 2.66117,19.98186"
       style="fill:#000000;fill-opacity:1;fill-rule:nonzero;stroke:none;stroke-width:3.12572598"
       id="path3535"
       inkscape:connector-curvature="0" />
    <path
       d="m 466.53646,-420.53292 c -7.2594,1.09357 -3.1497,-8.56303 -3.48,-12.40549 l 0.2449,-6.58804 3.6257,-0.21451 c 2.362,6.47851 7.4469,12.51798 -0.3907,19.20822"
       style="fill:#000000;fill-opacity:1;fill-rule:nonzero;stroke:none;stroke-width:3.12572598"
       id="path3537"
       inkscape:connector-curvature="0" />
    <path
       d="m 493.60706,-375.7263 c -2.269,1.53812 -5.5534,0.54848 -7.8191,-0.33311 l -0.5564,-4.71951 12.2792,-11.84838 13.2641,-2.29361 1.1319,1.53532 -18.2993,17.65964"
       style="fill:#000000;fill-opacity:1;fill-rule:nonzero;stroke:none;stroke-width:3.12572598"
       id="path3539"
       inkscape:connector-curvature="0" />
    <path
       d="m 538.39856,-343.85579 c -1.0205,0.98536 -4.8803,2.74 -5.33,0.54239 -2.3616,-6.47695 2.303,-11.85265 -1.9882,-17.12659 l 0.2323,-1.31724 5.5472,1.65226 c 1.3477,4.39348 4.2724,11.41865 1.5398,16.24918"
       style="fill:#000000;fill-opacity:1;fill-rule:nonzero;stroke:none;stroke-width:3.12572598"
       id="path3541"
       inkscape:connector-curvature="0" />
    <path
       d="m 558.50156,-318.59537 c 0.1018,3.62436 -6.245,3.17956 -7.5974,1.64301 0.3538,-5.6012 -4.7452,-5.71378 -5.7533,-10.21398 3.7544,-4.06003 3.5482,-11.96252 9.5513,-9.87312 l 3.7994,18.44409"
       style="fill:#000000;fill-opacity:1;fill-rule:nonzero;stroke:none;stroke-width:3.12572598"
       id="path3543"
       inkscape:connector-curvature="0" />
    <path
       d="m 507.71776,-355.18732 c -4.7624,0.65486 -8.7233,-1.87002 -11.0992,-3.95941 -2.3493,-10.21084 11.231,-3.83174 15.7747,-6.90336 0.7968,-1.64632 2.5062,-3.2924 4.8822,-2.52182 -0.1332,5.59964 -6.8269,9.21512 -9.5577,13.38459"
       style="fill:#000000;fill-opacity:1;fill-rule:nonzero;stroke:none;stroke-width:3.12572598"
       id="path3545"
       inkscape:connector-curvature="0" />
    <path
       d="m 476.55146,-396.48493 c -8.0455,-0.11597 -17.1068,-1.65811 -23.4452,-5.3969 -0.2224,-1.75594 -2.9308,-5.04843 1.151,-5.26469 11.1146,-2.84795 14.2642,5.27664 25.0361,3.20086 1.5801,3.07622 -2.7327,4.60694 -2.7419,7.46073"
       style="fill:#000000;fill-opacity:1;fill-rule:nonzero;stroke:none;stroke-width:3.12572598"
       id="path3547"
       inkscape:connector-curvature="0" />
    <path
       d="m 572.81856,-291.46994 c -3.7496,3.83792 -6.5675,-1.5424 -11.2185,-1.21662 -2.3836,0.98685 -5.8991,2.41239 -8.1649,1.53228 0.4682,-4.3907 3.764,-8.45071 5.5921,-12.62358 l 7.4766,0.006 6.3147,12.30181"
       style="fill:#000000;fill-opacity:1;fill-rule:nonzero;stroke:none;stroke-width:3.12572598"
       id="path3549"
       inkscape:connector-curvature="0" />
    <path
       d="m 519.33476,-336.40699 c -2.9635,6.14662 2.5837,9.33386 4.8432,11.52999 l 2.1491,0.5511 -0.2286,1.75595 c -5.7813,0.10464 -12.6067,9.32157 -15.5314,1.41787 l -2.5682,-13.72431 c -2.2562,-3.51485 -7.1257,-5.38484 -4.6151,-10.87503 l 10.5502,-3.83322 c 2.8241,2.9667 0.6464,11.85726 5.3998,13.17756"
       style="fill:#000000;fill-opacity:1;fill-rule:nonzero;stroke:none;stroke-width:3.12572598"
       id="path3551"
       inkscape:connector-curvature="0" />
    <path
       d="m 578.39847,-260.51085 c -1.82687,3.95199 1.11636,6.14935 1.89961,9.11449 -2.38361,1.20623 -8.61792,1.52887 -9.97312,-0.22847 0.027,-6.14811 -5.9814,-8.67621 -4.9425,-15.80934 -3.8367,-6.81039 5.1239,-8.66845 8.7636,-12.62018 l 3.73888,0.55286 c 3.49709,5.38214 -5.70998,14.70372 0.51317,18.99073"
       style="fill:#000000;fill-opacity:1;fill-rule:nonzero;stroke:none;stroke-width:3.12572598"
       id="path3553"
       inkscape:connector-curvature="0" />
    <path
       d="m 466.62316,-371.79088 c -0.822,8.45036 8.2408,11.53271 4.3639,18.99196 l -7.039,4.16675 c -5.4108,-9.00347 -6.4064,-18.55483 -13.8689,-24.0465 l 1.1384,-2.63605 8.9669,-4.93421 c 2.8317,1.21042 2.6967,8.12607 6.4387,8.45805"
       style="fill:#000000;fill-opacity:1;fill-rule:nonzero;stroke:none;stroke-width:3.12572598"
       id="path3555"
       inkscape:connector-curvature="0" />
    <path
       d="m 531.57046,-294.57478 c -6.4635,1.42553 -9.1016,12.50795 -16.1174,8.1129 l -4.2864,-6.80735 c 2.2842,-5.0487 8.7341,-2.5206 13.4981,-3.17399 l 7.6038,-4.71498 -0.6977,6.58342"
       style="fill:#000000;fill-opacity:1;fill-rule:nonzero;stroke:none;stroke-width:3.12572598"
       id="path3557"
       inkscape:connector-curvature="0" />
    <path
       d="m 549.41086,-269.7515 c -7.9385,0.8727 -14.4316,13.05269 -21.5577,7.66932 -1.5832,-1.97805 -1.3475,-4.61279 -0.3214,-6.69757 3.6289,-0.21626 6.8081,-3.06882 6.5896,-6.80115 4.0924,-2.85109 9.8552,2.75011 11.2324,-3.39618 l 5.3268,0.99426 c 4.1841,1.64912 -0.036,5.70793 -1.2701,8.23132"
       style="fill:#000000;fill-opacity:1;fill-rule:nonzero;stroke:none;stroke-width:3.12572598"
       id="path3559"
       inkscape:connector-curvature="0" />
    <path
       d="m 479.08686,-331.71451 c -5.7921,4.9342 -12.5907,4.71063 -19.5044,4.15778 -3.1696,-1.53961 -2.1307,-7.57488 -8.1354,-7.91139 -2.1463,-3.40385 3.4181,-6.36437 5.3456,-7.34973 5.3161,3.62594 15.2923,2.31489 21.761,0.0175 l 2.1571,-0.545 c 3.9589,2.30565 0.4258,8.12154 -1.6239,11.63333"
       style="fill:#000000;fill-opacity:1;fill-rule:nonzero;stroke:none;stroke-width:3.12572598"
       id="path3561"
       inkscape:connector-curvature="0" />
    <path
       d="m 495.90236,-305.46761 c -5.3364,2.52217 -10.0944,1.85953 -15.7655,2.7338 -1.5693,-5.48853 -6.8917,-6.26069 -10.8557,-7.91139 -1.1243,-3.51336 3.8678,-5.26774 5.1208,-6.69328 7.799,6.92306 14.292,-5.03911 23.6915,-1.84724 1.6843,4.9416 -3.1948,8.11849 -2.1911,13.71811"
       style="fill:#000000;fill-opacity:1;fill-rule:nonzero;stroke:none;stroke-width:3.12572598"
       id="path3563"
       inkscape:connector-curvature="0" />
    <path
       d="m 552.82576,-236.26631 c -4.6431,-0.3331 -0.2098,-5.0514 -1.6747,-8.45491 4.4321,-4.05845 8.7277,-0.32437 13.1459,0.44909 -1.9384,4.27776 -8.5077,3.39461 -11.4712,8.00582"
       style="fill:#000000;fill-opacity:1;fill-rule:nonzero;stroke:none;stroke-width:3.12572598"
       id="path3565"
       inkscape:connector-curvature="0" />
    <path
       d="m 512.68476,-269.55775 c -3.5155,1.42677 -8.627,6.14045 -11.4493,2.07737 -1.4656,-3.40533 -0.3196,-8.01349 3.7652,-8.88934 6.9025,2.75047 4.5469,-4.82589 9.3033,-4.8232 1.9136,4.28396 1.2282,8.01664 -1.6192,11.63517"
       style="fill:#000000;fill-opacity:1;fill-rule:nonzero;stroke:none;stroke-width:3.12572598"
       id="path3567"
       inkscape:connector-curvature="0" />
    <path
       d="m 481.64896,-274.84947 c -11.8126,8.33631 -20.0598,-1.44054 -27.1855,-5.72755 -2.2566,-4.39191 3.6457,-6.58185 6.0309,-8.44889 l 19.0378,0.45344 8.6254,-2.62706 c 4.401,6.03989 -4.0043,11.52076 -6.5086,16.35006"
       style="fill:#000000;fill-opacity:1;fill-rule:nonzero;stroke:none;stroke-width:3.12572598"
       id="path3569"
       inkscape:connector-curvature="0" />
    <path
       d="m 523.38066,-243.75381 c -6.4683,2.95904 -12.2715,10.96947 -20.6473,6.35364 -4.0631,-5.49168 4.4369,-5.81466 5.4682,-9.43756 -0.6681,-4.61122 4.6586,-3.83905 7.1552,-5.3729 l 8.6102,1.10412 c 1.9216,1.86843 1.9152,5.37901 -0.5861,7.3527"
       style="fill:#000000;fill-opacity:1;fill-rule:nonzero;stroke:none;stroke-width:3.12572598"
       id="path3571"
       inkscape:connector-curvature="0" />
    <path
       d="m 486.46726,-255.85437 c -0.3628,7.57488 -9.8879,9.54394 -15.2258,13.60091 -6.5677,-2.85972 -10.7408,-8.89805 -18.5585,-10.98893 l 0.3538,-2.96357 c 9.0752,-3.94745 16.5655,-8.33352 26.086,-8.32585 2.1461,3.84377 4.4058,6.25886 7.3445,8.67744"
       style="fill:#000000;fill-opacity:1;fill-rule:nonzero;stroke:none;stroke-width:3.12572598"
       id="path3573"
       inkscape:connector-curvature="0" />
  </g>
</svg>
