<?xml version="1.0" encoding="UTF-8" standalone="no"?>
<svg
   xmlns:dc="http://purl.org/dc/elements/1.1/"
   xmlns:cc="http://creativecommons.org/ns#"
   xmlns:rdf="http://www.w3.org/1999/02/22-rdf-syntax-ns#"
   xmlns:svg="http://www.w3.org/2000/svg"
   xmlns="http://www.w3.org/2000/svg"
   xmlns:sodipodi="http://sodipodi.sourceforge.net/DTD/sodipodi-0.dtd"
   xmlns:inkscape="http://www.inkscape.org/namespaces/inkscape"
   height="245.7016"
   width="245.70917"
   viewBox="82.992 45.607 719.7476 792.4822"
   id="svg2"
   version="1.1"
   inkscape:version="0.48.4 r9939"
   sodipodi:docname="D-310-2.svg">
  <metadata
     id="metadata2508">
    <rdf:RDF>
      <cc:Work
         rdf:about="">
        <dc:format>image/svg+xml</dc:format>
        <dc:type
           rdf:resource="http://purl.org/dc/dcmitype/StillImage" />
        <dc:title></dc:title>
      </cc:Work>
    </rdf:RDF>
  </metadata>
  <sodipodi:namedview
     pagecolor="#ffffff"
     bordercolor="#666666"
     borderopacity="1"
     objecttolerance="10"
     gridtolerance="10"
     guidetolerance="10"
     inkscape:pageopacity="0"
     inkscape:pageshadow="2"
     inkscape:window-width="1280"
     inkscape:window-height="1004"
     id="namedview2506"
     showgrid="false"
     inkscape:zoom="1.8049318"
     inkscape:cx="130.83616"
     inkscape:cy="105.1414"
     inkscape:window-x="-8"
     inkscape:window-y="-8"
     inkscape:window-maximized="1"
     inkscape:current-layer="svg2"
     showguides="true"
     inkscape:guide-bbox="true"
     fit-margin-top="0.2"
     fit-margin-left="0.2"
     fit-margin-right="0.2"
     fit-margin-bottom="0.2" />
  <defs
     id="defs4">
    <linearGradient
       id="linearGradient6324">
      <stop
         style="stop-color:#ec8028;stop-opacity:1;"
         offset="0"
         id="stop6326" />
      <stop
         style="stop-color:#ec8028;stop-opacity:0;"
         offset="1"
         id="stop6328" />
    </linearGradient>
    <clipPath
       id="SVG_CP_1">
      <path
         inkscape:connector-curvature="0"
         d="M 598.41107,0 0,0 l 0,392.15871 598.41107,0 0,-392.15871 z"
         id="path21406" />
    </clipPath>
    <clipPath
       id="clipPath6506">
      <path
         inkscape:connector-curvature="0"
         d="M 598.41107,0 0,0 l 0,392.15871 598.41107,0 0,-392.15871 z"
         id="path6508" />
    </clipPath>
    <clipPath
       id="clipPath6510">
      <path
         inkscape:connector-curvature="0"
         d="M 598.41107,0 0,0 l 0,392.15871 598.41107,0 0,-392.15871 z"
         id="path6512" />
    </clipPath>
    <clipPath
       id="clipPath6514">
      <path
         inkscape:connector-curvature="0"
         d="M 598.41107,0 0,0 l 0,392.15871 598.41107,0 0,-392.15871 z"
         id="path6516" />
    </clipPath>
    <clipPath
       id="clipPath6518">
      <path
         inkscape:connector-curvature="0"
         d="M 598.41107,0 0,0 l 0,392.15871 598.41107,0 0,-392.15871 z"
         id="path6520-6" />
    </clipPath>
    <clipPath
       id="clipPath6522">
      <path
         inkscape:connector-curvature="0"
         d="M 598.41107,0 0,0 l 0,392.15871 598.41107,0 0,-392.15871 z"
         id="path6524-5" />
    </clipPath>
    <clipPath
       id="clipPath6526">
      <path
         inkscape:connector-curvature="0"
         d="M 598.41107,0 0,0 l 0,392.15871 598.41107,0 0,-392.15871 z"
         id="path6528-2" />
    </clipPath>
    <clipPath
       id="SVG_CP_1-9">
      <path
         inkscape:connector-curvature="0"
         d="M 598.41107,0 0,0 l 0,392.15871 598.41107,0 0,-392.15871 z"
         id="path21406-3" />
    </clipPath>
    <clipPath
       id="SVG_CP_1-0">
      <path
         inkscape:connector-curvature="0"
         d="M 598.41107,0 0,0 l 0,392.15871 598.41107,0 0,-392.15871 z"
         id="path21406-1" />
    </clipPath>
    <clipPath
       id="clipPath6597">
      <path
         inkscape:connector-curvature="0"
         d="M 598.41107,0 0,0 l 0,392.15871 598.41107,0 0,-392.15871 z"
         id="path6599" />
    </clipPath>
    <clipPath
       id="clipPath6601">
      <path
         inkscape:connector-curvature="0"
         d="M 598.41107,0 0,0 l 0,392.15871 598.41107,0 0,-392.15871 z"
         id="path6603" />
    </clipPath>
  </defs>
  <style
     id="style_css_sheet"
     type="text/css"> 
/*
 * Below are Cascading Style Sheet (CSS) definitions in use in this file,
 * which allow easily changing how countries are displayed.
 *
 */

/*
 * Circles around small countries
 *
 * Change opacity to 1 to display all circles.
 *
 */
.circlexx
{
   opacity:1;
   fill:#e0e0e0;
   stroke:#000000;
   stroke-width:0.5;
}

/*
 * Smaller circles around French DOMs and Chinese SARs
 *
 * Change opacity to 1 to display all subnational circles.
 *
 */
.subxx
{
   opacity:1;
   stroke-width:0.3;
}

/*
 * Circles around small, unrecognized countries
 *
 * Change opacity to 1 to display all circles.
 *
 */
.unxx
{
   opacity:0;
   fill:#e0e0e0;
   stroke:#000000;
   stroke-width:0.3;
}

/*
 * Circles around small countries, but with no permanent residents 
 *
 * Change opacity to 1 to display all circles.
 *
 */
.noxx
{
   opacity:0;
   fill:#e0e0e0;
   stroke:#000000;
   stroke-width:0.5;
}

/*
 * land
 */
.landxx
{
   fill: #e0e0e0;
   stroke:#ffffff;
   stroke-width:0.5;
   fill-rule:evenodd;
}

/*
 * Styles for coastlines of islands with no borders
 */
.coastxx
{
   fill: #e0e0e0;
   stroke:#ffffff;
   stroke-width:0.3;
   fill-rule:evenodd;
}

/*
 * Styles for nations with limited recognition
 */
.limitxx
{
   fill: #e0e0e0;
   stroke:#ffffff;
   stroke-width:0;
   fill-rule:evenodd;
}

/*
 * Styles for nations with no permanent population.
 */
.antxx
{
   fill: #e0e0e0;
   stroke:#ffffff;
   stroke-width:0;
   fill-rule:evenodd;
}

/*
 * Ocean
 */
.oceanxx
{
   opacity: 1;
   color: #000000;
   fill:#ffffff;
   stroke:#000;
   stroke-width:0.5;
   stroke-miterlimit:1;
}

/*
 * Additional style rules
 *
 * The following are examples of colouring countries.  You can substitute these with your own styles to colour the countries on the map.
 *
 * Color a few countries:
 *
 * .gb, .au, .nc
 * {
 *    fill:       #ff0000;
 * }
 *
 * Color a few small country circles (and the countries):
 *
 * .ms, .ky
 * {
 *    opacity:    1;
 *    fill:       #ff0000;
 * }
 *
 */

/* Same-sex marriage */
.ar, .be, .ca, .dk, .es, .is, .nl, .no, .pt, .se, .za
{ fill: #002255; }

/* Civil unions etc. */
.ad, .at, .au, .bl, .br, .ch, .co, .cz, .de, .ec, .fi, .fr, .gb, .gf, .gl, .hr, .hu, .ie, .il, .im, .je, .li, .lu, .mf, .nc, .nf, .nz, .pm, .re, .si, .uy, .wf
{ fill: #0066ff; }

/* Recognition of foreign marriages */
.aw, .cw, .sx, .mx
{ fill: #7fbcff; }

/* Legal but no recognition */
.ai, .al, .am, .as, .az, .ba, .bg, .bf, .by, .bj, .bm, .bo, .bs, .cd, .cg, .cf, .ci, .cl, .cn, .cr, .cu, .cv, .cy, .dj, .do, .ee, .fk, .fj, .fm, .fo, .ga, .ge, .gg, .gi, .gq, .gr, .gs, .gt, .gu, .gw, .hn, .ht, .id, .in, .iq, .it, .jo, .jp, .kg, .kh, .kp, .kr, .ky, .kz, .la, .lk, .lt, .lv, .mc, .md, .me, .mg, .mh, .mk, .ml, .mn, .mp, .mt, .ms, .mz, .ne, .ni, .np, .pa, .pe, .pf, .ph, .pl, .pn, .pr, .py, .ro, .rs, .ru, .rw, .sh, .sk, .sm, .sr, .st, .sv, .tc, .td, .th, .tj, .tk, .tl, .tr, .tw, .ua, .us, .va, .ve, .vg, .vi, .vn, .vu, .xk, .ps_west_bank
{ fill: #cccccc; }

/* Illegal, minimal penalty */
.bt, .lb, .lr
{ fill: #f9dc36; }

/* Illegal, large penalty */
.ag, .ao, .bh, .bi, .bn, .bw, .bz, .cm, .ck, .dm, .dz, .eg, .eh, .er, .et, .gd, .gh, .gm, .gn, .jm, .ke, .ki, .km, .kn, .kw, .lc, .ls, .ly, .ma, .mu, .mv, .mw, .my, .na, .ng, .nr, .nu, .om, .pg, .pw, .qa, .sb, .sc, .sg, .sn, .so, .ss, .sy, .sz, .tg, .tm, .tn, .to, .tt, .tv, .uz, .vc, .ws, .zm, .zw, .xc, .ps_gaza_strip
{ fill: #ec8028; }

/* Illegal, life imprisonment */
.bb, .bd, .gy, .mm, .pk, .sl, .tz, .ug
{ fill: #e73e21; }

/* Illegal, death penalty */
.ae, .af, .ir, .mr, .sa, .sd, .ye
{ fill: #8c201f; }

/* SUB-NATIONAL UNITS */

/* Same-sex marriage */
.br_al, .mx_dif, .us_ct, .us_dc, .us_ia, .us_ma, .us_md, .us_nh, .us_ny, .us_vt, .us_wa
{ fill: #002255; }

/* Civil unions etc. */
.mx_coa, .uk_je, .us_ca, .us_co, .us_de, .us_hi, .us_il, .us_me, .us_nj, .us_nv, .us_or, .us_ri, .us_wi, .ve_l
{ fill: #0066ff; }

/* Recognition of foreign marriages */
.bq
{ fill: #7fbcff; }

/* Illegal, large penalty */
.id_ac
{ fill: #ec8028; }

/* Illegal, death penalty */
.ng_sharia, .so_shabaab
{ fill: #8c201f; }

</style>
  <path
     inkscape:connector-curvature="0"
     style="fill:#ffd520;fill-rule:evenodd;stroke:none;fill-opacity:1"
     d="M 420.89173,828.33041 56.370304,463.80952 c -12.15031,-12.11938 -12.15031,-31.79949 0,-43.9499 L 420.89173,55.338229 c 12.11493,-12.11487 31.83535,-12.11487 43.9507,0 L 829.36332,419.85962 c 12.14761,12.15041 12.14761,31.83052 0,43.9499 L 464.84243,828.33041 c -12.15164,12.15164 -31.80433,12.15164 -43.9507,0 z"
     id="path11" />
  <path
     inkscape:connector-curvature="0"
     style="fill:#000000;fill-rule:evenodd;stroke:none"
     d="m 425.47461,823.80604 c 9.62213,9.62374 25.15681,9.62374 34.77932,0 L 824.81514,459.24483 c 9.59552,-9.59352 9.62375,-25.17978 0,-34.80636 L 460.28216,59.905449 c -9.59833,-9.59508 -25.23661,-9.59508 -34.83497,0 L 60.917804,424.43847 c -9.62652,9.62658 -9.59503,25.21284 0,34.80636 L 425.47461,823.80604 z"
     id="path13" />
  <path
     inkscape:connector-curvature="0"
     style="fill:#ffd520;fill-rule:evenodd;stroke:none;fill-opacity:1"
     d="M 433.51824,815.732 68.989174,451.17927 c -5.12236,-5.1203 -5.14598,-13.49985 0,-18.65363 L 433.54204,67.968909 c 5.14207,-5.12235 13.52846,-5.12235 18.64595,0 L 816.74072,432.52564 c 5.14449,5.15378 5.14449,13.53333 0,18.65363 L 452.18799,815.732 c -5.14126,5.15658 -13.50388,5.15658 -18.64595,0 l -0.0226,0 z"
     id="path15" />
  <path
     inkscape:connector-curvature="0"
     style="fill:#000000;fill-rule:evenodd;stroke:none"
     d="m 448.95844,457.45667 -243.85521,0 0,14.13122 542.27991,0 0,-65.44186 c -10.98647,-1.9961 -21.86005,-4.77599 -32.47156,-8.43761 -13.88932,-4.77557 -27.30692,-11.00824 -39.95042,-18.56773 -9.99467,-6.44148 -20.02964,-12.84348 -29.98802,-19.2491 -8.13603,-5.35494 -16.23981,-10.674 -24.36778,-15.96162 -5.55573,-3.21692 -11.45415,-5.89399 -17.48562,-7.96106 -5.04773,-1.73244 -10.20431,-3.32336 -15.55845,-3.8624 -5.18077,-0.51203 -10.43815,-0.44511 -15.62296,0.2677 -4.57198,0.64548 -9.14396,1.72841 -13.48211,3.32297 -10.33735,3.75999 -20.73922,9.96119 -23.99686,21.04442 -3.3544,11.48882 0.54429,23.85577 9.86565,31.37978 3.31811,-7.45709 9.69228,-13.25272 17.44933,-15.89066 7.01521,-2.37792 14.64325,-2.03564 21.35205,0.90956 7.14422,3.22054 12.74027,9.11452 15.58667,16.43775 2.88269,7.42203 2.71335,15.72537 -0.508,23.00951 -3.08831,7.49257 -7.9667,14.09896 -14.1675,19.2491 -5.75731,4.81104 -12.23631,9.24837 -19.82402,10.23292 -3.82612,0.50761 -7.72883,-0.0323 -11.28079,-1.65785 -3.49551,-1.59453 -6.54753,-4.10227 -8.67628,-7.28776 -7.35388,9.42177 -18.63869,14.97911 -30.57262,15.04362 -11.85732,0.0361 -23.10585,-5.38924 -30.46376,-14.63399 -3.01573,6.87813 -7.86187,12.80761 -14.05864,17.00868 -6.0355,4.10027 -12.87735,6.91441 -20.20301,6.91441 z"
     id="path17" />
  <path
     inkscape:connector-curvature="0"
     style="fill:#000000;fill-rule:evenodd;stroke:none"
     d="m 415.22214,376.69143 5.05134,20.40701 c 0.22836,0.83053 0.80312,1.54737 1.51958,1.98038 0.80351,0.40156 1.77961,0.51161 2.63794,0.2561 l 16.01285,-3.98858 c 0.74425,-0.25609 1.40546,-0.74426 1.78363,-1.40546 0.42534,-0.72049 0.59831,-1.66552 0.4842,-2.49645 l -5.10659,-20.11914 19.82805,-4.98847 c 0.97165,-0.3149 1.80219,-0.94907 2.26583,-1.95298 0.40318,-0.71643 0.51203,-1.54737 0.45962,-2.40936 l -4.07608,-15.67053 c -0.3427,-0.80312 -1.03615,-1.49214 -1.83444,-1.92112 -1.0039,-0.51606 -2.10053,-0.60637 -3.12862,-0.26006 l -9.38022,-35.72639 -7.72077,-4.04342 -25.05679,-43.01454 c -13.14225,0.0553 -26.19457,0.94504 -39.19529,2.72464 -11.70532,1.51997 -23.2139,3.75596 -34.69103,6.65397 l -15.63868,3.96077 c -11.77225,2.81536 -23.39089,6.40199 -34.75392,10.56354 -12.28025,4.55949 -24.27707,9.95354 -35.87193,16.0088 l -1.98079,49.81809 -4.93322,7.11439 8.52429,35.95902 c -1.03172,0.16934 -2.00821,0.77571 -2.642,1.72033 -0.51566,0.74829 -0.7757,1.63811 -0.71644,2.55128 l 3.78741,15.67053 c 0.28748,0.83457 0.85836,1.55102 1.54738,2.01183 0.80312,0.59831 1.87032,0.80312 2.90164,0.62976 l 19.82805,-4.93726 4.99249,20.1744 c 0.2282,0.85834 0.80312,1.57882 1.51956,1.98038 0.65758,0.39792 1.49255,0.5709 2.29567,0.46081 l 15.95356,-4.02002 c 0.92125,-0.14159 1.72437,-0.71645 2.21261,-1.49216 0.4568,-0.74787 0.63016,-1.57882 0.4568,-2.4412 l -5.10659,-20.45781 117.7709,-29.301 z"
     id="path19" />
  <path
     inkscape:connector-curvature="0"
     style="fill:#000000;fill-rule:evenodd;stroke:none"
     d="M 411.22547,642.36395 307.98333,606.43317 c -0.97246,-0.37092 -1.72437,-1.31435 -1.86992,-2.38679 -0.14595,-0.99987 0.24394,-1.99167 0.99584,-2.67304 l 25.3362,-15.63908 c 3.06331,-1.50787 5.51985,-3.95916 7.0003,-6.99505 1.60664,-3.31006 1.92555,-7.07972 0.92528,-10.63168 l -8.99237,-36.17672 -22.0568,5.49525 5.30374,21.20287 c 0.61001,2.0199 0.53139,4.24945 -0.36608,6.2008 -0.77973,1.87073 -2.31139,3.42294 -4.15792,4.30186 l -38.19501,15.55845 c -3.20885,1.41514 -6.08307,3.50357 -8.34326,6.15645 -2.09045,2.35857 -3.59469,5.17675 -4.51997,8.19248 -0.72814,3.76967 -0.44067,7.6361 0.87407,11.18402 1.55545,4.27767 4.47281,7.97477 8.29207,10.45428 l 64.13758,41.30912 78.87839,-19.62244 z"
     id="path21" />
  <path
     inkscape:connector-curvature="0"
     style="fill:#000000;fill-rule:evenodd;stroke:none"
     d="m 553.46091,606.66297 -103.2365,-35.959 c -0.99584,-0.36689 -1.72558,-1.29419 -1.89411,-2.35857 -0.12224,-0.99987 0.24094,-2.01989 0.991,-2.67707 l 25.35959,-15.65924 c 3.04395,-1.48368 5.49928,-3.96319 6.98295,-7.00312 1.6006,-3.31005 1.91911,-7.07165 0.91924,-10.62361 l -8.99076,-36.16059 -22.05357,5.49525 5.30173,21.17868 c 0.63298,2.04409 0.52815,4.25751 -0.3427,6.2008 -0.78216,1.87072 -2.3384,3.431 -4.18494,4.33008 l -38.19339,15.56248 c -3.20884,1.38692 -6.05524,3.47132 -8.34285,6.12823 -2.06305,2.37872 -3.59469,5.20094 -4.52402,8.21667 -0.70071,3.74145 -0.40962,7.60788 0.88215,11.1558 1.55505,4.30992 4.47241,7.9788 8.28762,10.48653 l 64.14162,41.30912 78.89694,-19.62244 z"
     id="path23" />
  <path
     inkscape:connector-curvature="0"
     style="fill:#ffd520;fill-rule:evenodd;stroke:none;fill-opacity:1"
     d="m 267.25277,344.78429 -4.8784,-41.4079 c -0.0553,-0.7757 0.22862,-1.49214 0.68902,-2.12633 0.40156,-0.48825 0.97649,-0.83054 1.61028,-1.0039 l 129.44478,-32.30909 c 0.63379,-0.14553 1.31876,-0.0903 1.92514,0.16934 0.68904,0.31892 1.23251,0.83497 1.57479,1.55141 l 15.12302,38.85258 -145.48863,36.27389 z"
     id="path25" />
</svg>
