<?xml version="1.0" encoding="UTF-8" standalone="no"?>
<!-- Created with Inkscape (http://www.inkscape.org/) -->

<svg
   xmlns:dc="http://purl.org/dc/elements/1.1/"
   xmlns:cc="http://creativecommons.org/ns#"
   xmlns:rdf="http://www.w3.org/1999/02/22-rdf-syntax-ns#"
   xmlns:svg="http://www.w3.org/2000/svg"
   xmlns="http://www.w3.org/2000/svg"
   xmlns:sodipodi="http://sodipodi.sourceforge.net/DTD/sodipodi-0.dtd"
   xmlns:inkscape="http://www.inkscape.org/namespaces/inkscape"
   width="90.400002cm"
   height="90.400002cm"
   viewBox="0 0 904.00002 903.99999"
   version="1.1"
   id="svg50"
   inkscape:version="0.92.2 (5c3e80d, 2017-08-06)"
   sodipodi:docname="9999999.svg">
  <defs
     id="defs44">
    <pattern
       y="0"
       x="0"
       height="6"
       width="6"
       patternUnits="userSpaceOnUse"
       id="EMFhbasepattern" />
  </defs>
  <sodipodi:namedview
     id="base"
     pagecolor="#ffffff"
     bordercolor="#666666"
     borderopacity="1.0"
     inkscape:pageopacity="0.0"
     inkscape:pageshadow="2"
     inkscape:zoom="0.175"
     inkscape:cx="2203.4351"
     inkscape:cy="1171.4935"
     inkscape:document-units="cm"
     inkscape:current-layer="layer1"
     showgrid="false"
     units="cm"
     inkscape:snap-global="false"
     inkscape:window-width="1920"
     inkscape:window-height="1057"
     inkscape:window-x="-8"
     inkscape:window-y="-8"
     inkscape:window-maximized="1" />
  <metadata
     id="metadata47">
    <rdf:RDF>
      <cc:Work
         rdf:about="">
        <dc:format>image/svg+xml</dc:format>
        <dc:type
           rdf:resource="http://purl.org/dc/dcmitype/StillImage" />
        <dc:title></dc:title>
      </cc:Work>
    </rdf:RDF>
  </metadata>
  <g
     inkscape:label="Layer 1"
     inkscape:groupmode="layer"
     id="layer1"
     transform="translate(0,607.00001)">
    <circle
       style="opacity:1;fill:#af1e2d;fill-opacity:1;fill-rule:nonzero;stroke:none;stroke-width:120;stroke-miterlimit:4;stroke-dasharray:none;stroke-opacity:1"
       id="path1372"
       cx="452.00003"
       cy="-155.00002"
       r="450.00003" />
    <circle
       r="390"
       cy="-155.00002"
       cx="452.00003"
       id="circle1374"
       style="opacity:1;fill:#ffffff;fill-opacity:1;fill-rule:nonzero;stroke:none;stroke-width:119.99999237;stroke-miterlimit:4;stroke-dasharray:none;stroke-opacity:1" />
    <rect
       style="opacity:1;fill:#000000;fill-opacity:1;fill-rule:nonzero;stroke:none;stroke-width:36;stroke-miterlimit:4;stroke-dasharray:none;stroke-opacity:1"
       id="rect834"
       width="660"
       height="120"
       x="121.99997"
       y="-215.00008" />
    <path
       style="opacity:1;fill:#000000;fill-opacity:1;stroke:none;stroke-width:9.31528854;stroke-linejoin:miter;stroke-miterlimit:4;stroke-dasharray:none;stroke-opacity:1"
       d="m 279.9206,-457.00009 v 6.6e-4 c -12.3271,-3.3e-4 -22.3205,9.99273 -22.3206,22.31984 0,9.82927 6.4347,18.49988 15.8406,21.35333 v 85.92734 c 0,7.97777 6.4223,14.39993 14.3999,14.39993 v 6.9e-4 c 7.5246,0.0195 14.3999,-6.62461 14.3999,-12.95987 v -0.14427 c 4.4245,-33.2478 19.9355,-58.43916 40.3198,-75.16813 v 73.87168 c 0,7.97777 6.4224,14.40059 14.4,14.40059 7.9776,0 14.3998,-6.42282 14.3998,-14.40059 v -71.42345 c -0.043,-12.89407 -4.6969,-17.50748 -6.9928,-19.5836 a 20.880031,20.880031 0 0 0 9.8726,-17.71275 20.880031,20.880031 0 0 0 -20.8799,-20.88074 20.880031,20.880031 0 0 0 -20.8798,20.88074 20.880031,20.880031 0 0 0 5.8869,14.50044 c -19.5721,11.68645 -30.0685,28.882 -36.1266,44.68435 v -57.74569 c -2e-4,-12.32686 -9.9929,-22.3204 -22.3198,-22.3205 z m 73.4393,16.12922 a 4.7520093,4.7520093 0 0 1 4.7521,4.75218 4.7520093,4.7520093 0 0 1 -4.7521,4.75212 4.7520093,4.7520093 0 0 1 -4.752,-4.75212 4.7520093,4.7520093 0 0 1 4.752,-4.75218 z"
       id="path37282"
       inkscape:connector-curvature="0" />
    <path
       style="opacity:1;fill:#000000;fill-opacity:1;stroke:none;stroke-width:3.43243861;stroke-linejoin:miter;stroke-miterlimit:4;stroke-dasharray:none;stroke-opacity:1"
       d="m 490.8807,-456.9986 c 7.9775,0 14.3997,6.42214 14.3997,14.39974 v 99.36015 c 0,6.09252 -2.0945,16.80853 -10.4545,23.04024 -9.371,6.97062 -25.5278,7.20014 -34.1858,7.20014 h -8.6393 c -8.6582,0 -24.8148,-0.22952 -34.186,-7.20014 -8.3598,-6.23171 -10.4546,-16.94772 -10.4546,-23.04024 v -29.08684 c 9e-4,-2.59079 1.1097,-9.19445 4.2624,-12.73009 0,0 2.5802,-3.61095 10.1375,-6.20609 -7.5573,-2.59531 -10.1375,-6.20716 -10.1375,-6.20716 -3.1527,-3.53564 -4.2617,-10.13841 -4.2624,-12.72921 v -24.48064 c 10e-5,-12.32687 9.993,-22.31976 22.3198,-22.31986 12.3271,-2e-4 22.3204,9.99247 22.3208,22.31986 0,9.82872 -6.4346,18.49949 -15.8401,21.35316 v 4.56676 c 0.1788,4.10313 3.4463,9.18435 7.1996,11.95309 3.691,2.56164 9.3483,3.83698 12.7525,3.88729 0.914,10e-4 1.6545,0.74265 1.6541,1.65671 2e-4,0.91416 -0.74,1.65448 -1.6542,1.65578 -3.4041,0.0496 -9.0614,1.32641 -12.7524,3.88806 -3.7533,2.76861 -7.0208,7.84917 -7.1996,11.95218 l -5e-4,30.527 c 0,7.08916 9.1261,11.55326 20.1601,11.52001 11.034,0.0344 20.1603,-4.43085 20.1603,-11.52001 v -99.36015 c 1e-4,-7.9776 6.4223,-14.39974 14.4001,-14.39974 z"
       id="circle43733"
       inkscape:connector-curvature="0"
       sodipodi:nodetypes="ssscsscsccccccccccccccccccsss" />
    <path
       style="opacity:1;fill:#000000;fill-opacity:1;stroke:none;stroke-width:11.01884937;stroke-linejoin:miter;stroke-miterlimit:4;stroke-dasharray:none;stroke-opacity:1"
       d="m 598.0166,-456.99874 c 0,0 15.0148,0.0225 25.344,2.9951 12.0794,3.83898 23.0403,12.06821 23.0403,37.32458 v 89.28 c 0,7.97776 -6.4231,14.40058 -14.4006,14.40058 -7.9778,0 -14.4001,-6.42282 -14.4001,-14.40058 l 7e-4,-92.15983 c -0.1885,-13.0381 -8.5174,-15.2425 -15.5524,-15.40813 h -16.416 c -7.0349,0.16563 -15.3632,2.37045 -15.5517,15.40813 l -7e-4,61.0563 c 1.9125,-1.96299 5.0231,-4.80125 8.7124,-11.80815 0,0 1.5397,-2.96144 2.9489,-7.17056 a 16.99204,16.99204 0 0 1 -5.9008,-12.84552 16.99204,16.99204 0 0 1 16.9925,-16.99153 16.99204,16.99204 0 0 1 16.9917,16.99153 16.99204,16.99204 0 0 1 -0.052,1.28159 c -0.1473,3.89579 -0.2096,4.44656 -1.6757,9.61941 -1.5519,5.16816 -4.6084,11.27534 -4.6084,11.27534 -12.1802,25.26281 -32.1983,46.74245 -32.1983,46.74245 -3.1671,3.79202 -6.0665,5.84079 -8.1216,6.96976 -2.0645,0.95885 -3.8017,1.45418 -7.4883,1.43979 -7.9776,-0.0249 -14.3999,-6.42282 -14.3999,-14.40058 v -89.28 c 0,-25.25637 10.9609,-33.4856 23.0399,-37.32458 10.3294,-2.97227 25.3441,-2.9951 25.3441,-2.9951 z"
       id="rect16326"
       inkscape:connector-curvature="0" />
    <path
       style="opacity:1;fill:#000000;fill-opacity:1;stroke:none;stroke-width:12.01192188;stroke-linejoin:miter;stroke-miterlimit:4;stroke-dasharray:none;stroke-opacity:1"
       d="m 450.5624,39.544643 v 53.85543 c 2e-4,11.929407 -9.6705,21.600057 -21.5999,21.599917 -11.9293,1.4e-4 -21.6,-9.67051 -21.5999,-21.599917 0.014,-9.14347 5.7798,-17.28889 14.4004,-20.33633 v -29.63114 c 0.014,-5.78011 -3.014,-11.79276 -17.7121,-15.89743 -15.9828,-3.54395 -33.1356,-2.16128 -39.686,-1.09396 -0.255,-3.75951 -0.2016,-8.64034 -0.2016,-8.64034 0.05,-11.6519193 2.5762,-25.6083993 9.0143,-34.12764 8.137,-10.54745 21.2375,-12.60404 28.8861,-12.67186 12.9559,0.023 24.724,5.07205 31.3629,5.90393 5.9039,0.84585 10.0757,-0.19166 12.4108,-5.58714 1.818,2.67175 4.6576,5.87284 4.725,13.21906 -0.6148,7.2235407 -5.7599,11.3182807 -5.7599,11.3182807 -5.8335,4.99315004 -11.7791,4.43516004 -11.7791,4.43516004 -5.8326,0.33206 -18.9279,-7.98242004 -32.3709,-7.40153004 -11.0086,0.91353 -12.3496,9.45494 -12.7294,13.58741 10.1763,0.10944 20.2541,0.22651 33.2924,3.5484093 16.9517,4.53696 29.2078,13.83955 29.3469,29.51969 z"
       id="path21523"
       inkscape:connector-curvature="0"
       sodipodi:nodetypes="cccccccccccccccccccc" />
    <path
       style="opacity:1;fill:#000000;fill-opacity:1;stroke:none;stroke-width:6.61403799;stroke-linejoin:miter;stroke-miterlimit:4;stroke-dasharray:none;stroke-opacity:1"
       d="M 548.4768,2.3930337 V 92.680513 c -2e-4,12.326697 -9.9928,22.319327 -22.3195,22.319477 -12.327,2.8e-4 -22.3202,-9.99249 -22.3204,-22.319477 0,-9.82905 6.4348,-18.49963 15.8404,-21.35296 V 2.3930337 c -0.039,-1.09064 -1.3789,-7.77015 -9.2737,-11.31756 -5.3082,-2.5097497 -11.2414,-2.7775797 -13.0751,-2.8223697 -6.077,-0.1571 -8.4349,0.47477 -12.0959,1.9007797 -5.9501,2.51753 -10.0119,6.24723 -11.4623,7.79032 -2.4147,2.76016004 -2.8642,3.83036 -3.3407,5.31354 -0.867,-0.20159 -5.4836,-3.36566998 -5.472,-8.7839 0,0 0.108,-3.30016 2.6784,-7.7183207 0.4281,-0.69623 2.4166,-3.70335 5.9903,-6.45113 2.9445,-2.29894 7.822,-5.17646 15.9839,-7.31512 3.7687,-0.87422 8.6775,-1.97955 16.675,-1.98718 5.9571,0.049 19.5099,0.68903 30.9597,9.0143 11.1666,8.243341 11.1829,19.47882072 11.2319,22.3766407 z"
       id="path47870"
       inkscape:connector-curvature="0"
       sodipodi:nodetypes="cccccccccccccccccc" />
    <path
       style="opacity:1;fill:#000000;fill-opacity:1;stroke:none;stroke-width:11.0187149;stroke-linejoin:miter;stroke-miterlimit:4;stroke-dasharray:none;stroke-opacity:1"
       d="m 328.1595,114.99968 c 7.9775,0 14.3997,-6.42218 14.3997,-14.3997 V 11.320353 c 0,-10.1838593 -0.8709,-28.42127 -18.3168,-36.2869 -6.4465,-2.95701 -15.379,-4.03239 -15.379,-4.03239 l -18.8638,11.23189 -18.8638,-11.23189 c 0,0 -8.9325,1.07538 -15.3789,4.03239 -17.446,7.86563 -18.3169,26.1030407 -18.3169,36.2869 v 89.278907 c 0,7.97752 6.4222,14.3745 14.3997,14.40042 3.6865,0.0144 5.4237,-0.48124 7.4882,-1.43998 2.0552,-1.12895 4.9546,-3.17776 8.1215,-6.96953 0,0 20.018,-21.479387 32.198,-46.741897 0,0 3.0565,-6.10698 4.6083,-11.27508 1.4661,-5.17272 1.5284,-5.72365 1.6758,-9.61939 0.033,-0.42638 0.05,-0.85377 0.052,-1.28144 -2e-4,-9.38409 -7.6075,-16.99139 -16.9916,-16.99153 -9.3844,-2.9e-4 -16.9921,7.60715 -16.9922,16.99153 0.014,4.93555 2.1618,9.6237 5.901,12.84524 -1.4091,4.20907 -2.9491,7.1704 -2.9491,7.1704 -3.6893,7.00682 -6.7996,9.84489 -8.7122,11.80788 l 8e-4,-66.8148593 c 0,0 -0.1708,-7.97608 5.0399,-8.6402 l 18.7194,9.21619 18.7202,-9.21619 c 5.2107,0.66412 5.0392,8.6402 5.0392,8.6402 l 9e-4,97.9189563 c 0,7.97752 6.4222,14.3997 14.3997,14.3997 z"
       id="path24458"
       inkscape:connector-curvature="0"
       sodipodi:nodetypes="ssscccccsscccccccccccccccccsss" />
    <path
       style="opacity:1;fill:#000000;fill-opacity:1;stroke:none;stroke-width:7.55069637;stroke-linejoin:miter;stroke-miterlimit:4;stroke-dasharray:none;stroke-opacity:1"
       d="m 613.8525,-28.998627 c 21.6742,-0.12816 52.636,8.67202 52.7031,31.3921007 V 100.60028 c 0,7.97752 -6.4222,14.39971 -14.3997,14.39971 -7.9775,0 -14.3997,-6.42219 -14.3997,-14.39971 V 84.038873 c -0.1094,-1.61667 -1.3192,-13.41605 -11.9946,-25.35323 a 19.439794,19.439794 0 0 1 -14.2138,6.20158 19.439794,19.439794 0 0 1 -19.4397,-19.43979 19.439794,19.439794 0 0 1 19.4397,-19.43965 19.439794,19.439794 0 0 1 6.5908,1.1697 c 4.165,1.09136 12.8796,5.44155 19.6176,14.09385 V 5.8491437 c -0.176,-8.15694 -7.1715,-14.10451 -22.1759,-14.68842 h -2.3038 c -9.5968,0.24177 -20.6527,2.40751 -29.5199,6.91222 -3.9805,1.98732004 -7.4124,4.57684 -9.0396,7.7762 -1.622,-0.66081 -2.6323,-1.41637 -3.4885,-3.19748 -0.6571,-1.38685 -1.1365,-3.36078998 -1.152,-6.01856 0.017,-3.81496 0.6548,-8.2691197 5.1844,-13.3059007 3.8411,-3.90912 8.9194,-7.33067 19.6556,-10.16629 4.2928,-1.08272 11.5275,-2.14514 18.936,-2.15954 z"
       id="rect8849"
       inkscape:connector-curvature="0" />
    <path
       style="opacity:1;fill:#000000;fill-opacity:1;stroke:none;stroke-width:14.0141201;stroke-linejoin:miter;stroke-miterlimit:4;stroke-dasharray:none;stroke-opacity:1"
       d="m 477.2008,-243.88008 c 5.9831,0 10.7996,-4.81652 10.7996,-10.79964 v -24.19226 a 16.848023,16.848023 0 0 0 -16.848,-16.8478 16.848023,16.848023 0 0 0 -16.8483,16.8478 16.848023,16.848023 0 0 0 12.0961,16.15401 v 8.03825 c 0,5.98312 4.8172,10.79964 10.8006,10.79964 z"
       id="path48927"
       inkscape:connector-curvature="0" />
  </g>
</svg>
