<?xml version="1.0" encoding="UTF-8" standalone="no"?>
<!-- Created with Inkscape (http://www.inkscape.org/) -->

<svg
   xmlns:dc="http://purl.org/dc/elements/1.1/"
   xmlns:cc="http://creativecommons.org/ns#"
   xmlns:rdf="http://www.w3.org/1999/02/22-rdf-syntax-ns#"
   xmlns:svg="http://www.w3.org/2000/svg"
   xmlns="http://www.w3.org/2000/svg"
   xmlns:sodipodi="http://sodipodi.sourceforge.net/DTD/sodipodi-0.dtd"
   xmlns:inkscape="http://www.inkscape.org/namespaces/inkscape"
   width="123.216cm"
   height="123.216cm"
   viewBox="0 0 1232.16 1232.1599"
   version="1.1"
   id="svg8"
   inkscape:version="0.92.2 (5c3e80d, 2017-08-06)"
   sodipodi:docname="888.svg">
  <defs
     id="defs2" />
  <sodipodi:namedview
     id="base"
     pagecolor="#ffffff"
     bordercolor="#666666"
     borderopacity="1.0"
     inkscape:pageopacity="0.0"
     inkscape:pageshadow="2"
     inkscape:zoom="0.12374369"
     inkscape:cx="3381.1888"
     inkscape:cy="2147.862"
     inkscape:document-units="cm"
     inkscape:current-layer="layer1"
     showgrid="false"
     units="cm"
     scale-x="10"
     inkscape:window-width="1920"
     inkscape:window-height="1057"
     inkscape:window-x="-8"
     inkscape:window-y="-8"
     inkscape:window-maximized="1"
     fit-margin-top="0"
     fit-margin-left="0"
     fit-margin-right="0"
     fit-margin-bottom="0"
     inkscape:snap-global="false" />
  <metadata
     id="metadata5">
    <rdf:RDF>
      <cc:Work
         rdf:about="">
        <dc:format>image/svg+xml</dc:format>
        <dc:type
           rdf:resource="http://purl.org/dc/dcmitype/StillImage" />
        <dc:title></dc:title>
      </cc:Work>
    </rdf:RDF>
  </metadata>
  <g
     inkscape:label="Layer 1"
     inkscape:groupmode="layer"
     id="layer1"
     transform="translate(-432,969.15993)">
    <rect
       style="opacity:1;fill:#fa7800;fill-opacity:1;fill-rule:nonzero;stroke:none;stroke-width:0;stroke-linecap:square;stroke-linejoin:miter;stroke-miterlimit:10;stroke-dasharray:none;stroke-opacity:1;paint-order:fill markers stroke"
       id="rect815"
       width="900"
       height="900"
       x="540.76648"
       y="41.439213"
       rx="54"
       ry="54"
       transform="rotate(-45)" />
    <rect
       y="59.439213"
       x="558.76648"
       height="864"
       width="864"
       id="rect9557"
       style="opacity:1;fill:#000000;fill-opacity:1;fill-rule:nonzero;stroke:none;stroke-width:0;stroke-linecap:square;stroke-linejoin:miter;stroke-miterlimit:10;stroke-dasharray:none;stroke-opacity:1;paint-order:fill markers stroke"
       rx="36"
       ry="36"
       transform="rotate(-45)" />
    <rect
       y="83.439217"
       x="582.76648"
       height="816"
       width="816"
       id="rect9559"
       style="opacity:1;fill:#fa7800;fill-opacity:1;fill-rule:nonzero;stroke:none;stroke-width:0;stroke-linecap:square;stroke-linejoin:miter;stroke-miterlimit:10;stroke-dasharray:none;stroke-opacity:1;paint-order:fill markers stroke"
       rx="12"
       ry="12"
       transform="rotate(-45)" />
    <path
       style="fill:#000000;stroke:none;stroke-width:1.52041292;stroke-linecap:round;stroke-linejoin:round;stroke-miterlimit:10;stroke-dasharray:none;stroke-opacity:1"
       d="m 1074.6797,-647.08009 v 32.00011 l -12.5997,8.00003 -7.4006,25.99996 v 19.99981 h -7.5996 v -19.99981 h -33.9999 v 19.99981 h -91.0001 v -9.29969 h -5.9996 l -1.5023,-3.10007 h 1.5023 v -4.60024 h -1.5023 v -2.99981 h -2.9977 v 2.99981 H 910.08 v 1.60042 l 1.3999,2.99982 v 3.10007 H 910.08 v 1.50017 l -31.0001,-9.20048 -21.5998,-21.39972 -1.5316,-4.59093 -6.0917,-4.55373 v -3.03599 l -1.5229,-3.28972 h 4.5687 v -4.55373 l 3.0459,-3.03599 0.032,-7.5401 h 7.8997 l -7.8997,-4.60386 v -4.79609 c -0.099,-1.18469 -1.4004,-2.63772 -3.1001,-2.99982 -17.9687,-2.05469 -23.3189,4.16076 -23.8001,11.39983 l -3.8427,3.98632 h 4.5687 v 4.55372 h 3.0453 v 3.03599 l 1.5229,3.03599 v 4.80746 l -1.5229,3.03599 v 1.51773 h -3.0453 c -2.8949,0.23035 -4.5682,3.92675 -4.5687,6.07199 v 4.55424 l -4.5687,7.84293 v 7.59023 l -3.0887,4.56768 h -7.8998 l 3.1001,116.5996 h 55.6038 l -69.3037,6.10041 v -79.7047 h -17 v -16.89561 h -31.0002 v 23.29987 l -42.9999,55.00026 v 69.10017 l 264.9001,-25.99996 178.6525,23.00583 c 40.8933,8.53655 52.6672,27.28368 66.244,46.03389 l 53.8081,-23.03994 4.7951,-12.39976 -4.7951,-4.49999 -15.2047,-5.3e-4 -16.1003,-18.49964 -3.9998,-18.50016 -52.3002,-52.10018 -12.3956,1.50017 -24.6042,-24.49928 v -15.4006 l -30.6999,-30.69994 h -10.9001 l -10.6996,-12.30002 15.1996,6.29987 7.8972,-1.50017 33.7028,35.10019 3.0985,12.40027 20.0014,22.99964 h 12.4003 l 56.8999,56.69989 1.5601,17 15.4399,13.6002 h 12.5 l 13.6999,12.40028 -3.1001,3.09955 -4.4999,13.90045 -107.8958,46.2995 H 903.0799 v -7.99951 h 180.8742 c 8.2439,-22.07133 28.6425,-37.27499 52.1492,-38.86843 23.4054,-1.52746 45.5548,10.72356 56.7004,31.36139 l 20.4763,-7.79332 c -18.8841,-25.87122 -39.7248,-39.2837 -61.6474,-43.00359 l -178.6525,-22.99652 -264.7477,26.03251 -2.6448,-5.62291 -7.8915,2.58692 2.9218,6.07198 -6.0782,2.85409 -3.9377,-6.42493 -6.8027,5.08858 3.7413,5.97277 -4.3816,3.60805 -6.2627,-6.14381 -5.6017,5.68234 5.7475,5.72523 -2.8205,3.62459 -6.8368,-4.54753 -5.3351,6.83369 7.6031,5.30407 -4.2012,5.18418 -6.4586,-3.66644 -3.9909,6.14123 7.0367,4.73718 -1.7011,4.73666 -8.4063,-1.43144 -1.9967,8.04189 6.6373,1.35754 -0.6248,5.7645 -7.8672,0.18914 v 7.40006 l 6.3443,5.3e-4 v 4.55425 H 648.08 v 7.84293 h 6.3443 l 0.6615,7.4011 -6.5335,0.56689 0.8723,7.59023 6.8063,-0.75603 2.4386,5.88957 -5.6627,2.8975 2.9404,6.5505 5.6188,-2.4691 2.3735,6.36137 -5.1356,3.49643 3.329,5.98361 4.5687,-2.27996 3.9905,5.4746 -4.0851,3.89278 4.7579,5.12062 3.4236,-2.74608 4.8224,4.83742 -2.8458,3.88607 5.3247,4.08191 3.4236,-4.08191 5.4193,3.7982 -3.8018,5.18522 6.3748,3.79201 3.8126,-4.07519 4.8225,3.22461 -2.373,4.55424 6.9526,3.03599 2.3626,-4.93199 6.9525,2.36831 -2.006,5.59967 7.0471,1.70688 1.7864,-5.40433 5.8917,1.32292 -0.5669,5.49892 7.0471,1.05161 0.5674,-5.12114 7.7086,0.94517 v 4.55371 h 7.8682 v -4.55371 h 5.5707 v 4.55371 h 6.612 v -4.55371 h 6.8684 v 4.55371 h 7.57 v -4.55371 h 5.6131 v 4.55371 h 6.0911 v -4.55371 h 6.8683 v 4.55371 h 7.6146 v -4.55371 h 5.5671 v 4.55371 h 7.8687 v -4.55371 h 6.6167 v 4.55371 h 7.5701 v -4.55371 h 5.8642 v 4.55371 h 7.614 v -4.55371 h 6.565 v 4.55371 h 7.614 v -4.55371 h 5.871 v 4.55371 h 7.092 v -4.55371 h 5.6157 v 4.55371 h 7.8688 v -4.55371 h 5.566 v 4.55371 h 7.6146 v -4.55371 h 4.5682 v 4.55371 h 7.8687 v -4.55371 h 5.6178 v 4.55371 h 7.5602 v -4.55371 h 6.872 v 4.55371 h 7.614 v -4.55371 h 6.0916 v 4.55371 h 7.8683 v -4.55371 h 6.614 v 4.55371 h 7.5701 v -4.55371 h 5.6131 v 4.55371 h 7.8683 v -4.55371 h 5.5717 v 4.55371 h 7.614 v -4.55371 h 5.8627 v 4.55371 h 7.5701 v -4.55371 h 5.6141 v 4.55371 h 7.8683 v -4.55371 h 6.0916 v 4.55371 h 7.6139 v -4.55371 h 4.5687 v 4.55371 h 7.8682 v -4.55371 h 5.6152 v 4.55371 h 8.57 v -4.55371 h 5.8648 v 4.55371 h 7.6145 v -4.55371 h 6.0911 v 4.55371 h 7.0895 v -4.55371 h 5.8699 v 4.55371 h 8.09 v -4.55371 h 5.6156 v 4.55371 h 7.8688 v -4.55371 h 4.5682 v 4.55371 h 7.6145 v -4.55371 h 5.5687 v 4.55371 h 7.8672 v -4.55371 h 6.6172 v 4.55371 h 7.0884 v -5.58982 l 7.1335,-1.86656 0.7353,4.4204 7.614,-1.51773 -1.9099,-5.6043 6.4786,-1.98594 1.5229,4.55425 6.3454,-3.03599 -3.3001,-4.55425 7.2006,-4.23849 3.7135,4.23849 4.5687,-3.03598 -3.0458,-4.80695 6.0916,-4.55425 4.5682,4.55425 4.8219,-4.55425 -4.3537,-5.47048 3.2179,-3.72328 5.9577,3.18843 3.6262,-5.95364 -4.6287,-3.35432 3.7946,-6.19187 6.0916,3.03599 2.4139,-6.84919 -4.0205,-2.17661 3.1296,-6.15415 6.2347,3.02617 0.4,-7.60005 h 120.9998 v -6.19962 h 20.3001 v 18.39991 l 46.1998,19.99981 80.0002,-1.5999 1.4997,-3.00292 -66.1996,-69.09707 v -113.50007 l -46.2003,4.49998 -15.2998,-4.59971 v 30.59968 l -32.5003,12.50001 -4.5,-12.50001 -26.2,12.50001 -18.4996,-18.50016 v -15.49983 l -20.1001,-19.90008 -7.6,3.00034 -4.5,-6.10041 h 15.2047 l 16.9954,18.50016 v -107.49989 l -20.0004,-12.20029 h -112.5001 l 10.9358,10.64431 h 15.4828 l 23.0957,23.0234 v 16.95142 h -3.299 v -15.43368 l -23.0968,-23.02288 h -15.2285 l -43.1896,-44.56214 -10.9001,12.39976 -1.5002,-3.00344 15.5003,-19.99671 -7.6,-10.99984 h -6.2999 v -32.00011 z m -218.5995,66.0001 19.8996,12.20029 34.1002,7.79952 h 1.3999 v 7.60005 c 0.4941,11.32234 17.4399,33.62814 35.3002,35.40042 v 15.19959 l -4.7,7.80005 -46.0002,-58.40006 -39.9997,-2.99981 z m 514.2998,193.29983 v 35.40042 l -21.5,-25.99996 z m -40.0999,24.60005 18.5999,18.40043 21.5,7.89977 v 22.99756 h -20.3001 v -4.79763 h -129.1998 v -6.09989 l 67.8,-27.59987 15.4998,3.09956 z"
       id="path1337"
       inkscape:connector-curvature="0"
       sodipodi:nodetypes="cccccccccccccccccccccccccccccccccccccccccccccccccccccccccccccccccccccccccccccccccccccccccccccccccccccccccccccccccccccccccccccccccccccccccccccccccccccccccccccccccccccccccccccccccccccccccccccccccccccccccccccccccccccccccccccccccccccccccccccccccccccccccccccccccccccccccccccccccccccccccccccccccccccccccccccccccccccccccccccccccccccccccccccccccccccccccccccccccccccccccccccccccccccccccccccccccccccc" />
    <path
       style="opacity:1;fill:#fa7800;fill-opacity:1;stroke:#fa7800;stroke-width:1.99999988;stroke-linejoin:miter;stroke-miterlimit:10;stroke-dasharray:none;stroke-opacity:1"
       d="m 683.08,-318.07997 c 0,-33.13704 26.8629,-59.99992 60,-59.99995 21.1895,0.0284 40.7929,11.23148 51.5736,29.47366 l -5.7454,2.09132 c -9.8302,-15.87027 -27.1602,-25.53764 -45.8282,-25.56484 -29.8233,1.1e-4 -53.9997,24.17659 -53.9998,53.99981 z"
       id="path16"
       inkscape:connector-curvature="0"
       sodipodi:nodetypes="ccccccc" />
    <path
       style="opacity:1;fill:#fa7800;fill-opacity:1;stroke:#fa7800;stroke-width:2;stroke-linejoin:miter;stroke-miterlimit:10;stroke-dasharray:none;stroke-opacity:1"
       d="m 1087.0552,-291.08018 a 59.999999,59.999999 0 0 0 53.0247,32.00011 59.999999,59.999999 0 0 0 53.0226,-32.00011 h -6.9278 a 53.999995,53.999995 0 0 1 -46.0948,25.99996 53.999995,53.999995 0 0 1 -46.114,-25.99996 z"
       id="path853"
       inkscape:connector-curvature="0" />
    <path
       style="opacity:1;fill:#000000;fill-opacity:1;stroke:none;stroke-width:2.81513143;stroke-linejoin:miter;stroke-miterlimit:10;stroke-dasharray:none;stroke-opacity:1"
       d="m 1138.6944,-373.06225 a 54,54 0 0 0 -5.3826,0.40824 54,54 0 0 0 -42.9607,32.57424 h 82.3511 l 14.4213,-5.39192 a 54,54 0 0 0 -48.4291,-27.59056 z"
       id="path875"
       inkscape:connector-curvature="0" />
  </g>
</svg>
