<?xml version="1.0" encoding="UTF-8" standalone="no"?>
<!-- Created with Inkscape (http://www.inkscape.org/) -->

<svg
   xmlns:dc="http://purl.org/dc/elements/1.1/"
   xmlns:cc="http://creativecommons.org/ns#"
   xmlns:rdf="http://www.w3.org/1999/02/22-rdf-syntax-ns#"
   xmlns:svg="http://www.w3.org/2000/svg"
   xmlns="http://www.w3.org/2000/svg"
   xmlns:sodipodi="http://sodipodi.sourceforge.net/DTD/sodipodi-0.dtd"
   xmlns:inkscape="http://www.inkscape.org/namespaces/inkscape"
   width="61.599998mm"
   height="61.599998mm"
   viewBox="0 0 61.599998 61.599998"
   version="1.1"
   id="svg8"
   inkscape:version="0.92.2 (5c3e80d, 2017-08-06)"
   sodipodi:docname="11.svg">
  <defs
     id="defs2" />
  <sodipodi:namedview
     id="base"
     pagecolor="#ffffff"
     bordercolor="#666666"
     borderopacity="1.0"
     inkscape:pageopacity="0.0"
     inkscape:pageshadow="2"
     inkscape:zoom="1.979899"
     inkscape:cx="150.72287"
     inkscape:cy="96.991931"
     inkscape:document-units="mm"
     inkscape:current-layer="layer1"
     showgrid="false"
     inkscape:window-width="1920"
     inkscape:window-height="1057"
     inkscape:window-x="-8"
     inkscape:window-y="-8"
     inkscape:window-maximized="1" />
  <metadata
     id="metadata5">
    <rdf:RDF>
      <cc:Work
         rdf:about="">
        <dc:format>image/svg+xml</dc:format>
        <dc:type
           rdf:resource="http://purl.org/dc/dcmitype/StillImage" />
        <dc:title></dc:title>
      </cc:Work>
    </rdf:RDF>
  </metadata>
  <g
     inkscape:label="Layer 1"
     inkscape:groupmode="layer"
     id="layer1"
     transform="translate(0,-235.4)">
    <circle
       style="opacity:1;fill:#000000;fill-opacity:1;fill-rule:nonzero;stroke:none;stroke-width:0.20635015;stroke-linecap:square;stroke-linejoin:round;stroke-miterlimit:4;stroke-dasharray:none;stroke-opacity:1;paint-order:stroke fill markers"
       id="path815"
       cx="30.799999"
       cy="266.20001"
       r="30.299999" />
    <circle
       r="30"
       cy="266.20001"
       cx="30.799999"
       id="circle819"
       style="opacity:1;fill:#ffffff;fill-opacity:1;fill-rule:nonzero;stroke:none;stroke-width:0.20430708;stroke-linecap:square;stroke-linejoin:round;stroke-miterlimit:4;stroke-dasharray:none;stroke-opacity:1;paint-order:stroke fill markers" />
    <circle
       style="opacity:1;fill:#003c82;fill-opacity:1;fill-rule:nonzero;stroke:none;stroke-width:0.19068664;stroke-linecap:square;stroke-linejoin:round;stroke-miterlimit:4;stroke-dasharray:none;stroke-opacity:1;paint-order:stroke fill markers"
       id="circle821"
       cx="30.799999"
       cy="266.20001"
       r="28" />
    <path
       inkscape:connector-curvature="0"
       d="m 35.239331,244.22621 c 3.456807,-0.17606 9.732867,7.39687 10.178289,21.90426 0.436714,14.50912 -3.600041,21.8047 -8.726741,22.05786 -0.302169,0.0263 -10.363445,0 -10.716289,0 -4.9398,0 -9.18788,-8.87379 -9.766054,-21.41195 -0.628828,-13.89465 3.917949,-22.57636 8.391364,-22.57636 0.27596,0 10.337244,0.0594 10.639431,0.0263"
       id="path10"
       style="clip-rule:evenodd;fill:#ffffff;fill-rule:nonzero;stroke:none;stroke-width:1.74626017" />
    <path
       inkscape:connector-curvature="0"
       d="m 35.005268,246.61615 c 3.179074,1.14003 5.016653,6.0369 5.973873,8.95758 2.029712,7.66574 2.265526,16.47665 0.143257,24.15109 -0.958969,2.59943 -2.249813,5.5847 -5.304873,6.02112 h -9.205349 c -4.211409,-0.47638 -5.949418,-7.88385 -6.721482,-11.20434 -1.334509,-7.81584 -1.643688,-16.77164 1.535394,-24.15109 0.908305,-1.67593 1.954609,-3.60497 4.012275,-3.82319 3.130166,-0.002 6.478676,-0.11877 9.566928,0.0461 m -0.387792,-0.95666 c 3.013133,-0.16764 8.482192,6.90278 8.868225,20.44649 0.38601,13.54375 -3.128425,20.35226 -7.601837,20.5967 -0.258528,0.0129 -9.037661,0 -9.348582,0 -4.295254,0 -8.005342,-8.29419 -8.508405,-20.00139 -0.543202,-12.96587 3.425369,-21.06622 7.320613,-21.06622 0.23582,0 9.009718,0.0527 9.269986,0.0263 z"
       id="path12"
       style="clip-rule:evenodd;fill:#000000;fill-opacity:1;fill-rule:evenodd;stroke:none;stroke-width:1.74626017" />
    <path
       inkscape:connector-curvature="0"
       d="m 36.841099,280.10361 c 2.366837,2.41444 4.564245,-4.27886 4.087384,-13.88063 -0.476852,-9.60178 -2.817503,-16.78914 -5.352034,-13.25744 2.080377,-1.16439 4.202675,5.97929 4.473418,13.59435 0.282955,7.64824 -1.007868,14.18792 -3.208768,13.54372"
       id="path14"
       style="clip-rule:evenodd;fill:#000000;fill-opacity:1;fill-rule:evenodd;stroke:none;stroke-width:1.74626017" />
    <path
       inkscape:connector-curvature="0"
       d="m 35.380816,258.27275 c -0.401724,5.01384 -0.0647,10.89361 0.6725,15.97556 1.098704,-0.23555 1.358963,-4.87244 1.268134,-7.78265 -0.169406,-4.53731 -1.07425,-8.15102 -1.940634,-8.19291"
       id="path16"
       style="clip-rule:evenodd;fill:#000000;fill-opacity:1;fill-rule:evenodd;stroke:none;stroke-width:1.74626017" />
    <path
       inkscape:connector-curvature="0"
       d="m 25.583317,248.85599 c -0.379013,0.14312 -0.66551,0.21838 -0.999134,0.47835 -2.104831,1.62705 -2.97122,5.16574 -3.423627,7.64826 -0.813985,5.58472 -0.88036,11.65652 0.124047,17.24999 0.597403,2.98524 2.267277,8.54555 5.254208,9.83742 0.242818,0.10102 0.361585,0.10102 0.529271,0.11677 l -0.05084,0.55357 c -1.023596,0 -2.029721,-1.00555 -2.843699,-1.86095 -4.010534,-5.23382 -4.255074,-13.59434 -4.153768,-19.95073 0.209609,-4.75722 1.241937,-13.45295 5.53719,-14.64351 z"
       id="path18"
       style="clip-rule:evenodd;fill:#000000;fill-opacity:1;fill-rule:evenodd;stroke:none;stroke-width:1.74626017" />
    <path
       inkscape:connector-curvature="0"
       d="m 35.239331,250.24741 c -1.870766,1.99542 -2.517062,4.57914 -3.004401,7.24496 -0.754594,5.20591 -0.822719,10.86045 0.110056,16.06809 0.604403,2.97657 1.937135,7.91531 4.967746,9.24916 l -0.310949,0.38598 c -1.184297,-0.51861 -1.26814,-0.76288 -2.029719,-1.55895 -3.734543,-4.8725 -3.893497,-12.68134 -3.800925,-18.60126 0.200896,-4.42726 0.822719,-11.07693 4.295253,-13.59434 l 0.310947,0.42757 z"
       id="path20"
       style="clip-rule:evenodd;fill:#000000;fill-opacity:1;fill-rule:evenodd;stroke:none;stroke-width:1.74626017" />
    <path
       inkscape:connector-curvature="0"
       d="m 30.959805,263.28659 h 2.298713 c 0.143256,0 0.286456,0.0942 0.286456,0.2184 v 0.16965 c 0,0.11678 -0.143256,0.20984 -0.286456,0.20984 h -2.298713 c -0.143257,0 -0.258529,-0.0924 -0.258529,-0.20984 v -0.16965 c -0.0017,-0.12538 0.115275,-0.2184 0.258529,-0.2184"
       id="path22"
       style="clip-rule:evenodd;fill:#000000;fill-opacity:1;fill-rule:evenodd;stroke:none;stroke-width:1.74626017" />
    <path
       inkscape:connector-curvature="0"
       d="m 33.862893,265.8703 v -1.75275 c 0,-0.11017 0.08563,-0.21839 0.1834,-0.21839 h 0.136262 c 0.09957,0 0.1834,0.11017 0.1834,0.21839 v 1.75275 c 0,0.11018 -0.08555,0.19202 -0.1834,0.19202 h -0.136262 c -0.09784,0.002 -0.1834,-0.0818 -0.1834,-0.19202"
       id="path24"
       style="clip-rule:evenodd;fill:#000000;fill-opacity:1;fill-rule:evenodd;stroke:none;stroke-width:1.74626017" />
    <path
       inkscape:connector-curvature="0"
       d="m 35.9258,278.40847 -0.511775,-1.66895 c -0.035,-0.11017 0.01063,-0.23554 0.110057,-0.25996 l 0.134483,-0.0395 c 0.09256,-0.0329 0.200896,0.0527 0.23582,0.15044 l 0.511777,1.67773 c 0.03302,0.10103 -0.01775,0.2184 -0.117051,0.24413 l -0.134487,0.0395 c -0.09255,0.0329 -0.20261,-0.0395 -0.22882,-0.14514"
       id="path26"
       style="clip-rule:evenodd;fill:#000000;fill-opacity:1;fill-rule:evenodd;stroke:none;stroke-width:1.74626017" />
    <path
       inkscape:connector-curvature="0"
       d="m 34.919676,275.2137 -0.335377,-1.71957 c -0.01594,-0.10816 0.04224,-0.23422 0.143258,-0.25138 l 0.134485,-0.0263 c 0.10134,-0.0198 0.200894,0.0752 0.218322,0.17607 l 0.333594,1.71785 c 0.01775,0.11018 -0.04027,0.21839 -0.143256,0.23555 l -0.132764,0.0263 c -0.09956,0.0128 -0.192116,-0.0527 -0.218324,-0.15904"
       id="path28"
       style="clip-rule:evenodd;fill:#000000;fill-opacity:1;fill-rule:evenodd;stroke:none;stroke-width:1.74626017" />
    <path
       inkscape:connector-curvature="0"
       d="m 34.339753,272.1167 -0.183401,-1.74227 c -0.0074,-0.11017 0.05943,-0.22895 0.160691,-0.23554 l 0.132764,-0.0198 c 0.103062,-0.008 0.193898,0.0924 0.20261,0.20059 l 0.183402,1.73532 c 0.01775,0.1102 -0.05942,0.20917 -0.15897,0.21841 l -0.134485,0.0198 c -0.09957,0.0129 -0.192114,-0.0667 -0.202611,-0.17624"
       id="path30"
       style="clip-rule:evenodd;fill:#000000;fill-opacity:1;fill-rule:evenodd;stroke:none;stroke-width:1.74626017" />
    <path
       inkscape:connector-curvature="0"
       d="m 33.948486,269.00749 -0.05942,-1.74575 c -0.0086,-0.11018 0.06635,-0.22502 0.169407,-0.22502 l 0.141479,-0.0128 c 0.101341,0 0.185182,0.10285 0.185182,0.21114 l 0.0647,1.75273 c 0,0.11018 -0.07513,0.2006 -0.17468,0.20918 h -0.143201 c -0.101341,0.008 -0.183402,-0.0818 -0.183402,-0.19201"
       id="path32"
       style="clip-rule:evenodd;fill:#000000;fill-opacity:1;fill-rule:evenodd;stroke:none;stroke-width:1.74626017" />
    <path
       inkscape:connector-curvature="0"
       d="m 26.847966,263.28659 h 2.298713 c 0.143256,0 0.284738,0.0942 0.284738,0.2184 v 0.16965 c 0,0.11678 -0.14148,0.20984 -0.284738,0.20984 h -2.298713 c -0.143256,0 -0.258528,-0.0924 -0.258528,-0.20984 v -0.16965 c 0,-0.12538 0.115275,-0.2184 0.258528,-0.2184"
       id="path34"
       style="clip-rule:evenodd;fill:#000000;fill-opacity:1;fill-rule:evenodd;stroke:none;stroke-width:1.74626017" />
    <path
       inkscape:connector-curvature="0"
       d="m 18.919484,263.28659 h 1.718797 c 0.117053,0 0.20961,0.0942 0.20961,0.2184 v 0.16965 c 0,0.11678 -0.09255,0.20984 -0.20961,0.20984 h -1.718797 c -0.125769,0 -0.193897,-0.0924 -0.193897,-0.20984 v -0.16965 c 0,-0.12538 0.06813,-0.2184 0.193897,-0.2184"
       id="path36"
       style="clip-rule:evenodd;fill:#000000;fill-opacity:1;fill-rule:evenodd;stroke:none;stroke-width:1.74626017" />
    <path
       inkscape:connector-curvature="0"
       d="m 22.552713,263.28659 h 2.289986 c 0.143258,0 0.286457,0.0942 0.286457,0.2184 v 0.16965 c 0,0.11678 -0.143258,0.20984 -0.286457,0.20984 h -2.289986 c -0.151973,0 -0.269025,-0.0924 -0.269025,-0.20984 v -0.16965 c 0,-0.12538 0.117052,-0.2184 0.269025,-0.2184"
       id="path38"
       style="clip-rule:evenodd;fill:#000000;fill-opacity:1;fill-rule:evenodd;stroke:none;stroke-width:1.74626017" />
    <path
       inkscape:connector-curvature="0"
       d="m 20.80597,263.0439 h 1.552853 c 0.193897,0 0.286455,0.12538 0.286455,0.31078 v 0.386 c 0,0.19398 -0.09254,0.31077 -0.286455,0.31077 H 20.80597 c -0.192115,0 -0.293452,-0.11548 -0.293452,-0.31077 v -0.386 c 0,-0.1854 0.101339,-0.31078 0.293452,-0.31078 m -0.09956,-0.56941 h 1.744995 c 0.429716,0 0.765076,0.31077 0.765076,0.72097 v 0.71228 c 0,0.40182 -0.333592,0.71228 -0.765076,0.71228 h -1.745 c -0.427932,0 -0.763329,-0.31079 -0.763329,-0.71228 v -0.71228 c 0,-0.41041 0.335376,-0.72097 0.763329,-0.72097 z"
       id="path40"
       style="clip-rule:evenodd;fill:#000000;fill-opacity:1;fill-rule:evenodd;stroke:none;stroke-width:1.74626017" />
    <path
       inkscape:connector-curvature="0"
       d="m 29.382491,263.0439 h 1.55286 c 0.190398,0 0.293453,0.12538 0.293453,0.31078 v 0.386 c 0,0.19398 -0.103061,0.31077 -0.293453,0.31077 h -1.55286 c -0.193896,0 -0.286455,-0.11548 -0.286455,-0.31077 v -0.386 c 0,-0.1854 0.09255,-0.31078 0.286455,-0.31078 m -0.09084,-0.56941 h 1.743253 c 0.429715,0 0.765078,0.31077 0.765078,0.72097 v 0.71228 c 0,0.40182 -0.333661,0.71228 -0.765078,0.71228 h -1.743253 c -0.429715,0 -0.765077,-0.31079 -0.765077,-0.71228 v -0.71228 c 0,-0.41041 0.33366,-0.72097 0.765077,-0.72097 z"
       id="path42"
       style="clip-rule:evenodd;fill:#000000;fill-opacity:1;fill-rule:evenodd;stroke:none;stroke-width:1.74626017" />
    <path
       inkscape:connector-curvature="0"
       d="m 33.677736,264.02678 v -1.26738 c 0,-0.15173 0.09255,-0.227 0.253251,-0.227 h 0.310947 c 0.150196,0 0.253247,0.0752 0.253247,0.227 v 1.26738 c 0,0.15044 -0.103062,0.22498 -0.253247,0.22498 h -0.310947 c -0.160691,-0.002 -0.253251,-0.0764 -0.253251,-0.22498 m -0.469853,0.0752 v -1.41934 c 0,-0.35103 0.253314,-0.61958 0.579908,-0.61958 h 0.586907 c 0.328376,0 0.579909,0.26855 0.579909,0.61958 v 1.41934 c 0,0.34376 -0.253316,0.61957 -0.579909,0.61957 h -0.586907 c -0.328377,0 -0.579908,-0.27581 -0.579908,-0.61957 z"
       id="path44"
       style="clip-rule:evenodd;fill:#000000;fill-opacity:1;fill-rule:evenodd;stroke:none;stroke-width:1.74626017" />
    <path
       inkscape:connector-curvature="0"
       d="m 36.682145,282.10605 0.452426,-1.17495 c 0.0614,-0.14311 0.178179,-0.18343 0.321379,-0.12536 l 0.284739,0.11017 c 0.151973,0.0593 0.20961,0.16949 0.15897,0.31078 l -0.452428,1.17488 c -0.05942,0.15173 -0.176402,0.1854 -0.319662,0.1261 l -0.293454,-0.11019 c -0.143257,-0.0527 -0.211393,-0.15903 -0.151973,-0.31077 m -0.462924,-0.0924 0.504779,-1.31814 c 0.12577,-0.32661 0.461142,-0.49421 0.770313,-0.36818 l 0.537987,0.20061 c 0.310947,0.11676 0.452426,0.46252 0.328378,0.78735 l -0.513561,1.32682 c -0.123992,0.32793 -0.452426,0.48497 -0.763328,0.36818 l -0.544984,-0.20783 c -0.302169,-0.11878 -0.443647,-0.46122 -0.319664,-0.78907 z"
       id="path46"
       style="clip-rule:evenodd;fill:#000000;fill-opacity:1;fill-rule:evenodd;stroke:none;stroke-width:1.74626017" />
    <path
       inkscape:connector-curvature="0"
       d="m 36.287378,279.81032 -0.471637,-1.16615 c -0.05744,-0.14312 0,-0.25337 0.143256,-0.31078 l 0.293455,-0.11879 c 0.143256,-0.0593 0.260245,-0.0263 0.321378,0.12537 l 0.469856,1.16617 c 0.05744,0.14313 0,0.25338 -0.143258,0.31078 l -0.293451,0.11677 c -0.143258,0.0595 -0.260246,0.0198 -0.319665,-0.1241 m -0.401723,0.24942 -0.529273,-1.31805 c -0.134484,-0.31804 0,-0.67038 0.302167,-0.78736 l 0.544986,-0.2184 c 0.30395,-0.12537 0.637544,0.0329 0.772064,0.35232 l 0.530988,1.31636 c 0.132765,0.31934 0,0.67038 -0.310948,0.78906 l -0.53977,0.21842 c -0.298668,0.12537 -0.637543,-0.0329 -0.770313,-0.35235 z"
       id="path48"
       style="clip-rule:evenodd;fill:#000000;fill-opacity:1;fill-rule:evenodd;stroke:none;stroke-width:1.74626017" />
    <path
       inkscape:connector-curvature="0"
       d="m 35.12055,276.58764 -0.328377,-1.21506 c -0.04027,-0.15172 0.035,-0.2514 0.183402,-0.29362 l 0.30395,-0.0764 c 0.143256,-0.0395 0.258528,0.0128 0.302167,0.16032 l 0.326661,1.21678 c 0.035,0.15044 -0.03302,0.2514 -0.183401,0.29295 l -0.300452,0.0752 c -0.153693,0.0395 -0.260245,-0.008 -0.30395,-0.16032 m -0.426216,0.19398 -0.3703,-1.36696 c -0.09254,-0.33519 0.08386,-0.66338 0.401725,-0.74717 l 0.560697,-0.15044 c 0.321377,-0.0858 0.630544,0.11018 0.723157,0.45197 l 0.368582,1.36695 c 0.08386,0.3352 -0.08563,0.66339 -0.401725,0.74547 l -0.562479,0.15173 c -0.316164,0.0838 -0.637542,-0.11019 -0.719665,-0.45197 z"
       id="path50"
       style="clip-rule:evenodd;fill:#000000;fill-opacity:1;fill-rule:evenodd;stroke:none;stroke-width:1.74626017" />
    <path
       inkscape:connector-curvature="0"
       d="m 34.332767,273.38585 -0.134484,-1.25167 c -0.01594,-0.15905 0.07684,-0.24282 0.227106,-0.25865 l 0.310947,-0.0329 c 0.150196,-0.0198 0.25853,0.0529 0.275958,0.20983 l 0.134485,1.24995 c 0.0086,0.15045 -0.07684,0.24414 -0.227103,0.25997 l -0.31095,0.0329 c -0.158969,0.0198 -0.258529,-0.0461 -0.275959,-0.20783 m -0.452425,0.12409 -0.150198,-1.41057 c -0.035,-0.34244 0.183398,-0.63538 0.511777,-0.67036 l 0.578193,-0.0667 c 0.328377,-0.0329 0.613115,0.20915 0.646324,0.56216 l 0.150197,1.40007 c 0.035,0.35234 -0.1834,0.64596 -0.518775,0.68086 l -0.579909,0.0595 c -0.328377,0.0395 -0.604403,-0.2006 -0.637543,-0.55358 z"
       id="path52"
       style="clip-rule:evenodd;fill:#000000;fill-opacity:1;fill-rule:evenodd;stroke:none;stroke-width:1.74626017" />
    <path
       inkscape:connector-curvature="0"
       d="m 34.937144,254.28887 -0.361585,1.70908 c -0.02443,0.11017 0.02642,0.22698 0.125768,0.25336 l 0.143258,0.0264 c 0.09255,0.0263 0.192114,-0.0659 0.218321,-0.17625 l 0.361585,-1.71083 c 0.02443,-0.10817 -0.035,-0.20918 -0.136261,-0.23425 l -0.132764,-0.0263 c -0.103062,-0.0264 -0.192113,0.0527 -0.218323,0.15904"
       id="path54"
       style="clip-rule:evenodd;fill:#000000;fill-opacity:1;fill-rule:evenodd;stroke:none;stroke-width:1.74626017" />
    <path
       inkscape:connector-curvature="0"
       d="m 34.215738,257.54476 -0.176402,1.73527 c -0.01721,0.11017 0.04886,0.22499 0.150198,0.24281 l 0.143256,0.008 c 0.101341,0.0198 0.192115,-0.0838 0.200894,-0.19201 l 0.183402,-1.74405 c 0.0086,-0.11017 -0.05743,-0.20917 -0.16069,-0.21838 l -0.141481,-0.0198 c -0.09784,-0.0128 -0.181676,0.0752 -0.199114,0.18541"
       id="path56"
       style="clip-rule:evenodd;fill:#000000;fill-opacity:1;fill-rule:evenodd;stroke:none;stroke-width:1.74626017" />
    <path
       inkscape:connector-curvature="0"
       d="m 33.913548,260.68717 -0.02642,1.75272 c 0,0.11019 0.07513,0.21841 0.176403,0.21841 l 0.143256,0.008 c 0.101341,0 0.178179,-0.11017 0.183399,-0.21839 l 0.02642,-1.75275 c 0,-0.11018 -0.07683,-0.20058 -0.176402,-0.20058 h -0.14148 c -0.10134,-0.008 -0.176403,0.0838 -0.185184,0.19201"
       id="path58"
       style="clip-rule:evenodd;fill:#000000;fill-opacity:1;fill-rule:evenodd;stroke:none;stroke-width:1.74626017" />
    <path
       inkscape:connector-curvature="0"
       d="m 35.52405,250.59131 0.553701,1.13124 c 0.06635,0.13472 0.192113,0.15906 0.328377,0.0924 l 0.275958,-0.13451 c 0.143256,-0.0679 0.192114,-0.17625 0.125768,-0.31936 l -0.553698,-1.13126 c -0.06635,-0.14311 -0.183401,-0.16763 -0.328377,-0.10101 l -0.275957,0.13452 c -0.143258,0.0764 -0.192117,0.18475 -0.12577,0.32794 m -0.454143,0.13452 0.620113,1.26573 c 0.151974,0.31935 0.504781,0.45198 0.798268,0.30221 l 0.520556,-0.2514 c 0.302169,-0.14313 0.401726,-0.50279 0.251531,-0.81355 l -0.620112,-1.2744 c -0.150198,-0.31076 -0.494349,-0.44535 -0.796518,-0.30218 l -0.520557,0.25864 c -0.293454,0.14312 -0.403506,0.49554 -0.253248,0.81528 z"
       id="path60"
       style="clip-rule:evenodd;fill:#000000;fill-opacity:1;fill-rule:evenodd;stroke:none;stroke-width:1.74626017" />
    <path
       inkscape:connector-curvature="0"
       d="m 35.190419,252.84685 -0.3703,1.19935 c -0.04886,0.15172 0.02642,0.25337 0.169462,0.3022 l 0.300453,0.0838 c 0.143256,0.0527 0.260244,0 0.303949,-0.14313 l 0.368582,-1.20807 c 0.05084,-0.15044 -0.02443,-0.2514 -0.167684,-0.29295 l -0.303951,-0.0924 c -0.143256,-0.0527 -0.260246,0 -0.30045,0.15172 m -0.431434,-0.21841 -0.408722,1.35817 c -0.103061,0.3352 0.05744,0.66168 0.377297,0.76468 l 0.5537,0.16765 c 0.310948,0.0996 0.637542,-0.0924 0.737133,-0.41898 l 0.412221,-1.35819 c 0.09957,-0.32792 -0.05942,-0.66165 -0.379013,-0.76466 l -0.551984,-0.16764 c -0.309166,-0.0924 -0.637543,0.0924 -0.740632,0.41897 z"
       id="path62"
       style="clip-rule:evenodd;fill:#000000;fill-opacity:1;fill-rule:evenodd;stroke:none;stroke-width:1.74626017" />
    <path
       inkscape:connector-curvature="0"
       d="m 34.299581,256.16032 -0.218326,1.24126 c -0.02443,0.15044 0.05083,0.24282 0.209611,0.26721 l 0.302168,0.0594 c 0.151973,0.0263 0.260247,-0.0329 0.286456,-0.18342 l 0.225322,-1.24305 c 0.02641,-0.15044 -0.05743,-0.25139 -0.20961,-0.27581 l -0.310948,-0.0461 c -0.150197,-0.0263 -0.260247,0.0329 -0.28474,0.18344 m -0.443646,-0.16033 -0.244533,1.39313 c -0.06635,0.34247 0.134487,0.65322 0.462923,0.71229 l 0.569414,0.10102 c 0.328377,0.0593 0.620114,-0.16765 0.689961,-0.51136 l 0.242816,-1.39316 c 0.05744,-0.34244 -0.143258,-0.65322 -0.471637,-0.71047 l -0.569411,-0.10287 c -0.328378,-0.0593 -0.621833,0.16766 -0.679487,0.51137 z"
       id="path64"
       style="clip-rule:evenodd;fill:#000000;fill-opacity:1;fill-rule:evenodd;stroke:none;stroke-width:1.74626017" />
    <path
       inkscape:connector-curvature="0"
       d="m 33.796519,259.43019 -0.02642,1.25868 c 0,0.16033 0.09254,0.23556 0.253248,0.24282 h 0.302168 c 0.15897,0.0128 0.25853,-0.0661 0.25853,-0.225 l 0.0264,-1.25875 c 0,-0.16033 -0.09255,-0.23554 -0.25325,-0.23554 l -0.310948,-0.008 c -0.150197,0 -0.249813,0.0764 -0.249813,0.22699 m -0.469857,-0.0838 -0.02642,1.41758 c 0,0.34376 0.244534,0.61955 0.569412,0.62813 l 0.588688,0.008 c 0.328377,0.008 0.586907,-0.25865 0.586907,-0.61295 l 0.02443,-1.41059 c 0.01063,-0.35101 -0.234036,-0.62682 -0.569414,-0.63738 l -0.57819,-0.008 c -0.328378,-0.008 -0.588624,0.25997 -0.59562,0.61297 z"
       id="path66"
       style="clip-rule:evenodd;fill:#000000;fill-opacity:1;fill-rule:evenodd;stroke:none;stroke-width:1.74626017" />
    <path
       inkscape:connector-curvature="0"
       d="m 33.880362,270.36394 -0.08384,-1.25866 c -0.0086,-0.15044 0.07513,-0.23424 0.235819,-0.24282 l 0.309165,-0.0264 c 0.153695,-0.008 0.253247,0.0593 0.269028,0.2184 l 0.08563,1.25876 c 0.0074,0.15171 -0.07686,0.23554 -0.23582,0.24412 l -0.310947,0.0263 c -0.151972,0.0128 -0.253248,-0.0594 -0.269027,-0.2184 m -0.454142,0.11018 -0.09956,-1.40886 c -0.02642,-0.34376 0.207827,-0.63739 0.536271,-0.66167 l 0.579906,-0.0329 c 0.328378,-0.0264 0.604403,0.22501 0.620115,0.578 l 0.101342,1.41055 c 0.0264,0.34245 -0.20961,0.63739 -0.537989,0.66168 l -0.579907,0.0329 c -0.324878,0.0263 -0.593905,-0.22699 -0.620113,-0.57933 z"
       id="path68"
       style="clip-rule:evenodd;fill:#000000;fill-opacity:1;fill-rule:evenodd;stroke:none;stroke-width:1.74626017" />
    <path
       inkscape:connector-curvature="0"
       d="m 33.669003,267.16916 -0.01775,-1.26567 c -0.0086,-0.15173 0.09434,-0.23554 0.244533,-0.23554 l 0.310949,-0.008 c 0.160691,0 0.253249,0.0764 0.25853,0.23557 l 0.01775,1.25694 c 0.01063,0.15173 -0.09255,0.23557 -0.242817,0.23557 l -0.31095,0.008 c -0.158969,0 -0.251529,-0.0752 -0.260245,-0.22698 m -0.46114,0.0858 -0.02443,-1.41934 c -0.0086,-0.35101 0.242816,-0.61955 0.569411,-0.62682 l 0.579908,-0.0129 c 0.333593,-0.008 0.586908,0.25999 0.59562,0.60375 l 0.0264,1.41933 c 0.0086,0.35103 -0.242817,0.62816 -0.569414,0.62816 l -0.579906,0.0129 c -0.337092,0 -0.586908,-0.26855 -0.597404,-0.611 z"
       id="path70"
       style="clip-rule:evenodd;fill:#000000;fill-opacity:1;fill-rule:evenodd;stroke:none;stroke-width:1.74626017" />
    <path
       inkscape:connector-curvature="0"
       d="m 25.061042,263.0439 h 1.552853 c 0.193898,0 0.286457,0.12538 0.286457,0.31078 v 0.386 c 0,0.19398 -0.09255,0.31077 -0.286457,0.31077 h -1.552853 c -0.190398,0 -0.293451,-0.11548 -0.293451,-0.31077 v -0.386 c 0,-0.1854 0.10134,-0.31078 0.293451,-0.31078 m -0.09957,-0.56941 h 1.743253 c 0.429716,0 0.765072,0.31077 0.765072,0.72097 v 0.71228 c 0,0.40182 -0.333659,0.71228 -0.765072,0.71228 h -1.743253 c -0.429714,0 -0.765076,-0.31079 -0.765076,-0.71228 v -0.71228 c 0.0017,-0.41041 0.335375,-0.72097 0.765076,-0.72097 z"
       id="path72"
       style="clip-rule:evenodd;fill:#000000;fill-opacity:1;fill-rule:evenodd;stroke:none;stroke-width:1.74626017" />
    <path
       inkscape:connector-curvature="0"
       d="m 31.48732,256.78709 h 2.29348 c 0.141479,0 0.293451,0.10287 0.293451,0.2184 v 0.16966 c 0,0.11676 -0.151973,0.20982 -0.293451,0.20982 h -2.29348 c -0.143257,0 -0.258529,-0.0924 -0.258529,-0.20982 v -0.16966 c 0,-0.11548 0.115275,-0.2184 0.258529,-0.2184"
       id="path74"
       style="clip-rule:evenodd;fill:#000000;fill-opacity:1;fill-rule:evenodd;stroke:none;stroke-width:1.74626017" />
    <path
       inkscape:connector-curvature="0"
       d="m 27.377225,256.78709 h 2.291736 c 0.151974,0 0.293452,0.10287 0.293452,0.2184 v 0.16966 c 0,0.11676 -0.14148,0.20982 -0.293452,0.20982 h -2.291736 c -0.143257,0 -0.258529,-0.0924 -0.258529,-0.20982 v -0.16966 c -0.0017,-0.11548 0.115275,-0.2184 0.258529,-0.2184"
       id="path76"
       style="clip-rule:evenodd;fill:#000000;fill-opacity:1;fill-rule:evenodd;stroke:none;stroke-width:1.74626017" />
    <path
       inkscape:connector-curvature="0"
       d="m 19.438266,256.78709 h 1.720547 c 0.124047,0 0.218324,0.10287 0.218324,0.2184 v 0.16966 c 0,0.11676 -0.09434,0.20982 -0.218324,0.20982 h -1.720547 c -0.117052,0 -0.192115,-0.0924 -0.192115,-0.20982 v -0.16966 c 0,-0.11548 0.07684,-0.2184 0.192115,-0.2184"
       id="path78"
       style="clip-rule:evenodd;fill:#000000;fill-opacity:1;fill-rule:evenodd;stroke:none;stroke-width:1.74626017" />
    <path
       inkscape:connector-curvature="0"
       d="m 23.071496,256.78709 h 2.29872 c 0.143255,0 0.286455,0.10287 0.286455,0.2184 v 0.16966 c 0,0.11676 -0.143257,0.20982 -0.286455,0.20982 h -2.29872 c -0.141481,0 -0.25853,-0.0924 -0.25853,-0.20982 v -0.16966 c 0,-0.11548 0.117051,-0.2184 0.25853,-0.2184"
       id="path80"
       style="clip-rule:evenodd;fill:#000000;fill-opacity:1;fill-rule:evenodd;stroke:none;stroke-width:1.74626017" />
    <path
       inkscape:connector-curvature="0"
       d="m 21.328242,256.55312 h 1.552861 c 0.190399,0 0.293454,0.11677 0.293454,0.31077 v 0.37742 c 0,0.19399 -0.103061,0.31077 -0.293454,0.31077 h -1.552861 c -0.193896,0 -0.286453,-0.11548 -0.286453,-0.31077 v -0.37742 c 0,-0.192 0.09254,-0.31077 0.286453,-0.31077 m -0.09254,-0.57802 h 1.743257 c 0.429716,0 0.765072,0.31079 0.765072,0.71927 v 0.71229 c 0,0.41172 -0.333594,0.72277 -0.765072,0.72277 h -1.743257 c -0.429718,0 -0.765073,-0.31078 -0.765073,-0.72277 v -0.71229 c 0.0017,-0.40843 0.335375,-0.71927 0.765073,-0.71927 z"
       id="path82"
       style="clip-rule:evenodd;fill:#000000;fill-opacity:1;fill-rule:evenodd;stroke:none;stroke-width:1.74626017" />
    <path
       inkscape:connector-curvature="0"
       d="m 29.911757,256.55312 h 1.552853 c 0.190398,0 0.282958,0.11677 0.282958,0.31077 v 0.37742 c 0,0.19399 -0.09256,0.31077 -0.282958,0.31077 h -1.552853 c -0.193897,0 -0.286454,-0.11548 -0.286454,-0.31077 v -0.37742 c 0,-0.192 0.09255,-0.31077 0.286454,-0.31077 m -0.09255,-0.57802 h 1.736269 c 0.436713,0 0.770313,0.31079 0.770313,0.71927 v 0.71229 c 0,0.41172 -0.333659,0.72277 -0.770313,0.72277 h -1.736268 c -0.436712,0 -0.772062,-0.31078 -0.772062,-0.72277 v -0.71229 c 0,-0.40843 0.335375,-0.71927 0.772061,-0.71927 z"
       id="path84"
       style="clip-rule:evenodd;fill:#000000;fill-opacity:1;fill-rule:evenodd;stroke:none;stroke-width:1.74626017" />
    <path
       inkscape:connector-curvature="0"
       d="m 25.583317,256.55312 h 1.552861 c 0.190397,0 0.293453,0.11677 0.293453,0.31077 v 0.37742 c 0,0.19399 -0.10306,0.31077 -0.293453,0.31077 h -1.552861 c -0.185183,0 -0.286455,-0.11548 -0.286455,-0.31077 v -0.37742 c -0.0017,-0.192 0.09956,-0.31077 0.286455,-0.31077 m -0.09255,-0.57802 h 1.743252 c 0.429716,0 0.765079,0.31079 0.765079,0.71927 v 0.71229 c 0,0.41172 -0.333594,0.72277 -0.765079,0.72277 h -1.743252 c -0.429715,0 -0.76507,-0.31078 -0.76507,-0.72277 v -0.71229 c 0,-0.40843 0.335375,-0.71927 0.76507,-0.71927 z"
       id="path86"
       style="clip-rule:evenodd;fill:#000000;fill-opacity:1;fill-rule:evenodd;stroke:none;stroke-width:1.74626017" />
    <path
       inkscape:connector-curvature="0"
       d="m 25.321309,269.16636 h 1.552853 c 0.192115,0 0.284738,0.11677 0.284738,0.31079 v 0.37741 c 0,0.194 -0.09255,0.31079 -0.284738,0.31079 h -1.552853 c -0.192116,0 -0.284739,-0.11549 -0.284739,-0.31079 v -0.37741 c 0,-0.19398 0.09255,-0.31079 0.284739,-0.31079 m -0.09434,-0.57799 h 1.746744 c 0.426215,0 0.765077,0.31078 0.765077,0.71926 v 0.71229 c 0,0.41172 -0.337158,0.72276 -0.765077,0.72276 h -1.746744 c -0.434934,0 -0.770314,-0.31076 -0.770314,-0.72276 v -0.71229 c 0,-0.40842 0.335375,-0.71926 0.770314,-0.71926 z"
       id="path88"
       style="clip-rule:evenodd;fill:#000000;fill-opacity:1;fill-rule:evenodd;stroke:none;stroke-width:1.74626017" />
    <path
       inkscape:connector-curvature="0"
       d="m 26.327434,275.51398 h 1.552854 c 0.192113,0 0.284738,0.12611 0.284738,0.31077 v 0.38731 c 0,0.19201 -0.09255,0.31078 -0.284738,0.31078 h -1.552854 c -0.192114,0 -0.293453,-0.11676 -0.293453,-0.31078 v -0.38731 c 0,-0.18474 0.101339,-0.31077 0.293453,-0.31077 m -0.09957,-0.57075 h 1.746745 c 0.426215,0 0.763328,0.31078 0.763328,0.72105 v 0.714 c 0,0.40116 -0.335377,0.71228 -0.763328,0.71228 h -1.746745 c -0.426217,0 -0.765078,-0.31079 -0.765078,-0.71228 v -0.714 c 0,-0.4104 0.338875,-0.72105 0.765078,-0.72105 z"
       id="path90"
       style="clip-rule:evenodd;fill:#000000;fill-opacity:1;fill-rule:evenodd;stroke:none;stroke-width:1.74626017" />
    <path
       inkscape:connector-curvature="0"
       d="m 28.140553,280.34453 h 1.55286 c 0.190398,0 0.284739,0.11677 0.284739,0.31076 v 0.37874 c 0,0.19004 -0.09434,0.31078 -0.284739,0.31078 h -1.55286 c -0.193897,0 -0.286454,-0.11878 -0.286454,-0.31078 v -0.37874 c 0,-0.19201 0.09254,-0.31076 0.286454,-0.31076 m -0.09084,-0.57932 h 1.74325 c 0.429718,0 0.765078,0.32133 0.765078,0.72276 v 0.71227 c 0,0.4104 -0.333657,0.721 -0.765078,0.721 H 28.04971 c -0.436714,0 -0.765079,-0.31078 -0.765079,-0.721 v -0.71227 c 0,-0.40118 0.328377,-0.72276 0.765079,-0.72276 z"
       id="path92"
       style="clip-rule:evenodd;fill:#000000;fill-opacity:1;fill-rule:evenodd;stroke:none;stroke-width:1.74626017" />
    <path
       inkscape:connector-curvature="0"
       d="m 29.651491,269.16636 h 1.552854 c 0.192114,0 0.284738,0.11677 0.284738,0.31079 v 0.37741 c 0,0.194 -0.09254,0.31079 -0.284738,0.31079 h -1.552854 c -0.192114,0 -0.293452,-0.11549 -0.293452,-0.31079 v -0.37741 c 0,-0.19398 0.09956,-0.31079 0.293452,-0.31079 m -0.10134,-0.57799 h 1.745 c 0.427935,0 0.765072,0.31078 0.765072,0.71926 v 0.71229 c 0,0.41172 -0.335376,0.72276 -0.765072,0.72276 h -1.745 c -0.427934,0 -0.765071,-0.31076 -0.765071,-0.72276 v -0.71229 c 0.0017,-0.40842 0.337092,-0.71926 0.765071,-0.71926 z"
       id="path94"
       style="clip-rule:evenodd;fill:#000000;fill-opacity:1;fill-rule:evenodd;stroke:none;stroke-width:1.74626017" />
    <path
       inkscape:connector-curvature="0"
       d="m 30.648882,275.51398 h 1.55286 c 0.193899,0 0.293454,0.12611 0.293454,0.31077 v 0.38731 c 0,0.19201 -0.09956,0.31078 -0.293454,0.31078 h -1.55286 c -0.190396,0 -0.284737,-0.11676 -0.284737,-0.31078 v -0.38731 c 0,-0.18474 0.09434,-0.31077 0.284737,-0.31077 m -0.09254,-0.57075 h 1.746743 c 0.426217,0 0.763327,0.31078 0.763327,0.72105 v 0.714 c 0,0.40116 -0.335374,0.71228 -0.763327,0.71228 h -1.746743 c -0.426219,0 -0.765072,-0.31079 -0.765072,-0.71228 v -0.714 c 0.0017,-0.4104 0.338873,-0.72105 0.765072,-0.72105 z"
       id="path96"
       style="clip-rule:evenodd;fill:#000000;fill-opacity:1;fill-rule:evenodd;stroke:none;stroke-width:1.74626017" />
    <path
       inkscape:connector-curvature="0"
       d="m 32.470737,280.34453 h 1.55286 c 0.192113,0 0.284738,0.11677 0.284738,0.31076 v 0.37874 c 0,0.19004 -0.09254,0.31078 -0.284738,0.31078 h -1.55286 c -0.193897,0 -0.286455,-0.11878 -0.286455,-0.31078 v -0.37874 c 0,-0.19201 0.09255,-0.31076 0.286455,-0.31076 m -0.101339,-0.57932 h 1.744999 c 0.436715,0 0.765073,0.32133 0.765073,0.72276 v 0.71227 c 0,0.4104 -0.328378,0.721 -0.765073,0.721 h -1.744992 c -0.427935,0 -0.765078,-0.31078 -0.765078,-0.721 v -0.71227 c 0.0017,-0.40118 0.337156,-0.72276 0.765071,-0.72276 z"
       id="path98"
       style="clip-rule:evenodd;fill:#000000;fill-opacity:1;fill-rule:evenodd;stroke:none;stroke-width:1.74626017" />
    <path
       inkscape:connector-curvature="0"
       d="m 21.06798,269.16636 h 1.552859 c 0.192114,0 0.284738,0.11677 0.284738,0.31079 v 0.37741 c 0,0.194 -0.09254,0.31079 -0.284738,0.31079 H 21.06798 c -0.192117,0 -0.284741,-0.11549 -0.284741,-0.31079 v -0.37741 c -0.0017,-0.19398 0.09084,-0.31079 0.284741,-0.31079 m -0.09434,-0.57799 h 1.738009 c 0.436714,0 0.772064,0.31078 0.772064,0.71926 v 0.71229 c 0,0.41172 -0.335377,0.72276 -0.772064,0.72276 H 20.97364 c -0.434933,0 -0.770314,-0.31076 -0.770314,-0.72276 v -0.71229 c -0.0017,-0.40842 0.335376,-0.71926 0.770314,-0.71926 z"
       id="path100"
       style="clip-rule:evenodd;fill:#000000;fill-opacity:1;fill-rule:evenodd;stroke:none;stroke-width:1.74626017" />
    <path
       inkscape:connector-curvature="0"
       d="m 22.074103,275.51398 h 1.55286 c 0.192115,0 0.28474,0.12611 0.28474,0.31077 v 0.38731 c 0,0.19201 -0.09254,0.31078 -0.28474,0.31078 h -1.55286 c -0.192114,0 -0.293453,-0.11676 -0.293453,-0.31078 v -0.38731 c 0,-0.18474 0.09956,-0.31077 0.293453,-0.31077 m -0.101266,-0.57075 h 1.746742 c 0.426218,0 0.763329,0.31078 0.763329,0.72105 v 0.714 c 0,0.40116 -0.335374,0.71228 -0.763329,0.71228 h -1.746742 c -0.426218,0 -0.765079,-0.31079 -0.765079,-0.71228 v -0.714 c 0.0017,-0.4104 0.338874,-0.72105 0.765079,-0.72105 z"
       id="path102"
       style="clip-rule:evenodd;fill:#000000;fill-opacity:1;fill-rule:evenodd;stroke:none;stroke-width:1.74626017" />
    <path
       inkscape:connector-curvature="0"
       d="m 23.887229,280.34453 h 1.552854 c 0.192116,0 0.284739,0.11677 0.284739,0.31076 v 0.37874 c 0,0.19004 -0.09255,0.31078 -0.284739,0.31078 h -1.552854 c -0.193896,0 -0.286456,-0.11878 -0.286456,-0.31078 v -0.37874 c 0,-0.19201 0.09255,-0.31076 0.286456,-0.31076 m -0.09255,-0.57932 h 1.743253 c 0.429715,0 0.765075,0.32133 0.765075,0.72276 v 0.71227 c 0,0.4104 -0.333657,0.721 -0.765075,0.721 h -1.743253 c -0.436714,0 -0.765077,-0.31078 -0.765077,-0.721 v -0.71227 c 0.0017,-0.40118 0.328378,-0.72276 0.765077,-0.72276 z"
       id="path104"
       style="clip-rule:evenodd;fill:#000000;fill-opacity:1;fill-rule:evenodd;stroke:none;stroke-width:1.74626017" />
    <path
       inkscape:connector-curvature="0"
       d="m 22.81298,269.40206 h 2.291728 c 0.141481,0 0.293452,0.10103 0.293452,0.21839 v 0.16765 c 0,0.11678 -0.151973,0.20985 -0.293452,0.20985 H 22.81298 c -0.143256,0 -0.25853,-0.0924 -0.25853,-0.20985 v -0.16765 c -0.0017,-0.11877 0.115275,-0.21839 0.25853,-0.21839"
       id="path106"
       style="clip-rule:evenodd;fill:#000000;fill-opacity:1;fill-rule:evenodd;stroke:none;stroke-width:1.74626017" />
    <path
       inkscape:connector-curvature="0"
       d="m 23.819105,275.75838 h 2.293477 c 0.14148,0 0.282957,0.0924 0.282957,0.21641 v 0.15905 c 0,0.12591 -0.141481,0.2184 -0.282957,0.2184 h -2.293477 c -0.150197,0 -0.267244,-0.0924 -0.267244,-0.2184 v -0.15905 c -0.0017,-0.12408 0.117052,-0.21641 0.267244,-0.21641"
       id="path108"
       style="clip-rule:evenodd;fill:#000000;fill-opacity:1;fill-rule:evenodd;stroke:none;stroke-width:1.74626017" />
    <path
       inkscape:connector-curvature="0"
       d="m 25.632231,280.58022 h 2.291728 c 0.150198,0 0.293453,0.10157 0.293453,0.21839 v 0.16765 c 0,0.11677 -0.143257,0.21841 -0.293453,0.21841 h -2.291728 c -0.141481,0 -0.260246,-0.10159 -0.260246,-0.21841 v -0.16765 c -0.0017,-0.11676 0.118773,-0.21839 0.260246,-0.21839"
       id="path110"
       style="clip-rule:evenodd;fill:#000000;fill-opacity:1;fill-rule:evenodd;stroke:none;stroke-width:1.74626017" />
    <path
       inkscape:connector-curvature="0"
       d="m 19.179751,269.40206 h 1.720538 c 0.118774,0 0.218325,0.10103 0.218325,0.21839 v 0.16765 c 0,0.11678 -0.09957,0.20985 -0.218325,0.20985 h -1.720538 c -0.117052,0 -0.192117,-0.0924 -0.192117,-0.20985 v -0.16765 c -0.0017,-0.11877 0.07514,-0.21839 0.192117,-0.21839"
       id="path112"
       style="clip-rule:evenodd;fill:#000000;fill-opacity:1;fill-rule:evenodd;stroke:none;stroke-width:1.74626017" />
    <path
       inkscape:connector-curvature="0"
       d="m 20.185876,275.75838 h 1.718798 c 0.118773,0 0.211325,0.0924 0.211325,0.21641 v 0.15905 c 0,0.12591 -0.09255,0.2184 -0.211325,0.2184 h -1.718798 c -0.12577,0 -0.192115,-0.0924 -0.192115,-0.2184 v -0.15905 c 0,-0.12408 0.06635,-0.21641 0.192115,-0.21641"
       id="path114"
       style="clip-rule:evenodd;fill:#000000;fill-opacity:1;fill-rule:evenodd;stroke:none;stroke-width:1.74626017" />
    <path
       inkscape:connector-curvature="0"
       d="m 21.754454,280.58022 h 1.914432 c 0.132764,0 0.242817,0.10157 0.242817,0.21839 v 0.16765 c 0,0.11677 -0.110056,0.21841 -0.242817,0.21841 h -1.914432 c -0.132764,0 -0.207893,-0.10159 -0.207893,-0.21841 v -0.16765 c 0,-0.11676 0.07514,-0.21839 0.207893,-0.21839"
       id="path116"
       style="clip-rule:evenodd;fill:#000000;fill-opacity:1;fill-rule:evenodd;stroke:none;stroke-width:1.74626017" />
    <path
       inkscape:connector-curvature="0"
       d="m 27.116959,269.40206 h 2.289986 c 0.143257,0 0.286456,0.10103 0.286456,0.21839 v 0.16765 c 0,0.11678 -0.143257,0.20985 -0.286456,0.20985 h -2.289986 c -0.143257,0 -0.269027,-0.0924 -0.269027,-0.20985 v -0.16765 c 0,-0.11877 0.12577,-0.21839 0.269027,-0.21839"
       id="path118"
       style="clip-rule:evenodd;fill:#000000;fill-opacity:1;fill-rule:evenodd;stroke:none;stroke-width:1.74626017" />
    <path
       inkscape:connector-curvature="0"
       d="m 28.116099,275.75838 h 2.296972 c 0.143256,0 0.286455,0.0924 0.286455,0.21641 v 0.15905 c 0,0.12591 -0.143258,0.2184 -0.286455,0.2184 h -2.296972 c -0.14148,0 -0.260244,-0.0924 -0.260244,-0.2184 v -0.15905 c -0.0017,-0.12408 0.118773,-0.21641 0.260244,-0.21641"
       id="path120"
       style="clip-rule:evenodd;fill:#000000;fill-opacity:1;fill-rule:evenodd;stroke:none;stroke-width:1.74626017" />
    <path
       inkscape:connector-curvature="0"
       d="m 29.93621,280.58022 h 2.291731 c 0.143256,0 0.284737,0.10157 0.284737,0.21839 v 0.16765 c 0,0.11677 -0.141481,0.21841 -0.284737,0.21841 H 29.93621 c -0.143257,0 -0.267244,-0.10159 -0.267244,-0.21841 v -0.16765 c -0.0017,-0.11676 0.123993,-0.21839 0.267244,-0.21839"
       id="path122"
       style="clip-rule:evenodd;fill:#000000;fill-opacity:1;fill-rule:evenodd;stroke:none;stroke-width:1.74626017" />
    <path
       inkscape:connector-curvature="0"
       d="m 31.228804,269.40206 h 2.289981 c 0.143256,0 0.286454,0.10103 0.286454,0.21839 v 0.16765 c 0,0.11678 -0.143258,0.20985 -0.286454,0.20985 h -2.289981 c -0.143256,0 -0.269024,-0.0924 -0.269024,-0.20985 v -0.16765 c 0,-0.11877 0.125768,-0.21839 0.269024,-0.21839"
       id="path124"
       style="clip-rule:evenodd;fill:#000000;fill-opacity:1;fill-rule:evenodd;stroke:none;stroke-width:1.74626017" />
    <path
       inkscape:connector-curvature="0"
       d="m 32.226197,275.75838 h 2.298712 c 0.141482,0 0.284739,0.0924 0.284739,0.21641 v 0.15905 c 0,0.12591 -0.143256,0.2184 -0.284739,0.2184 h -2.298712 c -0.141481,0 -0.260246,-0.0924 -0.260246,-0.2184 v -0.15905 c 0,-0.12408 0.118772,-0.21641 0.260246,-0.21641"
       id="path126"
       style="clip-rule:evenodd;fill:#000000;fill-opacity:1;fill-rule:evenodd;stroke:none;stroke-width:1.74626017" />
    <path
       inkscape:connector-curvature="0"
       d="m 33.948486,280.68148 1.718798,-1.50833 c 0.110058,-0.10287 0.27596,-0.12538 0.351088,-0.0329 l 0.118775,0.12537 c 0.07513,0.0924 0.03302,0.25865 -0.07684,0.35102 l -1.720549,1.51706 c -0.108281,0.0924 -0.258529,0.10286 -0.342372,0.0129 l -0.110056,-0.12538 c -0.07514,-0.0858 -0.04887,-0.23553 0.06139,-0.33517"
       id="path128"
       style="clip-rule:evenodd;fill:#000000;fill-opacity:1;fill-rule:evenodd;stroke:none;stroke-width:1.74626017" />
    <path
       inkscape:connector-curvature="0"
       d="m 27.015653,252.65305 h 1.552854 c 0.193896,0 0.293453,-0.11675 0.293453,-0.31078 v -0.37675 c 0,-0.192 -0.09956,-0.30878 -0.293453,-0.30878 h -1.552854 c -0.190397,0 -0.282956,0.11676 -0.282956,0.30878 v 0.37675 c 0,0.19399 0.09084,0.31078 0.282956,0.31078 m -0.09255,0.57933 h 1.746743 c 0.426219,0 0.763331,-0.31078 0.763331,-0.72099 v -0.71229 c 0,-0.41041 -0.335377,-0.72276 -0.763331,-0.72276 h -1.746743 c -0.426217,0 -0.765078,0.31079 -0.765078,0.72276 v 0.71229 c 0.0017,0.41039 0.338873,0.72099 0.765078,0.72099 z"
       id="path130"
       style="clip-rule:evenodd;fill:#000000;fill-opacity:1;fill-rule:evenodd;stroke:none;stroke-width:1.74626017" />
    <path
       inkscape:connector-curvature="0"
       d="m 31.344087,252.65305 h 1.552861 c 0.193896,0 0.286454,-0.11675 0.286454,-0.31078 v -0.37675 c 0,-0.192 -0.09256,-0.30878 -0.286454,-0.30878 h -1.552861 c -0.190397,0 -0.282957,0.11676 -0.282957,0.30878 v 0.37675 c 0,0.19399 0.09256,0.31078 0.282957,0.31078 m -0.09784,0.57933 h 1.745001 c 0.434931,0 0.772063,-0.31078 0.772063,-0.72099 v -0.71229 c 0,-0.41041 -0.337091,-0.72276 -0.772063,-0.72276 h -1.745001 c -0.429715,0 -0.765071,0.31079 -0.765071,0.72276 v 0.71229 c 0,0.41039 0.335374,0.72099 0.765071,0.72099 z"
       id="path132"
       style="clip-rule:evenodd;fill:#000000;fill-opacity:1;fill-rule:evenodd;stroke:none;stroke-width:1.74626017" />
    <path
       inkscape:connector-curvature="0"
       d="m 22.760579,252.65305 h 1.552854 c 0.193898,0 0.293454,-0.11675 0.293454,-0.31078 v -0.37675 c 0,-0.192 -0.09957,-0.30878 -0.293454,-0.30878 h -1.552854 c -0.190397,0 -0.282956,0.11676 -0.282956,0.30878 v 0.37675 c 0,0.19399 0.09254,0.31078 0.282956,0.31078 m -0.09084,0.57933 h 1.746751 c 0.426216,0 0.765071,-0.31078 0.765071,-0.72099 v -0.71229 c 0,-0.41041 -0.337158,-0.72276 -0.765071,-0.72276 h -1.746751 c -0.426216,0 -0.765072,0.31079 -0.765072,0.72276 v 0.71229 c 0,0.41039 0.337093,0.72099 0.765072,0.72099 z"
       id="path134"
       style="clip-rule:evenodd;fill:#000000;fill-opacity:1;fill-rule:evenodd;stroke:none;stroke-width:1.74626017" />
    <path
       inkscape:connector-curvature="0"
       d="m 24.507323,252.41914 h 2.29872 c 0.141482,0 0.282957,-0.10102 0.282957,-0.21839 v -0.16766 c 0,-0.11677 -0.141479,-0.20915 -0.282957,-0.20915 h -2.29872 c -0.143257,0 -0.260245,0.0904 -0.260245,0.20915 v 0.16766 c 0,0.11676 0.11705,0.21839 0.260245,0.21839"
       id="path136"
       style="clip-rule:evenodd;fill:#000000;fill-opacity:1;fill-rule:evenodd;stroke:none;stroke-width:1.74626017" />
    <path
       inkscape:connector-curvature="0"
       d="m 20.631298,252.41914 h 1.91268 c 0.136262,0 0.246316,-0.10102 0.246316,-0.21839 v -0.16766 c 0,-0.11677 -0.110056,-0.20915 -0.246316,-0.20915 h -1.91268 c -0.134486,0 -0.20961,0.0904 -0.20961,0.20915 v 0.16766 c -0.0017,0.11676 0.07513,0.21839 0.20961,0.21839"
       id="path138"
       style="clip-rule:evenodd;fill:#000000;fill-opacity:1;fill-rule:evenodd;stroke:none;stroke-width:1.74626017" />
    <path
       inkscape:connector-curvature="0"
       d="m 28.811303,252.41914 h 2.291736 c 0.143258,0 0.293453,-0.10102 0.293453,-0.21839 v -0.16766 c 0,-0.11677 -0.150197,-0.20915 -0.293453,-0.20915 h -2.291736 c -0.14148,0 -0.260246,0.0904 -0.260246,0.20915 v 0.16766 c 0,0.11676 0.118773,0.21839 0.260246,0.21839"
       id="path140"
       style="clip-rule:evenodd;fill:#000000;fill-opacity:1;fill-rule:evenodd;stroke:none;stroke-width:1.74626017" />
    <path
       inkscape:connector-curvature="0"
       d="m 32.821838,252.31786 1.720539,1.51713 c 0.110058,0.0924 0.275959,0.11677 0.359803,0.0264 l 0.110056,-0.1261 c 0.07513,-0.0924 0.035,-0.2514 -0.07513,-0.35236 l -1.718798,-1.51883 c -0.110057,-0.0924 -0.260244,-0.10102 -0.344089,-0.008 l -0.110057,0.12537 c -0.07513,0.0944 -0.05084,0.23754 0.05744,0.33718"
       id="path142"
       style="clip-rule:evenodd;fill:#000000;fill-opacity:1;fill-rule:evenodd;stroke:none;stroke-width:1.74626017" />
    <path
       inkscape:connector-curvature="0"
       d="m 29.751056,249.11615 h 1.299577 c 0.160691,0 0.235819,-0.10159 0.235819,-0.25998 v -0.32793 c 0,-0.15904 -0.07513,-0.25996 -0.235819,-0.25996 h -1.299577 c -0.160692,0 -0.242819,0.10158 -0.242819,0.25996 v 0.32793 c 0.0017,0.15906 0.08213,0.25998 0.242819,0.25998 m -0.08386,0.48497 h 1.458536 c 0.361584,0 0.637543,-0.26723 0.637543,-0.61299 v -0.60371 c 0,-0.34377 -0.275959,-0.6044 -0.637543,-0.6044 h -1.458534 c -0.352869,0 -0.637542,0.25864 -0.637542,0.6044 v 0.60371 c 0,0.34576 0.284739,0.61299 0.637542,0.61299 z"
       id="path144"
       style="clip-rule:evenodd;fill:#000000;fill-opacity:1;fill-rule:evenodd;stroke:none;stroke-width:1.74626017" />
    <path
       inkscape:connector-curvature="0"
       d="m 33.35983,249.11615 h 1.30133 c 0.158968,0 0.234036,-0.10159 0.234036,-0.25998 v -0.32793 c 0,-0.15904 -0.07513,-0.25996 -0.234036,-0.25996 h -1.30133 c -0.158968,0 -0.234036,0.10158 -0.234036,0.25996 v 0.32793 c 0,0.15906 0.07513,0.25998 0.234036,0.25998 m -0.07513,0.48497 h 1.451547 c 0.361585,0 0.637543,-0.26723 0.637543,-0.61299 v -0.60371 c 0,-0.34377 -0.275958,-0.6044 -0.637543,-0.6044 H 33.2847 c -0.359804,0 -0.646325,0.25864 -0.646325,0.6044 v 0.60371 c 0,0.34576 0.286455,0.61299 0.646325,0.61299 z"
       id="path146"
       style="clip-rule:evenodd;fill:#000000;fill-opacity:1;fill-rule:evenodd;stroke:none;stroke-width:1.74626017" />
    <path
       inkscape:connector-curvature="0"
       d="m 26.210403,249.11615 h 1.301322 c 0.158969,0 0.244532,-0.10159 0.244532,-0.25998 v -0.32793 c 0,-0.15904 -0.08555,-0.25996 -0.244532,-0.25996 h -1.301322 c -0.158969,0 -0.235818,0.10158 -0.235818,0.25996 v 0.32793 c 0,0.15906 0.07683,0.25998 0.235818,0.25998 m -0.07513,0.48497 h 1.460275 c 0.351087,0 0.637544,-0.26723 0.637544,-0.61299 v -0.60371 c 0,-0.34377 -0.286457,-0.6044 -0.637544,-0.6044 h -1.460275 c -0.361586,0 -0.637544,0.25864 -0.637544,0.6044 v 0.60371 c 0,0.34576 0.275958,0.61299 0.637544,0.61299 z"
       id="path148"
       style="clip-rule:evenodd;fill:#000000;fill-opacity:1;fill-rule:evenodd;stroke:none;stroke-width:1.74626017" />
    <path
       inkscape:connector-curvature="0"
       d="m 27.635748,248.93108 h 1.91443 c 0.125769,0 0.242819,-0.0838 0.242819,-0.18476 v -0.14313 c 0,-0.10157 -0.115275,-0.18342 -0.242819,-0.18342 h -1.91443 c -0.115275,0 -0.218325,0.0838 -0.218325,0.18342 v 0.14313 c 0,0.10101 0.103062,0.18476 0.218325,0.18476"
       id="path150"
       style="clip-rule:evenodd;fill:#000000;fill-opacity:1;fill-rule:evenodd;stroke:none;stroke-width:1.74626017" />
    <path
       inkscape:connector-curvature="0"
       d="m 31.228804,248.93108 h 1.921417 c 0.117052,0 0.23582,-0.0838 0.23582,-0.18476 v -0.14313 c 0,-0.10157 -0.117052,-0.18342 -0.23582,-0.18342 h -1.921417 c -0.117051,0 -0.218323,0.0838 -0.218323,0.18342 v 0.14313 c 0,0.10101 0.10134,0.18476 0.218323,0.18476"
       id="path152"
       style="clip-rule:evenodd;fill:#000000;fill-opacity:1;fill-rule:evenodd;stroke:none;stroke-width:1.74626017" />
    <path
       inkscape:connector-curvature="0"
       d="m 34.593034,248.88916 1.023595,1.63584 c 0.05942,0.10103 0.193896,0.15905 0.277741,0.11019 l 0.117053,-0.0838 c 0.08386,-0.0527 0.09254,-0.19201 0.02443,-0.30221 l -1.023568,-1.62711 c -0.05744,-0.10102 -0.1834,-0.14312 -0.267245,-0.0924 l -0.117052,0.0752 c -0.08563,0.0595 -0.10134,0.18344 -0.035,0.2844"
       id="path154"
       style="clip-rule:evenodd;fill:#000000;fill-opacity:1;fill-rule:evenodd;stroke:none;stroke-width:1.74626017" />
    <path
       inkscape:connector-curvature="0"
       d="m 31.136228,284.00198 h 1.299578 c 0.160691,0 0.235818,0.10816 0.235818,0.26723 v 0.31935 c 0,0.16965 -0.07514,0.26723 -0.235818,0.26723 h -1.299578 c -0.160691,0 -0.23582,-0.0996 -0.23582,-0.26723 v -0.31935 c 0,-0.16033 0.07513,-0.26723 0.23582,-0.26723 m -0.07513,-0.47839 h 1.449798 c 0.361584,0 0.646325,0.25998 0.646325,0.60442 v 0.60372 c 0,0.34377 -0.284741,0.60374 -0.646325,0.60374 h -1.449798 c -0.361584,0 -0.648039,-0.25865 -0.648039,-0.60374 v -0.60372 c 0,-0.34377 0.286455,-0.60442 0.648039,-0.60442 z"
       id="path156"
       style="clip-rule:evenodd;fill:#000000;fill-opacity:1;fill-rule:evenodd;stroke:none;stroke-width:1.74626017" />
    <path
       inkscape:connector-curvature="0"
       d="m 34.745002,284.00198 h 1.299579 c 0.158969,0 0.244535,0.10816 0.244535,0.26723 v 0.31935 c 0,0.16965 -0.08563,0.26723 -0.244535,0.26723 h -1.299579 c -0.16069,0 -0.235818,-0.0996 -0.235818,-0.26723 v -0.31935 c 0,-0.16033 0.07513,-0.26723 0.235818,-0.26723 m -0.07683,-0.47839 h 1.460274 c 0.352872,0 0.637543,0.25998 0.637543,0.60442 v 0.60372 c 0,0.34377 -0.284737,0.60374 -0.637543,0.60374 h -1.460274 c -0.359801,0 -0.635826,-0.25865 -0.635826,-0.60374 v -0.60372 c -0.0017,-0.34377 0.275959,-0.60442 0.635826,-0.60442 z"
       id="path158"
       style="clip-rule:evenodd;fill:#000000;fill-opacity:1;fill-rule:evenodd;stroke:none;stroke-width:1.74626017" />
    <path
       inkscape:connector-curvature="0"
       d="m 27.604303,284.00198 h 1.290846 c 0.160689,0 0.244533,0.10816 0.244533,0.26723 v 0.31935 c 0,0.16965 -0.08386,0.26723 -0.244533,0.26723 h -1.290846 c -0.158969,0 -0.244533,-0.0996 -0.244533,-0.26723 v -0.31935 c 0,-0.16033 0.08563,-0.26723 0.244533,-0.26723 m -0.08386,-0.47839 h 1.460281 c 0.359803,0 0.637544,0.25998 0.637544,0.60442 v 0.60372 c 0,0.34377 -0.277741,0.60374 -0.637544,0.60374 h -1.460279 c -0.361585,0 -0.637542,-0.25865 -0.637542,-0.60374 v -0.60372 c 0,-0.34377 0.275957,-0.60442 0.637542,-0.60442 z"
       id="path160"
       style="clip-rule:evenodd;fill:#000000;fill-opacity:1;fill-rule:evenodd;stroke:none;stroke-width:1.74626017" />
    <path
       inkscape:connector-curvature="0"
       d="m 29.020914,284.19398 h 1.921422 c 0.118774,0 0.235818,0.0753 0.235818,0.17808 v 0.14111 c 0,0.10103 -0.115275,0.18342 -0.235818,0.18342 h -1.921422 c -0.115275,0 -0.218326,-0.0838 -0.218326,-0.18342 v -0.14111 c 0,-0.10285 0.103063,-0.17808 0.218326,-0.17808"
       id="path162"
       style="clip-rule:evenodd;fill:#000000;fill-opacity:1;fill-rule:evenodd;stroke:none;stroke-width:1.74626017" />
    <path
       inkscape:connector-curvature="0"
       d="m 32.620962,284.19398 h 1.914431 c 0.117052,0 0.242817,0.0753 0.242817,0.17808 v 0.14111 c 0,0.10103 -0.124047,0.18342 -0.242817,0.18342 h -1.914431 c -0.125769,0 -0.225321,-0.0838 -0.225321,-0.18342 v -0.14111 c 0,-0.10285 0.09956,-0.17808 0.225321,-0.17808"
       id="path164"
       style="clip-rule:evenodd;fill:#000000;fill-opacity:1;fill-rule:evenodd;stroke:none;stroke-width:1.74626017" />
    <path
       inkscape:connector-curvature="0"
       d="m 35.751129,283.97579 1.082978,-1.59216 c 0.06635,-0.10285 0.200895,-0.15172 0.284737,-0.10285 l 0.117052,0.0858 c 0.07513,0.0593 0.07513,0.20059 0.0074,0.30021 l -1.081237,1.59387 c -0.06635,0.10086 -0.1834,0.13452 -0.267244,0.0764 l -0.117051,-0.0764 c -0.08555,-0.0595 -0.09255,-0.18344 -0.02641,-0.28439"
       id="path166"
       style="clip-rule:evenodd;fill:#000000;fill-opacity:1;fill-rule:evenodd;stroke:none;stroke-width:1.74626017" />
  </g>
</svg>
