<?xml version="1.0" encoding="UTF-8" standalone="no"?>
<!-- Created with Inkscape (http://www.inkscape.org/) -->

<svg
   xmlns:dc="http://purl.org/dc/elements/1.1/"
   xmlns:cc="http://creativecommons.org/ns#"
   xmlns:rdf="http://www.w3.org/1999/02/22-rdf-syntax-ns#"
   xmlns:svg="http://www.w3.org/2000/svg"
   xmlns="http://www.w3.org/2000/svg"
   xmlns:sodipodi="http://sodipodi.sourceforge.net/DTD/sodipodi-0.dtd"
   xmlns:inkscape="http://www.inkscape.org/namespaces/inkscape"
   width="83.372002mm"
   height="83.372002mm"
   viewBox="0 0 83.372003 83.372002"
   version="1.1"
   id="svg8"
   inkscape:version="0.92.2 (5c3e80d, 2017-08-06)"
   sodipodi:docname="94.svg">
  <defs
     id="defs2" />
  <sodipodi:namedview
     id="base"
     pagecolor="#ffffff"
     bordercolor="#666666"
     borderopacity="1.0"
     inkscape:pageopacity="0.0"
     inkscape:pageshadow="2"
     inkscape:zoom="1.4142136"
     inkscape:cx="73.137641"
     inkscape:cy="105.09261"
     inkscape:document-units="mm"
     inkscape:current-layer="layer1"
     showgrid="false"
     fit-margin-top="0"
     fit-margin-left="0"
     fit-margin-right="0"
     fit-margin-bottom="0"
     inkscape:window-width="1920"
     inkscape:window-height="1057"
     inkscape:window-x="-8"
     inkscape:window-y="-8"
     inkscape:window-maximized="1"
     inkscape:snap-global="false" />
  <metadata
     id="metadata5">
    <rdf:RDF>
      <cc:Work
         rdf:about="">
        <dc:format>image/svg+xml</dc:format>
        <dc:type
           rdf:resource="http://purl.org/dc/dcmitype/StillImage" />
        <dc:title></dc:title>
      </cc:Work>
    </rdf:RDF>
  </metadata>
  <g
     inkscape:label="Layer 1"
     inkscape:groupmode="layer"
     id="layer1"
     transform="translate(-32.500418,-170.72758)">
    <rect
       style="opacity:1;fill:#000000;fill-opacity:1;fill-rule:nonzero;stroke:none;stroke-width:21.49853706;stroke-linecap:square;stroke-linejoin:round;stroke-miterlimit:4;stroke-dasharray:none;stroke-opacity:1;paint-order:stroke fill markers"
       id="rect815"
       width="60"
       height="60"
       x="-127.74125"
       y="172.6568"
       rx="3.0009999"
       ry="3.0009999"
       transform="rotate(-45)" />
    <rect
       ry="1.5"
       rx="1.5"
       y="174.1568"
       x="-126.24125"
       height="57"
       width="57"
       id="rect817"
       style="opacity:1;fill:#fad20a;fill-opacity:1;fill-rule:nonzero;stroke:none;stroke-width:20.42361069;stroke-linecap:square;stroke-linejoin:round;stroke-miterlimit:4;stroke-dasharray:none;stroke-opacity:1;paint-order:stroke fill markers"
       transform="rotate(-45)" />
    <path
       sodipodi:nodetypes="cccccccccccccccccccc"
       inkscape:connector-curvature="0"
       id="path4965"
       style="fill:#000000;fill-opacity:1;fill-rule:nonzero;stroke:none;stroke-width:1.55077243"
       d="m 55.955566,229.21353 h 23.400466 l 1.199997,-4.10035 -1.4,-4.09965 4.399999,-8.6 0.199999,-4.30001 -2.399998,-2.29999 1.600003,-2.4 -3,-1.3 -0.800001,-3.3 3.4,-3.4 -2e-6,-4.00001 -3.200002,-2.5 1.000001,-2.69999 -1.399995,-3.8 -5e-6,-2.00001 32.000002,32.00001 -17.999999,18 H 55.955567 Z" />
    <path
       d="m 78.356026,191.61352 -0.999999,0.8 -1.199995,0.10001 -0.600002,1.1 0.199998,0.2 4e-6,0.7 h 0.199998 l 0.600002,0.5 0.399994,0.89999 0.900002,1e-5 0.5,-0.5 1.200247,-0.10001 0.599751,-1.29999 -0.200001,-2.50001"
       style="fill:#000000;fill-opacity:1;fill-rule:nonzero;stroke:none;stroke-width:0.0883392"
       id="path2443"
       inkscape:connector-curvature="0"
       sodipodi:nodetypes="cccccccccccccc" />
    <path
       d="m 69.556027,220.71353 0.9,-5.20001 2.599999,-2.3 1.300002,1.10001 1.900004,-1.1 0.699997,4.1 -2.499998,3.7 -1.600002,-0.9 -1.200347,1.6"
       style="fill:#000000;fill-opacity:1;fill-rule:nonzero;stroke:none;stroke-width:0.0883392"
       id="path2447"
       inkscape:connector-curvature="0"
       sodipodi:nodetypes="ccccccccc" />
    <path
       d="m 72.356031,203.91353 1.8,-0.3 0.699995,-1.10001 2.100001,-0.9 -0.299995,-2.29999 -1.300002,-1.4 -2.800004,-0.7 -2.8,1.3 -1.800001,0.59999 -0.899993,2.50001 1.999999,1.1 0.5,0.9"
       style="fill:#000000;fill-opacity:1;fill-rule:nonzero;stroke:none;stroke-width:0.0883392"
       id="path2457"
       inkscape:connector-curvature="0"
       sodipodi:nodetypes="cccccccccccc" />
    <path
       d="m 72.056032,206.91353 1.399996,-0.6 1.200003,-0.2 0.599996,0.19999 0.500005,10e-6 0.499996,0.2 0.800002,0.2 1.000002,1.6 -0.300006,1.39999 -0.7,0.9 -1.099997,0.50001 -0.900002,-0.20001 -0.899999,-0.79999 -0.699998,-0.9 -0.9,-0.6 -0.700004,-0.10001"
       style="fill:#000000;fill-opacity:1;fill-rule:nonzero;stroke:none;stroke-width:0.0883392"
       id="path2461"
       inkscape:connector-curvature="0"
       sodipodi:nodetypes="cccccccccccccccc" />
    <path
       d="m 69.95603,210.91353 -0.600001,0.8 -1.300003,0.49999 -0.599996,-0.19999 -0.699999,-1 -0.200002,-0.9 0.4,-0.4 0.899997,-0.30001 0.800002,0.20001 0.599999,-0.4 1.4,0.19999 0.700005,1.20001"
       style="fill:#000000;fill-opacity:1;fill-rule:nonzero;stroke:none;stroke-width:0.0883392"
       id="path2465"
       inkscape:connector-curvature="0"
       sodipodi:nodetypes="cccccccccccc" />
    <path
       inkscape:connector-curvature="0"
       id="path1974"
       style="fill:#000000;fill-opacity:1;fill-rule:nonzero;stroke:none;stroke-width:0.09829061"
       d="m 77.656032,185.11353 0.599995,0.49999 0.199998,1.5 -0.699998,0.4 -2.099999,-0.9 -0.499999,-1.19999 1.499999,0.1"
       sodipodi:nodetypes="ccccccc" />
    <path
       inkscape:connector-curvature="0"
       id="path1968"
       style="fill:#000000;fill-opacity:1;fill-rule:nonzero;stroke:none;stroke-width:0.17003146"
       d="m 65.456028,220.11353 1.100001,0.3 0.4,1.1 h 0.299998 v 1.5 l -0.399995,0.9 h -0.600004 l -1.800002,0.69999 -0.7,-0.7 -0.899995,-0.29999 -0.600004,-3 1.899998,-1e-5"
       sodipodi:nodetypes="cccccccccccc" />
    <path
       d="m 73.356031,225.01353 1,0.5 -0.200005,1.09999 -0.499998,0.20001 0.200003,0.6 h -0.700004 l -0.599996,-0.2 -1.3,-1.5 -0.100006,-0.30001 -0.199998,-0.19999"
       style="fill:#000000;fill-opacity:1;fill-rule:nonzero;stroke:none;stroke-width:0.09829061"
       id="path2006"
       inkscape:connector-curvature="0"
       sodipodi:nodetypes="cccccccccc" />
  </g>
</svg>
