<?xml version="1.0" encoding="UTF-8" standalone="no"?>
<!-- Created with Inkscape (http://www.inkscape.org/) -->

<svg
   xmlns:dc="http://purl.org/dc/elements/1.1/"
   xmlns:cc="http://creativecommons.org/ns#"
   xmlns:rdf="http://www.w3.org/1999/02/22-rdf-syntax-ns#"
   xmlns:svg="http://www.w3.org/2000/svg"
   xmlns="http://www.w3.org/2000/svg"
   xmlns:sodipodi="http://sodipodi.sourceforge.net/DTD/sodipodi-0.dtd"
   xmlns:inkscape="http://www.inkscape.org/namespaces/inkscape"
   width="91mm"
   height="80.537003mm"
   viewBox="0 0 91 80.537006"
   version="1.1"
   id="svg863"
   inkscape:version="0.92.2 (5c3e80d, 2017-08-06)"
   sodipodi:docname="96.svg">
  <defs
     id="defs857" />
  <sodipodi:namedview
     id="base"
     pagecolor="#ffffff"
     bordercolor="#666666"
     borderopacity="1.0"
     inkscape:pageopacity="0.0"
     inkscape:pageshadow="2"
     inkscape:zoom="1.4"
     inkscape:cx="155.32137"
     inkscape:cy="131.84867"
     inkscape:document-units="mm"
     inkscape:current-layer="layer1"
     showgrid="false"
     inkscape:window-width="1920"
     inkscape:window-height="1057"
     inkscape:window-x="-8"
     inkscape:window-y="-8"
     inkscape:window-maximized="1"
     inkscape:snap-global="false"
     fit-margin-top="0"
     fit-margin-left="0"
     fit-margin-right="0"
     fit-margin-bottom="0"
     inkscape:lockguides="true" />
  <metadata
     id="metadata860">
    <rdf:RDF>
      <cc:Work
         rdf:about="">
        <dc:format>image/svg+xml</dc:format>
        <dc:type
           rdf:resource="http://purl.org/dc/dcmitype/StillImage" />
        <dc:title></dc:title>
      </cc:Work>
    </rdf:RDF>
  </metadata>
  <g
     inkscape:label="Layer 1"
     inkscape:groupmode="layer"
     id="layer1"
     transform="translate(-12.964951,-206.4632)">
    <path
       inkscape:connector-curvature="0"
       id="path814"
       d="m 97.515364,280.55016 -39.050472,-67.63735 -39.05034,67.6373 z"
       inkscape:transform-center-y="4.393997"
       inkscape:transform-center-x="27.135595"
       style="opacity:1;fill:none;fill-opacity:1;stroke:#dc0a14;stroke-width:11.9000721;stroke-linecap:butt;stroke-linejoin:round;stroke-miterlimit:4;stroke-dasharray:none;stroke-dashoffset:0;stroke-opacity:1"
       sodipodi:nodetypes="cccc" />
    <path
       sodipodi:nodetypes="cccc"
       inkscape:connector-curvature="0"
       id="path818"
       d="m 94.137972,278.60018 -35.67303,-61.78751 -35.67304,61.78747 z"
       style="opacity:1;fill:#ffffff;fill-opacity:1;stroke:none;stroke-width:11.93114281;stroke-linecap:butt;stroke-linejoin:round;stroke-miterlimit:4;stroke-dasharray:none;stroke-dashoffset:0;stroke-opacity:1" />
    <path
       style="fill:#000000;fill-opacity:1;fill-rule:nonzero;stroke:none;stroke-width:0.09829061"
       d="m 63.942014,230.4999 26.558,46.00029 -59.070063,-2e-4 v -1.1 h 19.270063 v -1.5 l 2.7,-4.5 -0.9,-5.1 2.8,-1.8 0.6,-2.7 1.2,-1.6 2.5,-1 0.9,-1.6 -2.1,-4.5 0.9,-1.5 -0.1,-2 -1.9,-2 -0.8,-2.7 0.2,-3 3.9,-1.7 v -2.4 l 2.4,-1.4 v -1.7 z"
       id="path1962"
       inkscape:connector-curvature="0"
       sodipodi:nodetypes="cccccccccccccccccccccccc" />
    <path
       inkscape:connector-curvature="0"
       id="path1964"
       style="fill:#000000;fill-opacity:1;fill-rule:nonzero;stroke:none;stroke-width:0.09829061"
       d="m 60.600014,232.29999 0.4,0.8 -0.2,0.1 -0.2,0.8 -0.8,-0.3 -1,0.3 -0.2,-0.2 0.1,-0.4 -0.3,-0.6 0.8,-0.7 0.4,-0.7 1,-0.6 0.3,-0.1"
       sodipodi:nodetypes="ccccccccccccc" />
    <path
       inkscape:connector-curvature="0"
       id="path1966"
       style="fill:#000000;fill-opacity:1;fill-rule:nonzero;stroke:none;stroke-width:0.09829061"
       d="m 54.300014,244.79999 0.2,0.4 1,0.7 0.2,1.9 -1,0.7 0.2,0.8 -1.3,0.8 v 0.2 l -1.1,-0.2 -1.3,-1 v -1.2 l 1.6,-1.5 -0.3,-0.6 0.1,-0.2"
       sodipodi:nodetypes="cccccccccccccc" />
    <path
       inkscape:connector-curvature="0"
       id="path1968"
       style="fill:#000000;fill-opacity:1;fill-rule:nonzero;stroke:none;stroke-width:0.09829061"
       d="m 53.300014,253.59999 0.6,0.2 0.2,0.6 h 0.2 v 0.9 l -0.2,0.5 h -0.4 l -1,0.4 -0.4,-0.4 -0.55601,-0.18998 -0.34399,-1.71002 h 1.1"
       sodipodi:nodetypes="cccccccccccc" />
    <path
       inkscape:connector-curvature="0"
       id="path1970"
       style="fill:#000000;fill-opacity:1;fill-rule:nonzero;stroke:none;stroke-width:0.09829061"
       d="m 48.500014,256.19999 1.7,0.2 v 1.6 l 1.6,1.4 v 1.1 l -0.8,1.6 -1.7,0.6 -2.6,-0.4 -0.8,-1.8 -1.4,-1.3 1.8,-1.4 0.4,-1"
       sodipodi:nodetypes="cccccccccccc" />
    <path
       inkscape:connector-curvature="0"
       id="path1972"
       style="fill:#000000;fill-opacity:1;fill-rule:nonzero;stroke:none;stroke-width:0.09829061"
       d="m 43.500014,271.19999 1,-3.2 2.4,-1.3 0.9,0.6 1.8,-0.6 0.6,2.4 -2.2,2.3 -1.4,-0.6 -0.9,1.2"
       sodipodi:nodetypes="ccccccccc" />
    <path
       inkscape:connector-curvature="0"
       id="path1974"
       style="fill:#000000;fill-opacity:1;fill-rule:nonzero;stroke:none;stroke-width:0.09829061"
       d="m 41.000014,265.49999 0.5,0.5 0.3,1.5 -0.6,0.4 -2.2,-0.9 -0.5,-1.2 1.5,0.1"
       sodipodi:nodetypes="ccccccc" />
    <path
       d="m 54.300014,236.89999 1,0.5 -0.2,1.1 -0.5,0.2 0.2,0.6 h -0.7 l -0.6,-0.2 -1.3,-1.5 -0.1,-0.3 -0.2,-0.2"
       style="fill:#000000;fill-opacity:1;fill-rule:nonzero;stroke:none;stroke-width:0.09829061"
       id="path2006"
       inkscape:connector-curvature="0"
       sodipodi:nodetypes="cccccccccc" />
  </g>
</svg>
