<?xml version="1.0" encoding="UTF-8" standalone="no"?>
<!-- Generator: Adobe Illustrator 16.0.3, SVG Export Plug-In . SVG Version: 6.00 Build 0)  -->

<svg
   xmlns:dc="http://purl.org/dc/elements/1.1/"
   xmlns:cc="http://creativecommons.org/ns#"
   xmlns:rdf="http://www.w3.org/1999/02/22-rdf-syntax-ns#"
   xmlns:svg="http://www.w3.org/2000/svg"
   xmlns="http://www.w3.org/2000/svg"
   xmlns:sodipodi="http://sodipodi.sourceforge.net/DTD/sodipodi-0.dtd"
   xmlns:inkscape="http://www.inkscape.org/namespaces/inkscape"
   version="1.1"
   id="Layer_1"
   x="0px"
   y="0px"
   width="350mm"
   height="350mm"
   viewBox="0 0 1322.8346 1322.8346"
   enable-background="new 0 0 767.59 767.59"
   xml:space="preserve"
   sodipodi:docname="Warning_-_Radio-Frequency_Radiation_Hazard_Sign_diagonal.svg"
   inkscape:version="0.92.3 (2405546, 2018-03-11)"><metadata
   id="metadata101"><rdf:RDF><cc:Work
       rdf:about=""><dc:format>image/svg+xml</dc:format><dc:type
         rdf:resource="http://purl.org/dc/dcmitype/StillImage" /><dc:title></dc:title></cc:Work></rdf:RDF></metadata><defs
   id="defs99" /><sodipodi:namedview
   pagecolor="#ffffff"
   bordercolor="#666666"
   borderopacity="1"
   objecttolerance="10"
   gridtolerance="10"
   guidetolerance="10"
   inkscape:pageopacity="0"
   inkscape:pageshadow="2"
   inkscape:window-width="1920"
   inkscape:window-height="1026"
   id="namedview97"
   showgrid="false"
   inkscape:measure-start="76.4705,1323"
   inkscape:measure-end="76.4705,1266.08"
   showguides="true"
   inkscape:guide-bbox="true"
   units="mm"
   inkscape:zoom="1.7392326"
   inkscape:cx="301.11211"
   inkscape:cy="387.57763"
   inkscape:window-x="0"
   inkscape:window-y="25"
   inkscape:window-maximized="1"
   inkscape:current-layer="Layer_1"><sodipodi:guide
     position="350.45688,730.99938"
     orientation="1,0"
     id="guide908"
     inkscape:locked="false" /><sodipodi:guide
     position="278.28364,761.25525"
     orientation="1,0"
     id="guide910"
     inkscape:locked="false" /></sodipodi:namedview>
<g
   id="g14"
   transform="matrix(1.7238153,-1.7238153,1.7238153,1.7238153,-661.63596,661.39554)">
	<g
   id="g10">
		<g
   id="g4">
			<polygon
   points="735.522,383.795 32.07,383.795 383.795,735.52 "
   id="polygon2" />
		</g>
		<g
   id="g8">
			<polygon
   points="735.522,383.795 383.795,32.07 32.07,383.795 "
   id="polygon6"
   style="fill:#d92c27" />
		</g>
	</g>
	<path
   d="M 383.795,32.07 735.522,383.795 383.795,735.52 32.07,383.795 383.795,32.07 M 383.795,0 367.76,16.035 16.035,367.76 0,383.795 16.035,399.83 367.76,751.555 383.795,767.59 399.831,751.555 751.555,399.83 767.59,383.795 751.555,367.76 399.831,16.035 Z"
   id="path12"
   inkscape:connector-curvature="0"
   style="fill:#d2d1d4" />
</g>
<rect
   x="-881.53125"
   y="907.82172"
   width="1782.6042"
   height="55.282967"
   id="rect16"
   transform="rotate(-45)"
   style="fill:#d2d1d4;stroke-width:2.43784308" />
<g
   id="g32"
   transform="matrix(1.7238153,-1.7238153,1.7238153,1.7238153,-661.63596,661.39554)">
	<path
   d="m 198.049,240.663 h 14.835 l 6.927,45.634 8.644,-45.634 h 13.294 l 8.142,45.899 8.073,-45.899 h 12.209 l -14.164,66.322 h -13.004 l -8.797,-45.875 -8.992,45.875 h -12.857 z"
   id="path18"
   inkscape:connector-curvature="0"
   style="fill:#d2d1d4" />
	<path
   d="m 286.705,240.663 h 14.599 l 18.853,65.984 h -14.831 l -3.292,-13.632 h -18.586 l -3.236,13.632 h -13.325 z m 12.6,41.04 -6.668,-27.033 -6.396,27.033 z"
   id="path20"
   inkscape:connector-curvature="0"
   style="fill:#d2d1d4" />
	<path
   d="m 325.667,240.663 h 20.737 c 4.027,0 7.112,0.186 9.257,0.556 2.143,0.371 4.31,1.37 6.502,2.997 2.19,1.627 3.907,3.851 5.147,6.671 1.24,2.82 1.861,5.986 1.861,9.499 0,8.25 -3.094,14.051 -9.281,17.402 l 12.134,28.859 H 356.24 l -8.826,-26.104 h -7.245 v 26.104 h -14.502 z m 14.502,10.683 v 18.514 h 6.381 c 5.671,0 8.508,-3.174 8.508,-9.523 0,-2.191 -0.42,-3.988 -1.258,-5.39 -0.838,-1.402 -1.813,-2.352 -2.924,-2.853 -1.112,-0.499 -2.748,-0.749 -4.906,-0.749 h -5.801 z"
   id="path22"
   inkscape:connector-curvature="0"
   style="fill:#d2d1d4" />
	<path
   d="m 379.082,240.663 h 16.096 l 16.969,40.992 v -40.992 h 11.215 v 65.984 h -12.955 l -20.109,-47.76 v 47.76 h -11.214 z"
   id="path24"
   inkscape:connector-curvature="0"
   style="fill:#d2d1d4" />
	<path
   d="m 435.252,240.663 h 14.502 v 65.984 h -14.502 z"
   id="path26"
   inkscape:connector-curvature="0"
   style="fill:#d2d1d4" />
	<path
   d="m 461.696,240.663 h 16.096 l 16.969,40.992 v -40.992 h 11.215 v 65.984 H 493.02 l -20.109,-47.76 v 47.76 h -11.215 z"
   id="path28"
   inkscape:connector-curvature="0"
   style="fill:#d2d1d4" />
	<path
   d="m 541.022,271.455 h 22.912 v 35.191 h -6.141 l -1.885,-7.541 c -3.545,5.704 -8.863,8.556 -15.951,8.556 -7.51,0 -13.463,-2.956 -17.861,-8.871 -4.398,-5.913 -6.6,-13.865 -6.6,-23.855 0,-10.86 2.168,-19.457 6.502,-25.789 4.334,-6.333 10.738,-9.499 19.215,-9.499 13.504,0 21.076,7.541 22.721,22.623 l -13.053,2.127 c -0.9,-8.636 -4.029,-12.955 -9.377,-12.955 -3.256,0 -5.857,1.595 -7.807,4.786 -1.951,3.19 -2.926,9.233 -2.926,18.127 0,7.896 0.949,13.455 2.852,16.677 1.902,3.223 4.689,4.834 8.363,4.834 5.896,0 8.861,-4.366 8.895,-13.1 h -9.861 v -11.311 z"
   id="path30"
   inkscape:connector-curvature="0"
   style="fill:#d2d1d4" />
</g>
<g
   id="g94"
   transform="matrix(1.7238153,-1.7238153,1.7238153,1.7238153,-661.63596,661.39554)">
	<path
   d="m 114.771,327.152 h 7.541 c 1.465,0 2.587,0.067 3.366,0.202 0.779,0.135 1.567,0.498 2.364,1.09 0.797,0.592 1.421,1.4 1.872,2.426 0.451,1.026 0.677,2.177 0.677,3.454 0,3 -1.125,5.109 -3.375,6.328 l 4.412,10.494 h -5.74 l -3.209,-9.492 h -2.635 v 9.492 h -5.273 z m 5.273,3.885 v 6.732 h 2.32 c 2.063,0 3.094,-1.154 3.094,-3.463 0,-0.797 -0.152,-1.45 -0.457,-1.96 -0.305,-0.51 -0.659,-0.855 -1.063,-1.037 -0.404,-0.182 -0.999,-0.272 -1.784,-0.272 z"
   id="path34"
   inkscape:connector-curvature="0"
   style="fill:#d2d1d4" />
	<path
   d="m 138.624,327.152 h 5.309 l 6.855,23.994 h -5.393 l -1.197,-4.957 h -6.758 l -1.177,4.957 h -4.846 z m 4.582,14.924 -2.425,-9.83 -2.326,9.83 z"
   id="path36"
   inkscape:connector-curvature="0"
   style="fill:#d2d1d4" />
	<path
   d="m 152.792,327.152 h 5.678 c 2.461,0 4.462,0.331 6.003,0.993 1.541,0.662 2.774,1.884 3.7,3.665 0.926,1.781 1.389,4.189 1.389,7.225 0,2.156 -0.281,4.069 -0.844,5.739 -0.563,1.67 -1.301,2.985 -2.215,3.946 -0.914,0.961 -1.945,1.605 -3.094,1.934 -1.149,0.329 -2.584,0.492 -4.307,0.492 h -6.311 z m 5.273,4.114 v 15.768 h 0.899 c 1.222,0 2.168,-0.234 2.838,-0.704 0.67,-0.469 1.205,-1.288 1.604,-2.455 0.399,-1.167 0.6,-2.854 0.6,-5.06 0,-2.041 -0.221,-3.613 -0.661,-4.716 -0.441,-1.103 -0.993,-1.851 -1.657,-2.244 -0.664,-0.393 -1.572,-0.59 -2.724,-0.59 z"
   id="path38"
   inkscape:connector-curvature="0"
   style="fill:#d2d1d4" />
	<path
   d="m 173.024,327.152 h 5.273 v 23.994 h -5.273 z"
   id="path40"
   inkscape:connector-curvature="0"
   style="fill:#d2d1d4" />
	<path
   d="m 199.392,339.141 c 0,8.25 -2.9,12.375 -8.701,12.375 -2.883,0 -5.057,-1.052 -6.521,-3.155 -1.464,-2.103 -2.197,-5.177 -2.197,-9.22 0,-8.238 2.9,-12.357 8.701,-12.357 2.836,0 4.998,1.031 6.486,3.094 1.488,2.063 2.232,5.149 2.232,9.263 z m -5.555,0 c 0,-3.234 -0.252,-5.388 -0.756,-6.46 -0.504,-1.072 -1.307,-1.608 -2.408,-1.608 -1.09,0 -1.887,0.539 -2.391,1.617 -0.504,1.078 -0.756,3.229 -0.756,6.451 0,3.164 0.249,5.303 0.747,6.416 0.498,1.113 1.298,1.67 2.399,1.67 1.09,0 1.89,-0.533 2.399,-1.6 0.509,-1.067 0.766,-3.229 0.766,-6.486 z"
   id="path42"
   inkscape:connector-curvature="0"
   style="fill:#d2d1d4" />
	<path
   d="m 202.134,340.107 h 7.154 v 3.885 h -7.154 z"
   id="path44"
   inkscape:connector-curvature="0"
   style="fill:#d2d1d4" />
	<path
   d="m 212.874,327.152 h 14.238 v 4.113 h -8.965 v 6.275 h 6.908 v 4.113 h -6.908 v 9.492 h -5.273 z"
   id="path46"
   inkscape:connector-curvature="0"
   style="fill:#d2d1d4" />
	<path
   d="m 228.817,327.152 h 7.541 c 1.465,0 2.587,0.067 3.366,0.202 0.779,0.135 1.567,0.498 2.364,1.09 0.797,0.592 1.421,1.4 1.872,2.426 0.451,1.026 0.677,2.177 0.677,3.454 0,3 -1.125,5.109 -3.375,6.328 l 4.412,10.494 h -5.74 l -3.209,-9.492 h -2.635 v 9.492 h -5.273 z m 5.274,3.885 v 6.732 h 2.32 c 2.063,0 3.094,-1.154 3.094,-3.463 0,-0.797 -0.152,-1.45 -0.457,-1.96 -0.305,-0.51 -0.659,-0.855 -1.063,-1.037 -0.404,-0.182 -0.999,-0.272 -1.784,-0.272 z"
   id="path48"
   inkscape:connector-curvature="0"
   style="fill:#d2d1d4" />
	<path
   d="m 248.435,327.152 h 14.59 v 4.113 h -9.316 v 5.572 h 7.242 v 4.113 h -7.242 v 5.906 h 9.316 v 4.289 h -14.59 z"
   id="path50"
   inkscape:connector-curvature="0"
   style="fill:#d2d1d4" />
	<path
   d="m 281.288,351.99 v 3.797 c -0.762,0.211 -1.512,0.316 -2.25,0.316 -3,0 -4.594,-1.541 -4.781,-4.623 -0.434,0.023 -0.768,0.035 -1.002,0.035 -2.59,0 -4.655,-0.993 -6.196,-2.979 -1.541,-1.986 -2.312,-5.118 -2.312,-9.396 0,-8.238 2.9,-12.357 8.701,-12.357 2.871,0 5.042,1.043 6.513,3.129 1.471,2.086 2.206,5.092 2.206,9.018 0,2.824 -0.325,5.188 -0.976,7.093 -0.651,1.905 -1.79,3.384 -3.419,4.438 0.012,0.691 0.158,1.163 0.439,1.415 0.281,0.252 0.709,0.378 1.283,0.378 0.54,0 1.138,-0.088 1.794,-0.264 z m -4.676,-12.849 c 0,-3.234 -0.252,-5.388 -0.756,-6.46 -0.504,-1.072 -1.307,-1.608 -2.408,-1.608 -1.09,0 -1.887,0.539 -2.391,1.617 -0.504,1.078 -0.756,3.229 -0.756,6.451 0,3.164 0.249,5.303 0.747,6.416 0.498,1.113 1.298,1.67 2.399,1.67 1.09,0 1.89,-0.533 2.399,-1.6 0.509,-1.067 0.766,-3.229 0.766,-6.486 z"
   id="path52"
   inkscape:connector-curvature="0"
   style="fill:#d2d1d4" />
	<path
   d="m 285.841,327.152 h 5.273 v 13.711 c 0,1.934 0.088,3.281 0.264,4.043 0.176,0.762 0.542,1.339 1.099,1.731 0.557,0.392 1.239,0.589 2.048,0.589 0.879,0 1.576,-0.217 2.092,-0.65 0.516,-0.433 0.832,-1.008 0.949,-1.723 0.117,-0.715 0.176,-2.045 0.176,-3.99 v -13.711 h 4.412 v 13.5 c 0,2.695 -0.155,4.705 -0.466,6.029 -0.311,1.324 -1.102,2.461 -2.373,3.41 -1.271,0.949 -3.021,1.424 -5.247,1.424 -2.086,0 -3.727,-0.349 -4.922,-1.046 -1.195,-0.697 -2.045,-1.676 -2.549,-2.936 -0.504,-1.26 -0.756,-3.483 -0.756,-6.671 z"
   id="path54"
   inkscape:connector-curvature="0"
   style="fill:#d2d1d4" />
	<path
   d="m 306.688,327.152 h 14.591 v 4.113 h -9.316 v 5.572 h 7.242 v 4.113 h -7.242 v 5.906 h 9.316 v 4.289 h -14.591 z"
   id="path56"
   inkscape:connector-curvature="0"
   style="fill:#d2d1d4" />
	<path
   d="m 323.669,327.152 h 5.854 l 6.17,14.906 v -14.906 h 4.078 v 23.994 h -4.712 l -7.313,-17.367 v 17.367 h -4.078 v -23.994 z"
   id="path58"
   inkscape:connector-curvature="0"
   style="fill:#d2d1d4" />
	<path
   d="m 355.767,342.41 4.869,0.299 c -0.176,2.602 -1.002,4.72 -2.479,6.354 -1.478,1.634 -3.429,2.452 -5.854,2.452 -2.953,0 -5.203,-1.096 -6.75,-3.287 -1.547,-2.191 -2.319,-5.209 -2.319,-9.053 0,-3.879 0.768,-6.914 2.303,-9.105 1.535,-2.191 3.813,-3.287 6.838,-3.287 5.004,0 7.729,3.094 8.174,9.281 l -4.815,0.352 c -0.13,-3.563 -1.242,-5.344 -3.341,-5.344 -1.102,0 -1.978,0.574 -2.628,1.723 -0.649,1.149 -0.976,3.375 -0.976,6.68 0,2.953 0.299,4.983 0.896,6.091 0.598,1.108 1.494,1.661 2.689,1.661 1.922,0 3.053,-1.606 3.393,-4.817 z"
   id="path60"
   inkscape:connector-curvature="0"
   style="fill:#d2d1d4" />
	<path
   d="m 360.442,327.152 h 5.809 l 3.386,8.746 3.621,-8.746 h 5.149 l -6.662,13.852 v 10.143 h -5.273 v -10.143 z"
   id="path62"
   inkscape:connector-curvature="0"
   style="fill:#d2d1d4" />
	<path
   d="m 386.387,327.152 h 7.541 c 1.465,0 2.588,0.067 3.367,0.202 0.779,0.135 1.566,0.498 2.363,1.09 0.797,0.592 1.422,1.4 1.873,2.426 0.451,1.026 0.676,2.177 0.676,3.454 0,3 -1.125,5.109 -3.375,6.328 l 4.412,10.494 h -5.74 l -3.209,-9.492 h -2.635 v 9.492 h -5.273 z m 5.274,3.885 v 6.732 h 2.32 c 2.063,0 3.094,-1.154 3.094,-3.463 0,-0.797 -0.152,-1.45 -0.457,-1.96 -0.305,-0.51 -0.658,-0.855 -1.063,-1.037 -0.405,-0.182 -1,-0.272 -1.783,-0.272 z"
   id="path64"
   inkscape:connector-curvature="0"
   style="fill:#d2d1d4" />
	<path
   d="m 410.241,327.152 h 5.309 l 6.855,23.994 h -5.395 l -1.195,-4.957 h -6.76 l -1.176,4.957 h -4.846 z m 4.582,14.924 -2.424,-9.83 -2.326,9.83 z"
   id="path66"
   inkscape:connector-curvature="0"
   style="fill:#d2d1d4" />
	<path
   d="m 424.409,327.152 h 5.678 c 2.461,0 4.463,0.331 6.004,0.993 1.541,0.662 2.773,1.884 3.699,3.665 0.926,1.781 1.389,4.189 1.389,7.225 0,2.156 -0.279,4.069 -0.844,5.739 -0.563,1.67 -1.301,2.985 -2.215,3.946 -0.914,0.961 -1.945,1.605 -3.094,1.934 -1.148,0.329 -2.584,0.492 -4.307,0.492 h -6.311 v -23.994 z m 5.273,4.114 v 15.768 h 0.9 c 1.221,0 2.168,-0.234 2.838,-0.704 0.67,-0.469 1.205,-1.288 1.604,-2.455 0.399,-1.167 0.6,-2.854 0.6,-5.06 0,-2.041 -0.221,-3.613 -0.66,-4.716 -0.439,-1.103 -0.994,-1.851 -1.658,-2.244 -0.664,-0.393 -1.57,-0.59 -2.723,-0.59 z"
   id="path68"
   inkscape:connector-curvature="0"
   style="fill:#d2d1d4" />
	<path
   d="m 444.641,327.152 h 5.273 v 23.994 h -5.273 z"
   id="path70"
   inkscape:connector-curvature="0"
   style="fill:#d2d1d4" />
	<path
   d="m 458.688,327.152 h 5.309 l 6.854,23.994 h -5.393 l -1.197,-4.957 h -6.758 l -1.178,4.957 h -4.846 z m 4.58,14.924 -2.424,-9.83 -2.326,9.83 z"
   id="path72"
   inkscape:connector-curvature="0"
   style="fill:#d2d1d4" />
	<path
   d="m 469.514,327.152 h 14.959 v 4.5 h -4.902 v 19.494 h -5.273 v -19.494 h -4.781 v -4.5 z"
   id="path74"
   inkscape:connector-curvature="0"
   style="fill:#d2d1d4" />
	<path
   d="m 486.301,327.152 h 5.273 v 23.994 h -5.273 z"
   id="path76"
   inkscape:connector-curvature="0"
   style="fill:#d2d1d4" />
	<path
   d="m 512.668,339.141 c 0,8.25 -2.9,12.375 -8.701,12.375 -2.883,0 -5.057,-1.052 -6.52,-3.155 -1.465,-2.103 -2.197,-5.177 -2.197,-9.22 0,-8.238 2.9,-12.357 8.701,-12.357 2.836,0 4.998,1.031 6.486,3.094 1.487,2.063 2.231,5.149 2.231,9.263 z m -5.554,0 c 0,-3.234 -0.252,-5.388 -0.756,-6.46 -0.504,-1.072 -1.307,-1.608 -2.408,-1.608 -1.09,0 -1.887,0.539 -2.391,1.617 -0.504,1.078 -0.756,3.229 -0.756,6.451 0,3.164 0.248,5.303 0.746,6.416 0.498,1.113 1.299,1.67 2.4,1.67 1.09,0 1.889,-0.533 2.398,-1.6 0.509,-1.067 0.767,-3.229 0.767,-6.486 z"
   id="path78"
   inkscape:connector-curvature="0"
   style="fill:#d2d1d4" />
	<path
   d="m 516.149,327.152 h 5.854 l 6.17,14.906 v -14.906 h 4.078 v 23.994 h -4.711 l -7.313,-17.367 v 17.367 h -4.078 z"
   id="path80"
   inkscape:connector-curvature="0"
   style="fill:#d2d1d4" />
	<path
   d="m 543.29,327.152 h 5.273 v 9.686 h 5.766 v -9.686 h 5.273 v 23.994 h -5.273 v -9.809 h -5.766 v 9.809 h -5.273 z"
   id="path82"
   inkscape:connector-curvature="0"
   style="fill:#d2d1d4" />
	<path
   d="m 568.374,327.152 h 5.309 l 6.855,23.994 h -5.393 l -1.197,-4.957 h -6.758 l -1.178,4.957 h -4.846 z m 4.582,14.924 -2.424,-9.83 -2.326,9.83 z"
   id="path84"
   inkscape:connector-curvature="0"
   style="fill:#d2d1d4" />
	<path
   d="m 581.047,327.152 h 15.416 v 3.744 l -10.031,15.961 h 10.35 v 4.289 h -16.473 v -3.674 l 10.098,-16.031 h -9.357 v -4.289 z"
   id="path86"
   inkscape:connector-curvature="0"
   style="fill:#d2d1d4" />
	<path
   d="m 603.336,327.152 h 5.311 l 6.854,23.994 h -5.393 l -1.197,-4.957 h -6.758 l -1.178,4.957 h -4.846 z m 4.582,14.924 -2.424,-9.83 -2.326,9.83 z"
   id="path88"
   inkscape:connector-curvature="0"
   style="fill:#d2d1d4" />
	<path
   d="m 617.504,327.152 h 7.541 c 1.465,0 2.588,0.067 3.367,0.202 0.779,0.135 1.566,0.498 2.363,1.09 0.797,0.592 1.422,1.4 1.873,2.426 0.449,1.026 0.676,2.177 0.676,3.454 0,3 -1.125,5.109 -3.375,6.328 l 4.412,10.494 h -5.74 l -3.209,-9.492 h -2.635 v 9.492 h -5.273 z m 5.274,3.885 v 6.732 h 2.32 c 2.063,0 3.094,-1.154 3.094,-3.463 0,-0.797 -0.152,-1.45 -0.457,-1.96 -0.305,-0.51 -0.658,-0.855 -1.063,-1.037 -0.405,-0.182 -1,-0.272 -1.785,-0.272 z"
   id="path90"
   inkscape:connector-curvature="0"
   style="fill:#d2d1d4" />
	<path
   d="m 637.122,327.152 h 5.678 c 2.461,0 4.463,0.331 6.004,0.993 1.541,0.662 2.773,1.884 3.699,3.665 0.926,1.781 1.389,4.189 1.389,7.225 0,2.156 -0.279,4.069 -0.844,5.739 -0.563,1.67 -1.301,2.985 -2.215,3.946 -0.914,0.961 -1.945,1.605 -3.094,1.934 -1.148,0.329 -2.584,0.492 -4.307,0.492 h -6.311 v -23.994 z m 5.275,4.114 v 15.768 h 0.898 c 1.221,0 2.168,-0.234 2.838,-0.704 0.67,-0.469 1.205,-1.288 1.604,-2.455 0.399,-1.167 0.6,-2.854 0.6,-5.06 0,-2.041 -0.221,-3.613 -0.66,-4.716 -0.439,-1.103 -0.994,-1.851 -1.658,-2.244 -0.662,-0.393 -1.57,-0.59 -2.723,-0.59 z"
   id="path92"
   inkscape:connector-curvature="0"
   style="fill:#d2d1d4" />
</g>
</svg>