<?xml version="1.0" encoding="utf-8"?>
<!-- Generator: Adobe Illustrator 16.0.3, SVG Export Plug-In . SVG Version: 6.00 Build 0)  -->
<!DOCTYPE svg PUBLIC "-//W3C//DTD SVG 1.1//EN" "http://www.w3.org/Graphics/SVG/1.1/DTD/svg11.dtd">
<svg version="1.1" id="Layer_1" xmlns="http://www.w3.org/2000/svg" xmlns:xlink="http://www.w3.org/1999/xlink" x="0px" y="0px"
	 width="767.59px" height="767.59px" viewBox="0 0 767.59 767.59" enable-background="new 0 0 767.59 767.59" xml:space="preserve">
<g>
	<g>
		<g>
			<polygon points="383.795,735.52 735.522,383.795 32.07,383.795 			"/>
		</g>
		<g>
			<polygon fill="#D92C27" points="32.07,383.795 735.522,383.795 383.795,32.07 			"/>
		</g>
	</g>
	<path fill="#D2D1D4" d="M383.795,32.07l351.727,351.725L383.795,735.52L32.07,383.795L383.795,32.07 M383.795,0L367.76,16.035
		L16.035,367.76L0,383.795l16.035,16.035L367.76,751.555l16.035,16.035l16.036-16.035L751.555,399.83l16.035-16.035l-16.035-16.035
		L399.831,16.035L383.795,0L383.795,0z"/>
</g>
<rect x="22.148" y="372.457" fill="#D2D1D4" width="731.222" height="22.677"/>
<g>
	<path fill="#D2D1D4" d="M198.049,240.663h14.835l6.927,45.634l8.644-45.634h13.294l8.142,45.899l8.073-45.899h12.209
		l-14.164,66.322h-13.004l-8.797-45.875l-8.992,45.875h-12.857L198.049,240.663z"/>
	<path fill="#D2D1D4" d="M286.705,240.663h14.599l18.853,65.984h-14.831l-3.292-13.632h-18.586l-3.236,13.632h-13.325
		L286.705,240.663z M299.305,281.703l-6.668-27.033l-6.396,27.033H299.305z"/>
	<path fill="#D2D1D4" d="M325.667,240.663h20.737c4.027,0,7.112,0.186,9.257,0.556c2.143,0.371,4.31,1.37,6.502,2.997
		c2.19,1.627,3.907,3.851,5.147,6.671c1.24,2.82,1.861,5.986,1.861,9.499c0,8.25-3.094,14.051-9.281,17.402l12.134,28.859H356.24
		l-8.826-26.104h-7.245v26.104h-14.502V240.663z M340.169,251.346v18.514h6.381c5.671,0,8.508-3.174,8.508-9.523
		c0-2.191-0.42-3.988-1.258-5.39c-0.838-1.402-1.813-2.352-2.924-2.853c-1.112-0.499-2.748-0.749-4.906-0.749h-5.801V251.346z"/>
	<path fill="#D2D1D4" d="M379.082,240.663h16.096l16.969,40.992v-40.992h11.215v65.984h-12.955l-20.109-47.76v47.76h-11.214
		L379.082,240.663L379.082,240.663z"/>
	<path fill="#D2D1D4" d="M435.252,240.663h14.502v65.984h-14.502V240.663z"/>
	<path fill="#D2D1D4" d="M461.696,240.663h16.096l16.969,40.992v-40.992h11.215v65.984H493.02l-20.109-47.76v47.76h-11.215V240.663
		L461.696,240.663z"/>
	<path fill="#D2D1D4" d="M541.022,271.455h22.912v35.191h-6.141l-1.885-7.541c-3.545,5.704-8.863,8.556-15.951,8.556
		c-7.51,0-13.463-2.956-17.861-8.871c-4.398-5.913-6.6-13.865-6.6-23.855c0-10.86,2.168-19.457,6.502-25.789
		c4.334-6.333,10.738-9.499,19.215-9.499c13.504,0,21.076,7.541,22.721,22.623l-13.053,2.127c-0.9-8.636-4.029-12.955-9.377-12.955
		c-3.256,0-5.857,1.595-7.807,4.786c-1.951,3.19-2.926,9.233-2.926,18.127c0,7.896,0.949,13.455,2.852,16.677
		c1.902,3.223,4.689,4.834,8.363,4.834c5.896,0,8.861-4.366,8.895-13.1h-9.861v-11.311H541.022z"/>
</g>
<g>
	<path fill="#D2D1D4" d="M114.771,327.152h7.541c1.465,0,2.587,0.067,3.366,0.202c0.779,0.135,1.567,0.498,2.364,1.09
		c0.797,0.592,1.421,1.4,1.872,2.426c0.451,1.026,0.677,2.177,0.677,3.454c0,3-1.125,5.109-3.375,6.328l4.412,10.494h-5.74
		l-3.209-9.492h-2.635v9.492h-5.273V327.152z M120.044,331.037v6.732h2.32c2.063,0,3.094-1.154,3.094-3.463
		c0-0.797-0.152-1.45-0.457-1.96c-0.305-0.51-0.659-0.855-1.063-1.037s-0.999-0.272-1.784-0.272H120.044z"/>
	<path fill="#D2D1D4" d="M138.624,327.152h5.309l6.855,23.994h-5.393l-1.197-4.957h-6.758l-1.177,4.957h-4.846L138.624,327.152z
		 M143.206,342.076l-2.425-9.83l-2.326,9.83H143.206z"/>
	<path fill="#D2D1D4" d="M152.792,327.152h5.678c2.461,0,4.462,0.331,6.003,0.993s2.774,1.884,3.7,3.665
		c0.926,1.781,1.389,4.189,1.389,7.225c0,2.156-0.281,4.069-0.844,5.739c-0.563,1.67-1.301,2.985-2.215,3.946
		c-0.914,0.961-1.945,1.605-3.094,1.934c-1.149,0.329-2.584,0.492-4.307,0.492h-6.311L152.792,327.152L152.792,327.152z
		 M158.065,331.266v15.768h0.899c1.222,0,2.168-0.234,2.838-0.704c0.67-0.469,1.205-1.288,1.604-2.455
		c0.399-1.167,0.6-2.854,0.6-5.06c0-2.041-0.221-3.613-0.661-4.716c-0.441-1.103-0.993-1.851-1.657-2.244s-1.572-0.59-2.724-0.59
		L158.065,331.266L158.065,331.266z"/>
	<path fill="#D2D1D4" d="M173.024,327.152h5.273v23.994h-5.273V327.152z"/>
	<path fill="#D2D1D4" d="M199.392,339.141c0,8.25-2.9,12.375-8.701,12.375c-2.883,0-5.057-1.052-6.521-3.155
		s-2.197-5.177-2.197-9.22c0-8.238,2.9-12.357,8.701-12.357c2.836,0,4.998,1.031,6.486,3.094
		C198.648,331.941,199.392,335.027,199.392,339.141z M193.837,339.141c0-3.234-0.252-5.388-0.756-6.46
		c-0.504-1.072-1.307-1.608-2.408-1.608c-1.09,0-1.887,0.539-2.391,1.617c-0.504,1.078-0.756,3.229-0.756,6.451
		c0,3.164,0.249,5.303,0.747,6.416c0.498,1.113,1.298,1.67,2.399,1.67c1.09,0,1.89-0.533,2.399-1.6
		C193.58,344.56,193.837,342.398,193.837,339.141z"/>
	<path fill="#D2D1D4" d="M202.134,340.107h7.154v3.885h-7.154V340.107z"/>
	<path fill="#D2D1D4" d="M212.874,327.152h14.238v4.113h-8.965v6.275h6.908v4.113h-6.908v9.492h-5.273V327.152L212.874,327.152z"/>
	<path fill="#D2D1D4" d="M228.817,327.152h7.541c1.465,0,2.587,0.067,3.366,0.202c0.779,0.135,1.567,0.498,2.364,1.09
		c0.797,0.592,1.421,1.4,1.872,2.426c0.451,1.026,0.677,2.177,0.677,3.454c0,3-1.125,5.109-3.375,6.328l4.412,10.494h-5.74
		l-3.209-9.492h-2.635v9.492h-5.273V327.152z M234.091,331.037v6.732h2.32c2.063,0,3.094-1.154,3.094-3.463
		c0-0.797-0.152-1.45-0.457-1.96c-0.305-0.51-0.659-0.855-1.063-1.037c-0.404-0.182-0.999-0.272-1.784-0.272H234.091z"/>
	<path fill="#D2D1D4" d="M248.435,327.152h14.59v4.113h-9.316v5.572h7.242v4.113h-7.242v5.906h9.316v4.289h-14.59V327.152z"/>
	<path fill="#D2D1D4" d="M281.288,351.99v3.797c-0.762,0.211-1.512,0.316-2.25,0.316c-3,0-4.594-1.541-4.781-4.623
		c-0.434,0.023-0.768,0.035-1.002,0.035c-2.59,0-4.655-0.993-6.196-2.979c-1.541-1.986-2.312-5.118-2.312-9.396
		c0-8.238,2.9-12.357,8.701-12.357c2.871,0,5.042,1.043,6.513,3.129s2.206,5.092,2.206,9.018c0,2.824-0.325,5.188-0.976,7.093
		c-0.651,1.905-1.79,3.384-3.419,4.438c0.012,0.691,0.158,1.163,0.439,1.415c0.281,0.252,0.709,0.378,1.283,0.378
		C280.034,352.254,280.632,352.166,281.288,351.99z M276.612,339.141c0-3.234-0.252-5.388-0.756-6.46
		c-0.504-1.072-1.307-1.608-2.408-1.608c-1.09,0-1.887,0.539-2.391,1.617s-0.756,3.229-0.756,6.451c0,3.164,0.249,5.303,0.747,6.416
		c0.498,1.113,1.298,1.67,2.399,1.67c1.09,0,1.89-0.533,2.399-1.6C276.355,344.56,276.612,342.398,276.612,339.141z"/>
	<path fill="#D2D1D4" d="M285.841,327.152h5.273v13.711c0,1.934,0.088,3.281,0.264,4.043c0.176,0.762,0.542,1.339,1.099,1.731
		c0.557,0.392,1.239,0.589,2.048,0.589c0.879,0,1.576-0.217,2.092-0.65c0.516-0.433,0.832-1.008,0.949-1.723
		c0.117-0.715,0.176-2.045,0.176-3.99v-13.711h4.412v13.5c0,2.695-0.155,4.705-0.466,6.029c-0.311,1.324-1.102,2.461-2.373,3.41
		c-1.271,0.949-3.021,1.424-5.247,1.424c-2.086,0-3.727-0.349-4.922-1.046c-1.195-0.697-2.045-1.676-2.549-2.936
		c-0.504-1.26-0.756-3.483-0.756-6.671V327.152z"/>
	<path fill="#D2D1D4" d="M306.688,327.152h14.591v4.113h-9.316v5.572h7.242v4.113h-7.242v5.906h9.316v4.289h-14.591V327.152z"/>
	<path fill="#D2D1D4" d="M323.669,327.152h5.854l6.17,14.906v-14.906h4.078v23.994h-4.712l-7.313-17.367v17.367h-4.078V327.152
		L323.669,327.152z"/>
	<path fill="#D2D1D4" d="M355.767,342.41l4.869,0.299c-0.176,2.602-1.002,4.72-2.479,6.354c-1.478,1.634-3.429,2.452-5.854,2.452
		c-2.953,0-5.203-1.096-6.75-3.287s-2.319-5.209-2.319-9.053c0-3.879,0.768-6.914,2.303-9.105c1.535-2.191,3.813-3.287,6.838-3.287
		c5.004,0,7.729,3.094,8.174,9.281l-4.815,0.352c-0.13-3.563-1.242-5.344-3.341-5.344c-1.102,0-1.978,0.574-2.628,1.723
		c-0.649,1.149-0.976,3.375-0.976,6.68c0,2.953,0.299,4.983,0.896,6.091c0.598,1.108,1.494,1.661,2.689,1.661
		C354.296,347.227,355.427,345.621,355.767,342.41z"/>
	<path fill="#D2D1D4" d="M360.442,327.152h5.809l3.386,8.746l3.621-8.746h5.149l-6.662,13.852v10.143h-5.273v-10.143
		L360.442,327.152z"/>
	<path fill="#D2D1D4" d="M386.387,327.152h7.541c1.465,0,2.588,0.067,3.367,0.202s1.566,0.498,2.363,1.09
		c0.797,0.592,1.422,1.4,1.873,2.426c0.451,1.026,0.676,2.177,0.676,3.454c0,3-1.125,5.109-3.375,6.328l4.412,10.494h-5.74
		l-3.209-9.492h-2.635v9.492h-5.273V327.152L386.387,327.152z M391.661,331.037v6.732h2.32c2.063,0,3.094-1.154,3.094-3.463
		c0-0.797-0.152-1.45-0.457-1.96c-0.305-0.51-0.658-0.855-1.063-1.037s-1-0.272-1.783-0.272H391.661z"/>
	<path fill="#D2D1D4" d="M410.241,327.152h5.309l6.855,23.994h-5.395l-1.195-4.957h-6.76l-1.176,4.957h-4.846L410.241,327.152z
		 M414.823,342.076l-2.424-9.83l-2.326,9.83H414.823z"/>
	<path fill="#D2D1D4" d="M424.409,327.152h5.678c2.461,0,4.463,0.331,6.004,0.993s2.773,1.884,3.699,3.665
		c0.926,1.781,1.389,4.189,1.389,7.225c0,2.156-0.279,4.069-0.844,5.739c-0.563,1.67-1.301,2.985-2.215,3.946
		c-0.914,0.961-1.945,1.605-3.094,1.934c-1.148,0.329-2.584,0.492-4.307,0.492h-6.311V327.152L424.409,327.152z M429.682,331.266
		v15.768h0.9c1.221,0,2.168-0.234,2.838-0.704c0.67-0.469,1.205-1.288,1.604-2.455s0.6-2.854,0.6-5.06
		c0-2.041-0.221-3.613-0.66-4.716s-0.994-1.851-1.658-2.244s-1.57-0.59-2.723-0.59L429.682,331.266L429.682,331.266z"/>
	<path fill="#D2D1D4" d="M444.641,327.152h5.273v23.994h-5.273V327.152z"/>
	<path fill="#D2D1D4" d="M458.688,327.152h5.309l6.854,23.994h-5.393l-1.197-4.957h-6.758l-1.178,4.957h-4.846L458.688,327.152z
		 M463.268,342.076l-2.424-9.83l-2.326,9.83H463.268z"/>
	<path fill="#D2D1D4" d="M469.514,327.152h14.959v4.5h-4.902v19.494h-5.273v-19.494h-4.781v-4.5H469.514z"/>
	<path fill="#D2D1D4" d="M486.301,327.152h5.273v23.994h-5.273V327.152z"/>
	<path fill="#D2D1D4" d="M512.668,339.141c0,8.25-2.9,12.375-8.701,12.375c-2.883,0-5.057-1.052-6.52-3.155
		c-1.465-2.103-2.197-5.177-2.197-9.22c0-8.238,2.9-12.357,8.701-12.357c2.836,0,4.998,1.031,6.486,3.094
		C511.924,331.941,512.668,335.027,512.668,339.141z M507.114,339.141c0-3.234-0.252-5.388-0.756-6.46
		c-0.504-1.072-1.307-1.608-2.408-1.608c-1.09,0-1.887,0.539-2.391,1.617s-0.756,3.229-0.756,6.451c0,3.164,0.248,5.303,0.746,6.416
		c0.498,1.113,1.299,1.67,2.4,1.67c1.09,0,1.889-0.533,2.398-1.6S507.114,342.398,507.114,339.141z"/>
	<path fill="#D2D1D4" d="M516.149,327.152h5.854l6.17,14.906v-14.906h4.078v23.994h-4.711l-7.313-17.367v17.367h-4.078V327.152z"/>
	<path fill="#D2D1D4" d="M543.29,327.152h5.273v9.686h5.766v-9.686h5.273v23.994h-5.273v-9.809h-5.766v9.809h-5.273V327.152z"/>
	<path fill="#D2D1D4" d="M568.374,327.152h5.309l6.855,23.994h-5.393l-1.197-4.957h-6.758l-1.178,4.957h-4.846L568.374,327.152z
		 M572.956,342.076l-2.424-9.83l-2.326,9.83H572.956z"/>
	<path fill="#D2D1D4" d="M581.047,327.152h15.416v3.744l-10.031,15.961h10.35v4.289h-16.473v-3.674l10.098-16.031h-9.357v-4.289
		H581.047z"/>
	<path fill="#D2D1D4" d="M603.336,327.152h5.311l6.854,23.994h-5.393l-1.197-4.957h-6.758l-1.178,4.957h-4.846L603.336,327.152z
		 M607.918,342.076l-2.424-9.83l-2.326,9.83H607.918z"/>
	<path fill="#D2D1D4" d="M617.504,327.152h7.541c1.465,0,2.588,0.067,3.367,0.202s1.566,0.498,2.363,1.09
		c0.797,0.592,1.422,1.4,1.873,2.426c0.449,1.026,0.676,2.177,0.676,3.454c0,3-1.125,5.109-3.375,6.328l4.412,10.494h-5.74
		l-3.209-9.492h-2.635v9.492h-5.273V327.152L617.504,327.152z M622.778,331.037v6.732h2.32c2.063,0,3.094-1.154,3.094-3.463
		c0-0.797-0.152-1.45-0.457-1.96c-0.305-0.51-0.658-0.855-1.063-1.037s-1-0.272-1.785-0.272H622.778z"/>
	<path fill="#D2D1D4" d="M637.122,327.152h5.678c2.461,0,4.463,0.331,6.004,0.993s2.773,1.884,3.699,3.665
		c0.926,1.781,1.389,4.189,1.389,7.225c0,2.156-0.279,4.069-0.844,5.739c-0.563,1.67-1.301,2.985-2.215,3.946
		c-0.914,0.961-1.945,1.605-3.094,1.934c-1.148,0.329-2.584,0.492-4.307,0.492h-6.311V327.152L637.122,327.152z M642.397,331.266
		v15.768h0.898c1.221,0,2.168-0.234,2.838-0.704c0.67-0.469,1.205-1.288,1.604-2.455s0.6-2.854,0.6-5.06
		c0-2.041-0.221-3.613-0.66-4.716s-0.994-1.851-1.658-2.244c-0.662-0.393-1.57-0.59-2.723-0.59L642.397,331.266L642.397,331.266z"/>
</g>
</svg>
