<?xml version="1.0" encoding="UTF-8" standalone="no"?>
<!-- Created with Inkscape (http://www.inkscape.org/) -->

<svg
   xmlns:dc="http://purl.org/dc/elements/1.1/"
   xmlns:cc="http://creativecommons.org/ns#"
   xmlns:rdf="http://www.w3.org/1999/02/22-rdf-syntax-ns#"
   xmlns:svg="http://www.w3.org/2000/svg"
   xmlns="http://www.w3.org/2000/svg"
   xmlns:sodipodi="http://sodipodi.sourceforge.net/DTD/sodipodi-0.dtd"
   xmlns:inkscape="http://www.inkscape.org/namespaces/inkscape"
   width="210mm"
   height="297mm"
   viewBox="0 0 210 297"
   version="1.1"
   id="svg8"
   inkscape:version="0.92.5 (2060ec1f9f, 2020-04-08)"
   sodipodi:docname="DIN4884_neko.svg">
  <defs
     id="defs2" />
  <sodipodi:namedview
     id="base"
     pagecolor="#ffffff"
     bordercolor="#666666"
     borderopacity="1.0"
     inkscape:pageopacity="0.0"
     inkscape:pageshadow="2"
     inkscape:zoom="0.24748737"
     inkscape:cx="-735.26583"
     inkscape:cy="-279.45122"
     inkscape:document-units="mm"
     inkscape:current-layer="layer1"
     showgrid="false"
     inkscape:window-width="1920"
     inkscape:window-height="1031"
     inkscape:window-x="0"
     inkscape:window-y="25"
     inkscape:window-maximized="1" />
  <metadata
     id="metadata5">
    <rdf:RDF>
      <cc:Work
         rdf:about="">
        <dc:format>image/svg+xml</dc:format>
        <dc:type
           rdf:resource="http://purl.org/dc/dcmitype/StillImage" />
        <dc:title></dc:title>
      </cc:Work>
    </rdf:RDF>
  </metadata>
  <g
     inkscape:label="Ebene 1"
     inkscape:groupmode="layer"
     id="layer1">
    <path
       inkscape:connector-curvature="0"
       style="fill:#0075f8;fill-opacity:1;fill-rule:nonzero;stroke:none;stroke-width:0.35277778"
       d="m 217.618,137.95844 c 0,-29.46245 -10.42073,-54.622679 -31.24289,-75.446216 -20.82353,-20.823536 -45.98375,-31.242883 -75.44759,-31.242883 -29.462447,0 -54.622677,10.419347 -75.446207,31.242883 -20.82354,20.823537 -31.2428904,45.983766 -31.2428904,75.446216 0,29.46384 10.4193504,54.62406 31.2428904,75.4476 20.82353,20.82216 45.98376,31.24288 75.446207,31.24288 29.46384,0 54.62406,-10.42072 75.44759,-31.24288 20.82216,-20.82354 31.24289,-45.98376 31.24289,-75.4476"
       id="path834" />
    <path
       inkscape:connector-curvature="0"
       style="fill:none;stroke:#475c7f;stroke-width:0.35263669;stroke-linecap:round;stroke-linejoin:round;stroke-miterlimit:10;stroke-opacity:1"
       d="M 186.37512,62.512214 C 165.55158,41.688679 140.39136,31.26933 110.92753,31.26933 c -29.462457,0 -54.622677,10.419349 -75.446217,31.242884 -20.82354,20.823539 -31.2428904,45.983766 -31.2428904,75.446226 0,29.46384 10.4193504,54.62406 31.2428904,75.44759 20.82354,20.82216 45.98376,31.24289 75.446217,31.24289 29.46383,0 54.62405,-10.42073 75.44759,-31.24289 20.82216,-20.82353 31.24288,-45.98375 31.24288,-75.44759 0,-29.46246 -10.42072,-54.622687 -31.24288,-75.446226 z m 0,0"
       id="path836" />
    <path
       inkscape:connector-curvature="0"
       style="fill:#ffffff;fill-opacity:1;fill-rule:nonzero;stroke:none;stroke-width:0.35277778"
       d="m 171.28146,77.164905 c 0.26458,-4.07348 -1.78042,-6.101952 -6.17085,-6.11849 -14.89935,3.367927 -27.59384,9.414757 -38.04901,18.12534 -5.11391,-1.55167 -10.49101,-2.4157 -16.13408,-2.61001 -5.64169,0.15848 -11.018785,1.00597 -16.114775,2.53973 -10.420722,-8.76295 -23.080762,-14.863522 -37.944282,-18.301729 -4.39043,-0.01792 -6.45335,2.009178 -6.2053,6.082661 2.045,14.19379 5.95863,28.263573 11.76017,42.210693 -6.04821,13.11755 -6.68348,27.69995 -1.88791,43.72653 6.29488,16.30909 14.88281,29.97371 25.795502,41.0118 2.50389,2.43361 3.95083,4.93613 4.33806,7.51169 1.67432,1.11069 2.66237,0.42305 2.97932,-2.04639 -0.0882,-1.92099 -1.12861,-3.77307 -3.10334,-5.55349 -13.416582,-15.42714 -21.491892,-27.02885 -24.208002,-34.7872 -7.38766,-18.67242 -7.81072,-34.47025 -1.26917,-47.39487 8.67475,-20.36465 23.961332,-30.819833 45.877647,-31.384825 21.88187,0.669722 37.13262,11.214475 45.71917,31.613575 6.47127,12.96045 5.97793,28.75828 -1.49792,47.41279 -2.76848,7.74044 -10.89753,19.30631 -24.38577,34.68108 -1.99127,1.78181 -3.03168,3.63251 -3.13779,5.55488 0.29903,2.46806 1.28708,3.1557 2.97932,2.045 0.40514,-2.57417 1.86999,-5.06015 4.39043,-7.47585 10.94989,-10.98434 19.62464,-24.63106 25.98979,-40.9236 4.86586,-16.02797 4.30224,-30.60899 -1.67569,-43.76236 5.85391,-13.9113 9.83919,-27.963163 11.95448,-42.156955 z m -5.3771,-3.139172 c 1.33945,0.352777 2.11529,1.198894 2.30959,2.556263 -1.63987,12.748229 -5.13044,25.355904 -10.47309,37.856094 -5.90627,-11.33712 -14.81115,-19.394513 -26.71327,-24.155645 10.58058,-8.727111 22.19882,-14.15796 34.87677,-16.256712 z M 53.748583,76.299495 c 0.19293,-1.339452 0.96876,-2.185568 2.3096,-2.520432 12.64212,2.169033 24.24382,7.634334 34.787192,16.397282 -11.936572,4.707372 -20.875902,12.712405 -26.818002,24.031615 -5.27237,-12.5181 -8.71058,-25.160235 -10.27879,-37.908465"
       id="path838" />
    <path
       inkscape:connector-curvature="0"
       style="fill:none;stroke:#ffffff;stroke-width:0.35263669;stroke-linecap:round;stroke-linejoin:round;stroke-miterlimit:10;stroke-opacity:1"
       d="m 165.11061,71.046407 c -14.89935,3.367927 -27.59383,9.414757 -38.04901,18.125338 -5.1139,-1.55167 -10.49101,-2.4157 -16.13407,-2.61001 -5.64169,0.15848 -11.018795,1.00597 -16.114775,2.53973 -10.420732,-8.762948 -23.080772,-14.86352 -37.944292,-18.301728 -4.39043,-0.01791 -6.45335,2.009179 -6.2053,6.082662 2.045,14.193798 5.95863,28.263571 11.76018,42.210691 -6.04822,13.11755 -6.68349,27.69995 -1.88792,43.72654 6.29488,16.30908 14.88282,29.97371 25.795502,41.0118 2.5039,2.43361 3.95084,4.93613 4.33807,7.51168 1.67431,1.1107 2.66237,0.42306 2.97931,-2.04638 -0.0882,-1.92099 -1.12861,-3.77308 -3.10334,-5.5535 -13.416582,-15.42714 -21.491882,-27.02884 -24.207992,-34.7872 -7.38767,-18.67242 -7.81073,-34.47025 -1.26918,-47.39487 8.67475,-20.36465 23.961332,-30.819823 45.877647,-31.384825 21.88187,0.669732 37.13262,11.214475 45.71918,31.613575 6.47126,12.96045 5.97792,28.75828 -1.49793,47.41279 -2.76848,7.74044 -10.89753,19.30632 -24.38576,34.68109 -1.99127,1.7818 -3.03169,3.63251 -3.1378,5.55487 0.29903,2.46807 1.28709,3.15571 2.97932,2.04501 0.40514,-2.57417 1.87,-5.06016 4.39043,-7.47586 10.94989,-10.98434 19.62464,-24.63105 25.9898,-40.9236 4.86585,-16.02796 4.30224,-30.60898 -1.6757,-43.76236 5.85391,-13.9113 9.8392,-27.963153 11.95449,-42.156953 0.26458,-4.07348 -1.78043,-6.101952 -6.17086,-6.11849 z m 0,0"
       id="path840" />
    <path
       inkscape:connector-curvature="0"
       style="fill:none;stroke:#ffffff;stroke-width:0.35263669;stroke-linecap:round;stroke-linejoin:round;stroke-miterlimit:10;stroke-opacity:1"
       d="m 56.058183,73.779055 c 12.64212,2.169033 24.24382,7.634334 34.787192,16.39728 -11.936562,4.707382 -20.875902,12.712405 -26.818002,24.031615 -5.27237,-12.5181 -8.71058,-25.160235 -10.27879,-37.90846 0.19293,-1.339455 0.96877,-2.185571 2.3096,-2.520435 z m 0,0"
       id="path842" />
    <path
       inkscape:connector-curvature="0"
       style="fill:none;stroke:#ffffff;stroke-width:0.35263669;stroke-linecap:round;stroke-linejoin:round;stroke-miterlimit:10;stroke-opacity:1"
       d="m 165.90436,74.025724 c -12.67795,2.098753 -24.29619,7.529602 -34.87677,16.256721 11.90212,4.761122 20.807,12.818515 26.71327,24.155635 5.34266,-12.50018 8.83323,-25.107855 10.47309,-37.856092 -0.1943,-1.357369 -0.97014,-2.203486 -2.30959,-2.556264 z m 0,0"
       id="path844" />
  </g>
</svg>
