<?xml version="1.0" encoding="UTF-8" standalone="no"?>
<!-- Created with Inkscape (http://www.inkscape.org/) -->

<svg
   xmlns:dc="http://purl.org/dc/elements/1.1/"
   xmlns:cc="http://creativecommons.org/ns#"
   xmlns:rdf="http://www.w3.org/1999/02/22-rdf-syntax-ns#"
   xmlns:svg="http://www.w3.org/2000/svg"
   xmlns="http://www.w3.org/2000/svg"
   xmlns:sodipodi="http://sodipodi.sourceforge.net/DTD/sodipodi-0.dtd"
   xmlns:inkscape="http://www.inkscape.org/namespaces/inkscape"
   width="210mm"
   height="297mm"
   viewBox="0 0 210 297"
   version="1.1"
   id="svg8"
   inkscape:version="0.92.5 (2060ec1f9f, 2020-04-08)"
   sodipodi:docname="DIN4884_neko.svg">
  <defs
     id="defs2" />
  <sodipodi:namedview
     id="base"
     pagecolor="#ffffff"
     bordercolor="#666666"
     borderopacity="1.0"
     inkscape:pageopacity="0.0"
     inkscape:pageshadow="2"
     inkscape:zoom="0.24748737"
     inkscape:cx="-735.26583"
     inkscape:cy="-279.45122"
     inkscape:document-units="mm"
     inkscape:current-layer="layer1"
     showgrid="false"
     inkscape:window-width="1920"
     inkscape:window-height="1031"
     inkscape:window-x="0"
     inkscape:window-y="25"
     inkscape:window-maximized="1" />
  <metadata
     id="metadata5">
    <rdf:RDF>
      <cc:Work
         rdf:about="">
        <dc:format>image/svg+xml</dc:format>
        <dc:type
           rdf:resource="http://purl.org/dc/dcmitype/StillImage" />
        <dc:title></dc:title>
      </cc:Work>
    </rdf:RDF>
  </metadata>
  <g
     inkscape:label="Ebene 1"
     inkscape:groupmode="layer"
     id="layer1">
    <path
       inkscape:connector-curvature="0"
       style="fill:#0075f8;fill-opacity:1;fill-rule:nonzero;stroke:none;stroke-width:0.32101539"
       d="m 198.39047,147.5802 c 0,-26.80979 -9.4825,-49.704715 -28.42993,-68.653402 -18.94868,-18.948687 -41.8436,-28.429927 -68.65466,-28.429927 -26.809792,0 -49.704718,9.48124 -68.653399,28.429927 C 13.703791,97.875485 4.2225478,120.77041 4.2225478,147.5802 c 0,26.81106 9.4812432,49.70598 28.4299332,68.65467 18.948681,18.94744 41.843607,28.42992 68.653399,28.42992 26.81106,0 49.70598,-9.48248 68.65466,-28.42992 18.94743,-18.94869 28.42993,-41.84361 28.42993,-68.65467"
       id="path834" />
    <path
       inkscape:connector-curvature="0"
       style="fill:none;stroke:#475c7f;stroke-width:0.320887;stroke-linecap:round;stroke-linejoin:round;stroke-miterlimit:10;stroke-opacity:1"
       d="M 169.96055,78.926789 C 151.01186,59.978103 128.11694,50.496861 101.30589,50.496861 c -26.809802,0 -49.704719,9.481242 -68.653409,28.429928 C 13.703791,97.875478 4.2225478,120.7704 4.2225478,147.5802 c 0,26.81106 9.4812432,49.70598 28.4299332,68.65466 18.94869,18.94744 41.843607,28.42993 68.653409,28.42993 26.81105,0 49.70597,-9.48249 68.65466,-28.42993 18.94743,-18.94868 28.42992,-41.8436 28.42992,-68.65466 0,-26.8098 -9.48249,-49.704722 -28.42992,-68.653411 z m 0,0"
       id="path836" />
    <path
       inkscape:connector-curvature="0"
       style="fill:#ffffff;fill-opacity:1;fill-rule:nonzero;stroke:none;stroke-width:0.32101539"
       d="m 156.22585,92.260223 c 0.24075,-3.706724 -1.62012,-5.552562 -5.61526,-5.567611 -13.55789,3.064695 -25.10943,8.567098 -34.62326,16.493418 -4.65348,-1.41196 -9.54645,-2.1982 -14.68145,-2.37501 -5.13374,0.14421 -10.026708,0.91539 -14.66388,2.31106 -9.482491,-7.973974 -21.002683,-13.525281 -34.527964,-16.653928 -3.995137,-0.01631 -5.872322,1.828281 -5.646605,5.535008 1.860878,12.91585 5.422144,25.71886 10.701342,38.41025 -5.503659,11.93651 -6.081732,25.20598 -1.717932,39.7896 5.72812,14.8407 13.542835,27.27503 23.473001,37.3193 2.278452,2.2145 3.595117,4.49171 3.947482,6.83538 1.523573,1.01069 2.422663,0.38496 2.711077,-1.86215 -0.08026,-1.74803 -1.026996,-3.43336 -2.823931,-5.05348 -12.208618,-14.03815 -19.556867,-24.5953 -22.028431,-31.65513 -6.722511,-16.99124 -7.107481,-31.36671 -1.1549,-43.12767 7.893717,-18.53111 21.80397,-28.04496 41.747051,-28.55908 19.91173,0.60942 33.78938,10.20477 41.60284,28.76724 5.88862,11.79355 5.4397,26.16902 -1.36306,43.14397 -2.51922,7.04353 -9.91637,17.56807 -22.19019,31.55857 -1.81199,1.62138 -2.75873,3.30545 -2.85528,5.05474 0.2721,2.24585 1.1712,2.87158 2.71107,1.86088 0.36867,-2.3424 1.70163,-4.60456 3.99514,-6.80276 9.96402,-9.99536 17.85773,-22.4134 23.6498,-37.23904 4.42776,-14.58489 3.91488,-27.8531 -1.52482,-39.82221 5.32685,-12.65879 8.95332,-25.44549 10.87816,-38.361347 z m -4.89298,-2.856536 c 1.21886,0.321014 1.92484,1.090951 2.10165,2.326109 -1.49222,11.600444 -4.66852,23.072984 -9.53014,34.447714 -5.3745,-10.31638 -13.47763,-17.64832 -24.30814,-21.98079 9.62795,-7.941361 20.20014,-12.883243 31.73663,-14.793033 z M 49.275055,91.47273 c 0.17556,-1.218854 0.881538,-1.98879 2.101655,-2.293504 11.503885,1.973743 22.061025,6.946975 31.655123,14.920954 -10.861861,4.28354 -18.996338,11.56784 -24.40344,21.86792 -4.797672,-11.39103 -7.926322,-22.89493 -9.353338,-34.49537"
       id="path838" />
    <path
       inkscape:connector-curvature="0"
       style="fill:none;stroke:#ffffff;stroke-width:0.320887;stroke-linecap:round;stroke-linejoin:round;stroke-miterlimit:10;stroke-opacity:1"
       d="m 150.61059,86.692605 c -13.55789,3.064695 -25.10942,8.567098 -34.62326,16.493425 -4.65347,-1.41197 -9.54645,-2.19821 -14.68144,-2.37502 -5.133741,0.14421 -10.026718,0.9154 -14.663881,2.31106 -9.4825,-7.973972 -21.002692,-13.525278 -34.527973,-16.653926 -3.995137,-0.0163 -5.872322,1.828282 -5.646605,5.535008 1.860878,12.915858 5.422144,25.718858 10.701351,38.410248 -5.503668,11.93651 -6.081741,25.20598 -1.717941,39.78961 5.72812,14.84069 13.542844,27.27503 23.473001,37.3193 2.278461,2.2145 3.595126,4.49171 3.947491,6.83537 1.523564,1.0107 2.422664,0.38497 2.711068,-1.86214 -0.08026,-1.74803 -1.026996,-3.43337 -2.823931,-5.05349 -12.208618,-14.03815 -19.556857,-24.59529 -22.028422,-31.65513 -6.72252,-16.99124 -7.10749,-31.36671 -1.154909,-43.12766 7.893717,-18.53112 21.80397,-28.04496 41.747051,-28.55909 19.91173,0.60943 33.78938,10.20478 41.60284,28.76724 5.88862,11.79355 5.4397,26.16903 -1.36306,43.14397 -2.51922,7.04353 -9.91637,17.56808 -22.19018,31.55858 -1.81199,1.62137 -2.75874,3.30545 -2.85529,5.05473 0.2721,2.24586 1.1712,2.87159 2.71107,1.86089 0.36867,-2.3424 1.70164,-4.60457 3.99514,-6.80277 9.96402,-9.99536 17.85773,-22.41339 23.64981,-37.23904 4.42775,-14.58488 3.91488,-27.85309 -1.52483,-39.82221 5.32685,-12.65879 8.95333,-25.44548 10.87816,-38.361344 0.24076,-3.706724 -1.62012,-5.552562 -5.61526,-5.567611 z m 0,0"
       id="path840" />
    <path
       inkscape:connector-curvature="0"
       style="fill:none;stroke:#ffffff;stroke-width:0.320887;stroke-linecap:round;stroke-linejoin:round;stroke-miterlimit:10;stroke-opacity:1"
       d="m 51.37671,89.179218 c 11.503885,1.973744 22.061025,6.946976 31.655123,14.920952 -10.861852,4.28355 -18.996338,11.56784 -24.40344,21.86792 -4.797672,-11.39103 -7.926322,-22.89493 -9.353338,-34.495364 0.17556,-1.218857 0.881547,-1.988793 2.101655,-2.293508 z m 0,0"
       id="path842" />
    <path
       inkscape:connector-curvature="0"
       style="fill:none;stroke:#ffffff;stroke-width:0.320887;stroke-linecap:round;stroke-linejoin:round;stroke-miterlimit:10;stroke-opacity:1"
       d="m 151.33287,89.403678 c -11.53649,1.909792 -22.10868,6.851674 -31.73663,14.793042 10.83051,4.33246 18.93364,11.6644 24.30814,21.98078 4.86163,-11.37472 8.03792,-22.84726 9.53014,-34.447711 -0.17681,-1.235158 -0.88279,-2.005095 -2.10165,-2.326111 z m 0,0"
       id="path844" />
  </g>
</svg>
