<?xml version="1.0" encoding="UTF-8" standalone="no"?>
<!-- Created with Inkscape (http://www.inkscape.org/) -->

<svg
   xmlns:dc="http://purl.org/dc/elements/1.1/"
   xmlns:cc="http://creativecommons.org/ns#"
   xmlns:rdf="http://www.w3.org/1999/02/22-rdf-syntax-ns#"
   xmlns:svg="http://www.w3.org/2000/svg"
   xmlns="http://www.w3.org/2000/svg"
   xmlns:sodipodi="http://sodipodi.sourceforge.net/DTD/sodipodi-0.dtd"
   xmlns:inkscape="http://www.inkscape.org/namespaces/inkscape"
   width="300mm"
   height="500mm"
   viewBox="0 0 300 500"
   version="1.1"
   id="svg8"
   inkscape:version="0.92.3 (2405546, 2018-03-11)"
   sodipodi:docname="Warnschildvorsichtfertig.svg"
   inkscape:export-filename="/home/housemeista/Dropbox/Fla/Stencilkram Inkscape/Vorlagen/schildcyber.png"
   inkscape:export-xdpi="96"
   inkscape:export-ydpi="96">
  <defs
     id="defs2" />
  <sodipodi:namedview
     id="base"
     pagecolor="#ffffff"
     bordercolor="#666666"
     borderopacity="1.0"
     inkscape:pageopacity="0"
     inkscape:pageshadow="2"
     inkscape:zoom="0.44873333"
     inkscape:cx="40.094399"
     inkscape:cy="745.80135"
     inkscape:document-units="mm"
     inkscape:current-layer="layer1"
     showgrid="true"
     inkscape:pagecheckerboard="true"
     inkscape:window-width="1920"
     inkscape:window-height="1031"
     inkscape:window-x="0"
     inkscape:window-y="25"
     inkscape:window-maximized="1"
     showguides="false">
    <inkscape:grid
       type="xygrid"
       id="grid3713" />
  </sodipodi:namedview>
  <metadata
     id="metadata5">
    <rdf:RDF>
      <cc:Work
         rdf:about="">
        <dc:format>image/svg+xml</dc:format>
        <dc:type
           rdf:resource="http://purl.org/dc/dcmitype/StillImage" />
        <dc:title></dc:title>
      </cc:Work>
    </rdf:RDF>
  </metadata>
  <g
     inkscape:label="Ebene 1"
     inkscape:groupmode="layer"
     id="layer1"
     transform="translate(0,203)">
    <path
       style="fill:#ff0000;stroke-width:0.23145503"
       d="m 289.99972,-112.99991 c 0,-11.08 -8.91981,-19.99981 -19.99981,-19.99981 H 260 v 9.99991 h 9.99991 c 5.54,0 9.9999,4.4599 9.9999,9.9999 V -103 h 9.99991 z"
       id="path4021"
       inkscape:connector-curvature="0" />
    <path
       style="fill:#ff0000;stroke-width:0.34330311"
       d="M 260,-132.99972 H 40 v 9.99991 h 220 z"
       id="path4015"
       inkscape:connector-curvature="0" />
    <path
       style="fill:#ff0000;stroke-width:0.23145503"
       d="M 40.00023,-132.99972 H 29.99981 c -11.08,0 -19.99981,8.91981 -19.99981,19.99981 V -103 h 9.99991 v -9.99991 c -10e-6,-5.54 4.4599,-9.9999 9.9999,-9.9999 h 10.00042 z"
       id="path4011"
       inkscape:connector-curvature="0" />
    <path
       style="fill:#ff0000;stroke-width:1.05640924"
       d="M 37.794922 377.95312 L 37.794922 1700.7871 L 37.794922 1738.582 C 37.794922 1780.4591 71.507596 1814.1738 113.38477 1814.1738 L 151.18164 1814.1738 L 982.67773 1814.1738 L 1020.4727 1814.1738 C 1062.3498 1814.1738 1096.0625 1780.4591 1096.0625 1738.582 L 1096.0625 1700.7871 L 1096.0625 377.95312 L 1058.2676 377.95312 L 1058.2676 963.7793 L 75.589844 963.7793 L 75.589844 377.95312 L 37.794922 377.95312 z M 662.00977 1035.6406 L 662.00977 1171.8398 L 640.41016 1171.8398 L 640.41016 1046.4395 L 662.00977 1035.6406 z M 383.99414 1071.6406 C 395.86081 1071.6406 405.32786 1076.3073 412.39453 1085.6406 C 419.59453 1094.974 423.19531 1110.3732 423.19531 1131.8398 L 365.5957 1131.8398 C 365.5957 1138.1065 367.26237 1143.3061 370.5957 1147.4395 C 373.92904 1151.4395 378.26237 1153.3736 383.5957 1153.2402 C 391.06237 1153.5069 396.79492 1150.2395 400.79492 1143.4395 L 419.79492 1151.2402 C 413.12826 1166.1736 401.19414 1173.8402 383.99414 1174.2402 C 371.86081 1174.2402 362.06237 1169.7732 354.5957 1160.8398 C 347.26237 1151.9065 343.5957 1139.1061 343.5957 1122.4395 C 343.5957 1108.7061 347.12865 1096.8398 354.19531 1086.8398 C 361.39531 1076.7065 371.32747 1071.6406 383.99414 1071.6406 z M 481.51758 1071.6406 C 489.51758 1071.774 495.64935 1074.1073 499.91602 1078.6406 L 499.91602 1072.4395 L 521.11719 1072.4395 L 521.11719 1168.4395 C 520.18385 1194.5728 508.24974 1211.8402 485.31641 1220.2402 L 476.51758 1202.6406 C 492.51758 1196.2406 500.31602 1184.8395 499.91602 1168.4395 C 494.31602 1172.3061 488.05052 1174.2402 481.11719 1174.2402 C 454.45052 1174.2402 441.11719 1157.6395 441.11719 1124.4395 C 441.11719 1089.7728 454.58424 1072.174 481.51758 1071.6406 z M 579.68945 1071.6406 C 590.08945 1071.6406 598.82201 1074.6406 605.88867 1080.6406 C 613.08867 1086.5073 616.75534 1095.1061 616.88867 1106.4395 L 616.88867 1171.8398 L 596.28906 1171.8398 L 596.28906 1168.6406 C 591.08906 1172.374 585.28867 1174.3061 578.88867 1174.4395 C 568.222 1174.3061 559.35573 1171.3061 552.28906 1165.4395 C 545.35573 1159.4395 541.88867 1150.7728 541.88867 1139.4395 C 541.88867 1129.7061 545.08828 1121.5724 551.48828 1115.0391 C 558.02161 1108.3724 566.822 1105.1069 577.88867 1105.2402 C 584.02201 1105.2402 589.75456 1105.9728 595.08789 1107.4395 C 595.35456 1097.7061 590.4224 1092.3728 580.28906 1091.4395 C 571.6224 1091.1728 563.82201 1093.574 556.88867 1098.6406 L 546.28906 1082.4395 C 555.88906 1075.6395 567.02279 1072.0406 579.68945 1071.6406 z M 383.99414 1091.4395 C 378.12747 1091.3061 373.46081 1093.5057 369.99414 1098.0391 C 366.52747 1102.4391 364.92865 1107.1736 365.19531 1112.2402 L 401.79492 1112.2402 C 401.92826 1106.6402 400.32747 1101.774 396.99414 1097.6406 C 393.79414 1093.5073 389.46081 1091.4395 383.99414 1091.4395 z M 481.51758 1092.2402 C 468.45091 1093.0402 461.91602 1103.7069 461.91602 1124.2402 C 462.04935 1144.9069 468.38268 1155.3061 480.91602 1155.4395 C 488.38268 1155.5728 494.58424 1152.4391 499.51758 1146.0391 L 499.51758 1102.0391 C 495.65091 1095.5057 489.65091 1092.2402 481.51758 1092.2402 z M 576.88867 1124.8398 C 572.22201 1124.8398 568.35573 1126.3728 565.28906 1129.4395 C 562.2224 1132.5061 560.75534 1135.9732 560.88867 1139.8398 C 560.88867 1143.8398 562.42161 1147.6402 565.48828 1151.2402 C 568.68828 1154.8402 572.95573 1156.6406 578.28906 1156.6406 C 584.0224 1156.6406 589.42161 1154.1736 594.48828 1149.2402 L 594.48828 1127.2402 C 588.62161 1125.6402 582.75534 1124.8398 576.88867 1124.8398 z M 696.03906 1151.6406 C 698.83906 1151.6406 701.30612 1152.7724 703.43945 1155.0391 C 705.70612 1157.1724 706.83789 1159.6395 706.83789 1162.4395 C 706.83789 1165.5061 705.77201 1168.1069 703.63867 1170.2402 C 701.50534 1172.2402 698.9724 1173.2402 696.03906 1173.2402 C 693.23906 1173.2402 690.70612 1172.1724 688.43945 1170.0391 C 686.30612 1167.7724 685.23828 1165.2395 685.23828 1162.4395 C 685.23828 1159.6395 686.30612 1157.1724 688.43945 1155.0391 C 690.70612 1152.7724 693.23906 1151.6406 696.03906 1151.6406 z M 737.05469 1151.6406 C 739.85469 1151.6406 742.32174 1152.7724 744.45508 1155.0391 C 746.72174 1157.1724 747.85352 1159.6395 747.85352 1162.4395 C 747.85352 1165.5061 746.78763 1168.1069 744.6543 1170.2402 C 742.52096 1172.2402 739.98802 1173.2402 737.05469 1173.2402 C 734.25469 1173.2402 731.72174 1172.1724 729.45508 1170.0391 C 727.32174 1167.7724 726.25391 1165.2395 726.25391 1162.4395 C 726.25391 1159.6395 727.32174 1157.1724 729.45508 1155.0391 C 731.72174 1152.7724 734.25469 1151.6406 737.05469 1151.6406 z M 778.07031 1151.6406 C 780.87031 1151.6406 783.33737 1152.7724 785.4707 1155.0391 C 787.73737 1157.1724 788.86914 1159.6395 788.86914 1162.4395 C 788.86914 1165.5061 787.80326 1168.1069 785.66992 1170.2402 C 783.53659 1172.2402 781.00365 1173.2402 778.07031 1173.2402 C 775.27031 1173.2402 772.73737 1172.1724 770.4707 1170.0391 C 768.33737 1167.7724 767.26953 1165.2395 767.26953 1162.4395 C 767.26953 1159.6395 768.33737 1157.1724 770.4707 1155.0391 C 772.73737 1152.7724 775.27031 1151.6406 778.07031 1151.6406 z M 291.83594 1285.6406 C 294.63594 1285.6406 297.10299 1286.7724 299.23633 1289.0391 C 301.50299 1291.1724 302.63477 1293.6395 302.63477 1296.4395 C 302.63477 1299.5061 301.56888 1302.1069 299.43555 1304.2402 C 297.30221 1306.2402 294.76927 1307.2402 291.83594 1307.2402 C 289.03594 1307.2402 286.50299 1306.1724 284.23633 1304.0391 C 282.10299 1301.7724 281.03516 1299.2395 281.03516 1296.4395 C 281.03516 1293.6395 282.10299 1291.1724 284.23633 1289.0391 C 286.50299 1286.7724 289.03594 1285.6406 291.83594 1285.6406 z M 406.66406 1285.6406 L 406.66406 1421.8398 L 385.46289 1421.8398 L 385.46289 1418.4395 C 379.86289 1422.3061 373.5974 1424.2402 366.66406 1424.2402 C 339.9974 1424.2402 326.66406 1407.6395 326.66406 1374.4395 C 326.66406 1339.7728 340.13112 1322.174 367.06445 1321.6406 C 375.06445 1321.774 381.19622 1324.1073 385.46289 1328.6406 L 385.46289 1296.2402 L 406.66406 1285.6406 z M 587.92969 1285.6406 C 590.72969 1285.6406 593.19674 1286.7724 595.33008 1289.0391 C 597.59674 1291.1724 598.72852 1293.6395 598.72852 1296.4395 C 598.72852 1299.5061 597.66263 1302.1069 595.5293 1304.2402 C 593.39596 1306.2402 590.86302 1307.2402 587.92969 1307.2402 C 585.12969 1307.2402 582.59674 1306.1724 580.33008 1304.0391 C 578.19674 1301.7724 577.12891 1299.2395 577.12891 1296.4395 C 577.12891 1293.6395 578.19674 1291.1724 580.33008 1289.0391 C 582.59674 1286.7724 585.12969 1285.6406 587.92969 1285.6406 z M 743.47852 1285.6406 C 749.61185 1285.6406 755.07891 1286.8402 759.87891 1289.2402 L 759.87891 1306.6406 C 756.94557 1305.4406 754.14518 1304.774 751.47852 1304.6406 C 747.74518 1304.774 745.81302 1307.0395 745.67969 1311.4395 L 745.67969 1324.0391 L 759.87891 1324.0391 L 759.87891 1343.4395 L 745.67969 1343.4395 L 745.67969 1421.8398 L 724.08008 1421.8398 L 724.08008 1343.4395 L 711.47852 1343.4395 L 711.47852 1324.0391 L 724.08008 1324.0391 L 724.08008 1309.0391 C 724.08008 1303.1724 725.74674 1297.9069 729.08008 1293.2402 C 732.54674 1288.4402 737.34518 1285.9073 743.47852 1285.6406 z M 981.40039 1285.6406 L 981.40039 1329.0391 C 987.26706 1324.1057 995.06745 1321.6406 1004.8008 1321.6406 C 1016.1341 1321.6406 1024.6012 1325.5069 1030.2012 1333.2402 C 1035.8012 1340.9736 1038.6016 1349.9736 1038.6016 1360.2402 L 1038.6016 1421.8398 L 1018.002 1421.8398 L 1018.002 1360.6406 C 1018.2686 1355.574 1016.602 1351.0391 1013.002 1347.0391 C 1009.402 1342.9057 1004.8671 1340.9736 999.40039 1341.2402 C 993.66706 1341.2402 989.26784 1342.9069 986.20117 1346.2402 C 983.26784 1349.5736 981.80078 1354.374 981.80078 1360.6406 L 981.80078 1421.8398 L 960.60156 1421.8398 L 960.60156 1296.0391 L 981.40039 1285.6406 z M 129.35742 1321.4395 C 143.75742 1321.7061 155.69154 1326.8398 165.1582 1336.8398 L 151.75781 1350.2402 C 145.22448 1344.2402 137.89115 1341.1065 129.75781 1340.8398 C 126.42448 1340.8398 123.75781 1341.5724 121.75781 1343.0391 C 119.89115 1344.3724 118.89115 1346.2406 118.75781 1348.6406 C 118.62448 1350.774 119.35703 1352.5065 120.95703 1353.8398 C 122.69036 1355.1732 126.88997 1357.1073 133.55664 1359.6406 C 143.02331 1362.574 150.8237 1366.8395 156.95703 1372.4395 C 163.2237 1378.0395 166.35742 1385.7061 166.35742 1395.4395 C 166.22409 1403.9728 162.89076 1410.9069 156.35742 1416.2402 C 149.82409 1421.4402 140.82409 1424.1069 129.35742 1424.2402 C 116.29075 1424.1069 104.29076 1419.1069 93.357422 1409.2402 L 107.35742 1395.2402 C 115.49076 1401.6402 122.82409 1404.9057 129.35742 1405.0391 C 134.02409 1405.1724 137.9582 1404.2402 141.1582 1402.2402 C 144.49154 1400.1069 146.09036 1397.5061 145.95703 1394.4395 C 146.09036 1391.3728 144.62331 1388.5065 141.55664 1385.8398 C 138.48997 1383.1732 133.55781 1380.5065 126.75781 1377.8398 C 116.89115 1374.5065 109.69154 1370.3728 105.1582 1365.4395 C 100.62487 1360.5061 98.357422 1354.7736 98.357422 1348.2402 C 97.957422 1341.7069 100.62409 1335.6391 106.35742 1330.0391 C 112.22409 1324.3057 119.89075 1321.4395 129.35742 1321.4395 z M 220.71289 1321.6406 C 232.57956 1321.6406 242.04661 1326.3073 249.11328 1335.6406 C 256.31328 1344.974 259.91406 1360.3732 259.91406 1381.8398 L 202.31445 1381.8398 C 202.31445 1388.1065 203.98112 1393.3061 207.31445 1397.4395 C 210.64779 1401.4395 214.98112 1403.3736 220.31445 1403.2402 C 227.78112 1403.5069 233.51367 1400.2395 237.51367 1393.4395 L 256.51367 1401.2402 C 249.84701 1416.1736 237.91289 1423.8402 220.71289 1424.2402 C 208.57956 1424.2402 198.78112 1419.7732 191.31445 1410.8398 C 183.98112 1401.9065 180.31445 1389.1061 180.31445 1372.4395 C 180.31445 1358.7061 183.8474 1346.8398 190.91406 1336.8398 C 198.11406 1326.7065 208.04622 1321.6406 220.71289 1321.6406 z M 516.80664 1321.6406 C 528.67331 1321.6406 538.14036 1326.3073 545.20703 1335.6406 C 552.40703 1344.974 556.00781 1360.3732 556.00781 1381.8398 L 498.4082 1381.8398 C 498.4082 1388.1065 500.07487 1393.3061 503.4082 1397.4395 C 506.74154 1401.4395 511.07487 1403.3736 516.4082 1403.2402 C 523.87487 1403.5069 529.60742 1400.2395 533.60742 1393.4395 L 552.60742 1401.2402 C 545.94076 1416.1736 534.00664 1423.8402 516.80664 1424.2402 C 504.67331 1424.2402 494.87487 1419.7732 487.4082 1410.8398 C 480.07487 1401.9065 476.4082 1389.1061 476.4082 1372.4395 C 476.4082 1358.7061 479.94115 1346.8398 487.00781 1336.8398 C 494.20781 1326.7065 504.13997 1321.6406 516.80664 1321.6406 z M 664.95703 1321.6406 C 676.29036 1321.6406 684.75742 1325.5069 690.35742 1333.2402 C 695.95742 1340.9736 698.75781 1349.9736 698.75781 1360.2402 L 698.75781 1421.8398 L 678.1582 1421.8398 L 678.1582 1360.6406 C 678.42487 1355.574 676.7582 1351.0391 673.1582 1347.0391 C 669.5582 1342.9057 665.02331 1340.9736 659.55664 1341.2402 C 653.82331 1341.2402 649.42409 1342.9069 646.35742 1346.2402 C 643.42409 1349.5736 641.95703 1354.374 641.95703 1360.6406 L 641.95703 1421.8398 L 620.75781 1421.8398 L 620.75781 1322.8398 L 641.55664 1322.8398 L 641.55664 1329.0391 C 647.42331 1324.1057 655.2237 1321.6406 664.95703 1321.6406 z M 812.11133 1321.6406 C 822.51133 1321.6406 831.24388 1324.6406 838.31055 1330.6406 C 845.51055 1336.5073 849.17721 1345.1061 849.31055 1356.4395 L 849.31055 1421.8398 L 828.71094 1421.8398 L 828.71094 1418.6406 C 823.51094 1422.374 817.71055 1424.3061 811.31055 1424.4395 C 800.64388 1424.3061 791.7776 1421.3061 784.71094 1415.4395 C 777.7776 1409.4395 774.31055 1400.7728 774.31055 1389.4395 C 774.31055 1379.7061 777.51016 1371.5724 783.91016 1365.0391 C 790.44349 1358.3724 799.24388 1355.1069 810.31055 1355.2402 C 816.44388 1355.2402 822.17643 1355.9728 827.50977 1357.4395 C 827.77643 1347.7061 822.84427 1342.3728 812.71094 1341.4395 C 804.04427 1341.1728 796.24388 1343.574 789.31055 1348.6406 L 778.71094 1332.4395 C 788.31094 1325.6395 799.44466 1322.0406 812.11133 1321.6406 z M 907.43164 1321.6406 C 926.76497 1321.6406 939.16615 1329.8402 944.63281 1346.2402 L 924.83203 1354.2402 C 921.8987 1345.7069 916.03242 1341.5073 907.23242 1341.6406 C 900.03242 1341.6406 894.83281 1345.5069 891.63281 1353.2402 C 889.36615 1358.7069 888.23242 1365.1061 888.23242 1372.4395 C 888.23242 1379.7728 889.36615 1386.174 891.63281 1391.6406 C 894.83281 1399.374 900.03242 1403.2402 907.23242 1403.2402 C 916.03242 1403.3736 921.8987 1399.174 924.83203 1390.6406 L 944.63281 1398.6406 C 939.16615 1415.0406 926.76497 1423.2402 907.43164 1423.2402 C 892.36497 1423.2402 881.36497 1417.4398 874.43164 1405.8398 C 869.23164 1397.3065 866.63281 1386.1728 866.63281 1372.4395 C 866.63281 1358.7061 869.23164 1347.5724 874.43164 1339.0391 C 881.36497 1327.4391 892.36497 1321.6406 907.43164 1321.6406 z M 281.03516 1324.0391 L 302.83594 1324.0391 L 302.83594 1421.8398 L 281.03516 1421.8398 L 281.03516 1324.0391 z M 577.12891 1324.0391 L 598.92969 1324.0391 L 598.92969 1421.8398 L 577.12891 1421.8398 L 577.12891 1324.0391 z M 220.71289 1341.4395 C 214.84622 1341.3061 210.17956 1343.5057 206.71289 1348.0391 C 203.24622 1352.4391 201.6474 1357.1736 201.91406 1362.2402 L 238.51367 1362.2402 C 238.64701 1356.6402 237.04622 1351.774 233.71289 1347.6406 C 230.51289 1343.5073 226.17956 1341.4395 220.71289 1341.4395 z M 516.80664 1341.4395 C 510.93997 1341.3061 506.27331 1343.5057 502.80664 1348.0391 C 499.33997 1352.4391 497.74115 1357.1736 498.00781 1362.2402 L 534.60742 1362.2402 C 534.74076 1356.6402 533.13997 1351.774 529.80664 1347.6406 C 526.60664 1343.5073 522.27331 1341.4395 516.80664 1341.4395 z M 367.06445 1342.2402 C 353.99779 1343.0402 347.46289 1353.7069 347.46289 1374.2402 C 347.59622 1394.9069 353.92956 1405.3061 366.46289 1405.4395 C 373.92956 1405.5728 380.13112 1402.4391 385.06445 1396.0391 L 385.06445 1352.0391 C 381.19779 1345.5057 375.19779 1342.2402 367.06445 1342.2402 z M 809.31055 1374.8398 C 804.64388 1374.8398 800.7776 1376.3728 797.71094 1379.4395 C 794.64427 1382.5061 793.17721 1385.9732 793.31055 1389.8398 C 793.31055 1393.8398 794.84349 1397.6402 797.91016 1401.2402 C 801.11016 1404.8402 805.3776 1406.6406 810.71094 1406.6406 C 816.44427 1406.6406 821.84349 1404.1736 826.91016 1399.2402 L 826.91016 1377.2402 C 821.04349 1375.6402 815.17721 1374.8398 809.31055 1374.8398 z M 543.59375 1535.6406 C 546.39375 1535.6406 548.86081 1536.7724 550.99414 1539.0391 C 553.26081 1541.1724 554.39258 1543.6395 554.39258 1546.4395 C 554.39258 1549.5061 553.32669 1552.1069 551.19336 1554.2402 C 549.06003 1556.2402 546.52708 1557.2402 543.59375 1557.2402 C 540.79375 1557.2402 538.26081 1556.1724 535.99414 1554.0391 C 533.86081 1551.7724 532.79297 1549.2395 532.79297 1546.4395 C 532.79297 1543.6395 533.86081 1541.1724 535.99414 1539.0391 C 538.26081 1536.7724 540.79375 1535.6406 543.59375 1535.6406 z M 690.18945 1535.6406 L 690.18945 1579.0391 C 696.05612 1574.1057 703.85651 1571.6406 713.58984 1571.6406 C 724.92318 1571.6406 733.39023 1575.5069 738.99023 1583.2402 C 744.59023 1590.9736 747.39062 1599.9736 747.39062 1610.2402 L 747.39062 1671.8398 L 726.79102 1671.8398 L 726.79102 1610.6406 C 727.05768 1605.574 725.39102 1601.0391 721.79102 1597.0391 C 718.19102 1592.9057 713.65612 1590.9736 708.18945 1591.2402 C 702.45612 1591.2402 698.0569 1592.9069 694.99023 1596.2402 C 692.0569 1599.5736 690.58984 1604.374 690.58984 1610.6406 L 690.58984 1671.8398 L 669.39062 1671.8398 L 669.39062 1546.0391 L 690.18945 1535.6406 z M 795.3125 1535.6406 L 795.3125 1574.0391 L 812.3125 1574.0391 L 812.3125 1593.4395 L 795.3125 1593.4395 L 795.3125 1646.0391 C 795.3125 1651.3724 797.3125 1654.1728 801.3125 1654.4395 C 804.64583 1654.5728 808.24466 1653.2395 812.11133 1650.4395 L 806.3125 1671.6406 C 802.97917 1673.374 799.11289 1674.2402 794.71289 1674.2402 C 789.64622 1674.2402 785.04544 1671.9069 780.91211 1667.2402 C 776.77878 1662.5736 774.71289 1656.3061 774.71289 1648.4395 L 774.71289 1593.8398 L 760.51172 1593.8398 L 760.51172 1574.0391 L 774.71289 1574.0391 L 774.71289 1545.8398 L 795.3125 1535.6406 z M 841.25 1535.6406 C 844.05 1535.6406 846.51706 1536.7724 848.65039 1539.0391 C 850.91706 1541.1724 852.04883 1543.6395 852.04883 1546.4395 C 852.04883 1549.5061 850.98294 1552.1069 848.84961 1554.2402 C 846.71628 1556.2402 844.18333 1557.2402 841.25 1557.2402 C 838.45 1557.2402 835.91706 1556.1724 833.65039 1554.0391 C 831.51706 1551.7724 830.44922 1549.2395 830.44922 1546.4395 C 830.44922 1543.6395 831.51706 1541.1724 833.65039 1539.0391 C 835.91706 1536.7724 838.45 1535.6406 841.25 1535.6406 z M 476.03711 1571.4395 C 490.43711 1571.7061 502.37122 1576.8398 511.83789 1586.8398 L 498.4375 1600.2402 C 491.90417 1594.2402 484.57083 1591.1065 476.4375 1590.8398 C 473.10417 1590.8398 470.4375 1591.5724 468.4375 1593.0391 C 466.57083 1594.3724 465.57083 1596.2406 465.4375 1598.6406 C 465.30417 1600.774 466.03672 1602.5065 467.63672 1603.8398 C 469.37005 1605.1732 473.56966 1607.1073 480.23633 1609.6406 C 489.703 1612.574 497.50339 1616.8395 503.63672 1622.4395 C 509.90339 1628.0395 513.03711 1635.7061 513.03711 1645.4395 C 512.90378 1653.9728 509.57044 1660.9069 503.03711 1666.2402 C 496.50378 1671.4402 487.50378 1674.1069 476.03711 1674.2402 C 462.97044 1674.1069 450.97044 1669.1069 440.03711 1659.2402 L 454.03711 1645.2402 C 462.17044 1651.6402 469.50378 1654.9057 476.03711 1655.0391 C 480.70378 1655.1724 484.63789 1654.2402 487.83789 1652.2402 C 491.17122 1650.1069 492.77005 1647.5061 492.63672 1644.4395 C 492.77005 1641.3728 491.30299 1638.5065 488.23633 1635.8398 C 485.16966 1633.1732 480.2375 1630.5065 473.4375 1627.8398 C 463.57083 1624.5065 456.37122 1620.3728 451.83789 1615.4395 C 447.30456 1610.5061 445.03711 1604.7736 445.03711 1598.2402 C 444.63711 1591.7069 447.30378 1585.6391 453.03711 1580.0391 C 458.90378 1574.3057 466.57044 1571.4395 476.03711 1571.4395 z M 316.40234 1571.6406 C 331.20234 1572.0406 342.13646 1577.8391 349.20312 1589.0391 C 354.40313 1597.5724 357.06979 1608.8398 357.20312 1622.8398 C 357.06979 1636.3065 354.40313 1647.3065 349.20312 1655.8398 C 342.26979 1667.4398 331.33568 1673.5736 316.40234 1674.2402 C 301.46901 1673.5736 290.53685 1667.4398 283.60352 1655.8398 C 278.40352 1647.3065 275.73685 1636.3065 275.60352 1622.8398 C 275.73685 1608.8398 278.40352 1597.5724 283.60352 1589.0391 C 290.67018 1577.8391 301.60234 1572.0406 316.40234 1571.6406 z M 411.92383 1571.6406 C 418.72383 1571.774 424.72383 1574.0395 429.92383 1578.4395 L 422.92383 1597.8398 C 418.92383 1593.8398 414.85794 1591.9057 410.72461 1592.0391 C 401.79128 1592.3057 397.05872 1598.5732 396.52539 1610.8398 L 396.52539 1671.8398 L 374.92383 1671.8398 L 374.92383 1572.4395 L 396.32422 1572.4395 L 396.32422 1579.6406 C 399.92422 1574.3073 405.12383 1571.6406 411.92383 1571.6406 z M 616.2207 1571.6406 C 635.55404 1571.6406 647.95521 1579.8402 653.42188 1596.2402 L 633.62109 1604.2402 C 630.68776 1595.7069 624.82148 1591.5073 616.02148 1591.6406 C 608.82148 1591.6406 603.62188 1595.5069 600.42188 1603.2402 C 598.15521 1608.7069 597.02148 1615.1061 597.02148 1622.4395 C 597.02148 1629.7728 598.15521 1636.174 600.42188 1641.6406 C 603.62188 1649.374 608.82148 1653.2402 616.02148 1653.2402 C 624.82148 1653.3736 630.68776 1649.174 633.62109 1640.6406 L 653.42188 1648.6406 C 647.95521 1665.0406 635.55404 1673.2402 616.2207 1673.2402 C 601.15404 1673.2402 590.15404 1667.4398 583.2207 1655.8398 C 578.0207 1647.3065 575.42187 1636.1728 575.42188 1622.4395 C 575.42188 1608.7061 578.0207 1597.5724 583.2207 1589.0391 C 590.15404 1577.4391 601.15404 1571.6406 616.2207 1571.6406 z M 916.47852 1571.6406 C 924.47852 1571.774 930.61029 1574.1073 934.87695 1578.6406 L 934.87695 1572.4395 L 956.07812 1572.4395 L 956.07812 1668.4395 C 955.14479 1694.5728 943.21068 1711.8402 920.27734 1720.2402 L 911.47852 1702.6406 C 927.47852 1696.2406 935.27695 1684.8395 934.87695 1668.4395 C 929.27695 1672.3061 923.01146 1674.2402 916.07812 1674.2402 C 889.41146 1674.2402 876.07812 1657.6395 876.07812 1624.4395 C 876.07812 1589.7728 889.54518 1572.174 916.47852 1571.6406 z M 170.83008 1574.0391 L 193.43164 1574.0391 L 217.83008 1639.8398 L 241.43164 1574.0391 L 265.23047 1574.0391 L 227.23047 1671.8398 L 208.43164 1671.8398 L 170.83008 1574.0391 z M 532.79297 1574.0391 L 554.59375 1574.0391 L 554.59375 1671.8398 L 532.79297 1671.8398 L 532.79297 1574.0391 z M 830.44922 1574.0391 L 852.25 1574.0391 L 852.25 1671.8398 L 830.44922 1671.8398 L 830.44922 1574.0391 z M 916.47852 1592.2402 C 903.41185 1593.0402 896.87695 1603.7069 896.87695 1624.2402 C 897.01029 1644.9069 903.34362 1655.3061 915.87695 1655.4395 C 923.34362 1655.5728 929.54518 1652.4391 934.47852 1646.0391 L 934.47852 1602.0391 C 930.61185 1595.5057 924.61185 1592.2402 916.47852 1592.2402 z M 316.20312 1592.4395 C 308.60312 1592.4395 303.07018 1596.2398 299.60352 1603.8398 C 297.20352 1609.1732 296.00195 1615.5724 296.00195 1623.0391 C 296.00195 1630.1057 297.20352 1636.3073 299.60352 1641.6406 C 303.60352 1649.2406 309.13646 1653.0391 316.20312 1653.0391 C 323.93646 1653.0391 329.60312 1649.2406 333.20312 1641.6406 C 335.60313 1636.3073 336.80273 1630.1057 336.80273 1623.0391 C 336.80273 1615.5724 335.60313 1609.1732 333.20312 1603.8398 C 329.73646 1596.2398 324.06979 1592.4395 316.20312 1592.4395 z "
       transform="matrix(0.26458333,0,0,0.26458333,0,-203)"
       id="path3757" />
    <g
       aria-label="VORSICHT
VOR"
       style="font-style:normal;font-variant:normal;font-weight:normal;font-stretch:normal;font-size:10.58333302px;line-height:1.25;font-family:'Highway Gothic';-inkscape-font-specification:'Highway Gothic';letter-spacing:0px;word-spacing:0px;fill:#ff0000;fill-opacity:1;stroke:none;stroke-width:0.26458332"
       id="text26">
      <path
         d="m 58.675857,-88.485401 -12.41425,40.181389 H 40.444301 L 28.209968,-88.485401 h 6.656917 l 8.576027,26.807583 8.456084,-26.807583 z"
         style="font-size:59.97222137px;text-align:center;text-anchor:middle;fill:#ff0000;stroke-width:0.26458332"
         id="path23" />
      <path
         d="m 77.008616,-47.584346 q -7.076722,0 -10.914944,-5.337527 -3.77825,-5.3975 -3.77825,-15.472833 0,-9.835445 3.77825,-15.292917 3.838222,-5.457472 10.914944,-5.457472 7.196667,0 10.914944,5.457472 3.77825,5.457472 3.77825,15.292917 0,10.075333 -3.77825,15.472833 -3.718277,5.337527 -10.914944,5.337527 z m 0,-35.203694 q -4.198055,0 -6.117167,4.018139 -1.919111,3.958167 -1.979083,10.25525 0,7.076722 1.859139,10.735028 1.919111,3.658305 6.237111,3.598333 4.557889,-0.119944 6.297083,-3.77825 1.739195,-3.658305 1.859139,-10.555111 -0.119944,-6.716889 -2.039055,-10.375194 -1.859139,-3.658306 -6.117167,-3.898195 z"
         style="font-size:59.97222137px;text-align:center;text-anchor:middle;fill:#ff0000;stroke-width:0.26458332"
         id="path25" />
      <path
         d="m 124.29391,-48.304012 h -6.89681 l -6.477,-17.451917 h -7.61647 v 17.451917 h -6.357056 v -40.181389 h 15.892636 q 4.91772,0.05997 7.73642,3.598334 2.87867,3.478389 2.87867,7.676444 0,3.178528 -1.7392,6.057194 -1.73919,2.818695 -4.49792,4.078111 z m -7.1367,-28.726694 q 0,-2.338917 -1.43933,-3.598334 -1.37936,-1.259416 -3.11856,-1.319388 h -9.29569 v 9.895416 h 9.53558 q 1.79917,0 3.05859,-1.319389 1.25941,-1.319389 1.25941,-3.658305 z"
         style="font-size:59.97222137px;text-align:center;text-anchor:middle;fill:#ff0000;stroke-width:0.26458332"
         id="path27" />
      <path
         d="m 148.26405,-79.369623 q -1.91911,-3.538361 -5.93725,-3.598333 -2.33892,0 -3.89819,1.439333 -1.55928,1.439333 -1.49931,3.418417 0,1.439333 1.37936,2.578805 1.43934,1.139472 4.49792,1.61925 7.25664,1.259417 10.49514,4.917722 3.29847,3.598334 3.29847,8.276167 0,5.157611 -3.89819,9.17575 -3.8982,3.958166 -9.7155,3.958166 -9.23573,-0.119944 -13.73364,-9.355666 l 6.05719,-3.058583 q 2.8187,5.817305 7.79639,5.817305 2.87867,0.05997 4.97769,-1.979083 2.09903,-2.099028 2.09903,-4.85775 0.06,-1.859139 -1.61925,-3.658306 -1.67922,-1.859139 -5.93725,-2.638777 -5.75733,-0.839612 -8.81591,-3.478389 -3.05859,-2.69875 -3.05859,-6.417028 -0.11994,-4.437944 3.11856,-8.156222 3.2385,-3.77825 8.57603,-3.77825 7.49652,0.179917 11.15483,7.076722 z"
         style="font-size:59.97222137px;text-align:center;text-anchor:middle;fill:#ff0000;stroke-width:0.26458332"
         id="path29" />
      <path
         d="m 170.17733,-48.304012 h -6.477 v -40.181389 h 6.477 z"
         style="font-size:59.97222137px;text-align:center;text-anchor:middle;fill:#ff0000;stroke-width:0.26458332"
         id="path31" />
      <path
         d="m 193.05018,-54.001373 q 4.43794,-0.05997 6.41703,-4.198056 l 5.93725,2.938639 q -3.65831,7.436555 -12.35428,7.616472 -7.07672,0 -10.91495,-5.457472 -3.77825,-5.457472 -3.77825,-15.292916 0,-9.835445 3.77825,-15.292917 3.83823,-5.457472 10.91495,-5.457472 8.69597,0.179917 12.35428,7.616472 l -5.93725,2.938639 q -1.97909,-4.138083 -6.41703,-4.198056 -4.19806,0 -6.11717,4.018139 -1.91911,3.958167 -1.91911,10.375195 0,6.417027 1.91911,10.435166 1.91911,3.958167 6.11717,3.958167 z"
         style="font-size:59.97222137px;text-align:center;text-anchor:middle;fill:#ff0000;stroke-width:0.26458332"
         id="path33" />
      <path
         d="m 238.85021,-48.304012 h -6.35705 v -17.451917 h -14.63323 v 17.451917 h -6.35705 v -40.181389 h 6.35705 v 16.252472 h 14.63323 v -16.252472 h 6.35705 z"
         style="font-size:59.97222137px;text-align:center;text-anchor:middle;fill:#ff0000;stroke-width:0.26458332"
         id="path35" />
      <path
         d="m 269.59723,-82.848012 h -9.29569 v 34.544 h -6.35706 v -34.544 h -9.17575 v -5.637389 h 24.8285 z"
         style="font-size:59.97222137px;text-align:center;text-anchor:middle;fill:#ff0000;stroke-width:0.26458332"
         id="path37" />
      <path
         d="m 131.4156,-13.520124 -12.41425,40.181388 h -5.8173 l -12.23434,-40.181388 h 6.65692 l 8.57603,26.807583 8.45608,-26.807583 z"
         style="font-size:59.97222137px;text-align:center;text-anchor:middle;fill:#ff0000;stroke-width:0.26458332"
         id="path39" />
      <path
         d="m 149.74836,27.380931 q -7.07672,0 -10.91494,-5.337528 -3.77825,-5.3975 -3.77825,-15.4728327 0,-9.8354443 3.77825,-15.2929165 3.83822,-5.4574718 10.91494,-5.4574718 7.19667,0 10.91495,5.4574718 3.77825,5.4574722 3.77825,15.2929165 0,10.0753327 -3.77825,15.4728327 -3.71828,5.337528 -10.91495,5.337528 z m 0,-35.2036939 q -4.19805,0 -6.11717,4.0181389 -1.91911,3.95816657 -1.97908,10.2552498 0,7.0767222 1.85914,10.7350272 1.91911,3.658306 6.23711,3.598334 4.55789,-0.119945 6.29708,-3.77825 1.7392,-3.658306 1.85914,-10.5551112 -0.11994,-6.71688878 -2.03905,-10.3751943 -1.85914,-3.6583055 -6.11717,-3.8981944 z"
         style="font-size:59.97222137px;text-align:center;text-anchor:middle;fill:#ff0000;stroke-width:0.26458332"
         id="path41" />
      <path
         d="m 197.03365,26.661264 h -6.8968 l -6.477,-17.451916 h -7.61648 v 17.451916 h -6.35705 v -40.181388 h 15.89264 q 4.91772,0.05997 7.73641,3.5983334 2.87867,3.4783888 2.87867,7.6764443 0,3.17852775 -1.73919,6.0571944 -1.7392,2.8186944 -4.49792,4.078111 z m -7.13669,-28.7266936 q 0,-2.3389167 -1.43934,-3.5983333 -1.37936,-1.2594167 -3.11855,-1.3193889 h -9.2957 v 9.8954166 h 9.53559 q 1.79916,0 3.05858,-1.3193889 1.25942,-1.31938889 1.25942,-3.6583055 z"
         style="font-size:59.97222137px;text-align:center;text-anchor:middle;fill:#ff0000;stroke-width:0.26458332"
         id="path43" />
    </g>
  </g>
</svg>
