<?xml version="1.0" encoding="utf-8"?>
<!DOCTYPE svg PUBLIC "-//W3C//DTD SVG 1.1//EN" "http://www.w3.org/Graphics/SVG/1.1/DTD/svg11.dtd">
<svg xmlns="http://www.w3.org/2000/svg" width="608.37335" height="540.03998">
  <g transform="matrix(1.33333 0 0 -1.33333 0 540.04)">
    <path fill="#e4002b" d="M36.8508 0C23.6852 0 11.5195 7.02344 4.93711 18.425c-6.58242 11.4012-6.58242 25.4488 0 36.8504L196.229 386.602c6.582 11.402 18.748 18.425 31.913 18.425s25.33-7.023 31.913-18.425L451.347 55.2754c6.582-11.4016 6.582-25.4492 0-36.8504C444.763 7.02344 432.599 0 419.433 0H36.8508"/>
    <path fill="#ffcd00" d="M46.6699 42.5195L228.142 356.838l158.44-274.4259 23.032-39.8926H46.6699"/>
    <path d="M280.859 204.153c.264-1.866 1.289-3.54 2.834-4.621l28.107-19.68c2.631-1.843 3.616-5.275 2.36-8.232l-7.022-16.542c-.634-1.495-1.879-2.646-3.42-3.161-1.539-.515-3.226-.346-4.632.467l-8.475 4.891c-1.547-5.011-6.005-8.564-11.236-8.956-5.231-.391-10.168 2.459-12.444 7.185-2.276 4.725-1.427 10.363 2.139 14.209l-60.451 34.902c-1.548-5.011-6.006-8.566-11.237-8.957-5.23-.391-10.167 2.459-12.443 7.184-2.277 4.726-1.428 10.363 2.138 14.21l-12.55 7.246c-2.712 1.565-3.641 5.032-2.076 7.744l8.494 14.71c1.227 2.127 3.685 3.222 6.088 2.711l11.325-2.407c1.956-.415 3.995-.129 5.76.81l19.041 10.124c2.071 1.101 4.564 1.058 6.596-.115l44.504-25.695c1.813-1.046 3.042-2.867 3.335-4.939l3.265-23.088"/>
    <path fill="#ffcd00" d="M268.995 207.071l-2.318 16.394-15.22 8.788-6.52-11.292 24.058-13.89"/>
    <path d="M378.455 96.4883c-7.674-.8262-15.417.7176-22.188 4.4247-4.447 3.025-10.291 3.025-14.74 0-11.302-6.1884-24.981-6.1884-36.283 0-4.448 3.025-10.291 3.025-14.74 0-11.303-6.1884-24.981-6.1884-36.284 0-4.447 3.025-10.291 3.025-14.74 0-11.302-6.1884-24.98-6.1884-36.283 0-2.174 1.478-4.742 2.269-7.37 2.269V87.3066c2.628 0 5.196-.7902 7.37-2.2675 11.303-6.1895 24.981-6.1895 36.283 0 4.449 3.0234 10.293 3.0234 14.74 0 11.303-6.1895 24.981-6.1895 36.284 0 4.449 3.0234 10.292 3.0234 14.74 0 11.302-6.1895 24.981-6.1895 36.283 0 4.449 3.0234 10.293 3.0234 14.74 0 9.29-5.0871 20.289-6.0403 30.315-2.627l8.776-15.2012c-.991-.3671-1.933-.8535-2.807-1.4472-11.303-6.1895-24.981-6.1895-36.284 0-4.447 3.0234-10.291 3.0234-14.74 0-11.302-6.1895-24.981-6.1895-36.283 0-4.448 3.0234-10.291 3.0234-14.74 0-11.303-6.1895-24.981-6.1895-36.284 0-4.447 3.0234-10.291 3.0234-14.74 0-11.302-6.1895-24.98-6.1895-36.283 0-2.174 1.4773-4.742 2.2676-7.37 2.2676V42.5195H46.6699L134.982 195.481h60.845v-73.024c2.628 0 5.196-.791 7.37-2.268 11.303-6.189 24.981-6.189 36.283 0 4.449 3.024 10.293 3.024 14.74 0 11.303-6.189 24.981-6.189 36.284 0 4.449 3.024 10.292 3.024 14.74 0 11.302-6.189 24.981-6.189 36.283 0 4.449 3.024 10.293 3.024 14.74 0 3.369-1.844 6.998-3.165 10.764-3.915l11.424-19.7857"/>
    <path fill="#ffcd00" d="M240.9 238.347l-14.729 8.504-13.884-7.04 22.094-12.756 6.519 11.292"/>
  </g>
</svg>
