<?xml version="1.0" encoding="utf-8"?>
<!-- Generator: Adobe Illustrator 14.0.0, SVG Export Plug-In . SVG Version: 6.00 Build 43363)  -->
<!DOCTYPE svg PUBLIC "-//W3C//DTD SVG 1.1//EN" "http://www.w3.org/Graphics/SVG/1.1/DTD/svg11.dtd">
<svg version="1.1"
	 id="svg2" xmlns:dc="http://purl.org/dc/elements/1.1/" xmlns:cc="http://web.resource.org/cc/" xmlns:rdf="http://www.w3.org/1999/02/22-rdf-syntax-ns#" xmlns:svg="http://www.w3.org/2000/svg" xmlns:sodipodi="http://sodipodi.sourceforge.net/DTD/sodipodi-0.dtd" xmlns:inkscape="http://www.inkscape.org/namespaces/inkscape" sodipodi:version="0.32" inkscape:version="0.44" sodipodi:docbase="/home/henning" sodipodi:docname="D-M001_Augenschutz_benutzen.svg"
	 xmlns="http://www.w3.org/2000/svg" xmlns:xlink="http://www.w3.org/1999/xlink" x="0px" y="0px" width="555px" height="574.016px"
	 viewBox="0 0 555 574.016" enable-background="new 0 0 555 574.016" xml:space="preserve">
<polyline fill="#FF0000" points="555.961,0 555.834,575.432 0,575.432 0,0.13 555.961,0 "/>
<polygon fill="#FFFFFF" points="224.767,0 224.767,331.452 555.961,331.452 555.961,0 "/>
<rect x="230.274" y="4.995" fill="#FF0000" width="320.949" height="320.95"/>
<polygon fill="#FFFFFF" points="236.294,11.271 236.294,320.182 545.459,320.182 545.459,11.271 "/>
<g id="XMLID_2_">
	<g>
		<path fill="#FFFFFF" d="M507.797,360.409c4.277,2.985,3.305,11.731,0,15.807c-22.355,27.468-67.76,28.841-102.076,44.89
			c-20.234,9.451-30.84,29.228-46.104,48.299c-45.684,55.218-83.057,61.61-128.393,69.267
			c-110.802,13.311-190.072-59.399-184.196-92.064c0,0,24.267,20.688,40.157,26.729c46.274,17.668,118.938,15.244,172.862,8.288
			c48.776-6.321,91.124-10.57,106.946-42.183c9.867-19.741-6.748-33.549-14.26-45.281
			C413.404,397.045,478.176,339.686,507.797,360.409z"/>
		<path fill="#FFFFFF" d="M340.881,392.021c1.354,12.785-26.598-1.194-26.078,7.903c0.732,12.609,24.373,8.78,31.293,18.438
			c-10.953,8.256-31.219-1.192-46.936,10.539c-10.154,7.586,17.033,16.648,5.213,21.075c-35.914,13.451-113.479,14.61-135.59-10.536
			c-23.259,11.168-59.591,26.237-78.261,0c7.475-20.549,49.404-6.29,73.044-10.539c-1.808-10.469-13.872-10.573-15.645-21.076
			c24.198-11.553,71.273,0,99.085-7.901c5.563-13.522-13.281-2.388-10.429-13.173c-59.105-3.479-109.203,9.555-158.191,16.299
			c33.202-17.388,83.476-25.011,132.116-26.836c-37.931-21.392-111.534-36.531-88.656-89.57
			c13.593-31.542,57.087-26.625,52.151-73.764c39.111-12.962,15.019-75.027-5.215-89.604c35.254,0.385,43.841,27.749,49.543,57.957
			c0,0,4.415,12.224,2.607,15.807c-9.143,18.159-0.208,46.505-5.215,73.797c-3.059,16.615-18.462,27.328-15.644,42.15
			c1.876,10.012,9.386,15.424,15.644,21.076c25.867,23.287,69.604-5.34,57.366,39.517C295.09,380.323,320.68,383.45,340.881,392.021
			z"/>
		<path fill="#FFFFFF" d="M163.567,133.814c22.147,29.224,7.301,89.289-20.859,100.144c5.249-11.064,10.151-19.987,10.43-34.247
			c-2.469-5.445-10.257-5.479-10.43-13.208C159.325,178.738,159.535,154.362,163.567,133.814z"/>
		<path fill="#FFFFFF" d="M158.352,133.814c-9.283,8.22,0.73,35.899-20.859,31.614C135.442,145.792,141.735,134.622,158.352,133.814
			z"/>
	</g>
</g>
<g>
	<text transform="matrix(1.0444 0 0 1 297.8535 281.0469)" fill="#FF0000" font-family="'ArialMT'" font-size="299.3185">F</text>
</g>
</svg>
