<?xml version="1.0" encoding="utf-8"?>
<!-- Generator: Adobe Illustrator 14.0.0, SVG Export Plug-In . SVG Version: 6.00 Build 43363)  -->
<!DOCTYPE svg PUBLIC "-//W3C//DTD SVG 1.1//EN" "http://www.w3.org/Graphics/SVG/1.1/DTD/svg11.dtd">
<svg version="1.1"
	 id="svg2" xmlns:dc="http://purl.org/dc/elements/1.1/" xmlns:cc="http://web.resource.org/cc/" xmlns:rdf="http://www.w3.org/1999/02/22-rdf-syntax-ns#" xmlns:svg="http://www.w3.org/2000/svg" xmlns:sodipodi="http://sodipodi.sourceforge.net/DTD/sodipodi-0.dtd" xmlns:inkscape="http://www.inkscape.org/namespaces/inkscape" sodipodi:version="0.32" inkscape:version="0.44" sodipodi:docbase="/home/henning" sodipodi:docname="D-M001_Augenschutz_benutzen.svg"
	 xmlns="http://www.w3.org/2000/svg" xmlns:xlink="http://www.w3.org/1999/xlink" x="0px" y="0px" width="555px" height="574.016px"
	 viewBox="0 0 555 574.016" enable-background="new 0 0 555 574.016" xml:space="preserve">
<g id="XMLID_1_">
	<g>
		<path fill="#FF0000" d="M554.395,330.122c0,81.319,0,162.575,0,243.894c-185.109,0-370.285,0-555.395,0
			C-1,382.402-1,190.791-1-0.821c74.816,0,149.568,0,224.385,0c0,110.164,0,220.329,0,330.495
			C332.777,330.768,444.166,329.865,554.395,330.122z M302.646,407.128c28.844,13.845,71.787-8.112,69.984-42.237
			c-0.385-7.211-5.535-15.193-10.172-18.992c-4.828-3.929-16.354-8.756-22.73-7.403c-0.896,7.596,0.711,15.901-0.447,23.178
			c-4.057,24.853-22.406,33.997-47.773,36.638c-0.064,2.896,3.412,3.475,5.086,4.635
			C298.781,404.359,300.648,406.163,302.646,407.128z M328.592,518.388c23.502-14.294,41.143-34.318,57.045-56.146
			c-15.129-10.817-30.195-21.697-45.908-31.937c-24.078,36.186-66.573,66.317-127.032,60.717c-15.065-1.416-30.906-5.73-44.04-11.14
			c-18.222-7.471-32.58-17.127-44.04-31.55c-18.222-22.793-33.095-50.67-37.086-85.246c-4.443-38.632,8.176-66.703,24.144-88.081
			c12.104-16.289,26.593-29.101,43.525-40.369c-9.658-16.547-19.38-33.093-29.617-49.126c-10.365,6.696-19.637,14.357-29.231,21.762
			c5.345,7.018,11.14,13.65,16.227,20.861c-11.01,9.401-19.188,21.633-28.716,32.45c-6.889-5.151-13.07-11.01-20.86-15.26
			c-11.976,19.381-21.505,41.272-27.816,66.254c8.756,2.061,16.805,4.765,24.531,7.92c-2.253,17.063-3.606,36.441-2.317,55.63
			c-9.208,0.386-17.834,1.287-25.948,2.769c4.572,25.367,12.234,47.711,21.762,68.119c8.628-2.64,15.839-6.694,24.596-9.271
			c8.82,15.646,21.247,27.622,32.45,40.822c-4.764,7.273-10.494,13.585-15.324,20.858c16.933,13.521,34.125,26.785,56.595,34.771
			c3.542-7.921,5.795-17.063,10.173-24.082c13.07,6.504,29.424,9.788,47.325,11.591c-0.322,9.143-0.837,18.028-1.417,26.85
			c26.656,0.901,50.35-1.289,70.954-6.504c-1.287-9.271-3.413-17.577-5.602-25.949c13.651-5.535,25.819-12.555,39.405-18.091
			C318.035,503.9,323.377,511.111,328.592,518.388z M298.912,429.793c-12.49-15.389-26.013-29.875-38.891-44.941
			c-7.662,6.244-14.487,12.877-25.497,14.809c-39.146,6.824-65.674-28.395-54.277-62.584c4.765-14.229,19.445-25.946,35.734-29.166
			c-0.257-17.32,0.257-36.957,0-53.762c-0.064-1.932,1.159-5.602-1.417-6.502c-30.39,3.927-51.25,15.324-68.121,34.317
			c-14.293,16.033-26.011,37.28-27.814,63.035c-2.383,32.645,9.078,58.141,24.08,76.49c15.324,18.736,42.43,36.056,72.305,38.438
			C255.386,463.144,277.664,447.82,298.912,429.793z M213.148,228.135c6.502-14.101,4.506-32.966,0.966-45.843
			c-4.958-17.771-16.483-34.704-17.191-51.959c-0.193-5.216,0.515-10.624,1.867-14.358c1.675-4.572,6.632-8.048,5.602-14.809
			c-1.545-1.481-2.962-2.962-6.503-2.318c-9.658,10.688-20.411,20.475-25.046,35.219c-2.447,7.663-3.349,17.963-2.318,27.814
			c2.061,19.509,12.749,33.352,22.729,45.393c3.09,3.735,6.439,7.211,9.722,10.688C206.387,221.503,208.706,226.462,213.148,228.135
			z M157.52,204.957c2.253-5.794,0.386-12.62-0.451-19.445c-0.773-6.245-2.318-12.941-2.769-19.96
			c-1.288-19.251,2.188-40.176-0.452-57.432c-3.09-20.088-16.096-32.772-27.814-44.556c-3.606-3.542-7.082-8.949-13.906-7.404
			c-4.379,1.674-1.159,9.593-0.967,15.324c0.643,14.616-1.545,40.241-0.451,55.63c1.288,17.513,12.685,33.61,20.861,45.908
			c5.794,8.627,12.491,16.611,17.641,25.496C151.016,201.672,152.432,206.824,157.52,204.957z M78.26,223.049
			c0.644-15.71-8.242-20.732-13.907-31.033c-2.253-4.185-4.7-9.979-5.988-14.874c-6.825-25.754,5.795-59.621-9.271-80.611
			c-3.606-0.064-7.598-0.515-8.82,1.804c-0.258,24.209-10.624,40.306-14.357,62.133c-1.159,6.567-3.026,14.165-1.868,19.96
			c0.837,4.25,5.795,11.461,9.271,15.774c3.734,4.573,8.306,9.594,12.491,12.943C54.823,216.353,65.51,222.083,78.26,223.049z"/>
		<path fill="#FFFFFF" d="M554.395-0.82c0,110.292,0,220.65,0,330.944c-110.229-0.258-221.617,0.644-331.009-0.45
			c0-110.166,0-220.33,0-330.495C333.68-0.82,444.037-0.82,554.395-0.82z M549.758,325.035c0-106.944,0-213.824,0-320.771
			c-106.814,0-213.57,0-320.385,0c-0.515,0.064-0.45,0.709-0.45,1.352c0,106.494,0,212.989,0,319.418
			C335.869,325.035,442.811,325.035,549.758,325.035z"/>
		<path fill="#FF0000" d="M549.758,4.266c0,106.945,0,213.826,0,320.772c-106.943,0-213.891,0-320.835,0
			c0-106.431,0-212.925,0-319.419c0-0.643-0.064-1.287,0.45-1.352C336.191,4.266,442.943,4.266,549.758,4.266z M543.705,318.984
			c0-102.89,0-205.777,0-308.731c-102.76,0-205.52,0-308.279,0c-0.516,0.129-0.516,0.773-0.451,1.417c0,102.438,0,204.875,0,307.313
			C337.863,318.984,440.818,318.984,543.705,318.984z"/>
		<path fill="#FFFFFF" d="M543.705,10.253c0,102.954,0,205.842,0,308.731c-102.887,0-205.842,0-308.73,0
			c0-102.438,0-204.876,0-307.313c-0.064-0.644-0.064-1.288,0.451-1.416C338.186,10.253,440.947,10.253,543.705,10.253z"/>
		<path fill="#FFFFFF" d="M372.631,364.891c1.803,34.125-41.141,56.082-69.984,42.237c-1.998-0.965-3.865-2.769-6.055-4.185
			c-1.672-1.158-5.15-1.739-5.086-4.635c25.367-2.642,43.719-11.785,47.773-36.638c1.158-7.274-0.449-15.582,0.449-23.178
			c6.375-1.353,17.9,3.476,22.73,7.403C367.096,349.695,372.248,357.68,372.631,364.891z"/>
		<path fill="#FFFFFF" d="M385.637,462.242c-15.902,21.825-33.543,41.852-57.045,56.146c-5.215-7.277-10.559-14.486-16.225-21.376
			c-13.586,5.537-25.756,12.556-39.405,18.091c2.188,8.372,4.313,16.68,5.602,25.949c-20.604,5.215-44.298,7.405-70.955,6.504
			c0.58-8.82,1.095-17.707,1.417-26.85c-17.9-1.803-34.254-5.086-47.325-11.591c-4.378,7.019-6.631,16.161-10.173,24.082
			c-22.471-7.984-39.663-21.247-56.595-34.771c4.829-7.273,10.56-13.585,15.324-20.858c-11.203-13.199-23.629-25.176-32.45-40.822
			c-8.757,2.577-15.968,6.633-24.596,9.271c-9.529-20.409-17.191-42.751-21.762-68.12c8.112-1.479,16.74-2.381,25.949-2.768
			c-1.289-19.188,0.064-38.568,2.317-55.63c-7.727-3.155-15.775-5.858-24.531-7.92c6.311-24.982,15.839-46.873,27.815-66.253
			c7.791,4.249,13.972,10.107,20.861,15.259c9.529-10.817,17.707-23.05,28.715-32.45c-5.085-7.21-10.881-13.842-16.226-20.861
			c9.594-7.405,18.866-15.067,29.231-21.762c10.238,16.033,19.96,32.579,29.617,49.126c-16.933,11.268-31.42,24.081-43.525,40.37
			c-15.967,21.376-28.587,49.448-24.144,88.081c3.992,34.576,18.864,62.453,37.086,85.246c11.46,14.423,25.818,24.082,44.04,31.55
			c13.134,5.408,28.974,9.724,44.04,11.14c60.458,5.604,102.956-24.531,127.034-60.717
			C355.441,440.545,370.508,451.426,385.637,462.242z"/>
		<path fill="#FFFFFF" d="M260.021,384.852c12.877,15.064,26.399,29.553,38.891,44.941c-21.248,18.027-43.526,33.351-83.896,30.132
			c-29.875-2.383-56.981-19.701-72.306-38.438c-15.001-18.352-26.462-43.847-24.08-76.49c1.803-25.755,13.521-47.002,27.814-63.034
			c16.871-18.994,37.73-30.391,68.122-34.317c2.575,0.901,1.352,4.571,1.416,6.502c0.257,16.805-0.257,36.442,0,53.762
			c-16.289,3.22-30.97,14.938-35.734,29.167c-11.396,34.188,15.13,69.407,54.277,62.583
			C245.534,397.729,252.359,391.098,260.021,384.852z"/>
		<path fill="#FFFFFF" d="M214.114,182.293c3.542,12.877,5.537,31.742-0.966,45.843c-4.443-1.674-6.761-6.632-10.174-10.174
			c-3.284-3.476-6.632-6.953-9.723-10.688c-9.979-12.04-20.667-25.884-22.728-45.393c-1.03-9.852-0.128-20.152,2.318-27.814
			c4.635-14.744,15.389-24.531,25.046-35.219c3.542-0.644,4.958,0.837,6.502,2.318c1.03,6.76-3.928,10.236-5.602,14.809
			c-1.352,3.734-2.061,9.142-1.867,14.358C197.632,147.589,209.156,164.522,214.114,182.293z"/>
		<path fill="#FFFFFF" d="M157.068,185.512c0.837,6.825,2.703,13.65,0.451,19.445c-5.087,1.867-6.503-3.284-8.306-6.439
			c-5.151-8.885-11.848-16.869-17.642-25.496c-8.177-12.297-19.574-28.395-20.861-45.908c-1.094-15.389,1.095-41.014,0.451-55.63
			c-0.192-5.73-3.413-13.65,0.967-15.324c6.824-1.544,10.302,3.863,13.907,7.404c11.718,11.782,24.724,24.466,27.814,44.556
			c2.64,17.256-0.837,38.181,0.452,57.432C154.751,172.571,156.295,179.266,157.068,185.512z"/>
		<path fill="#FFFFFF" d="M64.352,192.016c5.667,10.301,14.552,15.325,13.907,31.033c-12.749-0.966-23.437-6.696-32.45-13.907
			c-4.185-3.35-8.757-8.371-12.491-12.943c-3.477-4.313-8.435-11.525-9.271-15.774c-1.159-5.795,0.708-13.393,1.867-19.961
			c3.735-21.826,14.101-37.923,14.358-62.133c1.224-2.318,5.215-1.867,8.82-1.803c15.066,20.99,2.447,54.857,9.271,80.611
			C59.651,182.035,62.099,187.83,64.352,192.016z"/>
	</g>
</g>
<text transform="matrix(0.9987 0 0 1 283.0781 279.749)" fill="#FF0000" font-family="'ArialMT'" font-size="277.0898">D</text>
<sodipodi:namedview  units="mm" width="210mm" height="297mm" id="base" inkscape:cy="287.00788" borderopacity="1.0" gridtolerance="10000" guidetolerance="10" objecttolerance="10" inkscape:zoom="1.3379424" pagecolor="#ffffff" inkscape:cx="287.0078" bordercolor="#666666" inkscape:pageopacity="0.0" inkscape:pageshadow="2" inkscape:document-units="mm" inkscape:current-layer="layer1" inkscape:window-width="1272" inkscape:window-height="966" inkscape:window-x="0" inkscape:window-y="0">
	</sodipodi:namedview>
</svg>
