<?xml version="1.0" encoding="utf-8"?>
<!-- Generator: Adobe Illustrator 14.0.0, SVG Export Plug-In . SVG Version: 6.00 Build 43363)  -->
<!DOCTYPE svg PUBLIC "-//W3C//DTD SVG 1.1//EN" "http://www.w3.org/Graphics/SVG/1.1/DTD/svg11.dtd">
<svg version="1.1"
	 id="svg2" xmlns:dc="http://purl.org/dc/elements/1.1/" xmlns:cc="http://web.resource.org/cc/" xmlns:rdf="http://www.w3.org/1999/02/22-rdf-syntax-ns#" xmlns:svg="http://www.w3.org/2000/svg" xmlns:sodipodi="http://sodipodi.sourceforge.net/DTD/sodipodi-0.dtd" xmlns:inkscape="http://www.inkscape.org/namespaces/inkscape" sodipodi:version="0.32" inkscape:version="0.44" sodipodi:docbase="/home/henning" sodipodi:docname="D-M001_Augenschutz_benutzen.svg"
	 xmlns="http://www.w3.org/2000/svg" xmlns:xlink="http://www.w3.org/1999/xlink" x="0px" y="0px" width="554.574px"
	 height="574.016px" viewBox="0 0 554.574 574.016" enable-background="new 0 0 554.574 574.016" xml:space="preserve">
<sodipodi:namedview  units="mm" width="210mm" height="297mm" id="base" inkscape:cy="287.00788" borderopacity="1.0" gridtolerance="10000" guidetolerance="10" objecttolerance="10" inkscape:zoom="1.3379424" pagecolor="#ffffff" inkscape:cx="287.0078" bordercolor="#666666" inkscape:pageopacity="0.0" inkscape:pageshadow="2" inkscape:document-units="mm" inkscape:current-layer="layer1" inkscape:window-width="1272" inkscape:window-height="966" inkscape:window-x="0" inkscape:window-y="0">
	</sodipodi:namedview>
<g>
	<polygon fill-rule="evenodd" clip-rule="evenodd" fill="#FF0000" points="0.928,1.398 0.928,574.508 554.679,574.508 
		554.679,1.398 0.928,1.398 	"/>
	<polygon fill-rule="evenodd" clip-rule="evenodd" fill="#FFFFFF" points="224.569,1.398 224.569,331.51 554.424,331.51 
		554.424,1.398 224.569,1.398 	"/>
	<path fill-rule="evenodd" clip-rule="evenodd" fill="#FFFFFF" d="M490.491,517.961L490.491,517.961v25.472l0,0l-153.434-0.923
		l-77.784-0.797l-76.702-0.924l0,0h-11.016l-11.144,0.255l-11.016,0.287l-5.317-0.287l-5.445-0.255l0,0l-2.929-0.382l-3.184-0.541
		l-2.897-0.923l-1.21-0.796l-0.923-0.669l0,0l-0.924-1.21l-0.922-1.719l-0.542-1.72l-0.286-1.847v-2.007l0.286-1.847l0.254-1.718
		l0.669-1.752l0,0l1.21-1.592l1.432-1.465l1.752-0.924l1.846-1.051l3.853-1.591l1.974-0.797l1.465-0.924l0,0l-1.178-2.388
		l-1.21-2.006l-1.719-2.132l-2.006-1.72l-3.566-3.567l-3.852-3.597l0,0l-6.91-7.037l-3.185-3.565l-2.929-3.599l0,0l4.649-6.239
		l4.776-5.986l4.808-6.081l4.902-5.731l0,0h112.298l0,0l1.847,2.42l1.974,2.388l3.599,5.285l3.438,5.317l1.592,2.389l2.006,2.641
		l0,0l-2.644,3.058l-2.674,3.471l-5.954,6.495l-6.527,6.782l-6.368,6.367l0,0l-2.102,1.975l-2.133,2.133l-0.923,1.18l-0.796,1.209
		l-0.414,1.464v1.465l0,0l32.381,0.255l32.794,0.255h65.43l65.845-0.255H490.491L490.491,517.961L490.491,517.961z M241.762,485.707
		L241.762,485.707h1.465l1.846,0.255l1.083-0.255l0.669-0.255l0.509-0.668l0.414-0.924l0,0l-1.465-1.082l-1.337-0.67l-1.719-0.253
		l-1.719-0.255l-3.312,0.255l-3.471,0.253l0,0l-54.286-0.253l-27.478,0.253l-25.886,0.415l0,0h-0.254l-0.255,0.255v0.541
		l-0.286,0.669l-0.254,0.254l0,0l0.54,0.797l0.67,0.413l0.796,0.255l0.922,0.255l1.72-0.255h1.464l0,0h3.853h3.98h24.41
		l25.345,0.255l1.347,0.287h25.726l12.481-0.287L241.762,485.707L241.762,485.707L241.762,485.707z M214.826,516.241
		L214.826,516.241h2.133l2.388,0.255h1.05l0.923-0.509l0.924-0.67l0.541-0.955l0,0l-1.72-0.923l-1.878-0.796l-1.974-0.255
		l-1.847-0.256l-4.649,0.256h-4.139l0,0H177.51l-14.455,0.255l-12.481,0.286l0,0l-0.382,0.639l-0.287,0.539v0.67l0.287,0.54l0,0
		l7.418,0.511l7.96,0.159l16.588,0.254H214.826L214.826,516.241L214.826,516.241z"/>
	<polygon fill-rule="evenodd" clip-rule="evenodd" fill="#FF0000" points="229.917,6.493 229.917,326.16 549.839,326.16 
		549.839,6.493 229.917,6.493 	"/>
	<polygon fill-rule="evenodd" clip-rule="evenodd" fill="#FFFFFF" points="236.286,12.351 236.286,320.302 543.726,320.302 
		543.726,12.351 236.286,12.351 	"/>
	<polygon fill-rule="evenodd" clip-rule="evenodd" fill="#FFFFFF" points="219.983,437.216 219.983,437.216 218.964,437.979 
		218.964,437.979 219.267,437.551 219.983,437.216 219.983,437.216 	"/>
	<polygon fill-rule="evenodd" clip-rule="evenodd" fill="#FFFFFF" points="227.879,430.085 227.879,430.085 227.879,432.487 
		227.879,434.749 227.354,438.999 227.354,438.999 227.1,436.883 226.972,436.213 226.447,435.688 226.176,435.146 225.778,435.02 
		224.6,434.749 223.278,435.02 222.101,435.688 220.907,436.213 219.983,436.883 219.983,436.883 221.703,434.749 223.55,432.487 
		224.728,431.819 225.778,431.15 226.702,430.355 227.879,430.085 227.879,430.085 	"/>
	<polygon fill-rule="evenodd" clip-rule="evenodd" fill="#FFFFFF" points="118.591,435.608 118.591,435.608 119.116,436.134 
		119.371,436.277 119.371,436.277 118.591,435.879 118.049,435.353 117.922,434.956 117.922,434.956 114.229,432.058 
		110.918,429.146 109.071,427.696 107.097,426.519 104.979,425.595 102.592,424.672 102.592,424.672 102.066,426.248 
		101.812,427.967 102.066,429.686 102.337,431.262 103.531,434.956 104.454,437.979 104.454,437.979 101.812,435.608 
		99.694,432.981 97.704,429.814 96.128,426.772 94.68,423.223 93.485,419.657 91.098,412.142 91.098,412.142 91.098,412 91.241,412 
		91.495,412.142 91.495,412.142 95.333,414.771 99.168,417.412 102.735,420.054 106.174,422.953 109.469,425.992 112.637,429.146 
		115.678,432.313 118.591,435.608 118.591,435.608 	"/>
	<polygon fill-rule="evenodd" clip-rule="evenodd" fill="#FFFFFF" points="147.453,169.145 147.453,169.145 149.841,170.608 
		151.688,172.344 153.678,174.19 155.541,176.18 157.26,178.043 158.725,180.304 160.189,182.421 161.638,184.825 163.755,189.601 
		165.745,194.902 166.939,200.49 167.878,206.062 168.531,211.761 168.531,217.874 168.277,223.589 167.878,229.559 
		167.082,235.402 165.888,241.117 164.424,246.944 162.832,252.261 162.832,252.261 161.113,256.512 159.393,260.89 
		157.531,265.013 155.414,269.12 151.035,277.095 146.26,284.785 146.26,284.785 141.213,292.49 136.167,300.195 133.921,304.049 
		131.789,308.028 129.799,311.881 128.207,315.718 128.207,315.718 127.284,318.248 126.487,320.764 125.961,323.422 
		125.564,326.081 125.022,331.653 125.022,337.494 125.293,342.938 125.961,348.782 127.013,354.226 128.207,359.527 
		128.207,359.527 124.625,358.334 121.186,356.886 117.859,355.293 114.42,353.304 111.364,351.44 108.45,349.18 105.521,346.792 
		103.133,344.134 100.746,341.347 98.898,338.163 97.434,334.837 96.24,330.984 95.443,327.146 95.173,322.754 95.443,318.248 
		96.24,313.329 96.24,313.329 96.908,310.271 98.102,307.087 99.296,304.049 100.746,300.848 104.2,294.606 107.256,288.367 
		107.256,288.367 110.567,282.795 114.022,277.095 120.788,266.207 120.788,266.207 126.757,256.512 129.671,251.735 
		132.33,246.688 134.973,241.643 137.36,236.325 139.749,231.024 141.611,225.309 143.602,219.466 145.065,213.226 146.26,206.986 
		146.913,200.22 147.453,193.31 147.453,185.748 146.913,178.043 146.26,170.21 146.26,170.21 146.26,168.746 146.26,168.746 
		146.514,168.746 146.657,169.145 146.657,169.145 147.453,169.145 147.453,169.145 	"/>
	<polygon fill-rule="evenodd" clip-rule="evenodd" fill="#FFFFFF" points="269.398,429.83 269.398,429.83 269.653,431.008 
		269.653,431.898 269.255,432.807 268.729,433.714 267.79,435.655 267.249,436.563 266.979,437.472 266.979,437.472 266.851,438.49 
		266.851,437.727 266.581,436.817 266.581,435.655 266.581,435.655 266.31,435.131 265.784,434.749 265.116,434.494 
		264.304,434.494 264.304,434.494 265.514,433.062 266.851,432.169 268.188,431.262 269.398,429.83 269.398,429.83 	"/>
	<polygon fill-rule="evenodd" clip-rule="evenodd" fill="#FFFFFF" points="190.437,436.532 190.437,436.532 189.768,435.624 
		188.94,434.7 188.001,433.921 187.444,433.666 186.775,433.523 186.775,433.523 185.82,433.666 185.279,434.191 184.864,434.971 
		184.324,435.624 183.496,437.327 183.098,437.979 182.54,438.49 182.54,438.49 182.54,437.327 182.827,435.879 183.766,433.269 
		185.279,430.657 186.775,428.556 186.775,428.556 187.444,430.657 188.669,432.487 189.768,434.445 190.167,435.353 
		190.437,436.532 190.437,436.532 	"/>
	<polygon fill-rule="evenodd" clip-rule="evenodd" fill="#FFFFFF" points="160.38,438.059 160.38,438.059 157.467,433.969 
		155.748,431.853 154.156,429.861 152.149,428.284 150.303,426.565 148.043,425.101 145.655,423.652 145.655,423.652 
		144.715,425.101 143.919,427.092 143.521,428.938 143.521,431.182 143.521,433.301 143.792,435.417 144.715,439.51 144.715,439.51 
		143.792,438.33 142.726,437.136 141.802,435.942 141.133,434.494 140.083,431.182 139.144,427.489 138.745,423.652 
		138.475,419.816 138.475,415.852 138.745,411.744 138.745,411.744 144.985,417.443 148.043,420.342 151.227,423.525 
		153.885,426.565 156.543,429.861 158.661,433.698 159.584,435.942 160.38,438.059 160.38,438.059 	"/>
	<polygon fill-rule="evenodd" clip-rule="evenodd" fill="#FFFFFF" points="122.428,448.169 122.428,448.169 121.01,448.169 
		119.849,447.786 118.686,446.72 117.779,445.797 115.836,443.154 114.277,441.037 114.277,441.037 115.455,441.308 
		116.362,441.977 118.432,443.949 122.428,448.169 122.428,448.169 	"/>
	<polygon fill-rule="evenodd" clip-rule="evenodd" fill="#FFFFFF" points="111.475,434.463 111.475,434.463 110.679,434.733 
		110.01,435.131 109.74,435.926 109.74,436.579 110.01,438.299 110.408,440.017 110.408,440.017 109.198,438.299 108.004,435.926 
		106.794,433.269 106.38,430.085 106.38,430.085 107.064,430.625 107.861,431.15 109.071,432.074 110.01,433.269 111.475,434.463 
		111.475,434.463 	"/>
	<polygon fill-rule="evenodd" clip-rule="evenodd" fill="#FFFFFF" points="112.621,173.856 112.621,173.856 113.003,178.091 
		112.875,182.198 112.621,186.051 111.682,189.633 110.631,193.071 109.166,196.127 107.845,198.771 105.855,201.429 
		103.738,203.817 101.493,206.062 98.851,207.924 96.335,209.915 93.677,211.506 90.779,212.955 84.555,215.868 84.555,215.868 
		86.131,212.557 87.866,209.373 89.315,206.062 90.508,202.623 91.432,199.042 92.499,195.73 93.151,192.276 93.677,188.694 
		93.677,185.382 93.677,181.816 93.422,178.361 92.896,175.05 91.957,171.596 91.034,168.284 89.585,164.974 87.866,161.79 
		87.866,161.79 86.401,159.402 84.81,157.284 81.37,152.906 77.805,148.799 73.952,144.962 70.386,141.38 66.947,137.528 
		64.162,133.42 62.712,131.574 61.519,129.313 61.519,129.313 60.452,127.466 60.054,125.476 59.528,123.344 59.258,121.497 
		59.258,119.506 59.528,117.644 60.054,115.654 60.452,113.935 61.248,112.088 62.172,110.353 64.289,107.312 66.804,104.653 
		69.463,102.265 69.463,102.265 69.463,107.98 69.861,113.935 70.386,116.848 70.784,119.236 71.835,121.894 73.029,123.884 
		73.029,123.884 78.729,128.119 84.952,132.768 91.432,138.068 94.345,140.855 97.529,143.768 100.299,146.952 102.958,150.264 
		105.33,153.846 107.59,157.555 109.166,161.392 110.885,165.244 111.825,169.479 112.621,173.856 112.621,173.856 	"/>
	<polygon fill-rule="evenodd" clip-rule="evenodd" fill="#FFFFFF" points="215.494,140.505 215.494,140.505 216.688,143.418 
		217.627,146.204 218.551,149.659 219.076,153.241 219.474,156.806 219.474,160.93 219.347,164.766 218.551,168.874 
		218.551,168.874 218.153,171.262 217.086,173.649 215.892,175.767 214.698,178.027 213.25,179.874 211.658,181.593 
		209.922,183.456 207.932,184.921 204.096,187.833 199.845,190.477 195.197,192.864 190.42,194.982 190.42,194.982 193.079,189.681 
		195.197,184.649 197.186,179.476 198.651,174.175 199.574,168.874 199.845,166.231 199.845,163.572 199.845,160.93 
		199.845,158.271 199.319,155.612 198.922,152.97 198.922,152.97 198.126,150.311 197.186,147.923 195.992,145.28 194.798,142.893 
		191.886,138.387 188.972,134.28 188.972,134.28 186.187,130.173 182.732,126.591 175.965,119.57 172.909,115.988 169.996,112.406 
		168.802,110.416 167.608,108.554 166.668,106.579 165.872,104.447 165.872,104.447 165.745,102.728 165.475,101.135 
		165.475,99.416 165.475,97.697 165.745,96.231 166.143,94.64 167.608,91.456 169.327,88.813 171.19,86.155 173.18,83.767 
		175.297,81.379 175.297,81.379 175.568,87.349 175.965,93.191 176.491,95.961 177.032,98.891 177.956,101.263 178.879,103.65 
		178.879,103.65 183.925,106.579 188.972,110.146 194.002,114.253 199.049,118.901 203.953,123.678 206.34,126.32 208.473,129.233 
		210.463,131.892 212.31,134.678 214.045,137.591 215.494,140.505 215.494,140.505 	"/>
	<polygon fill-rule="evenodd" clip-rule="evenodd" fill="#FFFFFF" points="234.422,411.744 234.422,411.744 235.091,413.209 
		235.632,414.531 236.158,416.25 236.286,417.97 236.286,421.535 236.158,425.101 235.362,428.524 234.422,431.836 233.229,434.749 
		232.019,437.12 232.019,437.12 231.764,435.401 231.494,433.682 231.223,429.845 231.223,428.27 230.825,426.55 230.284,425.356 
		229.36,424.178 229.36,424.178 226.415,425.356 224.282,426.821 222.021,428.668 220.143,430.641 218.407,432.758 216.943,435.131 
		213.871,440.017 213.871,440.017 214.284,437.773 214.809,435.926 215.479,433.952 216.545,431.836 219.219,428.27 
		222.021,424.702 225.221,420.993 228.421,417.699 234.422,411.744 234.422,411.744 	"/>
	<polygon fill-rule="evenodd" clip-rule="evenodd" fill="#FFFFFF" points="186.17,439.51 186.17,439.51 186.966,440.05 
		187.364,440.958 187.89,442.151 188.144,443.583 188.144,444.777 187.89,445.956 187.364,447.135 186.696,447.658 186.696,447.658 
		186.043,447.658 185.246,447.405 184.864,446.88 184.594,446.48 184.324,445.431 184.594,443.981 184.864,442.803 185.246,441.626 
		186.17,439.51 186.17,439.51 	"/>
	<polygon fill-rule="evenodd" clip-rule="evenodd" fill="#FFFFFF" points="222.785,440.017 222.785,440.017 223.04,441.355 
		222.785,442.693 222.245,444.029 221.846,445.351 220.779,446.561 219.84,447.483 218.63,448.151 217.691,448.678 217.691,448.678 
		217.691,446.959 217.961,445.494 218.63,444.555 219.299,443.616 221.035,441.626 221.973,440.958 222.785,440.017 
		222.785,440.017 	"/>
	<polygon fill-rule="evenodd" clip-rule="evenodd" fill="#FFFFFF" points="261.502,440.527 261.502,440.527 261.502,441.723 
		260.993,442.899 260.34,444.077 259.56,445.144 257.475,447.246 255.134,448.678 255.134,448.678 255.405,447.5 255.787,446.577 
		256.694,445.399 257.745,444.348 259.815,442.502 260.722,441.451 261.502,440.527 261.502,440.527 	"/>
	<polygon fill-rule="evenodd" clip-rule="evenodd" fill="#FFFFFF" points="152.739,440.017 152.739,440.017 154.314,441.355 
		156.273,443.105 156.925,444.029 157.706,445.367 157.96,446.577 158.087,448.169 158.087,448.169 156.655,447.914 
		155.493,447.517 154.84,446.577 154.188,445.367 153.662,444.029 153.137,442.693 152.739,440.017 152.739,440.017 	"/>
	<polygon fill-rule="evenodd" clip-rule="evenodd" fill="#FFFFFF" points="147.135,429.83 147.135,429.83 147.406,429.973 
		148.058,430.227 149.491,431.279 150.908,432.455 152.086,433.634 152.994,434.812 153.248,435.194 152.994,435.194 
		152.611,435.194 150.653,434.017 150.653,434.017 150.271,434.287 149.746,435.067 149.22,436.245 148.838,439.51 148.838,439.51 
		147.661,435.067 147.135,432.582 147.135,429.83 147.135,429.83 	"/>
	<polygon fill-rule="evenodd" clip-rule="evenodd" fill="#FFFFFF" points="186.838,410.98 186.838,410.98 188.558,413.352 
		190.134,416.25 191.599,419.147 193.047,422.173 193.971,425.595 194.767,429.146 195.021,432.966 195.021,434.94 194.767,437.057 
		194.767,437.057 193.302,432.966 192.521,431.118 191.854,429.146 190.66,427.44 189.481,425.864 188.017,424.672 186.297,423.621 
		186.297,423.621 183.654,426.788 182.461,428.492 181.282,430.068 180.359,431.787 179.69,433.89 178.895,436.134 178.497,438.49 
		178.497,438.49 177.971,436.516 177.701,434.685 177.701,432.711 177.701,430.863 177.971,428.89 178.497,427.313 179.818,423.621 
		181.538,420.069 183.256,416.775 186.838,410.98 186.838,410.98 	"/>
	<polygon fill-rule="evenodd" clip-rule="evenodd" fill="#FFFFFF" points="281.88,412 281.88,412 281.88,415.852 281.354,419.562 
		280.43,422.889 279.252,425.929 277.533,429.113 275.83,431.771 273.983,434.43 272.009,436.547 272.009,436.547 272.535,434.43 
		273.458,430.849 273.712,428.859 273.458,427.267 273.06,425.802 272.79,425.005 272.009,424.607 272.009,424.607 269.637,425.929 
		267.519,427.395 263.046,430.578 259.226,433.89 255.134,437.472 255.134,437.472 257.777,433.89 260.547,430.578 263.699,427.395 
		267.265,424.337 274.636,418.112 281.88,412 281.88,412 	"/>
	<path fill-rule="evenodd" clip-rule="evenodd" fill="#FFFFFF" d="M495.076,508.249L495.076,508.249v46.265l0,0h-314.35l0,0
		l-10.38,0.125l-10.602,0.256h-10.348h-4.776l-4.776-0.381l-4.648-0.543l-4.234-0.797l-4.14-1.176l-3.852-1.34l-3.184-1.972
		l-1.72-0.925l-1.305-1.209l-1.21-1.178l-1.337-1.465l-1.178-1.465l-0.923-1.719l0,0l-0.414-2.644l-0.255-2.643v-2.674l0.255-2.644
		l0.414-2.643l0.796-2.389l0.923-2.387l1.178-2.389l0,0l0.956-1.465l0.923-1.464l1.719-2.101l0.795-1.211l0.669-0.924l0.509-1.177
		v-1.211l0,0v-1.051l-0.509-0.922l-0.924-1.72l-1.21-1.879l-1.72-1.719l-3.597-3.025l-3.184-2.674l0,0l-3.311-3.184l-3.853-3.025
		l-1.464-1.72l-1.433-1.464l-0.956-1.721l-0.51-1.463l0,0v-0.925v-0.923l0.51-2.007l0.956-1.847l1.178-1.719l2.928-3.057
		l2.102-2.929l0,0l4.776-6.209l4.14-5.826l0,0l-4.267-2.134l-4.107-2.388l-3.566-2.643l-3.726-2.929l-3.056-3.025l-3.185-3.726
		l-2.643-3.566l-2.388-3.852l-2.388-4.235l-2.133-4.394l-1.72-4.616l-1.719-4.775l-1.337-4.777l-1.464-5.318l-1.051-5.283
		l-0.955-5.572l0,0l4.139,0.795l3.853,0.925l3.566,0.923l3.598,1.337l3.693,1.338l3.344,1.433l6.208,3.184l5.986,3.599l5.826,3.819
		l11.557,7.707l0,0l0.542-6.496l0.924-6.24l1.178-5.827l1.464-5.444l0,0l3.598,0.414l3.312,0.54l2.929,0.924l2.897,1.051
		l2.674,1.179l2.643,1.337l2.388,1.72l2.132,1.719l2.102,1.879l2.006,1.975l3.566,4.107l3.343,4.233l3.438,4.648l0,0l2.133-3.438
		l1.974-3.311l1.879-3.599l2.388-3.821l0,0l1.974-3.184l2.929-3.852l1.338-1.593l1.719-1.464l1.719-1.051l0.669-0.128l0.795-0.286
		l0,0l1.306,0.286l1.464,0.383l2.006,1.209l1.719,1.179l3.057,2.929l2.388,2.644l0,0l1.177,1.973l1.083,1.88l1.592,3.819
		l1.465,4.108l1.178,4.106l0,0l2.133-1.178l2.261-1.464l3.852-3.184l4.235-3.567l5.03-4.106l0,0l4.394-3.312l2.642-2.006
		l2.675-1.592l2.897-1.434l2.675-1.209l2.642-0.796h1.178l1.21,0.285l0,0l0.923,0.255l0.924,0.669l0.796,1.051l0.955,1.338
		l1.719,3.184l1.178,3.566l0.924,3.853l0.287,1.975v1.847l-0.287,1.719l-0.255,1.752l-0.669,1.177l-1.05,1.178l0,0l0.254,0.16h0.286
		l1.434-0.924l2.674-2.675l0,0l5.285-3.565l5.317-3.312l5.699-3.438l5.986-3.057l6.367-2.93l6.368-2.642l6.495-2.39l6.527-2.132l0,0
		l0.255,3.057v3.185l-0.255,2.929l-0.158,2.771l-0.797,2.929l-0.638,2.642l-1.75,5.286l-2.102,5.063l-2.389,4.744l-2.673,4.775
		l-2.644,4.648l0,0l-2.005,2.93l-2.389,3.025l-2.388,3.184l-2.897,3.056l-2.93,2.93l-2.802,2.388l-2.897,1.975l-2.675,1.465l0,0
		l-1.178,0.126l-1.21,0.256l-2.388,0.286l-2.26,0.255l-2.101,0.255l0,0l3.852,6.24l4.362,6.209l4.521,6.496l4.362,6.494l0,0
		l-4.108,5.317l-4.361,5.285l-4.267,5.063l-4.361,5.285l0,0L495.076,508.249L495.076,508.249L495.076,508.249z M494.025,546.839
		L494.025,546.839v-8.246v-8.214v-7.928l-0.255-3.854l-0.127-3.854l0,0l-31.998-0.127l-32.254-0.255H364.63h-64.89h-64.474l0,0
		l4.616-5.317l5.19-5.953l10.89-11.812l0,0l1.846-1.975l2.515-1.848l0.924-1.209l0.955-1.05l0.509-1.211l0.287-1.179l0,0
		l-0.542-1.178l-0.923-1.592l-2.261-3.727l0,0l-6.622-9.551l-3.471-4.616l-3.311-3.979l0,0h-29.07l-29.451-0.287l-29.324,0.287
		h-14.328l-14.201,0.126l0,0l-2.388,2.898l-2.674,3.471l-5.827,7.673l0,0l-2.929,3.311l-3.312,3.6l-1.465,1.718l-1.178,1.847
		l-0.669,1.719l-0.541,1.721l0,0l0.254,0.669l0.415,0.796l1.464,1.847l3.439,3.597l0,0l5.317,5.287l5.159,5.316l4.935,4.775
		l4.489,5.285l0,0l-1.719,0.541l-1.592,0.669l-1.464,0.765l-1.464,0.956l-1.433,1.176l-0.956,1.211l-0.922,1.178l-1.052,1.719
		l-0.668,1.465l-0.796,1.592l-0.127,1.721l-0.255,1.974l-0.287,1.878v1.975l0.287,2.133l0.382,2.103l0,0l1.464,1.719l1.974,1.465
		l1.879,1.21l2.26,1.178l2.388,0.668l2.388,0.542l2.643,0.51l2.643,0.126l5.445,0.287h5.858l11.271-0.287l0,0l41.678,0.287
		l41.519,0.256l83.482,0.923l41.68,0.796l41.263,0.286l41.136,0.128L494.025,546.839L494.025,546.839L494.025,546.839z
		 M286.082,417.477L286.082,417.477l0.128-2.645v-2.674v-1.465l-0.383-1.178l-0.54-1.178l-0.669-1.209l0,0h-1.051l0,0l-4.521,3.184
		l-4.394,3.057l-4.234,3.438l-4.107,3.312l-3.853,3.566l-4.106,3.724l-7.451,7.674l0,0l-0.51,1.593l-0.669,1.465l-1.465,3.184
		l-0.54,1.592l-0.383,1.975l-0.254,1.879l0.254,2.516l0,0l0.669,0.922l0.796,0.669l0.923,0.51l0.924,0.415l1.21,0.254l0.923,0.286
		h2.515l2.389-0.54l2.388-0.671l2.133-0.923l1.719-0.922l0,0l3.311-2.516l3.439-2.803l3.598-3.693l3.311-3.979l2.929-4.649
		l1.465-2.101l1.178-2.388l0.924-2.388l0.954-2.516l0.511-2.389L286.082,417.477L286.082,417.477L286.082,417.477z M237.368,435.082
		L237.368,435.082l1.21-3.438l0.796-4.107l0.509-4.234l0.16-4.648l-0.16-4.233l-0.254-1.975l-0.542-1.88l-0.509-1.433l-0.668-1.209
		l-0.669-1.05l-1.05-0.669l0,0h-0.669h-0.796l0,0l-3.598,3.184l-3.311,3.311l-3.184,3.313l-3.057,3.726l-5.572,7.671l-5.699,7.674
		l0,0l-0.255,2.802l-0.541,2.644l-0.255,2.929v3.185l0,0l0.51,0.382l0.542,0.541l0.382,1.465l0.796,1.178l0.415,0.384l0.795,0.539
		l0,0l1.847,0.542l2.26,0.129h1.879l1.975-0.415l1.846-0.51l2.005-0.923l1.592-0.924l1.72-1.465l1.719-1.209l1.338-1.719
		l2.642-3.185l2.261-3.312L237.368,435.082L237.368,435.082L237.368,435.082z M186.68,451.671L186.68,451.671l2.387-0.796
		l2.134-0.923l1.719-1.465l1.719-1.719l1.21-2.133l0.924-2.39l0.796-2.388l0.381-2.643l0.287-2.929l0.254-2.644l-0.254-2.896
		l-0.287-2.675l-0.637-2.771l-0.541-2.388l-0.924-2.515l-0.955-1.847l0,0l-1.974-3.312l-2.133-3.184l-1.178-1.21l-1.21-1.18
		l-1.178-0.794l-1.082-0.669l0,0l-1.847,2.388l-2.133,2.388l-1.974,2.643l-0.923,1.465l-0.956,1.465l0,0l-1.433,3.311l-1.752,3.821
		l-0.922,4.107l-0.924,3.852l0,0l-0.255,3.438l0.383,3.313l0.796,3.597l0.668,1.72l0.796,1.466l0.923,1.592l0.923,1.177l1.21,1.339
		l1.209,0.922l1.433,0.669l1.751,0.51l1.72,0.286H186.68L186.68,451.671L186.68,451.671z M161.717,451.129L161.717,451.129
		l0.955-0.923l0.923-1.464l0.542-1.974l0.382-2.133l0.254-2.39v-2.388l-0.254-2.229l-0.382-2.388l0,0l-0.795-1.21l-0.957-1.465
		l-2.642-3.566l0,0l-2.134-3.312l-2.643-3.598l-3.184-3.438l-2.93-3.024l-3.056-2.93l-3.184-2.642l-3.057-2.134l-2.897-1.719l0,0
		v0.924l-0.287,0.539l0,0l-0.923,3.313l-0.669,3.439l-0.255,3.565v3.343l0.414,3.565l0.51,3.439l0.923,3.311l0.955,3.185
		l1.433,3.056l1.464,2.897l1.72,2.39l1.878,2.388l1.974,2.261l2.133,1.591l2.261,1.18l2.388,1.081l0,0l2.388,0.383h2.388
		l2.389-0.254l0.923-0.129L161.717,451.129L161.717,451.129L161.717,451.129z M124.561,452.595L124.561,452.595l1.083-0.795
		l0.668-0.671l0.509-0.923l0.415-0.922l0.254-1.339v-0.923l-0.254-2.643l-0.415-2.389l-1.051-2.643l-0.923-2.133l-1.209-1.974l0,0
		l-1.178-1.593l-1.719-2.006l-3.598-3.565l-4.521-3.854l-5.031-4.106l0,0l-5.03-4.106l-5.063-3.98l-2.516-1.719l-2.388-1.465
		l-2.387-0.924l-2.388-0.795l0,0v1.464l0,0l0.254,4.106l0.542,3.567l0.922,3.597l0.923,3.693l1.465,3.058l1.464,3.184l1.592,2.77
		l2.006,2.93l2.101,2.643l2.261,2.388l2.388,2.388l2.388,2.262l2.642,1.846l2.93,2.006l2.515,1.847l3.185,1.72l0,0H124.561
		L124.561,452.595L124.561,452.595z"/>
	<polygon fill-rule="evenodd" clip-rule="evenodd" fill="#FF0000" points="434.741,243.091 434.741,243.091 430.506,246.402 
		425.858,249.332 421.113,251.72 416.05,253.726 410.765,255.159 405.193,256.369 399.495,257.037 393.541,257.292 393.541,257.292 
		388.636,257.037 383.861,256.496 379.085,255.572 374.309,254.649 369.693,253.184 365.171,251.306 360.81,249.332 
		356.574,246.944 356.574,246.944 352.212,244.015 348.359,240.958 344.762,237.519 341.324,233.921 338.552,229.814 
		335.625,225.325 333.236,220.677 331.007,215.614 331.007,215.614 329.128,210.169 327.41,204.598 325.976,198.771 
		325.021,192.785 324.099,186.544 323.303,180.335 323.174,173.554 322.92,166.517 322.92,166.517 323.174,161.359 323.303,155.787 
		323.844,150.47 324.639,145.153 325.564,139.836 326.742,134.805 328.205,129.488 329.796,124.458 329.796,124.458 
		331.803,119.395 333.904,114.619 336.292,110.257 339.222,105.991 342.408,102.17 345.716,98.445 349.539,94.847 353.646,91.822 
		353.646,91.822 357.879,88.894 362.783,86.505 367.559,84.499 372.589,82.652 378.162,81.442 383.606,80.392 389.687,80.01 
		395.928,79.723 395.928,79.723 401.212,80.01 406.531,80.392 411.307,81.188 416.05,82.398 420.445,84.117 424.679,85.709 
		428.532,88.097 432.353,90.612 432.353,90.612 435.791,93.669 439.102,96.853 442.286,100.705 445.088,104.813 447.731,109.333 
		450.118,114.364 452.379,119.681 454.481,125.381 483.104,118.758 483.104,118.758 480.716,111.435 477.819,104.558 
		474.348,98.031 472.789,94.847 470.784,91.822 468.68,88.894 466.675,85.963 464.288,83.321 462.186,80.933 459.797,78.259 
		457.124,76.157 454.481,73.77 451.837,71.508 451.837,71.508 448.909,69.629 446.139,67.656 442.955,65.81 439.77,64.345 
		436.747,62.625 433.434,61.416 430.25,59.951 426.653,59.027 423.214,58.104 419.649,57.181 412.23,55.971 404.524,54.92 
		396.31,54.633 396.31,54.633 389.178,54.92 382.142,55.716 375.519,56.64 368.769,58.104 361.986,59.951 355.779,62.212 
		349.539,65.014 343.329,68.197 343.329,68.197 337.502,71.508 332.059,75.361 326.742,79.723 321.998,84.244 317.349,89.274 
		313.242,94.847 309.389,100.705 306.078,106.945 306.078,106.945 302.893,113.441 300.25,120.191 298.15,127.387 296.27,134.551 
		294.838,142.224 293.882,150.184 293.374,158.431 293.086,166.772 293.086,166.772 293.086,174.477 293.882,182.182 
		294.551,189.887 296.016,197.179 297.735,204.598 299.582,211.761 301.969,218.798 304.645,225.707 304.645,225.707 
		307.797,232.202 311.108,238.442 314.707,244.556 318.813,249.873 323.174,254.904 327.952,259.424 332.982,263.787 
		338.552,267.64 338.552,267.64 341.196,269.358 344.252,270.95 347.15,272.416 350.207,273.88 356.958,276.268 363.994,278.401 
		371.411,279.866 379.085,281.044 387.3,281.839 395.928,282.094 395.928,282.094 400.164,282.094 404.271,281.839 408.376,281.298 
		412.485,280.916 416.336,280.12 420.159,279.452 424.01,278.401 427.578,277.191 431.174,276.014 434.613,274.549 438.178,273.211 
		441.49,271.492 444.673,269.518 447.731,267.64 450.915,265.378 453.971,263.278 453.971,263.278 456.869,260.89 459.511,258.214 
		462.186,255.572 464.829,252.643 467.216,249.873 469.605,246.688 471.833,243.633 473.967,240.162 475.813,236.596 
		477.819,232.998 479.666,229.432 481.131,225.58 482.849,221.472 484.315,217.333 485.493,212.971 486.669,208.737 
		457.665,201.159 457.665,201.159 456.2,207.94 453.971,214.15 451.583,220.262 448.909,225.58 446.139,230.61 442.702,235.131 
		438.847,239.238 434.741,243.091 434.741,243.091 	"/>
</g>
</svg>
