<?xml version="1.0" encoding="utf-8"?>
<!-- Generator: Adobe Illustrator 14.0.0, SVG Export Plug-In . SVG Version: 6.00 Build 43363)  -->
<!DOCTYPE svg PUBLIC "-//W3C//DTD SVG 1.1//EN" "http://www.w3.org/Graphics/SVG/1.1/DTD/svg11.dtd">
<svg version="1.1"
	 id="svg2" xmlns:dc="http://purl.org/dc/elements/1.1/" xmlns:cc="http://web.resource.org/cc/" xmlns:rdf="http://www.w3.org/1999/02/22-rdf-syntax-ns#" xmlns:svg="http://www.w3.org/2000/svg" xmlns:sodipodi="http://sodipodi.sourceforge.net/DTD/sodipodi-0.dtd" xmlns:inkscape="http://www.inkscape.org/namespaces/inkscape" sodipodi:version="0.32" inkscape:version="0.44" sodipodi:docbase="/home/henning" sodipodi:docname="D-M001_Augenschutz_benutzen.svg"
	 xmlns="http://www.w3.org/2000/svg" xmlns:xlink="http://www.w3.org/1999/xlink" x="0px" y="0px" width="554.574px"
	 height="574.016px" viewBox="0 0 554.574 574.016" enable-background="new 0 0 554.574 574.016" xml:space="preserve">
<sodipodi:namedview  units="mm" width="210mm" height="297mm" id="base" inkscape:cy="287.00788" borderopacity="1.0" gridtolerance="10000" guidetolerance="10" objecttolerance="10" inkscape:zoom="1.3379424" pagecolor="#ffffff" inkscape:cx="287.0078" bordercolor="#666666" inkscape:pageopacity="0.0" inkscape:pageshadow="2" inkscape:document-units="mm" inkscape:current-layer="layer1" inkscape:window-width="1272" inkscape:window-height="966" inkscape:window-x="0" inkscape:window-y="0">
	</sodipodi:namedview>
<g id="XMLID_2_">
	<g>
		<path fill="#FF0000" d="M224.054,330.059c109.245,1.076,220.501,0.153,330.522,0.465c0,81.166,0,162.322,0,243.492
			c-184.855,0-369.73,0-554.576,0C0,382.68,0,191.331,0,0.002c74.685,0,149.37,0,224.054,0
			C224.054,110.011,224.054,220.04,224.054,330.059z M260.154,353.665c-8.628,6.2-16.735,11.794-25.458,18.051
			c-3.79,2.722-9.129,7.917-12.956,8.798c-4.953,1.133-12.532-0.937-18.986-1.389c-33.407-2.326-61.492-4.357-93.973-7.871
			c-12.106-1.304-28.096-3.781-37.026,0.464c-2.06,0.982-3.232,2.647-5.094,4.167c-4.479,3.666-8.259,6.219-11.576,10.65
			c-15.65,20.883-25.62,55.651-28.238,87.025c18.343,1.097,35.173,3.715,53.232,5.095c-21.271,18.409-50.094,31.084-59.252,62.03
			c-1.352,4.574-2.75,9.071-0.463,13.894c39.266,3.297,83.597,6.768,123.599,10.179c5.896,0.501,13.476,2.278,18.059,1.391
			c3.685-0.709,8.185-5.207,12.029-7.873c4.178-2.892,8.071-6.028,12.04-7.861c4.934,2.199,8.411,10.091,13.882,11.103
			c2.476,0.465,7.787-0.521,12.041-0.927c3.675-0.34,7.777-1.361,11.113-1.853c27.727-4.025,56.164-6.389,81.934-9.252
			c1.256-27.339-13.814-40.808-25.461-53.705c4.641-0.113,10.352,0.936,16.199,1.39c5.266,0.415,12.484,1.669,17.133,0.462
			c2.646-0.68,5.709-4.8,8.799-7.398c15.994-13.487,28.32-23.996,43.971-37.035c3.234-2.695,16.688-11.852,17.133-15.743
			c0.254-2.327-2.42-6.418-3.242-8.789c-1.994-5.708-2.977-11.773-4.629-15.744c3.381-2.477,7.805-3.923,10.639-6.947
			c-8.373-37.518-32.855-66-75.451-68.969c-2.029-0.14-4.309-0.168-6.48,0c-11.047,0.861-22.416,2.875-31.017,7.402
			C268.48,346.605,264.472,350.566,260.154,353.665z M168.033,300.895c14.77-13.227,46.977-26.741,40.74-60.176
			c-2.523-13.561-11.804-28.653-27.312-28.237c-0.284,0.019-0.547,0.066-0.462,0.463c1.635,2.117,2.097,6.02,2.778,8.325
			c0.747,2.533,1.881,4.811,2.315,7.41c3.79,22.785-3.59,41.231-11.576,51.844c-4.356,5.803-10.736,9.044-15.735,14.818
			c-6.294,7.268-4.904,14.996,0,21.752c1.853,2.563,3.327,6.426,5.557,6.021C163.166,314.184,164.103,305.941,168.033,300.895z
			 M169.886,154.152c1.682-27.746-10.915-43.669-24.07-58.336c-0.019-0.482-0.595-0.359-0.462,0.463
			c0.935,4.716,2.296,7.305,2.778,10.65c4.989,34.305-7.928,57.108-20.827,76.386c-10.868,16.216-23.116,30.95-28.7,50.454
			c-6.928,24.183,4.205,40.446,18.513,49.528c3.374,2.145,6.756,4.754,10.188,4.63c-0.558-6.275-2.334-12.568-2.315-19.903
			C125.111,219.434,167.135,199.627,169.886,154.152z M79.154,249.505c2.259-23.342-12.37-32.207-27.775-40.267
			c0,0.463,0,0.926,0,1.389c1.825,11.369,5.566,17.595,6.483,28.237c1.389,16.16-5.765,32.159-12.965,41.193
			c-6.067,7.626-18.797,13.373-20.828,22.689c-1.626,7.466,2.769,14.49,6.02,18.515c1.842,2.288,4.829,6.134,6.483,5.556
			c0.671-4.233-2.032-9.715-1.853-14.816c0.35-9.923,7.777-12.162,13.419-16.661c6.086-4.848,11.973-13.505,18.059-20.365
			C72.983,267.318,78.266,258.691,79.154,249.505z"/>
		<path fill="#FFFFFF" d="M391.162,81.935c11.396,30.581,22.049,61.89,32.869,93.047c-22.068,0-44.135,0-66.199,0
			C368.689,143.71,380.313,113.205,391.162,81.935z"/>
		<path fill="#FFFFFF" d="M354.127,430.05c0,1.694,0,3.394,0,5.087c-2.855-2.192-8.42-0.454-9.254,2.314
			c0.502-2.438,2.383-7.486,5.096-9.253C351.99,428.171,352.82,429.352,354.127,430.05z"/>
		<path fill="#FFFFFF" d="M350.432,437.914c0.367,6.53,0.832,10.924-4.168,12.502C347.275,445.88,346.076,439.114,350.432,437.914z"
			/>
		<path fill="#FFFFFF" d="M366.631,433.283c-0.965-10.766-6.691-16.766-11.113-24.069c-2.789-0.907-7.561-1.567-10.18,0
			c5.17-5.293,14.582-1.899,18.051,3.241c3.4,5.048,3.447,12.795,6.945,16.67C369.955,431.365,367.67,431.705,366.631,433.283z"/>
		<path fill="#FFFFFF" d="M343.484,440.229c0.646,2.438-2.172,11.113,0,14.354c-1.434,0.576-2.484,1.531-3.24,2.781
			C340.168,452.344,342.512,445.748,343.484,440.229z"/>
		<path fill="#FFFFFF" d="M350.432,419.4c3.195,0.511,2.674,4.78,5.084,6.945c-2.398,0.396-2.588-2.41-5.547-2.314
			c-5.52,0.169-9.348,10.433-11.113,17.587c-2.146,8.69-2.014,18.945-6.482,22.688c-0.113-5.632,3.723-13.947,6.02-22.688
			c0.99-3.789,0.754-8.146,1.854-11.568C341.473,426.186,346.32,418.75,350.432,419.4z"/>
		<path fill="#FFFFFF" d="M323.109,472.634c3.508-21.037,10.559-42.525,20.84-58.327c8.104-5.197,9.846-0.729,13.881,6.48
			c2.779,4.943,6.529,10.698,4.168,17.125c-3.449-7.693-1.758-22.514-12.033-22.219c-2.504,0.074-6.83,2.685-8.799,5.094
			c-4.119,5.039-4.334,11.767-6.482,19.903c-2.74,10.423-6.896,21.055-7.867,28.698
			C325.557,470.451,324.236,471.442,323.109,472.634z"/>
		<path fill="#FF0000" d="M345.338,376.811c-5.697,4.328-12.049,9.004-18.521,13.893c-3.318,2.505-4.645,5.242-10.182,4.631
			c-0.283-1.107,0.576-3.363-0.465-3.704c6.568-4.942,17.645-14.373,24.533-19.446C342.496,370.864,344.826,375.344,345.338,376.811
			z"/>
		<path fill="#FFFFFF" d="M339.783,412.917c-8.904,13.995-16.898,39.529-20.83,57.864c-0.584,2.71,0.111,4.867-0.928,6.945
			c-0.604,1.189-4.082,4.205-4.629,3.241c7.389-26.866,10.242-58.27,31.016-71.755C344.762,410.509,341.51,412.172,339.783,412.917z
			"/>
		<path fill="#FFFFFF" d="M301.818,345.33c-23.104,1.702-36.315,15.177-50.917,25.461c-3.78,2.664-8.988,6.15-13.892,9.725
			c-4.914,3.582-10.414,9.006-14.346,9.728c-4.706,0.858-12.303-0.88-18.522-1.39c-43.104-3.572-86.488-8.826-128.23-11.578
			c-24.815,17.002-34.039,52.053-38.415,87.952c22.464,2.995,46.704,4.226,69.431,6.946c-19.231,13.487-37.611,27.813-57.863,40.278
			c-8.619,8.478-19.306,19.411-18.977,33.795c34.097,2.569,74.014,7.22,109.244,10.178c5.273,0.444,12.059,1.655,15.282,0.928
			c2.022-0.443,5.057-3.376,7.41-5.085c7.683-5.604,14.686-10.906,22.218-15.746c6.501,2.618,11.982,15.188,18.977,16.672
			c2.948,0.613,7.881-0.55,12.04-0.928c20.355-1.873,40.551-4.82,59.715-6.947c8.268-0.916,16.311-1.35,23.145-3.701
			c-4.832-28.029-29.27-36.459-44.898-53.696c3.1-3.903,7.607-2.769,12.029-2.315c10.093,1.028,19.334,1.956,29.629,2.778
			c5.102,0.406,11.746,1.984,15.742,0.926c3.789-1.011,11.766-10.278,16.197-14.353c11.426-10.499,20.631-18.968,32.402-29.163
			c3.727-3.213,14.902-11.406,15.281-15.736c0.295-3.391-2.805-7.229-4.164-10.648c-1.703-4.288-3.033-7.929-4.635-10.649
			c2.977-2.922,9.518-3.771,10.188-7.869c0.463-2.854-5.367-14.093-6.021-15.271c-4.732-8.498-13.504-19.971-21.75-26.85
			C336.568,349.141,323.574,343.732,301.818,345.33z M234.696,371.716c8.723-6.257,16.83-11.851,25.458-18.051
			c4.318-3.099,8.326-7.06,12.503-9.263c8.601-4.525,19.97-6.537,31.017-7.398c2.172-0.17,4.451-0.143,6.48,0
			c42.596,2.969,67.078,31.449,75.451,68.969c-2.834,3.021-7.258,4.467-10.639,6.944c1.654,3.968,2.635,10.037,4.629,15.745
			c0.822,2.372,3.498,6.462,3.242,8.788c-0.443,3.894-13.898,13.049-17.133,15.744c-15.65,13.039-27.971,23.55-43.971,37.033
			c-3.09,2.602-6.15,6.721-8.799,7.4c-4.648,1.207-11.867-0.047-17.133-0.462c-5.848-0.455-11.559-1.506-16.195-1.39
			c11.639,12.897,26.713,26.365,25.457,53.704c-25.77,2.864-54.207,5.227-81.934,9.253c-3.335,0.489-7.437,1.513-11.113,1.853
			c-4.253,0.405-9.564,1.389-12.04,0.927c-5.472-1.012-8.95-8.902-13.882-11.103c-3.968,1.833-7.862,4.969-12.04,7.861
			c-3.846,2.666-8.344,7.163-12.029,7.871c-4.583,0.888-12.162-0.888-18.06-1.389c-40.002-3.411-84.333-6.88-123.599-10.179
			c-2.287-4.821-0.888-9.319,0.463-13.894c9.157-30.949,37.98-43.622,59.252-62.031c-18.06-1.379-34.891-3.997-53.233-5.094
			c2.618-31.374,12.588-66.142,28.238-87.025c3.317-4.434,7.097-6.984,11.577-10.65c1.861-1.521,3.033-3.188,5.094-4.167
			c8.93-4.243,24.92-1.769,37.026-0.464c32.479,3.516,60.565,5.547,93.973,7.871c6.454,0.454,14.033,2.521,18.985,1.388
			C225.566,379.634,230.906,374.438,234.696,371.716z"/>
		<path fill="#FF0000" d="M307.84,355.055c2.381-1.938,4.367,2.617,5.094,3.704c-10.697,9.515-22.67,16.44-34.719,24.996
			c-3.609,2.562-7.258,7.39-12.967,6.483c-0.038-1.504-0.236-2.846-0.926-3.705C276.597,377.195,295.951,364.742,307.84,355.055z"/>
		<path fill="#FF0000" d="M307.84,452.731c4.131,8.269-12.021,4.64-16.66,4.167c-34.75-3.516-68.498-5.896-103.236-9.264
			c-13.608-1.313-27.689-1.824-39.814-5.094c1.106-1.21,1.711-2.92,3.242-3.704c44.793,3.604,91.657,7.105,138.416,11.112
			C294.684,450.369,306.932,450.907,307.84,452.731z"/>
		<path fill="#FFFFFF" d="M292.557,539.294c-2.588,0.646-5.555,0.929-8.787,0.929c0.322-2.021-0.793-2.607-0.463-4.631
			c-5.615-7.021-8.583-21.612-20.838-18.513c-4.896,1.238-9.375,5.384-13.882,0.926c-19.883,0.794-25.762,15.593-31.942,30.089
			c-4.696-0.047-8.449,2.241-12.04,1.39c-5.435-1.293-12.209-12.938-16.661-15.744c1.645-0.976,3.449-1.796,4.63-3.243
			c2.494,1.816,4.319,4.33,6.474,6.482c2.032,2.031,4.11,4.964,7.409,5.557c1.777-6.161-7.106-9.5-10.179-13.893
			c5.292-4.422,11.397-8.034,16.66-12.492c2.553,1.456,1.399,6.624,4.631,7.409c4.149-1.492-0.18-6.916-0.926-9.262
			c5.122-4.441,10.934-8.203,16.661-12.04c1.021,2.843,0.841,6.877,3.705,7.87c4.215-1.551-0.349-6.729-0.462-9.725
			c1.739-3.354,6.048-4.14,8.334-6.938c2.504,2.061,4.395,4.867,6.483,7.399c1.824,2.222,3.591,5.99,7.41,6.021
			c0.662-7.185-8.845-10.557-9.725-16.198c9.072,5.122,17.143,15.254,26.385,21.752
			C280.559,521.671,288.213,530.838,292.557,539.294z"/>
		<path fill="#FF0000" d="M343.484,454.583c-2.172-3.242,0.646-11.915,0-14.354c-0.973,5.521-3.316,12.116-3.24,17.135
			C341,456.114,342.051,455.159,343.484,454.583z M350.432,437.914c-4.355,1.2-3.156,7.966-4.168,12.502
			C351.264,448.838,350.801,444.444,350.432,437.914z M354.127,435.136c0-1.693,0-3.393,0-5.086c-1.307-0.7-2.137-1.881-4.158-1.852
			c-2.713,1.767-4.594,6.813-5.096,9.252C345.707,434.682,351.271,432.943,354.127,435.136z M355.516,409.214
			c4.422,7.306,10.148,13.308,11.113,24.069c1.039-1.578,3.328-1.92,3.703-4.158c-3.496-3.875-3.543-11.624-6.943-16.67
			c-3.471-5.143-12.883-8.534-18.053-3.241C347.957,407.646,352.727,408.307,355.516,409.214z M355.516,426.347
			c-2.41-2.165-1.889-6.436-5.084-6.946c-4.109-0.653-8.959,6.785-10.186,10.649c-1.098,3.423-0.861,7.777-1.855,11.568
			c-2.293,8.739-6.133,17.058-6.02,22.688c4.471-3.742,4.338-13.995,6.482-22.688c1.768-7.154,5.598-17.418,11.113-17.587
			C352.928,423.938,353.117,426.742,355.516,426.347z M318.953,470.781c3.93-18.335,11.926-43.869,20.83-57.864
			c1.729-0.747,4.979-2.408,4.629-3.703c-20.771,13.485-23.625,44.889-31.016,71.755c0.547,0.966,4.025-2.052,4.631-3.241
			C319.066,475.648,318.369,473.493,318.953,470.781z M343.949,414.307c-10.281,15.804-17.332,37.293-20.84,58.329
			c1.129-1.192,2.449-2.185,3.705-3.242c0.975-7.644,5.133-18.276,7.873-28.699c2.146-8.139,2.363-14.863,6.482-19.9
			c1.967-2.412,6.295-5.021,8.799-5.096c10.271-0.296,8.58,14.526,12.031,22.218c2.359-6.426-1.391-12.181-4.168-17.122
			C353.797,413.58,352.057,409.109,343.949,414.307z M250.902,370.788c14.601-10.281,27.811-23.757,50.917-25.458
			c21.756-1.6,34.75,3.807,46.299,13.429c8.248,6.877,17.02,18.351,21.752,26.847c0.654,1.184,6.482,12.42,6.021,15.271
			c-0.67,4.104-7.211,4.954-10.188,7.872c1.6,2.724,2.93,6.36,4.633,10.647c1.359,3.424,4.459,7.26,4.166,10.651
			c-0.379,4.329-11.559,12.522-15.281,15.734c-11.775,10.195-20.979,18.663-32.404,29.164c-4.432,4.07-12.406,13.345-16.197,14.354
			c-3.996,1.06-10.643-0.521-15.742-0.926c-10.293-0.824-19.536-1.749-29.628-2.781c-4.422-0.453-8.931-1.588-12.029,2.315
			c15.629,17.238,40.069,25.667,44.899,53.698c-6.834,2.351-14.877,2.788-23.147,3.701c-19.165,2.126-39.359,5.074-59.714,6.945
			c-4.158,0.381-9.091,1.541-12.04,0.929c-6.993-1.482-12.474-14.053-18.977-16.671c-7.532,4.841-14.534,10.142-22.218,15.744
			c-2.353,1.711-5.387,4.644-7.41,5.087c-3.223,0.729-10.007-0.48-15.282-0.928c-35.23-2.958-75.147-7.608-109.244-10.178
			c-0.331-14.385,10.358-25.319,18.977-33.797c20.252-12.463,38.632-26.789,57.864-40.276c-22.727-2.722-46.967-3.95-69.431-6.945
			c4.376-35.899,13.599-70.95,38.415-87.954c41.742,2.75,85.126,8.004,128.23,11.577c6.218,0.511,13.816,2.248,18.522,1.388
			c3.932-0.719,9.432-6.144,14.346-9.726C241.914,376.941,247.122,373.455,250.902,370.788z M229.601,390.7
			c28.322,2.977,60.171,6.019,88.89,8.336c17.027,1.37,34.559,0.868,44.436,8.323c2.617-2.791,6.371-4.433,9.26-6.938
			c-8.189-20.518-21.262-36.146-38.424-47.686c-21.271-7.37-45.389-2.957-60.178,5.557c-7.704,4.432-15.328,11.009-22.681,16.199
			c-6.048,4.281-11.605,8.105-17.133,12.04C231.879,387.876,229.233,389.718,229.601,390.7z M343.021,404.583
			c-47.883-3.8-95.154-8.224-142.583-12.494c2.533,7.731-9.129,5.397-17.124,4.632c-30.042-2.873-59.896-5.781-88.416-8.332
			c-4.687-0.428-9.696,0.234-12.965-3.244c1.54-1.709,2.92-3.561,6.02-3.703c-4.177,0.322-6.936-0.783-11.113-0.463
			c-22.171,16.707-30.42,47.344-35.173,81.479c88.888,7.691,177.654,15.526,266.638,23.145
			c7.465-26.356,10.734-58.827,27.773-74.533C338.477,408.854,343.365,406.682,343.021,404.583z M283.77,540.222
			c3.232,0,6.199-0.284,8.787-0.93c-4.346-8.457-11.998-17.621-17.124-26.847c-9.242-6.502-17.313-16.631-26.384-21.753
			c0.879,5.642,10.386,9.015,9.725,16.197c-3.818-0.028-5.585-3.799-7.41-6.021c-2.088-2.532-3.978-5.339-6.483-7.399
			c-2.287,2.798-6.597,3.582-8.334,6.938c0.113,2.996,4.678,8.174,0.462,9.725c-2.863-0.991-2.684-5.024-3.705-7.87
			c-5.727,3.835-11.539,7.598-16.661,12.04c0.747,2.345,5.075,7.771,0.926,9.264c-3.232-0.786-2.079-5.955-4.631-7.411
			c-5.263,4.462-11.368,8.07-16.66,12.493c3.071,4.395,11.955,7.729,10.178,13.892c-3.298-0.595-5.376-3.524-7.408-5.556
			c-2.155-2.154-3.979-4.668-6.474-6.48c-1.181,1.443-2.986,2.269-4.63,3.24c4.451,2.807,11.226,14.449,16.661,15.744
			c3.59,0.852,7.343-1.435,12.04-1.388c6.18-14.495,12.059-29.296,31.942-30.09c4.508,4.461,8.986,0.313,13.882-0.926
			c12.257-3.104,15.224,11.492,20.838,18.513C282.975,537.613,284.092,538.199,283.77,540.222z M280.064,540.685
			c-1.879-5.981-4.042-12.38-7.408-16.206c-5.944-6.738-11.161-1.721-20.829-0.454c-6.861-5.369-18.938,1.341-23.607,8.322
			c-1.578,2.354-2.022,5.804-3.241,8.336c-1.37,2.825-3.94,4.896-3.242,7.409c3.582-0.896,7.684-1.265,12.031-1.388
			c-1.513-17.408,13.541-18.258,29.626-18.06c4.847,2.723,9.006,6.123,9.725,12.966
			C275.132,541.006,277.873,541.119,280.064,540.685z M265.247,542.074c1.532-0.021,2.307-0.785,4.167-0.464
			c-0.377-12.761-17.549-9.036-27.774-7.411c-1.805,3.439-4.346,6.145-4.168,11.576c3.506-0.942,5.254,0.551,8.335-0.927
			c3.213-1.541,4.054-6.294,6.483-6.945C256.506,536.771,262.082,539.729,265.247,542.074z M260.154,543
			c-3.213,0.152-6.634-2.939-7.862,0.464C254.767,543.16,258.453,544.067,260.154,543z M155.077,552.724
			c32.584-22.651,65.31-45.184,97.214-68.514c-18.721-1.352-37.385-2.743-55.549-4.63c-12.087,9.229-25.364,18.897-37.498,27.772
			c-3.828,2.798-7.985,8.298-13.429,6.946c2.259-3.902,6.917-6.039,10.651-8.799c11.671-8.638,23.872-17.49,34.72-26.385
			c-13.42-0.935-26.262-2.438-40.277-2.778c-4.441,2.863-9.517,5.831-14.346,8.798c-4.517,2.76-9.309,7.854-14.818,6.482
			c1.881-3.325,6.379-5.696,10.188-8.335c3.94-2.73,8.382-5.289,11.567-8.332c-6.946-0.302-13.07-1.431-20.365-1.391
			c-7.9,5.511-16.746,11.586-24.532,17.135c-2.315,1.644-5.586,5.547-8.798,3.23c0.708-2.457,3.836-4.024,6.019-5.547
			c7.437-5.207,15.631-10.253,22.218-15.746c-1.853,0-3.704,0-5.557,0c-14.336,10.045-30.391,20.838-43.046,31.015
			C112.901,493.595,146.214,519.365,155.077,552.724z M137.482,552.26c4.28,0.813,9.913,0.274,13.891,1.392
			c-6.483-25.214-29.173-46.448-59.715-49.075c-13.75-1.183-30.477,3.629-40.277,10.649c-8.354,5.991-12.465,16.34-16.661,27.312
			c3.515,0.804,7.58,1.068,12.03,0.927c5.698-12.21,9.649-27.538,25.006-28.235c1.786-0.085,3.619,0.587,5.547,0.464
			c3.667-0.235,7.145-1.993,11.577-2.315c15.423-1.115,23.758,9.762,32.405,16.661C132.066,532.066,136.583,540.354,137.482,552.26z
			 M133.322,550.871c-0.595-5.737-2.211-10.442-5.094-13.895c-5.557-2.286-10.271-4.866-14.817-8.333
			c-1.824-1.389-2.741-3.741-4.63-5.084c-3.431-2.469-7.674-4.404-11.104-5.557c-6.597-2.221-11.464,1.134-20.375,1.389
			c-6.058,0.168-9.355-0.319-13.882,2.316c-4.848,7.03-10.961,12.795-12.965,22.68c2.977,0.104,5.434,0.746,8.798,0.464
			c1.021-5.464,5.879-7.089,5.556-13.893c2.212-0.822,4.083-4.018,7.873-4.63c4.556-0.729,18.995-0.466,24.996,0.926
			c4.97,1.154,7.362,5.547,8.789,8.798c6.794,2.154,11.264,6.646,12.965,13.893C124.478,549.832,128.513,550.739,133.322,550.871z
			 M96.751,537.905c3.761,5.954,7.626,14.289,18.513,11.577c-1.683-5.422-5.216-8.987-11.104-10.187
			c-1.314-12.438-23.163-8.694-34.257-8.335c-1.909,5.037-4.036,9.856-6.483,14.354c3.128-0.037,5.737,0.435,8.336,0.929
			c3.25-2.457,4.952-6.464,8.325-8.798C85.581,537.65,91.978,536.961,96.751,537.905z M99.529,548.092
			c-1.087-2.779-3.44-4.281-4.63-6.947c-4.319,0-8.647,0-12.966,0c-1.342,1.371-5.368,4.689-4.167,5.558
			C84.881,547.309,92.3,547.602,99.529,548.092z"/>
		<path fill="#FFFFFF" d="M196.743,407.826c37.101,3.249,72.747,6.611,110.171,10.185c4.469,0.427,14.932,3.507,12.043-5.556
			c-44.901-4.178-90.1-8.042-135.642-11.577c-1.53,0.785-2.135,2.495-3.241,3.705C184.817,407.646,190.95,407.324,196.743,407.826z
			 M200.438,392.089c47.431,4.272,94.701,8.694,142.583,12.494c0.344,2.099-4.545,4.271-6.945,6.481
			c-17.037,15.707-20.309,48.179-27.773,74.532c-88.984-7.616-177.75-15.45-266.639-23.144
			c4.753-34.133,13.003-64.774,35.173-81.479c4.177-0.322,6.936,0.784,11.113,0.463c-3.1,0.142-4.48,1.994-6.02,3.703
			c3.269,3.478,8.278,2.816,12.965,3.241c28.52,2.554,58.374,5.464,88.416,8.335C191.309,397.486,202.971,399.82,200.438,392.089z
			 M291.178,456.898c4.641,0.473,20.791,4.102,16.662-4.167c-0.908-1.826-13.156-2.362-18.053-2.781
			c-46.758-4.007-93.621-7.51-138.416-11.112c-1.531,0.786-2.135,2.494-3.242,3.704c12.125,3.271,26.206,3.78,39.814,5.094
			C222.683,451.001,256.431,453.384,291.178,456.898z M207.847,421.715c1.154-1.643,0.851-3.25,0.463-5.556
			c-46.589-4.64-93.5-8.958-140.723-12.966c-1.53,0.785-2.135,2.496-3.241,3.703c4.857,3.224,10.972,2.666,16.661,3.244
			c30.288,3.1,60.935,6.461,90.73,9.26C183.873,420.544,196.156,422.821,207.847,421.715z"/>
		<path fill="#FF0000" d="M235.622,319.407c102.771,0,205.542,0,308.302,0c0-102.76,0-205.531,0-308.302
			c-102.609,0-205.221,0-307.84,0c-0.538,0.076-0.5,0.737-0.462,1.389C235.622,114.802,235.622,217.101,235.622,319.407z
			 M549.943,325.428c-106.775,0-213.557,0-320.343,0c0-106.313,0-212.637,0-318.952c-0.038-0.652-0.075-1.305,0.464-1.39
			c106.626,0,213.251,0,319.878,0C549.943,111.873,549.943,218.641,549.943,325.428z"/>
		<path fill="#FFFFFF" d="M272.656,524.479c3.364,3.826,5.53,10.225,7.409,16.207c-2.191,0.435-4.932,0.32-6.945,0.928
			c-0.718-6.841-4.876-10.243-9.725-12.966c-16.085-0.2-31.139,0.651-29.626,18.06c-4.347,0.123-8.449,0.492-12.031,1.389
			c-0.7-2.516,1.871-4.584,3.242-7.41c1.219-2.531,1.663-5.981,3.241-8.336c4.669-6.981,16.746-13.691,23.607-8.322
			C261.496,522.758,266.713,517.739,272.656,524.479z"/>
		<path fill="#FFFFFF" d="M229.601,325.428c106.788,0,213.567,0,320.343,0c0-106.786,0-213.555,0-320.34
			c-106.627,0-213.252,0-319.878,0c-0.539,0.084-0.501,0.737-0.464,1.39C229.601,112.79,229.601,219.113,229.601,325.428z
			 M554.574,330.521c-110.02-0.313-221.277,0.611-330.521-0.465c0-110.018,0-220.048,0-330.058c110.17,0,220.342,0,330.521,0
			C554.574,110.172,554.574,220.342,554.574,330.521z"/>
		<path fill="#FFFFFF" d="M269.416,541.61c-1.862-0.321-2.637,0.441-4.167,0.464c-3.166-2.346-8.741-5.303-12.956-4.169
			c-2.428,0.651-3.269,5.405-6.483,6.946c-3.081,1.475-4.829-0.02-8.336,0.928c-0.179-5.435,2.363-8.139,4.168-11.578
			C251.866,532.576,269.037,528.854,269.416,541.61z"/>
		<path fill="#FFFFFF" d="M252.292,543.463c1.229-3.402,4.649-0.311,7.862-0.463C258.453,544.067,254.767,543.16,252.292,543.463z"
			/>
		<path fill="#FF0000" d="M306.914,418.011c-37.422-3.571-73.07-6.936-110.172-10.185c-5.793-0.502-11.926-0.182-16.67-3.242
			c1.106-1.209,1.71-2.923,3.241-3.705c45.541,3.535,90.741,7.4,135.638,11.579C321.844,421.518,311.383,418.438,306.914,418.011z"
			/>
		<path fill="#FFFFFF" d="M326.814,390.7c6.475-4.886,12.824-9.563,18.523-13.894c-0.51-1.466-2.842-5.942-4.631-4.63
			c-6.891,5.073-17.965,14.505-24.533,19.447c1.039,0.341,0.182,2.601,0.463,3.704C322.176,395.945,323.5,393.205,326.814,390.7z
			 M268.952,364.777c-7.059,4.812-19.183,12.91-25.921,17.588c0.69,0.859,0.888,2.201,0.926,3.703
			c7.608-0.026,11.804-5.092,16.661-8.334c4.745-3.154,8.78-5.65,12.966-8.324C273.052,367.943,270.823,363.503,268.952,364.777z
			 M233.769,386.533c5.529-3.932,11.085-7.76,17.133-12.04c7.352-5.19,14.978-11.769,22.68-16.199
			c14.792-8.513,38.909-12.929,60.178-5.556c17.162,11.539,30.232,27.17,38.424,47.685c-2.889,2.505-6.643,4.149-9.26,6.937
			c-9.875-7.457-27.406-6.955-44.436-8.322c-28.719-2.316-60.566-5.359-88.889-8.336
			C229.233,389.718,231.879,387.876,233.769,386.533z M312.932,358.759c-0.727-1.087-2.709-5.642-5.092-3.702
			c-11.891,9.687-31.245,22.144-43.519,31.479c0.69,0.858,0.888,2.2,0.926,3.703c5.708,0.907,9.356-3.923,12.966-6.483
			C290.262,375.202,302.236,368.275,312.932,358.759z"/>
		<path fill="#FF0000" d="M243.03,382.365c6.738-4.678,18.862-12.776,25.921-17.588c1.871-1.274,4.102,3.166,4.631,4.633
			c-4.187,2.673-8.223,5.17-12.967,8.324c-4.857,3.242-9.053,8.308-16.661,8.334C243.918,384.566,243.72,383.227,243.03,382.365z"/>
		<path fill="#FFFFFF" d="M543.924,319.407c-102.76,0-205.531,0-308.302,0c0-102.307,0-204.605,0-306.913
			c-0.039-0.652-0.076-1.313,0.462-1.389c102.621,0,205.23,0,307.84,0C543.924,113.877,543.924,216.647,543.924,319.407z"/>
		<path fill="#FFFFFF" d="M252.292,484.21c-31.904,23.332-64.629,45.862-97.214,68.514c-8.864-33.357-42.176-59.129-85.637-49.076
			c12.653-10.179,28.71-20.971,43.045-31.014c1.853,0,3.705,0,5.557,0c-6.586,5.491-14.781,10.537-22.218,15.744
			c-2.182,1.52-5.311,3.09-6.02,5.547c3.213,2.314,6.483-1.588,8.798-3.231c7.787-5.55,16.632-11.625,24.533-17.134
			c7.295-0.037,13.419,1.088,20.365,1.391c-3.185,3.043-7.626,5.602-11.567,8.332c-3.809,2.637-8.306,5.012-10.187,8.335
			c5.509,1.371,10.3-3.724,14.818-6.482c4.829-2.967,9.904-5.935,14.346-8.798c14.015,0.341,26.857,1.843,40.276,2.778
			c-10.849,8.895-23.049,17.749-34.719,26.385c-3.733,2.76-8.391,4.896-10.651,8.799c5.443,1.352,9.602-4.148,13.43-6.946
			c12.134-8.872,25.41-18.54,37.498-27.773C214.905,481.47,233.57,482.858,252.292,484.21z"/>
		<path fill="#FFFFFF" d="M208.773,240.717c6.237,33.436-25.97,46.95-40.74,60.178c-3.931,5.047-4.867,13.287-3.695,22.217
			c-2.23,0.406-3.705-3.459-5.557-6.02c-4.904-6.756-6.294-14.486,0-21.753c4.999-5.774,11.379-9.016,15.735-14.818
			c7.985-10.613,15.366-29.059,11.576-51.844c-0.434-2.599-1.568-4.876-2.315-7.41c-0.68-2.306-1.144-6.209-2.778-8.325
			c-0.085-0.397,0.18-0.444,0.462-0.463C196.969,212.064,206.25,227.156,208.773,240.717z"/>
		<path fill="#FF0000" d="M208.31,416.159c0.387,2.306,0.69,3.913-0.463,5.556c-11.69,1.106-23.974-1.171-36.11-2.314
			c-29.796-2.797-60.442-6.16-90.73-9.262c-5.689-0.576-11.803-0.021-16.661-3.242c1.106-1.209,1.711-2.922,3.241-3.705
			C114.81,407.201,161.721,411.52,208.31,416.159z"/>
		<path fill="#FFFFFF" d="M145.816,95.816c13.155,14.667,25.752,30.59,24.07,58.336c-2.75,45.475-44.775,65.282-44.898,113.875
			c-0.02,7.333,1.758,13.627,2.315,19.901c-3.431,0.124-6.814-2.481-10.188-4.627c-14.308-9.082-25.44-25.346-18.513-49.528
			c5.584-19.505,17.833-34.237,28.7-50.454c12.899-19.278,25.817-42.083,20.827-76.387c-0.482-3.345-1.842-5.934-2.778-10.65
			C145.22,95.458,145.797,95.336,145.816,95.816z"/>
		<path fill="#FFFFFF" d="M151.373,553.65c-3.979-1.116-9.611-0.577-13.891-1.392c-0.898-11.903-5.416-20.192-16.198-22.226
			c-8.647-6.899-16.982-17.776-32.405-16.661c-4.432,0.322-7.91,2.08-11.577,2.315c-1.927,0.121-3.761-0.549-5.547-0.464
			c-15.357,0.699-19.308,16.027-25.006,28.236c-4.45,0.144-8.514-0.122-12.03-0.928c4.196-10.972,8.307-21.319,16.661-27.312
			c9.8-7.021,26.527-11.832,40.277-10.649C122.2,507.202,144.889,528.438,151.373,553.65z"/>
		<path fill="#FFFFFF" d="M128.229,536.98c2.883,3.449,4.499,8.153,5.094,13.893c-4.809-0.132-8.845-1.039-13.892-0.928
			c-1.701-7.246-6.171-11.734-12.965-13.893c-1.427-3.251-3.818-7.644-8.789-8.798c-6.001-1.39-20.441-1.654-24.996-0.926
			c-3.79,0.612-5.661,3.808-7.873,4.63c0.322,6.804-4.535,8.429-5.556,13.893c-3.364,0.282-5.821-0.358-8.798-0.464
			c2.004-9.885,8.118-15.648,12.965-22.68c4.527-2.637,7.824-2.148,13.882-2.316c8.912-0.255,13.779-3.608,20.375-1.389
			c3.43,1.153,7.673,3.091,11.104,5.558c1.889,1.34,2.807,3.694,4.63,5.084C117.957,532.113,122.672,534.692,128.229,536.98z"/>
		<path fill="#FFFFFF" d="M115.264,549.482c-10.887,2.712-14.752-5.623-18.513-11.577c-4.772-0.944-11.169-0.255-16.67-0.462
			c-3.374,2.334-5.075,6.34-8.325,8.798c-2.599-0.492-5.208-0.966-8.336-0.93c2.448-4.497,4.575-9.317,6.483-14.353
			c11.095-0.359,32.943-4.104,34.257,8.332C110.048,540.495,113.581,544.059,115.264,549.482z"/>
		<path fill="#FFFFFF" d="M94.898,541.146c1.191,2.665,3.544,4.168,4.63,6.947c-7.23-0.491-14.647-0.786-21.764-1.389
			c-1.2-0.87,2.825-4.188,4.167-5.557C86.251,541.146,90.58,541.146,94.898,541.146z"/>
		<path fill="#FFFFFF" d="M51.381,209.238c15.404,8.061,30.033,16.925,27.774,40.267c-0.888,9.186-6.171,17.814-12.957,25.469
			c-6.086,6.861-11.973,15.517-18.059,20.365c-5.642,4.499-13.07,6.738-13.419,16.661c-0.18,5.104,2.523,10.583,1.853,14.816
			c-1.654,0.576-4.64-3.27-6.483-5.556c-3.251-4.024-7.645-11.047-6.02-18.515c2.032-9.317,14.761-15.063,20.828-22.689
			c7.201-9.035,14.354-25.033,12.965-41.193c-0.916-10.641-4.659-16.869-6.483-28.237C51.381,210.164,51.381,209.701,51.381,209.238
			z"/>
	</g>
</g>
<text transform="matrix(0.9627 0 0 1 302.9141 274.3027)" fill="#FF0000" font-family="'ArialMT'" font-size="280.4521">A</text>
</svg>
