<?xml version="1.0" encoding="utf-8"?>
<!-- Generator: Adobe Illustrator 14.0.0, SVG Export Plug-In . SVG Version: 6.00 Build 43363)  -->
<!DOCTYPE svg PUBLIC "-//W3C//DTD SVG 1.1//EN" "http://www.w3.org/Graphics/SVG/1.1/DTD/svg11.dtd">
<svg version="1.1"
	 id="svg2" xmlns:dc="http://purl.org/dc/elements/1.1/" xmlns:cc="http://web.resource.org/cc/" xmlns:rdf="http://www.w3.org/1999/02/22-rdf-syntax-ns#" xmlns:svg="http://www.w3.org/2000/svg" xmlns:sodipodi="http://sodipodi.sourceforge.net/DTD/sodipodi-0.dtd" xmlns:inkscape="http://www.inkscape.org/namespaces/inkscape" sodipodi:version="0.32" inkscape:version="0.44" sodipodi:docbase="/home/henning" sodipodi:docname="D-M001_Augenschutz_benutzen.svg"
	 xmlns="http://www.w3.org/2000/svg" xmlns:xlink="http://www.w3.org/1999/xlink" x="0px" y="0px" width="554.574px"
	 height="574.016px" viewBox="0 0 554.574 574.016" enable-background="new 0 0 554.574 574.016" xml:space="preserve">
<sodipodi:namedview  units="mm" width="210mm" height="297mm" id="base" inkscape:cy="287.00788" borderopacity="1.0" gridtolerance="10000" guidetolerance="10" objecttolerance="10" inkscape:zoom="1.3379424" pagecolor="#ffffff" inkscape:cx="287.0078" bordercolor="#666666" inkscape:pageopacity="0.0" inkscape:pageshadow="2" inkscape:document-units="mm" inkscape:current-layer="layer1" inkscape:window-width="1272" inkscape:window-height="966" inkscape:window-x="0" inkscape:window-y="0">
	</sodipodi:namedview>
<g>
	<polygon fill-rule="evenodd" clip-rule="evenodd" fill="#FF0000" points="-1.202,-0.492 -1.202,574.398 554.014,574.398 
		554.014,-0.492 -1.202,-0.492 	"/>
	<polygon fill-rule="evenodd" clip-rule="evenodd" fill="#FFFFFF" points="222.111,-0.492 222.111,330.389 552.993,330.389 
		552.993,-0.492 222.111,-0.492 	"/>
	<polygon fill-rule="evenodd" clip-rule="evenodd" fill="#FFFFFF" points="223.133,-0.492 223.133,330.645 554.014,330.645 
		554.014,-0.492 223.133,-0.492 	"/>
	<polygon fill-rule="evenodd" clip-rule="evenodd" fill="#FFFFFF" points="45.077,88.424 45.077,88.424 47.073,88.967 49.34,89.766 
		51.065,90.564 53.077,91.49 54.93,92.815 56.399,94.013 58.14,95.61 59.736,97.08 62.26,100.4 64.527,104.122 66.523,108.37 
		67.721,112.761 68.791,117.28 69.318,121.799 69.318,126.319 68.791,130.838 67.992,135.501 66.523,139.749 65.47,141.745 
		64.256,143.741 63.202,145.594 61.732,147.334 61.732,147.334 59.736,149.586 57.597,151.582 53.077,156.102 48.271,160.621 
		45.747,163.144 43.479,165.938 43.479,165.938 41.483,168.206 39.487,170.585 34.953,175.121 34.953,175.121 32.158,177.644 
		29.363,179.896 27.095,182.163 26.025,183.217 25.498,183.888 25.498,183.888 24.828,185.884 24.301,188.136 24.029,190.675 
		23.758,193.198 23.758,198.244 23.502,200.768 23.231,202.891 23.231,202.891 20.692,198.771 17.897,194.794 16.7,192.798 
		15.374,190.675 14.432,188.136 13.362,185.884 13.362,185.884 13.633,183.616 14.176,181.62 14.975,179.896 15.629,178.299 
		16.7,176.574 17.625,175.376 20.037,172.582 22.56,170.059 25.227,167.535 28.021,165.012 30.561,162.218 30.561,162.218 
		33.355,158.625 36.15,154.632 38.945,150.656 41.739,145.737 44.007,140.946 46.003,135.9 47.344,130.71 47.743,127.916 
		48.271,125.121 48.271,125.121 48.542,120.075 48.271,115.556 47.472,110.893 46.817,106.645 44.805,98.133 44.007,93.486 
		43.479,88.424 43.479,88.424 45.077,88.424 45.077,88.424 	"/>
	<polygon fill-rule="evenodd" clip-rule="evenodd" fill="#FFFFFF" points="56.271,212.856 56.271,212.856 59.864,213.798 
		63.601,215.124 66.938,216.593 70.276,218.589 72.943,220.856 75.738,223.251 78.005,225.919 80.129,228.969 80.129,228.969 
		81.327,231.763 82.397,235.101 83.067,238.295 83.866,242.159 84.137,245.88 84.393,250.016 84.393,254.008 84.137,258.128 
		83.594,262.121 83.067,266.113 82.141,269.978 81.071,273.443 79.874,276.765 78.26,279.831 76.808,282.625 75.067,284.621 
		75.067,284.621 72.671,286.617 70.404,288.214 67.865,289.412 65.198,290.481 59.608,292.206 54.003,293.676 48.415,295.272 
		45.875,296.216 43.607,297.54 41.34,298.737 39.615,300.607 38.002,302.604 36.805,305.125 36.805,305.125 36.549,305.797 
		36.805,306.323 37.603,307.394 38.545,308.592 38.817,309.39 39.072,310.188 39.072,310.188 39.072,311.912 39.072,313.908 
		38.545,318.045 38.273,320.313 38.273,322.309 38.545,324.561 39.072,326.301 39.072,326.301 38.545,326.557 38.273,326.557 
		37.348,325.759 35.751,324.033 35.751,324.033 33.483,321.239 31.743,318.444 30.146,315.251 29.746,313.653 29.475,311.912 
		29.203,310.46 29.203,308.592 29.475,307.121 29.746,305.397 30.146,303.801 31.215,302.06 32.27,300.607 33.483,299.01 
		33.483,299.01 35.751,297.014 38.002,295.018 42.809,290.881 45.348,288.885 47.6,286.889 49.739,284.366 51.736,281.827 
		51.736,281.827 53.477,279.032 55.201,275.711 57.341,272.245 58.81,268.381 60.535,264.388 61.876,260.125 62.675,255.733 
		63.346,251.214 63.346,251.214 63.346,246.407 63.074,241.888 62.403,237.369 61.604,232.833 59.066,223.907 56.271,214.069 
		56.271,214.069 56.271,212.856 56.271,212.856 	"/>
	<path fill-rule="evenodd" clip-rule="evenodd" fill="#FFFFFF" d="M223.292,169.292 M382.921,331.22l0.542,1.054l1.598,1.47l0,0
		l6.261,6.643l6.77,6.516l13.445,13.19l13.16,13.03l6.548,6.644l6.099,6.803l0,0l-87.128,87.415l-87.67,87.128l0,0l-76.652-79.271
		l-77.291-80.102l0,0l-5.845-5.877l-2.683-2.778l-0.798-1.182l-0.799-1.342l0,0l-0.511-1.213l-0.288-1.438l-0.128-2.811
		l-0.511-2.523l-0.288-1.342l-0.511-1.181l0,0l-17.183-2.013l-16.64-2.523l0,0l1.469-7.187l1.47-7.313l2.81-14.915l2.779-14.628
		l3.066-14.372l0,0l8.655,0.543l8.241,0.543l8.368,0.639l8.527,0.544l0,0l0.255-21.942l0.288-10.636l0.255-10.667l0,0v-3.449v-3.864
		v-3.737l0.256-1.597l0.287-1.725l0,0l0.799-1.182l0.926-1.597l1.597-1.725l1.98-1.725l3.737-3.354l3.577-3.321l0,0l22.772-22.485
		l22.996-22.197l22.772-21.974l22.197-21.686l0,0l0.671,0.415l1.054,0.798l2.268,2.523l2.522,2.523l1.757,1.98l0,0l1.852,1.341
		L382.921,331.22z M423.898,390.146L423.898,390.146l0.287-1.853l0.256-1.725l-0.256-1.724l-0.287-1.598l-0.512-1.47l-0.671-1.469
		l-1.851-2.523l-2.269-2.268l-2.522-2.14l-2.524-1.98l-2.267-2.012l0,0l-17.184-17.406l-16.607-16.896l0,0l-1.886-1.885
		l-1.979-1.725l-0.926-0.799l-1.597-0.127l-1.214-0.256l-1.597,0.256l0,0l9.198,10.125l9.838,10.22l20.887,20.76l0,0l3.32,3.065
		l4.248,3.738l1.886,2.107l1.468,2.012l1.055,1.98l0.383,1.086v0.926l0,0l-0.256,1.342l-0.127,1.182l-0.799,1.469l-0.798,1.342
		l-2.522,3.034l-2.812,2.811l-3.066,2.906l-2.905,2.556l-4.791,4.375l0,0l-10.126,9.581l-9.581,9.326l0,0l-54.934,52.795
		l-27.02,26.222l-26.733,26.604l0,0l-2.268,2.523l-2.523,2.811l-1.341,1.182l-1.438,0.799l-1.469,0.798l-2.14,0.288l0,0
		l-1.725-0.288l-1.469-0.798l-1.341-1.054l-1.182-0.927l-2.523-2.811l-2.268-2.523l0,0l-31.14-31.107l-30.597-31.013l-30.725-31.14
		l-30.885-31.012l0,0l-5.046-4.631l-5.589-5.207l-2.523-2.522l-2.268-2.523l-1.725-2.522l-1.341-2.523l0,0l-0.926-3.065
		l-0.256-2.013l-0.255-1.854l0,0l0.255-3.448l0.256-3.354l0.542-3.578l0.671-3.448l1.597-7.314l1.469-7.058l0,0l1.31-6.932
		l1.469-6.771l1.214-7.058l0.511-3.61l0.543-3.448l0,0l0.256-6.771v-7.474l-0.256-15.81l0,0l-0.255-7.601l-0.288-8.113v-3.737
		l0.288-3.833l0.255-3.353l0.798-2.651l0,0l0.671-1.597l1.054-1.182l2.778-3.066l3.354-3.066l2.906-2.779l0,0l17.183-17.183
		l17.278-16.64L181.9,203.37l16.64-16.64l0,0l2.779-2.811l3.066-3.034l1.469-1.214l1.853-1.341l1.724-0.639l2.268-0.542l0,0
		l1.213-0.256l1.054,0.256l1.054,0.255l0.671,0.287l1.341,1.182l1.469,1.597l0,0l2.779,2.938l0.543,0.511l0.543,0.288h0.383
		l0.542-0.798l0,0l0.256-1.214l-0.256-1.31l-0.287-1.214l-0.383-1.053l-0.798-0.927l-1.054-1.086l-1.214-0.926l-1.342-0.798
		l-2.778-1.054l-2.938-0.67h-1.597h-1.47l-1.564,0.127l-1.214,0.543l0,0l-8.112,7.569l-8.24,8.112l-16.768,16.64L156.35,223.3
		l-8.624,8.399l-8.272,7.857l0,0l-6.643,5.845l-3.737,3.45l-3.832,3.609l-3.481,3.705l-3.034,4.152l-1.214,1.98l-1.054,1.725
		l-0.798,2.012l-0.415,1.853l0,0l-0.511,3.194l-0.288,3.577v7.346l0.288,7.826l0.511,7.856l0.127,7.984l0.288,7.856l-0.415,7.569
		l-0.256,3.609l-0.799,3.45l0,0l-9.038-0.927l-8.911-1.055l-9.07-0.958l-9.582-0.799l0,0l-1.852,11.339l-1.98,11.688L72,358.75
		l-0.798,5.589l-0.511,5.59l0,0l4.12,0.926l4.248,1.087l9.039,1.437l8.943,1.341l8.751,1.47l0,0l-0.511,1.853v1.725v1.469
		l0.255,1.885l0.798,3.449l0.543,1.98v2.012l0,0l71.159,72.373l35.388,35.803l36.218,36.187l0,0l5.302,5.589l2.523,2.268
		l1.214,0.926l1.31,0.511l0,0l1.469,0.288h1.469h1.342h1.181l2.268-0.799l2.14-1.214l1.98-1.597l1.469-1.724l3.578-3.738l0,0
		l27.274-26.859l27.276-26.477l27.019-26.35l27.021-26.221l0,0l9.166-9.295l5.047-5.046l5.333-5.078l0,0l4.791-4.12l5.716-5.047
		l2.812-2.811l2.524-2.65l1.851-2.778l0.671-1.342L423.898,390.146L423.898,390.146L423.898,390.146z M401.157,387.622
		L401.157,387.622v-1.054l-0.254-0.543l-0.289-0.671l-0.383-0.51l-1.597-0.799l-1.47-0.544l-1.979-0.255l-1.884-0.128l-3.194-0.287
		l0,0l-22.325-1.598l-21.973-1.979l-21.688-2.013l-21.271-1.725l0,0l-3.992-0.255h-3.736l-3.863-0.288l-1.438-0.256l-1.884-0.254
		l0,0l-1.725-0.544l-1.47-0.799l-1.31-0.926l-0.957-1.054l-1.054-1.214l-0.799-1.31l-0.672-1.469l-0.512-1.469l-0.798-3.61
		l-0.543-3.832l-0.669-7.729l0,0l-0.799-9.71l-0.255-5.046l-0.288-5.206l0,0h-17.694l0,0l-0.256,0.127l-0.255,0.288v0.799l0,0
		l-0.671,4.503l-0.256,4.408v3.704v3.737v3.576v3.61l-0.542,3.736l-0.798,3.832l0,0l-0.926,2.556l-1.342,1.979l-1.469,1.98
		l-1.725,1.469l-2.108,1.342l-2.268,0.926l-2.523,0.799l-2.81,0.798l-2.651,0.544l-3.066,0.383l-6.132,0.543l-13.286,0.544l0,0
		l-30.086,1.979l-14.755,0.798l-14.916,0.544l0,0h-5.302l-6.004,0.255l-3.034,0.256l-2.811,0.414l-2.268,0.544l-1.98,0.799l0,0
		l-1.341,0.926l-0.926,0.799l-0.543,0.799l-0.255,0.51v0.671l0.255,0.543l0.799,0.544l0.67,0.51l2.14,0.543l2.523,0.384l5.461,0.799
		l0,0l24.337,1.757l23.667,2.235l45.768,4.407l0,0l5.334,0.255l2.522,0.128l1.725,0.543l0,0l1.756,0.799l1.597,1.054l1.182,1.214
		l1.054,1.47l0.798,1.597l0.671,1.979l0.543,1.725l0.511,2.268l0.542,4.408l0.416,5.046l0.256,10.38l0,0l1.054,17.438l1.086,17.151
		l1.182,16.896l1.054,17.151l0,0v3.864l0.415,3.992v3.736v1.597l-0.128,0.927l0,0l-0.287,1.054l-0.799,0.799l-1.309,0.926
		l-0.671,0.543l-0.543,0.799l-0.511,0.671v1.341l0,0l1.98,0.256l1.853-0.256l1.756-0.287l1.182-0.512l1.054-0.67l1.086-1.087
		l0.67-1.053l0.511-1.183l1.086-2.81l0.255-3.322l0.383-7.569l0,0l1.597-18.365l1.469-17.98l3.066-35.931l0,0l0.798-7.825
		l0.671-7.602l0.511-3.193l0.799-3.322l0.956-2.523l0.799-1.053l0.512-0.959l0,0l1.085-0.798l1.184-0.927l1.341-0.51l1.468-0.544
		l3.323-1.054l3.705-0.416l3.863-0.542l4.248-0.256l8.145-0.543l0,0l32.321-2.235l31.778-2.269l0,0l6.804-0.255l4.79-0.288
		l4.791-0.255l4.791-0.543l4.375-0.671l1.47-0.511l1.342-0.543l0.638-0.799L401.157,387.622L401.157,387.622L401.157,387.622z
		 M203.587,224.897L203.587,224.897l0.288-6.101l0.255-3.48v-3.578l-0.542-3.322l-0.256-1.469l-0.542-1.182l-0.383-1.086
		l-0.798-0.798l-1.086-0.256l-0.926-0.255l0,0h-0.511h-0.543l0,0l-24.209,24.337l-12.903,12.647l-12.392,11.817l0,0l-5.589,4.791
		l-5.046,5.079l-2.523,2.235l-2.012,2.555l-1.724,2.779l-1.31,2.811l0,0l0.255,4.791v5.046l-0.255,10.891l-0.288,11.052v5.077
		l0.288,5.047l0,0l0.255,0.799l0.543,0.67l0.255,0.256h0.798h0.383l0.798-0.416l1.757-1.053l1.852-1.47l1.469-1.598l2.268-2.521l0,0
		l11.562-10.764l11.178-10.38l22.229-20.76l0,0l4.503-3.993l5.046-4.663l2.555-2.268l2.236-2.236l1.597-2.268l0.671-1.213
		l0.542-1.054l0,0l0.543-2.523l0.255-2.81v-3.067v-3.194l-0.255-6.898L203.587,224.897L203.587,224.897L203.587,224.897z"/>
	<polygon fill-rule="evenodd" clip-rule="evenodd" fill="#FF0000" points="228.499,4.618 228.499,325.535 549.417,325.535 
		549.417,4.618 228.499,4.618 	"/>
	<polygon fill-rule="evenodd" clip-rule="evenodd" fill="#FFFFFF" points="234.631,10.75 234.631,319.402 543.283,319.402 
		543.283,10.75 234.631,10.75 	"/>
	<polygon fill-rule="evenodd" clip-rule="evenodd" fill="#FFFFFF" points="162.818,88.376 162.818,88.376 163.344,90.915 
		163.6,93.438 163.6,95.978 163.073,98.229 162.674,100.624 161.875,102.892 161.077,104.888 160.15,106.629 160.15,106.629 
		158.298,109.152 156.031,111.148 153.779,113.272 150.984,115.013 147.918,116.466 144.996,118.063 138.624,120.602 
		132.109,123.125 125.737,125.792 122.942,127.389 120.148,129.113 117.752,130.854 115.628,132.978 115.628,132.978 
		112.834,136.443 110.311,140.037 108.314,143.757 106.59,148.148 105.265,152.684 104.865,157.475 104.594,162.537 104.865,165.06 
		105.137,167.855 105.137,167.855 105.536,170.649 106.334,173.316 107.389,176.111 108.314,178.905 111.109,183.967 
		113.904,188.758 119.749,197.94 122.272,202.476 123.214,204.472 123.996,206.724 123.996,206.724 119.749,205.797 
		115.628,204.472 111.908,203.002 108.314,201.134 105.137,198.883 102.071,196.615 99.292,194.348 96.498,191.553 94.229,188.487 
		92.233,185.564 90.253,181.971 88.657,178.378 87.188,174.642 86.133,170.793 85.191,166.529 84.664,162.266 84.664,162.266 
		84.393,158.401 84.393,155.208 84.664,151.614 85.191,148.292 85.862,145.354 86.932,142.304 87.858,139.51 89.184,136.97 
		90.653,134.447 92.233,131.908 93.975,129.912 95.699,127.661 99.292,123.795 103.013,120.602 103.013,120.602 105.792,118.733 
		108.586,117.009 111.652,115.667 114.702,114.214 120.946,111.946 127.589,109.95 133.578,107.427 136.628,106.086 
		139.151,104.616 141.419,102.892 143.67,100.768 145.14,98.5 146.737,95.978 146.737,95.978 147.663,92.784 148.189,89.973 
		148.189,87.178 147.663,84.655 146.737,82.132 145.395,80.136 143.942,77.868 142.217,75.729 140.349,73.732 138.353,72.007 
		134.105,68.415 129.857,64.949 127.988,62.953 126.264,61.085 126.264,61.085 129.059,61.085 131.837,61.627 134.632,62.426 
		137.698,63.353 140.349,64.949 143.144,66.418 145.938,68.287 148.717,70.011 151.255,72.279 153.507,74.275 155.759,76.527 
		157.755,79.066 159.624,81.334 160.821,83.856 162.146,86.125 162.818,88.376 162.818,88.376 	"/>
	<polygon fill-rule="evenodd" clip-rule="evenodd" fill="#FFFFFF" points="113.776,331.698 113.776,331.698 111.524,341.839 
		109.8,352.251 107.676,362.663 105.68,372.803 105.68,372.803 97.839,371.206 90.125,370.009 74.428,367.198 74.428,367.198 
		77.622,347.716 80.688,328.09 80.688,328.09 113.776,331.698 113.776,331.698 	"/>
	<polygon fill-rule="evenodd" clip-rule="evenodd" fill="#FFFFFF" points="92.825,410.666 92.825,410.666 94.421,414.388 
		96.146,418.124 96.146,418.124 93.895,420.248 91.371,421.973 88.833,423.984 86.038,425.581 83.243,427.035 80.193,428.232 
		77.254,429.574 73.933,430.628 70.883,431.027 67.689,431.57 64.352,431.825 61.302,431.825 57.98,431.299 55.041,430.628 
		51.991,429.574 48.925,428.232 48.925,428.232 45.604,426.236 42.665,423.984 39.615,421.717 37.092,419.178 31.759,414.388 
		29.235,412.392 26.712,410.666 26.712,410.666 25.115,410.123 23.39,409.324 20.596,408.798 20.596,408.798 18.855,408.798 
		17.13,409.324 14.336,410.666 13.01,411.32 11.813,411.864 10.743,411.864 9.545,411.593 9.545,411.593 9.274,410.794 
		9.274,409.868 9.545,409.324 10.072,408.525 11.542,407.328 13.01,406.529 13.01,406.529 15.534,405.332 17.801,404.262 
		20.196,403.735 22.448,403.464 24.444,403.735 26.441,404.008 28.437,404.806 30.433,405.604 34.297,407.328 38.019,409.597 
		42.139,411.593 46.131,413.316 46.131,413.316 48.398,414.132 51.193,414.93 57.309,415.856 63.824,416.655 70.34,416.655 
		73.933,416.655 77.254,416.384 80.193,415.856 83.243,415.186 86.038,414.388 88.577,413.316 90.829,412.119 92.825,410.666 
		92.825,410.666 	"/>
	<path fill-rule="evenodd" clip-rule="evenodd" fill="#FF0000" d="M391.864,278.266L391.864,278.266l10.285-0.288l9.548-0.862
		l8.561-1.022l7.664-1.725l0,0l7.122-1.884l6.356-2.747l3.033-1.31l2.78-1.725l2.745-1.597l2.46-1.725l0,0l2.46-1.884l2.17-2.172
		l2.174-2.172l2.33-2.491l1.884-2.747l1.854-3.034l1.757-3.034l1.884-3.322l0,0l1.31-3.354l1.438-3.449l1.149-3.641l1.023-3.609
		l0.573-3.481l0.576-3.897l0.287-3.928l0.287-3.769l0,0l-0.287-4.631l-0.576-4.759l-0.86-4.631l-1.023-4.056l-1.724-4.216
		l-1.884-4.056l-2.173-3.896l-2.46-3.609l0,0l-2.747-3.481l-3.352-3.066l-3.609-3.034l-3.61-2.747l-4.055-2.172l-4.344-2.3
		l-4.504-1.884l-4.919-1.597l0,0l3.896-2.044l3.193-2.172l3.323-2.459l3.354-2.459l2.745-2.458l2.46-2.747l2.46-3.034l1.884-3.034
		l0,0l2.013-3.354l1.31-3.162l1.468-3.354l0.99-3.321l0.894-3.322l0.863-3.481l0.287-3.609v-3.353l0,0v-3.769l-0.574-3.896
		l-0.576-3.896l-1.181-3.481l-1.021-3.928l-1.727-3.609l-1.597-3.481l-2.171-3.609l0,0l-2.173-3.322l-2.46-3.194l-2.746-3.034
		l-3.034-2.459l-3.064-2.779l-3.323-2.299l-3.607-1.884l-3.77-1.885l0,0l-3.929-1.725l-4.343-1.31l-4.76-1.15l-4.951-0.734
		l-5.204-0.862l-5.781-0.575l-5.813-0.319h-6.228h-83.869v223.568H391.864L391.864,278.266L391.864,278.266z M336.386,80.918h44.458
		l0,0l11.307,0.16l9.422,0.575l7.377,1.15l3.354,0.575l2.746,0.734l0,0l2.171,0.862l2.46,1.15l1.884,1.022l2.3,1.438l1.597,1.597
		l1.598,1.757l1.757,1.884l1.278,1.852l0,0l1.469,2.204l1.022,2.299l0.861,2.172l0.862,2.459l0.447,2.459l0.287,2.747l0.289,2.459
		v2.778l0,0v3.034l-0.289,2.747l-0.287,2.459l-0.734,2.458l-0.862,2.459l-0.895,2.172l-0.989,2.172l-1.471,2.044l0,0l-1.597,1.884
		l-1.563,1.565l-2.044,1.756l-1.886,1.597l-2.171,1.149l-2.46,1.31l-2.46,0.862l-2.744,1.15l0,0l-5.08,1.022l-6.228,0.862
		l-7.665,0.575h-9.423h-48.099V80.918L336.386,80.918L336.386,80.918z M336.386,174.881h51.708l0,0l9.868,0.288l8.816,0.894
		l7.698,0.99l3.32,0.895l2.747,0.862l0,0l2.747,0.735l2.746,1.437l2.491,1.31l2.171,1.437l2.173,1.884l1.884,1.597l2.013,2.3
		l1.597,2.172l0,0l1.438,2.172l1.31,2.459l1.15,2.778l0.733,2.459l0.863,3.034l0.573,2.747l0.287,3.034v3.034l0,0l-0.287,5.238
		l-0.862,4.918l-1.308,4.472l-2.014,4.056l0,0l-2.17,3.928l-2.747,3.449l-3.067,2.779l-3.162,2.459l0,0l-3.642,2.012l-4.184,1.597
		l-4.343,1.437l-4.918,1.022l0,0l-3.354,0.575l-4.63,0.287l-12.169,0.288h-55.478V174.881L336.386,174.881L336.386,174.881z"/>
</g>
</svg>
