<!-- Created with Inkscape (http://www.inkscape.org/) -->
<svg xmlns:rdf="http://www.w3.org/1999/02/22-rdf-syntax-ns#" xmlns="http://www.w3.org/2000/svg" height="200" width="200" version="1.0" xmlns:cc="http://creativecommons.org/ns#" xmlns:dc="http://purl.org/dc/elements/1.1/">

 <metadata>
  <!-- Resource Description Framework --> 
  <rdf:RDF>
   <cc:Work rdf:about="">
    <dc:format>image/svg+xml</dc:format>
    <dc:type rdf:resource="http://purl.org/dc/dcmitype/StillImage"/>
    <dc:title/>
   </cc:Work>
  </rdf:RDF>
 </metadata>

 <!-- Weißes Quadrat mit Rahmen -->
 <path stroke-linejoin="miter" 
       d="m0.44624,0.44417,199.11,0,0,199.11-199.11,0,0-199.11z" 
       fill-rule="evenodd" 
       stroke="#000000" 
       stroke-linecap="butt" 
       stroke-miterlimit="2.61299992" 
       stroke-dasharray="none" 
       stroke-width="0.89246982" 
       fill="#ffffff"/>

 <!-- Innneres rotes Quadrat -->
 <path fill="#a92121" 
       d="m5.4189,5.423,189.16,0,0,189.15-189.16,0,0-189.15z" 
       fill-rule="evenodd"/>

 <!-- erste Flamme von unten -->
 <path d="m172.35,162.06c-0.039-3.0293,0.0251-6.0776-0.35956-9.087-1.3585-0.30939-3.2139,0.46252-4.761,0.61697-6.9924,1.4677-14.383,1.3563-21.186-0.95033-5.0575-1.5843-10.018-3.8616-13.922-7.5208-0.64792-0.69537-2.1747-1.3599-1.605,0.23184,0.92456,4.1458,2.4315,8.173,4.3571,11.957,2.3411,3.996,5.6212,7.502,9.5677,9.9446,3.5588,1.8594,7.5229,2.7908,11.411,3.6967,5.4855,0.42892,10.998,0.29277,16.497,0.38763v-9.2764z" 
       fill="#ffffff"/>

 <!-- zweite Flamme von unten --> 
 <path d="m163.65,148.54c2.9984-1.0326,5.8895-2.5061,8.4269-4.4126,0.0246-1.431-3.3212-1.599-4.7084-2.3219-5.3819-1.5254-10.565-3.9469-14.777-7.6831-5.0197-4.0819-9.1504-9.383-14.97-12.404-4.1378-1.9613-8.8746-1.6006-13.319-1.422-2.6854,0.22908-5.1475,1.5786-7.2604,3.1786-0.69761,1.8803,3.1103,1.8883,4.3301,2.8162,6.2324,2.8753,10.628,8.3835,15.104,13.388,3.4066,4.2633,8.0445,7.6926,13.467,8.795,4.4941,0.79195,9.2231,1.0039,13.708,0.066z" 
       fill="#ffffff"/>

 <!-- dritte Flamme von unten -->
 <path d="m172.35,124.65v-10.174c-2.9746,0.13951-5.9477-0.28844-8.743-1.3389-7.7865-2.7243-15.094-6.951-21.04-12.703-3.8454-3.5579-7.5204-7.3436-10.506-11.663-0.65081-1.2881-2.4343-2.1606-2.303,0.0097-0.15931,5.0129,1.1478,9.9646,2.6838,14.698,2.9724,8.2184,8.8429,15.112,15.567,20.559,3.6876,3.0483,7.9808,5.231,12.474,6.8172,3.7741,1.3908,7.5197,2.9187,11.417,3.9282,0.5706-3.3062,0.35939-6.7752,0.44994-10.132z" 
       fill="#ffffff"/>

 <!-- vierte Flamme von unten -->
 <path d="m171.27,105.57c2.0147-0.97016-2.129-2.0186-2.7345-2.8924-9.0158-6.1797-14.454-16.056-18.839-25.791-2.1163-4.8628-4.2278-10.011-8.4907-13.422-3.423-3.2464-7.9435-5.7506-12.802-5.3187-1.2625-0.06654-3.9337,0.10088-1.7925,1.5869,3.2189,2.4167,5.1342,6.0884,6.2338,9.8863,2.0945,7.3481,3.9542,14.939,8.1715,21.427,4.2686,6.8643,10.573,13.111,18.717,14.866,3.7804,0.65859,7.8242,0.70718,11.536-0.34185z" 
       fill="#ffffff"/>

 <!-- fünfte Flamme von unten -->
 <path d="m172.35,86.34v-9.5831c-2.6272-1.658-5.3206-3.2779-7.433-5.6-2.9871-3.0884-4.757-7.0927-6.7125-10.859-1.4989-3.0112-2.7645-6.1326-3.7909-9.3333-0.29-1.6932-1.4602-0.88294-1.5202,0.37721-1.1582,4.9805-1.4283,10.158-1.1036,15.253,0.4059,6.3085,2.7952,12.438,6.7447,17.372,3.4001,4.2652,7.4128,8.0579,11.842,11.239,1.2857,1.3363,1.9407,0.23907,1.7686-1.1918,0.16716-2.5536,0.19977-5.1145,0.20532-7.6728z" 
       fill="#ffffff"/>

 <!-- Telefonhörer als Gruppe -->
 <g fill="#ffffff" 
    transform="matrix(1.0537257,0,0,1.0537257,-3.53983,-5.8753451)">
  <!-- Griff -->
  <path d="m93.41,168.98c6.0305-1.8156,12.238-3.7663,17.492-7.2881-8.6707-10.651-18.03-20.782-27.529-30.709-3.6261-0.43813-8.2853,10.84-11.061,3.8855-5.2352-10.687-8.2145-22.293-12.381-33.412-3.0577-9.3861-6.597-18.673-8.7621-28.311,2.1705-5.8264,13.255,2.888,11.15-4.7442-2.637-12.366-5.189-24.742-7.74-37.118-9.74-0.642-19.103,3.861-25.905,10.624,0.2098,13.629-0.51421,27.311,0.8157,40.891,4.8418,28.01,15.232,56.329,35.917,76.583,4.3809,4.4125,9.3352,8.1808,14.164,12.078,4.68-0.4204,9.289-1.3363,13.841-2.4874z"/>
  <!-- Sprechmuschel -->
  <path d="m116.35,158.11c2.4246-1.1426,4.4134-4.3486,2.1963-6.6722-3.5803-4.5159-7.7162-8.5631-11.451-12.953-3.9843-4.5008-8.1093-8.8827-11.805-13.627-1.9078-2.4822-5.3584-0.92452-7.2965,0.67063-2.0583,1.2783-3.45,3.7479-0.8789,5.3034,8.5624,9.5502,17.214,19.031,26.187,28.198,0.81428,0.83975,2.2212-0.63516,3.0484-0.91937z"/>
  <!--Hörmuschel -->
  <path d="m71.572,69.563c1.1456-0.82759,2.7571-1.8064,2.687-3.4177-0.40204-3.451-1.445-6.7926-2.1667-10.186-1.8608-7.6984-3.539-15.449-5.759-23.054-0.40981-1.3459-0.86033-3.1368-2.5919-3.1647-2.0439-0.28546-4.2698-0.47419-6.2183,0.32851-0.75613,1.3593,0.0056,3.1251,0.12254,4.6366,1.5469,8.2208,3.4722,16.365,5.1678,24.556,0.77194,3.341,1.2785,6.7664,2.4467,9.9993,0.64378,1.7538,2.8584,1.1433,4.2769,0.9642,0.69913-0.14456,1.3942-0.3423,2.0349-0.66238z"/>
 </g>

</svg>
