<!-- Created with Inkscape (http://www.inkscape.org/) -->
<svg xmlns:rdf="http://www.w3.org/1999/02/22-rdf-syntax-ns#" xmlns="http://www.w3.org/2000/svg" height="200" width="200" version="1.0" xmlns:cc="http://creativecommons.org/ns#" xmlns:dc="http://purl.org/dc/elements/1.1/">
 <metadata>
  <rdf:RDF>
   <cc:Work rdf:about="">
    <dc:format>image/svg+xml</dc:format>
    <dc:type rdf:resource="http://purl.org/dc/dcmitype/StillImage"/>
    <dc:title/>
   </cc:Work>
  </rdf:RDF>
 </metadata>
 <path stroke-linejoin="miter" d="m0.44624,0.44417,199.11,0,0,199.11-199.11,0,0-199.11z" fill-rule="evenodd" stroke="#000000" stroke-linecap="butt" stroke-miterlimit="2.61299992" stroke-dasharray="none" stroke-width="0.89246982" fill="#ffffff"/>
 <path d="m5.4189,5.423,189.16,0,0,189.15-189.16,0,0-189.15z" fill-rule="evenodd" fill="#a92121"/>
 <path d="m139.13,88.108c-5.5148-12.477-5.2419-24.614-13.51-29.851,17.195-1.7637,19.809,10.239,27.715,27.072,5.0938,8.735,8.1029,12.73,18.708,19.433-8.9976,0.95274-21.23,3.0525-32.914-16.654z" fill="#ffffff"/>
 <path d="m172.51,142.93c-7.3918,9.104-27.267,7.252-33.598-1.0735-7.9009-8.0572-10.801-15.835-24.09-18.043,20.851-12.075,30.666,4.1077,36.334,9.0189,7.4166,6.003,13.452,8.3897,21.353,10.098z" fill="#ffffff"/>
 <path d="m171.71,114.76,0.13919,19.208c-29.313-5.3686-42.045-26.869-41.541-46.844,12.858,14.433,18.845,22.965,41.402,27.637z" fill="#ffffff"/>
 <path d="m172.3,170.85c-29.72,1.0018-36.28-5.9642-41.445-26.517,15.265,11.957,25.091,10.977,41.362,8.4358z" fill="#ffffff"/>
 <path d="m171.85,76.561,0.78949,20.013c-17.748-9.8364-25.112-28.952-19.122-46.741,6.0246,14.735,6.8279,20.284,18.332,26.727z" fill="#ffffff"/>
 <g fill="#ffffff">
  <path d="m47.352,151.1-1.3873,9.2729-4.0904-0.13919-1.5264-9.1337z"/>
  <path d="m37.088,29.174c0,29.403,0.04921,71.011,0.04921,100.41-1.0624,0.0415-4.8713,0.20812-5.6484,0.13193-1.3329,0.0772-3.0406-3.3905-2.6985-4.7815,0-27.305,0.02039-64.866,0.02039-92.171,0.4679-0.95529,2.233-3.1153,3.3975-3.3892,0.68359-0.3693,4.1218-0.24662,4.8798-0.20386z"/>
  <path d="m40.348,37.389c-0.06863-2.6354,3.5473-3.7315,5.4619-2.2929,1.992,1.2243,1.0227,3.9111,1.2601,5.8572,0.09404,34.516,0.18808,69.031,0.28213,103.55h-7.0041v-107.11z" fill-rule="evenodd"/>
  <path d="m58.456,37.685v82.178c-0.37355,1.1086-0.20661,2.5495-1.4827,3.1244-1.1852,0.91733-2.78,0.96192-3.9732,0.0326-1.6872-0.93161-1.6207-3.0395-1.5408-4.7163v-81.274c0.24227-1.2231,1.2347-1.7625,2.2741-2.2592,1.4604-0.79685,3.1047,0.21968,4.2133,1.1154,0.37411,0.58137,0.06718,1.2267,0.50922,1.7986z" fill-rule="evenodd"/>
  <path d="m69.826,37.685v83.161c-0.42447,1.7043-2.1262,2.9814-3.8526,2.8671-2.1545-0.16932-3.5007-2.4819-3.1441-4.5009v-82.182c0.23979-1.1527,1.1407-1.6748,2.0407-2.2918,1.7157-0.74847,3.6379,0.20272,4.6645,1.637-0.06552,0.48663,0.05743,0.88616,0.29153,1.3096z" fill-rule="evenodd"/>
  <path d="m80.904,37.685v83.161c-0.46447,1.0697-0.78352,2.2719-2.0407,2.6192-1.5861,0.68238-3.5461-0.0566-4.4468-1.4754-0.4566-1.4265-0.58619-2.9582-0.50922-4.4859v-79.818c0.3586-1.0188,0.31426-2.2572,1.641-2.5585,1.4581-1.1165,3.5666-0.66185,4.7727,0.59405,0.24693,0.64747,0.70976,1.2382,0.58306,1.9644z" fill-rule="evenodd"/>
  <path d="m92.273,37.685,0,83.161-0.58306,1.3096-0.58306,0.65481-1.1661,0.6548-1.1661,0.32741-1.1661-0.32741-1.1661-0.6548-0.58306-0.65481-0.29153-0.65482-0.29153-0.65481,0-83.815,0.58306-1.3096,0.58306-0.3274,1.1661-0.65481,1.1661-0.3274,1.4576,0.3274,0.87459,0.65481,0.58306,0.3274,0.29153,0.65481,0.29153,0.65481,0,0.65481z" fill-rule="evenodd"/>
 </g>
 <path fill="#ffffff" d="m95.746,29.204c0,23.692-0.3937,77.009-0.3937,100.7l5.3,0.013c1.2115-0.79206,3.7759-2.853,3.1481-4.4638,0.0661-9.0222,0.083-34.826,0.14964-43.848l2.4914,0.09842c0.98435,6.6363,6.3808,9.4252,12.038,9.3061,6.3687-0.13406,12.214-5.4111,11.256-13.791-0.2208-5.1135-4.5998-9.925-11.398-10.076-7.979-0.09581-11.683,4.6386-12.035,10.053l-2.2053-0.05376c0-10.242-0.0984-33.87-0.0984-44.113-0.29471-0.84732-2.373-3.0986-3.3694-3.5237-0.75991-0.49676-4.0214-0.30497-4.8833-0.30191zm19.683,41.538v6.6468c-2.1828,0-3.6274,0.14764-5.8102,0.14764,0.57827-3.7742,2.3785-6.2571,5.8102-6.7944zm4.8021,0.04921c3.871,0.53864,5.7519,2.7809,6.0667,6.5484h-5.9682c0-2.1828-0.0984-4.3656-0.0984-6.5484zm-10.415,10.809c2.1828,0,3.2337,0.04921,5.4165,0.04921,0,2.2583-0.0492,3.3848-0.0492,5.6431-3.2304-0.91291-4.7656-2.8044-5.3672-5.6923zm10.12,0.04921c2.3339,0,4.028,0.04921,6.3619,0.04921-1.2744,3.5665-3.3401,5.767-6.3619,5.8487v-5.8979z"/>
</svg>
