<!-- Created with Inkscape (http://www.inkscape.org/) -->
<svg xmlns:rdf="http://www.w3.org/1999/02/22-rdf-syntax-ns#" xmlns="http://www.w3.org/2000/svg" height="200" width="200" version="1.0" xmlns:cc="http://creativecommons.org/ns#" xmlns:dc="http://purl.org/dc/elements/1.1/">
 <metadata>
  <rdf:RDF>
   <cc:Work rdf:about="">
    <dc:format>image/svg+xml</dc:format>
    <dc:type rdf:resource="http://purl.org/dc/dcmitype/StillImage"/>
    <dc:title/>
   </cc:Work>
  </rdf:RDF>
 </metadata>
 <path stroke-linejoin="miter" d="m0.44624,0.44417,199.11,0,0,199.11-199.11,0,0-199.11z" fill-rule="evenodd" stroke="#000000" stroke-linecap="butt" stroke-miterlimit="2.61299992" stroke-dasharray="none" stroke-width="0.89246982" fill="#ffffff"/>
 <path d="m5.4189,5.423,189.16,0,0,189.15-189.16,0,0-189.15z" fill-rule="evenodd" fill="#a92121"/>
 <path d="m50,50,0-12-5,0c-16.763,17.711-15,11-15.935,25.799l-6.388,0.02405c0.323-24.823-1.677-17.823,21.782-38.958l8.541,0.135v-5h16v6c4.5631,0.1005,8.964,0.60059,13,2v9c-3.0449,0.87653-6.8647,1.3052-11,2l-0.208,10.963c10.633,3.325,17.309,7.857,17.208,19.037l-1,111h-54v-111c1.982-15.259,9.445-18.737,17-19z" fill="#ffffff"/>
 <path d="M140.84,85.974c-6.68-14.582-5.84-27.467-15.84-33.587,22.31-2.387,22.11,14.733,34.2,34.732,6.1612,10.209,9.2957,12.113,19.261,19.134-10.883,1.1136-23.49,2.7543-37.621-20.278z" fill="#ffffff"/>
 <path d="m178.22,148.83c-10.099,8.9642-25.395,7.8304-35.73,0.12286-9.0844-9.1994-13.227-19.521-28.507-22.043,24.088-14.798,35.883,7.0306,42.401,12.638,8.5275,6.854,14.675,6.4324,21.836,9.2819z" fill="#ffffff"/>
 <path d="m178.54,116.43,0,22.555c-33.72-6.9045-47.46-29.05-47.786-53.98,18.753,20.208,21.384,26.81,47.786,31.426z" fill="#ffffff"/>
 <path d="m178.4,180.29c-28.332,0.93009-42.124-5.7542-47.35-30.64,22.613,15.749,29.453,12.343,46.581,10.089,0.73556,6.7642,0.76879,13.754,0.76879,20.551z" fill="#ffffff"/>
 <path d="m177.52,73.365,0.75669,21.609c-20.65-11.003-28.25-32.075-21.28-51.974,7.0102,16.483,7.1352,23.157,20.522,30.365z" fill="#ffffff"/>
 <rect style="enable-background:accumulate;color:#000000;" height="25" width="40" y="80" x="40" fill="#ab2323"/>
</svg>
