<!-- Created with Inkscape (http://www.inkscape.org/) -->
<svg xmlns:rdf="http://www.w3.org/1999/02/22-rdf-syntax-ns#" xmlns="http://www.w3.org/2000/svg" height="200" width="200" version="1.0" xmlns:cc="http://creativecommons.org/ns#" xmlns:dc="http://purl.org/dc/elements/1.1/">
 <metadata>
  <rdf:RDF>
   <cc:Work rdf:about="">
    <dc:format>image/svg+xml</dc:format>
    <dc:type rdf:resource="http://purl.org/dc/dcmitype/StillImage"/>
    <dc:title/>
   </cc:Work>
  </rdf:RDF>
 </metadata>
 <path stroke-linejoin="miter" d="m0.44624,0.44417,199.11,0,0,199.11-199.11,0,0-199.11z" fill-rule="evenodd" stroke="#000000" stroke-linecap="butt" stroke-miterlimit="2.61299992" stroke-dasharray="none" stroke-width="0.89246982" fill="#ffffff"/>
 <path d="m5.4189,5.423,189.16,0,0,189.15-189.16,0,0-189.15z" fill-rule="evenodd" fill="#a92121"/>
 <path fill="#ffffff" d="m171.87,161.69c0.11713-5.8792-0.0385-9.0869-0.44856-9.2434-0.34537-0.13183-2.5901,0.17262-4.9883,0.67655-11.921,2.505-25.899-0.65178-33.378-7.5385-1.426-1.313-2.736-2.1558-2.9111-1.8728-0.58276,0.94191,2.5944,10.068,4.7586,13.669,5.6315,9.3694,12.284,12.706,26.649,13.368,4.4542,0.20503,8.5577,0.27663,9.1189,0.15912,0.89595-0.18758,1.0423-1.3118,1.1998-9.2173z"/>
 <path fill="#ffffff" d="m94.419,166.13c-1.4503-5.2224,4.2944-7.5531,5.6742-11.954,1.4159-6.3753,0.60461-13.029,0.86348-19.52-0.142-9.744,0.34044-19.523-0.41326-29.243-0.90758-5.0643-8.6001-4.9463-10.486-0.60756-1.8601,1.9529-0.64315-5.0677-2.4799-6.2382-2.5973-3.6514-8.3068-4.2476-10.83-0.17815-1.535,2.1082-1.8275,1.2191-1.5841-0.96286,0.14878-5.4139-6.7162-9.6752-11.277-6.2576-1.9449,1.23-4.2427,6.0743-4.1619,0.85256-0.57218-9.1339,0.57956-18.403-1.0614-27.445-1.3304-5.0292-9.3811-4.4119-11.943-0.81937-1.1877,4.3539-0.56013,9.0876-0.83626,13.606-0.19277,17.37-0.0889,34.741-0.1156,52.112-1.6206,0.007-3.7453,0.51742-2.9995-1.8424-0.19314-7.472,0.55153-15.04-0.74157-22.429-1.2117-4.7165-6.4006-6.9263-10.873-5.5137-4.4804,2.8327-1.9972,9.366-2.7485,13.825-0.02219,7.7595-0.02226,15.519-0.03382,23.279,5.1132,9.8229,10.948,19.33,14.969,29.671,1.0434,1.4156-0.39075,5.1885,2.3666,4.361,16.285-0.1009,32.569-0.20181,48.854-0.30272-0.04758-1.4644-0.09516-2.9288-0.14274-4.3932z"/>
 <path fill="#ffffff" d="m159.92,148.64c3.9425-0.747,7.8564-2.1776,11.125-4.5364,1.853-1.7902-2.5207-1.9581-3.6476-2.6409-5.4609-1.5389-10.814-3.826-15.097-7.633-5.4051-4.4367-9.9046-10.266-16.448-13.125-6.34-2.4349-13.841-1.4561-19.47,2.29-0.97849,1.7101,2.9291,1.5936,4.0563,2.4236,6.6605,2.7745,11.237,8.6412,15.743,14.011,2.2868,2.7074,4.9437,5.1533,8.2283,6.59,3.588,1.8487,7.5708,2.8498,11.576,3.1234,1.315-0.13216,2.6242-0.31767,3.9326-0.50305z"/>
 <path fill="#ffffff" d="m171.75,124.48v-9.7854c-4.1961-0.86543-8.4068-1.7916-12.316-3.6073-6.6653-2.8179-12.915-6.6816-18.11-11.748-3.6755-3.3701-6.9814-7.1223-9.8939-11.167-0.78207-1.4867-1.8796-1.2848-1.6343,0.4784-0.11597,4.9176,0.21698,10.011,2.3891,14.508,2.7422,6.1104,6.1056,12.132,11.185,16.619,4.1013,3.7573,8.4522,7.5085,13.795,9.3493,4.6694,1.8067,9.3138,3.7462,14.136,5.1056,0.57238-3.1819,0.3559-6.5197,0.44992-9.7534z"/>
 <path fill="#ffffff" d="m170.98,104.99c0.22759-1.9512-3.7129-2.6032-4.9269-4.214-7.8508-6.4171-12.925-15.489-16.988-24.621-2.1979-5.1519-4.6891-10.49-9.3013-13.933-2.9558-2.6025-6.6479-4.4781-10.647-4.5712-1.3457-0.32993-4.7958-0.22092-2.7175,1.8133,2.0692,2.3146,4.5809,4.4422,5.4143,7.5727,2.4152,7.3962,3.8899,15.196,7.8102,22.015,3.6419,6.7475,9.309,12.584,16.502,15.473,4.2525,1.814,9.0327,1.3996,13.504,0.85185,0.45911-0.0897,0.92958-0.17296,1.3508-0.38684z"/>
 <path fill="#ffffff" d="m171.75,95.169c-0.00063-6.2421-0.001-12.484-0.002-18.726-3.6468-2.1954-7.2322-4.7479-9.5362-8.4096-3.318-5.0343-5.8486-10.547-7.8604-16.22-0.21138-1.1512-1.7394-2.9359-2.0027-0.77485-0.76901,4.2531-0.76181,8.606-0.903,12.914-0.10526,4.626,0.47786,9.3812,2.6731,13.521,2.6856,5.2062,6.7116,9.6042,10.995,13.545,1.9411,1.5963,3.755,3.435,5.9983,4.6036,0.3294,0.2259,0.73766-0.08012,0.63827-0.45364z"/>
 <path fill="#ffffff" d="m44.419,67.604c0.79046-0.62851,1.0005-3.2943,0.38574-4.8948-0.23359-0.60807-1.0979-0.94787-2.411-0.94787h-2.0469l0.16145-13.333,0.16145-13.333,13.348-0.16128,13.348-0.16127v13.494,13.494h-2.9995-2.9995v2.9848c0,3.5841,0.35616,3.7495,7.5006,3.4849l4.7971-0.17768,0.15817-19.625,0.15817-19.625h-19.788-19.788l-0.16625,19.179c-0.09144,10.548-0.07178,19.46,0.04368,19.805,0.26687,0.79591,9.1078,0.63662,10.138-0.18267z"/>
 <path fill="#ffffff" d="m57.262,59.265c1.384-0.41421,3.2779-1.721,4.6514-3.2095,5.2094-5.6454,3.3088-14.501-3.8049-17.729-9.4733-4.298-19.536,4.9241-15.611,14.307,2.4551,5.8695,8.395,8.5372,14.764,6.6309z"/>
</svg>
