<?xml version="1.0" encoding="UTF-8" standalone="no"?>
<svg
     xmlns:svg="http://www.w3.org/2000/svg"
     xmlns="http://www.w3.org/2000/svg"
     version="1.0"
     width="575px"
     height="575px"
     id="svg2">
    <defs
         id="defs14" />
    <path
         d="M 574.07,287.5 C 574.07,445.77 445.77,574.07 287.5,574.07 129.23,574.07 0.93,445.77 0.93,287.5 0.93,129.23 129.23,0.93 287.5,0.93 445.77,0.93 574.07,129.23 574.07,287.5 z"
         id="path6"
         style="fill:#ffffff;stroke:#000000;stroke-width:1;stroke-linecap:square;stroke-miterlimit:4;" />
    <path
         d="M 132.07,407.1 C 132.07,406.05 134.91,400.9 138.37,395.66 155.26,370.09 164.48,343.42 173.98,292.58 177.64,273.01 182.77,249.66 185.37,240.69 187.97,231.72 190.1,223.79 190.1,223.06 190.1,222.33 195.93,227.51 203.05,234.56 210.17,241.62 215.72,248.32 215.37,249.47 213.2,256.73 212.74,261.82 214.26,261.82 215.22,261.82 216.57,259.3 217.25,256.21 217.93,253.13 218.7,250.61 218.96,250.61 219.22,250.61 235.47,266.64 255.07,286.25 L 290.71,321.88 288.21,335 C 286.83,342.21 285.22,354.14 284.63,361.51 L 283.56,374.9 302.94,387.52 C 313.61,394.46 322.84,400.13 323.46,400.13 324.07,400.13 326.01,393.5 327.77,385.4 331.42,368.5 333.19,364.68 336.02,367.51 337.34,368.82 336.67,375.88 333.9,389.92 331.67,401.19 329.65,410.69 329.4,411.03 328.76,411.92 321.88,408.06 318.95,405.18 314.13,400.41 286.9,383.31 284.13,383.31 281.71,383.31 281.42,388.13 282.05,418.19 282.51,440.47 282.09,453.26 280.9,453.59 256.08,435.54 151.85,411.63 132.07,407.1 z M 350.44,318.87 C 349.86,317.35 355.11,304.79 362.12,290.96 375.44,264.66 394.85,234.18 417.81,203.5 433.87,182.03 435.34,179.48 435.34,173.11 435.34,167.04 431.33,165.38 423.99,168.42 416.41,171.56 408.4,179.23 393.06,198.07 386.04,206.69 379.99,212.84 379.62,211.73 379.25,210.62 385.64,200.2 393.83,188.58 415.26,158.14 420.24,147.21 413.81,144.75 409.05,142.92 402.49,145.59 393.62,152.93 384.59,160.41 366,182.11 359.97,192.2 357.98,195.54 355.19,198.28 353.78,198.28 350.32,198.28 351.91,194.5 362.03,178.66 374.02,159.9 382.77,141.77 383.36,134.49 383.83,128.62 383.44,128.15 377.79,127.6 372.68,127.11 370.13,128.52 361.7,136.47 352.78,144.9 338.79,165.25 329.67,183.07 327.56,187.18 325.81,188.72 324.61,187.53 323.42,186.33 325.83,179.66 331.58,168.31 344.69,142.39 347.7,127.25 339.75,127.25 332.48,127.25 313.19,152.79 302.23,176.92 297.05,188.32 293.07,192.31 293.07,186.09 293.07,181.58 303.32,160.2 311.06,148.55 320.41,134.5 335.31,119.78 340.21,119.78 346.73,119.78 351.35,126.81 349.9,134.52 L 348.66,141.17 360.49,130.47 C 374.25,118.04 380.27,116.75 386.66,124.86 391.06,130.44 390.68,138.27 385.53,148.21 384.04,151.08 383.62,153.42 384.59,153.42 385.56,153.42 386.64,152.78 386.98,152 388.5,148.57 403.66,138.34 408.75,137.33 419.72,135.14 425.76,147.56 419.53,159.49 417.49,163.39 417.41,164.63 419.17,164.63 420.44,164.63 422.4,163.73 423.51,162.62 426.89,159.24 435.67,161.5 439.58,166.76 444.99,174.03 442.35,179.77 418.63,212.29 395.07,244.58 372.7,281.04 361.74,305 354.05,321.81 352.36,323.88 350.44,318.87 z M 331.45,301.08 C 330.81,300.05 334.67,294.8 340.01,289.4 357.61,271.63 375.43,243.35 375.44,233.2 375.44,227.17 371.74,222.57 366.9,222.57 360.75,222.57 339.66,233.29 326.78,242.95 321.12,247.2 316.19,249.79 315.83,248.71 314.86,245.79 318.73,241.84 331.39,232.83 360.65,211.98 382.93,212.12 380.56,233.14 378.71,249.52 361.31,277.26 341.18,295.94 332.7,303.8 333.02,303.63 331.45,301.08 z M 290.25,259.95 279.14,248.74 283.56,231.18 C 285.99,221.52 290.18,209.11 292.86,203.61 296.85,195.45 298.73,193.49 303.06,193 310.18,192.18 313.53,196.98 313.6,208.08 313.66,217.01 305.13,264.42 302.67,268.8 301.77,270.41 297.86,267.62 290.25,259.95 z M 265.43,234.66 C 260.04,229.05 255.63,223.78 255.63,222.97 255.63,219.85 265.43,187.72 268.13,181.99 271.2,175.48 275.93,173.04 281.84,174.91 289.48,177.34 289.68,181.6 283.59,212.68 280.42,228.92 277.23,242.8 276.52,243.53 275.81,244.27 270.82,240.28 265.43,234.66 z M 241.21,210.89 231.61,201.08 235.15,189.77 C 237.1,183.53 240.85,176.42 243.51,173.93 248.04,169.68 248.66,169.58 253.39,172.21 256.56,173.99 258.65,176.91 259.03,180.11 259.63,185.29 254.39,214.15 252.08,218.36 251.22,219.94 247.71,217.53 241.21,210.89 z M 220.02,189.82 C 218.04,187.44 218.16,187.17 220.73,188.15 222.42,188.8 223.8,190.08 223.8,191 223.8,193.4 222.72,193.07 220.02,189.82 z"
         id="path8"
         style="fill:#000000" />
    <path
         d="M 287.48,9.1495 C 218.95,9.1495 156.2,34.097 107.76,75.4 106.49,76.483 105.23,77.575 103.98,78.681 103.48,79.125 102.98,79.576 102.48,80.025 101.41,80.985 100.35,81.954 99.291,82.931 99.01,83.191 98.728,83.45 98.448,83.712 97.198,84.877 95.956,86.055 94.729,87.243 93.321,88.605 91.92,89.977 90.541,91.368 89.188,92.733 87.835,94.1 86.51,95.493 85.136,96.939 83.791,98.424 82.448,99.899 82.294,100.07 82.132,100.23 81.979,100.4 80.817,101.68 79.679,102.97 78.541,104.27 77.299,105.7 76.099,107.14 74.885,108.59 74.838,108.64 74.776,108.69 74.729,108.74 34.233,157.12 9.8229,219.47 9.8229,287.52 9.8229,441.18 134.2,565.86 287.48,565.86 356.16,565.86 419.02,540.79 467.51,499.33 L 467.54,499.36 C 467.93,499.03 468.32,498.7 468.7,498.36 468.86,498.23 469.01,498.09 469.17,497.96 470.11,497.14 471.05,496.32 471.98,495.49 472.72,494.83 473.44,494.18 474.17,493.52 474.38,493.33 474.59,493.15 474.79,492.96 475.76,492.07 476.71,491.17 477.67,490.27 478.53,489.46 479.38,488.65 480.23,487.83 480.35,487.72 480.46,487.6 480.58,487.49 481.66,486.43 482.72,485.37 483.79,484.3 484.11,483.99 484.42,483.68 484.73,483.36 485.98,482.1 487.22,480.81 488.45,479.52 488.57,479.39 488.7,479.27 488.83,479.14 490.23,477.66 491.64,476.16 493.01,474.64 494.27,473.25 495.5,471.84 496.73,470.43 496.96,470.16 497.19,469.91 497.42,469.64 498.47,468.43 499.51,467.19 500.54,465.96 540.87,417.63 565.17,355.41 565.17,287.52 565.17,133.86 440.76,9.1369 287.48,9.1369 z M 287.48,71.212 C 406.59,71.212 503.26,168.12 503.26,287.52 503.26,338.37 485.75,385.14 456.42,422.08 L 151.92,119.3 C 188.98,89.242 236.13,71.21 287.48,71.21 z M 118.86,152.62 423.42,455.46 C 386.3,485.7 339,503.83 287.48,503.83 168.37,503.83 71.73,406.92 71.73,287.52 71.73,236.52 89.366,189.61 118.86,152.61 z"
         id="path10"
         style="fill:#CC0000;stroke:#CC0000;stroke-width:2;stroke-miterlimit:4;" />
</svg>
