<?xml version="1.0" encoding="UTF-8" standalone="no"?>
<svg
     xmlns:svg="http://www.w3.org/2000/svg"
     xmlns="http://www.w3.org/2000/svg"
     version="1.0"
     width="575"
     height="575"
     id="svg2">
    <defs
         id="defs14" />
    <path
         d="M 574.07,287.5 C 574.07,445.77 445.77,574.07 287.5,574.07 129.23,574.07 0.93,445.77 0.93,287.5 0.93,129.23 129.23,0.93 287.5,0.93 445.77,0.93 574.07,129.23 574.07,287.5 z"
         style="fill:#ffffff;stroke:#000000;stroke-width:1;stroke-linecap:square;stroke-miterlimit:4;" />
    <path
         d="M 125.12,402.5 C 122.4,398.01 106.26,372.94 108.31,369.95 170.63,378.51 217.51,388.91 283.74,401.85 283.36,403.39 285.24,407.85 282.34,409.26 270.65,408.39 287.39,422.79 279.69,421.83 269.95,424.2 283.24,429.99 277.65,432.13 223.99,423.13 179.56,413.57 125.12,402.51 z M 295.48,431.12 C 295.32,431.43 283.06,423.15 292.8,422.48 290,417.15 280,413.31 289.68,410.9 293.11,407.62 283.68,405 287.2,402.16 L 470.49,368.43 C 470.49,374.68 441.02,404.19 435.54,404.99 z M 368.78,382.95 C 365.7,386.07 211.2,388.15 210,385.01 V 215.01 L 250.53,214.38 C 252.23,204.6 250.01,194.87 250.01,185 239.83,184.34 230.18,185.66 220.01,185 219.37,171.53 220.64,158.47 220.01,145 H 350 V 185 C 339.29,185 333.36,184.55 322.65,184.55 V 213.64 C 337.65,213.64 355.01,215 370.01,215 z"
         style="fill:#000000" />
    <path
         d="M 287.48,9.1495 C 218.95,9.1495 156.2,34.097 107.76,75.4 106.49,76.483 105.23,77.575 103.98,78.681 103.48,79.125 102.98,79.576 102.48,80.025 101.41,80.985 100.35,81.954 99.291,82.931 99.01,83.191 98.728,83.45 98.448,83.712 97.198,84.877 95.956,86.055 94.729,87.243 93.321,88.605 91.92,89.977 90.541,91.368 89.188,92.733 87.835,94.1 86.51,95.493 85.136,96.939 83.791,98.424 82.448,99.899 82.294,100.07 82.132,100.23 81.979,100.4 80.817,101.68 79.679,102.97 78.541,104.27 77.299,105.7 76.099,107.14 74.885,108.59 74.838,108.64 74.776,108.69 74.729,108.74 34.233,157.12 9.8229,219.47 9.8229,287.52 9.8229,441.18 134.2,565.86 287.48,565.86 356.16,565.86 419.02,540.79 467.51,499.33 L 467.54,499.36 C 467.93,499.03 468.32,498.7 468.7,498.36 468.86,498.23 469.01,498.09 469.17,497.96 470.11,497.14 471.05,496.32 471.98,495.49 472.72,494.83 473.44,494.18 474.17,493.52 474.38,493.33 474.59,493.15 474.79,492.96 475.76,492.07 476.71,491.17 477.67,490.27 478.53,489.46 479.38,488.65 480.23,487.83 480.35,487.72 480.46,487.6 480.58,487.49 481.66,486.43 482.72,485.37 483.79,484.3 484.11,483.99 484.42,483.68 484.73,483.36 485.98,482.1 487.22,480.81 488.45,479.52 488.57,479.39 488.7,479.27 488.83,479.14 490.23,477.66 491.64,476.16 493.01,474.64 494.27,473.25 495.5,471.84 496.73,470.43 496.96,470.16 497.19,469.91 497.42,469.64 498.47,468.43 499.51,467.19 500.54,465.96 540.87,417.63 565.17,355.41 565.17,287.52 565.17,133.86 440.76,9.1369 287.48,9.1369 z M 287.48,71.212 C 406.59,71.212 503.26,168.12 503.26,287.52 503.26,338.37 485.75,385.14 456.42,422.08 L 151.92,119.3 C 188.98,89.242 236.13,71.21 287.48,71.21 z M 118.86,152.62 423.42,455.46 C 386.3,485.7 339,503.83 287.48,503.83 168.37,503.83 71.73,406.92 71.73,287.52 71.73,236.52 89.366,189.61 118.86,152.61 z"
         style="fill:#CC0000;stroke:#CC0000;stroke-width:2;" />
</svg>
