<?xml version="1.0" encoding="UTF-8" standalone="no"?>
<svg
     xmlns:svg="http://www.w3.org/2000/svg"
     xmlns="http://www.w3.org/2000/svg"
     version="1.0"
     width="575"
     height="575"
     id="svg2">
    <defs
         id="defs18" />
    <path
         d="M 574.07,287.5 C 574.07,445.77 445.77,574.07 287.5,574.07 129.23,574.07 0.93,445.77 0.93,287.5 0.93,129.23 129.23,0.93 287.5,0.93 445.77,0.93 574.07,129.23 574.07,287.5 z"
         style="fill:#ffffff;stroke:#000000;stroke-width:1;stroke-linecap:square;stroke-miterlimit:4;" />
    <g transform="matrix(1.0137,0,0,0.99214,796.94,-3.5673)"
         style="fill:#000000;fill-rule:evenodd">
        <path d="M -602,309.71 C -601.06,313.42 -599.13,316.78 -598.22,320.45 -598.13,323.63 -596.68,326.7 -595.38,329.58 -594.18,327.83 -594.58,325.73 -593.49,324.17 V 315.39 C -591.24,316.89 -588.35,317.75 -587.37,320.53 -584.73,324.85 -583.15,329.8 -581.91,334.69 -580.63,341.23 -580.35,348.08 -577.41,354.17 -576.25,352.62 -574.58,350.97 -574.57,349.04 -573.94,347.28 -573.58,345.46 -572.68,343.76 -573.18,340.01 -571.23,344.35 -570.25,345.51 -567.97,348.19 -568.42,351.96 -567.66,355.22 -566.91,358.43 -567.03,361.63 -567.71,364.84 -568.46,371.89 -570.47,378.93 -569.67,386.04 -568.97,388.86 -569.4,389.44 -567.23,387.51 -566.19,385.87 -564.65,384.42 -564.16,382.55 -563.11,384.61 -561.78,386.6 -562.27,389.02 -561.74,391.18 -563.05,392.91 -563.22,394.91 -562.95,397.5 -564.72,399.77 -564.16,402.41 -565.86,407.21 -568.25,411.89 -572.22,415.2 -575.68,418.8 -579.34,422.54 -584.3,423.9 -588.85,426 -593.76,427.43 -598.8,427.01 -600.96,427.61 -602.52,425.67 -604.63,426.06 -607.26,426.17 -608.43,424.56 -605.12,424.26 -599.73,420.94 -594.23,417.3 -590.35,412.22 -588.44,408.24 -585.79,404.69 -584.07,400.61 -584.49,398.47 -582.57,396.88 -583.08,394.72 -583.44,393.18 -582.1,388.79 -584.36,391.06 -585.66,391.79 -586.63,392.84 -588.55,392.95 -588.35,391.63 -586.82,389.4 -586.86,387.55 -587.11,384.49 -586.12,381.16 -587.92,378.44 -588.45,377.37 -589.36,372.43 -590.3,375.24 -592.21,378.74 -593.66,382.57 -595.85,385.86 -597.77,388.19 -598.69,388.53 -597.79,385.23 -596.63,379.17 -597.4,373.01 -598.6,367.02 -598.65,363.58 -600.78,360.84 -602.6,358.09 -604.76,354.79 -607.8,352.26 -610.51,349.44 -610.76,353.38 -610.24,357.26 -609.57,361.13 -609.76,365.47 -609.39,369.76 -608.62,374.04 -609.32,378.11 -609.78,382.2 -609.57,386.33 -610.5,387.36 -610.69,391.99 -612.17,390.35 -615.33,387.22 -615.75,382.45 -618.08,378.76 -617.86,377.53 -618.73,372.53 -619.63,375.24 -622.84,380.28 -621.65,386.39 -621.86,392.03 -622.04,395.57 -621.82,399.07 -620.67,402.45 -619.44,405.76 -620.48,405.05 -622.35,402.87 -624.1,400.2 -625.51,397.15 -626.76,394.19 -628.39,387.5 -629.66,380.72 -631.32,374.03 -632.24,377.53 -634.75,380.65 -634.16,384.44 -635.81,386.49 -634.53,389.2 -635.85,391.4 -636.1,393.87 -635.77,395.87 -637.95,392.95 -638.01,390.88 -640.59,389.85 -641.73,388.22 -641.31,392.25 -640.13,396.1 -638.84,399.91 -638.42,403.05 -637.93,406.17 -636.14,408.86 -634.05,412.89 -631.65,416.83 -629.17,420.6 -626.46,422.79 -623.73,424.95 -620.92,427.01 -623.63,428.28 -626.72,428.29 -629.43,427.01 -632.62,427.34 -635.66,425.95 -638.51,424.74 -640.68,423.76 -642.06,421.51 -643.96,420.39 -646.33,420.09 -646.14,417.26 -647.89,416.12 -648.33,414.39 -650.39,413.03 -650.24,410.93 -651.38,409.31 -651.85,407.43 -652.13,405.46 -652.54,403.56 -653.56,401.92 -653.08,399.66 -654.87,398.13 -653.69,395.38 -654.03,393.25 V 366.47 C -652.09,366.83 -650.46,367.91 -649.05,369.55 -646.94,371.8 -645.92,368.03 -646.46,366.28 -647.03,360.97 -644.67,356.04 -643.91,350.87 -643.26,346.35 -643.79,341.71 -643.62,337.14 -640.34,338.46 -638.32,341.57 -637,344.71 -635.1,346.14 -634.23,348.32 -633.22,350.39 -631.8,347.31 -629.83,344.24 -629.43,340.86 -629.81,336.84 -628.72,332.88 -628.58,328.91 -629.46,324.65 -629.45,320.32 -629.51,316.01 -630.01,313.88 -630.57,311.77 -631.32,309.71 -629.44,310.81 -627.13,311.49 -625.5,312.85 -624.65,315.14 -622.25,316.31 -621.61,318.74 -620.71,320.62 -619.82,323.39 -618.92,319.9 -616.15,314.39 -617.43,308.01 -617.13,302.06 -617.26,297.09 -617.31,291.82 -614.53,287.48 -613.76,287.18 -613.59,291.09 -612.82,292.39 -612.04,296.1 -609.75,299.07 -607.68,302.14 -604.58,303.65 -602.81,306.41 -602,309.71 z" />
        <path d="M -490.38,119.56 C -495.47,121.1 -495.77,126.14 -494.68,130.56 -493.25,144.56 -491.81,158.56 -490.38,172.56 -496.69,175.39 -503,178.23 -509.32,181.06 -504.58,187.54 -500.84,194.65 -496.36,201.28 -495.38,205.04 -489.91,208.79 -490.12,211.62 -505.71,218.18 -521.62,224.15 -537.01,231.06 -546.74,237 -556.9,242.42 -565.51,250.05 -576.23,258.94 -589.98,265.79 -595.38,279.44 -595.73,285.19 -588.08,283.21 -584.92,281.29 -581.92,279.32 -574.15,275.28 -580.55,280.68 -584.98,285.45 -591.37,290.26 -593.17,296.18 -590.38,299.59 -585.11,295.2 -581.79,293.91 -576.14,291.82 -572.01,286.99 -565.81,286.47 -562.39,286.12 -570.74,291.46 -572.5,293.12 -578.4,297.44 -584.92,301.32 -588.75,307.81 -589.14,313.39 -583.22,312.86 -579.55,311.39 -568.16,308.81 -557.53,303.97 -546.67,299.9 -541.31,298.37 -548.85,306.01 -550.68,307.57 -554.16,310.42 -558.46,312.33 -559.85,316.95 -563.38,320.77 -561.03,326.68 -555.72,322.99 -552.77,320.8 -549.63,318.44 -546.19,317.28 -551.37,322.2 -556.66,327.58 -559.44,334.11 -561.48,341.14 -555.38,337.99 -551.18,336.92 -540.12,333.81 -532.49,324.45 -525.21,316.15 -521.6,311.97 -515.77,310.32 -513.63,304.83 -509.62,301.16 -505.5,297.51 -502.13,293.15 -492.87,285.62 -484.18,277.19 -473.35,271.87 -482.29,283.08 -491.82,293.75 -502.24,303.61 -508.32,309 -513.02,315.41 -518.76,321.06 -524.91,324.44 -527.79,330.99 -532.01,336.19 -533.34,340.55 -536.99,344.15 -535.79,349.12 -535.79,349.12 -533.75,349.29 -528.56,345.05 -525.39,344.17 -519.62,338.09 -517.82,341.67 -518.65,345.91 -521.34,350.14 -521.78,354.9 -523.08,361.01 -525.53,367.23 -523.07,373.34 -522.42,378.76 -520.11,382.73 -516.99,376.08 -509.96,365.07 -504.66,353.09 -501.15,340.52 -496.83,329.96 -490.75,320.05 -483.73,311.1 -474.48,300.06 -466.54,287.42 -454.21,279.49 -416.86,251.92 -385.92,227.69 -348.5,200.23 -362.05,178.47 -375.6,156.71 -389.15,134.95 -420.37,146.61 -444.97,155.21 -476.19,166.87 -477.73,152.37 -479.54,137.88 -480.91,123.37 -483.08,119.93 -486.06,119.26 -490.38,119.56 z M -490.38,124.31 C -484.25,122.39 -485.43,129.44 -484.79,133.27 -481.3,165.59 -477.81,197.92 -474.32,230.25 -480.38,231.8 -482.11,228.61 -481.58,222.95 -484.45,190.07 -487.79,157.2 -490.38,124.31 z M -488.5,216.06 C -482.67,220.21 -489.9,221.31 -491.32,225.53 -494.79,232.17 -489.34,240.23 -483.02,242.56 -479.26,244.29 -474.01,239.27 -471.75,241.96 -467.52,249.27 -461.74,255.61 -457.4,262.87 -455.86,265.97 -449.59,270.42 -453.27,273.31 -463.77,282.57 -475.26,290.98 -482.93,302.93 -489.82,310.52 -495.13,319.39 -500.39,328.11 -506.72,342.71 -511.43,358 -518.76,372.15 -521.71,366.79 -517.66,360.19 -517.09,354.37 -516.78,349.72 -514.41,345.39 -513.1,341.34 -513.76,337.22 -517.59,334.48 -521.8,336.9 -525.71,338.05 -530.19,343.36 -526.63,336.78 -521.64,326.21 -511.66,319.56 -503.63,311.59 -497.47,303.81 -489.83,297.37 -483.59,289.67 -477.93,283.41 -471.42,277.17 -468.63,269.03 -472.94,266.21 -477.24,270.62 -481.52,271.34 -492.72,278.91 -501.74,289.24 -512.01,298 -526.42,309.9 -537.32,326.38 -554.72,334.31 -553.04,328.42 -547.76,324.6 -544.11,319.93 -542.33,317.47 -536.28,311.39 -542.21,310.65 -545.98,311.77 -548.84,314.32 -552.41,316.07 -557.65,322.06 -556.31,315.65 -551.92,313.22 -545.8,309.62 -540.83,303.56 -539.57,296.47 -544.92,294.4 -550.71,298.52 -556,299.91 -562.1,301.87 -568.16,304.03 -574.14,306.14 -576.67,305.68 -587.04,309.86 -581.96,305.74 -575.99,300.41 -569.97,295.15 -563.22,290.78 -562.23,287.74 -556.13,281.07 -562.78,281.34 -568.04,282.15 -572.59,284.71 -577.17,287.23 -580.73,289 -583.98,291.13 -587.82,292.68 -582.28,287.14 -576.72,281.39 -570.92,276.34 -566.21,271.83 -571.67,270.63 -575.51,272.81 -579.1,275.2 -583.27,276.27 -587.11,278.09 -593.65,280.5 -587.27,273.39 -585.32,271.25 -579.1,263.94 -570.86,259.03 -563.25,253.44 -554.86,246.97 -545.77,241.45 -536.72,235.93 -520.93,228.66 -504.61,222.63 -488.5,216.06 z" />
    </g>
    <path
         d="M 286.99,9.6298 C 218.46,9.6298 155.71,34.578 107.27,75.88 106,76.964 104.74,78.055 103.49,79.161 102.99,79.605 102.49,80.057 101.99,80.505 100.92,81.465 99.857,82.434 98.801,83.411 98.52,83.672 98.238,83.93 97.958,84.192 96.708,85.358 95.466,86.536 94.239,87.723 92.831,89.086 91.43,90.457 90.051,91.848 88.698,93.214 87.345,94.581 86.02,95.973 84.646,97.419 83.301,98.905 81.958,100.38 81.804,100.55 81.642,100.71 81.489,100.88 80.327,102.16 79.189,103.45 78.051,104.75 76.809,106.18 75.609,107.62 74.395,109.07 74.348,109.12 74.286,109.17 74.239,109.22 33.743,157.6 9.3329,219.95 9.3329,288 9.3329,441.66 133.71,566.34 286.99,566.34 355.67,566.34 418.53,541.27 467.02,499.81 L 467.05,499.84 C 467.44,499.51 467.83,499.18 468.21,498.84 468.37,498.71 468.52,498.57 468.68,498.44 469.62,497.62 470.56,496.8 471.49,495.97 472.23,495.31 472.95,494.66 473.68,494 473.89,493.81 474.1,493.63 474.3,493.44 475.27,492.55 476.22,491.65 477.18,490.75 478.04,489.94 478.89,489.13 479.74,488.31 479.86,488.2 479.97,488.08 480.09,487.97 481.17,486.91 482.23,485.85 483.3,484.78 483.62,484.47 483.93,484.16 484.24,483.84 485.49,482.58 486.73,481.29 487.96,480 488.08,479.87 488.21,479.75 488.34,479.62 489.74,478.14 491.15,476.64 492.52,475.12 493.78,473.73 495.01,472.32 496.24,470.91 496.47,470.64 496.7,470.39 496.93,470.12 497.98,468.91 499.02,467.67 500.05,466.44 540.38,418.11 564.68,355.89 564.68,288 564.68,134.34 440.27,9.6172 286.99,9.6172 z M 286.99,71.692 C 406.1,71.692 502.77,168.6 502.77,288 502.77,338.85 485.25,385.62 455.93,422.56 L 151.43,119.78 C 188.48,89.72 235.64,71.688 286.99,71.688 z M 118.37,153.1 422.93,455.94 C 385.81,486.18 338.51,504.31 286.99,504.31 167.88,504.31 71.24,407.4 71.24,288 71.24,237 88.876,190.09 118.37,153.09 z"
         style="fill:#cc0000;stroke:#cc0000;stroke-width:2;" />
</svg>
