<svg id="svg2" xmlns:rdf="http://www.w3.org/1999/02/22-rdf-syntax-ns#" xmlns="http://www.w3.org/2000/svg" class="nicermediapages-SVG" height="575px" width="575px" version="1.0" xmlns:cc="http://creativecommons.org/ns#" xmlns:dc="http://purl.org/dc/elements/1.1/">
 <g id="layer3">
  <path id="path6" d="m574.07 287.5c0 158.27-128.3 286.57-286.57 286.57s-286.57-128.3-286.57-286.57 128.3-286.57 286.57-286.57 286.57 128.3 286.57 286.57z" stroke="#000000" stroke-linecap="square" fill="#ffffff"/>
  <path id="path28" d="m167.32 428.6 47.55-26.39c33.823 26.632 50.253-15.106 41.331-23.155l49.796-30.625c17.238 35.852 12.8 77.82-28.882 106.56-37.642 22.722-77.47 13.295-109.8-26.392z" fill="#a3a4a8"/>
  <path id="path24" d="m166.18 430.75-8.9723 4.6764c-35.019-54.335-1.3832-128.25 61.294-140 4.3655-10.322 7.635-22.287 10.687-34.58l9.0688 9.1873-5.7466 23.622c7.6902 0.19197 16.025 1.129 23.191 2.4672 1.6584 0.26654 1.8169 0.17221 2.8758-1.7118 0.61636-1.0967 1.2715-1.9939 1.4559-1.9939l17.279 17.261c-0.0782 0.0782-2.9067-1.0447-6.2857-2.4952-72.712-30.886-149.83 42.913-111.47 120.29l50.458-28.767c0.0935-0.049-0.31763-1.4665-0.91355-3.15-5.4712-15.456 5.1011-32.542 21.553-34.83 8.0691-1.1223 15.986 1.6048 21.964 7.5655l3.5191 3.5091 7.3848-4.2365c5.6673-3.2512 30.879-17.849 44.91-25.98l3.9096 4.1673c0 0.17048-0.73902 0.70795-1.6423 1.1944l-1.6423 0.88442c47.909 101-86.295 167.32-142.88 82.929zm138.06-79.213-45.053 25.88c0.95993 5.0927 1.876 11.203 0.58843 16.409-4.1142 14.833-18.749 23.256-33.7 18.557-5.6051-2.2486-8.9385-4.7847-12.842-8.4424l-41.432 24.407c53.916 79.725 175.45 13.889 132.44-76.81zm-64.856 55.471c12.879-3.9369 19.022-17.45 13.469-28.829-6.8141-13.605-23.825-16.139-34.177-5.0896-4.0538 4.3266-6.3378 11.977-5.2049 17.434 2.5198 12.138 14.163 19.545 25.913 16.484zm106.66-93.755 91.555-56.194c-12.571-23.239-15.961-28.224-30.054-52.745l-104.96 64.595-18.887-18.98 4.0678-6.5298c5.6939-9.1401 6.9559-13.106 7.3804-23.194 1.2839-12.676 2.1037-19.578 5.3549-32.144 0.58736-1.5306 3.6862-3.3837 6.036-3.6095 1.915-0.184 2.4795-0.0384 3.3933 0.87543 1.0524 1.0524 1.0839 1.3207 0.78993 6.7197-0.74474 13.677-1.7787 21.394-3.9947 29.816-2.2921 8.8464-5.1882 15.575-7.8778 23.483l2.3633 2.2106c1.2998 1.2158 2.614 2.2106 2.9203 2.2106 14.657-8.6732 25.568-15.697 41.037-25.405l1.0058-3.1684c1.8816-5.9271 2.605-21.725 1.4983-32.722-0.42167-4.1898-0.86814-6.0214-2.2136-9.0815-3.3347-8.0314-5.8056-14.678-8.9334-22.912 2.9759-36.951 3.1928-25.169 23.159-77.869l9.3166 3.0737-18.353 44.749-4.0341 27.434c2.9118 7.1132 5.5783 14.343 8.7722 21.336 1.7674 3.8392 1.9898 4.7994 2.6948 11.631l1.7417 29.496c0.39815 0 17.908-8.5453 52.998-25.865 21.727-10.724 22.283-10.965 25.2-10.958 28.971-1.3156 53.861 52.8 34.853 70.629l-117.57 71.841c-3.5841-2.7373-5.8931-5.3324-9.2654-8.7204zm-101.93-103.71l-4.0159-4.223 3.4511-9.6461 3.4511-9.6461 4.0215-4.1192c2.2118-2.2656 6.2272-7.0497 8.9231-10.631l4.9016-6.5122 31.619-98.195 11.911 1.2114-31.899 97.79c-1.7471 5.4931-4.934 12.582-11.387 17.495-4.7907 3.6479-5.0787 5.448-6.6598 9.0295-0.99754 2.2595-3.0933 6.8341-4.6572 10.166-1.5639 3.3317-3.4162 7.3116-4.1163 8.8442-0.70005 1.5326-1.3303 2.7579-1.4005 2.7229s-1.9349-1.964-4.1436-4.2866z" fill="#000000"/>
  <path id="path12" d="m287.48 9.1495c-68.53 0-131.28 24.948-179.72 66.25-1.27 1.083-2.53 2.175-3.78 3.281-0.5 0.444-1 0.895-1.5 1.344-1.07 0.96-2.13 1.929-3.189 2.906-0.281 0.26-0.563 0.519-0.843 0.781-1.25 1.165-2.492 2.343-3.719 3.531-1.408 1.362-2.809 2.734-4.188 4.125-1.353 1.365-2.706 2.732-4.031 4.125-1.374 1.446-2.719 2.931-4.062 4.406-0.154 0.171-0.316 0.331-0.469 0.501-1.162 1.28-2.3 2.57-3.438 3.87-1.242 1.43-2.442 2.87-3.656 4.32-0.047 0.05-0.109 0.1-0.156 0.15-40.496 48.38-64.906 110.73-64.906 178.78 0 153.66 124.38 278.34 277.66 278.34 68.68 0 131.54-25.07 180.03-66.53l0.03 0.03c0.39-0.33 0.78-0.66 1.16-1 0.16-0.13 0.31-0.27 0.47-0.4 0.94-0.82 1.88-1.64 2.81-2.47 0.74-0.66 1.46-1.31 2.19-1.97 0.21-0.19 0.42-0.37 0.62-0.56 0.97-0.89 1.92-1.79 2.88-2.69 0.86-0.81 1.71-1.62 2.56-2.44 0.12-0.11 0.23-0.23 0.35-0.34 1.08-1.06 2.14-2.12 3.21-3.19 0.32-0.31 0.63-0.62 0.94-0.94 1.25-1.26 2.49-2.55 3.72-3.84 0.12-0.13 0.25-0.25 0.38-0.38 1.4-1.48 2.81-2.98 4.18-4.5 1.26-1.39 2.49-2.8 3.72-4.21 0.23-0.27 0.46-0.52 0.69-0.79 1.05-1.21 2.09-2.45 3.12-3.68 40.33-48.33 64.63-110.55 64.63-178.44 0.01-153.66-124.4-278.38-277.68-278.38zm0 62.062c119.11 0 215.78 96.908 215.78 216.31 0 50.85-17.51 97.62-46.84 134.56l-304.5-302.78c37.06-30.058 84.21-48.09 135.56-48.09zm-168.62 81.408 304.56 302.84c-37.12 30.24-84.42 48.37-135.94 48.37-119.11 0-215.75-96.91-215.75-216.31 0-51 17.636-97.91 47.13-134.91z" stroke="#cc0000" stroke-width="2" fill="#cc0000"/>
 </g>
</svg>
