<svg xmlns="http://www.w3.org/2000/svg" height="575" width="575" viewBox="0 0 1183.4 1183.1"><circle r="587" cy="592" cx="592" color="#000" fill="#fff"/><path d="m 714 782 h -246 c -191 0 -247 -0.2 -250 -1.2 -2.5 -0.7 -5.9 -3.1 -8.8 -5.9 -8.5 -8.4 -7.9 3.9 -7.5 -162 l 0.3 -147 l 2.2 -8.3 c 7.8 -29 26.4 -52 52 -64 14.3 -6.7 21 -8.2 41.6 -8.9 l 18.2 -0.7 l 89 89 l 89 89 l -1 4 c -0.6 2.2 -1.1 12.8 -1.1 23.5 0 16.5 0.3 21.3 2.3 31 10 50 42 93 87 116 6.7 3.5 12.3 6.6 12.5 7.1 0.1 0.5 1.3 0.8 2.6 0.8 1.2 0 3.9 0.7 5.9 1.6 6.8 2.8 27.4 7.3 39 8.5 11.3 1.1 27.7 0.9 38.7 -0.7 l 4.9 -0.7 z m -252 -36.6 c 8.7 -2.8 16.3 -13.6 16.3 -22.8 0 -16.7 -17.2 -29.4 -32.5 -24 -10.3 3.5 -16.4 11.2 -17.2 22 -0.5 5.3 -0.2 7.1 2 11.7 1.4 2.9 3.9 6.7 5.4 8.3 5.7 6 16.7 8.1 26 4.9 z m -94 -297 v -13.3 l -18.5 -18.2 h -25 c -26.9 0 -28 0.2 -35 6.6 -7.1 6.4 -8.4 10 -8.9 24.7 l -0.4 12.7 h 44 h 44 z m 82 -64 h 44 h 44 l 0.6 -9.7 c 1.2 -19.6 8.1 -34.8 21.6 -48 8.5 -8.4 15.7 -13 25.8 -16.5 12.4 -4.3 17.8 -4.6 75 -4.2 60.9 0.4 59 0.2 74.9 7.9 7 3.4 10.2 5.8 17.6 13.2 14 14 20 27.6 21.3 47 l 0.6 10 l 63 0.6 c 61.9 0.5 63 0.6 71 2.8 34.7 10.5 58.9 35.5 68 70 l 2.2 8.3 l 0.4 147 c 0.3 166 0.9 154 -7.6 163 -2.8 2.8 -6.3 5.2 -8.8 5.9 -3 0.9 -18.9 1.2 -60 1.2 h -55.9 z m 423 361 c 16 -5.4 21 -27.8 9.3 -40 -5.3 -5.6 -10.2 -7.6 -18.2 -7.6 -8.2 0 -13.3 2.2 -18.5 8 -4.5 5.2 -6 9.3 -6 16.6 0.1 17.9 16.2 29 33.4 23 z m -91 -46.7 c 19.8 -23 31.8 -47 38 -77 1.9 -8.8 2.2 -13.2 2.2 -32 0 -19 -0.3 -23.3 -2.2 -32.5 -14.5 -67 -62.9 -115 -130 -130 -8.5 -1.9 -12.9 -2.2 -32.4 -2.2 -19.7 0 -23.6 1 -33 2.3 -29.7 4 -63.7 25.3 -85 46.6 l 24 24.4 l 5.5 -5.1 c 17.5 -16 42 -28 67 -32 17.8 -3.1 40.8 -1.5 59 4.1 55 16.6 92 67 92 124 0 32.6 -12.6 65 -33.8 88 l -5.1 5.4 l 25.8 25.6 c 0.4 0 3.2 -4.8 7.1 -9.4 z m 92 -28 c 4.7 -2 10.8 -7.8 13.4 -12.9 2.5 -4.9 2.8 -14.5 0.6 -19.6 -2.2 -5 -7.4 -10.7 -12.2 -13.3 -3.1 -1.6 -5.8 -2.1 -11 -2.1 -8.2 0 -13.3 2.2 -18.3 7.9 -4.5 5.1 -6.2 9.8 -6.2 17 0 10.4 5.6 18.8 15.3 23 4.3 1.9 13.9 1.9 18.5 0 z m -149 -23.8 c 12.9 -15.3 19.8 -32.8 20.8 -52.7 1.4 -25.9 -7.3 -48 -25.8 -66.9 -28.7 -28.8 -72 -34.4 -107 -13.9 -6.5 3.8 -19.9 13.4 -18.5 14.8 l 125 125 c 0.6 0 3 -3.5 5.4 -6.4 z m 151 -138 c 8.1 -3.8 13.5 -12.8 13.6 -22.3 0.1 -13.7 -11 -25 -24.8 -24.9 -18.6 0 -30.4 19.8 -21.7 36.4 6.4 12.3 20 16.8 32.9 10.8 z m -223 211 l -9.4 -1.1 c -60 -6.7 -108 -54 -115 -115 -0.6 -5.1 -0.9 -9.5 -0.8 -9.6 0.2 -0.2 33.8 33 75 74 z"/><path d="m 561 1183 c -2.5 -1 -10.8 -1 -18.5 -2 -87 -6 -178 -36 -255 -82 c -129 -77 -225 -202 -265 -346 -29.9 -107 -29.8 -217 0.4 -324 45 -160 158 -295 308 -368 77 -37.7 154 -57 238 -60 126 -4.7 245 28.5 350 98 100 66 178 162 223 273 c 46 115 55 242 25 362 -19 77 -52 148 -99 211 -72.9 99 -174 171 -291 210 -41 13 -83 22 -129 27 -14.3 1 -76 3 -87 2 z m 78 -115 c 92 -10 176 -43 246 -98 l 10.4 -8.1 l -121 -121 c -66.9 -67 -122 -121 -123 -121 c -0.9 0 -1.4 -0.4 -1.1 -0.8 0.7 -1.1 -121 -122 -122 -122 -0.4 0.4 -0.7 -0.3 -0.7 -1.7 0 -1.7 -4.1 -6.5 -15.7 -18 -8.7 -8.7 -16.2 -15.8 -16.8 -15.8 -0.5 0 -28.9 -27.9 -63 -62 -41 -41 -62 -61 -62.7 -60.7 -0.5 0.7 -0.8 0.2 -0.8 -1.4 0 -1.9 -2.4 -4.9 -9.4 -11.7 l -9.3 -9.2 l -1.9 -1.1 l -15.7 -15.7 c -8.6 -8.6 -15.7 -16.2 -15.7 -16.7 0 -0.6 -21 -22 -47 -48 -40.9 -40.8 -47 -46.7 -48 -45 -45.6 57 -76 119 -93 187 -24.7 100 -16.5 206 23 300 45 107 127 194 231 245 55.7 28 116 44 179 48 17 1 60 1 78 -1 z m 331 -182 c 90 -115 122 -266 87 -409 -37 -149 -145 -273 -287 -330 -47 -18.7 -91 -28.6 -142 -32.8 c -19 -1.5 -68 -0.6 -87 1.5 -79 9.3 -149 34.8 -213 78 -15.8 10.5 -37.8 26.9 -37.9 28 0 0.3 56 56.7 125 125 l 125 126 l 12.4 12.4 l 12.5 12.5 h 1.1 l 14.9 15.3 c 40 40.7 112 113 139 139 l 29.8 29 l -0.1 1.3 l 12.5 12.4 l 12.4 12.4 c 120 118 -28.8 -30 94 94 51 52 93 94 94 94 0.4 0 3.7 -3.8 7.3 -8.4 z" fill="#c00"/></svg>