<?xml version="1.0" encoding="UTF-8" standalone="no"?>
<svg
     xmlns:svg="http://www.w3.org/2000/svg"
     xmlns="http://www.w3.org/2000/svg"
     version="1.1"
     viewBox ="0 0 1183.4 1183.1"
     width="575px"
     height="575px"
     id="svg2">
    <defs
         id="defs4" />
    <g
         transform="translate(180.3,70.67)"
         id="layer1" style="fill-opacity:1;">
        <path
             d="M 372.43,1111.8 C 268.3,1104.9 164.18,1069.1 79.429,1011.2 -20.161,943.01 -94.646,850.11 -138.84,738.93 -185.06,622.66 -192.87,493.65 -161.1,371.43 -125.95,236.25 -42.908,117 72.429,36.113 177.82,-37.802 307.69,-75.828 435.18,-70.106 513.12,-66.608 581.64,-50.613 652.17,-19.45 743.09,20.722 822.12,83.614 883.88,164.93 966.22,273.36 1008.9,410.51 1002.6,546.66 998.61,631.9 978.86,708.41 940.91,785.43 912.93,842.25 871.48,899.38 826.27,943.47 723.27,1043.9 591.43,1102.6 447.95,1111.9 429.68,1113.1 390.87,1113 372.43,1111.8 z"
             id="path3844"
             style="fill:#CC0000;" />
        <path
             d="M 384.43,560.43 213.18,389.18 C 118.99,295 41.705,217.94 41.43,217.95 41.154,217.97 37.143,222.91 32.516,228.94 -19.967,297.34 -53.216,378.36 -63.508,462.93 -68.077,500.48 -67.886,546.21 -63.003,583.72 -56.223,635.8 -40.236,687.68 -16.161,735.75 30.839,829.6 107.87,905.76 201.93,951.39 260.98,980.04 316.98,994.44 388.43,999.34 399.4,1000.1 444.26,998.89 457.93,997.48 537.52,989.24 608.27,964.26 673.93,921.21 685.47,913.64 703.91,900.23 711.7,893.74 L 714.48,891.43 601,777.98 C 501.52,678.52 487.72,665.08 489.13,668.98"
             id="path3842"
             style="fill:#FFFFFF;" />
        <path
             d="M 489.13,668.98 C 491.74,676.18 491.27,686.31 488,693.6 486.48,696.97 483.94,700.99 482.34,702.52 480.74,704.05 479.43,706.27 479.43,707.44 479.43,711.5 476.31,718.71 472.76,722.86 469.27,726.93 461.07,731.93 457.88,731.93 456.99,731.93 456.44,732.27 456.65,732.68 460.58,740.32 460.93,741.8 460.96,750.96 460.99,758.27 461.39,761.04 462.7,762.91 467.99,770.46 468.88,785.26 464.56,793.69 462.5,797.71 462.47,798.12 463.99,801.05 468.64,810.05 466.33,822.6 458.42,831.25 454.43,835.62 453.43,837.41 453.43,840.2 453.43,851.39 442.97,864.6 431.34,868.08 L 427.66,869.18 427.23,877.81 C 426.96,883.21 426.16,887.63 425.11,889.64 423.48,892.73 423.5,893.02 425.67,897.14 429.08,903.63 429.36,915.89 426.24,921.81 424.02,926.01 423.25,926.49 405.93,934.54 396.03,939.15 387.12,942.92 386.12,942.92 381.57,942.95 378.05,926.41 380.75,917.7 382.11,913.33 382.08,912.67 380.37,909.32 379.35,907.31 378.23,903.82 377.89,901.55 L 377.28,897.43 366.6,897.43 C 356.68,897.43 355.45,897.21 349.21,894.25 343.37,891.48 341.78,891.15 336.99,891.64 326.22,892.75 316.84,887.62 311.93,877.94 310.34,874.8 308.69,872.96 307.09,872.56 303.24,871.6 294.83,863.38 292.9,858.69 291.92,856.3 291.1,851.58 291.04,847.93 290.96,842.97 290.37,840.53 288.56,837.62 283.36,829.27 283.86,819.31 289.82,812.31 292.42,809.26 293.24,807.24 293.69,802.81 294,799.72 295.17,795.4 296.28,793.22 298.63,788.63 304.38,783.23 307.87,782.36 309.53,781.94 311.11,780.07 312.91,776.38 316.31,769.43 323.23,763.34 329.95,761.38 L 335.15,759.87 333.81,754.15 C 333.07,751.01 332.45,746.85 332.44,744.92 332.44,742.88 331.43,739.92 330.04,737.89 322.94,727.44 322.75,712.37 329.58,702.73 331.31,700.29 331.39,699.43 330.34,693.73 327.68,679.29 335.07,665.47 348.4,659.95 350.38,659.12 351.65,657.76 352.01,656.06 353.46,649.22 355.84,644.74 359.95,641.13 363.99,637.57 369.88,634.93 373.79,634.93 374.91,634.93 375.43,634.06 375.43,632.16 375.43,630.63 376.1,628.42 376.92,627.25 378.28,625.3 378.19,624.73 375.93,620.77 374.09,617.54 373.45,614.96 373.44,610.65 373.43,603.52 375.37,598.67 379.98,594.32 L 383.52,590.98 381.98,586.42 C 379.85,580.17 380.03,572 382.43,565.69 L 384.43,560.43"
             id="path3840"
             style="fill:#000000;" />
        <path
             d="M 360.42,853.25 C 365.02,853.79 365.29,853.69 366.45,850.87 367.5,848.35 367.37,847.22 365.55,843 364.26,840 363.43,835.95 363.43,832.69 363.43,828.03 363.03,826.93 360.47,824.47 354.55,818.8 351.86,809.06 353.82,800.36 354.41,797.73 354.16,797.13 352.05,796.17 349.87,795.18 349.17,795.44 345.94,798.49 343.93,800.38 341.2,802.2 339.86,802.54 337.73,803.08 337.43,803.72 337.41,807.79 337.38,812.72 334.81,819.56 332.14,821.76 330.68,822.97 330.73,823.45 332.68,827.2 333.86,829.46 335.01,833.88 335.24,837.02 335.62,842.31 335.85,842.77 338.4,843.28 342.01,844 346.86,848.15 348.39,851.83 349.52,854.56 349.81,854.7 352.6,853.72 354.26,853.15 357.77,852.93 360.42,853.25 z"
             id="path3838"
             style="fill:#FFFFFF;" />
        <path
             d="M 438.45,478.75 C 439.79,482.34 468.71,511.71 610.49,653.5 704.23,747.24 781.24,823.93 781.63,823.93 782.02,823.93 787.5,817.06 793.81,808.65 828.51,762.43 853.44,712.99 870.31,656.93 879.48,626.47 885.41,594.39 888.43,558.93 889.8,542.9 889.81,499.11 888.45,482.93 881.76,403.51 857.3,331.06 814.04,262.61 784.86,216.44 741.95,170.6 695.77,136.25 638.89,93.953 567.67,63.082 497.93,50.498 464.02,44.38 439.14,42.503 401.43,43.219 372.06,43.777 357.61,45.064 331.11,49.487 275.44,58.777 218.39,79.478 169.91,107.98 150.8,119.21 119.54,140.91 111.15,148.76 L 108.37,151.37 248.15,291.16 387.93,430.95"
             id="path3834"
             style="fill:#FFFFFF;" />
        <path
             d="M 387.93,430.95 389.6,427.04 C 391.11,423.5 391.12,422.72 389.76,418.78 387.03,410.92 386.98,405.11 389.57,397.43 L 391.93,390.43 389.68,385.97 C 386.78,380.22 386.63,370.3 389.34,364.32 391.17,360.3 391.17,360.07 389.35,354.82 387.01,348.03 386.99,340.9 389.29,334.23 390.9,329.58 390.94,328.68 389.64,325.73 387.65,321.2 387.75,309.43 389.82,304.39 391.33,300.71 391.34,299.95 389.96,296.01 388,290.46 388,280.4 389.96,274.86 391.33,270.97 391.33,270.13 389.96,266.71 388.04,261.92 387.99,252.93 389.85,248.47 391.08,245.53 391.08,244.42 389.85,240.34 388.08,234.44 388.02,224.93 389.73,218.35 390.79,214.25 390.8,212.42 389.75,208.38 388.07,201.88 388.09,192.38 389.8,186.68 390.97,182.8 390.97,181.31 389.8,176.8 388.06,170.07 388.05,161.83 389.78,155.15 390.93,150.72 390.92,149.14 389.71,144.68 388.02,138.44 388.51,124.63 390.57,120.32 391.63,118.09 396.86,114.63 413.44,105.18 434.84,92.978 434.94,92.934 436.65,95.01 440.75,99.957 441.66,112.67 438.52,120.94 436.72,125.67 436.7,126.17 438.25,129.21 440.78,134.18 441.03,146.34 438.73,152.43 436.92,157.23 436.91,157.62 438.58,161.93 441.02,168.25 440.94,179.2 438.42,184.76 436.54,188.91 436.53,189.22 438.19,192.26 440.68,196.8 440.65,213.11 438.15,217.68 436.48,220.75 436.47,221.11 438.07,224.18 440.71,229.24 441.05,241.33 438.74,247.43 436.92,252.23 436.91,252.61 438.58,256.93 440.87,262.86 440.87,274.01 438.58,279.93 436.91,284.25 436.92,284.64 438.74,289.43 441.05,295.54 440.71,307.63 438.07,312.68 436.47,315.75 436.48,316.11 438.15,319.18 440.65,323.75 440.68,340.07 438.19,344.61 436.53,347.65 436.54,347.96 438.42,352.11 440.98,357.75 441.08,368.18 438.63,374.67 436.92,379.21 436.92,379.64 438.58,383.93 440.94,390.03 440.94,400.58 438.58,406.78 436.86,411.3 436.84,411.87 438.33,414.54 440.68,418.79 440.56,435.27 438.15,439.68 436.48,442.75 436.47,443.11 438.07,446.18 440.71,451.24 441.05,463.33 438.74,469.43 436.96,474.13 436.94,474.7 438.45,478.75"
             id="path3836"
             style="fill:#000000;" />
        <path
             d="M 415.1,813.72 C 415.98,813.04 415.8,811.76 414.37,808.62 411.67,802.68 411.86,794.7 414.85,788.28 L 417.24,783.13 414.3,780.31 C 412.59,778.68 410.72,775.31 409.85,772.31 408.49,767.64 408.54,765.41 410.09,759.68 410.42,758.47 409.99,757.93 408.7,757.93 407.48,757.93 406.4,759.13 405.59,761.37 404.08,765.55 398.3,770.81 394.36,771.6 L 391.46,772.18 394.1,775.31 C 399.64,781.88 401.89,790.97 399.51,797.23 398.69,799.39 399.06,800 402.87,802.68 405.64,804.63 408.02,807.48 409.55,810.69 411.82,815.45 412.42,815.78 415.1,813.72 z"
             id="path3832"
             style="fill:#FFFFFF;" />
        <path
             d="M 391.97,722.93 395.18,722.93 393.84,716.68 C 393.1,713.25 392.46,706.16 392.42,700.93 392.35,691.71 392.25,691.33 389.13,687.8 L 385.92,684.17 381.21,688.43 C 376.72,692.5 376.54,692.85 377.46,696.06 378.94,701.21 378.62,706.42 376.44,712.91 L 374.44,718.83 377.13,723.15 379.82,727.46 384.29,725.2 C 386.75,723.95 390.21,722.93 391.97,722.93 z"
             id="path3830"
             style="fill:#FFFFFF;" />
        <path
             d="M 444.42,671.79 C 444.43,671.44 443.19,670.86 441.68,670.49 440.17,670.13 438.14,669.6 437.18,669.32 435.74,668.89 435.43,669.44 435.43,672.43 435.43,674.43 434.96,676.94 434.39,678 433.56,679.56 433.89,680.62 436.09,683.37 L 438.82,686.8 441.62,679.62 C 443.16,675.67 444.42,672.14 444.42,671.79 z"
             id="path3828"
             style="fill:#FFFFFF;" />
        <path
             d="M 435.72,616.93 439.84,616.93 435.43,612.43 C 430.64,607.56 430.18,607.7 428.99,614.32 428.38,617.67 428.51,618.12 429.94,617.57 430.85,617.22 433.45,616.93 435.72,616.93 z"
             id="path2996"
             style="fill:#000000;" />
    </g>
</svg>
