<?xml version="1.0" encoding="UTF-8" standalone="no"?>
<svg
     xmlns:svg="http://www.w3.org/2000/svg"
     xmlns="http://www.w3.org/2000/svg"
     version="1.1"
     viewBox="-268 -122 1220 1220"
     width="575px"
     height="575px"
     id="svg2">
    <defs
         id="defs4" />
    <g>
	    <circle cx="342" cy="483" r="600" style="fill:#FFFFFF; stroke : #000000; stroke-width:4;" />
        <path
             d="M 556.07,764.22 549.96,763.86 544.21,763.86 544.21,807.14 544.21,850.42 534.21,855.71 524.21,861.01 524.21,812.44 524.21,763.86 455.21,763.86 386.21,763.86 386.21,831.8 386.21,899.74 381.96,900.25 C 379.63,900.54 375.13,901.02 371.96,901.32 L 366.21,901.88 366.21,832.87 366.21,763.86 350.21,763.86 C 341.41,763.86 334.21,763.5 334.21,763.07 334.21,762.63 331.96,748 329.21,730.56 326.46,713.12 324.21,698.63 324.21,698.35 324.21,698.08 333.66,697.86 345.21,697.86 L 366.21,697.86 366.21,692.36 366.21,686.86 376.21,686.86 386.21,686.86 386.21,692.36 386.21,697.86 437.95,697.86 489.68,697.86 M 465.75,673.86 450.48,673.86 435.21,673.86 435.21,676.39 C 435.21,680.02 432.55,685.9 429.41,689.2 425.28,693.56 419.97,695.86 414.07,695.86 403.7,695.86 395.24,689.1 393.17,679.17 L 392.07,673.85 300.89,674.11 209.72,674.36 202.22,688.53 C 198.09,696.32 193.72,704.05 192.5,705.69 190.74,708.07 186.5,710.69 178.56,714.29 178.47,714.33 180.11,725.16 182.19,738.36 184.27,751.56 185.77,762.7 185.53,763.11 185.29,763.52 172.97,763.86 158.16,763.86 L 131.21,763.86 131.21,804.36 C 131.21,826.64 130.88,844.84 130.46,844.81 130.05,844.78 125.66,842.19 120.71,839.04 L 111.71,833.32 111.45,798.59 111.19,763.86 100.22,763.86 89.247,763.86 88.981,790.48 88.714,817.1 78.965,809.23 69.215,801.36 69.215,782.61 69.214,763.86 50.265,763.86 31.316,763.86 28.2,760.61 C 22.631,754.8 6.6942,734.61 -0.38072,724.39 -8.8649,712.14 -16.786,699.71 -16.786,698.65 -16.786,698.22 2.5643,697.86 26.214,697.86 L 69.214,697.86 69.214,685.86 69.214,673.86 19.223,673.86 -30.767,673.86 -35.777,663.88 C -38.532,658.39 -40.786,653.67 -40.786,653.38 -40.786,653.1 -16.033,652.86 14.219,652.86 L 69.225,652.86 68.969,464.37 68.714,275.87 78.975,286.13 89.236,296.4 89.22,474.63 89.204,652.86 100.21,652.86 111.21,652.86 111.21,485.62 111.21,318.37 121.23,328.39 131.24,338.4 131.22,495.65 131.2,652.91 150.42,652.63 169.64,652.36 187.45,618.86 C 197.26,600.44 206.35,582.66 207.66,579.36 208.98,576.01 215.41,547.06 222.19,513.86 232.09,465.37 234.28,453.11 234.02,447.62 L 233.71,440.87 254.41,461.55 C 265.79,472.93 274.95,481.05 274.76,481.36 274.57,481.67 270.31,504.74 265.29,530.86 260.28,556.99 255.27,581.96 254.16,586.36 251.84,595.59 250.56,598.29 233.88,629.36 L 221.53,652.36 304.53,652.62 C 350.18,652.76 387.72,652.69 387.95,652.46 388.18,652.23 385.23,636.43 381.41,617.35 L 374.46,582.64 M 111.21,685.86 111.21,673.86 100.21,673.86 89.214,673.86 89.214,685.86 89.214,697.86 100.21,697.86 111.21,697.86 z M 152.39,691.61 C 152.11,686.21 152.48,684.55 155.09,679.61 L 158.11,673.86 144.66,673.86 131.21,673.86 131.21,685.86 131.21,697.86 141.96,697.86 152.71,697.87 152.39,691.61 z M 428.43,636.94 C 428.07,637.3 429.74,647.2 430.85,651.11 431.26,652.55 438.87,652.49 444.35,652.49 M 524.21,598.36 524.21,378.61 524.21,158.86 327.68,158.86 131.15,158.86 131.43,182.85 131.71,206.83 121.46,196.61 111.21,186.4 111.21,172.63 111.21,158.86 100.21,158.86 89.214,158.86 89.214,161.57 C 89.214,164.26 89.19,164.26 84.743,159.89 L 80.271,155.5 91.493,147.19 C 101.41,139.85 103.21,138.88 106.96,138.87 110.95,138.86 111.21,138.69 111.21,136.06 111.21,133.85 112.11,132.69 115.46,130.58 117.8,129.11 122.19,126.35 125.21,124.44 L 130.71,120.97 131.21,129.67 131.71,138.36 327.96,138.61 524.21,138.87 524.21,122.36 C 524.21,113.29 524.55,105.87 524.96,105.88 525.38,105.88 529.76,108.07 534.71,110.73 L 543.71,115.57 544,127.22 544.28,138.86 563,138.87 581.71,138.88 594.71,148.62 607.71,158.36 575.96,158.63 544.21,158.89 544.21,388.64 544.21,618.38 C 555.72,629.88 567.23,641.37 578.74,652.86 L 630.47,652.86 682.21,652.86 682.46,445.72 682.71,238.58 689.81,248.97 C 693.72,254.69 698.1,261.43 699.56,263.95 L 702.21,268.54 702.21,460.7 702.21,652.86 713.71,652.86 C 720.04,652.86 725.21,653.1 725.21,653.38 725.21,653.67 722.96,658.39 720.21,663.88 L 715.2,673.86 708.71,673.86 702.21,673.86 702.21,685.9 702.21,697.93 696.07,707.65 C 689.57,717.91 680.36,731.08 673.92,739.3 L 670.06,744.24 M 214.98,290.12 219.35,287.15 C 227.15,281.84 226.96,281.86 279.61,281.88 335.62,281.91 333.52,281.62 340.82,290.47 343.04,293.16 356.06,310.18 369.77,328.28 387.73,352.01 395.82,361.93 398.78,363.8 401.04,365.23 420.84,374.5 442.78,384.38 486.37,404.03 488.73,405.48 491.14,414.09 494.74,426.95 484.99,440.19 471.97,440.12 467.31,440.1 461.51,437.75 420.71,419.38 392.3,406.58 373.14,397.38 370.6,395.31 368.34,393.47 357.32,379.85 346.1,365.06 L 325.71,338.16 325.45,368.75 325.18,399.33 M 682.21,685.86 682.21,673.86 640.98,673.86 599.75,673.86 C 607.72,681.86 615.7,689.86 623.68,697.86 L 652.95,697.86 682.21,697.86 z M 158.71,493 C 153.56,490.66 148.59,484.99 147.21,479.86 146.48,477.14 146.23,458.89 146.43,423.6 L 146.73,371.36 149.18,365.08 151.63,358.8 169.42,376.57 187.21,394.34 187.21,434.92 C 187.21,480.16 186.9,482.87 180.99,488.59 174.59,494.79 166.27,496.43 158.71,493 z M 272.99,270.83 C 260.77,268.77 248.59,259.49 242.93,247.94 239.93,241.8 239.71,240.66 239.71,230.86 239.71,221.55 240.02,219.71 242.41,214.61 243.89,211.45 247.45,206.38 250.32,203.34 273.6,178.73 314.53,191.75 319.28,225.29 320.35,232.9 318.74,242.95 315.39,249.5 310.17,259.72 299.29,267.89 287.64,270.36 280.03,271.97 279.8,271.98 272.99,270.83 z"
             style="fill:#000000" />
        <path
             d="M 311.56,1074 C 309.08,1073.8 300.76,1073.1 293.06,1072.5 228.16,1067.6 158.5,1049.3 95.555,1020.6 17.106,984.89 -56.132,928.93 -111.55,862.39 -195.29,761.82 -242.56,639.61 -248.55,508.21 -254.98,367.27 -209.6,226.86 -121.81,116.06 -40.165,13.002 72.308,-59.63 199.56,-91.474 238.95,-101.33 277.8,-106.81 319.31,-108.35 343.13,-109.23 381.03,-108.33 399.06,-106.44 498.76,-95.998 587.06,-64.692 669.01,-10.717 785.74,66.161 872.08,183.62 911.04,318.56 952.75,463 937.97,617.42 869.55,752.06 822.3,845.04 748.52,926.29 660.97,981.75 580.96,1032.4 494.02,1062.4 398.38,1072.1 384.04,1073.6 322.61,1074.9 311.56,1074 z M 389.06,959.12 C 480.74,949.6 565.45,915.94 635.37,861.26 L 645.68,853.19 600.87,808.37 556.06,763.56 553.92,762.43 521.99,730.5 490.07,698.56 490.01,697.54 478.05,685.55 466.09,673.56 463.6,672.06 454.33,662.85 445.06,653.64 445.01,652.56 437.09,644.59 C 432.73,640.2 429.03,636.75 428.88,636.9 428.72,637.06 417.01,625.56 402.84,611.36 382.21,590.67 376.95,585.89 376.39,587.3 375.88,588.6 375.68,588.3 375.63,586.16 375.54,582.76 373.1,580.16 315.09,521.81 293.62,500.22 275.6,482.56 275.03,482.56 274.47,482.56 265.01,473.33 254.03,462.06 243.04,450.78 223.71,430.97 211.06,418.03 L 188.06,394.5 186.56,395.04 169.06,377.56 C 159.43,367.94 151.56,359.63 151.56,359.09 151.56,357.78 133.39,339.56 132.09,339.56 131.54,339.56 126.92,335.4 121.82,330.33 L 112.56,321.1 111.56,318.09 101.32,307.82 C 95.696,302.18 90.609,297.56 90.02,297.56 89.431,297.56 84.473,292.82 79.002,287.02 65.424,272.64 -26.79,179.55 -27.431,179.58 -27.713,179.59 -31.73,184.53 -36.357,190.56 -116.47,294.97 -150.26,426.34 -130.35,556.01 -109.98,688.67 -33.312,808.25 78.555,881.83 148.78,928.03 226.99,954.49 311.06,960.49 328.14,961.72 371.41,960.95 389.06,959.12 z M 719.81,777.19 C 802.78,671.28 836.91,534.73 813.95,400.56 791.98,272.16 714.87,154.52 605.97,83.252 536.55,37.821 461.06,12.164 377.16,5.4827 358.15,3.969 308.99,4.8188 290.56,6.9796 211.8,16.213 141.69,41.733 77.432,84.558 62.615,94.432 39.624,111.44 39.577,112.57 39.565,112.85 48.985,122.5 60.51,134.01 L 81.465,154.95 96.796,170.07 111.06,184.9 112.56,185.42 164.19,237.51 C 203.23,276.89 216.12,289.33 217.08,288.54 218.01,287.76 218.31,287.9 218.2,289.06 218.12,289.92 299.09,371.9 398.48,471.59 L 578.9,652.56 581.11,653.58 590.56,663.07 600.02,672.56 600.11,673.58 612.07,685.57 624.02,697.56 626.49,699.06 648.83,721.31 C 661.11,733.55 670.91,743.56 670.62,743.56 670.32,743.56 679.52,753.01 691.06,764.56 702.6,776.11 712.31,785.56 712.65,785.56 712.98,785.56 716.2,781.79 719.81,777.19 z M 672.56,740.06 C 673.83,738.37 674.91,738.41 673.56,740.06 672.87,740.88 672.09,741.56 671.81,741.56 671.54,741.56 671.87,740.88 672.56,740.06 z"
             style="fill:#CC0000;fill-opacity:1" />
    </g>
</svg>
