<svg id="svg2" xmlns:rdf="http://www.w3.org/1999/02/22-rdf-syntax-ns#" xmlns="http://www.w3.org/2000/svg" class="nicermediapages-SVG" height="575px" width="575px" version="1.0" xmlns:cc="http://creativecommons.org/ns#" xmlns:dc="http://purl.org/dc/elements/1.1/">
 <path id="path6" d="m574.07 287.5c0 158.27-128.3 286.57-286.57 286.57s-286.57-128.3-286.57-286.57 128.3-286.57 286.57-286.57 286.57 128.3 286.57 286.57z" stroke="#000000" stroke-linecap="square" fill="#ffffff"/>
 <path id="path30" fill="#a3a4a8" d="m281.7 318.7a59.4 59.4 0 0 0 -59.398 59.4 59.4 59.4 0 0 0 59.398 59.4 59.4 59.4 0 0 0 59.4 -59.4 59.4 59.4 0 0 0 -59.4 -59.4zm0 32.701a26.7 26.7 0 0 1 26.701 26.699 26.7 26.7 0 0 1 -26.701 26.701 26.7 26.7 0 0 1 -26.7 -26.7 26.7 26.7 0 0 1 26.7 -26.7z"/>
 <path id="path24" fill="#000000" d="m126.85 438.73c46.565 0.19826 93.143 0.21692 139.7 0.44759-22.849-6.3478-40.894-23.337-46.992-42.876-3.446-15.706-2.2814-32.907 3.8062-46.08 2.2717-4.5151 1.6849-1.4201 8.0704-42.566l6.0927-37.073c0.66642 0 7.2302 6.9784 7.2367 7.6938l-8.2324 54.431c6.0914-5.164 11.754-8.5964 17.931-11.826l0.36346-32.845 9.5173 8.6795-1.126 20.997c6.5068-1.3464 13.394-2.0227 19.02-2.0601l8.5709 8.8423c-30.94-2.3878-50.179 10.791-61.027 36.584-4.6741 26.616-1.574 48.446 29.77 66.096 24.017 8.7609 55.117 1.0727 67.119-21.132 6.8818-12.836 8.1328-24.335 7.8041-37.811l10.953 10.947c-0.73888 20.433-13.379 39.858-28.195 50.094-6.863 4.7837-14.742 7.6453-22.002 9.7372l112.83 0.21955 19.28 19.869c-93.083-0.003-186.17-0.007-279.25-0.01zm129.27-45.891c-10.719-23.733 4.9078-44.062 24.753-43.902 17.603 0.55729 29.36 12.986 28.835 29.076 0.54189 12.568-7.6514 23.772-19.869 27.462-12.824 3.8964-26.607-0.99757-33.719-12.637zm31.652 2.6899c8.1729-3.0579 13.412-12.28 11.832-20.828-0.72654-3.9302-2.3052-6.9568-5.145-9.8659-12.979-13.295-33.989-3.4871-32.158 16.102 3.0184 13.609 15.689 18.364 25.471 14.592zm-62.383-137.92 7.6845 7.9186-35.055 90.589-15.02 14.78zm36.729-28.867-3.733-3.956 6.0349-0.13563 6.0349-0.13563 0.95351-26.013c1.1186-2.4643 4.3043-4.6695 7.8412-5.4281 39.498-0.82334 65.51-0.51454 109.45-0.51454-0.0207 2.778 0.0636 5.5966-0.12115 8.3523l-108.53 1.2424c-1.1707 11.08-0.78788 17.438-0.91186 30.628l-6.6436-0.0421-6.6436-0.042-3.733-3.956zm-15.818-15.995-4.5281-4.5479 0.22155-13.757c0.24783-15.389 0.45534-16.603 3.6959-21.616 5.9659-7.774 11.193-10.154 19.193-12.962l21.687-0.16492 21.687-0.16492v-21.737c-7.1885 0.00065-14.377 0.001-21.565 0.002l0.3111-8.725h51.232l0.31109 8.7253c-7.1885-0.00062-14.377-0.001-21.565-0.002v21.808h35.862 35.862v8.2097c-40.465 0.0904-80.931 0.18069-121.4 0.27103-6.1234 2.2856-12.435 6.5732-14.906 11.699-1.0458 2.2665-1.0955 3.0125-1.3288 19.932l-0.24231 17.578-4.5281-4.5479z"/>
 <path id="path12" d="m287.48 9.1495c-68.53 0-131.28 24.948-179.72 66.25-1.27 1.083-2.53 2.175-3.78 3.281-0.5 0.444-1 0.895-1.5 1.344-1.07 0.96-2.13 1.929-3.189 2.906-0.281 0.26-0.563 0.519-0.843 0.781-1.25 1.165-2.492 2.343-3.719 3.531-1.408 1.362-2.809 2.734-4.188 4.125-1.353 1.365-2.706 2.732-4.031 4.125-1.374 1.446-2.719 2.931-4.062 4.406-0.154 0.171-0.316 0.331-0.469 0.501-1.162 1.28-2.3 2.57-3.438 3.87-1.242 1.43-2.442 2.87-3.656 4.32-0.047 0.05-0.109 0.1-0.156 0.15-40.496 48.38-64.906 110.73-64.906 178.78 0 153.66 124.38 278.34 277.66 278.34 68.68 0 131.54-25.07 180.03-66.53l0.03 0.03c0.39-0.33 0.78-0.66 1.16-1 0.16-0.13 0.31-0.27 0.47-0.4 0.94-0.82 1.88-1.64 2.81-2.47 0.74-0.66 1.46-1.31 2.19-1.97 0.21-0.19 0.42-0.37 0.62-0.56 0.97-0.89 1.92-1.79 2.88-2.69 0.86-0.81 1.71-1.62 2.56-2.44 0.12-0.11 0.23-0.23 0.35-0.34 1.08-1.06 2.14-2.12 3.21-3.19 0.32-0.31 0.63-0.62 0.94-0.94 1.25-1.26 2.49-2.55 3.72-3.84 0.12-0.13 0.25-0.25 0.38-0.38 1.4-1.48 2.81-2.98 4.18-4.5 1.26-1.39 2.49-2.8 3.72-4.21 0.23-0.27 0.46-0.52 0.69-0.79 1.05-1.21 2.09-2.45 3.12-3.68 40.33-48.33 64.63-110.55 64.63-178.44 0.01-153.66-124.4-278.38-277.68-278.38zm0 62.062c119.11 0 215.78 96.908 215.78 216.31 0 50.85-17.51 97.62-46.84 134.56l-304.5-302.78c37.06-30.058 84.21-48.09 135.56-48.09zm-168.62 81.408 304.56 302.84c-37.12 30.24-84.42 48.37-135.94 48.37-119.11 0-215.75-96.91-215.75-216.31 0-51 17.636-97.91 47.13-134.91z" stroke="#cc0000" stroke-width="2" fill="#cc0000"/>
</svg>
