<?xml version="1.0" encoding="UTF-8" standalone="no"?>
<svg
     xmlns:svg="http://www.w3.org/2000/svg"
     xmlns="http://www.w3.org/2000/svg"
     version="1.0"
     width="575"
     height="575"
     id="nicermediapages-SVG">
    <defs
         id="defs20" />
    <path
         d="M 574.07,287.5 A 286.56,286.56 0 0 1 0.935,287.5 286.56,286.56 0 1 1 574.07,287.5 z"
         style="fill:#ffffff;stroke:#000000;stroke-width:1;stroke-linecap:square;stroke-miterlimit:4;" />
    <g transform="matrix(0.97649,0,0,0.97649,519.71,-219.59)"
         id="g3003"
         style="fill:#000000;fill-rule:evenodd;stroke-width:1;stroke-linecap:butt;stroke-linejoin:miter">
        <path
             d="M -386,130.72 C -386,130.72 -412.57,133 -433.69,151.69 -436.78,154.42 -463.53,183.59 -467.09,190 -471.24,198.46 -472.47,217.62 -472.47,217.62 -479.48,211.33 -483.59,197.59 -483.59,197.59 -483.59,197.59 -490.2,207.49 -493.41,216.75 -496.01,224.28 -502.23,246.94 -494.75,267.12 -490.55,281.31 -472.91,311.69 -472.91,311.69 -481.22,312.28 -499.66,301.44 -499.66,301.44 -499.66,301.44 -497.4,319.01 -496.09,323.28 -493.85,330.61 -482.33,342.16 -479.59,345.12 -472.14,353.22 -448.84,361.59 -448.84,361.59 -448.84,361.59 -452.84,361.71 -459.97,362.06 -467.1,362.41 -449.41,376.77 -439.91,377.84 -430.31,378.49 -411.84,383 -406.5,384.78 -404.4,385.48 -392.61,393.05 -397.12,403.5 -397.12,403.5 -385.88,398.12 -384.22,396.81 -379.68,393.25 -375.28,381.73 -373.97,379 -371.18,373.17 -374.84,353.59 -374.84,353.59 -374.84,353.59 -376.94,356.84 -380.62,362.06 -384.3,367.28 -376.86,349.36 -374.84,345.56 -372.1,340.4 -359.41,325.86 -356.56,320.16 -353.83,314.69 -349,284.94 -349,284.94 L -354.34,228.78 C -358.14,204.67 -370.52,183.31 -375.75,181.53 L -375.28,204.72 C -375.28,204.72 -392.09,192.06 -396.25,184.22 -400.41,176.38 -408.29,164.71 -402.47,153.91 -402.47,153.91 -396.93,137.84 -386,130.72 z M -451,253.09 C -446.49,262.36 -445.3,265.5 -442.69,267.34 -438.65,270.2 -429.88,272.09 -429.88,272.09 -435.34,266.87 -434.62,262.12 -434.62,262.12 -429.63,263.31 -417.57,269.84 -410.62,274.47 -402.78,279.7 -390.41,286.07 -390.41,296.09 V 316.53 C -387.08,313.68 -383.68,305.39 -383.06,302.75 -381.16,294.67 -383.78,290.76 -384,282.56 -374.97,285.65 -369.32,297.8 -368.56,299.91 -365.24,309.17 -367.51,326.4 -370.69,329.84 -373.54,332.93 -383.83,347.84 -385.66,353.59 -391.83,364.52 -389.23,375.22 -394.22,382.34 -394.22,382.34 -395.57,372.4 -408.25,364.53 -417.04,359.07 -442.24,350.68 -449.12,346.72 -464.81,337.69 -462.66,317.97 -462.66,317.97 -451.49,326.76 -445.23,326.61 -434.62,332.44 -430.11,320.32 -436.43,308.23 -444.34,301.56 -448.86,297.76 -455.13,286.41 -457.19,276.12 -458.38,270.18 -454.02,257.87 -451,253.09 z"
             transform="translate(116.56,249.97)"
             style="fill:#000000;stroke:#000000" />
        <path
             d="M -206.09,177.22 -347.28,339.47 C -354.82,349.8 -366.08,367.18 -368.78,379.25 -368.78,379.25 -372.37,398.48 -382.65,402.31 -388.38,402.82 -408.83,414.3 -414.94,421.63 -417.54,424.75 -426.92,441.25 -418.69,452 -407.88,461.94 -405.78,461.13 -400.37,462 -383.4,464.74 -375.69,456.27 -372.9,452.44 -364.21,440.48 -367.18,420.95 -364.56,415.38 -358.94,406.32 -359.01,409.13 -350.47,403.38 -338.62,396.6 -326.42,390.7 -319.62,384.59 -312.88,379.17 -308.24,371.53 -303,365.28 L -167.34,205.59 -172.96,177.5 C -184.36,177.17 -196.05,177.26 -206.09,177.22 z M -203.06,184.13 -184.15,184.16 -327.75,352.5 C -337.66,365.86 -345.91,373.19 -357.47,378.93 -355.96,366.04 -350.38,358.04 -343.25,347.37 z M -178.37,188.88 -175,205.6 -308.38,360.88 C -311.61,364.64 -314.34,369.13 -319.22,374.19 -321.11,376.15 -335.39,387.19 -344.53,387.31 -341.83,373.66 -329.77,363.12 -321.53,352.53 -321.51,352.5 -321.49,352.47 -321.47,352.44 z"
             transform="translate(116.56,249.97)"
             style="fill:#000000;stroke:#000000" />
    </g>
    <path
         d="M 287.49,9.1386 C 218.96,9.1386 156.21,34.087 107.77,75.389 106.49,76.472 105.24,77.564 103.98,78.67 103.48,79.114 102.98,79.566 102.48,80.014 101.41,80.974 100.35,81.943 99.296,82.92 99.015,83.18 98.733,83.439 98.453,83.701 97.203,84.866 95.961,86.044 94.734,87.232 93.326,88.594 91.925,89.966 90.546,91.357 89.193,92.722 87.84,94.089 86.515,95.482 85.141,96.928 83.796,98.414 82.453,99.888 82.299,100.06 82.137,100.22 81.984,100.39 80.822,101.67 79.684,102.96 78.546,104.26 77.304,105.69 76.104,107.13 74.89,108.58 74.843,108.63 74.781,108.68 74.734,108.73 34.241,157.11 9.8299,219.46 9.8299,287.51 9.8299,441.17 134.21,565.85 287.49,565.85 356.17,565.85 419.03,540.78 467.52,499.32 L 467.55,499.35 C 467.94,499.02 468.32,498.68 468.71,498.35 468.86,498.22 469.02,498.08 469.18,497.95 470.12,497.13 471.06,496.31 471.99,495.48 472.72,494.82 473.45,494.17 474.18,493.51 474.38,493.32 474.59,493.14 474.8,492.95 475.77,492.06 476.72,491.16 477.68,490.26 478.53,489.45 479.39,488.64 480.24,487.82 480.35,487.71 480.47,487.59 480.58,487.48 481.67,486.42 482.73,485.36 483.8,484.29 484.11,483.98 484.43,483.67 484.74,483.35 485.99,482.08 487.23,480.8 488.46,479.51 488.58,479.38 488.71,479.26 488.83,479.13 490.24,477.65 491.65,476.15 493.02,474.63 494.28,473.24 495.51,471.83 496.74,470.41 496.97,470.15 497.2,469.9 497.43,469.63 498.48,468.41 499.52,467.18 500.55,465.95 540.88,417.62 565.18,355.4 565.18,287.51 565.18,133.85 440.77,9.126 287.49,9.126 z M 287.49,71.201 C 406.6,71.201 503.26,168.11 503.26,287.51 503.26,338.36 485.75,385.13 456.42,422.07 L 151.92,119.29 C 188.98,89.229 236.13,71.197 287.48,71.197 z M 118.87,152.61 423.43,455.45 C 386.31,485.69 339,503.82 287.49,503.82 168.37,503.82 71.735,406.91 71.735,287.51 71.735,236.51 89.371,189.6 118.86,152.6 z"
         style="fill:#CC0000;stroke:#CC0000;stroke-width:2;" />
</svg>
