<?xml version="1.0" encoding="UTF-8" standalone="no"?>
<svg
     xmlns:svg="http://www.w3.org/2000/svg"
     xmlns="http://www.w3.org/2000/svg"
     version="1.1"
     viewBox="-265 -50 1210 1210"
     width="575px" height="575px"
     id="svg2">
    <defs
         id="defs4" />
    <g>
	    <circle cx="340" cy="555" r="600" style="fill:#FFFFFF; stroke : #000000; stroke-width:4;" />
        <path d="M 561.95,842.68 C 562.23,843.23 565.16,855.39 568.87,868.86 572.59,882.34 575.84,893.92 576.1,894.61 576.47,895.59 571.08,895.86 551.21,895.86 L 525.85,895.86 516.57,862.61 C 511.47,844.32 506.83,827.67 506.28,825.61 L 505.26,821.86 340.36,821.86 175.45,821.86 174.43,825.61 C 173.87,827.67 169.24,844.32 164.14,862.61 L 154.87,895.86 129.65,895.86 C 109.88,895.86 104.52,895.59 104.89,894.61 105.95,891.77 124.36,824.27 124.36,823.21 124.36,822.38 117.1,821.93 98.607,821.59 70.317,821.08 67.088,820.55 53.517,814.29 35.256,805.87 20.908,791.12 13.229,772.86 11.234,768.12 -38.643,570.5 -38.643,567.34 -38.643,567.08 -27.86,566.86 -14.681,566.86 L 9.2801,566.86 10.279,570.61 C 11.144,573.86 19.367,607.26 20.865,613.61 21.345,615.65 21.984,615.86 27.626,615.85 35.985,615.83 42.37,614 55.227,607.92 68.641,601.58 77.992,599.45 88.857,600.26 99.406,601.05 102.71,602.02 116.36,608.33 129.62,614.47 135.24,615.86 146.7,615.86 157.28,615.86 164.46,613.96 176.86,607.88 189.35,601.75 200.33,599.32 211.4,600.25 221.23,601.07 227.74,603.03 238.44,608.4 249.49,613.95 257.02,615.86 267.86,615.86 278.81,615.86 285.34,614.17 298.45,607.95 304.17,605.23 311.39,602.35 314.49,601.56 L 320.11,600.12 z M 372.72,652.87 C 372.17,652.88 365.36,650.64 359.86,647.89 347.4,641.67 340.44,639.86 328.86,639.86 317.51,639.86 310.69,641.6 297.29,647.91 275.13,658.35 260.58,658.35 238.43,647.91 225.02,641.6 218.21,639.86 206.86,639.86 195.5,639.86 188.61,641.64 175.88,647.84 154.03,658.48 137.17,658.32 115.11,647.24 104.37,641.84 96.465,639.89 85.357,639.89 74.156,639.89 66.337,641.85 55.222,647.43 50.19,649.96 42.875,652.85 38.966,653.85 32.984,655.39 31.892,656 32.077,657.67 32.5,661.49 55.431,752.1 56.811,755.41 58.535,759.53 65.437,767.13 70.053,769.98 78.074,774.94 68.286,774.72 287.85,774.8 L 493.85,774.86 z M 452.86,599.59 461.17,601.16 C 466.6,602.18 473.19,604.47 480.17,607.76 493.56,614.06 500.49,615.86 511.36,615.86 522.09,615.86 529.37,614.03 540.9,608.43 554.52,601.82 560.13,600.39 572.36,600.45 585,600.51 588.48,601.4 603.36,608.37 609.68,611.34 616.09,614.06 617.61,614.42 L 620.36,615.08 620.35,457.22 C 620.35,301.47 620.32,299.32 618.36,296.1 614.25,289.35 605.18,286.84 598.85,290.71 595.65,292.65 580.36,308.99 580.36,310.46 580.36,310.93 583.59,318.67 587.54,327.65 L 594.73,343.98 585.11,353.6 575.48,363.23 561.17,349.58 C 553.3,342.08 536.58,325.91 524.03,313.65 L 501.19,291.36 511.03,281.68 520.86,272 537.83,278.97 554.8,285.93 565.33,275.37 C 571.12,269.56 577.88,263.46 580.36,261.82 593.53,253.07 613.88,252.48 629.36,260.38 639.62,265.63 648.7,276.77 652.35,288.57 654.32,294.97 654.36,297.65 654.36,453.47 654.36,623.86 654.06,614.43 659.23,610.11 660.81,608.8 662.33,604.15 665.38,591.36 667.61,582.01 669.88,572.67 670.43,570.61 L 671.43,566.86 695.4,566.86 C 710.31,566.86 719.36,567.23 719.36,567.84 719.36,570.67 670.89,764.38 668.77,769.99 665.77,777.96 660.88,786.26 655.21,793.04 L 651.02,798.05 z M 620.13,761.6 C 621.3,760.36 623.13,757.32 624.2,754.85 626.36,749.84 649.84,655.01 649.1,654.27 648.84,654.01 645.33,654.31 641.3,654.94 628.29,656.96 619.2,655.2 602.36,647.4 589.02,641.22 583.49,639.86 571.7,639.86 560.76,639.86 553.31,641.82 540.86,647.95 530.89,652.87 520.45,655.81 512.86,655.84 L 508.86,655.86 617.43,763.86 C 617.75,763.86 618.97,762.84 620.13,761.6 z M 485.66,574.9 C 476.75,569.48 477.42,554.91 486.77,550.47 493.7,547.18 501.25,549.46 505.42,556.1 506.99,558.59 507.37,560.53 507.04,564.3 506.68,568.52 506.03,569.78 502.52,573.05 498.96,576.37 497.82,576.86 493.65,576.86 490.66,576.86 487.65,576.12 485.66,574.9 z M 440.66,530.97 C 436.02,528.05 433.97,524.36 433.97,518.92 433.97,510.85 439.98,504.86 448.06,504.87 460.45,504.88 466.46,520.64 457.4,529.33 453.38,533.17 445.42,533.95 440.66,530.97 z M 505.38,527.16 C 495.35,521.97 494.78,507.32 504.4,502.34 511.34,498.75 521.17,501.78 523.92,508.35 529.13,520.82 516.96,533.16 505.38,527.16 z M 464.95,488.81 C 458.93,483.52 457.87,475.29 462.47,469.44 470.95,458.66 487.81,464.75 487.6,478.51 487.48,486.47 481.65,491.85 473.14,491.86 469.31,491.86 467.78,491.29 464.95,488.81 z M 392.61,484.05 C 383.61,479.25 382.26,467.67 389.91,460.95 392.92,458.31 394.21,457.86 398.86,457.86 403.48,457.86 404.8,458.31 407.76,460.91 409.67,462.59 411.76,465.55 412.4,467.5 416.25,479.15 403.46,489.84 392.61,484.05 z M 524.75,480.78 C 521,479.69 516.54,475.43 515.71,472.15 515.38,470.82 515.34,467.71 515.62,465.23 517.16,451.55 535.95,448.91 541.56,461.59 545.04,469.47 542.07,477.16 534.35,480.25 529.87,482.04 529.21,482.08 524.75,480.78 z M 425.36,449.97 C 412.71,443.03 417.51,423.53 431.86,423.53 441.93,423.53 449.06,434.36 444.84,443.25 441.33,450.66 432.3,453.77 425.36,449.97 z M 493.36,451.21 C 490.16,449.93 486.28,445.28 485.26,441.51 483.24,434 488.36,425.7 495.88,424.29 509.64,421.71 518.4,438.29 508.49,448.19 506.04,450.64 504.52,451.24 500.18,451.5 497.25,451.67 494.18,451.54 493.36,451.21 z M 537.66,436.96 C 528.75,431.37 529.33,416.95 538.64,412.53 553.61,405.43 566.32,423.9 554.36,435.36 550.38,439.18 542.4,439.94 537.66,436.96 z M 342.66,435.91 C 338.19,433.18 336.02,429.43 336.02,424.41 336.02,418.27 338.97,413.8 344.53,411.49 359.78,405.17 371.24,423.86 358.81,434.77 355.94,437.29 354.42,437.86 350.57,437.86 347.66,437.86 344.63,437.11 342.66,435.91 z M 459.86,417.77 C 453.47,415.79 450.36,411.34 450.36,404.17 450.36,399.74 450.83,398.39 453.45,395.41 465.14,382.1 485.38,397.69 475.66,412.52 472.74,416.97 465.28,419.45 459.86,417.77 z M 513.66,413.9 C 505.59,408.99 505.22,397.05 512.94,390.98 521.43,384.3 534.07,389.81 535.11,400.65 535.97,409.6 530.32,415.85 521.36,415.85 518.65,415.85 515.58,415.08 513.66,413.9 z M 382.66,408.9 C 378.52,406.38 376.36,402.1 376.36,396.45 376.36,392.84 376.97,391.23 379.41,388.46 388.9,377.65 405.66,384.64 404.07,398.74 403.65,402.44 402.79,404 399.49,407.07 395.97,410.37 394.81,410.86 390.65,410.86 387.66,410.86 384.65,410.12 382.66,408.9 z M 556,397.83 C 544.91,394.51 542.99,378.73 552.89,372.25 554.34,371.3 557.43,370.53 559.81,370.53 568.54,370.53 574.88,377.25 574.04,385.6 573.46,391.25 571.07,394.64 566.03,396.92 561.46,399 560.25,399.11 556,397.83 z M 295.95,390.81 C 289.25,384.92 288.81,376.48 294.89,370.4 300.7,364.58 308.97,364.72 314.71,370.71 323.69,380.08 317.29,393.86 303.96,393.86 300.33,393.86 298.73,393.25 295.95,390.81 z M 486.1,386.64 C 481.16,383.78 477.97,377.43 478.92,372.36 481.59,358.16 501.91,356.88 506.44,370.62 508.56,377.05 505.35,384.22 498.98,387.24 494.37,389.42 490.6,389.25 486.1,386.64 z M 423.86,383.5 C 419.05,381.28 416.18,377.46 415.63,372.57 414.63,363.72 420.56,356.87 429.24,356.87 446.88,356.85 448.19,382.51 430.65,384.47 428.56,384.7 425.51,384.26 423.86,383.5 z M 346.38,373.11 C 339.26,369.53 336.54,361.5 339.99,354.23 341.91,350.17 344.49,348.18 349.62,346.8 352.71,345.96 354.18,346.13 357.84,347.75 364.03,350.49 366.58,354.79 366.08,361.62 365.64,367.54 363.05,371.19 357.64,373.49 353.37,375.31 350.57,375.22 346.38,373.11 z M 526.66,370.9 C 517.75,365.48 518.42,350.91 527.77,346.47 543.03,339.23 555.49,358.64 542.76,369.81 539.94,372.29 538.41,372.86 534.57,372.86 531.66,372.86 528.63,372.11 526.66,370.9 z M 456.86,358.87 C 448.07,353.09 448.45,340.54 457.6,334.8 460.09,333.23 462.02,332.85 465.79,333.18 470.02,333.54 471.27,334.19 474.54,337.69 477.86,341.26 478.36,342.4 478.35,346.57 478.35,352.28 475.74,357.1 471.45,359.31 467.27,361.48 460.5,361.27 456.86,358.87 z M 394.82,354.81 C 393.15,354.32 390.45,352.52 388.82,350.82 386.17,348.06 385.86,347.06 385.86,341.36 385.86,335.67 386.17,334.67 388.81,331.91 395.76,324.66 407.56,326.46 411.82,335.41 414.81,341.73 412.23,350.35 406.46,353.29 402.62,355.25 398.26,355.82 394.82,354.81 z M 499.78,344.98 C 492.4,340.48 491.33,329.42 497.65,323.1 506.92,313.84 522.18,321.14 521.04,334.3 520.68,338.52 520.03,339.78 516.52,343.05 512.96,346.37 511.82,346.86 507.65,346.86 504.73,346.86 501.65,346.12 499.78,344.98 z M 434.78,336.95 C 431.54,335.55 427.68,330.37 426.94,326.43 426.46,323.87 426.83,321.57 428.27,318.32 429.91,314.63 431.15,313.4 434.96,311.71 449.95,305.08 462.2,323.01 450.4,334.32 448.02,336.6 446.32,337.26 442.13,337.52 439.23,337.7 435.92,337.44 434.78,336.95 z M 474.82,319.86 C 469.82,317.39 467.36,313.37 467.36,307.71 467.37,292.46 488.5,288.2 493.91,302.36 496.81,309.94 493.8,317.53 486.72,320.48 482.24,322.36 479.58,322.22 474.82,319.86 z"
             style="fill:#000000" />
        <path d="M 302.12,1145.6 C 197.99,1138.7 93.867,1102.9 9.1156,1044.9 -90.474,976.79 -164.96,883.89 -209.15,772.71 -267.54,625.83 -264.13,459.41 -199.77,314.9 -169.01,245.81 -126.57,184.77 -72.749,132.21 -11.422,72.315 56.515,29.4 138.12,-0.99146 241.87,-39.633 362.98,-47.322 472.12,-22.198 609.96,9.5365 727.8,85.773 813.57,198.71 853.9,251.83 887.52,317.41 906.61,380.21 947.48,514.71 940.52,655.7 886.67,784.21 840.26,894.94 759.97,990.29 659.55,1053.9 573.62,1108.3 479.09,1139.1 377.63,1145.7 359.37,1146.9 320.56,1146.8 302.12,1145.6 z M 387.62,1031.3 C 445.54,1025.3 498.14,1010.6 548.62,986.26 576.37,972.9 609.24,952.6 632.84,934.25 L 644.07,925.52 508.34,789.7 C 413.2,694.48 371.76,653.66 369.77,653.16 368.21,652.77 367.4,652.15 367.99,651.79 368.59,651.42 358.4,640.49 344.58,626.68 331.13,613.23 320.12,601.78 320.12,601.22 320.12,600.67 241.6,521.7 145.64,425.74 -6.0749,274.03 -29.002,251.47 -30.11,252.86 -92.412,330.98 -127.47,418.59 -135.9,517.21 -137.33,533.98 -137.33,576.52 -135.9,593.21 -130.49,656.3 -114.36,713.85 -86.471,769.54 -39.42,863.48 36.881,938.92 131.62,985.15 189.97,1013.6 246.69,1028.2 318.12,1033.1 329.09,1033.9 373.95,1032.7 387.62,1031.3 z M 723.5,842.43 C 758.2,796.21 783.12,746.77 799.99,690.71 809.16,660.25 815.1,628.17 818.12,592.71 819.48,576.68 819.49,532.89 818.13,516.71 811.45,437.3 786.98,364.84 743.72,296.39 714.52,250.17 671.69,204.41 625.45,170.03 568.58,127.73 497.35,96.863 427.62,84.279 393.71,78.161 368.83,76.284 331.12,77 301.75,77.558 287.3,78.845 260.79,83.268 205.12,92.558 148.07,113.26 99.593,141.76 80.485,152.99 49.222,174.69 40.834,182.55 L 38.052,185.15 245.83,392.93 C 407.78,554.88 454.17,600.73 456.11,600.79 457.49,600.84 458,601.12 457.25,601.42 456.36,601.77 465.34,611.43 482.74,628.84 L 509.6,655.71 510.08,657.21 564.06,711.17 618.04,765.13 619.17,765.29 635.41,781.51 651.65,797.73 651.7,798.79 681.15,828.25 C 697.35,844.46 710.92,857.71 711.32,857.71 711.71,857.71 717.19,850.84 723.5,842.43 z"
             style="fill:#CC0000;fill-opacity:1" />
    </g>
</svg>
