<?xml version="1.0" encoding="UTF-8" standalone="no"?>
<svg
     xmlns:svg="http://www.w3.org/2000/svg"
     xmlns="http://www.w3.org/2000/svg"
     version="1.0"
     width="575"
     height="575">
    <defs
         id="defs13" />
    <path
         d="M 574.07,287.5 A 286.57,284.89 0 1 1 0.94,287.5 286.57,284.89 0 1 1 574.07,287.5 z"
         id="path7"
         style="fill:#ffffff;stroke:#000000;stroke-width:1;stroke-linecap:square;stroke-miterlimit:4;" />
    <path
         d="M 287.48,9.1495 C 171.82,7.3922 61.36,86.79 25.06,196.44 -11.814,299 19.397,421.18 100.82,493.53 181.4,568.88 308.45,587.8 407.35,538.6 508.98,491.24 574.56,377.94 564.36,266.11 557.36,155.04 476.59,53.607 370.03,21.657 343.37,13.331 315.39,9.1035 287.48,9.1475 z M 287.48,71.212 C 385.34,69.401 477.32,143.13 497.73,238.69 512.65,301.91 497.18,371.45 456.42,422.08 354.92,321.15 253.42,220.23 151.92,119.3 189.82,88.34 238.52,71.006 287.48,71.212 z M 118.86,152.62 C 220.38,253.57 321.9,354.51 423.42,455.46 349.91,517.51 234.38,519.93 158.41,460.84 80.815,404.75 50.27,294.51 87.445,206.38 95.249,187.07 105.88,168.88 118.86,152.62 z"
         id="path9"
         style="fill:#cc0000;stroke:#cc0000;stroke-width:2;" />
</svg>
