<?xml version="1.0" encoding="UTF-8" standalone="no"?>
<svg
     xmlns:svg="http://www.w3.org/2000/svg"
     xmlns="http://www.w3.org/2000/svg"
     version="1.0"
     width="575"
     height="575"
     id="svg2">
    <defs
         id="defs24" />
    <path
         d="M 573.57,287.97 C 573.57,446.24 445.27,574.54 287,574.54 128.74,574.54 0.44,446.24 0.44,287.97 0.44,129.71 128.74,1.4 287.01,1.4 445.28,1.4 573.58,129.7 573.58,287.97 z"
         style="fill:#ffffff;stroke:#000000;stroke-width:1;stroke-linecap:square;stroke-miterlimit:4;" />
    <rect
         width="209.35"
         height="11.55"
         x="220.86"
         y="-133.7"
         transform="matrix(0.03583,1,-1,0.03583,0,0)"
         style="fill:#000000" />
    <g
         transform="translate(637.5,-44.318)"
         id="g10"
         style="fill:#000000;fill-rule:evenodd">
        <path d="M -235.61,173.3 C -235.61,173.3 -239.34,175.24 -271.08,181.8 -290.97,185.91 -374.56,199.93 -395.07,223.17 -409.65,239.7 -455.88,304.24 -461.15,315.91 -463.82,325.25 -466.73,327.63 -465.88,342.16 -464.51,365.47 -468.33,419.51 -462.13,432.27 -457.01,442.82 -439.93,433.05 -435.06,424.64 -427.96,412.4 -422.33,367.15 -423.67,342.16 -424.44,327.83 -395.91,310.78 -390.9,307.87 -404.66,328.24 -409.07,330.02 -404.23,345.08 -401.74,352.84 -395.04,371.47 -391.6,374.24 -379.4,366.48 -363.98,352.29 -359.52,349.94 -357.07,358.6 -371.8,365.16 -377.99,369.38 -384.09,373.53 -399.93,384.93 -407.84,401.45 -412.83,410.71 -407.7,424.76 -401.18,429.35 -401.18,429.35 -310.91,368.24 -287.19,356.74 -271.32,349.04 -257.99,337.93 -240.95,313.01 -228.11,294.23 -207.31,249.87 -185.22,227.87 -199.02,205.68 -217.39,189.59 -235.61,173.3 z" />
        <path d="M -378.98,421.02 -352.1,402.45 C -352.1,402.45 -346.75,412.97 -347.39,422.4 -347.85,429.33 -350.48,433.57 -356.52,437.68 -361.66,441.19 -372.32,439.05 -373.41,436.46 -374.89,432.99 -379.26,421.02 -378.98,421.02 z" />
        <path d="M -346.27,398.85 -325.48,384.16 C -325.48,384.16 -316.89,394.21 -318.83,403.84 -320.77,413.47 -331.46,424.85 -342.39,424.9 -341.13,416.08 -346.27,398.85 -346.27,398.85 z" />
    </g>
    <rect
         width="209.35"
         height="11.55"
         x="87.851"
         y="-495.67"
         transform="matrix(-0.4369,0.89951,-0.89951,-0.4369,0,0)"
         style="fill:#000000" />
    <path d="M 287.48,9.1495 C 218.95,9.1495 156.2,34.097 107.76,75.4 106.49,76.483 105.23,77.575 103.98,78.681 103.48,79.125 102.98,79.576 102.48,80.025 101.41,80.985 100.35,81.954 99.291,82.931 99.01,83.191 98.728,83.45 98.448,83.712 97.198,84.877 95.956,86.055 94.729,87.243 93.321,88.605 91.92,89.977 90.541,91.368 89.188,92.733 87.835,94.1 86.51,95.493 85.136,96.939 83.791,98.424 82.448,99.899 82.294,100.07 82.132,100.23 81.979,100.4 80.817,101.68 79.679,102.97 78.541,104.27 77.299,105.7 76.099,107.14 74.885,108.59 74.838,108.64 74.776,108.69 74.729,108.74 34.233,157.12 9.8229,219.47 9.8229,287.52 9.8229,441.18 134.2,565.86 287.48,565.86 356.16,565.86 419.02,540.79 467.51,499.33 L 467.54,499.36 C 467.93,499.03 468.32,498.7 468.7,498.36 468.86,498.23 469.01,498.09 469.17,497.96 470.11,497.14 471.05,496.32 471.98,495.49 472.72,494.83 473.44,494.18 474.17,493.52 474.38,493.33 474.59,493.15 474.79,492.96 475.76,492.07 476.71,491.17 477.67,490.27 478.53,489.46 479.38,488.65 480.23,487.83 480.35,487.72 480.46,487.6 480.58,487.49 481.66,486.43 482.72,485.37 483.79,484.3 484.11,483.99 484.42,483.68 484.73,483.36 485.98,482.1 487.22,480.81 488.45,479.52 488.57,479.39 488.7,479.27 488.83,479.14 490.23,477.66 491.64,476.16 493.01,474.64 494.27,473.25 495.5,471.84 496.73,470.43 496.96,470.16 497.19,469.91 497.42,469.64 498.47,468.43 499.51,467.19 500.54,465.96 540.87,417.63 565.17,355.41 565.17,287.52 565.17,133.86 440.76,9.1368 287.48,9.1368 z M 287.48,71.212 C 406.59,71.212 503.26,168.12 503.26,287.52 503.26,338.37 485.75,385.14 456.42,422.08 L 151.92,119.3 C 188.98,89.242 236.13,71.21 287.48,71.21 z M 118.86,152.62 423.42,455.46 C 386.3,485.7 339,503.83 287.48,503.83 168.37,503.83 71.73,406.92 71.73,287.52 71.73,236.52 89.366,189.61 118.86,152.61 z"
         style="fill:#cc0000;stroke:none;" />
</svg>
