<?xml version="1.0" encoding="UTF-8" standalone="no"?>
<svg
   width="265"
   height="265"
   fill-rule="evenodd"
   version="1.1"
   id="svg7881"
   sodipodi:docname="ISO_7010_P035.svg"
   inkscape:version="1.2.1 (9c6d41e410, 2022-07-14)"
   xml:space="preserve"
   xmlns:inkscape="http://www.inkscape.org/namespaces/inkscape"
   xmlns:sodipodi="http://sodipodi.sourceforge.net/DTD/sodipodi-0.dtd"
   xmlns="http://www.w3.org/2000/svg"
   xmlns:svg="http://www.w3.org/2000/svg"><defs
     id="defs7885" /><sodipodi:namedview
     id="namedview7883"
     pagecolor="#ffffff"
     bordercolor="#000000"
     borderopacity="0.25"
     inkscape:showpageshadow="2"
     inkscape:pageopacity="0.0"
     inkscape:pagecheckerboard="0"
     inkscape:deskcolor="#d1d1d1"
     showgrid="false"
     inkscape:zoom="1.9811321"
     inkscape:cx="-2.0190476"
     inkscape:cy="126.69524"
     inkscape:window-width="1920"
     inkscape:window-height="1017"
     inkscape:window-x="-8"
     inkscape:window-y="-8"
     inkscape:window-maximized="1"
     inkscape:current-layer="svg7881"
     showguides="true"><sodipodi:guide
       position="-424,153.44762"
       orientation="0,-1"
       id="guide1185"
       inkscape:locked="false" /></sodipodi:namedview><path
     d="M 251.75,132.5 C 251.75,66.64 198.36,13.25 132.5,13.25 66.64,13.25 13.25,66.64 13.25,132.5 c 0,65.86 53.39,119.25 119.25,119.25 65.86,0 119.25,-53.39 119.25,-119.25"
     fill="#ffffff"
     id="path7875"
     style="display:inline" /><path
     id="path2094"
     style="color:#000000;display:inline;fill:#000000;fill-opacity:1;stroke:none;stroke-width:0.894533;stroke-opacity:1"
     d="M 110.66406 38.289062 L 107.0957 39.839844 C 107.0194 43.675981 107.66743 47.471352 108.59766 51.166016 L 108.60938 51.220703 L 108.62695 51.273438 C 113.12271 64.659454 114.45158 72.696961 114.1875 80.720703 C 113.9234 88.744443 112.01969 96.883499 109.93555 110.19922 L 109.87891 110.55273 L 110 110.89258 C 110.45333 112.1802 111.0321 113.21553 112.14258 113.72852 C 113.25306 114.24152 114.48938 113.84945 115.38672 113.23047 C 117.1814 111.9925 118.80043 109.69182 120.85742 106.71289 C 124.97136 100.75504 130.40336 92.128469 137.38867 85.490234 L 137.40625 85.472656 L 137.42578 85.453125 C 143.42022 79.296479 150.07518 74.417724 157.82031 73.916016 L 157.82227 73.916016 C 159.0814 73.844936 161.5652 74.230082 163.60352 74.666016 C 165.64245 75.102075 167.29102 75.558594 167.29102 75.558594 L 169.99805 76.3125 L 169.00781 73.681641 C 169.00781 73.681641 166.87915 67.637369 167.28516 63.955078 L 167.28906 63.910156 L 167.29297 63.863281 C 167.59076 57.281561 168.34284 52.075485 169.95898 45.632812 L 166.83594 44.404297 C 165.18993 50.965985 164.39964 56.418751 164.0918 63.107422 C 163.7304 66.385074 163.96454 68.508146 164.64453 70.6875 C 164.05217 70.54304 164.77268 70.986828 164.02148 70.826172 C 161.89057 70.370437 159.67692 70.443361 157.74805 70.552734 L 157.74219 70.552734 L 157.38086 70.53125 C 148.57279 71.097125 141.35293 76.5306 135.15625 82.886719 C 135.15325 82.888919 135.15144 82.892231 135.14844 82.894531 C 127.8101 89.870589 122.28647 98.699668 118.24219 104.55664 C 116.21937 107.48609 114.72861 110.2199 113.76758 110.88281 C 113.28708 111.21426 113.30341 111.12184 113.33984 111.13867 C 113.36844 111.15187 113.35134 110.2844 113.09766 109.75391 C 115.13708 96.829861 117.30118 89.199756 117.57422 80.904297 C 117.85026 72.517145 116.421 64.038935 111.89258 50.537109 C 111.00261 46.997119 110.59506 41.758524 110.66406 38.289062 z M 163.38281 79.376953 C 152.94098 79.717286 143.98894 87.25037 137.08203 95.970703 C 127.5461 108.25478 121.22975 118.74901 112.58789 129.27148 C 111.87596 130.13445 110.73154 130.71045 110.32812 131.75391 C 109.97536 132.6664 110.34582 133.71131 110.32812 134.68945 C 110.13997 145.07963 110.41037 155.52268 109.19922 165.84375 C 108.17068 174.60922 106.39402 180.14631 103.68945 191.52734 C 103.49492 192.34591 103.18388 192.62261 102.55859 193.18555 C 102.08073 193.61574 100.67994 194.35467 100.11523 194.66211 C 96.42617 197.07189 92.865812 199.6404 91.589844 203.73242 C 89.663446 210.22819 94.872275 216.41703 99.71875 212.125 C 104.84924 208.07936 107.35464 200.77646 110.55469 195.08008 C 129.10318 160.72022 128.63752 153.15079 138.77539 134.23828 C 148.42433 117.61671 150.77979 106.28963 175.0293 94.755859 C 179.92353 92.894003 190.93945 94.396484 190.93945 94.396484 C 190.93945 94.396484 183.27269 87.402043 178.73633 84.794922 C 174.03134 82.090904 168.80457 79.607311 163.38281 79.376953 z M 188.76758 105.27344 C 180.29446 105.28674 170.45331 109.89983 164.17383 119.11133 C 159.74265 124.32234 154.58623 133.43441 150.55078 141.19141 C 150.03091 142.19071 141.17799 156.26202 140.69922 157.20508 C 136.58372 151.73469 135.61328 148.68555 135.61328 148.68555 C 127.37004 169.77563 121.96826 182.12841 112.13477 199.48242 C 106.75083 207.86122 106.42941 211.64652 98.25 216.75391 C 98.25 216.75391 100.62148 217.51398 109.88086 217.00391 C 110.88119 218.50933 112.76357 219.44428 114.80664 219.44922 C 117.25765 219.44835 119.43035 218.11538 120.19141 216.14648 C 122.63434 215.88814 125.3425 215.56762 128.33008 215.17969 C 129.2823 216.81349 131.2492 217.84825 133.4043 217.85156 C 136.25778 217.84756 138.66336 216.05269 139.01953 213.66016 C 139.92443 213.52244 140.76681 213.40207 141.71094 213.25391 C 144.20161 212.712 146.92584 212.42461 149.6582 212.10156 C 150.71265 213.39866 152.45422 214.176 154.31641 214.17969 C 157.20463 214.17889 159.62997 212.34199 159.94727 209.91602 C 162.57136 208.85021 164.83886 207.25048 166.42969 204.67578 C 168.93218 200.35058 168.37307 169.13397 165.64062 160.99023 C 164.87251 159.1925 163.76352 157.44219 162.44141 155.76172 C 164.40478 155.90209 166.22384 156.05837 167.55859 156.24805 C 172.77293 156.98904 182.00781 163.69922 182.00781 163.69922 C 182.00781 163.69922 196.76435 147.71619 201.76367 134.68945 C 210.61347 115.05969 201.15138 105.25391 188.76758 105.27344 z M 187.875 108.75 C 188.45346 108.75729 189.03718 108.79318 189.625 108.85742 C 191.19253 109.02874 192.793 109.40735 194.41602 110.00977 L 194.52148 110.04883 L 194.62109 110.09961 C 198.55115 112.07226 200.94017 114.91905 201.87109 118.0957 C 202.80201 121.27237 202.3543 124.59121 201.36914 127.75195 C 199.39882 134.07345 195.17435 140.15301 193.31836 143.78125 L 189.66992 141.91406 C 191.79396 137.76184 195.76855 131.94418 197.45508 126.5332 C 198.29834 123.82773 198.54282 121.32227 197.93555 119.25 C 197.33517 117.20128 195.95265 115.3983 192.86328 113.82227 C 187.5562 111.89207 183.2849 112.75018 178.9043 115.75195 C 174.4878 118.77833 170.15314 124.14818 165.83008 130.94336 L 162.37109 128.74414 C 166.82834 121.73806 171.36322 115.94931 176.58789 112.36914 C 180.01658 110.01965 183.82581 108.69899 187.875 108.75 z M 158.54688 179.18555 C 161.23635 179.18545 163.41644 180.52285 163.41602 182.17188 C 163.41644 183.82091 161.23635 185.15829 158.54688 185.1582 C 155.85741 185.15829 153.67731 183.82091 153.67773 182.17188 C 153.67731 180.52285 155.85741 179.18545 158.54688 179.18555 z M 143.86133 180.06445 C 146.55012 180.06494 148.72894 181.40217 148.72852 183.05078 C 148.72894 184.6994 146.55013 186.03661 143.86133 186.03711 C 141.17186 186.0372 138.99177 184.69982 138.99219 183.05078 C 138.99177 181.40175 141.17186 180.06435 143.86133 180.06445 z M 129.41211 181.18359 C 132.10047 181.18349 134.28009 182.51962 134.28125 184.16797 C 134.28167 185.81701 132.10159 187.15244 129.41211 187.15234 C 126.72332 187.15185 124.54449 185.81659 124.54492 184.16797 C 124.54581 182.52004 126.72444 181.18408 129.41211 181.18359 z M 157.26953 189.56445 C 159.95789 189.56435 162.13751 190.90047 162.13867 192.54883 C 162.13909 194.19786 159.95901 195.53525 157.26953 195.53516 C 154.58007 195.53525 152.39997 194.19786 152.40039 192.54883 C 152.40128 190.90048 154.58118 189.56436 157.26953 189.56445 z M 141.06641 191.71875 C 143.7552 191.71924 145.93597 193.05646 145.93555 194.70508 C 145.93597 196.35369 143.75519 197.68896 141.06641 197.68945 C 138.37694 197.68955 136.19685 196.35411 136.19727 194.70508 C 136.19685 193.05605 138.37694 191.71865 141.06641 191.71875 z M 124.38477 193.31641 C 127.07423 193.31631 129.25433 194.65175 129.25391 196.30078 C 129.25302 197.94913 127.07311 199.28526 124.38477 199.28516 C 121.69641 199.28526 119.51483 197.94913 119.51367 196.30078 C 119.51325 194.65175 121.69529 193.31631 124.38477 193.31641 z M 155.91211 200.33984 C 158.60158 200.33974 160.78167 201.67519 160.78125 203.32422 C 160.78167 204.97325 158.60158 206.31065 155.91211 206.31055 C 153.22263 206.31065 151.04255 204.97325 151.04297 203.32422 C 151.04255 201.67519 153.22263 200.33974 155.91211 200.33984 z M 137.95312 203.45312 C 140.64258 203.45304 142.82269 204.78847 142.82227 206.4375 C 142.82138 208.08585 140.64147 209.42196 137.95312 209.42188 C 135.26477 209.42197 133.08514 208.08585 133.08398 206.4375 C 133.08356 204.78847 135.26365 203.45303 137.95312 203.45312 z M 120.23438 205.87891 C 122.92317 205.8794 125.10198 207.21663 125.10156 208.86523 C 125.10067 210.51317 122.92205 211.84911 120.23438 211.84961 C 117.54603 211.8497 115.36638 210.51358 115.36523 208.86523 C 115.36481 207.21621 117.54491 205.87881 120.23438 205.87891 z " /><path
     d="M 238.369,132.5 C 238.369,74.03 190.97,26.631 132.5,26.631 a 105.42,105.42 0 0 0 -67.175,24.04 l 149.366,148.554 c 14.802,-18.209 23.678,-41.429 23.678,-66.725 z M 50.309,65.775 A 105.42,105.42 0 0 0 26.631,132.5 c 0,58.47 47.399,105.869 105.869,105.869 25.503,0 48.899,-9.019 67.175,-24.04 z M 265,132.5 C 265,59.322 205.678,0 132.5,0 59.322,0 0,59.322 0,132.5 0,205.678 59.322,265 132.5,265 205.678,265 265,205.678 265,132.5"
     fill="#b71f2e"
     id="path8446"
     style="display:inline" /></svg>
