<?xml version="1.0" encoding="UTF-8" standalone="no"?>
<svg
     xmlns:svg="http://www.w3.org/2000/svg"
     xmlns="http://www.w3.org/2000/svg"
     version="1.0"
     width="575"
     height="575"
     id="svg2">
    <defs
         id="defs20" />
    <path
         d="M 574.06,287.5 A 286.57,285.05 0 1 1 0.93,287.5 286.57,285.05 0 1 1 574.06,287.5 z"
         style="fill:#ffffff;stroke:#000000;stroke-width:1;stroke-linecap:square;stroke-miterlimit:4;" />
    <g transform="matrix(0.92583,0,0,0.92383,-71.957,-194.37)"
         id="g8">
        <path
             d="M 403.36,314.86 C 403.72,321.02 404.2,325.9 404.85,327.47 415.87,353.9 424.61,343.13 417.88,395.19 516.47,360.2 539.79,489.33 462.03,510.6 462.03,510.6 461.65,555.57 506.77,574.4 539.63,588.71 557.35,619.33 563.45,638.28"
             style="fill:none;stroke:#000000;stroke-width:9;stroke-linecap:round;stroke-linejoin:round;stroke-miterlimit:4;" />
        <path
             d="M 289.86,703.91 C 295.68,664.28 301.06,601.84 289.51,540.09 288.42,522.78 269.32,465.99 295.63,431.31 338.51,393.36 396.72,417.7 398.45,455.06 407.8,468.66 427.92,496.2 437.45,495.87 441.24,507.16 467.37,527.38 405.14,581.75 379.71,630.09 364.61,689.05 356.47,726.05"
             style="fill:none;stroke:#000000;stroke-width:9;stroke-linecap:round;stroke-linejoin:round;stroke-miterlimit:4;" />
        <path
             d="M 326.07,706.74 C 309.93,703.78 341.37,543.49 341.37,543.49 341.37,543.49 360.29,486.06 369.43,472.07 373.64,462.35 363.08,446.46 395.9,451.57 399.08,452.09 394.87,437.93 400.04,441.48 417.8,401.66 441.02,395.85 477.17,414.48 496.73,424.57 514.21,497.73 435.66,498.69 437.27,523.44 427.63,515.43 419.6,521.38 412.33,526.76 371.5,542.49 360.08,598.76 356.31,614.09 340.73,710.67 326.07,706.74 z"
             style="fill:#000000;fill-rule:evenodd" />
    </g>
    <path
         d="M 287.48,9.1495 C 218.95,9.1495 156.2,34.097 107.76,75.4 106.49,76.483 105.23,77.575 103.98,78.681 103.48,79.125 102.98,79.576 102.48,80.025 101.41,80.985 100.35,81.954 99.291,82.931 99.01,83.191 98.728,83.45 98.448,83.712 97.198,84.877 95.956,86.055 94.729,87.243 93.321,88.605 91.92,89.977 90.541,91.368 89.188,92.733 87.835,94.1 86.51,95.493 85.136,96.939 83.791,98.424 82.448,99.899 82.294,100.07 82.132,100.23 81.979,100.4 80.817,101.68 79.679,102.97 78.541,104.27 77.299,105.7 76.099,107.14 74.885,108.59 74.838,108.64 74.776,108.69 74.729,108.74 34.233,157.12 9.8229,219.47 9.8229,287.52 9.8229,441.18 134.2,565.86 287.48,565.86 356.16,565.86 419.02,540.79 467.51,499.33 L 467.54,499.36 C 467.93,499.03 468.32,498.7 468.7,498.36 468.86,498.23 469.01,498.09 469.17,497.96 470.11,497.14 471.05,496.32 471.98,495.49 472.72,494.83 473.44,494.18 474.17,493.52 474.38,493.33 474.59,493.15 474.79,492.96 475.76,492.07 476.71,491.17 477.67,490.27 478.53,489.46 479.38,488.65 480.23,487.83 480.35,487.72 480.46,487.6 480.58,487.49 481.66,486.43 482.72,485.37 483.79,484.3 484.11,483.99 484.42,483.68 484.73,483.36 485.98,482.1 487.22,480.81 488.45,479.52 488.57,479.39 488.7,479.27 488.83,479.14 490.23,477.66 491.64,476.16 493.01,474.64 494.27,473.25 495.5,471.84 496.73,470.43 496.96,470.16 497.19,469.91 497.42,469.64 498.47,468.43 499.51,467.19 500.54,465.96 540.87,417.63 565.17,355.41 565.17,287.52 565.17,133.86 440.76,9.1369 287.48,9.1369 z M 287.48,71.212 C 406.59,71.212 503.26,168.12 503.26,287.52 503.26,338.37 485.75,385.14 456.42,422.08 L 151.92,119.3 C 188.98,89.242 236.13,71.21 287.48,71.21 z M 118.86,152.62 423.42,455.46 C 386.3,485.7 339,503.83 287.48,503.83 168.37,503.83 71.73,406.92 71.73,287.52 71.73,236.52 89.366,189.61 118.86,152.61 z"
         style="fill:#cc0000;stroke:none;" />
</svg>
