<?xml version="1.0" encoding="UTF-8" standalone="no"?>
<svg xmlns:svg="http://www.w3.org/2000/svg" xmlns="http://www.w3.org/2000/svg"
     version="1.1" width="575px" height="575px" viewBox="-4 -4 1192 1192">
    <defs />
	<circle cx="592" cy="592" r="592" style="fill:#ffffff; stroke:none;" />
    <g transform="translate(147.25,66.588)">
        <path
             d="M 706.44,856.29 C 706.12,856.29 701.33,860.12 695.79,864.79 L 685.72,873.29 439.69,873.29 193.67,873.29 185.34,867.15 C 172.92,857.99 160.5,847.26 160.5,845.68 160.5,844.51 173.39,844.28 244.25,844.24 322.61,844.19 327.84,844.08 325.5,842.53 321.01,839.55 315.83,833.6 313.41,828.65 310.46,822.63 309.62,810.81 311.71,804.79 312.48,802.59 328.98,771.83 348.38,736.42 367.79,701.02 383.29,671.72 382.83,671.3 365.07,655.18 260.96,563.02 260.15,562.71 259.47,562.45 231.37,612.72 191.63,685.28 154.57,752.94 123.7,808.29 123.03,808.29 119.94,808.29 81.378,755.32 81.897,751.79 82,751.09 123.47,674.87 174.04,582.43 L 266,414.34 312.77,461.09 359.54,507.84 349.95,525.31 C 343.13,537.73 340.61,543.21 341.25,544.23 341.74,545.03 366.41,567.32 396.07,593.77 454.93,646.25 454.28,645.56 456.62,658.59 458.95,671.57 460.03,669.15 413.45,754.5 390.25,797.01 370.13,833.3 368.75,835.15 367.37,836.99 364.18,839.8 361.67,841.4 L 357.11,844.29 485.8,844.29 614.5,844.29 614.5,804.04 614.5,763.8 C 644.87,793.32 652.93,801.69 706.44,856.29 z M 313.08,328.37 317.75,319.98 C 322.89,310.75 328.32,305.19 335.38,301.93 L 340,299.79 477.23,299.53 614.47,299.26 614.73,272.53 615,245.79 688.25,245.53 761.5,245.28 761.5,511.06 761.5,776.84 M 614.5,630.02 614.5,356.28 528.39,356.54 442.27,356.79 424.43,389.29 406.58,421.79 M 348.5,285.73 C 323.17,280.27 304.53,257.19 304.53,231.29 304.53,211.05 316.36,191.36 334.1,182.06 383.07,156.39 435.39,208.71 409.73,257.69 402.59,271.32 389.67,281.28 373.9,285.32 364.99,287.59 357.7,287.71 348.5,285.73 z"
             style="fill:#000000" />
        <path
             d="M 405.48,1115.7 C 301.36,1108.8 197.24,1073.1 112.48,1015.1 12.895,946.94 -61.59,854.04 -105.78,742.86 -164.17,595.97 -160.76,429.56 -96.406,285.04 -65.638,215.95 -23.2,154.91 30.62,102.35 91.947,42.459 159.88,-0.45602 241.48,-30.848 345.24,-69.489 466.35,-77.179 575.48,-52.054 713.33,-20.32 831.17,55.917 916.93,168.86 957.27,221.97 990.89,287.55 1010,350.36 1050.9,484.86 1043.9,625.84 990.03,754.36 943.63,865.08 863.33,960.43 762.92,1024 676.99,1078.5 582.46,1109.3 481,1115.8 462.73,1117 423.93,1117 405.48,1115.7 z M 490.98,1001.4 C 548.91,995.41 601.51,980.71 651.98,956.41 679.78,943.02 712.6,922.75 736.31,904.32 L 747.63,895.51 727.63,875.51 C 709.25,857.13 707.47,855.62 705.8,856.93 704.2,858.19 704.13,858.18 705.15,856.86 706.12,855.61 677.42,826.26 533.75,681.61 386.19,533.04 360.96,508.04 359.64,509.11 358.79,509.8 358.39,509.88 358.74,509.3 359.46,508.08 267.23,415.45 266.26,416.42 265.91,416.77 265.83,416.22 266.09,415.21 266.44,413.81 242.87,389.69 170.54,317.38 87.036,233.91 74.367,221.62 73.259,223.01 10.981,301.09 -24.107,388.77 -32.526,487.36 -33.958,504.13 -33.96,546.66 -32.526,563.36 -27.121,626.44 -10.988,684 16.898,739.68 63.95,833.62 140.25,909.06 234.99,955.3 293.34,983.77 350.06,998.36 421.49,1003.3 432.46,1004 477.32,1002.8 490.99,1001.4 z M 826.87,812.57 C 861.57,766.35 886.49,716.91 903.36,660.86 912.53,630.4 918.47,598.32 921.49,562.86 922.85,546.83 922.86,503.03 921.5,486.86 914.82,407.44 890.35,334.99 847.09,266.53 817.89,220.31 775.05,174.55 728.82,140.17 671.95,97.878 600.72,67.007 530.98,54.423 497.08,48.305 472.2,46.428 434.48,47.144 405.12,47.701 390.67,48.989 364.16,53.412 308.49,62.702 251.44,83.402 202.96,111.9 183.85,123.14 152.59,144.84 144.2,152.69 L 141.42,155.29 227.64,241.51 C 303.75,317.63 314,327.54 315.12,326.05 316.27,324.51 316.34,324.54 315.9,326.36 315.51,327.94 325.17,338.11 361.7,374.58 387.15,400.01 407.98,421.06 407.98,421.36 407.98,422.1 813.79,827.56 814.69,827.73 815.08,827.8 820.56,820.98 826.87,812.57 z"
             style="fill:#CC0000; fill-opacity:1" />
    </g>
</svg>
