<?xml version="1.0" encoding="UTF-8" standalone="no"?>
<svg xmlns:svg="http://www.w3.org/2000/svg" xmlns="http://www.w3.org/2000/svg"
     version="1.1" width="575px" height="575px" viewBox="-4 -4 1192 1192">
    <defs />
	<circle cx="592" cy="592" r="592" style="fill:#ffffff; stroke:none;" />
    <g transform="translate(172.8,59.728)"
         id="layer1">
        <path
             d="M 389.86,961.13 385.86,960.51 385.6,914.76 385.34,869.01 268.37,869.01 151.41,869.01 144.13,862.81 C 130.08,850.85 117.36,838.77 117.36,837.39 117.36,836.21 139.71,836.04 267.61,836.25 L 417.86,836.51 417.86,899.01 417.86,961.51 405.86,961.63 C 399.26,961.69 392.06,961.47 389.86,961.13 z M 524.01,704.08 C 524.3,705.73 527.51,720.48 528.91,729.01 530.31,737.53 538.18,779.18 546.4,821.56 556.45,873.36 561.36,900.81 561.36,905.28 561.36,914.37 558.49,921.6 552.13,928.57 546.48,934.75 540.52,938.19 532.56,939.88 526.1,941.25 523.36,941.2 516.74,939.59 506.34,937.07 497.27,929.5 492.82,919.63 490.32,914.07 460.84,763.44 455.42,728.51 451.61,703.93 447.39,666.23 444.79,643.51 L 442.21,620.92 M 278.66,817.2 C 269.86,814.06 262.44,807.83 258.46,800.24 257.8,798.99 241.71,755.57 222.69,703.74 189.11,612.25 188.1,609.29 188.01,602.01 187.86,589.47 193.61,578.06 203.38,571.51 206.04,569.73 234.1,558.76 272.36,544.56 307.83,531.39 339.85,519.35 340.15,518.92 340.44,518.5 351.11,532.25 367.21,548.36 L 396.48,577.64 379.67,583.88 C 300.71,613.2 271.36,624.37 271.36,625.11 271.36,625.59 283.6,659.17 298.57,699.74 L 325.77,773.51 325.82,783.01 C 325.85,791.26 325.51,793.25 323.19,798.2 319.76,805.51 312.78,812.46 305.55,815.78 297.94,819.27 286.19,819.89 278.66,817.2 z M 269.72,316.96 C 269.96,316.71 272.61,311.33 275.6,305.01 278.6,298.68 283.17,290.71 285.76,287.29 291.45,279.79 301.64,271.92 310.04,268.55 313.45,267.18 344.72,259.7 379.54,251.91 435.99,239.29 443.83,237.76 451.86,237.81 456.81,237.83 463.16,238.48 465.97,239.25 468.78,240.01 502.71,254.11 541.38,270.57 606.85,298.45 612.05,300.84 617.08,305.41 620.05,308.11 623.53,312.39 624.8,314.91 626.08,317.44 641.01,351.23 657.99,390.01 L 688.85,460.51 688.85,468.51 C 688.86,475.05 688.38,477.52 686.24,482.09 683.05,488.9 678.01,494.1 671.07,497.75 666.45,500.19 664.78,500.5 656.36,500.5 647.97,500.5 646.26,500.18 641.73,497.8 631.1,492.2 630.83,491.69 598.91,418.58 L 569.69,351.65 516.97,329.21 C 487.98,316.87 463.98,307.04 463.65,307.38 463.32,307.71 471.91,347.03 482.74,394.74 507.17,502.31 509.05,512.41 511.21,547.33 L 512,560.15 M 331.93,380.01 C 332,380.01 331.02,375.39 329.75,369.76 325.91,352.68 326.63,353.6 322.84,361.01 L 319.51,367.51 M 95.657,528.21 C 88.009,525.47 82.818,521.45 78.411,514.85 69.915,502.12 70.815,486.69 80.762,474.56 82.614,472.3 86.318,469.26 88.993,467.81 91.668,466.35 119.65,453.87 151.18,440.07 214.22,412.47 215.29,411.97 220.42,407.93 L 223.99,405.13 248.81,429.96 274.42,454.39 270.24,457.83 C 263.66,463.24 256.84,466.89 185.94,498.03 118.77,527.54 114.65,529.21 107.94,529.63 102.67,529.96 99.526,529.59 95.657,528.21 z M 351.36,237.31 C 333.91,234.39 315.21,220.93 307.18,205.51 301.58,194.75 299.95,188.09 299.95,176.01 299.95,158.08 305.59,144.49 318.24,131.96 330.64,119.68 344.45,113.84 361.36,113.74 372.1,113.67 378.72,115.19 389.09,120.13 403.92,127.19 415.04,139.77 420.75,155.96 423.41,163.48 423.77,165.83 423.77,175.51 423.77,183.21 423.24,188.3 421.98,192.51 415.47,214.21 398.6,230.44 376.75,236.03 369.58,237.87 358.11,238.45 351.36,237.31 z"
             id="path4876"
             style="fill:#000000" />
        <path
             d="M 379.93,1122.6 C 275.81,1115.7 171.68,1079.9 86.933,1021.9 -12.657,953.8 -87.143,860.9 -131.33,749.72 -189.72,602.83 -186.31,436.42 -121.96,291.9 -91.191,222.81 -48.752,161.77 5.0676,109.21 66.394,49.319 134.33,6.404 215.93,-23.988 319.68,-62.629 440.79,-70.319 549.93,-45.194 687.78,-13.46 805.61,62.777 891.38,175.72 931.72,228.83 965.33,294.41 984.42,357.22 1025.3,491.72 1018.3,632.7 964.48,761.22 918.08,871.94 837.78,967.29 737.37,1030.9 651.44,1085.3 556.9,1116.1 455.45,1122.7 437.18,1123.9 398.38,1123.8 379.93,1122.6 z M 465.43,1008.3 C 523.36,1002.3 575.96,987.57 626.43,963.27 654.27,949.86 687.05,929.61 710.85,911.11 L 722.26,902.23 582.85,763.18 C 506.17,686.7 433.13,613.42 420.53,600.35 399.83,578.86 397.38,576.64 395.03,577.18 393.55,577.52 392.96,577.43 393.65,576.96 394.48,576.4 385.85,567.13 366.4,547.69 350.74,532.04 337.93,518.78 337.93,518.22 337.93,517.66 323.53,502.81 305.93,485.22 288.33,467.62 273.93,453.67 273.93,454.22 273.93,454.76 262.73,444.01 249.05,430.33 231.22,412.52 223.77,405.69 222.8,406.28 221.72,406.93 221.74,406.73 222.86,405.34 224.17,403.73 216.82,396.11 136.86,316.15 88.779,268.06 49.211,228.73 48.935,228.74 48.658,228.75 44.608,233.74 39.933,239.83 -16.786,313.73 -50.034,400.02 -58.078,494.22 -59.51,510.99 -59.512,553.52 -58.078,570.22 -52.674,633.3 -36.541,690.86 -8.6538,746.54 38.397,840.48 114.7,915.92 209.44,962.16 267.79,990.63 324.5,1005.2 395.94,1010.1 406.9,1010.9 451.77,1009.7 465.44,1008.3 z M 801.32,819.43 C 836.01,773.21 860.94,723.77 877.81,667.72 886.98,637.26 892.91,605.18 895.94,569.72 897.3,553.69 897.31,509.89 895.95,493.72 889.27,414.3 864.8,341.85 821.54,273.39 792.33,227.17 749.5,181.41 703.27,147.03 646.39,104.74 575.17,73.867 505.43,61.283 471.53,55.165 446.65,53.288 408.93,54.004 379.57,54.561 365.12,55.849 338.61,60.272 282.94,69.562 225.89,90.262 177.41,118.76 158.3,130 127.04,151.7 118.65,159.55 L 115.87,162.15 167.65,214 C 196.13,242.52 242.16,288.26 269.93,315.64 297.71,343.03 320.66,365.78 320.93,366.2 321.21,366.62 364.45,409.77 417.04,462.09 469.62,514.41 512.71,557.67 512.79,558.22 512.96,559.41 788.12,834.72 789.14,834.72 789.53,834.72 795.01,827.84 801.32,819.43 z"
             id="path4889"
             style="fill:#CC0000;fill-opacity:1" />
    </g>
</svg>
