<?xml version="1.0" encoding="UTF-8" standalone="no"?>
<svg
     xmlns:svg="http://www.w3.org/2000/svg"
     xmlns="http://www.w3.org/2000/svg"
     version="1.0"
     width="575"
     height="575"
     id="svg2">
    <defs
         id="defs16" />
    <g transform="translate(-107.23,-241.31)">
        <path
             d="M -45.024,125.63 C -45.024,143.68 -61.118,158.31 -80.971,158.31 -100.82,158.31 -116.92,143.68 -116.92,125.63 -116.92,107.58 -100.82,92.951 -80.971,92.951 -61.118,92.951 -45.024,107.58 -45.024,125.63 z"
             transform="matrix(7.9719,0,0,8.7691,1040.2,-572.86)"
             style="fill:#ffffff;stroke:#000000;stroke-width:0.1;stroke-linecap:square;stroke-miterlimit:4;" />
        <path
             d="M 279.24,685.03 C 278.79,684.28 273.28,665.56 266.99,643.44 260.7,621.32 251.61,589.64 246.8,573.05 241.99,556.46 237.54,540.7 236.91,538.02 236.29,535.35 235.3,531.91 234.7,530.37 233.89,528.25 235.99,526.87 243.29,524.71 248.61,523.14 253.89,521.86 255.02,521.86 256.15,521.86 258.31,526.59 259.82,532.37 L 262.57,542.88 276.94,544.19 C 293.95,545.73 301.37,547.89 314.03,554.98 319.21,557.88 325.26,560.25 327.49,560.25 329.71,560.25 337.05,557 343.79,553.03 355,546.42 366.46,542.57 373.49,543.05 378.39,543.38 382.67,545.95 382.67,548.56 382.67,549.96 383.71,551.13 384.97,551.17 387.54,551.23 394.78,560.25 392.27,560.25 391.39,560.25 386.73,558.91 381.9,557.27 371.24,553.66 363.36,555.45 347.65,565.08 331.81,574.78 326.62,574.91 308.73,566.09 292.09,557.89 269.3,553.22 267.59,557.65 265.4,563.35 270.35,567.03 281.57,568.04 289.6,568.77 295.89,570.86 304.59,575.7 311.62,579.62 320.15,582.77 325.28,583.34 332.82,584.19 335.67,583.44 346.12,577.87 365.57,567.5 372.17,566.5 390.29,571.19 398.73,573.37 407.08,575.27 408.84,575.41 410.61,575.54 412.06,576.71 412.06,578.01 412.06,579.3 413.12,580.36 414.43,580.36 417.79,580.36 432.26,595.45 432.26,598.95 432.26,600.55 427.8,617.39 422.35,636.36 416.9,655.34 411.5,674.36 410.34,678.63 L 408.24,686.4 H 344.15 C 308.9,686.4 279.69,685.78 279.24,685.03 z M 394.05,649.84 C 404.15,614.95 410.32,590.82 409.37,589.87 407.39,587.9 379.99,580.5 374.41,580.43 371.38,580.39 361.9,583.85 353.34,588.11 332.01,598.73 322.33,598.7 301.58,587.96 287.5,580.67 274.33,577.92 274.33,582.25 274.33,583.29 279.29,601.5 285.35,622.71 291.41,643.92 296.37,661.6 296.37,661.99 296.37,662.38 317.57,662.48 343.49,662.21 L 390.61,661.72 394.05,649.83 z M 443.22,549.74 C 443.19,548.98 439.89,544.8 435.87,540.44 428.73,532.67 426.49,525.19 430.56,522.68 432.62,521.41 448.55,525.05 451.23,527.4 453.07,529.02 447.14,551.11 444.86,551.11 443.99,551.11 443.25,550.49 443.22,549.74 z M 308.53,505.18 C 306.82,496.67 307.14,476.15 308.98,476.15 309.87,476.15 314.01,479.85 318.2,484.38 322.39,488.9 326.19,492.61 326.64,492.61 328.52,492.61 341.88,508.21 341.09,509.49 340.61,510.26 333.35,510.89 324.95,510.89 H 309.68 L 308.53,505.18 z M 428.65,466.94 C 423.13,464.95 415.53,461.18 411.75,458.57 405.44,454.22 403.61,453.88 389.5,454.48 376.03,455.05 373.28,455.76 367.38,460.25 363.22,463.4 359.76,464.81 358.34,463.9 357.08,463.1 349.65,455.81 341.84,447.71 L 327.64,432.98 335.41,425.55 C 347.15,414.35 351.15,413.48 396.45,412.3 L 436.85,411.25 437.41,403.48 437.97,395.71 H 426.98 C 417.3,395.71 415.54,395.14 412.19,390.89 407.35,384.77 407.33,377.41 412.13,372.29 415.74,368.42 417.16,368.28 453.37,368.28 489.59,368.28 491,368.42 494.62,372.29 499.32,377.31 499.42,384.87 494.86,390.47 492.04,393.93 489.07,394.96 479.71,395.7 L 468.06,396.62 V 411.25 L 508.92,411.74 549.78,412.23 V 454.21 H 523.29 C 501.86,454.21 496.25,454.75 493.96,457.03 492.4,458.58 486.35,462.06 480.51,464.77 466.27,471.38 443.54,472.33 428.65,466.94 z"
             style="fill:#000000" />
        <path
             d="M 394.72,250.47 C 326.19,250.47 263.44,275.42 215,316.72 213.73,317.8 212.47,318.9 211.22,320 210.72,320.45 210.22,320.9 209.72,321.35 208.65,322.31 207.59,323.27 206.53,324.25 206.25,324.51 205.97,324.77 205.69,325.03 204.44,326.2 203.2,327.38 201.97,328.56 200.56,329.93 199.16,331.3 197.78,332.69 196.43,334.05 195.07,335.42 193.75,336.81 192.38,338.26 191.03,339.74 189.69,341.22 189.53,341.39 189.37,341.55 189.22,341.72 188.06,343 186.92,344.29 185.78,345.59 184.54,347.02 183.34,348.46 182.13,349.91 182.08,349.96 182.02,350.01 181.97,350.06 141.47,398.44 117.06,460.79 117.06,528.84 117.06,682.5 241.44,807.18 394.72,807.18 463.4,807.18 526.26,782.11 574.75,740.65 L 574.78,740.68 C 575.17,740.35 575.56,740.02 575.94,739.68 576.1,739.55 576.25,739.41 576.41,739.28 577.35,738.46 578.29,737.64 579.22,736.81 579.96,736.15 580.68,735.5 581.41,734.84 581.62,734.65 581.83,734.47 582.03,734.28 583,733.39 583.95,732.49 584.91,731.59 585.77,730.78 586.62,729.97 587.47,729.15 587.59,729.04 587.7,728.92 587.82,728.81 588.9,727.75 589.96,726.69 591.03,725.62 591.35,725.31 591.66,725 591.97,724.68 593.22,723.42 594.46,722.13 595.69,720.84 595.81,720.71 595.94,720.59 596.07,720.46 597.47,718.98 598.88,717.48 600.25,715.96 601.51,714.57 602.74,713.16 603.97,711.75 604.2,711.48 604.43,711.23 604.66,710.96 605.71,709.75 606.75,708.52 607.78,707.28 648.11,658.95 672.41,596.73 672.41,528.84 672.41,375.18 548,250.46 394.72,250.46 z M 394.72,312.53 C 513.83,312.53 610.5,409.44 610.5,528.84 610.5,579.69 592.99,626.46 563.66,663.4 L 259.16,360.62 C 296.21,330.56 343.37,312.53 394.72,312.53 z M 226.1,393.94 530.66,696.78 C 493.54,727.02 446.24,745.15 394.72,745.15 275.61,745.15 178.97,648.24 178.97,528.84 178.97,477.84 196.61,430.93 226.1,393.93 z"
             id="path12"
             style="fill:#cc0000;stroke:#cc0000;stroke-width:2;" />
    </g>
</svg>
