<?xml version="1.0" encoding="UTF-8" standalone="no"?>
<svg
     xmlns:svg="http://www.w3.org/2000/svg"
     xmlns="http://www.w3.org/2000/svg"
     version="1.0"
     width="575"
     height="575"
     id="svg2">
    <defs
         id="defs24" />
    <path d="M 574.06,287.5 A 286.57,285.25 0 1 1 0.93,287.5 286.57,285.25 0 1 1 574.06,287.5 z"
         style="fill:#ffffff;stroke:#000000;stroke-width:1;stroke-linecap:square;stroke-miterlimit:4;" />
    <g transform="matrix(0.86734,0.49772,-0.49772,0.86734,-490.07,-771.87)"
         style="fill:#000000">
        <path
             d="M 1159.9,409.65 1159.9,439.43 1162.6,439.43 1162.6,486.81 1156,486.81 1156,720.03 1247.5,720.03 1247.5,486.81 1174.6,486.81 1174.6,439.43 1177.3,439.43 1177.3,409.65 1159.9,409.65 z M 1179.4,563.15 C 1183.6,563.15 1187.1,566.58 1187.1,570.81 1187.1,575.03 1183.6,578.46 1179.4,578.46 1175.2,578.46 1171.7,575.03 1171.7,570.81 1171.7,566.58 1175.2,563.15 1179.4,563.15 z M 1201.7,563.15 C 1206,563.15 1209.4,566.58 1209.4,570.81 1209.4,575.03 1206,578.46 1201.7,578.46 1197.5,578.46 1194.1,575.03 1194.1,570.81 1194.1,566.58 1197.5,563.15 1201.7,563.15 z M 1224.1,563.15 C 1228.3,563.15 1231.7,566.58 1231.7,570.81 1231.7,575.03 1228.3,578.46 1224.1,578.46 1219.8,578.46 1216.4,575.03 1216.4,570.81 1216.4,566.58 1219.8,563.15 1224.1,563.15 z M 1179.4,585.49 C 1183.6,585.49 1187.1,588.93 1187.1,593.15 1187.1,597.37 1183.6,600.78 1179.4,600.78 1175.2,600.78 1171.7,597.37 1171.7,593.15 1171.7,588.93 1175.2,585.49 1179.4,585.49 z M 1201.7,585.49 C 1206,585.49 1209.4,588.93 1209.4,593.15 1209.4,597.37 1206,600.78 1201.7,600.78 1197.5,600.78 1194.1,597.37 1194.1,593.15 1194.1,588.93 1197.5,585.49 1201.7,585.49 z M 1224.1,585.49 C 1228.3,585.49 1231.7,588.93 1231.7,593.15 1231.7,597.37 1228.3,600.78 1224.1,600.78 1219.8,600.78 1216.4,597.37 1216.4,593.15 1216.4,588.93 1219.8,585.49 1224.1,585.49 z M 1179.4,607.81 C 1183.6,607.81 1187.1,611.24 1187.1,615.46 1187.1,619.68 1183.6,623.12 1179.4,623.12 1175.2,623.12 1171.7,619.68 1171.7,615.46 1171.7,611.24 1175.2,607.81 1179.4,607.81 z M 1201.7,607.81 C 1206,607.81 1209.4,611.24 1209.4,615.46 1209.4,619.68 1206,623.12 1201.7,623.12 1197.5,623.12 1194.1,619.68 1194.1,615.46 1194.1,611.24 1197.5,607.81 1201.7,607.81 z M 1224.1,607.81 C 1228.3,607.81 1231.7,611.24 1231.7,615.46 1231.7,619.68 1228.3,623.12 1224.1,623.12 1219.8,623.12 1216.4,619.68 1216.4,615.46 1216.4,611.24 1219.8,607.81 1224.1,607.81 z M 1179.4,630.12 C 1183.6,630.12 1187.1,633.55 1187.1,637.77 1187.1,642 1183.6,645.43 1179.4,645.43 1175.2,645.43 1171.7,642 1171.7,637.77 1171.7,633.55 1175.2,630.12 1179.4,630.12 z M 1201.7,630.12 C 1206,630.12 1209.4,633.55 1209.4,637.77 1209.4,642 1206,645.43 1201.7,645.43 1197.5,645.43 1194.1,642 1194.1,637.77 1194.1,633.55 1197.5,630.12 1201.7,630.12 z M 1224.1,630.12 C 1228.3,630.12 1231.7,633.55 1231.7,637.77 1231.7,642 1228.3,645.43 1224.1,645.43 1219.8,645.43 1216.4,642 1216.4,637.77 1216.4,633.55 1219.8,630.12 1224.1,630.12 z M 1179.4,634.68 C 1177.7,634.68 1176.3,636.05 1176.3,637.77 1176.3,639.49 1177.7,640.9 1179.4,640.9 1181.1,640.9 1182.5,639.49 1182.5,637.77 1182.5,636.05 1181.1,634.68 1179.4,634.68 z M 1224.1,634.68 C 1222.3,634.68 1220.9,636.05 1220.9,637.77 1220.9,639.49 1222.3,640.9 1224.1,640.9 1225.8,640.9 1227.2,639.49 1227.2,637.77 1227.2,636.05 1225.8,634.68 1224.1,634.68 z M 1193.7,679.81 1209.7,679.81 C 1214,679.81 1217.3,683.22 1217.3,687.46 1217.3,691.7 1214,695.12 1209.7,695.12 H 1193.7 C 1189.5,695.12 1186.1,691.7 1186.1,687.46 1186.1,683.22 1189.5,679.81 1193.7,679.81 z" />
        <g
             id="g12">
            <path
                 d="M 1020.6,74.125 C 1008,88.807 1000.3,107.89 1000.3,128.75 1000.3,149.6 1008,168.67 1020.6,183.34 L 1026.6,178.16 C 1015.2,164.88 1008.3,147.62 1008.3,128.75 1008.3,109.87 1015.2,92.598 1026.6,79.312 L 1020.6,74.125 z M 1147.8,74.125 1141.8,79.313 C 1153.2,92.599 1160.1,109.87 1160.1,128.75 1160.1,147.62 1153.2,164.88 1141.8,178.16 L 1147.8,183.34 C 1160.4,168.67 1168.1,149.6 1168.1,128.75 1168.1,107.89 1160.4,88.808 1147.8,74.125 z"
                 transform="translate(84.421,288.21)" />
            <path
                 d="M 1040,90.844 C 1031.2,101.04 1025.9,114.27 1025.9,128.75 1025.9,143.22 1031.2,156.47 1040,166.66 L 1046,161.47 C 1038.5,152.67 1033.9,141.25 1033.9,128.75 1033.9,116.24 1038.4,104.8 1046,96 L 1040,90.843 z M 1128.4,90.844 1122.4,96.031 C 1129.9,104.83 1134.5,116.25 1134.5,128.75 1134.5,141.25 1129.9,152.67 1122.4,161.47 L 1128.4,166.66 C 1137.1,156.47 1142.4,143.22 1142.4,128.75 1142.4,114.27 1137.1,101.04 1128.4,90.845 z"
                 transform="translate(84.421,288.21)" />
            <path
                 d="M 1059.4,107.53 C 1054.5,113.24 1051.6,120.65 1051.6,128.75 1051.6,136.84 1054.5,144.26 1059.4,149.97 L 1065.4,144.78 C 1061.7,140.46 1059.5,134.86 1059.5,128.75 1059.5,122.63 1061.7,117.04 1065.4,112.72 L 1059.4,107.53 z M 1109,107.53 1103,112.72 C 1106.7,117.04 1108.9,122.63 1108.9,128.75 1108.9,134.86 1106.7,140.46 1103,144.78 L 1109,149.94 C 1113.9,144.23 1116.9,136.83 1116.9,128.75 1116.9,120.65 1113.9,113.24 1109,107.53 z"
                 transform="translate(84.421,288.21)" />
        </g>
    </g>
    <path
         d="M 287.48,9.1495 C 218.95,9.1495 156.2,34.097 107.76,75.4 106.49,76.483 105.23,77.575 103.98,78.681 103.48,79.125 102.98,79.576 102.48,80.025 101.41,80.985 100.35,81.954 99.291,82.931 99.01,83.191 98.728,83.45 98.448,83.712 97.198,84.877 95.956,86.055 94.729,87.243 93.321,88.605 91.92,89.977 90.541,91.368 89.188,92.733 87.835,94.1 86.51,95.493 85.136,96.939 83.791,98.424 82.448,99.899 82.294,100.07 82.132,100.23 81.979,100.4 80.817,101.68 79.679,102.97 78.541,104.27 77.299,105.7 76.099,107.14 74.885,108.59 74.838,108.64 74.776,108.69 74.729,108.74 34.233,157.12 9.8229,219.47 9.8229,287.52 9.8229,441.18 134.2,565.86 287.48,565.86 356.16,565.86 419.02,540.79 467.51,499.33 L 467.54,499.36 C 467.93,499.03 468.32,498.7 468.7,498.36 468.86,498.23 469.01,498.09 469.17,497.96 470.11,497.14 471.05,496.32 471.98,495.49 472.72,494.83 473.44,494.18 474.17,493.52 474.38,493.33 474.59,493.15 474.79,492.96 475.76,492.07 476.71,491.17 477.67,490.27 478.53,489.46 479.38,488.65 480.23,487.83 480.35,487.72 480.46,487.6 480.58,487.49 481.66,486.43 482.72,485.37 483.79,484.3 484.11,483.99 484.42,483.68 484.73,483.36 485.98,482.1 487.22,480.81 488.45,479.52 488.57,479.39 488.7,479.27 488.83,479.14 490.23,477.66 491.64,476.16 493.01,474.64 494.27,473.25 495.5,471.84 496.73,470.43 496.96,470.16 497.19,469.91 497.42,469.64 498.47,468.43 499.51,467.19 500.54,465.96 540.87,417.63 565.17,355.41 565.17,287.52 565.17,133.86 440.76,9.1369 287.48,9.1369 z M 287.48,71.212 C 406.59,71.212 503.26,168.12 503.26,287.52 503.26,338.37 485.75,385.14 456.42,422.08 L 151.92,119.3 C 188.98,89.242 236.13,71.21 287.48,71.21 z M 118.86,152.62 423.42,455.46 C 386.3,485.7 339,503.83 287.48,503.83 168.37,503.83 71.73,406.92 71.73,287.52 71.73,236.52 89.366,189.61 118.86,152.61 z"
         id="path20"
         style="fill:#cc0000;stroke:none;" />
</svg>
