<?xml version="1.0" encoding="UTF-8" standalone="no"?>
<svg
     xmlns:svg="http://www.w3.org/2000/svg"
     xmlns="http://www.w3.org/2000/svg"
     version="1.0"
     width="575"
     height="575"
     id="svg2">
    <defs
         id="defs4" />
    <path
         d="M 574.07,287.5 C 574.07,445.77 445.77,574.07 287.5,574.07 129.23,574.07 0.93,445.77 0.93,287.5 0.93,129.23 129.23,0.93 287.5,0.93 445.77,0.93 574.07,129.23 574.07,287.5 z"
         id="path8"
         style="fill:#ffffff;stroke:#000000;stroke-width:1;stroke-linecap:square;stroke-miterlimit:4;" />
    <g
         transform="translate(0,1)"
         id="g10">
        <path
             d="M 216.6,238.53 C 218.27,228.25 226.21,222.02 238.09,220.94 H 272.48 C 281.28,222.79 289.63,226.77 289.67,238.53 V 302.51 C 289.67,308.11 275.06,308.91 275.22,302.51 L 275.34,244.2 272.48,244.31 V 380.08 C 272.48,386.48 255.28,386.48 255.28,380.08 V 297.21 C 254.55,295.59 253.58,295.12 252.67,297.06 L 252.19,380.08 C 251.84,386.48 235.51,386.48 235.51,380.08 L 235.19,243.96 232.36,243.85 232.24,302.51 C 232.07,308.1 216.6,308.9 216.6,302.51 z M 269.31,202.71 A 15.043,13.996 0 0 1 239.23,202.71 15.043,13.996 0 1 1 269.31,202.71 z"
             id="path12"
             style="color:#000000;fill:#000000;" />
        <path
             d="M 301.82,270.42 C 303.1,262.54 309.19,257.76 318.3,256.93 H 344.66 C 351.41,258.35 357.81,261.4 357.84,270.42 V 319.47 C 357.84,323.77 346.64,324.38 346.76,319.47 L 346.85,274.77 344.66,274.85 V 378.95 C 344.66,383.86 331.48,383.86 331.48,378.95 V 315.41 C 330.91,314.17 330.18,313.81 329.48,315.3 L 329.11,378.95 C 328.84,383.86 316.32,383.86 316.32,378.95 L 316.08,274.59 313.9,274.51 313.81,319.48 C 313.68,323.77 301.82,324.38 301.82,319.48 z M 342.24,242.96 A 11.534,10.731 0 0 1 319.17,242.96 11.534,10.731 0 1 1 342.24,242.96 z"
             id="path14"
             style="color:#000000;fill:#000000;" />
        <path
             d="M 417.7,242.54 C 407.57,220.42 408.84,200.87 393.67,191.59 427.51,187.97 427.21,213.94 445.55,244.28 454.9,259.76 459.65,262.65 474.77,273.3 458.26,274.99 439.14,277.48 417.7,242.54 z M 474.08,338.82 C 460.78,351.5 440.62,349.9 427.01,339 415.04,325.98 409.59,311.38 389.46,307.81 421.19,286.88 436.73,317.76 445.31,325.69 456.55,335.39 464.65,334.79 474.08,338.82 z M 480.57,287.32 480.57,321.54 C 429.42,311.06 400.9,284.29 402.4,241.07 425.75,271.56 449.5,286.57 480.57,287.32 z M 399.44,336.86 C 433.75,360.75 440.71,354.17 466.98,354.44 L 455.65,384.76 C 424.45,384.34 401.15,363.12 399.44,336.86 z M 473.35,223.41 474.49,256.19 C 443.17,239.5 431.64,207.53 442.21,177.35 452.85,202.35 453.04,212.48 473.34,223.41 z"
             id="path16"
             style="fill:#000000" />
        <rect
             width="183.68"
             height="234.4"
             x="196.89"
             y="170.31"
             id="rect18"
             style="color:#000000;fill:none;stroke:#000000;stroke-width:15;stroke-linecap:butt;stroke-linejoin:miter;stroke-miterlimit:4;" />
        <path
             d="M 288.63,96.725 289.62,96.725 289.62,149.31 288.63,149.31 z M 282.6,152.56 294.75,152.56 294.75,159.03 282.6,159.03 z"
             id="path20"
             style="color:#000000;fill:none;stroke:#000000;stroke-width:9;stroke-linecap:butt;stroke-linejoin:miter;stroke-miterlimit:4;" />
        <path
             d="M 288.63,476.91 289.62,476.91 289.62,424.33 288.63,424.33 z M 282.6,421.08 294.75,421.08 294.75,414.61 282.6,414.61 z"
             id="path22"
             style="color:#000000;fill:none;stroke:#000000;stroke-width:9;stroke-linecap:butt;stroke-linejoin:miter;stroke-miterlimit:4;" />
    </g>
    <path
         d="M 287.48,9.1495 C 218.95,9.1495 156.2,34.097 107.76,75.4 106.49,76.483 105.23,77.575 103.98,78.681 103.48,79.125 102.98,79.576 102.48,80.025 101.41,80.985 100.35,81.954 99.291,82.931 99.01,83.191 98.728,83.45 98.448,83.712 97.198,84.877 95.956,86.055 94.729,87.243 93.321,88.605 91.92,89.977 90.541,91.368 89.188,92.733 87.835,94.1 86.51,95.493 85.136,96.939 83.791,98.424 82.448,99.899 82.294,100.07 82.132,100.23 81.979,100.4 80.817,101.68 79.679,102.97 78.541,104.27 77.299,105.7 76.099,107.14 74.885,108.59 74.838,108.64 74.776,108.69 74.729,108.74 34.233,157.12 9.8229,219.47 9.8229,287.52 9.8229,441.18 134.2,565.86 287.48,565.86 356.16,565.86 419.02,540.79 467.51,499.33 L 467.54,499.36 C 467.93,499.03 468.32,498.7 468.7,498.36 468.86,498.23 469.01,498.09 469.17,497.96 470.11,497.14 471.05,496.32 471.98,495.49 472.72,494.83 473.44,494.18 474.17,493.52 474.38,493.33 474.59,493.15 474.79,492.96 475.76,492.07 476.71,491.17 477.67,490.27 478.53,489.46 479.38,488.65 480.23,487.83 480.35,487.72 480.46,487.6 480.58,487.49 481.66,486.43 482.72,485.37 483.79,484.3 484.11,483.99 484.42,483.68 484.73,483.36 485.98,482.1 487.22,480.81 488.45,479.52 488.57,479.39 488.7,479.27 488.83,479.14 490.23,477.66 491.64,476.16 493.01,474.64 494.27,473.25 495.5,471.84 496.73,470.43 496.96,470.16 497.19,469.91 497.42,469.64 498.47,468.43 499.51,467.19 500.54,465.96 540.87,417.63 565.17,355.41 565.17,287.52 565.17,133.86 440.76,9.1369 287.48,9.1369 z M 287.48,71.212 C 406.59,71.212 503.26,168.12 503.26,287.52 503.26,338.37 485.75,385.14 456.42,422.08 L 151.92,119.3 C 188.98,89.242 236.13,71.21 287.48,71.21 z M 118.86,152.62 423.42,455.46 C 386.3,485.7 339,503.83 287.48,503.83 168.37,503.83 71.73,406.92 71.73,287.52 71.73,236.52 89.366,189.61 118.86,152.61 z"
         id="path24"
         style="fill:#cc0000;stroke:none;" />
</svg>
