<?xml version="1.0" encoding="UTF-8" standalone="no"?>
<svg
     xmlns:svg="http://www.w3.org/2000/svg"
     xmlns="http://www.w3.org/2000/svg"
     version="1.0"
     width="575px"
     height="575px"
     id="svg2">
    <defs
         id="defs14" />
    <path
         d="M 574.07,287.5 C 574.07,445.77 445.77,574.07 287.5,574.07 129.23,574.07 0.93,445.77 0.93,287.5 0.93,129.23 129.23,0.93 287.5,0.93 445.77,0.93 574.07,129.23 574.07,287.5 z"
         id="path6"
         style="fill:#ffffff;stroke:#000000;stroke-width:1;stroke-linecap:square;stroke-miterlimit:4;" />
    <path
         d="M 147.03,420.12 C 140.38,410.63 141.02,390.11 148.55,371.01 154.26,356.51 154.71,350.44 153.18,308.34 149.93,218.7 149.9,203.05 153.03,201.9 154.73,201.28 161.73,210.31 168.59,221.98 L 181.06,243.19 196.38,244.17 C 211.67,245.14 211.76,245.21 261.9,295.1 289.52,322.58 312.11,345.88 312.11,346.88 312.11,347.88 292.3,344.08 268.09,338.44 243.88,332.79 221.78,328.16 218.97,328.15 215.9,328.15 206.38,339.81 195.03,357.51 178.51,383.27 176.2,388.74 176.2,402.07 176.2,419.09 170.8,426.98 159.16,426.98 155.09,426.98 149.7,423.93 147.03,420.12 z M 323.1,420.12 C 319.59,415.1 318.29,405.54 318.29,384.6 318.29,368.84 319.39,355.94 320.72,355.94 322.06,355.94 329.71,362.59 337.71,370.72 350.71,383.91 352.27,386.98 352.27,399.38 352.27,415.93 345.46,426.99 335.28,426.99 331.16,426.99 325.78,423.95 323.1,420.12 z M 313.84,287.97 270.78,244.74 293.82,244.74 316.86,244.74 347.23,275.22 377.6,305.71 369.16,318.47 C 364.52,325.49 359.86,331.22 358.81,331.22 357.76,331.21 337.53,311.75 313.84,287.97 z M 359.97,257.07 332.27,229.25 368.53,192.99 404.78,156.74 404.78,171.33 C 404.78,185.17 405.4,186.24 416.76,192.03 428.79,198.17 432.58,203.39 432.58,213.81 432.58,217.22 438.07,222.66 446.48,227.59 454.13,232.07 460.38,236.44 460.38,237.3 460.38,238.16 458.26,242.97 455.67,247.98 451.09,256.83 450.3,257.09 428,257.09 H 405.04 L 396.89,270.99 C 392.41,278.64 388.5,284.89 388.21,284.89 387.91,284.89 375.2,272.37 359.97,257.07 z"
         id="path8"
         style="fill:#081313" />
    <path
         d="M 287.48,9.1495 C 218.95,9.1495 156.2,34.097 107.76,75.4 106.49,76.483 105.23,77.575 103.98,78.681 103.48,79.125 102.98,79.576 102.48,80.025 101.41,80.985 100.35,81.954 99.291,82.931 99.01,83.191 98.728,83.45 98.448,83.712 97.198,84.877 95.956,86.055 94.729,87.243 93.321,88.605 91.92,89.977 90.541,91.368 89.188,92.733 87.835,94.1 86.51,95.493 85.136,96.939 83.791,98.424 82.448,99.899 82.294,100.07 82.132,100.23 81.979,100.4 80.817,101.68 79.679,102.97 78.541,104.27 77.299,105.7 76.099,107.14 74.885,108.59 74.838,108.64 74.776,108.69 74.729,108.74 34.233,157.12 9.8229,219.47 9.8229,287.52 9.8229,441.18 134.2,565.86 287.48,565.86 356.16,565.86 419.02,540.79 467.51,499.33 L 467.54,499.36 C 467.93,499.03 468.32,498.7 468.7,498.36 468.86,498.23 469.01,498.09 469.17,497.96 470.11,497.14 471.05,496.32 471.98,495.49 472.72,494.83 473.44,494.18 474.17,493.52 474.38,493.33 474.59,493.15 474.79,492.96 475.76,492.07 476.71,491.17 477.67,490.27 478.53,489.46 479.38,488.65 480.23,487.83 480.35,487.72 480.46,487.6 480.58,487.49 481.66,486.43 482.72,485.37 483.79,484.3 484.11,483.99 484.42,483.68 484.73,483.36 485.98,482.1 487.22,480.81 488.45,479.52 488.57,479.39 488.7,479.27 488.83,479.14 490.23,477.66 491.64,476.16 493.01,474.64 494.27,473.25 495.5,471.84 496.73,470.43 496.96,470.16 497.19,469.91 497.42,469.64 498.47,468.43 499.51,467.19 500.54,465.96 540.87,417.63 565.17,355.41 565.17,287.52 565.17,133.86 440.76,9.1369 287.48,9.1369 z M 287.48,71.212 C 406.59,71.212 503.26,168.12 503.26,287.52 503.26,338.37 485.75,385.14 456.42,422.08 L 151.92,119.3 C 188.98,89.242 236.13,71.21 287.48,71.21 z M 118.86,152.62 423.42,455.46 C 386.3,485.7 339,503.83 287.48,503.83 168.37,503.83 71.73,406.92 71.73,287.52 71.73,236.52 89.366,189.61 118.86,152.61 z"
         id="path10"
         style="fill:#cc0000;stroke:none;" />
</svg>
