<?xml version="1.0" encoding="UTF-8" standalone="no"?>
<svg
     xmlns:svg="http://www.w3.org/2000/svg"
     xmlns="http://www.w3.org/2000/svg"
     version="1.0"
     width="575"
     height="575"
     id="svg2">
    <defs
         id="defs16" />
    <g transform="translate(-107.23,-241.31)"
         id="g6">
        <path
             d="M -45.024,125.63 C -45.024,143.68 -61.118,158.31 -80.971,158.31 -100.82,158.31 -116.92,143.68 -116.92,125.63 -116.92,107.58 -100.82,92.951 -80.971,92.951 -61.118,92.951 -45.024,107.58 -45.024,125.63 z"
             transform="matrix(7.9719,0,0,8.7691,1040.2,-572.86)"
             style="fill:#ffffff;stroke:#000000;stroke-width:0.125;stroke-linecap:square;stroke-miterlimit:4;" />
        <path
             d="M 455.23,625.56 C 423.67,602.51 413.37,594.1 401.82,581.99 388.82,568.36 369.19,540.62 371.16,538.67 371.68,538.14 392.82,558.44 418.13,583.78 461.26,626.96 468.83,635.5 455.23,625.56 z M 226.21,609.56 C 215.31,603.78 214.9,601.73 214.83,553.36 214.77,515.75 215.19,508.88 217.81,505.16 222.99,497.79 231.45,495.62 254.93,495.62 274.18,495.62 276.53,495.97 276.67,498.88 276.76,500.68 276.97,505.08 277.14,508.67 277.42,514.67 277.96,515.24 283.87,515.8 294.61,516.82 302.35,514.58 303.86,510 304.61,507.73 305.41,499.58 305.64,491.89 305.87,484.2 306.14,476.71 306.25,475.25 306.4,473.35 307.78,473.84 311.13,476.97 315.3,480.88 315.81,482.85 315.81,495.1 315.81,517.76 310.64,523.74 289.61,525.41 277.56,526.37 277.45,526.43 277.45,531.97 V 537.57 L 304.11,538.08 330.78,538.6 330.75,566.98 C 330.72,598.42 329.76,602.08 319.72,608.82 313.6,612.93 312.01,613.07 272.96,613 237.71,612.93 231.73,612.49 226.21,609.56 z M 317.68,598.16 C 321.01,594.85 321.42,591.95 321.42,572.11 V 549.79 L 294.76,549.27 268.09,548.75 267.15,527.31 266.22,505.87 H 247.82 C 231.77,505.87 229.08,506.33 226.77,509.49 224.67,512.35 224.12,521.67 224.12,554.09 224.12,589.61 224.53,595.52 227.21,598.48 230.04,601.59 233.99,601.89 272.12,601.89 311.44,601.89 314.16,601.67 317.68,598.16 z M 434.17,538.89 C 394.8,499.53 362.59,466.53 362.59,465.56 362.59,460.28 373.06,444.6 381.49,437.25 390.89,429.06 391.16,428.56 390.26,420.63 389.75,416.14 387.09,409.08 384.35,404.96 367.22,379.16 325.62,385.46 316.74,415.2 L 315.42,419.62 311.5,415.71 C 307.76,411.99 307.72,411.53 310.63,405.46 315.96,394.32 324.8,386.02 335.64,381.98 347.95,377.39 354.94,377.2 368.1,381.1 385.02,386.1 400.02,404.66 400.02,420.59 400.02,424.05 401.16,424.35 413.59,424.21 431.48,424.01 441.48,428.56 457.93,444.38 L 470.66,456.63 482.25,444.6 C 496.52,429.8 508.28,424.14 524.59,424.23 539.17,424.32 550.67,429.35 561.93,440.57 566.7,445.32 572.85,453.99 575.59,459.83 579.98,469.2 580.57,472.75 580.58,490.03 580.6,507.21 579.89,511.57 574.82,525.67 565.34,552.06 542.37,582.25 516.76,601.99 L 505.75,610.47 434.17,538.9 z"
             style="fill:#091313" />
        <path
             d="M 394.72,250.47 C 326.19,250.47 263.44,275.42 215,316.72 213.73,317.8 212.47,318.9 211.22,320 210.72,320.45 210.22,320.9 209.72,321.35 208.65,322.31 207.59,323.27 206.53,324.25 206.25,324.51 205.97,324.77 205.69,325.03 204.44,326.2 203.2,327.38 201.97,328.56 200.56,329.93 199.16,331.3 197.78,332.69 196.43,334.05 195.07,335.42 193.75,336.81 192.38,338.26 191.03,339.74 189.69,341.22 189.53,341.39 189.37,341.55 189.22,341.72 188.06,343 186.92,344.29 185.78,345.59 184.54,347.02 183.34,348.46 182.13,349.91 182.08,349.96 182.02,350.01 181.97,350.06 141.47,398.44 117.06,460.79 117.06,528.84 117.06,682.5 241.44,807.18 394.72,807.18 463.4,807.18 526.26,782.11 574.75,740.65 L 574.78,740.68 C 575.17,740.35 575.56,740.02 575.94,739.68 576.1,739.55 576.25,739.41 576.41,739.28 577.35,738.46 578.29,737.64 579.22,736.81 579.96,736.15 580.68,735.5 581.41,734.84 581.62,734.65 581.83,734.47 582.03,734.28 583,733.39 583.95,732.49 584.91,731.59 585.77,730.78 586.62,729.97 587.47,729.15 587.59,729.04 587.7,728.92 587.82,728.81 588.9,727.75 589.96,726.69 591.03,725.62 591.35,725.31 591.66,725 591.97,724.68 593.22,723.42 594.46,722.13 595.69,720.84 595.81,720.71 595.94,720.59 596.07,720.46 597.47,718.98 598.88,717.48 600.25,715.96 601.51,714.57 602.74,713.16 603.97,711.75 604.2,711.48 604.43,711.23 604.66,710.96 605.71,709.75 606.75,708.52 607.78,707.28 648.11,658.95 672.41,596.73 672.41,528.84 672.41,375.18 548,250.46 394.72,250.46 z M 394.72,312.53 C 513.83,312.53 610.5,409.44 610.5,528.84 610.5,579.69 592.99,626.46 563.66,663.4 L 259.16,360.62 C 296.21,330.56 343.37,312.53 394.72,312.53 z M 226.1,393.94 530.66,696.78 C 493.54,727.02 446.24,745.15 394.72,745.15 275.61,745.15 178.97,648.24 178.97,528.84 178.97,477.84 196.61,430.93 226.1,393.93 z"
             style="fill:#cc0000;stroke:#cc0000;stroke-width:2;" />
    </g>
</svg>
