<?xml version="1.0" encoding="UTF-8" standalone="no"?>
<svg
     xmlns:svg="http://www.w3.org/2000/svg"
     xmlns="http://www.w3.org/2000/svg"
     version="1.0"
     width="575px"
     height="575px"
     id="svg2">
    <defs
         id="defs14" />
    <path
         d="M 574.06,287.5 C 574.06,445.77 445.76,574.07 287.49,574.07 129.23,574.07 0.93,445.77 0.93,287.5 0.93,129.24 129.23,0.93 287.5,0.93 445.77,0.93 574.07,129.23 574.07,287.5 z"
         style="fill:#ffffff;stroke:#000000;stroke-width:1;stroke-linecap:square;" />
    <path
         d="M 268.58,367.36 C 244.68,317 251.4,296.13 261.83,256.5 272.04,217.7 253.36,163.49 225.81,145.07 189.58,120.85 158.03,131.05 137.46,173.77 122.49,204.85 113.74,239.49 134.08,288.57 153.05,334.35 154.2,337.25 162.78,379.74 171.31,421.95 181.68,442.39 195.42,449.52 240.37,472.85 262.48,443.5 266.89,436.02 272.5,426.5 284.05,399.94 268.58,367.36 z M 307.89,367.36 C 331.8,317 325.08,296.13 314.65,256.5 304.44,217.7 323.12,163.49 350.66,145.07 386.89,120.85 418.45,131.05 439.02,173.77 453.98,204.85 462.73,239.49 442.39,288.57 423.43,334.35 422.28,337.25 413.69,379.74 405.17,421.95 394.8,442.39 381.05,449.52 336.11,472.85 313.99,443.5 309.58,436.02 303.98,426.5 292.43,399.94 307.89,367.36 z"
         style="fill:#000000;fill-rule:evenodd" />
    <path
         d="M 287.48,9.1495 C 218.95,9.1495 156.2,34.097 107.76,75.4 106.49,76.483 105.23,77.575 103.98,78.681 103.48,79.125 102.98,79.576 102.48,80.025 101.41,80.985 100.35,81.954 99.291,82.931 99.01,83.191 98.728,83.45 98.448,83.712 97.198,84.877 95.956,86.055 94.729,87.243 93.321,88.605 91.92,89.977 90.541,91.368 89.188,92.733 87.835,94.1 86.51,95.493 85.136,96.939 83.791,98.424 82.448,99.899 82.294,100.07 82.132,100.23 81.979,100.4 80.817,101.68 79.679,102.97 78.541,104.27 77.299,105.7 76.099,107.14 74.885,108.59 74.838,108.64 74.776,108.69 74.729,108.74 34.233,157.12 9.8229,219.47 9.8229,287.52 9.8229,441.18 134.2,565.86 287.48,565.86 356.16,565.86 419.02,540.79 467.51,499.33 L 467.54,499.36 C 467.93,499.03 468.32,498.7 468.7,498.36 468.86,498.23 469.01,498.09 469.17,497.96 470.11,497.14 471.05,496.32 471.98,495.49 472.72,494.83 473.44,494.18 474.17,493.52 474.38,493.33 474.59,493.15 474.79,492.96 475.76,492.07 476.71,491.17 477.67,490.27 478.53,489.46 479.38,488.65 480.23,487.83 480.35,487.72 480.46,487.6 480.58,487.49 481.66,486.43 482.72,485.37 483.79,484.3 484.11,483.99 484.42,483.68 484.73,483.36 485.98,482.1 487.22,480.81 488.45,479.52 488.57,479.39 488.7,479.27 488.83,479.14 490.23,477.66 491.64,476.16 493.01,474.64 494.27,473.25 495.5,471.84 496.73,470.43 496.96,470.16 497.19,469.91 497.42,469.64 498.47,468.43 499.51,467.19 500.54,465.96 540.87,417.63 565.17,355.41 565.17,287.52 565.17,133.86 440.76,9.1368 287.48,9.1368 z M 287.48,71.212 C 406.59,71.212 503.26,168.12 503.26,287.52 503.26,338.37 485.75,385.14 456.42,422.08 L 151.92,119.3 C 188.98,89.242 236.13,71.21 287.48,71.21 z M 118.86,152.62 423.42,455.46 C 386.3,485.7 339,503.83 287.48,503.83 168.37,503.83 71.73,406.92 71.73,287.52 71.73,236.52 89.366,189.61 118.86,152.61 z"
         style="fill:#CC0000;stroke:#CC0000;stroke-width:2;" />
</svg>
