<?xml version="1.0" encoding="UTF-8" standalone="no"?>
<svg
     xmlns:svg="http://www.w3.org/2000/svg"
     xmlns="http://www.w3.org/2000/svg"
     version="1.0"
     width="575"
     height="575"
     id="svg2">
    <defs
         id="defs20" />
    <path
         d="M 574.07,287.5 A 286.57,284.88 0 1 1 0.94,287.5 286.57,284.88 0 1 1 574.07,287.5 z"
         id="path6"
         style="fill:#ffffff;stroke:#000000;stroke-width:1;stroke-linecap:square;stroke-miterlimit:4;" />
    <g transform="translate(604.68,0)">
        <g transform="matrix(1.1414,0,0,1.1414,245.54,-98.124)"
             style="fill:#000000;stroke:#000000">
            <path d="M -501.18,175.99 -593.83,410.61 -634.9,397.63 -639.93,413.24 C -621.01,417.8 -601.09,426.31 -582.35,430.86 L -576.11,409.3 H -550.71 C -549.95,423.44 -541.79,437.72 -526.62,437.76 -511.38,439.04 -497.92,428.11 -497.15,410.05 L -435.88,409.81 C -437.68,430.1 -414.92,436.95 -405.39,437.25 -391.94,437.25 -375.66,425.29 -374.89,410.05 L -339.57,409.81 -339.06,334.05 C -340.28,320.3 -345.97,314.81 -358.55,314.3 H -390.77 L -390.57,225.19 C -390.13,216.25 -397.74,209.32 -406.88,208.28 L -472.38,208.52 C -480.68,210.43 -484.22,212.77 -488.22,221.42 -508.64,273.37 -525.77,316.69 -544.45,367.77 L -557.82,367.51 -486.24,181.35 z M -475.27,226.77 C -474.27,224.66 -473.82,222.48 -468.22,221.03 L -411.57,220.36 C -407.1,220.45 -404.94,223.77 -404.14,227.75 V 314.3 H -413.55 L -414.32,266.35 C -414.32,263.67 -417.18,261.48 -420.11,261.35 L -426.75,261.1 C -429.16,261 -433.3,264.54 -434.23,266.25 L -445.04,287.35 -468.88,281.2 C -474.09,279.63 -477.86,289.32 -472.19,291.23 L -443.87,300.22 C -437.12,302.49 -439.49,299.68 -438.24,298.89 L -433.55,289.3 V 307.3 L -463.38,307.56 C -465.55,307.92 -466.56,309.41 -467.01,311.35 L -479.06,349.56 -512.88,349.3 -477.71,297.43 -470.91,303.7 C -464.96,305.08 -467.9,301.52 -467.49,299.82 L -482.19,281.3 C -485.16,280.96 -487.94,280.83 -486.89,285.18 L -481,292.35 -518.29,348.79 -528.55,349.3 z M -456.81,320.84 -449.57,320.07 -448.55,349.3 -465.22,349.56 z M -524.31,397.8 C -516.84,397.8 -510.81,403.87 -510.81,411.33 -510.81,418.8 -516.84,424.87 -524.31,424.87 -531.78,424.87 -537.84,418.8 -537.84,411.33 -537.84,403.87 -531.78,397.8 -524.31,397.8 z M -405.64,389.09 C -393.77,387.83 -387.79,399 -387.79,406.47 -387.79,413.94 -392.54,422.82 -404.36,423.58 -411.81,424.07 -422.51,414.43 -421.99,406.98 -421.22,395.92 -416.1,390.21 -405.64,389.09 z" />
            <path d="M -426.16,235.53 C -434.58,235.12 -438.51,247.02 -432.22,252.09 -426.58,259.07 -413.24,253.72 -414.57,244.5 -414.74,238.77 -420.77,234.85 -426.16,235.53 z" style="stroke-width:2.63" />
        </g>
    </g>
    <path
         d="M 287.48,9.1495 C 218.95,9.1495 156.2,34.097 107.76,75.4 106.49,76.483 105.23,77.575 103.98,78.681 103.48,79.125 102.98,79.576 102.48,80.025 101.41,80.985 100.35,81.954 99.291,82.931 99.01,83.191 98.728,83.45 98.448,83.712 97.198,84.877 95.956,86.055 94.729,87.243 93.321,88.605 91.92,89.977 90.541,91.368 89.188,92.733 87.835,94.1 86.51,95.493 85.136,96.939 83.791,98.424 82.448,99.899 82.294,100.07 82.132,100.23 81.979,100.4 80.817,101.68 79.679,102.97 78.541,104.27 77.299,105.7 76.099,107.14 74.885,108.59 74.838,108.64 74.776,108.69 74.729,108.74 34.233,157.12 9.8229,219.47 9.8229,287.52 9.8229,441.18 134.2,565.86 287.48,565.86 356.16,565.86 419.02,540.79 467.51,499.33 L 467.54,499.36 C 467.93,499.03 468.32,498.7 468.7,498.36 468.86,498.23 469.01,498.09 469.17,497.96 470.11,497.14 471.05,496.32 471.98,495.49 472.72,494.83 473.44,494.18 474.17,493.52 474.38,493.33 474.59,493.15 474.79,492.96 475.76,492.07 476.71,491.17 477.67,490.27 478.53,489.46 479.38,488.65 480.23,487.83 480.35,487.72 480.46,487.6 480.58,487.49 481.66,486.43 482.72,485.37 483.79,484.3 484.11,483.99 484.42,483.68 484.73,483.36 485.98,482.1 487.22,480.81 488.45,479.52 488.57,479.39 488.7,479.27 488.83,479.14 490.23,477.66 491.64,476.16 493.01,474.64 494.27,473.25 495.5,471.84 496.73,470.43 496.96,470.16 497.19,469.91 497.42,469.64 498.47,468.43 499.51,467.19 500.54,465.96 540.87,417.63 565.17,355.41 565.17,287.52 565.17,133.86 440.76,9.1369 287.48,9.1369 z M 287.48,71.212 C 406.59,71.212 503.26,168.12 503.26,287.52 503.26,338.37 485.75,385.14 456.42,422.08 L 151.92,119.3 C 188.98,89.242 236.13,71.21 287.48,71.21 z M 118.86,152.62 423.42,455.46 C 386.3,485.7 339,503.83 287.48,503.83 168.37,503.83 71.73,406.92 71.73,287.52 71.73,236.52 89.366,189.61 118.86,152.61 z"
         style="fill:#cc0000;stroke:#cc0000;stroke-width:2;" />
</svg>
