<?xml version="1.0" encoding="UTF-8" standalone="no"?>
<svg xmlns:svg="http://www.w3.org/2000/svg" xmlns="http://www.w3.org/2000/svg"
     version="1.1" width="575px" height="575px" viewBox="-4 -4 1192 1192">
    <defs />
	<circle cx="592" cy="592" r="592" style="fill:#ffffff; stroke:none;" />
    <g transform="translate(187.32,15.498)"
         id="layer1">
        <path
             d="M 511.44,750.73 404.44,750.47 297.43,750.22 297.16,721.47 296.9,692.72 375.14,692.72 453.38,692.72 M 438.48,677.72 359.73,677.72 280.98,677.72 280.7,770.97 280.43,864.22 277.32,870.72 C 272.76,880.24 267.18,885.99 258.17,890.45 250.79,894.09 250.17,894.22 239.96,894.22 230.05,894.22 228.97,894.02 222.77,890.96 212.7,886 206.15,878.9 201.36,867.72 199.54,863.49 199.4,859.64 198.93,802.81 L 198.43,742.39 158.91,784.81 C 120.87,825.63 119.11,827.36 111.87,831.05 97.81,838.21 81.586,836.97 68.73,827.76 62.068,822.99 55.603,813.85 53.304,805.94 50.77,797.22 51.726,784.88 55.571,776.7 59.131,769.13 52.363,776.67 143.27,678.94 220.37,596.05 217.41,598.85 230.48,596.71 233.87,596.15 262.43,595.73 296.93,595.73 L 357.43,595.72 M 337.44,442.73 373.92,390.6 C 398.73,355.13 411.99,337.06 415.41,334.04 421.92,328.29 436.56,321.07 445.43,319.21 459.4,316.3 473,317.9 486.09,324 503.65,332.18 515.12,344.85 521.61,363.22 L 524.43,371.22 524.7,500.72 524.96,630.22 M 587.42,692.72 692.17,692.72 796.93,692.72 796.93,721.72 796.93,750.72 721.18,750.72 645.43,750.72 M 394.75,493.01 394.43,490.27 392.6,493.08 C 390.83,495.8 390.83,495.95 392.6,497.92 L 394.43,499.95 394.75,497.85 C 394.92,496.69 394.92,494.52 394.75,493.01 z M 163.97,585.67 C 152.65,583.33 142.22,574.89 137.13,563.94 134.91,559.17 134.47,556.81 134.46,549.72 134.45,542.26 134.83,540.41 137.59,534.57 141.27,526.77 146.89,520.79 153.84,517.26 156.93,515.7 176.82,510.35 206.1,503.21 L 253.38,491.68 283.61,521.9 C 300.24,538.53 313.69,552.29 313.5,552.48 312.68,553.3 177.86,585.65 173.37,586.1 170.65,586.37 166.42,586.18 163.97,585.67 z M 450.93,298.79 C 415.23,293.83 389.62,264.77 389.64,229.22 389.65,196.91 410.58,169.7 442.06,161.09 450.7,158.73 468.15,158.74 476.93,161.11 501.72,167.81 520.92,187.01 527.54,211.72 529.68,219.73 529.95,236.99 528.05,244.72 526.08,252.77 518.82,267.36 513.49,274 505.41,284.06 490.17,293.67 476.86,297.09 469.53,298.97 457.78,299.74 450.93,298.79 z"
             id="path4336"
             style="fill:#000000" />
        <path
             d="M 365.41,1166.8 C 261.28,1159.9 157.16,1124.2 72.408,1066.2 -27.182,998.03 -101.67,905.13 -145.86,793.95 -204.24,647.06 -200.84,480.65 -136.48,336.13 -105.72,267.04 -63.277,206 -9.4569,153.44 51.87,93.549 119.81,50.634 201.41,20.242 305.16,-18.399 426.27,-26.089 535.41,-0.96373 673.26,30.77 791.09,107.01 876.86,219.95 917.19,273.06 950.81,338.64 969.9,401.45 1010.8,535.95 1003.8,676.93 949.96,805.45 903.56,916.17 823.26,1011.5 722.84,1075.1 636.91,1129.6 542.38,1160.3 440.93,1166.9 422.66,1168.1 383.85,1168.1 365.41,1166.8 z M 450.91,1052.5 C 508.83,1046.5 561.43,1031.8 611.91,1007.5 639.73,994.1 672.53,973.84 696.3,955.36 L 707.68,946.51 570.97,810.23 434.27,673.95 392.9,632.93 353.89,591.95 332.4,570.42 278.11,518.16 C 261.47,501.56 248.2,487.85 248.63,487.71 249.06,487.56 201.05,439.08 141.93,379.97 48.46,286.5 34.29,272.71 33.182,274.1 -29.096,352.18 -64.184,439.86 -72.603,538.45 -74.035,555.22 -74.037,597.75 -72.603,614.45 -67.198,677.53 -51.065,735.09 -23.178,790.77 23.873,884.71 100.17,960.15 194.91,1006.4 253.26,1034.9 309.98,1049.5 381.41,1054.4 392.38,1055.1 437.25,1053.9 450.91,1052.5 z M 786.79,863.66 C 821.49,817.44 846.42,768 863.29,711.95 872.46,681.49 878.39,649.41 881.41,613.95 882.78,597.92 882.79,554.12 881.42,537.95 874.74,458.53 850.28,386.08 807.01,317.62 777.81,271.4 734.98,225.64 688.75,191.26 631.87,148.97 560.65,118.1 490.91,105.51 457,99.395 432.12,97.518 394.41,98.234 365.04,98.791 350.59,100.08 324.09,104.5 268.41,113.79 211.36,134.49 162.89,162.99 143.78,174.23 112.51,195.93 104.13,203.78 L 101.35,206.38 217.58,322.62 C 281.52,386.56 333.95,438.74 334.1,438.59 334.25,438.44 346.16,450.15 360.58,464.6 L 392.91,496.87 583.35,687.91 C 688.1,792.98 774.14,878.95 774.56,878.95 774.98,878.95 780.48,872.07 786.79,863.66 z"
             id="path4349"
             style="fill:#CC0000;fill-opacity:1" />
    </g>
</svg>
