<?xml version="1.0" encoding="UTF-8" standalone="no"?>
<svg xmlns:svg="http://www.w3.org/2000/svg" xmlns="http://www.w3.org/2000/svg"
     version="1.1" width="575px" height="575px" viewBox="-4 -4 1192 1192">
    <defs />
	<circle cx="592" cy="592" r="592" style="fill:#ffffff; stroke:none;" />
    <g transform="translate(174.94,51.797)">
        <path d="M 492.59,960.31 C 492.3,959.55 491.95,906.77 491.82,843.02 L 491.57,727.1 481.07,722.94 C 468.94,718.13 456.46,711.95 447.11,706.12 422.42,690.73 398.38,667.82 381.86,643.93 362.39,615.79 348.97,579.65 345.09,544.93 344.54,539.98 344.08,535.49 344.08,534.94 344.07,534.4 351.5,541.37 360.57,550.43 369.65,559.5 377.07,567.65 377.07,568.56 377.07,571.94 385.38,594.3 390.58,604.93 404.94,634.27 428.02,660.56 455.59,678.99 471.99,689.94 488.67,697.51 513.07,705.05 537.73,726.27 554.13,744.28 574.32,764.43 595.5,787.09 616.35,804.23 630.07,820.94 L 630.07,866.18 630.07,911.41 625.86,914.07 C 618.07,918.98 589.74,932.4 574.59,938.35 554.64,946.18 537.19,951.73 517.66,956.46 496.64,961.54 493.25,962.07 492.59,960.31 z M 273.57,884.39 C 260.89,882.42 246.9,876.9 236.19,869.65 223.87,861.3 210.53,844.43 205.08,830.29 197.53,810.72 197.23,790.76 204.17,769.99 L 207.16,761.04 183.75,737.49 160.33,713.93 158.65,692.93 C 157.72,681.38 156.72,669.88 156.42,667.38 L 155.87,662.83 129.82,656.38 C 115.5,652.83 103.23,649.48 102.55,648.93 101.87,648.38 98.072,637.81 94.106,625.43 90.139,613.06 86.596,602.64 86.233,602.28 85.869,601.92 75.897,601.08 64.072,600.4 52.246,599.73 42.121,598.77 41.572,598.27 40.047,596.89 23.254,540.05 24.091,539.11 24.494,538.65 33.992,536.78 45.198,534.95 62.346,532.15 65.895,531.83 67.616,532.92 69.354,534.02 137.41,601.12 230.67,693.69 L 254.76,717.61 261.67,715.4 C 270.93,712.44 292.37,711.57 302.59,713.74 329.57,719.47 350.9,736.09 363.45,761.14 369.93,774.09 371.58,781.84 371.5,798.93 371.44,812.32 371.14,814.9 368.7,822.9 363.63,839.48 354.08,854.2 341.66,864.58 333.06,871.76 317.41,879.75 306.63,882.45 297.27,884.81 282,885.7 273.57,884.39 z M 319.75,841.59 C 327.19,837.77 331.37,830.92 331.43,822.43 331.51,810.3 321.71,800.43 309.57,800.43 297.46,800.43 288.14,809.95 288.09,822.37 288.03,838.81 305.03,849.14 319.75,841.59 z M 366.57,423.39 369.96,417.16 C 394.71,371.69 436.78,334.83 483.58,317.62 L 491.57,314.68 492.07,217.81 C 492.57,120.94 492.57,120.93 494.63,120.64 495.76,120.48 502.06,121.5 508.63,122.91 533.95,128.34 562.9,137.64 587.05,148.09 596.27,152.08 623.91,165.77 628.07,168.41 629.37,169.24 629.64,178.89 630.07,242 L 630.57,314.64 638.57,317.54 C 656.85,324.15 681.02,337.97 697.57,351.29 729.54,377 754.41,412.92 767.33,452.03 771.29,464 775.35,480.95 776.29,489.43 776.56,491.85 776.85,491.94 784.82,492.22 L 793.07,492.51 793.07,520.97 793.07,549.43 785.04,549.43 C 779.46,549.43 776.9,549.82 776.67,550.68 776.48,551.37 775.33,557.33 774.12,563.93 765.8,609.04 739.53,654.24 703.72,685.05 692.09,695.06 676.38,705.99 665.68,711.52 662.05,713.4 659.08,715.16 659.08,715.44 M 638.34,694.43 C 638.76,694.43 643.04,692.46 647.84,690.04 689.35,669.14 722.92,631.51 739.36,587.43 746.97,567.04 750.08,550.55 750.79,526.75 751.8,493.07 746.7,468.42 732.61,438.87 705.94,382.92 655.35,344.62 593.07,333.23 576.64,330.22 545.51,330.22 529.07,333.23 469.3,344.16 420.63,379.71 392.4,433.03 L 386.79,443.65 M 552,555.13 C 541.98,552.29 533.6,545.19 528.83,535.51 526.89,531.57 526.57,529.33 526.56,519.4 L 526.54,507.87 505.81,479.25 C 494.4,463.5 485.07,450.23 485.07,449.75 485.07,448.73 508.12,430.57 509.57,430.46 510.12,430.41 519.59,442.83 530.61,458.06 L 550.66,485.73 560.61,485.88 C 568.45,485.99 571.57,486.48 575.26,488.17 L 579.96,490.31 620.54,446.87 C 642.86,422.98 661.46,403.43 661.88,403.43 662.29,403.43 665.74,406.58 669.56,410.42 L 676.49,417.41 673.44,420.67 C 671.77,422.46 653.18,442.31 632.14,464.78 600.22,498.86 593.99,505.98 594.51,507.78 598.79,522.71 596.2,535.04 586.63,545.27 578.32,554.16 563.47,558.38 552,555.13 z"
             style="fill:#000000" />
        <path d="M 377.79,1130.5 C 273.66,1123.6 169.54,1087.9 84.787,1029.9 -14.803,961.73 -89.288,868.83 -133.48,757.65 -191.87,610.76 -188.46,444.35 -124.1,299.83 -93.336,230.74 -50.898,169.71 2.9222,117.14 64.249,57.249 132.19,14.334 213.79,-16.057 317.54,-54.699 438.65,-62.388 547.79,-37.263 685.63,-5.5293 803.47,70.708 889.24,183.65 929.57,236.76 963.19,302.34 982.28,365.15 1023.2,499.65 1016.2,640.64 962.34,769.15 915.93,879.87 835.64,975.22 735.22,1038.8 649.29,1093.3 554.76,1124 453.3,1130.6 435.04,1131.8 396.23,1131.8 377.79,1130.5 z M 463.29,1016.2 C 521.21,1010.2 573.81,995.5 624.29,971.2 652.08,957.81 684.91,937.54 708.61,919.11 L 719.94,910.31 675.11,865.47 630.29,820.64 628.83,820.5 529.08,719.82 C 474.21,664.45 417.62,607.33 403.31,592.88 389.01,578.43 377.18,566.98 377.03,567.43 376.88,567.88 369.7,561.15 361.07,552.46 350.35,541.66 345.14,537.06 344.6,537.91 344.12,538.67 343.81,537.99 343.8,536.15 343.79,533.5 326.31,515.67 195.31,384.67 66.198,255.56 46.67,236.41 45.561,237.8 -16.718,315.88 -51.805,403.56 -60.224,502.15 -61.656,518.92 -61.658,561.45 -60.224,578.15 -54.819,641.24 -38.686,698.79 -10.799,754.47 36.252,848.41 112.55,923.85 207.29,970.09 265.64,998.56 322.36,1013.2 393.79,1018.1 404.76,1018.8 449.63,1017.6 463.29,1016.2 z M 799.17,827.37 C 833.87,781.14 858.79,731.7 875.67,675.65 884.84,645.19 890.77,613.11 893.79,577.65 895.16,561.62 895.16,517.82 893.8,501.65 887.12,422.23 862.65,349.78 819.39,281.32 790.19,235.11 747.36,189.34 701.12,154.96 644.25,112.67 573.02,81.797 503.29,69.213 469.38,63.095 444.5,61.218 406.79,61.934 377.42,62.492 362.97,63.78 336.47,68.203 270.82,79.156 206.93,104.58 150.99,142.01 138.43,150.41 118.11,165.53 115.49,168.42 113.87,170.21 119.38,175.86 249.76,306.05 336.72,392.89 386.14,441.55 386.91,441.08 387.69,440.59 387.83,440.77 387.31,441.61 386.77,442.48 449.67,506.02 586.41,642.75 696.34,752.68 786.61,842.62 786.99,842.63 787.38,842.64 792.86,835.77 799.17,827.37 z"
             style="fill:#cc0000;fill-opacity:1" />
    </g>
</svg>
