<?xml version="1.0" encoding="utf-8"?>
<!-- Generator: Adobe Illustrator 16.0.3, SVG Export Plug-In . SVG Version: 6.00 Build 0)  -->
<!DOCTYPE svg PUBLIC "-//W3C//DTD SVG 1.1//EN" "http://www.w3.org/Graphics/SVG/1.1/DTD/svg11.dtd">
<svg version="1.1" id="svg4358" xmlns:svg="http://www.w3.org/2000/svg"
	 xmlns="http://www.w3.org/2000/svg" xmlns:xlink="http://www.w3.org/1999/xlink" x="0px" y="0px" width="432.281px"
	 height="432.279px" viewBox="0 0 432.281 432.279" enable-background="new 0 0 432.281 432.279" xml:space="preserve">
<g id="Ebene_4">
	
		<rect id="rect4295" x="63.807" y="63.805" transform="matrix(0.7071 -0.7071 0.7071 0.7071 -89.5278 216.1405)" fill="#FFFFFF" stroke="#000000" width="304.667" height="304.669"/>
	
		<rect id="rect4291" x="83.135" y="83.133" transform="matrix(0.7071 -0.7071 0.7071 0.7071 -89.5278 216.1398)" fill="none" stroke="#000000" stroke-width="2" width="266.011" height="266.012"/>
	<polygon id="polygon4293" points="404.24,216.14 216.141,404.239 28.041,216.14 	"/>
</g>
<g id="Ebene_1">
	<path id="path4363" d="M77.849,186.463v18.227H199.59v-18.227h-45.669c0,0-2.245,0.672-2.656,1.395
		c-0.425,0.748-0.767,0.936-1.703,0.938c-1.221,0.002-2.062,0.463-3.921,2.149c-0.625,0.568-1.917,1.232-2.964,1.525
		c-1.821,0.508-4.633-0.415-4.633-0.415c-1.527-0.514-2.984-0.934-3.237-0.934c-1.201,0-4.385-1.785-5.316-2.982
		c-0.549-0.701-2.203-1.676-2.203-1.676H77.849L77.849,186.463z M121.025,182.067c-1.958-0.972-2.25-1.256-3.153-3.062
		c-1.041-2.076-1.972-2.81-3.584-2.816c-1.275-0.008-2.548-1.349-2.59-2.73c-0.202-6.64-0.33-7.115-2.459-9.093
		c-2.101-1.952-2.191-2.418-0.942-4.874c0.485-0.951,1.195-2.687,1.578-3.854c0.887-2.709,1.756-3.175,3.211-1.72
		c1.216,1.217,1.213,1.799-0.021,4.038c-1.465,2.657-1.353,3.618,0.615,5.277c2.014,1.699,2.884,3.479,2.547,5.221
		c-0.636,3.291-0.727,2.961,1.076,3.876c2.093,1.06,3.911,3.148,4.174,4.798c0.207,1.292,0.817,1.994,2.946,3.388
		c1.35,0.885,1.664,1.374,1.369,2.141C125.473,183.489,123.364,183.229,121.025,182.067z M131.229,182.129
		c-0.323-0.187-0.976-1.115-1.454-2.063c-0.479-0.949-1.374-2.285-1.988-2.971c-1.091-1.213-1.118-1.317-1.118-4.157
		c0-3.406-0.323-4.06-2.473-5.011c-2.005-0.886-2.368-1.669-1.826-3.932c0.548-2.283,0.219-3.252-1.55-4.563
		c-2.745-2.034-3.479-4.242-2.069-6.224c0.394-0.552,1.038-2.059,1.432-3.349c0.506-1.658,0.982-2.546,1.62-3.023
		c1.077-0.804,1.705-0.539,2.683,1.133c0.57,0.972,0.597,1.291,0.255,2.921c-0.21,1.005-0.69,2.419-1.066,3.139
		c-0.757,1.451-0.803,1.325,1.333,3.674c1.619,1.78,1.674,1.922,1.789,4.517c0.118,2.67,0.658,3.711,2.251,4.34
		c1.598,0.632,2.599,1.646,2.594,2.628c-0.002,0.471-0.3,1.801-0.663,2.954c-0.771,2.465-0.696,2.701,1.708,5.267
		c1.922,2.052,2.132,3.299,0.741,4.395C132.452,182.571,132.08,182.626,131.229,182.129z M153.576,176.931
		c-0.863-0.699-1.516-4.563-1.238-7.325c0.148-1.475,0.397-2.003,1.516-3.217c1.463-1.588,1.585-1.938,1.798-5.188
		c0.252-3.858,2.613-7.919,4.604-7.919c1.14,0,2.262,1.048,2.262,2.114c0,1.242-0.836,3.297-2.14,5.26
		c-1.136,1.71-1.187,1.907-0.975,3.706c0.211,1.8,0.17,1.956-0.781,2.961c-1.506,1.591-1.747,2.28-1.747,4.973
		c0,2.779-0.45,4.414-1.342,4.892C154.692,177.637,154.399,177.598,153.576,176.931z M158.503,176.313
		c-0.258-0.313-0.418-1.206-0.384-2.145c0.08-2.179,1.587-5.069,4.072-7.81c2.137-2.359,2.507-3.186,2.186-4.868
		c-0.655-3.422-0.636-3.826,0.238-5.29c0.467-0.784,1.341-1.801,1.942-2.257c3.482-2.65,3.902-3.317,4.402-6.982
		c0.298-2.175,1.234-3.531,2.72-3.941c1.487-0.409,2.722,0.06,3.323,1.265c0.487,0.979,0.158,1.966-1.213,3.63
		c-0.839,1.018-0.99,1.486-0.99,3.066c0,2.798-0.994,4.413-3.978,6.46c-1.485,1.02-2.629,2.082-2.935,2.724
		c-0.473,1-0.454,1.121,0.396,2.403c1.773,2.68,1.692,2.95-1.899,6.35c-2.353,2.229-3.417,3.51-4.063,4.894
		c-0.482,1.031-1.107,2.135-1.388,2.455C160.294,176.993,159.087,177.018,158.503,176.313z M138.784,172.534
		c-1.934-0.963-2.933-2.62-3.092-5.127c-0.145-2.271,0.459-4.084,2.497-7.489c0.601-1.003,1.328-2.535,1.618-3.401
		c0.288-0.867,0.72-1.576,0.958-1.576c0.24,0,1.566,1.131,2.949,2.515c3.359,3.359,4.199,5.133,4.199,8.866
		c0,3.457-0.636,4.594-3.328,5.949C142.409,173.366,140.616,173.446,138.784,172.534z M141.966,167.524
		c0.506-0.507,0.636-0.93,0.482-1.576c-0.271-1.142-1.291-2.544-1.848-2.544c-1.125,0-2.129,3.538-1.252,4.415
		C139.961,168.432,141.197,168.293,141.966,167.524z M297.426,158.669c-1.236-0.845-0.689-1.875,2.109-3.968
		c0.842-0.632,1.006-1.011,1.141-2.628c0.172-2.064,0.982-3.107,2.412-3.107c0.869,0,1.322-0.477,1.611-1.688
		c0.111-0.472,0.646-1.416,1.188-2.097c0.584-0.734,1.139-1.977,1.361-3.054c0.41-1.975,1.221-2.973,2.67-3.291
		c1.59-0.349,1.762-0.853,1.172-3.444c-0.691-3.043-0.342-4.005,1.463-4.012c0.455-0.003,1.273,0.35,1.816,0.784
		c0.926,0.741,0.99,0.95,1.07,3.401c0.047,1.437,0.127,3.134,0.176,3.771c0.084,1.09-0.01,1.211-1.568,1.992
		c-1.77,0.888-2.037,1.412-2.119,4.134c-0.027,0.92-0.295,1.575-0.896,2.204c-0.471,0.491-1.002,1.545-1.18,2.341
		c-0.51,2.278-1.074,2.881-3.277,3.493c-1.318,0.367-2.041,0.754-2.172,1.163c-0.205,0.649-1.76,1.604-2.609,1.604
		c-0.275,0-1.092,0.599-1.814,1.329C298.678,158.909,298.117,159.144,297.426,158.669z M276.104,157.938
		c-1.395-0.874-2.371-2.998-2.381-5.178c-0.006-1.419,0.33-2.348,2.168-5.975c1.195-2.362,2.316-4.438,2.492-4.612
		c0.432-0.432,4.959,4.231,5.789,5.961c0.385,0.807,0.689,2.3,0.771,3.802c0.164,2.954-0.348,4.164-2.346,5.548
		C280.797,158.733,277.713,158.948,276.104,157.938z M279.359,153.612c0.789-0.79,0.828-1.372,0.178-2.631
		c-0.838-1.623-1.691-1.596-2.426,0.074c-0.576,1.312-0.506,2.466,0.172,2.861C278.146,154.419,278.621,154.35,279.359,153.612z
		 M258.773,156.175c-0.275-0.224-0.771-0.826-1.102-1.343c-0.367-0.573-1.418-1.304-2.709-1.884
		c-1.16-0.521-2.281-1.268-2.492-1.662s-0.871-0.92-1.463-1.168c-1.619-0.678-1.84-1.129-1.762-3.605
		c0.068-2.143,0.023-2.288-0.982-3.189c-0.578-0.519-1.965-1.275-3.076-1.681c-2.426-0.885-3.813-2.31-4.119-4.235
		c-0.18-1.126-0.471-1.532-1.695-2.374c-2.525-1.739-3.156-3.338-1.838-4.656c0.896-0.897,2.949-0.885,4.104,0.023
		c0.48,0.378,0.875,0.859,0.875,1.067c0,0.207,0.619,1.008,1.377,1.78c0.943,0.961,1.439,1.8,1.582,2.666
		c0.203,1.252,0.225,1.269,2.23,1.627c3.656,0.653,5.604,2.379,5.262,4.66c-0.152,1.019,0.002,1.649,0.742,3.028
		c1.279,2.372,2.93,4.067,3.965,4.067c0.568,0,1.518,0.657,2.994,2.074c3.176,3.05,3.355,3.717,1.273,4.705
		C260.631,156.697,259.467,156.732,258.773,156.175z M288.201,155.724c-1.242-1.24-1.119-2.273,0.477-4.004l1.355-1.47l-0.221-2.385
		c-0.215-2.337-0.199-2.405,0.768-3.323c0.646-0.618,0.926-1.157,0.818-1.576c-0.123-0.47,0.492-1.273,2.328-3.045
		c2.273-2.195,2.529-2.573,2.875-4.279c0.32-1.578,0.623-2.092,1.908-3.261l1.525-1.388l-0.207-2.928
		c-0.188-2.631-0.141-3.014,0.473-3.794c0.521-0.662,0.979-0.865,1.945-0.865c1.807,0,2.15,0.585,2.057,3.498
		c-0.061,1.918,0.068,2.733,0.602,3.776c1.045,2.048,0.895,2.636-1.148,4.523c-1.584,1.463-1.826,1.849-1.826,2.92
		c0,2.254-0.756,3.442-2.762,4.328c-2.797,1.236-4.793,4.615-4.361,7.381c0.186,1.191,0.078,1.429-1.41,3.115
		c-0.887,1.004-1.871,2.236-2.189,2.738C290.467,156.856,289.348,156.87,288.201,155.724z M265.326,153.358
		c-0.484-0.505-1.113-1.584-1.4-2.396c-0.623-1.763-1.557-2.834-3.217-3.685c-1.529-0.784-2.072-1.555-2.945-4.178
		c-0.463-1.396-1.195-2.643-2.219-3.78c-2.236-2.488-2.973-6.113-1.355-6.685c1.115-0.393,2.111,0.262,2.93,1.929
		c1.107,2.257,1.557,2.748,3.064,3.352c1.613,0.646,3.109,2.767,3.615,5.123c0.313,1.458,0.717,2.114,2.363,3.827
		c1.934,2.015,1.988,2.123,2.158,4.236c0.191,2.385-0.154,3.174-1.389,3.174C266.531,154.275,265.811,153.864,265.326,153.358z
		 M139.448,150.159c-2.375-1.046-3.736-3.715-3.404-6.669c0.191-1.698,4.497-10.745,5.127-10.772
		c0.759-0.034,4.816,5.784,5.618,8.06c0.642,1.817,0.652,5.196,0.02,6.406C145.311,150.051,142.124,151.34,139.448,150.159z
		 M142.325,145.096c0.334-0.302,0.607-0.941,0.607-1.419c0-1.167-1.252-2.988-2.068-3.006c-0.36-0.007-1.583,2.523-1.583,3.278
		C139.281,145.447,141.157,146.153,142.325,145.096z M276.869,141.114c-1.541-0.822-2.199-1.496-2.861-2.937
		c-1.219-2.655-0.709-5.259,1.949-9.958c0.725-1.278,1.496-2.882,1.719-3.563c0.221-0.684,0.557-1.337,0.744-1.453
		c0.447-0.275,4.67,3.914,5.957,5.914c1.125,1.745,1.854,5.394,1.477,7.398C285.24,139.783,279.697,142.62,276.869,141.114z
		 M279.939,135.756c0.592-0.753,0.512-1.73-0.246-2.973c-0.916-1.5-1.791-1.41-2.455,0.255c-0.721,1.798-0.674,2.515,0.201,3.128
		C278.258,136.74,279.301,136.567,279.939,135.756z M145.958,125.183c-0.714-0.648-1.189-1.521-1.509-2.773
		c-0.257-1.004-1.076-4.167-1.821-7.03c-0.746-2.862-1.356-5.787-1.356-6.498c0-2.646,2.841-3.758,4.985-1.953
		c0.554,0.468,1.192,0.789,1.415,0.714c0.224-0.074,3.543-0.887,7.378-1.809c3.833-0.92,10.106-2.429,13.939-3.354
		c3.835-0.925,8.839-2.131,11.121-2.678c2.282-0.55,6.614-1.605,9.625-2.348c6.794-1.675,8.886-1.763,11.098-0.467
		c1.21,0.711,1.76,1.319,2.373,2.634c2.113,4.54-0.266,8.76-5.723,10.153c-0.701,0.179-2.096,0.548-3.1,0.819
		c-1.005,0.271-3.469,0.935-5.477,1.472c-2.008,0.539-4.771,1.289-6.141,1.669c-1.369,0.379-4.208,1.143-6.306,1.695
		c-4.515,1.188-15.127,4.049-18.423,4.967c-1.278,0.356-3.294,0.904-4.481,1.217c-2.346,0.617-3.319,1.244-3.319,2.141
		c0,0.903-1.063,1.956-2.198,2.175C147.2,126.089,146.799,125.945,145.958,125.183z M188.664,110.499
		c5.274-1.441,10.025-2.847,10.559-3.123c2.845-1.479,3.875-4.438,2.491-7.151c-1.621-3.177-3.647-3.115-18.782,0.56
		c-10.658,2.588-18.035,4.368-30.704,7.407c-6.405,1.537-7.216,1.817-7.66,2.648c-0.262,0.489-0.157,0.796,0.495,1.448l0.828,0.829
		h16.591h16.592L188.664,110.499z M271.65,124.603c-0.416-0.202-1.049-0.996-1.406-1.766c-0.387-0.833-0.992-1.533-1.494-1.729
		c-0.758-0.296-9.148-2.579-33.871-9.215c-9.396-2.522-13.1-3.565-14.291-4.027c-2.287-0.885-4.275-3.664-4.291-5.997
		c-0.019-3.083,1.982-5.963,4.641-6.681c2.084-0.563,3.676-0.321,12.945,1.946c4.473,1.095,9.701,2.366,11.619,2.825
		c7.512,1.8,12.055,2.896,18.654,4.501c9.375,2.28,9.217,2.262,10.197,1.215c1.334-1.423,3.648-0.971,4.533,0.883
		c0.504,1.056,0.455,1.354-1.475,8.845c-2.076,8.059-2.541,9.096-4.211,9.415C272.764,124.902,272.066,124.805,271.65,124.603z
		 M275.252,111.293c0.434-0.284,0.787-0.689,0.787-0.901c0-0.53-1.348-1.922-1.863-1.922c-0.23,0-3.826-0.823-7.99-1.831
		c-10.893-2.63-21.004-5.065-24.834-5.98c-1.824-0.437-6.455-1.558-10.291-2.492c-9.18-2.237-11.018-2.073-12.467,1.118
		c-0.787,1.735-0.807,3.085-0.063,4.452c1.215,2.229,2.523,2.797,12.861,5.574c2.559,0.687,5.807,1.562,7.225,1.945
		c2.475,0.672,3.217,0.695,19.211,0.625C272.227,111.817,274.572,111.738,275.252,111.293z"/>
</g>
<g id="Ebene_5">
	<path id="path4298" d="M258.131,161.773h0.209h8.969c0.682,0,1.1,0.604,1.729,1.589c0.52,0.816,1.109,1.742,2.078,2.271
		c1.205,0.657,7.383,3.644,8.965,3.417c0.42-0.06,1.043-0.011,1.701,0.041c0.965,0.077,2.059,0.163,3.023-0.051
		c1.727-0.384,3.359-1.527,4.033-2.202c0.471-0.47,0.943-0.625,2.088-1.002l0.453-0.149c1.711-0.571,2.666-1.888,2.705-1.943
		c0.324-0.429,1.064-1.203,1.627-1.391c0.047-0.015,4.605-1.514,7.943-0.811c2.902,0.611,6.156,2.495,7.623,3.963
		c0.316,0.315,0.676,0.698,1.057,1.103c1.527,1.626,3.258,3.469,4.76,3.919c1.711,0.514,3.234,0.687,3.299,0.694l0.041,0.004h0.041
		h17.168v-1.5H320.52c-0.195-0.023-1.531-0.195-2.996-0.635c-1.115-0.335-2.838-2.17-4.098-3.51
		c-0.389-0.413-0.756-0.804-1.088-1.136c-1.6-1.601-5.08-3.676-8.375-4.37c-3.732-0.786-8.523,0.788-8.727,0.855
		c-1.188,0.396-2.246,1.772-2.361,1.928c-0.016,0.021-0.736,0.994-1.971,1.406l-0.447,0.147c-1.221,0.401-1.957,0.645-2.68,1.366
		c-0.529,0.53-1.893,1.486-3.299,1.798c-0.744,0.166-1.678,0.092-2.58,0.021c-0.742-0.059-1.445-0.114-2.029-0.03
		c-0.848,0.088-5.836-2.05-8.035-3.249c-0.631-0.344-1.068-1.031-1.533-1.76c-0.682-1.07-1.453-2.283-2.992-2.283h-8.959
		c0.012-0.003-0.049-0.012-0.123-0.012h-0.055c-0.059,0.006-0.113,0.014-0.113,0.014v0.002c-3.307,0.099-5.975,2.834-5.975,6.128
		c0,1.849,0.842,3.522,2.164,4.652h-25.172c0.021-0.001-0.035-0.01-0.107-0.01h-0.057c-0.049,0.005-0.105,0.014-0.105,0.014v0.004
		c-2.891,0.096-5.223,2.486-5.223,5.367c0,1.519,0.656,2.892,1.689,3.875h-5.613c0.021-0.001-0.035-0.01-0.107-0.01h-0.057
		c-0.051,0.005-0.105,0.014-0.105,0.014v0.004c-2.892,0.096-5.224,2.486-5.224,5.367c0,2.903,2.365,5.314,5.272,5.375h0.004
		c-0.021,0.001,0.035,0.01,0.109,0.01h0.055c0.033-0.003,0.061-0.007,0.08-0.01h6.506c-1.037,0.983-1.693,2.356-1.693,3.875
		c0,2.903,2.365,5.314,5.273,5.375c0,0,0.002,0,0.004,0c-0.023,0.001,0.035,0.01,0.107,0.01h0.057
		c0.031-0.003,0.061-0.007,0.08-0.01h3.172c-1.037,0.983-1.693,2.356-1.693,3.875c0,2.903,2.365,5.314,5.273,5.375
		c0,0,0.002,0,0.004,0c-0.023,0.001,0.035,0.01,0.107,0.01h0.057c0.031-0.003,0.061-0.007,0.08-0.01h36.203
		c3.23,0,7.926-0.844,13.361-1.82c2.221-0.399,4.516-0.812,6.842-1.189c1.688-0.273,3.424-0.4,5.102-0.523
		c2.426-0.177,4.934-0.36,7.305-0.992c2.025-0.539,3.695-1.483,5.309-2.396c0.852-0.481,1.652-0.936,2.479-1.313
		c3.189-1.465,6.082-2.099,6.854-2.099h17.168v-1.5h-17.168c-1.256,0-4.473,0.854-7.479,2.235c-0.883,0.404-1.752,0.896-2.592,1.371
		c-1.531,0.866-3.117,1.762-4.955,2.252c-2.236,0.596-4.564,0.766-7.027,0.945c-1.713,0.125-3.482,0.255-5.234,0.539
		c-2.34,0.38-4.641,0.793-6.867,1.193c-5.365,0.964-10,1.797-13.096,1.797h-36.242h-0.193c-2.082-0.044-3.789-1.782-3.789-3.875
		s1.707-3.831,3.805-3.875h0.178h23.992v-1.5h-23.982c0.023-0.001-0.035-0.01-0.107-0.01h-0.055
		c-0.033,0.003-0.061,0.007-0.082,0.01h-6.766h-0.193c-2.082-0.044-3.789-1.782-3.789-3.875s1.707-3.831,3.805-3.875h0.178h28.492
		v-1.5h-28.482c0.023-0.001-0.035-0.01-0.107-0.01h-0.055c-0.033,0.003-0.061,0.007-0.082,0.01h-10.1h-0.193
		c-2.082-0.044-3.788-1.782-3.788-3.875s1.706-3.831,3.804-3.875h0.178h9.207c0.002,0,0.004,0,0.006,0
		c-0.023,0.001,0.035,0.01,0.107,0.01h0.055c0.033-0.003,0.061-0.007,0.082-0.01h21.869h8.25v-1.5h-8.25h-21.91h-0.193
		c-2.08-0.044-3.787-1.782-3.787-3.875s1.707-3.831,3.803-3.875h0.178h44.01c0.395,0.072,3.094,0.617,5.078,2.319
		c0.59,0.505,1.521,1.619,2.602,2.908c3.17,3.787,7.51,8.973,11.361,9.105l0.051-1.499c-3.182-0.109-7.441-5.2-10.262-8.569
		c-1.168-1.396-2.092-2.498-2.775-3.084c-2.465-2.114-5.732-2.649-5.871-2.671l-0.033,0.211v-0.221H258.34v-0.021h-0.225
		c-2.492-0.053-4.531-2.131-4.531-4.632C253.584,163.903,255.623,161.825,258.131,161.773z"/>
</g>
<g id="Ebene_6">
	<g id="g4372">
		<g id="g4374">
			<g id="use4379">
				<path id="XMLID_1_" fill="#FFFFFF" d="M151.066,234.453c-0.254-0.615-0.564-1.092-0.931-1.422
					c-0.367-0.332-0.775-0.498-1.229-0.498c-1.026,0-1.812,0.736-2.358,2.211c-0.413,1.094-0.619,2.811-0.619,5.152
					c0,2.9,0.247,4.889,0.739,5.963c0.492,1.076,1.183,1.613,2.075,1.613c0.866,0,1.518-0.43,1.96-1.295
					c0.442-0.865,0.765-2.121,0.964-3.766l3.979,2.131c-0.267,1.98-0.687,3.635-1.26,4.963c-0.573,1.328-1.284,2.33-2.133,3.004
					c-0.85,0.676-1.931,1.014-3.243,1.014c-1.592,0-2.893-0.412-3.902-1.236s-1.879-2.275-2.613-4.352
					c-0.733-2.076-1.1-4.732-1.1-7.975c0-4.318,0.645-7.639,1.935-9.957c1.288-2.32,3.112-3.479,5.472-3.479
					c1.844,0,3.294,0.66,4.352,1.986c1.056,1.324,1.84,3.357,2.353,6.102l-4.001,1.582
					C151.364,235.402,151.219,234.82,151.066,234.453L151.066,234.453z M173.637,247.336c-0.577,1.951-1.409,3.473-2.498,4.559
					c-1.089,1.088-2.445,1.629-4.07,1.629c-1.653,0-3.02-0.467-4.102-1.408c-1.082-0.936-1.96-2.42-2.633-4.451
					c-0.672-2.029-1.008-4.57-1.008-7.621c0-4.264,0.665-7.582,1.997-9.957s3.188-3.561,5.564-3.561
					c2.438,0,4.317,1.166,5.634,3.498c1.319,2.332,1.979,5.602,1.979,9.803C174.501,242.881,174.214,245.383,173.637,247.336
					L173.637,247.336z M169.136,234.322c-0.555-1.137-1.308-1.707-2.257-1.707c-0.91,0-1.642,0.58-2.192,1.732
					c-0.551,1.156-0.828,3.068-0.828,5.736c0,2.643,0.275,4.543,0.824,5.697c0.547,1.156,1.293,1.734,2.237,1.734
					c0.969,0,1.719-0.566,2.251-1.699c0.531-1.131,0.796-3.162,0.796-6.09C169.967,237.26,169.689,235.459,169.136,234.322
					L169.136,234.322z M190.333,240.533c-0.389,0.416-0.919,0.76-1.596,1.033c0.538,0.32,0.929,0.643,1.174,0.963
					c0.166,0.217,0.407,0.676,0.722,1.377c0.315,0.703,0.525,1.246,0.632,1.627l2.204,7.537h-5.115l-2.414-7.963
					c-0.306-1.031-0.579-1.701-0.818-2.01c-0.326-0.402-0.696-0.605-1.107-0.605h-0.4v10.578h-4.558v-26.094h7.552
					c1.4,0,2.469,0.215,3.209,0.641c0.741,0.428,1.337,1.223,1.791,2.379c0.453,1.158,0.68,2.568,0.68,4.23
					c0,1.449-0.173,2.699-0.521,3.75S190.941,239.881,190.333,240.533L190.333,240.533z M187.284,232.922
					c-0.298-0.451-0.86-0.676-1.684-0.676h-1.984v5.307h1.903c0.207,0,0.606-0.117,1.198-0.355c0.298-0.105,0.543-0.379,0.731-0.818
					c0.189-0.439,0.286-0.943,0.286-1.516C187.734,234.021,187.583,233.373,187.284,232.922L187.284,232.922z M208.31,240.533
					c-0.387,0.416-0.919,0.76-1.596,1.033c0.538,0.32,0.929,0.643,1.175,0.963c0.166,0.217,0.406,0.676,0.721,1.377
					c0.315,0.703,0.527,1.246,0.632,1.627l2.206,7.537h-5.117l-2.412-7.963c-0.308-1.031-0.581-1.701-0.82-2.01
					c-0.326-0.402-0.695-0.605-1.107-0.605h-0.4v10.578h-4.556v-26.094h7.55c1.4,0,2.471,0.215,3.211,0.641
					c0.739,0.428,1.335,1.223,1.789,2.379c0.453,1.158,0.682,2.568,0.682,4.23c0,1.449-0.175,2.699-0.523,3.75
					C209.399,239.027,208.92,239.881,208.31,240.533L208.31,240.533z M205.261,232.922c-0.298-0.451-0.86-0.676-1.684-0.676h-1.984
					v5.307h1.905c0.205,0,0.604-0.117,1.196-0.355c0.298-0.105,0.543-0.379,0.733-0.818c0.189-0.439,0.284-0.943,0.284-1.516
					C205.71,234.021,205.561,233.373,205.261,232.922L205.261,232.922z M228.35,247.336c-0.576,1.951-1.408,3.473-2.498,4.559
					c-1.088,1.088-2.445,1.629-4.07,1.629c-1.652,0-3.02-0.467-4.1-1.408c-1.084-0.936-1.961-2.42-2.634-4.451
					c-0.673-2.029-1.01-4.57-1.01-7.621c0-4.264,0.667-7.582,1.999-9.957s3.186-3.561,5.564-3.561c2.438,0,4.314,1.166,5.635,3.498
					c1.318,2.332,1.979,5.602,1.979,9.803C229.215,242.881,228.926,245.383,228.35,247.336L228.35,247.336z M223.848,234.322
					c-0.555-1.137-1.307-1.707-2.256-1.707c-0.91,0-1.641,0.58-2.191,1.732c-0.551,1.156-0.828,3.068-0.828,5.736
					c0,2.643,0.275,4.543,0.822,5.697c0.549,1.156,1.293,1.734,2.236,1.734c0.969,0,1.721-0.566,2.252-1.699
					c0.531-1.131,0.797-3.162,0.797-6.09C224.68,237.26,224.402,235.459,223.848,234.322L223.848,234.322z M240.738,232.186
					c-0.361-0.537-0.861-0.805-1.498-0.805c-0.523,0-0.92,0.199-1.186,0.598c-0.266,0.4-0.398,0.883-0.398,1.453
					c0,0.418,0.111,0.793,0.332,1.125c0.213,0.346,0.721,0.666,1.52,0.963c1.979,0.764,3.398,1.531,4.254,2.309
					c0.857,0.777,1.48,1.742,1.869,2.895c0.391,1.15,0.586,2.439,0.586,3.863c0,1.674-0.26,3.217-0.781,4.631
					c-0.52,1.41-1.246,2.482-2.18,3.213c-0.934,0.729-2.109,1.094-3.531,1.094c-2.494,0-4.221-0.854-5.18-2.559
					c-0.961-1.709-1.504-3.877-1.631-6.508l4.305-0.482c0.092,1.25,0.283,2.203,0.57,2.857c0.469,1.059,1.137,1.588,2.006,1.588
					c0.648,0,1.148-0.271,1.498-0.811c0.352-0.541,0.527-1.17,0.527-1.883c0-0.678-0.168-1.285-0.502-1.82
					c-0.332-0.535-1.105-1.041-2.32-1.516c-1.986-0.799-3.4-1.855-4.248-3.176c-0.854-1.318-1.279-3-1.279-5.045
					c0-1.342,0.217-2.609,0.654-3.805c0.436-1.195,1.092-2.133,1.967-2.816c0.877-0.684,2.076-1.023,3.604-1.023
					c1.871,0,3.299,0.619,4.281,1.859c0.982,1.242,1.566,3.219,1.754,5.924l-4.281,0.447
					C241.338,233.578,241.1,232.721,240.738,232.186L240.738,232.186z M250.746,253.07v-26.094h4.535v26.094H250.746L250.746,253.07
					z M269.572,253.07h-4.912l-5.537-26.094h4.732l3.305,18.779l3.258-18.779h4.596L269.572,253.07L269.572,253.07z
					 M290.887,247.186v5.885h-12.352v-26.094h12.121v5.557h-7.59v4.199h7.057v5.307h-7.057v5.146H290.887L290.887,247.186z"/>
			</g>
		</g>
	</g>
	<g id="g4384">
		<path id="path4386" fill="#FFFFFF" d="M208.718,358.189c-1.335-0.844-2.309-1.786-2.919-2.829
			c-0.835-1.422-1.251-3.06-1.251-4.913c0-3.043,1.207-5.533,3.622-7.469c1.884-1.488,4.375-2.233,7.474-2.233
			c4.103,0,7.134,0.927,9.095,2.779c1.961,1.854,2.943,4.186,2.943,6.997c0,1.639-0.391,3.169-1.17,4.591
			c-0.584,1.059-1.504,2.085-2.756,3.077c1.656,0.943,2.891,2.193,3.705,3.748c0.814,1.556,1.221,3.276,1.221,5.163
			c0,1.82-0.352,3.521-1.057,5.102s-1.57,2.801-2.596,3.661c-1.027,0.861-2.305,1.494-3.832,1.899
			c-1.529,0.404-3.158,0.607-4.89,0.607c-3.252,0-5.737-0.455-7.454-1.365s-3.022-2.25-3.915-4.021
			c-0.894-1.771-1.34-3.748-1.34-5.934c0-2.135,0.417-3.942,1.254-5.424C205.688,360.146,206.977,359,208.718,358.189z
			 M212.083,366.707c0,1.609,0.413,2.925,1.242,3.945c0.828,1.021,1.775,1.53,2.842,1.53c1.024,0,1.942-0.519,2.757-1.556
			s1.221-2.352,1.221-3.944c0-1.609-0.41-2.928-1.23-3.957c-0.822-1.028-1.771-1.543-2.853-1.543c-1.067,0-1.997,0.498-2.79,1.493
			C212.479,363.672,212.083,365.016,212.083,366.707z M212.557,351.032c0,1.264,0.332,2.281,0.996,3.054
			c0.665,0.773,1.55,1.159,2.655,1.159c0.979,0,1.784-0.382,2.413-1.146c0.629-0.764,0.945-1.753,0.945-2.966
			c0-1.263-0.33-2.289-0.986-3.078c-0.658-0.789-1.498-1.185-2.519-1.185c-1.036,0-1.878,0.387-2.529,1.159
			C212.882,348.803,212.557,349.804,212.557,351.032z"/>
	</g>
</g>
</svg>
