<?xml version="1.0" encoding="UTF-8" standalone="no"?>
<!DOCTYPE svg PUBLIC "-//W3C//DTD SVG 1.1//EN" "http://www.w3.org/Graphics/SVG/1.1/DTD/svg11.dtd">
<svg xmlns:svg="http://www.w3.org/2000/svg" xmlns="http://www.w3.org/2000/svg"
   version="1.1" width="400px" height="400px" viewBox="0 0 200 200">
  <rect style="fill:#ffffff; stroke:none;" width="200" height="200" x="0" y="0"  />
  <path style="fill:#008855; stroke:none;" d="m 5,100 0,-93.914 95,0 95,0 0,93.914 0,93.914 -95,0 -95,0 z m 93.557,75.832 c 1.7383,-1.5731 1.9855,-3.6371 1.9855,-16.577 l 0,-14.78 11.363,-11.325 11.363,-11.325 4.3362,4.5582 4.3361,4.5582 8.4578,-0.0168 8.4578,-0.0167 -21.443,-21.26 c -11.8,-11.683 -21.45,-21.473 -21.45,-21.745 0,-0.2719 2.565,-0.3467 5.7,-0.16621 l 5.7,0.32817 0.33517,4.8857 c 0.27689,4.0362 1.1185,5.688 4.8403,9.5 2.4778,2.5379 4.892,4.6143 5.3648,4.6143 0.47281,0 0.85966,-5.6186 0.85966,-12.486 0,-16.926 0.10108,-16.829 -17.487,-16.829 l -13.144,0 -8.1914,7.8714 c -4.5053,4.3293 -11.805,11.372 -16.222,15.651 l -8.031,7.7793 -12.475,0.36356 c -12.913,0.37635 -14.506,0.97229 -14.547,5.4432 -0.04,4.3764 2.7511,5.2347 17.022,5.2347 l 13.627,0 8.8986,-8.6857 c 4.8942,-4.7771 9.1826,-8.6857 9.5297,-8.6857 0.3471,0 4.8789,4.2192 10.071,9.3761 l 9.4396,9.3761 -9.3305,9.374 -9.3305,9.374 0,17.23 c 0,15.137 0.23088,17.406 1.9,18.673 2.599,1.973 5.6825,1.8637 8.0574,-0.28548 z M 87.514,141.424 c 0,-1.4015 1.0188,-3.7222 2.2641,-5.1571 l 2.2641,-2.609 -20.721,-0.29487 -20.721,-0.29488 0,-5.2911 0,-5.2911 -4.0714,-0.48117 C 44.2895,121.74012 39.42,120.45908 38.375,120 c -0.375,3 0.2824,0.83421 0.2824,11.91288 l 0,12.059 24.429,0 24.429,0 0,-2.5482 z m 74.652,-57.98 -0.28055,-60.529 -61.343,0 -61.343,0 -0.2839,43.181 -0.28392,43.181 2.4554,-0.61348 c 1.3504,-0.33741 3.921,-0.72483 5.7125,-0.86092 l 3.2571,-0.24744 0.28588,-36.631 0.28589,-36.631 49.657,0.28237 49.657,0.28237 0.28249,49.129 0.28249,49.129 -17.654,0.0294 -17.654,0.0294 L 105,143.49 c 0,0 -3.70862,0.483 28.53238,0.483 l 28.913,0 -0.28054,-60.529 z m -78.174,4.001 c 6.1282,-2.1363 7.5208,-12.966 2.151,-16.727 -3.1804,-2.2277 -9.7903,-2.1022 -12.656,0.24022 -5.0884,4.1587 -3.6338,14.109 2.4189,16.547 3.2154,1.2952 4.2203,1.2877 8.0864,-0.06005 z" id="path8" />
</svg>