<?xml version="1.0" encoding="UTF-8" standalone="no"?>
<!DOCTYPE svg PUBLIC "-//W3C//DTD SVG 1.1//EN" "http://www.w3.org/Graphics/SVG/1.1/DTD/svg11.dtd">
<svg xmlns:svg="http://www.w3.org/2000/svg" xmlns="http://www.w3.org/2000/svg"
   version="1.1" width="400px" height="400px" viewBox="0 0 200 200">
	<rect style="fill:#ffffff; stroke:none;" width="200" height="200" x="0" y="0"  />
    <path
         d="M 5.7238,192.65 C 5.3257,192.25 5,150.24 5,99.279 V 6.631 H 100 195 V 100 193.37 H 100.72 C 48.872,193.37 6.122,193.05 5.724,192.65 z M 79.914,171.56 C 86.293,170.08 116.28,170.1 121.16,171.59 126.67,173.27 135.68,173.01 142.7,170.97 151.65,168.36 160.33,159.31 167.2,145.4 172.24,135.19 172.37,134.67 171.77,127.49 171.43,123.42 171.17,119.11 171.2,117.92 171.79,89.617 172.14,85.884 174.49,82.701 176.47,80.022 176.76,78.544 176.26,73.671 175.91,70.26 174.48,65.846 172.82,63.023 171.26,60.371 168.65,55.825 167.02,52.921 158.77,38.212 156.11,35.112 148.53,31.4 141.93,28.167 140.35,27.837 131.49,27.852 125.16,27.863 120.76,28.404 119,29.388 115.34,31.438 89.025,31.709 81.542,29.775 74.081,27.846 69.348,27.994 61.869,30.393 48.119,34.804 41.999,39.463 35.323,50.602 29.923,59.614 29.453,60.353 28.765,60.916 27.374,62.055 24.698,68.205 24.02,71.822 23.189,76.249 24.579,80.497 27.967,83.884 30.287,86.204 30.372,86.935 29.911,100.49 28.942,128.9 29.243,134.86 31.909,139.97 36.027,147.87 49.379,164.89 53.424,167.38 57.516,169.91 66.423,172.44 71.771,172.6 73.562,172.65 77.226,172.18 79.914,171.56 z M 96.952,168.73 C 94.193,168.01 92.942,163.97 92.942,155.77 92.942,147.79 94.216,144.52 97.323,144.52 98.496,144.52 99.453,144.64 99.45,144.79 99.447,144.94 99.002,147.75 98.463,151.05 97.545,156.65 98.145,163.21 99.979,167.59 100.79,169.52 100.46,169.64 96.952,168.73 z M 102.63,167.76 C 100.94,165.72 100.08,153.55 101.29,148.92 102.03,146.13 103.05,144.98 105.33,144.37 108.33,143.57 108.37,143.62 107.5,147.02 106.36,151.5 106.27,162.85 107.36,165.83 108.02,167.62 107.72,168.26 106.04,168.7 104.85,169.01 103.32,168.59 102.63,167.76 z M 62.27,166.54 C 60.628,166.29 59.284,165.63 59.284,165.07 59.284,164.52 58.628,164.06 57.825,164.06 54.677,164.06 49.183,157.52 37.954,140.4 35.222,136.23 34.276,133.69 34.519,131.17 34.849,127.76 34.922,127.82 38.113,134.18 41.999,141.92 60.128,160.8 63.675,160.8 64.055,160.8 67.01,162.26 70.24,164.04 L 76.113,167.28 70.685,167.13 C 67.699,167.06 63.913,166.79 62.271,166.54 z M 132.35,163.59 C 136.36,161.54 141.22,158.78 143.16,157.45 149.29,153.25 158.94,142.72 162.65,136.17 165.72,130.76 166.28,130.23 166.6,132.46 167.13,136.23 158.8,152.34 153.42,157.98 146.61,165.09 141.67,167.32 132.64,167.32 H 125.07 L 132.35,163.59 z M 90.428,140.63 C 78.454,137.73 66.763,127.33 61.821,115.2 59.146,108.63 59.133,91.202 61.8,86.426 62.8,84.634 63.622,82.558 63.625,81.812 63.628,81.065 64.088,80.454 64.645,80.454 65.202,80.454 65.933,79.599 66.271,78.554 67.083,76.038 73.128,69.596 77.204,66.901 83.066,63.027 85.062,62.24 93.855,60.341 100.74,58.853 103.26,58.718 106.05,59.688 107.98,60.361 110.53,60.911 111.72,60.911 114.56,60.911 123.18,65.157 126.59,68.24 128.08,69.583 129.59,70.683 129.94,70.683 131.47,70.683 139.03,83.219 140.88,88.804 146.9,107.06 138.07,128.28 120.76,137.13 110.69,142.28 101.57,143.33 90.429,140.63 z M 148.32,108.8 C 146.37,108.27 145.5,107.18 145.25,104.96 144.96,102.45 145.23,102 146.7,102.56 150.39,103.98 159.88,104.44 164.93,103.45 169.88,102.48 170.13,102.54 169.82,104.71 169.26,108.57 156.37,111.03 148.32,108.8 z M 50.061,106.32 C 47.673,105.73 42.633,105.52 38.861,105.85 32.303,106.42 32.019,106.34 32.347,104.1 32.806,100.96 38.31,99.582 47.2,100.39 54.653,101.07 57.118,102.36 57.118,105.56 57.118,107.8 56.435,107.88 50.06,106.32 z M 147.5,100.33 C 145.73,99.985 145.06,99.094 145.06,97.09 145.06,94.688 145.38,94.439 147.5,95.194 150.57,96.286 163.07,96.263 167.04,95.157 169.72,94.41 170.03,94.601 170.03,97.03 170.03,99.191 169.34,99.871 166.63,100.41 162.98,101.14 151.48,101.09 147.5,100.33 z M 32.358,97.039 C 32.608,95.008 33.739,93.996 37.031,92.856 42.583,90.934 44.117,90.952 51.25,93.025 56.365,94.513 57.117,95.085 57.117,97.495 57.117,99.86 56.764,100.15 54.674,99.507 47.199,97.208 42.896,96.899 37.58,98.278 L 32.029,99.718 32.359,97.039 z M 29.889,78.612 C 29.275,76.996 29.068,73.943 29.429,71.826 30.109,67.84 42.062,48.156 46.468,43.767 51.241,39.012 62.331,34.579 70.637,34.106 L 78.287,33.669 72.859,36.101 C 64.967,39.635 56.056,45.868 49.563,52.396 43.238,58.754 34.683,72.521 33.656,77.992 32.845,82.316 31.388,82.556 29.888,78.612 z M 167.41,74.999 C 161.55,58.711 145.89,43.015 128.37,35.87 L 122,33.272 126.2,32.363 C 135.17,30.422 148.95,34.95 154.24,41.582 159.73,48.459 172.2,72.32 172.2,75.941 172.2,77.087 171.56,78.558 170.77,79.209 169.65,80.138 168.93,79.23 167.4,74.998 z M 94.869,54.135 C 95.901,49.508 95.875,39.447 94.821,35.678 94.072,33.001 94.264,32.692 96.67,32.692 98.847,32.692 99.568,33.462 100.48,36.763 101.11,39.003 101.62,42.789 101.62,45.178 101.62,47.566 101.11,51.353 100.48,53.592 99.575,56.868 98.839,57.663 96.718,57.663 94.306,57.663 94.149,57.363 94.869,54.135 z M 102.09,55.85 C 104.92,48.487 104.95,41.291 102.18,34.592 101.55,33.073 101.95,32.692 104.17,32.692 106.46,32.692 107.15,33.413 108.08,36.763 109.36,41.347 109.57,49.187 108.55,54.27 107.97,57.16 107.39,57.663 104.63,57.663 102.05,57.663 101.54,57.294 102.09,55.85 z"
         style="fill:#008855; stroke:none;" />
</svg>
