<?xml version="1.0" encoding="UTF-8" standalone="no"?>
<svg xmlns:svg="http://www.w3.org/2000/svg" xmlns="http://www.w3.org/2000/svg"
     version="1.1"
     width="400px"
     height="400px"
     viewBox="0 0 178 178"
     id="svg2">
    <defs
         id="defs19" />
    <rect
         width="178"
         height="178"
         x="0"
         y="0"
         id="rect4"
         style="fill:#ffffff" />
    <rect
         width="168"
         height="168"
         x="5"
         y="5"
         style="fill:#008855;fill-rule:evenodd" />
    <path
         d="M 20.7,88.8 157.5,88.8 158.1,89.1 158.4,89.4 159,89.7 159.3,90.3 159.6,90.6 159.6,93 159.3,93.6 159,93.9 158.4,94.2 158.1,94.5 157.5,94.8 147.9,94.8 147.9,143.1 157.5,143.1 158.1,143.4 158.7,143.7 159,144 159.3,144.3 159.6,144.9 159.6,147 159.3,147.6 159,147.9 158.7,148.5 158.1,148.8 157.5,148.8 156.9,149.1 21,149.1 20.4,148.8 19.8,148.5 19.2,148.2 18.9,147.9 18.6,147.3 18.3,147 18,146.4 18,145.2 18.3,144.6 18.6,144.3 18.9,143.7 19.2,143.4 19.8,143.1 30,143.1 30,94.8 20.1,94.8 19.5,94.5 18.9,94.2 18.6,93.9 18.3,93.6 18,93 18,90.9 18.6,89.7 18.9,89.4 19.5,89.1 20.1,88.8 20.7,88.8"
         style="fill:#ffffff;fill-opacity:1;fill-rule:evenodd;stroke:none" />
    <path
         d="M 45.6,112.8 46.5,112.8 47.4,113.1 48.3,113.7 49.2,114 49.8,114.6 50.4,115.5 50.7,116.4 51.3,117.3 51.3,118.5 51.6,119.4 51.3,120.6 51,121.8 50.7,122.7 49.8,123.6 49.2,124.2 48.3,125.1 47.4,125.4 46.8,125.4 46.2,125.7 44.1,125.7 43.5,125.4 42.9,125.4 41.7,124.5 40.8,123.6 39.9,122.7 39.3,121.5 39,120.3 39,119.1 39.3,117.6 39.6,116.4 40.2,115.5 40.5,114.9 41.4,114.3 42,113.7 42.9,113.1 43.8,112.8 45.6,112.8 z M 138.9,117.9 99.9,117.9 99.9,120.9 138.9,120.9 138.9,127.8 99.6,128.1 71.4,128.1 71.4,131.1 99.6,131.1 99.6,137.4 66,137.4 65.7,137.1 65.1,137.1 64.5,136.8 64.2,136.8 63.9,136.5 62.7,135.9 61.8,135.3 61.2,134.4 60.6,133.5 60,132.3 59.7,131.1 59.4,129.9 59.4,107.1 60.6,104.7 61.5,103.8 62.4,103.2 63.3,102.3 64.5,102 65.7,101.4 66.9,101.4 99.6,101.1 99.6,107.4 71.4,107.4 71.4,110.7 138.9,110.7 138.9,117.9 z M 45.3,109.5 47.1,109.8 48.9,110.4 50.4,111.3 51.9,112.5 53.1,113.7 54,115.5 54.6,117.3 54.6,121.2 54,123 53.1,124.8 51.9,126 50.4,127.2 48.9,128.1 47.1,128.7 45.3,129 43.2,128.7 41.4,128.1 39.9,127.2 38.4,126 37.5,124.8 36.6,123 36,121.2 35.7,119.1 36,117.3 36.6,115.5 37.5,113.7 38.4,112.5 39.9,111.3 41.4,110.4 43.2,109.8 45.3,109.5 z M 56.1,109.2 56.1,128.7 56.4,131.1 57,133.2 57.9,135 59.1,136.8 60.6,138.3 62.4,139.5 64.5,140.4 66.9,140.7 102.6,140.7 102.6,131.1 142.2,131.1 142.2,107.4 102.6,107.4 102.6,98.1 67.2,98.1 65.1,98.4 62.7,99 60.9,100.2 59.1,101.7 57.9,103.2 57,105 56.1,107.1 56.1,109.2"
         style="fill:#009262;fill-opacity:1;fill-rule:evenodd;stroke:none" />
    <path
         d="M 134.7,42.9 134.7,57.6 149.4,57.6 149.4,42.9 164.1,42.9 164.1,28.2 149.4,28.2 149.4,13.5 134.7,13.5 134.7,28.2 119.7,28.2 119.7,42.9 134.7,42.9"
         style="fill:#ffffff;fill-opacity:1;fill-rule:evenodd;stroke:none" />
</svg>
