<?xml version="1.0" encoding="UTF-8" standalone="no"?>
<svg xmlns:svg="http://www.w3.org/2000/svg" xmlns="http://www.w3.org/2000/svg"
     version="1.1"
     width="400px"
     height="400px"
     viewBox="0 0 178 178"
     id="svg2">
    <defs />
    <rect
         width="178"
         height="178"
         x="0"
         y="0"
         id="rect4"
         style="fill:#ffffff" />
    <rect
         width="168"
         height="168"
         x="5"
         y="5"
         id="rect3058"
         style="fill:#008855;fill-rule:evenodd" />
    <path
         d="M 57,6.3 61.8,6.3 61.8,15.6 63.3,15.6 66.3,15 67.8,15 69.6,14.7 73.5,14.7 75.9,14.4 78,14.7 80.1,14.7 81.9,15 83.7,15.3 85.2,15.6 86.7,16.2 88.5,16.8 95.7,20.4 97.2,21.6 99,22.5 102,24.9 102.6,25.2 103.5,26.1 103.8,26.7 104.1,27 104.4,27.6 104.4,28.2 104.7,28.5 104.7,29.4 104.4,29.4 104.4,30 103.5,31.8 102.9,32.1 102.3,32.4 101.7,33 101.1,33.3 97.8,34.2 94.8,34.5 91.5,34.8 88.5,34.5 85.8,33.9 83.1,32.7 80.7,31.5 78.6,30 77.7,28.8 76.8,27.9 75.6,27.3 74.4,27 73.2,26.7 71.7,26.4 70.5,26.7 69,26.7 68.1,27 65.4,27 64.5,27.3 62.7,27.3 61.8,27.6 61.8,62.4 65.4,63 68.7,63.6 71.7,64.8 74.4,65.7 76.8,66.9 79.2,68.4 81,69.9 82.5,71.4 84,73.2 85.2,75 86.1,77.1 86.7,79.2 87.3,81.3 87.6,83.4 87.9,85.8 87.9,88.2 87.3,92.4 86.1,96.3 85.2,98.4 84.3,100.2 83.1,101.7 81.6,103.5 80.1,105 78.3,106.5 76.2,107.7 73.8,108.9 71.4,109.8 65.4,111.6 61.8,112.2 61.8,126.6 65.7,128.1 69,129.9 72,132 74.4,134.7 76.2,137.4 77.4,140.7 78.3,144 78.6,147.9 78.3,150.3 78,152.7 77.1,154.8 76.2,156.9 74.7,159 73.2,160.5 71.4,162.3 69.3,163.5 68.4,164.1 66.6,164.7 65.7,165.3 64.8,165.6 63.9,165.6 63,165.9 61.8,165.9 61.8,171.3 57,171.3 57,166.2 55.8,166.2 55.2,165.9 54.6,165.9 54,165.6 53.4,165.6 52.8,165.3 51.9,165.3 49.2,164.1 46.8,162.6 44.7,160.8 43.2,158.4 41.7,155.7 40.5,152.7 39.9,149.7 39.6,146.1 41.7,148.5 43.8,150.6 45.9,152.4 48,153.6 50.4,154.5 52.8,155.1 54.9,155.4 57,155.7 57,138 54.9,137.4 52.8,136.8 51,136.2 49.2,135.3 47.7,134.4 46.2,133.5 45,132.3 43.8,131.1 42.9,129.9 42,128.4 40.8,125.4 39.9,122.4 39.9,116.1 40.8,113.4 42,111 43.8,108.6 46.2,106.5 49.2,104.7 52.8,103.2 57,101.7 57,73.5 54,73.2 51,72.6 48.3,71.7 45.6,70.5 43.2,69 41.1,67.5 39,65.7 37.2,63.9 35.7,61.8 34.2,59.7 33,57.3 31.2,52.5 30.6,50.1 30.3,47.4 30.3,42 30.9,39.3 31.5,36.6 32.4,34.2 33.6,31.8 34.8,29.7 36.6,27.6 38.1,25.8 40.2,24 42.3,22.5 44.4,21 46.8,19.8 49.2,18.6 51.6,17.7 54.3,17.1 57,16.5 57,6.3 z M 61.8,101.1 61.8,74.1 66,74.7 69,75.9 71.7,77.4 73.8,78.9 75,81 76.2,83.1 76.8,85.2 77.1,87.6 76.8,89.4 76.5,90.9 75.9,92.4 75.3,93.9 74.7,94.8 73.8,96 72,97.8 69.9,99 67.5,99.9 64.8,100.8 61.8,101.1 z M 61.8,154.8 61.8,138.9 63.3,139.5 64.8,140.4 66,141.3 66.9,142.2 67.5,143.7 68.1,145.2 68.1,148.8 67.8,149.7 67.2,150.6 66.6,151.5 66,152.4 65.1,153 64.2,153.6 61.8,154.8 z M 57,113.1 57,125.7 55.8,125.4 54.6,124.8 52.8,123.6 52.2,122.7 51.6,121.8 51.3,120.6 51.3,117.9 51.9,116.7 52.2,115.8 53.1,115.2 53.7,114.6 54.9,114 55.8,113.4 57,113.1 z M 57,28.2 57,61.8 54,61.2 51,60 48.6,58.5 46.2,56.7 44.4,54.9 42.9,52.5 41.1,47.7 40.8,45 41.1,42.3 41.7,39.9 42.9,37.5 44.4,35.1 46.5,33 49.2,31.2 52.5,29.7 53.1,29.4 53.7,29.4 54.3,29.1 54.9,28.8 55.2,28.8 55.8,28.5 56.4,28.5 57,28.2"
         style="fill:#ffffff;fill-opacity:1;fill-rule:evenodd;stroke:none" />
    <path
         d="M 134.4,43.2 134.4,57.9 149.4,57.9 149.4,43.2 164.1,43.2 164.1,28.2 149.4,28.2 149.4,13.5 134.4,13.5 134.4,28.2 119.7,28.2 119.7,43.2 134.4,43.2"
         style="fill:#ffffff;fill-opacity:1;fill-rule:evenodd;stroke:none" />
</svg>
