<?xml version="1.0" encoding="utf-8"?>
<!-- Generator: Adobe Illustrator 16.0.3, SVG Export Plug-In . SVG Version: 6.00 Build 0)  -->
<!DOCTYPE svg PUBLIC "-//W3C//DTD SVG 1.1//EN" "http://www.w3.org/Graphics/SVG/1.1/DTD/svg11.dtd">
<svg version="1.1" id="Layer_1" xmlns="http://www.w3.org/2000/svg" xmlns:xlink="http://www.w3.org/1999/xlink" x="0px" y="0px"
	 width="400px" height="400px" viewBox="0 0 400 400" enable-background="new 0 0 400 400" xml:space="preserve">
<rect fill="#FFFFFF" width="400" height="400"/>
<rect x="10" y="10" fill="#008855" width="380" height="380"/>
<path fill="#FFFFFF" d="M112.516,131.722c-37.206,0.387-70.536,37.4-60.46,86.232c7.557,37.399,47.282,85.844,116.462,132.739
	c69.18-47.088,108.904-95.533,116.462-132.739c10.076-49.026-23.061-85.844-60.461-86.232c-19.184-0.388-43.213,9.883-56.001,34.3
	C155.729,141.606,131.7,131.336,112.516,131.722L112.516,131.722z M198.36,161.37l-32.556,66.854h41.276l-72.28,84.1l27.904-65.887
	h-40.112L198.36,161.37z"/>
<g>
	<path fill="#FFFFFF" d="M294.897,87.954c0-21.434,17.373-38.81,38.809-38.81c6.834,0,13.254,1.769,18.831,4.869
		c-8.473-8.163-19.994-13.186-32.692-13.186c-26.026,0-47.126,21.1-47.126,47.127s21.1,47.128,47.126,47.128
		c12.698,0,24.22-5.022,32.692-13.186c-5.577,3.1-11.997,4.869-18.831,4.869C312.271,126.765,294.897,109.388,294.897,87.954z"/>
</g>
</svg>
