<?xml version="1.0" encoding="UTF-8" standalone="no"?>
<svg
   width="400px"
   height="400px"
   version="1.1"
   viewBox="0 0 200 200"
   id="svg21008"
   sodipodi:docname="E064_moon.svg"
   inkscape:version="1.2.1 (9c6d41e410, 2022-07-14)"
   xml:space="preserve"
   xmlns:inkscape="http://www.inkscape.org/namespaces/inkscape"
   xmlns:sodipodi="http://sodipodi.sourceforge.net/DTD/sodipodi-0.dtd"
   xmlns="http://www.w3.org/2000/svg"
   xmlns:svg="http://www.w3.org/2000/svg"><defs
     id="defs21012" /><sodipodi:namedview
     id="namedview21010"
     pagecolor="#ffffff"
     bordercolor="#666666"
     borderopacity="1.0"
     inkscape:showpageshadow="2"
     inkscape:pageopacity="0.0"
     inkscape:pagecheckerboard="0"
     inkscape:deskcolor="#d1d1d1"
     showgrid="false"
     inkscape:zoom="1.4796209"
     inkscape:cx="424.43303"
     inkscape:cy="208.83727"
     inkscape:window-width="1920"
     inkscape:window-height="1017"
     inkscape:window-x="1912"
     inkscape:window-y="-8"
     inkscape:window-maximized="1"
     inkscape:current-layer="svg21008" /><rect
     width="200"
     height="200"
     style="fill:#ffffff"
     id="rect20992" /><rect
     x="5"
     y="5"
     width="190"
     height="190"
     style="fill:#237f52;fill-opacity:1"
     id="rect20994" /><path
     id="circle21002"
     style="fill:#ffffff;stroke:none;stroke-width:2.73754"
     d="M 79.34295,56.092012 A 21.526909,21.526909 0 0 0 57.8156,77.618379 21.526909,21.526909 0 0 0 79.34295,99.145723 21.526909,21.526909 0 0 0 100.87029,77.618379 21.526909,21.526909 0 0 0 79.34295,56.092012 Z M 54.30388,106.71018 c 0,0 -1.32648,0.036 -2.76074,0.31445 -4.38993,0.8523 -6.77879,2.41213 -10.58789,4.75488 -3.12748,1.92353 -6.08481,4.32097 -8.2793,7.26465 -2.74131,3.67722 -3.93441,5.24745 -5.74414,9.46191 -0.24656,0.5742 -0.71811,4.03309 -0.95019,4.61329 -0.10584,0.26461 -0.0635,0.96289 -0.0635,0.96289 v 9.12402 H 48.3898 l -0.0195,-3.88574 c 0,0 0.25877,-1.53512 1.78808,-1.52148 1.76604,0.0157 1.7793,1.52148 1.7793,1.52148 v 38.35352 h 54.40625 v -38.01563 l 18.77051,28.33496 a 11.389177,11.389177 0 0 0 10.12207,6.20118 11.389177,11.389177 0 0 0 8.76367,-4.1377 c 0.0732,-0.0442 0.13352,-0.0936 0.16992,-0.15431 0.43708,-0.72845 24.51762,-34.62912 30.61328,-44.40331 a 11.389177,11.389177 0 0 0 1.32325,-2.29688 c 0.0432,-0.0994 0.0864,-0.19948 0.0977,-0.25586 a 11.389177,11.389177 0 0 0 0.83496,-4.24023 11.389177,11.389177 0 0 0 -11.38964,-11.38867 11.389177,11.389177 0 0 0 -10.16407,6.28515 l -19.23541,30.44824 -17.40332,-25.85156 c 0,0 -2.45624,-4.39855 -7.74121,-7.52441 -5.44769,-3.22211 -11.52051,-3.96484 -11.52051,-3.96484 z" /><rect
     style="fill:#ffffff;fill-opacity:1;stroke:none;stroke-width:3.25"
     id="rect1119"
     width="25.567503"
     height="18.27957"
     x="22.903526"
     y="147.86266" /><rect
     style="fill:#ffffff;fill-opacity:1;stroke:none;stroke-width:3.40863"
     id="rect1121"
     width="22.341696"
     height="6.3321385"
     x="26.093903"
     y="170.9007" /><path
     id="circle1153"
     d="m 157.64764,18.884824 c -14.01608,0 -25.37837,11.36229 -25.37837,25.378378 0,14.016089 11.36229,25.378378 25.37837,25.378378 6.55548,-0.02236 12.84801,-2.580633 17.55945,-7.138837 -3.08585,1.726484 -6.55929,2.641803 -10.09522,2.660298 -11.54267,0 -20.89985,-9.357177 -20.89985,-20.899839 0,-11.542661 9.35718,-20.899839 20.89985,-20.899839 3.54951,0.0022 7.04004,0.907937 10.14246,2.632451 -4.72762,-4.559337 -11.03874,-7.108274 -17.60669,-7.11099 z m 17.55945,43.617919 c -49.02743,-37.040456 -24.51373,-18.520225 0,0 z"
     sodipodi:nodetypes="cscccsccccc"
     style="fill:#ffffff;fill-opacity:1;stroke:none;stroke-width:0.074642;stroke-opacity:1" /></svg>
