<?xml version="1.0" encoding="UTF-8" standalone="no"?>
<svg
   version="1.1"
   width="400px"
   height="400px"
   viewBox="0 0 200 200"
   id="svg1686"
   sodipodi:docname="ISO_7010_E024.svg"
   inkscape:version="1.2.1 (9c6d41e410, 2022-07-14)"
   xmlns:inkscape="http://www.inkscape.org/namespaces/inkscape"
   xmlns:sodipodi="http://sodipodi.sourceforge.net/DTD/sodipodi-0.dtd"
   xmlns="http://www.w3.org/2000/svg"
   xmlns:svg="http://www.w3.org/2000/svg">
  <defs
     id="defs1690" />
  <sodipodi:namedview
     id="namedview1688"
     pagecolor="#ffffff"
     bordercolor="#000000"
     borderopacity="0.25"
     inkscape:showpageshadow="2"
     inkscape:pageopacity="0.0"
     inkscape:pagecheckerboard="0"
     inkscape:deskcolor="#d1d1d1"
     showgrid="false"
     inkscape:zoom="0.65625"
     inkscape:cx="-210.28571"
     inkscape:cy="217.90476"
     inkscape:window-width="1366"
     inkscape:window-height="705"
     inkscape:window-x="-8"
     inkscape:window-y="-8"
     inkscape:window-maximized="1"
     inkscape:current-layer="svg1686" />
  <rect
     width="200"
     height="200"
     style="fill:#ffffff;"
     id="rect1662" />
  <rect
     x="5"
     y="5"
     width="190"
     height="190"
     style="fill:#008855"
     id="rect1664" />
  <path
     d="m 29.772,21.893 -7.5945,7.5905 22.091,22.095 h -22.08 l 10.065,10.065 h 29.682 v -29.69 l -10.081,-10.061 v 22.091 z"
     id="path1666"
     style="fill:#ffffff;stroke:none" />
  <path
     d="m 22.178,169.95 7.5905,7.5945 22.095,-22.091 v 22.08 l 10.065,-10.065 v -29.682 h -29.69 l -10.061,10.081 h 22.091 z"
     id="path1668"
     style="fill:#ffffff;stroke:none" />
  <path
     d="m 177.73,29.488 -7.5905,-7.5945 -22.095,22.091 v -22.08 l -10.065,10.065 v 29.682 h 29.69 l 10.061,-10.081 h -22.091 z"
     id="path1670"
     style="fill:#ffffff;stroke:none" />
  <path
     d="m 170.13,177.54 7.5945,-7.5906 -22.092,-22.095 h 22.08 l -10.065,-10.065 h -29.682 v 29.69 l 10.081,10.061 v -22.091 z"
     id="path1672"
     style="fill:#ffffff;stroke:none" />
  <g
     id="g1698"
     transform="matrix(1.3677423,0,0,1.3677423,-375.51784,2.0090682)">
    <g
       id="g3214"
       transform="matrix(2.0137286,0,0,-2.0137286,307.84703,38.022235)">
		<path
   fill="#ffffff"
   d="m 18.85,-4.504 c 0,-1.452 -1.18,-2.648 -2.648,-2.648 -1.46,0 -2.648,1.196 -2.648,2.648 0,1.468 1.188,2.648 2.648,2.648 1.464,0 2.648,-1.18 2.648,-2.648 z"
   id="path1561" />

	</g>
    <g
       id="g3218"
       transform="matrix(2.0137286,0,0,-2.0137286,314.33261,47.945246)">
		<path
   fill="#ffffff"
   d="m 27.984,-22.467 c -0.728,-0.432 -1.704,-0.156 -2.124,0.532 l -3.508,6.08 h -8.584 c -1.4,-0.008 -2.58,1 -2.696,2.404 l -0.464,8.04 c -0.068,1.404 1,2.624 2.416,2.704 1.408,0.076 2.6,-1.016 2.696,-2.408 l 0.172,-2.272 h 4.952 c 0.672,-0.024 1.196,-0.54 1.196,-1.204 0,-0.672 -0.54,-1.172 -1.196,-1.212 h -4.812 l 0.064,-2 h 6.624 c 0.508,-0.016 1,-0.28 1.28,-0.748 l 4.516,-7.8 c 0.416,-0.76 0.196,-1.672 -0.532,-2.116 z"
   id="path1564" />

	</g>
    <g
       id="g3222"
       transform="matrix(2.0137286,0,0,-2.0137286,308.70445,49.467447)">
		<path
   fill="#ffffff"
   d="m 26.539,-20.383 c -1.556,-3.468 -5.016,-5.904 -9.064,-5.904 -5.5,0 -9.952,4.46 -9.952,9.952 0,3.56 1.888,6.656 4.7,8.412 l 0.144,-2.46 c -1.68,-1.444 -2.76,-3.568 -2.76,-5.952 0,-4.352 3.524,-7.868 7.868,-7.868 3.78,0 6.916,2.688 7.664,6.244 z"
   id="path1567" />

	</g>
  </g>
</svg>
