<?xml version="1.0" encoding="utf-8"?>
<!-- Generator: Adobe Illustrator 16.0.3, SVG Export Plug-In . SVG Version: 6.00 Build 0)  -->
<!DOCTYPE svg PUBLIC "-//W3C//DTD SVG 1.1//EN" "http://www.w3.org/Graphics/SVG/1.1/DTD/svg11.dtd">
<svg version="1.1"
	 id="svg1686" xmlns:svg="http://www.w3.org/2000/svg" inkscape:version="1.2.1 (9c6d41e410, 2022-07-14)" sodipodi:docname="ISO_7010_E027.svg" xmlns:sodipodi="http://sodipodi.sourceforge.net/DTD/sodipodi-0.dtd" xmlns:inkscape="http://www.inkscape.org/namespaces/inkscape"
	 xmlns="http://www.w3.org/2000/svg" xmlns:xlink="http://www.w3.org/1999/xlink" x="0px" y="0px" width="400px" height="400px"
	 viewBox="0 0 400 400" enable-background="new 0 0 400 400" xml:space="preserve">
<sodipodi:namedview  inkscape:pagecheckerboard="0" inkscape:window-width="1366" inkscape:deskcolor="#d1d1d1" inkscape:showpageshadow="2" inkscape:pageopacity="0.0" inkscape:window-maximized="1" inkscape:window-height="705" inkscape:window-x="-8" inkscape:current-layer="svg1686" inkscape:window-y="-8" id="namedview1688" pagecolor="#ffffff" inkscape:zoom="0.46403883" inkscape:cx="606.63027" bordercolor="#000000" inkscape:cy="394.36355" borderopacity="0.25" showgrid="false">
	</sodipodi:namedview>
<rect id="rect1662" fill="#FFFFFF" width="400" height="400"/>
<rect id="rect1664" x="10" y="10" fill="#008855" width="380" height="380"/>
<g id="g4933" transform="matrix(0.91087833,0,0,0.91087833,7.2783141,8.771363)">
	<g id="g3920" transform="translate(0.57142941,0.0625575)">
		<path id="path4896" fill="#FFFFFF" d="M86.343,162.778l-43.426,19.047c-0.011,0.005-1.402,0.599-2.996,1.504
			c-1.6,0.909-3.432,1.994-4.531,3.723c-1.025,1.611-1.198,3.526-1.328,5.184c-0.13,1.657-0.086,3.035-0.086,3.035l-0.004,164.391
			v0.031c0,0,0.054,1.489,0.324,3.227c0.27,1.738,0.557,3.721,1.929,5.258c1.236,1.382,2.841,1.736,4.273,2.132
			c1.433,0.397,2.688,0.603,2.688,0.603l0.066,0.008l276.66,23.21h0.019c0,0,0.997,0.063,2.215,0.056
			c1.219-0.009,2.607-0.032,3.864-0.411c1.273-0.384,2.391-1.133,3.332-1.789c0.893-0.624,1.503-1.129,1.57-1.184l0.083-0.062
			l30.585-22.317l-2.038-2.792l-30.707,22.409l-0.043,0.035c0,0-0.609,0.505-1.426,1.074c-0.817,0.57-1.892,1.178-2.352,1.317
			c-0.445,0.134-1.793,0.254-2.886,0.262c-1.094,0.006-1.984-0.046-1.984-0.046L43.687,367.489c-0.053-0.009-1.065-0.18-2.262-0.512
			c-1.228-0.34-2.598-1.079-2.621-1.105c-0.233-0.261-0.854-1.974-1.09-3.484c-0.232-1.489-0.284-2.746-0.285-2.781l0.004-164.418
			v-0.027c0,0-0.04-1.21,0.074-2.656c0.114-1.446,0.511-3.148,0.797-3.598c0.36-0.567,1.908-1.771,3.324-2.574
			c1.416-0.804,2.664-1.34,2.664-1.34h0.004l43.437-19.051L86.343,162.778z"/>
		<path id="path4893" fill="#FFFFFF" d="M36.652,187.907L36.5,191.36l279.473,12.382c0.041,0.006,1.058,0.162,2.308,0.488
			c1.275,0.333,2.752,0.954,3.113,1.262c0.284,0.243,1.056,1.475,1.531,2.567c0.425,0.976,0.636,1.646,0.691,1.816v182.867h3.456
			V209.302l-0.081-0.254c0,0-0.345-1.094-0.898-2.367c-0.554-1.273-1.196-2.737-2.453-3.812c-1.334-1.141-3.021-1.598-4.488-1.98
			c-1.467-0.383-2.704-0.57-2.704-0.57l-0.094-0.016L36.652,187.907z"/>
		<path id="path4890" fill="#FFFFFF" d="M86.644,162.844l-0.156,3.45l264.324,12.047c0.042,0.006,1.059,0.162,2.308,0.488
			c1.276,0.332,2.753,0.953,3.113,1.262c0.284,0.243,1.053,1.475,1.528,2.566c0.427,0.98,0.642,1.66,0.695,1.824V367.34h3.458
			V183.899l-0.083-0.254c0,0-0.344-1.095-0.898-2.367c-0.553-1.273-1.195-2.737-2.453-3.812c-1.333-1.141-3.021-1.598-4.488-1.981
			c-1.467-0.383-2.707-0.57-2.707-0.57l-0.09-0.012L86.644,162.844z"/>
	</g>
	<path id="path6652" fill="#FFFFFF" d="M184.839,150.632c-2.556,0.021-5.111,0.123-7.391,0.332
		c-4.815,0.442-8.559,1.379-13.153,2.888c-5.624,1.848-11.447,4.029-16.785,6.587c-4.56,2.185-9.893,4.848-14.274,7.374
		c-4.642,2.675-9.156,5.674-13.311,9.055c-4.32,3.515-8.425,7.499-11.429,12.19c-2.365,3.693-4.951,12.19-4.951,12.19l-0.371,63.735
		l-64.728-4.076l-0.096,37.367l65.221,3.326l-0.223,72.762l25.321,1.617l0.319-73.047l107.027,7.453l-0.135,74.752l24.783,1.617
		l0.135-74.885l65.054,3.772v-36.638l-65.356-4.115v-58.4c0,0-0.354-4.593-0.761-6.857c-0.555-3.092-1.31-6.157-2.286-9.143
		c-1.15-3.519-2.6-6.942-4.19-10.286c-0.719-1.512-1.455-3.019-2.206-4.518l0.688-0.86h-1.132c-0.179-0.352-0.362-0.702-0.545-1.053
		l1.979-2.046h-3.049c-1.392-2.574-2.869-5.1-4.499-7.524c-0.012-0.017-0.026-0.031-0.036-0.047l35.328-0.476
		c0,0-6.593-4.565-9.966-6.733c-4.779-3.073-9.458-6.361-14.546-8.89c-4.405-2.189-8.955-4.229-13.736-5.388
		c-3.421-0.83-6.986-1.037-10.507-1.076c-2.251-0.025-4.526,0.101-6.735,0.538c-2.16,0.428-5.798,1.768-7.001,2.221
		c-2.829-0.8-5.71-1.424-8.609-1.863c-5.781-0.876-10.609-1.416-16.448-1.705C189.953,150.669,187.396,150.61,184.839,150.632
		L184.839,150.632z M192.486,170.76c1.895-0.029,3.783,0.036,5.916,0.395c4.163,0.7,8.336,1.706,12.19,3.429
		c3.023,1.351,5.987,3.046,8.382,5.333c0.166,0.159,0.319,0.329,0.48,0.493h-1.844l-3.772,3.637h3.096l-3.197,3.568l5.352-0.066
		l3.064-3.832c1.474,2.076,2.77,4.3,4.057,6.486c2.218,3.769,4.164,7.719,5.714,11.808c1.497,3.947,3.429,12.192,3.429,12.192
		l-0.729,59.056l-105.997-6.673l-0.319-62.669c0,0,0.554-2.621,1.141-3.81c1.248-2.529,3.082-4.748,4.953-6.857
		c1.491-1.681,3.183-3.188,4.953-4.571c3.508-2.74,7.237-5.22,11.124-7.393h0.266l-3.199,3.568l5.354-0.066l3.233-4.042h-2.695
		l1.79-1.85c2.545-1.135,5.156-2.136,7.745-3.167c4.143-1.649,7-3.092,11.358-4.033c3.237-0.699,8.885-0.731,12.196-0.761
		C188.689,170.912,190.591,170.788,192.486,170.76L192.486,170.76z M71.704,173.551l-3.772,3.637h3.098l-3.199,3.568l5.354-0.066
		l3.231-4.042h-2.693l2.998-3.096H71.704z M84.224,173.948l-3.772,3.637h3.098l-3.199,3.568l5.354-0.066l3.231-4.04h-2.693
		l2.998-3.098H84.224z M97.417,174.883l-3.77,3.637h3.096l-3.199,3.57l5.354-0.066l3.233-4.042h-2.693l2.995-3.098H97.417z
		 M110.371,175.55l-3.772,3.637h3.098l-3.199,3.57l5.354-0.066l3.231-4.042h-2.693l2.998-3.098H110.371z M165.038,178.217
		l-3.772,3.637h3.098l-3.199,3.57l5.354-0.069l3.231-4.04h-2.693l2.998-3.098H165.038z M178.18,178.217l-3.772,3.637h3.098
		l-3.199,3.57l5.354-0.069l3.233-4.04h-2.695l2.998-3.098H178.18z M192.276,179.266l-3.772,3.637h3.098l-3.199,3.568l5.354-0.066
		l3.231-4.042h-2.693l2.998-3.096H192.276z M204.56,179.836l-3.77,3.637h3.096l-3.197,3.57l5.352-0.069l3.233-4.04h-2.693
		l2.995-3.098H204.56z M220.978,182.111c0.362,0.447,0.686,0.926,1.023,1.394h-2.372L220.978,182.111z M258.273,182.265
		l-3.772,3.637h3.098l-3.199,3.568l5.354-0.066l3.231-4.042h-2.693l2.998-3.096H258.273z M271.741,182.87l-3.77,3.637h3.096
		l-3.199,3.57l5.354-0.069l3.234-4.04h-2.693l2.995-3.098H271.741z M285.211,183.14l-3.772,3.637h3.098l-3.199,3.568l5.354-0.066
		l3.231-4.04h-2.693l2.998-3.098H285.211z M298.747,183.949l-3.772,3.637h3.098l-3.199,3.568l5.354-0.066l3.231-4.04h-2.693
		l2.995-3.098H298.747z M311.945,184.42l-3.77,3.637h3.096l-3.199,3.568l5.354-0.066l3.234-4.042h-2.693l2.995-3.096H311.945z
		 M326.019,184.757l-3.77,3.637h3.096l-3.197,3.568l5.352-0.066l3.233-4.042h-2.693l2.995-3.096H326.019z M337.645,186.423
		l-2.125,2.05c-0.355-0.161-0.738-0.311-1.098-0.315c-0.16-0.002-0.316,0.024-0.463,0.092c-0.72,0.337-1.062,1.304-1.143,2.095
		c-0.57,5.615,2.962,10.909,4.951,16.191c0.388,1.032,0.799,2.055,1.222,3.073l-5.712,3.532v6.096l7.237-4.857v-1.269
		c1.064,2.341,2.192,4.655,3.349,6.949c0.684,1.357,1.391,2.706,2.121,4.04l-1.662,1.029v6.094l4.16-2.792
		c0.236,0.386,0.475,0.77,0.716,1.151c1.701,2.696,5.523,7.811,5.523,7.811l0.761-0.761l0.38-22.096c0,0-0.808-1.615-1.237-2.191
		c-1.119-1.504-2.006-2.667-2.95-4.286c-1.065-1.825-2.172-3.626-3.313-5.406l3.602-2.417v-5.714l-6.381,3.948
		c-0.842-1.221-1.705-2.43-2.672-3.553c-0.834-0.968-1.73-1.883-2.665-2.755l2.114-2.64h-2.693l2.995-3.098H337.645z
		 M341.734,199.295c1.232-0.073,2.374,1.723,2.991,3.03v2.768l0.813-0.545c0.378,1.472,0.428,3.025-0.69,3.557
		c-1.477,0.703-3.144-1.6-3.81-3.094c-0.762-1.713-1.445-4.903,0.287-5.62C341.462,199.335,341.598,199.303,341.734,199.295
		L341.734,199.295z M340.561,221.344l-7.237,4.477v6.094l7.237-4.857V221.344z M351.694,234.389l-7.239,4.477v6.094l7.239-4.857
		V234.389z M340.649,234.66l-7.237,4.475v6.096l7.237-4.857V234.66z"/>
</g>
<path id="path5436" sodipodi:nodetypes="cc" fill="#FFFFFF" stroke="#FFFFFF" stroke-width="0.9364" d="M63.714,169.355
	l248.572,11.572"/>
<path id="path5492" fill="#FFFFFF" stroke="#FFFFFF" stroke-width="0.9364" d="M304.303,246.737l31.786-18.352"/>
<g id="path6232" transform="matrix(0.91087833,0,0,0.91087833,7.2783141,8.771363)">
	<path id="path6760" fill="#FFFFFF" d="M329.152,263.448l4.261-2.461"/>
	<path id="path6757" sodipodi:nodetypes="ccccc" fill="#FFFFFF" d="M334.042,259.661l-5.235,2.81l0.034,2.152l5.255-2.831
		L334.042,259.661z"/>
</g>
<g id="path6232-0" transform="matrix(0.91087833,0,0,0.91087833,10.023486,7.1934894)">
	<path id="path6236-8" fill="#FFFFFF" d="M332.166,261.715l4.261-2.459"/>
	<path id="path6763" sodipodi:nodetypes="ccccc" fill="#FFFFFF" d="M337.056,257.928l-5.234,2.811l0.033,2.151l5.255-2.83
		L337.056,257.928z"/>
</g>
<g id="path6232-4" transform="matrix(0.91087833,0,0,0.91087833,12.768658,5.6753587)">
	<path id="path6754" fill="#FFFFFF" d="M335.179,260.049l4.261-2.46"/>
	<path id="path6751" sodipodi:nodetypes="ccccc" fill="#FFFFFF" d="M340.069,256.262l-5.234,2.81l0.033,2.153l5.255-2.833
		L340.069,256.262z"/>
</g>
<g id="path6232-1" transform="matrix(0.91087833,0,0,0.91087833,15.51383,4.222291)">
	<path id="path6748" fill="#FFFFFF" d="M338.193,258.453l4.261-2.461"/>
	<path id="path6745" sodipodi:nodetypes="ccccc" fill="#FFFFFF" d="M343.083,254.666l-5.234,2.81l0.034,2.153l5.254-2.833
		L343.083,254.666z"/>
</g>
<g id="path6232-6" transform="matrix(0.91087833,0,0,0.91087833,18.259002,2.6824728)">
	<path id="path6742" fill="#FFFFFF" d="M341.207,256.763l4.261-2.461"/>
	<path id="path6739" sodipodi:nodetypes="ccccc" fill="#FFFFFF" d="M346.097,252.977l-5.234,2.81l0.034,2.152l5.254-2.831
		L346.097,252.977z"/>
</g>
<g>
	<path fill="#FFFFFF" d="M296.606,91.347c0-22.841,18.514-41.358,41.357-41.358c7.28,0,14.122,1.884,20.066,5.189
		c-9.028-8.7-21.309-14.052-34.838-14.052c-27.736,0-50.223,22.485-50.223,50.221c0,27.737,22.486,50.223,50.223,50.223
		c13.529,0,25.81-5.353,34.838-14.052c-5.944,3.303-12.786,5.188-20.066,5.188C315.12,132.706,296.606,114.189,296.606,91.347z"/>
</g>
</svg>
