<?xml version="1.0" encoding="utf-8"?>
<!-- Generator: Adobe Illustrator 16.0.3, SVG Export Plug-In . SVG Version: 6.00 Build 0)  -->
<!DOCTYPE svg PUBLIC "-//W3C//DTD SVG 1.1//EN" "http://www.w3.org/Graphics/SVG/1.1/DTD/svg11.dtd">
<svg version="1.1" id="Layer_1" xmlns:svg="http://www.w3.org/2000/svg"
	 xmlns="http://www.w3.org/2000/svg" xmlns:xlink="http://www.w3.org/1999/xlink" x="0px" y="0px" width="400px" height="400px"
	 viewBox="0 0 400 400" enable-background="new 0 0 400 400" xml:space="preserve">
<g>
	<rect fill="#FFFFFF" width="400" height="400"/>
	<rect x="10" y="10" fill="#008855" width="380" height="380"/>
	<g>
		<path fill="#FFFFFF" d="M151.42,49.38c-1.106-0.001-2.201,0.016-3.313,0.063c-34.276,0.766-65.532,23.569-84.813,54.375
			C95,157.172,168.7,170.995,213.045,129.13c9.212-7.205,17.136-15.962,23.563-26.375c-19.297-30.637-50.899-53.339-85.184-53.38
			L151.42,49.38z M184.92,73.63c11.246,7.002,21.078,17.07,28.438,28.75c-4.703,7.62-10.51,14.103-17.25,19.375
			c-32.45,30.635-86.362,20.48-109.563-18.563c7.328-11.708,16.987-21.827,28.12-28.94c-2.819,5.708-4.212,12.015-4.06,18.38
			c-0.98,21.727,15.839,40.135,37.565,41.115c21.727,0.98,40.135-15.839,41.115-37.565c0.053-1.183,0.053-2.367,0-3.549
			c0.156-6.6-1.351-13.134-4.38-19L184.92,73.63z M148.68,74.39c10.158-0.724,18.98,6.925,19.703,17.083
			c0.032,0.452,0.048,0.904,0.047,1.357c0,10.184-8.256,18.44-18.44,18.44c-10.185,0-18.44-8.256-18.44-18.44
			c-0.025-9.69,7.455-17.747,17.12-18.44H148.68z"/>
		<path fill="#FFFFFF" d="M210.58,267.359c0,15.44-10.84,28.261-20.46,28.261s-25.88,2.28-25.88,16.95v45.3h-28.28v-45.3
			c0-14.461-18.86-16.961-29.48-16.961c-10.64,0-17.46-12.159-17.46-28.26L210.58,267.359z"/>
		<path fill="#FFFFFF" d="M53.62,134.18c0,2.905-2.355,5.26-5.26,5.26c-2.905,0-5.26-2.355-5.26-5.26c0-2.905,2.355-5.26,5.26-5.26
			C51.265,128.92,53.62,131.275,53.62,134.18z M74.08,158.68c0,2.905-2.355,5.26-5.26,5.26c-2.905,0-5.26-2.355-5.26-5.26
			c0-2.905,2.355-5.26,5.26-5.26C71.725,153.42,74.08,155.775,74.08,158.68z M104.18,158.68c0,2.905-2.355,5.26-5.26,5.26
			c-2.905,0-5.26-2.355-5.26-5.26l0,0c0-2.905,2.355-5.26,5.26-5.26C101.825,153.42,104.18,155.775,104.18,158.68z M206.66,158.68
			c0,2.905-2.355,5.26-5.26,5.26c-2.905,0-5.26-2.355-5.26-5.26c0-2.905,2.355-5.26,5.26-5.26
			C204.305,153.42,206.66,155.775,206.66,158.68z M236.32,158.68c0,2.905-2.355,5.26-5.26,5.26c-2.906,0-5.261-2.355-5.261-5.26
			c0-2.905,2.354-5.26,5.261-5.26C233.965,153.42,236.32,155.775,236.32,158.68z M223.58,179.04c0,2.905-2.355,5.26-5.26,5.26
			c-2.905,0-5.26-2.355-5.26-5.26c0-2.905,2.354-5.26,5.26-5.26C221.225,173.78,223.58,176.135,223.58,179.04z M197.88,179.04
			c0,2.905-2.355,5.26-5.26,5.26c-2.905,0-5.26-2.355-5.26-5.26c0-2.905,2.355-5.26,5.26-5.26
			C195.525,173.78,197.88,176.135,197.88,179.04z M177.5,179.04c0,2.905-2.355,5.26-5.26,5.26c-2.905,0-5.26-2.355-5.26-5.26
			c0-2.905,2.355-5.26,5.26-5.26C175.145,173.78,177.5,176.135,177.5,179.04z M155.46,179.04c0,2.905-2.355,5.26-5.26,5.26
			c-2.905,0-5.26-2.355-5.26-5.26c0-2.905,2.355-5.26,5.26-5.26C153.105,173.78,155.46,176.135,155.46,179.04z M133,179.04
			c0,2.905-2.355,5.26-5.26,5.26c-2.905,0-5.26-2.355-5.26-5.26c0-2.905,2.355-5.26,5.26-5.26
			C130.645,173.78,133,176.135,133,179.04z M112.84,179.04c0,2.905-2.355,5.26-5.26,5.26c-2.905,0-5.26-2.355-5.26-5.26
			c0-2.905,2.355-5.26,5.26-5.26C110.485,173.78,112.84,176.135,112.84,179.04z M86.98,179.04c0,2.905-2.355,5.26-5.26,5.26
			c-2.905,0-5.26-2.355-5.26-5.26c0-2.905,2.355-5.26,5.26-5.26C84.625,173.78,86.98,176.135,86.98,179.04z M95.7,197.68
			c0,2.905-2.355,5.259-5.26,5.259c-2.905,0-5.26-2.354-5.26-5.259c0-2.905,2.355-5.26,5.26-5.26
			C93.345,192.42,95.7,194.775,95.7,197.68z M118.74,197.68c0,2.905-2.355,5.259-5.26,5.259c-2.905,0-5.26-2.354-5.26-5.259
			c0-2.905,2.355-5.26,5.26-5.26C116.385,192.42,118.74,194.775,118.74,197.68z M137.46,197.68c0,2.905-2.355,5.259-5.26,5.259
			c-2.905,0-5.26-2.354-5.26-5.259c0-2.905,2.355-5.26,5.26-5.26C135.105,192.42,137.46,194.775,137.46,197.68z M155.606,197.68
			c0,2.905-2.355,5.259-5.26,5.259c-2.905,0-5.26-2.354-5.26-5.259c0-2.905,2.355-5.26,5.26-5.26
			C153.251,192.42,155.606,194.775,155.606,197.68z M173.187,197.68c0,2.905-2.355,5.259-5.26,5.259c-2.905,0-5.26-2.354-5.26-5.259
			c0-2.905,2.355-5.26,5.26-5.26C170.832,192.42,173.187,194.775,173.187,197.68z M192.267,197.68c0,2.905-2.355,5.259-5.26,5.259
			c-2.905,0-5.26-2.354-5.26-5.259c0-2.905,2.355-5.26,5.26-5.26C189.912,192.42,192.267,194.775,192.267,197.68z M215.026,197.68
			c0,2.905-2.354,5.259-5.26,5.259s-5.261-2.354-5.261-5.259c0-2.905,2.355-5.26,5.261-5.26S215.026,194.775,215.026,197.68z
			 M208.826,214.98c0,2.904-2.355,5.26-5.26,5.26c-2.905,0-5.26-2.355-5.26-5.26c0-2.905,2.355-5.26,5.26-5.26
			C206.471,209.721,208.826,212.075,208.826,214.98z M187.866,214.98c0,2.904-2.355,5.26-5.26,5.26c-2.905,0-5.26-2.355-5.26-5.26
			c0-2.905,2.355-5.26,5.26-5.26C185.511,209.721,187.866,212.075,187.866,214.98z M171.016,214.98c0,2.904-2.355,5.26-5.26,5.26
			c-2.905,0-5.26-2.355-5.26-5.26c0-2.905,2.355-5.26,5.26-5.26C168.661,209.721,171.016,212.075,171.016,214.98z M155.456,214.98
			c0,2.904-2.355,5.26-5.26,5.26c-2.905,0-5.26-2.355-5.26-5.26c0-2.905,2.355-5.26,5.26-5.26
			C153.101,209.721,155.456,212.075,155.456,214.98z M139.616,214.98c0,2.904-2.355,5.26-5.26,5.26c-2.905,0-5.26-2.355-5.26-5.26
			c0-2.905,2.355-5.26,5.26-5.26C137.261,209.721,139.616,212.075,139.616,214.98z M122.476,214.98c0,2.904-2.355,5.26-5.26,5.26
			c-2.905,0-5.26-2.355-5.26-5.26c0-2.905,2.355-5.26,5.26-5.26C120.121,209.721,122.476,212.075,122.476,214.98z M101.816,214.98
			c0,2.904-2.355,5.26-5.26,5.26c-2.905,0-5.26-2.355-5.26-5.26c0-2.905,2.355-5.26,5.26-5.26
			C99.461,209.721,101.816,212.075,101.816,214.98z M105.556,229.5c0,2.905-2.355,5.26-5.26,5.26c-2.905,0-5.26-2.354-5.26-5.26
			s2.355-5.26,5.26-5.26C103.201,224.24,105.556,226.595,105.556,229.5L105.556,229.5z M124.636,229.5c0,2.905-2.355,5.26-5.26,5.26
			c-2.905,0-5.26-2.354-5.26-5.26s2.355-5.26,5.26-5.26C122.281,224.24,124.636,226.595,124.636,229.5L124.636,229.5z
			 M141.056,229.5c0,2.905-2.355,5.26-5.26,5.26c-2.905,0-5.26-2.354-5.26-5.26s2.355-5.26,5.26-5.26
			C138.701,224.24,141.056,226.595,141.056,229.5L141.056,229.5z M155.596,229.5c0,2.905-2.355,5.26-5.26,5.26
			c-2.905,0-5.26-2.354-5.26-5.26s2.355-5.26,5.26-5.26C153.241,224.24,155.596,226.595,155.596,229.5L155.596,229.5z
			 M169.856,229.5c0,2.905-2.355,5.26-5.26,5.26c-2.905,0-5.26-2.354-5.26-5.26s2.355-5.26,5.26-5.26
			C167.501,224.24,169.856,226.595,169.856,229.5L169.856,229.5z M185.856,229.5c0,2.905-2.355,5.26-5.26,5.26
			c-2.905,0-5.26-2.354-5.26-5.26s2.355-5.26,5.26-5.26C183.501,224.24,185.856,226.595,185.856,229.5L185.856,229.5z
			 M205.076,229.5c0,2.905-2.355,5.26-5.26,5.26s-5.26-2.354-5.26-5.26s2.355-5.26,5.26-5.26S205.076,226.595,205.076,229.5
			L205.076,229.5z M202.557,244.02c0,2.905-2.355,5.26-5.261,5.26c-2.905,0-5.26-2.354-5.26-5.26c0-2.904,2.355-5.26,5.26-5.26
			C200.201,238.76,202.557,241.115,202.557,244.02z M184.836,244.02c0,2.905-2.355,5.26-5.26,5.26c-2.905,0-5.26-2.354-5.26-5.26
			c0-2.904,2.355-5.26,5.26-5.26C182.481,238.76,184.836,241.115,184.836,244.02z M169.356,244.02c0,2.905-2.355,5.26-5.26,5.26
			c-2.905,0-5.26-2.354-5.26-5.26c0-2.904,2.355-5.26,5.26-5.26C167.001,238.76,169.356,241.115,169.356,244.02z M155.536,244.02
			c0,2.905-2.355,5.26-5.26,5.26c-2.905,0-5.26-2.354-5.26-5.26c0-2.904,2.355-5.26,5.26-5.26
			C153.181,238.76,155.536,241.115,155.536,244.02z M141.136,244.02c0,2.905-2.355,5.26-5.26,5.26c-2.905,0-5.26-2.354-5.26-5.26
			c0-2.904,2.355-5.26,5.26-5.26C138.781,238.76,141.136,241.115,141.136,244.02z M125.87,244.02c0,2.905-2.355,5.26-5.26,5.26
			c-2.905,0-5.26-2.354-5.26-5.26c0-2.904,2.355-5.26,5.26-5.26C123.515,238.76,125.87,241.115,125.87,244.02z M108.01,244.02
			c0,2.905-2.355,5.26-5.26,5.26c-2.905,0-5.26-2.354-5.26-5.26c0-2.904,2.355-5.26,5.26-5.26
			C105.655,238.76,108.01,241.115,108.01,244.02z M109.23,257.32c0,2.904-2.355,5.26-5.26,5.26c-2.905,0-5.26-2.355-5.26-5.26
			c0-2.905,2.355-5.26,5.26-5.26C106.875,252.061,109.23,254.415,109.23,257.32z M126.37,257.32c0,2.904-2.355,5.26-5.26,5.26
			c-2.905,0-5.26-2.355-5.26-5.26c0-2.905,2.355-5.26,5.26-5.26C124.015,252.061,126.37,254.415,126.37,257.32z M140.99,257.32
			c0,2.904-2.355,5.26-5.26,5.26c-2.905,0-5.26-2.355-5.26-5.26c0-2.905,2.355-5.26,5.26-5.26
			C138.635,252.061,140.99,254.415,140.99,257.32z M155.47,257.32c0,2.904-2.355,5.26-5.26,5.26c-2.905,0-5.26-2.355-5.26-5.26
			c0-2.905,2.354-5.26,5.26-5.26C153.115,252.061,155.47,254.415,155.47,257.32z M169.87,257.32c0,2.904-2.355,5.26-5.26,5.26
			c-2.905,0-5.26-2.355-5.26-5.26c0-2.905,2.355-5.26,5.26-5.26C167.515,252.061,169.87,254.415,169.87,257.32z M184.63,257.32
			c0,2.904-2.355,5.26-5.26,5.26c-2.905,0-5.26-2.355-5.26-5.26c0-2.905,2.355-5.26,5.26-5.26
			C182.275,252.061,184.63,254.415,184.63,257.32z M201.27,257.32c0,2.904-2.354,5.26-5.26,5.26c-2.905,0-5.26-2.355-5.26-5.26
			c0-2.905,2.355-5.26,5.26-5.26C198.915,252.061,201.27,254.415,201.27,257.32z M257.07,134.18c0,2.905-2.355,5.26-5.26,5.26
			c-2.906,0-5.261-2.355-5.261-5.26c0-2.905,2.354-5.26,5.261-5.26C254.715,128.92,257.07,131.275,257.07,134.18z"/>
	</g>
</g>
<g>
	<path fill="#FFFFFF" d="M290.771,91.71c0-22.751,18.44-41.194,41.192-41.194c7.254,0,14.067,1.877,19.988,5.168
		c-8.993-8.665-21.224-13.996-34.7-13.996c-27.626,0-50.022,22.396-50.022,50.022s22.396,50.022,50.022,50.022
		c13.477,0,25.707-5.331,34.7-13.996c-5.921,3.291-12.734,5.168-19.988,5.168C309.211,132.904,290.771,114.461,290.771,91.71z"/>
</g>
</svg>
