<?xml version="1.0" encoding="utf-8"?>
<!-- Generator: Adobe Illustrator 16.0.3, SVG Export Plug-In . SVG Version: 6.00 Build 0)  -->
<!DOCTYPE svg PUBLIC "-//W3C//DTD SVG 1.1//EN" "http://www.w3.org/Graphics/SVG/1.1/DTD/svg11.dtd">
<svg version="1.1" id="Layer_1" xmlns:svg="http://www.w3.org/2000/svg"
	 xmlns="http://www.w3.org/2000/svg" xmlns:xlink="http://www.w3.org/1999/xlink" x="0px" y="0px" width="800px" height="400.006px"
	 viewBox="0 0 800 400.006" enable-background="new 0 0 800 400.006" xml:space="preserve">
<polygon fill="#FFFFFF" points="400,0.005 400,0 800,0 800,400 400,400 400,400.006 0,400.006 0,0.005 "/>
<rect x="354.5" y="10" fill="#008855" width="435.5" height="380"/>
<path fill="#FFFFFF" d="M516.563,329.693h99L744.75,200.506L614.563,70.317h-99l89.688,89.688h-150v80h151L516.563,329.693
	L516.563,329.693z"/>
<path fill="#0F8558" d="M64.774,384.766h148.933c0,0,13.518-12.783,20.303-19.215c5.266-4.479,5.728-7.52,14.766-7.33
	c9.826,0.164,19.68,0.354,29.505,0.516l-27.741,26.029h41.313L314,362.51V204.891h-40.715c-6.378,0-7.273-0.867-11.399-4.994
	l-23.587-27.876c-6.542,14.304-12.703,26.465-19.217,40.28c-0.733,1.412-2.471,4.588-1.168,7.057l64.818,130.883l-23.777-0.08
	c-12.432,0.271-17.617-8.307-21.986-15.988c-17.534-35.34-35.15-70.652-52.712-105.992l-3.312,62.889
	c-0.868,10.885-8.224,13.654-17.859,13.953l-108.897,0.244c0-12.514,12.405-29.043,32.599-29.83c0,0,38.896,0.434,59.227,0.516
	c2.578,0,3.283-1.438,3.582-3.582c0.95-16.178,1.846-32.463,2.85-48.641c0.625-8.035,1.33-13.598,3.664-19.678
	c7.602-16.287,15.201-32.491,22.801-48.723l-27.821-0.326c-0.733-0.027-1.304,0.136-1.683,0.788l-20.141,35.286
	c-8.305,15.145-30.753,4.098-23.234-11.97l24.701-41.312c4.342-6.459,6.324-8.686,17.615-9.039c0,0,52.738-0.081,79.148-0.081
	c8.577-0.19,9.554,2.497,13.652,6.867c11.021,13.599,23.072,28.093,33.82,40.769c1.492,1.792,2.334,2.524,5.89,2.524H314V54.709
	L86.922,54.927c0,0,0.354,144.373,0.164,215.026C63.934,270.686,48,288.191,47.131,310.748c13.029,0.162,26.438-0.461,39.791-0.299
	v52.061L64.774,384.766z M10,390.006v-380h380v380H10z M230.726,68.362c15.119,0,26.708,11.618,26.708,26.817
	c0,15.227-11.589,26.845-26.708,26.845c-15.118,0-26.735-11.618-26.735-26.845C203.99,79.98,215.607,68.362,230.726,68.362z"/>
</svg>
