<?xml version="1.0" encoding="UTF-8" standalone="no"?>
<svg xmlns:svg="http://www.w3.org/2000/svg" xmlns="http://www.w3.org/2000/svg" height="400px" width="400px" viewBox="0 0 200 200" version="1.1">
	<rect style="fill:#ffffff; stroke:none; fill-rule:nonzero;" y="0" x="0" height="200" width="200" />
	<path style="fill:#008855; stroke:none; fill-rule:nonzero;" d="m 5,100 0,-95 95,0 95,0 L 195,100 l 0,95 -95,0 -95,0 0,-95 z M 179.38814,156.3262 c 1.82988,-2.90119 -1.47338,-5.48178 -6.75215,-5.27494 l -4.32138,0.16932 0,-24.98928 c 0,-13.7441 -0.29156,-25.74907 -0.64791,-26.677704 -0.53102,-1.383809 0.20943,-1.688428 4.10422,-1.688428 6.0627,0 9.20919,-2.819173 7.03398,-6.302245 l -1.39708,-2.23708 -77,0 c -67.804973,0 -77.162003,0.194975 -78.355235,1.63273 -1.03612,1.24846 -1.072273,2.253368 -0.15358,4.269662 1.019851,2.238339 1.930987,2.636933 6.027718,2.636933 l 4.826256,0 0,26.753672 0,26.75368 -2.935393,-0.22925 c -5.64948,-0.44121 -7.595229,0.0937 -8.288729,2.27874 -1.734999,5.46652 -4.035589,5.32069 79.292093,5.02594 72.06106,-0.2549 77.48222,-0.40131 78.56736,-2.12175 z M 69.009036,143.95587 c -7.045243,-3.12247 -8.503419,-6.65417 -8.503419,-20.59522 0,-19.12228 1.504106,-20.1584 29.263373,-20.1584 18.44629,0 19.83623,0.13752 20.86761,2.06466 1.42905,2.6702 1.41202,2.81287 -0.5724,4.79729 -1.39322,1.39323 -4.74903,1.67737 -19.810186,1.67737 -11.81673,0 -17.903028,0.37181 -17.473116,1.06742 0.421768,0.68243 15.852042,1.06741 42.782512,1.06741 l 42.12281,0 1.273,2.79393 c 1.12353,2.4659 0.98164,3.02986 -1.20855,4.80337 -2.27555,1.84263 -4.60369,2.00945 -28.04428,2.00945 -16.77001,0 -25.3358,0.36716 -24.90302,1.06741 0.41119,0.66532 10.66126,1.06742 27.21017,1.06742 25.44263,0 26.5782,0.0874 27.21523,2.09451 0.36563,1.15198 0.14387,3.06783 -0.49279,4.25744 -1.12878,2.10915 -2.21173,2.16987 -43.55633,2.44201 -27.368173,0.18014 -42.398753,0.65748 -42.398753,1.34649 0,0.6603 7.186217,1.17842 18.841713,1.35847 15.85228,0.24488 18.94243,0.55353 19.47652,1.94531 0.34913,0.90983 0.13927,2.58012 -0.46636,3.71174 -1.02785,1.92057 -2.39516,2.05252 -20.543919,1.98248 -10.693531,-0.0412 -20.179451,-0.40151 -21.079816,-0.80056 z m -25.971827,-14.1457 c -3.676596,-2.89202 -3.75789,-7.61349 -0.192476,-11.17891 3.565424,-3.56541 8.286914,-3.48413 11.178916,0.19247 2.934721,3.73089 2.794207,7.3768 -0.40772,10.57872 -3.201917,3.20192 -6.847835,3.34244 -10.57872,0.40772 z m 121.007731,-69.257788 0,-7.425147 7.73877,-0.313617 7.73876,-0.313617 0,-8.005618 0,-8.005618 -7.73876,-0.313617 -7.73877,-0.313617 0,-7.425147 0,-7.425147 -8.00562,0 -8.00561,0 0,7.425147 0,7.425147 -7.73877,0.313617 -7.73876,0.313617 0,8.005618 0,8.005618 7.73876,0.313617 7.73877,0.313617 0,7.425147 0,7.425147 8.00561,0 8.00562,0 0,-7.425147 z" />
</svg>
