<?xml version="1.0" encoding="UTF-8" standalone="no"?>
<svg xmlns:svg="http://www.w3.org/2000/svg" xmlns="http://www.w3.org/2000/svg"
     version="1.1" width="400px" height="400px" viewBox="0 0 200 200" id="svg2">
    <rect width="200" height="200" x="0" y="0" style="fill:#ffffff;fill-rule:nonzero;stroke:none" />
    <rect width="190" height="190" x="5" y="5" style="fill:#008855;fill-rule:nonzero;stroke:none" />
    <g style="fill:#ffffff;fill-opacity:1;stroke:none;">
    	<path d="M 55.48,94.11 C 56.64,86.572 60.32,85.492 74.95,85.548 88.29,85.586 93.13,86.478 94.61,93.509 94.95,94.072 95.29,120.92 94.96,130.89 94.86,133.96 86.85,135.91 86.45,130.35 86.36,118.5 86.46,109.35 86.24,97.93 86.24,97.93 85.44,97.818 85.17,97.977 L 84.95,138.54 C 85.15,150.7 84.68,164.3 84.72,175.08 84.54,179.83 76.13,178.46 76.1,175.08 L 75.96,127.66 C 75.96,127.66 74.13,127.6 73.94,127.62 L 73.56,174.99 C 73.56,180.21 64.92,179.11 64.93,174.77 L 65.02,137.45 C 65.02,137.45 64.76,98.334 64.72,97.705 64.46,96.287 63.83,97.649 63.67,97.649 L 63.45,131.06 C 63.1,134.85 55.42,135.26 55.17,130.6 L 55.48,94.11 z" />
    	<path d="M 68.65,69.543 C 71.54,66.088 76.96,66.173 80.5,69.543 83.65,72.547 83.21,78.161 80.65,80.545 77.25,83.699 71.85,83.549 68.65,80.545 65.45,77.541 65.71,73.044 68.65,69.543 z" />
	</g>
    <g style="fill:#ffffff;fill-opacity:1;stroke:none">
        <path d="M 70.835,21.837 79.193,21.837 79.077,33.48 88.032,33.48 C 92.31,33.48 92.808,39.494 92.808,41.231 L 57.586,41.231 C 57.586,39.398 58.183,33.48 62.362,33.48 L 70.72,33.48 z" />
        <path d="M 164.38,58.592 164.38,54.078 170.32,54.078 177.23,54.078 177.23,45.051 177.23,36.024 170.06,36.024 164.38,36.024 164.38,31.51 164.38,22.483 155.81,22.483 147.23,22.483 147.23,31.51 147.23,36.024 142.95,36.024 134.38,36.024 134.38,45.051 134.38,54.078 138.66,54.078 147.23,54.078 147.23,58.592 147.23,67.619 C 148.69,67.619 147.23,67.619 157.28,67.619 L 164.38,67.619 z" />
        <path d="M 39.313,108.59 A 2.5761,2.4971 0 0 1 34.161,108.59 2.5761,2.4971 0 1 1 39.313,108.59 z M 110.75,108.92 A 2.58,2.5009 0 0 0 115.91,108.92 2.58,2.5009 0 1 0 110.75,108.92 z M 77.453,45.286 A 2.5761,2.4971 0 0 1 72.301,45.286 2.5761,2.4971 0 1 1 77.453,45.286 z M 77.559,53.85 A 2.5761,2.4971 0 0 1 72.407,53.85 2.5761,2.4971 0 1 1 77.559,53.85 z M 77.741,62.535 A 2.5761,2.4971 0 0 1 72.589,62.535 2.5761,2.4971 0 1 1 77.741,62.535 z M 62.955,78.383 A 2.5761,2.4971 0 0 1 57.803,78.383 2.5761,2.4971 0 1 1 62.955,78.383 z M 64.806,70.346 A 2.5765,2.4975 0 0 1 59.653,70.346 2.5765,2.4975 0 1 1 64.806,70.346 z M 66.487,61.791 A 2.5761,2.4971 0 0 1 61.335,61.791 2.5761,2.4971 0 1 1 66.487,61.791 z M 68.936,53.527 A 2.5761,2.4971 0 0 1 63.784,53.527 2.5761,2.4971 0 1 1 68.936,53.527 z M 36.371,116.99 A 2.5761,2.4971 0 0 1 31.219,116.99 2.5761,2.4971 0 1 1 36.371,116.99 z M 42.246,100.93 A 2.5761,2.4971 0 0 1 37.094,100.93 2.5761,2.4971 0 1 1 42.246,100.93 z M 45.269,92.828 A 2.5761,2.4971 0 0 1 40.117,92.828 2.5761,2.4971 0 1 1 45.269,92.828 z M 48.471,84.992 A 2.5761,2.4971 0 0 1 43.319,84.992 2.5761,2.4971 0 1 1 48.471,84.992 z M 51.741,77.175 A 2.5761,2.4971 0 0 1 46.589,77.175 2.5761,2.4971 0 1 1 51.741,77.175 z M 54.955,68.85 A 2.5761,2.4971 0 0 1 49.803,68.85 2.5761,2.4971 0 1 1 54.955,68.85 z M 57.661,61.376 A 2.5761,2.4971 0 0 1 52.509,61.376 2.5761,2.4971 0 1 1 57.661,61.376 z M 60.701,53.107 A 2.5761,2.4971 0 0 1 55.549,53.107 2.5761,2.4971 0 1 1 60.701,53.107 z M 63.844,45.722 A 2.5761,2.4971 0 0 1 58.692,45.722 2.5761,2.4971 0 1 1 63.844,45.722 z M 70.75,45.513 A 2.5761,2.4971 0 0 1 65.598,45.513 2.5761,2.4971 0 1 1 70.75,45.513 z M 86.883,78.251 A 2.5761,2.4971 0 0 0 92.035,78.251 2.5761,2.4971 0 1 0 86.883,78.251 z M 85.09,70.187 A 2.5761,2.4971 0 0 0 90.242,70.187 2.5761,2.4971 0 1 0 85.09,70.187 z M 83.255,61.631 A 2.5761,2.4971 0 0 0 88.407,61.631 2.5761,2.4971 0 1 0 83.255,61.631 z M 81.391,53.53 A 2.5761,2.4971 0 0 0 86.543,53.53 2.5761,2.4971 0 1 0 81.391,53.53 z M 114.02,116.99 A 2.58,2.5009 0 0 0 119.18,116.99 2.58,2.5009 0 1 0 114.02,116.99 z M 107.66,100.93 A 2.5761,2.4971 0 0 0 112.81,100.93 2.5761,2.4971 0 1 0 107.66,100.93 z M 104.78,92.803 A 2.5761,2.4971 0 0 0 109.93,92.803 2.5761,2.4971 0 1 0 104.78,92.803 z M 101.79,85.321 A 2.5761,2.4971 0 0 0 106.94,85.321 2.5761,2.4971 0 1 0 101.79,85.321 z M 98.308,76.832 A 2.5761,2.4971 0 0 0 103.46,76.832 2.5761,2.4971 0 1 0 98.308,76.832 z M 95.526,69.075 A 2.577,2.498 0 0 0 100.68,69.075 2.577,2.498 0 1 0 95.526,69.075 z M 92.503,61.198 A 2.5761,2.4971 0 0 0 97.655,61.198 2.5761,2.4971 0 1 0 92.503,61.198 z M 89.53,53.273 A 2.5761,2.4971 0 0 0 94.682,53.273 2.5761,2.4971 0 1 0 89.53,53.273 z M 86.6,45.545 A 2.5761,2.4971 0 0 0 91.752,45.545 2.5761,2.4971 0 1 0 86.6,45.545 z M 79.597,45.499 A 2.5761,2.4971 0 0 0 84.749,45.499 2.5761,2.4971 0 1 0 79.597,45.499 z" />
    </g>
</svg>
