<?xml version="1.0" encoding="utf-8"?>
<!-- Generator: Adobe Illustrator 16.0.3, SVG Export Plug-In . SVG Version: 6.00 Build 0)  -->
<!DOCTYPE svg PUBLIC "-//W3C//DTD SVG 1.1//EN" "http://www.w3.org/Graphics/SVG/1.1/DTD/svg11.dtd">
<svg version="1.1" id="Layer_1" xmlns:svg="http://www.w3.org/2000/svg"
	 xmlns="http://www.w3.org/2000/svg" xmlns:xlink="http://www.w3.org/1999/xlink" x="0px" y="0px" width="400px" height="400px"
	 viewBox="0 0 400 400" enable-background="new 0 0 400 400" xml:space="preserve">
<g>
	<rect fill="#FFFFFF" width="400" height="400"/>
	<rect x="10" y="10" fill="#008855" width="380" height="380"/>
</g>
<g>
	<path fill="#FFFFFF" d="M143.541,200.051c0-68.247,55.324-123.571,123.57-123.571c21.761,0,42.2,5.631,59.959,15.504
		C300.09,65.99,263.404,50,222.979,50c-82.872,0-150.051,67.181-150.051,150.051c0,82.871,67.179,150.052,150.051,150.052
		c40.425,0,77.11-15.989,104.091-41.982c-17.759,9.87-38.198,15.503-59.959,15.503C198.866,323.623,143.541,268.298,143.541,200.051
		z"/>
</g>
</svg>
