<?xml version="1.0" encoding="UTF-8" standalone="no"?>
<!DOCTYPE svg PUBLIC "-//W3C//DTD SVG 1.1//EN" "http://www.w3.org/Graphics/SVG/1.1/DTD/svg11.dtd">
<svg
   xmlns:svg="http://www.w3.org/2000/svg"
   xmlns="http://www.w3.org/2000/svg"
   id="svg3964"
   viewBox="0 0 150 150"
   height="150"
   width="150"
   version="1.1">
<defs
   id="defs3966"/>
<rect style="fill:#F4F8F4" y="5" x="5" height="140" width="140" />
<path
   style="fill:#0F8558;" 
   d="M 25.18,143.07 L 80.05,143.07 C 80.05,143.07 85.03,138.36 87.53,135.99 89.47,134.34 89.64,133.22 92.97,133.29 96.59,133.35 100.22,133.42 103.84,133.48 L 93.62,143.07 108.84,143.07 117.00,134.87 117.00,76.80 102.00,76.80 C 99.65,76.80 99.32,76.48 97.80,74.96 L 89.11,64.69 C 86.70,69.96 84.43,74.44 82.03,79.53 81.76,80.05 81.12,81.22 81.60,82.13 L 105.48,130.35 96.72,130.32 C 92.14,130.42 90.23,127.26 88.62,124.43 82.16,111.41 75.67,98.40 69.20,85.38 L 67.98,108.55 C 67.66,112.56 64.95,113.58 61.40,113.69 L 21.28,113.78 C 21.28,109.17 25.85,103.08 33.29,102.79 33.29,102.79 47.62,102.95 55.11,102.98 56.06,102.98 56.32,102.45 56.43,101.66 56.78,95.70 57.11,89.70 57.48,83.74 57.71,80.78 57.97,78.73 58.83,76.49 61.63,70.49 64.43,64.52 67.23,58.54 L 56.98,58.42 C 56.71,58.41 56.50,58.47 56.36,58.71 L 48.94,71.71 C 45.88,77.29 37.61,73.22 40.38,67.30 L 49.48,52.08 C 51.08,49.70 51.81,48.88 55.97,48.75 55.97,48.75 75.40,48.72 85.13,48.72 88.29,48.65 88.65,49.64 90.16,51.25 94.22,56.26 98.66,61.60 102.62,66.27 103.17,66.93 103.48,67.20 104.79,67.20 L 117.00,67.20 117.00,21.47 33.34,21.55 C 33.34,21.55 33.47,74.74 33.40,100.77 24.87,101.04 19.00,107.49 18.68,115.80 23.48,115.86 28.42,115.63 33.34,115.69 L 33.34,134.87 25.18,143.07 Z M 5.00,145.00 L 5.00,5.00 145.00,5.00 145.00,145.00 5.00,145.00 Z M 86.32,26.50 C 91.89,26.50 96.16,30.78 96.16,36.38 96.16,41.99 91.89,46.27 86.32,46.27 80.75,46.27 76.47,41.99 76.47,36.38 76.47,30.78 80.75,26.50 86.32,26.50 Z"
/>
</svg>