<?xml version="1.0" encoding="UTF-8" standalone="no"?>
<svg
   width="400px"
   height="400px"
   version="1.1"
   viewBox="0 0 200 200"
   id="svg21008"
   sodipodi:docname="ISO_7010_E064.svg"
   inkscape:version="1.2.1 (9c6d41e410, 2022-07-14)"
   xml:space="preserve"
   xmlns:inkscape="http://www.inkscape.org/namespaces/inkscape"
   xmlns:sodipodi="http://sodipodi.sourceforge.net/DTD/sodipodi-0.dtd"
   xmlns="http://www.w3.org/2000/svg"
   xmlns:svg="http://www.w3.org/2000/svg"><defs
     id="defs21012" /><sodipodi:namedview
     id="namedview21010"
     pagecolor="#ffffff"
     bordercolor="#666666"
     borderopacity="1.0"
     inkscape:showpageshadow="2"
     inkscape:pageopacity="0.0"
     inkscape:pagecheckerboard="0"
     inkscape:deskcolor="#d1d1d1"
     showgrid="false"
     inkscape:zoom="0.73981047"
     inkscape:cx="-263.58102"
     inkscape:cy="363.60664"
     inkscape:window-width="1920"
     inkscape:window-height="1017"
     inkscape:window-x="1912"
     inkscape:window-y="-8"
     inkscape:window-maximized="1"
     inkscape:current-layer="g1127" /><rect
     width="200"
     height="200"
     style="fill:#ffffff"
     id="rect20992" /><rect
     x="5.0633607"
     y="5.4435258"
     width="190"
     height="190"
     style="fill:#237f52;fill-opacity:1"
     id="rect20994" /><g
     id="g1127"
     transform="translate(-225.54013,36.210904)"><path
       d="m 355.81961,1.7958089 h 47.168 V 17.518809 h -47.168 z m 15.723,-15.7229999 h 15.723 v 47.168 h -15.723 z"
       style="fill:#ffffff"
       id="path20996" /><rect
       style="fill:#ffffff;fill-opacity:1;stroke:none;stroke-width:3.41507"
       id="rect1121"
       width="22.426176"
       height="6.3321385"
       x="25.802906"
       y="170.86465"
       transform="translate(225.54013,-36.210904)" /><path
       id="circle21002"
       style="fill:#ffffff;stroke:none;stroke-width:2.73754"
       d="m 304.67188,19.838867 a 21.526909,21.526909 0 0 0 -21.52735,21.526367 21.526909,21.526909 0 0 0 21.52735,21.527344 21.526909,21.526909 0 0 0 21.52734,-21.527344 21.526909,21.526909 0 0 0 -21.52734,-21.526367 z m -25.03907,50.618164 c 0,0 -1.32648,0.03599 -2.76074,0.314453 -4.38993,0.852305 -6.77879,2.412126 -10.58789,4.754883 -3.12748,1.923531 -6.08481,4.320964 -8.2793,7.264649 -2.74131,3.677215 -3.93441,5.247453 -5.74414,9.461914 -0.24656,0.574193 -0.71811,4.033082 -0.95019,4.613281 -0.10584,0.264611 -0.0635,0.962891 -0.0635,0.962891 v 9.124018 h 22.47168 l -0.0195,-3.88574 c 0,0 0.25877,-1.53512 1.78808,-1.52148 1.76604,0.0157 1.7793,1.52148 1.7793,1.52148 v 38.35352 h 54.40625 v -38.01563 l 18.77051,28.33496 a 11.389177,11.389177 0 0 0 10.12207,6.20118 11.389177,11.389177 0 0 0 8.76367,-4.1377 c 0.0732,-0.0442 0.13352,-0.0936 0.16992,-0.1543 0.43708,-0.72845 24.51762,-34.629126 30.61328,-44.403316 a 11.389177,11.389177 0 0 0 1.32325,-2.296875 c 0.0432,-0.09943 0.0864,-0.199484 0.0977,-0.25586 a 11.389177,11.389177 0 0 0 0.83496,-4.240234 11.389177,11.389177 0 0 0 -11.38964,-11.388672 11.389177,11.389177 0 0 0 -10.16407,6.285156 L 361.5791,107.79785 344.17578,81.946289 c 0,0 -2.45624,-4.398558 -7.74121,-7.524414 -5.44769,-3.222112 -11.52051,-3.964844 -11.52051,-3.964844 z" /><rect
       style="fill:#ffffff;fill-opacity:1;stroke:none;stroke-width:3.25"
       id="rect1119"
       width="25.567503"
       height="18.27957"
       x="22.658138"
       y="147.82082"
       transform="translate(225.54013,-36.210904)" /></g></svg>
