<?xml version="1.0" encoding="utf-8"?>
<!-- Generator: Adobe Illustrator 16.0.3, SVG Export Plug-In . SVG Version: 6.00 Build 0)  -->
<!DOCTYPE svg PUBLIC "-//W3C//DTD SVG 1.1//EN" "http://www.w3.org/Graphics/SVG/1.1/DTD/svg11.dtd">
<svg version="1.1"
	 id="svg1686" xmlns:inkscape="http://www.inkscape.org/namespaces/inkscape" xmlns:sodipodi="http://sodipodi.sourceforge.net/DTD/sodipodi-0.dtd" xmlns:svg="http://www.w3.org/2000/svg" inkscape:version="1.2.1 (9c6d41e410, 2022-07-14)" sodipodi:docname="ISO_7010_E029.svg"
	 xmlns="http://www.w3.org/2000/svg" xmlns:xlink="http://www.w3.org/1999/xlink" x="0px" y="0px" width="400px" height="400px"
	 viewBox="0 0 400 400" enable-background="new 0 0 400 400" xml:space="preserve">
<sodipodi:namedview  id="namedview1688" inkscape:cy="45.714286" inkscape:cx="602.66667" inkscape:zoom="0.65625" showgrid="false" pagecolor="#ffffff" bordercolor="#000000" borderopacity="0.25" inkscape:current-layer="svg1686" inkscape:deskcolor="#d1d1d1" inkscape:window-y="-8" inkscape:window-maximized="1" inkscape:window-height="705" inkscape:pageopacity="0.0" inkscape:showpageshadow="2" inkscape:window-width="1366" inkscape:pagecheckerboard="0" inkscape:window-x="-8">
	</sodipodi:namedview>
<g id="g7533">
	<rect id="rect1662" fill="#FFFFFF" width="400" height="400"/>
	<rect id="rect1664" x="10" y="10" fill="#008855" width="380" height="380"/>
</g>
<g id="g7837" transform="matrix(0.96369881,0,0,0.96369881,-217.38632,43.05086)">
	<path id="path7597" fill="#FFFFFF" d="M367.503-4.259c-0.651-0.01-1.325,0.009-1.94,0.035c-0.69-0.03-1.335-0.049-2.107-0.031
		c-0.603,0.014-1.175,0.053-1.629,0.129c-0.961,0.161-2.029,0.311-2.762,0.953c-0.427,0.374-0.493,1.023-0.762,1.524
		c-0.483,0.902-0.948,1.819-1.524,2.666c-0.229,0.336-0.572,0.594-0.762,0.953c-0.404,0.763-0.505,1.652-0.762,2.477
		c-0.376,1.207-0.991,2.363-1.144,3.619c-0.124,1.01,0.209,2.029,0.191,3.047c-0.029,1.626-0.397,3.233-0.476,4.857
		c-0.045,0.92,0.083,1.845,0,2.762c-0.096,1.06-0.442,2.085-0.571,3.142c-0.123,1.01,0.138,2.086-0.192,3.049
		c-0.311,0.908-1.089,1.581-1.619,2.381c-0.938,1.417-1.797,2.887-2.762,4.285c-1.366,1.981-2.9,3.841-4.285,5.809
		c-1.475,2.095-2.765,4.32-4.287,6.381c-1.408,1.906-3.06,3.624-4.474,5.525c-0.505,0.678-0.803,1.526-1.43,2.094
		c-0.589,0.534-1.3,1.153-2.096,1.145c-0.512-0.005-0.951-0.422-1.332-0.764c-0.321-0.288-0.555-0.668-0.762-1.047
		c-0.294-0.538-0.555-1.113-0.668-1.715c-0.047-0.25,0-0.508,0-0.762c0-0.508-0.07-1.02,0-1.524c0.096-0.687,0.367-1.338,0.573-2
		c0.178-0.576,0.321-1.168,0.572-1.715c0.31-0.673,0.695-1.315,1.143-1.904c0.531-0.697,1.207-1.268,1.809-1.905
		c1.018-1.077,2.037-2.155,3.049-3.238c1.211-1.297,2.428-2.587,3.617-3.904c1.417-1.569,3.011-3.008,4.192-4.762
		c0.436-0.648,0.724-1.384,1.047-2.096c0.312-0.687,0.712-1.355,0.857-2.096c0.11-0.561,0.111-1.154,0-1.715
		c-0.113-0.573-0.309-1.157-0.666-1.619c-0.389-0.502-0.957-0.855-1.524-1.143c-0.68-0.346-1.439-0.538-2.191-0.666
		c-0.72-0.123-1.46-0.13-2.189-0.096c-0.928,0.044-1.864,0.141-2.762,0.381c-1.225,0.327-2.395,0.857-3.525,1.43
		c-1.131,0.574-2.182,1.298-3.238,2c-1.137,0.756-2.238,1.563-3.332,2.381c-1.485,1.111-2.954,2.243-4.381,3.428
		c-1.367,1.135-2.682,2.332-4,3.523c-1.35,1.221-2.699,2.443-4,3.715c-1.108,1.083-2.161,2.221-3.238,3.334
		c-0.827,0.855-1.769,1.614-2.477,2.57c-0.778,1.051-1.378,2.233-1.905,3.43c-0.485,1.103-0.707,2.305-1.143,3.428
		c-0.452,1.166-1.004,2.293-1.525,3.43c-0.526,1.149-1.032,2.308-1.617,3.428c-0.56,1.071-1.189,2.106-1.81,3.142
		c-0.309,0.514-0.563,1.069-0.954,1.524c-0.763,0.887-1.717,1.601-2.666,2.287c-1.143,0.826-2.4,1.481-3.619,2.189
		c-1.352,0.786-2.704,1.574-4.096,2.285c-1.341,0.685-2.781,1.169-4.093,1.906c-0.998,0.56-1.963,1.191-2.858,1.905
		c-0.65,0.518-1.23,1.12-1.81,1.715c-0.629,0.643-1.231,1.311-1.809,2c-0.698,0.832-1.386,1.675-2,2.57
		c-0.837,1.222-1.568,2.515-2.285,3.811c-0.915,1.652-1.817,3.317-2.572,5.047c-0.921,2.108-1.672,4.288-2.381,6.476
		c-0.722,2.228-1.368,4.483-1.904,6.762c-0.312,1.321-0.531,2.662-0.762,4c-0.354,2.058-0.695,4.118-0.953,6.19
		c-0.288,2.31-0.475,4.633-0.666,6.953c-0.152,1.84-0.288,3.68-0.381,5.524c-0.099,1.966-0.16,3.937-0.192,5.906
		c-0.034,2.158-0.032,4.316,0,6.475c0.032,2.128,0.086,4.256,0.192,6.381c0.136,2.734,0.351,5.463,0.571,8.191
		c0.252,3.145,0.475,6.295,0.857,9.428c0.381,3.124,0.923,6.228,1.428,9.334c0.511,3.147,0.958,6.307,1.619,9.427
		c0.591,2.787,1.308,5.549,2.096,8.287c0.599,2.084,1.259,4.152,2,6.19c0.924,2.542,2.004,5.027,3.049,7.523
		c0.989,2.361,1.934,4.743,3.047,7.049c1.346,2.789,2.768,5.546,4.381,8.19c0.844,1.383,1.848,2.662,2.762,4
		c0.8,1.17,1.59,2.349,2.381,3.525c0.829,1.235,1.661,2.467,2.477,3.713c0.868,1.326,1.823,2.601,2.57,4
		c0.75,1.405,1.306,2.906,1.907,4.382c0.742,1.824,1.41,3.676,2.094,5.523c0.714,1.931,1.96,3.342,2.762,5.239
		c0.592,1.398,1.422,2.976,2.191,4.286c0.704,1.2,0.839,2.597,1.524,3.808c0.463,0.821,0.831,1.694,1.156,2.578
		c0.289,0.789,0.455,1.619,0.701,2.422c0.318,1.038,0.681,2.06,1,3.097c0.282,0.916,0.534,1.842,0.811,2.761
		c0.201,0.668,0.394,1.339,0.619,1.999c0.081,0.238,0.153,0.481,0.231,0.721c-1.32,0.871-2.633,1.953-4.016,2.458
		c-6.773,2.479-13.862,3.993-20.761,6.094c-3.631,1.107-7.426,1.81-10.858,3.429c-1.37,0.647-2.732,1.413-3.809,2.477
		c-1.303,1.288-2.477,2.831-3.049,4.57c-0.417,1.269-0.479,2.698-0.19,4.001c0.295,1.331,1.047,2.56,1.904,3.619
		c0.936,1.156,2.167,2.072,3.43,2.858c1.062,0.661,2.196,1.306,3.428,1.523c3.573,0.628,7.241-0.464,10.857-0.762
		c3.369-0.277,6.73-0.641,10.096-0.951c3.555-0.326,7.106-0.689,10.666-0.953c2.156-0.16,4.356,0.044,6.476-0.381
		c1.319-0.264,2.643-0.663,3.809-1.335c1.014-0.585,1.846-1.452,2.668-2.285c1.045-1.059,2.112-2.14,2.856-3.429
		c0.045-0.078,0.095-0.16,0.14-0.239c0.078,0.012,0.148,0.036,0.226,0.046c1.17,0.132,1.873-1.43,2.769-2.194
		c2.15-1.83,4.23-3.744,6.25-5.716c2.142-2.092,3.874-4.622,6.22-6.48c2.386-1.891,5.062-3.446,7.86-4.647
		c2.154-0.924,4.462-1.477,6.764-1.919c2.356-0.452,4.762-0.596,7.156-0.735c1.319-0.076,3.294-0.101,4.955-0.109
		c0.256-0.001,0.301-0.002,0.607-0.001c0.308-0.001,0.352,0,0.61,0.001c1.661,0.008,3.634,0.033,4.953,0.109
		c2.394,0.139,4.803,0.283,7.158,0.735c2.302,0.442,4.61,0.995,6.764,1.919c2.797,1.201,5.474,2.756,7.86,4.647
		c2.346,1.858,4.076,4.389,6.218,6.48c2.021,1.972,4.103,3.886,6.252,5.716c0.897,0.764,1.598,2.326,2.768,2.194
		c6.049-0.683,8.42-8.953,11.423-14.249c1.266-2.231,1.857-4.784,2.684-7.213c0.225-0.661,0.418-1.332,0.619-1.999
		c0.277-0.919,0.528-1.845,0.811-2.761c0.319-1.037,0.682-2.059,1-3.097c0.246-0.803,0.412-1.633,0.701-2.422
		c0.325-0.884,0.691-1.757,1.154-2.578c0.685-1.211,1.003-2.9,1.707-4.101c0.769-1.31,1.947-3.101,2.539-4.5
		c0.802-1.895,1.516-2.801,2.23-4.732c0.683-1.846,1.354-3.699,2.096-5.523c0.6-1.475,1.153-2.977,1.904-4.382
		c0.747-1.397,1.704-2.673,2.573-4c0.815-1.245,1.647-2.478,2.477-3.713c0.789-1.176,1.581-2.354,2.38-3.525
		c0.914-1.338,1.918-2.616,2.761-4c1.613-2.644,3.036-5.401,4.382-8.19c1.113-2.305,2.058-4.688,3.046-7.048
		c1.046-2.497,2.124-4.982,3.049-7.524c0.741-2.038,1.4-4.105,1.999-6.19c0.788-2.737,1.504-5.499,2.095-8.287
		c0.661-3.12,1.108-6.28,1.618-9.427c0.505-3.107,1.05-6.21,1.431-9.334c0.381-3.133,0.604-6.282,0.857-9.428
		c0.219-2.728,0.434-5.458,0.569-8.191c0.106-2.125,0.16-4.253,0.192-6.381c0.032-2.158,0.035-4.316,0-6.474
		c-0.031-1.969-0.092-3.94-0.192-5.906c-0.093-1.843-0.229-3.684-0.381-5.524c-0.191-2.32-0.377-4.643-0.666-6.953
		c-0.258-2.072-0.599-4.132-0.954-6.19c-0.229-1.338-0.45-2.679-0.761-4c-0.537-2.28-1.183-4.534-1.904-6.762
		c-0.709-2.188-1.461-4.369-2.381-6.477c-0.756-1.73-1.657-3.395-2.572-5.047c-0.717-1.295-1.448-2.589-2.285-3.81
		c-0.614-0.896-1.302-1.739-2-2.57c-0.578-0.689-1.183-1.357-1.811-2c-0.58-0.594-1.158-1.197-1.808-1.715
		c-0.896-0.714-1.859-1.344-2.858-1.905c-1.313-0.737-2.754-1.221-4.096-1.906c-1.392-0.711-2.742-1.499-4.094-2.285
		c-1.218-0.709-2.477-1.363-3.619-2.189c-0.948-0.687-1.905-1.4-2.668-2.287c-0.391-0.454-0.643-1.01-0.951-1.524
		c-0.622-1.037-1.25-2.071-1.81-3.142c-0.586-1.12-1.093-2.279-1.619-3.428c-0.521-1.136-1.071-2.263-1.524-3.429
		c-0.436-1.123-0.657-2.325-1.143-3.428c-0.526-1.197-1.127-2.378-1.904-3.43c-0.708-0.957-1.65-1.715-2.477-2.57
		c-1.077-1.113-2.131-2.251-3.239-3.334c-1.301-1.272-2.65-2.494-4-3.715c-1.318-1.192-2.633-2.388-4-3.523
		c-1.426-1.185-2.896-2.317-4.381-3.428c-1.093-0.818-2.197-1.625-3.334-2.381c-1.056-0.702-2.107-1.426-3.238-2
		c-1.131-0.573-2.299-1.103-3.523-1.43c-0.898-0.24-1.834-0.337-2.762-0.381c-0.73-0.034-1.471-0.028-2.191,0.095
		c-0.752,0.129-1.509,0.321-2.189,0.666c-0.566,0.287-1.135,0.64-1.524,1.143c-0.358,0.462-0.555,1.047-0.668,1.619
		c-0.111,0.56-0.11,1.154,0,1.715c0.145,0.74,0.545,1.409,0.857,2.096c0.322,0.711,0.613,1.448,1.049,2.096
		c1.181,1.754,2.772,3.193,4.189,4.762c1.19,1.317,2.408,2.607,3.619,3.904c1.012,1.083,2.031,2.161,3.049,3.238
		c0.601,0.636,1.278,1.207,1.808,1.905c0.448,0.589,0.833,1.232,1.143,1.904c0.252,0.547,0.394,1.14,0.573,1.715
		c0.205,0.662,0.474,1.313,0.57,2c0.07,0.503,0,1.015,0,1.524c0,0.254,0.047,0.512,0,0.762c-0.113,0.603-0.372,1.177-0.666,1.715
		c-0.207,0.379-0.44,0.758-0.762,1.047c-0.381,0.342-0.822,0.758-1.334,0.764c-0.795,0.008-1.506-0.611-2.096-1.145
		c-0.626-0.567-0.923-1.416-1.427-2.094c-1.415-1.902-3.068-3.619-4.477-5.525c-1.522-2.061-2.81-4.286-4.285-6.381
		c-1.385-1.967-2.918-3.828-4.285-5.809c-0.966-1.399-1.824-2.868-2.762-4.285c-0.53-0.8-1.309-1.472-1.619-2.38
		c-0.329-0.963-0.068-2.039-0.192-3.049c-0.128-1.057-0.476-2.082-0.572-3.142c-0.083-0.917,0.045-1.842,0-2.762
		c-0.08-1.625-0.446-3.231-0.475-4.857c-0.018-1.017,0.313-2.036,0.189-3.047c-0.154-1.256-0.766-2.412-1.143-3.619
		c-0.257-0.824-0.358-1.714-0.762-2.477c-0.19-0.359-0.534-0.617-0.762-0.953c-0.576-0.847-1.04-1.764-1.524-2.666
		c-0.268-0.501-0.334-1.149-0.762-1.524c-0.732-0.641-1.803-0.792-2.763-0.953C368.782-4.213,368.155-4.25,367.503-4.259
		L367.503-4.259z M347.281,69.685c0.627,0.001,1.254,0.004,1.881,0.012c7.875,0.095,15.748,0.295,23.619,0.57
		c8.321,0.291,16.653,0.462,24.951,1.145c5.353,0.441,10.712,0.965,16,1.905c3.791,0.673,7.467,1.891,11.239,2.666
		c1.311,0.269,3.087,1.624,4.086,1.021c7.552,3.325,15.206,7.556,20.062,14.131c3.556,4.814,4.408,11.23,5.334,17.143
		c2.142,13.675,1.112,27.703,0.381,41.525c-0.702,13.275-0.741,26.89-4.573,39.619c-2.586,8.591-6.088,17.419-12.189,24
		c-2.828,3.05-6.697,5.237-10.668,6.474c-10.322,3.218-21.747-0.05-32.381,1.906c-3.691,0.679-7.48,1.518-10.738,3.379
		c-0.524,0.3-1.099,0.662-1.346,1.214c-0.237,0.533-0.298,1.248,0,1.749c0.287,0.484,0.984,0.544,1.48,0.809
		c1.028,0.549,2.068,1.074,3.098,1.617c3.465,1.826,6.996,3.537,10.371,5.522c0.784,0.461,1.727,0.768,2.291,1.48
		c0.414,0.523,0.738,1.222,0.672,1.887c-0.052,0.521-0.414,0.999-0.807,1.346c-0.331,0.293-0.772,0.504-1.213,0.539
		c-0.879,0.071-1.743-0.334-2.559-0.672c-1.729-0.716-3.209-1.93-4.849-2.83c-3.011-1.652-5.962-3.46-9.158-4.713
		c-1.866-0.732-3.808-1.325-5.791-1.616c-1.8-0.265-3.631-0.169-5.455-0.14c-0.313,0.006-1.726,0.184-2.721,0.081
		c-0.817,0.188-1.807,0.182-3.105,0.177c-0.774-0.002-2.146,0.01-3.123,0.019c-0.231,0.022-0.458,0.031-0.668,0.004
		c-0.002,0-0.012,0-0.014,0c-2.245,0.031-4.513-0.192-6.734,0.136c-1.983,0.292-3.927,0.884-5.793,1.615
		c-3.196,1.254-6.147,3.063-9.158,4.714c-1.641,0.9-3.119,2.112-4.847,2.829c-0.815,0.336-1.682,0.744-2.561,0.673
		c-0.441-0.035-0.88-0.245-1.211-0.539c-0.392-0.347-0.757-0.827-0.809-1.348c-0.066-0.664,0.259-1.361,0.674-1.885
		c0.564-0.712,1.505-1.021,2.289-1.482c3.375-1.986,6.906-3.696,10.371-5.522c1.03-0.543,2.07-1.069,3.098-1.617
		c0.496-0.264,1.195-0.323,1.482-0.807c0.298-0.502,0.238-1.219,0-1.752c-0.246-0.551-0.823-0.912-1.347-1.211
		c-3.259-1.862-7.048-2.703-10.738-3.382c-10.634-1.955-22.059,1.314-32.381-1.903c-3.971-1.238-7.838-3.427-10.666-6.477
		c-6.1-6.581-9.604-15.408-12.191-24c-3.832-12.73-3.868-26.344-4.571-39.619c-0.731-13.823-1.761-27.848,0.381-41.523
		c0.926-5.912,1.776-12.329,5.332-17.142c5.21-7.054,13.644-11.426,21.715-14.858c10.288-4.374,21.697-5.816,32.836-6.826
		c2.946,0.026,5.894-0.019,8.84-0.037h0.002C346.027,69.687,346.654,69.685,347.281,69.685L347.281,69.685z M399.75,79.718
		c-0.449,0-0.898,0.004-1.348,0.012c-1.797,0.029-3.597,0.102-5.393,0.131c-5.569,0.09-11.132,0.449-16.701,0.539
		c-5.656,0.091-11.315-0.052-16.971,0c-4.849,0.045-9.699,0.078-14.545,0.27c-10.337,0.41-20.832-0.134-30.978,1.885
		c-5.403,1.075-10.765,2.791-15.623,5.388c-2.486,1.33-5.152,2.784-6.734,5.117c-0.941,1.388-2.057,3.329-1.348,4.849
		c0.918,1.966,3.768,2.465,5.926,2.693c2.925,0.31,5.782-1.119,8.621-1.887c3.098-0.838,6.082-2.05,9.159-2.963
		c3.299-0.979,6.559-2.211,9.967-2.693c5.068-0.718,10.235-0.224,15.353-0.27c3.143-0.027,6.287-0.053,9.43,0
		c5.3,0.09,10.594,0.395,15.893,0.539c4.399,0.12,8.799,0.336,13.199,0.27c5.304-0.081,10.595-0.545,15.893-0.809
		c3.681-0.183,7.362-0.694,11.045-0.539c2.715,0.114,5.438,0.441,8.08,1.078c2.871,0.693,5.623,1.833,8.352,2.963
		c1.929,0.799,3.714,1.926,5.656,2.693c1.928,0.762,3.853,1.864,5.926,1.887c1.591,0.018,3.415-0.264,4.579-1.348
		c1.125-1.045,1.445-2.786,1.617-4.31c0.154-1.35,0.038-2.809-0.539-4.039c-0.675-1.438-1.897-2.64-3.232-3.502
		c-2.624-1.695-5.902-2.055-8.891-2.963c-3.564-1.083-7.134-2.171-10.773-2.965c-3.822-0.834-7.685-1.569-11.584-1.885
		C402.442,79.752,401.097,79.717,399.75,79.718L399.75,79.718z M440.149,104.913c-1.848,0-3.666,1.271-4.847,2.693
		c-1.451,1.748-1.574,4.27-2.156,6.465c-1.88,7.08-3.019,14.337-4.309,21.549c-1.521,8.5-2.293,17.135-4.041,25.592
		c-1.464,7.081-3.593,14.006-5.389,21.01c-0.898,3.501-1.938,6.97-2.693,10.505c-0.666,3.118-1.279,6.257-1.615,9.427
		c-0.228,2.145-1.268,4.556-0.27,6.467c0.542,1.038,1.82,1.627,2.963,1.885c2.119,0.476,4.386-0.179,6.465-0.809
		c2.498-0.756,4.886-1.976,7.004-3.502c1.957-1.411,3.761-3.121,5.117-5.117c1.651-2.427,2.565-5.3,3.501-8.081
		c1.682-4.995,2.839-10.167,3.772-15.353c0.832-4.627,1.2-9.327,1.617-14.009c0.505-5.645,0.733-11.313,1.076-16.971
		c0.377-6.194,1.125-12.38,1.078-18.586c-0.028-3.691-0.172-7.409-0.809-11.045c-0.401-2.296-1.016-4.571-1.885-6.734
		c-0.567-1.417-1.084-2.952-2.154-4.041C441.928,105.599,441.075,104.913,440.149,104.913z M291.457,106.292
		c-1.968,0.058-4.125,0.915-5.389,2.426c-1.187,1.42-1.142,3.547-1.346,5.386c-0.821,7.41,0.41,14.904,0.539,22.357
		c0.148,8.529-0.186,17.073,0.268,25.592c0.25,4.685,0.552,9.384,1.348,14.005c0.565,3.284,1.344,6.548,2.424,9.7
		c1.082,3.157,2.283,6.322,4.041,9.159c1.848,2.979,3.838,6.102,6.734,8.079c1.172,0.801,2.622,1.308,4.041,1.348
		c1.023,0.028,2.1-0.258,2.963-0.809c1.289-0.822,2.298-2.125,2.963-3.501c0.995-2.062,1.169-4.453,1.348-6.735
		c0.168-2.15,0.001-4.325-0.27-6.465c-0.703-5.556-2.311-10.959-3.502-16.431c-1.056-4.853-2.12-9.704-3.233-14.545
		c-1.219-5.306-2.72-10.552-3.771-15.894c-0.895-4.548-1.74-9.122-2.154-13.738c-0.345-3.847,0.107-7.738-0.27-11.582
		c-0.205-2.086,0.255-4.578-1.078-6.195C295.829,106.891,293.474,106.233,291.457,106.292z M367.677,159.683
		c-0.245-0.002-0.487,0.018-0.727,0.055c-0.509-0.138-2.949,0.096-3.302,0.027c-2.841-0.556-6.194,1.814-8.619,3.605
		c-2.486,1.836-3.839,4.87-5.389,7.543c-5.502,9.489-10.985,19.283-13.738,29.9c-0.588,2.267-1.677,4.959-0.538,7.004
		c1.427,2.561,4.994,3.227,7.811,4.039c6.052,1.745,13.748,3.17,19.828,3.261c1.343,0.02,2.166-0.002,2.67-0.054
		c0.014,0.003,0.03,0.003,0.045,0.007c1.388,0.304,4.248,0.151,5.779,0.083c5.162-0.231,10.872-1.89,15.752-3.297
		c2.817-0.813,6.386-1.477,7.812-4.039c1.14-2.045,0.049-4.737-0.539-7.004c-2.753-10.617-8.236-20.411-13.738-29.9
		c-1.55-2.673-2.902-5.707-5.387-7.543C373.224,161.765,370.305,159.695,367.677,159.683L367.677,159.683z M369.375,239.9
		c0.731-0.037,1.462-0.038,2.193,0.012c3.442,0.233,6.798,1.271,10.095,2.284c3.325,1.021,6.683,2.102,9.713,3.809
		c2.368,1.335,4.578,3.009,6.477,4.952c0.603,0.618,1.373,1.246,1.523,2.097c0.081,0.455-0.052,1.006-0.38,1.333
		c-0.515,0.509-1.522,0.128-2.094,0.572c-0.404,0.314-0.63,0.839-0.762,1.334c-0.277,1.044-0.1,2.165,0,3.239
		c0.096,1.03,0.397,2.029,0.57,3.047c0.14,0.823,0.803,1.756,0.381,2.476c-0.274,0.469-0.981,0.54-1.523,0.572
		c-0.261,0.014-0.522-0.084-0.762-0.191c-0.838-0.37-1.653-0.86-2.285-1.523c-0.767-0.804-1.057-1.962-1.715-2.857
		c-0.453-0.616-0.94-1.221-1.524-1.716c-1.545-1.31-3.243-2.533-5.143-3.238c-2.408-0.894-5.075-0.788-7.619-1.143
		c-1.966-0.274-3.924-0.671-5.906-0.762c-3.428-0.156-6.866,0.095-10.285,0.381c-2.935,0.245-5.866,0.604-8.761,1.143
		c-2.12,0.393-4.31,0.659-6.285,1.523c-1.468,0.643-2.939,1.466-4,2.668c-0.939,1.064-1.025,2.695-1.906,3.808
		c-0.308,0.389-0.664,0.824-1.143,0.954c-0.373,0.1-0.839,0.048-1.143-0.192c-0.38-0.298-0.49-0.855-0.57-1.332
		c-0.148-0.88,0.064-1.786,0.189-2.669c0.128-0.9,0.58-1.756,0.573-2.665c-0.006-0.847-0.121-1.759-0.573-2.477
		c-0.216-0.345-0.579-0.604-0.953-0.762c-0.472-0.199-1.015-0.132-1.524-0.191c-0.571-0.068-1.209,0.087-1.713-0.191
		c-0.356-0.196-0.766-0.546-0.764-0.953c0.004-0.902,1.049-1.485,1.715-2.094c1.416-1.296,3.093-2.29,4.762-3.239
		c1.827-1.039,3.772-1.865,5.715-2.668c2.933-1.211,5.871-2.482,8.953-3.238c3.235-0.794,6.593-0.966,9.904-1.333
		C364.991,240.431,367.182,240.01,369.375,239.9L369.375,239.9z M366.921,244.723c-0.258-0.006-0.515-0.006-0.773,0.002
		c-3.113,0.089-6.215,0.484-9.295,0.941c-2.534,0.377-5.087,0.745-7.541,1.483c-2.371,0.713-4.656,1.717-6.869,2.828
		c-0.702,0.352-1.541,0.591-2.021,1.213c-0.487,0.629-0.934,1.536-0.674,2.288c0.252,0.731,1.191,1.013,1.886,1.348
		c0.589,0.285,1.234,0.602,1.885,0.537c1.958-0.192,3.427-1.962,5.254-2.693c1.913-0.764,3.906-1.346,5.926-1.749
		c1.639-0.328,3.319-0.41,4.985-0.539c1.926-0.149,3.858-0.247,5.791-0.27c1.931-0.022,3.864,0.01,5.791,0.135
		c1.262,0.082,2.531,0.162,3.772,0.404c0.962,0.187,1.876,0.574,2.828,0.809c2.137,0.527,4.381,0.636,6.465,1.346
		c1.464,0.499,2.74,1.449,4.176,2.021c0.963,0.385,1.938,1.095,2.963,0.942c0.702-0.105,1.497-0.549,1.752-1.212
		c0.282-0.732-0.123-1.625-0.539-2.29c-0.491-0.784-1.365-1.271-2.156-1.75c-1.547-0.939-3.281-1.535-4.982-2.154
		c-2.069-0.753-4.193-1.356-6.33-1.887c-2-0.497-4.023-0.905-6.061-1.213c-1.294-0.197-2.601-0.306-3.906-0.402
		C368.473,244.804,367.696,244.74,366.921,244.723L366.921,244.723z M365.472,267.911c-23.248,0-42.095,14.071-42.095,31.428
		c-0.001,17.358,18.845,31.429,42.093,31.43c0.001,0,0.002,0,0.002,0c23.249,0,42.095-14.071,42.096-31.428c0-0.001,0-0.002,0-0.002
		C407.567,281.982,388.72,267.911,365.472,267.911z M365.472,287.53c9.863-0.001,17.858,5.969,17.859,13.333
		c0.001,7.363-7.995,13.334-17.858,13.334c0,0-0.001,0-0.001,0c-9.863-0.001-17.858-5.971-17.857-13.334
		C347.616,293.5,355.61,287.531,365.472,287.53L365.472,287.53z"/>
	<g>
		<path fill="#FFFFFF" d="M532.392,45.207c0-22.857,18.525-41.385,41.382-41.385c7.29,0,14.134,1.885,20.083,5.191
			c-9.034-8.705-21.322-14.06-34.862-14.06c-27.754,0-50.253,22.499-50.253,50.254s22.499,50.255,50.253,50.255
			c13.54,0,25.828-5.357,34.862-14.061c-5.948,3.306-12.792,5.191-20.083,5.191C550.917,86.593,532.392,68.064,532.392,45.207z"/>
	</g>
</g>
</svg>
