<?xml version="1.0" encoding="UTF-8" standalone="no"?>
<!DOCTYPE svg PUBLIC "-//W3C//DTD SVG 1.1//EN" "http://www.w3.org/Graphics/SVG/1.1/DTD/svg11.dtd">
<svg
   xmlns:svg="http://www.w3.org/2000/svg"
   xmlns="http://www.w3.org/2000/svg"
   id="svg3964"
   viewBox="0 0 15000 15000"
   height="15000"
   width="15000"
   version="1.1">
<defs
   id="defs3966"/>

<rect style="fill:#F4F8F4" y="500" x="500" height="14000" width="14000" />
<path
   style="fill:#0F8558;" 
     d="M 12482,14307 6995,14307 C 6995,14307 6497,13836 6247,13599 6053,13434 6036,13322 5703,13329 5341,13335 4978,13342 4616,13348 L 5638,14307 4116,14307 3300,13487 3300,7680 4800,7680 C 5035,7680 5068,7648 5220,7496 L 6089,6469 C 6330,6996 6557,7444 6797,7953 6824,8005 6888,8122 6840,8213 L 4452,13035 5328,13032 C 5786,13042 5977,12726 6138,12443 6784,11141 7433,9840 8080,8538 L 8202,10855 C 8234,11256 8505,11358 8860,11369 L 12872,11378 C 12872,10917 12415,10308 11671,10279 11671,10279 10238,10295 9489,10298 9394,10298 9368,10245 9357,10166 9322,9570 9289,8970 9252,8374 9229,8078 9203,7873 9117,7649 8837,7049 8557,6452 8277,5854 L 9302,5842 C 9329,5841 9350,5847 9364,5871 L 10106,7171 C 10412,7729 11239,7322 10962,6730 L 10052,5208 C 9892,4970 9819,4888 9403,4875 9403,4875 7460,4872 6487,4872 6171,4865 6135,4964 5984,5125 5578,5626 5134,6160 4738,6627 4683,6693 4652,6720 4521,6720 L 3300,6720 3300,2147 11666,2155 C 11666,2155 11653,7474 11660,10077 12513,10104 13100,10749 13132,11580 12652,11586 12158,11563 11666,11569 L 11666,13487 12482,14307 z M 14500,14500 14500,500 500,500 500,14500 14500,14500 z M 6368,2650 C 5811,2650 5384,3078 5384,3638 5384,4199 5811,4627 6368,4627 6925,4627 7353,4199 7353,3638 7353,3078 6925,2650 6368,2650 z"
/>
</svg>