<?xml version="1.0" encoding="utf-8"?>
<!-- Generator: Adobe Illustrator 16.0.3, SVG Export Plug-In . SVG Version: 6.00 Build 0)  -->
<!DOCTYPE svg PUBLIC "-//W3C//DTD SVG 1.1//EN" "http://www.w3.org/Graphics/SVG/1.1/DTD/svg11.dtd">
<svg version="1.1"
	 id="svg1686" xmlns:svg="http://www.w3.org/2000/svg" inkscape:version="1.2.1 (9c6d41e410, 2022-07-14)" sodipodi:docname="ISO_7010_E067.svg" xmlns:sodipodi="http://sodipodi.sourceforge.net/DTD/sodipodi-0.dtd" xmlns:inkscape="http://www.inkscape.org/namespaces/inkscape"
	 xmlns="http://www.w3.org/2000/svg" xmlns:xlink="http://www.w3.org/1999/xlink" x="0px" y="0px" width="400px" height="400px"
	 viewBox="0 0 400 400" enable-background="new 0 0 400 400" xml:space="preserve">
<sodipodi:namedview  inkscape:pagecheckerboard="0" inkscape:window-width="1920" inkscape:deskcolor="#d1d1d1" inkscape:showpageshadow="2" inkscape:pageopacity="0.0" inkscape:window-maximized="1" inkscape:window-height="1017" inkscape:window-x="-8" inkscape:current-layer="svg1686" inkscape:window-y="-8" id="namedview1688" pagecolor="#ffffff" inkscape:zoom="1.3125" inkscape:cx="-123.42857" bordercolor="#000000" inkscape:cy="235.42857" borderopacity="0.25" showgrid="false">
	</sodipodi:namedview>
<rect id="rect1662" fill="#FFFFFF" width="400" height="400"/>
<rect id="rect1664" x="10" y="10" fill="#008855" width="380" height="380"/>
<circle fill="#FFFFFF" cx="303.058" cy="197.636" r="13.044"/>
<path fill="#FFFFFF" d="M318.175,210.467v0.002c-1.327-0.021-2.686,0.184-4.021,0.639l-0.111,0.037
	c-1.983,0.675-3.664,1.818-4.965,3.256c-0.799,0.766-1.463,1.746-1.916,2.885c-0.565,1.216-0.921,2.527-1.031,3.877l-6.68,27.662
	l-21,19.578l-0.1-0.092l-0.049-0.037c0,0-0.214-0.171-0.508-0.338c-0.22-0.125-0.452-0.373-0.994-0.4l-0.002,0.004
	c-0.181-0.01-0.396,0.006-0.656,0.059c-1.055,0.211-1.204,0.692-1.418,0.969s-0.354,0.527-0.354,0.527l-0.08,0.141l-15.773,49.055
	c-0.544-0.234-1.132-0.357-1.725-0.359c-0.094,0.002-0.188,0.006-0.281,0.014l-0.002-0.02l-40.09,4.967l-0.557-7.441l29.178-3.654
	c3.604-0.443,6.149-3.7,5.707-7.305l-0.225-1.838c-0.415-3.379-3.307-5.828-6.637-5.756c-0.222,0.004-0.444,0.021-0.67,0.049
	l-32.732,4.021l2.011,27.135l-8.398,1.027l-2.009-27.131l-32.688,4.018c-0.774-1.98-2.086-3.783-3.904-5.176l-11.609-8.891
	l-22,29.24l-6.246-4.83l21.976-29.211l-14.912-11.42c-2.15-1.646-4.669-2.461-7.174-2.49c-3.661-0.044-7.292,1.586-9.699,4.729
	c-4.054,5.293-3.055,12.817,2.238,16.871l10.893,8.342l-5.01,6.539l-50.574-39.105l-0.02,0.023
	c-0.779-0.622-1.747-0.961-2.744-0.961c-2.431,0-4.402,1.971-4.402,4.402c0.002,1.529,0.797,2.948,2.102,3.748l64.801,50.107
	l0.057,0.039c0,0,4.525,3.326,7.508,5.031c7.792,4.453,16.212,5.065,24.072,4.658c3.488-0.182,9.92-0.875,9.92-0.875l0.035-0.004
	l82.49-10.072c0.055-0.006,0.109-0.012,0.164-0.021l0.217-0.027v-0.008c2.093-0.38,3.615-2.201,3.617-4.328
	c-0.004-0.122-0.013-0.243-0.025-0.363l26.514-41.945l0.059-0.166c0,0,0.076-0.211,0.146-0.473s0.183-0.519,0.137-1.123
	c-0.046-0.599-0.192-0.827-0.299-1.068s-0.211-0.432-0.211-0.432l-0.025-0.047l21.408-19.959c2.544-1.896,3.104-7.761,4.191-12.262
	l7.447,21.881l-21.857,30.619c-0.843,1.601-1.128,2.985-1.721,4.385l-12.854,33.631c-1.462,3.827,0.441,8.085,4.268,9.547
	c3.827,1.462,8.083-0.439,9.545-4.266l12.855-33.633c1.468-3.882,2.98-6.117,5.119-9.113l-0.77,2.158
	c-0.909,2.553-0.342,5.261,1.264,7.199l20.014,34.443c2.059,3.542,6.565,4.735,10.107,2.678l0.033-0.021
	c3.542-2.058,4.738-6.564,2.68-10.107l-18.932-32.582l11.922-33.455c1.308-2.622,1.609-5.725,0.596-8.703l-13.947-40.984
	c-1.593-4.68-5.944-7.627-10.684-7.701V210.467z"/>
<path fill="#FFFFFF" d="M102.864,254.773c-7.204,0-13.044,5.839-13.045,13.043c0,7.205,5.84,13.045,13.045,13.045
	s13.045-5.84,13.045-13.045C115.908,260.612,110.068,254.773,102.864,254.773L102.864,254.773z"/>
<path fill="#FFFFFF" d="M275.108,277.15c0.237,0.637,0.587,1.229,1.066,1.742c1.948,2.09,5.286,2.232,8.082,0.557l-20.123,31.834
	L275.108,277.15z"/>
<polygon fill="#FFFFFF" points="47.999,293.326 47.999,299.729 76.511,299.729 76.511,325.342 109.136,325.342 109.136,351.564 
	351.696,351.564 351.696,345.162 115.538,345.162 115.538,318.939 82.913,318.939 82.913,293.326 "/>
<path fill="#FFFFFF" d="M143.565,314.365l7.295,5.586c4.728,3.139,9.063,2.252,13.444,2.105l34.618-4.594l0.557,7.428l-25.754,3.145
	c-0.024,0.002-6.6,0.689-9.43,0.836c-7.083,0.367-13.529-0.239-19.252-3.51c-1.793-1.024-6.237-4.186-6.533-4.396L143.565,314.365z"
	/>
<g>
	<path fill="#FFFFFF" d="M286.92,94.948c0-21.154,17.146-38.304,38.302-38.304c6.746,0,13.082,1.745,18.586,4.806
		c-8.361-8.058-19.735-13.014-32.265-13.014c-25.688,0-46.514,20.825-46.514,46.513c0,25.688,20.826,46.513,46.514,46.513
		c12.529,0,23.903-4.956,32.265-13.014c-5.504,3.06-11.84,4.806-18.586,4.806C304.066,133.253,286.92,116.103,286.92,94.948z"/>
</g>
</svg>
