<?xml version="1.0" encoding="UTF-8" standalone="no"?>
<svg xmlns:svg="http://www.w3.org/2000/svg" xmlns="http://www.w3.org/2000/svg" width="800" height="400" viewBox="0 0 400 200" version="1.1">
	<g style="stroke:none;fill-rule:nonzero;"> 
		<rect style="fill:#ffffff;" y="0" x="0" height="200" width="400" />
		<path style="fill:#008855;" d="M 109.1,57.45 C 105.32,54.067 104.93,53.214 104.93,48.432 104.93,41.948 107.77,37.741 113.4,35.898 118.62,34.192 122.95,35.154 126.85,38.885 132.2,43.993 132.33,50.744 127.2,56.752 124.8,59.56 123.33,60.242 118.78,60.669 113.65,61.151 112.99,60.932 109.1,57.45 z M 5,5 5,100 5,195 200,195 395,195 395,100 395,5 200,5 z M 43.892,18.722 102.23,18.722 160.57,18.722 160.57,54.083 160.57,89.444 150.98,89.444 141.36,89.444 137.75,85.354 C 135.74,83.099 131.47,78.121 128.26,74.304 119.61,64.028 119.13,63.872 93.081,64.276 73.075,64.586 70.895,64.806 68.773,66.684 64.846,70.16 53.615,89.281 53.615,92.479 53.615,97.959 60.123,100.99 63.541,97.097 64.432,96.081 67.696,91.094 70.799,86.014 L 76.437,76.778 83.932,76.778 C 88.051,76.778 91.427,76.97 91.427,77.207 91.427,77.443 90.259,79.937 88.827,82.748 78.934,102.17 78.729,102.75 77.349,119.53 76.632,128.24 75.875,135.95 75.66,136.68 75.369,137.67 70.722,138 57.059,138 39.845,138 38.612,138.13 35.148,140.41 31.501,142.81 29.257,146.1 28.565,150.14 28.211,152.21 28.822,152.25 57.632,152.25 85.776,152.25 87.129,152.16 89.232,150.11 91.186,148.2 91.513,146.12 92.136,131.37 92.521,122.25 93.202,114.78 93.655,114.78 94.107,114.78 100.78,127.25 108.48,142.49 116.17,157.73 123.53,171.12 124.85,172.27 126.67,173.86 129.22,174.48 135.28,174.78 139.69,175 143.28,174.91 143.28,174.58 143.28,174.25 135.99,159.51 127.08,141.83 118.16,124.14 110.87,108.96 110.87,108.08 110.87,105.95 120.46,86.257 121.44,86.377 121.86,86.429 125.16,89.872 128.77,94.03 L 135.32,101.58 147.94,101.88 160.57,102.18 160.57,142.02 160.57,181.87 154.86,187.38 149.16,192.89 138.66,192.89 C 132.88,192.89 128.16,192.55 128.16,192.13 128.16,191.71 130.94,188.62 134.34,185.27 L 140.51,179.17 132.07,179.17 123.63,179.17 116.34,186.03 109.08,192.89 71.609,192.89 C 51.009,192.89 34.169,192.49 34.169,192.03 34.169,191.57 36.357,189.12 39.03,186.56 L 43.892,181.87 43.892,168.91 43.892,155.94 33.021,155.94 C 20.572,155.94 20.95,156.53 26.235,145.65 29.007,139.95 34.276,135.91 40.921,134.4 L 43.892,133.74 43.892,76.217 z M 321.77,39.866 C 322.52,39.889 330.3,46.896 339.03,55.436 L 354.86,70.972 356.58,159.8 C 339.15,159 324.91,158.45 310.73,158.02 L 266.98,156.7 234.13,123.82 C 234.43,123.53 247.66,123.78 263.54,124.38 279.41,124.98 293.14,125.32 294.06,125.14 295.11,124.92 286.03,115.39 269.21,99.076 254.61,84.92 242.67,73.021 242.67,72.655 242.67,72.288 248.4,66.417 255.4,59.592 L 268.13,47.156 287.54,65.826 C 298.21,76.092 310.48,87.868 314.82,91.984 L 322.72,99.472 322.08,73.611 C 321.73,59.388 321.21,45.969 320.93,43.792 320.57,41.033 320.82,39.837 321.77,39.866 z" />
	</g>
</svg>
