<?xml version="1.0" encoding="utf-8"?>
<!-- Generator: Adobe Illustrator 16.0.3, SVG Export Plug-In . SVG Version: 6.00 Build 0)  -->
<!DOCTYPE svg PUBLIC "-//W3C//DTD SVG 1.1//EN" "http://www.w3.org/Graphics/SVG/1.1/DTD/svg11.dtd">
<svg version="1.1" id="Layer_1" xmlns:svg="http://www.w3.org/2000/svg"
	 xmlns="http://www.w3.org/2000/svg" xmlns:xlink="http://www.w3.org/1999/xlink" x="0px" y="0px" width="800px" height="400.006px"
	 viewBox="0 0 800 400.006" enable-background="new 0 0 800 400.006" xml:space="preserve">
<polygon fill="#FFFFFF" points="400,0.005 400,0 0,0 0,400 400,400 400,400.006 800,400.006 800,0.005 "/>
<rect x="10" y="10" fill="#008855" width="435.5" height="380"/>
<path fill="#FFFFFF" d="M283.438,329.693l-89.688-89.688h151v-80h-150l89.688-89.688h-99L55.25,200.506l129.188,129.188H283.438
	L283.438,329.693z"/>
<path fill="#0F8558" d="M713.078,362.51v-52.061c13.354-0.162,26.762,0.461,39.791,0.299c-0.869-22.557-16.803-40.063-39.955-40.795
	c-0.189-70.653,0.164-215.026,0.164-215.026L486,54.709v124.124h33.142c3.556,0,4.397-0.732,5.89-2.524
	c10.748-12.675,22.8-27.17,33.82-40.769c4.099-4.37,5.075-7.057,13.652-6.867c26.41,0,79.148,0.081,79.148,0.081
	c11.291,0.353,13.273,2.579,17.615,9.039l24.701,41.312c7.519,16.068-14.93,27.115-23.234,11.97l-20.141-35.286
	c-0.379-0.652-0.949-0.815-1.683-0.788l-27.821,0.326c7.6,16.231,15.199,32.436,22.801,48.723c2.334,6.08,3.039,11.643,3.664,19.678
	c1.004,16.178,1.899,32.463,2.85,48.641c0.299,2.145,1.004,3.582,3.582,3.582c20.33-0.082,59.227-0.516,59.227-0.516
	c20.193,0.787,32.599,17.316,32.599,29.83l-108.897-0.244c-9.636-0.299-16.991-3.068-17.859-13.953l-3.312-62.889
	c-17.562,35.34-35.178,70.652-52.712,105.992c-4.369,7.682-9.555,16.26-21.986,15.988l-23.777,0.08l64.818-130.883
	c1.303-2.469-0.435-5.645-1.168-7.057c-6.514-13.815-12.675-25.976-19.217-40.28l-23.587,27.876
	c-4.126,4.126-5.021,4.994-11.399,4.994H486V362.51l22.148,22.256h41.313l-27.741-26.029c9.825-0.162,19.679-0.352,29.505-0.516
	c9.038-0.189,9.5,2.852,14.766,7.33c6.785,6.432,20.303,19.215,20.303,19.215h148.933L713.078,362.51z M410,390.006v-380h380v380
	H410z M596.01,95.18c0,15.227-11.617,26.845-26.735,26.845c-15.119,0-26.708-11.618-26.708-26.845
	c0-15.2,11.589-26.817,26.708-26.817C584.393,68.362,596.01,79.98,596.01,95.18z"/>
</svg>
