<?xml version="1.0" encoding="UTF-8" standalone="no"?>
<svg
   version="1.1"
   width="400"
   height="400"
   viewBox="0 0 200 200"
   id="svg7914"
   sodipodi:docname="ISO_7010_E069 daniel.svg"
   xml:space="preserve"
   inkscape:version="1.2.1 (9c6d41e410, 2022-07-14)"
   xmlns:inkscape="http://www.inkscape.org/namespaces/inkscape"
   xmlns:sodipodi="http://sodipodi.sourceforge.net/DTD/sodipodi-0.dtd"
   xmlns="http://www.w3.org/2000/svg"
   xmlns:svg="http://www.w3.org/2000/svg"><defs
     id="defs7918" /><sodipodi:namedview
     id="namedview7916"
     pagecolor="#ffffff"
     bordercolor="#000000"
     borderopacity="0.25"
     inkscape:showpageshadow="2"
     inkscape:pageopacity="0.0"
     inkscape:pagecheckerboard="0"
     inkscape:deskcolor="#d1d1d1"
     showgrid="false"
     inkscape:zoom="0.92807766"
     inkscape:cx="-21.549921"
     inkscape:cy="380.3561"
     inkscape:window-width="1920"
     inkscape:window-height="1017"
     inkscape:window-x="-8"
     inkscape:window-y="-8"
     inkscape:window-maximized="1"
     inkscape:current-layer="svg7914" /><g
     id="g9962"><rect
       width="200"
       height="200"
       style="fill:#ffffff"
       id="rect7890"
       x="0"
       y="0" /><rect
       x="5"
       y="5"
       width="190"
       height="190"
       style="fill:#008855"
       id="rect7892" /></g><path
     id="path5870"
     style="fill:#f5faf8;fill-opacity:1;stroke-width:0.674484"
     d="m 28.798588,24.000004 -0.113455,12.936332 c -0.06168,7.114441 -0.04679,13.126528 0.03095,13.359226 0.179975,0.536834 6.141523,0.428767 6.836395,-0.123766 0.533167,-0.423912 0.67455,-2.22316 0.259908,-3.302672 -0.157583,-0.410128 -0.739886,-0.639495 -1.625548,-0.639495 h -1.382141 l 0.109336,-8.992104 0.109338,-8.992102 9.00242,-0.109337 9.004469,-0.109339 v 9.101435 9.101436 h -2.023671 -2.023692 v 2.013372 c 0,2.417415 0.241447,2.530156 5.060255,2.351686 L 55.27775,50.47503 55.385018,37.237515 55.492285,24.000002 H 42.145437 Z m 12.707344,5.691492 c -5.163994,-0.0252 -9.44129,5.141611 -7.248967,10.382485 1.655925,3.958872 5.661758,5.758094 9.957538,4.472327 0.933487,-0.27937 2.21123,-1.159997 3.13764,-2.163963 3.513625,-3.807724 2.231848,-9.781298 -2.566216,-11.958528 -1.098212,-0.498252 -2.20821,-0.727093 -3.279995,-0.732321 z m -0.06187,15.981146 c -1.685688,-0.01711 -3.476319,0.692495 -4.340308,1.904039 -0.801104,2.936634 -0.376894,6.128119 -0.563164,9.175698 -0.130123,11.715769 -0.06043,23.433011 -0.0784,35.149455 -1.093077,0.0062 -2.526715,0.349816 -2.023691,-1.24185 -0.130335,-5.039747 0.372964,-10.145459 -0.499222,-15.129176 -0.817263,-3.181198 -4.316988,-4.672149 -7.333546,-3.719399 -3.021944,1.910615 -1.347791,6.3188 -1.854532,9.326292 -0.01478,5.233661 -0.01457,10.466628 -0.02269,15.700604 3.448774,6.625415 7.383652,13.037215 10.095752,20.012015 0.703721,0.95478 -0.26312,3.49981 1.596671,2.94168 10.983928,-0.0679 21.968511,-0.13626 32.95248,-0.20428 -0.03212,-0.9877 -0.06506,-1.97459 -0.09696,-2.96228 -0.978206,-3.52244 2.895983,-5.09546 3.826639,-8.0638 0.955012,-4.30001 0.409191,-8.787253 0.583801,-13.165335 -0.09569,-6.572137 0.227801,-13.167236 -0.280546,-19.723211 -0.61215,-3.415804 -5.79957,-3.3369 -7.071568,-0.410523 -1.254612,1.317201 -0.434117,-3.416724 -1.672992,-4.206209 -1.751807,-2.462817 -5.602801,-2.866434 -7.304671,-0.121703 -1.035325,1.421943 -1.232728,0.82187 -1.068574,-0.649813 0.100338,-3.651602 -4.529664,-6.525767 -7.605833,-4.22066 -1.311775,0.829616 -2.862101,4.097536 -2.8076,0.575542 -0.385931,-6.16065 0.390986,-12.411568 -0.715802,-18.510235 -0.448672,-1.696055 -2.029586,-2.439855 -3.715253,-2.456894 z m 66.435108,43.157563 c -0.57098,-0.01035 -1.14809,0.110691 -1.68948,0.394009 -2.34331,1.314665 -2.3649,3.127731 -2.09178,5.231458 l 6.81989,18.910448 0.50334,1.30787 0.70345,0.70345 1.91228,1.60905 16.79805,10.26077 -10.96421,24.1419 c 0,0 5.81206,-0.85844 9.52406,-0.28054 3.01763,0.46974 10.39306,2.9974 10.39306,2.9974 l 8.54859,-18.20698 10.38896,10.44023 c 0,0 1.00273,0.98857 1.45227,1.52862 0.29176,0.3505 0.6635,0.67406 0.80453,1.10776 0.0791,1.89432 0,3.82142 0,5.73275 0,0 2.81776,-0.41514 4.31529,-0.81078 1.31174,-0.34639 2.73329,-1.24252 2.73329,-1.24252 0.24965,-1.83711 0.55562,-3.90531 0.20009,-5.63168 -0.20896,-0.89101 -0.77142,-1.67416 -1.30787,-2.41562 -3.95335,-5.26697 -8.25213,-9.6847 -12.55057,-14.24141 0,0 -0.77245,-0.93934 -1.21918,-1.34913 -0.67835,-0.62231 -2.20109,-1.66887 -2.20109,-1.66887 l -15.59539,-7.35623 -15.58506,-9.35105 c 0,0 -0.29874,-0.18061 -0.44147,-0.28055 -0.28161,-0.19708 -0.59563,-0.36414 -0.8169,-0.62712 -0.17977,-0.21375 -0.28831,-0.48243 -0.38989,-0.74263 -1.9081,-5.83331 -4.1669,-11.571945 -6.28973,-17.33647 -0.57232,-1.575952 -2.24156,-2.792856 -3.95454,-2.824074 z m 40.416,16.657775 c -0.58244,-0.0258 -1.16598,0.01 -1.74108,0.1052 -4.54698,0.75677 -7.62022,5.05544 -6.86527,9.60271 0.75483,4.54676 5.05139,7.62168 9.59858,6.8694 4.54752,-0.75285 7.62442,-5.0487 6.87354,-9.59653 l -8.23711,1.35945 8.23503,-1.37388 c -0.64857,-3.88701 -3.92684,-6.79119 -7.86369,-6.96635 z m -22.73915,47.88981 c -5.08609,0.0398 -9.5994,1.92105 -13.81101,3.61829 -4.2116,1.69722 -8.1188,3.21118 -11.904885,3.24079 -3.693917,0.029 -7.520071,-1.33522 -11.63672,-2.89011 -4.116628,-1.55486 -8.516273,-3.3001 -13.439667,-3.39756 -5.258185,-0.10415 -10.062417,1.53689 -14.582512,3.02213 -4.520116,1.48527 -8.753073,2.81258 -12.824939,2.69206 -3.486396,-0.10288 -9.392896,-1.63076 -14.205008,-3.17683 -4.722567,-1.51729 -8.383742,-2.96945 -8.521766,-3.02418 v 5.55945 c 1.609642,0.60513 3.876027,1.42857 6.935403,2.41151 4.994136,1.60456 10.938447,3.28737 15.634589,3.42644 5.264713,0.15589 10.07974,-1.46219 14.60727,-2.94991 4.527551,-1.4877 8.773098,-2.84506 12.853816,-2.76428 3.715146,0.0735 7.56967,1.50487 11.70685,3.06751 4.137183,1.56264 8.563676,3.25879 13.50982,3.22017 5.086059,-0.0398 9.599429,-1.92107 13.810989,-3.6183 4.2116,-1.69724 8.12297,-3.21121 11.90902,-3.24078 3.87426,-0.0304 7.88487,1.43482 12.19577,3.084 4.31088,1.64919 8.91738,3.48152 14.06885,3.48832 4.99313,0.006 11.37896,-1.6477 16.74028,-3.24903 2.65885,-0.79411 5.03834,-1.58769 6.76832,-2.18665 v -5.5182 c -1.16228,0.42634 -4.0548,1.47035 -8.25565,2.72506 -5.17186,1.54472 -11.50505,3.03693 -15.2447,3.03242 -3.88155,-0.004 -7.90286,-1.49411 -12.22052,-3.14587 -4.31767,-1.65175 -8.9351,-3.46677 -14.0936,-3.42645 z m 0,10.56608 c -5.08609,0.0398 -9.5994,1.92107 -13.81101,3.61829 -4.2116,1.69718 -8.1188,3.21122 -11.904885,3.24079 -3.693917,0.029 -7.520071,-1.33316 -11.63672,-2.88804 -4.116628,-1.55487 -8.516273,-3.30011 -13.439667,-3.39757 -5.258185,-0.10436 -10.062417,1.53478 -14.582512,3.02007 -4.520116,1.48522 -8.753073,2.81467 -12.824939,2.69412 -3.486396,-0.10309 -9.392896,-1.63278 -14.205008,-3.17891 -4.722567,-1.51729 -8.383742,-2.96738 -8.521766,-3.02212 v 5.5574 c 1.609642,0.60513 3.876027,1.42856 6.935403,2.41152 4.994136,1.60456 10.938447,3.28947 15.634589,3.4285 5.264713,0.1559 10.07974,-1.46224 14.60727,-2.94991 4.527551,-1.48772 8.773098,-2.84505 12.853816,-2.76428 3.715146,0.0735 7.56967,1.50281 11.70685,3.06547 4.137183,1.56262 8.563676,3.25878 13.50982,3.22015 5.086059,-0.0398 9.599429,-1.92105 13.810989,-3.61829 4.2116,-1.69723 8.12297,-3.21122 11.90902,-3.2408 3.87426,-0.0304 7.88487,1.43482 12.19577,3.08401 4.31088,1.64917 8.91738,3.48154 14.06885,3.48834 4.99313,0.006 11.37896,-1.64367 16.74028,-3.24491 2.65885,-0.79418 5.03834,-1.58666 6.76832,-2.18667 v -5.52234 c -1.16207,0.42735 -4.05456,1.47442 -8.25565,2.7292 -5.17186,1.54472 -11.50505,3.03288 -15.2447,3.02832 -3.88155,-0.004 -7.90286,-1.49206 -12.22052,-3.14383 -4.31767,-1.65177 -8.9351,-3.46886 -14.0936,-3.42851 z"
     sodipodi:nodetypes="cccccscccccccccsccccccccccccccccccccccccccccccccccccccccccccccccccscccccccccccccccccccccccccsscscscsccsscsscscscsccscsssccsccccccsscsssscsccccscss" /></svg>
