<?xml version="1.0" encoding="utf-8"?>
<!-- Generator: Adobe Illustrator 16.0.3, SVG Export Plug-In . SVG Version: 6.00 Build 0)  -->
<!DOCTYPE svg PUBLIC "-//W3C//DTD SVG 1.1//EN" "http://www.w3.org/Graphics/SVG/1.1/DTD/svg11.dtd">
<svg version="1.1" id="Layer_1" xmlns:svg="http://www.w3.org/2000/svg"
	 xmlns="http://www.w3.org/2000/svg" xmlns:xlink="http://www.w3.org/1999/xlink" x="0px" y="0px" width="400px" height="400px"
	 viewBox="0 0 400 400" enable-background="new 0 0 400 400" xml:space="preserve">
<g>
	<rect fill="#FFFFFF" width="400" height="400"/>
	<path fill="#008855" d="M10,200V10h190h190v190v190H200H10V200z M171.18,354.561c12.436-2.181,50.599-17.86,49.64-20.381
		c-0.301-0.779-4.961-6.539-10.34-12.82c-5.4-6.279-18.661-21.76-29.473-34.42l-19.658-23l-8.868,8.44
		c-10.418,9.899-9.876,10.32-20.298-15.8c-11.182-28.061-38.926-111.254-38.926-116.744c0-0.96,5.84-1.746,12.98-1.746h12.978
		l-1.376-6.938c-1.73-8.724-6.914-32.874-10.656-49.636c-1.574-7.044-3.512-16.886-4.31-21.87c-0.796-4.984-2.09-9.458-2.874-9.944
		c-2.84-1.754-23.914,3.276-34.948,8.342c-21.294,9.776-19.83,5.312-19.808,60.394c0.014,39.328,0.758,51.694,3.934,65.55
		c13.892,60.592,42.14,114.372,78.594,149.632c19.872,19.22,27.208,24.68,31.468,23.44C161.11,356.52,166.484,355.4,171.18,354.561z
		 M237.04,324.98c3.12-2.86,5.66-6.141,5.66-7.26c0-2.141-46.966-58.541-53.846-64.66c-2.338-2.08-5.812-3.041-8.524-2.32
		c-5.092,1.32-12.352,6.939-12.352,9.52c0,0.92,8.886,12.061,19.746,24.721c10.862,12.68,23.956,28.039,29.076,34.14
		c5.14,6.12,10.521,11.101,11.979,11.101C230.221,330.221,233.939,327.859,237.04,324.98z M135.182,132.768
		c7.166-2.994,7.568-3.674,6.62-11.208c-2.59-20.594-14.384-71.816-16.902-73.414c-1.552-0.984-6.528-1.804-11.058-1.822
		c-7.432-0.028-8.136,0.438-7.206,4.772c0.566,2.642,4.75,22.816,9.298,44.83c4.548,22.016,9.022,40.03,9.944,40.03
		C126.798,135.956,130.986,134.52,135.182,132.768z"/>
	<g>
		<path fill="#FFFFFF" d="M290.101,90.77c0-22.751,18.44-41.194,41.192-41.194c7.254,0,14.067,1.877,19.988,5.168
			c-8.993-8.665-21.224-13.996-34.7-13.996c-27.626,0-50.022,22.396-50.022,50.022s22.396,50.022,50.022,50.022
			c13.477,0,25.707-5.331,34.7-13.996c-5.921,3.291-12.734,5.168-19.988,5.168C308.541,131.964,290.101,113.521,290.101,90.77z"/>
	</g>
</g>
</svg>
