<?xml version="1.0" encoding="utf-8"?>
<!-- Generator: Adobe Illustrator 16.0.3, SVG Export Plug-In . SVG Version: 6.00 Build 0)  -->
<!DOCTYPE svg PUBLIC "-//W3C//DTD SVG 1.1//EN" "http://www.w3.org/Graphics/SVG/1.1/DTD/svg11.dtd">
<svg version="1.1" id="Layer_1" xmlns:svg="http://www.w3.org/2000/svg"
	 xmlns="http://www.w3.org/2000/svg" xmlns:xlink="http://www.w3.org/1999/xlink" x="0px" y="0px" width="400px" height="400px"
	 viewBox="0 0 400 400" enable-background="new 0 0 400 400" xml:space="preserve">
<rect fill="#FFFFFF" width="400" height="400"/>
<rect x="10" y="10" fill="#008855" width="380" height="380"/>
<g>
	<path fill="#FFFFFF" d="M50.008,179.616h299.891c3.438,0,6.225,2.787,6.225,6.224l0,0c0,3.438-2.787,6.225-6.225,6.225H50.008
		c-3.438,0-6.224-2.787-6.224-6.225l0,0C43.784,182.403,46.571,179.616,50.008,179.616z"/>
	<rect x="66.574" y="187.566" fill="#FFFFFF" width="267.06" height="120"/>
	<path fill="#FFFFFF" d="M50.008,301.74h299.891c3.438,0,6.225,2.786,6.225,6.224l0,0c0,3.438-2.787,6.224-6.225,6.224H50.008
		c-3.438,0-6.224-2.786-6.224-6.224l0,0C43.784,304.526,46.571,301.74,50.008,301.74z"/>
</g>
<g>
	<circle fill="#008855" cx="97.966" cy="246.561" r="17.621"/>
	<path fill="#008855" d="M120.916,231.439v32.248c-0.495,14.036,9.491,22.832,23.06,24.67l70.974,0.192
		c4.854-0.026,9.281-3.632,9.258-8.606c-0.028-4.941-4.439-8.773-9.258-8.811h-66.828c-0.811-0.006-1.483-0.366-1.496-1.214
		c-0.008-0.856,0.661-1.204,1.496-1.213h161.794c5.536-0.026,10.641-4.21,10.62-9.888c-0.008-5.664-5.096-10.697-10.62-10.721
		l-97.048-0.035c-0.808-0.314-1.251-0.813-1.241-1.498c-0.014-0.674,0.418-1.249,1.241-1.539l97.048-0.045
		c5.536-0.006,10.641-4.48,10.62-10.158c-0.008-5.664-5.096-10.397-10.62-10.41H148.122c-0.811-0.006-1.483-0.396-1.496-1.231
		c-0.008-0.856,0.661-1.081,1.496-1.091h66.828c4.854-0.027,9.281-3.566,9.258-8.541c-0.028-4.94-4.439-8.836-9.258-8.86
		l-70.974,0.194c-13.569,1.836-23.554,10.635-23.06,24.658"/>
</g>
<g>
	<path fill="#FFFFFF" d="M290.876,91.976c0-21.463,17.394-38.862,38.857-38.862c6.844,0,13.271,1.771,18.856,4.875
		c-8.484-8.174-20.021-13.202-32.734-13.202c-26.062,0-47.189,21.127-47.189,47.189c0,26.06,21.128,47.188,47.189,47.188
		c12.714,0,24.25-5.03,32.734-13.203c-5.585,3.104-12.013,4.875-18.856,4.875C308.27,130.836,290.876,113.437,290.876,91.976z"/>
</g>
</svg>
