<?xml version="1.0" encoding="UTF-8" standalone="no"?>
<!-- Created with Inkscape (http://www.inkscape.org/) -->

<svg
   width="105.82722mm"
   height="105.83333mm"
   viewBox="0 0 105.82722 105.83333"
   version="1.1"
   id="svg34692"
   inkscape:version="1.2.1 (9c6d41e410, 2022-07-14)"
   sodipodi:docname="ISO_7010_E063.svg"
   xmlns:inkscape="http://www.inkscape.org/namespaces/inkscape"
   xmlns:sodipodi="http://sodipodi.sourceforge.net/DTD/sodipodi-0.dtd"
   xmlns="http://www.w3.org/2000/svg"
   xmlns:svg="http://www.w3.org/2000/svg">
  <sodipodi:namedview
     id="namedview34694"
     pagecolor="#505050"
     bordercolor="#eeeeee"
     borderopacity="1"
     inkscape:showpageshadow="0"
     inkscape:pageopacity="0"
     inkscape:pagecheckerboard="0"
     inkscape:deskcolor="#505050"
     inkscape:document-units="mm"
     showgrid="false"
     inkscape:zoom="0.74564394"
     inkscape:cx="61.021082"
     inkscape:cy="131.43002"
     inkscape:window-width="1920"
     inkscape:window-height="1017"
     inkscape:window-x="-8"
     inkscape:window-y="-8"
     inkscape:window-maximized="1"
     inkscape:current-layer="layer1" />
  <defs
     id="defs34689" />
  <g
     inkscape:label="Ebene 1"
     inkscape:groupmode="layer"
     id="layer1"
     transform="translate(-71.634774,-113.85753)">
    <g
       id="g3294"
       inkscape:label="1"
       transform="matrix(0.35277777,0,0,0.35277777,11.153826,93.559803)">
      <path
         style="fill:#ffffff;fill-opacity:1;fill-rule:nonzero;stroke:none;stroke-width:4.42652"
         d="m 171.44206,357.53686 h 299.9827 V 57.536859 h -299.9827 z m 0,0"
         id="path503"
         inkscape:label="1" />
      <path
         style="fill:#237f52;fill-opacity:1;fill-rule:evenodd;stroke:none;stroke-width:4.42652"
         d="M 179.93198,349.04692 H 462.93482 V 66.026777 H 179.93198 Z m 0,0"
         id="path509"
         inkscape:label="1" />
    </g>
    <path
       id="path1479-6-9-3-2"
       style="fill:#ffffff;fill-opacity:1;stroke:none;stroke-width:0.340749;stroke-opacity:1"
       d="m 142.74155,125.38034 v 41.75507 h 14.48385 v -9.35964 h 6.02858 v 9.35964 h 4.10879 v -41.75507 z m 4.1088,4.85448 h 6.02857 v 7.42487 h -6.02857 z m 10.37505,0 h 6.02858 v 7.42487 h -6.02858 z m -10.37505,13.70666 h 6.02857 v 7.42487 h -6.02857 z m 10.37505,0 h 6.02858 v 7.42487 h -6.02858 z m -68.63921,16.97829 c -2.219942,-0.0335 -4.510419,0.12149 -6.852299,0.45889 v 46.78939 h 43.345679 v -0.66818 c -13.04947,0.54261 -33.229625,-3.2905 -34.914675,-19.00969 -0.7242,-14.01119 14.981925,-17.58167 24.168055,-8.84855 l 1.04283,-0.72141 c -4.87004,-12.14065 -14.8018,-17.81933 -26.78959,-18.00045 z m 46.09382,0.1633 c -1.89798,0 -3.3569,1.45852 -3.3569,3.36672 0,1.9116 1.45892,3.37033 3.3569,3.37033 1.89803,0 3.35278,-1.45873 3.35278,-3.37033 0,-1.9082 -1.45475,-3.36672 -3.35278,-3.36672 z m -0.40566,7.57111 v 7.1e-4 c -3.31547,0 -9.93632,0.0103 -9.93632,0.0103 -1.41751,0.0443 -1.66659,0.32384 -2.21178,1.13482 l -3.10057,5.18625 c -0.94387,2.01723 1.87442,3.40412 2.91714,1.50274 l 2.52802,-4.4297 c 0.0477,-0.0818 0.11934,-0.10239 0.21134,-0.0992 l 3.49281,0.0408 c -0.95409,2.03768 -1.90827,4.07244 -2.86236,6.11694 -0.29303,0.76328 -0.38155,1.46151 -0.45993,2.47013 -0.12605,2.03086 -0.23887,4.07574 -0.3581,6.1066 -0.0375,0.2692 -0.12582,0.44959 -0.44958,0.44959 -2.55218,-0.0102 -7.43523,-0.0651 -7.43523,-0.0651 -2.5351,0.0988 -4.09226,2.17413 -4.09226,3.74499 l 13.67049,-0.0305 c 1.20964,-0.0375 2.13327,-0.38491 2.24226,-1.75132 l 0.41598,-7.89512 c 2.20461,4.43655 4.41593,8.86961 6.61717,13.30616 0.54859,0.96432 1.19941,2.04119 2.76005,2.00712 l 2.98533,0.01 -8.13748,-16.43103 c -0.16353,-0.31009 0.0548,-0.70804 0.14676,-0.88522 0.8178,-1.73442 1.59107,-3.26132 2.41227,-5.05706 l 2.96106,3.49953 c 0.48794,0.48793 0.70069,0.60879 1.15703,0.61701 0.0164,0.001 6.165,0.008 6.165,0.008 0.8951,0 1.61538,-0.71981 1.61538,-1.61489 0,-0.89508 -0.72028,-1.61592 -1.61538,-1.61592 -1.6272,0.0511 -3.45389,-0.038 -4.93977,-0.0387 -0.44635,0.004 -0.55204,-0.0919 -0.73947,-0.31678 -1.34939,-1.5913 -2.86228,-3.41088 -4.24575,-5.11803 -0.51453,-0.54861 -0.63733,-0.88633 -1.71411,-0.86249 z"
       inkscape:label="2" />
  </g>
</svg>
