<?xml version="1.0" encoding="utf-8"?>
<!-- Generator: Adobe Illustrator 16.0.3, SVG Export Plug-In . SVG Version: 6.00 Build 0)  -->
<!DOCTYPE svg PUBLIC "-//W3C//DTD SVG 1.1//EN" "http://www.w3.org/Graphics/SVG/1.1/DTD/svg11.dtd">
<svg version="1.1" xmlns="http://www.w3.org/2000/svg" xmlns:xlink="http://www.w3.org/1999/xlink" x="0px" y="0px" width="800px"
	 height="400.002px" viewBox="-400 0 800 400.002" enable-background="new -400 0 800 400.002" xml:space="preserve">
<g id="Layer_1" xmlns:svg="http://www.w3.org/2000/svg">
	<polygon fill="#FFFFFF" points="0,0 0,0.002 -400,0.002 -400,400.002 0,400.002 0,400 400,400 400,0 	"/>
	<rect x="-22.833" y="10" fill="#008855" width="412.833" height="380"/>
	<path fill="#FFFFFF" d="M329.693,116.563l-89.688,89.688v-151h-80v150l-89.688-89.688v99L200.506,344.75l129.188-129.188
		L329.693,116.563L329.693,116.563z"/>
</g>
<g id="Layer_3">
	<g id="Layer_2">
		<path fill="#0F8558" d="M-335.226,384.763h148.933c0,0,13.517-12.784,20.302-19.216c5.266-4.479,5.728-7.519,14.766-7.329
			c9.826,0.164,19.679,0.353,29.504,0.516l-27.741,26.029h41.312L-86,362.507V204.888h-40.714c-6.378,0-7.274-0.868-11.4-4.994
			l-23.587-27.876c-6.542,14.304-12.703,26.464-19.217,40.28c-0.733,1.411-2.47,4.587-1.167,7.057l64.818,130.883l-23.777-0.08
			c-12.432,0.271-17.616-8.307-21.986-15.988c-17.534-35.34-35.15-70.653-52.712-105.993l-3.311,62.89
			c-0.869,10.885-8.224,13.653-17.86,13.953l-108.897,0.244c0-12.514,12.405-29.044,32.599-29.83c0,0,38.896,0.434,59.226,0.516
			c2.578,0,3.284-1.438,3.583-3.583c0.95-16.178,1.846-32.463,2.85-48.64c0.624-8.035,1.33-13.599,3.664-19.679
			c7.601-16.287,15.2-32.491,22.8-48.722l-27.821-0.326c-0.733-0.027-1.303,0.136-1.683,0.788l-20.14,35.286
			c-8.305,15.146-30.753,4.098-23.234-11.97l24.701-41.312c4.342-6.459,6.324-8.686,17.615-9.039c0,0,52.739-0.081,79.149-0.081
			c8.577-0.19,9.554,2.497,13.653,6.867c11.02,13.599,23.071,28.093,33.819,40.769c1.493,1.792,2.334,2.524,5.89,2.524H-86V54.706
			l-227.078,0.218c0,0,0.353,144.373,0.163,215.026c-23.152,0.731-39.085,18.238-39.954,40.795
			c13.029,0.162,26.437-0.462,39.791-0.299v52.061L-335.226,384.763z M-390,390.003V10.002h380v380.001H-390z M-169.274,68.359
			c15.119,0,26.708,11.618,26.708,26.817c0,15.227-11.589,26.845-26.708,26.845c-15.119,0-26.736-11.618-26.736-26.845
			C-196.01,79.977-184.393,68.359-169.274,68.359z"/>
	</g>
</g>
</svg>
