<?xml version="1.0" encoding="utf-8"?>
<!-- Generator: Adobe Illustrator 16.0.3, SVG Export Plug-In . SVG Version: 6.00 Build 0)  -->
<!DOCTYPE svg PUBLIC "-//W3C//DTD SVG 1.1//EN" "http://www.w3.org/Graphics/SVG/1.1/DTD/svg11.dtd">
<svg version="1.1" id="Layer_1" xmlns="http://www.w3.org/2000/svg" xmlns:xlink="http://www.w3.org/1999/xlink" x="0px" y="0px"
	 width="400px" height="400px" viewBox="0 0 400 400" enable-background="new 0 0 400 400" xml:space="preserve">
<rect fill="#FFFFFF" width="400" height="400"/>
<rect x="10" y="10" fill="#008855" width="380" height="380"/>
<g>
	<path fill="#FFFFFF" d="M141.67,43.674h16.716l-0.232,23.286h13.91c8.556,0,13.552,12.028,13.552,15.502h-70.444
		c0-3.666,5.194-15.502,13.552-15.502h12.716L141.67,43.674z"/>
	<path fill="#FFFFFF" d="M78.626,217.18c-0.025,2.758-2.352,4.975-5.197,4.95c-2.81-0.024-5.082-2.226-5.107-4.95
		c-0.025-2.758,2.261-5.014,5.107-5.037c2.845-0.025,5.172,2.191,5.197,4.949C78.626,217.121,78.626,217.15,78.626,217.18z
		 M221.5,217.84c0,2.763,2.311,5.002,5.16,5.002s5.16-2.239,5.16-5.002c0-2.762-2.311-5.002-5.16-5.002S221.5,215.078,221.5,217.84z
		 M154.906,90.572c-0.025,2.758-2.352,4.975-5.198,4.95c-2.81-0.024-5.082-2.226-5.106-4.95c-0.025-2.758,2.261-5.014,5.106-5.038
		c2.846-0.024,5.172,2.192,5.198,4.95C154.906,90.513,154.906,90.542,154.906,90.572z M155.118,107.7
		c-0.025,2.758-2.352,4.974-5.198,4.95c-2.81-0.024-5.082-2.226-5.106-4.95c-0.025-2.758,2.261-5.014,5.106-5.038
		c2.846-0.024,5.172,2.192,5.198,4.95C155.118,107.642,155.118,107.671,155.118,107.7z M155.482,125.07
		c-0.025,2.758-2.352,4.975-5.197,4.95c-2.81-0.024-5.082-2.226-5.106-4.95c-0.025-2.758,2.261-5.014,5.106-5.038
		c2.845-0.024,5.172,2.192,5.197,4.95C155.482,125.011,155.482,125.041,155.482,125.07z M125.91,156.766
		c-0.025,2.758-2.352,4.974-5.198,4.95c-2.81-0.024-5.082-2.226-5.106-4.95c-0.025-2.758,2.261-5.014,5.106-5.038
		c2.846-0.024,5.172,2.192,5.198,4.95C125.91,156.708,125.91,156.737,125.91,156.766z M129.612,140.692
		c0,2.759-2.307,4.995-5.153,4.995c-2.846,0-5.153-2.236-5.153-4.995s2.307-4.995,5.153-4.995
		C127.305,135.697,129.612,137.933,129.612,140.692z M132.974,123.582c-0.025,2.758-2.352,4.974-5.197,4.95
		c-2.81-0.024-5.082-2.227-5.107-4.95c-0.025-2.758,2.261-5.014,5.107-5.038c2.845-0.024,5.172,2.192,5.197,4.95
		C132.974,123.523,132.974,123.553,132.974,123.582z M137.872,107.054c-0.025,2.758-2.352,4.974-5.197,4.95
		c-2.81-0.024-5.082-2.226-5.107-4.95c-0.025-2.758,2.261-5.014,5.107-5.038c2.845-0.024,5.172,2.192,5.197,4.95
		C137.872,106.995,137.872,107.024,137.872,107.054z M72.742,233.98c-0.025,2.758-2.352,4.974-5.198,4.949
		c-2.81-0.023-5.082-2.227-5.106-4.949c-0.025-2.759,2.261-5.014,5.106-5.039c2.846-0.023,5.172,2.192,5.198,4.951
		C72.742,233.922,72.742,233.951,72.742,233.98z M84.492,201.859c-0.025,2.759-2.352,4.975-5.198,4.951
		c-2.81-0.024-5.082-2.227-5.106-4.951c-0.025-2.757,2.261-5.013,5.106-5.038c2.846-0.024,5.172,2.192,5.198,4.95
		C84.492,201.801,84.492,201.83,84.492,201.859z M90.538,185.656c-0.025,2.758-2.352,4.974-5.197,4.95
		c-2.81-0.024-5.082-2.226-5.107-4.95c-0.025-2.758,2.261-5.014,5.107-5.038c2.845-0.024,5.172,2.192,5.197,4.95
		C90.538,185.597,90.538,185.626,90.538,185.656z M96.942,169.984c-0.025,2.758-2.352,4.975-5.197,4.95
		c-2.81-0.024-5.082-2.226-5.106-4.95c-0.025-2.758,2.261-5.014,5.106-5.038c2.845-0.024,5.172,2.192,5.197,4.95
		C96.942,169.925,96.942,169.955,96.942,169.984z M103.482,154.35c-0.025,2.758-2.352,4.974-5.197,4.95
		c-2.81-0.024-5.082-2.226-5.106-4.95c-0.025-2.758,2.261-5.014,5.106-5.038s5.172,2.192,5.197,4.95
		C103.482,154.292,103.482,154.321,103.482,154.35z M109.91,137.7c-0.025,2.758-2.352,4.974-5.198,4.95
		c-2.81-0.024-5.082-2.226-5.106-4.95c-0.025-2.758,2.261-5.014,5.106-5.038c2.846-0.024,5.172,2.192,5.198,4.95
		C109.91,137.642,109.91,137.671,109.91,137.7z M115.322,122.752c-0.025,2.758-2.352,4.975-5.197,4.95
		c-2.81-0.024-5.082-2.227-5.106-4.95c-0.025-2.758,2.261-5.014,5.106-5.038c2.846-0.024,5.172,2.192,5.197,4.95
		C115.322,122.693,115.322,122.723,115.322,122.752z M121.402,106.214c-0.025,2.758-2.352,4.975-5.197,4.95
		c-2.81-0.024-5.082-2.226-5.106-4.95c-0.025-2.758,2.261-5.014,5.106-5.038c2.845-0.024,5.172,2.192,5.197,4.95
		C121.402,106.155,121.402,106.185,121.402,106.214z M127.688,91.444c-0.025,2.758-2.352,4.975-5.197,4.95
		c-2.81-0.024-5.082-2.226-5.107-4.95c-0.025-2.758,2.262-5.014,5.107-5.038c2.845-0.024,5.172,2.191,5.197,4.95
		C127.688,91.385,127.688,91.415,127.688,91.444z M141.5,91.026c-0.025,2.758-2.352,4.975-5.197,4.95
		c-2.81-0.024-5.082-2.226-5.107-4.95c-0.025-2.758,2.261-5.014,5.107-5.038c2.845-0.024,5.172,2.192,5.197,4.95
		C141.5,90.967,141.5,90.997,141.5,91.026z M173.766,156.502c0.025,2.758,2.352,4.975,5.197,4.95c2.81-0.024,5.082-2.227,5.106-4.95
		c0.025-2.758-2.261-5.014-5.106-5.038s-5.172,2.192-5.197,4.95C173.766,156.443,173.766,156.473,173.766,156.502z M170.18,140.374
		c0.025,2.758,2.352,4.974,5.197,4.95c2.81-0.024,5.082-2.227,5.106-4.95c0.025-2.758-2.261-5.014-5.106-5.038
		s-5.172,2.192-5.197,4.95C170.18,140.315,170.18,140.345,170.18,140.374z M166.51,123.262c0.025,2.758,2.352,4.974,5.197,4.95
		c2.81-0.024,5.082-2.226,5.106-4.95c0.025-2.758-2.261-5.014-5.106-5.038c-2.846-0.024-5.172,2.192-5.197,4.95
		C166.51,123.203,166.51,123.232,166.51,123.262z M162.782,107.06c0.025,2.758,2.352,4.974,5.197,4.95
		c2.81-0.024,5.082-2.226,5.106-4.95c0.025-2.758-2.261-5.014-5.106-5.038c-2.846-0.024-5.172,2.192-5.197,4.95
		C162.782,107.001,162.782,107.031,162.782,107.06z M228.04,233.98c0,2.762,2.31,5.002,5.16,5.002c2.85,0,5.159-2.24,5.159-5.002
		c0-2.763-2.31-5.002-5.159-5.002C230.35,228.979,228.04,231.218,228.04,233.98z M215.32,201.859
		c0.083,2.758,2.456,4.928,5.301,4.847c2.727-0.077,4.92-2.202,4.999-4.847c0.083-2.756-2.155-5.057-4.999-5.137
		c-2.845-0.081-5.218,2.089-5.301,4.846C215.316,201.666,215.316,201.763,215.32,201.859z M209.561,185.606
		c0.082,2.757,2.455,4.927,5.3,4.846c2.728-0.077,4.92-2.202,4.999-4.846c0.084-2.757-2.154-5.057-4.999-5.138
		s-5.218,2.089-5.3,4.846C209.557,185.412,209.557,185.509,209.561,185.606z M203.58,170.642c0.083,2.757,2.456,4.927,5.301,4.846
		c2.727-0.077,4.92-2.203,4.999-4.846c0.083-2.757-2.155-5.058-4.999-5.138c-2.845-0.081-5.218,2.089-5.301,4.846
		C203.577,170.447,203.577,170.545,203.58,170.642z M196.616,153.664c0.025,2.758,2.352,4.974,5.197,4.95
		c2.81-0.024,5.082-2.227,5.106-4.95c0.025-2.758-2.262-5.014-5.106-5.038c-2.845-0.024-5.172,2.192-5.197,4.95
		C196.616,153.605,196.616,153.635,196.616,153.664z M191.052,138.15c0.001,2.759,2.309,4.995,5.156,4.994
		c2.845-0.001,5.151-2.236,5.151-4.994c0.002-2.759-2.305-4.997-5.151-4.998c-2.847-0.001-5.155,2.235-5.156,4.994
		C191.052,138.147,191.052,138.148,191.052,138.15z M185.006,122.396c0.025,2.758,2.352,4.974,5.198,4.95
		c2.81-0.024,5.082-2.227,5.106-4.95c0.025-2.758-2.261-5.014-5.106-5.038c-2.846-0.024-5.172,2.192-5.198,4.95
		C185.006,122.337,185.006,122.367,185.006,122.396z M179.06,106.546c0.025,2.758,2.352,4.975,5.197,4.95
		c2.81-0.024,5.082-2.226,5.107-4.95c0.025-2.758-2.261-5.014-5.107-5.038c-2.845-0.024-5.172,2.192-5.197,4.95
		C179.06,106.487,179.06,106.517,179.06,106.546z M173.2,91.09c0.025,2.758,2.352,4.975,5.197,4.95
		c2.81-0.024,5.082-2.226,5.106-4.95c0.025-2.758-2.261-5.014-5.106-5.038c-2.845-0.024-5.172,2.192-5.197,4.95
		C173.2,91.031,173.2,91.061,173.2,91.09z M159.194,90.998c0.025,2.758,2.352,4.974,5.198,4.95c2.81-0.024,5.082-2.227,5.106-4.95
		c0.025-2.758-2.261-5.014-5.106-5.038c-2.846-0.024-5.172,2.192-5.198,4.95C159.194,90.939,159.194,90.969,159.194,90.998z"/>
	<circle fill="#FFFFFF" cx="149.67" cy="150.068" r="15.727"/>
	<path fill="#FFFFFF" d="M161.044,170.852h-25.782c-12.661-0.438-22.448,6.411-24.104,18.434l-0.173,69.044
		c0.024,4.302,2.929,7.211,7.417,7.189c4.458-0.025,7.73-2.92,7.763-7.189v-62.596c0.007-0.719,0.936-1.314,1.7-1.325
		c0.772-0.008,1.557,0.585,1.564,1.325v151.249c0.024,4.905,3.798,8.775,8.919,8.757c5.11-0.008,9.384-3.862,9.406-8.757
		l0.032-91.131c0.284-0.715,0.999-1.107,1.617-1.1c0.608-0.014,1.393,0.371,1.654,1.1l0.04,91.131
		c0.007,4.905,4.078,8.775,9.199,8.757c5.11-0.008,9.078-3.862,9.089-8.757V195.734c0.007-0.719,0.828-1.314,1.581-1.325
		c0.772-0.008,1.734,0.585,1.743,1.325v62.596c0.024,4.302,3.132,7.211,7.62,7.189c4.457-0.025,7.371-2.92,7.393-7.189
		l-0.176-69.044c-1.657-12.024-11.444-18.873-24.094-18.434"/>
</g>
<g>
	<path fill="#FFFFFF" d="M290.887,91.954c0-21.447,17.384-38.834,38.833-38.834c6.836,0,13.259,1.77,18.842,4.872
		c-8.479-8.167-20.007-13.193-32.712-13.193c-26.043,0-47.155,21.112-47.155,47.155c0,26.042,21.112,47.155,47.155,47.155
		c12.705,0,24.233-5.027,32.712-13.193c-5.583,3.102-12.006,4.872-18.842,4.872C308.271,130.787,290.887,113.4,290.887,91.954z"/>
</g>
</svg>
