<?xml version="1.0" encoding="UTF-8" standalone="no"?>
<svg xmlns:svg="http://www.w3.org/2000/svg" xmlns="http://www.w3.org/2000/svg" height="400px" width="400px" viewBox="0 0 608 608" version="1.1">
    <path style="fill:#008855;stroke:none" d="M 606.93,608.42 0.5,608.42 0.5,0.99 606.44,0.5 z" />
    <path style="fill:#ffffff;stroke:none" d="M 427.23,253.97 431.19,267.83 500.99,268.82 478.22,329.71 448.52,329.21 455.45,352.98 497.53,372.78 555.45,351.49 515.85,269.31 551.98,113.37 359.91,189.11 301.49,56.44 236.14,164.86 53.961,104.96 147.53,264.86 58.421,402.48 176.74,409.91 170.3,553.47 288.62,458.42 417.33,549.51 417.83,472.78 342.58,418.32 251.49,382.18 211.39,330.7 125.25,329.71 164.86,268.32 219.31,268.82 237.63,224.76 C 246.04,213.54 256.44,206.28 274.76,220.8 275.58,205.29 292.25,196.21 306.93,206.94 L 321.29,224.76 C 322.94,209.25 343.9,200.66 355.94,212.38 L 359.91,217.33 C 367.33,206.44 381.69,203.47 391.09,214.36 z" />
    <path style="fill:#ffffff;stroke:none" d="M 417.33,260.9 446.04,361.39 552.97,410.4 552.48,554.46 346.04,407.93 258.92,372.78 226.24,330.7 266.34,330.2 271.29,335.65 C 278.22,338.62 279.71,336.64 280.2,331.19 L 282.18,289.61 258.42,263.87 232.68,263.87 248.52,229.21 C 250.66,225.09 259.25,221.95 262.38,225.75 L 300.99,267.33 C 306.44,274.76 320.3,266.84 313.87,257.93 L 286.14,225.25 C 281.85,220.47 289.44,209.25 298.52,215.35 L 341.09,262.88 C 343.65,264.11 347.2,263.74 349.69,261.95 352.19,260.15 353.63,256.94 351.98,252.48 L 334.66,232.18 C 328.39,225.91 337.46,212.71 347.03,220.8 L 385.65,263.37 C 389.44,268.32 398.68,261.39 394.06,255.95 L 371.29,231.19 C 367.5,225.91 373.11,215.68 382.18,219.81 z" />
</svg>
