<?xml version="1.0" encoding="UTF-8" standalone="no"?>
<svg
   height="400"
   width="400"
   viewBox="0 0 200 200"
   version="1.1"
   id="svg4245"
   sodipodi:docname="E034.svg"
   xml:space="preserve"
   inkscape:version="1.2.1 (9c6d41e410, 2022-07-14)"
   xmlns:inkscape="http://www.inkscape.org/namespaces/inkscape"
   xmlns:sodipodi="http://sodipodi.sourceforge.net/DTD/sodipodi-0.dtd"
   xmlns="http://www.w3.org/2000/svg"
   xmlns:svg="http://www.w3.org/2000/svg"><defs
     id="defs4249" /><sodipodi:namedview
     id="namedview4247"
     pagecolor="#ffffff"
     bordercolor="#666666"
     borderopacity="1.0"
     inkscape:showpageshadow="2"
     inkscape:pageopacity="0.0"
     inkscape:pagecheckerboard="0"
     inkscape:deskcolor="#d1d1d1"
     showgrid="false"
     inkscape:zoom="0.73981048"
     inkscape:cx="592.04352"
     inkscape:cy="328.4625"
     inkscape:window-width="1920"
     inkscape:window-height="1017"
     inkscape:window-x="-8"
     inkscape:window-y="-8"
     inkscape:window-maximized="1"
     inkscape:current-layer="svg4245" /><rect
     style="fill:#ffffff;fill-rule:nonzero;stroke:none"
     y="0"
     x="0"
     height="200"
     width="200"
     id="rect4235" /><rect
     style="fill:#237f52;fill-opacity:1;fill-rule:nonzero;stroke:none"
     y="5"
     x="5"
     height="190"
     width="190"
     id="rect4237" /><g
     id="g14452"
     transform="matrix(-1,0,0,1,200,0)"><path
       id="path4864"
       style="color:#000000;fill:#ffffff;fill-opacity:1;stroke-width:1.57836"
       d="m 21.382884,23.600586 v 10.700195 h 6.313476 v -5.964843 h 45.203125 53.845695 45.20215 v 5.964843 h 6.31348 V 23.600586 H 126.74518 72.899485 Z" /><path
       id="path4864-6"
       style="color:#000000;fill:#ffffff;fill-opacity:1;stroke-width:1.57836"
       d="m 21.382889,177.871 v -10.70019 h 6.313476 v 5.96484 h 45.203125 53.8457 45.20214 v -5.96484 h 6.31348 V 177.871 H 126.74518 72.89949 Z" /></g><g
     id="g14456"
     transform="matrix(-1,0,0,1,199.91304,-0.10052597)"><rect
       style="fill:#ffffff;fill-opacity:1;stroke:none;stroke-width:3.25"
       id="rect14390"
       width="65.471924"
       height="131.89964"
       x="33.930706"
       y="34.886497" /><path
       id="rect14392"
       style="fill:#ffffff;fill-opacity:1;stroke:none;stroke-width:3.25"
       d="m 154.71875,80.321183 v 11.43457 H 113.02246 V 109.9159 h 41.69629 v 11.43555 l 11.41016,-10.25781 11.41015,-10.25781 -11.41015,-10.256835 z" /></g></svg>
