<?xml version="1.0" encoding="UTF-8" standalone="no"?>
<!-- Created with Inkscape (http://www.inkscape.org/) -->

<svg
   width="105.82722mm"
   height="105.83333mm"
   viewBox="0 0 105.82722 105.83333"
   version="1.1"
   id="svg38186"
   inkscape:version="1.2.1 (9c6d41e410, 2022-07-14)"
   sodipodi:docname="ISO_7010_E062.svg"
   xmlns:inkscape="http://www.inkscape.org/namespaces/inkscape"
   xmlns:sodipodi="http://sodipodi.sourceforge.net/DTD/sodipodi-0.dtd"
   xmlns="http://www.w3.org/2000/svg"
   xmlns:svg="http://www.w3.org/2000/svg">
  <sodipodi:namedview
     id="namedview38188"
     pagecolor="#505050"
     bordercolor="#eeeeee"
     borderopacity="1"
     inkscape:showpageshadow="0"
     inkscape:pageopacity="0"
     inkscape:pagecheckerboard="0"
     inkscape:deskcolor="#505050"
     inkscape:document-units="mm"
     showgrid="false"
     inkscape:zoom="0.74564394"
     inkscape:cx="-140.14732"
     inkscape:cy="199.82728"
     inkscape:window-width="1920"
     inkscape:window-height="1017"
     inkscape:window-x="-8"
     inkscape:window-y="-8"
     inkscape:window-maximized="1"
     inkscape:current-layer="layer1" />
  <defs
     id="defs38183" />
  <g
     inkscape:label="Ebene 1"
     inkscape:groupmode="layer"
     id="layer1"
     transform="translate(-124.86058,-95.760754)">
    <g
       id="g3294"
       inkscape:label="1"
       transform="matrix(0.35277777,0,0,0.35277777,64.379632,75.463029)">
      <path
         style="fill:#ffffff;fill-opacity:1;fill-rule:nonzero;stroke:none;stroke-width:4.42652"
         d="m 171.44206,357.53686 h 299.9827 V 57.536859 h -299.9827 z m 0,0"
         id="path503"
         inkscape:label="1" />
      <path
         style="fill:#237f52;fill-opacity:1;fill-rule:evenodd;stroke:none;stroke-width:4.42652"
         d="M 179.93198,349.04692 H 462.93482 V 66.026777 H 179.93198 Z m 0,0"
         id="path509"
         inkscape:label="1" />
    </g>
    <path
       id="path1479-6-9"
       style="fill:#ffffff;fill-opacity:1;stroke:none;stroke-width:0.343945"
       d="m 191.73639,106.74871 c -1.91578,0 -3.38791,1.47164 -3.38791,3.39773 0,1.92952 1.47213,3.40186 3.38791,3.40186 1.91578,0 3.38429,-1.47234 3.38429,-3.40186 0,-1.92609 -1.46851,-3.39773 -3.38429,-3.39773 z m -0.40928,7.64191 v 3.6e-4 c -3.34655,0 -10.02936,0.0103 -10.02936,0.0103 -1.4308,0.0447 -1.68212,0.32657 -2.23242,1.14515 l -3.12952,5.23482 c -0.95274,2.03616 1.89152,3.43592 2.944,1.51671 l 2.55178,-4.47105 c 0.0481,-0.0825 0.12056,-0.10293 0.21343,-0.0997 l 3.52536,0.0413 c -0.96305,2.05679 -1.92618,4.11012 -2.88923,6.17378 -0.29578,0.77044 -0.38494,1.47583 -0.46405,2.49391 -0.12725,2.0499 -0.24085,4.11354 -0.36122,6.16345 -0.0378,0.27171 -0.12696,0.45371 -0.45372,0.45371 -2.57614,-0.0103 -7.50497,-0.0656 -7.50497,-0.0656 -2.55892,0.0997 -4.13101,2.19454 -4.13101,3.78013 l 13.79916,-0.031 c 1.22101,-0.0378 2.15337,-0.38864 2.26343,-1.76785 l 0.41961,-7.96903 c 2.22531,4.47816 4.45729,8.95307 6.67917,13.43123 0.55375,0.97336 1.21064,2.0601 2.78588,2.02571 l 3.01325,0.0103 -8.21345,-16.58504 c -0.16509,-0.31298 0.0549,-0.71515 0.1478,-0.894 0.82549,-1.75068 1.6061,-3.29201 2.43499,-5.1046 l 2.98897,3.5326 c 0.49251,0.49251 0.6773,0.61432 1.13791,0.62271 0.0164,10e-4 6.25233,0.008 6.25233,0.008 0.90349,0 1.63091,-0.72692 1.63091,-1.63039 0,-0.90348 -0.72742,-1.63091 -1.63091,-1.63091 -1.78279,-0.0186 -3.38153,-0.0387 -4.98626,-0.0393 -0.45056,0.004 -0.55704,-0.0924 -0.7462,-0.31936 -1.36202,-1.60622 -2.88911,-3.44345 -4.28553,-5.16661 -0.51936,-0.55375 -0.64324,-0.89431 -1.73013,-0.87024 z m -51.54,14.95103 c -2.29255,-0.0214 -4.64433,0.13749 -7.03161,0.46457 v 60.79991 h 19.02467 l 15.41922,-15.41922 c -11.07758,-1.68037 -24.29575,-6.25299 -25.53591,-18.39629 -0.99481,-14.38801 16.06794,-17.18094 25.3416,-8.81032 l 1.09348,-0.7183 c -5.27297,-12.43993 -15.93174,-17.80495 -28.31145,-17.92035 z m 67.5628,9.90431 -51.36017,51.36017 h 66.80315 v -51.36017 z"
       inkscape:label="2" />
  </g>
</svg>
