<?xml version="1.0" encoding="UTF-8" standalone="no"?>
<!-- Created with Inkscape (http://www.inkscape.org/) -->

<svg
   width="105.82722mm"
   height="105.83333mm"
   viewBox="0 0 105.82722 105.83333"
   version="1.1"
   id="svg27992"
   inkscape:version="1.2.1 (9c6d41e410, 2022-07-14)"
   sodipodi:docname="ISO_7010_E053.svg"
   xmlns:inkscape="http://www.inkscape.org/namespaces/inkscape"
   xmlns:sodipodi="http://sodipodi.sourceforge.net/DTD/sodipodi-0.dtd"
   xmlns="http://www.w3.org/2000/svg"
   xmlns:svg="http://www.w3.org/2000/svg">
  <sodipodi:namedview
     id="namedview27994"
     pagecolor="#505050"
     bordercolor="#eeeeee"
     borderopacity="1"
     inkscape:showpageshadow="0"
     inkscape:pageopacity="0"
     inkscape:pagecheckerboard="0"
     inkscape:deskcolor="#505050"
     inkscape:document-units="mm"
     showgrid="false"
     inkscape:zoom="0.74564394"
     inkscape:cx="183.06325"
     inkscape:cy="167.64034"
     inkscape:window-width="1920"
     inkscape:window-height="1017"
     inkscape:window-x="-8"
     inkscape:window-y="-8"
     inkscape:window-maximized="1"
     inkscape:current-layer="layer1" />
  <defs
     id="defs27989" />
  <g
     inkscape:label="Ebene 1"
     inkscape:groupmode="layer"
     id="layer1"
     transform="translate(-39.344451,-104.27688)">
    <g
       id="g3294"
       inkscape:label="1"
       transform="matrix(0.35277777,0,0,0.35277777,-21.136497,83.979158)">
      <path
         style="fill:#ffffff;fill-opacity:1;fill-rule:nonzero;stroke:none;stroke-width:4.42652"
         d="m 171.44206,357.53686 h 299.9827 V 57.536859 h -299.9827 z m 0,0"
         id="path503"
         inkscape:label="1" />
      <path
         style="fill:#237f52;fill-opacity:1;fill-rule:evenodd;stroke:none;stroke-width:4.42652"
         d="M 179.93198,349.04692 H 462.93482 V 66.026777 H 179.93198 Z m 0,0"
         id="path509"
         inkscape:label="1" />
    </g>
    <path
       id="path27974"
       style="fill:#ffffff;fill-opacity:1;fill-rule:evenodd;stroke:none;stroke-width:1.25549"
       d="m 77.702316,115.78316 v 65.80011 h 2.844271 v -2.98638 h 23.216673 v 2.98638 h 2.84943 v -65.80011 h -2.84943 v 2.97656 H 80.546587 v -2.97656 z m 2.844271,5.83117 h 23.216673 v 8.54314 H 80.546587 Z m 0,11.39723 h 23.216673 v 8.54315 H 80.546587 Z m 0,11.39259 h 23.216673 v 8.54831 H 80.546587 Z m 0,11.39775 h 23.216673 v 8.55297 H 80.546587 Z m 0,11.39724 h 23.216673 v 8.54315 H 80.546587 Z m 30.605363,18.6924 c -3.8964,0.0223 -7.35424,1.07921 -10.58075,2.03295 -3.226457,0.95372 -6.220902,1.80445 -9.121402,1.82108 -2.829885,0.0155 -5.759919,-0.74995 -8.913668,-1.62368 -3.153717,-0.87375 -6.523686,-1.85416 -10.295498,-1.90893 -4.028249,-0.0586 -7.708575,0.86244 -11.17141,1.69706 -3.457826,0.8334 -6.696985,1.57893 -9.81232,1.5136 v 2.9192 c 3.980388,0.0647 7.626523,-0.83066 11.056172,-1.65726 3.468525,-0.836 6.722279,-1.59876 9.848493,-1.55339 2.846173,0.0415 5.79846,0.84582 8.967929,1.72392 3.169496,0.8781 6.560555,1.83143 10.349755,1.80971 3.896402,-0.0223 7.354288,-1.07922 10.580749,-2.03295 3.22647,-0.95374 6.22352,-1.80447 9.12399,-1.82108 2.96806,-0.0174 6.04004,0.80496 9.34258,1.73168 3.30258,0.92673 6.83062,1.95729 10.77713,1.96112 0.62355,7.1e-4 1.28315,-0.0311 1.95543,-0.076 v -2.94401 c -0.70807,0.0602 -1.37585,0.10076 -1.9482,0.10025 -2.97366,-0.002 -6.05451,-0.83966 -9.36222,-1.76785 -3.30776,-0.92817 -6.84484,-1.94813 -10.79676,-1.92546 z m 0,5.93762 c -3.8964,0.0223 -7.35424,1.07973 -10.58075,2.03347 -3.226457,0.9537 -6.220902,1.80393 -9.121402,1.82056 -2.829885,0.0155 -5.759919,-0.74944 -8.913668,-1.62316 -3.153717,-0.87374 -6.523686,-1.85417 -10.295498,-1.90893 -4.028249,-0.0585 -7.708575,0.86192 -11.17141,1.69654 -3.457826,0.8334 -6.696985,1.57943 -9.81232,1.51412 v 2.9192 c 3.980388,0.0647 7.626523,-0.83064 11.056172,-1.65726 3.468525,-0.83597 6.722279,-1.59879 9.848493,-1.55339 2.846173,0.0415 5.79846,0.8458 8.967929,1.72392 3.169496,0.87809 6.560555,1.83143 10.349755,1.80971 3.896402,-0.0223 7.354288,-1.07973 10.580749,-2.03347 3.22647,-0.95373 6.22352,-1.80395 9.12399,-1.82056 2.96806,-0.0174 6.04004,0.80495 9.34258,1.73168 3.30258,0.92672 6.83062,1.95676 10.77713,1.9606 0.62357,7.1e-4 1.28313,-0.0307 1.95543,-0.0755 v -2.944 c -0.70807,0.06 -1.37585,0.10076 -1.9482,0.10025 -2.97366,-0.002 -6.05451,-0.83966 -9.36222,-1.76785 -3.30776,-0.92817 -6.84484,-1.94867 -10.79676,-1.92598 z"
       inkscape:label="2" />
  </g>
</svg>
