<?xml version="1.0" encoding="utf-8"?>
<!-- Generator: Adobe Illustrator 16.0.3, SVG Export Plug-In . SVG Version: 6.00 Build 0)  -->
<!DOCTYPE svg PUBLIC "-//W3C//DTD SVG 1.1//EN" "http://www.w3.org/Graphics/SVG/1.1/DTD/svg11.dtd">
<svg version="1.1" id="Layer_1" xmlns:svg="http://www.w3.org/2000/svg"
	 xmlns="http://www.w3.org/2000/svg" xmlns:xlink="http://www.w3.org/1999/xlink" x="0px" y="0px" width="800px" height="400.01px"
	 viewBox="-400 0 800 400.01" enable-background="new -400 0 800 400.01" xml:space="preserve">
<polygon fill="#FFFFFF" points="0,0 0,0.01 -400,0.01 -400,400.01 0,400.01 0,400 400,400 400,0 "/>
<rect x="-23.5" y="10" fill="#0F8558" width="413.5" height="380"/>
<path fill="#FFFFFF" d="M73.3,142.939h126.84L93.36,249.721l56.56,56.559L255.98,200.22v126.841l70-70V72.96H143.28l-70,70
	L73.3,142.939z"/>
<path fill="#0F8558" d="M-335.226,384.771h148.933c0,0,13.517-12.785,20.302-19.217c5.266-4.479,5.728-7.518,14.766-7.328
	c9.826,0.164,19.679,0.352,29.504,0.516l-27.741,26.029h41.312L-86,362.516V204.896h-40.714c-6.378,0-7.274-0.869-11.4-4.995
	l-23.587-27.876c-6.542,14.304-12.703,26.465-19.217,40.281c-0.733,1.41-2.47,4.586-1.167,7.057l64.818,130.883l-23.777-0.08
	c-12.432,0.271-17.616-8.307-21.986-15.988c-17.534-35.34-35.15-70.654-52.712-105.994l-3.311,62.891
	c-0.869,10.885-8.224,13.652-17.86,13.953l-108.897,0.244c0-12.514,12.405-29.045,32.599-29.83c0,0,38.896,0.434,59.226,0.516
	c2.578,0,3.284-1.439,3.583-3.584c0.95-16.178,1.846-32.463,2.85-48.639c0.624-8.035,1.33-13.6,3.664-19.68
	c7.601-16.286,15.2-32.49,22.8-48.722l-27.821-0.326c-0.733-0.027-1.303,0.136-1.683,0.788l-20.14,35.286
	c-8.305,15.146-30.753,4.098-23.234-11.97l24.701-41.312c4.342-6.459,6.324-8.686,17.615-9.039c0,0,52.739-0.081,79.149-0.081
	c8.577-0.19,9.554,2.497,13.653,6.867c11.02,13.599,23.071,28.093,33.819,40.769c1.493,1.792,2.334,2.524,5.89,2.524H-86V54.714
	l-227.078,0.218c0,0,0.353,144.373,0.163,215.027c-23.152,0.73-39.085,18.238-39.954,40.795c13.029,0.162,26.437-0.463,39.791-0.299
	v52.061L-335.226,384.771z M-390,390.012V10.01h380v380.001H-390z M-169.274,68.367c15.119,0,26.708,11.618,26.708,26.817
	c0,15.227-11.589,26.845-26.708,26.845c-15.119,0-26.736-11.618-26.736-26.845C-196.01,79.985-184.393,68.367-169.274,68.367z"/>
</svg>
