<?xml version="1.0" encoding="UTF-8" standalone="no"?>
<svg
   version="1.1"
   width="400px"
   height="400px"
   viewBox="0 0 200 200"
   id="svg1686"
   sodipodi:docname="ISO_7010_E026.svg"
   inkscape:version="1.2.1 (9c6d41e410, 2022-07-14)"
   xml:space="preserve"
   xmlns:inkscape="http://www.inkscape.org/namespaces/inkscape"
   xmlns:sodipodi="http://sodipodi.sourceforge.net/DTD/sodipodi-0.dtd"
   xmlns="http://www.w3.org/2000/svg"
   xmlns:svg="http://www.w3.org/2000/svg"><defs
     id="defs1690" /><sodipodi:namedview
     id="namedview1688"
     pagecolor="#ffffff"
     bordercolor="#000000"
     borderopacity="0.25"
     inkscape:showpageshadow="2"
     inkscape:pageopacity="0.0"
     inkscape:pagecheckerboard="0"
     inkscape:deskcolor="#d1d1d1"
     showgrid="false"
     inkscape:zoom="0.65625"
     inkscape:cx="-110.47619"
     inkscape:cy="213.33333"
     inkscape:window-width="1366"
     inkscape:window-height="705"
     inkscape:window-x="-8"
     inkscape:window-y="-8"
     inkscape:window-maximized="1"
     inkscape:current-layer="svg1686" /><rect
     width="200"
     height="200"
     style="fill:#ffffff;"
     id="rect1662" /><rect
     x="5"
     y="5"
     width="190"
     height="190"
     style="fill:#008855"
     id="rect1664" /><path
     style="fill:#ffffff;stroke-width:0.391278"
     d="M 40.789857,18.354318 H 155.68478 V 180.09959 l 11.15485,12.27034 H 54.733416 L 40.789857,179.54186 Z"
     id="path3097" /><g
     id="g1698"
     transform="matrix(-2.1149513,0,0,2.1149513,832.88082,-47.797255)"
     style="fill:#008855;fill-opacity:1"><g
       id="g3214"
       transform="matrix(2.0137286,0,0,-2.0137286,307.84703,38.022235)"
       style="fill:#008855;fill-opacity:1"><path
         fill="#ffffff"
         d="m 18.85,-4.504 c 0,-1.452 -1.18,-2.648 -2.648,-2.648 -1.46,0 -2.648,1.196 -2.648,2.648 0,1.468 1.188,2.648 2.648,2.648 1.464,0 2.648,-1.18 2.648,-2.648 z"
         id="path1561"
         style="fill:#008855;fill-opacity:1" /></g><g
       id="g3218"
       transform="matrix(2.0137286,0,0,-2.0137286,314.33261,47.945246)"
       style="fill:#008855;fill-opacity:1"><path
         fill="#ffffff"
         d="m 27.984,-22.467 c -0.728,-0.432 -1.704,-0.156 -2.124,0.532 l -3.508,6.08 h -8.584 c -1.4,-0.008 -2.58,1 -2.696,2.404 l -0.464,8.04 c -0.068,1.404 1,2.624 2.416,2.704 1.408,0.076 2.6,-1.016 2.696,-2.408 l 0.172,-2.272 h 4.952 c 0.672,-0.024 1.196,-0.54 1.196,-1.204 0,-0.672 -0.54,-1.172 -1.196,-1.212 h -4.812 l 0.064,-2 h 6.624 c 0.508,-0.016 1,-0.28 1.28,-0.748 l 4.516,-7.8 c 0.416,-0.76 0.196,-1.672 -0.532,-2.116 z"
         id="path1564"
         style="fill:#008855;fill-opacity:1" /></g><g
       id="g3222"
       transform="matrix(2.0137286,0,0,-2.0137286,308.70445,49.467447)"
       style="fill:#008855;fill-opacity:1"><path
         fill="#ffffff"
         d="m 26.539,-20.383 c -1.556,-3.468 -5.016,-5.904 -9.064,-5.904 -5.5,0 -9.952,4.46 -9.952,9.952 0,3.56 1.888,6.656 4.7,8.412 l 0.144,-2.46 c -1.68,-1.444 -2.76,-3.568 -2.76,-5.952 0,-4.352 3.524,-7.868 7.868,-7.868 3.78,0 6.916,2.688 7.664,6.244 z"
         id="path1567"
         style="fill:#008855;fill-opacity:1" /></g></g></svg>
