<?xml version="1.0" encoding="UTF-8" standalone="no"?>
<svg xmlns:svg="http://www.w3.org/2000/svg" xmlns="http://www.w3.org/2000/svg" width="800" height="400" viewBox="0 0 400 200" version="1.1">
	<g style="stroke:none;fill-rule:nonzero;"> 
		<rect style="fill:#ffffff; stroke:none; fill-rule:nonzero;" y="0" x="0" height="200" width="400" />
		<path style="fill:#008855" d="M 113.44,59.352 C 104.93,54.835 104.94,40.802 113.46,36.507 117.16,34.642 123.9,34.936 127.43,37.116 137.88,43.564 133.87,59.449 121.52,60.538 118.3,60.821 115.41,60.397 113.44,59.352 z M 5,5 5,100 5,195 200,195 395,195 395,100 395,5 200,5 z M 44.224,18.722 103.62,18.722 163.02,18.722 163.02,54.083 163.02,89.444 153.67,89.444 144.32,89.444 139.8,84.431 C 137.31,81.673 132.69,76.458 129.54,72.852 125.41,68.136 122.61,65.978 119.59,65.134 116.93,64.391 107.4,64.093 93.675,64.309 L 71.996,64.639 68.459,68.498 C 66.528,70.621 63.696,74.659 62.155,77.47 60.614,80.282 59.101,82.821 58.793,83.111 56.916,84.879 54.167,91.675 54.485,93.766 54.99,97.08 60.3,99.919 62.996,98.318 64.078,97.675 67.884,92.569 71.471,86.97 L 77.985,76.778 85.269,76.778 C 92.299,76.778 92.542,76.861 91.818,79.153 91.028,81.657 84.394,95.516 81.837,100 80.554,102.25 78.447,118.43 77.53,133.25 L 77.284,137.47 57.112,138.07 C 46.017,138.39 36.899,138.75 36.835,138.86 36.77,138.97 35.404,140.18 33.823,141.56 31.023,144.01 28.135,150.98 29.41,152.18 30.461,153.17 85.349,152.87 88.176,151.85 92.396,150.34 93.343,146.82 94.13,130.35 94.539,121.78 95.203,114.8 95.601,114.81 96.254,114.83 99.633,121.16 119.38,159.51 126.44,173.21 128.67,174.94 139.2,174.94 146.65,174.95 146.82,174.88 145.12,172.04 142.9,168.33 113.81,111.47 113.18,109.6 112.81,108.49 114.27,104.11 116.58,99.34 122.32,87.472 122.96,86.271 123.69,86.377 124.05,86.429 127.41,89.872 131.15,94.03 L 137.98,101.58 150.48,101.88 163.02,102.18 163.02,142.22 163.02,182.23 157.8,187.58 152.58,192.89 141.55,192.89 C 135.48,192.89 130.52,192.46 130.52,191.93 130.52,191.4 130.9,190.79 131.36,190.58 131.82,190.37 134.71,187.71 137.77,184.68 L 143.34,179.17 134.58,179.17 125.82,179.17 118.26,186.03 110.73,192.89 72.416,192.89 C 51.355,192.89 34.138,192.6 34.138,192.26 34.138,191.93 36.407,189.53 39.181,186.92 L 44.224,182.17 44.224,169.04 44.224,155.94 33.578,155.94 C 27.722,155.94 22.931,155.52 22.931,154.99 22.931,154.46 24.023,151.35 25.348,148.09 27.967,141.65 33.394,136.32 38.376,135.3 40.059,134.95 42.053,134.46 42.823,134.24 43.922,133.92 44.224,121.41 44.224,76.283 z M 257.75,39.833 281.25,39.866 304.78,39.899 337.49,70.214 370.24,100.53 358.23,111.45 C 351.63,117.45 337.06,130.86 325.83,141.27 L 305.41,160.17 281.85,160.17 258.28,160.17 280.97,139.09 303.66,117.98 265.84,117.98 228.02,117.94 228.02,100 228.02,82.056 265.77,82.056 303.52,82.056 C 287.95,67.913 271.83,53.142 257.75,39.833 z" />
    </g>
</svg>
