<?xml version="1.0" encoding="utf-8"?>
<!-- Generator: Adobe Illustrator 16.0.3, SVG Export Plug-In . SVG Version: 6.00 Build 0)  -->
<!DOCTYPE svg PUBLIC "-//W3C//DTD SVG 1.1//EN" "http://www.w3.org/Graphics/SVG/1.1/DTD/svg11.dtd">
<svg version="1.1"
	 id="Layer_1" xmlns:dc="http://purl.org/dc/elements/1.1/" xmlns:cc="http://creativecommons.org/ns#" xmlns:rdf="http://www.w3.org/1999/02/22-rdf-syntax-ns#" xmlns:svg="http://www.w3.org/2000/svg" xmlns:sodipodi="http://sodipodi.sourceforge.net/DTD/sodipodi-0.dtd" xmlns:inkscape="http://www.inkscape.org/namespaces/inkscape" inkscape:version="1.0.1 (3bc2e813f5, 2020-09-07)" sodipodi:docname="ISO 7010 - Exit Down - Reflected - English.svg"
	 xmlns="http://www.w3.org/2000/svg" xmlns:xlink="http://www.w3.org/1999/xlink" x="0px" y="0px" width="1843.213px"
	 height="380px" viewBox="-673.607 -0.001 1843.213 380" enable-background="new -673.607 -0.001 1843.213 380"
	 xml:space="preserve">
<path id="path2" fill="#FFFFFF" d="M1137.284,16.908L1137.284,16.908 M1169.605-0.001H-673.607v380h1843.213V-0.001L1169.605-0.001z
	"/>
<rect id="rect4" x="-656.697" y="16.908" fill="#268053" width="1809.392" height="346.181"/>
<path id="path6" fill="#FFFFFF" d="M490.607,284.866v8.475l8.476-0.02l27.676-0.064v43.732l-20.879,20.547h208.794l20.879-20.547
	V41.031H526.758v208.425C505.075,251.111,490.607,268.802,490.607,284.866z"/>
<path id="path1479-6-9" fill="#268053" d="M659.432,69.653c-13.732,0-24.287,10.554-24.287,24.361
	c0,13.833,10.557,24.387,24.287,24.387c13.736,0,24.264-10.554,24.264-24.387C683.695,80.207,673.167,69.652,659.432,69.653z
	 M656.497,124.439v0.002c-23.99,0-71.901,0.076-71.901,0.076c-10.253,0.318-12.055,2.342-16.001,8.21l-22.437,37.529
	c-6.834,14.596,13.557,24.633,21.104,10.871l18.297-32.053c0.347-0.592,0.861-0.738,1.525-0.715l25.278,0.295
	c-6.908,14.743-13.813,29.467-20.715,44.262c-2.117,5.521-2.76,10.579-3.33,17.876c-0.912,14.697-1.729,29.49-2.586,44.188
	c-0.272,1.949-0.912,3.256-3.256,3.256c-18.472-0.071-53.803-0.471-53.803-0.471c-18.346,0.713-29.614,15.731-29.614,27.104
	l98.927-0.229c8.754-0.271,15.435-2.783,16.224-12.673l3.01-57.131c15.953,32.104,31.955,64.185,47.883,96.287
	c3.973,6.978,8.682,14.771,19.975,14.522l21.603,0.072l-58.885-118.897c-1.184-2.244,0.396-5.128,1.063-6.409
	c5.918-12.549,11.514-23.6,17.457-36.595l21.424,25.326c3.532,3.531,4.601,4.404,9.539,4.5c0.118,0.008,0.232,0.012,0.354,0.017
	c0.184,0.004,0.275,0.024,0.465,0.024c0.287,0,0.561-0.014,0.848-0.016h41.775c6.479,0,11.689-5.212,11.689-11.69
	s-5.211-11.692-11.689-11.692H720.83c-4.629-0.27-9.875-0.379-15.854-0.278c-3.229,0.027-3.993-0.666-5.351-2.293
	c-9.766-11.514-20.713-24.684-30.723-37.036C665.18,126.71,664.291,124.266,656.497,124.439L656.497,124.439z"/>
<polygon id="polygon9" fill="#268053" points="669.148,333.098 700.863,333.098 673.27,359.523 641.557,359.523 "/>
<g enable-background="new    ">
	<path fill="#FFFFFF" d="M-534.887,257.42l-52.56-90.72v90.72h-27.181V126.2h27.897l51.843,89.279V126.2h27.18v131.22H-534.887z"/>
	<path fill="#FFFFFF" d="M-438.319,158.6c15.267,0,27.139,4.59,35.615,13.771c8.477,9.18,12.715,21.988,12.715,38.427
		c0,15.602-4.328,27.962-12.984,37.083c-8.657,9.121-20.377,13.68-35.165,13.68c-15.03,0-26.812-4.612-35.348-13.837
		c-8.536-9.226-12.802-21.774-12.802-37.643s4.266-28.415,12.802-37.64C-464.95,163.215-453.228,158.6-438.319,158.6z
		 M-438.139,179.12c-6.815,0-12.313,2.863-16.495,8.589c-4.186,5.727-6.275,13.186-6.275,22.371c0,9.188,2.09,16.645,6.275,22.37
		c4.182,5.727,9.68,8.59,16.495,8.59c6.694,0,12.161-2.832,16.405-8.499c4.241-5.668,6.365-13.036,6.365-22.104
		c0-9.543-2.064-17.148-6.188-22.815S-431.209,179.12-438.139,179.12z"/>
	<path fill="#FFFFFF" d="M-327.528,162.2v16.739h-13.86v52.921c0,4.319,0.531,7.172,1.598,8.55c1.065,1.381,3.257,2.069,6.575,2.069
		c1.303,0,3.198-0.18,5.688-0.54v17.641c-4.033,1.319-8.834,1.979-14.403,1.979c-16.56,0-24.837-7.619-24.837-22.859v-59.761h-12.24
		V162.2h12.24V136.1h25.38V162.2H-327.528z"/>
	<path fill="#FFFFFF" d="M-285.252,261.56c-8.927,0-16.106-2.683-21.535-8.043c-5.429-5.364-8.142-12.445-8.142-21.246
		c0-17.061,9.593-27.199,28.779-30.423l10.027-1.789c0.236,0,1.432-0.148,3.58-0.447c2.148-0.298,3.521-0.534,4.117-0.714
		s1.761-0.447,3.493-0.808c1.729-0.356,2.953-0.773,3.671-1.251c0.714-0.479,1.58-1.103,2.596-1.879
		c1.012-0.776,1.698-1.671,2.059-2.686c0.357-1.013,0.537-2.178,0.537-3.491c0-6.44-4.835-9.663-14.502-9.663
		c-6.207,0-10.563,0.947-13.068,2.841c-2.51,1.896-4.059,5.326-4.655,10.299h-24.46c1.561-22.438,15.443-33.66,41.646-33.66
		c26.944,0,40.419,10.002,40.419,30.004v53.711c0,4.488,1.918,8.493,5.761,12.012v3.094h-27.99c-1.98-2.425-2.971-5.701-2.971-9.827
		C-264.724,256.905-274.511,261.56-285.252,261.56z M-256.069,218.313v-6.801c-2.268,1.074-5.788,2.09-10.564,3.043l-8.592,1.608
		c-5.254,1.074-8.952,2.627-11.101,4.655c-2.149,2.027-3.224,4.891-3.224,8.589c0,3.58,1.224,6.415,3.671,8.502
		c2.446,2.087,5.757,3.131,9.937,3.131c6.325,0,11.219-1.969,14.682-5.906C-257.802,231.196-256.069,225.591-256.069,218.313z"/>
	<path fill="#FFFFFF" d="M-121.431,257.42h-25.38v-11.399c-6.927,10.361-16.599,15.539-29.017,15.539
		c-10.367,0-18.41-2.941-24.137-8.819c-5.727-5.879-8.586-14.158-8.586-24.84V160.22h25.379v62.601c0,11.666,5.372,17.5,16.121,17.5
		c6.09,0,10.986-1.744,14.688-5.231s5.552-8.117,5.552-13.892V160.22h25.38V257.42z"/>
	<path fill="#FFFFFF" d="M-79.7,229.16c0.838,4.314,2.543,7.61,5.116,9.895c2.571,2.283,7.448,3.425,14.631,3.425
		c5.851,0,10.415-0.874,13.696-2.624c3.283-1.749,4.926-4.185,4.926-7.307c0-1.997-0.631-3.622-1.891-4.871s-3.451-2.374-6.57-3.375
		l-30.06-9.363c-0.121,0-0.841-0.213-2.16-0.641c-1.321-0.428-2.25-0.763-2.79-1.007c-0.54-0.245-1.529-0.642-2.97-1.192
		c-1.44-0.549-2.552-1.128-3.33-1.741c-0.782-0.61-1.772-1.372-2.97-2.289c-1.201-0.917-2.133-1.924-2.791-3.023
		c-0.66-1.1-1.35-2.352-2.069-3.758s-1.26-3.023-1.62-4.857c-0.359-1.831-0.54-3.785-0.54-5.864c0-9.826,3.577-17.608,10.738-23.352
		c7.157-5.743,16.935-8.615,29.326-8.615c13.095,0,23.368,2.911,30.819,8.73c7.447,5.821,11.295,13.891,11.537,24.21h-24.452
		c-0.121-9.239-6.148-13.86-18.085-13.86c-4.418,0-7.939,0.813-10.566,2.438c-2.627,1.626-3.938,3.819-3.938,6.587
		c0,1.927,0.602,3.4,1.807,4.424c1.203,1.024,3.549,2.076,7.042,3.159l31.865,9.168c12.696,3.89,19.046,12.418,19.046,25.586
		c0,3.673-0.663,7.259-1.984,10.752c-1.322,3.493-3.457,6.958-6.404,10.396c-2.947,3.437-7.366,6.189-13.259,8.263
		c-5.892,2.07-12.867,3.107-20.922,3.107c-29.841,0-45.118-10.8-45.839-32.399H-79.7z"/>
	<path fill="#FFFFFF" d="M64.688,160.22h25.379v100.44c0,11.398-4.168,20.25-12.504,26.55s-20.036,9.45-35.1,9.45
		c-12.985,0-23.387-2.492-31.199-7.471c-7.816-4.98-11.785-11.672-11.902-20.069h26.254c2.031,7.56,7.945,11.34,17.744,11.34
		c6.332,0,11.47-1.837,15.413-5.51c3.942-3.673,5.915-8.463,5.915-14.363v-13.188c-4.66,5.326-8.992,9.017-12.994,11.075
		c-4.005,2.056-8.814,3.085-14.428,3.085c-12.038,0-21.696-4.618-28.978-13.859c-7.282-9.242-10.921-21.423-10.921-36.546
		c0-14.996,3.85-27.506,11.551-37.524s17.33-15.03,28.885-15.03c10.752,0,19.713,5.566,26.885,16.698V160.22z M43.181,179.84
		c-6.095,0-11.025,2.863-14.788,8.59c-3.763,5.726-5.645,13.182-5.645,22.364c0,8.711,1.851,15.81,5.555,21.297
		s8.544,8.229,14.519,8.229c6.569,0,11.919-2.742,16.042-8.229s6.185-12.586,6.185-21.297c0-8.943-2.062-16.34-6.185-22.185
		S49.515,179.84,43.181,179.84z"/>
	<path fill="#FFFFFF" d="M137.206,261.56c-8.928,0-16.107-2.683-21.535-8.043c-5.429-5.364-8.143-12.445-8.143-21.246
		c0-17.061,9.594-27.199,28.78-30.423l10.026-1.789c0.236,0,1.432-0.148,3.58-0.447c2.148-0.298,3.521-0.534,4.117-0.714
		c0.597-0.18,1.762-0.447,3.494-0.808c1.729-0.356,2.953-0.773,3.67-1.251c0.715-0.479,1.58-1.103,2.596-1.879
		c1.013-0.776,1.699-1.671,2.059-2.686c0.357-1.013,0.537-2.178,0.537-3.491c0-6.44-4.834-9.663-14.501-9.663
		c-6.207,0-10.563,0.947-13.069,2.841c-2.509,1.896-4.059,5.326-4.654,10.299h-24.461c1.561-22.438,15.443-33.66,41.647-33.66
		c26.944,0,40.419,10.002,40.419,30.004v53.711c0,4.488,1.918,8.493,5.76,12.012v3.094h-27.99c-1.98-2.425-2.97-5.701-2.97-9.827
		C157.733,256.905,147.946,261.56,137.206,261.56z M166.388,218.313v-6.801c-2.267,1.074-5.787,2.09-10.563,3.043l-8.592,1.608
		c-5.254,1.074-8.952,2.627-11.101,4.655c-2.149,2.027-3.224,4.891-3.224,8.589c0,3.58,1.224,6.415,3.671,8.502
		c2.446,2.087,5.756,3.131,9.936,3.131c6.326,0,11.219-1.969,14.682-5.906C164.655,231.196,166.388,225.591,166.388,218.313z"/>
	<path fill="#FFFFFF" d="M213.907,160.22h25.379v13.914c6.924-10.356,16.598-15.534,29.018-15.534
		c10.363,0,18.406,2.942,24.133,8.82c5.727,5.881,8.59,14.161,8.59,24.84v65.16h-25.379v-60.081
		c0-11.666-5.375-17.499-16.123-17.499c-6.092,0-10.984,1.747-14.686,5.234s-5.553,8.119-5.553,13.891v58.455h-25.379V160.22z"/>
	<path fill="#FFFFFF" d="M387.065,160.22h25.381v100.44c0,11.398-4.17,20.25-12.506,26.55s-20.035,9.45-35.1,9.45
		c-12.984,0-23.385-2.492-31.199-7.471c-7.816-4.98-11.783-11.672-11.902-20.069h26.256c2.029,7.56,7.945,11.34,17.742,11.34
		c6.332,0,11.471-1.837,15.414-5.51s5.914-8.463,5.914-14.363v-13.188c-4.66,5.326-8.992,9.017-12.994,11.075
		c-4.004,2.056-8.814,3.085-14.428,3.085c-12.037,0-21.695-4.618-28.977-13.859c-7.281-9.242-10.922-21.423-10.922-36.546
		c0-14.996,3.852-27.506,11.551-37.524c7.701-10.019,17.332-15.03,28.885-15.03c10.752,0,19.713,5.566,26.885,16.698V160.22z
		 M365.558,179.84c-6.094,0-11.023,2.863-14.787,8.59c-3.764,5.726-5.645,13.182-5.645,22.364c0,8.711,1.85,15.81,5.555,21.297
		c3.703,5.487,8.543,8.229,14.518,8.229c6.57,0,11.92-2.742,16.043-8.229s6.184-12.586,6.184-21.297
		c0-8.943-2.061-16.34-6.184-22.185S371.892,179.84,365.558,179.84z"/>
</g>
<path id="path13" fill="#FFFFFF" d="M1030.17,74.574v115.553l-97.277-97.278l-51.525,51.527l96.621,96.621H862.437l63.771,63.771
	h167.714V138.328l-63.77-63.77L1030.17,74.574z"/>
</svg>
