<?xml version="1.0" encoding="utf-8"?>
<!-- Generator: Adobe Illustrator 16.0.3, SVG Export Plug-In . SVG Version: 6.00 Build 0)  -->
<!DOCTYPE svg PUBLIC "-//W3C//DTD SVG 1.1//EN" "http://www.w3.org/Graphics/SVG/1.1/DTD/svg11.dtd">
<svg version="1.1"
	 id="Layer_1" xmlns:dc="http://purl.org/dc/elements/1.1/" xmlns:cc="http://creativecommons.org/ns#" xmlns:rdf="http://www.w3.org/1999/02/22-rdf-syntax-ns#" xmlns:svg="http://www.w3.org/2000/svg" xmlns:sodipodi="http://sodipodi.sourceforge.net/DTD/sodipodi-0.dtd" xmlns:inkscape="http://www.inkscape.org/namespaces/inkscape" inkscape:version="1.0.1 (3bc2e813f5, 2020-09-07)" sodipodi:docname="ISO 7010 - Exit Down - Reflected - English.svg"
	 xmlns="http://www.w3.org/2000/svg" xmlns:xlink="http://www.w3.org/1999/xlink" x="0px" y="0px" width="1169.605px"
	 height="380px" viewBox="0 0 1169.605 380" enable-background="new 0 0 1169.605 380" xml:space="preserve">
<sodipodi:namedview  objecttolerance="10" borderopacity="1" pagecolor="#ffffff" bordercolor="#666666" id="namedview16" inkscape:document-rotation="0" inkscape:current-layer="Layer_1" inkscape:window-maximized="1" inkscape:window-y="-8" inkscape:window-x="-8" inkscape:window-height="1017" inkscape:window-width="1920" inkscape:pageshadow="2" inkscape:pageopacity="0" inkscape:cy="190" inkscape:cx="584.80298" inkscape:zoom="0.9473276" showgrid="false" guidetolerance="10" gridtolerance="10">
	</sodipodi:namedview>
<path id="path2" fill="#FFFFFF" d="M1137.284,16.908L1137.284,16.908 M1169.605-0.001H0v380h1169.605V-0.001L1169.605-0.001z"/>
<rect id="rect4" x="16.91" y="16.908" fill="#268053" width="1135.784" height="346.181"/>
<path id="path6" fill="#FFFFFF" d="M490.607,284.866v8.475l8.476-0.02l27.676-0.064v43.732l-20.879,20.547h208.794l20.879-20.547
	V41.031H526.758v208.425C505.075,251.111,490.607,268.802,490.607,284.866z"/>
<path id="path1479-6-9" fill="#268053" d="M659.432,69.653c-13.732,0-24.287,10.554-24.287,24.361
	c0,13.833,10.557,24.387,24.287,24.387c13.736,0,24.264-10.554,24.264-24.387C683.695,80.207,673.167,69.652,659.432,69.653z
	 M656.497,124.439v0.002c-23.99,0-71.901,0.076-71.901,0.076c-10.253,0.318-12.055,2.342-16.001,8.21l-22.437,37.529
	c-6.834,14.596,13.557,24.633,21.104,10.871l18.297-32.053c0.347-0.592,0.861-0.738,1.525-0.715l25.278,0.295
	c-6.908,14.743-13.813,29.467-20.715,44.262c-2.117,5.521-2.76,10.579-3.33,17.876c-0.912,14.697-1.729,29.49-2.586,44.188
	c-0.272,1.949-0.912,3.256-3.256,3.256c-18.472-0.071-53.803-0.471-53.803-0.471c-18.346,0.713-29.614,15.731-29.614,27.104
	l98.927-0.229c8.754-0.271,15.435-2.783,16.224-12.673l3.01-57.131c15.953,32.104,31.955,64.185,47.883,96.287
	c3.973,6.978,8.682,14.771,19.975,14.522l21.603,0.072l-58.885-118.897c-1.184-2.244,0.396-5.128,1.063-6.409
	c5.918-12.549,11.514-23.6,17.457-36.595l21.424,25.326c3.532,3.531,4.601,4.404,9.539,4.5c0.118,0.008,0.232,0.012,0.354,0.017
	c0.184,0.004,0.275,0.024,0.465,0.024c0.287,0,0.561-0.014,0.848-0.016h41.775c6.479,0,11.689-5.212,11.689-11.69
	s-5.211-11.692-11.689-11.692H720.83c-4.629-0.27-9.875-0.379-15.854-0.278c-3.229,0.027-3.993-0.666-5.351-2.293
	c-9.766-11.514-20.713-24.684-30.723-37.036C665.18,126.71,664.291,124.266,656.497,124.439L656.497,124.439z"/>
<polygon id="polygon9" fill="#268053" points="669.148,333.098 700.863,333.098 673.27,359.523 641.557,359.523 "/>
<path id="path11" fill="#FFFFFF" d="M861.465,204.176l117.689,117.689l118.603-118.6v-90.189l-81.705,81.707V58.131H943.17v137.561
	l-81.705-81.706V204.176L861.465,204.176z"/>
<g enable-background="new    ">
	<path fill="#FFFFFF" d="M112.42,200.9v34.02h70.92v22.5h-98.1V126.2h94.86v22.5h-67.68v29.7h62.64v22.5H112.42z"/>
	<path fill="#FFFFFF" d="M254.259,208.46l32.4,48.96h-30.24l-16.38-30.24l-16.56,30.24h-30.24l32.4-48.96l-31.68-48.24h30.24
		l15.84,29.34l15.66-29.34h30.24L254.259,208.46z"/>
	<path fill="#FFFFFF" d="M327.338,126.2v22.5h-25.38v-22.5H327.338z M327.338,160.22v97.2h-25.38v-97.2H327.338z"/>
	<path fill="#FFFFFF" d="M395.199,162.2v16.739h-13.86v52.921c0,4.319,0.531,7.172,1.598,8.55c1.065,1.381,3.257,2.069,6.575,2.069
		c1.303,0,3.198-0.18,5.688-0.54v17.641c-4.033,1.319-8.835,1.979-14.403,1.979c-16.56,0-24.837-7.619-24.837-22.859v-59.761h-12.24
		V162.2h12.24V136.1h25.38V162.2H395.199z"/>
</g>
</svg>
