<?xml version="1.0" encoding="utf-8"?>
<!-- Generator: Adobe Illustrator 16.0.3, SVG Export Plug-In . SVG Version: 6.00 Build 0)  -->
<!DOCTYPE svg PUBLIC "-//W3C//DTD SVG 1.1//EN" "http://www.w3.org/Graphics/SVG/1.1/DTD/svg11.dtd">
<svg version="1.1"
	 id="svg1686" xmlns:svg="http://www.w3.org/2000/svg" inkscape:version="1.2.1 (9c6d41e410, 2022-07-14)" sodipodi:docname="ISO_7010_E028.svg" xmlns:sodipodi="http://sodipodi.sourceforge.net/DTD/sodipodi-0.dtd" xmlns:inkscape="http://www.inkscape.org/namespaces/inkscape"
	 xmlns="http://www.w3.org/2000/svg" xmlns:xlink="http://www.w3.org/1999/xlink" x="0px" y="0px" width="400px" height="400px"
	 viewBox="0 0 400 400" enable-background="new 0 0 400 400" xml:space="preserve">
<sodipodi:namedview  inkscape:pagecheckerboard="0" inkscape:window-width="1366" inkscape:deskcolor="#d1d1d1" inkscape:showpageshadow="2" inkscape:pageopacity="0.0" inkscape:window-maximized="1" inkscape:window-height="705" inkscape:window-x="-8" inkscape:current-layer="svg1686" inkscape:window-y="-8" id="namedview1688" pagecolor="#ffffff" inkscape:zoom="0.65625" inkscape:cx="468.57143" bordercolor="#000000" inkscape:cy="160" borderopacity="0.25" showgrid="false">
	</sodipodi:namedview>
<g id="g7533">
	<rect id="rect1662" fill="#FFFFFF" width="400" height="400"/>
	<rect id="rect1664" x="10" y="10" fill="#008855" width="380" height="380"/>
</g>
<g id="g7529" transform="matrix(0.89406337,0,0,0.89406337,-546.88356,-80.1464)">
	<g id="g7499" transform="translate(-276.91648,-59.262283)">
		<path id="path7052-5" fill="#FFFFFF" d="M971.792,192.657v1.032v2.722h-10.91v1.027v1.953h-12.457v1.031v12.879h18.729
			c0.025,0.668,0.027,1.295-0.026,1.731c-0.164,1.366,0.563,2.482,1.184,3.363c0.475,0.674,0.761,0.949,0.965,1.164v4.574h-28.781
			v1.027v2.781h-8v1.027v15.125h8v3.808h20.695c-0.002,0.274-0.019,2.72-0.239,3.653c-0.268,1.141-0.558,2.187-1.098,2.766
			c-0.416,0.446-1.199,0.762-2.07,1.014c-17.353,3.552-21.665,14.574-21.977,36.326c-0.017,1.196,0.035,2.377,0.135,3.544h-0.248
			v1.032v216.527h0.186c1.118,20.645,18.229,37.063,39.15,37.063c20.921,0,38.032-16.418,39.15-37.063h0.072V295.206h-0.4
			c0.113-1.168,0.18-2.348,0.18-3.544c0-21.777-4.657-31.618-18.875-35.486c-0.075-0.035-0.161-0.06-0.262-0.069
			c-0.518-0.137-1.047-0.267-1.59-0.388c-0.423-0.143-0.836-0.293-0.998-0.338c-0.932-0.258-1.775-0.587-2.215-1.058
			c-0.54-0.578-0.83-1.625-1.098-2.766c-0.219-0.933-0.237-3.379-0.238-3.653h19.746c3.704,5.362,9.888,8.883,16.887,8.883
			c6.999,0,13.186-3.521,16.89-8.883h12.27v-23.77h-12.623c-3.738-5.08-9.757-8.383-16.537-8.383c-6.78,0-12.797,3.302-16.533,8.383
			h-28.186v-4.574c0.204-0.215,0.49-0.49,0.965-1.164c0.62-0.881,1.347-1.997,1.183-3.363c-0.052-0.435-0.049-1.062-0.023-1.731
			h18.73v-13.91h-12.461v-2.98H978.16v-3.754H971.792z M941.566,307.776h66.817v26.437h-66.817v-25.41V307.776z"/>
		
			<path id="path7237-0" sodipodi:nodetypes="ccsssssssssssscsssssssssscsssssssscssssssssssssssssssssccssssssssssssssssscccsssssssssssssssssscsssssssssscc" fill="#FFFFFF" d="
			M1031.859,254.672l-10.576,0.211c0,0,6.377,15.217,7.974,20.207c1.182,3.695,1.829,7.987,2.949,12.602
			c1.034,4.262,2.237,8.216,3.008,12.004c1.004,4.933,2.274,10.085,3.746,14.938c0.974,3.21,1.654,6.651,3.484,10.578
			c1.969,4.227,3.872,8.688,6.192,13.149c1.734,3.337,3.226,7.021,4.632,10.777c1.361,3.633,2.509,6.736,3.313,10.141
			c1.444,6.119,3.559,11.489,4.523,16.547c1.216,6.377,1.69,13.101,2.211,20.004c0.465,6.165,0.624,12.428,0.75,18.765
			c0.126,6.298,0.156,12.574,0,18.82c-0.132,5.271-0.014,10.175-0.703,14.579c-0.533,3.407-1.61,6.936-2.844,10.59
			c-1.392,4.124-3.222,8.249-5.144,12.473c-1.834,4.028-3.802,7.989-5.922,11.852c-2.038,3.712-4.361,7.396-6.719,11.191
			c-2.129,3.425-4.576,6.905-6.887,10.714c-1.827,3.011-5.009,6.546-6.613,11.821c-1.112,3.658-2.537,8.543-0.699,13.816
			c2.042,5.861,6.752,9.106,10.211,11.593c4.81,3.46,10.213,5.409,15.289,6.856c7.843,2.235,15.731,2.722,23.141,3.23
			c12.849,0.883,25.453,0.116,37.723,0.013c15.052-0.129,30.045-0.546,44.984-0.762c21.268-0.307,42.628-0.205,64.059-0.762
			c6.514-0.168,12.845-0.638,19.015-0.761c2.659-0.054,5.42,0,8.282,0c1.918,0,4.771,0.078,7.074,0
			c1.399-0.047,2.678-0.262,3.848-0.551c1.17-0.288,2.06-0.49,3.402-1.309c2.143-1.306,4.448-2.968,6.097-5.774
			c1.066-1.81,1.061-3.104,1.07-4.285c0-1.181-0.102-2.189-0.452-3.348c-0.628-2.073-1.419-2.709-2.195-3.531
			c-0.777-0.821-1.408-1.479-2.801-2.199c-2.32-1.198-4.212-1.612-4.911-1.883c-2.461-0.954-4.592-1.422-6.422-1.992
			c-3.525-1.098-6.219-1.351-8.996-1.937c-7.656-1.615-15.129-2.396-22.137-3.816c-7.421-1.505-14.941-3.621-22.789-5.322
			c-10.437-2.26-20.695-3.502-30.25-6.038c-5.831-1.549-11.72-3.858-17.941-5.992c-4.516-1.549-8.804-2.763-12.555-4.415
			c-3.848-1.693-7.477-3.463-10.57-5.616c-2.252-1.569-4.288-3.304-5.872-5.192c-2.209-2.633-4.061-5.549-5.277-8.547
			c-0.538-1.326-0.836-3.294-1.216-5.73c-0.451-2.899-0.86-5.33-0.714-7.211c0.129-1.657,0.483-3.161,1.011-4.23
			c0.43-0.869,1.654-2.71,2.646-4.41c0.696-1.195,2.217-3.663,3.133-5.778c1.661-3.838,2.239-5.123,4.109-8.823
			c1.291-2.556,4.456-8.172,4.456-8.172l-8.835-5c0,0-3.109,5.466-4.687,8.59c-1.922,3.803-2.685,5.494-4.365,9.372
			c-0.172,0.395-1.905,3.53-2.585,4.699c-0.647,1.11-1.959,2.971-2.973,5.016c-1.329,2.685-1.84,5.437-2.035,7.957
			c-0.287,3.713,0.396,6.91,0.809,9.554c0.341,2.191,0.61,4.972,1.832,7.985c1.697,4.188,4.138,7.952,6.91,11.258
			c2.348,2.799,5.081,5.074,7.848,7c3.992,2.78,8.23,4.789,12.285,6.573c4.63,2.038,9.206,3.309,13.352,4.732
			c5.934,2.036,12.041,4.449,18.629,6.199c10.472,2.781,20.89,4.023,30.703,6.148c7.445,1.612,15.012,3.743,22.927,5.348
			c7.641,1.549,15.084,2.331,22.054,3.801c3.371,0.71,5.6,0.924,8.074,1.695c2.313,0.72,4.183,1.155,5.769,1.769
			c1.632,0.631,2.544,0.857,3.457,1.26c-0.299,0.453-0.222,0.601-1.883,1.614c0.561-0.343,0-0.016-0.547,0.12
			c-0.552,0.138-1.269,0.242-1.758,0.258c-1.759,0.06-4.584-0.003-6.73-0.003c-2.725,0-5.555-0.055-8.484,0.003
			c-6.536,0.131-12.889,0.602-19.079,0.762c-21.224,0.551-42.544,0.453-63.942,0.762c-15.03,0.216-30.002,0.635-44.921,0.761
			c-12.619,0.106-24.961,0.833-36.942,0.012c-7.424-0.51-14.593-1.027-21.051-2.867c-4.546-1.297-8.828-2.95-12.141-5.332
			c-3.254-2.341-5.872-4.744-6.551-6.691c-0.508-1.458-0.137-4.357,0.825-7.519c0.779-2.561,3.157-5.521,5.578-9.513
			c2.073-3.418,4.496-6.866,6.828-10.62c2.331-3.752,4.758-7.588,6.996-11.664c2.252-4.103,4.335-8.289,6.266-12.531
			c1.946-4.275,3.928-8.707,5.523-13.431c1.289-3.816,2.568-7.886,3.254-12.268c0.884-5.645,0.698-10.997,0.82-15.895
			c0.162-6.449,0.128-12.879,0-19.278c-0.127-6.369-0.286-12.821-0.777-19.328c-0.517-6.857-0.991-13.964-2.359-21.141
			c-1.205-6.32-3.401-11.823-4.617-16.977c-0.981-4.157-2.319-7.728-3.684-11.371c-1.465-3.914-3.089-7.969-5.133-11.899
			c-2.083-4.006-3.939-8.334-6-12.758c-1.241-2.665-1.831-5.485-2.968-9.234c-1.364-4.497-2.571-9.371-3.516-14.012
			c-0.9-4.421-2.145-8.496-3.086-12.375c-0.972-4.006-1.627-8.552-3.148-13.305c-2.083-6.509-7.07-17.32-7.07-17.32
			L1031.859,254.672z"/>
		<path id="path7459-5" fill="#FFFFFF" d="M1248.791,320.239c-0.405,0.006-0.812,0.028-1.215,0.053
			c-0.723,0.045-1.454,0.089-2.155,0.27c-0.702,0.181-1.397,0.439-2.021,0.808c-0.851,0.504-1.516,1.269-2.289,1.885
			c-0.577,0.459-1.168,0.897-1.75,1.348c-0.405,0.313-0.759,0.708-1.214,0.943c-0.958,0.497-2.058,0.653-3.098,0.942
			c-0.892,0.247-1.784,0.5-2.693,0.674c-1.335,0.255-2.707,0.282-4.04,0.539c-4.501,0.866-8.949,2.029-13.335,3.367
			c-2.92,0.891-5.767,2.007-8.619,3.098c-2.897,1.109-5.767,2.288-8.62,3.502c-4.477,1.903-8.939,3.843-13.334,5.926
			c-5.316,2.52-10.621,5.081-15.758,7.947c-3.221,1.797-6.336,3.78-9.427,5.791c-4.249,2.764-8.475,5.577-12.527,8.621
			c-3.062,2.299-5.95,4.82-8.889,7.273c-2.127,1.775-4.189,3.629-6.33,5.387c-1.063,0.872-2.109,1.766-3.233,2.558
			c-1.038,0.732-2.138,1.376-3.232,2.021c-1.194,0.706-2.399,1.396-3.636,2.021c-3.48,1.755-10.641,4.85-10.641,4.85l-20.742,8.754
			l13.469,30.708l18.453-9.832c0,0,2.033-1.323,3.098-1.078c0.434,0.099,0.759,0.54,0.944,0.944
			c0.261,0.572,0.282,1.273,0.132,1.885c-0.224,0.92-0.896,1.679-1.481,2.423c-0.746,0.948-1.738,1.677-2.558,2.56
			c-1.451,1.564-2.994,3.073-4.176,4.849c-0.779,1.17-1.397,2.453-1.885,3.772c-0.77,2.083-1.27,4.271-1.618,6.464
			c-0.203,1.289-0.329,2.603-0.269,3.906c0.078,1.682,0.23,3.402,0.808,4.983c0.629,1.721,1.101,4.105,2.829,4.714
			c1.352,0.478,2.672-1.053,4.04-1.48c1.196-0.372,2.47-0.489,3.636-0.943c1.516-0.59,2.989-1.341,4.309-2.292
			c1.006-0.723,1.987-1.543,2.696-2.558c1.681-2.407,2.389-5.363,3.502-8.081c1.039-2.538,1.995-5.112,2.963-7.678
			c0.961-2.552,1.914-5.109,2.827-7.678c0.557-1.565,0.736-3.303,1.617-4.713c0.504-0.807,1.242-1.473,2.021-2.022
			c0.69-0.485,1.472-0.863,2.289-1.076c0.609-0.159,1.258-0.2,1.885-0.134c0.974,0.1,1.972,0.332,2.829,0.806
			c1.057,0.585,1.838,1.573,2.693,2.426c1.374,1.369,2.581,2.893,3.906,4.309c1.324,1.413,2.642,2.833,4.039,4.175
			c1.606,1.542,3.224,3.085,4.985,4.446c1.408,1.09,2.976,1.956,4.444,2.963c1.541,1.057,2.996,2.238,4.578,3.232
			c1.566,0.984,3.192,1.877,4.85,2.694c1.624,0.8,3.319,1.442,4.983,2.154c2.108,0.904,4.166,1.938,6.331,2.696
			c1.583,0.555,3.235,0.887,4.85,1.346c1.079,0.308,2.136,0.701,3.231,0.944c0.577,0.128,1.173,0.153,1.752,0.269
			c0.726,0.146,1.503,0.188,2.155,0.54c0.699,0.378,1.152,1.092,1.75,1.615c0.528,0.462,1.09,0.886,1.618,1.347
			c0.596,0.524,1.109,1.147,1.75,1.617c0.876,0.641,1.83,1.188,2.828,1.617c0.862,0.369,1.765,0.69,2.695,0.808
			c1.115,0.141,2.263,0.068,3.369-0.134c1.116-0.204,2.265-0.482,3.232-1.078c0.864-0.534,1.449-1.423,2.154-2.154
			c0.595-0.618,1.383-1.113,1.752-1.887c0.41-0.859,0.383-1.875,0.403-2.828c0.025-1.309-0.273-2.604-0.403-3.906
			c-0.188-1.885-0.385-3.769-0.539-5.657c-0.214-2.601-0.395-5.206-0.54-7.812c-0.178-3.185-0.291-6.375-0.404-9.563
			c-0.11-3.097-0.407-6.196-0.27-9.292c0.186-4.201,0.866-8.367,1.482-12.526c0.487-3.293,0.911-6.61,1.75-9.833
			c0.934-3.585,2.281-7.056,3.637-10.505c1.382-3.517,2.925-6.974,4.58-10.371c1.293-2.655,2.699-5.255,4.174-7.813
			c1.319-2.288,2.84-4.456,4.176-6.734c1.219-2.081,2.177-4.315,3.502-6.33c0.686-1.043,1.442-2.047,2.289-2.963
			c0.863-0.933,1.766-1.863,2.83-2.559c0.824-0.539,1.865-0.681,2.694-1.213c0.803-0.516,1.647-1.075,2.154-1.885
			c0.272-0.434,0.336-0.975,0.404-1.482c0.346-2.581,0-5.209,0-7.813c0-1.257,0.32-2.554,0-3.77
			c-0.302-1.147-0.957-2.217-1.75-3.099c-0.517-0.575-1.22-0.955-1.886-1.346c-0.729-0.427-1.493-0.801-2.289-1.078
			c-0.74-0.258-1.512-0.449-2.292-0.539c-0.401-0.047-0.804-0.058-1.208-0.053H1248.791z M1227.441,336.852
			c0.606,0.042,1.212,0.204,1.818,0.275c0.72,0.085,1.524-0.084,2.155,0.27c1.004,0.561,1.707,1.634,2.154,2.693
			c0.282,0.667,0.392,1.443,0.27,2.157c-0.203,1.187-0.927,2.243-1.615,3.232c-1.052,1.513-2.583,2.633-3.772,4.041
			c-1.528,1.812-2.942,3.721-4.31,5.656c-1.798,2.542-3.583,5.104-5.116,7.813c-1.525,2.691-2.748,5.541-4.042,8.35
			c-1.312,2.848-2.691,5.677-3.772,8.621c-1.292,3.52-2.376,7.123-3.232,10.773c-0.73,3.104-1.223,6.264-1.617,9.428
			c-0.431,3.485-0.673,6.996-0.808,10.505c-0.133,3.5,0,7.004,0,10.506c0,2.335-0.144,4.675,0,7.004
			c0.18,2.89,0.528,5.778,1.077,8.622c0.334,1.731,1.348,5.116,1.348,5.116s-4-0.51-5.927-1.077
			c-3.823-1.127-7.505-2.747-11.045-4.579c-2.544-1.317-4.9-2.975-7.274-4.58c-2.664-1.801-5.39-3.539-7.81-5.657
			c-1.865-1.631-3.531-3.488-5.12-5.388c-2.142-2.564-4.02-5.338-5.926-8.08c-2.155-3.101-3.922-5.845-6.229-9.463
			c-1.38-2.166-3.111-4.134-4.277-6.429c-0.822-1.621-1.372-3.375-1.884-5.12c-0.466-1.589-0.999-3.194-1.078-4.849
			c-0.068-1.446,0.106-2.928,0.54-4.31c0.577-1.839,1.614-3.52,2.693-5.118c0.855-1.268,1.914-2.39,2.963-3.502
			c1.701-1.802,3.517-3.494,5.389-5.118c2.075-1.801,4.216-3.537,6.464-5.119c3.893-2.738,7.975-5.206,12.122-7.541
			c6.403-3.606,12.923-7.041,19.663-9.967c6.488-2.816,13.256-4.943,19.934-7.273c1.876-0.655,3.679-1.677,5.656-1.886
			C1227.037,336.837,1227.24,336.838,1227.441,336.852L1227.441,336.852z"/>
		<g>
			<path fill="#FFFFFF" d="M1218.062,253.928c0-24.464,19.829-44.296,44.293-44.296c7.802,0,15.128,2.018,21.495,5.557
				c-9.67-9.318-22.822-15.049-37.314-15.049c-29.706,0-53.788,24.082-53.788,53.789s24.082,53.79,53.788,53.79
				c14.492,0,27.644-5.734,37.314-15.05c-6.367,3.539-13.693,5.557-21.495,5.557
				C1237.891,298.224,1218.062,278.392,1218.062,253.928z"/>
		</g>
	</g>
</g>
</svg>
