<?xml version="1.0" encoding="utf-8"?>
<!-- Generator: Adobe Illustrator 16.0.3, SVG Export Plug-In . SVG Version: 6.00 Build 0)  -->
<!DOCTYPE svg PUBLIC "-//W3C//DTD SVG 1.1//EN" "http://www.w3.org/Graphics/SVG/1.1/DTD/svg11.dtd">
<svg version="1.1"
	 id="Layer_1" xmlns:dc="http://purl.org/dc/elements/1.1/" xmlns:cc="http://creativecommons.org/ns#" xmlns:rdf="http://www.w3.org/1999/02/22-rdf-syntax-ns#" xmlns:svg="http://www.w3.org/2000/svg" xmlns:sodipodi="http://sodipodi.sourceforge.net/DTD/sodipodi-0.dtd" xmlns:inkscape="http://www.inkscape.org/namespaces/inkscape" inkscape:version="1.0.1 (3bc2e813f5, 2020-09-07)" inkscape:export-ydpi="96" inkscape:export-filename="R:\Vector Image Resources\Safety Signage\ISO\ISO 7010 - 2022\Safe Condition - E\Exit Signage\Liberation Sans Font\German Text\ISO 7010 - Exit Down - Reflected - German.png" inkscape:export-xdpi="96" sodipodi:docname="ISO 7010 - Exit Down - Bilingual Template.svg"
	 xmlns="http://www.w3.org/2000/svg" xmlns:xlink="http://www.w3.org/1999/xlink" x="0px" y="0px" width="1498.595px"
	 height="380px" viewBox="-515.348 0 1498.595 380" enable-background="new -515.348 0 1498.595 380" xml:space="preserve">
<sodipodi:namedview  objecttolerance="10" borderopacity="1" pagecolor="#ffffff" bordercolor="#666666" id="namedview16" fit-margin-bottom="0" fit-margin-right="0" inkscape:snap-bbox="true" inkscape:guide-bbox="true" inkscape:document-rotation="0" inkscape:current-layer="Layer_1" inkscape:window-maximized="1" inkscape:window-y="-8" inkscape:window-x="-8" inkscape:window-height="1017" inkscape:window-width="1920" inkscape:pageshadow="2" inkscape:pageopacity="0" fit-margin-left="0" fit-margin-top="0" showguides="true" inkscape:cy="288.33352" inkscape:cx="994.09" inkscape:zoom="0.64" showgrid="false" guidetolerance="10" gridtolerance="10">
	</sodipodi:namedview>
<path id="path2" sodipodi:nodetypes="ccccccc" fill="#FFFFFF" d="M950.924,16.909L950.924,16.909 M983.247,380H-515.348V0H983.247
	V380z"/>
<path id="rect4" sodipodi:nodetypes="ccccc" fill="#268053" d="M-498.438,363.09H966.334V16.909H-498.438V363.09z"/>
<path id="path6" fill="#FFFFFF" d="M304.248,284.867c0-16.064,14.468-33.756,36.151-35.41V41.032h208.795V336.99l-20.88,20.547
	H319.521L340.4,336.99v-43.732l-27.677,0.063l-8.477,0.021L304.248,284.867L304.248,284.867z"/>
<path id="path1479-6-9" fill="#268053" d="M497.337,94.015c0,13.833-10.527,24.387-24.264,24.387
	c-13.729,0-24.287-10.554-24.287-24.387c0-13.807,10.555-24.361,24.287-24.361C486.808,69.653,497.337,80.208,497.337,94.015z
	 M470.138,124.44c7.795-0.173,8.684,2.271,12.404,6.24c10.011,12.352,20.957,25.522,30.724,37.036
	c1.357,1.627,2.121,2.32,5.351,2.293c5.979-0.101,11.226,0.008,15.854,0.278h19.89c6.478,0,11.688,5.214,11.688,11.692
	s-5.21,11.69-11.688,11.69h-41.775c-0.287,0.002-0.562,0.017-0.848,0.017c-0.19,0-0.281-0.021-0.466-0.023
	c-0.121-0.005-0.236-0.01-0.354-0.018c-4.938-0.097-6.008-0.97-9.539-4.5l-21.424-25.326c-5.942,12.995-11.539,24.046-17.457,36.595
	c-0.668,1.279-2.248,4.165-1.063,6.406l58.887,118.897l-21.604-0.071c-11.293,0.248-16.002-7.545-19.975-14.521
	c-15.929-32.104-31.931-64.184-47.883-96.287l-3.011,57.131c-0.789,9.891-7.472,12.402-16.226,12.674l-98.926,0.229
	c0-11.373,11.268-26.393,29.613-27.104c0,0,35.331,0.399,53.804,0.471c2.343,0,2.983-1.307,3.255-3.256
	c0.856-14.697,1.674-29.49,2.586-44.188c0.57-7.297,1.213-12.354,3.33-17.876c6.901-14.795,13.807-29.519,20.715-44.262
	l-25.276-0.295c-0.664-0.023-1.18,0.123-1.524,0.715l-18.297,32.053c-7.548,13.764-27.938,3.725-21.104-10.871l22.438-37.529
	c3.945-5.868,5.748-7.892,16.001-8.21c0,0,47.91-0.076,71.9-0.076L470.138,124.44L470.138,124.44z"/>
<polygon id="polygon9" fill="#268053" points="482.79,333.1 455.198,359.523 486.911,359.523 514.504,333.1 "/>
<path id="path11" fill="#FFFFFF" d="M911.399,113.988l-81.705,81.708V58.133h-72.881v136.652l-81.706-81.707v90.189l118.602,118.6
	l117.689-117.689V113.988z"/>
<g enable-background="new    ">
	<path fill="#FFFFFF" d="M-355.857,90.904h-24.78c-0.942-13.59-9.938-20.387-26.986-20.387c-6.821,0-12.228,1.458-16.227,4.369
		c-3.998,2.914-5.997,6.808-5.997,11.679c0,4.757,1.719,8.291,5.163,10.608c3.443,2.317,9.913,4.43,19.412,6.33l20.055,3.792
		c11.591,2.354,20.027,6.324,25.308,11.912c5.278,5.591,7.92,13.445,7.92,23.562c0,12.945-4.592,23.062-13.769,30.35
		s-21.958,10.932-38.338,10.932c-16.443,0-29.207-3.633-38.288-10.896c-9.084-7.263-14.035-17.75-14.854-31.459h25.659
		c0.461,7.027,3.158,12.388,8.095,16.078c4.935,3.694,11.869,5.539,20.799,5.539c7.991,0,14.307-1.54,18.951-4.621
		c4.641-3.081,6.964-7.346,6.964-12.8c0-5.212-1.804-9.24-5.407-12.085c-3.603-2.846-9.765-5.097-18.481-6.756l-17.94-3.457
		c-13.005-2.475-22.262-6.365-27.768-11.671c-5.508-5.306-8.26-12.967-8.26-22.987c0-12.467,4.224-22.111,12.67-28.93
		c8.447-6.815,20.305-10.227,35.57-10.227c4.476,0,8.804,0.294,12.986,0.879c4.179,0.588,8.625,1.788,13.337,3.603
		c4.712,1.818,8.776,4.16,12.192,7.03c3.417,2.872,6.272,6.854,8.568,11.951S-355.857,84.227-355.857,90.904z"/>
	<path fill="#FFFFFF" d="M-320.331,165.304c-11.264-12.497-16.896-28.628-16.896-48.389s5.66-35.888,16.984-48.388
		c11.322-12.498,26.195-18.748,44.615-18.748c18.536,0,33.497,6.242,44.879,18.72c11.38,12.479,17.072,28.911,17.072,49.298
		c0,18.98-5.604,34.771-16.809,47.364c-11.204,12.593-26.194,18.89-44.967,18.89C-294.109,184.051-309.066,177.804-320.331,165.304z
		 M-275.452,72.1c-10.638,0-19.17,4.089-25.596,12.264c-6.429,8.175-9.642,19.024-9.642,32.552s3.213,24.38,9.642,32.555
		c6.426,8.175,14.958,12.262,25.596,12.262c10.518,0,19.022-4.057,25.508-12.174s9.729-18.761,9.729-31.937
		c0-13.879-3.186-24.938-9.557-33.17C-256.142,76.219-264.701,72.1-275.452,72.1z"/>
	<path fill="#FFFFFF" d="M-120.18,158.04c0-3.515,0.059-6.267,0.176-8.26c0.115-1.991,0.176-3.748,0.176-5.272
		c0-5.388-1.285-9.284-3.852-11.688c-2.57-2.4-6.715-3.603-12.432-3.603h-30.114v50.791h-26.538V51.889h68.599
		c6.551,0,12.193,1.114,16.93,3.339c4.736,2.228,8.305,5.157,10.705,8.787c2.396,3.634,4.121,7.294,5.176,10.984
		c1.051,3.691,1.578,7.53,1.578,11.512c0,15.466-7.252,26.011-21.756,31.635c3.188,1.291,5.549,2.314,7.084,3.075
		c1.535,0.764,3.102,2.021,4.693,3.779c1.594,1.757,2.656,3.339,3.188,4.745c0.533,1.405,1.064,3.984,1.596,7.732
		c0.531,3.751,0.855,7.442,0.973,11.072c0.117,3.633,0.236,9.023,0.357,16.169c0,4.921,1.814,8.436,5.447,10.545v4.745h-28.281
		c-1.504-3.045-2.496-5.976-2.979-8.787C-119.938,168.409-120.18,164.016-120.18,158.04z M-116.313,90.201
		c0-6.56-1.508-10.924-4.523-13.093c-3.014-2.167-7.65-3.251-13.91-3.251h-31.479v33.392h31.479c6.143,0,10.75-1.112,13.822-3.339
		C-117.85,101.686-116.313,97.116-116.313,90.201z"/>
	<path fill="#FFFFFF" d="M-9.286,73.857v106.151h-26.538V73.857h-38.664V51.889H27.973v21.969H-9.286z"/>
	<path fill="#FFFFFF" d="M73.843,51.889v128.12H47.305V51.889H73.843z"/>
	<path fill="#FFFFFF" d="M128.325,124.824v33.216h69.245v21.969h-95.783V51.889h92.619v21.969h-66.081v28.998h61.16v21.969H128.325z
		"/>
</g>
<g enable-background="new    ">
	<path fill="#FFFFFF" d="M-259.497,295.517v26.787h55.842v17.717h-77.244V236.698h74.693v17.716h-53.291V277.8h49.323v17.717
		H-259.497z"/>
	<path fill="#FFFFFF" d="M-138.6,287.296l33.165,52.725h-25.228l-19.843-35.858l-19.701,35.858h-24.661l32.598-52.016
		l-31.464-51.307h25.229l18.142,34.016l18.992-34.016h24.661L-138.6,287.296z"/>
	<path fill="#FFFFFF" d="M-69.579,236.698v103.322H-90.98V236.698H-69.579z"/>
	<path fill="#FFFFFF" d="M-1.406,254.414v85.606h-21.401v-85.606h-31.181v-17.716h82.63v17.716H-1.406z"/>
</g>
</svg>
