<?xml version="1.0" encoding="UTF-8" standalone="no"?>
<svg xmlns:svg="http://www.w3.org/2000/svg" xmlns="http://www.w3.org/2000/svg"
     version="1.1" width="400px" height="400px" viewBox="0 0 200 200">
    <defs />
    <g style="fill-rule:nonzero;stroke:none">
        <rect style="fill:#ffffff;" width="200" height="200" x="0" y="0" />
        <path style="fill:#008855;" d="M 5,98.819 5,3.8189 100,3.8189 195,3.8189 195,98.819 195,193.82 100,193.82 5,193.82 5,98.819 z" />
        <g style="fill:#ffffff;">
            <path d="M 51.966,165.82 C 51.966,171.24 52.353,175.67 52.826,175.67 53.298,175.67 55.94,173.32 58.696,170.44 L 63.708,165.21 63.708,150.16 63.708,135.11 49.415,135.11 35.123,135.11 29.134,141 C 25.841,144.25 23.146,147.11 23.146,147.37 23.146,147.63 27.519,147.98 32.865,148.15 L 42.584,148.45 32.607,158.28 22.63,168.12 26.856,172.44 31.082,176.77 41.524,166.37 51.966,155.97 51.966,165.82 z" />
            <path d="M 116.54,142.95 116.82,114.03 118.03,114.06 118.13,143.44 C 118.22,146.64 123.65,146.3 125.07,143.83 126.33,142.78 125.72,140.1 125.72,118.32 125.72,101.33 125.97,92.146 125.96,91.463 125.96,91.292 127.04,91.253 127.01,91.467 L 126.94,110.32 C 127.86,113.17 133.56,112.83 133.75,110.42 133.89,108.71 133.81,109.74 133.81,100.04 133.81,89.858 134.04,88.438 131.7,85.718 129.4,83.047 128.33,82.709 121.02,82.339 110.98,81.833 106.49,82.622 103.49,85.42 101.38,87.384 100.89,88.682 100.89,99.187 100.89,104.72 100.9,110.18 100.98,110.52 101.54,113.03 107.13,112.77 107.13,110.41 L 107.16,92.207 C 107.16,92.135 108.47,92.199 108.47,92.199 L 108.83,142.93 C 109.8,147.26 116.36,145.33 116.54,142.95 z" />
            <path d="M 87.47,78.262 C 91.73,74.412 88.44,66.953 82.49,66.953 76.62,66.953 73.44,73.798 77.31,78.076 79.52,80.509 84.88,80.607 87.47,78.262 z" />
            <path d="M 122.99,77.656 C 125.17,74.544 125.09,72.264 122.69,69.305 120.28,66.335 114.2,66.136 112.14,68.96 110.26,71.525 110.42,76.324 112.45,78.351 115,80.902 120.99,80.507 122.99,77.656 z" />
            <path d="M 105.83,65.856 C 107.91,63.056 107.93,62.731 106.28,59.986 103.66,55.618 99.71,54.557 96.09,57.246 92.24,60.11 91.82,63.552 94.91,66.84 98.16,70.308 102.83,69.888 105.83,65.856 z" />
            <path d="M 82.96,142.95 82.69,114.03 81.48,114.06 81.38,143.44 C 81.29,146.64 75.86,146.3 74.44,143.83 73.18,142.78 73.79,140.1 73.79,118.32 73.79,101.33 73.61,92.282 73.61,91.599 73.61,91.429 72.16,91.39 72.19,91.603 L 72.16,110.52 C 71.23,113.37 65.95,112.83 65.76,110.42 65.62,108.71 65.7,109.74 65.7,100.04 65.7,89.858 65.47,88.438 67.8,85.718 70.1,83.047 71.17,82.709 78.49,82.34 88.53,81.833 93.02,82.622 96.02,85.42 98.13,87.385 98.61,88.682 98.61,99.187 98.61,104.72 98.6,110.18 98.53,110.52 97.97,113.03 92.38,112.77 92.37,110.41 L 92.35,92.207 C 92.35,92.135 91.04,92.199 91.04,92.199 L 90.67,142.93 C 89.7,147.26 83.15,145.33 82.96,142.95 z" />
            <path d="M 173.76,172.77 177.95,168.8 167.55,158.36 157.15,147.92 167,147.92 C 172.42,147.92 176.85,147.54 176.85,147.08 176.85,146.62 174.3,143.73 171.18,140.65 L 165.51,135.05 151.17,135.35 136.83,135.64 136.53,150.17 136.23,164.69 141.78,170.18 C 144.83,173.2 147.73,175.67 148.22,175.67 148.7,175.67 149.1,171.47 149.1,166.34 L 149.1,157.01 158.97,166.87 C 164.39,172.3 169,176.74 169.2,176.74 169.41,176.74 171.46,174.95 173.76,172.77 z" />
            <path d="M 63.708,47.813 63.708,33.1 57.88,27.344 52.051,21.588 51.742,31.568 51.433,41.548 41.646,31.757 C 36.263,26.371 31.595,21.965 31.274,21.965 30.483,21.965 23.146,29.345 23.146,30.141 23.146,30.488 27.469,35.027 32.753,40.226 38.037,45.424 42.36,49.927 42.36,50.232 42.36,50.536 37.933,50.785 32.522,50.785 L 22.685,50.785 28.483,56.656 34.281,62.527 48.994,62.527 63.708,62.527 63.708,47.813 z" />
            <path d="M 171.57,57.241 C 174.48,54.333 176.85,51.691 176.85,51.37 176.85,51.048 172.42,50.785 167,50.785 L 157.15,50.785 167.55,40.343 177.95,29.901 173.73,25.781 169.51,21.66 159.57,31.606 149.63,41.551 149.35,33.092 C 149.19,28.44 148.84,24.029 148.58,23.291 148.28,22.477 145.77,24.306 142.19,27.945 L 136.29,33.941 136.29,48.234 136.29,62.527 151.29,62.527 166.28,62.527 171.57,57.241 z" />
        </g>
    </g>
</svg>
