<?xml version="1.0" encoding="utf-8"?>
<!-- Generator: Adobe Illustrator 16.0.3, SVG Export Plug-In . SVG Version: 6.00 Build 0)  -->
<!DOCTYPE svg PUBLIC "-//W3C//DTD SVG 1.1//EN" "http://www.w3.org/Graphics/SVG/1.1/DTD/svg11.dtd">
<svg version="1.1" id="Layer_1" xmlns:svg="http://www.w3.org/2000/svg"
	 xmlns="http://www.w3.org/2000/svg" xmlns:xlink="http://www.w3.org/1999/xlink" x="0px" y="0px" width="400px" height="400px"
	 viewBox="0 0 400 400" enable-background="new 0 0 400 400" xml:space="preserve">
<rect fill="#FFFFFF" width="400" height="400"/>
<rect x="10" y="10" fill="#008855" width="380" height="380"/>
<path fill="#FFFFFF" d="M100.5,197.188C62.432,209.58,33.284,233.859,30,270v100h270V270c-3.279-36.141-32.439-60.42-70.5-72.812
	L165.124,350L100.5,197.188z"/>
<path fill="#008855" d="M92,261.38c-11.782,0-21.376,9.54-21.376,21.32c0,11.76,9.594,21.3,21.376,21.3s21.312-9.54,21.312-21.32
	c0-11.779-9.53-21.32-21.312-21.32V261.38z M92,275.7c3.866,0,7,3.12,7,7c0,3.86-3.134,7-7,7s-7-3.14-7-7
	C85,278.82,88.134,275.7,92,275.7z"/>
<path fill="#FFFFFF" d="M220,129.272c0,33.535-24.625,60.72-55,60.72s-55-27.186-55-60.72s24.625-60.72,55-60.72
	S220,95.737,220,129.272z"/>
<path fill="none" stroke="#FFFFFF" stroke-width="6" stroke-linecap="round" stroke-linejoin="round" d="M95.922,140
	C110,260,220,260,230,140"/>
<path fill="none" stroke="#008855" stroke-width="4" stroke-linecap="round" stroke-linejoin="round" d="M93.922,304
	c6.358,54.2,46.318,66.359,66.65,36.48"/>
<rect x="240" y="290" fill="#008855" width="10" height="80"/>
<path fill="#FFFFFF" d="M158,234h12v128l-12-30V234z"/>
<g>
	<path fill="#FFFFFF" d="M296.181,83c0-22.751,18.44-41.194,41.192-41.194c7.254,0,14.067,1.877,19.988,5.168
		c-8.993-8.665-21.224-13.996-34.7-13.996c-27.626,0-50.022,22.396-50.022,50.022c0,27.626,22.396,50.023,50.022,50.023
		c13.477,0,25.707-5.332,34.7-13.996c-5.921,3.291-12.734,5.168-19.988,5.168C314.621,124.194,296.181,105.751,296.181,83z"/>
</g>
</svg>
