<?xml version="1.0" encoding="utf-8"?>
<!-- Generator: Adobe Illustrator 16.0.3, SVG Export Plug-In . SVG Version: 6.00 Build 0)  -->
<!DOCTYPE svg PUBLIC "-//W3C//DTD SVG 1.1//EN" "http://www.w3.org/Graphics/SVG/1.1/DTD/svg11.dtd">
<svg version="1.1" id="Layer_1" xmlns:svg="http://www.w3.org/2000/svg"
	 xmlns="http://www.w3.org/2000/svg" xmlns:xlink="http://www.w3.org/1999/xlink" x="0px" y="0px" width="800px" height="400px"
	 viewBox="0 0 800 400" enable-background="new 0 0 800 400" xml:space="preserve">
<polygon fill="#FFFFFF" points="400,0 0,0 0,400 400,400 800,400 800,0 "/>
<rect x="10" y="10" fill="#008855" width="408.5" height="380"/>
<path fill="#FFFFFF" d="M326.7,257.061H199.86l106.781-106.78L250.08,93.721L144.02,199.78V72.939l-70,70V327.04h182.701l69.999-70
	L326.7,257.061z"/>
<path fill="#0F8558" d="M713.078,362.505v-52.061c13.354-0.163,26.762,0.461,39.791,0.299
	c-0.869-22.557-16.803-40.063-39.955-40.795c-0.189-70.653,0.164-215.026,0.164-215.026L486,54.704v124.124h33.142
	c3.556,0,4.397-0.732,5.89-2.524c10.748-12.675,22.8-27.17,33.82-40.769c4.099-4.37,5.075-7.057,13.652-6.867
	c26.41,0,79.148,0.081,79.148,0.081c11.291,0.353,13.273,2.579,17.615,9.039l24.701,41.312c7.519,16.068-14.93,27.116-23.234,11.97
	l-20.141-35.286c-0.379-0.652-0.949-0.815-1.683-0.788l-27.821,0.326c7.6,16.231,15.199,32.436,22.801,48.722
	c2.334,6.08,3.039,11.644,3.664,19.679c1.004,16.177,1.899,32.462,2.85,48.64c0.299,2.145,1.004,3.583,3.582,3.583
	c20.33-0.082,59.227-0.516,59.227-0.516c20.193,0.786,32.599,17.316,32.599,29.83l-108.897-0.244
	c-9.636-0.3-16.991-3.068-17.859-13.953l-3.312-62.89c-17.562,35.34-35.178,70.653-52.712,105.993
	c-4.369,7.682-9.555,16.26-21.986,15.988l-23.777,0.08l64.818-130.883c1.303-2.47-0.435-5.646-1.168-7.057
	c-6.514-13.815-12.675-25.976-19.217-40.28l-23.587,27.876c-4.126,4.126-5.021,4.994-11.399,4.994H486v157.619l22.148,22.256h41.313
	l-27.741-26.029c9.825-0.163,19.679-0.352,29.505-0.516c9.038-0.189,9.5,2.851,14.766,7.329
	c6.785,6.432,20.303,19.216,20.303,19.216h148.933L713.078,362.505z M410,390.001V10h380v380.001H410z M596.01,95.174
	c0,15.227-11.617,26.845-26.735,26.845c-15.119,0-26.708-11.618-26.708-26.845c0-15.2,11.589-26.817,26.708-26.817
	C584.393,68.357,596.01,79.975,596.01,95.174z"/>
</svg>
