<?xml version="1.0" encoding="UTF-8" standalone="no"?>
<!-- Created with Inkscape (http://www.inkscape.org/) -->

<svg
   width="105.82722mm"
   height="105.83333mm"
   viewBox="0 0 105.82722 105.83333"
   version="1.1"
   id="svg31341"
   inkscape:version="1.2.1 (9c6d41e410, 2022-07-14)"
   sodipodi:docname="ISO_7010_E065.svg"
   xmlns:inkscape="http://www.inkscape.org/namespaces/inkscape"
   xmlns:sodipodi="http://sodipodi.sourceforge.net/DTD/sodipodi-0.dtd"
   xmlns="http://www.w3.org/2000/svg"
   xmlns:svg="http://www.w3.org/2000/svg">
  <sodipodi:namedview
     id="namedview31343"
     pagecolor="#505050"
     bordercolor="#eeeeee"
     borderopacity="1"
     inkscape:showpageshadow="0"
     inkscape:pageopacity="0"
     inkscape:pagecheckerboard="0"
     inkscape:deskcolor="#505050"
     inkscape:document-units="mm"
     showgrid="false"
     inkscape:zoom="0.74564394"
     inkscape:cx="247.43713"
     inkscape:cy="325.89281"
     inkscape:window-width="1920"
     inkscape:window-height="1017"
     inkscape:window-x="-8"
     inkscape:window-y="-8"
     inkscape:window-maximized="1"
     inkscape:current-layer="layer1" />
  <defs
     id="defs31338" />
  <g
     inkscape:label="Ebene 1"
     inkscape:groupmode="layer"
     id="layer1"
     transform="translate(-22.312193,-62.405915)">
    <g
       id="g3294"
       inkscape:label="1"
       transform="matrix(0.35277777,0,0,0.35277777,-38.168755,42.10819)">
      <path
         style="fill:#ffffff;fill-opacity:1;fill-rule:nonzero;stroke:none;stroke-width:4.42652"
         d="m 171.44206,357.53686 h 299.9827 V 57.536859 h -299.9827 z m 0,0"
         id="path503"
         inkscape:label="1" />
      <path
         style="fill:#237f52;fill-opacity:1;fill-rule:evenodd;stroke:none;stroke-width:4.42652"
         d="M 179.93198,349.04692 H 462.93482 V 66.026777 H 179.93198 Z m 0,0"
         id="path509"
         inkscape:label="1" />
    </g>
    <path
       id="path4057-3"
       style="display:inline;fill:#ffffff;stroke-width:0.129035"
       d="m 81.246062,77.361592 c -3.08235,0 -5.444628,2.368481 -5.444628,5.467366 0,3.104409 2.362278,5.47305 5.444628,5.47305 3.082342,0 5.450829,-2.368641 5.450829,-5.47305 0,-3.098885 -2.368487,-5.467366 -5.450829,-5.467366 z m 0.658876,12.295372 c -1.748681,-0.03873 -1.948745,0.508988 -2.784327,1.399914 -2.246708,2.772392 -4.703304,5.727393 -6.894671,8.311638 -0.304384,0.365221 -0.476123,0.521018 -1.200958,0.514696 -2.395026,0.04106 -5.26294,0.08711 -8.022251,0.06253 -1.453575,0 -2.623097,1.170528 -2.623097,2.624128 0,1.45359 1.169522,2.6231 2.623097,2.6231 0,0 10.054159,-0.0116 10.080522,-0.0129 0.741084,-0.0132 1.017782,-0.20909 1.810226,-1.00148 l 4.808492,-5.68338 c 1.333613,2.91626 2.590003,5.39575 3.918105,8.21242 0.149363,0.28775 0.503255,0.9346 0.237712,1.43815 l -13.214699,26.68365 4.848285,-0.016 c 2.534412,0.0553 3.591031,-1.69371 4.481897,-3.25975 3.574821,-7.20489 7.166374,-14.40412 10.74663,-21.60902 l 0.674896,12.82144 c 0.177028,2.21902 1.677197,2.78342 3.641637,2.84427 l 22.200706,0.0496 c 0,-2.55104 -2.52909,-5.92081 -6.6461,-6.08128 0,0 -7.92997,0.0888 -12.074715,0.10542 -0.525755,0 -0.668757,-0.29354 -0.729671,-0.73071 -0.193643,-3.29809 -0.376611,-6.61809 -0.58136,-9.91619 -0.127303,-1.63797 -0.270866,-2.77259 -0.746725,-4.01215 -1.549417,-3.32023 -3.099389,-6.624081 -4.64881,-9.933246 l 5.672518,-0.06615 c 0.149419,-0.0052 0.265737,0.02741 0.343137,0.160196 l 4.105686,7.19387 c 1.69334,3.08782 6.26953,0.83581 4.73666,-2.440154 l -5.03535,-8.422753 c -0.88537,-1.317025 -1.28952,-1.77032 -3.591509,-1.842265 0,0 -10.751679,-0.01704 -16.135963,-0.01704 z M 66.991635,120.76463 A 33.777497,16.259353 0 0 0 33.21437,137.0241 33.777497,16.259353 0 0 0 66.991635,153.28357 33.777497,16.259353 0 0 0 100.76942,137.0241 33.777497,16.259353 0 0 0 85.702121,123.49056 c -1.326977,2.66861 -2.657196,5.33629 -3.981669,8.00571 -1.258287,2.21192 -2.751204,4.68253 -6.330879,4.60437 l -6.847127,0.0227 7.323067,-14.7867 a 33.777497,16.259353 0 0 0 -8.873878,-0.57206 z"
       inkscape:label="2" />
  </g>
</svg>
