<?xml version="1.0" encoding="UTF-8" standalone="no"?>
<svg
   height="400"
   width="400"
   viewBox="0 0 200 200"
   version="1.1"
   id="svg4245"
   sodipodi:docname="E023.svg"
   xml:space="preserve"
   inkscape:version="1.2.1 (9c6d41e410, 2022-07-14)"
   xmlns:inkscape="http://www.inkscape.org/namespaces/inkscape"
   xmlns:sodipodi="http://sodipodi.sourceforge.net/DTD/sodipodi-0.dtd"
   xmlns="http://www.w3.org/2000/svg"
   xmlns:svg="http://www.w3.org/2000/svg"><defs
     id="defs4249" /><sodipodi:namedview
     id="namedview4247"
     pagecolor="#ffffff"
     bordercolor="#666666"
     borderopacity="1.0"
     inkscape:showpageshadow="2"
     inkscape:pageopacity="0.0"
     inkscape:pagecheckerboard="0"
     inkscape:deskcolor="#d1d1d1"
     showgrid="false"
     inkscape:zoom="0.36990524"
     inkscape:cx="-108.1358"
     inkscape:cy="267.63611"
     inkscape:window-width="1920"
     inkscape:window-height="1017"
     inkscape:window-x="-8"
     inkscape:window-y="-8"
     inkscape:window-maximized="1"
     inkscape:current-layer="svg4245" /><rect
     style="fill:#ffffff;fill-rule:nonzero;stroke:none"
     y="0"
     x="-200"
     height="200"
     width="200"
     id="rect4235"
     transform="scale(-1,1)" /><rect
     style="fill:#237f52;fill-opacity:1;fill-rule:nonzero;stroke:none"
     y="5"
     x="-195"
     height="190"
     width="190"
     id="rect4237"
     transform="scale(-1,1)" /><path
     id="path7508"
     style="fill:#ffffff;fill-opacity:1;stroke:none;stroke-width:0.5px;stroke-linecap:butt;stroke-linejoin:miter;stroke-opacity:1"
     d="m 43.9668,22.700195 107.76562,0.239258 V 163.20215 l 16.24805,10.99121 H 60.21484 L 43.9668,163.44043 Z m 79.56933,5.496094 -74.3125,0.477539 V 161.05176 l 1.91114,0.71679 72.40136,-21.98339 z" /><path
     style="fill:#ffffff;fill-opacity:1;stroke:none;stroke-width:0.5px;stroke-linecap:butt;stroke-linejoin:miter;stroke-opacity:1"
     d="m 118.99642,79.450415 -17.62247,-13.97849 v 12.96296 c 0,0 -9.6991,7.406093 -23.11121,7.989275 -14.97935,0.651328 -22.64093,-1.351695 -22.64093,-1.351695 v 31.680405 c 0,0 7.81804,2.17576 24.49951,-1.01377 12.80241,-2.44784 21.4582,-9.54636 21.4582,-9.54636 v 15.03763 z"
     id="path7516"
     sodipodi:nodetypes="cccsccsccc" /></svg>
