<?xml version="1.0" encoding="UTF-8" standalone="no"?>
<!-- Created with Inkscape (http://www.inkscape.org/) -->

<svg
   width="297mm"
   height="420mm"
   viewBox="0 0 297 420"
   version="1.1"
   id="svg8"
   inkscape:version="1.1.2 (0a00cf5339, 2022-02-04)"
   sodipodi:docname="ANC_en.svg"
   inkscape:export-filename="/home/housemeista/Dropbox/Fla/Stencilkram Inkscape/Fertsch/HoA/Baustellenschild/ANC.jpg.png"
   inkscape:export-xdpi="85.519997"
   inkscape:export-ydpi="85.519997"
   xmlns:inkscape="http://www.inkscape.org/namespaces/inkscape"
   xmlns:sodipodi="http://sodipodi.sourceforge.net/DTD/sodipodi-0.dtd"
   xmlns="http://www.w3.org/2000/svg"
   xmlns:svg="http://www.w3.org/2000/svg"
   xmlns:rdf="http://www.w3.org/1999/02/22-rdf-syntax-ns#"
   xmlns:cc="http://creativecommons.org/ns#"
   xmlns:dc="http://purl.org/dc/elements/1.1/">
  <defs
     id="defs2" />
  <sodipodi:namedview
     id="base"
     pagecolor="#ffffff"
     bordercolor="#666666"
     borderopacity="1.0"
     inkscape:pageopacity="0.0"
     inkscape:pageshadow="2"
     inkscape:zoom="0.35355339"
     inkscape:cx="309.71277"
     inkscape:cy="910.75354"
     inkscape:document-units="mm"
     inkscape:current-layer="layer1"
     showgrid="false"
     showguides="true"
     inkscape:guide-bbox="true"
     inkscape:window-width="1920"
     inkscape:window-height="1176"
     inkscape:window-x="1920"
     inkscape:window-y="0"
     inkscape:window-maximized="1"
     inkscape:pagecheckerboard="0">
    <sodipodi:guide
       position="148,450.54762"
       orientation="1,0"
       id="guide917"
       inkscape:locked="false"
       inkscape:label=""
       inkscape:color="rgb(0,0,255)" />
    <sodipodi:guide
       position="285.75,178.32917"
       orientation="0,1"
       id="guide980"
       inkscape:locked="false" />
    <sodipodi:guide
       position="178.40477,399.14285"
       orientation="0,1"
       id="guide984"
       inkscape:locked="false" />
    <sodipodi:guide
       position="198.81548,46.113094"
       orientation="0,1"
       id="guide986"
       inkscape:locked="false" />
    <sodipodi:guide
       position="357.71668,158.329"
       orientation="0,1"
       id="guide3034"
       inkscape:locked="false"
       inkscape:label=""
       inkscape:color="rgb(0,0,255)" />
  </sodipodi:namedview>
  <metadata
     id="metadata5">
    <rdf:RDF>
      <cc:Work
         rdf:about="">
        <dc:format>image/svg+xml</dc:format>
        <dc:type
           rdf:resource="http://purl.org/dc/dcmitype/StillImage" />
      </cc:Work>
    </rdf:RDF>
  </metadata>
  <g
     inkscape:label="Ebene 1"
     inkscape:groupmode="layer"
     id="layer1"
     transform="translate(0,123)">
    <path
       style="display:inline;fill:#f6bd16;fill-opacity:1;stroke:none;stroke-width:0.38262692px;stroke-linecap:butt;stroke-linejoin:miter;stroke-opacity:1"
       d="m 148.32128,-84.134914 c -2.3632,-0.047 -4.75935,1.0088 -5.70005,2.89018 L 32.68343,109.45239 c -1.79637,2.69456 0.64155,9.54687 4.54223,9.23892 l 221.33864,0.0766 c 3.72104,0.48759 7.0572,-5.33767 5.15818,-8.46849 L 153.47637,-81.244734 c -1.01044,-1.94874 -3.06993,-2.84873 -5.15509,-2.89018 z"
       id="path4316-3"
       inkscape:connector-curvature="0"
       sodipodi:nodetypes="sccccccs" />
    <text
       xml:space="preserve"
       style="font-style:normal;font-variant:normal;font-weight:bold;font-stretch:normal;font-size:4.23333px;line-height:125%;font-family:DINPro;-inkscape-font-specification:'DINPro Bold';font-variant-ligatures:normal;font-variant-caps:normal;font-variant-numeric:normal;font-feature-settings:normal;text-align:start;letter-spacing:0px;word-spacing:0px;writing-mode:lr-tb;text-anchor:start;fill:#000000;fill-opacity:1;stroke:none;stroke-width:0.264583"
       x="146.33704"
       y="169.54645"
       id="text1677"><tspan
         sodipodi:role="line"
         x="146.33704"
         y="169.54645"
         style="font-style:normal;font-variant:normal;font-weight:bold;font-stretch:normal;font-size:42.3333px;line-height:100%;font-family:DINPro;-inkscape-font-specification:'DINPro, Bold';font-variant-ligatures:normal;font-variant-caps:normal;font-variant-numeric:normal;font-feature-settings:normal;text-align:center;writing-mode:lr-tb;text-anchor:middle;stroke-width:0.264583"
         id="tspan1533">Active</tspan><tspan
         sodipodi:role="line"
         x="146.33704"
         y="211.87975"
         style="font-style:normal;font-variant:normal;font-weight:bold;font-stretch:normal;font-size:42.3333px;line-height:100%;font-family:DINPro;-inkscape-font-specification:'DINPro, Bold';font-variant-ligatures:normal;font-variant-caps:normal;font-variant-numeric:normal;font-feature-settings:normal;text-align:center;writing-mode:lr-tb;text-anchor:middle;stroke-width:0.264583"
         id="tspan8401">Noise</tspan><tspan
         sodipodi:role="line"
         x="146.33704"
         y="254.21304"
         style="font-style:normal;font-variant:normal;font-weight:bold;font-stretch:normal;font-size:42.3333px;line-height:100%;font-family:DINPro;-inkscape-font-specification:'DINPro, Bold';font-variant-ligatures:normal;font-variant-caps:normal;font-variant-numeric:normal;font-feature-settings:normal;text-align:center;writing-mode:lr-tb;text-anchor:middle;stroke-width:0.264583"
         id="tspan8403">Cancelling</tspan></text>
    <text
       xml:space="preserve"
       style="font-style:normal;font-variant:normal;font-weight:bold;font-stretch:normal;font-size:4.23333px;line-height:240px;font-family:DINPro;-inkscape-font-specification:'DINPro Bold';font-variant-ligatures:normal;font-variant-caps:normal;font-variant-numeric:normal;font-feature-settings:normal;text-align:start;letter-spacing:0px;word-spacing:0px;writing-mode:lr-tb;text-anchor:start;fill:#000000;fill-opacity:1;stroke:none;stroke-width:0.264583"
       x="77.863091"
       y="250.8869"
       id="text1685"><tspan
         sodipodi:role="line"
         id="tspan1683"
         x="77.863091"
         y="250.8869"
         style="stroke-width:0.264583">a</tspan></text>
    <path
       style="display:inline;fill:#000000;fill-opacity:1;stroke:none;stroke-width:0.36192638px;stroke-linecap:butt;stroke-linejoin:miter;stroke-opacity:1"
       d="m 148.30389,-76.505465 c -2.23533,-0.0444 -4.50186,0.95422 -5.39165,2.73381 L 38.92219,106.60856 c -1.69919,2.54877 0.60683,9.03037 4.29649,8.73908 l 209.36396,0.0725 c 3.51974,0.46121 6.67541,-5.0489 4.87913,-8.01034 L 153.1801,-73.771655 c -0.95579,-1.84331 -2.90386,-2.69461 -4.87621,-2.73381 z M 148,-56.274785 239.36648,102.28107 56.50963,102.61243 Z"
       id="path4316"
       inkscape:connector-curvature="0" />
    <path
       style="fill:#000000;stroke:#000000;stroke-width:0.32920912;stroke-opacity:1"
       d="m 153.86853,95.427236 c 4.52003,-0.786805 7.64423,-2.452614 11.2392,-5.994896 4.46737,-4.401531 7.31502,-8.780014 9.78738,-15.061325 l 1.03701,-2.633677 4.58589,-0.194228 c 5.75457,-0.243613 8.21047,-1.139066 10.90669,-3.966972 1.68884,-1.774432 2.23205,-3.499492 4.38837,-13.938715 2.23532,-10.824397 2.28799,-11.693509 0.87569,-14.778198 -1.47157,-3.213082 -4.54638,-5.843463 -8.50018,-7.275522 l -2.09707,-0.760474 -0.0922,-4.984227 c -0.0888,-4.951309 -0.0954,-4.990814 -0.89544,-5.293678 -0.49382,-0.187659 -0.88228,-0.66172 -1.00408,-1.221373 -0.71769,-3.318428 -2.00818,-7.218236 -3.13408,-9.477928 -3.32501,-6.6724172 -9.22115,-11.516725 -16.76663,-13.7806968 -5.02701,-1.5081118 -6.83438,-1.6921371 -16.62505,-1.6921371 -9.76764,0 -11.87787,0.2327504 -16.95428,1.8708992 -9.85981,3.18081357 -16.18819,10.3016104 -18.77216,21.1210687 -0.67653,2.831203 -0.80031,3.055057 -1.8034,3.232836 -0.61628,0.111983 -0.66896,0.444436 -0.82303,5.188335 l -0.1646,5.06653 -2.22974,0.902033 c -4.98949,2.021345 -8.406685,5.919181 -9.003542,10.274618 -0.272255,1.985131 3.513652,20.730305 4.681022,23.176324 1.33034,2.7884 4.18458,4.93484 7.86909,5.919182 0.90532,0.243613 3.29439,0.441138 5.31015,0.444436 2.5382,0.0037 3.75957,0.128382 3.97685,0.414797 0.17118,0.227151 0.65183,1.376096 1.06334,2.55137 1.77443,5.069816 5.1225,10.31083 9.27053,14.521418 3.70689,3.756281 7.38746,5.728239 12.14781,6.505177 2.92338,0.477346 8.57591,0.411512 11.72644,-0.134977 z"
       id="path830"
       inkscape:connector-curvature="0" />
    <path
       style="fill:#f6bd16;stroke:#000000;stroke-width:0.32920912;stroke-opacity:1;fill-opacity:1"
       d="m 143.62353,92.10551 c -3.54887,-0.697915 -4.52991,-0.98433 -6.16937,-1.81064 -2.24521,-1.129198 -5.88956,-4.477256 -8.16439,-7.49939 -3.12091,-4.141453 -5.65252,-9.807143 -6.7455,-15.110706 -0.28311,-1.362919 -0.71767,-2.860828 -0.96786,-3.328307 -0.47407,-0.885561 -2.14974,-7.489502 -2.14974,-8.473837 0,-0.309458 0.32262,-0.908618 0.71767,-1.326713 l 0.71768,-0.767057 -0.57612,-3.058353 c -0.67817,-3.611426 -0.81973,-3.887961 -2.24191,-4.362022 -0.92179,-0.309457 -1.15223,-0.605745 -1.53412,-1.981839 -0.64524,-2.337385 -0.86581,-9.896026 -0.37859,-12.924751 1.06664,-6.613813 4.60894,-13.313218 9.42196,-17.813501 4.08549,-3.8244316 8.89853,-6.5124207 14.28439,-7.9787255 2.38676,-0.6501854 3.57192,-0.7607997 8.06563,-0.7545411 4.47066,0.00622 5.6591,0.1194485 7.86152,0.7515798 11.79884,3.3852571 20.13442,11.7774608 23.11048,23.2767388 1.18185,4.562838 1.21806,10.544568 0.0856,14.646514 -0.77035,2.798277 -0.77035,2.798277 -1.86662,2.798277 -0.64525,0 -1.26087,0.227155 -1.49791,0.549781 -0.22056,0.302871 -0.67487,1.998298 -1.00737,3.769444 l -0.60904,3.219665 1.05018,0.875696 1.05347,0.878989 -1.19503,4.569423 c -0.65842,2.515161 -1.47815,5.830292 -1.82382,7.370991 -1.68555,7.525727 -4.5332,13.007056 -9.42855,18.146004 -3.78261,3.973569 -6.45579,5.48463 -10.95937,6.199019 -2.04769,0.32592 -7.67057,0.411512 -9.05325,0.138261 z"
       id="path828"
       inkscape:connector-curvature="0" />
    <path
       style="fill:#f6bd16;stroke:#000000;stroke-width:0.32920912;stroke-opacity:1;fill-opacity:1"
       d="m 115.48932,20.005417 c -0.0264,-1.30367 1.65922,-6.4953 2.87071,-8.83038 0.82631,-1.59733 2.07401,-3.19596 4.01306,-5.14883 2.35384,-2.36668 3.32831,-3.08337 5.94223,-4.36366 5.38585,-2.63796005 6.96606,-2.91219 17.77729,-3.08634 12.22682,-0.19687 15.79546,0.34929 21.5632,3.30032 3.48961,1.78464 7.7364,5.96066 9.4483,9.28633 1.62629,3.1637 3.36452,9.05655 2.66659,9.04996 -0.14485,0 -0.9185,-1.06335 -1.71847,-2.36042 -10.6993,-17.33978005 -34.18179,-22.01752 -50.98791,-10.15677 -3.23284,2.28307 -6.9529,6.10419 -8.93474,9.17242 -0.89215,1.38926 -1.85015,2.82133 -2.12339,3.18346 -0.49711,0.65512 -0.50041,0.65512 -0.51687,-0.046 z"
       id="path5"
       inkscape:connector-curvature="0" />
    <text
       xml:space="preserve"
       style="font-style:normal;font-variant:normal;font-weight:normal;font-stretch:normal;font-size:4.23333px;line-height:240px;font-family:Frutiger;-inkscape-font-specification:Frutiger;font-variant-ligatures:normal;font-variant-caps:normal;font-variant-numeric:normal;font-feature-settings:normal;text-align:start;letter-spacing:0px;word-spacing:0px;writing-mode:lr-tb;text-anchor:start;fill:#000000;fill-opacity:1;stroke:none;stroke-width:0.264583"
       x="219.86874"
       y="-57.012505"
       id="text1563" />
    <text
       xml:space="preserve"
       style="font-style:normal;font-variant:normal;font-weight:normal;font-stretch:normal;font-size:4.23333px;line-height:240px;font-family:Frutiger;-inkscape-font-specification:Frutiger;font-variant-ligatures:normal;font-variant-caps:normal;font-variant-numeric:normal;font-feature-settings:normal;text-align:start;letter-spacing:0px;word-spacing:0px;writing-mode:lr-tb;text-anchor:start;fill:#000000;fill-opacity:1;stroke:none;stroke-width:0.264583"
       x="124.08958"
       y="78.71875"
       id="text1567"><tspan
         sodipodi:role="line"
         id="tspan1565"
         x="124.08958"
         y="78.71875"
         style="font-style:normal;font-variant:normal;font-weight:bold;font-stretch:normal;font-size:84.6667px;font-family:DINPro;-inkscape-font-specification:'DINPro Bold';stroke-width:0.264583">?</tspan></text>
  </g>
</svg>
