<?xml version="1.0" encoding="UTF-8" standalone="no"?>
<!-- Created with Inkscape (http://www.inkscape.org/) -->

<svg
   width="297mm"
   height="420mm"
   viewBox="0 0 297 420"
   version="1.1"
   id="svg8"
   inkscape:version="1.1.2 (0a00cf5339, 2022-02-04)"
   sodipodi:docname="Kadse_en.svg"
   xmlns:inkscape="http://www.inkscape.org/namespaces/inkscape"
   xmlns:sodipodi="http://sodipodi.sourceforge.net/DTD/sodipodi-0.dtd"
   xmlns="http://www.w3.org/2000/svg"
   xmlns:svg="http://www.w3.org/2000/svg"
   xmlns:rdf="http://www.w3.org/1999/02/22-rdf-syntax-ns#"
   xmlns:cc="http://creativecommons.org/ns#"
   xmlns:dc="http://purl.org/dc/elements/1.1/">
  <defs
     id="defs2" />
  <sodipodi:namedview
     id="base"
     pagecolor="#ffffff"
     bordercolor="#666666"
     borderopacity="1.0"
     inkscape:pageopacity="0.0"
     inkscape:pageshadow="2"
     inkscape:zoom="0.49497475"
     inkscape:cx="390.92903"
     inkscape:cy="709.12709"
     inkscape:document-units="mm"
     inkscape:current-layer="layer1"
     showgrid="false"
     showguides="true"
     inkscape:guide-bbox="true"
     inkscape:window-width="1920"
     inkscape:window-height="1176"
     inkscape:window-x="1920"
     inkscape:window-y="0"
     inkscape:window-maximized="1"
     inkscape:pagecheckerboard="0">
    <sodipodi:guide
       position="148,450.54762"
       orientation="1,0"
       id="guide917"
       inkscape:locked="false"
       inkscape:label=""
       inkscape:color="rgb(0,0,255)" />
    <sodipodi:guide
       position="220.7381,164.79762"
       orientation="0,1"
       id="guide980"
       inkscape:locked="false" />
    <sodipodi:guide
       position="178.40477,399.14285"
       orientation="0,1"
       id="guide984"
       inkscape:locked="false" />
    <sodipodi:guide
       position="198.81548,46.113094"
       orientation="0,1"
       id="guide986"
       inkscape:locked="false" />
  </sodipodi:namedview>
  <metadata
     id="metadata5">
    <rdf:RDF>
      <cc:Work
         rdf:about="">
        <dc:format>image/svg+xml</dc:format>
        <dc:type
           rdf:resource="http://purl.org/dc/dcmitype/StillImage" />
      </cc:Work>
    </rdf:RDF>
  </metadata>
  <g
     inkscape:label="Ebene 1"
     inkscape:groupmode="layer"
     id="layer1"
     transform="translate(0,123)">
    <g
       id="g1673"
       transform="translate(20.271779,-48.305363)">
      <path
         id="path834"
         d="m 237.54674,56.521004 c 0,-30.326441 -10.72633,-56.2245059 -32.1591,-77.658701 -21.43419,-21.434195 -47.33225,-32.1591 -77.66013,-32.1591 -30.32644,0 -56.22451,10.724905 -77.6587,32.1591 -21.4342,21.4341951 -32.1591,47.33226 -32.1591,77.658701 0,30.327876 10.7249,56.225936 32.1591,77.660136 21.43419,21.43278 47.33226,32.15908 77.6587,32.15908 30.32788,0 56.22594,-10.7263 77.66013,-32.15908 21.43277,-21.4342 32.1591,-47.33226 32.1591,-77.660136"
         style="fill:#0075f8;fill-opacity:1;fill-rule:nonzero;stroke:none;stroke-width:0.36312315"
         inkscape:connector-curvature="0" />
      <path
         id="path836"
         d="m 205.38765,-21.137708 c -21.4342,-21.434194 -47.33226,-32.159099 -77.66013,-32.159099 -30.32645,0 -56.22451,10.724905 -77.65871,32.159099 -21.4342,21.4341981 -32.1591,47.33226 -32.1591,77.658712 0,30.327876 10.7249,56.225936 32.1591,77.660126 21.4342,21.43279 47.33226,32.15909 77.65871,32.15909 30.32787,0 56.22593,-10.7263 77.66013,-32.15909 21.43277,-21.43419 32.15909,-47.33225 32.15909,-77.660126 0,-30.326452 -10.72632,-56.2245139 -32.15909,-77.658712 z m 0,0"
         style="fill:none;stroke:#475c7f;stroke-width:0.36297789;stroke-linecap:round;stroke-linejoin:round;stroke-miterlimit:10;stroke-opacity:1"
         inkscape:connector-curvature="0" />
      <path
         id="path838"
         d="m 189.85136,-6.0553199 c 0.27233,-4.1929371 -1.83263,-6.2808931 -6.35181,-6.2979171 -15.33629,3.4666901 -28.40305,9.6908461 -39.16481,18.6568671 -5.26388,-1.597168 -10.79867,-2.486539 -16.60723,-2.686543 -5.80713,0.163127 -11.34191,1.035463 -16.58735,2.614205 -10.72631,-9.019923 -23.75761,-15.299399 -39.05701,-18.8384331 -4.51918,-0.01844 -6.6426,2.068099 -6.38727,6.2610391 2.10496,14.610027 6.13337,29.0924139 12.10504,43.4485439 -6.22558,13.502222 -6.87948,28.512262 -1.94328,45.008818 6.47948,16.78736 15.31926,30.85271 26.55197,42.21449 2.57732,2.50497 4.06669,5.0809 4.46527,7.73198 1.72343,1.14327 2.74045,0.43545 3.0667,-2.10641 -0.0908,-1.97732 -1.16171,-3.88372 -3.19435,-5.71634 C 92.9372,108.35544 84.62508,96.41349 81.82932,88.42762 74.22501,69.207635 73.78955,52.946533 80.52293,39.642884 89.45207,18.681034 105.18694,7.9192471 127.74596,7.3376901 c 22.52356,0.689359 38.22155,11.5433339 47.05991,32.5406519 6.66103,13.340522 6.15322,29.601621 -1.54186,48.803178 -2.84966,7.96744 -11.2171,19.87249 -25.10088,35.69813 -2.04967,1.83406 -3.1206,3.73904 -3.22981,5.71778 0.30779,2.54043 1.32482,3.24824 3.06668,2.10496 0.41703,-2.64965 1.92483,-5.20854 4.51918,-7.69508 11.27101,-11.30645 20.20014,-25.35337 26.75196,-42.12369 5.00855,-16.498006 4.4284,-31.506618 -1.72483,-45.045717 6.02557,-14.31925 10.12773,-28.7831879 12.30505,-43.3932229 z m -5.53479,-3.231229 c 1.37874,0.363119 2.17732,1.234051 2.37732,2.631226 C 185.00594,6.4667561 181.413,19.444155 175.91368,32.310912 169.8342,20.641329 160.66818,12.347655 148.41703,7.4468911 c 10.89085,-8.983032 22.8498,-14.573144 35.89954,-16.73344 z m -115.44479,2.340441 c 0.19859,-1.378734 0.99717,-2.249663 2.37733,-2.594346 13.01285,2.232642 24.95478,7.858212 35.80734,16.878144 C 94.76983,12.183102 85.56835,20.422889 79.452,32.074033 74.02501,19.188838 70.48598,6.1759651 68.87178,-6.9461079"
         style="fill:#ffffff;fill-opacity:1;fill-rule:nonzero;stroke:none;stroke-width:0.36312315"
         inkscape:connector-curvature="0" />
      <path
         id="path840"
         d="m 183.49955,-12.353245 c -15.33629,3.4666901 -28.40304,9.6908471 -39.16481,18.6568751 -5.26387,-1.597179 -10.79867,-2.486549 -16.60722,-2.686553 -5.80713,0.163126 -11.34192,1.035473 -16.58735,2.614205 -10.72632,-9.019924 -23.75762,-15.299396 -39.05702,-18.8384311 -4.51918,-0.01844 -6.6426,2.068099 -6.38727,6.2610361 2.10496,14.610038 6.13337,29.0924169 12.10505,43.4485359 -6.22559,13.50223 -6.87949,28.512271 -1.94329,45.008837 6.47948,16.78735 15.31927,30.85271 26.55197,42.21449 2.57733,2.50497 4.0667,5.0809 4.46529,7.73198 1.72341,1.14327 2.74044,0.43545 3.06668,-2.10641 -0.0908,-1.97732 -1.16171,-3.88373 -3.19435,-5.71636 C 92.9372,108.35542 84.62509,96.41349 81.82933,88.42761 74.22501,69.207624 73.78955,52.946512 80.52293,39.642884 89.45207,18.68102 105.18694,7.9192471 127.74596,7.3376791 c 22.52356,0.68937 38.22155,11.5433449 47.05991,32.5406549 6.66103,13.340508 6.15322,29.601629 -1.54186,48.803176 -2.84966,7.96744 -11.2171,19.8725 -25.10087,35.69814 -2.04967,1.83404 -3.12061,3.73904 -3.22982,5.71776 0.30779,2.54045 1.32482,3.24826 3.06668,2.10498 0.41703,-2.64965 1.92484,-5.20855 4.51918,-7.69509 11.27101,-11.30645 20.20014,-25.35336 26.75197,-42.1237 5.00854,-16.497986 4.4284,-31.506598 -1.72484,-45.045708 6.02557,-14.31925 10.12774,-28.7831769 12.30505,-43.3932199 0.27234,-4.1929371 -1.83263,-6.2808931 -6.35181,-6.2979171 z m 0,0"
         style="fill:none;stroke:#ffffff;stroke-width:0.36297789;stroke-linecap:round;stroke-linejoin:round;stroke-miterlimit:10;stroke-opacity:1"
         inkscape:connector-curvature="0" />
      <path
         id="path842"
         d="m 71.24911,-9.5404619 c 13.01285,2.232642 24.95478,7.858212 35.80734,16.878141 C 94.76984,12.183102 85.56835,20.422878 79.452,32.074022 74.02501,19.188827 70.48598,6.1759551 68.87178,-6.9461139 c 0.19859,-1.378736 0.99718,-2.249665 2.37733,-2.594348 z m 0,0"
         style="fill:none;stroke:#ffffff;stroke-width:0.36297789;stroke-linecap:round;stroke-linejoin:round;stroke-miterlimit:10;stroke-opacity:1"
         inkscape:connector-curvature="0" />
      <path
         id="path844"
         d="m 184.31657,-9.2865599 c -13.04974,2.160299 -25.00869,7.750411 -35.89954,16.733451 12.25115,4.9007529 21.41717,13.1944269 27.49665,24.8640129 5.49933,-12.866749 9.09226,-25.8441479 10.78021,-38.9662349 -0.2,-1.397175 -0.99858,-2.268104 -2.37732,-2.631229 z m 0,0"
         style="fill:none;stroke:#ffffff;stroke-width:0.36297789;stroke-linecap:round;stroke-linejoin:round;stroke-miterlimit:10;stroke-opacity:1"
         inkscape:connector-curvature="0" />
    </g>
    <text
       xml:space="preserve"
       style="font-style:normal;font-variant:normal;font-weight:bold;font-stretch:normal;font-size:4.23333px;line-height:125%;font-family:DINPro;-inkscape-font-specification:'DINPro Bold';font-variant-ligatures:normal;font-variant-caps:normal;font-variant-numeric:normal;font-feature-settings:normal;text-align:start;letter-spacing:0px;word-spacing:0px;writing-mode:lr-tb;text-anchor:start;fill:#000000;fill-opacity:1;stroke:none;stroke-width:0.264583"
       x="146.33704"
       y="163.19646"
       id="text1677"><tspan
         sodipodi:role="line"
         x="146.33704"
         y="163.19646"
         style="font-size:42.3333px;line-height:100%;text-align:center;text-anchor:middle;stroke-width:0.264583"
         id="tspan1681">Cat ears</tspan><tspan
         sodipodi:role="line"
         x="146.33704"
         y="205.52975"
         style="font-size:42.3333px;line-height:100%;text-align:center;text-anchor:middle;stroke-width:0.264583"
         id="tspan45862">to be worn</tspan><tspan
         sodipodi:role="line"
         x="146.33704"
         y="247.86307"
         style="font-size:42.3333px;line-height:100%;text-align:center;text-anchor:middle;stroke-width:0.264583"
         id="tspan45864">as required</tspan></text>
    <text
       xml:space="preserve"
       style="font-style:normal;font-variant:normal;font-weight:bold;font-stretch:normal;font-size:4.23333px;line-height:240px;font-family:DINPro;-inkscape-font-specification:'DINPro Bold';font-variant-ligatures:normal;font-variant-caps:normal;font-variant-numeric:normal;font-feature-settings:normal;text-align:start;letter-spacing:0px;word-spacing:0px;writing-mode:lr-tb;text-anchor:start;fill:#000000;fill-opacity:1;stroke:none;stroke-width:0.264583"
       x="77.863091"
       y="250.8869"
       id="text1685"><tspan
         sodipodi:role="line"
         id="tspan1683"
         x="77.863091"
         y="250.8869"
         style="stroke-width:0.264583">a</tspan></text>
  </g>
</svg>
