<?xml version="1.0" encoding="UTF-8" standalone="no"?>
<!-- Created with Inkscape (http://www.inkscape.org/) -->

<svg
   width="297mm"
   height="420mm"
   viewBox="0 0 297 420"
   version="1.1"
   id="svg8"
   inkscape:version="1.1.2 (0a00cf5339, 2022-02-04)"
   sodipodi:docname="lokalzeit.svg"
   inkscape:export-filename="/home/housemeista/Dropbox/Fla/Stencilkram Inkscape/Fertsch/HoA/Baustellenschild/lokalzeit.png"
   inkscape:export-xdpi="85.519997"
   inkscape:export-ydpi="85.519997"
   xmlns:inkscape="http://www.inkscape.org/namespaces/inkscape"
   xmlns:sodipodi="http://sodipodi.sourceforge.net/DTD/sodipodi-0.dtd"
   xmlns="http://www.w3.org/2000/svg"
   xmlns:svg="http://www.w3.org/2000/svg"
   xmlns:rdf="http://www.w3.org/1999/02/22-rdf-syntax-ns#"
   xmlns:cc="http://creativecommons.org/ns#"
   xmlns:dc="http://purl.org/dc/elements/1.1/">
  <defs
     id="defs2" />
  <sodipodi:namedview
     id="base"
     pagecolor="#ffffff"
     bordercolor="#666666"
     borderopacity="1.0"
     inkscape:pageopacity="0.0"
     inkscape:pageshadow="2"
     inkscape:zoom="0.65648762"
     inkscape:cx="400.61685"
     inkscape:cy="962.69904"
     inkscape:document-units="mm"
     inkscape:current-layer="layer1"
     showgrid="false"
     showguides="true"
     inkscape:guide-bbox="true"
     inkscape:window-width="1920"
     inkscape:window-height="1176"
     inkscape:window-x="1920"
     inkscape:window-y="0"
     inkscape:window-maximized="1"
     inkscape:pagecheckerboard="0">
    <sodipodi:guide
       position="148,450.54762"
       orientation="1,0"
       id="guide917"
       inkscape:locked="false"
       inkscape:label=""
       inkscape:color="rgb(0,0,255)" />
    <sodipodi:guide
       position="285.75,178.32917"
       orientation="0,1"
       id="guide980"
       inkscape:locked="false" />
    <sodipodi:guide
       position="178.40477,399.14285"
       orientation="0,1"
       id="guide984"
       inkscape:locked="false" />
    <sodipodi:guide
       position="198.81548,46.113094"
       orientation="0,1"
       id="guide986"
       inkscape:locked="false" />
    <sodipodi:guide
       position="357.71668,158.329"
       orientation="0,1"
       id="guide3034"
       inkscape:locked="false"
       inkscape:label=""
       inkscape:color="rgb(0,0,255)" />
  </sodipodi:namedview>
  <metadata
     id="metadata5">
    <rdf:RDF>
      <cc:Work
         rdf:about="">
        <dc:format>image/svg+xml</dc:format>
        <dc:type
           rdf:resource="http://purl.org/dc/dcmitype/StillImage" />
      </cc:Work>
    </rdf:RDF>
  </metadata>
  <g
     inkscape:label="Ebene 1"
     inkscape:groupmode="layer"
     id="layer1"
     transform="translate(0,123)">
    <path
       style="display:inline;fill:#f6bd16;fill-opacity:1;stroke:none;stroke-width:0.38262692px;stroke-linecap:butt;stroke-linejoin:miter;stroke-opacity:1"
       d="m 148.32128,-84.134914 c -2.3632,-0.047 -4.75935,1.0088 -5.70005,2.89018 L 32.68343,109.45239 c -1.79637,2.69456 0.64155,9.54687 4.54223,9.23892 l 221.33864,0.0766 c 3.72104,0.48759 7.0572,-5.33767 5.15818,-8.46849 L 153.47637,-81.244734 c -1.01044,-1.94874 -3.06993,-2.84873 -5.15509,-2.89018 z"
       id="path4316-3"
       inkscape:connector-curvature="0"
       sodipodi:nodetypes="sccccccs" />
    <text
       xml:space="preserve"
       style="font-style:normal;font-variant:normal;font-weight:bold;font-stretch:normal;font-size:4.23333px;line-height:125%;font-family:DINPro;-inkscape-font-specification:'DINPro Bold';font-variant-ligatures:normal;font-variant-caps:normal;font-variant-numeric:normal;font-feature-settings:normal;text-align:start;letter-spacing:0px;word-spacing:0px;writing-mode:lr-tb;text-anchor:start;fill:#000000;fill-opacity:1;stroke:none;stroke-width:0.264583"
       x="146.33704"
       y="169.54645"
       id="text1677"><tspan
         sodipodi:role="line"
         x="146.33704"
         y="169.54645"
         style="font-style:normal;font-variant:normal;font-weight:bold;font-stretch:normal;font-size:42.3333px;line-height:100%;font-family:DINPro;-inkscape-font-specification:'DINPro, Bold';font-variant-ligatures:normal;font-variant-caps:normal;font-variant-numeric:normal;font-feature-settings:normal;text-align:center;writing-mode:lr-tb;text-anchor:middle;stroke-width:0.264583"
         id="tspan3763">Lokalzeit</tspan><tspan
         sodipodi:role="line"
         x="146.33704"
         y="211.87975"
         style="font-style:normal;font-variant:normal;font-weight:bold;font-stretch:normal;font-size:42.3333px;line-height:100%;font-family:DINPro;-inkscape-font-specification:'DINPro, Bold';font-variant-ligatures:normal;font-variant-caps:normal;font-variant-numeric:normal;font-feature-settings:normal;text-align:center;writing-mode:lr-tb;text-anchor:middle;stroke-width:0.264583"
         id="tspan7199">vergeht</tspan><tspan
         sodipodi:role="line"
         x="146.33704"
         y="254.21304"
         style="font-style:normal;font-variant:normal;font-weight:bold;font-stretch:normal;font-size:42.3333px;line-height:100%;font-family:DINPro;-inkscape-font-specification:'DINPro, Bold';font-variant-ligatures:normal;font-variant-caps:normal;font-variant-numeric:normal;font-feature-settings:normal;text-align:center;writing-mode:lr-tb;text-anchor:middle;stroke-width:0.264583"
         id="tspan7201">schneller</tspan></text>
    <text
       xml:space="preserve"
       style="font-style:normal;font-variant:normal;font-weight:bold;font-stretch:normal;font-size:4.23333px;line-height:240px;font-family:DINPro;-inkscape-font-specification:'DINPro Bold';font-variant-ligatures:normal;font-variant-caps:normal;font-variant-numeric:normal;font-feature-settings:normal;text-align:start;letter-spacing:0px;word-spacing:0px;writing-mode:lr-tb;text-anchor:start;fill:#000000;fill-opacity:1;stroke:none;stroke-width:0.264583"
       x="77.863091"
       y="250.8869"
       id="text1685"><tspan
         sodipodi:role="line"
         id="tspan1683"
         x="77.863091"
         y="250.8869"
         style="stroke-width:0.264583">a</tspan></text>
    <path
       style="display:inline;fill:#000000;fill-opacity:1;stroke:none;stroke-width:0.36192638px;stroke-linecap:butt;stroke-linejoin:miter;stroke-opacity:1"
       d="m 148.30389,-76.505465 c -2.23533,-0.0444 -4.50186,0.95422 -5.39165,2.73381 L 38.92219,106.60856 c -1.69919,2.54877 0.60683,9.03037 4.29649,8.73908 l 209.36396,0.0725 c 3.51974,0.46121 6.67541,-5.0489 4.87913,-8.01034 L 153.1801,-73.771655 c -0.95579,-1.84331 -2.90386,-2.69461 -4.87621,-2.73381 z M 148,-56.274785 239.36648,102.28107 56.50963,102.61243 Z"
       id="path4316"
       inkscape:connector-curvature="0" />
    <g
       id="surface132548"
       transform="matrix(0.07882292,0,0,0.07882292,108.26667,6.0173164)">
      <path
         style="fill:#000000;fill-opacity:1;fill-rule:nonzero;stroke:none"
         d="m 984.60547,371.55078 c -1.19922,-4.59766 -2.44922,-9.19531 -3.7461,-13.74219 -14.94531,-51.28125 -38.38671,-99.0625 -70.22265,-143.34375 -3,-4.14843 -6.04688,-8.24609 -9.19922,-12.34375 -14.19141,-18.54297 -29.93359,-36.4375 -47.22656,-53.73047 C 756.59766,50.78125 638.79687,2 500.80078,2 495.85156,2 490.90234,2.050781 486.05469,2.199219 354.35937,5.546875 241.50391,54.277344 147.39062,148.39062 49.78125,246.00391 1,363.80469 1,501.80078 c 0,137.99609 48.78125,255.79688 146.39062,353.41016 97.61329,97.60937 215.41407,146.39066 353.41016,146.39066 137.99609,0 255.79688,-48.78129 353.41016,-146.39066 97.60937,-97.61328 146.39066,-215.41407 146.39066,-353.41016 0,-10.34766 -0.25,-20.59375 -0.80082,-30.6875 -0.15234,-2.55078 -0.35156,-5.09766 -0.5,-7.64844 -2.14844,-31.78515 -7.04687,-62.42578 -14.69531,-91.91406 z m -122.75,-138.89453 c 2.69922,3.55078 5.34765,7.14844 7.94531,10.74609 28.58984,39.78516 49.58203,82.71875 63.02734,128.80078 1.19922,4.09766 2.34766,8.2461 3.39844,12.39454 6.84766,26.53906 11.29297,54.07812 13.24219,82.71484 0.15234,2.25 0.25,4.55078 0.40234,6.84766 0.5,9.09765 0.75,18.29296 0.75,27.64062 0,56.57813 -9.09765,109.40625 -27.33984,158.48438 -21.79297,58.57812 -56.57813,111.75781 -104.41016,159.58593 -87.8125,87.81641 -193.87109,131.75 -318.07031,131.75 -56.62891,0 -109.45703,-9.09765 -158.48828,-27.33984 C 283.73828,902.48828 230.55859,867.70312 182.72656,819.87109 94.914062,732.05859 50.980469,626 50.980469,501.80078 50.980469,445.17187 60.125,392.34375 78.367188,343.3125 100.16016,284.6875 134.94531,231.50781 182.72656,183.72656 252.34766,114.10547 333.36719,72.121094 425.82812,57.679688 c 24.19141,-3.800782 49.1836,-5.699219 74.97266,-5.699219 30.4375,0 59.82422,2.648437 88.11328,7.945312 11.44531,2.148438 22.69141,4.699219 33.73828,7.699219 12.44532,3.347656 24.63672,7.246094 36.63282,11.695312 58.57812,21.789068 111.75781,56.574218 159.58593,104.406248 15.7461,15.7461 30.03907,32.03906 42.98438,48.92969"
         id="path2501" />
      <path
         style="fill:#000000;fill-opacity:1;fill-rule:nonzero;stroke:none"
         d="m 734.30859,505.05078 c -3.60156,18.14063 -8.34765,36.28516 -14.24609,54.47656 l 132.44531,38.33594 c 7.84766,-26.74219 13.19531,-53.33203 16.04688,-79.87109 l -134.2461,-12.94141"
         id="path2503" />
      <path
         style="fill:#000000;fill-opacity:1;fill-rule:nonzero;stroke:none"
         d="m 820.17187,677.03125 c 7.54688,-0.90234 9.09766,-3.85156 4.59766,-8.84766 -15.04297,-13.19531 -31.23828,-25.28906 -48.57812,-36.33593 L 537.03516,508.19531 c 0.60156,2.65235 0.89843,5.14844 0.94921,7.5 0,9.2461 -4.89843,15.59375 -14.74218,19.04297 L 762.44531,658.4375 c 16.74219,7.69531 35.98438,13.89453 57.72656,18.59375"
         id="path2505" />
      <path
         style="fill:#000000;fill-opacity:1;fill-rule:nonzero;stroke:none"
         d="m 464.36328,199.12109 c -1.75,-1.94922 -3.29687,-3.19922 -4.64844,-3.69922 -2.54687,-0.94921 -4.29687,0.75 -5.24609,5.05079 -2.14844,19.9375 -2.75,40.17968 -1.80078,60.77343 l 28.4414,207.86719 c 4.7461,-5.34766 9.69532,-8.24609 14.84375,-8.79687 4.64844,-0.5 9.44532,1 14.39454,4.44921 l 0.34765,-0.5 -28.33984,-207.0664 c -3.34766,-18.2461 -9.34375,-37.58594 -17.99219,-58.07813"
         id="path2507" />
      <path
         style="fill:#000000;fill-opacity:1;fill-rule:nonzero;stroke:none"
         d="m 518.99219,493.50391 c -0.64844,-1.44922 -1.44922,-2.80079 -2.34766,-4 -2.25,-2.94922 -5.14844,-5.09766 -8.79687,-6.44532 -5.19922,-1.94922 -10.29688,-1.75 -15.29297,0.54688 -5.05078,2.25 -8.4961,6 -10.44922,11.14844 -1.94922,5.14843 -1.7461,10.24609 0.5,15.29296 2.30078,5 6.05078,8.4961 11.19922,10.44532 5.14453,1.94922 10.24609,1.75 15.29297,-0.5 4.99609,-2.29688 8.44531,-6.04688 10.39453,-11.19532 0.15234,-0.39843 0.30078,-0.80078 0.44922,-1.14843 0,-0.10157 0,-0.19922 0.0508,-0.30078 0.35156,-1.25 0.60156,-2.44922 0.75,-3.64844 0,-0.19922 0,-0.39844 0.0508,-0.55078 0.0977,-1.34766 0.0508,-2.64844 -0.10156,-3.89844 -0.25,-1.94922 -0.84766,-3.84766 -1.69922,-5.74609"
         id="path2509" />
      <path
         style="fill:#000000;fill-opacity:1;fill-rule:nonzero;stroke:none"
         d="m 712.46484,581.16797 1.10157,0.44922 c 0.34765,0.10156 0.69921,0.25 1.04687,0.40234 l 127.35156,47.78125 c 3.14844,-8.5 6.09766,-16.99609 8.79688,-25.44141 L 718.61328,563.82422 c -1.94922,5.75 -4,11.54687 -6.14844,17.34375"
         id="path2511" />
      <path
         style="fill:#000000;fill-opacity:1;fill-rule:nonzero;stroke:none"
         d="m 855.50781,367.00391 -113.7539,30.03906 c 2,33.03515 0.0508,66.17187 -5.84766,99.46094 l 133.64453,9.04296 c 1.30078,-19.58984 1.25,-39.13281 -0.14844,-58.625 -0.5,-6.69531 -1.14843,-13.39453 -1.89843,-20.04296 l -11.9961,-59.875"
         id="path2513" />
      <path
         style="fill:#000000;fill-opacity:1;fill-rule:nonzero;stroke:none"
         d="m 697.12109,143.84375 c 1.44922,3.04687 2.89844,6.09766 4.30078,9.19531 18.58985,40.88281 30.98438,81.96875 37.13282,123.30078 -16.14453,-26.83984 -34.48438,-51.32812 -55.02735,-73.37109 6.14844,11.09766 11.89453,22.59375 17.29297,34.53906 22.74219,50.02735 36.1836,100.40625 40.33203,151.13672 l 110.75782,-33.98437 c -6.04688,-19.69141 -13.54688,-39.33594 -22.44141,-58.92969 -27.9375,-61.52344 -65.52344,-112.80078 -112.75391,-153.73828 7.84766,13.64843 15.19141,27.9414 21.98828,42.83593 11.09766,24.4375 19.99219,49.02735 26.69141,73.66797 -1.80078,-4.19531 -3.64844,-8.39453 -5.54687,-12.54297 -17.2461,-37.98437 -38.1875,-72.02343 -62.72657,-102.10937"
         id="path2515" />
      <path
         style="fill:none;stroke:#000000;stroke-width:9.996;stroke-linecap:round;stroke-linejoin:round;stroke-miterlimit:10;stroke-opacity:1"
         d="m 7135.6641,4213.8281 -11.0157,3.9844 v 0.5078"
         transform="matrix(0.1,0,0,-0.1,0,1003)"
         id="path2517" />
      <path
         style="fill:none;stroke:#000000;stroke-width:9.996;stroke-linecap:round;stroke-linejoin:round;stroke-miterlimit:10;stroke-opacity:1"
         d="m 6971.2109,8591.5625 c 245.3907,-300.8594 454.8047,-641.25 627.2657,-1021.0938 18.9843,-41.4843 37.4609,-83.4765 55.4687,-125.4296 -66.9922,246.4062 -155.9375,492.3046 -266.9141,736.6796 -67.9687,148.9454 -141.4062,291.8751 -219.8828,428.3594 472.3047,-409.375 848.1641,-922.1484 1127.5391,-1537.3828 88.9453,-195.9375 163.9453,-392.3828 224.4141,-589.2969 L 7411.5234,6143.5547 c -41.4843,507.3047 -175.8984,1011.0937 -403.3203,1511.3672 -53.9844,119.4531 -111.4453,234.414 -172.9297,345.3906 205.4297,-220.4297 388.8282,-465.3125 550.2735,-733.7109 -61.4844,413.3203 -185.4297,824.1796 -371.3282,1233.0078 -14.0234,30.9765 -28.5156,61.4844 -43.0078,91.9531 z m 0,0"
         transform="matrix(0.1,0,0,-0.1,0,1003)"
         id="path2519" />
      <path
         style="fill:none;stroke:#000000;stroke-width:9.996;stroke-linecap:round;stroke-linejoin:round;stroke-miterlimit:10;stroke-opacity:1"
         d="m 8618.5547,7703.4375 c -129.4531,168.9062 -272.3828,331.8359 -429.8438,489.2969 -478.2812,478.3203 -1010.0781,826.1719 -1595.8593,1044.0625 -119.961,44.4922 -241.875,83.4765 -366.3282,116.9531 -110.4687,30 -222.9297,55.5078 -337.3828,76.9922 -282.8906,52.9687 -576.7578,79.4531 -881.1328,79.4531 -257.8906,0 -507.8125,-18.9844 -749.7266,-56.9922 C 3333.6719,9308.7891 2523.4766,8888.9453 1827.2656,8192.7344 1349.4531,7714.9219 1001.6016,7183.125 783.67187,6596.875 601.25,6106.5625 509.80469,5578.2812 509.80469,5011.9922 509.80469,3770 949.14062,2709.4141 1827.2656,1831.2891 2305.5859,1352.9688 2837.3828,1005.1172 3423.125,787.1875 3913.4375,604.76562 4441.7187,513.78906 5008.0078,513.78906 c 1241.9922,0 2302.5781,439.33594 3180.7031,1317.50004 478.3204,478.2812 826.1719,1010.0781 1044.1016,1595.8593 182.4219,490.7813 273.3984,1019.0625 273.3984,1584.8438 0,93.4765 -2.5,185.4297 -7.5,276.4062 -1.5234,22.9688 -2.5,45.9766 -4.0234,68.4766 -19.4922,286.3672 -63.9453,561.7578 -132.4219,827.1484 -10.5078,41.4844 -21.9922,82.9688 -33.9843,123.9453 -134.4532,460.8204 -344.375,890.1563 -630.2735,1288.0079 -25.9765,35.9765 -52.4609,71.9531 -79.4531,107.4609 z m 0,0"
         transform="matrix(0.1,0,0,-0.1,0,1003)"
         id="path2521" />
      <path
         style="fill:none;stroke:#000000;stroke-width:9.996;stroke-linecap:round;stroke-linejoin:round;stroke-miterlimit:10;stroke-opacity:1"
         d="m 7417.5391,6059.5703 c 20,-330.3516 0.5078,-661.7187 -58.4766,-994.6094 l 1336.4453,-90.4297 c 13.0078,195.8985 12.5,391.3282 -1.4844,586.25 -5,66.9532 -11.4843,133.9454 -18.9843,200.4297 l -119.961,598.75 z m 0,0"
         transform="matrix(0.1,0,0,-0.1,0,1003)"
         id="path2523" />
      <path
         style="fill:none;stroke:#000000;stroke-width:9.996;stroke-linecap:round;stroke-linejoin:round;stroke-miterlimit:10;stroke-opacity:1"
         d="m 9384.2578,5281.4062 c -0.5078,2.5 -0.5078,4.4922 -0.5078,6.9922"
         transform="matrix(0.1,0,0,-0.1,0,1003)"
         id="path2525" />
      <path
         style="fill:none;stroke:#000000;stroke-width:9.996;stroke-linecap:round;stroke-linejoin:round;stroke-miterlimit:10;stroke-opacity:1"
         d="m 7124.6484,4218.3203 11.0157,-4.4922"
         transform="matrix(0.1,0,0,-0.1,0,1003)"
         id="path2527" />
      <path
         style="fill:none;stroke:#000000;stroke-width:9.996;stroke-linecap:round;stroke-linejoin:round;stroke-miterlimit:10;stroke-opacity:1"
         d="m 7135.6641,4213.8281 c 3.4765,-1.0156 6.9921,-2.5 10.4687,-4.0234 l 1273.5156,-477.8125 c 31.4844,85 60.9766,169.9609 87.9688,254.4141 l -1321.4844,405.3515 c -19.4922,-57.5 -40,-115.4687 -61.4844,-173.4375"
         transform="matrix(0.1,0,0,-0.1,0,1003)"
         id="path2529" />
      <path
         style="fill:none;stroke:#000000;stroke-width:9.996;stroke-linecap:round;stroke-linejoin:round;stroke-miterlimit:10;stroke-opacity:1"
         d="m 9808.5938,6451.9141 c -149.4532,512.8125 -383.8672,990.625 -702.2266,1433.4375 -30,41.4843 -60.4688,82.4609 -91.9531,123.4375 -141.9532,185.4297 -299.375,364.375 -472.3047,537.3047 C 7565.9766,9522.1875 6387.9687,10010 5008.0078,10010 c -49.4922,0 -98.9844,-0.508 -147.4609,-1.992 C 3543.5938,9974.5313 2415.0391,9487.2266 1473.9063,8546.0938 497.8125,7569.9609 10,6391.9531 10,5011.9922 10,3632.0313 497.8125,2454.0234 1473.9063,1477.8906 2450.0391,501.79687 3628.0469,13.984375 5008.0078,13.984375 c 1379.9609,0 2557.9688,487.812495 3534.1016,1463.906225 976.0937,976.1328 1463.9066,2154.1407 1463.9066,3534.1016 0,103.4765 -2.5,205.9375 -8.0082,306.875 -1.5234,25.5078 -3.5156,50.9765 -5,76.4844 -21.4844,317.8515 -70.4687,624.2578 -146.9531,919.1406 -11.9922,45.9765 -24.4922,91.9531 -37.4609,137.4219 z m 0,0"
         transform="matrix(0.1,0,0,-0.1,0,1003)"
         id="path2531" />
      <path
         style="fill:none;stroke:#000000;stroke-width:9.996;stroke-linecap:round;stroke-linejoin:round;stroke-miterlimit:10;stroke-opacity:1"
         d="m 7343.0859,4979.4922 1342.461,-129.4141 c -28.5156,-265.3906 -81.9922,-531.289 -160.4688,-798.7109 L 7200.625,4434.7266 c 58.9844,181.914 106.4453,363.3593 142.4609,544.7656 z m 0,0"
         transform="matrix(0.1,0,0,-0.1,0,1003)"
         id="path2533" />
      <path
         style="fill:none;stroke:#000000;stroke-width:9.996;stroke-linecap:round;stroke-linejoin:round;stroke-miterlimit:10;stroke-opacity:1"
         d="m 8247.6953,3348.1641 c -150.4297,131.9531 -312.3828,252.8906 -485.7812,363.3593 L 5370.3516,4948.0469 c 6.0156,-26.5235 8.9843,-51.4844 9.4921,-75 0,-92.461 -48.9843,-155.9375 -147.4218,-190.4297 L 7624.4531,3445.625 c 167.4219,-76.9531 359.8438,-138.9453 577.2657,-185.9375 75.4687,9.0234 90.9765,38.5156 45.9765,88.4766 z m 0,0"
         transform="matrix(0.1,0,0,-0.1,0,1003)"
         id="path2535" />
      <path
         style="fill:none;stroke:#000000;stroke-width:9.996;stroke-linecap:round;stroke-linejoin:round;stroke-miterlimit:10;stroke-opacity:1"
         d="m 5106.9531,5387.3437 -283.3984,2070.6641 c -33.4766,182.4609 -93.4375,375.8594 -179.9219,580.7813 -17.5,19.4921 -32.9687,31.9921 -46.4844,36.9921 -25.4687,9.4922 -42.9687,-7.5 -52.4609,-50.5078 -21.4844,-199.375 -27.5,-401.8359 -18.0078,-607.7343 l 284.414,-2078.6719 c 47.461,53.4765 96.9532,82.4609 148.4375,87.9687 46.4844,5 94.4532,-10 143.9454,-44.4922 0.4687,-0.5078 1.4843,-0.9765 1.9921,-1.4843"
         transform="matrix(0.1,0,0,-0.1,0,1003)"
         id="path2537" />
      <path
         style="fill:none;stroke:#000000;stroke-width:9.996;stroke-linecap:round;stroke-linejoin:round;stroke-miterlimit:10;stroke-opacity:1"
         d="m 5106.9531,5387.3437 1.0156,-8.0078 c -1.0156,0.5078 -1.9921,1.0157 -2.5,1.5235"
         transform="matrix(0.1,0,0,-0.1,0,1003)"
         id="path2539" />
      <path
         style="fill:none;stroke:#000000;stroke-width:9.996;stroke-linecap:round;stroke-linejoin:round;stroke-miterlimit:10;stroke-opacity:1"
         d="m 5105.4687,5380.8594 1.4844,6.4843"
         transform="matrix(0.1,0,0,-0.1,0,1003)"
         id="path2541" />
      <path
         style="fill:none;stroke:#000000;stroke-width:9.996;stroke-linecap:round;stroke-linejoin:round;stroke-miterlimit:10;stroke-opacity:1"
         d="m 5166.4453,5134.9609 c -22.5,29.4922 -51.4844,50.9766 -87.9687,64.4532 -51.9922,19.4921 -102.9688,17.5 -152.9297,-5.4688 -50.5078,-22.5 -84.961,-60 -104.4922,-111.4844 -19.4922,-51.4843 -17.461,-102.4609 5,-152.9297 23.0078,-50 60.5078,-84.9609 111.9922,-104.4531 51.4453,-19.4922 102.4609,-17.5 152.9297,5 49.9609,22.9688 84.4531,60.4688 103.9453,111.9531 1.5234,3.9844 3.0078,8.0079 4.4922,11.4844 0,1.0156 0,1.9922 0.5078,3.0078 3.5156,12.5 6.0156,24.4922 7.5,36.4844 0,1.9922 0,3.9844 0.5078,5.5078 0.9765,13.4766 0.5078,26.4844 -1.0156,38.9844 -2.5,19.4922 -8.4766,38.4766 -16.9922,57.4609 -6.4844,14.4922 -14.4922,28.0078 -23.4766,40 z m 0,0"
         transform="matrix(0.1,0,0,-0.1,0,1003)"
         id="path2543" />
    </g>
  </g>
</svg>
