<?xml version="1.0" encoding="UTF-8" standalone="no"?>
<!-- Created with Inkscape (http://www.inkscape.org/) -->

<svg
   xmlns:dc="http://purl.org/dc/elements/1.1/"
   xmlns:cc="http://creativecommons.org/ns#"
   xmlns:rdf="http://www.w3.org/1999/02/22-rdf-syntax-ns#"
   xmlns:svg="http://www.w3.org/2000/svg"
   xmlns="http://www.w3.org/2000/svg"
   xmlns:sodipodi="http://sodipodi.sourceforge.net/DTD/sodipodi-0.dtd"
   xmlns:inkscape="http://www.inkscape.org/namespaces/inkscape"
   width="297mm"
   height="420mm"
   viewBox="0 0 297 420"
   version="1.1"
   id="svg8"
   inkscape:version="0.92.5 (2060ec1f9f, 2020-04-08)"
   sodipodi:docname="Nudelsuppe.svg">
  <defs
     id="defs2">
    <rect
       x="40.286621"
       y="988.99276"
       width="10.17334"
       height="115.12126"
       id="rect16037" />
  </defs>
  <sodipodi:namedview
     id="base"
     pagecolor="#ffffff"
     bordercolor="#666666"
     borderopacity="1.0"
     inkscape:pageopacity="0.0"
     inkscape:pageshadow="2"
     inkscape:zoom="0.5"
     inkscape:cx="410.5254"
     inkscape:cy="807.26772"
     inkscape:document-units="mm"
     inkscape:current-layer="layer1"
     showgrid="false"
     showguides="true"
     inkscape:guide-bbox="true"
     inkscape:window-width="1920"
     inkscape:window-height="1031"
     inkscape:window-x="0"
     inkscape:window-y="25"
     inkscape:window-maximized="1"
     inkscape:pagecheckerboard="0">
    <sodipodi:guide
       position="148,450.54762"
       orientation="1,0"
       id="guide917"
       inkscape:locked="false"
       inkscape:label=""
       inkscape:color="rgb(0,0,255)" />
    <sodipodi:guide
       position="285.75,178.32917"
       orientation="0,1"
       id="guide980"
       inkscape:locked="false" />
    <sodipodi:guide
       position="178.40477,399.14285"
       orientation="0,1"
       id="guide984"
       inkscape:locked="false" />
    <sodipodi:guide
       position="198.81548,46.113094"
       orientation="0,1"
       id="guide986"
       inkscape:locked="false" />
    <sodipodi:guide
       position="357.71668,158.329"
       orientation="0,1"
       id="guide3034"
       inkscape:locked="false"
       inkscape:label=""
       inkscape:color="rgb(0,0,255)" />
  </sodipodi:namedview>
  <metadata
     id="metadata5">
    <rdf:RDF>
      <cc:Work
         rdf:about="">
        <dc:format>image/svg+xml</dc:format>
        <dc:type
           rdf:resource="http://purl.org/dc/dcmitype/StillImage" />
        <dc:title></dc:title>
      </cc:Work>
    </rdf:RDF>
  </metadata>
  <g
     inkscape:label="Ebene 1"
     inkscape:groupmode="layer"
     id="layer1"
     transform="translate(0,123)">
    <path
       style="display:inline;fill:#f6bd16;fill-opacity:1;stroke:none;stroke-width:0.38262692px;stroke-linecap:butt;stroke-linejoin:miter;stroke-opacity:1"
       d="m 148.32128,-84.134914 c -2.3632,-0.047 -4.75935,1.0088 -5.70005,2.89018 L 32.68343,109.45239 c -1.79637,2.69456 0.64155,9.54687 4.54223,9.23892 l 221.33864,0.0766 c 3.72104,0.48759 7.0572,-5.33767 5.15818,-8.46849 L 153.47637,-81.244734 c -1.01044,-1.94874 -3.06993,-2.84873 -5.15509,-2.89018 z"
       id="path4316-3"
       inkscape:connector-curvature="0"
       sodipodi:nodetypes="sccccccs" />
    <text
       xml:space="preserve"
       style="font-style:normal;font-variant:normal;font-weight:bold;font-stretch:normal;font-size:4.23332977px;line-height:125%;font-family:DINPro;-inkscape-font-specification:'DINPro Bold';font-variant-ligatures:normal;font-variant-caps:normal;font-variant-numeric:normal;font-feature-settings:normal;text-align:start;letter-spacing:0px;word-spacing:0px;writing-mode:lr-tb;text-anchor:start;fill:#000000;fill-opacity:1;stroke:none;stroke-width:0.26458299"
       x="146.33704"
       y="169.54645"
       id="text1677"><tspan
         sodipodi:role="line"
         x="146.33704"
         y="169.54645"
         style="font-style:normal;font-variant:normal;font-weight:bold;font-stretch:normal;font-size:42.33330154px;line-height:100%;font-family:DINPro;-inkscape-font-specification:'DINPro, Bold';font-variant-ligatures:normal;font-variant-caps:normal;font-variant-numeric:normal;font-feature-settings:normal;text-align:center;writing-mode:lr-tb;text-anchor:middle;stroke-width:0.26458299"
         id="tspan3049">23:00</tspan><tspan
         sodipodi:role="line"
         x="146.33704"
         y="211.87975"
         style="font-style:normal;font-variant:normal;font-weight:bold;font-stretch:normal;font-size:42.33330154px;line-height:100%;font-family:DINPro;-inkscape-font-specification:'DINPro, Bold';font-variant-ligatures:normal;font-variant-caps:normal;font-variant-numeric:normal;font-feature-settings:normal;text-align:center;writing-mode:lr-tb;text-anchor:middle;stroke-width:0.26458299"
         id="tspan3824">Nudelsuppe</tspan></text>
    <path
       style="display:inline;fill:#000000;fill-opacity:1;stroke:none;stroke-width:0.36192638px;stroke-linecap:butt;stroke-linejoin:miter;stroke-opacity:1"
       d="m 148.30389,-76.505465 c -2.23533,-0.0444 -4.50186,0.95422 -5.39165,2.73381 L 38.92219,106.60856 c -1.69919,2.54877 0.60683,9.03037 4.29649,8.73908 l 209.36396,0.0725 c 3.51974,0.46121 6.67541,-5.0489 4.87913,-8.01034 L 153.1801,-73.771655 c -0.95579,-1.84331 -2.90386,-2.69461 -4.87621,-2.73381 z M 148,-56.274785 239.36648,102.28107 56.50963,102.61243 Z"
       id="path4316"
       inkscape:connector-curvature="0" />
    <text
       xml:space="preserve"
       transform="matrix(0.26458333,0,0,0.26458333,0,-123)"
       id="text16035"
       style="fill:black;fill-opacity:1;line-height:1.25;stroke:none;font-family:sans-serif;font-style:normal;font-weight:normal;font-size:40px;white-space:pre;shape-inside:url(#rect16037)" />
    <path
       d="m 133.94802,69.286338 c 0,0 -4.39926,2.67778 3.06026,3.44285 8.98958,1.14757 13.77143,0.95647 23.71738,-0.95632 0,0 2.67779,1.72138 6.31187,3.06036 -22.37849,9.56348 -50.68633,-0.57398 -33.08954,-5.54689 z m -2.8691,-12.43243 c 0,0 -4.78166,3.63402 2.67779,4.39908 9.75483,0.95647 17.40558,1.14758 30.6031,-1.53014 0,0 1.72145,1.91271 4.59044,2.86911 -26.96892,8.03335 -57.18957,0.76506 -37.87114,-5.73809 z m 52.79033,21.80466 c 0,0 3.25162,2.67787 -3.63411,4.78168 -12.81509,3.82543 -53.7469,4.97297 -65.22306,0 -4.01661,-1.72132 3.6342,-4.20792 6.12056,-4.59043 2.48654,-0.57374 3.82536,-0.57374 3.82536,-0.57374 -4.39901,-3.06037 -29.264123,6.31178 -12.62378,8.98957 45.7134,7.45952 83.39367,-3.25153 71.53467,-8.60711 z m -47.81739,-34.81102 c 0,0 -20.84828,4.97298 -7.45938,6.69437 5.73809,0.765 17.02294,0.57392 27.54283,-0.19124 8.60703,-0.76507 17.21427,-2.29521 17.21427,-2.29521 0,0 -3.06036,1.33881 -5.1644,2.67786 -21.23076,5.54665 -61.97126,3.0602 -50.30386,-2.67786 9.94599,-4.781819 18.17044,-4.207907 18.17044,-4.207907 z m 37.2978,20.84828 c 21.42211,-11.09364 11.47619,-21.804661 4.59043,-20.465694 -1.72149,0.382494 -2.48654,0.765067 -2.48654,0.765067 0,0 0.57382,-1.14764 1.91264,-1.530136 13.58022,-4.781822 24.29128,14.345063 -4.39902,21.804583 0,0 0.19111,-0.19124 0.38249,-0.57382 z m -35.19369,30.22061 c 20.65719,1.33898 52.21661,-0.76508 52.98157,-10.51974 0,0 -1.5301,3.82542 -17.02286,6.6943 -17.59682,3.25169 -39.4014,2.86911 -52.21661,0.76507 0,0 2.67771,2.29529 16.25786,3.06037 z"
       id="_227268128"
       style="font-style:normal;font-variant:normal;font-weight:normal;font-stretch:normal;font-size:31.75px;line-height:1.25;font-family:Orbitron;-inkscape-font-specification:Orbitron;letter-spacing:0px;word-spacing:0px;fill:#000000;fill-opacity:1;stroke:none;stroke-width:0.3684752"
       inkscape:connector-curvature="0" />
    <path
       inkscape:connector-curvature="0"
       style="font-style:normal;font-variant:normal;font-weight:normal;font-stretch:normal;font-size:31.75px;line-height:1.25;font-family:Orbitron;-inkscape-font-specification:Orbitron;letter-spacing:0px;word-spacing:0px;fill:#000000;fill-opacity:1;stroke:none;stroke-width:0.3684752"
       d="m 160.3433,-19.271382 c 0,0 11.8587,12.0499538 -11.28496,30.220616 -18.55317,14.72765 -4.20791,23.143472 0,32.706923 C 138.15597,33.901589 130.31393,25.294338 135.66942,17.260983 143.5116,5.4022668 165.12496,-0.33570211 160.3433,-19.271342 Z"
       id="path2188" />
    <path
       inkscape:connector-curvature="0"
       style="font-style:normal;font-variant:normal;font-weight:normal;font-stretch:normal;font-size:31.75px;line-height:1.25;font-family:Orbitron;-inkscape-font-specification:Orbitron;letter-spacing:0px;word-spacing:0px;fill:#000000;fill-opacity:1;stroke:none;stroke-width:0.3684752"
       d="m 154.22275,35.622946 c 5.54665,6.311946 -1.53022,12.050112 -1.53022,12.050112 0,0 14.15391,-7.268288 7.65077,-16.258023 -5.92946,-8.607017 -10.5199,-12.814942 14.34514,-27.1602272 0,0 -39.21017,9.7548272 -20.46569,31.3681772 z"
       id="path2186" />
  </g>
</svg>
