<?xml version="1.0" encoding="UTF-8" standalone="no"?>
<!-- Created with Inkscape (http://www.inkscape.org/) -->

<svg
   xmlns:dc="http://purl.org/dc/elements/1.1/"
   xmlns:cc="http://creativecommons.org/ns#"
   xmlns:rdf="http://www.w3.org/1999/02/22-rdf-syntax-ns#"
   xmlns:svg="http://www.w3.org/2000/svg"
   xmlns="http://www.w3.org/2000/svg"
   xmlns:sodipodi="http://sodipodi.sourceforge.net/DTD/sodipodi-0.dtd"
   xmlns:inkscape="http://www.inkscape.org/namespaces/inkscape"
   width="297mm"
   height="420mm"
   viewBox="0 0 297 420"
   version="1.1"
   id="svg8"
   inkscape:version="0.92.3 (2405546, 2018-03-11)"
   sodipodi:docname="BuchstabenvorlageCaptureIt_7890.svg"
   inkscape:export-filename="/home/housemeista/Dropbox/Fla/Stencilkram Inkscape/Vorlagen/schildcyber.png"
   inkscape:export-xdpi="96"
   inkscape:export-ydpi="96">
  <defs
     id="defs2" />
  <sodipodi:namedview
     id="base"
     pagecolor="#ffffff"
     bordercolor="#666666"
     borderopacity="1.0"
     inkscape:pageopacity="0"
     inkscape:pageshadow="2"
     inkscape:zoom="0.98994949"
     inkscape:cx="490.38505"
     inkscape:cy="1391.165"
     inkscape:document-units="mm"
     inkscape:current-layer="layer1"
     showgrid="true"
     inkscape:pagecheckerboard="true"
     inkscape:window-width="1920"
     inkscape:window-height="1031"
     inkscape:window-x="0"
     inkscape:window-y="25"
     inkscape:window-maximized="1"
     showguides="true"
     inkscape:guide-bbox="true">
    <inkscape:grid
       type="xygrid"
       id="grid3713" />
    <sodipodi:guide
       position="158.75,210"
       orientation="0,1"
       id="guide21"
       inkscape:locked="false"
       inkscape:label=""
       inkscape:color="rgb(0,0,255)" />
    <sodipodi:guide
       position="30,285"
       orientation="1,0"
       id="guide23"
       inkscape:locked="false"
       inkscape:label=""
       inkscape:color="rgb(0,0,255)" />
    <sodipodi:guide
       position="201.08334,315"
       orientation="0,1"
       id="guide25"
       inkscape:locked="false"
       inkscape:label=""
       inkscape:color="rgb(0,0,255)" />
    <sodipodi:guide
       position="312.20833,105"
       orientation="0,1"
       id="guide27"
       inkscape:locked="false"
       inkscape:label=""
       inkscape:color="rgb(0,0,255)" />
    <sodipodi:guide
       position="148,269.87499"
       orientation="1,0"
       id="guide51"
       inkscape:locked="false"
       inkscape:label=""
       inkscape:color="rgb(0,0,255)" />
    <sodipodi:guide
       position="178,341.31249"
       orientation="1,0"
       id="guide141"
       inkscape:locked="false"
       inkscape:label=""
       inkscape:color="rgb(0,0,255)" />
    <sodipodi:guide
       position="118,359.83333"
       orientation="1,0"
       id="guide143"
       inkscape:locked="false"
       inkscape:label=""
       inkscape:color="rgb(0,0,255)" />
    <sodipodi:guide
       position="63.500002,399.52082"
       orientation="0,1"
       id="guide145"
       inkscape:locked="false" />
  </sodipodi:namedview>
  <metadata
     id="metadata5">
    <rdf:RDF>
      <cc:Work
         rdf:about="">
        <dc:format>image/svg+xml</dc:format>
        <dc:type
           rdf:resource="http://purl.org/dc/dcmitype/StillImage" />
        <dc:title></dc:title>
      </cc:Work>
    </rdf:RDF>
  </metadata>
  <g
     inkscape:label="Ebene 1"
     inkscape:groupmode="layer"
     id="layer1"
     transform="translate(0,123)">
    <g
       aria-label="7"
       transform="rotate(90)"
       style="font-style:normal;font-variant:normal;font-weight:normal;font-stretch:normal;font-size:10.58333302px;line-height:1.25;font-family:'Capture Smallz Clean';-inkscape-font-specification:'Capture Smallz Clean';letter-spacing:0px;word-spacing:0px;fill:#000000;fill-opacity:1;stroke:none;stroke-width:0.26458332"
       id="text31">
      <path
         d="m -102.47097,-260.98647 1.0542,-1.2299 h 56.516794 l 0.585666,0.58567 v 0.58566 17.10146 l -0.702799,0.8785 h -56.282521 l -1.17134,-1.2299 z m 12.533261,83.10604 -0.527099,-0.93707 24.188015,-61.14355 0.995632,-0.8785 h 19.619819 l 0.468533,0.81993 -24.129449,60.90929 -1.522732,1.2299 z"
         style="font-size:119.94444275px;stroke-width:0.26458332"
         id="path36" />
    </g>
    <g
       aria-label="8"
       transform="rotate(90)"
       style="font-style:normal;font-variant:normal;font-weight:normal;font-stretch:normal;font-size:10.58333302px;line-height:1.25;font-family:'Capture Smallz Clean';-inkscape-font-specification:'Capture Smallz Clean';letter-spacing:0px;word-spacing:0px;fill:#000000;fill-opacity:1;stroke:none;stroke-width:0.26458332"
       id="text31-3">
      <path
         d="m 32.896322,-245.9491 q -4.743896,0.46853 -7.086561,3.80683 h -0.292833 l -0.585666,1.46416 -0.292833,2.1084 q 0,6.03236 5.329562,8.31646 1.874132,0 2.928331,0.23427 v 15.75442 q -4.685329,0.40997 -5.622395,1.87413 -4.626764,2.86977 -4.158231,7.43796 v 2.40123 q 0.1757,6.73517 7.730795,8.31647 1.756998,0 2.049831,0.87849 v 15.16876 q -2.635498,0.0586 -3.221164,0.0586 h -0.292833 l -5.03673,-0.29284 q -11.010525,-2.45979 -15.2273214,-8.37502 -3.5725639,-4.27537 -4.1582302,-7.43796 -0.9956325,-1.17134 -1.4641655,-8.6093 0,-1.5813 0.2928331,-2.69406 1.2298991,-10.48343 10.132026,-15.75442 1.464165,-0.7028 3.748264,-1.9327 l -1.405599,-0.46854 -2.694065,-1.52273 q -4.3339301,-3.39686 -6.208062,-8.90212 -1.5812988,-2.16697 -1.5227322,-5.38813 v -1.46417 q 0,-3.6897 1.229899,-6.55946 5.3295622,-14.29026 25.5936142,-14.29026 h 0.234266 z m 2.986898,-15.98869 h 0.234267 q 20.264051,0 25.593614,14.29026 1.229899,2.86976 1.229899,6.55946 v 1.46416 q 0.05857,3.22117 -1.522733,5.38813 -1.874131,5.50526 -6.208062,8.90213 l -2.694064,1.52273 -1.405599,0.46853 q 2.284098,1.2299 3.748264,1.9327 8.902126,5.271 10.132025,15.75442 0.292834,1.11277 0.292834,2.69407 -0.468533,7.43796 -1.464166,8.60929 -0.585666,3.1626 -4.15823,7.43796 -4.216797,5.91523 -15.227322,8.37503 l -5.03673,0.29283 h -0.292833 q -0.585666,0 -3.221164,-0.0586 v -15.16876 q 0.292833,-0.8785 2.049832,-0.8785 7.555094,-1.5813 7.730794,-8.31646 v -2.40123 q 0.468533,-4.5682 -4.15823,-7.43796 -0.937066,-1.46417 -5.622396,-1.87413 v -15.75442 q 1.054199,-0.23427 2.928331,-0.23427 5.329563,-2.2841 5.329563,-8.31646 l -0.292833,-2.1084 -0.585666,-1.46417 h -0.292834 q -2.342664,-3.33829 -7.086561,-3.80683 z"
         style="font-size:119.94444275px;stroke-width:0.26458332"
         id="path39" />
    </g>
    <g
       aria-label="9"
       transform="rotate(90)"
       style="font-style:normal;font-variant:normal;font-weight:normal;font-stretch:normal;font-size:10.58333302px;line-height:1.25;font-family:'Capture Smallz Clean';-inkscape-font-specification:'Capture Smallz Clean';letter-spacing:0px;word-spacing:0px;fill:#000000;fill-opacity:1;stroke:none;stroke-width:0.26458332"
       id="text31-7">
      <path
         d="m -70.425307,-46.024173 q 6.910861,-1.0542 8.66786,-9.663493 V -86.31801 q 0,-8.84356 -8.66786,-11.830457 v -15.988693 q 14.231689,1.0542 20.029785,7.49653 7.789361,9.487795 7.789361,19.736954 v 30.278944 q 0,8.902127 -5.38813,17.101454 l 0.292834,0.292833 v 0.292833 l -0.292834,-0.292833 q -7.145128,8.66786 -22.431016,9.19496 z m -3.572564,-13.236057 q -15.285888,-0.5271 -22.431016,-9.19496 l -0.292833,0.292833 v -0.292833 l 0.292833,-0.292833 q -5.388133,-8.199327 -5.388133,-17.101454 v -0.995632 q 0,-10.249159 7.789364,-19.736951 5.798096,-6.44233 20.029785,-7.49653 v 15.988689 q -8.66786,2.986898 -8.66786,11.830458 v 1.347032 q 1.756999,8.609294 8.66786,9.663493 l 9.136393,-0.117133 0.117133,16.105821 z m 0.3514,28.990478 q -11.713325,0 -20.615451,-7.086561 -5.21243,-4.68533 -7.613658,-17.33572 v -0.819933 l 8.902123,-1.171333 7.437961,-0.527099 q 0.995633,6.910861 3.689698,9.077826 2.166965,1.991265 8.31646,2.401232 z"
         style="font-size:119.94444275px;stroke-width:0.26458332"
         id="path42" />
    </g>
    <g
       aria-label="0"
       transform="rotate(90)"
       style="font-style:normal;font-variant:normal;font-weight:normal;font-stretch:normal;font-size:10.58333302px;line-height:1.25;font-family:'Capture Smallz Clean';-inkscape-font-specification:'Capture Smallz Clean';letter-spacing:0px;word-spacing:0px;fill:#000000;fill-opacity:1;stroke:none;stroke-width:0.26458332"
       id="text31-7-3">
      <path
         d="m 32.370948,-98.268756 q -6.910861,1.054199 -8.66786,9.663493 v 30.630343 q 0,8.84356 8.66786,11.830458 v 15.988688 Q 18.139259,-31.209973 12.341163,-37.652302 4.5518026,-47.140095 4.5518026,-57.389254 v -30.278943 q 0,-8.902127 5.3881292,-17.101453 l -0.2928331,-0.29283 v -0.29284 l 0.2928331,0.29284 q 7.1451282,-8.66786 22.4310162,-9.19496 z m 4.216797,-15.812984 q 15.285889,0.5271 22.431016,9.19496 l 0.292834,-0.29284 v 0.29284 l -0.292834,0.29283 q 5.38813,8.199326 5.38813,17.101452 v 30.278944 q 0,10.249159 -7.789361,19.736952 -5.798096,6.442328 -20.029785,7.496528 v -15.988688 q 8.66786,-2.986898 8.66786,-11.830458 v -30.630344 q -1.756998,-8.609293 -8.66786,-9.663492 z"
         style="font-size:119.94444275px;stroke-width:0.26458332"
         id="path45" />
    </g>
    <g
       style="font-style:normal;font-variant:normal;font-weight:normal;font-stretch:normal;font-size:40px;line-height:1.25;font-family:'Capture Smallz Clean';-inkscape-font-specification:'Capture Smallz Clean';letter-spacing:0px;word-spacing:0px;fill:#000000;fill-opacity:1;stroke:none"
       id="flowRoot131" />
  </g>
</svg>
