<?xml version="1.0" encoding="UTF-8" standalone="no"?>
<!-- Created with Inkscape (http://www.inkscape.org/) -->

<svg
   xmlns:dc="http://purl.org/dc/elements/1.1/"
   xmlns:cc="http://creativecommons.org/ns#"
   xmlns:rdf="http://www.w3.org/1999/02/22-rdf-syntax-ns#"
   xmlns:svg="http://www.w3.org/2000/svg"
   xmlns="http://www.w3.org/2000/svg"
   xmlns:sodipodi="http://sodipodi.sourceforge.net/DTD/sodipodi-0.dtd"
   xmlns:inkscape="http://www.inkscape.org/namespaces/inkscape"
   width="297mm"
   height="420mm"
   viewBox="0 0 297 420"
   version="1.1"
   id="svg8"
   inkscape:version="0.92.3 (2405546, 2018-03-11)"
   sodipodi:docname="BuchstabenvorlageCaptureIt_3456.svg"
   inkscape:export-filename="/home/housemeista/Dropbox/Fla/Stencilkram Inkscape/Vorlagen/schildcyber.png"
   inkscape:export-xdpi="96"
   inkscape:export-ydpi="96">
  <defs
     id="defs2" />
  <sodipodi:namedview
     id="base"
     pagecolor="#ffffff"
     bordercolor="#666666"
     borderopacity="1.0"
     inkscape:pageopacity="0"
     inkscape:pageshadow="2"
     inkscape:zoom="0.98994949"
     inkscape:cx="716.68701"
     inkscape:cy="1269.9467"
     inkscape:document-units="mm"
     inkscape:current-layer="layer1"
     showgrid="true"
     inkscape:pagecheckerboard="true"
     inkscape:window-width="1920"
     inkscape:window-height="1031"
     inkscape:window-x="0"
     inkscape:window-y="25"
     inkscape:window-maximized="1"
     showguides="true"
     inkscape:guide-bbox="true">
    <inkscape:grid
       type="xygrid"
       id="grid3713" />
    <sodipodi:guide
       position="158.75,210"
       orientation="0,1"
       id="guide21"
       inkscape:locked="false"
       inkscape:label=""
       inkscape:color="rgb(0,0,255)" />
    <sodipodi:guide
       position="30,285"
       orientation="1,0"
       id="guide23"
       inkscape:locked="false"
       inkscape:label=""
       inkscape:color="rgb(0,0,255)" />
    <sodipodi:guide
       position="201.08334,315"
       orientation="0,1"
       id="guide25"
       inkscape:locked="false"
       inkscape:label=""
       inkscape:color="rgb(0,0,255)" />
    <sodipodi:guide
       position="312.20833,105"
       orientation="0,1"
       id="guide27"
       inkscape:locked="false"
       inkscape:label=""
       inkscape:color="rgb(0,0,255)" />
    <sodipodi:guide
       position="148,269.87499"
       orientation="1,0"
       id="guide51"
       inkscape:locked="false"
       inkscape:label=""
       inkscape:color="rgb(0,0,255)" />
    <sodipodi:guide
       position="178,341.31249"
       orientation="1,0"
       id="guide141"
       inkscape:locked="false"
       inkscape:label=""
       inkscape:color="rgb(0,0,255)" />
    <sodipodi:guide
       position="118,359.83333"
       orientation="1,0"
       id="guide143"
       inkscape:locked="false"
       inkscape:label=""
       inkscape:color="rgb(0,0,255)" />
    <sodipodi:guide
       position="63.500002,399.52082"
       orientation="0,1"
       id="guide145"
       inkscape:locked="false" />
  </sodipodi:namedview>
  <metadata
     id="metadata5">
    <rdf:RDF>
      <cc:Work
         rdf:about="">
        <dc:format>image/svg+xml</dc:format>
        <dc:type
           rdf:resource="http://purl.org/dc/dcmitype/StillImage" />
        <dc:title></dc:title>
      </cc:Work>
    </rdf:RDF>
  </metadata>
  <g
     inkscape:label="Ebene 1"
     inkscape:groupmode="layer"
     id="layer1"
     transform="translate(0,123)">
    <g
       aria-label="3"
       transform="rotate(90)"
       style="font-style:normal;font-variant:normal;font-weight:normal;font-stretch:normal;font-size:10.58333302px;line-height:1.25;font-family:'Capture Smallz Clean';-inkscape-font-specification:'Capture Smallz Clean';letter-spacing:0px;word-spacing:0px;fill:#000000;fill-opacity:1;stroke:none;stroke-width:0.26458332"
       id="text31">
      <path
         d="m -73.149764,-193.34202 q 10.190592,-1.28847 10.190592,-9.42923 v -2.40123 q 0.468533,-4.56819 -4.15823,-7.43796 -0.937066,-1.46416 -6.208062,-1.87413 l -6.793728,-0.0586 -0.05857,-15.75442 6.852294,0.0586 q 1.639866,-0.23427 3.513998,-0.23427 5.329562,-2.2841 5.329562,-8.31646 l -0.292833,-2.1084 -0.878499,-1.46416 q -2.342665,-3.3383 -7.086561,-3.80683 v -0.0586 h -0.585667 l -0.117133,-15.81299 h 4.451063 v 0.11713 q 17.218587,1.17134 22.079617,14.17313 1.229899,2.86976 1.229899,6.55946 v 1.46416 q 0.05857,3.22117 -1.522732,5.38813 -1.874132,5.50527 -6.208062,8.90213 l -2.694065,1.52273 -1.405599,0.46854 q 2.284099,1.22989 3.748264,1.93269 8.902127,5.271 10.132026,15.75443 0.292833,1.11276 0.292833,2.69406 -0.468533,7.43796 -1.464166,8.60929 -0.585666,3.1626 -4.15823,7.43796 -4.216797,5.91523 -15.227322,8.37503 l -4.099663,0.23427 h -4.978163 z m -14.348822,-50.8944 q -3.045465,2.75264 -3.513998,8.4336 l -16.691486,-1.5813 q 0.58567,-13.47032 9.194959,-18.91702 7.730794,-6.20806 22.19675,-5.85666 l 0.117133,15.63729 q -7.437961,-0.29284 -11.303358,2.10839 z m 0.1757,48.31747 q 5.095296,2.86976 11.303358,2.40123 l -0.117134,15.28589 q -14.465955,0.40996 -22.196749,-5.7981 -8.609289,-5.44669 -9.194959,-18.97558 l 16.691486,-1.5813 q 0.468533,5.73953 3.513998,8.43359 z"
         style="font-size:119.94444275px;stroke-width:0.26458332"
         id="path59" />
    </g>
    <g
       aria-label="4"
       transform="rotate(90)"
       style="font-style:normal;font-variant:normal;font-weight:normal;font-stretch:normal;font-size:10.58333302px;line-height:1.25;font-family:'Capture Smallz Clean';-inkscape-font-specification:'Capture Smallz Clean';letter-spacing:0px;word-spacing:0px;fill:#000000;fill-opacity:1;stroke:none;stroke-width:0.26458332"
       id="text31-3">
      <path
         d="m 35.577985,-261.99636 h 1.347032 v 25.35935 l -13.763156,16.16439 H 1.4336438 l -0.1756999,-0.58567 z M 0.67227766,-199.4472 0.61371104,-218.59849 H 36.163651 l -0.117133,19.20985 z M 73.002056,-216.66579 h -0.05857 v 0.58566 h 0.05857 v 16.28153 l -11.186225,0.0586 0.117134,-18.50705 h 10.541992 l 0.527099,0.58567 z m -15.578721,-45.33057 0.937066,1.11277 -0.05857,83.04747 H 39.970481 l -0.702799,-0.58567 v -82.6375 l 0.819933,-0.93707 z"
         style="font-size:119.94444275px;stroke-width:0.26458332"
         id="path62" />
    </g>
    <g
       aria-label="5"
       transform="rotate(90)"
       style="font-style:normal;font-variant:normal;font-weight:normal;font-stretch:normal;font-size:10.58333302px;line-height:1.25;font-family:'Capture Smallz Clean';-inkscape-font-specification:'Capture Smallz Clean';letter-spacing:0px;word-spacing:0px;fill:#000000;fill-opacity:1;stroke:none;stroke-width:0.26458332"
       id="text31-7">
      <path
         d="m -43.959381,-99.436933 -0.995633,0.937066 H -94.09241 l -0.644233,-0.761366 1.874132,-14.231687 h 3.689697 l 0.117134,-0.46854 h 43.6907 l 1.405599,1.34704 z m -43.924967,43.456434 1.288466,0.878499 q 0.702799,4.919597 4.451063,7.379395 3.806831,2.576931 9.37066,2.811198 l 0.761366,0.937065 v 13.411757 l -0.761366,0.819933 q -6.090929,-0.234267 -11.830458,-1.815566 -5.680962,-1.581298 -9.429226,-4.568196 -8.023627,-7.145128 -9.312097,-17.218587 l 0.8785,-1.229899 z m 19.209852,11.947591 0.468533,-0.585666 q 4.50963,-1.464166 7.555095,-4.33393 3.748263,-4.041097 3.748263,-9.780626 0,-6.325196 -3.221164,-9.604926 -2.928331,-2.928332 -7.437961,-3.806831 l -1.112766,-1.405599 v -13.060357 l 1.054199,-1.347032 q 2.225532,-0.234266 7.965061,1.522732 5.798096,1.698432 11.537625,7.086562 8.31646,7.847927 8.31646,20.615451 0,12.181857 -8.66786,20.381184 -8.375027,7.847928 -19.268419,8.902127 l -0.937066,-0.878499 z m -13.294623,-25.535048 -15.578722,-7.203694 -0.117133,-0.292833 2.342665,-17.68712 0.5271,-0.5271 h 16.047254 l -1.054199,7.965061 q 2.225532,-0.995633 6.618028,-0.819933 l 1.0542,1.347032 0.05857,13.411757 -0.819933,0.819933 q -5.505262,0.292833 -9.077826,2.986897 z"
         style="font-size:119.94444275px;stroke-width:0.26458332"
         id="path65" />
    </g>
    <g
       aria-label="6"
       transform="rotate(90)"
       style="font-style:normal;font-variant:normal;font-weight:normal;font-stretch:normal;font-size:10.58333302px;line-height:1.25;font-family:'Capture Smallz Clean';-inkscape-font-specification:'Capture Smallz Clean';letter-spacing:0px;word-spacing:0px;fill:#000000;fill-opacity:1;stroke:none;stroke-width:0.26458332"
       id="text31-7-3">
      <path
         d="m 29.725115,-98.268756 q -6.910862,1.054199 -8.66786,9.663493 v 30.630343 q 0,8.84356 8.66786,11.830458 v 15.988688 Q 15.493425,-31.209973 9.6953299,-37.652302 1.9059691,-47.140095 1.9059691,-57.389254 v -30.278943 q 0,-8.902127 5.3881293,-17.101453 l -0.2928332,-0.29283 v -0.29284 l 0.2928332,0.29284 q 7.1451276,-8.66786 22.4310166,-9.19496 z m 3.572564,13.236057 q 15.285888,0.527099 22.431016,9.194959 l 0.292833,-0.292833 v 0.292833 l -0.292833,0.292833 q 5.388129,8.199328 5.388129,17.101454 v 0.995633 q 0,10.249159 -7.78936,19.736951 -5.798096,6.442329 -20.029785,7.496528 v -15.988688 q 8.66786,-2.986898 8.66786,-11.830458 v -1.347032 q -1.756999,-8.609293 -8.66786,-9.663493 l -9.077827,0.117134 v -16.164388 z m -0.3514,-28.990481 q 11.713324,0 20.615451,7.08656 5.212429,4.68533 7.613661,17.335724 v 0.819933 l -8.902127,1.171332 -7.437961,0.5271 q -0.995632,-6.910862 -3.689697,-9.077827 -2.166965,-1.991265 -8.31646,-2.401231 z"
         style="font-size:119.94444275px;stroke-width:0.26458332"
         id="path68" />
    </g>
    <g
       style="font-style:normal;font-variant:normal;font-weight:normal;font-stretch:normal;font-size:40px;line-height:1.25;font-family:'Capture Smallz Clean';-inkscape-font-specification:'Capture Smallz Clean';letter-spacing:0px;word-spacing:0px;fill:#000000;fill-opacity:1;stroke:none"
       id="flowRoot131" />
  </g>
</svg>
