<?xml version="1.0" encoding="UTF-8" standalone="no"?>
<!-- Created with Inkscape (http://www.inkscape.org/) -->

<svg
   xmlns:dc="http://purl.org/dc/elements/1.1/"
   xmlns:cc="http://creativecommons.org/ns#"
   xmlns:rdf="http://www.w3.org/1999/02/22-rdf-syntax-ns#"
   xmlns:svg="http://www.w3.org/2000/svg"
   xmlns="http://www.w3.org/2000/svg"
   xmlns:sodipodi="http://sodipodi.sourceforge.net/DTD/sodipodi-0.dtd"
   xmlns:inkscape="http://www.inkscape.org/namespaces/inkscape"
   width="297mm"
   height="420mm"
   viewBox="0 0 297 420"
   version="1.1"
   id="svg8"
   inkscape:version="0.92.3 (2405546, 2018-03-11)"
   sodipodi:docname="BuchstabenvorlageCaptureIt_PQRS.svg"
   inkscape:export-filename="/home/housemeista/Dropbox/Fla/Stencilkram Inkscape/Vorlagen/schildcyber.png"
   inkscape:export-xdpi="96"
   inkscape:export-ydpi="96">
  <defs
     id="defs2" />
  <sodipodi:namedview
     id="base"
     pagecolor="#ffffff"
     bordercolor="#666666"
     borderopacity="1.0"
     inkscape:pageopacity="0"
     inkscape:pageshadow="2"
     inkscape:zoom="0.98994949"
     inkscape:cx="579.09623"
     inkscape:cy="1027.5101"
     inkscape:document-units="mm"
     inkscape:current-layer="layer1"
     showgrid="true"
     inkscape:pagecheckerboard="true"
     inkscape:window-width="1920"
     inkscape:window-height="1031"
     inkscape:window-x="0"
     inkscape:window-y="25"
     inkscape:window-maximized="1"
     showguides="true"
     inkscape:guide-bbox="true">
    <inkscape:grid
       type="xygrid"
       id="grid3713" />
    <sodipodi:guide
       position="158.75,210"
       orientation="0,1"
       id="guide21"
       inkscape:locked="false"
       inkscape:label=""
       inkscape:color="rgb(0,0,255)" />
    <sodipodi:guide
       position="30,285"
       orientation="1,0"
       id="guide23"
       inkscape:locked="false"
       inkscape:label=""
       inkscape:color="rgb(0,0,255)" />
    <sodipodi:guide
       position="201.08334,315"
       orientation="0,1"
       id="guide25"
       inkscape:locked="false"
       inkscape:label=""
       inkscape:color="rgb(0,0,255)" />
    <sodipodi:guide
       position="312.20833,105"
       orientation="0,1"
       id="guide27"
       inkscape:locked="false"
       inkscape:label=""
       inkscape:color="rgb(0,0,255)" />
    <sodipodi:guide
       position="148,269.87499"
       orientation="1,0"
       id="guide51"
       inkscape:locked="false"
       inkscape:label=""
       inkscape:color="rgb(0,0,255)" />
    <sodipodi:guide
       position="178,341.31249"
       orientation="1,0"
       id="guide141"
       inkscape:locked="false"
       inkscape:label=""
       inkscape:color="rgb(0,0,255)" />
    <sodipodi:guide
       position="118,359.83333"
       orientation="1,0"
       id="guide143"
       inkscape:locked="false"
       inkscape:label=""
       inkscape:color="rgb(0,0,255)" />
    <sodipodi:guide
       position="63.500002,399.52082"
       orientation="0,1"
       id="guide145"
       inkscape:locked="false" />
  </sodipodi:namedview>
  <metadata
     id="metadata5">
    <rdf:RDF>
      <cc:Work
         rdf:about="">
        <dc:format>image/svg+xml</dc:format>
        <dc:type
           rdf:resource="http://purl.org/dc/dcmitype/StillImage" />
        <dc:title></dc:title>
      </cc:Work>
    </rdf:RDF>
  </metadata>
  <g
     inkscape:label="Ebene 1"
     inkscape:groupmode="layer"
     id="layer1"
     transform="translate(0,123)">
    <g
       aria-label="P"
       transform="rotate(90)"
       style="font-style:normal;font-variant:normal;font-weight:normal;font-stretch:normal;font-size:10.58333302px;line-height:1.25;font-family:'Capture Smallz Clean';-inkscape-font-specification:'Capture Smallz Clean';letter-spacing:0px;word-spacing:0px;fill:#000000;fill-opacity:1;stroke:none;stroke-width:0.26458332"
       id="text31">
      <path
         d="m -67.33306,-262.27494 q 16.925754,0 24.539415,9.54636 5.388129,8.19933 5.388129,17.10146 v 1.17133 q 0,10.24916 -5.680962,17.97995 -7.613661,10.30773 -30.220378,9.54636 h -7.496527 v -15.81298 h 15.285888 q 8.960694,-3.27974 8.960694,-12.299 v -1.52273 q -1.991266,-9.83919 -10.776259,-10.19059 h -13.470323 v -15.52016 z m -16.515788,84.39451 h -19.092722 v -84.16024 h 19.092722 z"
         style="font-size:119.94444275px;stroke-width:0.26458332"
         id="path59" />
    </g>
    <g
       aria-label="Q"
       transform="rotate(90)"
       style="font-style:normal;font-variant:normal;font-weight:normal;font-stretch:normal;font-size:10.58333302px;line-height:1.25;font-family:'Capture Smallz Clean';-inkscape-font-specification:'Capture Smallz Clean';letter-spacing:0px;word-spacing:0px;fill:#000000;fill-opacity:1;stroke:none;stroke-width:0.26458332"
       id="text31-3">
      <path
         d="m 33.566049,-246.53477 q -7.320828,0.8785 -12.708957,7.7308 -6.149495,7.84792 -6.149495,18.97558 0,11.06909 6.149495,18.91702 5.388129,6.91086 12.708957,7.78936 v 15.22732 q -15.520155,-0.58566 -26.6478132,-12.29899 -11.7718911,-12.29899 -11.7718911,-29.75184 0,-17.45286 11.7718911,-29.81041 11.1276582,-11.65476 26.6478132,-12.24043 z m 22.840983,62.49059 q -8.84356,5.85666 -19.795519,6.20806 v -15.16876 q 8.140761,-0.40996 13.938856,-7.90649 6.149496,-7.84793 6.149496,-18.91702 0,-11.12766 -6.149496,-18.97558 -5.798095,-7.43797 -13.938856,-7.84793 v -15.40302 q 15.754422,0.5271 27.05778,12.29899 11.771891,12.35755 11.771891,29.81041 0,14.29025 -7.906494,25.12508 l 5.915229,5.85666 -10.834825,11.01053 z"
         style="font-size:119.94444275px;stroke-width:0.26458332"
         id="path62" />
    </g>
    <g
       aria-label="R"
       transform="rotate(90)"
       style="font-style:normal;font-variant:normal;font-weight:normal;font-stretch:normal;font-size:10.58333302px;line-height:1.25;font-family:'Capture Smallz Clean';-inkscape-font-specification:'Capture Smallz Clean';letter-spacing:0px;word-spacing:0px;fill:#000000;fill-opacity:1;stroke:none;stroke-width:0.26458332"
       id="text31-7">
      <path
         d="m -86.428453,-29.918352 h -19.092717 v -84.160238 h 19.092717 z m 38.361138,-37.775472 q 2.225532,2.284099 4.275363,6.618029 0.8785,0.937066 1.522733,7.496527 l 0.585666,2.986898 q 1.991265,11.947591 3.279731,15.110189 0.819932,2.401231 3.572564,5.563829 h -19.971219 q -1.229899,-0.117133 -3.572564,-7.262261 -0.527099,-0.8785 -2.986897,-16.691488 -1.054199,-3.748264 -4.802463,-5.973795 -3.513998,-1.229899 -17.218587,-1.229899 V -76.303117 H -68.0971 q 8.960693,-3.162598 8.960693,-11.830458 v -1.464165 q -1.991265,-9.429227 -10.776258,-9.780626 h -13.470323 v -14.934494 h 13.470323 q 16.925754,0 24.539415,9.19496 5.388129,7.847932 5.388129,16.457226 v 1.112765 q 0,9.839193 -5.680962,17.277154 -1.0542,1.405599 -2.401232,2.576931 z"
         style="font-size:119.94444275px;stroke-width:0.26458332"
         id="path65" />
    </g>
    <g
       aria-label="S"
       transform="rotate(90)"
       style="font-style:normal;font-variant:normal;font-weight:normal;font-stretch:normal;font-size:10.58333302px;line-height:1.25;font-family:'Capture Smallz Clean';-inkscape-font-specification:'Capture Smallz Clean';letter-spacing:0px;word-spacing:0px;fill:#000000;fill-opacity:1;stroke:none;stroke-width:0.26458332"
       id="text31-7-3">
      <path
         d="m 23.517053,-49.072793 q 5.388129,3.104031 10.249159,3.689697 l 1.698432,0.292833 -0.117133,15.051622 Q 20.061622,-29.628675 11.920862,-36.30527 2.843035,-42.161932 2.1988022,-56.686454 l 17.6285538,-1.698432 q 0.468533,6.149495 3.689697,9.077826 z m 6.325195,-16.808621 Q 4.5414671,-70.44961 4.5414671,-89.36663 v -1.112765 q 0,-19.736955 25.5350469,-23.250945 l 5.270997,-0.11714 0.117133,13.997425 q -5.739529,0.468533 -7.965061,1.405599 -4.626763,1.756999 -4.50963,7.965061 0,5.798095 14.700222,8.49216 3.689698,0.644233 6.032363,1.229899 26.062146,4.33393 26.062146,24.832248 v 1.171332 q 0,21.025418 -25.535047,24.773682 l -5.739529,0.1757 V -44.62173 q 6.090929,-0.644233 8.31646,-1.639865 4.626764,-1.874132 4.50963,-8.492161 0,-6.208062 -14.524522,-9.604926 -3.279731,-0.995632 -7.203694,-1.698432 z m 8.375027,-48.141766 q 12.591824,0 22.19675,7.08656 5.622396,4.68533 8.199327,17.335724 v 0.819933 l -9.604926,1.171332 -7.965061,0.5271 q -1.112766,-6.910862 -3.98253,-9.077827 -2.342665,-1.991265 -8.784993,-3.689697 z"
         style="font-size:119.94444275px;stroke-width:0.26458332"
         id="path68" />
    </g>
    <g
       style="font-style:normal;font-variant:normal;font-weight:normal;font-stretch:normal;font-size:40px;line-height:1.25;font-family:'Capture Smallz Clean';-inkscape-font-specification:'Capture Smallz Clean';letter-spacing:0px;word-spacing:0px;fill:#000000;fill-opacity:1;stroke:none"
       id="flowRoot131" />
  </g>
</svg>
