<?xml version="1.0" encoding="UTF-8" standalone="no"?>
<!-- Created with Inkscape (http://www.inkscape.org/) -->

<svg
   xmlns:dc="http://purl.org/dc/elements/1.1/"
   xmlns:cc="http://creativecommons.org/ns#"
   xmlns:rdf="http://www.w3.org/1999/02/22-rdf-syntax-ns#"
   xmlns:svg="http://www.w3.org/2000/svg"
   xmlns="http://www.w3.org/2000/svg"
   xmlns:sodipodi="http://sodipodi.sourceforge.net/DTD/sodipodi-0.dtd"
   xmlns:inkscape="http://www.inkscape.org/namespaces/inkscape"
   width="297mm"
   height="420mm"
   viewBox="0 0 297 420"
   version="1.1"
   id="svg8"
   inkscape:version="0.92.3 (2405546, 2018-03-11)"
   sodipodi:docname="BuchstabenvorlageCaptureIt_AD_fertsch.svg"
   inkscape:export-filename="/home/housemeista/Dropbox/Fla/Stencilkram Inkscape/Vorlagen/schildcyber.png"
   inkscape:export-xdpi="96"
   inkscape:export-ydpi="96">
  <defs
     id="defs2" />
  <sodipodi:namedview
     id="base"
     pagecolor="#ffffff"
     bordercolor="#666666"
     borderopacity="1.0"
     inkscape:pageopacity="0"
     inkscape:pageshadow="2"
     inkscape:zoom="0.98994949"
     inkscape:cx="1597.0265"
     inkscape:cy="1108.3223"
     inkscape:document-units="mm"
     inkscape:current-layer="layer1"
     showgrid="true"
     inkscape:pagecheckerboard="true"
     inkscape:window-width="1920"
     inkscape:window-height="1031"
     inkscape:window-x="0"
     inkscape:window-y="25"
     inkscape:window-maximized="1"
     showguides="true"
     inkscape:guide-bbox="true">
    <inkscape:grid
       type="xygrid"
       id="grid3713" />
    <sodipodi:guide
       position="158.75,210"
       orientation="0,1"
       id="guide21"
       inkscape:locked="false"
       inkscape:label=""
       inkscape:color="rgb(0,0,255)" />
    <sodipodi:guide
       position="30,285"
       orientation="1,0"
       id="guide23"
       inkscape:locked="false"
       inkscape:label=""
       inkscape:color="rgb(0,0,255)" />
    <sodipodi:guide
       position="201.08334,315"
       orientation="0,1"
       id="guide25"
       inkscape:locked="false"
       inkscape:label=""
       inkscape:color="rgb(0,0,255)" />
    <sodipodi:guide
       position="312.20833,105"
       orientation="0,1"
       id="guide27"
       inkscape:locked="false"
       inkscape:label=""
       inkscape:color="rgb(0,0,255)" />
    <sodipodi:guide
       position="148,269.87499"
       orientation="1,0"
       id="guide51"
       inkscape:locked="false"
       inkscape:label=""
       inkscape:color="rgb(0,0,255)" />
    <sodipodi:guide
       position="178,341.31249"
       orientation="1,0"
       id="guide141"
       inkscape:locked="false"
       inkscape:label=""
       inkscape:color="rgb(0,0,255)" />
    <sodipodi:guide
       position="118,359.83333"
       orientation="1,0"
       id="guide143"
       inkscape:locked="false"
       inkscape:label=""
       inkscape:color="rgb(0,0,255)" />
    <sodipodi:guide
       position="63.500002,399.52082"
       orientation="0,1"
       id="guide145"
       inkscape:locked="false" />
  </sodipodi:namedview>
  <metadata
     id="metadata5">
    <rdf:RDF>
      <cc:Work
         rdf:about="">
        <dc:format>image/svg+xml</dc:format>
        <dc:type
           rdf:resource="http://purl.org/dc/dcmitype/StillImage" />
        <dc:title></dc:title>
      </cc:Work>
    </rdf:RDF>
  </metadata>
  <g
     inkscape:label="Ebene 1"
     inkscape:groupmode="layer"
     id="layer1"
     transform="translate(0,123)">
    <g
       aria-label="A"
       transform="rotate(90)"
       style="font-style:normal;font-variant:normal;font-weight:normal;font-stretch:normal;font-size:10.58333302px;line-height:1.25;font-family:'Capture Smallz Clean';-inkscape-font-specification:'Capture Smallz Clean';letter-spacing:0px;word-spacing:0px;fill:#000000;fill-opacity:1;stroke:none;stroke-width:0.26458332"
       id="text31">
      <path
         d="m -61.553573,-261.86497 29.693278,83.98454 h -21.66965 l -5.622396,-17.86282 H -82.40329 l 4.50963,-15.52016 h 14.290256 v -0.29283 l -8.66786,-30.92318 h -0.292834 l -18.155653,64.59899 h -16.984319 v -12.18186 l 24.422281,-71.80268 z"
         style="font-size:119.94444275px;stroke-width:0.26458332"
         id="path276" />
    </g>
    <g
       aria-label="B"
       transform="rotate(90)"
       style="font-style:normal;font-variant:normal;font-weight:normal;font-stretch:normal;font-size:10.58333302px;line-height:1.25;font-family:'Capture Smallz Clean';-inkscape-font-specification:'Capture Smallz Clean';letter-spacing:0px;word-spacing:0px;fill:#000000;fill-opacity:1;stroke:none;stroke-width:0.26458332"
       id="text31-3">
      <path
         d="M 19.53073,-177.83612 H 0.43801117 v -84.16024 H 19.53073 Z m 21.025418,-84.16024 q 20.264051,0 25.593614,14.40739 1.229899,2.86977 1.229899,6.61803 v 1.46417 q 0,7.90649 -7.730795,14.40739 l -2.694064,1.52273 -1.405599,0.46853 q 2.284098,1.2299 3.748264,1.9327 8.902126,5.32956 10.132025,15.87155 0.292834,1.17134 0.292834,2.75263 -0.468533,7.49653 -1.464166,8.66786 -0.585666,3.1626 -4.15823,7.49653 -4.216797,5.9738 -15.227322,8.4336 -2.928331,0.1757 -8.550727,0.1757 H 22.751894 v -15.22733 h 17.569987 q 9.604926,-2.45979 9.780626,-9.25352 v -2.4598 q 0.468533,-4.5682 -4.15823,-7.49653 -0.937066,-1.46416 -5.622396,-1.87413 h -17.51142 v -15.87155 h 17.51142 l 2.928331,-0.23427 q 5.329563,-2.2841 5.329563,-8.37503 l -0.292833,-2.1084 -0.585667,-1.46416 q -2.635498,-3.39687 -7.379394,-3.8654 H 22.576194 v -15.98869 z"
         style="font-size:119.94444275px;stroke-width:0.26458332"
         id="path279" />
    </g>
    <g
       aria-label="C"
       transform="rotate(90)"
       style="font-style:normal;font-variant:normal;font-weight:normal;font-stretch:normal;font-size:10.58333302px;line-height:1.25;font-family:'Capture Smallz Clean';-inkscape-font-specification:'Capture Smallz Clean';letter-spacing:0px;word-spacing:0px;fill:#000000;fill-opacity:1;stroke:none;stroke-width:0.26458332"
       id="text31-7">
      <path
         d="m -67.101467,-98.617 q -7.320828,0.878499 -12.708957,7.730794 -6.149496,7.847927 -6.149496,18.975586 0,11.069091 6.149496,18.917019 5.388129,6.910861 12.708957,7.78936 v 15.227322 q -15.520155,-0.585666 -26.647813,-12.29899 -11.77189,-12.298991 -11.77189,-29.751845 0,-17.452853 11.77189,-29.810406 11.127658,-11.65476 26.647813,-12.24043 z m 16.98432,7.730794 q -5.798095,-7.437961 -13.938856,-7.847927 v -15.403027 q 15.754422,0.5271 27.05778,12.299 5.739529,6.032358 8.66786,13.294619 l -16.632921,8.199327 q -1.464166,-5.856662 -5.153863,-10.541992 z m 20.556885,38.185438 q -2.811198,5.622395 -7.437961,10.424859 -11.303358,11.830457 -27.05778,12.357557 v -15.168755 q 8.140761,-0.409967 13.938856,-7.906494 2.869765,-3.689698 4.392497,-8.082194 z"
         style="font-size:119.94444275px;stroke-width:0.26458332"
         id="path282" />
    </g>
    <g
       aria-label="D"
       transform="rotate(90)"
       style="font-style:normal;font-variant:normal;font-weight:normal;font-stretch:normal;font-size:10.58333302px;line-height:1.25;font-family:'Capture Smallz Clean';-inkscape-font-specification:'Capture Smallz Clean';letter-spacing:0px;word-spacing:0px;fill:#000000;fill-opacity:1;stroke:none;stroke-width:0.26458332"
       id="text31-7-3">
      <path
         d="M 21.057255,-30.038641 H 1.9645357 V -114.19888 H 21.057255 Z m 27.292046,-58.683756 q -1.991265,-9.839192 -10.776259,-10.014892 l -13.470323,-0.1757 v -15.520151 h 13.470323 q 16.925754,0 24.539415,9.54636 5.388129,8.199323 5.388129,17.101449 v 31.04031 q 0,8.902127 -5.388129,17.101454 -7.613661,9.546359 -24.539415,9.546359 H 24.102719 v -15.520155 l 13.470323,-0.175699 q 8.784994,-0.1757 10.776259,-10.014893 z"
         style="font-size:119.94444275px;stroke-width:0.26458332"
         id="path285" />
    </g>
    <g
       style="font-style:normal;font-variant:normal;font-weight:normal;font-stretch:normal;font-size:40px;line-height:1.25;font-family:'Capture Smallz Clean';-inkscape-font-specification:'Capture Smallz Clean';letter-spacing:0px;word-spacing:0px;fill:#000000;fill-opacity:1;stroke:none"
       id="flowRoot131" />
  </g>
</svg>
