<?xml version="1.0" encoding="UTF-8" standalone="no"?>
<!-- Created with Inkscape (http://www.inkscape.org/) -->

<svg
   xmlns:dc="http://purl.org/dc/elements/1.1/"
   xmlns:cc="http://creativecommons.org/ns#"
   xmlns:rdf="http://www.w3.org/1999/02/22-rdf-syntax-ns#"
   xmlns:svg="http://www.w3.org/2000/svg"
   xmlns="http://www.w3.org/2000/svg"
   xmlns:sodipodi="http://sodipodi.sourceforge.net/DTD/sodipodi-0.dtd"
   xmlns:inkscape="http://www.inkscape.org/namespaces/inkscape"
   width="297mm"
   height="420mm"
   viewBox="0 0 297 420"
   version="1.1"
   id="svg8"
   inkscape:version="0.92.3 (2405546, 2018-03-11)"
   sodipodi:docname="dreieckhochkant.svg"
   inkscape:export-filename="/home/housemeista/Dropbox/Fla/Stencilkram Inkscape/Vorlagen/schildcyber.png"
   inkscape:export-xdpi="96"
   inkscape:export-ydpi="96">
  <defs
     id="defs2" />
  <sodipodi:namedview
     id="base"
     pagecolor="#ffffff"
     bordercolor="#666666"
     borderopacity="1.0"
     inkscape:pageopacity="0"
     inkscape:pageshadow="2"
     inkscape:zoom="0.49497475"
     inkscape:cx="-43.110804"
     inkscape:cy="988.2583"
     inkscape:document-units="mm"
     inkscape:current-layer="layer1"
     showgrid="true"
     inkscape:pagecheckerboard="true"
     inkscape:window-width="1920"
     inkscape:window-height="1031"
     inkscape:window-x="0"
     inkscape:window-y="25"
     inkscape:window-maximized="1"
     showguides="false">
    <inkscape:grid
       type="xygrid"
       id="grid3713" />
  </sodipodi:namedview>
  <metadata
     id="metadata5">
    <rdf:RDF>
      <cc:Work
         rdf:about="">
        <dc:format>image/svg+xml</dc:format>
        <dc:type
           rdf:resource="http://purl.org/dc/dcmitype/StillImage" />
        <dc:title></dc:title>
      </cc:Work>
    </rdf:RDF>
  </metadata>
  <g
     inkscape:label="Ebene 1"
     inkscape:groupmode="layer"
     id="layer1"
     transform="translate(0,123)">
    <g
       id="g1221"
       transform="matrix(0,-3.6000682,3.6000682,0,-228.78626,707.08285)">
      <path
         inkscape:connector-curvature="0"
         id="use197-3"
         d="m 201.37871,107.74495 a 2.1001302,2.1001302 0 0 0 -1.61829,-2.80298 v -1.0878 a 7.3504556,7.3504556 0 0 0 1.05006,-14.558033 v -0.39084 a 10.500651,10.500651 0 0 1 8.95881,12.126713 10.500651,10.500651 0 0 1 6.02261,13.82188 l -0.33847,-0.19545 a 7.3504556,7.3504556 0 0 0 -13.13267,-6.36963 z m 2.39051,-6.2101 a 7.0004339,7.0004339 0 0 0 -8.71764,0 6.6504123,6.6504123 0 0 1 -1.52302,-1.9193 9.4505858,9.4505858 0 0 1 11.76367,0 7.0004339,7.0004339 0 0 1 -1.52301,1.9193 z"
         style="stroke-width:0.70004338" />
      <path
         inkscape:connector-curvature="0"
         id="use199-6"
         d="m 197.64375,108.88125 a 2.1001302,2.1001302 0 0 0 3.23659,1e-5 l 0.94206,0.5439 a 7.3504556,7.3504556 0 0 0 12.08259,8.18839 l 0.33848,0.19542 a 10.500651,10.500651 0 0 1 -14.98145,1.6952 10.500651,10.500651 0 0 1 -14.98139,-1.6952 l 0.3385,-0.1954 a 7.3504556,7.3504556 0 0 0 12.08259,-8.18841 z m 4.18284,5.17528 a 7.0004339,7.0004339 0 0 0 4.35882,-7.54969 6.6504123,6.6504123 0 0 1 2.42367,-0.35932 9.4505858,9.4505858 0 0 1 -5.88183,10.18764 7.0004339,7.0004339 0 0 1 -0.90066,-2.27863 z"
         style="stroke-width:0.70004338" />
      <path
         inkscape:connector-curvature="0"
         id="use201-7"
         d="m 198.43753,104.94196 a 2.1001302,2.1001302 0 0 0 -1.61831,2.80294 l -0.94206,0.5439 a 7.3504556,7.3504556 0 0 0 -13.13265,6.36963 l -0.33848,0.19543 a 10.500651,10.500651 0 0 1 6.02264,-13.82192 10.500651,10.500651 0 0 1 8.95878,-12.126675 l -3e-5,0.390869 a 7.3504556,7.3504556 0 0 0 1.05008,14.558036 z m -6.57335,1.03478 a 7.0004339,7.0004339 0 0 0 4.35882,7.5497 6.6504123,6.6504123 0 0 1 -0.90066,2.27862 9.4505858,9.4505858 0 0 1 -5.88184,-10.18762 7.0004339,7.0004339 0 0 1 2.42368,0.3593 z"
         style="stroke-width:0.70004338" />
    </g>
    <path
       style="fill:#000000;stroke-width:0.26458332"
       inkscape:connector-curvature="0"
       id="path1229"
       d="m 115.30806,118.00937 c -19.96546,11.5279 -32.416752,32.59667 -33.014712,55.5625 l -0.0582,34.25561 5.09323,-3.29142 v -29.24439 h 4.46352 v 26.35779 l 5.095882,-3.28877 v -23.06902 h 4.28096 v 20.29883 l 5.09323,-3.29142 v -17.00741 h 4.2836 v 14.23723 l 5.09323,-3.28878 v -10.94845 h 4.2836 v 8.17827 l 5.09323,-3.29142 v -4.88685 h 3.5216 c 0,-6.95061 3.6539,-13.36146 9.58321,-16.94921 6.29444,-3.81529 14.22665,-3.81529 20.52108,0 5.92932,3.58775 9.58321,9.9986 9.58321,16.94921 h 3.52161 v 4.88685 l 5.09323,3.29142 v -8.17827 h 4.2836 v 10.94845 l 5.09323,3.28878 V 175.29167 H 190.5 v 17.00741 l 5.09323,3.29142 v -20.29883 h 4.28096 v 23.06902 l 5.09588,3.28877 v -26.35779 h 4.46352 v 29.24439 l 5.09323,3.29142 -0.0582,-34.25561 c -0.59798,-22.96583 -13.04927,-44.0346 -33.01473,-55.5625 l -21.85194,37.84336 c -0.61912,-0.43392 -1.28852,-0.81492 -1.99231,-1.18269 -0.80169,-3.32846 -1.91029,-12.05177 -2.64583,-14.43567 -0.14817,-0.46831 -0.45244,-2.11138 -0.5715,-2.58763 -0.73555,-2.91041 -2.90248,-5.17789 -4.18307,-5.73087 -1.08743,-0.46831 -2.38125,-0.77523 -4.56406,-0.74348 -5.70971,0.0952 -6.82096,2.29923 -6.90562,3.10885 -0.12965,1.38378 0.26458,2.98715 0.40481,3.60363 0.0476,-0.45773 0.0397,-0.92604 0.43127,-1.42081 0.38365,-0.50007 1.24619,-0.87577 2.28071,-0.87577 h 4.16719 c 0,0 0.52122,-0.005 0.52122,0.42068 0,0.42334 -0.52122,0.43127 -0.52122,0.43127 h -3.80207 c -0.84137,0 -1.46843,0.1905 -1.84414,0.58738 -0.0503,0.0423 -0.0767,0.0953 -0.10848,0.14023 0.045,-0.0212 0.0926,-0.0344 0.15081,-0.0503 0.24077,-0.0609 0.53446,-0.0741 0.80963,-0.0423 0.52916,0.0794 2.11666,0.61648 2.06639,1.86003 -0.008,0.1852 -0.0503,0.4101 -0.10583,0.56356 -0.762,2.0029 -3.18294,13.3694 -3.88673,15.3379 -0.59796,0.25929 -1.3044,0.46567 -2.159,1.00012 z m 29.75768,14.08906 c 0.59267,0 1.06627,0.48419 1.06627,1.07421 0,0.6006 -0.4736,1.07421 -1.06627,1.07685 -0.59002,0 -1.0742,-0.47625 -1.0742,-1.07685 0,-0.59002 0.48418,-1.07421 1.0742,-1.07421 z m 3.31523,29.96407 c -3.38666,0 -6.76804,1.29381 -9.35037,3.87879 -5.16731,5.16467 -5.16731,13.53608 0,18.70075 5.16466,5.16731 13.53608,5.16731 18.70075,0 5.16731,-5.16467 5.16731,-13.53608 0,-18.70075 -2.58234,-2.58498 -5.96371,-3.87879 -9.35038,-3.87879 z m -9.92187,30.41121 -23.15104,40.10025 c 20.46552,11.81629 45.68031,11.81629 66.14583,0 l -23.15104,-40.10025 c -6.14098,3.54277 -13.70277,3.54541 -19.84375,0 z m 0,0" />
  </g>
</svg>
