<?xml version="1.0" encoding="UTF-8" standalone="no"?>
<!-- Created with Inkscape (http://www.inkscape.org/) -->

<svg
   xmlns:dc="http://purl.org/dc/elements/1.1/"
   xmlns:cc="http://creativecommons.org/ns#"
   xmlns:rdf="http://www.w3.org/1999/02/22-rdf-syntax-ns#"
   xmlns:svg="http://www.w3.org/2000/svg"
   xmlns="http://www.w3.org/2000/svg"
   xmlns:sodipodi="http://sodipodi.sourceforge.net/DTD/sodipodi-0.dtd"
   xmlns:inkscape="http://www.inkscape.org/namespaces/inkscape"
   width="297mm"
   height="420mm"
   viewBox="0 0 297 420"
   version="1.1"
   id="svg8"
   inkscape:version="0.92.3 (2405546, 2018-03-11)"
   sodipodi:docname="schildraw380mmhochkant.svg"
   inkscape:export-filename="/home/housemeista/Dropbox/Fla/Stencilkram Inkscape/Vorlagen/schildcyber.png"
   inkscape:export-xdpi="96"
   inkscape:export-ydpi="96">
  <defs
     id="defs2" />
  <sodipodi:namedview
     id="base"
     pagecolor="#ffffff"
     bordercolor="#666666"
     borderopacity="1.0"
     inkscape:pageopacity="0"
     inkscape:pageshadow="2"
     inkscape:zoom="0.49497475"
     inkscape:cx="607.36079"
     inkscape:cy="837.17625"
     inkscape:document-units="mm"
     inkscape:current-layer="layer1"
     showgrid="true"
     inkscape:pagecheckerboard="true"
     inkscape:window-width="1920"
     inkscape:window-height="1031"
     inkscape:window-x="0"
     inkscape:window-y="25"
     inkscape:window-maximized="1"
     showguides="false">
    <inkscape:grid
       type="xygrid"
       id="grid3713" />
  </sodipodi:namedview>
  <metadata
     id="metadata5">
    <rdf:RDF>
      <cc:Work
         rdf:about="">
        <dc:format>image/svg+xml</dc:format>
        <dc:type
           rdf:resource="http://purl.org/dc/dcmitype/StillImage" />
        <dc:title></dc:title>
      </cc:Work>
    </rdf:RDF>
  </metadata>
  <g
     inkscape:label="Ebene 1"
     inkscape:groupmode="layer"
     id="layer1"
     transform="translate(0,123)">
    <g
       id="g43"
       transform="rotate(90,205.00013,91.999868)">
      <path
         inkscape:connector-curvature="0"
         id="path4021"
         d="M 39.999812,57.000137 C 28.919813,57.000137 20,65.91995 20,76.999951 v 9.999906 h 9.999906 v -9.999906 c 0,-5.540002 4.459906,-9.999906 9.999906,-9.999906 h 9.999908 v -9.999908 z"
         style="fill:#ffcc00;stroke-width:0.23145503" />
      <path
         inkscape:connector-curvature="0"
         id="path4019"
         d="m 60,57.000137 v 9.999908 h 280 v -9.999908 z"
         style="fill:#ffcc00;stroke-width:0.24999984" />
      <path
         inkscape:connector-curvature="0"
         id="path4017"
         d="m 350,57.000137 v 9.999908 h 9.99993 c 5.53998,0 9.9999,4.459904 9.9999,9.999906 v 9.999906 h 10.00043 v -9.999906 c 0,-11.080001 -8.92035,-19.999814 -20.00033,-19.999814 z"
         style="fill:#ffcc00;stroke-width:0.23145503" />
      <path
         inkscape:connector-curvature="0"
         id="path4015"
         d="M 20,96.999762 V 196.99986 h 9.999906 V 96.999762 Z"
         style="fill:#ffcc00;stroke-width:0.23145503" />
      <path
         inkscape:connector-curvature="0"
         id="path4013"
         d="M 369.99983,96.999762 V 196.99986 h 10.00043 V 96.999762 Z"
         style="fill:#ffcc00;stroke-width:0.23145503" />
      <path
         inkscape:connector-curvature="0"
         id="path4011"
         d="m 20,206.99977 v 10.00042 C 20,228.08019 28.919813,237 39.999812,237 h 9.999908 v -9.99991 h -9.999908 c -5.54,1e-5 -9.999906,-4.4599 -9.999906,-9.9999 v -10.00042 z"
         style="fill:#ffcc00;stroke-width:0.23145503" />
      <path
         inkscape:connector-curvature="0"
         id="path4009"
         d="m 369.99983,206.99977 v 10.00042 c 0,5.54 -4.45992,9.99991 -9.9999,9.9999 H 350 V 237 h 9.99993 c 11.07998,0 20.00033,-8.91981 20.00033,-19.99981 v -10.00042 z"
         style="fill:#ffcc00;stroke-width:0.23145503" />
      <path
         inkscape:connector-curvature="0"
         id="path3757"
         d="M 60,227.00009 V 237 h 280 v -9.99991 z"
         style="fill:#ffcc00;stroke-width:0.24999984" />
    </g>
  </g>
</svg>
