<?xml version="1.0" encoding="UTF-8" standalone="no"?>
<!-- Created with Inkscape (http://www.inkscape.org/) -->

<svg
   xmlns:dc="http://purl.org/dc/elements/1.1/"
   xmlns:cc="http://creativecommons.org/ns#"
   xmlns:rdf="http://www.w3.org/1999/02/22-rdf-syntax-ns#"
   xmlns:svg="http://www.w3.org/2000/svg"
   xmlns="http://www.w3.org/2000/svg"
   xmlns:sodipodi="http://sodipodi.sourceforge.net/DTD/sodipodi-0.dtd"
   xmlns:inkscape="http://www.inkscape.org/namespaces/inkscape"
   width="297mm"
   height="420mm"
   viewBox="0 0 297 420"
   version="1.1"
   id="svg8"
   inkscape:version="0.92.3 (2405546, 2018-03-11)"
   sodipodi:docname="schildraw380mmhochkantwarnung.svg"
   inkscape:export-filename="/home/housemeista/Dropbox/Fla/Stencilkram Inkscape/Vorlagen/schildcyber.png"
   inkscape:export-xdpi="96"
   inkscape:export-ydpi="96">
  <defs
     id="defs2" />
  <sodipodi:namedview
     id="base"
     pagecolor="#ffffff"
     bordercolor="#666666"
     borderopacity="1.0"
     inkscape:pageopacity="0"
     inkscape:pageshadow="2"
     inkscape:zoom="0.49497475"
     inkscape:cx="244.71603"
     inkscape:cy="837.17625"
     inkscape:document-units="mm"
     inkscape:current-layer="layer1"
     showgrid="true"
     inkscape:pagecheckerboard="true"
     inkscape:window-width="1920"
     inkscape:window-height="1031"
     inkscape:window-x="0"
     inkscape:window-y="25"
     inkscape:window-maximized="1"
     showguides="false">
    <inkscape:grid
       type="xygrid"
       id="grid3713" />
  </sodipodi:namedview>
  <metadata
     id="metadata5">
    <rdf:RDF>
      <cc:Work
         rdf:about="">
        <dc:format>image/svg+xml</dc:format>
        <dc:type
           rdf:resource="http://purl.org/dc/dcmitype/StillImage" />
        <dc:title></dc:title>
      </cc:Work>
    </rdf:RDF>
  </metadata>
  <g
     inkscape:label="Ebene 1"
     inkscape:groupmode="layer"
     id="layer1"
     transform="translate(0,123)">
    <g
       id="g463"
       transform="rotate(90,128.02581,42.940063)">
      <g
         aria-label="WARNUNG"
         style="font-style:normal;font-variant:normal;font-weight:normal;font-stretch:normal;font-size:14.11111069px;line-height:6.61458349px;font-family:'Capture Smallz Clean';-inkscape-font-specification:'Capture Smallz Clean';letter-spacing:0px;word-spacing:0px;fill:#f9f9f9;fill-opacity:1;stroke:none;stroke-width:0.26458332"
         id="text3931">
        <path
           d="M 33.245712,0.82248974 H 29.990097 L 13.774033,-43.639913 h 9.611816 l 9.859863,27.03711 z m 23.316407,-17.05322274 9.95288,-27.316162 h 9.611817 L 59.941757,0.8534956 h -3.379638 z m -6.790284,-13.797607 4.898926,13.425537 V 0.82248974 H 51.415146 L 44.965927,-16.85085 38.516708,0.8534956 H 35.13707 V -16.230733 l 5.022949,-13.797607 z"
           style="font-size:63.5px;text-align:center;text-anchor:middle;fill:#f9f9f9;stroke-width:0.26458332"
           id="path465" />
        <path
           d="M 103.07091,-43.639913 118.79088,0.82248974 H 107.31871 L 104.34215,-8.6342974 H 92.032822 l 2.387451,-8.2165526 h 7.565427 v -0.155029 L 97.396835,-33.376973 H 97.241806 L 87.62999,0.82248974 h -8.9917 V -5.626729 l 12.929444,-38.013184 z"
           style="font-size:63.5px;text-align:center;text-anchor:middle;fill:#f9f9f9;stroke-width:0.26458332"
           id="path467" />
        <path
           d="M 130.91417,0.82248974 H 120.80626 V -43.73293 h 10.10791 z M 151.22301,-19.17629 q 1.17822,1.209229 2.26342,3.503663 0.46509,0.496093 0.80616,3.96875 l 0.31006,1.581298 q 1.0542,6.3251957 1.73632,7.9995121 0.43409,1.27124023 1.89136,2.94555664 h -10.573 q -0.65112,-0.0620117 -1.89135,-3.84472654 -0.27906,-0.4650879 -1.5813,-8.8366702 -0.55811,-1.984375 -2.54248,-3.162597 -1.86035,-0.651123 -9.11573,-0.651123 v -8.061524 h 8.09253 q 4.7439,-1.674316 4.7439,-6.263183 v -0.775147 q -1.0542,-4.991943 -5.70508,-5.177978 h -7.13135 v -7.906495 h 7.13135 q 8.9607,0 12.99146,4.86792 2.85254,4.154785 2.85254,8.712647 v 0.589111 q 0,5.208984 -3.00757,9.146729 -0.55811,0.74414 -1.27124,1.364257 z"
           style="font-size:63.5px;text-align:center;text-anchor:middle;fill:#f9f9f9;stroke-width:0.26458332"
           id="path469" />
        <path
           d="M 171.09776,0.82248974 H 160.98985 V -40.973409 l 10.10791,16.867188 z M 187.53087,0.79148388 161.11388,-43.608907 h 9.61181 l 26.448,44.43139674 z M 187.12779,-43.639913 H 197.2357 V -1.8440142 L 187.12779,-18.711202 Z"
           style="font-size:63.5px;text-align:center;text-anchor:middle;fill:#f9f9f9;stroke-width:0.26458332"
           id="path471" />
        <path
           d="m 233.45055,-43.73293 0.031,30.633789 q -0.27905,11.5031737 -9.39477,13.45654285 -2.1084,0.65112305 -6.01514,0.55810547 V -8.944356 q 5.20898,-0.651123 5.302,-5.177978 V -43.73293 Z m -22.94434,0 v 29.610596 q 0.093,4.526855 5.302,5.177978 V 0.91550732 Q 211.90147,1.0085249 209.79308,0.35740185 200.98741,-1.5959673 200.3983,-13.099141 l 0.031,-30.633789 z"
           style="font-size:63.5px;text-align:center;text-anchor:middle;fill:#f9f9f9;stroke-width:0.26458332"
           id="path473" />
        <path
           d="M 246.87608,0.82248974 H 236.76817 V -40.973409 l 10.10791,16.867188 z M 263.30919,0.79148388 236.8922,-43.608907 h 9.61181 l 26.448,44.43139674 z M 262.90611,-43.639913 h 10.10791 V -1.8440142 L 262.90611,-18.711202 Z"
           style="font-size:63.5px;text-align:center;text-anchor:middle;fill:#f9f9f9;stroke-width:0.26458332"
           id="path475" />
        <path
           d="m 296.54747,-35.547383 q -3.87573,0.465088 -6.72827,4.092773 -3.25562,4.154785 -3.25562,10.045899 0,5.860107 3.25562,10.014892 2.85254,3.6586916 6.72827,4.1237794 v 8.06152348 q -8.21655,-0.31005859 -14.10767,-6.51123048 -6.23217,-6.5112304 -6.23217,-15.7509764 0,-9.239746 6.23217,-15.781983 5.89112,-6.170166 14.10767,-6.480224 z m 8.9917,4.092773 q -3.06958,-3.937744 -7.3794,-4.154785 v -8.154541 q 8.34058,0.279053 14.32471,6.51123 3.03858,3.193604 4.58887,7.038331 l -8.80567,4.34082 q -0.77514,-3.100586 -2.72851,-5.581055 z m 13.17749,10.510986 q -0.18604,8.898682 -6.23218,15.2238774 -5.98413,6.2631836 -14.32471,6.54223634 V -7.2080278 q 4.30982,-0.2170411 7.3794,-4.1857912 0.5271,-0.651123 0.96118,-1.364258 h -8.40259 v -8.185547 z"
           style="font-size:63.5px;text-align:center;text-anchor:middle;fill:#f9f9f9;stroke-width:0.26458332"
           id="path477" />
      </g>
      <g
         aria-label="TOR SCHLIEßT 
SELBSTTÄTIG"
         style="font-style:normal;font-variant:normal;font-weight:normal;font-stretch:normal;font-size:14.11111069px;line-height:6.61458349px;font-family:'Capture Smallz Clean';-inkscape-font-specification:'Capture Smallz Clean';letter-spacing:0px;word-spacing:0px;fill:#f9f9f9;fill-opacity:1;stroke:none;stroke-width:0.26458332"
         id="text3931-3">
        <path
           d="M 41.009769,45.030468 H 34.271163 V 22.065462 h 6.738606 z m 7.503418,-29.517577 v 5.457031 H 26.437016 v -5.457031 z"
           style="font-size:42.33333206px;line-height:42.33333206px;text-align:center;text-anchor:middle;fill:#f9f9f9;stroke-width:0.26458332"
           id="path480" />
        <path
           d="m 64.284833,20.845898 q -2.583821,0.310059 -4.485514,2.728516 -2.17041,2.769857 -2.17041,6.697265 0,3.906739 2.17041,6.676595 1.901693,2.439128 4.485514,2.749186 v 5.374349 q -5.477701,-0.206706 -9.40511,-4.34082 -4.154785,-4.34082 -4.154785,-10.500651 0,-6.15983 4.154785,-10.521321 3.927409,-4.113444 9.40511,-4.32015 z m 1.07487,18.892903 q 2.87321,-0.144694 4.919596,-2.790527 2.17041,-2.769856 2.17041,-6.676595 0,-3.927408 -2.17041,-6.697265 -2.046386,-2.625163 -4.919596,-2.769857 v -5.43636 q 5.560384,0.186035 9.549804,4.34082 4.154785,4.361491 4.154785,10.521321 0,6.159831 -4.154785,10.500651 -3.98942,4.175456 -9.549804,4.361491 z"
           style="font-size:42.33333206px;line-height:42.33333206px;text-align:center;text-anchor:middle;fill:#f9f9f9;stroke-width:0.26458332"
           id="path482" />
        <path
           d="M 87.890626,45.09248 H 81.15202 V 15.388867 h 6.738606 z M 101.42985,31.759961 q 0.78548,0.806152 1.50895,2.335774 0.31006,0.330729 0.53744,2.645833 l 0.2067,1.0542 q 0.7028,4.216796 1.15756,5.333007 0.28938,0.847494 1.2609,1.963705 h -7.048664 q -0.434082,-0.04134 -1.260905,-2.563151 -0.186036,-0.310059 -1.0542,-5.891113 -0.37207,-1.322917 -1.694987,-2.108399 -1.240234,-0.434082 -6.077148,-0.434082 v -5.374349 h 5.39502 q 3.162597,-1.11621 3.162597,-4.175455 v -0.516764 q -0.702799,-3.327963 -3.803385,-3.451986 h -4.754232 v -5.270996 h 4.754232 q 5.973795,0 8.660972,3.24528 1.90169,2.769857 1.90169,5.808431 v 0.392741 q 0,3.472656 -2.00505,6.097818 -0.37207,0.496094 -0.84749,0.909506 z"
           style="font-size:42.33333206px;line-height:42.33333206px;text-align:center;text-anchor:middle;fill:#f9f9f9;stroke-width:0.26458332"
           id="path484" />
        <path
           d="m 127.9502,38.374544 q 1.90169,1.09554 3.61735,1.302246 l 0.59944,0.103353 -0.0413,5.312337 q -5.39502,0.144694 -8.26823,-2.211752 -3.20394,-2.067057 -3.43131,-7.193359 l 6.22184,-0.599446 q 0.16537,2.17041 1.30225,3.203938 z m 2.23242,-5.932455 q -8.92969,-1.612304 -8.92969,-8.288899 v -0.392741 q 0,-6.965983 9.01237,-8.206217 l 1.86035,-0.04134 0.0413,4.940267 q -2.02571,0.165364 -2.81119,0.496093 -1.63298,0.620117 -1.59164,2.811198 0,2.046387 5.18832,2.997233 1.30224,0.227376 2.12906,0.434082 9.19841,1.529622 9.19841,8.764323 v 0.413411 q 0,7.420736 -9.01237,8.743652 l -2.02572,0.06201 v -5.229655 q 2.14974,-0.227376 2.93522,-0.578776 1.63298,-0.661458 1.59164,-2.997233 0,-2.19108 -5.1263,-3.389974 -1.15756,-0.351399 -2.54248,-0.599446 z m 2.95589,-16.99121 q 4.44417,0 7.83415,2.501139 1.98437,1.653646 2.89388,6.11849 v 0.289388 l -3.38998,0.413411 -2.81119,0.186035 q -0.39275,-2.439127 -1.4056,-3.203938 -0.82683,-0.7028 -3.10059,-1.302246 z"
           style="font-size:42.33333206px;line-height:42.33333206px;text-align:center;text-anchor:middle;fill:#f9f9f9;stroke-width:0.26458332"
           id="path486" />
        <path
           d="m 159.94824,20.845898 q -2.58382,0.310059 -4.48551,2.728516 -2.17041,2.769857 -2.17041,6.697265 0,3.906739 2.17041,6.676595 1.90169,2.439128 4.48551,2.749186 v 5.374349 q -5.4777,-0.206706 -9.40511,-4.34082 -4.15478,-4.34082 -4.15478,-10.500651 0,-6.15983 4.15478,-10.521321 3.92741,-4.113444 9.40511,-4.32015 z m 5.99447,2.728516 q -2.04639,-2.625163 -4.9196,-2.769857 v -5.43636 q 5.56039,0.186035 9.54981,4.34082 2.02571,2.129069 3.05924,4.69222 l -5.87044,2.89388 q -0.51676,-2.067057 -1.81901,-3.720703 z m 7.25537,13.477213 q -0.99219,1.984375 -2.62516,3.679362 -3.98942,4.175456 -9.54981,4.361491 v -5.353679 q 2.87321,-0.144694 4.9196,-2.790527 1.01286,-1.302246 1.55029,-2.852539 z"
           style="font-size:42.33333206px;line-height:42.33333206px;text-align:center;text-anchor:middle;fill:#f9f9f9;stroke-width:0.26458332"
           id="path488" />
        <path
           d="m 182.06576,45.09248 h -6.73861 V 15.388867 h 6.73861 z m 19.86442,0 h -6.73861 V 15.388867 h 6.73861 z m -7.97884,-18.355468 v 5.457031 h -10.7487 v -5.457031 z"
           style="font-size:42.33333206px;line-height:42.33333206px;text-align:center;text-anchor:middle;fill:#f9f9f9;stroke-width:0.26458332"
           id="path490" />
        <path
           d="m 210.8392,45.09248 h -6.73861 V 15.388867 h 6.73861 z m 15.29622,-5.477702 v 5.457031 H 212.2448 v -5.457031 z"
           style="font-size:42.33333206px;line-height:42.33333206px;text-align:center;text-anchor:middle;fill:#f9f9f9;stroke-width:0.26458332"
           id="path492" />
        <path
           d="m 234.98242,45.09248 h -6.73861 V 15.388867 h 6.73861 z"
           style="font-size:42.33333206px;line-height:42.33333206px;text-align:center;text-anchor:middle;fill:#f9f9f9;stroke-width:0.26458332"
           id="path494" />
        <path
           d="m 243.82943,45.09248 h -6.73861 V 15.388867 h 6.73861 z M 258.87761,15.450879 V 20.90791 H 244.98698 V 15.450879 Z M 257.78207,26.675 v 5.457031 H 245.02832 V 26.675 Z m 1.15755,12.919107 v 5.457032 h -13.89063 v -5.457032 z"
           style="font-size:42.33333206px;line-height:42.33333206px;text-align:center;text-anchor:middle;fill:#f9f9f9;stroke-width:0.26458332"
           id="path496" />
        <path
           d="M 260.96533,45.09248 V 24.711295 q 0.18603,-8.743652 8.97102,-9.40511 h 0.51677 q 0.31006,0.02067 0.57877,0.06201 v 5.746419 q -3.26595,0.124023 -3.32796,3.451985 V 45.09248 Z m 11.18278,-5.39502 h 0.0207 q 3.38997,-0.868164 3.45198,-3.26595 v -0.868164 q 0.16537,-1.612305 -1.46761,-2.645833 -0.33073,-0.516765 -1.98437,-0.661459 h -0.0207 v -5.601725 h 0.0207 l 1.03352,-0.08268 q 1.88103,-0.806152 1.88103,-2.955892 l -0.10336,-0.744141 -0.2067,-0.516764 q -0.93018,-1.198893 -2.60449,-1.364258 h -0.0207 v -5.643066 h 0.10335 q 7.15202,0 9.03304,5.084961 0.43408,1.012858 0.43408,2.335775 v 0.516764 q 0,2.790527 -2.72851,5.084961 l -0.95085,0.537435 -0.49609,0.165364 q 0.80615,0.434082 1.32291,0.682129 3.14193,1.881022 3.57601,5.601725 0.10335,0.413412 0.10335,0.971517 -0.16536,2.645833 -0.51676,3.059245 -0.20671,1.116211 -1.46761,2.645833 -1.48828,2.108398 -5.37435,2.976562 -1.03353,0.06201 -3.0179,0.06201 h -0.0207 z"
           style="font-size:42.33333206px;line-height:42.33333206px;text-align:center;text-anchor:middle;fill:#f9f9f9;stroke-width:0.26458332"
           id="path498" />
        <path
           d="m 298.069,45.030468 h -6.7386 V 22.065462 h 6.7386 z m 7.50342,-29.517577 v 5.457031 h -22.07617 v -5.457031 z"
           style="font-size:42.33333206px;line-height:42.33333206px;text-align:center;text-anchor:middle;fill:#f9f9f9;stroke-width:0.26458332"
           id="path500" />
        <path
           d="m 41.464522,80.707876 q 1.901693,1.09554 3.61735,1.302246 l 0.599447,0.103353 -0.04134,5.312337 q -5.39502,0.144694 -8.268229,-2.211751 -3.203939,-2.067058 -3.431315,-7.19336 l 6.221842,-0.599446 q 0.165365,2.17041 1.302246,3.203938 z m 2.232422,-5.932454 q -8.929687,-1.612305 -8.929687,-8.2889 v -0.392741 q 0,-6.965983 9.012369,-8.206217 l 1.860352,-0.04134 0.04134,4.940267 q -2.025716,0.165364 -2.811198,0.496093 -1.632975,0.620117 -1.591634,2.811198 0,2.046387 5.188313,2.997233 1.302247,0.227376 2.129069,0.434082 9.198405,1.529623 9.198405,8.764323 v 0.413411 q 0,7.420736 -9.012369,8.743652 l -2.025716,0.06201 v -5.229655 q 2.149739,-0.227376 2.935221,-0.578776 1.632975,-0.661458 1.591634,-2.997233 0,-2.19108 -5.126302,-3.389974 -1.157552,-0.351399 -2.54248,-0.599446 z m 2.955892,-16.991211 q 4.444173,0 7.834147,2.501139 1.984374,1.653646 2.89388,6.11849 v 0.289388 l -3.389974,0.413411 -2.811198,0.186035 q -0.392741,-2.439127 -1.405599,-3.203938 -0.826823,-0.7028 -3.100586,-1.302246 z"
           style="font-size:42.33333206px;line-height:42.33333206px;text-align:center;text-anchor:middle;fill:#f9f9f9;stroke-width:0.26458332"
           id="path502" />
        <path
           d="M 66.64128,87.425812 H 59.902673 V 57.722199 H 66.64128 Z M 81.689456,57.784211 v 5.457031 H 67.798832 v -5.457031 z m -1.09554,11.224121 v 5.457031 H 67.840173 v -5.457031 z m 1.157552,12.919108 v 5.457031 H 67.860844 V 81.92744 Z"
           style="font-size:42.33333206px;line-height:42.33333206px;text-align:center;text-anchor:middle;fill:#f9f9f9;stroke-width:0.26458332"
           id="path504" />
        <path
           d="M 90.53646,87.425812 H 83.797853 V 57.722199 h 6.738607 z m 15.29622,-5.477702 v 5.457031 H 91.942059 V 81.94811 Z"
           style="font-size:42.33333206px;line-height:42.33333206px;text-align:center;text-anchor:middle;fill:#f9f9f9;stroke-width:0.26458332"
           id="path506" />
        <path
           d="m 114.67969,87.425812 h -6.73861 V 57.722199 h 6.73861 z m 7.42073,-29.703613 q 7.15202,0 9.03304,5.084961 0.43408,1.012858 0.43408,2.335775 v 0.516764 q 0,2.790527 -2.72851,5.084961 l -0.95085,0.537435 -0.49609,0.165364 q 0.80615,0.434082 1.32291,0.682129 3.14193,1.881022 3.57601,5.601725 0.10336,0.413412 0.10336,0.971517 -0.16537,2.645834 -0.51677,3.059245 -0.2067,1.116211 -1.46761,2.645833 -1.48828,2.108399 -5.37435,2.976563 -1.03353,0.06201 -3.0179,0.06201 h -6.20117 v -5.374348 h 6.20117 q 3.38997,-0.868164 3.45198,-3.265951 v -0.868164 q 0.16537,-1.612305 -1.46761,-2.645833 -0.33072,-0.516764 -1.98437,-0.661458 h -6.1805 v -5.601726 h 6.1805 l 1.03353,-0.08268 q 1.88102,-0.806152 1.88102,-2.955892 l -0.10335,-0.74414 -0.20671,-0.516765 q -0.93017,-1.198893 -2.60449,-1.364257 h -6.26318 v -5.643067 z"
           style="font-size:42.33333206px;line-height:42.33333206px;text-align:center;text-anchor:middle;fill:#f9f9f9;stroke-width:0.26458332"
           id="path508" />
        <path
           d="m 142.08887,80.707876 q 1.90169,1.09554 3.61735,1.302246 l 0.59944,0.103353 -0.0413,5.312337 q -5.39502,0.144694 -8.26823,-2.211751 -3.20394,-2.067058 -3.43131,-7.19336 l 6.22184,-0.599446 q 0.16536,2.17041 1.30225,3.203938 z m 2.23242,-5.932454 q -8.92969,-1.612305 -8.92969,-8.2889 v -0.392741 q 0,-6.965983 9.01237,-8.206217 l 1.86035,-0.04134 0.0413,4.940267 q -2.02571,0.165364 -2.8112,0.496093 -1.63297,0.620117 -1.59163,2.811198 0,2.046387 5.18831,2.997233 1.30225,0.227376 2.12907,0.434082 9.19841,1.529623 9.19841,8.764323 v 0.413411 q 0,7.420736 -9.01237,8.743652 l -2.02572,0.06201 v -5.229655 q 2.14974,-0.227376 2.93522,-0.578776 1.63298,-0.661458 1.59164,-2.997233 0,-2.19108 -5.1263,-3.389974 -1.15756,-0.351399 -2.54248,-0.599446 z m 2.95589,-16.991211 q 4.44417,0 7.83415,2.501139 1.98437,1.653646 2.89388,6.11849 v 0.289388 l -3.38998,0.413411 -2.8112,0.186035 q -0.39274,-2.439127 -1.40559,-3.203938 -0.82683,-0.7028 -3.10059,-1.302246 z"
           style="font-size:42.33333206px;line-height:42.33333206px;text-align:center;text-anchor:middle;fill:#f9f9f9;stroke-width:0.26458332"
           id="path510" />
        <path
           d="m 175.03776,87.3638 h -6.73861 V 64.398794 h 6.73861 z m 7.50342,-29.517577 v 5.457031 h -22.07617 v -5.457031 z"
           style="font-size:42.33333206px;line-height:42.33333206px;text-align:center;text-anchor:middle;fill:#f9f9f9;stroke-width:0.26458332"
           id="path512" />
        <path
           d="m 199.26367,87.3638 h -6.73861 V 64.398794 h 6.73861 z m 7.50341,-29.517577 v 5.457031 h -22.07617 v -5.457031 z"
           style="font-size:42.33333206px;line-height:42.33333206px;text-align:center;text-anchor:middle;fill:#f9f9f9;stroke-width:0.26458332"
           id="path514" />
        <path
           d="m 225.26726,57.784211 10.47998,29.641601 h -7.64812 l -1.98437,-6.304525 h -8.20622 l 1.59164,-5.477701 h 5.04362 v -0.103353 l -3.05925,-10.914062 h -0.10335 l -6.40788,22.799641 h -5.99446 v -4.299479 l 8.61962,-25.342122 z m -9.05371,-3.183268 v -3.886068 h 4.44417 v 3.886068 z m 5.78776,0 v -3.886068 h 4.44417 v 3.886068 z"
           style="font-size:42.33333206px;line-height:42.33333206px;text-align:center;text-anchor:middle;fill:#f9f9f9;stroke-width:0.26458332"
           id="path516" />
        <path
           d="m 251.60156,87.3638 h -6.73861 V 64.398794 h 6.73861 z m 7.50341,-29.517577 v 5.457031 H 237.0288 v -5.457031 z"
           style="font-size:42.33333206px;line-height:42.33333206px;text-align:center;text-anchor:middle;fill:#f9f9f9;stroke-width:0.26458332"
           id="path518" />
        <path
           d="m 268.05534,87.425812 h -6.7386 V 57.722199 h 6.7386 z"
           style="font-size:42.33333206px;line-height:42.33333206px;text-align:center;text-anchor:middle;fill:#f9f9f9;stroke-width:0.26458332"
           id="path520" />
        <path
           d="m 283.72363,63.17923 q -2.58382,0.310059 -4.48551,2.728516 -2.17041,2.769857 -2.17041,6.697265 0,3.906739 2.17041,6.676595 1.90169,2.439128 4.48551,2.749186 v 5.374349 q -5.4777,-0.206706 -9.40511,-4.34082 -4.15478,-4.34082 -4.15478,-10.500651 0,-6.15983 4.15478,-10.521321 3.92741,-4.113444 9.40511,-4.32015 z m 5.99447,2.728516 q -2.04639,-2.625163 -4.9196,-2.769857 v -5.43636 q 5.56039,0.186035 9.54981,4.34082 2.02571,2.129069 3.05924,4.69222 l -5.87044,2.89388 q -0.51677,-2.067057 -1.81901,-3.720703 z m 8.78499,7.007324 q -0.12402,5.932454 -4.15478,10.149251 -3.98942,4.175456 -9.54981,4.361491 v -5.353678 q 2.87321,-0.144694 4.9196,-2.790528 0.3514,-0.434082 0.64079,-0.909505 h -5.60173 V 72.91507 Z"
           style="font-size:42.33333206px;line-height:42.33333206px;text-align:center;text-anchor:middle;fill:#f9f9f9;stroke-width:0.26458332"
           id="path522" />
      </g>
    </g>
  </g>
</svg>
