<?xml version="1.0" encoding="UTF-8" standalone="no"?>
<!-- Created with Inkscape (http://www.inkscape.org/) -->

<svg
   xmlns:dc="http://purl.org/dc/elements/1.1/"
   xmlns:cc="http://creativecommons.org/ns#"
   xmlns:rdf="http://www.w3.org/1999/02/22-rdf-syntax-ns#"
   xmlns:svg="http://www.w3.org/2000/svg"
   xmlns="http://www.w3.org/2000/svg"
   xmlns:sodipodi="http://sodipodi.sourceforge.net/DTD/sodipodi-0.dtd"
   xmlns:inkscape="http://www.inkscape.org/namespaces/inkscape"
   width="297mm"
   height="420mm"
   viewBox="0 0 297 420"
   version="1.1"
   id="svg8"
   inkscape:version="0.92.3 (2405546, 2018-03-11)"
   sodipodi:docname="schildraw380-5mm.svg"
   inkscape:export-filename="/home/housemeista/Dropbox/Fla/Stencilkram Inkscape/Vorlagen/schildabgelehnt.png"
   inkscape:export-xdpi="96"
   inkscape:export-ydpi="96">
  <defs
     id="defs2" />
  <sodipodi:namedview
     id="base"
     pagecolor="#ffffff"
     bordercolor="#666666"
     borderopacity="1.0"
     inkscape:pageopacity="0"
     inkscape:pageshadow="2"
     inkscape:zoom="0.37772166"
     inkscape:cx="916.82993"
     inkscape:cy="400.21685"
     inkscape:document-units="mm"
     inkscape:current-layer="layer1"
     showgrid="true"
     inkscape:pagecheckerboard="true"
     inkscape:window-width="1920"
     inkscape:window-height="1031"
     inkscape:window-x="0"
     inkscape:window-y="25"
     inkscape:window-maximized="1"
     showguides="false">
    <inkscape:grid
       type="xygrid"
       id="grid3713" />
  </sodipodi:namedview>
  <metadata
     id="metadata5">
    <rdf:RDF>
      <cc:Work
         rdf:about="">
        <dc:format>image/svg+xml</dc:format>
        <dc:type
           rdf:resource="http://purl.org/dc/dcmitype/StillImage" />
        <dc:title></dc:title>
      </cc:Work>
    </rdf:RDF>
  </metadata>
  <g
     inkscape:label="Ebene 1"
     inkscape:groupmode="layer"
     id="layer1"
     transform="translate(0,123)">
    <path
       style="fill:#d40000;stroke-width:0.11572859"
       d="m 285,-98 c 0,-5.54005 -4.45995,-10 -10,-10 h -5 v 5 h 5 c 2.77003,0 5,2.22997 5,5 v 5 h 5 z"
       id="path4021"
       inkscape:connector-curvature="0" />
    <path
       style="fill:#d40000;stroke-width:0.19904998"
       d="m 285,-88 h -5 v 355 h 5 z"
       id="path4019"
       inkscape:connector-curvature="0" />
    <path
       style="fill:#d40000;stroke-width:0.25089234"
       d="M 265,-108 H 30 v 5 h 235 z"
       id="path4015"
       inkscape:connector-curvature="0" />
    <path
       style="fill:#d40000;stroke-width:0.11572761"
       d="M 25,-108 H 19.99983 C 14.45987,-108 10,-103.54005 10,-98 v 5 h 4.99992 v -5 c -10e-6,-2.77003 2.22993,-5 4.99991,-5 H 25 Z"
       id="path4011"
       inkscape:connector-curvature="0" />
    <path
       style="fill:#d40000;stroke-width:0.19904983"
       d="m 15,-88 h -5 v 355 h 5 z"
       id="path3757"
       inkscape:connector-curvature="0" />
    <path
       style="fill:#d40000;stroke-width:0.11572859"
       d="m 285,277 c 0,5.54005 -4.45994,10 -10,10 h -5 v -5 h 5 c 2.77003,0 5,-2.22997 5,-5 v -5 h 5 z"
       id="path4021-6"
       inkscape:connector-curvature="0" />
    <path
       style="fill:#d40000;stroke-width:0.2508924"
       d="M 265,287 H 30 v -5 h 235 z"
       id="path4015-2"
       inkscape:connector-curvature="0" />
    <path
       style="fill:#d40000;stroke-width:0.11572761"
       d="m 25.00001,287 h -5.00017 c -5.53996,0 -9.99983,-4.45995 -9.99983,-10 v -5 h 4.99992 v 5 c -1e-5,2.77003 2.22993,5 4.99991,5 h 5.00017 z"
       id="path4011-9"
       inkscape:connector-curvature="0" />
    <g
       aria-label="AIRLOCK"
       style="font-style:normal;font-variant:normal;font-weight:normal;font-stretch:normal;font-size:50.79999924px;line-height:1.25;font-family:Orbitron;-inkscape-font-specification:Orbitron;letter-spacing:0px;word-spacing:0px;fill:#000000;fill-opacity:1;stroke:none;stroke-width:0.26458332"
       id="text183"
       transform="rotate(90,207.5,89.499998)">
      <path
         d="m 75.241453,49.362977 c -4.064,0 -7.337777,3.273777 -7.337777,7.337777 v 33.302221 h 6.096 V 75.778976 h 28.447994 v 14.223999 h 6.096 V 56.700754 c 0,-4.064 -3.27377,-7.337777 -7.33777,-7.337777 z M 73.999676,69.682976 V 56.700754 c 0,-0.677333 0.564444,-1.241777 1.241777,-1.241777 H 101.2059 c 0.67733,0 1.24177,0.564444 1.24177,1.241777 v 12.982222 z"
         style="font-size:56.44444275px;stroke-width:0.26458332"
         id="path195"
         inkscape:connector-curvature="0" />
      <path
         d="m 115.03126,90.002975 h 6.096 V 49.362977 h -6.096 z"
         style="font-size:56.44444275px;stroke-width:0.26458332"
         id="path197"
         inkscape:connector-curvature="0" />
      <path
         d="m 168.01583,56.757199 c 0,-4.007556 -3.27378,-7.337778 -7.33778,-7.337778 h -33.30222 v 40.583554 h 6.096 v -14.61911 c 0.39511,0.05644 0.79023,0.112889 1.24178,0.112889 h 13.88533 l 12.192,14.506221 h 7.22489 V 89.156309 L 156.55761,75.496754 h 4.12044 c 4.064,0 7.33778,-3.330222 7.33778,-7.337778 z m -33.30222,12.643555 c -0.67733,0 -1.24178,-0.564445 -1.24178,-1.241778 V 56.757199 c 0,-0.677334 0.56445,-1.241778 1.24178,-1.241778 h 25.96444 c 0.67734,0 1.24178,0.564444 1.24178,1.241778 v 11.401777 c 0,0.677333 -0.56444,1.241778 -1.24178,1.241778 z"
         style="font-size:56.44444275px;stroke-width:0.26458332"
         id="path199"
         inkscape:connector-curvature="0" />
      <path
         d="m 174.01129,90.002975 h 40.63999 V 83.906976 H 180.10729 V 49.306532 h -6.096 z"
         style="font-size:56.44444275px;stroke-width:0.26458332"
         id="path201"
         inkscape:connector-curvature="0" />
      <path
         d="m 225.16671,49.362977 c -4.064,0 -7.33778,3.273777 -7.33778,7.337777 v 25.964444 c 0,4.064 3.27378,7.337777 7.33778,7.337777 h 25.96444 c 4.064,0 7.33778,-3.273777 7.33778,-7.337777 V 56.700754 c 0,-4.064 -3.27378,-7.337777 -7.33778,-7.337777 z m 0,34.543999 c -0.67734,0 -1.24178,-0.564445 -1.24178,-1.241778 V 56.700754 c 0,-0.677333 0.56444,-1.241777 1.24178,-1.241777 h 25.96444 c 0.67733,0 1.24178,0.564444 1.24178,1.241777 v 25.964444 c 0,0.677333 -0.56445,1.241778 -1.24178,1.241778 z"
         style="font-size:56.44444275px;stroke-width:0.26458332"
         id="path203"
         inkscape:connector-curvature="0" />
      <path
         d="m 305.21199,55.458977 v -6.096 h -33.18934 c -4.064,0 -7.33777,3.273777 -7.33777,7.337777 v 25.964444 c 0,4.064 3.27377,7.337777 7.33777,7.337777 h 33.18934 v -6.095999 h -33.18934 c -0.67733,0 -1.24177,-0.564445 -1.24177,-1.241778 V 56.700754 c 0,-0.677333 0.56444,-1.241777 1.24177,-1.241777 z"
         style="font-size:56.44444275px;stroke-width:0.26458332"
         id="path205"
         inkscape:connector-curvature="0" />
      <path
         d="M 343.04475,49.362977 328.53853,66.634976 H 317.24964 V 49.362977 h -6.096 v 40.639998 h 6.096 V 72.730976 h 11.28889 l 14.50622,17.271999 h 7.22489 V 89.156309 L 333.9572,69.682976 350.26964,50.209643 v -0.846666 z"
         style="font-size:56.44444275px;stroke-width:0.26458332"
         id="path207"
         inkscape:connector-curvature="0" />
    </g>
    <g
       aria-label="Quest module  Open only when  unpressurized Indicator light on "
       style="font-style:normal;font-variant:normal;font-weight:normal;font-stretch:normal;font-size:31.75px;line-height:1.25;font-family:Orbitron;-inkscape-font-specification:Orbitron;letter-spacing:0px;word-spacing:0px;fill:#000000;fill-opacity:1;stroke:none;stroke-width:0.26458332"
       id="text187"
       transform="rotate(90,207.5,89.499998)">
      <path
         d="m 110.30255,126.88345 c 0.0318,-0.22225 0.0635,-0.4445 0.0635,-0.6985 v -14.605 c 0,-2.286 -1.8415,-4.1275 -4.1275,-4.1275 h -14.605 c -2.286,0 -4.1275,1.8415 -4.1275,4.1275 v 14.605 c 0,2.286 1.8415,4.1275 4.1275,4.1275 h 21.59 v -3.429 z m -18.669,0 c -0.381,0 -0.6985,-0.3175 -0.6985,-0.6985 v -14.605 c 0,-0.381 0.3175,-0.6985 0.6985,-0.6985 h 14.605 c 0.381,0 0.6985,0.3175 0.6985,0.6985 v 14.605 c 0,0.381 -0.3175,0.6985 -0.6985,0.6985 z"
         style="text-align:center;text-anchor:middle;stroke-width:0.26458332"
         id="path210"
         inkscape:connector-curvature="0" />
      <path
         d="m 130.86911,111.89745 v 14.2875 c 0,0.381 -0.3175,0.6985 -0.6985,0.6985 h -10.4775 c -0.381,0 -0.6985,-0.3175 -0.6985,-0.6985 v -14.2875 h -3.429 v 14.2875 c 0,2.286 1.8415,4.1275 4.1275,4.1275 h 10.4775 c 2.286,0 4.1275,-1.8415 4.1275,-4.1275 v -14.2875 z"
         style="text-align:center;text-anchor:middle;stroke-width:0.26458332"
         id="path212"
         inkscape:connector-curvature="0" />
      <path
         d="m 151.37713,111.89745 h -10.4775 c -2.286,0 -4.1275,1.8415 -4.1275,4.1275 v 10.16 c 0,2.286 1.8415,4.1275 4.1275,4.1275 h 14.605 v -3.429 h -14.605 c -0.381,0 -0.6985,-0.3175 -0.6985,-0.6985 v -3.3655 h 15.3035 v -6.7945 c 0,-2.286 -1.8415,-4.1275 -4.1275,-4.1275 z m -11.176,7.493 v -3.3655 c 0,-0.381 0.3175,-0.6985 0.6985,-0.6985 h 10.4775 c 0.381,0 0.6985,0.3175 0.6985,0.6985 v 3.3655 z"
         style="text-align:center;text-anchor:middle;stroke-width:0.26458332"
         id="path214"
         inkscape:connector-curvature="0" />
      <path
         d="m 177.36153,116.02495 c 0,-2.286 -1.8415,-4.1275 -4.1275,-4.1275 h -10.4775 c -2.286,0 -4.1275,1.8415 -4.1275,4.1275 v 2.667 c 0,2.286 1.8415,4.1275 4.1275,4.1275 h 10.4775 c 0.381,0 0.6985,0.3175 0.6985,0.6985 v 2.667 c 0,0.381 -0.3175,0.6985 -0.6985,0.6985 h -10.4775 c -0.381,0 -0.6985,-0.3175 -0.6985,-0.6985 v -0.6985 h -3.429 v 0.6985 c 0,2.286 1.8415,4.1275 4.1275,4.1275 h 10.4775 c 2.286,0 4.1275,-1.8415 4.1275,-4.1275 v -2.667 c 0,-2.286 -1.8415,-4.1275 -4.1275,-4.1275 h -10.4775 c -0.381,0 -0.6985,-0.3175 -0.6985,-0.6985 v -2.667 c 0,-0.381 0.3175,-0.6985 0.6985,-0.6985 h 10.4775 c 0.381,0 0.6985,0.3175 0.6985,0.6985 v 0.6985 h 3.429 z"
         style="text-align:center;text-anchor:middle;stroke-width:0.26458332"
         id="path216"
         inkscape:connector-curvature="0" />
      <path
         d="m 191.53939,115.32645 v -3.429 h -7.5565 v -6.0325 h -3.429 v 10.16 c 0,0 0,0 0,0 v 10.16 c 0,2.286 1.8415,4.1275 4.1275,4.1275 h 6.858 v -3.429 h -6.858 c -0.381,0 -0.6985,-0.3175 -0.6985,-0.6985 v -10.8585 z"
         style="text-align:center;text-anchor:middle;stroke-width:0.26458332"
         id="path218"
         inkscape:connector-curvature="0" />
      <path
         d="m 226.31258,111.89745 h -23.52675 v 18.415 h 3.429 v -14.2875 c 0,-0.381 0.3175,-0.6985 0.6985,-0.6985 h 7.3025 c 0.381,0 0.6985,0.3175 0.6985,0.6985 v 14.2875 h 3.429 v -14.2875 c 0,-0.381 0.3175,-0.6985 0.6985,-0.6985 h 7.27075 c 0.41275,0 0.73025,0.3175 0.73025,0.6985 v 14.2875 h 3.39725 v -14.2875 c 0,-2.286 -1.8415,-4.1275 -4.1275,-4.1275 z"
         style="text-align:center;text-anchor:middle;stroke-width:0.26458332"
         id="path220"
         inkscape:connector-curvature="0" />
      <path
         d="m 237.88596,111.89745 c -2.286,0 -4.1275,1.8415 -4.1275,4.1275 v 10.16 c 0,2.286 1.8415,4.1275 4.1275,4.1275 h 10.4775 c 2.286,0 4.1275,-1.8415 4.1275,-4.1275 v -10.16 c 0,-2.286 -1.8415,-4.1275 -4.1275,-4.1275 z m 10.4775,3.429 c 0.381,0 0.6985,0.3175 0.6985,0.6985 v 10.16 c 0,0.381 -0.3175,0.6985 -0.6985,0.6985 h -10.4775 c -0.381,0 -0.6985,-0.3175 -0.6985,-0.6985 v -10.16 c 0,-0.381 0.3175,-0.6985 0.6985,-0.6985 z"
         style="text-align:center;text-anchor:middle;stroke-width:0.26458332"
         id="path222"
         inkscape:connector-curvature="0" />
      <path
         d="m 270.1251,105.86495 v 6.0325 h -11.176 c -2.286,0 -4.1275,1.8415 -4.1275,4.1275 v 10.16 c 0,2.286 1.8415,4.1275 4.1275,4.1275 h 14.605 v -24.4475 z m -11.176,21.0185 c -0.381,0 -0.6985,-0.3175 -0.6985,-0.6985 v -10.16 c 0,-0.381 0.3175,-0.6985 0.6985,-0.6985 h 10.4775 c 0.381,0 0.6985,0.3175 0.6985,0.6985 v 10.16 c 0,0.381 -0.3175,0.6985 -0.6985,0.6985 z"
         style="text-align:center;text-anchor:middle;stroke-width:0.26458332"
         id="path224"
         inkscape:connector-curvature="0" />
      <path
         d="m 291.54147,111.89745 v 14.2875 c 0,0.381 -0.3175,0.6985 -0.6985,0.6985 h -10.4775 c -0.381,0 -0.6985,-0.3175 -0.6985,-0.6985 v -14.2875 h -3.429 v 14.2875 c 0,2.286 1.8415,4.1275 4.1275,4.1275 h 10.4775 c 2.286,0 4.1275,-1.8415 4.1275,-4.1275 v -14.2875 z"
         style="text-align:center;text-anchor:middle;stroke-width:0.26458332"
         id="path226"
         inkscape:connector-curvature="0" />
      <path
         d="m 298.28239,116.02495 c 0,0 0,0 0,0 v 10.16 c 0,2.286 1.8415,4.1275 4.1275,4.1275 h 3.429 v -3.429 h -3.429 c -0.381,0 -0.6985,-0.3175 -0.6985,-0.6985 v -20.32 h -3.429 z"
         style="text-align:center;text-anchor:middle;stroke-width:0.26458332"
         id="path228"
         inkscape:connector-curvature="0" />
      <path
         d="m 322.46746,111.89745 h -10.4775 c -2.286,0 -4.1275,1.8415 -4.1275,4.1275 v 10.16 c 0,2.286 1.8415,4.1275 4.1275,4.1275 h 14.605 v -3.429 h -14.605 c -0.381,0 -0.6985,-0.3175 -0.6985,-0.6985 v -3.3655 h 15.3035 v -6.7945 c 0,-2.286 -1.8415,-4.1275 -4.1275,-4.1275 z m -11.176,7.493 v -3.3655 c 0,-0.381 0.3175,-0.6985 0.6985,-0.6985 h 10.4775 c 0.381,0 0.6985,0.3175 0.6985,0.6985 v 3.3655 z"
         style="text-align:center;text-anchor:middle;stroke-width:0.26458332"
         id="path230"
         inkscape:connector-curvature="0" />
      <path
         d="m 71.293706,147.13995 c -2.286,0 -4.1275,1.8415 -4.1275,4.1275 v 14.605 c 0,2.286 1.8415,4.1275 4.1275,4.1275 h 14.605 c 2.286,0 4.1275,-1.8415 4.1275,-4.1275 v -14.605 c 0,-2.286 -1.8415,-4.1275 -4.1275,-4.1275 z m 0,19.431 c -0.381,0 -0.6985,-0.3175 -0.6985,-0.6985 v -14.605 c 0,-0.381 0.3175,-0.6985 0.6985,-0.6985 h 14.605 c 0.381,0 0.6985,0.3175 0.6985,0.6985 v 14.605 c 0,0.381 -0.3175,0.6985 -0.6985,0.6985 z"
         style="text-align:center;text-anchor:middle;stroke-width:0.26458332"
         id="path232"
         inkscape:connector-curvature="0" />
      <path
         d="M 108.06417,151.58495 H 93.459175 v 25.7175 h 3.429 v -7.3025 h 11.175995 c 2.286,0 4.1275,-1.8415 4.1275,-4.1275 v -10.16 c 0,-2.286 -1.8415,-4.1275 -4.1275,-4.1275 z m 0.6985,14.2875 c 0,0.381 -0.3175,0.6985 -0.6985,0.6985 H 97.586675 c -0.381,0 -0.6985,-0.3175 -0.6985,-0.6985 v -10.16 c 0,-0.381 0.3175,-0.6985 0.6985,-0.6985 h 10.477495 c 0.381,0 0.6985,0.3175 0.6985,0.6985 z"
         style="text-align:center;text-anchor:middle;stroke-width:0.26458332"
         id="path234"
         inkscape:connector-curvature="0" />
      <path
         d="m 129.05291,151.58495 h -10.4775 c -2.286,0 -4.1275,1.8415 -4.1275,4.1275 v 10.16 c 0,2.286 1.8415,4.1275 4.1275,4.1275 h 14.605 v -3.429 h -14.605 c -0.381,0 -0.6985,-0.3175 -0.6985,-0.6985 v -3.3655 h 15.3035 v -6.7945 c 0,-2.286 -1.8415,-4.1275 -4.1275,-4.1275 z m -11.176,7.493 v -3.3655 c 0,-0.381 0.3175,-0.6985 0.6985,-0.6985 h 10.4775 c 0.381,0 0.6985,0.3175 0.6985,0.6985 v 3.3655 z"
         style="text-align:center;text-anchor:middle;stroke-width:0.26458332"
         id="path236"
         inkscape:connector-curvature="0" />
      <path
         d="m 151.10031,151.58495 h -14.605 v 18.415 h 3.429 v -14.2875 c 0,-0.381 0.3175,-0.6985 0.6985,-0.6985 h 10.4775 c 0.381,0 0.6985,0.3175 0.6985,0.6985 v 14.2875 h 3.429 v -14.2875 c 0,-2.286 -1.8415,-4.1275 -4.1275,-4.1275 z"
         style="text-align:center;text-anchor:middle;stroke-width:0.26458332"
         id="path238"
         inkscape:connector-curvature="0" />
      <path
         d="m 171.78146,151.58495 c -2.286,0 -4.1275,1.8415 -4.1275,4.1275 v 10.16 c 0,2.286 1.8415,4.1275 4.1275,4.1275 h 10.4775 c 2.286,0 4.1275,-1.8415 4.1275,-4.1275 v -10.16 c 0,-2.286 -1.8415,-4.1275 -4.1275,-4.1275 z m 10.4775,3.429 c 0.381,0 0.6985,0.3175 0.6985,0.6985 v 10.16 c 0,0.381 -0.3175,0.6985 -0.6985,0.6985 h -10.4775 c -0.381,0 -0.6985,-0.3175 -0.6985,-0.6985 v -10.16 c 0,-0.381 0.3175,-0.6985 0.6985,-0.6985 z"
         style="text-align:center;text-anchor:middle;stroke-width:0.26458332"
         id="path240"
         inkscape:connector-curvature="0" />
      <path
         d="m 203.81027,151.58495 h -14.605 v 18.415 h 3.429 v -14.2875 c 0,-0.381 0.3175,-0.6985 0.6985,-0.6985 h 10.4775 c 0.381,0 0.6985,0.3175 0.6985,0.6985 v 14.2875 h 3.429 v -14.2875 c 0,-2.286 -1.8415,-4.1275 -4.1275,-4.1275 z"
         style="text-align:center;text-anchor:middle;stroke-width:0.26458332"
         id="path242"
         inkscape:connector-curvature="0" />
      <path
         d="m 211.21794,155.71245 c 0,0 0,0 0,0 v 10.16 c 0,2.286 1.8415,4.1275 4.1275,4.1275 h 3.429 v -3.429 h -3.429 c -0.381,0 -0.6985,-0.3175 -0.6985,-0.6985 v -20.32 h -3.429 z"
         style="text-align:center;text-anchor:middle;stroke-width:0.26458332"
         id="path244"
         inkscape:connector-curvature="0" />
      <path
         d="m 238.74866,162.95145 v -11.303 h -3.429 v 14.224 c 0,0.381 -0.3175,0.6985 -0.6985,0.6985 h -10.4775 c -0.381,0 -0.6985,-0.3175 -0.6985,-0.6985 v -14.224 h -3.429 v 14.224 c 0,2.286 1.8415,4.1275 4.1275,4.1275 h 11.176 v 3.175 c 0,0.381 -0.3175,0.6985 -0.6985,0.6985 h -11.3665 v 3.429 h 11.3665 c 2.286,0 4.1275,-1.8415 4.1275,-4.1275 v -10.16 c 0,0 0,-0.0317 0,-0.0635 z"
         style="text-align:center;text-anchor:middle;stroke-width:0.26458332"
         id="path246"
         inkscape:connector-curvature="0" />
      <path
         d="m 278.86826,151.58495 -4.66725,12.22375 -5.61975,-12.22375 h -3.90525 l -5.30225,12.22375 -4.98475,-12.22375 h -3.65125 l 7.239,18.415 h 2.76225 l -0.0317,-0.0318 0.0635,0.0318 5.842,-13.68425 6.19125,13.68425 h 2.794 l 6.9215,-18.415 z"
         style="text-align:center;text-anchor:middle;stroke-width:0.26458332"
         id="path248"
         inkscape:connector-curvature="0" />
      <path
         d="m 299.61837,151.58495 h -11.176 v -6.0325 h -3.429 v 24.4475 h 3.429 v -14.2875 c 0,-0.381 0.3175,-0.6985 0.6985,-0.6985 h 10.4775 c 0.381,0 0.6985,0.3175 0.6985,0.6985 v 14.2875 h 3.429 v -14.2875 c 0,-2.286 -1.87325,-4.1275 -4.1275,-4.1275 z"
         style="text-align:center;text-anchor:middle;stroke-width:0.26458332"
         id="path250"
         inkscape:connector-curvature="0" />
      <path
         d="m 320.73113,151.58495 h -10.4775 c -2.286,0 -4.1275,1.8415 -4.1275,4.1275 v 10.16 c 0,2.286 1.8415,4.1275 4.1275,4.1275 h 14.605 v -3.429 h -14.605 c -0.381,0 -0.6985,-0.3175 -0.6985,-0.6985 v -3.3655 h 15.3035 v -6.7945 c 0,-2.286 -1.8415,-4.1275 -4.1275,-4.1275 z m -11.176,7.493 v -3.3655 c 0,-0.381 0.3175,-0.6985 0.6985,-0.6985 h 10.4775 c 0.381,0 0.6985,0.3175 0.6985,0.6985 v 3.3655 z"
         style="text-align:center;text-anchor:middle;stroke-width:0.26458332"
         id="path252"
         inkscape:connector-curvature="0" />
      <path
         d="m 342.77853,151.58495 h -14.605 v 18.415 h 3.429 v -14.2875 c 0,-0.381 0.3175,-0.6985 0.6985,-0.6985 h 10.4775 c 0.381,0 0.6985,0.3175 0.6985,0.6985 v 14.2875 h 3.429 v -14.2875 c 0,-2.286 -1.8415,-4.1275 -4.1275,-4.1275 z"
         style="text-align:center;text-anchor:middle;stroke-width:0.26458332"
         id="path254"
         inkscape:connector-curvature="0" />
      <path
         d="m 95.770475,191.27245 v 14.2875 c 0,0.381 -0.3175,0.6985 -0.6985,0.6985 h -10.4775 c -0.381,0 -0.6985,-0.3175 -0.6985,-0.6985 v -14.2875 h -3.429 v 14.2875 c 0,2.286 1.8415,4.1275 4.1275,4.1275 h 10.4775 c 2.286,0 4.1275,-1.8415 4.1275,-4.1275 v -14.2875 z"
         style="text-align:center;text-anchor:middle;stroke-width:0.26458332"
         id="path256"
         inkscape:connector-curvature="0" />
      <path
         d="m 117.1799,191.27245 h -14.605 v 18.415 h 3.429 v -14.2875 c 0,-0.381 0.3175,-0.6985 0.6985,-0.6985 h 10.4775 c 0.381,0 0.6985,0.3175 0.6985,0.6985 v 14.2875 h 3.429 v -14.2875 c 0,-2.286 -1.8415,-4.1275 -4.1275,-4.1275 z"
         style="text-align:center;text-anchor:middle;stroke-width:0.26458332"
         id="path258"
         inkscape:connector-curvature="0" />
      <path
         d="m 139.25607,191.27245 h -14.605 v 25.7175 h 3.429 v -7.3025 h 11.176 c 2.286,0 4.1275,-1.8415 4.1275,-4.1275 v -10.16 c 0,-2.286 -1.8415,-4.1275 -4.1275,-4.1275 z m 0.6985,14.2875 c 0,0.381 -0.3175,0.6985 -0.6985,0.6985 h -10.4775 c -0.381,0 -0.6985,-0.3175 -0.6985,-0.6985 v -10.16 c 0,-0.381 0.3175,-0.6985 0.6985,-0.6985 h 10.4775 c 0.381,0 0.6985,0.3175 0.6985,0.6985 z"
         style="text-align:center;text-anchor:middle;stroke-width:0.26458332"
         id="path260"
         inkscape:connector-curvature="0" />
      <path
         d="m 150.10911,191.27245 c -2.286,0 -4.1275,1.8415 -4.1275,4.1275 v 10.16 c 0,0 0,0 0,0 v 4.1275 h 3.429 v -14.2875 c 0,-0.381 0.3175,-0.6985 0.6985,-0.6985 h 10.287 v -3.429 z"
         style="text-align:center;text-anchor:middle;stroke-width:0.26458332"
         id="path262"
         inkscape:connector-curvature="0" />
      <path
         d="m 176.80193,191.27245 h -10.4775 c -2.286,0 -4.1275,1.8415 -4.1275,4.1275 v 10.16 c 0,2.286 1.8415,4.1275 4.1275,4.1275 h 14.605 v -3.429 h -14.605 c -0.381,0 -0.6985,-0.3175 -0.6985,-0.6985 v -3.3655 h 15.3035 v -6.7945 c 0,-2.286 -1.8415,-4.1275 -4.1275,-4.1275 z m -11.176,7.493 v -3.3655 c 0,-0.381 0.3175,-0.6985 0.6985,-0.6985 h 10.4775 c 0.381,0 0.6985,0.3175 0.6985,0.6985 v 3.3655 z"
         style="text-align:center;text-anchor:middle;stroke-width:0.26458332"
         id="path264"
         inkscape:connector-curvature="0" />
      <path
         d="m 202.78633,195.39995 c 0,-2.286 -1.8415,-4.1275 -4.1275,-4.1275 h -10.4775 c -2.286,0 -4.1275,1.8415 -4.1275,4.1275 v 2.667 c 0,2.286 1.8415,4.1275 4.1275,4.1275 h 10.4775 c 0.381,0 0.6985,0.3175 0.6985,0.6985 v 2.667 c 0,0.381 -0.3175,0.6985 -0.6985,0.6985 h -10.4775 c -0.381,0 -0.6985,-0.3175 -0.6985,-0.6985 v -0.6985 h -3.429 v 0.6985 c 0,2.286 1.8415,4.1275 4.1275,4.1275 h 10.4775 c 2.286,0 4.1275,-1.8415 4.1275,-4.1275 v -2.667 c 0,-2.286 -1.8415,-4.1275 -4.1275,-4.1275 h -10.4775 c -0.381,0 -0.6985,-0.3175 -0.6985,-0.6985 v -2.667 c 0,-0.381 0.3175,-0.6985 0.6985,-0.6985 h 10.4775 c 0.381,0 0.6985,0.3175 0.6985,0.6985 v 0.6985 h 3.429 z"
         style="text-align:center;text-anchor:middle;stroke-width:0.26458332"
         id="path266"
         inkscape:connector-curvature="0" />
      <path
         d="m 224.55244,195.39995 c 0,-2.286 -1.8415,-4.1275 -4.1275,-4.1275 h -10.4775 c -2.286,0 -4.1275,1.8415 -4.1275,4.1275 v 2.667 c 0,2.286 1.8415,4.1275 4.1275,4.1275 h 10.4775 c 0.381,0 0.6985,0.3175 0.6985,0.6985 v 2.667 c 0,0.381 -0.3175,0.6985 -0.6985,0.6985 h -10.4775 c -0.381,0 -0.6985,-0.3175 -0.6985,-0.6985 v -0.6985 h -3.429 v 0.6985 c 0,2.286 1.8415,4.1275 4.1275,4.1275 h 10.4775 c 2.286,0 4.1275,-1.8415 4.1275,-4.1275 v -2.667 c 0,-2.286 -1.8415,-4.1275 -4.1275,-4.1275 h -10.4775 c -0.381,0 -0.6985,-0.3175 -0.6985,-0.6985 v -2.667 c 0,-0.381 0.3175,-0.6985 0.6985,-0.6985 h 10.4775 c 0.381,0 0.6985,0.3175 0.6985,0.6985 v 0.6985 h 3.429 z"
         style="text-align:center;text-anchor:middle;stroke-width:0.26458332"
         id="path268"
         inkscape:connector-curvature="0" />
      <path
         d="m 242.55221,191.27245 v 14.2875 c 0,0.381 -0.3175,0.6985 -0.6985,0.6985 h -10.4775 c -0.381,0 -0.6985,-0.3175 -0.6985,-0.6985 v -14.2875 h -3.429 v 14.2875 c 0,2.286 1.8415,4.1275 4.1275,4.1275 h 10.4775 c 2.286,0 4.1275,-1.8415 4.1275,-4.1275 v -14.2875 z"
         style="text-align:center;text-anchor:middle;stroke-width:0.26458332"
         id="path270"
         inkscape:connector-curvature="0" />
      <path
         d="m 253.42064,191.27245 c -2.286,0 -4.1275,1.8415 -4.1275,4.1275 v 10.16 c 0,0 0,0 0,0 v 4.1275 h 3.429 v -14.2875 c 0,-0.381 0.3175,-0.6985 0.6985,-0.6985 h 10.287 v -3.429 z"
         style="text-align:center;text-anchor:middle;stroke-width:0.26458332"
         id="path272"
         inkscape:connector-curvature="0" />
      <path
         d="m 265.54021,209.68745 h 3.429 v -18.415 h -3.429 z m 0,-24.4475 v 3.429 h 3.429 v -3.429 z"
         style="text-align:center;text-anchor:middle;stroke-width:0.26458332"
         id="path274"
         inkscape:connector-curvature="0" />
      <path
         d="m 272.23896,194.70145 h 14.1605 l -14.1605,10.922 v 4.064 h 18.7325 v -3.429 h -14.1605 l 14.1605,-10.922 v -4.064 h -18.7325 z"
         style="text-align:center;text-anchor:middle;stroke-width:0.26458332"
         id="path276"
         inkscape:connector-curvature="0" />
      <path
         d="m 308.26678,191.27245 h -10.4775 c -2.286,0 -4.1275,1.8415 -4.1275,4.1275 v 10.16 c 0,2.286 1.8415,4.1275 4.1275,4.1275 h 14.605 v -3.429 h -14.605 c -0.381,0 -0.6985,-0.3175 -0.6985,-0.6985 v -3.3655 h 15.3035 v -6.7945 c 0,-2.286 -1.8415,-4.1275 -4.1275,-4.1275 z m -11.176,7.493 v -3.3655 c 0,-0.381 0.3175,-0.6985 0.6985,-0.6985 h 10.4775 c 0.381,0 0.6985,0.3175 0.6985,0.6985 v 3.3655 z"
         style="text-align:center;text-anchor:middle;stroke-width:0.26458332"
         id="path278"
         inkscape:connector-curvature="0" />
      <path
         d="m 330.02842,185.23995 v 6.0325 h -11.176 c -2.286,0 -4.1275,1.8415 -4.1275,4.1275 v 10.16 c 0,2.286 1.8415,4.1275 4.1275,4.1275 h 14.605 v -24.4475 z m -11.176,21.0185 c -0.381,0 -0.6985,-0.3175 -0.6985,-0.6985 v -10.16 c 0,-0.381 0.3175,-0.6985 0.6985,-0.6985 h 10.4775 c 0.381,0 0.6985,0.3175 0.6985,0.6985 v 10.16 c 0,0.381 -0.3175,0.6985 -0.6985,0.6985 z"
         style="text-align:center;text-anchor:middle;stroke-width:0.26458332"
         id="path280"
         inkscape:connector-curvature="0" />
      <path
         d="m 65.804181,249.37495 h 3.429 v -22.86 h -3.429 z"
         style="text-align:center;text-anchor:middle;stroke-width:0.26458332"
         id="path282"
         inkscape:connector-curvature="0" />
      <path
         d="m 87.321255,230.95995 h -14.605 v 18.415 h 3.429 v -14.2875 c 0,-0.381 0.3175,-0.6985 0.6985,-0.6985 h 10.4775 c 0.381,0 0.6985,0.3175 0.6985,0.6985 v 14.2875 h 3.429 v -14.2875 c 0,-2.286 -1.8415,-4.1275 -4.1275,-4.1275 z"
         style="text-align:center;text-anchor:middle;stroke-width:0.26458332"
         id="path284"
         inkscape:connector-curvature="0" />
      <path
         d="m 109.11168,224.92745 v 6.0325 H 97.935677 c -2.286,0 -4.1275,1.8415 -4.1275,4.1275 v 10.16 c 0,2.286 1.8415,4.1275 4.1275,4.1275 h 14.605003 v -24.4475 z m -11.176003,21.0185 c -0.381,0 -0.6985,-0.3175 -0.6985,-0.6985 v -10.16 c 0,-0.381 0.3175,-0.6985 0.6985,-0.6985 h 10.477503 c 0.381,0 0.6985,0.3175 0.6985,0.6985 v 10.16 c 0,0.381 -0.3175,0.6985 -0.6985,0.6985 z"
         style="text-align:center;text-anchor:middle;stroke-width:0.26458332"
         id="path286"
         inkscape:connector-curvature="0" />
      <path
         d="m 115.93693,249.37495 h 3.429 v -18.415 h -3.429 z m 0,-24.4475 v 3.429 h 3.429 v -3.429 z"
         style="text-align:center;text-anchor:middle;stroke-width:0.26458332"
         id="path288"
         inkscape:connector-curvature="0" />
      <path
         d="m 126.66794,245.94595 c -0.381,0 -0.6985,-0.3175 -0.6985,-0.6985 v -10.16 c 0,-0.381 0.3175,-0.6985 0.6985,-0.6985 h 14.5415 v -3.429 h -14.5415 c -2.286,0 -4.1275,1.8415 -4.1275,4.1275 v 10.16 c 0,2.286 1.8415,4.1275 4.1275,4.1275 h 14.605 v -3.429 z"
         style="text-align:center;text-anchor:middle;stroke-width:0.26458332"
         id="path290"
         inkscape:connector-curvature="0" />
      <path
         d="m 159.25336,230.95995 h -14.605 v 3.429 h 14.605 c 0.381,0 0.6985,0.3175 0.6985,0.6985 v 3.3655 h -15.3035 v 6.7945 c 0,2.286 1.8415,4.1275 4.1275,4.1275 h 14.605 v -14.2875 c 0,-2.286 -1.8415,-4.1275 -4.1275,-4.1275 z m 0.6985,14.986 h -11.176 c -0.381,0 -0.6985,-0.3175 -0.6985,-0.6985 v -3.3655 h 11.8745 z"
         style="text-align:center;text-anchor:middle;stroke-width:0.26458332"
         id="path292"
         inkscape:connector-curvature="0" />
      <path
         d="m 177.67977,234.38895 v -3.429 h -7.5565 v -6.0325 h -3.429 v 10.16 c 0,0 0,0 0,0 v 10.16 c 0,2.286 1.8415,4.1275 4.1275,4.1275 h 6.858 v -3.429 h -6.858 c -0.381,0 -0.6985,-0.3175 -0.6985,-0.6985 v -10.8585 z"
         style="text-align:center;text-anchor:middle;stroke-width:0.26458332"
         id="path294"
         inkscape:connector-curvature="0" />
      <path
         d="m 183.78073,230.95995 c -2.286,0 -4.1275,1.8415 -4.1275,4.1275 v 10.16 c 0,2.286 1.8415,4.1275 4.1275,4.1275 h 10.4775 c 2.286,0 4.1275,-1.8415 4.1275,-4.1275 v -10.16 c 0,-2.286 -1.8415,-4.1275 -4.1275,-4.1275 z m 10.4775,3.429 c 0.381,0 0.6985,0.3175 0.6985,0.6985 v 10.16 c 0,0.381 -0.3175,0.6985 -0.6985,0.6985 h -10.4775 c -0.381,0 -0.6985,-0.3175 -0.6985,-0.6985 v -10.16 c 0,-0.381 0.3175,-0.6985 0.6985,-0.6985 z"
         style="text-align:center;text-anchor:middle;stroke-width:0.26458332"
         id="path296"
         inkscape:connector-curvature="0" />
      <path
         d="m 205.14451,230.95995 c -2.286,0 -4.1275,1.8415 -4.1275,4.1275 v 10.16 c 0,0 0,0 0,0 v 4.1275 h 3.429 v -14.2875 c 0,-0.381 0.3175,-0.6985 0.6985,-0.6985 h 10.287 v -3.429 z"
         style="text-align:center;text-anchor:middle;stroke-width:0.26458332"
         id="path298"
         inkscape:connector-curvature="0" />
      <path
         d="m 226.44182,235.08745 c 0,0 0,0 0,0 v 10.16 c 0,2.286 1.8415,4.1275 4.1275,4.1275 h 3.429 v -3.429 h -3.429 c -0.381,0 -0.6985,-0.3175 -0.6985,-0.6985 v -20.32 h -3.429 z"
         style="text-align:center;text-anchor:middle;stroke-width:0.26458332"
         id="path300"
         inkscape:connector-curvature="0" />
      <path
         d="m 236.36369,249.37495 h 3.429 v -18.415 h -3.429 z m 0,-24.4475 v 3.429 h 3.429 v -3.429 z"
         style="text-align:center;text-anchor:middle;stroke-width:0.26458332"
         id="path302"
         inkscape:connector-curvature="0" />
      <path
         d="m 261.3822,242.3582 v -7.27075 c 0,-2.286 -1.8415,-4.1275 -4.1275,-4.1275 h -10.4775 c -2.286,0 -4.1275,1.8415 -4.1275,4.1275 v 10.16 c 0,2.286 1.8415,4.1275 4.1275,4.1275 h 11.176 v 3.175 c 0,0.381 -0.3175,0.6985 -0.6985,0.6985 h -11.3665 v 3.429 h 11.3665 c 2.286,0 4.1275,-1.8415 4.1275,-4.1275 v -10.16 c 0,0 0,-0.0317 0,-0.0317 z m -14.605,3.58775 c -0.381,0 -0.6985,-0.3175 -0.6985,-0.6985 v -10.16 c 0,-0.381 0.3175,-0.6985 0.6985,-0.6985 h 10.4775 c 0.381,0 0.6985,0.3175 0.6985,0.6985 v 10.16 c 0,0.381 -0.3175,0.6985 -0.6985,0.6985 z"
         style="text-align:center;text-anchor:middle;stroke-width:0.26458332"
         id="path304"
         inkscape:connector-curvature="0" />
      <path
         d="m 279.37155,230.95995 h -11.176 v -6.0325 h -3.429 v 24.4475 h 3.429 v -14.2875 c 0,-0.381 0.3175,-0.6985 0.6985,-0.6985 h 10.4775 c 0.381,0 0.6985,0.3175 0.6985,0.6985 v 14.2875 h 3.429 v -14.2875 c 0,-2.286 -1.87325,-4.1275 -4.1275,-4.1275 z"
         style="text-align:center;text-anchor:middle;stroke-width:0.26458332"
         id="path306"
         inkscape:connector-curvature="0" />
      <path
         d="m 296.92831,234.38895 v -3.429 h -7.5565 v -6.0325 h -3.429 v 10.16 c 0,0 0,0 0,0 v 10.16 c 0,2.286 1.8415,4.1275 4.1275,4.1275 h 6.858 v -3.429 h -6.858 c -0.381,0 -0.6985,-0.3175 -0.6985,-0.6985 v -10.8585 z"
         style="text-align:center;text-anchor:middle;stroke-width:0.26458332"
         id="path308"
         inkscape:connector-curvature="0" />
      <path
         d="m 312.207,230.95995 c -2.286,0 -4.1275,1.8415 -4.1275,4.1275 v 10.16 c 0,2.286 1.8415,4.1275 4.1275,4.1275 h 10.4775 c 2.286,0 4.1275,-1.8415 4.1275,-4.1275 v -10.16 c 0,-2.286 -1.8415,-4.1275 -4.1275,-4.1275 z m 10.4775,3.429 c 0.381,0 0.6985,0.3175 0.6985,0.6985 v 10.16 c 0,0.381 -0.3175,0.6985 -0.6985,0.6985 H 312.207 c -0.381,0 -0.6985,-0.3175 -0.6985,-0.6985 v -10.16 c 0,-0.381 0.3175,-0.6985 0.6985,-0.6985 z"
         style="text-align:center;text-anchor:middle;stroke-width:0.26458332"
         id="path310"
         inkscape:connector-curvature="0" />
      <path
         d="m 344.23581,230.95995 h -14.605 v 18.415 h 3.429 v -14.2875 c 0,-0.381 0.3175,-0.6985 0.6985,-0.6985 h 10.4775 c 0.381,0 0.6985,0.3175 0.6985,0.6985 v 14.2875 h 3.429 v -14.2875 c 0,-2.286 -1.8415,-4.1275 -4.1275,-4.1275 z"
         style="text-align:center;text-anchor:middle;stroke-width:0.26458332"
         id="path312"
         inkscape:connector-curvature="0" />
    </g>
  </g>
</svg>
