<?xml version="1.0" encoding="UTF-8" standalone="no"?>
<!-- Created with Inkscape (http://www.inkscape.org/) -->

<svg
   xmlns:dc="http://purl.org/dc/elements/1.1/"
   xmlns:cc="http://creativecommons.org/ns#"
   xmlns:rdf="http://www.w3.org/1999/02/22-rdf-syntax-ns#"
   xmlns:svg="http://www.w3.org/2000/svg"
   xmlns="http://www.w3.org/2000/svg"
   xmlns:sodipodi="http://sodipodi.sourceforge.net/DTD/sodipodi-0.dtd"
   xmlns:inkscape="http://www.inkscape.org/namespaces/inkscape"
   width="420mm"
   height="297mm"
   viewBox="0 0 420 297"
   version="1.1"
   id="svg8"
   inkscape:version="0.92.3 (2405546, 2018-03-11)"
   sodipodi:docname="SchraffurA3.svg"
   inkscape:export-filename="/home/housemeista/Dropbox/Fla/Stencilkram Inkscape/Vorlagen/schildcyber.png"
   inkscape:export-xdpi="96"
   inkscape:export-ydpi="96">
  <defs
     id="defs2" />
  <sodipodi:namedview
     id="base"
     pagecolor="#ffffff"
     bordercolor="#666666"
     borderopacity="1.0"
     inkscape:pageopacity="0"
     inkscape:pageshadow="2"
     inkscape:zoom="0.5"
     inkscape:cx="786.27427"
     inkscape:cy="491.69091"
     inkscape:document-units="mm"
     inkscape:current-layer="layer1"
     showgrid="true"
     inkscape:pagecheckerboard="true"
     inkscape:window-width="1920"
     inkscape:window-height="1031"
     inkscape:window-x="0"
     inkscape:window-y="25"
     inkscape:window-maximized="1"
     showguides="true">
    <inkscape:grid
       type="xygrid"
       id="grid3713" />
  </sodipodi:namedview>
  <metadata
     id="metadata5">
    <rdf:RDF>
      <cc:Work
         rdf:about="">
        <dc:format>image/svg+xml</dc:format>
        <dc:type
           rdf:resource="http://purl.org/dc/dcmitype/StillImage" />
        <dc:title></dc:title>
      </cc:Work>
    </rdf:RDF>
  </metadata>
  <g
     inkscape:label="Ebene 1"
     inkscape:groupmode="layer"
     id="layer1">
    <path
       style="opacity:1;vector-effect:none;fill:#4d4d4d;fill-opacity:1;stroke:#000000;stroke-width:0.99999994;stroke-linecap:butt;stroke-linejoin:miter;stroke-miterlimit:4;stroke-dasharray:none;stroke-dashoffset:0;stroke-opacity:0"
       d="M 130.625 22.519531 L 80 73.144531 L 80 206.76953 L 264.25 22.519531 L 130.625 22.519531 z M 397.875 22.519531 L 80 340.39453 L 80 473.8418 L 531.32227 22.519531 L 397.875 22.519531 z M 664.95117 22.519531 L 80 607.4707 L 80 741.10156 L 798.58203 22.519531 L 664.95117 22.519531 z M 932.21094 22.519531 L 80 874.73047 L 80 1008.8926 L 1066.375 22.519531 L 932.21094 22.519531 z M 1200 22.519531 L 141.73242 1080.7871 L 275.2793 1080.7871 L 1333.5449 22.519531 L 1200 22.519531 z M 1467.1738 22.519531 L 408.9043 1080.7871 L 541.73242 1080.7871 L 1516.2207 106.29883 L 1516.2207 22.519531 L 1467.1738 22.519531 z M 1516.2207 239.92383 L 675.35938 1080.7871 L 808.94141 1080.7871 L 1516.2207 373.50781 L 1516.2207 239.92383 z M 1516.2207 507.13281 L 942.56641 1080.7871 L 1076.0703 1080.7871 L 1516.2207 640.63672 L 1516.2207 507.13281 z M 1516.2207 774.26367 L 1209.6973 1080.7871 L 1343.5 1080.7871 L 1516.2207 908.06641 L 1516.2207 774.26367 z M 1516.2207 1041.6934 L 1477.127 1080.7871 L 1516.2207 1080.7871 L 1516.2207 1041.6934 z "
       transform="scale(0.26458333)"
       id="rect1077" />
  </g>
</svg>
