<?xml version="1.0" encoding="UTF-8" standalone="no"?>
<!-- Created with Inkscape (http://www.inkscape.org/) -->

<svg
   xmlns:dc="http://purl.org/dc/elements/1.1/"
   xmlns:cc="http://creativecommons.org/ns#"
   xmlns:rdf="http://www.w3.org/1999/02/22-rdf-syntax-ns#"
   xmlns:svg="http://www.w3.org/2000/svg"
   xmlns="http://www.w3.org/2000/svg"
   xmlns:sodipodi="http://sodipodi.sourceforge.net/DTD/sodipodi-0.dtd"
   xmlns:inkscape="http://www.inkscape.org/namespaces/inkscape"
   width="297mm"
   height="420mm"
   viewBox="0 0 297 420"
   version="1.1"
   id="svg8"
   inkscape:version="0.92.3 (2405546, 2018-03-11)"
   sodipodi:docname="testschnitte.svg"
   inkscape:export-filename="/home/housemeista/Dropbox/Fla/Stencilkram Inkscape/Vorlagen/schildcyber.png"
   inkscape:export-xdpi="96"
   inkscape:export-ydpi="96">
  <defs
     id="defs2" />
  <sodipodi:namedview
     id="base"
     pagecolor="#ffffff"
     bordercolor="#666666"
     borderopacity="1.0"
     inkscape:pageopacity="0"
     inkscape:pageshadow="2"
     inkscape:zoom="0.49497475"
     inkscape:cx="607.36079"
     inkscape:cy="1328.0891"
     inkscape:document-units="mm"
     inkscape:current-layer="layer1"
     showgrid="true"
     inkscape:pagecheckerboard="true"
     inkscape:window-width="1920"
     inkscape:window-height="1031"
     inkscape:window-x="0"
     inkscape:window-y="25"
     inkscape:window-maximized="1"
     showguides="false">
    <inkscape:grid
       type="xygrid"
       id="grid3713" />
  </sodipodi:namedview>
  <metadata
     id="metadata5">
    <rdf:RDF>
      <cc:Work
         rdf:about="">
        <dc:format>image/svg+xml</dc:format>
        <dc:type
           rdf:resource="http://purl.org/dc/dcmitype/StillImage" />
        <dc:title />
      </cc:Work>
    </rdf:RDF>
  </metadata>
  <g
     inkscape:label="Ebene 1"
     inkscape:groupmode="layer"
     id="layer1"
     transform="translate(0,123)">
    <g
       aria-label="CYBER"
       style="font-style:normal;font-variant:normal;font-weight:normal;font-stretch:normal;font-size:14.11111069px;line-height:14.11111069px;font-family:'Capture Smallz Clean';-inkscape-font-specification:'Capture Smallz Clean';letter-spacing:0px;word-spacing:0px;fill:#f9f9f9;fill-opacity:1;stroke:none;stroke-width:0.26458332"
       id="text3935"
       transform="matrix(0.98938721,0,0,0.98938721,-0.63186457,2.5576766)">
      <path
         d="m 14.409991,-114.27312 q -1.378038,0.16536 -2.392274,1.4552 -1.157552,1.47726 -1.157552,3.57188 0,2.08359 1.157552,3.56085 1.014236,1.30087 2.392274,1.46623 v 2.86632 q -2.921441,-0.11024 -5.0160588,-2.3151 -2.2158854,-2.31511 -2.2158854,-5.60035 0,-3.28524 2.2158854,-5.61137 2.0946178,-2.19384 5.0160588,-2.30408 z m 3.197049,1.4552 q -1.091406,-1.40008 -2.623785,-1.47725 v -2.8994 q 2.965538,0.0992 5.093229,2.31511 1.080382,1.1355 1.631598,2.50252 l -3.130903,1.5434 q -0.275608,-1.10243 -0.970139,-1.98438 z m 3.869531,7.18785 q -0.529167,1.05833 -1.400087,1.96233 -2.127691,2.22691 -5.093229,2.32613 v -2.8553 q 1.532379,-0.0772 2.623785,-1.48828 0.540191,-0.69453 0.826823,-1.52135 z"
         style="font-size:22.57777786px;line-height:14.11111069px;text-align:center;text-anchor:middle;fill:#f9f9f9;stroke-width:0.26458332"
         id="path649"
         inkscape:connector-curvature="0" />
      <path
         d="m 22.579002,-117.16149 h 3.957725 l 2.337153,4.00182 -1.995399,3.35139 z m 4.475868,8.14696 4.7625,-8.14696 h 3.957725 l -5.115277,8.7533 v 7.0335 h -3.593924 z"
         style="font-size:22.57777786px;line-height:14.11111069px;text-align:center;text-anchor:middle;fill:#f9f9f9;stroke-width:0.26458332"
         id="path651"
         inkscape:connector-curvature="0" />
      <path
         d="m 40.493498,-101.34161 h -3.593924 v -15.84193 h 3.593924 z m 3.957725,-15.84193 q 3.81441,0 4.817622,2.71198 0.23151,0.54019 0.23151,1.24574 v 0.27561 q 0,1.48828 -1.455208,2.71198 l -0.507118,0.28663 -0.264584,0.0882 q 0.429948,0.23151 0.705556,0.3638 1.675694,1.00321 1.907205,2.98759 0.05512,0.22048 0.05512,0.51814 -0.08819,1.41111 -0.275607,1.6316 -0.110243,0.59531 -0.782726,1.41111 -0.79375,1.12448 -2.866319,1.5875 -0.551216,0.0331 -1.609549,0.0331 h -3.307292 v -2.86632 h 3.307292 q 1.807986,-0.46302 1.841059,-1.74184 v -0.46302 q 0.08819,-0.8599 -0.782726,-1.41111 -0.176389,-0.27561 -1.058333,-0.35278 h -3.296267 v -2.98759 h 3.296267 l 0.551215,-0.0441 q 1.003212,-0.42995 1.003212,-1.57648 l -0.05512,-0.39687 -0.110243,-0.27561 q -0.496094,-0.63941 -1.389063,-0.72761 h -3.340365 v -3.00963 z"
         style="font-size:22.57777786px;line-height:14.11111069px;text-align:center;text-anchor:middle;fill:#f9f9f9;stroke-width:0.26458332"
         id="path653"
         inkscape:connector-curvature="0" />
      <path
         d="m 54.648706,-101.34161 h -3.593924 v -15.84193 h 3.593924 z m 8.025695,-15.80886 v 2.91042 h -7.408334 v -2.91042 z m -0.584289,5.9862 v 2.91042 h -6.801996 v -2.91042 z m 0.617361,6.89019 v 2.91042 H 55.29914 v -2.91042 z"
         style="font-size:22.57777786px;line-height:14.11111069px;text-align:center;text-anchor:middle;fill:#f9f9f9;stroke-width:0.26458332"
         id="path655"
         inkscape:connector-curvature="0" />
      <path
         d="m 67.392805,-101.34161 h -3.593924 v -15.84193 h 3.593924 z m 7.22092,-7.11068 q 0.418924,0.42995 0.804774,1.24575 0.165365,0.17638 0.286632,1.41111 l 0.110243,0.56224 q 0.374827,2.24895 0.617361,2.84427 0.154341,0.45199 0.672483,1.04731 H 73.34593 q -0.231511,-0.022 -0.672483,-1.36702 -0.09922,-0.16536 -0.562239,-3.14192 -0.198438,-0.70556 -0.903993,-1.12448 -0.661459,-0.23151 -3.241146,-0.23151 v -2.86632 h 2.877343 q 1.686719,-0.59532 1.686719,-2.22691 v -0.27561 q -0.374826,-1.77491 -2.028472,-1.84106 h -2.53559 v -2.8112 h 2.53559 q 3.186024,0 4.619184,1.73082 1.014236,1.47725 1.014236,3.09783 v 0.20946 q 0,1.85208 -1.069358,3.25217 -0.198437,0.26458 -0.451996,0.48507 z"
         style="font-size:22.57777786px;line-height:14.11111069px;text-align:center;text-anchor:middle;fill:#f9f9f9;stroke-width:0.26458332"
         id="path657"
         inkscape:connector-curvature="0" />
    </g>
    <text
       xml:space="preserve"
       style="font-style:normal;font-variant:normal;font-weight:normal;font-stretch:normal;font-size:10.41260052px;line-height:1.25;font-family:'Leipzig Fraktur UNZ1A';-inkscape-font-specification:'Leipzig Fraktur UNZ1A';letter-spacing:0px;word-spacing:0px;fill:#000000;fill-opacity:1;stroke:none;stroke-width:0.260315"
       x="26.135876"
       y="9.153347"
       id="text378"><tspan
         sodipodi:role="line"
         id="tspan376"
         x="26.135876"
         y="18.680193"
         style="stroke-width:0.260315" /></text>
    <g
       aria-label="CYBER"
       style="font-style:normal;font-variant:normal;font-weight:normal;font-stretch:normal;font-size:14.11111069px;line-height:14.11111069px;font-family:'Capture Smallz Clean';-inkscape-font-specification:'Capture Smallz Clean';letter-spacing:0px;word-spacing:0px;fill:#f9f9f9;fill-opacity:1;stroke:none;stroke-width:0.26458332"
       id="text3935-6"
       transform="matrix(0.98938721,0,0,0.98938721,72.256346,2.5576809)">
      <path
         d="m 14.409991,-114.27312 q -1.378038,0.16536 -2.392274,1.4552 -1.157552,1.47726 -1.157552,3.57188 0,2.08359 1.157552,3.56085 1.014236,1.30087 2.392274,1.46623 v 2.86632 q -2.921441,-0.11024 -5.0160588,-2.3151 -2.2158854,-2.31511 -2.2158854,-5.60035 0,-3.28524 2.2158854,-5.61137 2.0946178,-2.19384 5.0160588,-2.30408 z m 3.197049,1.4552 q -1.091406,-1.40008 -2.623785,-1.47725 v -2.8994 q 2.965538,0.0992 5.093229,2.31511 1.080382,1.1355 1.631598,2.50252 l -3.130903,1.5434 q -0.275608,-1.10243 -0.970139,-1.98438 z m 3.869531,7.18785 q -0.529167,1.05833 -1.400087,1.96233 -2.127691,2.22691 -5.093229,2.32613 v -2.8553 q 1.532379,-0.0772 2.623785,-1.48828 0.540191,-0.69453 0.826823,-1.52135 z"
         style="font-size:22.57777786px;line-height:14.11111069px;text-align:center;text-anchor:middle;fill:#f9f9f9;stroke-width:0.26458332"
         id="path649-2"
         inkscape:connector-curvature="0" />
      <path
         d="m 22.579002,-117.16149 h 3.957725 l 2.337153,4.00182 -1.995399,3.35139 z m 4.475868,8.14696 4.7625,-8.14696 h 3.957725 l -5.115277,8.7533 v 7.0335 h -3.593924 z"
         style="font-size:22.57777786px;line-height:14.11111069px;text-align:center;text-anchor:middle;fill:#f9f9f9;stroke-width:0.26458332"
         id="path651-9"
         inkscape:connector-curvature="0" />
      <path
         d="m 40.493498,-101.34161 h -3.593924 v -15.84193 h 3.593924 z m 3.957725,-15.84193 q 3.81441,0 4.817622,2.71198 0.23151,0.54019 0.23151,1.24574 v 0.27561 q 0,1.48828 -1.455208,2.71198 l -0.507118,0.28663 -0.264584,0.0882 q 0.429948,0.23151 0.705556,0.3638 1.675694,1.00321 1.907205,2.98759 0.05512,0.22048 0.05512,0.51814 -0.08819,1.41111 -0.275607,1.6316 -0.110243,0.59531 -0.782726,1.41111 -0.79375,1.12448 -2.866319,1.5875 -0.551216,0.0331 -1.609549,0.0331 h -3.307292 v -2.86632 h 3.307292 q 1.807986,-0.46302 1.841059,-1.74184 v -0.46302 q 0.08819,-0.8599 -0.782726,-1.41111 -0.176389,-0.27561 -1.058333,-0.35278 h -3.296267 v -2.98759 h 3.296267 l 0.551215,-0.0441 q 1.003212,-0.42995 1.003212,-1.57648 l -0.05512,-0.39687 -0.110243,-0.27561 q -0.496094,-0.63941 -1.389063,-0.72761 h -3.340365 v -3.00963 z"
         style="font-size:22.57777786px;line-height:14.11111069px;text-align:center;text-anchor:middle;fill:#f9f9f9;stroke-width:0.26458332"
         id="path653-1"
         inkscape:connector-curvature="0" />
      <path
         d="m 54.648706,-101.34161 h -3.593924 v -15.84193 h 3.593924 z m 8.025695,-15.80886 v 2.91042 h -7.408334 v -2.91042 z m -0.584289,5.9862 v 2.91042 h -6.801996 v -2.91042 z m 0.617361,6.89019 v 2.91042 H 55.29914 v -2.91042 z"
         style="font-size:22.57777786px;line-height:14.11111069px;text-align:center;text-anchor:middle;fill:#f9f9f9;stroke-width:0.26458332"
         id="path655-2"
         inkscape:connector-curvature="0" />
      <path
         d="m 67.392805,-101.34161 h -3.593924 v -15.84193 h 3.593924 z m 7.22092,-7.11068 q 0.418924,0.42995 0.804774,1.24575 0.165365,0.17638 0.286632,1.41111 l 0.110243,0.56224 q 0.374827,2.24895 0.617361,2.84427 0.154341,0.45199 0.672483,1.04731 H 73.34593 q -0.231511,-0.022 -0.672483,-1.36702 -0.09922,-0.16536 -0.562239,-3.14192 -0.198438,-0.70556 -0.903993,-1.12448 -0.661459,-0.23151 -3.241146,-0.23151 v -2.86632 h 2.877343 q 1.686719,-0.59532 1.686719,-2.22691 v -0.27561 q -0.374826,-1.77491 -2.028472,-1.84106 h -2.53559 v -2.8112 h 2.53559 q 3.186024,0 4.619184,1.73082 1.014236,1.47725 1.014236,3.09783 v 0.20946 q 0,1.85208 -1.069358,3.25217 -0.198437,0.26458 -0.451996,0.48507 z"
         style="font-size:22.57777786px;line-height:14.11111069px;text-align:center;text-anchor:middle;fill:#f9f9f9;stroke-width:0.26458332"
         id="path657-7"
         inkscape:connector-curvature="0" />
    </g>
    <g
       aria-label="CYBER"
       style="font-style:normal;font-variant:normal;font-weight:normal;font-stretch:normal;font-size:14.11111069px;line-height:14.11111069px;font-family:'Capture Smallz Clean';-inkscape-font-specification:'Capture Smallz Clean';letter-spacing:0px;word-spacing:0px;fill:#f9f9f9;fill-opacity:1;stroke:none;stroke-width:0.26458332"
       id="text3935-0"
       transform="matrix(0.98938721,0,0,0.98938721,145.14458,2.5576809)">
      <path
         d="m 14.409991,-114.27312 q -1.378038,0.16536 -2.392274,1.4552 -1.157552,1.47726 -1.157552,3.57188 0,2.08359 1.157552,3.56085 1.014236,1.30087 2.392274,1.46623 v 2.86632 q -2.921441,-0.11024 -5.0160588,-2.3151 -2.2158854,-2.31511 -2.2158854,-5.60035 0,-3.28524 2.2158854,-5.61137 2.0946178,-2.19384 5.0160588,-2.30408 z m 3.197049,1.4552 q -1.091406,-1.40008 -2.623785,-1.47725 v -2.8994 q 2.965538,0.0992 5.093229,2.31511 1.080382,1.1355 1.631598,2.50252 l -3.130903,1.5434 q -0.275608,-1.10243 -0.970139,-1.98438 z m 3.869531,7.18785 q -0.529167,1.05833 -1.400087,1.96233 -2.127691,2.22691 -5.093229,2.32613 v -2.8553 q 1.532379,-0.0772 2.623785,-1.48828 0.540191,-0.69453 0.826823,-1.52135 z"
         style="font-size:22.57777786px;line-height:14.11111069px;text-align:center;text-anchor:middle;fill:#f9f9f9;stroke-width:0.26458332"
         id="path649-9"
         inkscape:connector-curvature="0" />
      <path
         d="m 22.579002,-117.16149 h 3.957725 l 2.337153,4.00182 -1.995399,3.35139 z m 4.475868,8.14696 4.7625,-8.14696 h 3.957725 l -5.115277,8.7533 v 7.0335 h -3.593924 z"
         style="font-size:22.57777786px;line-height:14.11111069px;text-align:center;text-anchor:middle;fill:#f9f9f9;stroke-width:0.26458332"
         id="path651-3"
         inkscape:connector-curvature="0" />
      <path
         d="m 40.493498,-101.34161 h -3.593924 v -15.84193 h 3.593924 z m 3.957725,-15.84193 q 3.81441,0 4.817622,2.71198 0.23151,0.54019 0.23151,1.24574 v 0.27561 q 0,1.48828 -1.455208,2.71198 l -0.507118,0.28663 -0.264584,0.0882 q 0.429948,0.23151 0.705556,0.3638 1.675694,1.00321 1.907205,2.98759 0.05512,0.22048 0.05512,0.51814 -0.08819,1.41111 -0.275607,1.6316 -0.110243,0.59531 -0.782726,1.41111 -0.79375,1.12448 -2.866319,1.5875 -0.551216,0.0331 -1.609549,0.0331 h -3.307292 v -2.86632 h 3.307292 q 1.807986,-0.46302 1.841059,-1.74184 v -0.46302 q 0.08819,-0.8599 -0.782726,-1.41111 -0.176389,-0.27561 -1.058333,-0.35278 h -3.296267 v -2.98759 h 3.296267 l 0.551215,-0.0441 q 1.003212,-0.42995 1.003212,-1.57648 l -0.05512,-0.39687 -0.110243,-0.27561 q -0.496094,-0.63941 -1.389063,-0.72761 h -3.340365 v -3.00963 z"
         style="font-size:22.57777786px;line-height:14.11111069px;text-align:center;text-anchor:middle;fill:#f9f9f9;stroke-width:0.26458332"
         id="path653-6"
         inkscape:connector-curvature="0" />
      <path
         d="m 54.648706,-101.34161 h -3.593924 v -15.84193 h 3.593924 z m 8.025695,-15.80886 v 2.91042 h -7.408334 v -2.91042 z m -0.584289,5.9862 v 2.91042 h -6.801996 v -2.91042 z m 0.617361,6.89019 v 2.91042 H 55.29914 v -2.91042 z"
         style="font-size:22.57777786px;line-height:14.11111069px;text-align:center;text-anchor:middle;fill:#f9f9f9;stroke-width:0.26458332"
         id="path655-0"
         inkscape:connector-curvature="0" />
      <path
         d="m 67.392805,-101.34161 h -3.593924 v -15.84193 h 3.593924 z m 7.22092,-7.11068 q 0.418924,0.42995 0.804774,1.24575 0.165365,0.17638 0.286632,1.41111 l 0.110243,0.56224 q 0.374827,2.24895 0.617361,2.84427 0.154341,0.45199 0.672483,1.04731 H 73.34593 q -0.231511,-0.022 -0.672483,-1.36702 -0.09922,-0.16536 -0.562239,-3.14192 -0.198438,-0.70556 -0.903993,-1.12448 -0.661459,-0.23151 -3.241146,-0.23151 v -2.86632 h 2.877343 q 1.686719,-0.59532 1.686719,-2.22691 v -0.27561 q -0.374826,-1.77491 -2.028472,-1.84106 h -2.53559 v -2.8112 h 2.53559 q 3.186024,0 4.619184,1.73082 1.014236,1.47725 1.014236,3.09783 v 0.20946 q 0,1.85208 -1.069358,3.25217 -0.198437,0.26458 -0.451996,0.48507 z"
         style="font-size:22.57777786px;line-height:14.11111069px;text-align:center;text-anchor:middle;fill:#f9f9f9;stroke-width:0.26458332"
         id="path657-6"
         inkscape:connector-curvature="0" />
    </g>
    <text
       xml:space="preserve"
       style="font-style:normal;font-variant:normal;font-weight:normal;font-stretch:normal;font-size:10.41260052px;line-height:1.25;font-family:'Leipzig Fraktur UNZ1A';-inkscape-font-specification:'Leipzig Fraktur UNZ1A';letter-spacing:0px;word-spacing:0px;fill:#000000;fill-opacity:1;stroke:none;stroke-width:0.260315"
       x="171.91231"
       y="9.1533546"
       id="text378-2"><tspan
         sodipodi:role="line"
         id="tspan376-6"
         x="171.91231"
         y="18.680201"
         style="stroke-width:0.260315" /></text>
    <g
       aria-label="CYBER"
       style="font-style:normal;font-variant:normal;font-weight:normal;font-stretch:normal;font-size:14.11111069px;line-height:14.11111069px;font-family:'Capture Smallz Clean';-inkscape-font-specification:'Capture Smallz Clean';letter-spacing:0px;word-spacing:0px;fill:#f9f9f9;fill-opacity:1;stroke:none;stroke-width:0.26458332"
       id="text3935-6-1"
       transform="matrix(0.98938721,0,0,0.98938721,218.03284,2.5576834)">
      <path
         d="m 14.409991,-114.27312 q -1.378038,0.16536 -2.392274,1.4552 -1.157552,1.47726 -1.157552,3.57188 0,2.08359 1.157552,3.56085 1.014236,1.30087 2.392274,1.46623 v 2.86632 q -2.921441,-0.11024 -5.0160588,-2.3151 -2.2158854,-2.31511 -2.2158854,-5.60035 0,-3.28524 2.2158854,-5.61137 2.0946178,-2.19384 5.0160588,-2.30408 z m 3.197049,1.4552 q -1.091406,-1.40008 -2.623785,-1.47725 v -2.8994 q 2.965538,0.0992 5.093229,2.31511 1.080382,1.1355 1.631598,2.50252 l -3.130903,1.5434 q -0.275608,-1.10243 -0.970139,-1.98438 z m 3.869531,7.18785 q -0.529167,1.05833 -1.400087,1.96233 -2.127691,2.22691 -5.093229,2.32613 v -2.8553 q 1.532379,-0.0772 2.623785,-1.48828 0.540191,-0.69453 0.826823,-1.52135 z"
         style="font-size:22.57777786px;line-height:14.11111069px;text-align:center;text-anchor:middle;fill:#f9f9f9;stroke-width:0.26458332"
         id="path649-2-8"
         inkscape:connector-curvature="0" />
      <path
         d="m 22.579002,-117.16149 h 3.957725 l 2.337153,4.00182 -1.995399,3.35139 z m 4.475868,8.14696 4.7625,-8.14696 h 3.957725 l -5.115277,8.7533 v 7.0335 h -3.593924 z"
         style="font-size:22.57777786px;line-height:14.11111069px;text-align:center;text-anchor:middle;fill:#f9f9f9;stroke-width:0.26458332"
         id="path651-9-7"
         inkscape:connector-curvature="0" />
      <path
         d="m 40.493498,-101.34161 h -3.593924 v -15.84193 h 3.593924 z m 3.957725,-15.84193 q 3.81441,0 4.817622,2.71198 0.23151,0.54019 0.23151,1.24574 v 0.27561 q 0,1.48828 -1.455208,2.71198 l -0.507118,0.28663 -0.264584,0.0882 q 0.429948,0.23151 0.705556,0.3638 1.675694,1.00321 1.907205,2.98759 0.05512,0.22048 0.05512,0.51814 -0.08819,1.41111 -0.275607,1.6316 -0.110243,0.59531 -0.782726,1.41111 -0.79375,1.12448 -2.866319,1.5875 -0.551216,0.0331 -1.609549,0.0331 h -3.307292 v -2.86632 h 3.307292 q 1.807986,-0.46302 1.841059,-1.74184 v -0.46302 q 0.08819,-0.8599 -0.782726,-1.41111 -0.176389,-0.27561 -1.058333,-0.35278 h -3.296267 v -2.98759 h 3.296267 l 0.551215,-0.0441 q 1.003212,-0.42995 1.003212,-1.57648 l -0.05512,-0.39687 -0.110243,-0.27561 q -0.496094,-0.63941 -1.389063,-0.72761 h -3.340365 v -3.00963 z"
         style="font-size:22.57777786px;line-height:14.11111069px;text-align:center;text-anchor:middle;fill:#f9f9f9;stroke-width:0.26458332"
         id="path653-1-9"
         inkscape:connector-curvature="0" />
      <path
         d="m 54.648706,-101.34161 h -3.593924 v -15.84193 h 3.593924 z m 8.025695,-15.80886 v 2.91042 h -7.408334 v -2.91042 z m -0.584289,5.9862 v 2.91042 h -6.801996 v -2.91042 z m 0.617361,6.89019 v 2.91042 H 55.29914 v -2.91042 z"
         style="font-size:22.57777786px;line-height:14.11111069px;text-align:center;text-anchor:middle;fill:#f9f9f9;stroke-width:0.26458332"
         id="path655-2-2"
         inkscape:connector-curvature="0" />
      <path
         d="m 67.392805,-101.34161 h -3.593924 v -15.84193 h 3.593924 z m 7.22092,-7.11068 q 0.418924,0.42995 0.804774,1.24575 0.165365,0.17638 0.286632,1.41111 l 0.110243,0.56224 q 0.374827,2.24895 0.617361,2.84427 0.154341,0.45199 0.672483,1.04731 H 73.34593 q -0.231511,-0.022 -0.672483,-1.36702 -0.09922,-0.16536 -0.562239,-3.14192 -0.198438,-0.70556 -0.903993,-1.12448 -0.661459,-0.23151 -3.241146,-0.23151 v -2.86632 h 2.877343 q 1.686719,-0.59532 1.686719,-2.22691 v -0.27561 q -0.374826,-1.77491 -2.028472,-1.84106 h -2.53559 v -2.8112 h 2.53559 q 3.186024,0 4.619184,1.73082 1.014236,1.47725 1.014236,3.09783 v 0.20946 q 0,1.85208 -1.069358,3.25217 -0.198437,0.26458 -0.451996,0.48507 z"
         style="font-size:22.57777786px;line-height:14.11111069px;text-align:center;text-anchor:middle;fill:#f9f9f9;stroke-width:0.26458332"
         id="path657-7-0"
         inkscape:connector-curvature="0" />
    </g>
  </g>
</svg>
