<?xml version="1.0" encoding="UTF-8" standalone="no"?>
<!-- Generator: Adobe Illustrator 23.0.4, SVG Export Plug-In . SVG Version: 6.00 Build 0)  -->

<svg
   xmlns:dc="http://purl.org/dc/elements/1.1/"
   xmlns:cc="http://creativecommons.org/ns#"
   xmlns:rdf="http://www.w3.org/1999/02/22-rdf-syntax-ns#"
   xmlns:svg="http://www.w3.org/2000/svg"
   xmlns="http://www.w3.org/2000/svg"
   xmlns:sodipodi="http://sodipodi.sourceforge.net/DTD/sodipodi-0.dtd"
   xmlns:inkscape="http://www.inkscape.org/namespaces/inkscape"
   version="1.1"
   id="Ebene_1"
   x="0px"
   y="0px"
   viewBox="0 0 1122.5197 1587.4016"
   xml:space="preserve"
   sodipodi:docname="nostupid1.svg"
   width="297mm"
   height="420mm"
   inkscape:version="0.92.3 (2405546, 2018-03-11)"
   inkscape:export-filename="/home/housemeista/Seafile Milliways/roc_path.svg.png"
   inkscape:export-xdpi="96"
   inkscape:export-ydpi="96"><metadata
   id="metadata118"><rdf:RDF><cc:Work
       rdf:about=""><dc:format>image/svg+xml</dc:format><dc:type
         rdf:resource="http://purl.org/dc/dcmitype/StillImage" /><dc:title></dc:title></cc:Work></rdf:RDF></metadata><defs
   id="defs116" /><sodipodi:namedview
   pagecolor="#ffffff"
   bordercolor="#666666"
   borderopacity="1"
   objecttolerance="10"
   gridtolerance="10"
   guidetolerance="10"
   inkscape:pageopacity="0"
   inkscape:pageshadow="2"
   inkscape:window-width="1920"
   inkscape:window-height="1031"
   id="namedview114"
   showgrid="false"
   units="mm"
   showguides="true"
   inkscape:guide-bbox="true"
   inkscape:zoom="0.27401839"
   inkscape:cx="494.74949"
   inkscape:cy="1092.8589"
   inkscape:window-x="0"
   inkscape:window-y="25"
   inkscape:window-maximized="1"
   inkscape:current-layer="Ebene_1"><sodipodi:guide
     position="36.12712,1096.7161"
     orientation="1,0"
     id="guide6690"
     inkscape:locked="false" /><sodipodi:guide
     position="1078.6526,859.30932"
     orientation="1,0"
     id="guide6692"
     inkscape:locked="false" /><sodipodi:guide
     position="491.58689,1549.5953"
     orientation="0,1"
     id="guide6694"
     inkscape:locked="false" /><sodipodi:guide
     position="385.78604,1015.4301"
     orientation="0,1"
     id="guide6696"
     inkscape:locked="false" /></sodipodi:namedview>
<style
   type="text/css"
   id="style2">
	.st0{fill:none;stroke:#99BA00;stroke-width:8;stroke-linecap:round;stroke-linejoin:round;stroke-miterlimit:1.5;}
	.st1{fill:none;stroke:#FFC600;stroke-width:8;stroke-linecap:round;stroke-linejoin:round;stroke-miterlimit:10;}
	.st2{fill:none;stroke:#0076BA;stroke-width:8;stroke-linecap:round;stroke-linejoin:round;stroke-miterlimit:1.5;}
</style>



<text
   xml:space="preserve"
   style="font-style:normal;font-variant:normal;font-weight:normal;font-stretch:normal;font-size:160px;line-height:1.25;font-family:'DIN Medium';-inkscape-font-specification:'DIN Medium, ';letter-spacing:0px;word-spacing:0px;fill:#000000;fill-opacity:1;stroke:none"
   x="32.844501"
   y="695.12567"
   id="text905"><tspan
     sodipodi:role="line"
     id="tspan903"
     x="32.844501"
     y="838.78497"
     style="font-style:normal;font-variant:normal;font-weight:normal;font-stretch:normal;font-size:266.66665649px;font-family:'DIN Medium';-inkscape-font-specification:'DIN Medium, '" /></text>
<text
   xml:space="preserve"
   style="font-style:normal;font-variant:normal;font-weight:normal;font-stretch:normal;font-size:160px;line-height:1.25;font-family:PreussischeIV44Ausgabe3;-inkscape-font-specification:PreussischeIV44Ausgabe3;letter-spacing:0px;word-spacing:0px;fill:#000000;fill-opacity:1;stroke:none"
   x="52.916176"
   y="866.64703"
   id="text909"><tspan
     sodipodi:role="line"
     x="52.916176"
     y="1011.8038"
     id="tspan926" /></text>
<text
   xml:space="preserve"
   style="font-style:normal;font-variant:normal;font-weight:normal;font-stretch:normal;font-size:160px;line-height:1.25;font-family:PreussischeIV44Ausgabe3;-inkscape-font-specification:PreussischeIV44Ausgabe3;letter-spacing:0px;word-spacing:0px;fill:#000000;fill-opacity:1;stroke:none"
   x="127.72865"
   y="717.02203"
   id="text932"><tspan
     sodipodi:role="line"
     id="tspan930"
     x="127.72865"
     y="862.17883"
     style="font-style:normal;font-variant:normal;font-weight:normal;font-stretch:normal;font-family:'DIN Light';-inkscape-font-specification:'DIN Light, '" /></text>
<g
   id="g4650"
   transform="matrix(0.57668191,0,0,0.57668191,416.13412,-1082.4237)"><path
     sodipodi:nodetypes="cscsscsccscsscccsccccsscscsssscccc"
     inkscape:connector-curvature="0"
     id="path4644"
     d="m -247.80829,2810.2542 c -144.1757,-8.2407 -273.75167,-86.6177 -348.20759,-210.6214 -32.4117,-53.9804 -51.8391,-112.2585 -59.6001,-178.7873 -2.0235,-17.3462 -1.6829,-74.4055 0.5521,-92.49 12.2172,-98.8548 52.6754,-184.3511 120.14686,-253.8947 56.48579,-58.2205 128.91421,-99.8963 207.01563,-119.1186 35.85943,-8.8256 65.46707,-12.3147 104.5,-12.3147 39.03293,0 68.64057,3.4891 104.5,12.3147 67.167821,16.5313 129.886041,49.4659 182.766701,95.9748 73.752689,64.8658 123.960749,154.4993 140.618879,251.0385 4.64983,26.9472 5.56671,39.0834 5.5899,73.99 0.0233,35.0077 -0.54522,43.0327 -5.0294,71 -20.5573,128.2129 -100.45246,242.6777 -214.4460792,307.2343 -59.3056598,33.5858 -122.4809808,51.8773 -192.5000008,55.7355 -19.99897,1.1019 -25.69059,1.0944 -45.9069,-0.061 z m 57.4069,-89.9789 c 50.56376,-4.6759 100.754551,-21.2512 145.133161,-47.9297 15.3759,-9.2433 40.2458398,-26.8982 38.8668398,-28.2548 -34.4773298,-40.6979 -34.9651298,-40.7016 -485.7731808,-483.4506 -3.37775,3.0568 -18.92525,25.0171 -26.16657,36.9594 -28.22275,46.5445 -44.71895,97.6953 -49.14054,152.3732 -1.4638,18.1009 -0.6537,54.0221 1.5858,70.3169 10.38879,75.5917 42.27198,142.0822 93.88206,195.7853 72.99255,75.9529 175.78348,113.9869 281.61243,104.2003 z M 46.207631,2591.5422 c 0.68264,-0.3832 3.542,-3.7369 6.35414,-7.4527 35.14359,-46.4368 58.204749,-103.2133 66.531369,-163.7998 2.23944,-16.2948 3.04953,-52.216 1.58577,-70.3169 -6.83356,-84.5044 -43.374439,-162.2241 -103.748679,-220.6658 -55.50497,-53.7283 -124.139001,-86.2209 -201.831621,-95.5507 -19.07527,-2.2907 -57.92473,-2.2907 -77,0 -61.90722,7.4342 -115.71036,28.558 -166.25,65.2718 -5.6375,4.0953 -10.25,7.9807 -10.25,8.6342"
     style="fill:#fd0202" /><path
     inkscape:connector-curvature="0"
     id="path4642"
     d="m -248.08475,2567.4186 c -6.73512,-0.937 -19.23377,-4.6014 -30.2814,-8.8779 -26.00669,-10.0672 -44.49399,-14.4051 -61.39175,-14.4051 -13.18101,0 -21.40816,1.7919 -45.82685,9.981 -11.275,3.7813 -24.1,7.7715 -28.5,8.8671 -16.22771,4.0409 -31.09192,5.226 -38.77733,3.0918 -7.22893,-2.0075 -13.72465,-9.8184 -14.99056,-18.0257 -0.92246,-5.9807 -0.17256,-6.3606 9.98358,-5.0581 20.65127,2.6484 36.31201,1.0505 54.20587,-5.5308 38.12607,-14.0227 46.64477,-15.8587 69.57844,-14.9959 16.00238,0.602 29.39692,3.0949 43.5,8.096 5.225,1.8529 14.675,5.2011 21,7.4405 16.54825,5.8589 27.23597,7.4794 45,6.8228 17.32392,-0.6402 23.76922,-2.1024 48.57051,-11.0182 20.3738,-7.3241 31.64834,-10.2631 42.36756,-11.0439 l 7.43807,-0.5418 10.31193,10.1475 c 5.67156,5.5811 10.31174,10.6245 10.3115,11.2076 -2.8e-4,0.699 -5.19425,1.071 -15.25,1.092 -17.8361,0.037 -22.70794,1.1357 -52.24957,11.7797 -20.38378,7.3444 -23.43793,8.2429 -34.8376,10.2492 -7.57166,1.3325 -32.54707,1.7816 -40.1624,0.7222 z M 1.3724142,2549.4988 c -7.09547,-6.637 -6.7767,-7.4983 3.30192,-8.9212 6.0559598,-0.8549 8.1109898,0.5698 7.1649398,4.9673 -0.88392,4.1088 -3.2277698,8.5907 -4.4925398,8.5907 -0.55944,0 -3.24788,-2.0866 -5.97432,-4.6368 z M -246.58475,2519.4695 c -9.70596,-1.5287 -19.82498,-4.4418 -35,-10.0759 -25.00436,-9.2834 -37.49411,-12.3104 -53.5,-12.9657 -15.98463,-0.6546 -25.48419,0.9379 -44,7.376 -34.18786,11.8873 -41.71604,13.7653 -59.88962,14.9403 -8.74453,0.5653 -11.33382,0.3868 -15.06644,-1.0387 -6.16373,-2.3539 -12.08911,-9.2219 -13.45628,-15.5968 -1.59463,-7.4355 -0.89185,-8.3464 5.81527,-7.5376 18.30879,2.2078 21.61345,2.3879 29.26548,1.595 12.30691,-1.2751 19.40202,-3.1776 39.11782,-10.4892 27.11158,-10.0543 31.46976,-10.9249 54.71377,-10.9292 23.4685,0 28.5887,0.9898 55.95701,10.8644 28.25284,10.1937 32.11333,10.9789 54.04299,10.9925 17.08893,0.011 19.24405,-0.1958 28.25503,-2.7064 5.36526,-1.4948 14.59026,-4.5799 20.5,-6.8559 5.90973,-2.2759 11.64362,-4.1055 12.74198,-4.0659 2.47685,0.089 18.19382,15.9127 16.91781,17.0322 -1.09795,0.9633 -35.4494,13.1746 -43.82842,15.5802 -11.33401,3.254 -21.90668,4.5458 -36.0864,4.4092 -7.7,-0.074 -15.125,-0.312 -16.5,-0.5285 z m 220.499514,-3.1668 c -2.75027,-0.3716 -6.35027,-1.6479 -8,-2.8362 -4.28077,-3.0836 -27.49951,-26.797 -27.49951,-28.0854 0,-0.6059 4.91596,0.591 11.25,2.7391 15.19869,5.1544 23.94029,6.426 38.98904,5.6715 6.7435302,-0.3381 14.6844202,-0.9121 17.6464202,-1.2756 l 5.3854598,-0.661 -0.47064,5.6753 c -0.58298,7.0299 -4.4938898,13.0576 -10.69703976,16.4866 -3.42384004,1.8926 -6.08267004,2.4409 -12.95559024,2.6714 -4.75621,0.1594 -10.89787,-0.014 -13.64814,-0.3857 z m -462.735474,-45.1652 c -5.24275,-1.5741 -9.62262,-5.0783 -11.69309,-9.3553 -2.61195,-5.3956 -2.63327,-10.624 -0.0639,-15.6605 1.1039,-2.1638 16.44655,-20.4834 34.09478,-40.7102 31.25052,-35.8164 45.40913,-52.0716 66.84897,-76.7476 20.96051,-24.1243 23.49678,-26.7792 31.14599,-32.602 4.2818,-3.2595 8.34737,-5.9263 9.03459,-5.9263 1.66102,0 47.96343,47.2154 47.54207,48.4795 -0.18036,0.5411 -6.14318,4.9315 -13.25071,9.7565 -10.40602,7.0641 -14.23491,9.0913 -19.66018,10.4089 -7.61795,1.8501 -14.72408,1.0044 -22.275,-2.6509 -2.26548,-1.0967 -4.79832,-1.994 -5.62853,-1.994 -0.83022,0 -21.50064,23.038 -45.93428,51.1955 -50.90951,58.6686 -54.31182,62.447 -57.83583,64.2284 -3.64851,1.8444 -9.10915,2.5436 -12.32492,1.578 z m 50.16531,-140.3073 c -9.95211,-2.8183 -18.95614,-9.9653 -22.76622,-18.071 -8.89887,-18.9315 -2.08304,-38.1119 16.68562,-46.9549 5.78657,-2.7264 7.69127,-3.1254 14.65125,-3.0696 9.61468,0.077 15.21384,2.2557 22.11019,8.6024 12.18885,11.2174 15.28256,25.3742 8.73391,39.9665 -3.12022,6.9528 -11.20408,14.9858 -18.02156,17.9081 -6.02117,2.5809 -15.47013,3.2958 -21.39319,1.6185 z m 163.06589,-58.8718 c -12.6905,-12.7475 -22.94349,-23.741 -22.78444,-24.43 0.36863,-1.597 25.89505,-19.3979 32.95469,-22.981 6.15742,-3.1253 15.75915,-4.1928 22.83451,-2.5387 l 4.5,1.052 40.5,-18.8897 c 22.275,-10.3893 65.025,-30.4485 95,-44.576 63.976204,-30.1526 65.068084,-30.6313 71.268054,-31.2452 13.80591,-1.367 25.3690402,12.2787 21.7605202,25.6797 -2.3383102,8.6838 -6.7722002,11.8453 -35.0285702,24.9767 -14.025,6.5177 -35.625,16.687 -48,22.5983 -12.375004,5.9113 -26.775004,12.6774 -32.000004,15.0357 -5.225,2.3583 -23.45,10.8838 -40.5,18.9456 -17.05,8.0618 -35.05,16.5229 -40,18.8025 -11.10213,5.1128 -11.88543,5.7527 -13.4547,10.9904 -1.67368,5.5863 -6.08327,11.8487 -11.29983,16.0479 -6.78354,5.4606 -19.51862,13.709 -21.16587,13.709 -0.8309,0 -11.89386,-10.4298 -24.58436,-23.1772 z"
     style="fill:#141818" /></g><g
   id="g6688"
   transform="translate(-34.063559,-12.51218)"><path
     inkscape:connector-curvature="0"
     id="path5332"
     d="m 212.85081,972.88182 c -5.65439,-1.80544 -9.28153,-7.88489 -8.03167,-13.46201 0.42376,-1.8909 8.06756,-16.14443 32.34735,-60.31874 9.28247,-16.88838 22.88966,-41.72218 25.39715,-46.35106 3.8251,-7.06119 5.6185,-8.80143 16.26446,-15.78234 5.29406,-3.47149 9.99576,-6.40569 10.44822,-6.52045 0.50294,-0.12755 6.98123,5.97316 16.66965,15.69807 12.98063,13.02957 15.72983,16.04788 15.19922,16.68722 -1.21681,1.46615 -26.42233,17.46716 -29.28637,18.5916 -3.72759,1.46348 -10.9877,1.53414 -14.90616,0.14507 -2.63236,-0.93315 -2.75159,-0.93122 -3.47101,0.0563 -0.40974,0.56242 -11.35186,20.39224 -24.3158,44.06627 -12.96394,23.67404 -23.98861,43.50577 -24.49927,44.07048 -2.37148,2.62244 -8.39341,4.21235 -11.81577,3.11972 z m 8.29404,-94.49243 c -9.37069,-5.18461 -14.11441,-8.106 -14.12225,-8.69708 -0.006,-0.48952 0.51231,-2.07486 1.15288,-3.52298 l 1.16467,-2.63293 -1.30178,-3.60669 c -1.63081,-4.5183 -1.73176,-11.47044 -0.22757,-15.67231 3.66394,-10.23507 14.73845,-16.88628 25.11364,-15.08293 5.26804,0.91566 9.66996,3.31887 13.41793,7.32547 4.46671,4.77492 5.91801,8.63627 5.90456,15.70979 -0.008,4.50258 -0.21193,5.64422 -1.49745,8.40644 -2.68542,5.77022 -14.19183,25.59682 -14.8503,25.58844 -0.35413,-0.005 -6.99358,-3.52136 -14.75433,-7.81522 z M 340.9629,823.55036 c -8.51937,-8.52328 -15.48978,-15.77803 -15.48978,-16.12166 0,-0.78114 14.39027,-10.21755 18.56975,-12.17708 3.09147,-1.44945 3.10272,-1.4504 17.07864,-1.4504 7.69188,0 24.65677,0.17713 37.6998,0.39363 l 23.71464,0.39362 2.61037,-3.14393 c 1.43568,-1.72915 8.62048,-10.60528 15.96628,-19.7247 13.14754,-16.32204 16.0682,-19.56166 17.28845,-19.17624 0.70796,0.22364 13.44328,23.8626 13.48024,25.02185 0.0128,0.42118 -5.94754,8.19527 -13.2467,17.27575 -19.94857,24.81696 -20.31083,25.23227 -23.29883,26.70804 l -2.64321,1.30546 -17.00156,-0.26739 c -9.35083,-0.14706 -22.42551,-0.26738 -29.0548,-0.26738 h -12.05325 l -1.38342,2.86589 c -0.7609,1.57623 -2.28035,3.93359 -3.37651,5.23855 -2.20312,2.62274 -10.81643,8.62287 -12.37822,8.62287 -0.5684,0 -7.60802,-6.61889 -16.48189,-15.49688 z m -81.10572,13.87684 c -7.37268,-1.75812 -11.07438,-10.50311 -7.22283,-17.06337 1.17256,-1.99722 2.85659,-3.42276 8.31364,-7.03758 5.56734,-3.68787 7.03112,-4.43068 7.85102,-3.98407 1.41338,0.76989 15.54137,15.18733 15.54137,15.85978 0,0.96452 -16.95559,11.63486 -19.37614,12.19364 -2.58531,0.59679 -2.73309,0.59771 -5.10706,0.0316 z m -33.97182,-15.61261 c -5.2357,-2.27963 -6.52236,-9.84297 -2.37927,-13.98606 5.47529,-5.47527 14.76561,-1.68391 14.76561,6.02583 0,6.27128 -6.56915,10.49303 -12.38634,7.96023 z m 85.32134,-28.04519 -7.94525,-7.98415 1.62415,-1.31522 c 0.89327,-0.72336 2.84242,-1.97828 4.33145,-2.78871 5.92676,-3.22575 12.91148,-1.07205 16.14693,4.97882 1.31883,2.4665 1.16373,7.7006 -0.31167,10.51696 -1.29914,2.47993 -3.59314,4.57644 -5.00751,4.57644 -0.49107,0 -4.46822,-3.59286 -8.8381,-7.98414 z m -85.43468,3.80994 c -6.50502,-3.31802 -6.31882,-12.7602 0.30945,-15.69219 5.91321,-2.61569 12.19023,1.48652 12.19023,7.96667 0,2.65708 -1.45302,5.28858 -3.93531,7.12706 -2.00139,1.4823 -6.24961,1.77916 -8.56437,0.59846 z m 0.0954,-24.29719 c -1.242,-0.56402 -2.6672,-1.60749 -3.16711,-2.31882 -1.97512,-2.81046 -2.44898,-8.14879 -0.72334,-8.14879 0.37727,0 2.96777,2.29137 5.75668,5.09192 3.98001,3.99663 4.92735,5.23533 4.40408,5.75859 -0.96377,0.96378 -3.66853,0.79861 -6.27031,-0.3829 z m -31.74489,-14.94519 c -3.57836,-1.97424 -6.84007,-7.20031 -6.8501,-10.97555 -0.006,-2.39814 0.57481,-2.62551 4.93057,-1.9289 1.65902,0.26533 5.18293,0.33827 7.8309,0.1621 l 4.8145,-0.32031 5.47804,5.30562 c 3.52792,3.41689 5.28922,5.49444 4.94763,5.83604 -1.87065,1.87064 -18.50462,3.38136 -21.15154,1.921 z m 117.63969,-4.03164 c -5.69644,-1.07878 -12.44372,-3.22366 -18.92107,-6.01478 -3.0164,-1.29978 -7.47983,-2.9891 -9.91871,-3.75402 -5.37703,-1.68645 -14.62179,-2.78557 -19.27549,-2.29169 l -3.41766,0.3627 -5.49444,-5.33958 c -4.60588,-4.47609 -6.41207,-6.81118 -5.26845,-6.81118 0.12428,0 2.16035,-0.37015 4.5246,-0.82255 5.7084,-1.09233 19.494,-1.09038 25.26087,0.004 4.99986,0.94846 11.64929,3.1301 17.97677,5.89807 9.89361,4.32776 16.88926,5.88938 26.38395,5.88938 10.10995,0 14.16782,-0.99809 29.00815,-7.13497 9.47007,-3.91611 16.82685,-5.55799 26.325,-5.87514 12.39236,-0.4138 18.4651,0.92574 33.81982,7.46005 8.31009,3.53641 14.51798,5.04643 22.12075,5.38064 5.11828,0.22501 7.35981,0.0855 10.08416,-0.62778 4.56419,-1.19496 4.90724,-0.84129 3.65863,3.77156 -1.4022,5.1802 -3.60237,8.36438 -6.73765,9.75127 -2.26073,1.00001 -3.27085,1.09955 -8.35327,0.8231 -7.01465,-0.38156 -16.50693,-2.72208 -24.06708,-5.93424 -2.91353,-1.23791 -8.13544,-3.25381 -11.60429,-4.47979 -5.98554,-2.1154 -6.70223,-2.24156 -14.05973,-2.47485 -11.49341,-0.3644 -17.81469,1.00092 -31.50811,6.80532 -11.15625,4.72894 -15.94043,5.78991 -27.10008,6.00986 -6.4659,0.12744 -10.58406,-0.055 -13.43667,-0.59521 z"
     style="fill:#141717;stroke-width:0.54843676" /><path
     sodipodi:nodetypes="cscsscsccscsscccsccccsscscsssscccc"
     inkscape:connector-curvature="0"
     id="path4644-0"
     d="M 307.76301,1084.5324 C 224.61949,1079.7801 149.89537,1034.5816 106.958,963.07082 88.266746,931.9413 77.063319,898.33337 72.587693,859.96741 71.420777,849.96417 71.617189,817.0591 72.906076,806.6301 79.95151,749.62233 103.28303,700.31816 142.1926,660.21362 c 32.57433,-33.57471 74.34249,-57.60839 119.38217,-68.69353 20.67948,-5.08957 37.75367,-7.10167 60.26326,-7.10167 22.50958,0 39.58377,2.0121 60.26326,7.10167 38.73446,9.5333 74.90292,28.52608 105.39824,55.34693 42.5318,37.40693 71.48595,89.09695 81.0924,144.76936 2.6814,15.53996 3.21018,22.53868 3.22355,42.66869 0.0137,20.1883 -0.31442,24.81618 -2.90035,40.94442 -11.85502,73.93805 -57.92909,139.94791 -123.66717,177.17651 -34.20051,19.3683 -70.63257,29.9166 -111.01127,32.1416 -11.53305,0.6355 -14.8153,0.6312 -26.47368,-0.035 z m 33.10552,-51.8892 c 29.1592,-2.6965 58.10333,-12.2552 83.69566,-27.6402 8.86701,-5.33044 23.20905,-15.51175 22.41381,-16.29407 -19.88245,-23.46974 -20.16376,-23.47187 -280.1366,-278.7972 -1.94789,1.7628 -10.91386,14.4269 -15.08979,21.31381 -16.27555,26.84138 -25.78861,56.33911 -28.33846,87.87087 -0.84415,10.43846 -0.37698,31.15356 0.9145,40.55049 5.99103,43.59236 24.37748,81.93623 54.14008,112.90584 42.09349,43.80066 101.37115,65.73426 162.4008,60.09046 z m 136.44813,-74.23809 c 0.39368,-0.22099 2.04262,-2.15501 3.66433,-4.29783 20.26667,-26.77927 33.56558,-59.52125 38.36739,-94.46038 1.29145,-9.39693 1.75864,-30.11203 0.91456,-40.55049 C 516.3221,770.36425 495.24965,725.5447 460.43292,691.84244 428.42421,660.8583 388.84421,642.1204 344.04028,636.74007 c -11.00037,-1.321 -33.40415,-1.321 -44.40451,0 -35.70078,4.28717 -66.72807,16.46888 -95.87336,37.64107 -3.25105,2.36169 -5.911,4.60233 -5.911,4.97919"
     style="fill:#fd0202;stroke-width:0.57668191" /></g><g
   id="g6684"
   transform="translate(-24.063559,1.48782)"><path
     style="stroke-width:0.93518054"
     id="path5438-0"
     d="m 740.3448,217.0391 -11.60573,6.81663 c 2.91776,13.91548 5.58287,18.59232 -9.50159,28.32755 -26.41137,18.19861 -14.92453,57.73889 18.97577,52.95825 33.51687,-6.58367 40.03566,12.70031 21.17307,30.99244 -13.82197,13.39179 -15.71089,37.23852 -3.59095,57.06434 l 11.12719,-6.11523 c -3.90905,-10.28699 -13.89599,-23.06128 3.86309,-43.65395 21.65691,-23.74798 12.79335,-57.22089 -26.81155,-52.17466 -26.32346,2.62786 -35.85519,-13.95888 -12.29799,-31.19706 7.32247,-5.50822 18.96502,-12.98966 8.66869,-43.01831 z m 266.3493,14.07522 -108.71475,73.38614 13.32998,13.25506 89.97097,-60.97124 12.3911,17.13278 -87.21662,58.89814 13.5091,13.43228 99.28442,-67.17776 c 0,-1.29055 -28.4582,-43.22339 -32.5542,-47.9554 z m -306.11456,12.65234 -11.22217,6.19921 c 1.69268,4.5721 7.55831,11.18486 -10.99568,24.15581 -18.85324,15.08446 -14.17748,57.16768 31.88016,48.7043 24.16413,-4.72266 22.4436,3.78813 15.14919,32.93771 h -0.004 c -1.79554,6.93343 -3.80906,24.28683 13.25144,49.7892 2.45952,-1.87036 10.63286,-6.39673 11.0724,-6.62117 -10.71717,-18.78404 -14.4311,-22.36905 -9.96188,-46.38823 3.52564,-16.61629 14.88955,-49.30506 -34.50669,-42.33516 -24.25578,5.20615 -31.70898,-14.2904 -15.63323,-28.7221 11.97967,-10.97902 19.25862,-20.80786 10.97011,-37.71593 z m 160.31953,85.76625 -87.56906,59.11182 11.36098,14.91548 89.59468,-60.71557 z m 28.481,28.32035 -94.24318,63.64521 c 4.52253,6.34894 6.36637,9.73635 11.62582,14.87704 l 96.15556,-65.06079 z m -119.48393,33.58794 -11.92355,7.70608 31.82536,47.78735 11.53999,-8.35995 z m -17.62779,11.42669 -12.09159,8.29608 32.27286,47.0769 11.64409,-7.97643 z"
     inkscape:connector-curvature="0" /><path
     sodipodi:nodetypes="cscsscsccscsscccsccccsscscsssscccc"
     inkscape:connector-curvature="0"
     id="path4644-0-0"
     d="m 835.64905,539.65596 c -83.1435,-4.7523 -157.86766,-49.9508 -200.80503,-121.46158 -18.69126,-31.12952 -29.89469,-64.73745 -34.37031,-103.10341 -1.16692,-10.00324 -0.97051,-42.90831 0.31838,-53.33731 7.04544,-57.00777 30.37696,-106.31194 69.28653,-146.41648 32.57433,-33.574709 74.34253,-57.608389 119.38213,-68.693529 20.6795,-5.08957 37.7537,-7.10167 60.2633,-7.10167 22.5096,0 39.5838,2.0121 60.2633,7.10167 38.7344,9.5333 74.90287,28.52608 105.39815,55.346929 42.5318,37.40693 71.486,89.09695 81.0924,144.76936 2.6814,15.53996 3.2102,22.53868 3.2236,42.66869 0.014,20.1883 -0.3145,24.81618 -2.9004,40.94442 -11.855,73.93805 -57.9291,139.94791 -123.66718,177.17651 -34.20047,19.3683 -70.63247,29.9166 -111.01117,32.1416 -11.5331,0.6355 -14.8153,0.6312 -26.4737,-0.035 z m 33.1055,-51.8892 c 29.1592,-2.6965 58.1033,-12.2552 83.6957,-27.6402 8.86697,-5.33044 23.20897,-15.51175 22.41377,-16.29407 -19.8825,-23.46974 -20.1638,-23.47187 -280.1366,-278.7972 -1.94789,1.7628 -10.91386,14.4269 -15.08979,21.31381 -16.27555,26.84138 -25.78861,56.33911 -28.33846,87.87087 -0.84415,10.43846 -0.37698,31.15356 0.9145,40.55049 5.99103,43.59236 24.37748,81.93623 54.14008,112.90584 42.0935,43.80066 101.3712,65.73426 162.4008,60.09046 z m 136.44805,-74.23809 c 0.3937,-0.22099 2.0427,-2.15501 3.6644,-4.29783 20.2666,-26.77927 33.5655,-59.52125 38.3674,-94.46038 1.2914,-9.39693 1.7586,-30.11203 0.9145,-40.55049 -3.9408,-48.73216 -25.0133,-93.55171 -59.82998,-127.25397 -32.0087,-30.98414 -71.58867,-49.72204 -116.39257,-55.10237 -11.0004,-1.321 -33.4042,-1.321 -44.4046,0 -35.7007,4.28717 -66.728,16.46888 -95.8733,37.64107 -3.2511,2.36169 -5.911,4.60233 -5.911,4.97919"
     style="fill:#fd0202;stroke-width:0.57668191" /></g><g
   id="g6680"
   transform="translate(-24.063559,-2.51218)"><path
     inkscape:connector-curvature="0"
     style="fill:#000000;stroke-width:0.43422574"
     id="path4876"
     d="m 847.1975,1017.7175 -1.73691,-0.2692 -0.1129,-19.86583 -0.1129,-19.86583 h -50.79138 -50.78704 l -3.16117,-2.69222 c -6.10087,-5.19335 -11.62422,-10.43872 -11.62422,-11.03796 0,-0.51238 9.70494,-0.58619 65.24242,-0.49501 l 65.24246,0.11288 v 27.13911 27.13906 l -5.21075,0.052 c -2.86589,0.026 -5.99232,-0.069 -6.94761,-0.2171 z m 58.25142,-111.61771 c 0.12593,0.71647 1.51975,7.1213 2.12764,10.82525 0.60797,3.69961 4.02528,21.78511 7.59463,40.18764 4.36402,22.49288 6.49607,34.41237 6.49607,36.35332 0,3.94715 -1.24628,7.0866 -4.00791,10.1131 -2.45341,2.6835 -5.0414,4.1773 -8.49787,4.9112 -2.8051,0.5948 -3.99486,0.5731 -6.86945,-0.126 -4.51588,-1.0942 -8.4543,-4.3814 -10.3866,-8.66715 -1.08561,-2.41426 -13.88655,-67.82172 -16.24013,-82.98922 -1.65433,-10.67328 -3.4868,-27.04358 -4.6158,-36.90919 l -1.12026,-9.80916 m -71.01765,85.22983 c -3.82118,-1.36347 -7.04314,-4.0687 -8.77135,-7.36447 -0.2866,-0.54278 -7.27329,-19.39686 -15.53226,-41.90279 -14.5813,-39.72731 -15.01987,-41.01262 -15.05895,-44.17379 -0.0652,-5.44518 2.43166,-10.3997 6.67405,-13.24387 1.15504,-0.77293 13.33942,-5.53639 29.95289,-11.70239 15.40199,-5.71875 29.3059,-10.94684 29.43617,-11.13355 0.12592,-0.18237 4.75911,5.78823 11.75015,12.78361 l 12.70978,12.71412 -7.29934,2.70958 c -34.28646,12.73149 -47.03099,17.5818 -47.03099,17.90312 0,0.20843 5.31493,14.78973 11.81529,32.40627 l 11.81093,32.03284 0.0217,4.12514 c 0.0131,3.58236 -0.13461,4.44647 -1.14201,6.59589 -1.4894,3.17419 -4.5203,6.19206 -7.65974,7.63369 -3.30446,1.51545 -8.40662,1.78469 -11.67634,0.6166 z m -3.88198,-217.21709 c 0.10422,-0.10856 1.25492,-2.44469 2.55325,-5.189 1.30268,-2.74865 3.28709,-6.20943 4.41174,-7.69448 2.47073,-3.2567 6.8955,-6.67405 10.543,-8.13739 1.48071,-0.59489 15.05894,-3.8429 30.17868,-7.22552 24.5121,-5.47993 27.91636,-6.1443 31.40325,-6.12258 2.14942,0.009 4.90673,0.29093 6.12691,0.62528 1.22018,0.33001 15.95342,6.4526 32.74499,13.59995 28.42869,12.10622 30.68667,13.14401 32.87084,15.12843 1.28967,1.1724 2.80079,3.03089 3.35223,4.12515 0.55585,1.09858 7.03878,15.77107 14.41195,32.61034 l 13.40022,30.61292 v 3.47381 c 0.009,2.83983 -0.20407,3.91237 -1.13332,5.89679 -1.3852,2.95707 -3.57369,5.21504 -6.58728,6.79997 -2.00612,1.05951 -2.7312,1.19412 -6.38742,1.19412 -3.64314,0 -4.38569,-0.13895 -6.35274,-1.17241 -4.6158,-2.43166 -4.733,-2.65312 -18.59353,-34.39937 l -12.68806,-29.06272 -22.89238,-9.74403 c -12.58823,-5.35834 -23.00966,-9.62678 -23.15288,-9.47914 -0.14331,0.14329 3.58663,17.21704 8.2893,37.93395 10.60813,46.70967 11.42449,51.09535 12.36247,66.25852 l 0.34305,5.56677 M 822.0428,765.38025 c 0.0304,0 -0.39515,-2.00612 -0.94661,-4.45081 -1.66743,-7.41658 -1.35479,-7.0171 -3.00051,-3.79948 l -1.44597,2.82247 m -97.20273,69.78007 c -3.32096,-1.18978 -5.57503,-2.93536 -7.48866,-5.80125 -3.68918,-5.52769 -3.29838,-12.2278 1.02086,-17.49495 0.80419,-0.98136 2.41256,-2.3014 3.57411,-2.93103 1.16156,-0.63397 13.31207,-6.05311 27.00321,-12.04543 27.37358,-11.98463 27.83821,-12.20174 30.06578,-13.95601 l 1.55019,-1.21583 10.77749,10.78183 11.12051,10.60813 -1.81506,1.49374 c -2.8572,2.34916 -5.81862,3.93408 -36.60523,17.45588 -29.16694,12.81399 -30.95596,13.53915 -33.8696,13.72152 -2.28838,0.1433 -3.65358,-0.0174 -5.3336,-0.6166 z M 830.4798,703.41623 c -7.57723,-1.26794 -15.69726,-7.11262 -19.18409,-13.80838 -2.43166,-4.67226 -3.13945,-7.56421 -3.13945,-12.80965 0,-7.78567 2.44903,-13.6868 7.94198,-19.12765 5.38441,-5.33229 11.38106,-7.86817 18.72382,-7.91159 4.66359,-0.0304 7.53816,0.62962 12.04109,2.7747 6.43956,3.06563 11.26812,8.5282 13.74755,15.55831 1.15509,3.26538 1.31136,4.28581 1.31136,8.48911 0,3.34354 -0.23008,5.55375 -0.7772,7.38184 -2.8268,9.4227 -10.15223,16.47018 -19.64006,18.8975 -3.11341,0.79898 -8.09397,1.05083 -11.025,0.55581 z" /><path
     sodipodi:nodetypes="cscsscsccscsscccsccccsscscsssscccc"
     inkscape:connector-curvature="0"
     id="path4644-0-7"
     d="M 838.74797,1076.1816 C 755.60445,1071.4293 680.88033,1026.2308 637.94296,954.72002 619.2517,923.5905 608.04828,889.98257 603.57265,851.61661 c -1.16692,-10.00324 -0.9705,-42.90831 0.31838,-53.33731 7.04544,-57.00777 30.37696,-106.31194 69.28653,-146.41648 32.57433,-33.57471 74.34249,-57.60839 119.38217,-68.69353 20.67948,-5.08957 37.75367,-7.10167 60.26326,-7.10167 22.50958,0 39.58373,2.0121 60.26323,7.10167 38.7345,9.5333 74.903,28.52608 105.39828,55.34693 42.5318,37.40693 71.4859,89.09695 81.0924,144.76936 2.6814,15.53996 3.2102,22.53868 3.2235,42.66869 0.014,20.1883 -0.3144,24.81618 -2.9003,40.94442 -11.855,73.93805 -57.9291,139.94791 -123.66718,177.17651 -34.2005,19.3683 -70.6326,29.9166 -111.01127,32.1416 -11.53305,0.6355 -14.8153,0.6312 -26.47368,-0.035 z m 33.10552,-51.8892 c 29.15923,-2.6965 58.10333,-12.2552 83.69563,-27.6402 8.867,-5.33044 23.2091,-15.51175 22.4138,-16.29407 -19.8824,-23.46974 -20.1637,-23.47187 -280.13656,-278.7972 -1.94789,1.7628 -10.91386,14.4269 -15.08979,21.31381 -16.27555,26.84138 -25.78861,56.33911 -28.33846,87.87087 -0.84415,10.43846 -0.37698,31.15356 0.9145,40.55049 5.99103,43.59236 24.37748,81.93623 54.14008,112.90584 42.09349,43.80066 101.37115,65.73426 162.4008,60.09046 z m 136.44811,-74.23809 c 0.3937,-0.22099 2.0426,-2.15501 3.6643,-4.29783 20.2667,-26.77927 33.5656,-59.52125 38.3674,-94.46038 1.2915,-9.39693 1.7587,-30.11203 0.9146,-40.55049 -3.9409,-48.73216 -25.0133,-93.55171 -59.82998,-127.25397 -32.0087,-30.98414 -71.5887,-49.72204 -116.39268,-55.10237 -11.00037,-1.321 -33.40415,-1.321 -44.40451,0 -35.70078,4.28717 -66.72807,16.46888 -95.87336,37.64107 -3.25105,2.36169 -5.911,4.60233 -5.911,4.97919"
     style="fill:#fd0202;stroke-width:0.57668191" /></g><text
   xml:space="preserve"
   style="font-style:normal;font-variant:normal;font-weight:normal;font-stretch:normal;font-size:160px;line-height:1.25;font-family:'Highway Gothic';-inkscape-font-specification:'Highway Gothic';letter-spacing:0px;word-spacing:0px;fill:#000000;fill-opacity:1;stroke:none"
   x="565.99146"
   y="1254.3589"
   id="text6700"><tspan
     sodipodi:role="line"
     id="tspan6698"
     x="565.99146"
     y="1254.3589"
     style="font-size:146.66667175px;text-align:center;text-anchor:middle">NO STUPID SHIT</tspan><tspan
     sodipodi:role="line"
     x="565.99146"
     y="1454.3589"
     id="tspan6704"
     style="font-size:146.66667175px;text-align:center;text-anchor:middle">USE YOUR BRAIN</tspan><tspan
     sodipodi:role="line"
     x="565.99146"
     y="1654.3589"
     id="tspan6702"
     style="font-size:146.66667175px;text-align:center;text-anchor:middle" /></text>
</svg>