<?xml version="1.0" encoding="UTF-8" standalone="no"?>
<!-- Created with Inkscape (http://www.inkscape.org/) -->

<svg
   xmlns:dc="http://purl.org/dc/elements/1.1/"
   xmlns:cc="http://creativecommons.org/ns#"
   xmlns:rdf="http://www.w3.org/1999/02/22-rdf-syntax-ns#"
   xmlns:svg="http://www.w3.org/2000/svg"
   xmlns="http://www.w3.org/2000/svg"
   xmlns:sodipodi="http://sodipodi.sourceforge.net/DTD/sodipodi-0.dtd"
   xmlns:inkscape="http://www.inkscape.org/namespaces/inkscape"
   width="297mm"
   height="420mm"
   viewBox="0 0 297 420"
   version="1.1"
   id="svg8"
   inkscape:version="0.92.3 (2405546, 2018-03-11)"
   sodipodi:docname="Unfallfrei_nurpfad.svg"
   inkscape:export-filename="/home/housemeista/Dropbox/Fla/Stencilkram Inkscape/Vorlagen/schildcyber.png"
   inkscape:export-xdpi="96"
   inkscape:export-ydpi="96">
  <defs
     id="defs2" />
  <sodipodi:namedview
     id="base"
     pagecolor="#ffffff"
     bordercolor="#666666"
     borderopacity="1.0"
     inkscape:pageopacity="0"
     inkscape:pageshadow="2"
     inkscape:zoom="0.35"
     inkscape:cx="740.04436"
     inkscape:cy="679.97142"
     inkscape:document-units="mm"
     inkscape:current-layer="text26"
     showgrid="true"
     inkscape:pagecheckerboard="true"
     inkscape:window-width="1920"
     inkscape:window-height="1031"
     inkscape:window-x="0"
     inkscape:window-y="25"
     inkscape:window-maximized="1"
     showguides="false"
     inkscape:guide-bbox="true">
    <inkscape:grid
       type="xygrid"
       id="grid3713" />
    <sodipodi:guide
       position="13.229167,395"
       orientation="0,1"
       id="guide664"
       inkscape:locked="false"
       inkscape:label=""
       inkscape:color="rgb(0,0,255)" />
    <sodipodi:guide
       position="22.489584,415"
       orientation="0,1"
       id="guide666"
       inkscape:locked="false"
       inkscape:label=""
       inkscape:color="rgb(0,0,255)" />
  </sodipodi:namedview>
  <metadata
     id="metadata5">
    <rdf:RDF>
      <cc:Work
         rdf:about="">
        <dc:format>image/svg+xml</dc:format>
        <dc:type
           rdf:resource="http://purl.org/dc/dcmitype/StillImage" />
        <dc:title></dc:title>
      </cc:Work>
    </rdf:RDF>
  </metadata>
  <g
     inkscape:label="Ebene 1"
     inkscape:groupmode="layer"
     id="layer1"
     transform="translate(0,123)">
    <text
       xml:space="preserve"
       style="font-style:normal;font-variant:normal;font-weight:normal;font-stretch:normal;font-size:10.41260052px;line-height:1.25;font-family:'Leipzig Fraktur UNZ1A';-inkscape-font-specification:'Leipzig Fraktur UNZ1A';letter-spacing:0px;word-spacing:0px;fill:#000000;fill-opacity:1;stroke:none;stroke-width:0.260315"
       x="26.135876"
       y="9.153347"
       id="text378"><tspan
         sodipodi:role="line"
         id="tspan376"
         x="26.135876"
         y="18.680193"
         style="stroke-width:0.260315" /></text>
    <text
       xml:space="preserve"
       style="font-style:normal;font-variant:normal;font-weight:normal;font-stretch:normal;font-size:10.41260052px;line-height:1.25;font-family:'Leipzig Fraktur UNZ1A';-inkscape-font-specification:'Leipzig Fraktur UNZ1A';letter-spacing:0px;word-spacing:0px;fill:#000000;fill-opacity:1;stroke:none;stroke-width:0.260315"
       x="171.91231"
       y="9.1533546"
       id="text378-2"><tspan
         sodipodi:role="line"
         id="tspan376-6"
         x="171.91231"
         y="18.680201"
         style="stroke-width:0.260315" /></text>
    <g
       aria-label="Mutantenpack unerwünscht"
       style="font-style:normal;font-variant:normal;font-weight:normal;font-stretch:normal;font-size:10.58333302px;line-height:1.25;font-family:'Highway Gothic';-inkscape-font-specification:'Highway Gothic';letter-spacing:0px;word-spacing:0px;fill:#000000;fill-opacity:1;stroke:none;stroke-width:0.26458332"
       id="text26"
       transform="matrix(5.1437688,0,0,5.1437688,-379.43761,-372.44537)">
      <path
         style="fill:#000000;stroke-width:0.26962358"
         d="M 56.693359,37.794922 V 1549.6055 H 1077.166 V 37.794922 Z M 94.488281,75.589844 H 1039.3711 V 1511.8105 H 94.488281 Z"
         transform="matrix(0.05143764,0,0,0.05143764,73.766459,48.49467)"
         id="rect883"
         inkscape:connector-curvature="0" />
      <g
         aria-label="DIESER BETRIEB
IST
UNFALLFREI
SEIT"
         style="font-style:normal;font-variant:normal;font-weight:normal;font-stretch:normal;font-size:6.17251682px;line-height:1.25;font-family:Orbitron;-inkscape-font-specification:Orbitron;letter-spacing:0px;word-spacing:0px;fill:#000000;fill-opacity:1;stroke:none;stroke-width:0.01360954"
         id="text895">
        <path
           d="m 79.859385,60.926491 h 1.363441 c 1.152203,0 1.805118,-0.604907 1.805118,-1.87233 v -3.197364 c 0,-1.104195 -0.614508,-1.766712 -1.718703,-1.766712 h -1.449856 z m 0.979373,-5.914643 h 0.45128 c 0.576101,0 0.758533,0.307254 0.758533,0.844949 v 3.293381 c 0,0.585703 -0.211237,0.85455 -0.758533,0.85455 h -0.45128 z"
           style="font-style:normal;font-variant:normal;font-weight:normal;font-stretch:condensed;font-size:9.60169315px;font-family:'DIN 1451 Std';-inkscape-font-specification:'DIN 1451 Std Condensed';text-align:center;text-anchor:middle;stroke-width:0.01360954"
           id="path829" />
        <path
           d="m 83.976412,60.926491 h 0.979372 v -6.836406 h -0.979372 z"
           style="font-style:normal;font-variant:normal;font-weight:normal;font-stretch:condensed;font-size:9.60169315px;font-family:'DIN 1451 Std';-inkscape-font-specification:'DIN 1451 Std Condensed';text-align:center;text-anchor:middle;stroke-width:0.01360954"
           id="path831" />
        <path
           d="m 85.897951,60.926491 h 2.918914 v -0.979373 h -1.939542 v -2.006754 h 1.689898 v -0.921762 h -1.689898 v -2.006754 h 1.939542 v -0.921763 h -2.918914 z"
           style="font-style:normal;font-variant:normal;font-weight:normal;font-stretch:condensed;font-size:9.60169315px;font-family:'DIN 1451 Std';-inkscape-font-specification:'DIN 1451 Std Condensed';text-align:center;text-anchor:middle;stroke-width:0.01360954"
           id="path833" />
        <path
           d="m 92.610884,55.578348 c 0,-0.758534 -0.652915,-1.545873 -1.632288,-1.545873 -1.123398,0 -1.680296,0.835347 -1.680296,1.87233 0,0.854551 0.220839,1.411449 1.065788,1.75711 l 0.700924,0.288051 c 0.480084,0.192034 0.5665,0.307254 0.5665,1.036983 0,0.62411 -0.04801,1.017779 -0.710526,1.017779 -0.499288,0 -0.691322,-0.345661 -0.691322,-0.700923 V 58.99655 h -0.979372 v 0.364865 c 0,0.921762 0.720127,1.622686 1.670694,1.622686 1.267424,0 1.689898,-0.854551 1.689898,-2.006754 0,-0.998576 -0.163228,-1.545873 -1.027381,-1.87233 l -0.748932,-0.297653 c -0.50889,-0.201635 -0.556898,-0.384067 -0.556898,-0.91216 0,-0.45128 0.124822,-0.883356 0.662517,-0.883356 0.499288,0 0.691322,0.374466 0.691322,0.825745 v 0.220839 h 0.979372 z"
           style="font-style:normal;font-variant:normal;font-weight:normal;font-stretch:condensed;font-size:9.60169315px;font-family:'DIN 1451 Std';-inkscape-font-specification:'DIN 1451 Std Condensed';text-align:center;text-anchor:middle;stroke-width:0.01360954"
           id="path835" />
        <path
           d="m 93.343014,60.926491 h 2.918914 v -0.979373 h -1.939542 v -2.006754 h 1.689898 v -0.921762 h -1.689898 v -2.006754 h 1.939542 v -0.921763 h -2.918914 z"
           style="font-style:normal;font-variant:normal;font-weight:normal;font-stretch:condensed;font-size:9.60169315px;font-family:'DIN 1451 Std';-inkscape-font-specification:'DIN 1451 Std Condensed';text-align:center;text-anchor:middle;stroke-width:0.01360954"
           id="path837" />
        <path
           d="m 97.866762,55.011848 h 0.50889 c 0.720127,0 0.835347,0.374466 0.835347,1.065788 0,0.68172 -0.105619,1.065788 -0.787339,1.065788 h -0.556898 z m -0.979373,5.914643 h 0.979373 v -2.918915 h 0.585703 l 0.912161,2.918915 h 1.036984 l -1.056187,-3.12055 c 0.62411,-0.345661 0.844947,-0.921763 0.844947,-1.709102 0,-1.325034 -0.566498,-2.006754 -1.728303,-2.006754 h -1.574678 z"
           style="font-style:normal;font-variant:normal;font-weight:normal;font-stretch:condensed;font-size:9.60169315px;font-family:'DIN 1451 Std';-inkscape-font-specification:'DIN 1451 Std Condensed';text-align:center;text-anchor:middle;stroke-width:0.01360954"
           id="path839" />
        <path
           d="m 102.75717,60.926491 h 1.33464 c 1.26742,0 1.83392,-0.672119 1.83392,-1.862729 v -0.384067 c 0,-0.710526 -0.21123,-1.123399 -0.67212,-1.344237 0.43208,-0.268848 0.67212,-0.537695 0.67212,-1.267424 V 55.81839 c 0,-0.892957 -0.47048,-1.728305 -1.7379,-1.728305 h -1.43066 z m 0.97938,-3.168559 h 0.43207 c 0.71053,0 0.83535,0.355263 0.83535,1.036983 0,0.672118 -0.0576,1.152203 -0.84495,1.152203 h -0.42247 z m 0,-2.746084 h 0.40327 c 0.64331,0 0.86415,0.316856 0.86415,0.921762 0,0.62411 -0.17283,0.96017 -0.82574,0.96017 h -0.44168 z"
           style="font-style:normal;font-variant:normal;font-weight:normal;font-stretch:condensed;font-size:9.60169315px;font-family:'DIN 1451 Std';-inkscape-font-specification:'DIN 1451 Std Condensed';text-align:center;text-anchor:middle;stroke-width:0.01360954"
           id="path841" />
        <path
           d="m 106.8454,60.926491 h 2.91891 v -0.979373 h -1.93954 v -2.006754 h 1.6899 v -0.921762 h -1.6899 v -2.006754 h 1.93954 v -0.921763 h -2.91891 z"
           style="font-style:normal;font-variant:normal;font-weight:normal;font-stretch:condensed;font-size:9.60169315px;font-family:'DIN 1451 Std';-inkscape-font-specification:'DIN 1451 Std Condensed';text-align:center;text-anchor:middle;stroke-width:0.01360954"
           id="path843" />
        <path
           d="m 111.03308,60.926491 h 0.97938 v -5.914643 h 1.133 v -0.921763 h -3.24538 v 0.921763 h 1.133 z"
           style="font-style:normal;font-variant:normal;font-weight:normal;font-stretch:condensed;font-size:9.60169315px;font-family:'DIN 1451 Std';-inkscape-font-specification:'DIN 1451 Std Condensed';text-align:center;text-anchor:middle;stroke-width:0.01360954"
           id="path845" />
        <path
           d="m 114.5572,55.011848 h 0.50889 c 0.72013,0 0.83535,0.374466 0.83535,1.065788 0,0.68172 -0.10562,1.065788 -0.78734,1.065788 h -0.5569 z m -0.97937,5.914643 h 0.97937 v -2.918915 h 0.58571 l 0.91216,2.918915 h 1.03698 l -1.05619,-3.12055 c 0.62411,-0.345661 0.84495,-0.921763 0.84495,-1.709102 0,-1.325034 -0.5665,-2.006754 -1.7283,-2.006754 h -1.57468 z"
           style="font-style:normal;font-variant:normal;font-weight:normal;font-stretch:condensed;font-size:9.60169315px;font-family:'DIN 1451 Std';-inkscape-font-specification:'DIN 1451 Std Condensed';text-align:center;text-anchor:middle;stroke-width:0.01360954"
           id="path847" />
        <path
           d="m 117.69486,60.926491 h 0.97937 v -6.836406 h -0.97937 z"
           style="font-style:normal;font-variant:normal;font-weight:normal;font-stretch:condensed;font-size:9.60169315px;font-family:'DIN 1451 Std';-inkscape-font-specification:'DIN 1451 Std Condensed';text-align:center;text-anchor:middle;stroke-width:0.01360954"
           id="path849" />
        <path
           d="m 119.6164,60.926491 h 2.91891 v -0.979373 h -1.93954 v -2.006754 h 1.6899 v -0.921762 h -1.6899 v -2.006754 h 1.93954 v -0.921763 h -2.91891 z"
           style="font-style:normal;font-variant:normal;font-weight:normal;font-stretch:condensed;font-size:9.60169315px;font-family:'DIN 1451 Std';-inkscape-font-specification:'DIN 1451 Std Condensed';text-align:center;text-anchor:middle;stroke-width:0.01360954"
           id="path851" />
        <path
           d="m 123.16077,60.926491 h 1.33464 c 1.26742,0 1.83392,-0.672119 1.83392,-1.862729 v -0.384067 c 0,-0.710526 -0.21124,-1.123399 -0.67212,-1.344237 0.43208,-0.268848 0.67212,-0.537695 0.67212,-1.267424 V 55.81839 c 0,-0.892957 -0.47048,-1.728305 -1.7379,-1.728305 h -1.43066 z m 0.97938,-3.168559 h 0.43207 c 0.71053,0 0.83535,0.355263 0.83535,1.036983 0,0.672118 -0.0576,1.152203 -0.84495,1.152203 h -0.42247 z m 0,-2.746084 h 0.40327 c 0.64331,0 0.86415,0.316856 0.86415,0.921762 0,0.62411 -0.17283,0.96017 -0.82575,0.96017 h -0.44167 z"
           style="font-style:normal;font-variant:normal;font-weight:normal;font-stretch:condensed;font-size:9.60169315px;font-family:'DIN 1451 Std';-inkscape-font-specification:'DIN 1451 Std Condensed';text-align:center;text-anchor:middle;stroke-width:0.01360954"
           id="path853" />
        <path
           d="m 99.063447,72.928607 h 0.979373 v -6.836405 h -0.979373 z"
           style="font-style:normal;font-variant:normal;font-weight:normal;font-stretch:condensed;font-size:9.60169315px;font-family:'DIN 1451 Std';-inkscape-font-specification:'DIN 1451 Std Condensed';text-align:center;text-anchor:middle;stroke-width:0.01360954"
           id="path855" />
        <path
           d="m 104.15354,67.580464 c 0,-0.758534 -0.65291,-1.545872 -1.63228,-1.545872 -1.1234,0 -1.6803,0.835347 -1.6803,1.87233 0,0.85455 0.22084,1.411449 1.06579,1.75711 l 0.70092,0.28805 c 0.48009,0.192034 0.5665,0.307255 0.5665,1.036983 0,0.62411 -0.048,1.01778 -0.71052,1.01778 -0.49929,0 -0.69133,-0.345661 -0.69133,-0.700924 v -0.307254 h -0.97937 v 0.364864 c 0,0.921763 0.72013,1.622686 1.6707,1.622686 1.26742,0 1.68989,-0.85455 1.68989,-2.006753 0,-0.998577 -0.16322,-1.545873 -1.02738,-1.872331 l -0.74893,-0.297652 c -0.50889,-0.201636 -0.5569,-0.384068 -0.5569,-0.912161 0,-0.45128 0.12483,-0.883356 0.66252,-0.883356 0.49929,0 0.69132,0.374466 0.69132,0.825746 v 0.220839 h 0.97937 z"
           style="font-style:normal;font-variant:normal;font-weight:normal;font-stretch:condensed;font-size:9.60169315px;font-family:'DIN 1451 Std';-inkscape-font-specification:'DIN 1451 Std Condensed';text-align:center;text-anchor:middle;stroke-width:0.01360954"
           id="path857" />
        <path
           d="m 105.52899,72.928607 h 0.97937 v -5.914643 h 1.133 v -0.921762 h -3.24537 v 0.921762 h 1.133 z"
           style="font-style:normal;font-variant:normal;font-weight:normal;font-stretch:condensed;font-size:9.60169315px;font-family:'DIN 1451 Std';-inkscape-font-specification:'DIN 1451 Std Condensed';text-align:center;text-anchor:middle;stroke-width:0.01360954"
           id="path859" />
        <path
           d="m 84.92624,78.437236 h -1.259193 v 6.691008 c 0,0.617252 -0.333316,0.913532 -0.777737,0.913532 -0.444422,0 -0.777737,-0.29628 -0.777737,-0.913532 v -6.691008 h -1.259194 v 6.814458 c 0,1.148088 0.913533,2.049276 2.036931,2.049276 1.123398,0 2.03693,-0.901188 2.03693,-2.049276 z"
           style="font-style:normal;font-variant:normal;font-weight:normal;font-stretch:condensed;font-size:12.34503365px;font-family:'DIN 1451 Std';-inkscape-font-specification:'DIN 1451 Std Condensed';text-align:center;text-anchor:middle;stroke-width:0.01360954"
           id="path861" />
        <path
           d="m 86.059283,87.2269 h 1.259193 v -5.283675 h 0.02469 l 1.925826,5.283675 h 1.185123 v -8.789664 h -1.259194 v 5.296019 h -0.02469 l -1.901135,-5.296019 h -1.209813 z"
           style="font-style:normal;font-variant:normal;font-weight:normal;font-stretch:condensed;font-size:12.34503365px;font-family:'DIN 1451 Std';-inkscape-font-specification:'DIN 1451 Std Condensed';text-align:center;text-anchor:middle;stroke-width:0.01360954"
           id="path863" />
        <path
           d="m 91.58195,87.2269 h 1.259193 v -3.752891 h 2.172726 v -1.185123 h -2.172726 v -2.666527 h 2.493697 v -1.185123 h -3.75289 z"
           style="font-style:normal;font-variant:normal;font-weight:normal;font-stretch:condensed;font-size:12.34503365px;font-family:'DIN 1451 Std';-inkscape-font-specification:'DIN 1451 Std Condensed';text-align:center;text-anchor:middle;stroke-width:0.01360954"
           id="path865" />
        <path
           d="M 98.055183,84.152986 H 96.79599 l 0.617251,-3.185018 h 0.02469 z M 94.944235,87.2269 h 1.259193 l 0.370351,-1.88879 h 1.71596 l 0.370351,1.88879 h 1.259193 l -1.96286,-8.789664 h -1.049328 z"
           style="font-style:normal;font-variant:normal;font-weight:normal;font-stretch:condensed;font-size:12.34503365px;font-family:'DIN 1451 Std';-inkscape-font-specification:'DIN 1451 Std Condensed';text-align:center;text-anchor:middle;stroke-width:0.01360954"
           id="path867" />
        <path
           d="m 100.52728,87.2269 h 3.75289 v -1.259194 h -2.4937 v -7.53047 h -1.25919 z"
           style="font-style:normal;font-variant:normal;font-weight:normal;font-stretch:condensed;font-size:12.34503365px;font-family:'DIN 1451 Std';-inkscape-font-specification:'DIN 1451 Std Condensed';text-align:center;text-anchor:middle;stroke-width:0.01360954"
           id="path869" />
        <path
           d="m 105.08433,87.2269 h 3.75289 v -1.259194 h -2.4937 v -7.53047 h -1.25919 z"
           style="font-style:normal;font-variant:normal;font-weight:normal;font-stretch:condensed;font-size:12.34503365px;font-family:'DIN 1451 Std';-inkscape-font-specification:'DIN 1451 Std Condensed';text-align:center;text-anchor:middle;stroke-width:0.01360954"
           id="path871" />
        <path
           d="m 109.64138,87.2269 h 1.2592 v -3.752891 h 2.17272 v -1.185123 h -2.17272 v -2.666527 h 2.49369 v -1.185123 h -3.75289 z"
           style="font-style:normal;font-variant:normal;font-weight:normal;font-stretch:condensed;font-size:12.34503365px;font-family:'DIN 1451 Std';-inkscape-font-specification:'DIN 1451 Std Condensed';text-align:center;text-anchor:middle;stroke-width:0.01360954"
           id="path873" />
        <path
           d="m 115.45763,79.622359 h 0.65429 c 0.92587,0 1.07402,0.481456 1.07402,1.370299 0,0.876497 -0.1358,1.370298 -1.0123,1.370298 h -0.71601 z m -1.25919,7.604541 h 1.25919 v -3.752891 h 0.75305 l 1.17278,3.752891 h 1.33326 l -1.35795,-4.012136 c 0.80242,-0.444421 1.08636,-1.185124 1.08636,-2.197416 0,-1.703615 -0.72836,-2.580112 -2.22211,-2.580112 h -2.02458 z"
           style="font-style:normal;font-variant:normal;font-weight:normal;font-stretch:condensed;font-size:12.34503365px;font-family:'DIN 1451 Std';-inkscape-font-specification:'DIN 1451 Std Condensed';text-align:center;text-anchor:middle;stroke-width:0.01360954"
           id="path875" />
        <path
           d="m 119.45472,87.2269 h 3.75289 v -1.259194 h -2.4937 v -2.580112 h 2.17273 v -1.185123 h -2.17273 v -2.580112 h 2.4937 v -1.185123 h -3.75289 z"
           style="font-style:normal;font-variant:normal;font-weight:normal;font-stretch:condensed;font-size:12.34503365px;font-family:'DIN 1451 Std';-inkscape-font-specification:'DIN 1451 Std Condensed';text-align:center;text-anchor:middle;stroke-width:0.01360954"
           id="path877" />
        <path
           d="m 124.04881,87.2269 h 1.25919 v -8.789664 h -1.25919 z"
           style="font-style:normal;font-variant:normal;font-weight:normal;font-stretch:condensed;font-size:12.34503365px;font-family:'DIN 1451 Std';-inkscape-font-specification:'DIN 1451 Std Condensed';text-align:center;text-anchor:middle;stroke-width:0.01360954"
           id="path879" />
        <path
           d="m 100.43101,95.013873 c 0,-0.758534 -0.652912,-1.545873 -1.632285,-1.545873 -1.123398,0 -1.680296,0.835347 -1.680296,1.87233 0,0.854551 0.220839,1.411449 1.065788,1.75711 l 0.700923,0.288051 c 0.480085,0.192034 0.5665,0.307254 0.5665,1.036983 0,0.62411 -0.04801,1.017779 -0.710525,1.017779 -0.499288,0 -0.691322,-0.345661 -0.691322,-0.700923 V 98.432075 H 97.07042 v 0.364865 c 0,0.921762 0.720127,1.62269 1.670695,1.62269 1.267425,0 1.689895,-0.854555 1.689895,-2.006758 0,-0.998576 -0.16323,-1.545873 -1.027378,-1.87233 L 98.6547,96.242889 c -0.50889,-0.201635 -0.556898,-0.384067 -0.556898,-0.91216 0,-0.45128 0.124822,-0.883356 0.662516,-0.883356 0.499288,0 0.691322,0.374466 0.691322,0.825745 v 0.220839 h 0.97937 z"
           style="font-style:normal;font-variant:normal;font-weight:normal;font-stretch:condensed;font-size:9.60169315px;font-family:'DIN 1451 Std';-inkscape-font-specification:'DIN 1451 Std Condensed';text-align:center;text-anchor:middle;stroke-width:0.01360954"
           id="path881" />
        <path
           d="m 101.16314,100.36202 h 2.91892 v -0.979377 h -1.93955 v -2.006754 h 1.6899 v -0.921762 h -1.6899 v -2.006754 h 1.93955 V 93.52561 h -2.91892 z"
           style="font-style:normal;font-variant:normal;font-weight:normal;font-stretch:condensed;font-size:9.60169315px;font-family:'DIN 1451 Std';-inkscape-font-specification:'DIN 1451 Std Condensed';text-align:center;text-anchor:middle;stroke-width:0.01360954"
           id="path883" />
        <path
           d="m 104.73632,100.36202 h 0.97937 v -6.83641 h -0.97937 z"
           style="font-style:normal;font-variant:normal;font-weight:normal;font-stretch:condensed;font-size:9.60169315px;font-family:'DIN 1451 Std';-inkscape-font-specification:'DIN 1451 Std Condensed';text-align:center;text-anchor:middle;stroke-width:0.01360954"
           id="path885" />
        <path
           d="m 107.30117,100.36202 h 0.97938 v -5.914647 h 1.133 V 93.52561 h -3.24538 v 0.921763 h 1.133 z"
           style="font-style:normal;font-variant:normal;font-weight:normal;font-stretch:condensed;font-size:9.60169315px;font-family:'DIN 1451 Std';-inkscape-font-specification:'DIN 1451 Std Condensed';text-align:center;text-anchor:middle;stroke-width:0.01360954"
           id="path887" />
      </g>
      <text
         xml:space="preserve"
         style="font-style:normal;font-variant:normal;font-weight:normal;font-stretch:normal;font-size:6.17251682px;line-height:1.25;font-family:Orbitron;-inkscape-font-specification:Orbitron;letter-spacing:0px;word-spacing:0px;fill:#000000;fill-opacity:1;stroke:none;stroke-width:0.01360954"
         x="123.14659"
         y="70.479202"
         id="text901"><tspan
           sodipodi:role="line"
           x="123.14659"
           y="75.880157"
           style="stroke-width:0.01360954"
           id="tspan903" /></text>
      <rect
         style="fill:#000000;stroke-width:0.01311408"
         id="rect927"
         width="50.546597"
         height="1.9440998"
         x="77.654655"
         y="104.87357" />
    </g>
  </g>
</svg>
