<?xml version="1.0" encoding="UTF-8" standalone="no"?>
<!-- Created with Inkscape (http://www.inkscape.org/) -->

<svg
   xmlns:dc="http://purl.org/dc/elements/1.1/"
   xmlns:cc="http://creativecommons.org/ns#"
   xmlns:rdf="http://www.w3.org/1999/02/22-rdf-syntax-ns#"
   xmlns:svg="http://www.w3.org/2000/svg"
   xmlns="http://www.w3.org/2000/svg"
   xmlns:sodipodi="http://sodipodi.sourceforge.net/DTD/sodipodi-0.dtd"
   xmlns:inkscape="http://www.inkscape.org/namespaces/inkscape"
   width="297mm"
   height="420mm"
   viewBox="0 0 297 420"
   version="1.1"
   id="svg8"
   inkscape:version="0.92.3 (2405546, 2018-03-11)"
   sodipodi:docname="verbotidiot.svg"
   inkscape:export-filename="/home/housemeista/Dropbox/Fla/Stencilkram Inkscape/Vorlagen/schildabgelehnt.png"
   inkscape:export-xdpi="96"
   inkscape:export-ydpi="96">
  <defs
     id="defs2" />
  <sodipodi:namedview
     id="base"
     pagecolor="#ffffff"
     bordercolor="#666666"
     borderopacity="1.0"
     inkscape:pageopacity="0"
     inkscape:pageshadow="2"
     inkscape:zoom="0.37772166"
     inkscape:cx="906.91114"
     inkscape:cy="760.13649"
     inkscape:document-units="mm"
     inkscape:current-layer="text769"
     showgrid="true"
     inkscape:pagecheckerboard="true"
     inkscape:window-width="1920"
     inkscape:window-height="1031"
     inkscape:window-x="0"
     inkscape:window-y="25"
     inkscape:window-maximized="1"
     showguides="true"
     inkscape:guide-bbox="true">
    <inkscape:grid
       type="xygrid"
       id="grid3713" />
    <sodipodi:guide
       position="116.41667,211.66666"
       orientation="0,1"
       id="guide120"
       inkscape:locked="false" />
    <sodipodi:guide
       position="402.16668,359.83333"
       orientation="1,0"
       id="guide114"
       inkscape:locked="false" />
    <sodipodi:guide
       position="317.50001,296.33333"
       orientation="0,1"
       id="guide116"
       inkscape:locked="false" />
  </sodipodi:namedview>
  <metadata
     id="metadata5">
    <rdf:RDF>
      <cc:Work
         rdf:about="">
        <dc:format>image/svg+xml</dc:format>
        <dc:type
           rdf:resource="http://purl.org/dc/dcmitype/StillImage" />
        <dc:title></dc:title>
      </cc:Work>
    </rdf:RDF>
  </metadata>
  <g
     inkscape:label="Ebene 1"
     inkscape:groupmode="layer"
     id="layer1"
     transform="translate(0,123)">
    <g
       aria-label="Quest module"
       transform="rotate(90)"
       style="font-style:normal;font-variant:normal;font-weight:normal;font-stretch:normal;font-size:31.75px;line-height:1.25;font-family:Orbitron;-inkscape-font-specification:Orbitron;letter-spacing:0px;word-spacing:0px;fill:#000000;fill-opacity:1;stroke:none;stroke-width:0.26458332"
       id="text769">
      <g
         aria-label="So manches Schild, das sagt
VERBOT
bescherte dir ein Vollidiot"
         style="font-style:normal;font-variant:normal;font-weight:normal;font-stretch:normal;font-size:31.75px;line-height:1.25;font-family:PreussischeIV44Ausgabe3;-inkscape-font-specification:PreussischeIV44Ausgabe3;letter-spacing:0px;word-spacing:0px;fill:#000000;fill-opacity:1;stroke:none;stroke-width:0.07000434"
         id="text80">
        <path
           d="m -76.042223,-212.18486 h 0.03387 c 0.948266,0 1.7272,0.67733 1.794933,1.79493 h -0.06773 c 0,1.3208 0.06773,0.44027 0.06773,1.76107 h 3.522133 v -1.76107 c 0,-2.9464 -2.404533,-5.35093 -5.350933,-5.35093 -2.912533,0 -5.317066,2.47227 -5.317066,5.35093 v 3.52214 c 0,3.08186 2.404533,5.35093 5.317066,5.35093 h 0.03387 c 0.948266,0 1.794933,0.77893 1.794933,1.76107 h -0.06773 c 0,2.6416 0.06773,0.98213 0.06773,3.58986 0,0.98214 -0.8128,1.76107 -1.794933,1.76107 h -0.03387 c -1.016,0 -1.794933,-0.74507 -1.794933,-1.76107 h 0.03387 c 0,-0.57573 0,-0.84666 -0.03387,-0.88053 v -0.9144 h -3.522133 v 1.79493 c 0,2.87867 2.269066,5.31707 5.317066,5.31707 3.048,0 5.350933,-2.47227 5.350933,-5.31707 v -3.58986 c 0,-2.87867 -2.472266,-5.31707 -5.350933,-5.31707 -1.016,0 -1.794933,-0.77893 -1.794933,-1.79493 h 0.03387 c 0,-1.1176 0,-1.69334 -0.03387,-1.76107 l 0.03387,-1.76107 c 0,-0.9144 0.677333,-1.79493 1.761066,-1.79493 z"
           style="font-size:33.86666489px;text-align:center;text-anchor:middle;stroke-width:0.07000434"
           id="path149" />
        <path
           d="m -63.946532,-196.16593 v -7.112 c 0,-1.016 0.778933,-1.79493 1.794933,-1.79493 h 0.03387 c 0.948266,0 1.794933,0.7112 1.794933,1.79493 v 1.76107 4.2672 1.08373 c 0,0.98214 -0.8128,1.76107 -1.794933,1.76107 h -0.03387 c -1.016,0 -1.794933,-0.74507 -1.794933,-1.76107 z m -3.522133,-5.41866 v 5.41866 c 0,2.87867 2.269066,5.31707 5.317066,5.31707 3.048,0 5.350933,-2.47227 5.350933,-5.31707 v -7.112 c 0,-2.9464 -2.404533,-5.35093 -5.350933,-5.35093 -2.912533,0 -5.317066,2.26907 -5.317066,5.35093 z"
           style="font-size:33.86666489px;text-align:center;text-anchor:middle;stroke-width:0.07000434"
           id="path151" />
        <path
           d="m -42.11841,-205.07286 v -3.556 h -3.522133 v 17.78 h 3.556 v -12.42907 c 0,-1.016 0.745066,-1.79493 1.761066,-1.79493 1.016,0 1.761067,0.77893 1.761067,1.79493 l 0.06773,12.42907 h 3.556 v -12.42907 c 0,-1.016 0.745067,-1.79493 1.761067,-1.79493 0.948266,0 1.794933,0.7112 1.794933,1.79493 v 12.42907 h 3.556 v -14.224 c 0,-1.76107 -1.524,-3.556 -3.556,-3.556 -2.065867,0 -3.556,1.79493 -3.556,3.556 h -0.03387 c 0,-1.9304 -1.6256,-3.556 -3.555999,-3.556 -2.032,0 -3.556,1.65947 -3.556,3.556 z"
           style="font-size:33.86666489px;text-align:center;text-anchor:middle;stroke-width:0.07000434"
           id="path153" />
        <path
           d="m -17.129572,-190.84886 h 3.522133 v -12.42907 c 0,-2.9464 -2.404533,-5.35093 -5.350933,-5.35093 -2.8448,0 -5.317066,2.30293 -5.317066,5.35093 h 3.555999 c 0,-1.016 0.745067,-1.79493 1.761067,-1.79493 h 0.03387 c 0.948266,0 1.794933,0.7112 1.794933,1.79493 0,0.98214 -0.8128,1.76107 -1.794933,1.76107 h -0.03387 c -2.8448,0 -5.317066,2.30293 -5.317066,5.35093 v 1.76107 c 0,2.032 1.659466,3.556 3.555999,3.556 1.9304,0 3.556,-1.6256 3.556,-3.556 h 0.03387 z m 0,-7.4168 v 2.09973 c 0,1.016 -0.846667,1.76107 -1.8288,1.76107 -0.982133,0 -1.761067,-0.77893 -1.761067,-1.76107 0,-2.09973 1.964267,-1.55786 3.589867,-2.09973 z"
           style="font-size:33.86666489px;text-align:center;text-anchor:middle;stroke-width:0.07000434"
           id="path155" />
        <path
           d="m -6.8626841,-205.07286 v -3.556 h -3.5221329 v 17.78 h 3.5559996 v -12.42907 c 0,-1.016 0.7450666,-1.79493 1.7610666,-1.79493 1.0159999,0 1.7610665,0.77893 1.7610665,1.79493 l 0.033867,12.42907 h 3.55599981 v -14.224 c 0,-1.9304 -1.62559991,-3.556 -3.55599981,-3.556 -2.0319999,0 -3.5559998,1.65947 -3.5559998,3.556 z"
           style="font-size:33.86666489px;text-align:center;text-anchor:middle;stroke-width:0.07000434"
           id="path157" />
        <path
           d="m 9.1874751,-194.40486 h -0.033867 c -1.0159999,0 -1.7949332,-0.74507 -1.7949332,-1.76107 v -7.112 c 0,-1.016 0.7789333,-1.79493 1.7949332,-1.79493 h 0.033867 c 0.9482669,0 1.7949329,0.7112 1.7949329,1.79493 h 3.522133 c 0,-2.9464 -2.404533,-5.35093 -5.3509326,-5.35093 -2.9125332,0 -5.3170664,2.26907 -5.3170664,5.35093 v 7.112 c 0,2.87867 2.2690666,5.31707 5.3170664,5.31707 3.0479996,0 5.3509326,-2.47227 5.3509326,-5.31707 h -3.522133 c 0,0.98214 -0.8128,1.76107 -1.7949329,1.76107 z"
           style="font-size:33.86666489px;text-align:center;text-anchor:middle;stroke-width:0.07000434"
           id="path159" />
        <path
           d="m 22.109194,-205.07286 v -10.668 h -3.522133 v 24.892 h 3.556 v -12.42907 c 0,-1.016 0.745066,-1.79493 1.761066,-1.79493 1.016,0 1.761067,0.77893 1.761067,1.79493 l 0.03387,12.42907 h 3.556 v -14.224 c 0,-1.9304 -1.6256,-3.556 -3.556,-3.556 -2.031999,0 -3.555999,1.65947 -3.555999,3.556 z"
           style="font-size:33.86666489px;text-align:center;text-anchor:middle;stroke-width:0.07000434"
           id="path161" />
        <path
           d="m 38.357786,-194.40486 h -0.03387 c -1.016,0 -1.794933,-0.74507 -1.794933,-1.76107 v -1.79493 h 7.145866 v -5.31707 c 0,-2.9464 -2.404533,-5.35093 -5.350933,-5.35093 -2.912533,0 -5.317066,2.26907 -5.317066,5.35093 v 7.112 c 0,2.87867 2.269067,5.31707 5.317066,5.31707 3.048,0 5.350933,-2.47227 5.350933,-5.31707 h -3.522133 c 0,0.98214 -0.8128,1.76107 -1.794933,1.76107 z m 1.794933,-8.87307 v 1.76107 h -3.623733 v -1.76107 c 0,-1.016 0.778933,-1.79493 1.794933,-1.79493 h 0.03387 c 0.948267,0 1.794933,0.7112 1.794933,1.79493 z"
           style="font-size:33.86666489px;text-align:center;text-anchor:middle;stroke-width:0.07000434"
           id="path163" />
        <path
           d="m 52.545271,-205.07286 h 0.03387 c 0.948266,0 1.794933,0.7112 1.794933,1.79493 h 3.522133 c 0,-2.9464 -2.404533,-5.35093 -5.350933,-5.35093 -2.878667,0 -5.317066,2.3368 -5.317066,5.31707 v 0.0339 c 0,2.87867 2.269066,5.31707 5.317066,5.31707 h 0.03387 c 0.948266,0 1.794933,0.7112 1.794933,1.79493 0,0.98214 -0.8128,1.76107 -1.794933,1.76107 h -0.03387 c -1.016,0 -1.794933,-0.74507 -1.794933,-1.76107 h -3.522133 c 0,2.87867 2.269066,5.31707 5.317066,5.31707 3.048,0 5.350933,-2.47227 5.350933,-5.31707 0,-2.9464 -2.404533,-5.35093 -5.350933,-5.35093 -0.982133,0 -1.794933,-0.67733 -1.794933,-1.76107 h 0.03387 c 0,-0.9144 0.7112,-1.79493 1.761067,-1.79493 z"
           style="font-size:33.86666489px;text-align:center;text-anchor:middle;stroke-width:0.07000434"
           id="path165" />
        <path
           d="m 74.571837,-212.18486 h 0.03387 c 0.948267,0 1.7272,0.67733 1.794933,1.79493 h -0.06773 c 0,1.3208 0.06773,0.44027 0.06773,1.76107 h 3.522134 v -1.76107 c 0,-2.9464 -2.404534,-5.35093 -5.350933,-5.35093 -2.912534,0 -5.317067,2.47227 -5.317067,5.35093 v 3.52214 c 0,3.08186 2.404533,5.35093 5.317067,5.35093 h 0.03387 c 0.948267,0 1.794933,0.77893 1.794933,1.76107 h -0.06773 c 0,2.6416 0.06773,0.98213 0.06773,3.58986 0,0.98214 -0.812799,1.76107 -1.794933,1.76107 h -0.03387 c -1.016,0 -1.794934,-0.74507 -1.794934,-1.76107 h 0.03387 c 0,-0.57573 0,-0.84666 -0.03387,-0.88053 v -0.9144 H 69.25477 v 1.79493 c 0,2.87867 2.269067,5.31707 5.317067,5.31707 3.047999,0 5.350933,-2.47227 5.350933,-5.31707 v -3.58986 c 0,-2.87867 -2.472267,-5.31707 -5.350933,-5.31707 -1.016,0 -1.794934,-0.77893 -1.794934,-1.79493 h 0.03387 c 0,-1.1176 0,-1.69334 -0.03387,-1.76107 l 0.03387,-1.76107 c 0,-0.9144 0.677333,-1.79493 1.761067,-1.79493 z"
           style="font-size:33.86666489px;text-align:center;text-anchor:middle;stroke-width:0.07000434"
           id="path167" />
        <path
           d="m 88.496328,-194.40486 h -0.03387 c -1.016,0 -1.794934,-0.74507 -1.794934,-1.76107 v -7.112 c 0,-1.016 0.778934,-1.79493 1.794934,-1.79493 h 0.03387 c 0.948267,0 1.794933,0.7112 1.794933,1.79493 h 3.522134 c 0,-2.9464 -2.404534,-5.35093 -5.350933,-5.35093 -2.912534,0 -5.317067,2.26907 -5.317067,5.35093 v 7.112 c 0,2.87867 2.269067,5.31707 5.317067,5.31707 3.047999,0 5.350933,-2.47227 5.350933,-5.31707 h -3.522134 c 0,0.98214 -0.812799,1.76107 -1.794933,1.76107 z"
           style="font-size:33.86666489px;text-align:center;text-anchor:middle;stroke-width:0.07000434"
           id="path169" />
        <path
           d="m 101.41805,-205.07286 v -10.668 h -3.522136 v 24.892 h 3.555996 v -12.42907 c 0,-1.016 0.74507,-1.79493 1.76107,-1.79493 1.016,0 1.76107,0.77893 1.76107,1.79493 l 0.0339,12.42907 h 3.556 v -14.224 c 0,-1.9304 -1.6256,-3.556 -3.556,-3.556 -2.032,0 -3.556,1.65947 -3.556,3.556 z"
           style="font-size:33.86666489px;text-align:center;text-anchor:middle;stroke-width:0.07000434"
           id="path171" />
        <path
           d="m 115.8717,-190.84886 v -17.78 h -3.556 v 17.78 z m 0,-19.54107 v -3.58986 h -3.556 v 3.58986 z"
           style="font-size:33.86666489px;text-align:center;text-anchor:middle;stroke-width:0.07000434"
           id="path173" />
        <path
           d="m 123.34619,-215.74086 h -3.556 v 24.892 h 3.556 z"
           style="font-size:33.86666489px;text-align:center;text-anchor:middle;stroke-width:0.07000434"
           id="path175" />
        <path
           d="m 137.60192,-190.84886 v -5.31707 -12.46293 -7.112 h -3.556 v 10.668 c 0,-1.86267 -1.55786,-3.556 -3.556,-3.556 -2.032,0 -3.556,1.65947 -3.556,3.556 v 8.90693 1.76107 c 0,2.032 1.65947,3.556 3.556,3.556 1.89654,0 3.556,-1.6256 3.556,-3.556 l 0.0339,3.556 z m -3.556,-12.42907 0.0339,7.112 c -0.0339,1.016 -0.8128,1.76107 -1.8288,1.76107 -0.98213,0 -1.76107,-0.77893 -1.76107,-1.76107 v -7.112 c 0,-1.016 0.74507,-1.79493 1.76107,-1.79493 1.016,0 1.79493,0.77893 1.79493,1.79493 z"
           style="font-size:33.86666489px;text-align:center;text-anchor:middle;stroke-width:0.07000434"
           id="path177" />
        <path
           d="m 144.4467,-187.32673 v -7.07813 h -3.556 v 3.556 z"
           style="font-size:33.86666489px;text-align:center;text-anchor:middle;stroke-width:0.07000434"
           id="path179" />
        <path
           d="m 166.90454,-190.84886 v -5.31707 -12.46293 -7.112 h -3.556 v 10.668 c 0,-1.86267 -1.55787,-3.556 -3.556,-3.556 -2.032,0 -3.556,1.65947 -3.556,3.556 v 8.90693 1.76107 c 0,2.032 1.65946,3.556 3.556,3.556 1.89653,0 3.556,-1.6256 3.556,-3.556 l 0.0339,3.556 z m -3.556,-12.42907 0.0339,7.112 c -0.0339,1.016 -0.8128,1.76107 -1.8288,1.76107 -0.98213,0 -1.76106,-0.77893 -1.76106,-1.76107 v -7.112 c 0,-1.016 0.74506,-1.79493 1.76106,-1.79493 1.016,0 1.79494,0.77893 1.79494,1.79493 z"
           style="font-size:33.86666489px;text-align:center;text-anchor:middle;stroke-width:0.07000434"
           id="path181" />
        <path
           d="m 177.33916,-190.84886 h 3.52213 v -12.42907 c 0,-2.9464 -2.40453,-5.35093 -5.35093,-5.35093 -2.8448,0 -5.31707,2.30293 -5.31707,5.35093 h 3.556 c 0,-1.016 0.74507,-1.79493 1.76107,-1.79493 h 0.0339 c 0.94826,0 1.79493,0.7112 1.79493,1.79493 0,0.98214 -0.8128,1.76107 -1.79493,1.76107 h -0.0339 c -2.8448,0 -5.31707,2.30293 -5.31707,5.35093 v 1.76107 c 0,2.032 1.65947,3.556 3.556,3.556 1.9304,0 3.556,-1.6256 3.556,-3.556 h 0.0339 z m 0,-7.4168 v 2.09973 c 0,1.016 -0.84667,1.76107 -1.8288,1.76107 -0.98213,0 -1.76107,-0.77893 -1.76107,-1.76107 0,-2.09973 1.96427,-1.55786 3.58987,-2.09973 z"
           style="font-size:33.86666489px;text-align:center;text-anchor:middle;stroke-width:0.07000434"
           id="path183" />
        <path
           d="m 189.40098,-205.07286 h 0.0339 c 0.94827,0 1.79493,0.7112 1.79493,1.79493 h 3.52214 c 0,-2.9464 -2.40454,-5.35093 -5.35094,-5.35093 -2.87866,0 -5.31706,2.3368 -5.31706,5.31707 v 0.0339 c 0,2.87867 2.26906,5.31707 5.31706,5.31707 h 0.0339 c 0.94827,0 1.79493,0.7112 1.79493,1.79493 0,0.98214 -0.8128,1.76107 -1.79493,1.76107 h -0.0339 c -1.016,0 -1.79493,-0.74507 -1.79493,-1.76107 h -3.52213 c 0,2.87867 2.26906,5.31707 5.31706,5.31707 3.048,0 5.35094,-2.47227 5.35094,-5.31707 0,-2.9464 -2.40454,-5.35093 -5.35094,-5.35093 -0.98213,0 -1.79493,-0.67733 -1.79493,-1.76107 h 0.0339 c 0,-0.9144 0.7112,-1.79493 1.76106,-1.79493 z"
           style="font-size:33.86666489px;text-align:center;text-anchor:middle;stroke-width:0.07000434"
           id="path185" />
        <path
           d="m 211.42756,-205.07286 h 0.0339 c 0.94827,0 1.79493,0.7112 1.79493,1.79493 h 3.52214 c 0,-2.9464 -2.40454,-5.35093 -5.35094,-5.35093 -2.87866,0 -5.31706,2.3368 -5.31706,5.31707 v 0.0339 c 0,2.87867 2.26906,5.31707 5.31706,5.31707 h 0.0339 c 0.94827,0 1.79493,0.7112 1.79493,1.79493 0,0.98214 -0.8128,1.76107 -1.79493,1.76107 h -0.0339 c -1.016,0 -1.79493,-0.74507 -1.79493,-1.76107 h -3.52213 c 0,2.87867 2.26906,5.31707 5.31706,5.31707 3.048,0 5.35094,-2.47227 5.35094,-5.31707 0,-2.9464 -2.40454,-5.35093 -5.35094,-5.35093 -0.98213,0 -1.79493,-0.67733 -1.79493,-1.76107 h 0.0339 c 0,-0.9144 0.7112,-1.79493 1.76106,-1.79493 z"
           style="font-size:33.86666489px;text-align:center;text-anchor:middle;stroke-width:0.07000434"
           id="path187" />
        <path
           d="m 227.41155,-190.84886 h 3.52213 v -12.42907 c 0,-2.9464 -2.40453,-5.35093 -5.35093,-5.35093 -2.8448,0 -5.31707,2.30293 -5.31707,5.35093 h 3.556 c 0,-1.016 0.74507,-1.79493 1.76107,-1.79493 h 0.0339 c 0.94827,0 1.79494,0.7112 1.79494,1.79493 0,0.98214 -0.8128,1.76107 -1.79494,1.76107 h -0.0339 c -2.8448,0 -5.31707,2.30293 -5.31707,5.35093 v 1.76107 c 0,2.032 1.65947,3.556 3.556,3.556 1.9304,0 3.556,-1.6256 3.556,-3.556 h 0.0339 z m 0,-7.4168 v 2.09973 c 0,1.016 -0.84667,1.76107 -1.8288,1.76107 -0.98214,0 -1.76107,-0.77893 -1.76107,-1.76107 0,-2.09973 1.96427,-1.55786 3.58987,-2.09973 z"
           style="font-size:33.86666489px;text-align:center;text-anchor:middle;stroke-width:0.07000434"
           id="path189" />
        <path
           d="m 239.50724,-187.29286 h -0.0339 c -0.98213,0 -1.79493,-0.77894 -1.79493,-1.79494 h -3.52213 c 0,2.87867 2.26906,5.31707 5.31706,5.31707 2.7432,0 5.35093,-2.30293 5.35093,-5.31707 v -7.07813 -8.90693 -3.556 h -3.52213 l -0.0339,3.556 c 0,-1.86267 -1.59173,-3.556 -3.55599,-3.556 -2.032,0 -3.556,1.65947 -3.556,3.556 v 8.90693 1.76107 c 0,2.032 1.65946,3.556 3.556,3.556 1.93039,0 3.55599,-1.6256 3.55599,-3.556 l 0.0339,5.31706 c -0.0677,0.98214 -0.77893,1.79494 -1.79493,1.79494 z m 1.76106,-15.98507 v 7.112 c 0,1.016 -0.77893,1.76107 -1.79493,1.76107 -0.98213,0 -1.76106,-0.77893 -1.76106,-1.76107 v -7.112 c 0,-1.016 0.74506,-1.79493 1.76106,-1.79493 1.016,0 1.79493,0.77893 1.79493,1.79493 z"
           style="font-size:33.86666489px;text-align:center;text-anchor:middle;stroke-width:0.07000434"
           id="path191" />
        <path
           d="m 250.23874,-212.18486 v 3.556 h -1.79493 v 3.556 h 1.79493 v 14.224 h 3.52214 v -14.224 h 1.79493 v -3.556 h -1.79493 v -7.112 z"
           style="font-size:33.86666489px;text-align:center;text-anchor:middle;stroke-width:0.07000434"
           id="path193" />
        <path
           d="m 18.722986,-140.36378 -4.953,-27.94 H 7.1024857 l 8.3185003,46.6725 h 6.6675 l 8.3185,-46.6725 h -6.6675 z"
           style="font-size:63.5px;text-align:center;text-anchor:middle;stroke-width:0.07000434"
           id="path195" />
        <path
           d="m 43.348087,-168.30378 h -6.604 v 46.6725 h 20.0025 v -6.6675 h -13.3985 v -13.335 h 6.731 v -6.6675 h -6.731 v -13.335 h 13.3985 v -6.6675 z"
           style="font-size:63.5px;text-align:center;text-anchor:middle;stroke-width:0.07000434"
           id="path197" />
        <path
           d="m 83.53565,-151.66678 v -6.604 c 0,-5.5245 -4.5085,-10.033 -10.033,-10.033 h -9.9695 v 46.6725 h 6.6675 v -20.0025 h 3.3655 c 1.778,0 3.3655,1.4605 3.3655,3.302 v 16.7005 h 6.604 v -16.7005 c 0,-2.4765 -0.8255,-4.6355 -2.54,-6.604 1.7145,-1.9685 2.54,-4.191 2.54,-6.731 z m -6.604,0 c 0,1.8415 -1.4605,3.3655 -3.3655,3.3655 h -3.3655 c -0.127,-1.5875 -0.0635,-3.3655 -0.0635,-5.461 v -7.874 h 3.429 c 1.778,0 3.2385,1.27 3.3655,3.3655 h -0.127 v 2.286 c 0,1.524 0.127,0.508 0.127,4.318 z"
           style="font-size:63.5px;text-align:center;text-anchor:middle;stroke-width:0.07000434"
           id="path199" />
        <path
           d="m 93.439665,-168.30378 h -3.3655 v 46.6725 h 9.969505 c 5.715,0 10.033,-4.6355 10.033,-9.9695 v -6.731 c 0,-2.4765 -0.8255,-4.6355 -2.54,-6.604 1.7145,-1.9685 2.54,-4.191 2.54,-6.731 v -6.604 c 0,-5.5245 -4.5085,-10.033 -10.033,-10.033 h -3.302005 z m 10.033005,29.972 v 6.731 c 0,1.7145 -2.4765,3.302 -3.3655,3.302 h -0.381005 0.317505 -3.302005 v -13.335 h 3.302005 -0.317505 0.381005 c 0.635,0 3.3655,1.5875 3.3655,3.302 z m 0,-19.939 v 6.604 c 0,1.778 -2.4765,3.3655 -3.3655,3.3655 h -0.381005 0.317505 -3.302005 v -13.335 h 3.302005 -0.317505 0.381005 c 0.889,0 3.3655,1.5875 3.3655,3.3655 z"
           style="font-size:63.5px;text-align:center;text-anchor:middle;stroke-width:0.07000434"
           id="path201" />
        <path
           d="m 126.33663,-161.63628 h 0.0635 c 1.778,0 3.2385,1.27 3.3655,3.3655 h -0.127 v 13.335 c 0,0.6985 0.0635,1.4605 0.0635,2.286 v 2.54 c 0,0.889 0.0635,2.032 0.0635,3.429 l -0.0635,5.0165 c 0,1.8415 -1.397,3.3655 -3.3655,3.3655 -1.905,0 -3.429,-1.397 -3.3655,-3.302 l 0.0635,-5.0165 c 0,-1.397 -0.0635,-2.54 -0.0635,-3.4925 v -9.652 l 0.0635,-8.509 c 0,-1.7145 1.27,-3.3655 3.302,-3.3655 z m 10.033,29.972 v -26.6065 c 0,-5.5245 -4.5085,-10.033 -10.033,-10.033 -5.461,0 -9.9695,4.6355 -9.9695,10.033 v 26.67 c 0,5.3975 4.2545,9.9695 9.9695,9.9695 5.461,0 10.033,-4.572 10.033,-10.033 z"
           style="font-size:63.5px;text-align:center;text-anchor:middle;stroke-width:0.07000434"
           id="path203" />
        <path
           d="m 162.91065,-161.63628 v -6.6675 h -20.0025 v 6.6675 h 6.6675 v 40.005 h 6.6675 v -40.005 z"
           style="font-size:63.5px;text-align:center;text-anchor:middle;stroke-width:0.07000434"
           id="path205" />
        <path
           d="m -62.481534,-72.69653 h -0.03387 c -1.016,0 -1.794933,-0.745067 -1.794933,-1.761067 l 0.03387,-7.382933 c 0.06773,-0.8128 0.880533,-1.524 1.761066,-1.524 1.016,0 1.761067,0.778933 1.761067,1.794933 l 0.03387,7.112 h 0.03387 c 0,0.982133 -0.8128,1.761067 -1.794933,1.761067 z m 5.317066,-1.761067 v -8.906933 c 0,-1.9304 -1.6256,-3.556 -3.555999,-3.556 -1.862667,0 -3.420534,1.456267 -3.556,3.2512 v -10.363199 h -3.556 v 19.574932 c 0,2.878667 2.269066,5.317066 5.317066,5.317066 3.048,0 5.350933,-2.472266 5.350933,-5.317066 z"
           style="font-size:33.86666489px;text-align:center;text-anchor:middle;stroke-width:0.07000434"
           id="path207" />
        <path
           d="m -48.59091,-72.69653 h -0.03387 c -1.016,0 -1.794933,-0.745067 -1.794933,-1.761067 v -1.794933 h 7.145866 v -5.317067 c 0,-2.946399 -2.404533,-5.350933 -5.350933,-5.350933 -2.912533,0 -5.317066,2.269067 -5.317066,5.350933 v 7.112 c 0,2.878667 2.269067,5.317066 5.317066,5.317066 3.048,0 5.350933,-2.472266 5.350933,-5.317066 h -3.522133 c 0,0.982133 -0.8128,1.761067 -1.794933,1.761067 z m 1.794933,-8.873067 v 1.761067 h -3.623733 v -1.761067 c 0,-1.016 0.778933,-1.794933 1.794933,-1.794933 h 0.03387 c 0.948267,0 1.794933,0.7112 1.794933,1.794933 z"
           style="font-size:33.86666489px;text-align:center;text-anchor:middle;stroke-width:0.07000434"
           id="path209" />
        <path
           d="m -34.403424,-83.36453 h 0.03387 c 0.948266,0 1.794933,0.7112 1.794933,1.794933 h 3.522133 c 0,-2.946399 -2.404533,-5.350933 -5.350933,-5.350933 -2.878667,0 -5.317066,2.3368 -5.317066,5.317067 v 0.03387 c 0,2.878667 2.269066,5.317067 5.317066,5.317067 h 0.03387 c 0.948266,0 1.794933,0.7112 1.794933,1.794933 0,0.982133 -0.8128,1.761067 -1.794933,1.761067 h -0.03387 c -1.016,0 -1.794933,-0.745067 -1.794933,-1.761067 h -3.522133 c 0,2.878667 2.269066,5.317066 5.317066,5.317066 3.048,0 5.350933,-2.472266 5.350933,-5.317066 0,-2.9464 -2.404533,-5.350933 -5.350933,-5.350933 -0.982133,0 -1.794933,-0.677333 -1.794933,-1.761067 h 0.03387 c 0,-0.9144 0.7112,-1.794933 1.761067,-1.794933 z"
           style="font-size:33.86666489px;text-align:center;text-anchor:middle;stroke-width:0.07000434"
           id="path211" />
        <path
           d="m -20.214349,-72.69653 h -0.03387 c -1.016,0 -1.794934,-0.745067 -1.794934,-1.761067 v -7.112 c 0,-1.016 0.778934,-1.794933 1.794934,-1.794933 h 0.03387 c 0.948267,0 1.794933,0.7112 1.794933,1.794933 h 3.522134 c 0,-2.946399 -2.404534,-5.350933 -5.350933,-5.350933 -2.912534,0 -5.317067,2.269067 -5.317067,5.350933 v 7.112 c 0,2.878667 2.269067,5.317066 5.317067,5.317066 3.047999,0 5.350933,-2.472266 5.350933,-5.317066 h -3.522134 c 0,0.982133 -0.8128,1.761067 -1.794933,1.761067 z"
           style="font-size:33.86666489px;text-align:center;text-anchor:middle;stroke-width:0.07000434"
           id="path213" />
        <path
           d="m -7.2926299,-83.36453 v -10.667999 h -3.5221331 v 24.891998 h 3.5559998 v -12.429066 c 0,-1.016 0.7450666,-1.794933 1.7610665,-1.794933 1.016,0 1.7610666,0.778933 1.7610666,1.794933 l 0.033867,12.429066 h 3.55599978 V -83.36453 c 0,-1.9304 -1.62559988,-3.556 -3.55599978,-3.556 -2.0319999,0 -3.5559998,1.659467 -3.5559998,3.556 z"
           style="font-size:33.86666489px;text-align:center;text-anchor:middle;stroke-width:0.07000434"
           id="path215" />
        <path
           d="m 8.955966,-72.69653 h -0.033867 c -1.0159999,0 -1.7949332,-0.745067 -1.7949332,-1.761067 v -1.794933 h 7.1458659 v -5.317067 c 0,-2.946399 -2.404533,-5.350933 -5.3509327,-5.350933 -2.9125332,0 -5.3170664,2.269067 -5.3170664,5.350933 v 7.112 c 0,2.878667 2.2690666,5.317066 5.3170664,5.317066 3.0479997,0 5.3509327,-2.472266 5.3509327,-5.317066 h -3.522133 c 0,0.982133 -0.8127997,1.761067 -1.794933,1.761067 z m 1.794933,-8.873067 v 1.761067 H 7.1271661 v -1.761067 c 0,-1.016 0.7789333,-1.794933 1.7949332,-1.794933 h 0.033867 c 0.9482666,0 1.794933,0.7112 1.794933,1.794933 z"
           style="font-size:33.86666489px;text-align:center;text-anchor:middle;stroke-width:0.07000434"
           id="path217" />
        <path
           d="m 21.348518,-83.36453 v -3.556 h -3.522133 v 17.779999 h 3.555999 v -12.429066 c 0,-1.016 0.745067,-1.794933 1.761067,-1.794933 1.016,0 1.761067,0.778933 1.761067,1.794933 h 3.589866 v -1.794933 c 0,-1.9304 -1.6256,-3.556 -3.556,-3.556 -2.032,0 -3.556,1.659467 -3.556,3.556 z"
           style="font-size:33.86666489px;text-align:center;text-anchor:middle;stroke-width:0.07000434"
           id="path219" />
        <path
           d="m 33.379649,-90.476529 v 3.555999 h -1.794933 v 3.556 h 1.794933 v 14.223999 h 3.522133 V -83.36453 h 1.794933 v -3.556 h -1.794933 v -7.111999 z"
           style="font-size:33.86666489px;text-align:center;text-anchor:middle;stroke-width:0.07000434"
           id="path221" />
        <path
           d="m 46.526797,-72.69653 h -0.03387 c -1.016,0 -1.794934,-0.745067 -1.794934,-1.761067 v -1.794933 h 7.145867 v -5.317067 c 0,-2.946399 -2.404534,-5.350933 -5.350933,-5.350933 -2.912534,0 -5.317067,2.269067 -5.317067,5.350933 v 7.112 c 0,2.878667 2.269067,5.317066 5.317067,5.317066 3.047999,0 5.350933,-2.472266 5.350933,-5.317066 h -3.522133 c 0,0.982133 -0.8128,1.761067 -1.794934,1.761067 z m 1.794934,-8.873067 v 1.761067 h -3.623734 v -1.761067 c 0,-1.016 0.778934,-1.794933 1.794934,-1.794933 h 0.03387 c 0.948267,0 1.794934,0.7112 1.794934,1.794933 z"
           style="font-size:33.86666489px;text-align:center;text-anchor:middle;stroke-width:0.07000434"
           id="path223" />
        <path
           d="m 73.936561,-69.140531 v -5.317066 -12.462933 -7.111999 h -3.556 v 10.667999 c 0,-1.862666 -1.557867,-3.556 -3.556,-3.556 -2.032,0 -3.556,1.659467 -3.556,3.556 v 8.906933 1.761067 c 0,2.031999 1.659467,3.555999 3.556,3.555999 1.896533,0 3.556,-1.6256 3.556,-3.555999 l 0.03387,3.555999 z m -3.556,-12.429066 0.03387,7.112 c -0.03387,1.016 -0.8128,1.761067 -1.8288,1.761067 -0.982134,0 -1.761067,-0.778934 -1.761067,-1.761067 v -7.112 c 0,-1.016 0.745067,-1.794933 1.761067,-1.794933 1.016,0 1.794933,0.778933 1.794933,1.794933 z"
           style="font-size:33.86666489px;text-align:center;text-anchor:middle;stroke-width:0.07000434"
           id="path225" />
        <path
           d="M 80.781333,-69.140531 V -86.92053 h -3.556 v 17.779999 z m 0,-19.541065 v -3.589867 h -3.556 v 3.589867 z"
           style="font-size:33.86666489px;text-align:center;text-anchor:middle;stroke-width:0.07000434"
           id="path227" />
        <path
           d="m 88.221954,-83.36453 v -3.556 h -3.522133 v 17.779999 h 3.555999 v -12.429066 c 0,-1.016 0.745067,-1.794933 1.761067,-1.794933 1.016,0 1.761066,0.778933 1.761066,1.794933 h 3.589867 v -1.794933 c 0,-1.9304 -1.6256,-3.556 -3.556,-3.556 -2.032,0 -3.556,1.659467 -3.556,3.556 z"
           style="font-size:33.86666489px;text-align:center;text-anchor:middle;stroke-width:0.07000434"
           id="path229" />
        <path
           d="m 111.68044,-72.69653 h -0.0339 c -1.016,0 -1.79493,-0.745067 -1.79493,-1.761067 v -1.794933 h 7.14586 v -5.317067 c 0,-2.946399 -2.40453,-5.350933 -5.35093,-5.350933 -2.91253,0 -5.31707,2.269067 -5.31707,5.350933 v 7.112 c 0,2.878667 2.26907,5.317066 5.31707,5.317066 3.048,0 5.35093,-2.472266 5.35093,-5.317066 h -3.52213 c 0,0.982133 -0.8128,1.761067 -1.79493,1.761067 z m 1.79493,-8.873067 v 1.761067 h -3.62373 v -1.761067 c 0,-1.016 0.77893,-1.794933 1.79493,-1.794933 h 0.0339 c 0.94826,0 1.79493,0.7112 1.79493,1.794933 z"
           style="font-size:33.86666489px;text-align:center;text-anchor:middle;stroke-width:0.07000434"
           id="path231" />
        <path
           d="M 124.10685,-69.140531 V -86.92053 h -3.556 v 17.779999 z m 0,-19.541065 v -3.589867 h -3.556 v 3.589867 z"
           style="font-size:33.86666489px;text-align:center;text-anchor:middle;stroke-width:0.07000434"
           id="path233" />
        <path
           d="m 131.54747,-83.36453 v -3.556 h -3.52213 v 17.779999 h 3.556 v -12.429066 c 0,-1.016 0.74506,-1.794933 1.76106,-1.794933 1.016,0 1.76107,0.778933 1.76107,1.794933 l 0.0339,12.429066 h 3.556 V -83.36453 c 0,-1.9304 -1.6256,-3.556 -3.556,-3.556 -2.032,0 -3.556,1.659467 -3.556,3.556 z"
           style="font-size:33.86666489px;text-align:center;text-anchor:middle;stroke-width:0.07000434"
           id="path235" />
        <path
           d="m 156.31565,-79.131197 -2.6416,-14.901332 h -3.556 l 4.43653,24.891998 h 3.556 l 4.43653,-24.891998 h -3.556 z"
           style="font-size:33.86666489px;text-align:center;text-anchor:middle;stroke-width:0.07000434"
           id="path237" />
        <path
           d="m 167.33237,-74.457597 v -7.112 c 0,-1.016 0.77893,-1.794933 1.79493,-1.794933 h 0.0339 c 0.94826,0 1.79493,0.7112 1.79493,1.794933 v 1.761067 4.2672 1.083733 c 0,0.982133 -0.8128,1.761067 -1.79493,1.761067 h -0.0339 c -1.016,0 -1.79493,-0.745067 -1.79493,-1.761067 z m -3.52214,-5.418666 v 5.418666 c 0,2.878667 2.26907,5.317066 5.31707,5.317066 3.048,0 5.35093,-2.472266 5.35093,-5.317066 v -7.112 c 0,-2.946399 -2.40453,-5.350933 -5.35093,-5.350933 -2.91253,0 -5.31707,2.269067 -5.31707,5.350933 z"
           style="font-size:33.86666489px;text-align:center;text-anchor:middle;stroke-width:0.07000434"
           id="path239" />
        <path
           d="m 181.323,-94.032529 h -3.556 v 24.891998 h 3.556 z"
           style="font-size:33.86666489px;text-align:center;text-anchor:middle;stroke-width:0.07000434"
           id="path241" />
        <path
           d="m 188.46674,-94.032529 h -3.556 v 24.891998 h 3.556 z"
           style="font-size:33.86666489px;text-align:center;text-anchor:middle;stroke-width:0.07000434"
           id="path243" />
        <path
           d="M 195.6105,-69.140531 V -86.92053 h -3.556 v 17.779999 z m 0,-19.541065 v -3.589867 h -3.556 v 3.589867 z"
           style="font-size:33.86666489px;text-align:center;text-anchor:middle;stroke-width:0.07000434"
           id="path245" />
        <path
           d="m 210.19698,-69.140531 v -5.317066 -12.462933 -7.111999 h -3.556 v 10.667999 c 0,-1.862666 -1.55786,-3.556 -3.556,-3.556 -2.032,0 -3.556,1.659467 -3.556,3.556 v 8.906933 1.761067 c 0,2.031999 1.65947,3.555999 3.556,3.555999 1.89654,0 3.556,-1.6256 3.556,-3.555999 l 0.0339,3.555999 z m -3.556,-12.429066 0.0339,7.112 c -0.0339,1.016 -0.8128,1.761067 -1.8288,1.761067 -0.98213,0 -1.76107,-0.778934 -1.76107,-1.761067 v -7.112 c 0,-1.016 0.74507,-1.794933 1.76107,-1.794933 1.016,0 1.79493,0.778933 1.79493,1.794933 z"
           style="font-size:33.86666489px;text-align:center;text-anchor:middle;stroke-width:0.07000434"
           id="path247" />
        <path
           d="M 217.04174,-69.140531 V -86.92053 h -3.556 v 17.779999 z m 0,-19.541065 v -3.589867 h -3.556 v 3.589867 z"
           style="font-size:33.86666489px;text-align:center;text-anchor:middle;stroke-width:0.07000434"
           id="path249" />
        <path
           d="m 224.48236,-74.457597 v -7.112 c 0,-1.016 0.77893,-1.794933 1.79493,-1.794933 h 0.0339 c 0.94827,0 1.79493,0.7112 1.79493,1.794933 v 1.761067 4.2672 1.083733 c 0,0.982133 -0.8128,1.761067 -1.79493,1.761067 h -0.0339 c -1.016,0 -1.79493,-0.745067 -1.79493,-1.761067 z m -3.52213,-5.418666 v 5.418666 c 0,2.878667 2.26906,5.317066 5.31706,5.317066 3.048,0 5.35094,-2.472266 5.35094,-5.317066 v -7.112 c 0,-2.946399 -2.40454,-5.350933 -5.35094,-5.350933 -2.91253,0 -5.31706,2.269067 -5.31706,5.350933 z"
           style="font-size:33.86666489px;text-align:center;text-anchor:middle;stroke-width:0.07000434"
           id="path251" />
        <path
           d="m 236.71192,-90.476529 v 3.555999 h -1.79494 v 3.556 h 1.79494 v 14.223999 h 3.52213 V -83.36453 h 1.79493 v -3.556 h -1.79493 v -7.111999 z"
           style="font-size:33.86666489px;text-align:center;text-anchor:middle;stroke-width:0.07000434"
           id="path253" />
      </g>
      <flowRoot
         xml:space="preserve"
         id="flowRoot98"
         style="fill:black;fill-opacity:1;stroke:none;font-family:PreussischeIV44Ausgabe3;font-style:normal;font-weight:normal;font-size:120px;line-height:1.25;letter-spacing:0px;word-spacing:0px;-inkscape-font-specification:PreussischeIV44Ausgabe3;font-stretch:normal;font-variant:normal"><flowRegion
           id="flowRegion100"><rect
             id="rect102"
             width="1000"
             height="1000"
             x="-400"
             y="-52.598427" /></flowRegion><flowPara
           id="flowPara104"></flowPara></flowRoot>      <path
         style="fill:#000000;stroke-width:0.27074429"
         d="M 151.18164 75.589844 L 151.18164 1511.8105 L 907.08594 1511.8105 L 907.08594 75.589844 L 151.18164 75.589844 z M 188.97656 113.38672 L 869.29102 113.38672 L 869.29102 1474.0156 L 188.97656 1474.0156 L 188.97656 113.38672 z "
         transform="matrix(0,-0.26458333,0.26458333,0,-123,0)"
         id="rect144" />
    </g>
  </g>
</svg>
