<?xml version="1.0" encoding="UTF-8" standalone="no"?>
<!-- Created with Inkscape (http://www.inkscape.org/) -->

<svg
   xmlns:dc="http://purl.org/dc/elements/1.1/"
   xmlns:cc="http://creativecommons.org/ns#"
   xmlns:rdf="http://www.w3.org/1999/02/22-rdf-syntax-ns#"
   xmlns:svg="http://www.w3.org/2000/svg"
   xmlns="http://www.w3.org/2000/svg"
   xmlns:sodipodi="http://sodipodi.sourceforge.net/DTD/sodipodi-0.dtd"
   xmlns:inkscape="http://www.inkscape.org/namespaces/inkscape"
   width="297mm"
   height="420mm"
   viewBox="0 0 297 420"
   version="1.1"
   id="svg8"
   inkscape:version="0.92.3 (2405546, 2018-03-11)"
   sodipodi:docname="zweiteile.svg"
   inkscape:export-filename="/home/housemeista/Dropbox/Fla/Stencilkram Inkscape/Vorlagen/schildabgelehnt.png"
   inkscape:export-xdpi="96"
   inkscape:export-ydpi="96">
  <defs
     id="defs2" />
  <sodipodi:namedview
     id="base"
     pagecolor="#ffffff"
     bordercolor="#666666"
     borderopacity="1.0"
     inkscape:pageopacity="0"
     inkscape:pageshadow="2"
     inkscape:zoom="0.37772166"
     inkscape:cx="906.91114"
     inkscape:cy="866.03457"
     inkscape:document-units="mm"
     inkscape:current-layer="text769"
     showgrid="true"
     inkscape:pagecheckerboard="true"
     inkscape:window-width="1920"
     inkscape:window-height="1031"
     inkscape:window-x="0"
     inkscape:window-y="25"
     inkscape:window-maximized="1"
     showguides="true"
     inkscape:guide-bbox="true">
    <inkscape:grid
       type="xygrid"
       id="grid3713" />
    <sodipodi:guide
       position="116.41667,211.66666"
       orientation="0,1"
       id="guide120"
       inkscape:locked="false" />
    <sodipodi:guide
       position="402.16668,359.83333"
       orientation="1,0"
       id="guide114"
       inkscape:locked="false" />
    <sodipodi:guide
       position="317.50001,296.33333"
       orientation="0,1"
       id="guide116"
       inkscape:locked="false" />
  </sodipodi:namedview>
  <metadata
     id="metadata5">
    <rdf:RDF>
      <cc:Work
         rdf:about="">
        <dc:format>image/svg+xml</dc:format>
        <dc:type
           rdf:resource="http://purl.org/dc/dcmitype/StillImage" />
        <dc:title></dc:title>
      </cc:Work>
    </rdf:RDF>
  </metadata>
  <g
     inkscape:label="Ebene 1"
     inkscape:groupmode="layer"
     id="layer1"
     transform="translate(0,123)">
    <g
       aria-label="Quest module"
       transform="rotate(90)"
       style="font-style:normal;font-variant:normal;font-weight:normal;font-stretch:normal;font-size:31.75px;line-height:1.25;font-family:Orbitron;-inkscape-font-specification:Orbitron;letter-spacing:0px;word-spacing:0px;fill:#000000;fill-opacity:1;stroke:none;stroke-width:0.26458332"
       id="text769">
      <flowRoot
         xml:space="preserve"
         id="flowRoot98"
         style="fill:black;fill-opacity:1;stroke:none;font-family:PreussischeIV44Ausgabe3;font-style:normal;font-weight:normal;font-size:120px;line-height:1.25;letter-spacing:0px;word-spacing:0px;-inkscape-font-specification:PreussischeIV44Ausgabe3;font-stretch:normal;font-variant:normal"><flowRegion
           id="flowRegion100"><rect
             id="rect102"
             width="1000"
             height="1000"
             x="-400"
             y="-52.598427" /></flowRegion><flowPara
           id="flowPara104" /></flowRoot>      <path
         style="fill:#000000;stroke-width:0.27074429"
         d="M 151.18164 75.589844 L 151.18164 1511.8105 L 907.08594 1511.8105 L 907.08594 75.589844 L 151.18164 75.589844 z M 188.97656 113.38672 L 869.29102 113.38672 L 869.29102 1474.0156 L 188.97656 1474.0156 L 188.97656 113.38672 z "
         transform="matrix(0,-0.26458333,0.26458333,0,-123,0)"
         id="rect144" />
      <g
         aria-label="Bitte nur zwei Teile 
in der Kabine nehmen"
         style="font-style:normal;font-variant:normal;font-weight:normal;font-stretch:normal;font-size:31.75px;line-height:1.25;font-family:PreussischeIV44Ausgabe3;-inkscape-font-specification:PreussischeIV44Ausgabe3;letter-spacing:0px;word-spacing:0px;fill:#000000;fill-opacity:1;stroke:none;stroke-width:0.07000434"
         id="text81">
        <path
           d="m -57.648673,-181.68014 h -2.243667 v 31.115 h 6.646333 c 3.81,0 6.688667,-3.09033 6.688667,-6.64633 v -4.48734 c 0,-1.651 -0.550334,-3.09033 -1.693333,-4.40266 1.142999,-1.31234 1.693333,-2.794 1.693333,-4.48734 v -4.40266 c 0,-3.683 -3.005667,-6.68867 -6.688667,-6.68867 h -2.201333 z m 6.688666,19.98133 v 4.48734 c 0,1.143 -1.651,2.20133 -2.243666,2.20133 h -0.254 0.211666 -2.201333 v -8.89 h 2.201333 -0.211666 0.254 c 0.423333,0 2.243666,1.05833 2.243666,2.20133 z m 0,-13.29266 v 4.40266 c 0,1.18534 -1.651,2.24367 -2.243666,2.24367 h -0.254 0.211666 -2.201333 v -8.89 h 2.201333 -0.211666 0.254 c 0.592666,0 2.243666,1.05833 2.243666,2.24367 z"
           style="font-size:42.33333206px;text-align:center;text-anchor:middle;stroke-width:0.07000434"
           id="path85" />
        <path
           d="m -37.918695,-150.56514 v -22.225 h -4.445 v 22.225 z m 0,-24.42633 v -4.48734 h -4.445 v 4.48734 z"
           style="font-size:42.33333206px;text-align:center;text-anchor:middle;stroke-width:0.07000434"
           id="path87" />
        <path
           d="m -30.776931,-177.23514 v 4.445 h -2.243667 v 4.445 h 2.243667 v 17.78 h 4.402667 v -17.78 h 2.243666 v -4.445 h -2.243666 v -8.89 z"
           style="font-size:42.33333206px;text-align:center;text-anchor:middle;stroke-width:0.07000434"
           id="path89" />
        <path
           d="m -20.607009,-177.23514 v 4.445 h -2.243667 v 4.445 h 2.243667 v 17.78 h 4.402666 v -17.78 h 2.243667 v -4.445 h -2.243667 v -8.89 z"
           style="font-size:42.33333206px;text-align:center;text-anchor:middle;stroke-width:0.07000434"
           id="path91" />
        <path
           d="m -4.1730757,-155.01014 h -0.042333 c -1.2699999,0 -2.2436666,-0.93133 -2.2436666,-2.20133 v -2.24367 h 8.9323331 v -6.64633 c 0,-3.683 -3.0056666,-6.68867 -6.6886665,-6.68867 -3.6406665,0 -6.646333,2.83633 -6.646333,6.68867 v 8.89 c 0,3.59833 2.8363331,6.64633 6.646333,6.64633 3.8099999,0 6.6886665,-3.09033 6.6886665,-6.64633 h -4.4026666 c 0,1.22766 -1.0159999,2.20133 -2.2436666,2.20133 z m 2.2436666,-11.09133 v 2.20133 h -4.5296665 v -2.20133 c 0,-1.27 0.9736667,-2.24367 2.2436666,-2.24367 h 0.042333 c 1.1853333,0 2.2436666,0.889 2.2436666,2.24367 z"
           style="font-size:42.33333206px;text-align:center;text-anchor:middle;stroke-width:0.07000434"
           id="path93" />
        <path
           d="m 21.156811,-168.34514 v -4.445 h -4.402666 v 22.225 h 4.444999 v -15.53633 c 0,-1.27 0.931334,-2.24367 2.201334,-2.24367 1.27,0 2.201333,0.97367 2.201333,2.24367 l 0.04233,15.53633 h 4.445 v -17.78 c 0,-2.413 -2.032,-4.445 -4.445,-4.445 -2.54,0 -4.445,2.07433 -4.445,4.445 z"
           style="font-size:42.33333206px;text-align:center;text-anchor:middle;stroke-width:0.07000434"
           id="path95" />
        <path
           d="m 43.463165,-155.01014 v 4.445 h 4.402667 v -22.225 h -4.487333 l 0.04233,15.57867 c 0,1.27 -0.973667,2.20133 -2.243667,2.20133 -1.227666,0 -2.201333,-0.97367 -2.201333,-2.20133 v -15.57867 h -4.445 v 17.78 c 0,2.54 2.074333,4.445 4.445,4.445 2.413,0 4.445,-2.032 4.445,-4.445 z"
           style="font-size:42.33333206px;text-align:center;text-anchor:middle;stroke-width:0.07000434"
           id="path97" />
        <path
           d="m 56.37946,-168.34514 v -4.445 h -4.402667 v 22.225 h 4.445 v -15.53633 c 0,-1.27 0.931333,-2.24367 2.201333,-2.24367 1.27,0 2.201334,0.97367 2.201334,2.24367 h 4.487333 v -2.24367 c 0,-2.413 -2.032,-4.445 -4.445,-4.445 -2.54,0 -4.445,2.07433 -4.445,4.445 z"
           style="font-size:42.33333206px;text-align:center;text-anchor:middle;stroke-width:0.07000434"
           id="path99" />
        <path
           d="m 92.34891,-155.01014 h -8.89 l 8.89,-13.335 v -4.445 h -13.335 v 4.445 h 8.847667 l -8.847667,13.335 v 4.445 h 13.335 z"
           style="font-size:42.33333206px;text-align:center;text-anchor:middle;stroke-width:0.07000434"
           id="path101" />
        <path
           d="m 102.94084,-161.78347 -2.20134,-11.00667 h -4.444996 l 4.444996,22.098 -0.0423,0.127 h 4.445 0.0847 l -0.0423,-0.127 2.24367,-11.049 2.20133,11.176 h 4.48734 l 4.40266,-22.225 h -4.445 l -2.24366,11.00667 -2.20134,-11.00667 h -4.48733 z"
           style="font-size:42.33333206px;text-align:center;text-anchor:middle;stroke-width:0.07000434"
           id="path103" />
        <path
           d="m 127.87053,-155.01014 h -0.0423 c -1.27,0 -2.24367,-0.93133 -2.24367,-2.20133 v -2.24367 h 8.93233 v -6.64633 c 0,-3.683 -3.00566,-6.68867 -6.68866,-6.68867 -3.64067,0 -6.64634,2.83633 -6.64634,6.68867 v 8.89 c 0,3.59833 2.83634,6.64633 6.64634,6.64633 3.81,0 6.68866,-3.09033 6.68866,-6.64633 h -4.40266 c 0,1.22766 -1.016,2.20133 -2.24367,2.20133 z m 2.24367,-11.09133 v 2.20133 h -4.52967 v -2.20133 c 0,-1.27 0.97367,-2.24367 2.24367,-2.24367 h 0.0423 c 1.18533,0 2.24367,0.889 2.24367,2.24367 z"
           style="font-size:42.33333206px;text-align:center;text-anchor:middle;stroke-width:0.07000434"
           id="path105" />
        <path
           d="m 143.40357,-150.56514 v -22.225 h -4.445 v 22.225 z m 0,-24.42633 v -4.48734 h -4.445 v 4.48734 z"
           style="font-size:42.33333206px;text-align:center;text-anchor:middle;stroke-width:0.07000434"
           id="path107" />
        <path
           d="m 171.47585,-177.23514 v -4.445 h -13.335 v 4.445 h 4.445 v 26.67 h 4.445 v -26.67 z"
           style="font-size:42.33333206px;text-align:center;text-anchor:middle;stroke-width:0.07000434"
           id="path109" />
        <path
           d="m 182.60622,-155.01014 h -0.0423 c -1.27,0 -2.24366,-0.93133 -2.24366,-2.20133 v -2.24367 h 8.93233 v -6.64633 c 0,-3.683 -3.00567,-6.68867 -6.68867,-6.68867 -3.64066,0 -6.64633,2.83633 -6.64633,6.68867 v 8.89 c 0,3.59833 2.83633,6.64633 6.64633,6.64633 3.81,0 6.68867,-3.09033 6.68867,-6.64633 h -4.40267 c 0,1.22766 -1.016,2.20133 -2.24366,2.20133 z m 2.24366,-11.09133 v 2.20133 h -4.52966 v -2.20133 c 0,-1.27 0.97366,-2.24367 2.24366,-2.24367 h 0.0423 c 1.18533,0 2.24366,0.889 2.24366,2.24367 z"
           style="font-size:42.33333206px;text-align:center;text-anchor:middle;stroke-width:0.07000434"
           id="path111" />
        <path
           d="m 198.13924,-150.56514 v -22.225 h -4.445 v 22.225 z m 0,-24.42633 v -4.48734 h -4.445 v 4.48734 z"
           style="font-size:42.33333206px;text-align:center;text-anchor:middle;stroke-width:0.07000434"
           id="path113" />
        <path
           d="m 207.48235,-181.68014 h -4.445 v 31.115 h 4.445 z"
           style="font-size:42.33333206px;text-align:center;text-anchor:middle;stroke-width:0.07000434"
           id="path115" />
        <path
           d="m 218.6557,-155.01014 h -0.0423 c -1.27,0 -2.24367,-0.93133 -2.24367,-2.20133 v -2.24367 h 8.93233 v -6.64633 c 0,-3.683 -3.00566,-6.68867 -6.68866,-6.68867 -3.64067,0 -6.64633,2.83633 -6.64633,6.68867 v 8.89 c 0,3.59833 2.83633,6.64633 6.64633,6.64633 3.81,0 6.68866,-3.09033 6.68866,-6.64633 h -4.40266 c 0,1.22766 -1.016,2.20133 -2.24367,2.20133 z m 2.24367,-11.09133 v 2.20133 h -4.52967 v -2.20133 c 0,-1.27 0.97367,-2.24367 2.24367,-2.24367 h 0.0423 c 1.18533,0 2.24367,0.889 2.24367,2.24367 z"
           style="font-size:42.33333206px;text-align:center;text-anchor:middle;stroke-width:0.07000434"
           id="path117" />
        <path
           d="m -71.446363,-97.648475 v -22.224995 h -4.445 v 22.224995 z m 0,-24.426335 v -4.48733 h -4.445 v 4.48733 z"
           style="font-size:42.33333206px;text-align:center;text-anchor:middle;stroke-width:0.07000434"
           id="path119" />
        <path
           d="m -62.145598,-115.42847 v -4.445 h -4.402666 v 22.224995 h 4.445 v -15.536335 c 0,-1.27 0.931333,-2.24366 2.201333,-2.24366 1.27,0 2.201333,0.97366 2.201333,2.24366 l 0.04233,15.536335 h 4.444999 v -17.779995 c 0,-2.413 -2.031999,-4.445 -4.444999,-4.445 -2.54,0 -4.445,2.07433 -4.445,4.445 z"
           style="font-size:42.33333206px;text-align:center;text-anchor:middle;stroke-width:0.07000434"
           id="path121" />
        <path
           d="m -25.597379,-97.648475 v -6.646335 -15.57866 -8.89 h -4.445 v 13.335 c 0,-2.32834 -1.947333,-4.445 -4.445,-4.445 -2.539999,0 -4.444999,2.07433 -4.444999,4.445 v 11.13366 2.20134 c 0,2.539995 2.074333,4.444995 4.444999,4.444995 2.370667,0 4.445,-2.032 4.445,-4.444995 l 0.04233,4.444995 z m -4.445,-15.536335 0.04233,8.89 c -0.04233,1.27 -1.016,2.20134 -2.286,2.20134 -1.227667,0 -2.201334,-0.97367 -2.201334,-2.20134 v -8.89 c 0,-1.27 0.931334,-2.24366 2.201334,-2.24366 1.27,0 2.243666,0.97366 2.243666,2.24366 z"
           style="font-size:42.33333206px;text-align:center;text-anchor:middle;stroke-width:0.07000434"
           id="path123" />
        <path
           d="m -14.797751,-102.09347 h -0.04233 c -1.27,0 -2.243667,-0.93134 -2.243667,-2.20134 v -2.24366 h 8.9323332 v -6.64634 c 0,-3.683 -3.0056662,-6.68866 -6.6886662,-6.68866 -3.640667,0 -6.646333,2.83633 -6.646333,6.68866 v 8.89 c 0,3.59834 2.836333,6.646335 6.646333,6.646335 3.81,0 6.6886662,-3.090335 6.6886662,-6.646335 h -4.4026662 c 0,1.22767 -1.016,2.20134 -2.243667,2.20134 z m 2.243667,-11.09134 v 2.20134 h -4.529667 v -2.20134 c 0,-1.27 0.973667,-2.24366 2.243667,-2.24366 h 0.04233 c 1.185333,0 2.243667,0.889 2.243667,2.24366 z"
           style="font-size:42.33333206px;text-align:center;text-anchor:middle;stroke-width:0.07000434"
           id="path125" />
        <path
           d="m 0.6929444,-115.42847 v -4.445 h -4.4026665 v 22.224995 h 4.44499983 v -15.536335 c 0,-1.27 0.93133327,-2.24366 2.20133327,-2.24366 1.27,0 2.2013333,0.97366 2.2013333,2.24366 h 4.4873332 v -2.24366 c 0,-2.413 -2.032,-4.445 -4.4449999,-4.445 -2.5399999,0 -4.44499987,2.07433 -4.44499987,4.445 z"
           style="font-size:42.33333206px;text-align:center;text-anchor:middle;stroke-width:0.07000434"
           id="path127" />
        <path
           d="m 27.772379,-115.55547 v -13.208 H 23.32738 v 31.114995 h 4.444999 v -13.207995 l 4.445,13.207995 h 4.445 l -5.249333,-15.536335 5.249333,-15.57866 h -4.445 z"
           style="font-size:42.33333206px;text-align:center;text-anchor:middle;stroke-width:0.07000434"
           id="path129" />
        <path
           d="m 49.374947,-97.648475 h 4.402667 v -15.536335 c 0,-3.683 -3.005667,-6.68866 -6.688667,-6.68866 -3.556,0 -6.646333,2.87866 -6.646333,6.68866 h 4.445 c 0,-1.27 0.931333,-2.24366 2.201333,-2.24366 h 0.04233 c 1.185334,0 2.243667,0.889 2.243667,2.24366 0,1.22767 -1.016,2.20134 -2.243667,2.20134 h -0.04233 c -3.556,0 -6.646333,2.87866 -6.646333,6.68866 v 2.20134 c 0,2.539995 2.074333,4.444995 4.445,4.444995 2.413,0 4.445,-2.032 4.445,-4.444995 h 0.04233 z m 0,-9.270995 v 2.62466 c 0,1.27 -1.058333,2.20134 -2.286,2.20134 -1.227667,0 -2.201333,-0.97367 -2.201333,-2.20134 0,-2.62466 2.455333,-1.94733 4.487333,-2.62466 z"
           style="font-size:42.33333206px;text-align:center;text-anchor:middle;stroke-width:0.07000434"
           id="path131" />
        <path
           d="m 64.494569,-102.09347 h -0.04233 c -1.27,0 -2.243667,-0.93134 -2.243667,-2.20134 l 0.04233,-9.22866 c 0.08467,-1.016 1.100666,-1.905 2.201333,-1.905 1.27,0 2.201333,0.97366 2.201333,2.24366 l 0.04233,8.89 h 0.04233 c 0,1.22767 -1.016,2.20134 -2.243667,2.20134 z m 6.646333,-2.20134 v -11.13366 c 0,-2.413 -2.031999,-4.445 -4.444999,-4.445 -2.328334,0 -4.275667,1.82033 -4.445,4.064 v -12.954 h -4.445 v 24.46866 c 0,3.59834 2.836333,6.646335 6.646333,6.646335 3.81,0 6.688666,-3.090335 6.688666,-6.646335 z"
           style="font-size:42.33333206px;text-align:center;text-anchor:middle;stroke-width:0.07000434"
           id="path133" />
        <path
           d="m 79.614184,-97.648475 v -22.224995 h -4.445 v 22.224995 z m 0,-24.426335 v -4.48733 h -4.445 v 4.48733 z"
           style="font-size:42.33333206px;text-align:center;text-anchor:middle;stroke-width:0.07000434"
           id="path135" />
        <path
           d="m 88.914945,-115.42847 v -4.445 h -4.402667 v 22.224995 h 4.445 v -15.536335 c 0,-1.27 0.931333,-2.24366 2.201333,-2.24366 1.27,0 2.201333,0.97366 2.201333,2.24366 l 0.04233,15.536335 h 4.445 v -17.779995 c 0,-2.413 -2.032,-4.445 -4.445,-4.445 -2.54,0 -4.445,2.07433 -4.445,4.445 z"
           style="font-size:42.33333206px;text-align:center;text-anchor:middle;stroke-width:0.07000434"
           id="path137" />
        <path
           d="m 108.97763,-102.09347 h -0.0423 c -1.27,0 -2.24367,-0.93134 -2.24367,-2.20134 v -2.24366 h 8.93234 v -6.64634 c 0,-3.683 -3.00567,-6.68866 -6.68867,-6.68866 -3.64067,0 -6.64633,2.83633 -6.64633,6.68866 v 8.89 c 0,3.59834 2.83633,6.646335 6.64633,6.646335 3.81,0 6.68867,-3.090335 6.68867,-6.646335 h -4.40267 c 0,1.22767 -1.016,2.20134 -2.24367,2.20134 z m 2.24367,-11.09134 v 2.20134 h -4.52967 v -2.20134 c 0,-1.27 0.97367,-2.24366 2.24367,-2.24366 h 0.0423 c 1.18534,0 2.24367,0.889 2.24367,2.24366 z"
           style="font-size:42.33333206px;text-align:center;text-anchor:middle;stroke-width:0.07000434"
           id="path139" />
        <path
           d="m 134.30752,-115.42847 v -4.445 h -4.40266 v 22.224995 h 4.445 v -15.536335 c 0,-1.27 0.93133,-2.24366 2.20133,-2.24366 1.27,0 2.20133,0.97366 2.20133,2.24366 l 0.0423,15.536335 h 4.445 v -17.779995 c 0,-2.413 -2.032,-4.445 -4.445,-4.445 -2.54,0 -4.445,2.07433 -4.445,4.445 z"
           style="font-size:42.33333206px;text-align:center;text-anchor:middle;stroke-width:0.07000434"
           id="path141" />
        <path
           d="m 154.37021,-102.09347 h -0.0423 c -1.27,0 -2.24367,-0.93134 -2.24367,-2.20134 v -2.24366 h 8.93233 v -6.64634 c 0,-3.683 -3.00566,-6.68866 -6.68866,-6.68866 -3.64067,0 -6.64634,2.83633 -6.64634,6.68866 v 8.89 c 0,3.59834 2.83634,6.646335 6.64634,6.646335 3.81,0 6.68866,-3.090335 6.68866,-6.646335 h -4.40266 c 0,1.22767 -1.016,2.20134 -2.24367,2.20134 z m 2.24367,-11.09134 v 2.20134 h -4.52967 v -2.20134 c 0,-1.27 0.97367,-2.24366 2.24367,-2.24366 h 0.0423 c 1.18533,0 2.24367,0.889 2.24367,2.24366 z"
           style="font-size:42.33333206px;text-align:center;text-anchor:middle;stroke-width:0.07000434"
           id="path143" />
        <path
           d="m 169.8609,-115.42847 v -13.335 h -4.40267 v 31.114995 h 4.445 v -15.536335 c 0,-1.27 0.93133,-2.24366 2.20133,-2.24366 1.27,0 2.20134,0.97366 2.20134,2.24366 l 0.0423,15.536335 h 4.445 v -17.779995 c 0,-2.413 -2.032,-4.445 -4.445,-4.445 -2.54,0 -4.445,2.07433 -4.445,4.445 z"
           style="font-size:42.33333206px;text-align:center;text-anchor:middle;stroke-width:0.07000434"
           id="path145" />
        <path
           d="m 187.88563,-115.42847 v -4.445 h -4.40266 v 22.224995 h 4.445 v -15.536335 c 0,-1.27 0.93133,-2.24366 2.20133,-2.24366 1.27,0 2.20133,0.97366 2.20133,2.24366 l 0.0847,15.536335 h 4.445 v -15.536335 c 0,-1.27 0.93133,-2.24366 2.20133,-2.24366 1.18534,0 2.24367,0.889 2.24367,2.24366 v 15.536335 h 4.445 v -17.779995 c 0,-2.20134 -1.905,-4.445 -4.445,-4.445 -2.58233,0 -4.445,2.24366 -4.445,4.445 h -0.0423 c 0,-2.413 -2.032,-4.445 -4.445,-4.445 -2.54,0 -4.445,2.07433 -4.445,4.445 z"
           style="font-size:42.33333206px;text-align:center;text-anchor:middle;stroke-width:0.07000434"
           id="path147" />
        <path
           d="m 216.87802,-102.09347 h -0.0423 c -1.27,0 -2.24367,-0.93134 -2.24367,-2.20134 v -2.24366 h 8.93234 v -6.64634 c 0,-3.683 -3.00567,-6.68866 -6.68867,-6.68866 -3.64067,0 -6.64633,2.83633 -6.64633,6.68866 v 8.89 c 0,3.59834 2.83633,6.646335 6.64633,6.646335 3.81,0 6.68867,-3.090335 6.68867,-6.646335 h -4.40267 c 0,1.22767 -1.016,2.20134 -2.24367,2.20134 z m 2.24367,-11.09134 v 2.20134 h -4.52967 v -2.20134 c 0,-1.27 0.97367,-2.24366 2.24367,-2.24366 h 0.0423 c 1.18534,0 2.24367,0.889 2.24367,2.24366 z"
           style="font-size:42.33333206px;text-align:center;text-anchor:middle;stroke-width:0.07000434"
           id="path149" />
        <path
           d="m 232.36873,-115.42847 v -4.445 h -4.40267 v 22.224995 h 4.445 v -15.536335 c 0,-1.27 0.93133,-2.24366 2.20133,-2.24366 1.27,0 2.20134,0.97366 2.20134,2.24366 l 0.0423,15.536335 h 4.445 v -17.779995 c 0,-2.413 -2.032,-4.445 -4.445,-4.445 -2.54,0 -4.445,2.07433 -4.445,4.445 z"
           style="font-size:42.33333206px;text-align:center;text-anchor:middle;stroke-width:0.07000434"
           id="path151" />
      </g>
    </g>
  </g>
</svg>
