<?xml version="1.0" encoding="UTF-8" standalone="no"?>
<!-- Created with Inkscape (http://www.inkscape.org/) -->

<svg
   inkscape:export-ydpi="96"
   inkscape:export-xdpi="96"
   inkscape:export-filename="/home/housemeista/Dropbox/Fla/Stencilkram Inkscape/Vorlagen/schildcyber.png"
   sodipodi:docname="Aurebesh_A_H_pfad.svg"
   inkscape:version="1.1.2 (1:1.1+202202050950+0a00cf5339)"
   id="svg8"
   version="1.1"
   viewBox="0 0 297 420"
   height="420mm"
   width="297mm"
   xmlns:inkscape="http://www.inkscape.org/namespaces/inkscape"
   xmlns:sodipodi="http://sodipodi.sourceforge.net/DTD/sodipodi-0.dtd"
   xmlns="http://www.w3.org/2000/svg"
   xmlns:svg="http://www.w3.org/2000/svg"
   xmlns:rdf="http://www.w3.org/1999/02/22-rdf-syntax-ns#"
   xmlns:cc="http://creativecommons.org/ns#"
   xmlns:dc="http://purl.org/dc/elements/1.1/">
  <defs
     id="defs2" />
  <sodipodi:namedview
     id="base"
     pagecolor="#ffffff"
     bordercolor="#666666"
     borderopacity="1.0"
     inkscape:pageopacity="0"
     inkscape:pageshadow="2"
     inkscape:zoom="0.49497476"
     inkscape:cx="416.18284"
     inkscape:cy="754.58393"
     inkscape:document-units="mm"
     inkscape:current-layer="text5815-5"
     showgrid="true"
     inkscape:pagecheckerboard="true"
     inkscape:window-width="1920"
     inkscape:window-height="1032"
     inkscape:window-x="0"
     inkscape:window-y="24"
     inkscape:window-maximized="1"
     showguides="true"
     inkscape:guide-bbox="true">
    <inkscape:grid
       type="xygrid"
       id="grid3713" />
    <sodipodi:guide
       position="158.75,210"
       orientation="0,1"
       id="guide21"
       inkscape:locked="false"
       inkscape:label=""
       inkscape:color="rgb(0,0,255)" />
    <sodipodi:guide
       position="30,285"
       orientation="1,0"
       id="guide23"
       inkscape:locked="false"
       inkscape:label=""
       inkscape:color="rgb(0,0,255)" />
    <sodipodi:guide
       position="201.08334,315"
       orientation="0,1"
       id="guide25"
       inkscape:locked="false"
       inkscape:label=""
       inkscape:color="rgb(0,0,255)" />
    <sodipodi:guide
       position="312.20833,105"
       orientation="0,1"
       id="guide27"
       inkscape:locked="false"
       inkscape:label=""
       inkscape:color="rgb(0,0,255)" />
    <sodipodi:guide
       position="148,269.87499"
       orientation="1,0"
       id="guide51"
       inkscape:locked="false"
       inkscape:label=""
       inkscape:color="rgb(0,0,255)" />
    <sodipodi:guide
       position="178,341.31249"
       orientation="1,0"
       id="guide141"
       inkscape:locked="false"
       inkscape:label=""
       inkscape:color="rgb(0,0,255)" />
    <sodipodi:guide
       position="118,359.83333"
       orientation="1,0"
       id="guide143"
       inkscape:locked="false"
       inkscape:label=""
       inkscape:color="rgb(0,0,255)" />
    <sodipodi:guide
       position="63.500002,399.52082"
       orientation="0,1"
       id="guide145"
       inkscape:locked="false" />
    <sodipodi:guide
       position="193.14584,303.58333"
       orientation="1,0"
       id="guide24447" />
    <sodipodi:guide
       position="103.1875,364.43749"
       orientation="1,0"
       id="guide31500" />
  </sodipodi:namedview>
  <metadata
     id="metadata5">
    <rdf:RDF>
      <cc:Work
         rdf:about="">
        <dc:format>image/svg+xml</dc:format>
        <dc:type
           rdf:resource="http://purl.org/dc/dcmitype/StillImage" />
      </cc:Work>
    </rdf:RDF>
  </metadata>
  <g
     inkscape:label="Ebene 1"
     inkscape:groupmode="layer"
     id="layer1"
     transform="translate(0, 123)">
    <g
       aria-label="l"
       transform="matrix(6.12323e-17 1 -1 6.12323e-17 -145.763 -306.463)"
       id="text5815-5"
       style="font-weight:bold;font-size:74.0833px;line-height:1.25;font-family:Aurebesh;-inkscape-font-specification:'Aurebesh Bold';letter-spacing:0px;word-spacing:0px;stroke-width:0.264583">
      <g
         aria-label="a"
         id="text5815">
        <path
           d="m 212.096,-369.0498 v -24.05537 h 9.04337 v 15.37373 h 31.36241 l 14.3247,-15.37373 h 11.28613 l -22.42756,24.05537 z m 43.58905,5.78776 22.42756,24.05536 h -11.28613 l -14.3247,-15.37373 h -31.36241 v 15.37373 H 212.096 v -24.05536 z"
           id="path19070" />
      </g>
      <g
         aria-label="b"
         id="text5815-2">
        <path
           d="m 359.51986,-369.96027 v 8.68163 h -43.40818 v -8.68163 z m -36.20966,-13.92679 -7.66878,8.13903 H 304.3553 l 15.84398,-16.82067 h 35.23298 l 15.84398,16.82067 h -11.28612 l -7.66878,-8.13903 z m -3.11092,45.21685 -15.84398,-16.82067 h 11.28612 l 7.66878,8.13904 h 29.01114 l 7.66878,-8.13904 h 11.28612 l -15.84398,16.82067 z"
           id="path20362" />
      </g>
      <g
         aria-label="c"
         id="text5815-9"
         transform="translate(-1.05034, -1.15264)">
        <path
           d="m 454.38834,-374.00204 v 17.72501 h -9.04338 v -17.72501 z m -14.4694,-18.08674 v 35.81175 h -9.04337 v -35.81175 z m 28.93879,18.08674 v 35.81175 h -9.04337 v -35.81175 z"
           id="path23549" />
      </g>
      <g
         aria-label="d"
         id="text5815-1">
        <path
           d="m 555.47594,-370.92817 9.47745,-13.92679 -40.98456,-0.0362 v -8.64547 h 52.45156 v 8.13904 l -15.51843,22.82547 -15.59077,22.93399 h -11.10526 l 15.37373,-22.60843 h -18.37613 v -8.68164 z"
           id="path24598" />
      </g>
      <g
         aria-label="e"
         id="text5815-7"
         transform="translate(-5.29167, -17.4625)">
        <path
           d="m 259.76733,-223.16519 -15.59077,45.21686 H 233.7586 l -17.65266,-53.89849 h 9.98388 l 12.87776,39.2844 12.87776,-39.2844 h 24.20006 v 8.68163 h -7.23469 v 45.21686 h -9.04338 z"
           id="path25710" />
      </g>
      <g
         aria-label="g"
         id="text5815-26"
         transform="translate(103.857, -0.10128)">
        <path
           d="m 307.06884,-194.95072 v -53.8985 h 9.04337 v 45.21686 h 27.02159 l 16.38659,-36.53522 H 330.5816 v 7.2347 h -9.04337 v -7.95817 l -0.0362,-7.95817 h 52.84946 l -24.12771,53.8985 z"
           id="path39959" />
      </g>
      <g
         aria-label="h"
         id="text5815-18">
        <path
           d="m 527.33768,-226.49862 h 37.98216 v 8.68164 h -37.98216 z m 45.21686,22.60843 v 8.68164 h -52.45155 v -8.68164 z m -52.45155,-36.53522 v -8.68164 h 52.45155 v 8.68164 z"
           id="path7668" />
      </g>
      <path
         id="path7348"
         style="stroke-width:0.264583"
         d="M 186.28906 474.29688 L 186.28906 699.88281 L 219.10156 699.88281 L 219.10156 604.17969 L 279.94141 604.17969 C 289.5117 643.19008 309.06251 675.09115 338.59375 699.88281 L 382.75391 699.88281 C 347.11591 670.98961 324.32942 639.08854 314.39453 604.17969 L 390 604.17969 L 390 570 L 325 570 L 307.14844 570 L 273.78906 570 L 260 570 L 219.10156 570 L 219.10156 508.47656 L 271.73828 508.47656 L 271.73828 532.40234 C 271.73828 542.61487 272.08148 551.79889 272.75195 560 L 305.86328 560 C 304.99478 551.5951 304.55078 542.4071 304.55078 532.40234 L 304.55078 474.29688 L 186.28906 474.29688 z "
         transform="matrix(0 -0.264583 0.264583 0 183.463 -145.763)" />
    </g>
  </g>
</svg>
