<?xml version="1.0" encoding="UTF-8" standalone="no"?>
<!-- Created with Inkscape (http://www.inkscape.org/) -->

<svg
   width="297mm"
   height="420mm"
   viewBox="0 0 297 420"
   version="1.1"
   id="svg8"
   inkscape:version="1.1.2 (1:1.1+202202050950+0a00cf5339)"
   sodipodi:docname="Aurebesh_bis_X_pfad.svg"
   inkscape:export-filename="/home/housemeista/Dropbox/Fla/Stencilkram Inkscape/Vorlagen/schildcyber.png"
   inkscape:export-xdpi="96"
   inkscape:export-ydpi="96"
   xmlns:inkscape="http://www.inkscape.org/namespaces/inkscape"
   xmlns:sodipodi="http://sodipodi.sourceforge.net/DTD/sodipodi-0.dtd"
   xmlns="http://www.w3.org/2000/svg"
   xmlns:svg="http://www.w3.org/2000/svg"
   xmlns:rdf="http://www.w3.org/1999/02/22-rdf-syntax-ns#"
   xmlns:cc="http://creativecommons.org/ns#"
   xmlns:dc="http://purl.org/dc/elements/1.1/">
  <defs
     id="defs2" />
  <sodipodi:namedview
     id="base"
     pagecolor="#ffffff"
     bordercolor="#666666"
     borderopacity="1.0"
     inkscape:pageopacity="0"
     inkscape:pageshadow="2"
     inkscape:zoom="0.24748738"
     inkscape:cx="-50.507626"
     inkscape:cy="1165.716"
     inkscape:document-units="mm"
     inkscape:current-layer="layer1"
     showgrid="true"
     inkscape:pagecheckerboard="true"
     inkscape:window-width="1920"
     inkscape:window-height="1032"
     inkscape:window-x="0"
     inkscape:window-y="24"
     inkscape:window-maximized="1"
     showguides="true"
     inkscape:guide-bbox="true">
    <inkscape:grid
       type="xygrid"
       id="grid3713" />
    <sodipodi:guide
       position="158.75,210"
       orientation="0,1"
       id="guide21"
       inkscape:locked="false"
       inkscape:label=""
       inkscape:color="rgb(0,0,255)" />
    <sodipodi:guide
       position="30,285"
       orientation="1,0"
       id="guide23"
       inkscape:locked="false"
       inkscape:label=""
       inkscape:color="rgb(0,0,255)" />
    <sodipodi:guide
       position="201.08334,315"
       orientation="0,1"
       id="guide25"
       inkscape:locked="false"
       inkscape:label=""
       inkscape:color="rgb(0,0,255)" />
    <sodipodi:guide
       position="312.20833,105"
       orientation="0,1"
       id="guide27"
       inkscape:locked="false"
       inkscape:label=""
       inkscape:color="rgb(0,0,255)" />
    <sodipodi:guide
       position="148,269.87499"
       orientation="1,0"
       id="guide51"
       inkscape:locked="false"
       inkscape:label=""
       inkscape:color="rgb(0,0,255)" />
    <sodipodi:guide
       position="178,341.31249"
       orientation="1,0"
       id="guide141"
       inkscape:locked="false"
       inkscape:label=""
       inkscape:color="rgb(0,0,255)" />
    <sodipodi:guide
       position="118,359.83333"
       orientation="1,0"
       id="guide143"
       inkscape:locked="false"
       inkscape:label=""
       inkscape:color="rgb(0,0,255)" />
    <sodipodi:guide
       position="63.500002,399.52082"
       orientation="0,1"
       id="guide145"
       inkscape:locked="false" />
    <sodipodi:guide
       position="193.14584,303.58333"
       orientation="1,0"
       id="guide24447" />
    <sodipodi:guide
       position="103.1875,364.43749"
       orientation="1,0"
       id="guide31500" />
  </sodipodi:namedview>
  <metadata
     id="metadata5">
    <rdf:RDF>
      <cc:Work
         rdf:about="">
        <dc:format>image/svg+xml</dc:format>
        <dc:type
           rdf:resource="http://purl.org/dc/dcmitype/StillImage" />
      </cc:Work>
    </rdf:RDF>
  </metadata>
  <g
     inkscape:label="Ebene 1"
     inkscape:groupmode="layer"
     id="layer1"
     transform="translate(0, 123)">
    <g
       style="font-style:normal;font-variant:normal;font-weight:normal;font-stretch:normal;font-size:40px;line-height:1.25;font-family:'Blackout MidnightUmlauts';-inkscape-font-specification:'Blackout MidnightUmlauts';letter-spacing:0px;word-spacing:0px;fill:#000000;fill-opacity:1;stroke:none"
       id="flowRoot131" />
    <g
       aria-label="q"
       transform="rotate(90)"
       id="text16944-35"
       style="font-weight:bold;font-size:74.0833px;line-height:1.25;font-family:Aurebesh;-inkscape-font-specification:'Aurebesh Bold';letter-spacing:0px;word-spacing:0px;stroke-width:0.264583">
      <path
         d="m -64.464461,-192.88995 h -20.908275 q -9.839188,-1.95337 -9.839188,-18.81021 v -16.27807 q 0,-16.85684 9.839188,-18.81021 h 40.007875 q 9.332759,1.84485 9.839188,17.72501 h -9.043371 q -0.434082,-9.04338 -4.521686,-9.04338 h -32.556137 q -4.521685,0 -4.521685,10.12858 v 16.27807 q 0,10.12857 4.521685,10.12857 h 17.182406 z"
         id="path7172" />
    </g>
    <g
       aria-label="r"
       transform="rotate(90)"
       id="text16944-35-3"
       style="font-weight:bold;font-size:74.0833px;line-height:1.25;font-family:Aurebesh;-inkscape-font-specification:'Aurebesh Bold';letter-spacing:0px;word-spacing:0px;stroke-width:0.264583">
      <path
         d="m 14.045855,-238.39115 v -8.64546 h 52.451554 v 8.13903 l -31.109197,45.75946 h -11.10526 l 30.747462,-45.21685 z"
         id="path8846" />
    </g>
    <g
       aria-label="s"
       transform="rotate(90)"
       id="text16944-35-6"
       style="font-weight:bold;font-size:74.0833px;line-height:1.25;font-family:Aurebesh;-inkscape-font-specification:'Aurebesh Bold';letter-spacing:0px;word-spacing:0px;stroke-width:0.264583">
      <path
         d="m 165.22629,-200.80052 v -46.12119 h 9.04337 v 53.89849 h -14.07149 l -42.72088,-53.89849 h 11.17761 z m -50.93227,-8.97102 4.48551,-6.72827 32.26675,17.07388 -4.48551,6.72827 z"
         id="path10122" />
    </g>
    <g
       aria-label="t"
       transform="rotate(90)"
       id="text16944-35-7"
       style="font-weight:bold;font-size:74.0833px;line-height:1.25;font-family:Aurebesh;-inkscape-font-specification:'Aurebesh Bold';letter-spacing:0px;word-spacing:0px;stroke-width:0.264583">
      <path
         d="m 247.8726,-204.35969 14.93965,-16.06103 h 11.28613 l -26.69604,28.6494 h -8.10286 l -26.69603,-28.6494 h 11.28613 l 14.93965,16.06103 v -41.38247 h 9.04337 z"
         id="path12232" />
    </g>
    <g
       aria-label="u"
       transform="rotate(90)"
       id="text16944-35-5"
       style="font-weight:bold;font-size:74.0833px;line-height:1.25;font-family:Aurebesh;-inkscape-font-specification:'Aurebesh Bold';letter-spacing:0px;word-spacing:0px;stroke-width:0.264583">
      <path
         d="m -31.065861,-103.30403 v 44.167827 q -1.953368,9.730667 -18.991079,9.730667 h -23.512766 q -17.037711,0 -18.991079,-9.730667 v -44.167827 h 9.043371 v 40.514305 q 0,4.702553 9.947708,4.702553 h 23.512766 q 9.947708,0 9.947708,-4.702553 v -31.832667 h -12.696893 l -7.668779,8.139034 h -11.286127 l 15.843986,-16.820672 z"
         id="path12708" />
    </g>
    <g
       aria-label="v"
       transform="rotate(90)"
       id="text16944-35-35"
       style="font-weight:bold;font-size:74.0833px;line-height:1.25;font-family:Aurebesh;-inkscape-font-specification:'Aurebesh Bold';letter-spacing:0px;word-spacing:0px;stroke-width:0.264583">
      <path
         d="M 30.811892,-74.91853 30.088423,-75.678173 4.5861154,-103.0615 H 15.872243 L 35.333578,-82.153227 54.794913,-103.0615 H 66.08104 l -25.502307,27.383327 -0.723469,0.759643 v 25.755521 h -9.043372 z"
         id="path13060" />
    </g>
    <path
       id="path15185"
       style="font-weight:bold;font-size:74.0833px;line-height:1.25;font-family:Aurebesh;-inkscape-font-specification:'Aurebesh Bold';letter-spacing:0px;word-spacing:0px;stroke-width:0.999999"
       d="M 256.41797 871.02344 C 213.94403 871.02344 190.24609 883.41928 185.32422 908.21094 L 185.32422 1060 L 218.13672 1060 L 218.13672 922.29297 C 218.13672 910.89976 230.89715 905.20313 256.41797 905.20312 L 317.94141 905.20312 C 341.68828 905.20312 354.38451 910.13562 356.03516 920 L 389.03516 920 L 389.03516 908.21094 C 384.1133 883.41928 360.41536 871.02344 317.94141 871.02344 L 256.41797 871.02344 z M 356.22266 940 L 356.22266 1079.5195 C 356.22266 1090.9127 343.46223 1096.6094 317.94141 1096.6094 L 256.41797 1096.6094 C 231.26183 1096.6094 218.51377 1091.0699 218.1543 1080 L 185.32422 1080 L 185.32422 1093.6016 C 190.24609 1118.3932 213.94403 1130.7891 256.41797 1130.7891 L 317.94141 1130.7891 C 360.41536 1130.7891 384.1133 1118.3932 389.03516 1093.6016 L 389.03516 940 L 356.22266 940 z "
       transform="matrix(0.264583 0 0 0.264583 0 -123)" />
    <path
       id="path15188"
       style="font-weight:bold;font-size:74.0833px;line-height:1.25;font-family:Aurebesh;-inkscape-font-specification:'Aurebesh Bold';letter-spacing:0px;word-spacing:0px;stroke-width:0.999999"
       d="M 204.21875 1284.0176 L 187.8125 1292.2207 L 187.8125 1420 L 220.625 1420 L 220.625 1332.1426 L 350.23438 1390.248 L 220.625 1448.3535 L 220.625 1440 L 187.8125 1440 L 187.8125 1488.2754 L 204.21875 1496.4785 L 391.52344 1413.2168 L 391.52344 1367.2793 L 204.21875 1284.0176 z "
       transform="matrix(0.264583 0 0 0.264583 0 -123)" />
  </g>
</svg>
