<?xml version="1.0" encoding="UTF-8" standalone="no"?>
<svg
   height="525"
   width="600"
   version="1.1"
   id="svg1859"
   sodipodi:docname="ISO_7010_W078.svg"
   inkscape:version="1.2.1 (9c6d41e410, 2022-07-14)"
   xml:space="preserve"
   xmlns:inkscape="http://www.inkscape.org/namespaces/inkscape"
   xmlns:sodipodi="http://sodipodi.sourceforge.net/DTD/sodipodi-0.dtd"
   xmlns="http://www.w3.org/2000/svg"
   xmlns:svg="http://www.w3.org/2000/svg"
   xmlns:rdf="http://www.w3.org/1999/02/22-rdf-syntax-ns#"
   xmlns:cc="http://creativecommons.org/ns#"
   xmlns:dc="http://purl.org/dc/elements/1.1/"><defs
     id="defs1863" /><sodipodi:namedview
     id="namedview1861"
     pagecolor="#ffffff"
     bordercolor="#666666"
     borderopacity="1.0"
     inkscape:showpageshadow="2"
     inkscape:pageopacity="0.0"
     inkscape:pagecheckerboard="0"
     inkscape:deskcolor="#d1d1d1"
     showgrid="false"
     inkscape:zoom="0.54302587"
     inkscape:cx="499.05541"
     inkscape:cy="381.19731"
     inkscape:window-width="1920"
     inkscape:window-height="1017"
     inkscape:window-x="-8"
     inkscape:window-y="-8"
     inkscape:window-maximized="1"
     inkscape:current-layer="g8212"
     inkscape:document-rotation="0" /><metadata
     id="metadata1845"><rdf:RDF><cc:Work
         rdf:about=""><dc:format>image/svg+xml</dc:format><dc:type
           rdf:resource="http://purl.org/dc/dcmitype/StillImage" /></cc:Work></rdf:RDF></metadata><path
     d="M597.6,499.6,313.8,8c-2.9-5-8.2-8-13.9-8s-11,3.1-13.9,8l-283.8,491.6c-2.9,5-2.9,11.1,0,16,2.9,5,8.2,8,13.9,8h567.6c5.7,0,11-3.1,13.9-8,2.9-5,2.9-11.1,0-16z"
     id="path1847" /><polygon
     points="43.875,491.5,299.88,48.2,555.88,491.5"
     fill="#f6bd16"
     transform="matrix(1,0,0,0.99591458,0.125,2.0332437)"
     id="polygon1849"
     style="fill:#f9a800;fill-opacity:1" /><g
     id="g8212"
     transform="translate(4.183741)"><path
       id="path6654"
       style="fill:#000000;stroke-width:27.5029;fill-opacity:1"
       d="m 300.6079,158.23088 -36.60369,17.88574 34.6751,59.72047 39.90608,-10.45539 14.86075,-35.22992 z m 72.111,61.76791 -7.71437,49.41703 -25.31615,8.80413 -5.50836,53.94126 -39.6287,27.52217 -15.40896,53.94784 -33.03051,25.31614 -164.392321,20.82335 -7.009742,10.00129 442.217943,-1.4e-4 z m -101.83253,29.87345 -40.46089,4.95358 -1.65117,13.48696 18.71792,20.63997 24.49055,-1.92201 7.70779,-25.32274 z m 23.38755,47.33649 -11.00357,7.70777 3.57318,25.32273 14.31256,0.5482 15.1382,-19.26614 -3.85063,-13.20956 z m -63.84844,20.64651 -24.49053,7.9786 14.58335,38.80311 13.20957,7.1596 37.98409,-11.55839 -3.03157,-24.77453 z m -6.60479,72.10444 -25.87093,2.47678 -6.05657,23.94235 9.91378,10.73277 23.11671,-8.25599 3.85063,-14.03515 z m -67.15082,18.16315 -12.38397,9.63638 -0.27729,14.86075 7.70778,2.74758 4.67619,0.27729 11.83576,-7.43039 -0.27728,-12.10657 3.85717,-2.4768 z"
       sodipodi:nodetypes="cccccccccccccccccccccccccccccccccccccccccccccccccccccc" /></g></svg>
