<?xml version="1.0" encoding="UTF-8" standalone="no"?>
<svg
   height="525"
   width="600"
   version="1.1"
   id="svg1859"
   sodipodi:docname="ISO_7010_W030.svg"
   inkscape:version="1.2.1 (9c6d41e410, 2022-07-14)"
   xml:space="preserve"
   xmlns:inkscape="http://www.inkscape.org/namespaces/inkscape"
   xmlns:sodipodi="http://sodipodi.sourceforge.net/DTD/sodipodi-0.dtd"
   xmlns="http://www.w3.org/2000/svg"
   xmlns:svg="http://www.w3.org/2000/svg"
   xmlns:rdf="http://www.w3.org/1999/02/22-rdf-syntax-ns#"
   xmlns:cc="http://creativecommons.org/ns#"
   xmlns:dc="http://purl.org/dc/elements/1.1/"><defs
     id="defs1863" /><sodipodi:namedview
     id="namedview1861"
     pagecolor="#ffffff"
     bordercolor="#666666"
     borderopacity="1.0"
     inkscape:showpageshadow="2"
     inkscape:pageopacity="0.0"
     inkscape:pagecheckerboard="0"
     inkscape:deskcolor="#d1d1d1"
     showgrid="false"
     inkscape:zoom="2.1721035"
     inkscape:cx="350.81202"
     inkscape:cy="393.62766"
     inkscape:window-width="1920"
     inkscape:window-height="1017"
     inkscape:window-x="-8"
     inkscape:window-y="-8"
     inkscape:window-maximized="1"
     inkscape:current-layer="svg1859"
     inkscape:document-rotation="0" /><metadata
     id="metadata1845"><rdf:RDF><cc:Work
         rdf:about=""><dc:format>image/svg+xml</dc:format><dc:type
           rdf:resource="http://purl.org/dc/dcmitype/StillImage" /></cc:Work></rdf:RDF></metadata><path
     d="M597.6,499.6,313.8,8c-2.9-5-8.2-8-13.9-8s-11,3.1-13.9,8l-283.8,491.6c-2.9,5-2.9,11.1,0,16,2.9,5,8.2,8,13.9,8h567.6c5.7,0,11-3.1,13.9-8,2.9-5,2.9-11.1,0-16z"
     id="path1847" /><polygon
     points="299.88,48.2 555.88,491.5 43.875,491.5 "
     fill="#f6bd16"
     transform="matrix(1,0,0,0.99591458,0.0225,2.0332437)"
     id="polygon1849"
     style="fill:#f9a800;fill-opacity:1" /><path
     id="path2375"
     style="color:#000000;display:inline;fill:#000000;fill-opacity:1;stroke-width:1.04883"
     d="m 307.59538,192.97914 v 54.80551 H 292.2337 l 12.87071,14.1244 12.87276,14.12234 12.87072,-14.12234 12.87071,-14.1244 h -15.36168 v -54.80551 z m -53.25828,43.717 v 1.67157 29.19519 l 0.50393,0.49164 c 0,0 13.82508,13.81737 13.73928,28.24879 -0.11757,19.78073 -13.42791,27.54411 -13.42791,27.54411 l -1.96861,1.17583 17.14183,15.10972 16.08686,-16.08685 -0.80567,-87.35 z m 115.18438,3.00104 -53.35518,86.67401 -25.23135,-0.12087 -19.79668,19.91755 c 0,0 -23.91207,2.1436 -39.23284,2.53604 -0.54117,0.0138 -0.86352,0.6669 -1.20656,1.0857 -2.25207,2.7494 -3.64184,6.71539 -6.28684,9.08919 -0.36185,0.32475 -0.85832,0.47652 -1.32743,0.60431 -7.78625,2.1211 -14.62564,2.7065 -21.84109,5.63746 -0.73528,0.29868 -1.60843,0.54887 -2.05259,1.20657 -0.45545,0.6744 -0.47721,1.60982 -0.36054,2.41517 0.0954,0.65918 0.50039,1.24028 0.84398,1.81088 2.05968,3.56407 4.68881,6.36631 8.45006,7.48316 0.58132,0.16732 1.27911,-0.16752 1.81087,0.12087 0.35372,0.19183 0.58337,0.59031 0.72517,0.96688 0.36978,0.98199 -0.24572,2.20802 0.23967,3.13831 0.26455,0.50702 0.82017,0.82555 1.32948,1.0857 5.42141,2.80862 10.69679,2.47207 15.69149,-0.12086 3.64232,-1.77486 5.20069,-4.12384 6.64123,-7.3623 0.27611,-0.60616 0.50816,-1.23565 0.84399,-1.81087 0.17452,-0.29893 0.12144,-0.72531 0.6043,-0.84603 4.77128,-0.41483 10.3958,-3.98804 14.96838,-3.25917 0.44288,0.079 0.79463,0.42347 1.20657,0.60431 6.59267,2.52964 12.60076,4.91678 18.34839,7.12263 0.92364,0.13417 1.90927,-0.0208 2.77776,-0.36259 5.01408,-2.21998 8.59372,-3.88267 12.79492,-6.03692 0.92214,-0.41001 1.78972,-1.00107 2.77777,-1.20656 0.94549,-0.19666 1.93939,-0.12819 2.89657,0 0.45473,0.0609 0.88633,0.2364 1.32742,0.36258 7.14803,2.04459 14.42739,3.73215 21.36789,6.39746 0.78974,0.30328 1.57487,0.63737 2.29227,1.0857 0.43699,0.2731 0.96773,0.51135 1.20861,0.96689 0.24525,0.46379 0.0987,1.0449 0.11882,1.56916 0.034,0.88459 0.0818,1.77339 0,2.65485 -1.07091,11.53591 -4.84001,22.68244 -6.39746,34.1628 -0.3203,2.36096 -0.61797,4.74009 -0.60226,7.12263 0.0136,2.06197 0.15669,4.14449 0.60226,6.15778 0.34099,1.54077 0.89447,3.03918 1.56915,4.46572 0.56354,1.19155 1.19256,2.38117 2.0526,3.38003 0.82023,0.95263 1.86059,1.70108 2.89657,2.41313 1.29159,0.88773 2.6101,1.82424 4.10519,2.29432 1.15732,0.36388 2.49712,0.81756 3.62174,0.36259 0.63522,-0.257 0.88915,-1.04241 1.32743,-1.56916 0.36579,-0.43962 0.81296,-0.82475 1.08571,-1.32742 9.18535,-28.19956 18.4713,-57.94382 18.4713,-57.94382 0,0 3.61697,-11.88606 5.6723,-17.74614 0.48477,-1.38216 0.79797,-2.85789 1.56914,-4.10314 0.71969,-1.16213 1.92316,-1.95265 2.77777,-3.01949 16.14158,-20.15014 44.182,-63.6161 44.182,-63.6161 z m -109.83919,2.34415 h 21.38499 v 80.61797 l -10.88505,10.88506 -9.531,-8.1626 c 3.73725,-2.90157 13.17387,-11.82163 13.27632,-29.05999 0.0928,-15.61338 -12.80303,-28.70419 -14.24526,-30.12522 z m -44.35126,42.79041 c -1.12191,0.0342 -2.2093,0.30668 -2.8597,1.10005 -1.58167,1.92932 -0.77889,5.11306 0,7.48315 1.18596,3.60879 2.71015,6.71429 5.79315,8.93351 6.10373,3.99289 14.63071,5.72893 20.28014,11.58835 4.03028,2.96896 12.07179,8.9335 12.07179,8.9335 l 2.41519,-2.89657 v -16.66044 c -5.62991,-3.98298 -10.72915,-7.3936 -17.14184,-9.65662 -5.94905,-2.27141 -11.81077,-6.89238 -18.59012,-8.69178 -0.60909,-0.0887 -1.29546,-0.15365 -1.96861,-0.13315 z m 21.25727,34.86749 c -0.93156,-0.0166 -1.99813,0.0285 -2.75113,0.2745 -8.5879,2.80524 -14.38967,4.13707 -25.10845,9.29403 -0.59027,0.284 -1.06157,0.56755 -1.54047,1.29875 -0.33069,0.50492 -0.62983,1.35684 -0.63298,1.96041 -0.0403,8.04803 0.67735,13.6734 0.60431,24.1436 -0.005,0.82561 1.04758,1.37529 1.81087,1.69001 3.5676,1.07309 6.94784,-1.01653 9.53576,-2.89657 4.18478,-2.55618 4.91795,-6.00165 5.55347,-10.26093 0.12995,-0.83883 -0.19387,-1.80749 0.24173,-2.53604 2.5144,-1.95862 6.10099,-3.56935 9.05231,-4.10314 0.79559,-0.12774 1.6459,-0.11891 2.41518,0.12085 2.53007,1.13145 4.339,3.14126 6.2766,5.18885 l 24.76703,-1.77051 c 0,0 -10.07345,-8.67561 -14.74783,-12.71442 -3.89371,-3.3643 -8.18298,-6.30071 -12.67405,-8.81263 -0.61333,-0.34304 -1.22993,-0.80792 -1.93174,-0.84399 -0.26371,-0.0135 -0.56009,-0.0273 -0.87061,-0.0327 z m 60.03738,63.17158 -26.72471,28.25289 -26.74929,-26.91317 h -9.41898 v 62.97903 h 1.67362 70.72235 v -64.15692 z m 1.41756,5.36978 2.74022,0.0799 v 53.52387 h -61.70352 v -52.28863 h 2.68081 l 28.19963,28.3758 z"
     sodipodi:nodetypes="ccccccccccccccsccccccccccsssssssccssscccsccccccssssssscsssssssssccssscccccccsccssscccccccsssssccccccccccsssssccccccccccccccccc" /></svg>
