<?xml version="1.0" encoding="UTF-8"?>
<svg xmlns="http://www.w3.org/2000/svg" xmlns:xlink="http://www.w3.org/1999/xlink" width="688pt" height="600pt" viewBox="0 0 688 600" version="1.1">
<g id="surface1">
<path style=" stroke:none;fill-rule:evenodd;fill:rgb(92.156863%,74.901961%,16.862745%);fill-opacity:1;" d="M 630.152344 559.800781 L 343.632812 62.921875 L 57.109375 559.800781 Z M 630.152344 559.800781 "/>
<path style=" stroke:none;fill-rule:evenodd;fill:rgb(0.784314%,1.960784%,1.960784%);fill-opacity:1;" d="M 667.554688 600.992188 C 678.527344 600.992188 687.261719 592.257812 687.261719 581.53125 C 687.261719 577.527344 686.015625 573.785156 684.011719 570.53125 L 359.847656 8.734375 C 356.351562 3.242188 350.121094 0 343.632812 0 C 337.144531 0 330.910156 3.242188 327.171875 8.734375 L 3.25 570.53125 C 1.257812 573.785156 0 577.527344 0 581.53125 C 0 592.257812 8.738281 600.992188 19.710938 600.992188 Z M 630.152344 559.800781 L 343.632812 62.921875 L 57.109375 559.800781 Z M 630.152344 559.800781 "/>
<path style=" stroke:none;fill-rule:evenodd;fill:rgb(0.784314%,1.960784%,1.960784%);fill-opacity:1;" d="M 288.917969 347.941406 L 294.378906 334.769531 L 260.582031 346.691406 L 275.96875 379.109375 L 281.226562 366.457031 C 296.273438 372.828125 309.277344 381.847656 317.515625 391.398438 C 322.511719 387.03125 326.941406 381.972656 331.496094 377.035156 C 321.160156 365.273438 306.542969 355.332031 288.917969 347.941406 "/>
<path style=" stroke:none;fill-rule:evenodd;fill:rgb(0.784314%,1.960784%,1.960784%);fill-opacity:1;" d="M 379.960938 438.015625 C 372.59375 420.382812 362.878906 405.882812 351.121094 395.535156 C 346.191406 400.09375 340.910156 404.40625 336.5625 409.410156 C 346.097656 417.644531 355.117188 430.675781 361.472656 445.734375 L 348.847656 451.007812 L 381.207031 466.390625 L 393.113281 432.550781 Z M 379.960938 438.015625 "/>
<path style=" stroke:none;fill-rule:evenodd;fill:rgb(0.784314%,1.960784%,1.960784%);fill-opacity:1;" d="M 448.179688 302.515625 C 436.839844 281.65625 410.75 273.964844 389.929688 285.320312 C 376.222656 292.792969 368.230469 306.652344 367.582031 321.195312 L 367.554688 321.195312 C 367.554688 321.34375 367.566406 321.480469 367.566406 321.628906 C 367.539062 322.496094 367.527344 323.378906 367.554688 324.257812 L 367.660156 324.207031 C 367.742188 325.359375 367.863281 326.523438 368.027344 327.691406 L 371.128906 327.230469 C 370.910156 325.710938 370.789062 324.207031 370.734375 322.6875 L 380.773438 317.75 L 383.386719 327.949219 L 393.046875 323.757812 L 394.617188 333.972656 L 396.175781 341.023438 L 405.574219 335.53125 L 410.804688 342.597656 L 409.246094 354.355469 L 419.417969 356.972656 L 419.378906 365.140625 C 419.664062 365.070312 419.960938 364.988281 420.257812 364.910156 L 421.585938 364.652344 L 421.574219 364.597656 C 424.796875 363.730469 427.96875 362.507812 431.015625 360.839844 C 451.835938 349.472656 459.527344 323.351562 448.175781 302.519531 "/>
<path style=" stroke:none;fill-rule:evenodd;fill:rgb(0.784314%,1.960784%,1.960784%);fill-opacity:1;" d="M 369.464844 334.039062 C 370.085938 336.101562 370.871094 338.136719 371.820312 340.128906 L 374.652344 338.785156 C 373.769531 336.925781 373.039062 335.042969 372.457031 333.128906 Z M 369.464844 334.039062 "/>
<path style=" stroke:none;fill-rule:evenodd;fill:rgb(0.784314%,1.960784%,1.960784%);fill-opacity:1;" d="M 383.617188 355.386719 C 385.285156 356.785156 387.046875 358.046875 388.886719 359.171875 L 390.515625 356.484375 C 388.808594 355.441406 387.167969 354.273438 385.609375 352.972656 Z M 383.617188 355.386719 "/>
<path style=" stroke:none;fill-rule:evenodd;fill:rgb(0.784314%,1.960784%,1.960784%);fill-opacity:1;" d="M 394.660156 362.128906 C 396.664062 362.96875 398.710938 363.660156 400.808594 364.21875 L 401.59375 361.179688 C 399.65625 360.675781 397.734375 360.027344 395.890625 359.238281 Z M 394.660156 362.128906 "/>
<path style=" stroke:none;fill-rule:evenodd;fill:rgb(0.784314%,1.960784%,1.960784%);fill-opacity:1;" d="M 407.527344 362.292969 L 407.1875 365.410156 C 409.328125 365.640625 411.496094 365.734375 413.675781 365.65625 L 413.570312 362.523438 C 411.550781 362.589844 409.519531 362.507812 407.527344 362.292969 "/>
<path style=" stroke:none;fill-rule:evenodd;fill:rgb(0.784314%,1.960784%,1.960784%);fill-opacity:1;" d="M 422.304688 392.945312 L 419.421875 391.710938 C 418.566406 393.730469 417.847656 395.804688 417.320312 397.882812 L 420.34375 398.667969 C 420.84375 396.742188 421.507812 394.816406 422.304688 392.945312 "/>
<path style=" stroke:none;fill-rule:evenodd;fill:rgb(0.784314%,1.960784%,1.960784%);fill-opacity:1;" d="M 428.578125 382.691406 L 426.207031 380.667969 C 424.8125 382.296875 423.523438 384.058594 422.402344 385.933594 L 425.070312 387.574219 C 426.125 385.835938 427.304688 384.210938 428.578125 382.691406 "/>
<path style=" stroke:none;fill-rule:evenodd;fill:rgb(0.784314%,1.960784%,1.960784%);fill-opacity:1;" d="M 419.015625 404.785156 L 415.964844 404.066406 L 414.515625 410.167969 L 417.566406 410.890625 Z M 419.015625 404.785156 "/>
<path style=" stroke:none;fill-rule:evenodd;fill:rgb(0.784314%,1.960784%,1.960784%);fill-opacity:1;" d="M 416.117188 417.003906 L 413.066406 416.273438 L 411.617188 422.375 L 414.667969 423.109375 Z M 416.117188 417.003906 "/>
<path style=" stroke:none;fill-rule:evenodd;fill:rgb(0.784314%,1.960784%,1.960784%);fill-opacity:1;" d="M 557.058594 510.660156 L 490.035156 387.453125 C 479.699219 368.476562 455.953125 361.464844 436.988281 371.8125 C 433.347656 373.792969 430.164062 376.289062 427.441406 379.136719 L 433.523438 387.832031 L 429.078125 395.671875 L 436.664062 404.039062 L 429.351562 408.488281 L 425.175781 417.628906 L 431.179688 424.695312 L 429.605469 430.445312 L 418.636719 428.101562 L 412.621094 431.734375 L 413.214844 429.210938 L 410.167969 428.480469 L 408.867188 434 L 408.839844 434.015625 L 397.230469 482.421875 L 308.613281 482.273438 C 296.871094 482.246094 287.320312 491.765625 287.308594 503.539062 C 287.292969 515.300781 296.804688 524.863281 308.546875 524.875 L 414.027344 525.050781 C 414.300781 525.050781 414.558594 525.023438 414.8125 525.023438 C 415.113281 525.011719 415.398438 524.996094 415.695312 524.984375 C 416.183594 524.929688 416.671875 524.875 417.171875 524.808594 C 417.320312 524.777344 417.484375 524.765625 417.632812 524.726562 C 418.253906 524.617188 418.851562 524.496094 419.460938 524.347656 C 419.472656 524.332031 419.488281 524.316406 419.5 524.316406 C 427.535156 522.203125 433.683594 515.503906 435.050781 507.1875 L 444.5625 467.554688 L 478.601562 530.082031 L 561.964844 530.082031 C 561.882812 523.953125 560.203125 516.425781 557.058594 510.660156 "/>
<path style=" stroke:none;fill-rule:evenodd;fill:rgb(0.784314%,1.960784%,1.960784%);fill-opacity:1;" d="M 259.457031 482 L 221.707031 519.828125 L 183.953125 482 L 162.726562 482 L 162.726562 530.082031 L 170.082031 530.082031 L 170.082031 489.367188 L 180.90625 489.367188 L 221.707031 530.082031 L 262.503906 489.367188 L 273.328125 489.367188 L 273.328125 530.082031 L 280.683594 530.082031 L 280.683594 482 Z M 259.457031 482 "/>
<path style=" stroke:none;fill-rule:evenodd;fill:rgb(0.784314%,1.960784%,1.960784%);fill-opacity:1;" d="M 226.175781 325.875 L 221.933594 333.238281 L 237.484375 333.238281 L 237.484375 464.707031 C 235.832031 466.347656 225.375 476.820312 221.71875 480.496094 C 218.628906 477.375 212.671875 471.410156 209.59375 468.328125 C 219.605469 458.144531 225.242188 444.335938 225.242188 430.066406 C 225.242188 429.363281 225.226562 428.65625 225.199219 427.953125 C 224.605469 412.882812 217.722656 398.628906 206.332031 388.792969 L 206.332031 360.3125 L 198.976562 373.074219 L 198.976562 392.171875 L 201.414062 394.261719 C 211.355469 402.765625 217.34375 415.148438 217.859375 428.25 C 218.359375 441.324219 213.359375 454.140625 204.136719 463.40625 L 199.21875 468.34375 L 221.71875 490.898438 L 244.828125 467.761719 L 244.828125 325.875 Z M 226.175781 325.875 "/>
<path style=" stroke:none;fill-rule:evenodd;fill:rgb(0.784314%,1.960784%,1.960784%);fill-opacity:1;" d="M 170.054688 460.570312 L 177.410156 453.042969 L 220.988281 496.746094 L 221.707031 497.476562 L 222.421875 496.746094 L 383.441406 335.421875 L 391.707031 343.953125 L 221.71875 513.738281 Z M 170.054688 460.570312 "/>
</g>
</svg>
