<?xml version="1.0" encoding="UTF-8"?>
<svg xmlns="http://www.w3.org/2000/svg" xmlns:xlink="http://www.w3.org/1999/xlink" width="688pt" height="600pt" viewBox="0 0 688 600" version="1.1">
<g id="surface1">
<path style=" stroke:none;fill-rule:evenodd;fill:rgb(92.156863%,74.901961%,16.862745%);fill-opacity:1;" d="M 630.140625 559.800781 L 343.617188 62.90625 L 57.109375 559.800781 Z M 630.140625 559.800781 "/>
<path style=" stroke:none;fill-rule:evenodd;fill:rgb(0.784314%,1.960784%,1.960784%);fill-opacity:1;" d="M 667.554688 600.992188 C 678.527344 600.992188 687.25 592.257812 687.25 581.515625 C 687.25 577.527344 686.003906 573.785156 684.011719 570.53125 L 359.832031 8.734375 C 356.335938 3.242188 350.105469 0 343.617188 0 C 337.144531 0 330.910156 3.242188 327.160156 8.734375 L 3.238281 570.53125 C 1.246094 573.785156 0 577.527344 0 581.515625 C 0 592.257812 8.722656 600.992188 19.695312 600.992188 Z M 630.140625 559.800781 L 343.617188 62.90625 L 57.109375 559.800781 Z M 630.140625 559.800781 "/>
<path style=" stroke:none;fill-rule:nonzero;fill:rgb(0.784314%,1.960784%,1.960784%);fill-opacity:1;" d="M 455.410156 429.210938 L 440.171875 463.488281 C 438.371094 467.542969 433.644531 469.359375 429.59375 467.570312 C 425.542969 465.753906 423.726562 461.019531 425.53125 456.964844 L 440.753906 422.6875 C 442.558594 418.648438 447.296875 416.816406 451.347656 418.621094 C 455.386719 420.421875 457.214844 425.171875 455.410156 429.210938 "/>
<path style="fill:none;stroke-width:0.729113;stroke-linecap:butt;stroke-linejoin:miter;stroke:rgb(0.784314%,1.960784%,1.960784%);stroke-opacity:1;stroke-miterlimit:22.926;" d="M 131.32758 123.612745 L 126.933285 133.48462 C 126.41399 134.65237 125.050981 135.175495 123.882849 134.660245 C 122.714717 134.13712 122.190916 132.77362 122.711337 131.60587 L 127.101126 121.733995 C 127.621548 120.570745 128.987936 120.04312 130.156068 120.56287 C 131.320821 121.081495 131.848001 122.449495 131.32758 123.612745 Z M 131.32758 123.612745 " transform="matrix(3.467742,0,0,3.472222,0,0.0000173611)"/>
<path style=" stroke:none;fill-rule:nonzero;fill:rgb(0.784314%,1.960784%,1.960784%);fill-opacity:1;" d="M 438.019531 421.46875 L 422.78125 455.742188 C 420.976562 459.785156 416.25 461.601562 412.199219 459.8125 C 408.152344 457.996094 406.335938 453.261719 408.136719 449.207031 L 423.375 414.945312 C 425.175781 410.886719 429.917969 409.070312 433.957031 410.863281 C 438.003906 412.664062 439.820312 417.414062 438.019531 421.46875 "/>
<path style="fill:none;stroke-width:0.729113;stroke-linecap:butt;stroke-linejoin:miter;stroke:rgb(0.784314%,1.960784%,1.960784%);stroke-opacity:1;stroke-miterlimit:22.926;" d="M 126.312609 121.382995 L 121.918314 131.253745 C 121.397892 132.41812 120.034884 132.941245 118.866751 132.425995 C 117.699746 131.90287 117.175945 130.53937 117.69524 129.37162 L 122.089535 119.504245 C 122.60883 118.336495 123.976344 117.812245 125.141097 118.32862 C 126.308103 118.847245 126.831904 120.215245 126.312609 121.382995 Z M 126.312609 121.382995 " transform="matrix(3.467742,0,0,3.472222,0,0.0000173611)"/>
<path style=" stroke:none;fill-rule:nonzero;fill:rgb(0.784314%,1.960784%,1.960784%);fill-opacity:1;" d="M 472.722656 436.835938 L 442 505.914062 C 430.257812 513.195312 441.746094 505.925781 430.082031 513.007812 C 426.816406 499.28125 430.257812 513.195312 427.359375 499.390625 L 458.082031 430.3125 C 459.882812 426.269531 464.609375 424.4375 468.660156 426.242188 C 472.710938 428.046875 474.511719 432.792969 472.722656 436.835938 "/>
<path style="fill:none;stroke-width:0.729113;stroke-linecap:butt;stroke-linejoin:miter;stroke:rgb(0.784314%,1.960784%,1.960784%);stroke-opacity:1;stroke-miterlimit:22.926;" d="M 136.320022 125.808745 L 127.460465 145.703245 C 124.074346 147.800245 127.387246 145.70662 124.023656 147.746245 C 123.08194 143.792995 124.074346 147.800245 123.238517 143.824495 L 132.098074 123.929995 C 132.617369 122.76562 133.980378 122.237995 135.14851 122.757745 C 136.316642 123.277495 136.835938 124.64437 136.320022 125.808745 Z M 136.320022 125.808745 " transform="matrix(3.467742,0,0,3.472222,0,0.0000173611)"/>
<path style=" stroke:none;fill-rule:nonzero;fill:rgb(0.784314%,1.960784%,1.960784%);fill-opacity:1;" d="M 390.757812 441.367188 L 421.480469 372.289062 C 433.222656 365.003906 421.738281 372.273438 433.398438 365.195312 C 436.664062 378.917969 433.222656 365.003906 436.121094 378.8125 L 405.414062 447.902344 C 403.597656 451.945312 398.871094 453.761719 394.835938 451.957031 C 390.785156 450.15625 388.96875 445.421875 390.757812 441.367188 "/>
<path style="fill:none;stroke-width:0.729113;stroke-linecap:butt;stroke-linejoin:miter;stroke:rgb(0.784314%,1.960784%,1.960784%);stroke-opacity:1;stroke-miterlimit:22.926;" d="M 112.683648 127.113745 L 121.543205 107.219245 C 124.929324 105.12112 121.617551 107.214745 124.980015 105.176245 C 125.92173 109.12837 124.929324 105.12112 125.765153 109.097995 L 116.910102 128.99587 C 116.386301 130.160245 115.023292 130.68337 113.859666 130.16362 C 112.691533 129.644995 112.167733 128.281495 112.683648 127.113745 Z M 112.683648 127.113745 " transform="matrix(3.467742,0,0,3.472222,0,0.0000173611)"/>
<path style=" stroke:none;fill-rule:nonzero;fill:rgb(0.784314%,1.960784%,1.960784%);fill-opacity:1;" d="M 387.941406 440.714844 C 376.480469 436.769531 365.941406 462.402344 326.96875 444.632812 C 319.355469 441.175781 305.839844 437.664062 297.996094 442.585938 L 289.839844 421.886719 C 302.761719 413.792969 320.496094 417.03125 333.484375 422.960938 C 363.585938 436.6875 363.285156 418.621094 382.425781 417.332031 C 387.519531 416.980469 392.289062 417.628906 396.203125 421.414062 C 396.203125 421.414062 387.65625 440.441406 387.941406 440.714844 "/>
<path style=" stroke:none;fill-rule:nonzero;fill:rgb(0.784314%,1.960784%,1.960784%);fill-opacity:1;" d="M 266.71875 423.257812 L 280.140625 458.277344 C 281.726562 462.414062 279.667969 467.054688 275.535156 468.640625 C 271.40625 470.226562 266.773438 468.167969 265.1875 464.015625 L 251.75 429.007812 C 250.164062 424.859375 252.238281 420.234375 256.367188 418.632812 C 260.5 417.046875 265.132812 419.121094 266.71875 423.257812 "/>
<path style="fill:none;stroke-width:0.729113;stroke-linecap:butt;stroke-linejoin:miter;stroke:rgb(0.784314%,1.960784%,1.960784%);stroke-opacity:1;stroke-miterlimit:22.926;" d="M 76.914244 121.898245 L 80.784738 131.98387 C 81.242078 133.175245 80.648438 134.511745 79.45665 134.968495 C 78.265988 135.425245 76.930015 134.83237 76.472674 133.636495 L 72.597674 123.554245 C 72.140334 122.359495 72.738481 121.027495 73.929142 120.566245 C 75.12093 120.109495 76.456904 120.70687 76.914244 121.898245 Z M 76.914244 121.898245 " transform="matrix(3.467742,0,0,3.472222,0,0.0000173611)"/>
<path style=" stroke:none;fill-rule:nonzero;fill:rgb(0.784314%,1.960784%,1.960784%);fill-opacity:1;" d="M 248.945312 430.082031 L 262.382812 465.101562 C 263.96875 469.238281 261.910156 473.890625 257.765625 475.476562 C 253.632812 477.0625 249 474.988281 247.414062 470.851562 L 233.992188 435.832031 C 232.40625 431.695312 234.464844 427.054688 238.597656 425.457031 C 242.726562 423.882812 247.359375 425.945312 248.945312 430.082031 "/>
<path style="fill:none;stroke-width:0.729113;stroke-linecap:butt;stroke-linejoin:miter;stroke:rgb(0.784314%,1.960784%,1.960784%);stroke-opacity:1;stroke-miterlimit:22.926;" d="M 71.788881 123.86362 L 75.663881 133.949245 C 76.121221 135.14062 75.52758 136.480495 74.332413 136.937245 C 73.140625 137.393995 71.804651 136.79662 71.347311 135.605245 L 67.476817 125.51962 C 67.019477 124.328245 67.613118 122.991745 68.804906 122.53162 C 69.995567 122.078245 71.331541 122.672245 71.788881 123.86362 Z M 71.788881 123.86362 " transform="matrix(3.467742,0,0,3.472222,0,0.0000173611)"/>
<path style=" stroke:none;fill-rule:nonzero;fill:rgb(0.784314%,1.960784%,1.960784%);fill-opacity:1;" d="M 284.4375 416.285156 L 311.5 486.882812 C 308.34375 500.367188 311.324219 487.085938 308.074219 500.339844 C 296.070312 492.945312 308.34375 500.367188 296.53125 492.636719 L 269.46875 422.050781 C 267.882812 417.914062 269.941406 413.277344 274.074219 411.675781 C 278.21875 410.101562 282.851562 412.148438 284.4375 416.285156 "/>
<path style="fill:none;stroke-width:0.729113;stroke-linecap:butt;stroke-linejoin:miter;stroke:rgb(0.784314%,1.960784%,1.960784%);stroke-opacity:1;stroke-miterlimit:22.926;" d="M 82.023837 119.89012 L 89.827907 140.222245 C 88.917733 144.105745 89.777217 140.280745 88.840007 144.09787 C 85.378416 141.968245 88.917733 144.105745 85.511337 141.87937 L 77.707267 121.55062 C 77.249927 120.359245 77.843568 119.02387 79.035356 118.56262 C 80.230523 118.109245 81.566497 118.698745 82.023837 119.89012 Z M 82.023837 119.89012 " transform="matrix(3.467742,0,0,3.472222,0,0.0000173611)"/>
<path style=" stroke:none;fill-rule:nonzero;fill:rgb(0.784314%,1.960784%,1.960784%);fill-opacity:1;" d="M 229.683594 477.527344 L 202.617188 406.929688 C 205.773438 393.460938 202.796875 406.726562 206.046875 393.472656 C 218.046875 400.867188 205.773438 393.460938 217.585938 401.175781 L 244.652344 471.761719 C 246.238281 475.910156 244.179688 480.550781 240.03125 482.136719 C 235.902344 483.722656 231.269531 481.648438 229.683594 477.527344 "/>
<path style="fill:none;stroke-width:0.729113;stroke-linecap:butt;stroke-linejoin:miter;stroke:rgb(0.784314%,1.960784%,1.960784%);stroke-opacity:1;stroke-miterlimit:22.926;" d="M 66.234339 137.52787 L 58.429142 117.195745 C 59.339317 113.316745 58.480959 117.137245 59.418169 113.32012 C 62.878634 115.449745 59.339317 113.316745 62.745712 115.53862 L 70.550908 135.86737 C 71.008249 137.06212 70.414608 138.39862 69.218314 138.85537 C 68.027653 139.31212 66.691679 138.714745 66.234339 137.52787 Z M 66.234339 137.52787 " transform="matrix(3.467742,0,0,3.472222,0,0.0000173611)"/>
<path style="fill-rule:nonzero;fill:rgb(0.784314%,1.960784%,1.960784%);fill-opacity:1;stroke-width:1.05572;stroke-linecap:butt;stroke-linejoin:miter;stroke:rgb(0.784314%,1.960784%,1.960784%);stroke-opacity:1;stroke-miterlimit:22.926;" d="M 152.383249 128.52787 C 142.972856 127.718995 144.633249 132.554245 139.398619 134.34412 C 138.007449 134.819995 134.757631 135.164245 133.386737 134.40262 C 133.386737 134.40262 136.223147 128.30512 136.11726 128.249995 C 139.101235 128.456995 141.382304 122.73412 149.17173 122.969245 Z M 152.383249 128.52787 " transform="matrix(3.467742,0,0,3.472222,0,0.0000173611)"/>
<path style="fill-rule:nonzero;fill:rgb(0.784314%,1.960784%,1.960784%);fill-opacity:1;stroke-width:1.05572;stroke-linecap:butt;stroke-linejoin:miter;stroke:rgb(0.784314%,1.960784%,1.960784%);stroke-opacity:1;stroke-miterlimit:22.926;" d="M 47.676017 125.304745 C 49.645058 125.47687 51.25814 126.085495 54.085538 127.68412 C 56.184121 128.870995 59.847347 130.207495 62.223038 128.99587 L 64.453416 135.14062 C 60.53899 137.13637 55.250291 135.76612 51.671548 133.74562 C 46.835683 131.480995 46.183467 131.226745 44.258358 131.19187 Z M 47.676017 125.304745 " transform="matrix(3.467742,0,0,3.472222,0,0.0000173611)"/>
</g>
</svg>
