<?xml version="1.0" encoding="UTF-8"?>
<svg xmlns="http://www.w3.org/2000/svg" xmlns:xlink="http://www.w3.org/1999/xlink" width="688pt" height="600pt" viewBox="0 0 688 600" version="1.1">
<g id="surface1">
<path style=" stroke:none;fill-rule:evenodd;fill:rgb(92.156863%,74.901961%,16.862745%);fill-opacity:1;" d="M 630.152344 559.800781 L 343.632812 62.90625 L 57.109375 559.800781 Z M 630.152344 559.800781 "/>
<path style=" stroke:none;fill-rule:evenodd;fill:rgb(0.784314%,1.960784%,1.960784%);fill-opacity:1;" d="M 667.554688 600.992188 C 678.527344 600.992188 687.261719 592.257812 687.261719 581.515625 C 687.261719 577.527344 686.015625 573.785156 684.011719 570.53125 L 359.847656 8.734375 C 356.351562 3.242188 350.121094 0 343.632812 0 C 337.144531 0 330.910156 3.242188 327.171875 8.734375 L 3.25 570.53125 C 1.257812 573.785156 0 577.527344 0 581.515625 C 0 592.257812 8.738281 600.992188 19.710938 600.992188 Z M 630.152344 559.800781 L 343.632812 62.90625 L 57.109375 559.800781 Z M 630.152344 559.800781 "/>
<path style=" stroke:none;fill-rule:nonzero;fill:rgb(0.784314%,1.960784%,1.960784%);fill-opacity:1;" d="M 270.972656 528.644531 C 268.585938 519.964844 267.300781 510.308594 265.121094 501.234375 C 262.328125 489.609375 261.921875 482.3125 267.015625 470.445312 C 271.90625 459.066406 280.371094 461.207031 291.628906 462.808594 C 305.054688 464.75 306.828125 464.492188 316.148438 472.898438 C 325.628906 481.457031 332.414062 484.023438 344.550781 480.441406 C 354.644531 477.484375 360.050781 476.195312 369.613281 480.902344 C 379.011719 485.515625 385 489.636719 396.121094 488.835938 C 405.386719 488.171875 426.519531 484.375 432.019531 475.761719 C 437.207031 467.652344 426.113281 450.128906 424.363281 440.863281 C 420.707031 421.425781 423.957031 402.207031 428.238281 383.289062 C 432.832031 363.035156 433.78125 336.261719 414.003906 323.71875 C 427.34375 315.945312 433.859375 319.769531 439.875 324.449219 C 444.453125 328.015625 454.421875 335.273438 458.59375 335.3125 C 469.648438 335.410156 443.125 300.414062 436 298.625 C 419.09375 294.378906 398.4375 286.5 383.347656 293.550781 C 373.867188 278.890625 373.636719 278.972656 363.503906 274.414062 C 351.527344 269.03125 349.617188 266.101562 331.980469 265.097656 C 316.742188 250.5 299.648438 243.109375 282.59375 232.097656 L 112.917969 527.261719 Z M 270.972656 528.644531 "/>
<path style=" stroke:none;fill-rule:nonzero;fill:rgb(0.784314%,1.960784%,1.960784%);fill-opacity:1;" d="M 283.203125 234.457031 C 285.695312 235.960938 297.304688 242.933594 297.304688 242.933594 C 309.15625 249.824219 320.359375 256.320312 330.804688 266.332031 L 331.25 266.765625 L 331.886719 266.792969 C 345.554688 267.578125 349.402344 269.476562 356.40625 272.921875 L 362.8125 275.972656 L 363.328125 276.203125 C 372.6875 280.410156 372.863281 280.492188 381.925781 294.476562 L 382.726562 295.722656 L 384.066406 295.097656 C 396.121094 289.457031 412.539062 293.988281 427.019531 297.988281 L 435.59375 300.28125 C 440.957031 301.621094 460.355469 326.550781 459.53125 333.035156 C 459.476562 333.414062 459.460938 333.617188 458.609375 333.617188 C 456.0625 333.589844 448.964844 329.359375 440.917969 323.105469 C 434.59375 318.171875 427.222656 314.046875 413.148438 322.238281 L 410.722656 323.648438 L 413.09375 325.140625 C 433.304688 337.972656 430.214844 366.847656 426.574219 382.921875 C 421.710938 404.433594 419.191406 422.582031 422.699219 441.191406 C 423.292969 444.363281 424.894531 448.351562 426.574219 452.570312 C 429.878906 460.789062 433.617188 470.105469 430.582031 474.839844 C 425.625 482.613281 405.144531 486.476562 396 487.140625 C 386.925781 487.792969 381.601562 485.082031 374.21875 481.308594 L 370.371094 479.371094 C 360.292969 474.421875 354.414062 475.777344 344.078125 478.816406 C 333.1875 482.015625 326.929688 480.347656 317.285156 471.640625 C 308.210938 463.449219 305.566406 463.066406 294.40625 461.496094 L 291.871094 461.128906 L 289.636719 460.800781 C 279.382812 459.269531 270.523438 457.953125 265.457031 469.78125 C 262.558594 476.507812 261.394531 481.894531 261.394531 487.332031 C 261.394531 491.808594 262.179688 496.3125 263.453125 501.628906 L 265.960938 513.6875 C 265.960938 513.6875 268.152344 523.722656 268.859375 526.925781 C 264.78125 526.894531 121.382812 525.636719 115.84375 525.59375 C 118.6875 520.644531 281.511719 237.402344 283.203125 234.457031 M 280.738281 231.203125 L 108.476562 530.085938 L 273.015625 530.085938 L 269.304688 513.035156 L 266.773438 500.839844 C 264.0625 489.542969 263.671875 482.570312 268.574219 471.109375 C 272.609375 461.710938 279.195312 462.6875 289.136719 464.167969 L 291.398438 464.503906 L 293.933594 464.871094 C 305 466.429688 306.707031 466.675781 315.007812 474.164062 C 324.085938 482.367188 331.5625 486.042969 345.039062 482.082031 C 355.078125 479.140625 359.886719 478.027344 368.867188 482.4375 L 372.675781 484.347656 C 380.246094 488.214844 386.234375 491.265625 396.242188 490.535156 C 404.507812 489.949219 427.304688 486.289062 433.441406 476.683594 C 434.605469 474.867188 435.078125 472.726562 435.078125 470.363281 C 435.078125 464.628906 432.289062 457.65625 429.730469 451.292969 C 428.105469 447.238281 426.574219 443.402344 426.03125 440.550781 C 424.949219 434.789062 424.472656 429.050781 424.472656 423.207031 C 424.472656 410.820312 426.652344 398.019531 429.890625 383.667969 C 431.3125 377.414062 432.640625 369.304688 432.640625 360.867188 C 432.640625 347.359375 429.132812 333.0625 417.28125 324.070312 C 427.804688 318.808594 433.398438 321.574219 438.832031 325.792969 C 444.195312 329.96875 453.882812 336.984375 458.582031 337.023438 C 461.007812 337.039062 462.617188 335.707031 462.902344 333.46875 C 463.960938 325.195312 443.558594 298.773438 436.421875 296.984375 L 427.925781 294.707031 C 413.40625 290.691406 397.054688 286.308594 384.078125 291.546875 C 375.476562 278.28125 374.597656 277.535156 364.707031 273.085938 L 364.207031 272.867188 L 357.910156 269.871094 C 350.863281 266.398438 346.515625 264.28125 332.660156 263.441406 C 322.078125 253.40625 310.863281 246.867188 298.996094 239.992188 L 281.714844 229.519531 Z M 280.738281 231.203125 "/>
<path style=" stroke:none;fill-rule:nonzero;fill:rgb(92.156863%,74.901961%,16.862745%);fill-opacity:1;" d="M 428.902344 487.96875 C 428.835938 496.3125 423.117188 503.023438 416.15625 502.96875 C 409.207031 502.917969 403.613281 496.09375 403.679688 487.753906 C 403.761719 479.410156 409.464844 472.683594 416.425781 472.75 C 423.390625 472.820312 428.984375 479.628906 428.902344 487.96875 "/>
<path style=" stroke:none;fill-rule:nonzero;fill:rgb(0.784314%,1.960784%,1.960784%);fill-opacity:1;" d="M 416.183594 499.851562 C 410.953125 499.808594 406.742188 494.398438 406.796875 487.78125 C 406.863281 481.175781 411.15625 475.828125 416.398438 475.871094 C 419.121094 475.882812 421.085938 477.320312 422.265625 478.515625 C 424.542969 480.835938 425.828125 484.265625 425.789062 487.941406 C 425.734375 494.5625 421.425781 499.90625 416.183594 499.851562 M 400.578125 487.726562 C 400.484375 497.777344 407.472656 506.023438 416.128906 506.089844 C 424.796875 506.15625 431.921875 498.046875 432.019531 487.996094 C 432.074219 482.691406 430.136719 477.648438 426.707031 474.148438 C 423.878906 471.273438 420.234375 469.660156 416.453125 469.632812 C 407.785156 469.550781 400.660156 477.675781 400.578125 487.726562 "/>
<path style=" stroke:none;fill-rule:nonzero;fill:rgb(92.156863%,74.901961%,16.862745%);fill-opacity:1;" d="M 303.96875 321.640625 C 286.046875 327.203125 268.667969 335.734375 265.988281 356.527344 C 264.359375 369.140625 269.671875 390.421875 280.277344 397.8125 C 283.082031 390.082031 282.445312 383.207031 283.90625 375.164062 C 286.359375 361.570312 299.769531 357.125 311.921875 353.597656 C 328.339844 348.835938 330.75 344.019531 318.679688 330.890625 C 315.023438 326.917969 308.996094 319.851562 304.863281 321.601562 Z M 303.96875 321.640625 "/>
<path style=" stroke:none;fill-rule:nonzero;fill:rgb(92.156863%,74.901961%,16.862745%);fill-opacity:1;" d="M 352.03125 366.046875 C 358.167969 362.78125 381.371094 364.054688 372.160156 374.90625 C 367.363281 380.5625 352.164062 376.246094 351.855469 368.894531 Z M 352.03125 366.046875 "/>
</g>
</svg>
