<?xml version="1.0" encoding="UTF-8"?>
<svg xmlns="http://www.w3.org/2000/svg" xmlns:xlink="http://www.w3.org/1999/xlink" width="688pt" height="600pt" viewBox="0 0 688 600" version="1.1">
<g id="surface1">
<path style=" stroke:none;fill-rule:evenodd;fill:rgb(92.156863%,74.901961%,16.862745%);fill-opacity:1;" d="M 630.140625 559.800781 L 343.617188 62.921875 L 57.109375 559.800781 Z M 630.140625 559.800781 "/>
<path style=" stroke:none;fill-rule:evenodd;fill:rgb(0.784314%,1.960784%,1.960784%);fill-opacity:1;" d="M 667.554688 600.992188 C 678.527344 600.992188 687.25 592.257812 687.25 581.53125 C 687.25 577.527344 686.003906 573.785156 684.011719 570.53125 L 359.832031 8.734375 C 356.335938 3.242188 350.105469 0 343.617188 0 C 337.144531 0 330.910156 3.242188 327.160156 8.734375 L 3.238281 570.53125 C 1.246094 573.785156 0 577.527344 0 581.53125 C 0 592.257812 8.722656 600.992188 19.695312 600.992188 Z M 630.140625 559.800781 L 343.617188 62.921875 L 57.109375 559.800781 Z M 630.140625 559.800781 "/>
<path style=" stroke:none;fill-rule:evenodd;fill:rgb(0.784314%,1.960784%,1.960784%);fill-opacity:1;" d="M 248.402344 487.222656 L 248.296875 484.644531 L 248.050781 482.082031 L 247.589844 479.574219 L 246.941406 477.050781 L 246.140625 474.636719 L 245.140625 472.277344 L 243.976562 469.972656 L 242.675781 467.761719 L 241.210938 465.644531 L 239.597656 463.636719 L 237.851562 461.765625 L 235.984375 460.015625 L 233.976562 458.402344 L 231.863281 456.9375 L 229.65625 455.632812 L 227.394531 454.480469 L 225.039062 453.464844 L 222.574219 452.664062 L 220.105469 452.066406 L 217.546875 451.605469 L 215.027344 451.308594 L 212.46875 451.210938 L 209.851562 451.308594 L 207.347656 451.605469 L 204.773438 452.066406 L 202.320312 452.664062 L 199.855469 453.464844 L 197.5 454.480469 L 195.238281 455.632812 L 193.015625 456.9375 L 190.914062 458.402344 L 188.898438 460.015625 L 187.042969 461.765625 L 185.28125 463.636719 L 183.667969 465.644531 L 182.21875 467.761719 L 180.90625 469.972656 L 179.753906 472.277344 L 178.75 474.636719 L 177.953125 477.050781 L 177.289062 479.574219 L 176.839844 482.082031 L 176.585938 484.644531 L 176.488281 487.222656 L 176.585938 489.773438 L 176.839844 492.335938 L 177.289062 494.859375 L 177.953125 497.367188 L 178.75 499.78125 L 179.753906 502.199219 L 180.90625 504.460938 L 182.21875 506.671875 L 183.667969 508.789062 L 185.28125 510.796875 L 187.042969 512.667969 L 188.898438 514.417969 L 190.914062 516.03125 L 193.015625 517.484375 L 195.238281 518.800781 L 197.5 519.953125 L 199.855469 520.957031 L 202.320312 521.769531 L 204.773438 522.421875 L 207.347656 522.867188 L 209.851562 523.113281 L 212.46875 523.21875 L 215.027344 523.113281 L 217.546875 522.867188 L 220.105469 522.421875 L 222.574219 521.769531 L 225.039062 520.957031 L 227.394531 519.953125 L 229.65625 518.800781 L 231.863281 517.484375 L 233.976562 516.03125 L 235.984375 514.417969 L 237.851562 512.667969 L 239.597656 510.796875 L 241.210938 508.789062 L 242.675781 506.671875 L 243.976562 504.460938 L 245.140625 502.199219 L 246.140625 499.78125 L 246.941406 497.367188 L 247.589844 494.859375 L 248.050781 492.335938 L 248.296875 489.773438 Z M 406.742188 332.925781 L 406.242188 333.742188 L 405.535156 334.445312 L 404.738281 334.949219 L 403.882812 335.339844 L 402.921875 335.542969 L 401.972656 335.542969 L 401.011719 335.339844 L 400.105469 334.988281 L 399.304688 334.445312 L 398.65625 333.792969 L 398.097656 332.980469 L 397.746094 332.085938 L 397.542969 331.175781 L 397.542969 330.171875 L 397.691406 329.265625 L 398.097656 328.355469 L 399.601562 325.183594 L 400.972656 321.96875 L 402.164062 318.699219 L 403.125 315.335938 L 403.925781 311.917969 L 404.535156 308.445312 L 404.941406 304.972656 L 405.128906 301.460938 L 405.128906 297.988281 L 404.941406 294.460938 L 404.535156 290.988281 L 403.925781 287.515625 L 403.125 284.097656 L 402.164062 280.734375 L 400.972656 277.464844 L 399.601562 274.25 L 398.097656 271.078125 L 397.691406 270.167969 L 397.542969 269.21875 L 397.542969 268.269531 L 397.746094 267.308594 L 398.097656 266.453125 L 398.65625 265.652344 L 399.304688 264.945312 L 400.105469 264.445312 L 401.011719 264.09375 L 401.972656 263.890625 L 402.921875 263.890625 L 403.882812 264.09375 L 404.738281 264.445312 L 405.535156 264.988281 L 406.242188 265.691406 L 406.742188 266.507812 L 408.355469 269.777344 L 409.804688 273.085938 L 411.0625 276.515625 L 412.171875 279.976562 L 413.082031 283.5 L 413.828125 287.070312 L 414.382812 290.636719 L 414.734375 294.257812 L 414.9375 297.878906 L 414.9375 301.554688 L 414.734375 305.175781 L 414.382812 308.796875 L 413.828125 312.363281 L 413.082031 315.929688 L 412.171875 319.457031 L 411.0625 322.929688 L 409.804688 326.347656 L 408.355469 329.65625 Z M 389.011719 324.488281 L 390.363281 321.765625 L 391.625 318.996094 L 392.667969 316.136719 L 393.519531 313.21875 L 394.226562 310.304688 L 394.78125 307.292969 L 395.132812 304.265625 L 395.28125 301.257812 L 395.28125 298.175781 L 395.132812 295.167969 L 394.78125 292.15625 L 394.226562 289.128906 L 393.519531 286.214844 L 392.667969 283.296875 L 391.625 280.4375 L 390.363281 277.667969 L 389.011719 274.957031 L 388.453125 274.144531 L 387.75 273.4375 L 386.953125 272.9375 L 386.085938 272.582031 L 385.136719 272.394531 L 384.1875 272.394531 L 383.226562 272.582031 L 382.320312 272.988281 L 381.574219 273.546875 L 380.867188 274.195312 L 380.367188 274.996094 L 379.960938 275.90625 L 379.8125 276.855469 L 379.8125 277.820312 L 380.003906 278.769531 L 380.410156 279.675781 L 381.667969 282.144531 L 382.726562 284.707031 L 383.632812 287.367188 L 384.378906 290.039062 L 384.933594 292.75 L 385.285156 295.519531 L 385.488281 298.339844 L 385.488281 301.09375 L 385.285156 303.914062 L 384.933594 306.640625 L 384.378906 309.394531 L 383.632812 312.066406 L 382.726562 314.722656 L 381.667969 317.300781 L 380.410156 319.757812 L 380.003906 320.664062 L 379.8125 321.613281 L 379.8125 322.578125 L 379.960938 323.527344 L 380.367188 324.382812 L 380.867188 325.234375 L 381.574219 325.886719 L 382.320312 326.441406 L 383.226562 326.851562 L 384.1875 327 L 385.136719 327.054688 L 386.085938 326.851562 L 386.953125 326.496094 L 387.75 325.941406 L 388.453125 325.289062 Z M 371.15625 316.136719 L 372.320312 313.976562 L 373.378906 311.714844 L 374.175781 309.394531 L 374.828125 307.035156 L 375.34375 304.621094 L 375.585938 302.152344 L 375.695312 299.695312 L 375.585938 297.226562 L 375.34375 294.8125 L 374.828125 292.398438 L 374.175781 290.039062 L 373.378906 287.679688 L 372.320312 285.46875 L 371.15625 283.296875 L 370.5625 282.496094 L 369.855469 281.886719 L 369.058594 281.386719 L 368.148438 281.03125 L 367.203125 280.882812 L 366.238281 280.9375 L 365.292969 281.183594 L 364.4375 281.589844 L 363.625 282.1875 L 363.027344 282.890625 L 362.515625 283.703125 L 362.175781 284.601562 L 362.011719 285.5625 L 362.066406 286.511719 L 362.324219 287.476562 L 362.71875 288.328125 L 363.679688 290.09375 L 364.476562 291.953125 L 365.085938 293.808594 L 365.535156 295.761719 L 365.792969 297.730469 L 365.886719 299.695312 L 365.792969 301.703125 L 365.535156 303.671875 L 365.085938 305.625 L 364.476562 307.480469 L 363.679688 309.351562 L 362.71875 311.101562 L 362.324219 311.972656 L 362.066406 312.867188 L 362.011719 313.871094 L 362.175781 314.832031 L 362.515625 315.726562 L 363.027344 316.542969 L 363.625 317.234375 L 364.4375 317.84375 L 365.292969 318.25 L 366.238281 318.453125 L 367.203125 318.507812 L 368.148438 318.398438 L 369.058594 318.046875 L 369.855469 317.546875 L 370.5625 316.894531 Z M 369.761719 487.222656 L 369.652344 484.644531 L 369.355469 482.082031 L 368.910156 479.574219 L 368.300781 477.050781 L 367.445312 474.636719 L 366.496094 472.277344 L 365.332031 469.972656 L 364.03125 467.761719 L 362.570312 465.644531 L 360.96875 463.636719 L 359.210938 461.765625 L 357.339844 460.015625 L 355.335938 458.402344 L 353.222656 456.9375 L 351.015625 455.632812 L 348.699219 454.480469 L 346.339844 453.464844 L 343.929688 452.664062 L 341.410156 452.066406 L 338.90625 451.605469 L 336.34375 451.308594 L 333.785156 451.210938 L 331.210938 451.308594 L 328.648438 451.605469 L 326.144531 452.066406 L 323.679688 452.664062 L 321.214844 453.464844 L 318.855469 454.480469 L 316.539062 455.632812 L 314.332031 456.9375 L 312.21875 458.402344 L 310.253906 460.015625 L 308.359375 461.765625 L 306.597656 463.636719 L 304.984375 465.644531 L 303.523438 467.761719 L 302.222656 469.972656 L 301.070312 472.277344 L 300.109375 474.636719 L 299.308594 477.050781 L 298.644531 479.574219 L 298.199219 482.082031 L 297.941406 484.644531 L 297.847656 487.222656 L 297.941406 489.773438 L 298.199219 492.335938 L 298.644531 494.859375 L 299.308594 497.367188 L 300.109375 499.78125 L 301.070312 502.199219 L 302.222656 504.460938 L 303.523438 506.671875 L 304.984375 508.789062 L 306.597656 510.796875 L 308.359375 512.667969 L 310.253906 514.417969 L 312.21875 516.03125 L 314.332031 517.484375 L 316.539062 518.800781 L 318.855469 519.953125 L 321.214844 520.957031 L 323.679688 521.769531 L 326.144531 522.421875 L 328.648438 522.867188 L 331.210938 523.113281 L 333.785156 523.21875 L 336.34375 523.113281 L 338.90625 522.867188 L 341.410156 522.421875 L 343.929688 521.769531 L 346.339844 520.957031 L 348.699219 519.953125 L 351.015625 518.800781 L 353.222656 517.484375 L 355.335938 516.03125 L 357.339844 514.417969 L 359.210938 512.667969 L 360.96875 510.796875 L 362.570312 508.789062 L 364.03125 506.671875 L 365.332031 504.460938 L 366.496094 502.199219 L 367.445312 499.78125 L 368.300781 497.367188 L 368.910156 494.859375 L 369.355469 492.335938 L 369.652344 489.773438 Z M 348.699219 310.953125 L 348.699219 359.578125 L 383.632812 359.578125 L 418.757812 502.753906 L 373.675781 502.753906 L 372.621094 505.316406 L 371.375 507.839844 L 369.964844 510.199219 L 368.351562 512.519531 L 366.644531 514.730469 L 364.832031 516.792969 L 362.824219 518.746094 L 360.765625 520.546875 L 358.546875 522.214844 L 356.1875 523.777344 L 353.777344 525.132812 L 351.3125 526.339844 L 348.75 527.398438 L 346.082031 528.308594 L 343.429688 529.011719 L 340.707031 529.554688 L 337.941406 529.90625 L 335.179688 530.054688 L 332.414062 530.054688 L 329.613281 529.90625 L 326.890625 529.554688 L 324.125 529.011719 L 321.46875 528.308594 L 318.855469 527.398438 L 316.296875 526.339844 L 313.777344 525.132812 L 311.367188 523.777344 L 309.050781 522.214844 L 306.839844 520.546875 L 304.726562 518.746094 L 302.777344 516.792969 L 300.90625 514.730469 L 299.199219 512.519531 L 297.644531 510.199219 L 296.234375 507.839844 L 294.988281 505.316406 L 293.878906 502.753906 L 252.371094 502.753906 L 251.261719 505.316406 L 250.003906 507.839844 L 248.59375 510.199219 L 247.035156 512.519531 L 245.328125 514.730469 L 243.472656 516.792969 L 241.507812 518.746094 L 239.410156 520.546875 L 237.1875 522.214844 L 234.886719 523.777344 L 232.472656 525.132812 L 229.953125 526.339844 L 227.394531 527.398438 L 224.78125 528.308594 L 222.070312 529.011719 L 219.347656 529.554688 L 216.585938 529.90625 L 213.820312 530.054688 L 211.058594 530.054688 L 208.292969 529.90625 L 205.53125 529.554688 L 202.820312 529.011719 L 200.097656 528.308594 L 197.5 527.398438 L 194.925781 526.339844 L 192.417969 525.132812 L 190.007812 523.777344 L 187.691406 522.214844 L 185.484375 520.546875 L 183.371094 518.746094 L 181.40625 516.792969 L 179.550781 514.730469 L 177.84375 512.519531 L 176.285156 510.199219 L 174.878906 507.839844 L 173.617188 505.316406 L 172.519531 502.753906 L 153.21875 502.753906 L 153.21875 452.417969 L 206.792969 359.578125 L 338.902344 359.578125 L 338.902344 310.953125 L 337.550781 310.304688 L 336.34375 309.449219 L 335.179688 308.5 L 334.175781 307.386719 L 333.324219 306.179688 L 332.617188 304.878906 L 332.117188 303.46875 L 331.710938 302.003906 L 331.5625 300.550781 L 331.519531 299.046875 L 331.710938 297.582031 L 332.0625 296.117188 L 332.578125 294.71875 L 333.269531 293.402344 L 334.082031 292.15625 L 335.085938 291.042969 L 336.195312 290.09375 L 337.402344 289.238281 L 338.753906 288.535156 L 340.109375 287.976562 L 341.574219 287.625 L 343.023438 287.476562 L 344.527344 287.476562 L 345.988281 287.625 L 347.453125 287.976562 L 348.859375 288.535156 L 350.160156 289.238281 L 351.367188 290.09375 L 352.464844 291.042969 L 353.480469 292.15625 L 354.332031 293.402344 L 354.984375 294.71875 L 355.539062 296.117188 L 355.890625 297.582031 L 356.039062 299.046875 L 356.039062 300.550781 L 355.835938 302.003906 L 355.484375 303.46875 L 354.941406 304.878906 L 354.238281 306.179688 L 353.371094 307.386719 L 352.367188 308.5 L 351.257812 309.449219 L 350.011719 310.304688 Z M 210.707031 366.46875 L 378.253906 366.46875 L 410.007812 495.917969 L 375.734375 495.917969 L 376.183594 493.097656 L 376.492188 490.328125 L 376.589844 487.523438 L 376.546875 484.699219 L 376.289062 481.894531 L 375.84375 479.125 L 375.179688 476.34375 L 374.433594 473.644531 L 373.433594 471.015625 L 372.265625 468.464844 L 370.96875 465.941406 L 369.503906 463.527344 L 367.851562 461.261719 L 366.089844 459.050781 L 364.179688 456.992188 L 362.121094 455.078125 L 359.953125 453.273438 L 357.652344 451.605469 L 355.28125 450.15625 L 352.828125 448.796875 L 350.253906 447.644531 L 347.601562 446.628906 L 344.933594 445.828125 L 342.167969 445.175781 L 339.40625 444.730469 L 336.585938 444.417969 L 333.785156 444.324219 L 330.964844 444.417969 L 328.148438 444.730469 L 325.386719 445.175781 L 322.675781 445.828125 L 319.953125 446.628906 L 317.351562 447.644531 L 314.777344 448.796875 L 312.273438 450.15625 L 309.902344 451.605469 L 307.640625 453.273438 L 305.433594 455.078125 L 303.425781 456.992188 L 301.464844 459.050781 L 299.703125 461.261719 L 298.105469 463.527344 L 296.585938 465.941406 L 295.285156 468.464844 L 294.132812 471.015625 L 293.171875 473.644531 L 292.375 476.34375 L 291.710938 479.125 L 291.316406 481.894531 L 291.019531 484.699219 L 290.964844 487.523438 L 291.058594 490.328125 L 291.359375 493.097656 L 291.871094 495.917969 L 254.378906 495.917969 L 254.878906 493.097656 L 255.136719 490.328125 L 255.285156 487.523438 L 255.175781 484.699219 L 254.933594 481.894531 L 254.484375 479.125 L 253.875 476.34375 L 253.078125 473.644531 L 252.0625 471.015625 L 250.964844 468.464844 L 249.609375 465.941406 L 248.148438 463.527344 L 246.535156 461.261719 L 244.734375 459.050781 L 242.824219 456.992188 L 240.765625 455.078125 L 238.597656 453.273438 L 236.335938 451.605469 L 233.921875 450.15625 L 231.457031 448.796875 L 228.898438 447.644531 L 226.285156 446.628906 L 223.574219 445.828125 L 220.8125 445.175781 L 218.046875 444.730469 L 215.230469 444.417969 L 212.46875 444.324219 L 209.648438 444.417969 L 206.84375 444.730469 L 204.082031 445.175781 L 201.304688 445.828125 L 198.597656 446.628906 L 195.980469 447.644531 L 193.421875 448.796875 L 190.957031 450.15625 L 188.546875 451.605469 L 186.28125 453.273438 L 184.128906 455.078125 L 182.070312 456.992188 L 180.160156 459.050781 L 178.34375 461.261719 L 176.746094 463.527344 L 175.285156 465.941406 L 173.929688 468.464844 L 172.816406 471.015625 L 171.816406 473.644531 L 171.015625 476.34375 L 170.40625 479.125 L 169.960938 481.894531 L 169.703125 484.699219 L 169.609375 487.523438 L 169.757812 490.328125 L 170 493.097656 L 170.515625 495.917969 L 160.097656 495.917969 L 160.097656 454.277344 Z M 210.707031 366.46875 "/>
<path style=" stroke:none;fill-rule:evenodd;fill:rgb(0.784314%,1.960784%,1.960784%);fill-opacity:1;" d="M 397.449219 382.363281 L 383.78125 388.550781 L 414.53125 456.433594 L 428.15625 450.25 Z M 397.449219 382.363281 "/>
<path style=" stroke:none;fill-rule:evenodd;fill:rgb(0.784314%,1.960784%,1.960784%);fill-opacity:1;" d="M 388.347656 462.46875 L 404.480469 506.78125 L 388.402344 512.613281 L 372.265625 468.355469 Z M 388.347656 462.46875 "/>
<path style=" stroke:none;fill-rule:evenodd;fill:rgb(0.784314%,1.960784%,1.960784%);fill-opacity:1;" d="M 410.96875 510.199219 L 316.851562 510.199219 L 316.851562 527.289062 L 410.96875 527.289062 Z M 410.96875 510.199219 "/>
<path style=" stroke:none;fill-rule:evenodd;fill:rgb(0.784314%,1.960784%,1.960784%);fill-opacity:1;" d="M 332.671875 469.320312 L 378.105469 457.140625 L 382.523438 473.6875 L 337.046875 485.851562 Z M 332.671875 469.320312 "/>
<path style=" stroke:none;fill-rule:evenodd;fill:rgb(0.784314%,1.960784%,1.960784%);fill-opacity:1;" d="M 454.382812 465.035156 L 418.253906 523.273438 L 389.160156 505.167969 L 425.285156 446.980469 Z M 454.382812 465.035156 "/>
<path style=" stroke:none;fill-rule:evenodd;fill:rgb(0.784314%,1.960784%,1.960784%);fill-opacity:1;" d="M 519.011719 441.554688 L 454.085938 477.960938 L 446.742188 464.882812 L 511.722656 428.480469 Z M 519.011719 441.554688 "/>
<path style=" stroke:none;fill-rule:evenodd;fill:rgb(0.784314%,1.960784%,1.960784%);fill-opacity:1;" d="M 428.863281 453.328125 L 428.753906 452.160156 L 428.457031 451.007812 L 427.996094 449.953125 L 427.398438 448.949219 L 426.640625 448.039062 L 425.746094 447.292969 L 424.730469 446.628906 L 423.675781 446.234375 L 422.523438 445.9375 L 421.371094 445.828125 L 420.164062 445.9375 L 419.054688 446.234375 L 417.957031 446.628906 L 416.941406 447.292969 L 416.035156 448.039062 L 415.289062 448.949219 L 414.679688 449.953125 L 414.234375 451.007812 L 413.933594 452.160156 L 413.882812 453.328125 L 413.933594 454.523438 L 414.234375 455.632812 L 414.679688 456.746094 L 415.289062 457.75 L 416.035156 458.660156 L 416.941406 459.40625 L 417.957031 460.015625 L 419.054688 460.460938 L 420.164062 460.761719 L 421.371094 460.816406 L 422.523438 460.761719 L 423.675781 460.460938 L 424.730469 460.015625 L 425.746094 459.40625 L 426.640625 458.660156 L 427.398438 457.75 L 427.996094 456.746094 L 428.457031 455.632812 L 428.753906 454.523438 Z M 428.863281 453.328125 "/>
<path style=" stroke:none;fill-rule:evenodd;fill:rgb(0.784314%,1.960784%,1.960784%);fill-opacity:1;" d="M 398.097656 385.484375 L 398.003906 384.277344 L 397.746094 383.125 L 397.300781 382.066406 L 396.648438 381.0625 L 395.890625 380.152344 L 394.984375 379.394531 L 394.035156 378.796875 L 392.925781 378.335938 L 391.773438 378.039062 L 390.609375 377.996094 L 389.457031 378.039062 L 388.304688 378.335938 L 387.195312 378.796875 L 386.191406 379.394531 L 385.339844 380.152344 L 384.527344 381.0625 L 383.929688 382.066406 L 383.46875 383.125 L 383.226562 384.277344 L 383.117188 385.484375 L 383.226562 386.636719 L 383.46875 387.789062 L 383.929688 388.847656 L 384.527344 389.867188 L 385.339844 390.761719 L 386.191406 391.519531 L 387.195312 392.117188 L 388.304688 392.578125 L 389.457031 392.875 L 390.609375 392.972656 L 391.773438 392.875 L 392.925781 392.578125 L 394.035156 392.117188 L 394.984375 391.519531 L 395.890625 390.761719 L 396.648438 389.867188 L 397.300781 388.847656 L 397.746094 387.789062 L 398.003906 386.636719 Z M 398.097656 385.484375 "/>
<path style=" stroke:none;fill-rule:evenodd;fill:rgb(0.784314%,1.960784%,1.960784%);fill-opacity:1;" d="M 522.871094 435.019531 L 522.777344 433.863281 L 522.476562 432.699219 L 522.015625 431.652344 L 521.421875 430.636719 L 520.664062 429.742188 L 519.769531 428.980469 L 518.753906 428.386719 L 517.695312 427.925781 L 516.542969 427.625 L 515.394531 427.53125 L 514.1875 427.625 L 513.078125 427.925781 L 511.964844 428.386719 L 510.964844 428.980469 L 510.070312 429.742188 L 509.3125 430.636719 L 508.703125 431.652344 L 508.253906 432.699219 L 507.957031 433.863281 L 507.902344 435.019531 L 507.957031 436.226562 L 508.253906 437.324219 L 508.703125 438.4375 L 509.3125 439.441406 L 510.070312 440.347656 L 510.964844 441.09375 L 511.964844 441.703125 L 513.078125 442.152344 L 514.1875 442.464844 L 515.394531 442.503906 L 516.542969 442.464844 L 517.695312 442.152344 L 518.753906 441.703125 L 519.769531 441.09375 L 520.664062 440.347656 L 521.421875 439.441406 L 522.015625 438.4375 L 522.476562 437.324219 L 522.777344 436.226562 Z M 522.871094 435.019531 "/>
<path style=" stroke:none;fill-rule:evenodd;fill:rgb(0.784314%,1.960784%,1.960784%);fill-opacity:1;" d="M 457.90625 471.421875 L 457.796875 470.269531 L 457.550781 469.117188 L 457.09375 468.003906 L 456.441406 467 L 455.695312 466.144531 L 454.828125 465.332031 L 453.828125 464.734375 L 452.730469 464.289062 L 451.566406 464.03125 L 450.414062 463.933594 L 449.261719 464.03125 L 448.097656 464.289062 L 447 464.734375 L 445.996094 465.332031 L 445.132812 466.144531 L 444.332031 467 L 443.722656 468.003906 L 443.273438 469.117188 L 443.019531 470.269531 L 442.921875 471.421875 L 443.019531 472.589844 L 443.273438 473.742188 L 443.722656 474.855469 L 444.332031 475.855469 L 445.132812 476.710938 L 445.996094 477.511719 L 447 478.109375 L 448.097656 478.570312 L 449.261719 478.8125 L 450.414062 478.910156 L 451.566406 478.8125 L 452.730469 478.570312 L 453.828125 478.109375 L 454.828125 477.511719 L 455.695312 476.710938 L 456.441406 475.855469 L 457.09375 474.855469 L 457.550781 473.742188 L 457.796875 472.589844 Z M 457.90625 471.421875 "/>
<path style=" stroke:none;fill-rule:evenodd;fill:rgb(0.784314%,1.960784%,1.960784%);fill-opacity:1;" d="M 464.988281 439.644531 L 464.878906 437.988281 L 464.582031 436.320312 L 464.136719 434.664062 L 463.484375 433.160156 L 462.671875 431.652344 L 461.726562 430.285156 L 460.558594 429.035156 L 459.3125 427.925781 L 457.945312 426.976562 L 456.496094 426.121094 L 454.9375 425.511719 L 453.328125 425.007812 L 451.671875 424.765625 L 450.007812 424.65625 L 448.300781 424.765625 L 446.648438 425.007812 L 445.035156 425.511719 L 443.476562 426.121094 L 442.015625 426.976562 L 440.660156 427.925781 L 439.414062 429.035156 L 438.304688 430.285156 L 437.300781 431.652344 L 436.488281 433.160156 L 435.839844 434.664062 L 435.390625 436.320312 L 435.132812 437.988281 L 435.039062 439.644531 L 435.132812 441.296875 L 435.390625 442.964844 L 435.839844 444.566406 L 436.488281 446.125 L 437.300781 447.644531 L 438.304688 449 L 439.414062 450.25 L 440.660156 451.363281 L 442.015625 452.3125 L 443.476562 453.164062 L 445.035156 453.777344 L 446.648438 454.277344 L 448.300781 454.523438 L 450.007812 454.628906 L 451.671875 454.523438 L 453.328125 454.277344 L 454.9375 453.777344 L 456.496094 453.164062 L 457.945312 452.3125 L 459.3125 451.363281 L 460.558594 450.25 L 461.726562 449 L 462.671875 447.644531 L 463.484375 446.125 L 464.136719 444.566406 L 464.582031 442.964844 L 464.878906 441.296875 Z M 464.988281 439.644531 "/>
<path style=" stroke:none;fill-rule:evenodd;fill:rgb(0.784314%,1.960784%,1.960784%);fill-opacity:1;" d="M 343.429688 477.566406 L 343.320312 476.34375 L 343.078125 475.152344 L 342.628906 473.984375 L 342.074219 472.941406 L 341.316406 471.976562 L 340.460938 471.070312 L 339.5 470.363281 L 338.402344 469.765625 L 337.292969 469.359375 L 336.085938 469.117188 L 334.882812 469.007812 L 333.621094 469.117188 L 332.46875 469.359375 L 331.320312 469.765625 L 330.261719 470.363281 L 329.257812 471.070312 L 328.40625 471.976562 L 327.648438 472.941406 L 327.09375 473.984375 L 326.644531 475.152344 L 326.386719 476.34375 L 326.292969 477.566406 L 326.386719 478.761719 L 326.644531 479.980469 L 327.09375 481.132812 L 327.648438 482.191406 L 328.40625 483.195312 L 329.257812 484.050781 L 330.261719 484.753906 L 331.320312 485.351562 L 332.46875 485.8125 L 333.621094 486.058594 L 334.882812 486.164062 L 336.085938 486.058594 L 337.292969 485.8125 L 338.402344 485.351562 L 339.5 484.753906 L 340.460938 484.050781 L 341.316406 483.195312 L 342.074219 482.191406 L 342.628906 481.132812 L 343.078125 479.980469 L 343.320312 478.761719 Z M 343.429688 477.566406 "/>
<path style=" stroke:none;fill-rule:evenodd;fill:rgb(0.784314%,1.960784%,1.960784%);fill-opacity:1;" d="M 325.4375 518.746094 L 325.332031 517.539062 L 325.085938 516.332031 L 324.625 515.175781 L 324.085938 514.121094 L 323.328125 513.117188 L 322.472656 512.261719 L 321.46875 511.554688 L 320.414062 510.945312 L 319.25 510.496094 L 318.097656 510.253906 L 316.839844 510.199219 L 315.632812 510.253906 L 314.425781 510.496094 L 313.328125 510.945312 L 312.21875 511.554688 L 311.269531 512.261719 L 310.402344 513.117188 L 309.660156 514.121094 L 309.101562 515.175781 L 308.644531 516.332031 L 308.398438 517.539062 L 308.304688 518.746094 L 308.398438 519.953125 L 308.644531 521.160156 L 309.101562 522.3125 L 309.660156 523.371094 L 310.402344 524.332031 L 311.269531 525.226562 L 312.21875 525.933594 L 313.328125 526.542969 L 314.425781 526.9375 L 315.632812 527.25 L 316.839844 527.304688 L 318.097656 527.25 L 319.25 526.9375 L 320.414062 526.542969 L 321.46875 525.933594 L 322.472656 525.226562 L 323.328125 524.332031 L 324.085938 523.371094 L 324.625 522.3125 L 325.085938 521.160156 L 325.332031 519.953125 Z M 325.4375 518.746094 "/>
<path style=" stroke:none;fill-rule:evenodd;fill:rgb(0.784314%,1.960784%,1.960784%);fill-opacity:1;" d="M 419.5 518.746094 L 419.460938 517.539062 L 419.203125 516.332031 L 418.757812 515.175781 L 418.148438 514.121094 L 417.441406 513.117188 L 416.589844 512.261719 L 415.585938 511.554688 L 414.53125 510.945312 L 413.378906 510.496094 L 412.171875 510.253906 L 410.96875 510.199219 L 409.761719 510.253906 L 408.558594 510.496094 L 407.390625 510.945312 L 406.347656 511.554688 L 405.386719 512.261719 L 404.480469 513.117188 L 403.773438 514.121094 L 403.179688 515.175781 L 402.773438 516.332031 L 402.515625 517.539062 L 402.421875 518.746094 L 402.515625 519.953125 L 402.773438 521.160156 L 403.179688 522.3125 L 403.773438 523.371094 L 404.480469 524.332031 L 405.386719 525.226562 L 406.347656 525.933594 L 407.390625 526.542969 L 408.558594 526.9375 L 409.761719 527.25 L 410.96875 527.304688 L 412.171875 527.25 L 413.378906 526.9375 L 414.53125 526.542969 L 415.585938 525.933594 L 416.589844 525.226562 L 417.441406 524.332031 L 418.148438 523.371094 L 418.757812 522.3125 L 419.203125 521.160156 L 419.460938 519.953125 Z M 419.5 518.746094 "/>
<path style=" stroke:none;fill-rule:evenodd;fill:rgb(0.784314%,1.960784%,1.960784%);fill-opacity:1;" d="M 404.980469 509.699219 L 404.886719 508.492188 L 404.628906 507.285156 L 404.222656 506.128906 L 403.625 505.074219 L 402.921875 504.109375 L 402.015625 503.199219 L 401.066406 502.507812 L 400.007812 501.898438 L 398.859375 501.492188 L 397.652344 501.195312 L 396.445312 501.152344 L 395.226562 501.195312 L 394.035156 501.492188 L 392.871094 501.898438 L 391.8125 502.507812 L 390.8125 503.199219 L 389.957031 504.109375 L 389.253906 505.074219 L 388.65625 506.128906 L 388.25 507.285156 L 387.953125 508.492188 L 387.898438 509.699219 L 387.953125 510.90625 L 388.25 512.113281 L 388.65625 513.265625 L 389.253906 514.324219 L 389.957031 515.328125 L 390.8125 516.179688 L 391.8125 516.886719 L 392.871094 517.484375 L 394.035156 517.945312 L 395.226562 518.1875 L 396.445312 518.242188 L 397.652344 518.1875 L 398.859375 517.945312 L 400.007812 517.484375 L 401.066406 516.886719 L 402.015625 516.179688 L 402.921875 515.328125 L 403.625 514.324219 L 404.222656 513.265625 L 404.628906 512.113281 L 404.886719 510.90625 Z M 404.980469 509.699219 "/>
<path style=" stroke:none;fill-rule:evenodd;fill:rgb(0.784314%,1.960784%,1.960784%);fill-opacity:1;" d="M 388.902344 465.441406 L 388.808594 464.234375 L 388.550781 463.027344 L 388.101562 461.875 L 387.546875 460.816406 L 386.789062 459.8125 L 385.933594 458.957031 L 384.933594 458.253906 L 383.875 457.65625 L 382.726562 457.195312 L 381.574219 456.9375 L 380.3125 456.839844 L 379.109375 456.9375 L 377.902344 457.195312 L 376.792969 457.65625 L 375.695312 458.253906 L 374.734375 458.957031 L 373.878906 459.8125 L 373.121094 460.816406 L 372.523438 461.875 L 372.117188 463.027344 L 371.875 464.234375 L 371.765625 465.441406 L 371.875 466.648438 L 372.117188 467.855469 L 372.523438 469.007812 L 373.121094 470.066406 L 373.878906 471.015625 L 374.734375 471.925781 L 375.695312 472.628906 L 376.792969 473.238281 L 377.902344 473.644531 L 379.109375 473.890625 L 380.3125 473.984375 L 381.574219 473.890625 L 382.726562 473.644531 L 383.875 473.238281 L 384.933594 472.628906 L 385.933594 471.925781 L 386.789062 471.015625 L 387.546875 470.066406 L 388.101562 469.007812 L 388.550781 467.855469 L 388.808594 466.648438 Z M 388.902344 465.441406 "/>
<path style=" stroke:none;fill-rule:evenodd;fill:rgb(92.156863%,74.901961%,16.862745%);fill-opacity:1;" d="M 368.351562 477.472656 L 368.976562 479.980469 L 369.410156 482.488281 L 369.652344 485.09375 L 369.695312 487.65625 L 369.597656 490.207031 L 369.261719 492.769531 L 368.785156 495.28125 L 368.148438 497.789062 L 367.296875 500.191406 L 366.28125 502.5625 L 365.128906 504.828125 L 363.773438 507.039062 L 362.285156 509.113281 L 360.632812 511.09375 L 358.898438 512.980469 L 356.972656 514.714844 L 354.957031 516.304688 L 352.828125 517.753906 L 350.609375 519.003906 L 348.304688 520.167969 L 345.933594 521.078125 L 343.480469 521.90625 L 340.976562 522.472656 L 338.46875 522.921875 L 335.910156 523.152344 L 333.308594 523.207031 L 330.75 523.113281 L 328.203125 522.773438 L 325.695312 522.285156 L 323.230469 521.660156 L 320.78125 520.792969 L 318.410156 519.773438 L 316.148438 518.621094 L 313.925781 517.265625 L 311.867188 515.773438 L 309.886719 514.132812 L 308.003906 512.355469 L 306.3125 510.472656 L 304.726562 508.449219 L 303.277344 506.320312 L 301.976562 504.054688 L 300.867188 501.789062 L 299.90625 499.375 L 299.132812 496.90625 L 298.550781 494.410156 L 298.117188 491.902344 L 297.886719 489.339844 L 297.832031 486.789062 L 297.925781 484.183594 L 298.265625 481.621094 L 298.753906 479.113281 L 299.417969 476.65625 L 300.242188 474.1875 L 301.261719 471.828125 L 302.410156 469.5625 L 303.765625 467.339844 L 305.257812 465.277344 L 306.894531 463.296875 L 308.683594 461.464844 L 310.550781 459.714844 L 312.585938 458.128906 L 314.699219 456.679688 L 316.972656 455.390625 L 319.234375 454.277344 L 321.648438 453.316406 L 324.097656 452.542969 L 326.5625 451.957031 L 329.109375 451.523438 L 331.671875 451.28125 L 334.21875 451.238281 L 336.777344 451.335938 L 339.335938 451.671875 L 341.882812 452.148438 L 344.347656 452.828125 L 346.761719 453.640625 L 349.117188 454.65625 L 351.433594 455.863281 L 353.601562 457.222656 L 355.671875 458.714844 L 357.652344 460.355469 L 359.535156 462.089844 L 332.632812 469.277344 L 331.480469 469.714844 L 330.410156 470.242188 L 329.410156 470.960938 L 328.542969 471.789062 L 327.769531 472.75 L 327.132812 473.808594 L 326.699219 474.960938 L 326.414062 476.128906 L 326.265625 477.335938 L 326.375 478.582031 L 326.5625 479.789062 L 326.996094 480.945312 L 327.523438 482.015625 L 328.242188 483.019531 L 329.070312 483.886719 L 330.03125 484.660156 L 331.089844 485.285156 L 332.253906 485.71875 L 333.402344 486.015625 L 334.609375 486.109375 L 335.855469 486.058594 L 337.074219 485.867188 Z M 368.351562 477.472656 "/>
</g>
</svg>
