<svg viewBox="0 0 600 524" xmlns="http://www.w3.org/2000/svg" stroke-width="4" stroke="#000"> <path d="m300 16 284 492h-568z" fill="#F9A800" stroke-linejoin="round" stroke-width="32"/><path d="m418 422c-22 16-12 20 0 25 16 7 13 6 23 13l-249-1s12-16 34-15c48 1 69-5 77-12l28 12s10-16 12-19c21-11 33-10 54-25 0 0 35 7 21 22zm-166-22 1-72-35-19c-10-3-10-2-20 0 0 0 20-16 23-15 4 2 29 14 29 14s-2-19-9-25c-7-5-33-26-33-26v-5l36 22c0-23-9-36-19-56l2-2 18 27 6-19 3-1s-4 27-1 35 15 52 15 52l18-25c0-19-2-38-3-58h3l5 36 29-33v4s-28 35-27 43 3 12-2 23-8 19-8 19 15-18 21-19c7-1 16 0 23-5 6-6 21-23 21-23l-24 37s-11 1-16 6c-4 5-23 26-23 26v49l31 15-37 6-10 13-12-11-34 3zm-61-45 177 1"/><path d="m303 432-19-9c20-1 38-10 48-24 9-12 39-63 80-59-2 5-9 17-9 17l29-9s-1 28-35 52" fill="none"/><path d="m406 371a3 2 0 1 0 0-.1z"/></svg>
