<?xml version="1.0" encoding="UTF-8"?>
<svg xmlns="http://www.w3.org/2000/svg" xmlns:xlink="http://www.w3.org/1999/xlink" width="688pt" height="600pt" viewBox="0 0 688 600" version="1.1">
<g id="surface1">
<path style=" stroke:none;fill-rule:evenodd;fill:rgb(92.156863%,74.901961%,16.862745%);fill-opacity:1;" d="M 630.152344 559.800781 L 343.632812 62.90625 L 57.109375 559.800781 Z M 630.152344 559.800781 "/>
<path style=" stroke:none;fill-rule:evenodd;fill:rgb(0.784314%,1.960784%,1.960784%);fill-opacity:1;" d="M 667.554688 600.992188 C 678.527344 600.992188 687.261719 592.257812 687.261719 581.515625 C 687.261719 577.527344 686.015625 573.785156 684.011719 570.53125 L 359.847656 8.734375 C 356.351562 3.242188 350.121094 0 343.632812 0 C 337.144531 0 330.910156 3.242188 327.171875 8.734375 L 3.25 570.53125 C 1.257812 573.785156 0 577.527344 0 581.515625 C 0 592.257812 8.738281 600.992188 19.710938 600.992188 Z M 630.152344 559.800781 L 343.632812 62.90625 L 57.109375 559.800781 Z M 630.152344 559.800781 "/>
<path style=" stroke:none;fill-rule:evenodd;fill:rgb(0.784314%,1.960784%,1.960784%);fill-opacity:1;" d="M 356.308594 339.9375 L 356.121094 340.523438 L 355.972656 341.105469 L 355.878906 341.703125 L 355.878906 342.828125 L 355.929688 343.613281 L 356.027344 344.441406 L 356.214844 345.335938 L 356.511719 346.21875 L 356.8125 347.140625 L 357.203125 348.078125 L 357.636719 349.109375 L 358.367188 347.875 L 359.507812 346.558594 L 360.78125 345.378906 L 362.148438 344.347656 L 363.476562 343.613281 L 364.898438 343.019531 L 366.375 342.582031 L 367.890625 342.378906 L 369.410156 342.339844 L 367.988281 339.789062 L 367.296875 338.554688 L 366.660156 337.375 L 366.023438 336.25 L 365.480469 335.21875 L 364.9375 334.335938 L 364.503906 333.507812 L 363.328125 333.605469 L 362.109375 333.902344 L 360.96875 334.335938 L 359.941406 335.027344 L 359.058594 335.816406 L 357.988281 337.089844 L 357.054688 338.460938 Z M 369.84375 347.289062 L 370.046875 347.832031 L 370.332031 348.46875 L 370.628906 349.160156 L 370.980469 349.988281 L 371.375 350.871094 L 371.753906 351.847656 L 372.199219 352.835938 L 372.648438 353.910156 L 373.566406 356.121094 L 374.503906 358.386719 L 375.476562 360.636719 L 376.371094 362.792969 L 376.5625 363.917969 L 376.765625 365.003906 L 376.953125 365.980469 L 377.101562 366.863281 L 377.253906 367.554688 L 377.292969 367.839844 L 377.347656 368.097656 L 377.347656 368.285156 L 377.402344 368.433594 L 377.402344 368.53125 L 377.441406 368.625 L 377.496094 368.828125 L 377.589844 369.222656 L 377.683594 369.65625 L 377.835938 370.292969 L 377.984375 370.984375 L 378.171875 371.773438 L 378.375 372.652344 L 378.566406 373.628906 L 378.824219 374.660156 L 379.109375 375.785156 L 379.351562 376.925781 L 379.894531 379.328125 L 380.488281 381.824219 L 381.070312 384.277344 L 381.613281 386.730469 L 381.910156 387.859375 L 382.15625 388.984375 L 382.398438 390.070312 L 382.589844 391.046875 L 382.832031 391.925781 L 383.035156 392.769531 L 383.183594 393.5 L 383.320312 394.136719 L 383.46875 394.679688 L 383.578125 395.074219 L 383.617188 395.371094 L 383.617188 395.996094 L 383.578125 396.539062 L 383.578125 397.269531 L 383.523438 398.167969 L 383.46875 399.195312 L 383.429688 400.363281 L 383.375 401.636719 L 383.320312 403.0625 L 383.226562 404.539062 L 383.1875 406.101562 L 383.089844 407.769531 L 382.941406 411.214844 L 382.644531 418.265625 L 382.496094 421.710938 L 382.398438 423.328125 L 382.347656 424.898438 L 382.25 426.417969 L 382.199219 427.789062 L 382.15625 429.0625 L 382.101562 430.242188 L 382.046875 431.21875 L 382.007812 432.101562 L 382.007812 432.792969 L 381.953125 433.335938 L 381.953125 433.824219 L 381.914062 433.917969 L 381.914062 434.070312 L 381.859375 434.3125 L 381.804688 434.664062 L 381.765625 435.003906 L 381.65625 435.4375 L 381.617188 435.925781 L 381.519531 436.46875 L 381.414062 437.066406 L 381.316406 437.746094 L 381.222656 438.4375 L 381.074219 439.222656 L 380.832031 440.835938 L 380.53125 442.695312 L 380.195312 444.660156 L 379.894531 446.820312 L 379.503906 449.082031 L 379.164062 451.484375 L 378.773438 453.992188 L 378.324219 456.53125 L 377.933594 459.1875 L 377.539062 461.886719 L 376.660156 467.378906 L 375.832031 472.929688 L 374.992188 478.421875 L 374.207031 483.710938 L 373.8125 486.21875 L 373.476562 488.660156 L 373.136719 490.96875 L 372.839844 493.179688 L 372.539062 495.238281 L 372.296875 497.152344 L 372.054688 498.914062 L 371.863281 500.488281 L 371.808594 501.179688 L 371.753906 501.96875 L 371.808594 502.996094 L 371.902344 504.070312 L 372.054688 505.289062 L 372.296875 506.621094 L 372.539062 508.042969 L 372.894531 509.5625 L 373.285156 511.191406 L 373.773438 512.898438 L 374.261719 514.714844 L 374.855469 516.628906 L 375.480469 518.636719 L 376.171875 520.753906 L 376.957031 522.964844 L 377.78125 525.253906 L 378.675781 527.617188 L 379.597656 530.109375 L 334.855469 530.109375 L 334.355469 528.699219 L 333.921875 527.371094 L 333.472656 526.152344 L 333.039062 524.96875 L 332.59375 523.886719 L 332.160156 522.855469 L 331.714844 521.933594 L 331.320312 520.996094 L 330.480469 519.273438 L 329.652344 517.714844 L 327.988281 514.609375 L 327.933594 514.566406 L 327.839844 514.378906 L 327.59375 513.875 L 327.296875 513.347656 L 327.203125 513.199219 L 327.148438 513.089844 L 325.929688 510.796875 L 324.898438 508.492188 L 324.058594 506.28125 L 323.328125 504.027344 L 322.789062 501.871094 L 322.394531 499.660156 L 322.203125 497.449219 L 322.109375 495.238281 L 322.152344 493.476562 L 322.300781 491.753906 L 322.503906 489.9375 L 322.839844 488.132812 L 323.234375 486.316406 L 323.667969 484.402344 L 324.265625 482.488281 L 324.902344 480.523438 L 325.632812 478.515625 L 326.417969 476.398438 L 327.296875 474.242188 L 328.234375 472.03125 L 329.261719 469.726562 L 330.386719 467.378906 L 331.523438 464.925781 L 332.785156 462.375 L 337.6875 452.570312 L 342.742188 442.84375 L 347.941406 433.1875 L 347.984375 433.039062 L 348.089844 432.792969 L 348.1875 432.453125 L 348.335938 432.0625 L 348.46875 431.519531 L 348.671875 430.976562 L 348.917969 430.339844 L 349.105469 429.660156 L 349.363281 428.875 L 349.648438 428.085938 L 350.191406 426.417969 L 351.421875 422.785156 L 352.003906 420.964844 L 352.589844 419.203125 L 353.128906 417.589844 L 353.386719 416.800781 L 353.617188 416.109375 L 353.875 415.472656 L 354.066406 414.890625 L 354.214844 414.347656 L 354.363281 413.953125 L 354.457031 413.5625 L 354.550781 413.316406 L 354.605469 413.167969 L 354.660156 413.125 L 354.660156 412.921875 L 354.699219 412.773438 L 354.753906 412.542969 L 354.847656 412.246094 L 354.890625 411.851562 L 355 411.457031 L 355.09375 410.96875 L 355.1875 410.375 L 355.335938 409.789062 L 355.429688 409.152344 L 355.582031 408.40625 L 355.6875 407.675781 L 355.972656 406.007812 L 356.269531 404.1875 L 356.570312 402.234375 L 356.851562 400.175781 L 357.109375 397.964844 L 357.355469 395.710938 L 357.542969 393.351562 L 357.691406 391.003906 L 357.789062 388.589844 L 357.789062 386.136719 L 357.84375 383.980469 L 357.84375 383.597656 L 357.992188 381.578125 L 357.992188 381.386719 L 358.179688 379.421875 L 358.480469 377.605469 L 358.519531 377.414062 L 358.871094 375.839844 L 358.910156 375.636719 L 359.304688 374.265625 L 359.847656 372.84375 L 359.996094 372.503906 L 360.386719 371.71875 L 361.023438 370.6875 L 361.757812 369.804688 L 362.636719 368.976562 L 363.625 368.285156 L 364.65625 367.742188 L 365.78125 367.40625 L 366.511719 367.253906 L 367.296875 367.308594 L 367.988281 367.554688 L 370.589844 388.402344 L 371.171875 412.191406 L 366.265625 434.664062 L 371.078125 435.683594 L 376.074219 412.636719 L 375.480469 388.0625 L 372.59375 364.855469 L 371.660156 364.011719 L 370.628906 363.375 L 369.503906 362.847656 L 368.273438 362.496094 L 367.054688 362.34375 L 365.78125 362.398438 L 364.546875 362.644531 L 362.894531 363.1875 L 361.269531 363.972656 L 360.972656 362.304688 L 360.78125 360.730469 L 360.632812 359.253906 L 360.632812 356.757812 L 360.726562 355.726562 L 360.875 354.75 L 361.066406 353.8125 L 361.324219 352.933594 L 361.660156 352.105469 L 362 351.359375 L 362.449219 350.679688 L 363.570312 349.5 L 364.84375 348.46875 L 365.78125 347.925781 L 366.753906 347.589844 L 367.746094 347.34375 L 368.8125 347.25 Z M 369.84375 347.289062 "/>
<path style=" stroke:none;fill-rule:evenodd;fill:rgb(0.784314%,1.960784%,1.960784%);fill-opacity:1;" d="M 248.972656 286.308594 L 252.753906 287.691406 L 256.421875 289.265625 L 260 290.976562 L 263.480469 292.886719 L 266.921875 294.949219 L 270.253906 297.160156 L 273.492188 299.507812 L 276.578125 302.015625 L 279.558594 304.660156 L 282.457031 307.414062 L 285.207031 310.300781 L 287.796875 313.339844 L 290.246094 316.488281 L 292.550781 319.730469 L 294.757812 323.050781 L 296.777344 326.539062 L 298.589844 330.066406 L 300.296875 333.660156 L 301.816406 337.375 L 303.195312 341.105469 L 304.375 344.945312 L 305.390625 348.808594 L 306.175781 352.6875 L 306.867188 356.664062 L 307.316406 360.582031 L 307.597656 364.609375 L 307.75 368.585938 L 307.652344 372.558594 L 307.410156 376.574219 L 306.964844 380.492188 L 306.378906 384.46875 L 305.59375 388.402344 L 305.445312 389.378906 L 305.539062 390.367188 L 305.785156 391.289062 L 306.273438 392.171875 L 306.867188 392.917969 L 307.652344 393.554688 L 308.535156 393.988281 L 309.46875 394.234375 L 310.445312 394.339844 L 311.433594 394.191406 L 312.355469 393.894531 L 313.195312 393.40625 L 313.925781 392.714844 L 314.507812 391.925781 L 315.007812 391.25 L 315.589844 390.707031 L 316.28125 390.257812 L 317.066406 390.015625 L 317.855469 389.878906 L 318.679688 389.917969 L 319.464844 390.109375 L 320.195312 390.460938 L 320.886719 390.949219 L 321.429688 391.585938 L 321.824219 392.28125 L 322.554688 394.136719 L 323.097656 396.050781 L 323.433594 398.070312 L 323.582031 400.023438 L 323.488281 402.03125 L 323.042969 405.910156 L 322.363281 409.789062 L 321.472656 413.613281 L 320.441406 417.34375 L 319.222656 421.074219 L 317.746094 424.695312 L 316.132812 428.277344 L 314.371094 431.761719 L 312.410156 435.152344 L 310.253906 438.382812 L 309.023438 440.050781 L 307.652344 441.570312 L 306.175781 442.992188 L 304.605469 444.269531 L 303.78125 444.769531 L 302.84375 445.054688 L 301.910156 445.203125 L 300.933594 445.109375 L 300.054688 444.863281 L 299.226562 444.363281 L 298.484375 443.78125 L 297.902344 443.292969 L 297.265625 442.953125 L 296.53125 442.695312 L 295.789062 442.613281 L 294.71875 442.695312 L 293.675781 442.992188 L 292.753906 443.496094 L 291.875 444.078125 L 291.128906 444.863281 L 290.546875 445.746094 L 290.152344 446.722656 L 289.910156 447.753906 L 289.21875 451.929688 L 288.390625 456 L 287.402344 460.070312 L 286.222656 464.097656 L 284.855469 468.058594 L 283.394531 471.992188 L 281.671875 475.855469 L 279.859375 479.601562 L 277.851562 483.316406 L 275.738281 486.898438 L 273.4375 490.4375 L 270.984375 493.816406 L 268.382812 497.097656 L 265.6875 500.339844 L 262.84375 503.390625 L 259.863281 506.335938 L 256.777344 509.167969 L 254.566406 510.933594 L 252.265625 512.601562 L 249.855469 514.078125 L 247.359375 515.355469 L 244.761719 516.535156 L 242.066406 517.46875 L 239.367188 518.242188 L 236.578125 518.839844 L 232.554688 519.476562 L 228.492188 519.910156 L 224.375 520.210938 L 220.296875 520.25 L 216.179688 520.210938 L 212.113281 519.910156 L 208.050781 519.476562 L 203.972656 518.839844 L 201.238281 518.242188 L 198.488281 517.46875 L 195.832031 516.535156 L 193.246094 515.355469 L 190.738281 514.078125 L 188.289062 512.601562 L 185.984375 510.933594 L 183.832031 509.167969 L 180.648438 506.28125 L 177.601562 503.28125 L 174.714844 500.09375 L 171.964844 496.851562 L 169.324219 493.476562 L 166.871094 489.988281 L 164.515625 486.355469 L 162.359375 482.679688 L 160.34375 478.910156 L 158.539062 475.03125 L 156.820312 471.109375 L 155.34375 467.082031 L 154.03125 463.011719 L 152.851562 458.890625 L 151.875 454.726562 L 144.914062 466.835938 L 146.375 471.203125 L 148.042969 475.519531 L 149.859375 479.789062 L 151.917969 483.953125 L 154.070312 488.023438 L 156.425781 491.996094 L 158.972656 495.875 L 161.671875 499.660156 L 164.515625 503.28125 L 167.507812 506.824219 L 170.636719 510.199219 L 173.929688 513.441406 L 177.355469 516.574219 L 179.765625 518.542969 L 182.257812 520.359375 L 184.914062 522.027344 L 187.597656 523.546875 L 190.402344 524.875 L 193.285156 526.042969 L 196.226562 527.074219 L 199.21875 527.859375 L 202.265625 528.496094 L 206.722656 529.230469 L 211.234375 529.730469 L 215.746094 530.015625 L 220.296875 530.109375 L 224.808594 530.015625 L 229.316406 529.730469 L 233.828125 529.230469 L 238.339844 528.496094 L 241.375 527.859375 L 244.367188 527.074219 L 247.308594 526.042969 L 250.152344 524.875 L 252.941406 523.546875 L 255.691406 522.027344 L 258.292969 520.359375 L 260.839844 518.542969 L 263.195312 516.574219 L 266.570312 513.535156 L 269.804688 510.292969 L 272.894531 506.957031 L 275.835938 503.527344 L 278.679688 499.945312 L 281.335938 496.269531 L 283.828125 492.445312 L 286.183594 488.566406 L 288.335938 484.59375 L 290.34375 480.480469 L 292.210938 476.359375 L 293.878906 472.085938 L 295.355469 467.8125 L 296.667969 463.445312 L 297.792969 459.039062 L 298.726562 454.578125 L 300.054688 454.914062 L 301.382812 455.066406 L 302.75 455.011719 L 304.078125 454.820312 L 305.839844 454.332031 L 307.558594 453.695312 L 309.171875 452.855469 L 310.742188 451.878906 L 312.207031 450.792969 L 313.886719 449.230469 L 315.496094 447.605469 L 316.960938 445.839844 L 318.339844 443.984375 L 320.550781 440.648438 L 322.554688 437.203125 L 324.464844 433.632812 L 326.183594 430.039062 L 327.703125 426.324219 L 329.070312 422.539062 L 330.300781 418.714844 L 331.277344 414.835938 L 332.15625 410.914062 L 332.792969 406.941406 L 333.296875 402.96875 L 333.390625 400.867188 L 333.335938 398.695312 L 333.148438 396.59375 L 332.792969 394.476562 L 332.308594 392.429688 L 331.671875 390.40625 L 331.035156 388.984375 L 330.300781 387.667969 L 329.367188 386.433594 L 328.285156 385.308594 L 327.117188 384.371094 L 325.847656 383.542969 L 324.410156 382.800781 L 322.945312 382.269531 L 321.429688 381.875 L 319.914062 381.578125 L 318.339844 381.484375 L 316.769531 381.523438 L 317.21875 377.304688 L 317.460938 373.101562 L 317.554688 368.871094 L 317.460938 364.652344 L 317.164062 360.433594 L 316.714844 356.214844 L 316.09375 352.050781 L 315.253906 347.875 L 314.222656 343.804688 L 313.046875 339.734375 L 311.71875 335.707031 L 310.160156 331.785156 L 308.492188 327.90625 L 306.625 324.136719 L 304.566406 320.40625 L 302.410156 316.773438 L 300.054688 313.300781 L 297.546875 309.867188 L 294.90625 306.574219 L 292.15625 303.386719 L 289.21875 300.292969 L 286.183594 297.402344 L 283.039062 294.609375 L 279.761719 291.910156 L 276.320312 289.402344 L 272.839844 287.054688 L 269.222656 284.84375 L 265.539062 282.78125 L 261.773438 280.925781 L 257.898438 279.203125 L 253.972656 277.628906 Z M 248.972656 286.308594 "/>
<path style=" stroke:none;fill-rule:evenodd;fill:rgb(0.784314%,1.960784%,1.960784%);fill-opacity:1;" d="M 456.226562 484.15625 L 453.730469 479.546875 L 451.375 474.878906 L 449.222656 470.078125 L 447.257812 465.222656 L 445.441406 460.3125 L 443.832031 455.347656 L 442.355469 450.304688 L 441.132812 445.203125 L 440.050781 440.105469 L 439.171875 434.894531 L 438.535156 429.753906 L 438.046875 424.507812 L 437.75 419.296875 L 437.652344 414.050781 L 437.75 408.8125 L 438.046875 403.566406 L 438.535156 398.355469 L 439.171875 393.160156 L 440.050781 388.007812 L 441.132812 382.851562 L 442.355469 377.808594 L 443.832031 372.75 L 445.441406 367.742188 L 447.257812 362.847656 L 449.222656 357.992188 L 451.375 353.230469 L 453.730469 348.566406 L 456.226562 343.953125 L 456.617188 343.070312 L 456.863281 342.136719 L 456.863281 341.160156 L 456.710938 340.222656 L 456.375 339.300781 L 455.886719 338.515625 L 455.207031 337.824219 L 454.410156 337.238281 L 453.542969 336.847656 L 452.59375 336.644531 L 451.617188 336.601562 L 450.683594 336.738281 L 449.804688 337.089844 L 448.976562 337.632812 L 448.285156 338.269531 L 447.703125 339.042969 L 445.199219 343.65625 L 442.839844 348.320312 L 440.648438 353.082031 L 438.628906 357.882812 L 436.773438 362.792969 L 435.09375 367.742188 L 433.574219 372.75 L 432.261719 377.808594 L 431.082031 382.90625 L 430.109375 388.007812 L 429.269531 393.203125 L 428.632812 398.410156 L 428.183594 403.605469 L 427.898438 408.8125 L 427.847656 414.050781 L 427.898438 419.257812 L 428.183594 424.507812 L 428.632812 429.703125 L 429.269531 434.894531 L 430.109375 440.050781 L 431.082031 445.203125 L 432.261719 450.304688 L 433.574219 455.347656 L 435.09375 460.367188 L 436.773438 465.320312 L 438.628906 470.175781 L 440.648438 475.03125 L 442.839844 479.789062 L 445.199219 484.441406 L 447.703125 489.015625 L 448.285156 489.800781 L 448.976562 490.480469 L 449.804688 490.96875 L 450.683594 491.320312 L 451.617188 491.46875 L 452.59375 491.46875 L 453.542969 491.226562 L 454.410156 490.816406 L 455.207031 490.289062 L 455.886719 489.597656 L 456.375 488.769531 L 456.710938 487.886719 L 456.863281 486.898438 L 456.863281 485.976562 L 456.617188 485.039062 Z M 424.609375 507.851562 L 421.722656 502.847656 L 418.917969 497.75 L 416.332031 492.59375 L 413.878906 487.292969 L 411.617188 481.945312 L 409.519531 476.550781 L 407.609375 471.109375 L 405.886719 465.5625 L 404.316406 459.972656 L 402.894531 454.332031 L 401.714844 448.636719 L 400.6875 442.953125 L 399.859375 437.203125 L 399.222656 431.421875 L 398.722656 425.632812 L 398.480469 419.839844 L 398.382812 414.050781 L 398.480469 408.257812 L 398.722656 402.425781 L 399.222656 396.632812 L 399.859375 390.894531 L 400.6875 385.160156 L 401.714844 379.421875 L 402.894531 373.777344 L 404.316406 368.136719 L 405.886719 362.550781 L 407.609375 357 L 409.519531 351.507812 L 411.617188 346.109375 L 413.878906 340.765625 L 416.332031 335.515625 L 418.917969 330.324219 L 421.722656 325.222656 L 424.609375 320.21875 L 425.203125 319.472656 L 425.9375 318.792969 L 426.777344 318.304688 L 427.65625 318.007812 L 428.632812 317.859375 L 429.566406 317.910156 L 430.488281 318.15625 L 431.382812 318.589844 L 432.167969 319.1875 L 432.789062 319.863281 L 433.292969 320.707031 L 433.574219 321.640625 L 433.726562 322.5625 L 433.683594 323.554688 L 433.441406 324.476562 L 433.046875 325.316406 L 430.148438 330.214844 L 427.453125 335.179688 L 424.960938 340.222656 L 422.605469 345.378906 L 420.394531 350.585938 L 418.390625 355.875 L 416.574219 361.21875 L 414.910156 366.617188 L 413.433594 372.070312 L 412.121094 377.5625 L 411.035156 383.097656 L 410.101562 388.699219 L 409.316406 394.285156 L 408.789062 399.929688 L 408.382812 405.570312 L 408.191406 411.214844 L 408.191406 416.855469 L 408.382812 422.539062 L 408.789062 428.183594 L 409.316406 433.769531 L 410.101562 439.414062 L 411.035156 444.960938 L 412.121094 450.507812 L 413.433594 456 L 414.910156 461.492188 L 416.574219 466.890625 L 418.390625 472.234375 L 420.394531 477.484375 L 422.605469 482.734375 L 424.960938 487.832031 L 427.453125 492.894531 L 430.148438 497.882812 L 433.046875 502.738281 L 433.441406 503.621094 L 433.683594 504.558594 L 433.726562 505.546875 L 433.574219 506.46875 L 433.292969 507.40625 L 432.789062 508.191406 L 432.167969 508.925781 L 431.382812 509.519531 L 430.488281 509.902344 L 429.566406 510.144531 L 428.632812 510.199219 L 427.65625 510.105469 L 426.777344 509.765625 L 425.9375 509.261719 L 425.203125 508.625 Z M 470.9375 470.023438 L 468.78125 465.65625 L 466.816406 461.25 L 465.003906 456.734375 L 463.390625 452.175781 L 461.96875 447.511719 L 460.734375 442.84375 L 459.664062 438.136719 L 458.824219 433.335938 L 458.148438 428.519531 L 457.648438 423.71875 L 457.363281 418.90625 L 457.253906 414.050781 L 457.363281 409.207031 L 457.648438 404.335938 L 458.148438 399.535156 L 458.824219 394.734375 L 459.664062 389.972656 L 460.734375 385.265625 L 461.96875 380.546875 L 463.390625 375.9375 L 465.003906 371.378906 L 466.816406 366.863281 L 468.78125 362.453125 L 470.9375 358.085938 L 471.421875 357.246094 L 472.113281 356.566406 L 472.898438 356.023438 L 473.78125 355.671875 L 474.714844 355.441406 L 475.691406 355.441406 L 476.625 355.632812 L 477.546875 355.972656 L 478.34375 356.511719 L 479.023438 357.207031 L 479.5625 357.992188 L 479.957031 358.875 L 480.148438 359.796875 L 480.148438 360.785156 L 479.996094 361.707031 L 479.617188 362.589844 L 477.652344 366.617188 L 475.839844 370.6875 L 474.214844 374.808594 L 472.75 379.027344 L 471.421875 383.246094 L 470.300781 387.574219 L 469.308594 391.925781 L 468.539062 396.292969 L 467.902344 400.714844 L 467.453125 405.125 L 467.15625 409.585938 L 467.117188 414.050781 L 467.15625 418.523438 L 467.453125 422.933594 L 467.902344 427.394531 L 468.539062 431.761719 L 469.308594 436.183594 L 470.300781 440.496094 L 471.421875 444.8125 L 472.75 449.082031 L 474.214844 453.300781 L 475.839844 457.425781 L 477.652344 461.492188 L 479.617188 465.46875 L 479.996094 466.390625 L 480.148438 467.324219 L 480.148438 468.300781 L 479.957031 469.238281 L 479.5625 470.121094 L 479.023438 470.90625 L 478.34375 471.597656 L 477.546875 472.085938 L 476.625 472.480469 L 475.691406 472.628906 L 474.714844 472.628906 L 473.78125 472.425781 L 472.898438 472.03125 L 472.113281 471.503906 L 471.421875 470.8125 Z M 470.9375 470.023438 "/>
</g>
</svg>
