<?xml version="1.0" encoding="UTF-8" standalone="no"?>
<!-- Created by Cary Bass http://commons.wikipedia.com/wiki/User:Bastique on January 20, 2006 -->

<svg
   xmlns:dc="http://purl.org/dc/elements/1.1/"
   xmlns:cc="http://creativecommons.org/ns#"
   xmlns:rdf="http://www.w3.org/1999/02/22-rdf-syntax-ns#"
   xmlns:svg="http://www.w3.org/2000/svg"
   xmlns="http://www.w3.org/2000/svg"
   xmlns:sodipodi="http://sodipodi.sourceforge.net/DTD/sodipodi-0.dtd"
   xmlns:inkscape="http://www.inkscape.org/namespaces/inkscape"
   version="1.1"
   width="600"
   height="525"
   id="svg3069"
   inkscape:version="0.48.3.1 r9886"
   sodipodi:docname="ISO 7010 W011.svg">
  <metadata
     id="metadata3085">
    <rdf:RDF>
      <cc:Work
         rdf:about="">
        <dc:format>image/svg+xml</dc:format>
        <dc:type
           rdf:resource="http://purl.org/dc/dcmitype/StillImage" />
        <dc:title></dc:title>
      </cc:Work>
    </rdf:RDF>
  </metadata>
  <sodipodi:namedview
     pagecolor="#ffffff"
     bordercolor="#666666"
     borderopacity="1"
     objecttolerance="10"
     gridtolerance="10"
     guidetolerance="10"
     inkscape:pageopacity="0"
     inkscape:pageshadow="2"
     inkscape:window-width="1366"
     inkscape:window-height="716"
     id="namedview3083"
     showgrid="true"
     inkscape:zoom="0.97"
     inkscape:cx="233.11782"
     inkscape:cy="138.78866"
     inkscape:window-x="-8"
     inkscape:window-y="-8"
     inkscape:window-maximized="1"
     inkscape:current-layer="svg3069"
     showguides="true"
     inkscape:guide-bbox="true">
    <inkscape:grid
       type="xygrid"
       id="grid2988" />
    <sodipodi:guide
       orientation="1,0"
       position="300,230"
       id="guide3253" />
    <sodipodi:guide
       position="0,0"
       orientation="0,600"
       id="guide3344" />
    <sodipodi:guide
       position="600,0"
       orientation="-525,0"
       id="guide3346" />
    <sodipodi:guide
       position="600,525"
       orientation="0,-600"
       id="guide3348" />
    <sodipodi:guide
       position="0,525"
       orientation="525,0"
       id="guide3350" />
  </sodipodi:namedview>
  <defs
     id="defs3073" />
  <path
     inkscape:connector-curvature="0"
     id="sign_border"
     d="M 597.6,499.6 313.8,8 C 310.9,3 305.6,0 299.9,0 294.2,0 288.9,3.1 286,8 L 2.2,499.6 c -2.9,5 -2.9,11.1 0,16 2.9,5 8.2,8 13.9,8 h 567.6 c 5.7,0 11,-3.1 13.9,-8 2.9,-5 2.9,-11.1 0,-16 z" />
  <polygon
     transform="matrix(1,0,0,0.99591458,0.125,2.0332437)"
     style="fill:#f6bd16;fill-opacity:1;stroke:none;overflow:visible"
     id="polygon7"
     points="555.875,491.5 43.875,491.5 299.875,48.2 " />
  <path
     inkscape:connector-curvature="0"
     style="fill:none;stroke:#000000;stroke-width:1px;stroke-linecap:butt;stroke-linejoin:miter;stroke-opacity:1"
     d="m -729.35696,-165.50763 c 0.0679,-0.0509 0,0.16968 0,0 z"
     id="path1965" />
  <path
     style="fill:#000000;fill-opacity:1;fill-rule:evenodd;stroke:#000000;stroke-width:1.04826057px;stroke-linecap:butt;stroke-linejoin:miter;stroke-opacity:1"
     d="m 290.48435,168.61048 -50.51092,171.94072 73.87885,-38.09379 -15.80744,115.72278 -15.10334,-22.05969 11.64027,72.56433 42.35765,-61.18092 -21.4523,13.33856 44.53945,-163.98217 -79.65065,43.86557 58.29504,-132.17388 -48.18661,0.0585 z"
     id="path1933"
     sodipodi:nodetypes="cccccccccccc"
     inkscape:connector-curvature="0" />
</svg>
