<?xml version="1.0" encoding="UTF-8"?>
<svg xmlns="http://www.w3.org/2000/svg" xmlns:xlink="http://www.w3.org/1999/xlink" width="688pt" height="600pt" viewBox="0 0 688 600" version="1.1">
<g id="surface1">
<path style=" stroke:none;fill-rule:evenodd;fill:rgb(92.156863%,74.901961%,16.862745%);fill-opacity:1;" d="M 630.152344 559.800781 L 343.632812 62.90625 L 57.109375 559.800781 Z M 630.152344 559.800781 "/>
<path style=" stroke:none;fill-rule:evenodd;fill:rgb(0.784314%,1.960784%,1.960784%);fill-opacity:1;" d="M 667.554688 600.992188 C 678.527344 600.992188 687.261719 592.257812 687.261719 581.515625 C 687.261719 577.527344 686.015625 573.785156 684.011719 570.53125 L 359.847656 8.734375 C 356.351562 3.242188 350.121094 0 343.632812 0 C 337.144531 0 330.910156 3.242188 327.171875 8.734375 L 3.25 570.53125 C 1.257812 573.785156 0 577.527344 0 581.515625 C 0 592.257812 8.738281 600.992188 19.710938 600.992188 Z M 630.152344 559.800781 L 343.632812 62.90625 L 57.109375 559.800781 Z M 630.152344 559.800781 "/>
<path style="fill-rule:evenodd;fill:rgb(0.784314%,1.960784%,1.960784%);fill-opacity:1;stroke-width:0.215738;stroke-linecap:round;stroke-linejoin:miter;stroke:rgb(0.784314%,1.960784%,1.960784%);stroke-opacity:1;stroke-miterlimit:22.926;" d="M 46.273583 135.647995 L 46.648692 135.76162 L 46.99226 135.84712 L 47.308794 135.933745 L 47.609557 135.976495 L 47.867515 136.007995 L 48.097311 135.992245 L 48.312464 135.960745 L 48.538881 135.917995 L 48.785574 135.832495 L 49.054797 135.73462 L 49.328525 135.632245 L 49.629288 135.503995 L 49.960465 135.37462 L 50.30516 135.26212 L 50.675763 135.143995 L 51.062137 135.058495 L 51.508212 135.015745 L 51.937391 135.015745 L 52.38234 135.047245 L 52.796875 135.132745 L 53.199019 135.23062 L 53.601163 135.34762 L 54.375036 135.589495 L 54.74564 135.70312 L 55.090334 135.80437 L 55.421512 135.88987 L 55.738045 135.960745 L 56.007267 135.992245 L 56.253961 136.007995 L 56.469113 135.992245 L 56.69891 135.94837 L 56.941097 135.875245 L 57.183285 135.78862 L 57.457013 135.690745 L 57.742006 135.578245 L 58.058539 135.44887 L 58.386337 135.31612 L 58.745676 135.202495 L 59.133176 135.101245 L 59.55109 135.031495 L 59.980269 135.00337 L 60.425218 135.015745 L 60.839753 135.089995 L 61.257667 135.175495 L 61.644041 135.27337 L 62.417914 135.51862 L 62.804288 135.632245 L 63.160247 135.74587 L 63.503815 135.84712 L 63.820349 135.917995 L 64.121112 135.976495 L 64.39484 136.00687 L 64.640407 136.00687 L 64.866824 135.976495 L 65.097747 135.917995 L 65.355705 135.84712 L 65.613663 135.74587 L 65.902035 135.63337 L 66.187028 135.519745 L 66.500182 135.39037 L 66.847129 135.26212 L 67.203089 135.159745 L 67.605233 135.074245 L 68.023147 135.015745 L 68.464717 135.004495 L 68.895022 135.047245 L 69.32758 135.116995 L 69.726344 135.21937 L 70.515988 135.44887 L 71.277471 135.69187 L 71.632304 135.80437 L 71.964608 135.890995 L 72.281141 135.949495 L 72.566134 135.992245 L 72.824092 136.007995 L 73.039244 135.992245 L 73.269041 135.949495 L 73.511228 135.890995 L 73.753416 135.80437 L 74.027144 135.70312 L 74.316642 135.578245 L 74.617406 135.461245 L 74.945203 135.33187 L 75.304542 135.21937 L 75.690916 135.116995 L 76.105451 135.047245 L 76.534629 135.004495 L 76.980705 135.015745 L 77.409884 135.074245 L 77.827798 135.159745 L 78.226562 135.27337 L 78.628706 135.39037 L 79.390189 135.63337 L 79.746148 135.74587 L 80.094222 135.84712 L 80.40625 135.917995 L 80.707013 135.976495 L 80.980741 136.007995 L 81.210538 136.007995 L 81.441461 135.976495 L 81.667878 135.917995 L 81.914571 135.84712 L 82.171403 135.76162 L 82.441751 135.647995 L 82.730124 135.535495 L 83.046657 135.402745 L 83.374455 135.27337 L 83.73492 135.159745 L 84.121294 135.074245 L 84.550472 135.015745 L 84.980778 135.004495 L 85.425727 135.047245 L 85.840262 135.116995 L 86.258176 135.20362 L 86.655814 135.31612 L 87.445458 135.562495 L 87.820567 135.69187 L 88.1754 135.789745 L 88.507703 135.875245 L 88.824237 135.949495 L 89.10923 135.992245 L 89.367188 136.007995 L 89.367188 137.897995 L 88.922238 137.86762 L 88.480669 137.80912 L 88.062754 137.711245 L 87.648219 137.59762 L 86.843932 137.351245 L 86.472202 137.238745 L 86.097093 137.12512 L 85.441497 136.952995 L 85.151999 136.910245 L 84.909811 136.894495 L 84.680015 136.894495 L 84.449092 136.937245 L 84.206904 136.995745 L 83.961337 137.06662 L 83.703379 137.16787 L 83.418387 137.281495 L 83.117624 137.409745 L 82.80109 137.53912 L 82.457522 137.668495 L 82.070022 137.765245 L 81.667878 137.85187 L 81.468496 137.86762 L 81.238699 137.88337 L 80.792624 137.88337 L 80.351054 137.823745 L 79.93314 137.738245 L 79.519731 137.64037 L 78.714317 137.39512 L 77.97311 137.16787 L 77.625036 137.06662 L 77.297238 136.979995 L 77.012246 136.921495 L 76.754288 136.894495 L 76.507594 136.894495 L 76.265407 136.921495 L 76.01984 136.96537 L 75.777653 137.05087 L 75.503924 137.13637 L 75.230196 137.25337 L 74.929433 137.366995 L 74.617406 137.49637 L 74.285102 137.62462 L 73.914499 137.738245 L 73.526999 137.823745 L 73.109084 137.88337 L 72.895058 137.897995 L 72.667515 137.88337 L 72.222565 137.85187 L 71.777616 137.780995 L 71.363081 137.679745 L 70.945167 137.56612 L 70.543023 137.43787 L 70.160029 137.324245 L 69.78492 137.19487 L 69.425581 137.09362 L 69.097783 137.00812 L 68.79702 136.937245 L 68.523292 136.910245 L 68.281105 136.894495 L 68.051308 136.910245 L 67.820385 136.952995 L 67.578198 137.00812 L 67.32024 137.10937 L 67.046512 137.21062 L 66.745749 137.324245 L 66.444985 137.45362 L 66.113808 137.58187 L 65.757849 137.695495 L 65.371475 137.796745 L 64.953561 137.86762 L 64.738408 137.88337 L 64.511991 137.897995 L 64.065916 137.86762 L 63.620967 137.80912 L 63.191788 137.711245 L 62.773874 137.60887 L 62.375109 137.48062 L 61.98423 137.366995 L 61.613626 137.238745 L 61.257667 137.12512 L 60.909593 137.03962 L 60.597565 136.96537 L 60.323837 136.910245 L 60.08165 136.894495 L 59.851853 136.894495 L 59.60516 136.937245 L 59.362972 136.995745 L 59.105015 137.06662 L 58.832413 137.16787 L 58.54742 137.281495 L 58.245531 137.409745 L 57.930124 137.53912 L 57.585429 137.652745 L 57.214826 137.765245 L 56.812682 137.839495 L 56.60992 137.86762 L 56.394767 137.88337 L 55.937427 137.88337 L 55.508249 137.823745 L 55.077943 137.753995 L 54.660029 137.64037 L 54.261265 137.52337 L 53.484012 137.281495 L 53.113408 137.16787 L 52.76984 137.06662 L 52.453307 136.98112 L 52.152544 136.921495 L 51.894586 136.894495 L 51.652398 136.894495 L 51.405705 136.921495 L 51.163517 136.96537 L 50.917951 137.03962 L 50.648728 137.13637 L 50.375 137.254495 L 50.074237 137.366995 L 49.757703 137.49637 L 49.429906 137.60887 L 49.070567 137.722495 L 48.683067 137.823745 L 48.269658 137.88337 L 47.824709 137.88337 L 47.378634 137.85187 L 46.949455 137.780995 L 46.51915 137.679745 L 46.117006 137.56612 L 45.328488 137.324245 Z M 46.273583 135.647995 " transform="matrix(3.467742,0,0,3.472222,0,0.0000173611)"/>
<path style="fill-rule:evenodd;fill:rgb(0.784314%,1.960784%,1.960784%);fill-opacity:1;stroke-width:0.215738;stroke-linecap:round;stroke-linejoin:miter;stroke:rgb(0.784314%,1.960784%,1.960784%);stroke-opacity:1;stroke-miterlimit:22.926;" d="M 43.926054 139.78912 L 44.886919 140.046745 L 45.843278 140.30437 L 46.316388 140.417995 L 46.750073 140.53162 L 47.148837 140.61712 L 47.335828 140.64862 L 47.508176 140.67562 L 47.652362 140.70262 L 47.796548 140.71837 L 48.011701 140.71837 L 48.195313 140.70262 L 48.398074 140.65987 L 48.597456 140.61712 L 48.812609 140.546245 L 49.054797 140.460745 L 49.300363 140.36287 L 49.558321 140.24587 L 49.82867 140.14462 L 50.117042 140.030995 L 50.433576 139.929745 L 50.777144 139.83187 L 51.136483 139.77337 L 51.508212 139.73062 L 51.910356 139.71487 L 52.280959 139.75762 L 52.656068 139.81612 L 53.012028 139.886995 L 53.371366 139.988245 L 54.058503 140.20312 L 54.718605 140.40562 L 55.035138 140.503495 L 55.320131 140.59012 L 55.605124 140.64862 L 55.867587 140.69137 L 56.094004 140.71837 L 56.296766 140.71837 L 56.496148 140.70262 L 56.69891 140.65987 L 56.898292 140.604745 L 57.113445 140.53162 L 57.355632 140.444995 L 57.59782 140.34712 L 57.859157 140.24587 L 58.132885 140.132245 L 58.429142 140.015245 L 58.745676 139.91737 L 59.090371 139.83187 L 59.449709 139.75762 L 59.820313 139.73062 L 60.211192 139.71487 L 60.597565 139.75762 L 60.953525 139.81612 L 61.312863 139.902745 L 61.672202 140.003995 L 62.343568 140.20312 L 63.00367 140.417995 L 63.605196 140.59012 L 63.894695 140.64862 L 64.152653 140.69137 L 64.39484 140.71837 L 64.594222 140.71837 L 64.796984 140.69137 L 65.012137 140.65987 L 65.226163 140.60587 L 65.441315 140.53162 L 65.683503 140.433745 L 65.930196 140.332495 L 66.187028 140.23462 L 66.457376 140.11762 L 66.761519 140.015245 L 67.074673 139.91737 L 67.40585 139.81612 L 67.765189 139.75762 L 68.136919 139.73062 L 68.539062 139.73062 L 68.909666 139.75762 L 69.284775 139.83187 L 69.640734 139.91737 L 70.000073 140.003995 L 70.687209 140.21887 L 71.347311 140.433745 L 71.648074 140.519245 L 71.948837 140.59012 L 72.222565 140.65987 L 72.496294 140.70262 L 72.722711 140.71837 L 72.925472 140.71837 L 73.124855 140.69137 L 73.324237 140.64862 L 73.526999 140.59012 L 73.753416 140.519245 L 73.984339 140.433745 L 74.242297 140.33137 L 74.500254 140.21887 L 74.788626 140.105245 L 75.08939 140.003995 L 75.405923 139.902745 L 75.749491 139.81612 L 76.105451 139.75762 L 76.491824 139.71487 L 76.882703 139.73062 L 77.269077 139.77337 L 77.625036 139.83187 L 78.000145 139.91737 L 78.343714 140.015245 L 79.03085 140.23462 L 79.676308 140.433745 L 79.991715 140.53162 L 80.277834 140.60587 L 80.550436 140.65987 L 80.792624 140.70262 L 81.023547 140.71837 L 81.226308 140.71837 L 81.42569 140.69137 L 81.640843 140.64862 L 81.840225 140.59012 L 82.070022 140.519245 L 82.300945 140.417995 L 82.543132 140.32012 L 82.543132 142.339495 L 82.229978 142.43737 L 81.898801 142.52287 L 81.539462 142.582495 L 81.151962 142.609495 L 80.765589 142.593745 L 80.394985 142.550995 L 80.019876 142.48012 L 79.660538 142.39462 L 78.96101 142.195495 L 78.300908 141.98062 L 77.984375 141.87937 L 77.683612 141.792745 L 77.394113 141.722995 L 77.140661 141.664495 L 76.893968 141.62062 L 76.679942 141.60937 L 76.48056 141.60937 L 76.265407 141.63637 L 76.062645 141.680245 L 75.836228 141.738745 L 75.621076 141.808495 L 75.375509 141.909745 L 75.133321 141.99637 L 74.875363 142.10887 L 74.601635 142.222495 L 74.316642 142.323745 L 74.000109 142.42612 L 73.672311 142.508245 L 73.324237 142.566745 L 72.953634 142.609495 L 72.566134 142.593745 L 72.17976 142.566745 L 71.804651 142.49587 L 71.434048 142.41037 L 70.730015 142.211245 L 70.058648 141.99637 L 69.742115 141.89512 L 69.425581 141.808495 L 69.140589 141.738745 L 68.86686 141.664495 L 68.624673 141.621745 L 68.410647 141.60937 L 68.206759 141.60937 L 67.809121 141.664495 L 67.589462 141.722995 L 67.375436 141.792745 L 67.147892 141.87937 L 66.902326 141.98062 L 66.644368 142.094245 L 66.359375 142.195495 L 66.069876 142.30912 L 65.773619 142.41037 L 65.441315 142.49587 L 65.081977 142.566745 L 64.711374 142.593745 L 64.323874 142.593745 L 63.9375 142.566745 L 63.562391 142.508245 L 63.191788 142.42612 L 62.47311 142.238245 L 61.813009 142.02337 L 61.484084 141.92212 L 61.183321 141.824245 L 60.898328 141.749995 L 60.6246 141.680245 L 60.382413 141.63637 L 60.168387 141.60937 L 59.964499 141.60937 L 59.765116 141.621745 L 59.335938 141.707245 L 59.120785 141.781495 L 58.875218 141.866995 L 58.644295 141.96487 L 58.386337 142.06612 L 58.117115 142.179745 L 57.827616 142.280995 L 57.526853 142.38337 L 57.214826 142.48012 L 56.871257 142.550995 L 56.511919 142.593745 L 56.125545 142.609495 L 55.738045 142.582495 L 55.362936 142.523995 L 55.003597 142.45312 L 54.289426 142.253995 L 53.616933 142.03912 L 52.983866 141.835495 L 52.698874 141.765745 L 52.426272 141.69487 L 52.168314 141.63637 L 51.937391 141.60937 L 51.722238 141.60937 L 51.523983 141.62062 L 51.30883 141.65212 L 51.104942 141.707245 L 50.875145 141.765745 L 50.648728 141.851245 L 50.402035 141.95362 L 50.159847 142.05037 L 49.887246 142.152745 L 49.613517 142.265245 L 49.316134 142.36762 L 48.9996 142.46887 L 48.656032 142.53862 L 48.296693 142.593745 L 47.921584 142.609495 L 47.508176 142.58137 L 47.077871 142.52287 L 46.632922 142.43737 L 46.175581 142.339495 L 45.703597 142.211245 L 44.726962 141.952495 L 44.253852 141.824245 L 43.796512 141.707245 L 43.351563 141.59362 L 42.933648 141.49237 Z M 43.926054 139.78912 " transform="matrix(3.467742,0,0,3.472222,0,0.0000173611)"/>
<path style="fill-rule:evenodd;fill:rgb(0.784314%,1.960784%,1.960784%);fill-opacity:1;stroke-width:0.215738;stroke-linecap:round;stroke-linejoin:miter;stroke:rgb(0.784314%,1.960784%,1.960784%);stroke-opacity:1;stroke-miterlimit:22.926;" d="M 115.643968 132.839995 L 116.031468 132.866995 L 116.417842 132.866995 L 116.77718 132.824245 L 117.120749 132.754495 L 117.449673 132.66787 L 117.777471 132.554245 L 118.367733 132.308995 L 118.781141 132.15262 L 119.183285 132.007495 L 119.570785 131.906245 L 119.773547 131.879245 L 119.972929 131.879245 L 120.186955 131.894995 L 120.417878 131.921995 L 120.644295 131.964745 L 120.890988 132.023245 L 121.405778 132.16837 L 121.937464 132.33937 L 122.550254 132.52387 L 123.199092 132.71062 L 123.512246 132.76912 L 123.827653 132.824245 L 124.144186 132.866995 L 124.47311 132.882745 L 124.788517 132.866995 L 125.090407 132.824245 L 125.3754 132.76912 L 125.648001 132.69487 L 126.179688 132.511495 L 126.667442 132.308995 L 127.081977 132.15262 L 127.46835 132.007495 L 127.85585 131.906245 L 128.058612 131.879245 L 128.245603 131.879245 L 128.460756 131.894995 L 128.671403 131.921995 L 128.918096 131.964745 L 129.160283 132.023245 L 129.663808 132.16837 L 130.190988 132.340495 L 130.824055 132.52387 L 131.457122 132.71062 L 131.76915 132.76912 L 132.085683 132.824245 L 132.402217 132.866995 L 132.70298 132.882745 L 133.016134 132.866995 L 133.331541 132.824245 L 133.621039 132.76912 L 133.906032 132.695995 L 134.437718 132.511495 L 134.937863 132.324745 L 135.367042 132.15262 L 135.769186 132.007495 L 136.156686 131.906245 L 136.354942 131.879245 L 136.55883 131.879245 L 136.773983 131.894995 L 136.988009 131.921995 L 137.218932 131.964745 L 137.461119 132.023245 L 137.964644 132.16837 L 138.48056 132.324745 L 139.151926 132.53962 L 139.855959 132.72637 L 138.608975 135.949495 L 138.320603 135.890995 L 138.01984 135.80437 L 137.690916 135.71887 L 137.347347 135.605245 L 136.64444 135.375745 L 135.898728 135.175495 L 135.511228 135.089995 L 135.124855 135.031495 L 134.722711 135.004495 L 134.308176 135.015745 L 133.906032 135.074245 L 133.546693 135.16087 L 133.203125 135.26212 L 132.875327 135.375745 L 132.574564 135.492745 L 132.285065 135.605245 L 132.015843 135.71887 L 131.76915 135.80437 L 131.526962 135.890995 L 131.312936 135.949495 L 131.097783 135.992245 L 130.895022 136.007995 L 130.679869 136.007995 L 130.437682 135.976495 L 130.163953 135.917995 L 129.86319 135.848245 L 129.546657 135.76162 L 129.203089 135.647995 L 128.503561 135.43312 L 127.757849 135.21937 L 127.38274 135.116995 L 126.980596 135.047245 L 126.581831 135.015745 L 126.179688 135.004495 L 125.777544 135.047245 L 125.39117 135.116995 L 125.046475 135.21937 L 124.718677 135.31612 L 124.414535 135.449995 L 124.128416 135.562495 L 123.859193 135.67612 L 123.613626 135.77737 L 123.371439 135.848245 L 123.156286 135.917995 L 122.941134 135.976495 L 122.738372 135.992245 L 122.53899 136.007995 L 122.293423 135.992245 L 122.035465 135.949495 L 121.734702 135.875245 L 121.421548 135.80437 L 121.105015 135.70312 L 120.402108 135.476995 L 119.672166 135.26212 L 119.284666 135.16087 L 118.898292 135.074245 L 118.496148 135.031495 L 118.078234 135.004495 L 118.078234 136.894495 L 118.308031 136.910245 L 118.565988 136.937245 L 118.839717 136.995745 L 119.15625 137.06662 L 119.472783 137.16787 L 119.800581 137.265745 L 120.503488 137.49637 L 121.234557 137.695495 L 121.62093 137.780995 L 122.007304 137.85187 L 122.410574 137.882245 L 122.812718 137.882245 L 123.199092 137.839495 L 123.555051 137.765245 L 123.901999 137.668495 L 124.202762 137.56612 L 124.503525 137.45362 L 124.773874 137.339995 L 125.030705 137.222995 L 125.288663 137.12512 L 125.519586 137.03962 L 125.750509 136.979995 L 125.964535 136.921495 L 126.179688 136.894495 L 126.39484 136.894495 L 126.624637 136.910245 L 126.882594 136.952995 L 127.156323 137.00812 L 127.46835 137.08237 L 127.784884 137.180245 L 128.460756 137.39512 L 129.191824 137.62462 L 129.562427 137.722495 L 129.933031 137.796745 L 130.32391 137.85187 L 130.722674 137.88337 L 131.124818 137.88337 L 131.511192 137.823745 L 131.870531 137.753995 L 132.199455 137.652745 L 132.515988 137.53912 L 132.816751 137.425495 L 133.089353 137.324245 L 133.359702 137.21062 L 133.621039 137.10937 L 133.847456 137.03962 L 134.09415 136.96537 L 134.308176 136.921495 L 134.535719 136.894495 L 134.749746 136.894495 L 134.980669 136.910245 L 135.238626 136.952995 L 135.511228 137.02387 L 136.144295 137.19487 L 136.473219 137.308495 L 137.187391 137.52337 L 137.921839 137.738245 L 136.972238 140.20312 L 136.242297 139.972495 L 135.870567 139.87462 L 135.484193 139.80037 L 135.082049 139.74637 L 134.679906 139.71487 L 134.265371 139.74637 L 133.878997 139.80037 L 133.503888 139.886995 L 133.16032 139.988245 L 132.843786 140.105245 L 132.543023 140.21887 L 132.258031 140.332495 L 131.984302 140.433745 L 131.742115 140.53162 L 131.496548 140.60587 L 131.281395 140.65987 L 131.066243 140.703745 L 130.85109 140.71837 L 130.637064 140.703745 L 130.394876 140.67562 L 130.121148 140.61712 L 129.804615 140.54737 L 129.492587 140.460745 L 129.147892 140.348245 L 128.800945 140.23462 L 128.069876 140.01637 L 127.699273 139.902745 L 127.3129 139.81612 L 126.909629 139.75762 L 126.507485 139.71487 L 126.507485 141.60937 L 126.754179 141.637495 L 127.023401 141.695995 L 127.3129 141.765745 L 127.629433 141.851245 L 127.957231 141.95362 L 128.300799 142.06612 L 129.003706 142.280995 L 129.375436 142.38337 L 129.750545 142.481245 L 130.136919 142.550995 L 130.523292 142.593745 L 130.925436 142.609495 L 131.324201 142.566745 L 131.683539 142.508245 L 132.042878 142.42612 L 132.354906 142.30912 L 132.660174 142.195495 L 132.960938 142.08187 L 133.23016 141.98062 L 133.492624 141.87937 L 133.734811 141.781495 L 133.964608 141.707245 L 134.191025 141.65212 L 134.421948 141.621745 L 134.6371 141.60937 L 134.851126 141.621745 L 135.09782 141.65212 L 135.367042 141.695995 L 135.656541 141.765745 L 135.973074 141.866995 L 136.300872 141.96487 L 134.895058 145.62112 L 134.749746 145.60537 L 134.578525 145.574995 L 134.379142 145.54687 L 134.16399 145.50412 L 133.948837 145.44562 L 133.70665 145.390495 L 133.187355 145.246495 L 132.660174 145.09012 L 132.112718 144.933745 L 131.555124 144.773995 L 131.012173 144.62887 L 130.480487 144.50062 L 129.948801 144.413995 L 129.690843 144.402745 L 129.448656 144.386995 L 129.203089 144.402745 L 128.960901 144.413995 L 128.515952 144.50062 L 128.113808 144.61762 L 127.726308 144.74587 L 127.38274 144.875245 L 127.054942 145.01587 L 126.738408 145.13287 L 126.453416 145.23412 L 126.195458 145.316245 L 125.9375 145.36012 L 125.691933 145.390495 L 125.449746 145.374745 L 125.304433 145.36012 L 125.148983 145.331995 L 124.804288 145.262245 L 124.429179 145.15987 L 124.031541 145.04737 L 123.613626 144.917995 L 122.754142 144.64462 L 122.293423 144.530995 L 121.836083 144.445495 L 121.347202 144.402745 L 121.105015 144.386995 L 120.875218 144.402745 L 120.633031 144.413995 L 120.402108 144.445495 L 119.972929 144.54337 L 119.570785 144.67162 L 119.211446 144.800995 L 118.866751 144.944995 L 118.565988 145.07437 L 118.280996 145.19137 L 118.007267 145.273495 L 117.750436 145.347745 L 117.519513 145.374745 L 117.261555 145.390495 L 117.13314 145.374745 L 116.976563 145.36012 L 116.644259 145.304995 L 116.289426 145.219495 L 115.914317 145.11712 L 115.515552 144.98887 L 114.668459 144.715495 L 114.222384 144.60187 L 113.76617 144.488245 L 113.304324 144.413995 L 112.819949 144.386995 L 112.574382 144.402745 L 112.343459 144.413995 L 111.90189 144.488245 L 111.483975 144.60187 L 111.097602 144.731245 L 110.741642 144.859495 L 110.410465 145.00462 L 110.093932 145.11712 L 109.808939 145.23412 L 109.535211 145.304995 L 109.293023 145.36012 L 109.04633 145.390495 L 108.933685 145.390495 L 108.789499 145.374745 L 108.476344 145.347745 L 108.144041 145.273495 L 107.773438 145.17562 L 107.371294 145.06312 L 106.96915 144.933745 L 106.554615 144.789745 L 106.109666 144.66037 L 105.66359 144.54337 L 105.207376 144.456745 L 104.734266 144.402745 L 104.488699 144.386995 L 104.262282 144.402745 L 104.015589 144.413995 L 103.789172 144.445495 L 103.358866 144.54337 L 102.956722 144.66037 L 102.597384 144.789745 L 102.253815 144.933745 L 101.937282 145.06312 L 101.636519 145.17562 L 101.351526 145.262245 L 101.077798 145.331995 L 100.81984 145.374745 L 100.563009 145.390495 L 100.27351 145.36012 L 99.961483 145.316245 L 99.601017 145.23412 L 99.214644 145.11712 L 98.8125 145.00462 L 98.397965 144.859495 L 97.523837 144.60187 L 97.066497 144.50062 L 96.605778 144.429745 L 96.36359 144.402745 L 96.132667 144.386995 L 95.644913 144.413995 L 95.418496 144.445495 L 95.187573 144.488245 L 94.769658 144.58612 L 94.383285 144.715495 L 94.03859 144.859495 L 93.710792 144.98887 L 93.410029 145.11712 L 93.121657 145.219495 L 92.851308 145.304995 L 92.589971 145.36012 L 92.347783 145.390495 L 92.089826 145.374745 L 91.949019 145.36012 L 91.789063 145.347745 L 91.461265 145.273495 L 91.086156 145.19137 L 90.699782 145.06312 L 90.296512 144.933745 L 89.437028 144.672745 L 88.992078 144.55912 L 88.550509 144.45787 L 88.074019 144.402745 L 87.831831 144.386995 L 87.589644 144.386995 L 87.344077 144.413995 L 87.11766 144.445495 L 86.671584 144.53212 L 86.26944 144.64462 L 85.883067 144.773995 L 85.539499 144.917995 L 85.222965 145.04737 L 84.937972 145.160995 L 84.664244 145.262245 L 84.406286 145.331995 L 84.164099 145.37587 L 83.918532 145.390495 L 83.78899 145.37587 L 83.632413 145.37587 L 83.315879 145.316245 L 82.961047 145.235245 L 82.570167 145.13287 L 82.171403 145.00462 L 81.32431 144.746995 L 80.87936 144.61762 L 80.42202 144.51637 L 79.96468 144.429745 L 79.476926 144.386995 L 79.230233 144.386995 L 79.003815 144.402745 L 78.772892 144.429745 L 78.543096 144.472495 L 78.128561 144.57487 L 77.742188 144.70312 L 77.382849 144.843745 L 77.050545 144.976495 L 76.749782 145.10587 L 76.449019 145.203745 L 76.179797 145.289245 L 75.921839 145.347745 L 75.676272 145.390495 L 75.418314 145.390495 L 75.273001 145.37587 L 75.117551 145.347745 L 74.788626 145.289245 L 74.429288 145.19137 L 74.042914 145.07437 L 73.625 144.94612 L 73.210465 144.816745 L 72.781286 144.68737 L 72.336337 144.57487 L 71.890262 144.472495 L 71.418278 144.402745 L 70.945167 144.386995 L 70.70298 144.402745 L 70.473183 144.429745 L 70.042878 144.51637 L 69.640734 144.62887 L 69.269004 144.773995 L 68.925436 144.902245 L 68.597638 145.03162 L 68.293496 145.160995 L 68.023147 145.246495 L 67.750545 145.316245 L 67.492587 145.37587 L 67.245894 145.390495 L 67.117478 145.390495 L 66.960901 145.37587 L 66.644368 145.316245 L 66.300799 145.246495 L 65.930196 145.14862 L 65.526926 145.01587 L 65.113517 144.88762 L 64.249528 144.62887 L 63.793314 144.51637 L 63.335974 144.429745 L 62.859484 144.386995 L 62.617297 144.386995 L 62.375109 144.402745 L 62.144186 144.429745 L 61.93016 144.47362 L 61.499855 144.57487 L 61.113481 144.68737 L 60.754142 144.832495 L 60.410574 144.96187 L 60.094041 145.09012 L 59.809048 145.203745 L 59.53532 145.289245 L 59.277362 145.347745 L 59.035174 145.37587 L 58.777217 145.390495 L 58.633031 145.37587 L 58.473074 145.347745 L 58.14415 145.289245 L 57.784811 145.203745 L 57.398438 145.09012 L 56.996294 144.96187 L 56.15258 144.70312 L 55.706504 144.57487 L 55.261555 144.47362 L 54.804215 144.413995 L 54.562028 144.386995 L 54.316461 144.386995 L 54.085538 144.402745 L 53.859121 144.429745 L 53.414172 144.50062 L 52.996257 144.61762 L 52.624528 144.746995 L 52.269695 144.88762 L 51.937391 145.01587 L 51.620858 145.14862 L 51.335865 145.246495 L 51.062137 145.316245 L 50.819949 145.36012 L 50.574382 145.390495 L 50.44484 145.390495 L 50.30516 145.374745 L 49.988626 145.331995 L 49.645058 145.246495 L 49.269949 145.14862 L 48.886955 145.03162 L 48.469041 144.902245 L 48.054506 144.773995 L 47.609557 144.64462 L 47.164608 144.530995 L 46.707267 144.445495 L 46.230778 144.386995 L 45.98859 144.386995 L 45.757667 144.402745 L 45.51548 144.429745 L 45.285683 144.45787 L 44.871148 144.55912 L 44.469004 144.68737 L 44.109666 144.816745 L 43.780741 144.960745 L 43.465334 145.09012 L 43.179215 145.19137 L 42.906613 145.289245 L 42.664426 145.347745 L 42.417733 145.37587 L 42.305087 145.390495 L 42.159775 145.390495 L 42.020094 145.37587 L 41.901817 145.37587 L 41.816206 145.36012 L 41.746366 145.347745 L 41.660756 145.331995 L 41.58641 145.304995 L 41.515443 145.273495 L 41.456868 145.235245 L 41.387028 145.203745 L 41.285647 145.160995 L 41.187645 145.11712 L 40.929688 145.03162 L 39.926017 146.79337 L 40.054433 146.79337 L 40.168205 146.80912 L 40.269586 146.80912 L 40.328161 146.82487 L 40.426163 146.85187 L 40.484738 146.86762 L 40.554578 146.89462 L 40.613154 146.922745 L 40.684121 146.965495 L 40.769731 147.008245 L 40.871112 147.050995 L 41.12907 147.13762 L 41.429833 147.21187 L 41.773401 147.25462 L 41.976163 147.26587 L 42.175545 147.28162 L 42.406468 147.26587 L 42.648656 147.25462 L 42.878452 147.22312 L 43.093605 147.18037 L 43.50814 147.082495 L 43.883249 146.95312 L 44.226817 146.80912 L 44.554615 146.679745 L 44.855378 146.551495 L 45.144876 146.44912 L 45.414099 146.36362 L 45.687827 146.308495 L 45.945785 146.27812 L 46.203743 146.27812 L 46.347929 146.29387 L 46.492115 146.32087 L 46.835683 146.39512 L 47.191642 146.48062 L 47.582522 146.609995 L 47.99593 146.738245 L 48.426235 146.86762 L 48.871185 146.996995 L 49.312754 147.109495 L 49.773474 147.21187 L 50.262355 147.26587 L 50.734339 147.26587 L 50.976526 147.25462 L 51.207449 147.22312 L 51.636628 147.125245 L 52.023001 147.008245 L 52.39811 146.86762 L 52.738299 146.738245 L 53.070603 146.609995 L 53.371366 146.492995 L 53.672129 146.39512 L 53.945858 146.32087 L 54.202689 146.29387 L 54.444876 146.27812 L 54.718605 146.308495 L 55.035138 146.36362 L 55.394477 146.44912 L 55.766206 146.551495 L 56.16835 146.679745 L 56.581759 146.80912 L 57.027834 146.95312 L 57.472783 147.066745 L 57.930124 147.18037 L 58.417878 147.25462 L 58.906759 147.28162 L 59.133176 147.26587 L 59.378743 147.23887 L 59.809048 147.167995 L 60.222456 147.050995 L 60.597565 146.922745 L 60.956904 146.78212 L 61.284702 146.652745 L 61.586592 146.52337 L 61.871584 146.42212 L 62.159956 146.35237 L 62.417914 146.29387 L 62.660102 146.27812 L 62.93383 146.29387 L 63.250363 146.33662 L 63.593932 146.40637 L 63.964535 146.508745 L 64.352035 146.636995 L 64.765443 146.76637 L 65.199128 146.89462 L 65.640698 147.023995 L 66.101417 147.13762 L 66.574528 147.22312 L 67.062282 147.26587 L 67.551163 147.26587 L 67.77758 147.23887 L 68.007376 147.19612 L 68.421911 147.093745 L 68.824055 146.981245 L 69.183394 146.83612 L 69.512318 146.695495 L 69.827725 146.578495 L 70.128488 146.46487 L 70.402217 146.37937 L 70.660174 146.308495 L 70.918132 146.27812 L 71.16032 146.27812 L 71.449818 146.308495 L 71.777616 146.37937 L 72.136955 146.46487 L 72.523328 146.578495 L 72.937863 146.70787 L 73.355778 146.85187 L 73.797347 146.981245 L 74.242297 147.093745 L 74.703016 147.19612 L 75.191897 147.25462 L 75.434084 147.26587 L 75.676272 147.26587 L 75.906068 147.25462 L 76.136991 147.22312 L 76.58194 147.13762 L 76.980705 147.023995 L 77.355814 146.89462 L 77.699382 146.75062 L 78.02718 146.621245 L 78.327943 146.508745 L 78.617442 146.40637 L 78.8754 146.33662 L 79.133358 146.29387 L 79.375545 146.27812 L 79.663917 146.29387 L 79.977071 146.35237 L 80.33641 146.42212 L 80.722783 146.535745 L 81.124927 146.663995 L 81.539462 146.79337 L 82.42936 147.050995 L 82.902471 147.167995 L 83.375581 147.23887 L 83.863336 147.26587 L 84.105523 147.26587 L 84.336446 147.25462 L 84.562863 147.22312 L 84.77689 147.18037 L 85.19593 147.066745 L 85.566533 146.93737 L 85.925872 146.80912 L 86.242406 146.663995 L 86.558939 146.551495 L 86.843932 146.43787 L 87.11766 146.36362 L 87.390262 146.308495 L 87.66061 146.27812 L 87.918568 146.27812 L 88.062754 146.292745 L 88.219331 146.32087 L 88.550509 146.39512 L 88.922238 146.49187 L 89.308612 146.609995 L 89.726526 146.738245 L 90.156831 146.87887 L 90.601781 147.008245 L 91.04335 147.125245 L 91.515334 147.210745 L 91.991824 147.26587 L 92.234012 147.28162 L 92.476199 147.26587 L 92.707122 147.253495 L 92.938045 147.210745 L 93.367224 147.125245 L 93.769368 146.99587 L 94.125327 146.86762 L 94.457631 146.722495 L 94.769658 146.594245 L 95.073801 146.48062 L 95.34415 146.39512 L 95.616751 146.32087 L 95.874709 146.276995 L 96.132667 146.276995 L 96.262209 146.292745 L 96.406395 146.308495 L 96.734193 146.36362 L 97.093532 146.44912 L 97.481032 146.56612 L 97.89444 146.695495 L 98.75843 146.95312 L 99.214644 147.082495 L 99.675363 147.179245 L 100.145094 147.253495 L 100.632849 147.28162 L 100.879542 147.26587 L 101.12173 147.237745 L 101.566679 147.167995 L 101.980087 147.050995 L 102.367587 146.92162 L 102.714535 146.780995 L 103.043459 146.636995 L 103.359993 146.52337 L 103.644985 146.42212 L 103.917587 146.351245 L 104.159775 146.292745 L 104.417733 146.276995 L 104.691461 146.292745 L 105.007994 146.335495 L 105.351563 146.40637 L 105.723292 146.52337 L 106.125436 146.636995 L 106.52758 146.765245 L 106.96915 146.91037 L 107.402834 147.03862 L 107.859048 147.136495 L 108.332158 147.22312 L 108.819913 147.26587 L 109.308794 147.26587 L 109.535211 147.23887 L 109.750363 147.194995 L 110.168278 147.093745 L 110.554651 146.96437 L 110.91399 146.83612 L 111.241788 146.695495 L 111.558321 146.56612 L 111.859084 146.46487 L 112.144077 146.37937 L 112.417805 146.308495 L 112.659993 146.276995 L 112.933721 146.276995 L 113.218714 146.308495 L 113.551017 146.37937 L 113.921621 146.46487 L 114.309121 146.594245 L 114.711265 146.722495 L 115.140443 146.85187 L 115.586519 146.98012 L 116.031468 147.093745 L 116.503452 147.194995 L 116.976563 147.26587 L 117.465443 147.26587 L 117.707631 147.253495 L 117.937427 147.22312 L 118.367733 147.136495 L 118.754106 147.023995 L 119.124709 146.87887 L 119.457013 146.749495 L 119.773547 146.60887 L 120.07431 146.49187 L 120.343532 146.40637 L 120.61726 146.335495 L 120.875218 146.292745 L 121.133176 146.276995 L 121.421548 146.292745 L 121.750472 146.351245 L 122.109811 146.43787 L 122.496185 146.535745 L 122.898328 146.663995 L 123.312863 146.79337 L 124.202762 147.050995 L 124.644331 147.167995 L 125.117442 147.237745 L 125.347238 147.26587 L 125.836119 147.26587 L 126.067042 147.253495 L 126.293459 147.22312 L 126.507485 147.179245 L 126.9254 147.066745 L 127.3129 146.93737 L 127.672238 146.80912 L 128.000036 146.663995 L 128.601562 146.43787 L 128.875291 146.351245 L 129.133249 146.308495 L 129.391206 146.276995 L 129.519622 146.276995 L 129.648038 146.292745 L 129.820385 146.308495 L 130.007376 146.33662 L 130.222529 146.37937 L 130.453452 146.43787 L 130.937827 146.551495 L 131.457122 146.706745 L 132.015843 146.86762 L 133.117515 147.194995 L 133.660465 147.32437 L 134.191025 147.437995 L 133.331541 149.672245 L 133.030778 149.746495 L 132.761555 149.847745 L 132.531759 149.97712 L 132.327871 150.08962 L 132.183685 150.218995 L 132.069913 150.304495 L 131.984302 150.37537 L 131.914462 150.41812 L 131.828852 150.47662 L 131.757885 150.488995 L 131.656504 150.50362 L 131.496548 150.51937 L 131.312936 150.51937 L 131.109048 150.50362 L 130.882631 150.46087 L 130.637064 150.40237 L 130.379106 150.33262 L 130.094113 150.245995 L 129.804615 150.160495 L 129.191824 149.94562 L 128.542987 149.746495 L 128.199419 149.65987 L 127.85585 149.586745 L 127.499891 149.53162 L 127.140552 149.50012 L 126.781214 149.48887 L 126.421875 149.53162 L 126.094077 149.586745 L 125.761773 149.65987 L 125.476781 149.757745 L 125.191788 149.86012 L 124.93383 149.96137 L 124.672493 150.06262 L 124.444949 150.160495 L 124.215153 150.261745 L 124 150.33262 L 123.800618 150.40237 L 123.597856 150.46087 L 123.414244 150.50362 L 123.241897 150.51937 L 123.070676 150.51937 L 122.855523 150.50362 L 122.636991 150.47662 L 122.121076 150.35962 L 121.55109 150.187495 L 120.933794 149.98837 L 120.289462 149.789245 L 119.945894 149.687995 L 119.61359 149.61712 L 119.257631 149.54287 L 118.910683 149.50012 L 118.538953 149.48887 L 118.179615 149.51587 L 117.836047 149.55862 L 117.508249 149.629495 L 117.207485 149.719495 L 116.917987 149.816245 L 116.644259 149.933245 L 116.390807 150.03112 L 116.14524 150.13237 L 115.914317 150.230245 L 115.699164 150.31687 L 115.499782 150.39112 L 115.312791 150.44512 L 115.129179 150.48787 L 114.941061 150.51937 L 114.567078 150.51937 L 114.351926 150.48787 L 114.093968 150.44512 L 113.83601 150.37537 L 113.562282 150.304495 L 113.277289 150.218995 L 112.675763 150.01987 L 112.031432 149.816245 L 111.37133 149.629495 L 111.027762 149.55862 L 110.668423 149.51587 L 110.309084 149.48887 L 109.953125 149.50012 L 109.609557 149.54287 L 109.277253 149.60137 L 108.960719 149.687995 L 108.390734 149.890495 L 108.132776 149.98837 L 107.645022 150.203245 L 107.414099 150.288745 L 107.198946 150.35962 L 107.00069 150.43387 L 106.812573 150.47662 L 106.625581 150.50362 L 106.441969 150.51937 L 106.253852 150.51937 L 106.05109 150.50362 L 105.808903 150.46087 L 105.550945 150.40237 L 105.292987 150.33262 L 105.007994 150.245995 L 104.403089 150.04687 L 103.757631 149.847745 L 103.102035 149.65987 L 102.758467 149.586745 L 102.399128 149.53162 L 102.039789 149.50012 L 101.679324 149.48887 L 101.335756 149.53162 L 100.992188 149.586745 L 100.68016 149.660995 L 100.390661 149.757745 L 100.102289 149.86012 L 99.847711 149.96137 L 99.359956 150.176245 L 99.129033 150.261745 L 98.913881 150.34837 L 98.714499 150.40237 L 98.511737 150.46087 L 98.312355 150.504745 L 98.125363 150.51937 L 97.937246 150.51937 L 97.73899 150.504745 L 97.508067 150.47662 L 97.250109 150.41812 L 96.976381 150.35962 L 96.691388 150.27412 L 96.089862 150.090745 L 95.461301 149.87587 L 94.785429 149.687995 L 94.44186 149.602495 L 94.098292 149.543995 L 93.738953 149.50012 L 93.379615 149.48887 L 93.023656 149.51587 L 92.680087 149.55862 L 92.363554 149.629495 L 92.062791 149.730745 L 91.773292 149.83312 L 91.50407 149.93437 L 91.258503 150.032245 L 91.016315 150.133495 L 90.785392 150.23137 L 90.57024 150.31687 L 90.370858 150.39112 L 90.168096 150.446245 L 89.984484 150.488995 L 89.797493 150.520495 L 89.409993 150.520495 L 89.195967 150.488995 L 88.938009 150.446245 L 88.680051 150.37537 L 88.406323 150.30562 L 87.804797 150.117745 L 87.1875 149.91862 L 86.527398 149.719495 L 86.18383 149.629495 L 85.840262 149.55862 L 85.480923 149.51587 L 85.109193 149.48887 L 84.749855 149.50012 L 84.406286 149.543995 L 84.078488 149.61712 L 83.777725 149.703745 L 83.488227 149.789245 L 83.219004 149.90287 L 82.961047 150.00412 L 82.730124 150.101995 L 82.500327 150.203245 L 82.070022 150.37537 L 81.883031 150.43387 L 81.683648 150.47662 L 81.512427 150.504745 L 81.32431 150.520495 L 81.137318 150.520495 L 80.925545 150.504745 L 80.679978 150.46087 L 80.42202 150.40237 L 80.148292 150.33262 L 79.863299 150.245995 L 79.562536 150.144745 L 78.929469 149.94562 L 78.269368 149.746495 L 77.94157 149.660995 L 77.598001 149.586745 L 77.238663 149.53162 L 76.879324 149.50012 L 76.523365 149.50012 L 76.164026 149.53162 L 75.820458 149.586745 L 75.503924 149.660995 L 75.203161 149.75887 L 74.929433 149.86012 L 74.672602 149.97712 L 74.414644 150.074995 L 74.188227 150.176245 L 73.968568 150.261745 L 73.757922 150.34837 L 73.55516 150.41812 L 73.367042 150.461995 L 73.18343 150.504745 L 72.996439 150.520495 L 72.808321 150.520495 L 72.610065 150.504745 L 72.379142 150.47662 L 72.136955 150.41812 L 71.863227 150.34837 L 71.589499 150.27412 L 71.288735 150.176245 L 70.675945 149.97712 L 70.027108 149.773495 L 69.69931 149.687995 L 69.355741 149.602495 L 69.012173 149.543995 L 68.652834 149.50012 L 68.281105 149.48887 L 67.937536 149.51587 L 67.593968 149.57437 L 67.277435 149.645245 L 66.976672 149.730745 L 66.687173 149.83312 L 66.417951 149.94562 L 66.172384 150.04687 L 65.930196 150.144745 L 65.699273 150.24712 L 65.469477 150.33262 L 65.270094 150.40237 L 65.070712 150.461995 L 64.882594 150.504745 L 64.695603 150.520495 L 64.352035 150.520495 L 64.206722 150.504745 L 64.051272 150.47662 L 63.878924 150.446245 L 63.508321 150.35962 L 63.090407 150.24712 L 62.675872 150.101995 L 62.230923 149.96137 L 61.770203 149.81737 L 61.312863 149.687995 L 60.823983 149.57437 L 60.336228 149.50012 L 60.082776 149.48887 L 59.824818 149.50012 L 59.578125 149.51587 L 59.335938 149.543995 L 58.875218 149.645245 L 58.446039 149.789245 L 58.058539 149.93437 L 57.699201 150.074995 L 57.371403 150.218995 L 57.054869 150.33262 L 56.769876 150.43387 L 56.496148 150.488995 L 56.22242 150.520495 L 55.953198 150.520495 L 55.793241 150.504745 L 55.620894 150.47662 L 55.250291 150.39112 L 54.848147 150.28987 L 54.433612 150.160495 L 53.999927 150.01987 L 53.543714 149.87587 L 53.086374 149.746495 L 52.609884 149.618245 L 52.136773 149.53162 L 51.878815 149.501245 L 51.636628 149.48887 L 51.609593 149.48887 L 51.320094 149.501245 L 51.050872 149.53162 L 50.777144 149.57437 L 50.520313 149.645245 L 50.047202 149.789245 L 49.616897 149.96137 L 49.214753 150.117745 L 48.855414 150.27412 L 48.511846 150.39112 L 48.195313 150.477745 L 47.894549 150.520495 L 47.609557 150.520495 L 47.437209 150.504745 L 47.250218 150.477745 L 47.063227 150.43387 L 46.848074 150.37537 L 46.403125 150.24712 L 45.930015 150.090745 L 45.429869 149.93437 L 44.898183 149.75887 L 44.367624 149.629495 L 44.098401 149.57437 L 43.808903 149.53162 L 43.52391 149.50012 L 43.234411 149.48887 L 42.949419 149.50012 L 42.664426 149.53162 L 42.406468 149.586745 L 42.14851 149.645245 L 41.67202 149.804995 L 41.242842 149.96137 L 40.855342 150.133495 L 40.496003 150.27412 L 40.152435 150.40237 L 39.851672 150.47662 L 39.566679 150.520495 L 39.265916 150.520495 L 39.078924 150.488995 L 38.879542 150.461995 L 38.66439 150.41812 L 38.433467 150.35962 L 37.961483 150.23137 L 36.570312 152.68387 L 135.211592 152.68387 L 146.433321 123.484495 L 154.203597 152.68387 L 155.667987 152.68387 L 146.062718 116.563495 L 145.144658 118.957495 L 101.766061 118.957495 L 101.851672 119.18812 L 102.468968 120.83287 L 144.425981 120.83287 L 143.957376 122.066995 L 143.742224 121.981495 L 143.441461 121.87912 L 143.265734 121.82062 L 143.093387 121.77787 L 142.895131 121.75087 L 142.679978 121.722745 L 142.433285 121.70812 L 142.148292 121.69237 L 141.820494 121.70812 L 141.503961 121.75087 L 141.187427 121.80937 L 140.886664 121.89487 L 140.617442 121.981495 L 140.343714 122.078245 L 139.827798 122.29312 L 139.425654 122.469745 L 139.050545 122.597995 L 138.695712 122.69587 L 138.507594 122.72737 L 138.136991 122.72737 L 137.906068 122.69587 L 137.676272 122.640745 L 137.434084 122.582245 L 136.929433 122.438245 L 136.398874 122.26612 L 135.769186 122.051245 L 135.140625 121.87912 L 134.824092 121.80937 L 134.507558 121.75087 L 134.192151 121.70812 L 133.878997 121.69237 L 133.546693 121.70812 L 133.23016 121.75087 L 132.929397 121.80937 L 132.628634 121.89487 L 132.356032 121.981495 L 132.085683 122.078245 L 131.582158 122.29312 L 131.195785 122.469745 L 130.824055 122.597995 L 130.480487 122.69587 L 130.293496 122.72737 L 129.905996 122.72737 L 129.676199 122.68462 L 129.434012 122.640745 L 129.191824 122.582245 L 128.672529 122.42587 L 128.156613 122.25487 L 127.528052 122.051245 L 126.894985 121.86337 L 126.581831 121.79362 L 125.949891 121.70812 L 125.633358 121.69237 L 125.289789 121.70812 L 124.976635 121.75087 L 124.660102 121.80937 L 124.37173 121.89487 L 124.08561 121.981495 L 123.816388 122.093995 L 123.297093 122.30887 L 122.910719 122.469745 L 122.53899 122.61037 L 122.195422 122.69587 L 122.023074 122.72737 L 121.636701 122.72737 L 121.175981 122.640745 L 120.918023 122.582245 L 120.402108 122.42587 L 119.871548 122.25487 L 119.24186 122.051245 L 118.60992 121.86337 L 118.296766 121.79362 L 117.663699 121.706995 L 117.362936 121.69237 L 117.035138 121.706995 L 116.718605 121.75087 L 116.417842 121.80937 L 116.14524 121.87912 L 115.859121 121.981495 L 115.602289 122.078245 L 115.097638 122.28187 L 114.695494 122.453995 L 114.309121 122.597995 L 113.921621 122.69587 L 113.738009 122.72737 L 113.320094 122.72737 L 113.090298 122.68462 L 112.863881 122.640745 L 112.605923 122.582245 L 112.090007 122.42587 L 111.558321 122.25487 L 110.926381 122.051245 L 110.296693 121.86337 L 109.98016 121.79362 L 109.664753 121.75087 L 109.351599 121.706995 L 109.047456 121.69237 L 108.718532 121.706995 L 108.401999 121.75087 L 108.101235 121.80937 L 107.53125 121.981495 L 107.257522 122.078245 L 106.753997 122.29312 L 106.355233 122.469745 L 105.980124 122.597995 L 105.620785 122.69587 L 105.437173 122.72737 L 105.050799 122.72737 L 104.821003 122.683495 L 104.563045 122.640745 L 104.305087 122.582245 L 104.004324 122.496745 L 103.687791 122.41012 L 103.344222 122.32462 L 102.984884 122.22337 L 103.789172 124.402495 L 104.175545 124.48912 L 104.547275 124.55887 L 104.906613 124.60162 L 105.265952 124.61737 L 105.57798 124.60162 L 105.883249 124.55887 L 106.184012 124.50037 L 106.469004 124.43062 L 107.00069 124.242745 L 107.499709 124.02787 L 107.90298 123.855745 L 108.289353 123.71512 L 108.659956 123.61387 L 108.863844 123.59812 L 109.047456 123.58237 L 109.250218 123.59812 L 109.465371 123.62512 L 109.695167 123.67237 L 109.937355 123.727495 L 110.45327 123.887245 L 110.969186 124.04362 L 111.602253 124.258495 L 112.246584 124.445245 L 112.574382 124.51612 L 112.890916 124.57462 L 113.218714 124.60162 L 113.535247 124.61737 L 113.878815 124.60162 L 114.195349 124.55887 L 114.496112 124.50037 L 114.78561 124.429495 L 115.070603 124.328245 L 115.344331 124.23037 L 115.844477 124.015495 L 116.246621 123.855745 L 116.617224 123.71512 L 116.992333 123.61387 L 117.175945 123.59812 L 117.362936 123.58237 L 117.562318 123.59812 L 117.777471 123.62512 L 118.008394 123.67237 L 118.253961 123.727495 L 118.769876 123.887245 L 119.285792 124.04362 L 119.914353 124.258495 L 120.56319 124.445245 L 120.890988 124.51612 L 121.203016 124.57462 L 121.53532 124.60162 L 121.851853 124.61737 L 122.163881 124.60162 L 122.464644 124.55887 L 122.754142 124.50037 L 123.027871 124.429495 L 123.555051 124.242745 L 124.042805 124.04362 L 124.460719 123.871495 L 124.848219 123.71512 L 125.245858 123.62512 L 125.433975 123.59812 L 125.633358 123.58237 L 125.85189 123.59812 L 126.067042 123.62512 L 126.293459 123.67237 L 126.523256 123.72637 L 127.023401 123.871495 L 127.555087 124.04362 L 128.188154 124.258495 L 128.832485 124.445245 L 129.149019 124.51612 L 129.476817 124.57462 L 129.804615 124.60162 L 130.136919 124.61737 L 130.437682 124.60162 L 130.738445 124.55887 L 131.023438 124.50037 L 131.312936 124.429495 L 131.843496 124.242745 L 132.327871 124.02787 L 132.731141 123.855745 L 133.117515 123.71512 L 133.503888 123.61387 L 133.878997 123.58237 L 134.078379 123.59812 L 134.309302 123.62512 L 134.535719 123.67237 L 134.781286 123.72637 L 135.281432 123.887245 L 135.813118 124.05937 L 136.441679 124.258495 L 137.074746 124.445245 L 137.391279 124.51612 L 137.703307 124.57462 L 138.01984 124.60162 L 138.336374 124.61737 L 138.652907 124.60162 L 138.95367 124.55887 L 139.254433 124.50037 L 139.539426 124.429495 L 140.069985 124.242745 L 140.574637 124.02787 L 140.973401 123.855745 L 141.375545 123.71512 L 141.761919 123.61387 L 141.961301 123.59812 L 142.148292 123.58237 L 142.32064 123.58237 L 142.464826 123.59812 L 142.594368 123.61387 L 142.695749 123.62512 L 142.866969 123.67237 L 143.023547 123.74212 L 143.265734 123.828745 L 142.164062 126.70762 L 141.804724 126.636745 L 141.41835 126.535495 L 140.617442 126.27787 L 139.984375 126.062995 L 139.355814 125.89087 L 139.039281 125.819995 L 138.722747 125.761495 L 138.406214 125.718745 L 138.094186 125.702995 L 137.746112 125.718745 L 137.434084 125.761495 L 137.117551 125.819995 L 136.832558 125.90662 L 136.54306 125.99212 L 136.273837 126.089995 L 135.754542 126.30487 L 135.367042 126.476995 L 134.996439 126.605245 L 134.62133 126.70762 L 134.448983 126.73462 L 134.062609 126.73462 L 133.847456 126.69187 L 133.605269 126.647995 L 133.359702 126.593995 L 132.859557 126.44887 L 132.343641 126.27787 L 131.71508 126.062995 L 131.066243 125.89087 L 130.754215 125.819995 L 130.437682 125.761495 L 130.121148 125.718745 L 129.804615 125.702995 L 129.476817 125.718745 L 129.160283 125.761495 L 128.85952 125.819995 L 128.289535 125.99212 L 128.015807 126.089995 L 127.512282 126.30487 L 127.124782 126.476995 L 126.754179 126.605245 L 126.41061 126.70762 L 126.238263 126.73462 L 125.85189 126.73462 L 125.620967 126.69187 L 125.3754 126.647995 L 125.117442 126.593995 L 124.617297 126.43762 L 124.08561 126.26212 L 123.46944 126.06187 L 122.839753 125.89087 L 122.523219 125.804245 L 122.206686 125.761495 L 121.894658 125.718745 L 121.562355 125.702995 L 121.234557 125.718745 L 120.902253 125.761495 L 120.605996 125.819995 L 120.300727 125.90662 L 120.015734 125.99212 L 119.742006 126.105745 L 119.227217 126.32062 L 118.839717 126.476995 L 118.480378 126.605245 L 118.121039 126.706495 L 117.949818 126.73462 L 117.578089 126.73462 L 117.348292 126.690745 L 117.106105 126.647995 L 116.863917 126.593995 L 116.332231 126.43762 L 115.800545 126.260995 L 115.183249 126.06187 L 114.554688 125.878495 L 114.238154 125.804245 L 113.606214 125.718745 L 113.29306 125.702995 L 112.960756 125.718745 L 112.659993 125.761495 L 112.35923 125.819995 L 112.074237 125.89087 L 111.800509 125.99212 L 111.527907 126.089995 L 111.043532 126.292495 L 110.625618 126.46462 L 110.238118 126.605245 L 109.867515 126.706495 L 109.664753 126.73462 L 109.265988 126.73462 L 109.035065 126.690745 L 108.789499 126.647995 L 108.547311 126.593995 L 108.015625 126.43762 L 107.499709 126.260995 L 106.883539 126.06187 L 106.269622 125.89087 L 105.953089 125.819995 L 105.652326 125.761495 L 105.335792 125.718745 L 105.035029 125.702995 L 104.821003 125.702995 L 104.632885 125.718745 L 104.305087 125.777245 L 104.976453 127.597495 L 105.121766 127.597495 L 105.351563 127.624495 L 105.59375 127.667245 L 105.840443 127.725745 L 106.367624 127.88212 L 106.898183 128.054245 L 107.543641 128.26912 L 108.187972 128.456995 L 108.504506 128.526745 L 108.832304 128.585245 L 109.148837 128.61337 L 109.481141 128.62912 L 109.808939 128.61337 L 110.125472 128.569495 L 110.426235 128.510995 L 110.726999 128.441245 L 111.000727 128.339995 L 111.269949 128.23762 L 111.773474 128.022745 L 112.175618 127.86637 L 112.547347 127.725745 L 112.922456 127.624495 L 113.106068 127.608745 L 113.29306 127.597495 L 113.492442 127.608745 L 113.723365 127.640245 L 113.953161 127.682995 L 114.195349 127.73812 L 114.695494 127.89787 L 115.214789 128.054245 L 115.859121 128.26912 L 116.504578 128.456995 L 116.819985 128.526745 L 117.14891 128.585245 L 117.465443 128.61337 L 117.793241 128.627995 L 118.094004 128.61337 L 118.394767 128.569495 L 118.684266 128.510995 L 118.953488 128.441245 L 119.484048 128.25337 L 119.972929 128.054245 L 120.387464 127.86637 L 120.789608 127.725745 L 121.175981 127.624495 L 121.378743 127.608745 L 121.562355 127.597495 L 121.777507 127.608745 L 121.99266 127.640245 L 122.222456 127.682995 L 122.464644 127.73812 L 122.969295 127.88212 L 123.484084 128.054245 L 124.117151 128.26912 L 124.761483 128.456995 L 125.090407 128.526745 L 125.40694 128.585245 L 125.734738 128.61337 L 126.067042 128.627995 L 126.37907 128.61337 L 126.679833 128.569495 L 126.969331 128.510995 L 127.241933 128.441245 L 127.77024 128.25337 L 128.257994 128.038495 L 128.672529 127.86637 L 129.062282 127.725745 L 129.434012 127.624495 L 129.621003 127.608745 L 129.804615 127.597495 L 130.019767 127.608745 L 130.23492 127.640245 L 130.464717 127.682995 L 130.71141 127.73812 L 131.226199 127.89787 L 131.742115 128.065495 L 132.371802 128.26912 L 133.003743 128.456995 L 133.316897 128.526745 L 133.648074 128.585245 L 133.964608 128.612245 L 134.265371 128.627995 L 134.594295 128.612245 L 134.895058 128.569495 L 135.18343 128.510995 L 135.468423 128.441245 L 136.000109 128.25337 L 136.500254 128.038495 L 136.918169 127.86637 L 137.304542 127.725745 L 137.692042 127.624495 L 137.890298 127.608745 L 138.094186 127.597495 L 138.293568 127.608745 L 138.507594 127.640245 L 138.749782 127.682995 L 138.996475 127.73812 L 139.496621 127.89787 L 140.01141 128.065495 L 140.742478 128.29612 L 141.117587 128.41312 L 141.476926 128.499745 L 140.543096 130.94887 L 140.183757 130.862245 L 139.813154 130.760995 L 139.050545 130.53037 L 138.437754 130.331245 L 137.804688 130.15912 L 137.488154 130.08937 L 137.187391 130.03087 L 136.875363 130.00387 L 136.55883 129.98812 L 136.231032 130.00387 L 135.914499 130.04662 L 135.597965 130.10062 L 135.312972 130.17487 L 135.023474 130.261495 L 134.749746 130.35937 L 134.234956 130.56187 L 133.820422 130.733995 L 133.445312 130.86337 L 133.074709 130.94887 L 132.886592 130.97587 L 132.70298 130.99162 L 132.500218 130.97587 L 132.285065 130.94887 L 132.042878 130.90612 L 131.80069 130.84762 L 131.281395 130.706995 L 130.76548 130.53037 L 130.136919 130.331245 L 129.503852 130.15912 L 129.191824 130.08937 L 128.875291 130.03087 L 128.558757 130.00387 L 128.24673 129.98812 L 127.914426 130.00387 L 127.597892 130.04662 L 127.297129 130.10062 L 126.996366 130.17487 L 126.722638 130.261495 L 126.453416 130.35937 L 125.949891 130.574245 L 125.546621 130.733995 L 125.191788 130.86337 L 124.832449 130.94887 L 124.644331 130.97587 L 124.47311 130.99162 L 124.257958 130.97587 L 124.031541 130.94887 L 123.784847 130.90612 L 123.54266 130.84762 L 123.027871 130.706995 L 122.507449 130.53037 L 121.878888 130.331245 L 121.245821 130.15912 L 120.933794 130.08937 L 120.605996 130.03087 L 120.289462 130.00387 L 119.972929 129.98812 L 119.645131 130.00387 L 119.312827 130.04662 L 119.012064 130.10062 L 118.727071 130.17487 L 118.437573 130.261495 L 118.16835 130.35937 L 117.649055 130.574245 L 117.261555 130.733995 L 116.875182 130.86337 L 116.515843 130.94887 L 116.332231 130.97587 L 116.159884 130.99162 L 115.945858 130.97587 L 115.714935 130.94887 L 115.472747 130.90612 L 115.22718 130.84762 L 114.711265 130.691245 L 114.179578 130.53037 L 113.562282 130.331245 L 112.933721 130.15912 L 112.632958 130.08937 L 112.316424 130.03087 L 112.004397 130.00387 L 111.703634 129.98812 L 111.35556 130.00387 L 111.043532 130.04662 L 110.742769 130.10062 L 110.45327 130.17487 L 110.179542 130.261495 L 109.91032 130.35937 L 109.406795 130.56187 L 109.019295 130.718245 L 108.659956 130.84762 L 108.289353 130.94887 L 108.117006 130.97587 L 107.930015 130.99162 L 107.730632 130.99162 L 107.53125 130.96012 L 107.301453 130.93312 L 107.070531 130.89037 L 106.582776 130.760995 L 106.082631 130.60462 L 106.883539 132.76912 L 107.198946 132.824245 L 107.499709 132.866995 L 107.800472 132.882745 L 107.90298 132.882745 L 108.047166 132.866995 L 108.305124 132.851245 L 108.563081 132.808495 L 108.805269 132.76912 L 109.277253 132.62512 L 109.723328 132.468745 L 110.125472 132.30787 L 110.538881 132.135745 L 110.926381 132.007495 L 111.30149 131.906245 L 111.499746 131.87812 L 111.703634 131.87812 L 111.903016 131.89387 L 112.117042 131.92087 L 112.343459 131.964745 L 112.590153 132.023245 L 113.090298 132.167245 L 113.606214 132.32362 L 114.367696 132.565495 L 115.140443 132.76912 Z M 115.643968 132.839995 " transform="matrix(3.467742,0,0,3.472222,0,0.0000173611)"/>
<path style="fill-rule:evenodd;fill:rgb(0.784314%,1.960784%,1.960784%);fill-opacity:1;stroke-width:0.215738;stroke-linecap:round;stroke-linejoin:miter;stroke:rgb(0.784314%,1.960784%,1.960784%);stroke-opacity:1;stroke-miterlimit:22.926;" d="M 115.140443 132.76912 L 109.406795 135.49162 L 107.656286 134.83237 L 106.328198 135.328495 L 106.445349 135.71437 L 106.500545 136.10587 L 106.515189 136.49962 L 106.472384 136.89112 L 106.386773 137.28487 L 106.245967 137.648245 L 106.05109 138.00037 L 105.812282 138.32437 L 105.546439 138.60112 L 105.237791 138.85537 L 104.902108 139.06687 L 104.534884 139.234495 L 104.156395 139.34362 L 103.762137 139.40212 L 103.371257 139.41787 L 102.976999 139.37512 L 102.586119 139.277245 L 102.218895 139.13662 L 101.867442 138.953245 L 101.546403 138.714745 L 101.265916 138.449245 L 101.011337 138.140995 L 100.80069 137.80012 L 100.632849 137.43787 L 99.316025 137.92612 L 97.449491 132.909745 L 93.781759 132.19537 L 90.226672 132.76912 L 96.761228 137.10937 L 84.019913 141.835495 L 96.047057 141.835495 L 89.437028 147.608995 L 101.523874 142.36762 L 103.957013 148.32787 L 106.222311 142.253995 L 119.167515 147.37837 L 110.796839 140.17612 L 124.960865 141.47662 L 109.734593 136.74937 L 115.643968 132.839995 Z M 115.140443 132.76912 " transform="matrix(3.467742,0,0,3.472222,0,0.0000173611)"/>
<path style="fill-rule:evenodd;fill:rgb(0.784314%,1.960784%,1.960784%);fill-opacity:1;stroke-width:0.215738;stroke-linecap:round;stroke-linejoin:miter;stroke:rgb(0.784314%,1.960784%,1.960784%);stroke-opacity:1;stroke-miterlimit:22.926;" d="M 93.781759 132.19537 L 94.141097 132.065995 L 94.500436 131.953495 L 94.844004 131.894995 L 95.015225 131.879245 L 95.203343 131.879245 L 95.386955 131.894995 L 95.589717 131.937745 L 96.031286 132.038995 L 96.492006 132.16837 L 96.965116 132.324745 L 97.265879 132.425995 L 96.449201 130.187245 L 95.961446 130.08937 L 95.472565 130.01512 L 95.246148 129.98812 L 94.999455 129.98812 L 94.742624 130.00387 L 94.500436 130.03087 L 94.03859 130.117495 L 93.593641 130.245745 L 93.194876 130.40212 L 92.808503 130.562995 L 92.390589 130.718245 L 92.004215 130.86337 L 91.632485 130.94887 L 91.445494 130.976995 L 91.246112 130.99162 L 91.030959 130.976995 L 90.801163 130.94887 L 90.57024 130.90612 L 90.312282 130.84762 L 89.796366 130.691245 L 89.265807 130.531495 L 88.637246 130.33237 L 88.004179 130.160245 L 87.691025 130.08937 L 87.374491 130.03087 L 87.059084 130.00387 L 86.758321 129.98812 L 86.429397 130.00387 L 86.128634 130.04662 L 85.824491 130.101745 L 85.539499 130.175995 L 84.996548 130.35937 L 84.507667 130.562995 L 84.105523 130.718245 L 83.71915 130.86337 L 83.34742 130.94887 L 83.160429 130.97587 L 82.972311 130.99162 L 82.758285 130.97587 L 82.527362 130.94887 L 82.300945 130.90612 L 82.042987 130.84762 L 81.523692 130.691245 L 81.007776 130.531495 L 80.379215 130.33237 L 79.761919 130.160245 L 79.445385 130.08937 L 79.133358 130.03087 L 78.816824 130.00387 L 78.516061 129.98812 L 78.183757 130.00387 L 77.855959 130.04662 L 77.555196 130.101745 L 77.269077 130.175995 L 76.980705 130.261495 L 76.706977 130.35937 L 76.191061 130.574245 L 75.804688 130.733995 L 75.418314 130.86337 L 75.058975 130.94887 L 74.875363 130.97587 L 74.703016 130.99162 L 74.472093 130.97587 L 74.242297 130.94887 L 74.000109 130.90612 L 73.742151 130.84762 L 73.210465 130.691245 L 72.679906 130.51912 L 72.065988 130.331245 L 71.448692 130.160245 L 71.133285 130.08937 L 70.816751 130.03087 L 70.515988 130.00387 L 70.199455 129.98812 L 69.871657 130.00387 L 69.569767 130.04662 L 69.269004 130.101745 L 68.980632 130.17487 L 68.437682 130.35937 L 67.937536 130.56187 L 67.535392 130.718245 L 67.133249 130.86337 L 66.761519 130.94887 L 66.574528 130.97587 L 66.38641 130.99162 L 66.156613 130.97587 L 65.930196 130.94887 L 65.672238 130.90612 L 65.425545 130.84762 L 64.894985 130.691245 L 64.366679 130.51912 L 63.750509 130.331245 L 63.133212 130.160245 L 62.832449 130.08937 L 62.531686 130.03087 L 62.230923 130.00387 L 61.93016 129.98812 L 61.585465 130.00387 L 61.270058 130.04662 L 60.969295 130.10062 L 60.668532 130.17487 L 60.394804 130.261495 L 60.124455 130.35937 L 59.60516 130.57312 L 59.207522 130.733995 L 58.832413 130.862245 L 58.473074 130.94887 L 58.289462 130.97587 L 58.101344 130.99162 L 57.886192 130.97587 L 57.656395 130.94887 L 57.429978 130.90612 L 57.167515 130.846495 L 56.668496 130.691245 L 56.13681 130.53037 L 55.522892 130.331245 L 54.890952 130.15912 L 54.574419 130.08937 L 54.261265 130.03087 L 53.957122 130.002745 L 53.645094 129.98812 L 53.312791 130.002745 L 52.996257 130.04662 L 52.683103 130.10062 L 52.39811 130.17487 L 52.109738 130.261495 L 51.83601 130.358245 L 51.320094 130.57312 L 51.035102 130.69012 L 50.761374 130.787995 L 50.488772 130.87462 L 50.230814 130.94887 L 49.972856 130.97587 L 49.843314 130.99162 L 49.687863 130.97587 L 49.35556 130.94887 L 48.9996 130.87462 L 48.038735 132.565495 L 48.581686 132.71062 L 49.129142 132.82312 L 49.398365 132.851245 L 49.672093 132.866995 L 49.945821 132.866995 L 50.202653 132.851245 L 50.46061 132.82312 L 50.718568 132.76912 L 51.179288 132.639745 L 51.620858 132.479995 L 52.051163 132.30787 L 52.469077 132.151495 L 52.855451 132.007495 L 53.257594 131.90512 L 53.441206 131.87812 L 53.645094 131.87812 L 53.84335 131.89387 L 54.074273 131.92087 L 54.305196 131.96362 L 54.547384 132.02212 L 55.046403 132.167245 L 55.551054 132.32362 L 56.195385 132.522745 L 56.823946 132.69487 L 57.14048 132.76912 L 57.472783 132.82312 L 57.784811 132.86587 L 58.101344 132.88162 L 58.417878 132.86587 L 58.718641 132.82312 L 59.019404 132.76912 L 59.293132 132.69487 L 59.823692 132.51037 L 60.323837 132.30787 L 60.738372 132.151495 L 61.140516 132.007495 L 61.52689 131.90512 L 61.730778 131.87812 L 61.93016 131.87812 L 62.117151 131.89387 L 62.332304 131.90512 L 62.54633 131.95237 L 62.773874 132.00637 L 63.261628 132.151495 L 63.777544 132.30787 L 64.425254 132.522745 L 65.070712 132.69487 L 65.39851 132.76912 L 65.726308 132.82312 L 66.058612 132.86587 L 66.38641 132.88162 L 66.702943 132.86587 L 67.019477 132.82312 L 67.32024 132.76912 L 67.605233 132.69487 L 68.148183 132.51037 L 68.652834 132.30787 L 69.054978 132.135745 L 69.441352 132.00637 L 69.827725 131.90512 L 70.015843 131.87812 L 70.199455 131.87812 L 70.402217 131.89387 L 70.617369 131.90512 L 70.843786 131.95237 L 71.074709 132.00637 L 71.578234 132.151495 L 72.10992 132.32362 L 72.738481 132.522745 L 73.398583 132.69487 L 73.715116 132.76912 L 74.042914 132.82312 L 74.370712 132.86587 L 74.703016 132.88162 L 75.01617 132.86587 L 75.320312 132.82312 L 75.605305 132.76912 L 75.890298 132.69487 L 76.421984 132.51037 L 76.909738 132.30787 L 77.324273 132.151495 L 77.726417 132.00637 L 78.112791 131.90512 L 78.312173 131.87812 L 78.516061 131.87812 L 78.714317 131.89387 L 78.929469 131.92087 L 79.176163 131.96362 L 79.40258 132.02212 L 79.906105 132.167245 L 80.42202 132.32362 L 81.050581 132.522745 L 81.699419 132.693745 L 82.011446 132.767995 L 82.32798 132.82312 L 82.655778 132.86587 L 82.972311 132.88162 L 83.304615 132.86587 L 83.605378 132.82312 L 83.906141 132.767995 L 84.191134 132.693745 L 84.73859 132.51037 L 85.222965 132.30787 L 85.625109 132.135745 L 86.011483 132.00637 L 86.386592 131.90512 L 86.570203 131.87812 L 86.758321 131.87812 L 86.956577 131.89387 L 87.1875 131.92087 L 87.418423 131.96362 L 87.66061 132.02212 L 88.164135 132.167245 L 88.695821 132.32362 L 89.452798 132.565495 L 90.226672 132.767995 Z M 93.781759 132.19537 " transform="matrix(3.467742,0,0,3.472222,0,0.0000173611)"/>
<path style="fill-rule:evenodd;fill:rgb(0.784314%,1.960784%,1.960784%);fill-opacity:1;stroke-width:0.215738;stroke-linecap:round;stroke-linejoin:miter;stroke:rgb(0.784314%,1.960784%,1.960784%);stroke-opacity:1;stroke-miterlimit:22.926;" d="M 95.187573 128.03962 L 95.589717 127.867495 L 94.929615 126.105745 L 94.44186 126.30487 L 94.05436 126.476995 L 93.679251 126.605245 L 93.308648 126.706495 L 93.136301 126.73462 L 92.734157 126.73462 L 92.519004 126.69187 L 92.276817 126.647995 L 92.019985 126.593995 L 91.50407 126.43762 L 90.972384 126.26212 L 90.339317 126.06187 L 89.710756 125.878495 L 89.394222 125.804245 L 89.077689 125.761495 L 88.765661 125.718745 L 88.464898 125.702995 L 88.132594 125.718745 L 87.820567 125.761495 L 87.519804 125.819995 L 87.230305 125.90662 L 86.956577 125.99212 L 86.699746 126.089995 L 86.1996 126.30487 L 85.79633 126.46462 L 85.425727 126.605245 L 85.050618 126.706495 L 84.867006 126.73462 L 84.464862 126.73462 L 84.004142 126.647995 L 83.746185 126.593995 L 83.246039 126.43762 L 82.714353 126.260995 L 82.098183 126.06187 L 81.468496 125.89087 L 81.151962 125.804245 L 80.835429 125.761495 L 80.534666 125.718745 L 80.219259 125.702995 L 79.890334 125.718745 L 79.589571 125.761495 L 79.288808 125.819995 L 79.003815 125.90662 L 78.457485 126.089995 L 77.94157 126.292495 L 77.539426 126.46462 L 77.151926 126.605245 L 76.765552 126.706495 L 76.58194 126.73462 L 76.191061 126.73462 L 75.961265 126.690745 L 75.719077 126.647995 L 75.47689 126.593995 L 74.960974 126.43762 L 74.445058 126.260995 L 73.827762 126.06187 L 73.195821 125.89087 L 72.882667 125.804245 L 72.2496 125.718745 L 71.933067 125.702995 L 71.605269 125.718745 L 71.288735 125.761495 L 70.987972 125.819995 L 70.70298 125.905495 L 70.429251 125.99212 L 70.15665 126.089995 L 69.656504 126.30487 L 69.25436 126.47587 L 68.882631 126.605245 L 68.523292 126.706495 L 68.336301 126.73462 L 67.948801 126.73462 L 67.722384 126.690745 L 67.476817 126.647995 L 67.234629 126.59287 L 66.718714 126.43762 L 66.202798 126.260995 L 65.585501 126.06187 L 64.637028 125.804245 L 64.323874 125.761495 L 64.00734 125.718745 L 63.691933 125.702995 L 63.378779 125.718745 L 63.062246 125.761495 L 62.745712 125.819995 L 62.460719 125.905495 L 61.91439 126.089995 L 61.398474 126.303745 L 60.999709 126.46462 L 60.60883 126.605245 L 60.238227 126.706495 L 60.065879 126.733495 L 59.663735 126.733495 L 59.449709 126.690745 L 59.207522 126.647995 L 58.960828 126.59287 L 58.444913 126.436495 L 57.930124 126.260995 L 57.297057 126.06187 L 56.668496 125.889745 L 56.351962 125.804245 L 56.051199 125.761495 L 55.738045 125.718745 L 55.421512 125.702995 L 55.090334 125.718745 L 54.77718 125.761495 L 54.476417 125.819995 L 54.172275 125.905495 L 53.901926 125.99212 L 53.629324 126.08887 L 53.129179 126.303745 L 52.668459 126.50737 L 52.453307 126.57712 L 52.253924 126.647995 L 52.038772 126.706495 L 51.83601 126.733495 L 51.620858 126.733495 L 51.37867 126.722245 L 50.39077 128.456995 L 50.878525 128.553745 L 51.351635 128.612245 L 51.593823 128.627995 L 51.83601 128.627995 L 52.066933 128.612245 L 52.711265 128.483995 L 53.129179 128.35462 L 53.515552 128.19487 L 53.871512 128.038495 L 54.273656 127.86637 L 54.660029 127.725745 L 55.046403 127.624495 L 55.23452 127.608745 L 55.421512 127.597495 L 55.620894 127.608745 L 55.836047 127.640245 L 56.066969 127.682995 L 56.309157 127.73812 L 56.812682 127.88212 L 57.328597 128.054245 L 57.957158 128.26912 L 58.590225 128.45587 L 58.918023 128.526745 L 59.234557 128.585245 L 59.562355 128.612245 L 59.878888 128.627995 L 60.195422 128.612245 L 60.507449 128.569495 L 60.796948 128.510995 L 61.08194 128.441245 L 61.629397 128.25337 L 62.128416 128.038495 L 62.54633 127.86637 L 62.93383 127.725745 L 63.320203 127.624495 L 63.508321 127.608745 L 63.691933 127.597495 L 63.905959 127.608745 L 64.121112 127.640245 L 64.352035 127.682995 L 64.594222 127.73812 L 65.081977 127.88212 L 65.597892 128.054245 L 66.230959 128.26912 L 66.875291 128.456995 L 67.191824 128.526745 L 67.519622 128.585245 L 67.836156 128.612245 L 68.163953 128.627995 L 68.480487 128.612245 L 68.78125 128.569495 L 69.082013 128.510995 L 69.367006 128.441245 L 69.898692 128.25337 L 70.402217 128.038495 L 70.800981 127.86637 L 71.19186 127.725745 L 71.562464 127.624495 L 71.749455 127.608745 L 71.933067 127.597495 L 72.152725 127.608745 L 72.366751 127.640245 L 72.594295 127.682995 L 72.839862 127.73812 L 73.324237 127.89787 L 73.840153 128.054245 L 74.473219 128.26912 L 75.117551 128.456995 L 75.434084 128.526745 L 75.761882 128.585245 L 76.078416 128.612245 L 76.410719 128.627995 L 76.722747 128.612245 L 77.02351 128.569495 L 77.324273 128.510995 L 77.613772 128.441245 L 78.156722 128.23762 L 78.671512 128.038495 L 79.074782 127.86637 L 79.461156 127.725745 L 79.847529 127.624495 L 80.035647 127.608745 L 80.219259 127.597495 L 80.42202 127.608745 L 80.637173 127.640245 L 80.866969 127.682995 L 81.109157 127.73812 L 81.609302 127.89787 L 82.112827 128.054245 L 82.758285 128.26912 L 83.390225 128.456995 L 83.71915 128.526745 L 84.035683 128.585245 L 84.363481 128.61337 L 84.680015 128.627995 L 85.007812 128.61337 L 85.308576 128.569495 L 85.609339 128.510995 L 85.898837 128.441245 L 86.18383 128.33887 L 86.441788 128.23762 L 86.945313 128.038495 L 87.344077 127.86637 L 87.719186 127.725745 L 88.089789 127.624495 L 88.277907 127.608745 L 88.464898 127.597495 L 88.664281 127.608745 L 88.879433 127.640245 L 89.10923 127.682995 L 89.351417 127.73812 L 89.867333 127.89787 L 90.383249 128.054245 L 91.015189 128.26912 L 91.660647 128.456995 L 91.991824 128.526745 L 92.304978 128.585245 L 92.637282 128.61337 L 92.94931 128.627995 L 93.281613 128.61337 L 93.582376 128.569495 L 93.867369 128.510995 L 94.155741 128.441245 L 94.698692 128.25337 Z M 95.187573 128.03962 " transform="matrix(3.467742,0,0,3.472222,0,0.0000173611)"/>
<path style="fill-rule:evenodd;fill:rgb(0.784314%,1.960784%,1.960784%);fill-opacity:1;stroke-width:0.215738;stroke-linecap:round;stroke-linejoin:miter;stroke:rgb(0.784314%,1.960784%,1.960784%);stroke-opacity:1;stroke-miterlimit:22.926;" d="M 91.015189 124.02787 L 90.511664 124.23037 L 90.242442 124.328245 L 89.968714 124.429495 L 89.683721 124.50037 L 89.382958 124.55887 L 89.066424 124.60162 L 88.738626 124.61737 L 88.422093 124.60162 L 88.10556 124.57462 L 87.777762 124.51612 L 87.461228 124.445245 L 86.816897 124.25737 L 86.18383 124.042495 L 85.667914 123.887245 L 85.18016 123.72637 L 84.937972 123.67237 L 84.707049 123.62512 L 84.491897 123.59812 L 84.277871 123.58237 L 84.105523 123.59812 L 83.918532 123.62512 L 83.531032 123.71512 L 83.144658 123.855745 L 82.745894 124.026745 L 82.226599 124.23037 L 81.683648 124.429495 L 81.39415 124.50037 L 81.093387 124.55887 L 80.781359 124.60162 L 80.464826 124.61737 L 80.148292 124.60162 L 79.820494 124.57462 L 79.503961 124.514995 L 79.176163 124.445245 L 78.543096 124.25737 L 77.914535 124.042495 L 77.398619 123.88612 L 76.895094 123.72637 L 76.652907 123.671245 L 76.421984 123.62512 L 76.206831 123.59812 L 76.00407 123.58237 L 75.820458 123.59812 L 75.63234 123.612745 L 75.245967 123.71512 L 74.875363 123.855745 L 74.457449 124.026745 L 73.968568 124.24162 L 73.425618 124.429495 L 73.140625 124.50037 L 72.851126 124.55887 L 72.535719 124.60162 L 72.222565 124.61737 L 71.906032 124.60162 L 71.578234 124.57462 L 71.261701 124.514995 L 70.945167 124.445245 L 70.300836 124.25737 L 69.672275 124.042495 L 69.151853 123.871495 L 68.652834 123.72637 L 68.410647 123.671245 L 68.179724 123.62512 L 67.964571 123.596995 L 67.765189 123.58237 L 67.39008 123.612745 L 67.003706 123.71512 L 66.617333 123.855745 L 66.202798 124.026745 L 65.699273 124.24162 L 65.156323 124.429495 L 64.866824 124.50037 L 64.566061 124.55887 L 64.265298 124.60162 L 63.948765 124.61737 L 63.620967 124.60162 L 63.304433 124.573495 L 62.9879 124.514995 L 62.660102 124.445245 L 62.01577 124.25737 L 61.382703 124.042495 L 60.882558 123.87037 L 60.379033 123.72637 L 60.136846 123.671245 L 59.910429 123.62512 L 59.691897 123.596995 L 59.492515 123.58237 L 59.293132 123.596995 L 59.105015 123.612745 L 58.734411 123.71512 L 58.343532 123.855745 L 57.944767 124.026745 L 57.441243 124.24162 L 56.925327 124.429495 L 56.640334 124.499245 L 56.351962 124.55887 L 56.051199 124.60162 L 55.738045 124.61737 L 55.421512 124.60162 L 55.090334 124.573495 L 54.77718 124.514995 L 54.444876 124.445245 L 53.800545 124.25737 L 53.171984 124.042495 L 52.941061 123.972745 L 53.901926 122.29312 L 54.402071 122.46862 L 54.906722 122.609245 L 55.14891 122.651995 L 55.378706 122.694745 L 55.593859 122.726245 L 55.78085 122.726245 L 55.953198 122.710495 L 56.121039 122.683495 L 56.453343 122.597995 L 56.812682 122.46862 L 57.183285 122.29312 L 57.699201 122.078245 L 57.972929 121.98037 L 58.246657 121.89487 L 58.53165 121.808245 L 58.848183 121.749745 L 59.16359 121.706995 L 59.492515 121.691245 L 59.793278 121.706995 L 60.109811 121.749745 L 60.421839 121.792495 L 60.738372 121.86337 L 61.371439 122.051245 L 61.988735 122.253745 L 62.515916 122.42587 L 63.01944 122.582245 L 63.277398 122.640745 L 63.508321 122.683495 L 63.734738 122.726245 L 64.121112 122.726245 L 64.308103 122.69587 L 64.679833 122.597995 L 65.054942 122.45287 L 65.457086 122.29312 L 65.973001 122.078245 L 66.531722 121.89487 L 66.816715 121.808245 L 67.117478 121.749745 L 67.434012 121.706995 L 67.765189 121.691245 L 68.078343 121.706995 L 68.394876 121.749745 L 68.69564 121.792495 L 69.012173 121.86337 L 69.640734 122.051245 L 70.273801 122.253745 L 70.78859 122.42587 L 71.304506 122.582245 L 71.546693 122.640745 L 71.793387 122.683495 L 72.007413 122.726245 L 72.406177 122.726245 L 72.578525 122.69587 L 72.953634 122.597995 L 73.324237 122.46862 L 73.715116 122.29312 L 74.231032 122.078245 L 74.487863 121.98037 L 75.058975 121.808245 L 75.359738 121.749745 L 75.676272 121.706995 L 76.00407 121.691245 L 76.320603 121.706995 L 76.637137 121.749745 L 76.9379 121.79362 L 77.254433 121.86337 L 77.882994 122.051245 L 78.516061 122.253745 L 79.03085 122.42587 L 79.546766 122.582245 L 79.793459 122.640745 L 80.019876 122.683495 L 80.249673 122.726245 L 80.651817 122.726245 L 80.835429 122.69587 L 81.210538 122.597995 L 81.609302 122.45287 L 82.011446 122.28187 L 82.516097 122.078245 L 83.073692 121.87912 L 83.359811 121.808245 L 83.660574 121.749745 L 83.961337 121.706995 L 84.277871 121.691245 L 84.593278 121.706995 L 84.906432 121.749745 L 85.222965 121.79362 L 85.539499 121.86337 L 86.171439 122.051245 L 86.785356 122.253745 L 87.301272 122.42587 L 87.820567 122.582245 L 88.062754 122.640745 L 88.304942 122.683495 L 88.534738 122.72737 L 88.938009 122.72737 L 89.10923 122.69587 L 89.480959 122.597995 L 89.867333 122.45287 L 90.253706 122.29312 L 90.58601 122.152495 L 90.913808 122.024245 L 91.257376 121.89487 L 91.632485 121.79362 L 92.019985 121.722745 L 92.433394 121.691245 L 92.851308 121.706995 L 93.250073 121.765495 L 93.582376 122.453995 L 94.125327 123.941245 L 93.652217 123.80062 L 93.194876 123.67237 L 92.98085 123.62512 L 92.776962 123.59812 L 92.589971 123.58237 L 92.406359 123.58237 L 92.234012 123.59812 L 92.062791 123.64087 L 91.733866 123.72637 L 91.374528 123.871495 Z M 91.015189 124.02787 " transform="matrix(3.467742,0,0,3.472222,0,0.0000173611)"/>
<path style="fill-rule:evenodd;fill:rgb(0.784314%,1.960784%,1.960784%);fill-opacity:1;stroke-width:0.215738;stroke-linecap:round;stroke-linejoin:miter;stroke:rgb(0.784314%,1.960784%,1.960784%);stroke-opacity:1;stroke-miterlimit:22.926;" d="M 92.819767 120.831745 L 54.734375 120.831745 L 55.809012 118.957495 L 91.933249 118.957495 Z M 92.819767 120.831745 " transform="matrix(3.467742,0,0,3.472222,0,0.0000173611)"/>
<path style="fill-rule:evenodd;fill:rgb(0.784314%,1.960784%,1.960784%);fill-opacity:1;stroke-width:0.215738;stroke-linecap:round;stroke-linejoin:miter;stroke:rgb(0.784314%,1.960784%,1.960784%);stroke-opacity:1;stroke-miterlimit:22.926;" d="M 92.878343 78.527245 L 92.878343 83.828245 L 79.676308 83.828245 L 79.676308 78.511495 Z M 92.878343 78.527245 " transform="matrix(3.467742,0,0,3.472222,0,0.0000173611)"/>
<path style="fill-rule:evenodd;fill:rgb(0.784314%,1.960784%,1.960784%);fill-opacity:1;stroke-width:0.215738;stroke-linecap:round;stroke-linejoin:miter;stroke:rgb(0.784314%,1.960784%,1.960784%);stroke-opacity:1;stroke-miterlimit:22.926;" d="M 105.894513 84.570745 L 103.574019 89.34412 L 91.714717 83.57062 L 94.03859 78.78487 Z M 105.894513 84.570745 " transform="matrix(3.467742,0,0,3.472222,0,0.0000173611)"/>
<path style="fill-rule:evenodd;fill:rgb(0.784314%,1.960784%,1.960784%);fill-opacity:1;stroke-width:0.215738;stroke-linecap:round;stroke-linejoin:miter;stroke:rgb(0.784314%,1.960784%,1.960784%);stroke-opacity:1;stroke-miterlimit:22.926;" d="M 107.382558 86.948995 L 107.355523 86.577745 L 107.285683 86.206495 L 107.156141 85.84762 L 106.96915 85.51912 L 106.738227 85.21537 L 106.464499 84.94537 L 106.168241 84.714745 L 105.835938 84.54262 L 105.476599 84.41437 L 105.12064 84.327745 L 104.734266 84.300745 L 104.359157 84.327745 L 103.988554 84.41437 L 103.629215 84.54262 L 103.300291 84.714745 L 102.996148 84.94537 L 102.726926 85.21537 L 102.496003 85.51912 L 102.324782 85.84762 L 102.179469 86.206495 L 102.109629 86.577745 L 102.082594 86.948995 L 102.109629 87.335995 L 102.179469 87.71062 L 102.324782 88.05487 L 102.496003 88.397995 L 102.726926 88.699495 L 102.996148 88.95712 L 103.300291 89.187745 L 103.629215 89.37112 L 103.988554 89.500495 L 104.359157 89.585995 L 104.734266 89.612995 L 105.12064 89.585995 L 105.476599 89.500495 L 105.835938 89.37112 L 106.168241 89.187745 L 106.464499 88.95712 L 106.738227 88.699495 L 106.96915 88.397995 L 107.156141 88.05487 L 107.285683 87.71062 L 107.355523 87.335995 Z M 107.382558 86.948995 " transform="matrix(3.467742,0,0,3.472222,0,0.0000173611)"/>
<path style="fill-rule:evenodd;fill:rgb(0.784314%,1.960784%,1.960784%);fill-opacity:1;stroke-width:0.215738;stroke-linecap:round;stroke-linejoin:miter;stroke:rgb(0.784314%,1.960784%,1.960784%);stroke-opacity:1;stroke-miterlimit:22.926;" d="M 95.527762 81.175495 L 95.4996 80.804245 L 95.41399 80.42962 L 95.285574 80.07412 L 95.097456 79.742245 L 94.88343 79.445245 L 94.613081 79.17187 L 94.312318 78.941245 L 93.980015 78.75337 L 93.625182 78.62512 L 93.250073 78.554245 L 92.879469 78.527245 L 92.491969 78.554245 L 92.11686 78.62512 L 91.773292 78.75337 L 91.429724 78.941245 L 91.128961 79.17187 L 90.871003 79.445245 L 90.641206 79.742245 L 90.457594 80.07412 L 90.324673 80.42962 L 90.237936 80.804245 L 90.210901 81.175495 L 90.237936 81.551245 L 90.324673 81.92137 L 90.457594 82.28137 L 90.641206 82.60987 L 90.871003 82.910245 L 91.128961 83.18362 L 91.429724 83.409745 L 91.773292 83.59762 L 92.11686 83.726995 L 92.491969 83.801245 L 92.879469 83.828245 L 93.250073 83.801245 L 93.625182 83.726995 L 93.980015 83.59762 L 94.312318 83.409745 L 94.613081 83.18362 L 94.88343 82.910245 L 95.097456 82.60987 L 95.285574 82.28137 L 95.41399 81.92137 L 95.4996 81.551245 Z M 95.527762 81.175495 " transform="matrix(3.467742,0,0,3.472222,0,0.0000173611)"/>
<path style="fill-rule:evenodd;fill:rgb(0.784314%,1.960784%,1.960784%);fill-opacity:1;stroke-width:0.215738;stroke-linecap:round;stroke-linejoin:miter;stroke:rgb(0.784314%,1.960784%,1.960784%);stroke-opacity:1;stroke-miterlimit:22.926;" d="M 82.32798 81.175495 L 82.296439 80.78962 L 82.226599 80.41837 L 82.098183 80.07412 L 81.910065 79.730995 L 81.679142 79.429495 L 81.40992 79.17187 L 81.109157 78.941245 L 80.776853 78.75337 L 80.42202 78.62512 L 80.046911 78.53962 L 79.676308 78.511495 L 79.301199 78.53962 L 78.929469 78.62512 L 78.570131 78.75337 L 78.242333 78.941245 L 77.94157 79.17187 L 77.667842 79.429495 L 77.438045 79.730995 L 77.265698 80.07412 L 77.121512 80.41837 L 77.050545 80.78962 L 77.02351 81.175495 L 77.050545 81.551245 L 77.121512 81.92137 L 77.265698 82.28137 L 77.438045 82.60987 L 77.667842 82.910245 L 77.94157 83.18362 L 78.242333 83.398495 L 78.570131 83.58187 L 78.929469 83.711245 L 79.301199 83.801245 L 79.676308 83.828245 L 80.046911 83.801245 L 80.42202 83.711245 L 80.776853 83.58187 L 81.109157 83.398495 L 81.40992 83.18362 L 81.679142 82.910245 L 81.910065 82.60987 L 82.098183 82.28137 L 82.226599 81.92137 L 82.296439 81.551245 Z M 82.32798 81.175495 " transform="matrix(3.467742,0,0,3.472222,0,0.0000173611)"/>
<path style="fill-rule:evenodd;fill:rgb(0.784314%,1.960784%,1.960784%);fill-opacity:1;stroke-width:0.215738;stroke-linecap:round;stroke-linejoin:miter;stroke:rgb(0.784314%,1.960784%,1.960784%);stroke-opacity:1;stroke-miterlimit:22.926;" d="M 133.874491 114.160495 L 133.847456 113.784745 L 133.777616 113.41462 L 133.632304 113.05462 L 133.461083 112.72612 L 133.23016 112.42237 L 132.957558 112.15237 L 132.656795 111.921745 L 132.327871 111.73387 L 131.968532 111.60562 L 131.597929 111.534745 L 131.22282 111.507745 L 130.85109 111.534745 L 130.480487 111.60562 L 130.121148 111.73387 L 129.788844 111.921745 L 129.488081 112.15237 L 129.218859 112.42237 L 128.987936 112.72612 L 128.800945 113.05462 L 128.671403 113.41462 L 128.601562 113.784745 L 128.570022 114.160495 L 128.601562 114.531745 L 128.671403 114.90187 L 128.800945 115.26187 L 128.987936 115.59037 L 129.218859 115.890745 L 129.488081 116.16412 L 129.788844 116.390245 L 130.121148 116.56237 L 130.480487 116.707495 L 130.85109 116.777245 L 131.22282 116.808745 L 131.597929 116.777245 L 131.968532 116.707495 L 132.327871 116.56237 L 132.656795 116.390245 L 132.957558 116.16412 L 133.23016 115.890745 L 133.461083 115.59037 L 133.632304 115.26187 L 133.777616 114.90187 L 133.847456 114.531745 Z M 133.874491 114.160495 " transform="matrix(3.467742,0,0,3.472222,0,0.0000173611)"/>
<path style="fill-rule:evenodd;fill:rgb(0.784314%,1.960784%,1.960784%);fill-opacity:1;stroke-width:0.215738;stroke-linecap:round;stroke-linejoin:miter;stroke:rgb(0.784314%,1.960784%,1.960784%);stroke-opacity:1;stroke-miterlimit:22.926;" d="M 123.957195 105.44512 L 123.925654 105.07387 L 123.855814 104.70262 L 123.710501 104.354995 L 123.539281 104.01187 L 123.312863 103.71487 L 123.039135 103.441495 L 122.738372 103.22662 L 122.406068 103.038745 L 122.051235 102.910495 L 121.676126 102.82387 L 121.304397 102.79687 L 120.929288 102.82387 L 120.558685 102.910495 L 120.199346 103.038745 L 119.871548 103.22662 L 119.570785 103.441495 L 119.297057 103.71487 L 119.066134 104.01187 L 118.894913 104.354995 L 118.754106 104.70262 L 118.67976 105.07387 L 118.652725 105.44512 L 118.67976 105.83212 L 118.754106 106.206745 L 118.894913 106.550995 L 119.066134 106.89412 L 119.297057 107.19562 L 119.570785 107.464495 L 119.871548 107.67937 L 120.199346 107.867245 L 120.558685 107.99662 L 120.929288 108.08212 L 121.304397 108.11362 L 121.676126 108.08212 L 122.051235 107.99662 L 122.406068 107.867245 L 122.738372 107.67937 L 123.039135 107.464495 L 123.312863 107.19562 L 123.539281 106.89412 L 123.710501 106.550995 L 123.855814 106.206745 L 123.925654 105.83212 Z M 123.957195 105.44512 " transform="matrix(3.467742,0,0,3.472222,0,0.0000173611)"/>
<path style="fill-rule:evenodd;fill:rgb(0.784314%,1.960784%,1.960784%);fill-opacity:1;stroke-width:0.215738;stroke-linecap:round;stroke-linejoin:miter;stroke:rgb(0.784314%,1.960784%,1.960784%);stroke-opacity:1;stroke-miterlimit:22.926;" d="M 113.460901 97.46437 L 113.433866 97.078495 L 113.348256 96.722995 L 113.218714 96.362995 L 113.031722 96.03562 L 112.805305 95.73412 L 112.547347 95.460745 L 112.230814 95.23012 L 111.89851 95.046745 L 111.554942 94.913995 L 111.183212 94.828495 L 110.796839 94.81612 L 110.426235 94.828495 L 110.051126 94.913995 L 109.691788 95.046745 L 109.362863 95.23012 L 109.0621 95.460745 L 108.789499 95.73412 L 108.574346 96.03562 L 108.387355 96.362995 L 108.257813 96.722995 L 108.172202 97.078495 L 108.145167 97.46437 L 108.172202 97.84012 L 108.257813 98.21137 L 108.387355 98.570245 L 108.574346 98.898745 L 108.789499 99.19912 L 109.0621 99.472495 L 109.362863 99.70312 L 109.691788 99.875245 L 110.051126 100.01587 L 110.426235 100.09012 L 110.796839 100.11712 L 111.183212 100.09012 L 111.554942 100.01587 L 111.89851 99.875245 L 112.230814 99.70312 L 112.547347 99.472495 L 112.805305 99.19912 L 113.031722 98.898745 L 113.218714 98.570245 L 113.348256 98.21137 L 113.433866 97.84012 Z M 113.460901 97.46437 " transform="matrix(3.467742,0,0,3.472222,0,0.0000173611)"/>
<path style="fill-rule:evenodd;fill:rgb(0.784314%,1.960784%,1.960784%);fill-opacity:1;stroke-width:0.215738;stroke-linecap:round;stroke-linejoin:miter;stroke:rgb(0.784314%,1.960784%,1.960784%);stroke-opacity:1;stroke-miterlimit:22.926;" d="M 121.288626 87.46537 L 121.261592 86.948995 L 121.191751 86.433745 L 121.05883 85.93312 L 120.886483 85.42912 L 120.660065 84.97237 L 120.386337 84.51562 L 120.085574 84.09712 L 119.726235 83.711245 L 119.339862 83.366995 L 118.925327 83.054245 L 118.480378 82.78087 L 118.008394 82.565995 L 117.519513 82.394995 L 117.019368 82.26562 L 116.500073 82.19587 L 115.972892 82.16437 L 115.453597 82.19587 L 114.941061 82.26562 L 114.437536 82.394995 L 113.949782 82.565995 L 113.476672 82.78087 L 113.031722 83.054245 L 112.617188 83.366995 L 112.230814 83.711245 L 111.871475 84.09712 L 111.570712 84.51562 L 111.296984 84.97237 L 111.070567 85.42912 L 110.898219 85.93312 L 110.765298 86.433745 L 110.695458 86.948995 L 110.668423 87.46537 L 110.695458 87.99637 L 110.765298 88.51162 L 110.898219 89.01562 L 111.070567 89.500495 L 111.296984 89.972995 L 111.570712 90.418495 L 111.871475 90.832495 L 112.230814 91.21837 L 112.617188 91.57837 L 113.031722 91.878745 L 113.476672 92.15212 L 113.949782 92.37937 L 114.437536 92.55037 L 114.941061 92.679745 L 115.453597 92.753995 L 115.972892 92.780995 L 116.500073 92.753995 L 117.019368 92.679745 L 117.519513 92.55037 L 118.008394 92.37937 L 118.480378 92.15212 L 118.925327 91.878745 L 119.339862 91.57837 L 119.726235 91.21837 L 120.085574 90.832495 L 120.386337 90.418495 L 120.660065 89.972995 L 120.886483 89.500495 L 121.05883 89.01562 L 121.191751 88.51162 L 121.261592 87.99637 Z M 121.288626 87.46537 " transform="matrix(3.467742,0,0,3.472222,0,0.0000173611)"/>
<path style="fill-rule:evenodd;fill:rgb(0.784314%,1.960784%,1.960784%);fill-opacity:1;stroke-width:0.215738;stroke-linecap:round;stroke-linejoin:miter;stroke:rgb(0.784314%,1.960784%,1.960784%);stroke-opacity:1;stroke-miterlimit:22.926;" d="M 64.968205 105.605995 L 64.953561 105.203245 L 64.866824 104.816245 L 64.738408 104.44162 L 64.566061 104.08612 L 64.352035 103.75762 L 64.078307 103.457245 L 63.793314 103.19962 L 63.46101 102.980245 L 63.101672 102.79687 L 62.731068 102.667495 L 62.327798 102.593245 L 61.941424 102.566245 L 61.54266 102.593245 L 61.152907 102.667495 L 60.781177 102.79687 L 60.421839 102.980245 L 60.094041 103.19962 L 59.793278 103.457245 L 59.53532 103.75762 L 59.320167 104.08612 L 59.133176 104.44162 L 59.003634 104.816245 L 58.929288 105.203245 L 58.902253 105.605995 L 58.929288 106.004245 L 59.003634 106.39012 L 59.133176 106.76587 L 59.320167 107.12137 L 59.53532 107.453245 L 59.793278 107.75362 L 60.094041 108.011245 L 60.421839 108.22612 L 60.781177 108.413995 L 61.152907 108.54337 L 61.54266 108.61312 L 61.941424 108.64012 L 62.327798 108.61312 L 62.731068 108.54337 L 63.101672 108.413995 L 63.46101 108.22612 L 63.793314 108.011245 L 64.078307 107.75362 L 64.352035 107.453245 L 64.566061 107.12137 L 64.738408 106.76587 L 64.866824 106.39012 L 64.953561 106.004245 Z M 64.968205 105.605995 " transform="matrix(3.467742,0,0,3.472222,0,0.0000173611)"/>
<path style="fill-rule:evenodd;fill:rgb(0.784314%,1.960784%,1.960784%);fill-opacity:1;stroke-width:0.215738;stroke-linecap:round;stroke-linejoin:miter;stroke:rgb(0.784314%,1.960784%,1.960784%);stroke-opacity:1;stroke-miterlimit:22.926;" d="M 106.507304 136.379245 L 106.496039 135.976495 L 106.410429 135.589495 L 106.280887 135.218245 L 106.109666 134.85937 L 105.894513 134.53087 L 105.620785 134.230495 L 105.335792 133.97287 L 105.003488 133.757995 L 104.648656 133.57012 L 104.257776 133.44187 L 103.871403 133.370995 L 103.483903 133.339495 L 103.081759 133.370995 L 102.698765 133.44187 L 102.324782 133.57012 L 101.965443 133.757995 L 101.636519 133.97287 L 101.335756 134.230495 L 101.077798 134.53087 L 100.848001 134.85937 L 100.675654 135.218245 L 100.547238 135.589495 L 100.476272 135.976495 L 100.445858 136.379245 L 100.476272 136.78087 L 100.547238 137.16787 L 100.675654 137.53912 L 100.848001 137.897995 L 101.077798 138.226495 L 101.335756 138.52687 L 101.636519 138.78562 L 101.965443 139.000495 L 102.324782 139.187245 L 102.698765 139.31662 L 103.081759 139.38637 L 103.483903 139.414495 L 103.871403 139.38637 L 104.257776 139.31662 L 104.648656 139.187245 L 105.003488 139.000495 L 105.335792 138.78562 L 105.620785 138.52687 L 105.894513 138.226495 L 106.109666 137.897995 L 106.280887 137.53912 L 106.410429 137.16787 L 106.496039 136.78087 Z M 106.507304 136.379245 " transform="matrix(3.467742,0,0,3.472222,0,0.0000173611)"/>
<path style="fill-rule:evenodd;fill:rgb(0.784314%,1.960784%,1.960784%);fill-opacity:1;stroke-width:0.215738;stroke-linecap:round;stroke-linejoin:miter;stroke:rgb(0.784314%,1.960784%,1.960784%);stroke-opacity:1;stroke-miterlimit:22.926;" d="M 93.593641 105.648745 L 93.582376 105.245995 L 93.49226 104.858995 L 93.363844 104.487745 L 93.191497 104.12887 L 92.976344 103.80037 L 92.707122 103.499995 L 92.417624 103.24237 L 92.089826 103.011745 L 91.730487 102.83962 L 91.359884 102.71137 L 90.956613 102.63712 L 90.57024 102.608995 L 90.168096 102.63712 L 89.781722 102.71137 L 89.409993 102.83962 L 89.050654 103.011745 L 88.71835 103.24237 L 88.417587 103.499995 L 88.160756 103.80037 L 87.945603 104.12887 L 87.757485 104.487745 L 87.62907 104.858995 L 87.558103 105.245995 L 87.531068 105.648745 L 87.558103 106.03462 L 87.62907 106.433995 L 87.757485 106.80862 L 87.945603 107.16412 L 88.160756 107.495995 L 88.417587 107.781745 L 88.71835 108.05512 L 89.050654 108.269995 L 89.409993 108.440995 L 89.781722 108.57037 L 90.168096 108.65587 L 90.57024 108.668245 L 90.956613 108.65587 L 91.359884 108.57037 L 91.730487 108.440995 L 92.089826 108.269995 L 92.417624 108.05512 L 92.707122 107.781745 L 92.976344 107.495995 L 93.191497 107.16412 L 93.363844 106.80862 L 93.49226 106.433995 L 93.582376 106.03462 Z M 93.593641 105.648745 " transform="matrix(3.467742,0,0,3.472222,0,0.0000173611)"/>
<path style="fill-rule:evenodd;fill:rgb(0.784314%,1.960784%,1.960784%);fill-opacity:1;stroke-width:0.215738;stroke-linecap:round;stroke-linejoin:miter;stroke:rgb(0.784314%,1.960784%,1.960784%);stroke-opacity:1;stroke-miterlimit:22.926;" d="M 90.57024 100.390495 L 90.543205 99.987745 L 90.468859 99.60187 L 90.340443 99.22612 L 90.152326 98.87062 L 89.937173 98.543245 L 89.679215 98.23837 L 89.378452 97.980745 L 89.050654 97.76587 L 88.691315 97.582495 L 88.320712 97.45312 L 87.929833 97.37887 L 87.531068 97.35187 L 87.144695 97.37887 L 86.742551 97.45312 L 86.370821 97.582495 L 86.011483 97.76587 L 85.680305 97.980745 L 85.394186 98.23837 L 85.121584 98.543245 L 84.906432 98.87062 L 84.734084 99.22612 L 84.605669 99.60187 L 84.520058 99.987745 L 84.504288 100.390495 L 84.520058 100.788745 L 84.605669 101.175745 L 84.734084 101.55037 L 84.906432 101.90587 L 85.121584 102.237745 L 85.394186 102.539245 L 85.680305 102.79687 L 86.011483 103.011745 L 86.370821 103.19962 L 86.742551 103.32787 L 87.144695 103.398745 L 87.531068 103.425745 L 87.929833 103.398745 L 88.320712 103.32787 L 88.691315 103.19962 L 89.050654 103.011745 L 89.378452 102.79687 L 89.679215 102.539245 L 89.937173 102.237745 L 90.152326 101.90587 L 90.340443 101.55037 L 90.468859 101.175745 L 90.543205 100.788745 Z M 90.57024 100.390495 " transform="matrix(3.467742,0,0,3.472222,0,0.0000173611)"/>
<path style="fill-rule:evenodd;fill:rgb(0.784314%,1.960784%,1.960784%);fill-opacity:1;stroke-width:0.215738;stroke-linecap:round;stroke-linejoin:miter;stroke:rgb(0.784314%,1.960784%,1.960784%);stroke-opacity:1;stroke-miterlimit:22.926;" d="M 79.847529 113.168245 L 79.815988 112.781245 L 79.746148 112.378495 L 79.617733 112.00837 L 79.429615 111.64837 L 79.214462 111.31987 L 78.957631 111.019495 L 78.656868 110.76187 L 78.327943 110.546995 L 77.968605 110.37487 L 77.598001 110.24662 L 77.207122 110.159995 L 76.808358 110.132995 L 76.421984 110.159995 L 76.01984 110.24662 L 75.64811 110.37487 L 75.288772 110.546995 L 74.957594 110.76187 L 74.671475 111.019495 L 74.398874 111.31987 L 74.183721 111.64837 L 74.011374 112.00837 L 73.882958 112.378495 L 73.797347 112.781245 L 73.781577 113.168245 L 73.797347 113.56987 L 73.882958 113.95687 L 74.011374 114.32812 L 74.183721 114.686995 L 74.398874 115.015495 L 74.671475 115.31587 L 74.957594 115.57462 L 75.288772 115.80412 L 75.64811 115.976245 L 76.01984 116.10562 L 76.421984 116.17537 L 76.808358 116.20687 L 77.207122 116.17537 L 77.598001 116.10562 L 77.968605 115.976245 L 78.327943 115.80412 L 78.656868 115.57462 L 78.957631 115.31587 L 79.214462 115.015495 L 79.429615 114.686995 L 79.617733 114.32812 L 79.746148 113.95687 L 79.815988 113.56987 Z M 79.847529 113.168245 " transform="matrix(3.467742,0,0,3.472222,0,0.0000173611)"/>
<path style="fill-rule:evenodd;fill:rgb(0.784314%,1.960784%,1.960784%);fill-opacity:1;stroke-width:0.215738;stroke-linecap:round;stroke-linejoin:miter;stroke:rgb(0.784314%,1.960784%,1.960784%);stroke-opacity:1;stroke-miterlimit:22.926;" d="M 100.718459 120.73387 L 100.691424 120.332245 L 100.617078 119.945245 L 100.488663 119.573995 L 100.316315 119.21512 L 100.089898 118.88662 L 99.828561 118.581745 L 99.527798 118.32412 L 99.198874 118.113745 L 98.839535 117.92587 L 98.468932 117.796495 L 98.082558 117.726745 L 97.679288 117.695245 L 97.292914 117.726745 L 96.906541 117.796495 L 96.519041 117.92587 L 96.175472 118.113745 L 95.831904 118.32412 L 95.543532 118.581745 L 95.269804 118.88662 L 95.059157 119.21512 L 94.88343 119.573995 L 94.753888 119.945245 L 94.684048 120.332245 L 94.655887 120.73387 L 94.684048 121.133245 L 94.753888 121.51912 L 94.88343 121.89487 L 95.059157 122.253745 L 95.269804 122.582245 L 95.543532 122.88262 L 95.831904 123.140245 L 96.175472 123.35512 L 96.519041 123.53962 L 96.906541 123.67237 L 97.292914 123.74212 L 97.679288 123.77362 L 98.082558 123.74212 L 98.468932 123.67237 L 98.839535 123.53962 L 99.198874 123.35512 L 99.527798 123.140245 L 99.828561 122.88262 L 100.089898 122.582245 L 100.316315 122.253745 L 100.488663 121.89487 L 100.617078 121.51912 L 100.691424 121.133245 Z M 100.718459 120.73387 " transform="matrix(3.467742,0,0,3.472222,0,0.0000173611)"/>
<path style="fill-rule:evenodd;fill:rgb(0.784314%,1.960784%,1.960784%);fill-opacity:1;stroke-width:0.215738;stroke-linecap:round;stroke-linejoin:miter;stroke:rgb(0.784314%,1.960784%,1.960784%);stroke-opacity:1;stroke-miterlimit:22.926;" d="M 107.043496 85.632745 L 86.011483 97.76587 L 92.089826 108.269995 L 113.104942 96.13237 Z M 107.043496 85.632745 " transform="matrix(3.467742,0,0,3.472222,0,0.0000173611)"/>
<path style="fill-rule:evenodd;fill:rgb(0.784314%,1.960784%,1.960784%);fill-opacity:1;stroke-width:0.215738;stroke-linecap:round;stroke-linejoin:miter;stroke:rgb(0.784314%,1.960784%,1.960784%);stroke-opacity:1;stroke-miterlimit:22.926;" d="M 78.183757 110.46037 L 75.434084 115.874995 L 60.566025 108.312745 L 63.320203 102.894745 Z M 78.183757 110.46037 " transform="matrix(3.467742,0,0,3.472222,0,0.0000173611)"/>
<path style="fill-rule:evenodd;fill:rgb(0.784314%,1.960784%,1.960784%);fill-opacity:1;stroke-width:0.215738;stroke-linecap:round;stroke-linejoin:miter;stroke:rgb(0.784314%,1.960784%,1.960784%);stroke-opacity:1;stroke-miterlimit:22.926;" d="M 132.972202 112.16362 L 129.476817 116.14837 L 119.555015 107.453245 L 123.0504 103.457245 Z M 132.972202 112.16362 " transform="matrix(3.467742,0,0,3.472222,0,0.0000173611)"/>
<path style="fill-rule:evenodd;fill:rgb(0.784314%,1.960784%,1.960784%);fill-opacity:1;stroke-width:0.215738;stroke-linecap:round;stroke-linejoin:miter;stroke:rgb(0.784314%,1.960784%,1.960784%);stroke-opacity:1;stroke-miterlimit:22.926;" d="M 106.323692 135.31612 L 100.632849 137.43787 L 94.844004 121.792495 L 100.531468 119.67187 Z M 106.323692 135.31612 " transform="matrix(3.467742,0,0,3.472222,0,0.0000173611)"/>
<path style="fill-rule:evenodd;fill:rgb(0.784314%,1.960784%,1.960784%);fill-opacity:1;stroke-width:0.215738;stroke-linecap:round;stroke-linejoin:miter;stroke:rgb(0.784314%,1.960784%,1.960784%);stroke-opacity:1;stroke-miterlimit:22.926;" d="M 89.851563 102.33562 L 85.207195 98.44087 L 74.484484 111.21862 L 79.128852 115.116745 Z M 89.851563 102.33562 " transform="matrix(3.467742,0,0,3.472222,0,0.0000173611)"/>
<path style="fill-rule:evenodd;fill:rgb(0.784314%,1.960784%,1.960784%);fill-opacity:1;stroke-width:0.215738;stroke-linecap:round;stroke-linejoin:miter;stroke:rgb(0.784314%,1.960784%,1.960784%);stroke-opacity:1;stroke-miterlimit:22.926;" d="M 100.433467 119.445745 L 94.940879 122.02312 L 87.816061 106.937995 L 93.308648 104.343745 Z M 100.433467 119.445745 " transform="matrix(3.467742,0,0,3.472222,0,0.0000173611)"/>
<path style="fill-rule:evenodd;fill:rgb(0.784314%,1.960784%,1.960784%);fill-opacity:1;stroke-width:0.215738;stroke-linecap:round;stroke-linejoin:miter;stroke:rgb(0.784314%,1.960784%,1.960784%);stroke-opacity:1;stroke-miterlimit:22.926;" d="M 122.910719 103.340245 L 119.699201 107.56687 L 109.191642 99.57037 L 112.402035 95.34712 Z M 122.910719 103.340245 " transform="matrix(3.467742,0,0,3.472222,0,0.0000173611)"/>
</g>
</svg>
