<?xml version="1.0" encoding="UTF-8" standalone="no"?>
<svg
   xmlns:dc="http://purl.org/dc/elements/1.1/"
   xmlns:cc="http://creativecommons.org/ns#"
   xmlns:rdf="http://www.w3.org/1999/02/22-rdf-syntax-ns#"
   xmlns:svg="http://www.w3.org/2000/svg"
   xmlns="http://www.w3.org/2000/svg"
   xmlns:sodipodi="http://sodipodi.sourceforge.net/DTD/sodipodi-0.dtd"
   xmlns:inkscape="http://www.inkscape.org/namespaces/inkscape"
   height="525"
   width="600"
   version="1.1"
   id="svg16"
   sodipodi:docname="ISO_7010_W070.svg"
   xml:space="preserve"
   inkscape:version="1.0.2-2 (e86c870879, 2021-01-15)"><defs
     id="defs20" /><sodipodi:namedview
     id="namedview18"
     pagecolor="#ffffff"
     bordercolor="#666666"
     borderopacity="1.0"
     inkscape:showpageshadow="2"
     inkscape:pageopacity="0.0"
     inkscape:pagecheckerboard="0"
     inkscape:deskcolor="#d1d1d1"
     showgrid="false"
     inkscape:zoom="2.0153513"
     inkscape:cx="300.6943"
     inkscape:cy="376.25173"
     inkscape:window-width="1920"
     inkscape:window-height="1001"
     inkscape:window-x="-9"
     inkscape:window-y="-9"
     inkscape:window-maximized="1"
     inkscape:current-layer="svg16"
     inkscape:document-rotation="0" /><metadata
     id="metadata2"><rdf:RDF><cc:Work
         rdf:about=""><dc:format>image/svg+xml</dc:format><dc:type
           rdf:resource="http://purl.org/dc/dcmitype/StillImage" /></cc:Work></rdf:RDF></metadata><path
     d="M597.6,499.6,313.8,8c-2.9-5-8.2-8-13.9-8s-11,3.1-13.9,8l-283.8,491.6c-2.9,5-2.9,11.1,0,16,2.9,5,8.2,8,13.9,8h567.6c5.7,0,11-3.1,13.9-8,2.9-5,2.9-11.1,0-16z"
     id="path4" /><polygon
     points="43.875,491.5,299.88,48.2,555.88,491.5"
     fill="#f6bd16"
     transform="matrix(1,0,0,0.99591458,0.125,2.0332437)"
     id="polygon6"
     style="fill:#f9a800;fill-opacity:1" /><g
     id="g2805"
     transform="translate(-10.42706)"><path
       style="fill:none;stroke:#000000;stroke-width:15;stroke-linecap:butt;stroke-linejoin:miter;stroke-dasharray:none;stroke-opacity:1"
       d="m 144.89247,429.03226 h 144.26524 v 26.6577 h 186.60394"
       id="path2800" /><path
       style="fill:#000000;stroke-width:2.25685"
       d="m 247.76636,412.99813 c -0.83214,-4.30257 2.00741,-13.82139 9.25706,-31.03162 l 10.45746,-24.82529 1.19985,-32.72424 1.19985,-32.72425 18.61184,-24.8253 c 10.23653,-13.65388 18.61507,-25.58695 18.61897,-26.51791 0.005,-0.93094 -7.52972,-1.69263 -16.74142,-1.69263 h -16.74853 l -16.13358,14.80577 c -16.70936,15.33415 -22.97608,17.45125 -27.98847,9.4553 -3.429,-5.4701 -0.9933,-8.7574 21.07775,-28.44726 l 18.60617,-16.59887 25.26741,0.8021 25.26739,0.80208 18.71217,13.47288 c 10.29169,7.41007 19.64373,15.21354 20.78233,17.34102 1.1386,2.12749 2.07018,13.74807 2.07018,25.82357 v 21.95541 l 13.69166,16.55236 c 10.65713,12.88383 13.53321,17.92941 12.97684,22.76562 -0.54604,4.74652 -2.07387,6.37163 -6.47191,6.88406 -4.76208,0.55483 -8.30649,-2.37483 -20.50742,-16.95057 -18.9781,-22.67206 -20.00077,-24.77465 -20.00077,-41.12138 0,-7.52919 -0.85234,-13.68944 -1.89408,-13.68944 -2.10588,0 -27.4449,34.43462 -27.4449,37.29642 0,0.99517 5.50399,11.6633 12.23108,23.70691 11.65982,20.87475 12.46442,23.38973 17.22738,53.84836 4.80425,30.72272 4.84118,32.12235 0.96022,36.41077 -4.69824,5.19148 -7.7401,5.55977 -13.16382,1.59386 -2.86465,-2.09467 -5.15935,-10.74946 -8.52679,-32.16004 -4.07115,-25.88478 -5.78018,-31.46097 -14.68486,-47.91303 -5.54263,-10.24044 -11.03989,-18.61898 -12.21616,-18.61898 -1.17627,0 -2.13865,6.15246 -2.13865,13.67214 0,11.37158 -2.09052,18.80977 -12.42404,44.20553 -6.83322,16.79338 -10.12027,31.74989 -11.15103,32.59319 -3.31305,2.71057 -8.77861,5.01604 -12.86973,4.05544 -3.89229,-0.9139 -6.47971,-4.94619 -7.10945,-8.20198 z m 97.87793,-181.70924 c -8.2857,-4.21302 -11.77597,-14.62382 -7.95183,-23.71877 5.44348,-12.94619 21.45506,-14.70363 30.39657,-3.33633 6.28793,7.99381 5.59689,15.59665 -2.11895,23.31248 -7.17505,7.17507 -11.87371,8.04023 -20.32579,3.74262 z"
       id="path876"
       sodipodi:nodetypes="ssscccccscssccccssscsssssssssssssssssscccsc" /></g></svg>
