<!-- Created with Inkscape (http://www.inkscape.org/) -->
<svg xmlns:rdf="http://www.w3.org/1999/02/22-rdf-syntax-ns#" xmlns="http://www.w3.org/2000/svg" height="525" width="600" version="1.1" xmlns:cc="http://creativecommons.org/ns#" xmlns:dc="http://purl.org/dc/elements/1.1/">
 <metadata>
  <rdf:RDF>
   <cc:Work rdf:about="">
    <dc:format>image/svg+xml</dc:format>
    <dc:type rdf:resource="http://purl.org/dc/dcmitype/StillImage"/>
    <dc:title/>
   </cc:Work>
  </rdf:RDF>
 </metadata>
 <path d="M597.6,499.6,313.8,8c-2.9-5-8.2-8-13.9-8s-11,3.1-13.9,8l-283.8,491.6c-2.9,5-2.9,11.1,0,16,2.9,5,8.2,8,13.9,8h567.6c5.7,0,11-3.1,13.9-8,2.9-5,2.9-11.1,0-16z"/>
 <polygon points="299.88,48.2,555.88,491.5,43.875,491.5" fill="#f6bd16" transform="matrix(1,0,0,0.99591458,0.125,2.0332437)"/>
 <g transform="translate(592.42006,0)">
  <path stroke-linejoin="miter" d="m-244.08,408.62s41.617,17.949,42.478,18.461c8.2776,4.9219,17.33-0.25142,20.776,2.9619,3.4459,3.2133-3.8958,8.193-4.8323,13.466-1.4028,7.898,1.4587,14.01-4.2396,14.005-4.9161-0.004-6.5237-5.6791-19.396-12.509-15.513-8.2312-44.3-21.768-44.3-21.768zm8.0545-38.544s33.064-13.887,49.427-21.454c4.0619-1.8786,11.035-10.634,15.914-7.5639,3.6125,2.273,3.0652,6.8717,3.3752,12.647,0.31,5.7754,4.0074,8.0368,3.8396,12.524-0.30417,8.0202-7.0656-1.6903-17.116,0.75205-18.258,4.4372-58.641,22.497-58.641,22.497zm-102.86,38.307s-42.561,19.611-43.437,20.098c-8.4153,4.6827-16.98-2.9005-20.517,0.21274-3.5366,3.1133,1.8619,10.56,4.2012,15.377,2.4388,5.0227-1.0202,10.447,3.939,12.305,4.6035,1.725,5.5566-5.1252,18.62-11.584,15.742-7.7833,43.139-20.896,43.139-20.896zm-11.387-40.01s-33.821-11.39-49.835-19.669c-3.9754-2.0552-9.5904-9.4238-14.6-6.5711-3.7088,2.1121-1.8662,5.0179-2.4296,10.774-0.56347,5.7562-4.2158,10.328-4.2453,14.818-0.0485,8.0258,9.4795-2.787,19.412,0.0946,18.046,5.2351,55.944,21.177,55.944,21.177z" stroke="#000000" stroke-linecap="butt" stroke-miterlimit="4" stroke-dasharray="none" stroke-width="8" fill="none"/>
  <path d="m-306.85,350.59c-3.3808,16.765,3.8346,22.437,14.959,14,15.788,10.394,14.943-2.5625,14.365-13.497-0.32826-27.371-25.936-30.324-29.324-0.50251z" fill-rule="evenodd" fill="#000000"/>
  <path d="m-342.11,317.44c0.82293-9.576,8.3145-15.128,19.861-14.305,10.424,0.73661,21.078,4.2099,18.543,13.481-2.6184,9.576-10.506,22.638-20.955,22.813-10.449,0.17456-18.271-12.413-17.448-21.989z" fill="#000000"/>
  <path d="m-242.9,316.68c-0.82293-9.576-11.455-14.499-23.001-13.677-10.424,0.73661-18.188,5.4662-15.653,14.737,2.6184,9.576,11.26,22.01,21.709,22.185,10.449,0.17456,17.769-13.669,16.946-23.245z" fill="#000000"/>
  <path stroke-linejoin="miter" d="m-229.3,319.27c3.0352-7.9336,11.04-15.912,12.688-31.734,1.6476-15.822-7.9781-42.569-23.934-56.034-11.03-9.3079-30.828-18.633-52.551-18.678m-63.598,106.45c-3.0351-7.9336-11.04-15.912-12.688-31.734-1.6476-15.822,7.9781-42.569,23.934-56.034,11.03-9.3079,30.828-18.633,52.551-18.678" stroke="#000000" stroke-linecap="butt" stroke-miterlimit="4" stroke-dasharray="none" stroke-width="8" fill="none"/>
  <path stroke-linejoin="bevel" d="m-253.7,378.32c-0.10622,3.3469,2.457-14.704,8.7875-18.205,9.9387-5.4963,17.303-15.498,14.753-11.942m-62.889,89.538c9.2623,0.16744,23.454-0.89659,33.892-14.868,5.9999-8.0304,17.675-26.201,17.575-46.294-0.0921-18.396,4.6493-14.725,8.9294-22.533,7.9267-14.46,7.1835-18.132,1.9766-42.245-2.5682-11.893-1.5282-9.4218,0.62157-22.497,2.4114-14.667,2.1841-20.69-2.7738-28.676m-95.792,117.01c0.10622,3.3469-6.0103-14.349-12.341-17.85-9.9387-5.4963-18.369-16.209-15.819-12.653m64.311,90.604c-9.048-1.3327-22.853-5.5964-33.892-14.868-8.5785-7.2047-15.898-32.24-17.575-46.294-2.1798-18.267-4.5019-14.097-8.9294-21.822-5.939-10.363-7.7169-24.501-0.86749-41.43,4.5636-11.279-0.0623-12.079-1.2282-25.279-1.4064-15.923-0.92784-20.941,2.7738-28.173" stroke="#000000" stroke-linecap="round" stroke-miterlimit="4" stroke-dasharray="none" stroke-width="8.28670883" fill="none"/>
  <path style="enable-background:accumulate;color:#000000;" d="m-333.43,373.18c28.833,14.283,54.296,11.669,81.982-0.94405,14.954,46.208-88.23,55.936-81.982,0.94405z" fill="#000000"/>
 </g>
</svg>
