<?xml version="1.0" encoding="UTF-8" standalone="no"?>
<svg
   height="523.59998"
   width="599.75"
   version="1.1"
   id="svg1859"
   sodipodi:docname="ISO_7010_W035_PD.svg"
   inkscape:version="1.2.1 (9c6d41e410, 2022-07-14)"
   xml:space="preserve"
   xmlns:inkscape="http://www.inkscape.org/namespaces/inkscape"
   xmlns:sodipodi="http://sodipodi.sourceforge.net/DTD/sodipodi-0.dtd"
   xmlns="http://www.w3.org/2000/svg"
   xmlns:svg="http://www.w3.org/2000/svg"
   xmlns:rdf="http://www.w3.org/1999/02/22-rdf-syntax-ns#"
   xmlns:cc="http://creativecommons.org/ns#"
   xmlns:dc="http://purl.org/dc/elements/1.1/"><defs
     id="defs1863" /><sodipodi:namedview
     id="namedview1861"
     pagecolor="#ffffff"
     bordercolor="#666666"
     borderopacity="1.0"
     inkscape:showpageshadow="2"
     inkscape:pageopacity="0.0"
     inkscape:pagecheckerboard="0"
     inkscape:deskcolor="#d1d1d1"
     showgrid="false"
     inkscape:zoom="1"
     inkscape:cx="292"
     inkscape:cy="247"
     inkscape:window-width="1920"
     inkscape:window-height="1017"
     inkscape:window-x="1912"
     inkscape:window-y="-8"
     inkscape:window-maximized="1"
     inkscape:current-layer="svg1859"
     inkscape:document-rotation="0" /><metadata
     id="metadata1845"><rdf:RDF><cc:Work
         rdf:about=""><dc:format>image/svg+xml</dc:format><dc:type
           rdf:resource="http://purl.org/dc/dcmitype/StillImage" /></cc:Work></rdf:RDF></metadata><path
     d="M 597.575,499.6 313.775,8 c -2.9,-5 -8.2,-8 -13.9,-8 -5.7,0 -11,3.1 -13.9,8 L 2.175,499.6 c -2.9,5 -2.9,11.1 0,16 2.9,5 8.2,8 13.9,8 h 567.6 c 5.7,0 11,-3.1 13.9,-8 2.9,-5 2.9,-11.1 0,-16 z"
     id="path1847" /><g
     id="g6544"
     transform="translate(0,8)"><polygon
       points="555.88,491.5 43.875,491.5 299.88,48.2 "
       fill="#f6bd16"
       transform="matrix(1,0,0,0.99591458,-0.0025,-6.9475494)"
       id="polygon1849"
       style="fill:#f9a800;fill-opacity:1" /><path
       id="path4221"
       style="fill:#000000;fill-opacity:1;stroke-width:0.996394"
       d="m 271.22246,154.46222 c -1.8317,0 -3.30641,1.47464 -3.30641,3.30637 v 81.35234 c 0,1.83172 1.47471,3.30637 3.30641,3.30637 1.83178,0 3.30632,-1.47465 3.30632,-3.30637 v -81.35234 c 0,-1.83173 -1.47454,-3.30637 -3.30632,-3.30637 z m 37.90804,20.72013 c -1.14884,0 -2.07367,0.92481 -2.07367,2.0737 v 51.02543 c 0,1.14888 0.92483,2.07369 2.07367,2.07369 1.14886,0 2.07369,-0.92481 2.07369,-2.07369 v -51.02543 c 0,-1.14889 -0.92483,-2.0737 -2.07369,-2.0737 z m 41.82352,3.37247 c -1.74517,0 -3.1502,1.40492 -3.1502,3.1502 v 77.51249 c 0,1.74527 1.40503,3.1502 3.1502,3.1502 1.74525,0 3.15019,-1.40493 3.15019,-3.1502 v -77.51249 c 0,-1.74528 -1.40494,-3.1502 -3.15019,-3.1502 z M 231.7766,221.76123 c -1.14886,0 -2.07377,0.9248 -2.07377,2.0737 v 63.63579 c 0,1.14889 0.92491,2.07369 2.07377,2.07369 1.14893,0 2.07367,-0.9248 2.07367,-2.07369 v -63.63579 c 0,-1.1489 -0.92474,-2.0737 -2.07367,-2.0737 z m 91.50454,12.35687 -71.69029,24.4314 6.80854,24.8315 7.20869,2.80297 71.6903,-25.13186 -6.00719,-24.12984 z m 46.62287,33.03421 -3.80618,3.75811 4.69407,0.024 3.54061,-3.78214 z m 6.36608,0.74718 -3.56206,3.82062 7.00131,6.59887 3.48414,-3.64998 z m -5.56672,4.84751 c -2.18902,0.005 -3.90444,0.0843 -6.31714,0.11294 -0.0197,2.38406 -0.10867,4.46222 -0.11774,6.79417 l -1.69523,0.11774 -0.0282,1.81298 -1.62315,0.0817 -0.22231,1.68443 -2.11576,0.14898 -0.0616,1.92111 -1.85264,0.024 0.0795,1.77814 -1.95841,0.024 0.0444,1.91991 -1.94029,-0.0649 0.15733,1.87425 -1.91259,-0.0193 0.0948,1.86585 -1.8334,-0.0276 -0.0548,1.94514 -1.79023,-0.0372 v 1.85624 l -1.91267,0.0168 0.13099,1.79257 -2.05093,0.12974 -0.46618,2.70686 c 1.54424,2.90371 3.79927,4.56752 6.423,6.40612 l 2.70684,-0.46736 0.12971,-2.05088 1.79262,0.13096 0.0171,-1.9127 h 1.85616 l -0.0385,-1.79015 1.94516,-0.0553 -0.0282,-1.83341 1.8658,0.0961 -0.0188,-1.9139 1.87428,0.15739 -0.065,-1.93913 1.91993,0.0432 0.0239,-1.95715 1.77809,0.0781 0.0239,-1.85262 1.92122,-0.0613 0.14895,-1.86825 2.03888,0.13215 0.18742,-1.90549 1.53064,-0.13456 -0.0582,-1.84782 c 1.49643,0.0745 7.31107,0.29868 7.31107,0.12373 0,-0.18855 -0.0419,-5.68216 -0.0471,-6.36286 l 0.17179,-0.28835 c -2.76013,-2.3553 -5.12924,-4.87472 -7.96441,-7.38507 z m 13.52075,3.46415 -3.71975,3.69691 0.0239,4.69285 3.75814,-3.80498 z m -63.03598,14.08986 -3.80499,3.75693 5.48829,0.15658 3.98264,-4.09032 z m 6.867,0.8829 -3.49937,3.93492 5.98531,5.60866 3.64031,-3.68124 z m -11.95022,4.68973 0.0205,6.50583 7.59672,7.23751 5.96999,-0.0805 -0.20667,-6.6452 -6.92269,-6.99602 z m -77.88737,1.45134 c -3.65339,-0.0197 -7.43675,0.13679 -10.96564,0.55027 -3.01253,0.35296 -6.44617,0.38065 -8.80774,2.28395 -1.34919,1.0873 -2.35653,2.82667 -2.67085,4.53065 -0.25899,1.40407 0.37417,2.93329 0.14177,4.34203 -0.27909,1.69126 -1.38501,2.99356 -1.51857,4.70246 -0.14288,1.82653 0.29088,3.66399 1.13294,5.29116 1.21118,2.3407 3.34941,4.08523 5.44738,5.68045 1.88069,1.43012 5.37786,3.22206 7.73003,3.44454 3.44056,0.3254 5.70988,-1.2633 9.07451,-2.05208 2.6464,-0.62036 5.1753,0.0163 7.34688,-1.61834 1.6435,-1.23722 2.89171,-3.23131 3.54548,-5.18183 1.78861,-5.33649 0.93312,-10.47985 1.94029,-17.61682 0.18376,-1.30195 -1.76226,-3.80316 -2.21185,-3.84702 -3.00808,-0.29361 -6.53125,-0.48964 -10.18463,-0.50942 z m 81.47971,0.96476 c 1.30772,-0.0725 3.22253,0.93325 4.85141,2.54828 2.22418,2.20525 3.20697,4.82014 2.19501,5.84023 -1.01195,1.01965 -3.63459,0.059 -5.85823,-2.14579 -2.22328,-2.20466 -3.2059,-4.81855 -2.19502,-5.83903 0.24031,-0.24279 0.58243,-0.37996 1.00683,-0.40369 z m 15.51985,0.47506 -3.64847,3.76044 0.24487,5.22437 3.75686,-3.80497 z m 10.95399,23.20184 c -1.0607,0.0835 -2.21185,0.34713 -3.46023,0.83982 -9.98634,3.94155 -6.00838,15.47703 -6.00838,15.47703 l 21.59123,41.64332 -42.58289,18.42778 -46.50672,13.16665 c -9e-5,0 -3.49709,0.91075 -5.13632,1.66882 -1.109,0.51285 -2.41082,1.1411 -3.31469,1.96316 -0.84301,0.76664 -1.44916,1.88257 -2.12422,2.80057 -1.1102,1.50982 -2.94112,4.42493 -2.94112,4.42493 l -25.33731,38.43546 25.69891,0.30757 16.2544,-23.68051 7.65444,23.41259 55.66898,-0.17302 -11.55794,-40.27727 55.55371,-25.08981 c 3.7253,-1.2614 7.371,-8.72745 4.99198,-13.82624 -8.79107,-17.27939 -28.08014,-51.88205 -28.08014,-51.88205 0,0 -2.939,-8.22345 -10.36369,-7.6388 z m -64.46483,30.16111 c -12.87514,0 -23.31287,10.43775 -23.31287,23.31286 0,12.87511 10.43773,23.31287 23.31287,23.31287 12.87507,0 23.31169,-10.43776 23.31169,-23.31287 0,-12.87511 -10.43662,-23.31286 -23.31169,-23.31286 z"
       sodipodi:nodetypes="sssssssssssssssssssssssssssscccccccccccccccccccccccccccccccccccccccccccccccccccccccccccccccccsccccccccccccccccccccccccccsssccccssssscccscccccccccscccccsssccccccccccssssss" /></g></svg>
