<?xml version="1.0" encoding="UTF-8" standalone="no"?>
<!-- Created with Inkscape (http://www.inkscape.org/) -->

<svg
   xmlns:dc="http://purl.org/dc/elements/1.1/"
   xmlns:cc="http://creativecommons.org/ns#"
   xmlns:rdf="http://www.w3.org/1999/02/22-rdf-syntax-ns#"
   xmlns:svg="http://www.w3.org/2000/svg"
   xmlns="http://www.w3.org/2000/svg"
   xmlns:sodipodi="http://sodipodi.sourceforge.net/DTD/sodipodi-0.dtd"
   xmlns:inkscape="http://www.inkscape.org/namespaces/inkscape"
   width="172.69652"
   height="172.69652"
   id="svg4874"
   version="1.1"
   inkscape:version="0.48.1 r9760"
   sodipodi:docname="T+.svg">
  <defs
     id="defs4876" />
  <sodipodi:namedview
     id="base"
     pagecolor="#ffffff"
     bordercolor="#666666"
     borderopacity="1.0"
     inkscape:pageopacity="0.0"
     inkscape:pageshadow="2"
     inkscape:zoom="1"
     inkscape:cx="86.348259"
     inkscape:cy="86.348259"
     inkscape:document-units="px"
     inkscape:current-layer="layer1"
     showgrid="false"
     inkscape:showpageshadow="false"
     fit-margin-top="0"
     fit-margin-left="0"
     fit-margin-right="0"
     fit-margin-bottom="0"
     inkscape:window-width="1280"
     inkscape:window-height="725"
     inkscape:window-x="0"
     inkscape:window-y="24"
     inkscape:window-maximized="1"
     showguides="true"
     inkscape:guide-bbox="true" />
  <metadata
     id="metadata4879">
    <rdf:RDF>
      <cc:Work
         rdf:about="">
        <dc:format>image/svg+xml</dc:format>
        <dc:type
           rdf:resource="http://purl.org/dc/dcmitype/StillImage" />
        <dc:title></dc:title>
      </cc:Work>
    </rdf:RDF>
  </metadata>
  <g
     inkscape:label="Ebene 1"
     inkscape:groupmode="layer"
     id="layer1"
     transform="translate(-322.21171,-534.58662)">
    <g
       id="g3308">
      <g
         id="g3044">
        <path
           id="rect3748-2"
           d="m 325.99042,538.3526 165.16202,0 0,165.16201 -165.16202,0 0,-165.16201 z"
           style="fill:#ff6600;fill-opacity:1;stroke:none"
           inkscape:connector-curvature="0" />
        <path
           style="font-size:medium;font-style:normal;font-variant:normal;font-weight:normal;font-stretch:normal;text-indent:0;text-align:start;text-decoration:none;line-height:normal;letter-spacing:normal;word-spacing:normal;text-transform:none;direction:ltr;block-progression:tb;writing-mode:lr-tb;text-anchor:start;baseline-shift:baseline;color:#000000;fill:#000000;fill-opacity:1;stroke:none;stroke-width:7.53441381;marker:none;visibility:visible;display:inline;overflow:visible;enable-background:accumulate;font-family:'3 of 9 Barcode';-inkscape-font-specification:'3 of 9 Barcode'"
           d="m 322.21875,534.59375 0,3.75 0,165.15625 0,3.78125 3.78125,0 165.15625,0 3.75,0 0,-3.78125 0,-165.15625 0,-3.75 -3.75,0 -165.15625,0 -3.78125,0 z m 7.53125,7.53125 157.625,0 0,157.625 -157.625,0 0,-157.625 z"
           id="rect3748"
           inkscape:connector-curvature="0" />
      </g>
      <g
         id="g3778"
         transform="matrix(0.83858705,0,0,0.83858705,296.38749,106.12232)">
        <path
           inkscape:connector-curvature="0"
           style="fill:#000000;fill-rule:evenodd;stroke:none"
           d="m 161.68172,613.90472 36.42323,36.42325 -27.89865,27.89864 c 0,0 -36.44261,-36.40385 -36.44261,-36.40385 L 97.34044,678.24599 69.44179,650.34734 c 0,0 36.40386,-36.44262 36.40386,-36.44262 L 69.42242,577.48148 97.32107,549.58284 c 0,0 36.44262,36.40385 36.44486,36.40611 0.002,0.002 36.421,-36.42549 36.421,-36.42549 l 27.89864,27.89865 c 0,0 -36.40385,36.44261 -36.40385,36.44261 z"
           id="path4374"
           sodipodi:nodetypes="ccccccccccccc" />
        <path
           inkscape:connector-curvature="0"
           style="font-size:36px;font-style:normal;font-variant:normal;font-weight:normal;font-stretch:normal;text-align:start;line-height:125%;writing-mode:lr-tb;text-anchor:start;fill:#000000;fill-opacity:1;stroke:none;font-family:Choque Display SSi;-inkscape-font-specification:Choque Display SSi"
           d="m 194.66406,553.36218 -8.10351,0 8.78906,-13.64062 -8.10352,-12.53321 7.96289,0 3.53321,6.31055 c 0.29295,0.56252 0.49217,1.13674 0.59765,1.72266 0.0234,0.0821 0.0644,0.32228 0.12305,0.7207 -10e-6,-0.15233 0.0234,-0.39256 0.0703,-0.7207 0.15233,-0.64451 0.36913,-1.21873 0.65039,-1.72266 l 3.51563,-6.31055 7.78711,0 -7.92774,12.53321 8.78907,13.64062 -8.10352,0 -3.95508,-7.17187 c -0.48048,-0.85546 -0.75587,-1.75195 -0.82617,-2.68946 -0.0586,0.8672 -0.334,1.76368 -0.82617,2.68946 l -3.97266,7.17187 m 25.1543,0 -6.45117,0 0,-19.61718 6.45117,0 0,19.61718 m 0,-21.05859 -6.45117,0 0,-5.11524 6.45117,0 0,5.11524"
           id="text3393" />
      </g>
    </g>
  </g>
</svg>
