<?xml version="1.0" encoding="UTF-8" standalone="no"?>
<!-- Created with Inkscape (http://www.inkscape.org/) -->

<svg
   xmlns:dc="http://purl.org/dc/elements/1.1/"
   xmlns:cc="http://creativecommons.org/ns#"
   xmlns:rdf="http://www.w3.org/1999/02/22-rdf-syntax-ns#"
   xmlns:svg="http://www.w3.org/2000/svg"
   xmlns="http://www.w3.org/2000/svg"
   xmlns:sodipodi="http://sodipodi.sourceforge.net/DTD/sodipodi-0.dtd"
   xmlns:inkscape="http://www.inkscape.org/namespaces/inkscape"
   width="172.69652"
   height="172.69652"
   id="svg4874"
   version="1.1"
   inkscape:version="0.48.1 r9760"
   sodipodi:docname="Xn.svg">
  <defs
     id="defs4876" />
  <sodipodi:namedview
     id="base"
     pagecolor="#ffffff"
     bordercolor="#666666"
     borderopacity="1.0"
     inkscape:pageopacity="0.0"
     inkscape:pageshadow="2"
     inkscape:zoom="1"
     inkscape:cx="86.348259"
     inkscape:cy="86.348259"
     inkscape:document-units="px"
     inkscape:current-layer="layer1"
     showgrid="false"
     inkscape:showpageshadow="false"
     fit-margin-top="0"
     fit-margin-left="0"
     fit-margin-right="0"
     fit-margin-bottom="0"
     inkscape:window-width="1280"
     inkscape:window-height="725"
     inkscape:window-x="0"
     inkscape:window-y="24"
     inkscape:window-maximized="1"
     showguides="true"
     inkscape:guide-bbox="true" />
  <metadata
     id="metadata4879">
    <rdf:RDF>
      <cc:Work
         rdf:about="">
        <dc:format>image/svg+xml</dc:format>
        <dc:type
           rdf:resource="http://purl.org/dc/dcmitype/StillImage" />
        <dc:title></dc:title>
      </cc:Work>
    </rdf:RDF>
  </metadata>
  <g
     inkscape:label="Ebene 1"
     inkscape:groupmode="layer"
     id="layer1"
     transform="translate(-322.21171,-534.58662)">
    <g
       id="g3014">
      <g
         id="g3044">
        <path
           id="rect3748-2"
           d="m 325.99042,538.3526 165.16202,0 0,165.16201 -165.16202,0 0,-165.16201 z"
           style="fill:#ff6600;fill-opacity:1;stroke:none"
           inkscape:connector-curvature="0" />
        <path
           style="font-size:medium;font-style:normal;font-variant:normal;font-weight:normal;font-stretch:normal;text-indent:0;text-align:start;text-decoration:none;line-height:normal;letter-spacing:normal;word-spacing:normal;text-transform:none;direction:ltr;block-progression:tb;writing-mode:lr-tb;text-anchor:start;baseline-shift:baseline;color:#000000;fill:#000000;fill-opacity:1;stroke:none;stroke-width:7.53441381;marker:none;visibility:visible;display:inline;overflow:visible;enable-background:accumulate;font-family:'3 of 9 Barcode';-inkscape-font-specification:'3 of 9 Barcode'"
           d="m 322.21875,534.59375 0,3.75 0,165.15625 0,3.78125 3.78125,0 165.15625,0 3.75,0 0,-3.78125 0,-165.15625 0,-3.75 -3.75,0 -165.15625,0 -3.78125,0 z m 7.53125,7.53125 157.625,0 0,157.625 -157.625,0 0,-157.625 z"
           id="rect3748"
           inkscape:connector-curvature="0" />
      </g>
      <g
         id="g7468"
         transform="matrix(0.83858705,0,0,0.83858705,-106.13429,-120.29617)">
        <g
           id="g3509">
          <path
             inkscape:connector-curvature="0"
             sodipodi:nodetypes="ccsccccccccccccccccccccccccccccccccccccccccccccccccccccccccccsccccccccssccccccccsccccccccccccccccc"
             id="path2698"
             d="m 647.4375,905.8125 c -17.98296,14.64405 -22.62601,43.20104 -48.125,44.125 12.60223,6.8012 17.59376,13.99998 17.59375,14 4.27257,-11.26403 67.0049,-24.76376 70.65625,-58.125 l 0.14497,-3.05054 -24.48872,10.98804 9.90625,-16.40625 c -8.98864,0.0527 -16.02086,2.10065 -20.84375,5.09375 m -98.375,-88.28125 -1.53125,1.8125 11.46875,19.8125 0.8125,16.28125 -23.59375,-16.59375 0.375,3.625 23.21875,18.09375 5.09375,18.65625 c -10e-6,0 -20.375,-10.1875 -20.375,-10.1875 -3e-5,-10e-6 -13,7.90625 -13,7.90625 2e-5,-2e-5 0.0312,1.40625 0.0312,1.40625 0,-10e-6 8.4375,-3.09375 8.4375,-3.09375 -10e-6,10e-6 26.25,15 26.25,15 l -0.3437,15.5625 c -27.23398,0 10e-4,10e-6 -51.34375,0 l -0.59375,3.375 51.84375,0 -0.6875,29.9375 -14.375,6.28125 c -10e-6,2e-5 18.46875,1.40625 18.46875,1.40625 l 6.84375,6.375 c 10e-6,-3e-5 5.375,-8.125 5.375,-8.125 -2e-5,-3e-5 26.1875,-2.46875 26.1875,-2.46875 l -19.53125,-10.1875 -0.625,-23.21875 50.46875,0 c -2.76657,2.44959 -5.60192,5.37334 -8.46875,8.9375 l -9.1875,0.1875 c 0,0 -5.62499,16.40626 -5.625,16.40625 l 3,1 c 0,0 -5.57713,15.19984 -28.78125,16 l 6.1875,5.59375 -33.8125,15.625 -7.59375,-2.40625 c 0,0 0.014,-0.008 -39.09375,7.59375 l 0,3.59375 189.125,0 0,-10.78125 -27.21875,-2.40625 4.40625,-6.40625 -24.8125,-2.40625 18.40625,-10 -6.40625,-4 4.40625,-2.1875 1.21875,-11.40625 c 0,0 9.40134,-6.78884 11.84375,-22.9375 l 18,0 0,-3.375 c 0,0 -14.6489,0 -17.625,0 0.119,-1.4389 0.1875,-2.92939 0.1875,-4.5 l -9.34375,4.5 c -2.08469,0 -6.06827,0 -8.65625,0 l 3.96875,-6.5 c 0,0 -3.35625,-1.46961 -8.84375,-1.34375 -5.3897,0.12362 -12.82748,1.79507 -21.125,7.84375 -22.74886,0 -34.04353,0 -54.71875,0 l -0.25,-8.71875 16.8125,-17.3125 9.46875,-2.28125 17,-25.25 c -2e-5,2e-5 -17.96875,18.40625 -17.96875,18.40625 l -13.8125,2.125 c 0,-2e-5 -9.24837,7.65046 -10.375,7 -1.29564,-0.74804 4.65625,-11.4909 4.65625,-15.84375 -10e-6,-4.35037 -1.40625,-11.875 -1.40625,-11.875 L 616.75,823.71875 613.875,823.5 l -17.96875,21.40625 -4.0625,-24.6875 -2.28125,0.15625 2.8125,38.5 -14.15625,18.09375 c -11.40201,-38.6069 -9.50671,-44.54129 -6.90625,-58.34375 -2e-5,3e-5 -2,0 -2,0 l -3.71875,12.75 -11.6875,-17.21875 z m 116.96875,91.65625 3.6875,0 -5.25,2.53125 1.5625,-2.53125 z m -44.15625,11.125 c 0,-2e-5 6,0 6,0 l -8.90625,13.90625 -1.59375,-0.59375 4.5,-13.3125 z m 48.40625,15.21875 -0.8125,6.59375 -14.1875,6.59375 -3.59375,-1 c 0,-10e-6 18.59375,-12.1875 18.59375,-12.1875 z"
             style="fill:#000000;fill-opacity:1;fill-rule:evenodd;stroke:none" />
          <g
             id="g3505">
            <path
               inkscape:connector-curvature="0"
               sodipodi:nodetypes="ccscccccccccccccc"
               style="fill:#ffffff;fill-rule:evenodd;stroke:none"
               d="m 671.125,897.34375 c -40.91827,1.00123 -37.81384,51.3618 -71.8125,52.59375 12.60223,6.8012 17.59376,13.99998 17.59375,14 4.40079,-11.60207 70.8125,-25.58115 70.8125,-61.1875 l -24.5,11 9.90625,-16.40625 c -0.67199,-0.009 -1.3505,-0.0159 -2,0 z m -44.40625,19.59375 -4.5,13.3125 1.59375,0.59375 8.90625,-13.90625 c 0,0 -6,-2e-5 -6,0 z m 48.40625,15.21875 c 0,0 -18.59375,12.18749 -18.59375,12.1875 l 3.59375,1 14.1875,-6.59375 0.8125,-6.59375 z"
               id="path3483" />
            <path
               sodipodi:type="arc"
               style="fill:#000000;fill-opacity:1;fill-rule:nonzero;stroke:none;stroke-width:2;marker:none;visibility:visible;display:inline;overflow:visible;enable-background:accumulate"
               id="path3489"
               sodipodi:cx="679.32092"
               sodipodi:cy="911.73718"
               sodipodi:rx="4.0007119"
               sodipodi:ry="4.0007119"
               d="m 683.32163,911.73718 c 0,2.20953 -1.79117,4.00071 -4.00071,4.00071 -2.20953,0 -4.00071,-1.79118 -4.00071,-4.00071 0,-2.20953 1.79118,-4.00071 4.00071,-4.00071 2.20954,0 4.00071,1.79118 4.00071,4.00071 z"
               transform="matrix(0.8,0,0,0.8,135.66415,185.54765)" />
          </g>
        </g>
        <path
           inkscape:connector-curvature="0"
           style="font-size:36px;font-style:normal;font-variant:normal;font-weight:normal;font-stretch:normal;text-align:start;line-height:125%;writing-mode:lr-tb;text-anchor:start;fill:#000000;fill-opacity:1;stroke:none;font-family:Choque Display SSi;-inkscape-font-specification:Choque Display SSi"
           d="m 682.69177,822.31946 -6.73242,0 0,-26.17383 7.48828,0 7.83985,13.64062 c 0.26951,0.39845 0.72654,1.40627 1.37109,3.02344 0.39842,1.10157 0.7617,2.20899 1.08984,3.32227 -0.14064,-0.44531 -0.24025,-0.86718 -0.29883,-1.26563 -0.50392,-2.41405 -0.75587,-4.06053 -0.75585,-4.93945 l 0,-13.78125 6.73242,0 0,26.17383 -7.52344,0 -8.31445,-14.4668 c -0.16407,-0.26952 -0.5215,-1.12498 -1.07227,-2.56641 -0.45704,-1.10154 -0.84376,-2.2031 -1.16016,-3.30468 0.29297,1.20705 0.55664,2.37306 0.79102,3.49804 0.36327,1.64064 0.54491,2.56057 0.54492,2.75977 l 0,14.08008"
           id="text3533" />
      </g>
    </g>
  </g>
</svg>
