<?xml version="1.0" encoding="UTF-8" standalone="no"?>
<!-- Created with Inkscape (http://www.inkscape.org/) -->

<svg
   xmlns:dc="http://purl.org/dc/elements/1.1/"
   xmlns:cc="http://creativecommons.org/ns#"
   xmlns:rdf="http://www.w3.org/1999/02/22-rdf-syntax-ns#"
   xmlns:svg="http://www.w3.org/2000/svg"
   xmlns="http://www.w3.org/2000/svg"
   xmlns:sodipodi="http://sodipodi.sourceforge.net/DTD/sodipodi-0.dtd"
   xmlns:inkscape="http://www.inkscape.org/namespaces/inkscape"
   width="172.69652"
   height="172.69652"
   id="svg4874"
   version="1.1"
   inkscape:version="0.48.1 r9760"
   sodipodi:docname="Xi.svg">
  <defs
     id="defs4876" />
  <sodipodi:namedview
     id="base"
     pagecolor="#ffffff"
     bordercolor="#666666"
     borderopacity="1.0"
     inkscape:pageopacity="0.0"
     inkscape:pageshadow="2"
     inkscape:zoom="1"
     inkscape:cx="86.348259"
     inkscape:cy="86.348259"
     inkscape:document-units="px"
     inkscape:current-layer="layer1"
     showgrid="false"
     inkscape:showpageshadow="false"
     fit-margin-top="0"
     fit-margin-left="0"
     fit-margin-right="0"
     fit-margin-bottom="0"
     inkscape:window-width="1280"
     inkscape:window-height="725"
     inkscape:window-x="0"
     inkscape:window-y="24"
     inkscape:window-maximized="1"
     showguides="true"
     inkscape:guide-bbox="true" />
  <metadata
     id="metadata4879">
    <rdf:RDF>
      <cc:Work
         rdf:about="">
        <dc:format>image/svg+xml</dc:format>
        <dc:type
           rdf:resource="http://purl.org/dc/dcmitype/StillImage" />
        <dc:title></dc:title>
      </cc:Work>
    </rdf:RDF>
  </metadata>
  <g
     inkscape:label="Ebene 1"
     inkscape:groupmode="layer"
     id="layer1"
     transform="translate(-322.21171,-534.58662)">
    <g
       id="g3364">
      <g
         id="g3044">
        <path
           id="rect3748-2"
           d="m 325.99042,538.3526 165.16202,0 0,165.16201 -165.16202,0 0,-165.16201 z"
           style="fill:#ff6600;fill-opacity:1;stroke:none"
           inkscape:connector-curvature="0" />
        <path
           style="font-size:medium;font-style:normal;font-variant:normal;font-weight:normal;font-stretch:normal;text-indent:0;text-align:start;text-decoration:none;line-height:normal;letter-spacing:normal;word-spacing:normal;text-transform:none;direction:ltr;block-progression:tb;writing-mode:lr-tb;text-anchor:start;baseline-shift:baseline;color:#000000;fill:#000000;fill-opacity:1;stroke:none;stroke-width:7.53441381;marker:none;visibility:visible;display:inline;overflow:visible;enable-background:accumulate;font-family:'3 of 9 Barcode';-inkscape-font-specification:'3 of 9 Barcode'"
           d="m 322.21875,534.59375 0,3.75 0,165.15625 0,3.78125 3.78125,0 165.15625,0 3.75,0 0,-3.78125 0,-165.15625 0,-3.75 -3.75,0 -165.15625,0 -3.78125,0 z m 7.53125,7.53125 157.625,0 0,157.625 -157.625,0 0,-157.625 z"
           id="rect3748"
           inkscape:connector-curvature="0" />
      </g>
      <g
         id="g3571"
         transform="matrix(0.83858705,0,0,0.83858705,95.126599,-120.29618)">
        <path
           inkscape:connector-curvature="0"
           style="fill:#000000;fill-rule:evenodd;stroke:none"
           d="m 282.9375,788.875 c 0,0 3.59364,16.44925 5.125,23.46875 -0.68639,0.44347 -1.2395,1.47376 -1.5625,2.28125 -0.10737,0.26843 -3.73796,0 -4.25,0 -1.74367,0 -2.74567,-0.25865 -3.5,1.25 -0.60547,1.21094 -0.25,3.18069 -0.25,4.5 0,1.46294 -0.18616,2.49463 -0.5,3.75 -0.35103,1.40414 -0.25,2.99785 -0.25,4.5 0,1.58886 0.38495,2.0398 0.75,3.5 0.26712,1.06849 1.34475,2.52369 2.25,2.75 0.93265,0.23316 1.24486,1.97946 1.5,3 0.37569,1.50275 0.85423,2.91691 1.25,4.5 0.27376,1.09503 1.57161,2.53581 2.5,3 0.96329,0.48165 1.78562,1.64249 2,2.5 0.53343,2.13373 1.01957,1.69239 3.25,2.25 1.43627,0.35907 1.35059,-1.05078 2.25,-2.25 0.65526,-0.87368 1.61528,0.0794 2.3125,-0.0625 7.50865,34.41842 15.125,69.28124 15.125,69.28125 L 305.75,877.1875 c 0.0186,-1.52586 0.25,-2.58928 0.25,-4.3125 0,-1.59906 0.44183,-2.26732 0.75,-3.5 0.17641,-0.70564 1.37689,-2.75 1.5,-2.75 1.26334,0 3.20703,0.57813 2.75,-1.25 -0.46416,-1.85663 -0.21537,-2.09902 -1.75,-3.25 -1.2318,-0.92384 -1.20105,-1.45105 -2.25,-2.5 -0.73844,-0.73844 -2.78419,-2.1544 -3.84375,-2.40625 l -1.625,-12.5625 c 0.67321,0.20541 1.56107,0.17259 1.96875,-0.0312 2.02555,-1.01277 2,1.59539 2,2.75 0,1.25 0,2.5 0,3.75 0,0.71944 2.83195,2.04098 3.25,2.25 1.35416,0.67708 2.51471,1.76104 3.5,2.5 0.97146,0.7286 2.60291,0.52573 3.5,0.75 0.33333,0.0833 0.66667,0.16667 1,0.25 1.06072,0.26518 2.67315,-0.29329 3.5,-0.5 0.75198,-0.188 1.0493,0.99802 1.53125,1.71875 0.70276,8.68052 0.94125,11.67177 1.46875,18.1875 -0.11355,0.55576 -0.2625,1.11875 -0.5,1.59375 -0.5334,1.0668 -1.16891,1.83781 -1.75,3 -0.65576,1.31152 -0.64201,1.73151 -2,2.75 -1.14682,0.86011 -2,0.34702 -2,2.25 0,1.15651 2.13035,2.59509 2.75,2.75 0.6798,0.16995 0.75,1.9904 0.75,2.75 0,1.0523 -0.5,2.12537 -0.5,3.5 0,0.43206 -1.25,1.48011 -1.25,2.25 0,1.06719 1.24538,1.74539 2,2.5 0.20219,0.20219 3.36366,0.90342 3.75,1 0.31842,0.0796 0.54694,0.0603 0.71875,0.0312 0.007,0.0895 0.1875,2.28125 0.1875,2.28125 l 0.0937,-2.40625 c 0.15698,-0.18147 0.12571,-0.51147 0.0312,-0.96875 l 4.53125,-110.21875 c 0,0 -13.87499,-0.46875 -13.875,-0.46875 0,0 2.73449,33.89533 5.34375,66.125 -0.59558,-0.56933 -1.43662,-1.57768 -2.03125,-1.875 -1.42782,-0.71391 -1.47223,-1.08333 -3,-2 -0.87084,-0.5225 -0.60158,-2.65634 -0.75,-3.25 -0.41071,-1.64284 -0.10869,-3.18474 -0.5,-4.75 -0.41806,-1.67225 -1.3457,-3.6328 -1.75,-5.25 -0.34475,-1.37898 -0.59904,-2.19808 -1.25,-3.5 -0.51271,-1.02541 -0.78943,-2.15774 -1,-3 -0.33765,-1.35061 -2.01579,-1.75789 -3,-2.25 -1.54462,-0.77231 -2.05197,1.9579 -2.25,2.75 -0.37231,1.48925 -0.94553,2.53211 -1.25,3.75 -0.34482,1.37927 -0.75,2.22787 -0.75,3.75 0,1.81498 -1.13751,1.81876 -2.5,2.5 -0.12495,0.0625 -0.21058,0.1278 -0.3125,0.1875 l -6.84375,-52.71875 c 0,0 -11.40625,-0.46875 -11.40625,-0.46875 z m 48.4375,0 c 0,0 0.40626,89.34373 0.40625,89.34375 l 11,-88.875 c 0,0 -11.40626,-0.46875 -11.40625,-0.46875 z m 27.9375,0 c 0,0 -22.59376,112.31249 -22.59375,112.3125 1.57683,-2.40707 2.78125,-3.8125 2.78125,-3.8125 0.57563,0.11513 3.44762,-0.45953 3.75,0.75 0.10137,0.4055 0.30391,0.76451 0.53125,1.125 -0.0148,0.0263 -0.6875,1.21875 -0.6875,1.21875 l 0.78125,-1.0625 c 0.25229,0.39587 0.5195,0.79676 0.625,1.21875 0.37398,1.4959 2,1.6538 2,3.25 0,0.45525 -0.0396,0.99434 -0.125,1.5625 -4.20675,4.61288 -10.05,11.01714 -12.65625,13.875 -3.16406,-2.83563 -6.94392,-5.0101 -11.125,-6.21875 -0.53835,0.2185 -1.28282,0.50079 -1.84375,0.78125 -0.88474,0.44237 -1.50684,0.90274 -2.375,1.25 -1.22418,0.48968 -2.12236,1.86444 -2.375,2.875 -0.0417,0.16667 -0.0833,0.33334 -0.125,0.5 -0.16456,0.65826 -0.23913,1.58151 -0.375,2.125 -0.24361,0.97444 -0.75,1.63459 -0.75,2.75 0,0.95834 0,1.91667 0,2.875 0,0.83334 0,1.66667 0,2.5 0,1.10477 -0.10184,1.22684 -0.75,1.875 -0.55477,0.55477 -1.04228,1.04228 -1.5,1.5 -0.44927,0.44927 -2.40311,0.125 -3,0.125 -1.48445,0 -1.48567,0.14411 -2.25,-0.875 -0.43719,-0.58292 -0.2989,-1.84781 -0.625,-2.5 -0.27719,-0.55438 -1.69076,-1.34538 -2.25,-1.625 -0.65933,-0.32966 -1,-1.08333 -1.5,-1.625 -0.5397,-0.58468 -1.18853,-1.32786 -0.5,-1.5 0.43838,-0.10959 0.375,-1.63484 0.375,-2 0,-0.58443 0.5835,-1.16699 0.75,-1.5 0.0985,-0.19699 0.43002,-0.38327 0.8125,-0.5625 0.92984,0.42033 2.03125,0.90624 2.03125,0.90625 l -10.6875,-30.125 c 0.0445,-0.19056 0.0937,-0.41545 0.0937,-0.71875 0,-1.39392 -0.75,-2.65565 -0.75,-3.75 0,-0.70479 -1.11475,-3.5205 -1,-3.75 0.38249,-0.76497 1.25,-1.65105 1.25,-2.75 0,-1.51895 -0.0719,-2.07191 -1,-3 -0.49188,-0.49188 -2.19691,-1.84845 -3,-2.25 -0.43512,-0.21756 -1.0937,-0.65537 -1.71875,-1.0625 L 279.5,845.21875 c 0,0 -1.5,26.25 -1.5,26.25 0,0 20.86624,39.82351 23.625,45.09375 -0.0831,0.54967 0,1.2675 0,1.5625 0,0.42858 -0.39709,1.46338 -0.5,1.875 -0.22767,0.91067 0.0497,1.2003 -0.625,1.875 -0.53963,0.53964 -1.30702,0.59101 -1.875,0.875 -0.48536,0.24268 -1.17161,0.25 -1.875,0.25 -1.08423,0 -1.31624,-0.61004 -1.125,-1.375 0.0226,-0.0904 0.0833,-0.16666 0.125,-0.25 0.15484,-0.61937 -0.0776,-1.26337 -0.375,-1.8125 -0.35543,0.3271 -0.69276,0.65553 -1.03125,1 -0.0324,-0.0667 -0.0507,-0.14444 -0.0937,-0.1875 -1.21003,-1.21003 -0.5,-1.55101 -0.5,-3 0,-1.33333 0,-2.66666 0,-4 0,-2.2294 -2.48289,-1.16443 -2.75,-2.5 -0.48376,-2.41882 -0.46341,-2.25 -2.5,-2.25 -1.33785,0 -3.76627,-0.56506 -3.25,1.5 0.39492,1.57967 1.63967,1.05867 2,2.5 0.32576,1.30306 0.80252,1.8813 1.25,3 0.59239,1.48099 1.12935,2.51741 1.5,4 0.60151,2.40603 2.72572,0.95143 3.25,2 0.0103,0.0205 0.0215,0.0417 0.0312,0.0625 -4.45741,5.04779 -7.15626,11.68266 -7.15625,18.9375 0,15.7941 12.8309,28.59376 28.625,28.59375 12.29317,0 22.70337,-7.79752 26.75,-18.6875 -0.1075,0.059 -0.20419,0.2026 -0.3125,0.25 -0.62096,0.27173 -1.26927,0.32724 -1.90625,0.25 -0.63698,-0.0772 -1.27122,-0.31465 -1.90625,-0.6875 -0.63503,-0.37285 -1.25989,-0.85364 -1.875,-1.46875 -0.2442,-0.2442 -0.72691,-0.40734 -1.34375,-0.5 -0.61684,-0.0927 -1.35421,-0.12355 -2.125,-0.125 -1.54158,-0.003 -3.18599,0.125 -4.03125,0.125 -0.79377,0 -1.39804,0.1795 -1.875,0.375 -0.47696,0.1955 -0.82344,0.3811 -1.0625,0.4375 -0.23906,0.0564 -0.38868,-0.0202 -0.46875,-0.4375 -0.0801,-0.4173 -0.0937,-1.14939 -0.0937,-2.375 0,-1.20272 -0.25,-2.30882 -0.5,-3.5 -0.25,-1.19118 -0.5,-2.46746 -0.5,-4 0,-1.6735 -0.25208,-2.57047 -0.3125,-3.40625 -0.0302,-0.41789 -0.0227,-0.82554 0.0937,-1.3125 0.11641,-0.48696 0.3479,-1.03956 0.71875,-1.78125 0.36182,-0.72363 0.62031,-1.30839 0.875,-1.84375 L 340.90625,916.5 c 0.96114,0.27835 1.97932,0.67923 3.09375,1.125 0.83278,0.33311 2.15134,1.88027 2.75,2 0.90329,0.18066 2.99365,0.99365 3.5,1.5 0.81655,0.81655 1.57904,0.97419 2.59375,1 -0.0735,0.0358 -2.125,1.03125 -2.125,1.03125 l 3.3125,-1.03125 c 1.03645,-0.004 2.94472,-0.22597 3.46875,-0.75 0.0988,-0.0988 0.25427,-0.32243 0.375,-0.46875 l 97.0625,-30.25 c 0.63367,0.26731 1.0625,0.80983 1.0625,1.96875 0,0.69198 -3.47565,1.54026 -4,1.75 -1.30635,0.52254 -2.52074,0.76037 -3.5,1.25 -1.09804,0.54902 -1.51479,1.01972 -2.25,2 -0.68875,0.91834 -1.14094,1.82047 -2,2.25 -1.28005,0.64003 -1.41232,1.66558 -2.75,2 -1.15951,0.28988 -1.49635,0.9854 -1.75,2 -0.24423,0.97692 -1.5,0.45692 -1.5,2.75 0,1.60944 3.36196,0.61196 4.5,1.75 1.03508,1.03508 2.64843,1.41211 4,1.75 0.84362,0.21091 1.03358,1.78359 1.5,2.25 0.27951,0.27952 3.32074,-2.89268 3.75,-3 1.21924,-0.30481 2.56089,-0.53653 3.75,-1.25 1.19132,-0.71479 1.62826,-1.18913 2.75,-1.75 0.91316,-0.45658 2.52575,0.39702 2.75,-0.5 0.39996,-1.59985 2.49018,-2.37009 3.75,-3 1.10501,-0.5525 1.22132,-1.88528 1.5,-3 0.27254,-1.09016 0,-2.61963 0,-3.75 0,-1.64252 1,-1.62845 1,-3.25 0,-1.86258 0.43784,-2.75 -1.5,-2.75 -0.83568,0 -1.33774,-1.40048 -1.71875,-2.375 l 7,-2.1875 c 0,0 -10e-6,-20.99999 0,-21 0,0 -7.68632,3.7505 -8.90625,4.34375 -0.31925,0.0261 -0.69027,0.11007 -1.125,0.21875 -1.72232,0.43058 -2.28089,-3.12356 -2.5,-4 -0.31748,-1.26993 0.0545,-1.38173 0.25,-2.75 0.15033,-1.05233 -0.28739,-2.974 0.75,-3.75 1.07627,-0.80509 2.25105,-2.41807 2.5,-2.75 0.24654,-0.32871 -2.13617,-1.81808 -2.5,-2 -1.46559,-0.73279 -1.15867,-2.13466 -1.5,-3.5 -0.0264,-0.10548 -0.0908,-0.21841 -0.1875,-0.28125 L 471.5,842.0625 c 0,0 0,-17.99999 0,-18 0,0 -89.53126,71.59374 -89.53125,71.59375 l 7.21875,-4.3125 c 0.78426,-0.19015 1.95584,-0.21875 3.0625,-0.21875 1.8528,0 1.75,0.96945 1.75,2.25 0,0.31378 3.72869,1.43218 4,1.5 1.47249,0.36812 1.54004,-0.58982 2,1.25 0.25469,1.01873 0.41126,1.78014 0.46875,2.84375 -15.82699,7.69667 -24.70979,12.01064 -32.65625,15.875 -0.32304,-0.16568 -0.82157,-0.28352 -1.5625,-0.46875 -1.20197,-0.30049 -2.5,-0.1509 -2.5,-1.5 0,-1.37965 0.0116,-2.6922 -0.25,-4 -0.30743,-1.53713 -0.25,-3.31038 -0.25,-5 0,-1.6413 -0.19348,-2.20761 -1.25,-3 -0.36737,-0.27553 -0.90525,-1.06839 -1.34375,-1.6875 l 83.84705,-69.67766 -11.25257,0 0,-21.79109 c -15.13087,17.47 -48.41701,55.5708 -80.15698,90.375 -0.11734,0.006 -0.22421,0.0312 -0.34375,0.0312 -0.80941,0 -3,0.15624 -3,-0.75 0,-1.4504 0.25,-2.56272 0.25,-4 0,-1.88164 1.08644,-2.09578 1.5,-3.75 0.0593,-0.23733 0.13163,-0.53575 0.1875,-0.78125 L 415.8125,802 c 0.64335,-0.19076 1.31339,-0.375 1.9375,-0.375 1.98378,0 2.25,-0.25407 2.25,1.75 0,0.72903 0.83058,2.33058 1.5,3 1.01038,1.01038 0.89041,1.89041 2,3 1.16086,1.16087 2.68228,0.77087 3,-0.5 0.25348,-1.0139 1.7805,-1.0305 2.5,-1.75 1.24853,-1.24852 2.5,-0.97458 2.5,-3 0,-0.94363 1.46998,-2.37993 1.75,-3.5 0.2472,-0.98879 -0.83041,-2.41081 -1.25,-3.25 -0.64936,-1.29873 -1.46674,-1.85837 -2.75,-2.5 -1.02715,-0.51358 -2.31335,1.25 -3.5,1.25 -1.72629,0 -3.10161,0.5996 -4.5,0.25 -0.52051,-0.13013 -0.5387,-0.59819 -0.4375,-1.125 l 4.34375,-5.90625 c 0,0 -19.15626,-0.46875 -19.15625,-0.46875 0,0 -13.68203,24.24426 -26.75,47.4375 -0.82539,-0.10692 -1.73941,-0.1875 -2,-0.1875 -0.76837,0 -0.75,-3.40207 -0.75,-4 0,-2.28405 -0.33634,-2.41817 -2,-3.25 -1.19407,-0.59703 -1.51945,-1.94236 -2.75,-2.25 -1.1315,-0.28287 -2.53695,1.53695 -3,2 -0.93213,0.93213 -1.27032,1.77032 -2,2.5 -0.84753,0.84753 -2.79519,0.4887 -3.75,0.25 -0.57943,-0.14486 -0.99347,-0.29529 -1.375,-0.40625 l 14.75,-41.625 c 0,0 -17.06251,-0.46875 -17.0625,-0.46875 z m -0.4375,49.84375 c 0.73322,0.16082 1.74576,0.15625 2.375,0.15625 0.59831,0 0.5,2.6522 0.5,3.25 0,1.24186 0.25,2.41161 0.25,3.75 0,1.5117 0.0506,2.60128 0.5,3.5 0.18668,0.37336 3.3441,-0.25 3.75,-0.25 1.19423,0 2.6841,0.046 3.5,0.25 0.1433,0.0358 0.3784,1.70554 0.5625,2.8125 -8.80187,15.6217 -13.42686,23.80693 -17.9375,31.8125 -0.98726,0.20249 -2.1037,0.36967 -3.125,0.625 -1.05811,0.26453 -2.73576,0.38212 -4,-0.25 -0.7906,-0.3953 -1.54497,-0.83278 -2.09375,-1.375 L 358.875,838.71875 z m 81.28125,22.09375 c 0.23433,0.64178 0.0937,1.66967 0.0937,2.8125 0,0.89393 0.4683,2.4366 0.75,3 0.40909,0.81817 0.78458,1.81917 1.25,2.75 0.59643,1.19286 0.33972,2.08972 1.25,3 0.92487,0.92487 1.57299,1.4115 2.75,2 0.46631,0.23315 0.84221,1.03728 1.25,1.75 -11.7454,5.71179 -18.55253,9.01465 -37.09375,18.03125 -0.51091,-0.40079 -2.35029,-0.12826 -3.15625,-0.53125 -1.18936,-0.59468 -0.20621,-3.21896 0,-4.25 0.38913,-1.94565 0.01,-1.81006 -1.75,-2.25 -1.58576,-0.39644 -2.21441,0.28559 -3.25,-0.75 -0.53945,-0.53945 -0.87475,-1.34232 -1.375,-2.03125 L 440.1562,860.8125 z m -115.40625,34 c 0.0218,0.26875 0.13962,1.8258 0.15625,2.03125 -0.0899,-0.49188 -0.15625,-0.99833 -0.15625,-1.71875 0,-0.10417 0,-0.20833 0,-0.3125 z m 108.09375,8.65625 c -0.90839,0.043 -1.85622,0.15625 -2.09375,0.15625 -1.5,0 -3,0 -4.5,0 -0.92057,0 -3.36104,1.80552 -4.25,2.25 -0.14907,0.0745 -0.83333,1.25 -1,1.25 -0.41667,0.25 -0.83333,0.5 -1.25,0.75 -1.07239,0.64344 -2.2889,0.75 -3.75,0.75 -1.78341,0 -2.44052,0.63105 -3,1.75 -0.93391,1.86782 1.02388,2.25 2.25,2.25 1.97199,0 2.16054,-0.60263 3.75,-1 1.6631,-0.41577 2.08368,0.66735 2.5,1.5 0.36368,0.72735 3.01041,2.00521 3.5,2.25 0.74925,0.37463 1.55834,-0.11668 2.25,-1.5 0.44219,-0.88439 1.62018,-2.84254 2.25,-3 1.16969,-0.29242 1.99871,-1.24871 2.75,-2 0.92717,-0.92716 2.07539,-1.07539 2.75,-1.75 0.72572,-0.72572 0.94179,-0.72671 2.25,-1.25 -1.06493,-0.16686 -1.73247,-1.22662 -2.5,-2.25 -0.12889,-0.17186 -0.99786,-0.19921 -1.90625,-0.15625 z m -33.59375,8.8125 c -0.56525,0.0132 -1.08023,0.19189 -1.75,0.59375 -0.85554,0.51332 -2.19867,1.22434 -3.25,1.75 -0.93242,0.46621 -2.0045,1.12613 -3.5,1.5 -1.1062,0.27655 -2.72422,0.23711 -3.75,0.75 -0.87335,0.43668 -1.36145,1.30573 -2.25,1.75 -0.97182,0.48592 -3.72182,1.26409 -2.75,1.75 0.0258,0.0129 1.32689,0.85578 2.75,0.5 0.97506,-0.24376 2.98083,-0.37979 4.5,0 1.09832,0.27458 3.3284,-0.36933 4,0.75 0.748,1.24668 3.35885,2.59809 3.75,3.25 0.42329,0.70549 0.33034,1.39585 0.1875,2.0625 -28.92357,4.4487 -51.48234,7.89897 -58.03125,8.90625 -0.5985,-0.28692 -0.79003,-0.75388 -0.90625,-1.21875 -0.2696,-1.0784 -0.44049,-2.26194 -0.75,-3.5 -0.41481,-1.65925 -1.60172,-1.45345 -2.25,-2.75 -0.71479,-1.42957 -0.8326,-0.5 -2.25,-0.5 -1.70581,0 -3.32924,-0.18303 -3.75,1.5 -0.45861,1.83443 0,1.9912 0,3.25 0,1.42346 0.23792,2.20167 0.5,3.25 0.31774,1.27096 1,1.83423 1,3.5 0,1.1194 -0.22426,3.26931 0.75,4 0.81447,0.61085 3.39326,1.21347 4.25,-0.5 0.75027,-1.50053 0.21911,-1.80477 2,-2.25 0.62595,-0.15649 3.98816,-1.76184 4.5,-1.25 0.51895,0.51896 0.96734,4.23367 1,4.25 1.13184,0.56592 2.12837,1.68919 2.75,2 0.26677,0.13339 0.5564,0.26891 0.84375,0.4375 l 6.78125,5.53125 c 0.39113,0.65204 0.875,1.41583 0.875,2.53125 0,0.76742 -0.16227,3.08114 -1,3.5 -1.02999,0.515 -2.98068,0.5773 -2.5,2.5 0.38103,1.52414 1.16418,2.04105 3,2.5 2.13897,0.53475 -0.11868,2.94066 1,3.5 0.33095,0.16548 3.07445,1.17555 3.75,0.5 0.74338,-0.74337 1.80692,-1.11383 2.25,-2 0.39162,-0.78323 1.30226,-3.19774 1.75,-2.75 0.70062,0.70062 2,1.56091 2,-0.75 0,-0.13202 0.0183,-0.35605 0.0312,-0.53125 l 22,17.78125 c 0,0 25.49999,-0.31249 25.5,-0.3125 0,0 -27.9425,-14.14416 -48.25,-24.40625 -0.1831,-0.74525 -0.49756,-1.33533 -1.28125,-1.53125 -1.59351,-0.39837 -3.07763,-0.91809 -0.75,-1.5 0.33333,-0.0833 0.66308,-0.18261 1,-0.25 2.10082,-0.42016 1.94354,-0.77258 0.75,-1.25 -0.83691,-0.33476 -1.70112,-0.69366 -2.375,-1.25 l 90.40625,30.1875 c 0,0 19.71875,0.3125 19.71875,0.3125 0,0 0,-11.18749 0,-11.1875 0,0 -20.01464,-3.91188 -32.28125,-6.3125 0.10811,-0.65866 0.0312,-1.38969 0.0312,-1.75 0,-1.7618 0.0142,-2.51422 1,-3.5 1.08365,-1.08365 2.33469,-1.58468 3.25,-2.5 0.95184,-0.95184 2.87736,-0.81368 4.25,-1.5 1.29519,-0.64759 2.13099,-1.02394 2.5,-2.5 0.31502,-1.26006 0.27143,-2.79285 0.75,-3.75 0.8821,-1.7642 1.39455,-2.48341 2.75,-3.5 1.6582,-1.24365 2.11626,-2.28495 1.75,-3.75 -0.15862,-0.63447 -3.13792,-1.97844 -3.5,-2.25 -0.54478,-0.40859 -0.41335,-1.12581 -0.4375,-1.8125 l 19.71875,-0.5 c 0,0 -1e-5,-17.99999 0,-18 0,0 -35.98098,5.50563 -71.90625,11.03125 0.0837,-0.45623 0.125,-0.95643 0.125,-1.46875 0,-1.88789 0.30956,-1.86913 1,-3.25 0.50799,-1.01598 1.17756,-2.15341 2,-3.25 0.60967,-0.81289 2.41264,-1.57527 2.75,-2.25 0.5069,-1.01379 2.13346,-3.25 1,-3.25 -1.78526,0 -3.27799,-0.0695 -5,-0.5 -0.81922,-0.2048 -1.43475,-0.35699 -2,-0.34375 z m -35.28125,4.4375 c -0.15244,0.0741 -0.63673,0.30472 -0.78125,0.375 0.24545,-0.16244 0.50628,-0.27467 0.78125,-0.375 z m 64.40625,17.9375 c -0.15055,0.83064 -0.061,1.90473 -0.625,2.46875 -0.89442,0.89442 -2.06141,1.15571 -3.25,1.75 -1.11944,0.55972 0.45219,2.90438 0.5,3 0.64663,1.29326 1.21414,1.42827 1.75,2.5 0.47222,0.94444 0.29034,2.70168 0.5,3.75 0.22647,1.13234 -0.65513,1.62949 -0.25,3.25 0.0315,0.12592 1.73755,1.45019 2,2.5 0.34917,1.39666 0.0823,2.17069 -0.25,3.5 -0.2397,0.9588 -0.42481,1.19553 -0.90625,1.25 -30.60259,-5.98905 -53.44104,-10.4558 -67.71875,-13.25 -0.10545,-0.98476 0.13917,-1.76418 0.875,-2.5 1.04978,-1.04978 1.30248,0.22376 2.75,-0.5 0.22942,-0.11471 3.25,-1.0707 3.25,-1.75 0,-1.73025 -0.36932,-2.48864 -1,-3.75 -0.10133,-0.20266 -0.22605,-0.42238 -0.34375,-0.625 l 11.3125,-0.28125 c 8.9e-4,0.009 -10e-4,0.0221 0,0.0312 0.36959,0.87193 1.09811,2.02613 1.28125,3.125 0.17587,1.05523 2.24581,0.87396 2.75,1 1.48116,0.37029 2.3733,0.3733 3.5,1.5 0.78509,0.78509 3.70199,0.988 4.75,1.25 1.6915,0.42288 2.70346,0.47673 4.25,1.25 1.16053,0.58027 2.68027,0.82993 4,0.5 1.35398,-0.33849 3.55926,0.0118 4.75,0.25 1.55537,0.31108 2.00127,1.75254 2.5,2.75 0.70224,1.40448 2.55008,1.6668 3.5,3.25 0.70073,1.16788 2.07225,1 3.5,1 1.52001,0 2.96262,0.0187 4,-0.5 1.058,-0.529 0.7255,-1.43137 2,-1.75 0.48787,-0.12197 -1.82961,-1.56845 -2,-2.25 -0.36711,-1.46845 -1.9322,-0.56779 -2.5,0 -1.08477,1.08477 -0.95346,1.26164 -3,0.75 -0.52943,-0.13236 -0.25,-3.75332 -0.25,-4.25 0,-1.41666 0,-2.83333 0,-4.25 0,-1.43828 -0.25,-2.22711 -0.25,-3.5 0,-0.38732 -0.0337,-0.7195 -0.0937,-1 l 18.71875,-0.46875 z m -82.5,18.78125 c -0.53015,0.0171 -0.96326,0.27577 -1.625,0.9375 -0.60845,0.60845 -0.5,2.32606 -0.5,3.5 0,0.0286 -2.68533,1.59267 -3,1.75 -0.64253,0.32127 -1.20032,2.20033 -1.75,2.75 -1.18415,1.18416 -1.25,1.38355 -1.25,3.5 0,1.54946 2.00998,1 3.25,1 2.0754,0 2,-0.78087 2,-2.75 0,-0.30788 1.007,-4.014 1.25,-4.5 0.63411,-1.26822 0.38075,-2.34519 2,-2.75 2.23849,-0.55962 2.31515,-1.29356 0.75,-3.25 -0.44835,-0.1115 -0.80691,-0.19777 -1.125,-0.1875 z"
           id="path4763"
           sodipodi:nodetypes="ccsssssssssssssscccssssssccssssssssccsssssssssscccccccssssssssssssccccccccscscccsscccsssssssssssssssssscccssssssccccsssssscccsssssssssscsscssssssssssssssssccssscccsccssssssssssssssssssssccccssssssscccccssssccssssscccccssssccssssssssssssccccsssssssccccssssssccsscccsssssccssssccccsccssscssssssssssscsccssssssssssccssssssssssssssccsssssssssccccsssscccccsssssssssccccssssssccsccssssssssccssssccssssssssssssssssssscccssssssssscc" />
        <path
           inkscape:connector-curvature="0"
           style="font-size:36px;font-style:normal;font-variant:normal;font-weight:normal;font-stretch:normal;text-align:start;line-height:125%;writing-mode:lr-tb;text-anchor:start;fill:#000000;fill-opacity:1;stroke:none;font-family:Choque Display SSi;-inkscape-font-specification:Choque Display SSi"
           d="m 459.2308,823.31842 -20.84765,0 0,-26.17383 20.61914,0 0,5.76563 -13.74609,0 0,4.13086 11.95312,0 0,5.51953 -11.95312,0 0,4.99219 13.9746,0 0,5.76562"
           id="text4858" />
      </g>
    </g>
  </g>
</svg>
