<?xml version="1.0" encoding="UTF-8" standalone="no"?>
<!-- Created with Inkscape (http://www.inkscape.org/) -->

<svg
   xmlns:dc="http://purl.org/dc/elements/1.1/"
   xmlns:cc="http://creativecommons.org/ns#"
   xmlns:rdf="http://www.w3.org/1999/02/22-rdf-syntax-ns#"
   xmlns:svg="http://www.w3.org/2000/svg"
   xmlns="http://www.w3.org/2000/svg"
   xmlns:sodipodi="http://sodipodi.sourceforge.net/DTD/sodipodi-0.dtd"
   xmlns:inkscape="http://www.inkscape.org/namespaces/inkscape"
   width="172.69652"
   height="172.69652"
   id="svg4874"
   version="1.1"
   inkscape:version="0.48.1 r9760"
   sodipodi:docname="E.svg">
  <defs
     id="defs4876" />
  <sodipodi:namedview
     id="base"
     pagecolor="#ffffff"
     bordercolor="#666666"
     borderopacity="1.0"
     inkscape:pageopacity="0.0"
     inkscape:pageshadow="2"
     inkscape:zoom="1"
     inkscape:cx="86.348259"
     inkscape:cy="86.348259"
     inkscape:document-units="px"
     inkscape:current-layer="layer1"
     showgrid="false"
     inkscape:showpageshadow="false"
     fit-margin-top="0"
     fit-margin-left="0"
     fit-margin-right="0"
     fit-margin-bottom="0"
     inkscape:window-width="1280"
     inkscape:window-height="725"
     inkscape:window-x="0"
     inkscape:window-y="24"
     inkscape:window-maximized="1"
     showguides="true"
     inkscape:guide-bbox="true" />
  <metadata
     id="metadata4879">
    <rdf:RDF>
      <cc:Work
         rdf:about="">
        <dc:format>image/svg+xml</dc:format>
        <dc:type
           rdf:resource="http://purl.org/dc/dcmitype/StillImage" />
        <dc:title></dc:title>
      </cc:Work>
    </rdf:RDF>
  </metadata>
  <g
     inkscape:label="Ebene 1"
     inkscape:groupmode="layer"
     id="layer1"
     transform="translate(-322.21171,-534.58662)">
    <g
       id="g3364">
      <g
         id="g3044">
        <path
           id="rect3748-2"
           d="m 325.99042,538.3526 165.16202,0 0,165.16201 -165.16202,0 0,-165.16201 z"
           style="fill:#ff6600;fill-opacity:1;stroke:none"
           inkscape:connector-curvature="0" />
        <path
           style="font-size:medium;font-style:normal;font-variant:normal;font-weight:normal;font-stretch:normal;text-indent:0;text-align:start;text-decoration:none;line-height:normal;letter-spacing:normal;word-spacing:normal;text-transform:none;direction:ltr;block-progression:tb;writing-mode:lr-tb;text-anchor:start;baseline-shift:baseline;color:#000000;fill:#000000;fill-opacity:1;stroke:none;stroke-width:7.53441381;marker:none;visibility:visible;display:inline;overflow:visible;enable-background:accumulate;font-family:'3 of 9 Barcode';-inkscape-font-specification:'3 of 9 Barcode'"
           d="m 322.21875,534.59375 0,3.75 0,165.15625 0,3.78125 3.78125,0 165.15625,0 3.75,0 0,-3.78125 0,-165.15625 0,-3.75 -3.75,0 -165.15625,0 -3.78125,0 z m 7.53125,7.53125 157.625,0 0,157.625 -157.625,0 0,-157.625 z"
           id="rect3748"
           inkscape:connector-curvature="0" />
      </g>
      <g
         transform="matrix(0.94180174,0,0,0.94180174,265.36135,21.777806)"
         id="g3710">
        <g
           id="g3706">
          <path
             style="fill:#ffffff;fill-rule:evenodd;stroke:none;display:inline"
             d="m 191.49153,586.06989 c 0,0 1.66951,15.02562 1.66951,15.02562 l -50.64191,-3.22772 c 0,0 -0.93114,-2.22602 3.45033,-2.22602 l 37.2858,-5.00854 c 0,0 4.82131,-1.14838 8.23627,-4.56334 z m -86.20255,26.93482 c 3.41496,3.41496 8.45887,4.34074 8.45887,4.34074 l 42.18304,5.89894 c 3.94255,0 4.34073,4.45204 4.34073,4.45204 l -56.87476,0.1113 c 0,0 1.89212,-14.80302 1.89212,-14.80302 z"
             id="path4616"
             sodipodi:nodetypes="cccccccccccc"
             inkscape:connector-curvature="0" />
          <path
             style="fill:#000000;fill-rule:evenodd;stroke:none"
             d="m 193.5,579.625 -2.46875,0.3125 c 0,6.5129 -10,8.125 -10,8.125 l -42.75,5.8125 c -6.0513,1.62144 -5.43104,7.0125 -4.78125,9.4375 0.62181,2.32064 3.00225,6.125 6.25,6.125 l 44.84375,-5.78125 c 0,0 6.64413,-0.6511 9.15625,2.84375 -1.2463,2.18003 -3.25,3.45234 -3.25,7.40625 0,3.41395 1.83126,6.34375 5.75,6.34375 3.41764,2e-5 6.1875,-3.6079 6.1875,-6.59375 1e-5,-3.42778 -2.77183,-8.54961 -6.21875,-12.6875 C 195.2343,593.21627 193.5,579.625 193.5,579.625 z m -2,6.4375 1.65625,15.03125 -50.625,-3.21875 c 0,0 -0.94397,-2.21875 3.4375,-2.21875 L 183.25,590.625 c 0,0 4.83504,-1.14754 8.25,-4.5625 z m -88.65625,20.25 -3.5625,28.0625 2.5625,0.40625 c 1.41242,-5.2712 9.90625,-4.40625 9.90625,-4.40625 l 44.84375,5.78125 c 3.24776,0 5.62818,-3.80437 6.25,-6.125 0.64978,-2.42501 1.23879,-7.84731 -4.8125,-9.46875 l -42.71875,-5.78125 c 0,0 -10.03125,-1.61211 -10.03125,-8.125 l -2.4375,-0.34375 z m 2.4375,6.6875 c 3.41496,3.41496 8.46875,4.34375 8.46875,4.34375 l 42.1875,5.90625 c 3.94255,0 4.34375,4.4375 4.34375,4.4375 l -56.875,0.125 1.875,-14.8125 z m 89.5625,14.1875 c 0,6.81219 -3.125,7.72437 -3.125,11.28125 0,3.4841 1.40671,4.68752 3.21875,4.6875 1.89048,0 3.40625,-1.20542 3.40625,-4.78125 0,-3.58188 -3.49999,-4.39903 -3.5,-11.1875 z m 19.75,6.75 c -10.3904,4.13569 -12.03125,8.52398 -12.03125,16.6875 1.81679,-6.78038 4.72778,-12.47083 12.03125,-16.6875 z M 183.875,634.375 c 1.92918,1.92919 1.52047,5.24773 1.90625,6.6875 0.38745,1.446 0.79973,1.95596 1.96875,3.125 -1.7096,-6.38033 -0.46053,-4.51407 -1.21875,-7.34375 -0.18415,-0.68724 -1.43934,-2.46875 -2.65625,-2.46875 z m -79.6875,2 c -2.48571,2.48571 -4.356963,6.59015 -5.3125,10.15625 -0.553192,2.06454 0.968705,5.4375 3.75,5.4375 2.82286,0 4.125,-2.1345 4.125,-4.59375 0,-4.96353 -4.43894,-3.99704 -2.5625,-11 z m 75.125,3.15625 c 1.52249,5.68201 3.96043,5.92171 6.125,14 -2.1981,-1.71055 -4.82995,-2.07971 -8.03125,-2.9375 4.55889,2.6321 5.48629,4.96005 10.46875,3.625 -2.14806,-8.01661 -4.09459,-10.21959 -8.5625,-14.6875 z m -68.28125,4.625 c -1.88462,7.62634 -5.11819,11.44572 -2.21875,19.53125 4.24729,-7.08054 7.54901,-6.27152 12.90625,-11.8125 -5.09697,2.94274 -7.71071,3.15398 -11.15625,5.8125 -1.21832,-4.62962 2.04692,-7.6414 0.46875,-13.53125 z m 102.5625,0.78125 c -2.16607,3.75175 -5.44259,7.34884 -9.125,11.03125 5.0581,-2.9203 9.125,-6.60629 9.125,-11.03125 z m -17.40625,1.78125 c 0,3.19757 -0.39553,9.19052 0.46875,10.6875 0.51042,1.90494 2.94754,3.18616 5.625,2.46875 2.44276,-1.41033 2.84671,-3.62227 0.96875,-6.875 -2.34446,-4.06073 -5.27266,-3.18113 -7.0625,-6.28125 z M 87.40625,647.625 c 3.771781,2.17764 6.843495,6.28601 8.03125,10.71875 0,-6.71444 -3.186116,-10.71874 -8.03125,-10.71875 z m 0.4375,6.375 c 1.958393,3.39203 1.786214,5.43485 2.625,7.375 0.777326,1.79798 2.396309,4.62485 5.3125,5.40625 -2.077648,-1.19953 -3.01596,-5.00534 -3.5,-5.84375 -0.863251,-1.49519 -1.54991,-5.27038 -4.4375,-6.9375 z m 82.59375,1.125 c -0.52329,0.0119 -0.84375,0.2955 -0.84375,1.09375 0,2.12282 1.78125,3.40627 1.78125,3.40625 2.28235,2.28235 14.21875,5.18747 14.21875,5.1875 -0.783,0.20981 -1.70543,0.33383 -2.65625,0.40625 l -28.75,0 c -1.60176,0 -2.90625,1.30449 -2.90625,2.90625 0,1.60176 1.30449,2.875 2.90625,2.875 l 23.5625,0 c 0.47462,0 0.84375,0.36913 0.84375,0.84375 0,0.47462 -0.36913,0.875 -0.84375,0.875 l -25.5625,0 c -1.60176,0 -2.90625,1.30449 -2.90625,2.90625 0,1.60176 1.30449,2.875 2.90625,2.875 l 23.5625,0 c 0.47462,0 0.84375,0.36913 0.84375,0.84375 0,0.47462 -0.36913,0.875 -0.84375,0.875 l -19.5625,0 c -1.60176,0 -2.90625,1.30449 -2.90625,2.90625 0,1.60176 1.30449,2.875 2.90625,2.875 L 178,686 c 0.47462,0 0.84375,0.36913 0.84375,0.84375 0,0.47462 -0.36913,0.875 -0.84375,0.875 l -15.28125,0 c -1.60176,0 -2.90625,1.30449 -2.90625,2.90625 0,1.60176 1.30449,2.6864 2.90625,2.6864 5.54253,-0.0533 11.08412,0.0689 16.625,0.1875 8.09152,1.69974 17.78468,0.72202 19.53125,0.625 7.89863,-0.43873 14.26348,-5.4364 17.9375,-5.4364 l 0,8.46875 10.6875,0 0,-2.34375 -7.78125,-0.1886 -0.125,-25.28125 6.09375,-0.0312 0.0312,-2.1875 -8.90625,0 c -2.51846,0 -6.26497,-2.96873 -9.21875,-2.96875 0,0 -3.72894,3.18756 -10.9375,2.71985 -7.35318,-0.47708 -8.78125,-8.56252 -8.78125,-8.5625 0,0 -0.26067,-1.46876 -2.78125,-1.46875 -5.98339,0 -10.78124,-1.0625 -10.78125,-1.0625 -1.57404,0 -3.00286,-0.67618 -3.875,-0.65625 z m -67.59375,0.0312 c -1.92079,1.92078 -4.187498,4.11647 -4.1875,6.25 0,1.97626 1.016211,3.78123 3.3125,3.78125 2.17257,0 3.53125,-1.54892 3.53125,-3.96875 0,-1.98285 -1.70343,-4.41217 -2.65625,-6.0625 z M 79.25,670.4375 l 0,15.59375 57.875,0 0,-15.59375 -26.9375,0 c 0,0 -1.85768,6.59375 -7.09375,6.59375 -5.681142,2e-5 -6.9375,-6.59375 -6.9375,-6.59375 l -16.90625,0 z"
             id="path4030"
             sodipodi:nodetypes="ccccscccssscccccccccccccscccccccccccssscccccscsccssscccccccccccccccccscccccscsccsssccsccsccsccsccsccsccsccsccccccccccscssccsssccccccscc"
             inkscape:connector-curvature="0" />
        </g>
        <path
           id="text2568"
           d="m 228.98909,564.43121 c 0.11475,0.42783 0.1878,0.90782 0.21912,1.43996 l -6.0572,0 c -0.0104,-0.0834 -0.0261,-0.17216 -0.0469,-0.26608 -0.0104,-0.0939 -0.0261,-0.17215 -0.0469,-0.23477 -0.19827,-0.9704 -0.6626,-1.75297 -1.393,-2.34776 -0.73043,-0.59475 -1.62257,-0.89213 -2.67644,-0.89215 -0.39652,2e-5 -0.7826,0.0418 -1.15822,0.12522 -1.12694,0.21914 -2.02952,0.76173 -2.70775,1.62777 -0.67824,0.86608 -1.14258,2.12865 -1.393,3.78771 -0.0626,0.54261 -0.0939,1.10085 -0.0939,1.67473 -10e-6,1.40866 0.17216,2.62428 0.51651,3.64684 0.34433,1.01216 0.82953,1.81039 1.45561,2.39472 0.63649,0.57389 1.3669,0.9391 2.19123,1.09561 0.37564,0.0626 0.74084,0.0939 1.09562,0.0939 1.14778,10e-6 2.11296,-0.33911 2.89557,-1.01736 0.79299,-0.67823 1.27819,-1.5756 1.4556,-2.69209 0.0104,-0.0939 0.0157,-0.17737 0.0157,-0.25042 0.0104,-0.0834 0.0157,-0.1826 0.0157,-0.29739 l 5.9946,0 c -3e-5,0.31304 -0.0418,0.77216 -0.12522,1.37735 -0.20871,1.16866 -0.59478,2.23298 -1.15822,3.19295 -0.55305,0.95997 -1.26259,1.78429 -2.12863,2.47296 -0.85565,0.67824 -1.87823,1.2104 -3.06773,1.59648 -1.18955,0.37563 -2.46776,0.56346 -3.83466,0.56346 -0.77217,0 -1.57562,-0.0626 -2.41037,-0.18783 -1.82604,-0.27129 -3.44859,-0.91823 -4.86767,-1.9408 -1.40866,-1.02258 -2.5095,-2.35819 -3.30251,-4.00683 -0.79302,-1.65908 -1.18953,-3.51641 -1.18952,-5.57201 -1e-5,-1.15821 0.13042,-2.35295 0.39129,-3.58424 0.26086,-1.24168 0.6678,-2.3686 1.22083,-3.38076 0.55302,-1.02256 1.22082,-1.90948 2.00341,-2.66078 0.78258,-0.7617 1.67472,-1.37733 2.67644,-1.8469 1.01214,-0.47997 2.12863,-0.79822 3.34946,-0.95476 0.95996,-0.11476 1.70081,-0.17214 2.22254,-0.17217 1.75298,3e-5 3.31815,0.29741 4.69551,0.89215 1.37733,0.58435 2.50947,1.42433 3.39641,2.51992 0.89735,1.09563 1.51298,2.36342 1.8469,3.80336"
           style="font-size:36px;font-style:normal;font-variant:normal;font-weight:normal;font-stretch:normal;text-align:start;line-height:125%;writing-mode:lr-tb;text-anchor:start;fill:#000000;fill-opacity:1;stroke:none;font-family:Choque Display SSi;-inkscape-font-specification:Choque Display SSi"
           inkscape:connector-curvature="0" />
      </g>
    </g>
  </g>
</svg>
