<?xml version="1.0" encoding="UTF-8" standalone="no"?>
<!-- Created with Inkscape (http://www.inkscape.org/) -->

<svg
   xmlns:dc="http://purl.org/dc/elements/1.1/"
   xmlns:cc="http://creativecommons.org/ns#"
   xmlns:rdf="http://www.w3.org/1999/02/22-rdf-syntax-ns#"
   xmlns:svg="http://www.w3.org/2000/svg"
   xmlns="http://www.w3.org/2000/svg"
   xmlns:sodipodi="http://sodipodi.sourceforge.net/DTD/sodipodi-0.dtd"
   xmlns:inkscape="http://www.inkscape.org/namespaces/inkscape"
   width="172.69652"
   height="172.69652"
   id="svg4874"
   version="1.1"
   inkscape:version="0.48.1 r9760"
   sodipodi:docname="F+.svg">
  <defs
     id="defs4876" />
  <sodipodi:namedview
     id="base"
     pagecolor="#ffffff"
     bordercolor="#666666"
     borderopacity="1.0"
     inkscape:pageopacity="0.0"
     inkscape:pageshadow="2"
     inkscape:zoom="1"
     inkscape:cx="86.348259"
     inkscape:cy="86.348259"
     inkscape:document-units="px"
     inkscape:current-layer="layer1"
     showgrid="false"
     inkscape:showpageshadow="false"
     fit-margin-top="0"
     fit-margin-left="0"
     fit-margin-right="0"
     fit-margin-bottom="0"
     inkscape:window-width="1280"
     inkscape:window-height="725"
     inkscape:window-x="0"
     inkscape:window-y="24"
     inkscape:window-maximized="1"
     showguides="true"
     inkscape:guide-bbox="true" />
  <metadata
     id="metadata4879">
    <rdf:RDF>
      <cc:Work
         rdf:about="">
        <dc:format>image/svg+xml</dc:format>
        <dc:type
           rdf:resource="http://purl.org/dc/dcmitype/StillImage" />
        <dc:title></dc:title>
      </cc:Work>
    </rdf:RDF>
  </metadata>
  <g
     inkscape:label="Ebene 1"
     inkscape:groupmode="layer"
     id="layer1"
     transform="translate(-322.21171,-534.58662)">
    <g
       id="g3364">
      <g
         id="g3044">
        <path
           id="rect3748-2"
           d="m 325.99042,538.3526 165.16202,0 0,165.16201 -165.16202,0 0,-165.16201 z"
           style="fill:#ff6600;fill-opacity:1;stroke:none"
           inkscape:connector-curvature="0" />
        <path
           style="font-size:medium;font-style:normal;font-variant:normal;font-weight:normal;font-stretch:normal;text-indent:0;text-align:start;text-decoration:none;line-height:normal;letter-spacing:normal;word-spacing:normal;text-transform:none;direction:ltr;block-progression:tb;writing-mode:lr-tb;text-anchor:start;baseline-shift:baseline;color:#000000;fill:#000000;fill-opacity:1;stroke:none;stroke-width:7.53441381;marker:none;visibility:visible;display:inline;overflow:visible;enable-background:accumulate;font-family:'3 of 9 Barcode';-inkscape-font-specification:'3 of 9 Barcode'"
           d="m 322.21875,534.59375 0,3.75 0,165.15625 0,3.78125 3.78125,0 165.15625,0 3.75,0 0,-3.78125 0,-165.15625 0,-3.75 -3.75,0 -165.15625,0 -3.78125,0 z m 7.53125,7.53125 157.625,0 0,157.625 -157.625,0 0,-157.625 z"
           id="rect3748"
           inkscape:connector-curvature="0" />
      </g>
      <g
         transform="matrix(0.83858705,0,0,0.83858705,-106.13429,483.4865)"
         id="g7626">
        <g
           transform="translate(-14,54)"
           id="g4189">
          <path
             style="fill:#000000;fill-rule:evenodd;stroke:none"
             d="m 625.2774,29.91531 c 26.09603,0 56.57879,13.35216 56.57879,47.5262 0,19.86135 -7.7953,26.90636 -7.7953,26.90636 l 0,14.08183 c 12.3216,-2.01169 13.47705,-11.92375 20.61983,-11.81867 3.93043,0.0578 4.68652,5.3118 8.1862,12.59637 4.77574,9.94069 4.42719,19.7253 -2.90551,17.83044 -14.69963,-3.79856 -30.42682,8.04676 -35.70751,8.54968 l 0,9.05261 c 0,0 12.19676,7.61388 14.04573,8.10931 1.84896,0.49543 13.54603,-2.62686 19.14717,-0.31401 0,0 8.4606,5.24915 2.14277,15.74241 -6.59935,10.96083 -15.21876,22.73118 -25.78014,3.62012 l -21.62567,-9.55553 c -17.09937,19.11106 -36.53542,13.96833 -50.29227,0.75438 -26.21603,7.126 -25.36243,14.3323 -32.43851,15.5906 -6.69148,1.18991 -6.02962,-4.13024 -8.86069,-10.16083 -2.83107,-6.0306 -8.19033,-7.56923 -6.98137,-13.22507 3.52046,-16.46969 17.60229,5.02923 36.96481,-13.83037 l -0.50292,-7.79531 -24.39175,-12.07014 c -30.17536,11.0643 -11.28415,-28.11649 -2.51461,-26.6549 4.5263,0.75438 11.0643,10.81284 18.8596,10.81284 l 0,-12.82453 c 0,0 -9.55553,-11.62683 -9.55553,-29.67244 0,-7.57706 9.10784,-43.25135 52.80688,-43.25135 z"
             id="path14238"
             sodipodi:nodetypes="csccsssccsszccczcsccccccss"
             inkscape:connector-curvature="0" />
          <g
             id="g4153">
            <g
               id="g4117">
              <path
                 style="fill:#ffffff;fill-rule:evenodd;stroke:none"
                 d="m 562.41206,113.40048 c 4.44974,-4.41023 1.00435,4.37149 22.88299,13.07599 2.54476,1.01244 3.26899,8.54968 3.26899,8.54968 0,0 -11.9287,-6.39177 -19.86544,-9.80699 -6.20182,-2.66868 -13.11921,2.48061 -11.67302,-3.12334 0.79424,-3.07769 4.08481,-7.40523 5.38648,-8.69534 z"
                 id="path13259"
                 sodipodi:nodetypes="cscszc"
                 inkscape:connector-curvature="0" />
              <path
                 style="fill:#ffffff;fill-rule:evenodd;stroke:none"
                 d="m 592.0845,160.17228 4.27484,5.78361 -16.84791,6.78946 c -5.02923,1.25731 -5.02923,4.77776 -7.29238,7.7953 -2.23934,3.06961 -9.46634,-6.83072 -11.31575,-11.0643 -2.54763,-5.83188 5.71307,-3.75902 7.7953,-2.01169 4.51223,3.78652 18.35667,-5.28069 23.3859,-7.29238 z"
                 id="path14230"
                 sodipodi:nodetypes="ccccssc"
                 inkscape:connector-curvature="0" />
              <path
                 style="fill:#ffffff;fill-rule:evenodd;stroke:none"
                 d="m 658.47029,167.2132 c 0,0 2.76608,-6.78946 2.76608,-6.78946 0,0 18.64476,13.18352 26.90636,10.30992 5.12125,-1.86603 7.69306,-0.0322 2.51461,7.04092 -5.93284,16.88008 -1.50877,3.269 -32.18705,-10.56138 z"
                 id="path14232"
                 sodipodi:nodetypes="ccccc"
                 inkscape:connector-curvature="0" />
              <path
                 style="fill:#ffffff;fill-rule:evenodd;stroke:none"
                 d="m 665.00829,137.54076 c 0.50292,-14.09065 16.98805,-11.33287 20.61983,-16.59644 11.8744,-17.20967 12.1698,-4.98063 10.30991,2.01169 7.60804,5.79715 3.51166,10.77453 -5.02923,5.02922 0,0 -25.90051,9.55553 -25.90051,9.55553 z"
                 id="path14236"
                 sodipodi:nodetypes="cscsc"
                 inkscape:connector-curvature="0" />
            </g>
            <g
               id="g4123">
              <path
                 style="fill:#ffffff;fill-rule:evenodd;stroke:none"
                 d="m 627.13479,37.97805 c 31.95469,0.16945 48.46288,20.9801 48.46288,38.46529 0,17.31575 -5.5781,21.88974 -7.62528,25.7565 -4.58165,-2.64521 4.82767,-17.62145 -0.6778,-34.90683 -2.37231,8.64198 -4.06681,14.4393 -4.06681,25.92595 0,11.4904 5.08352,16.62108 5.08352,22.36748 0,15.32114 -19.65447,13.01988 -20.84243,17.45342 -1.53149,5.71561 -1.94621,11.52265 -20.33408,11.52265 -7.01213,0 -17.93843,0.50139 -20.84243,-10.33649 -2.43122,-9.07344 -19.14793,-4.13017 -19.14793,-19.48683 0,-9.60101 4.49044,-12.92061 4.40572,-24.23144 -0.0847,-11.31083 -3.34072,-15.83219 -4.74462,-20.50353 -4.54204,8.44513 4.35847,18.60414 0.84726,30.50111 -1.52505,-2.54175 -7.45583,-11.97604 -7.45583,-24.57034 0,-1.74974 0.75539,-38.20446 46.93783,-37.95694 z"
                 id="path12099"
                 sodipodi:nodetypes="czcczssssssccss"
                 inkscape:connector-curvature="0" />
              <g
                 id="g4055">
                <path
                   sodipodi:nodetypes="czzzz"
                   id="path11124"
                   d="m 628.03972,112.36688 c 5.46044,0 13.75189,22.70639 6.8898,22.70639 -6.93564,0 -5.36616,-7.79473 -6.5509,-7.79473 -1.18473,0 -0.26319,7.79473 -6.66625,7.79473 -6.4766,0 0.86692,-22.70639 6.32735,-22.70639 z"
                   style="fill:#000000;fill-rule:evenodd;stroke:none"
                   inkscape:connector-curvature="0" />
                <path
                   sodipodi:nodetypes="cssss"
                   id="path11126"
                   d="m 658.48315,102.53874 c 0,-5.61209 -1.8499,-14.23385 -12.53934,-14.23385 -9.15612,0 -12.20044,5.73542 -12.20044,13.55605 0,9.66797 6.5773,15.58946 14.57275,15.58946 9.09066,0 10.16703,-8.375 10.16703,-14.91166 z"
                   style="fill:#000000;fill-rule:evenodd;stroke:none"
                   inkscape:connector-curvature="0" />
                <path
                   sodipodi:nodetypes="cssss"
                   id="path12097"
                   d="m 596.42117,102.53874 c 0,-5.61209 1.8499,-14.23385 12.53934,-14.23385 9.15612,0 12.20044,5.73542 12.20044,13.55605 0,9.66797 -6.5773,15.58946 -14.57275,15.58946 -9.09066,0 -10.16703,-8.375 -10.16703,-14.91166 z"
                   style="fill:#000000;fill-rule:evenodd;stroke:none"
                   inkscape:connector-curvature="0" />
              </g>
              <g
                 id="g4093">
                <path
                   sodipodi:nodetypes="cssscsssc"
                   id="path13233"
                   d="m 595.79577,132.01079 c 7.5436,4.3553 7.43751,2.66096 7.43751,18.73501 0,1.41923 8.36528,13.08627 24.38377,13.08627 19.58951,0 23.44229,-14.39909 23.44229,-15.25162 0,-13.31578 3.08071,-13.16317 6.2199,-14.97559 0,1.98601 -1.41847,24.10773 -1.41847,24.10773 -1.5665,1.5665 -14.63228,19.20574 -28.33787,19.20574 -12.47591,0 -29.46763,-19.48818 -29.46763,-19.48818 0,-18.05431 -2.2595,-22.27903 -2.2595,-25.41936 z"
                   style="fill:#ffffff;fill-rule:evenodd;stroke:none"
                   inkscape:connector-curvature="0" />
                <g
                   id="g4003">
                  <g
                     id="g3972"
                     transform="translate(-0.5883856,0)">
                    <path
                       sodipodi:nodetypes="ccccccccc"
                       id="rect13110"
                       d="m 622.802,146.61615 c 1.15975,-0.31075 2.67866,-0.31075 3.83841,0 0.26136,0.098 0.50385,0.22472 0.50385,0.50385 l 0,4.06544 c 0,1.99603 -0.48475,2.50386 -0.76388,2.50386 -1.15975,0.31075 -3.26634,0 -3.26634,0 -0.27914,0 -0.8159,-0.48475 -0.8159,-0.76389 l 0,-5.80541 c 0,-0.27913 0.24301,-0.40448 0.50386,-0.50385 z"
                       style="fill:#ffffff;fill-opacity:1;stroke:none"
                       inkscape:connector-curvature="0" />
                    <path
                       sodipodi:nodetypes="ccccccccc"
                       id="rect13114"
                       d="m 622.802,154.83679 c 0.96637,-0.25894 2.86887,-0.25979 3.83841,0 0.25256,0.11885 0.50385,0.22472 0.50385,0.50385 l -0.33097,5.40351 c 0,0.27914 -0.37181,0.94515 -0.65094,0.94515 l -2.84551,0 c -0.27914,0 -0.72451,-0.62924 -0.72451,-0.90838 l -0.29419,-5.44028 c 0,-0.27913 0.23743,-0.42059 0.50386,-0.50385 z"
                       style="fill:#ffffff;fill-opacity:1;stroke:none;display:inline"
                       inkscape:connector-curvature="0" />
                    <path
                       sodipodi:nodetypes="ccccccccc"
                       id="rect13118"
                       d="m 617.70223,146.06098 c 1.24095,-0.33251 2.99232,0.47391 2.99232,0.47391 0.50189,0.28976 0.48507,0.69587 0.48507,0.97102 l 0,4.72326 c 0,0.27515 -2.1e-4,0.78018 -0.48507,0.9101 -0.93086,0.24942 -2.38806,-0.30891 -2.99232,-0.65778 -0.49438,-0.28543 -0.48508,-0.84819 -0.48508,-1.12334 l 0,-4.72326 c 0,-0.27515 0.22404,-0.4869 0.48508,-0.57391 z"
                       style="fill:#ffffff;fill-opacity:1;stroke:none;display:inline"
                       inkscape:connector-curvature="0" />
                    <path
                       sodipodi:nodetypes="ccccccccc"
                       id="path3908"
                       d="m 620.69459,160.67977 c -1.24095,0.33251 -2.99232,-0.47391 -2.99232,-0.47391 -0.50189,-0.28976 -0.48507,-0.69587 -0.48507,-0.97102 l 0,-4.50262 c 0,-0.27515 2.1e-4,-0.78018 0.48507,-0.9101 0.93086,-0.24942 2.38806,0.30891 2.99232,0.65778 0.49438,0.28543 0.48508,0.84819 0.48508,1.12334 l 0,4.50262 c 0,0.27515 -0.22404,0.4869 -0.48508,0.57391 z"
                       style="fill:#ffffff;fill-opacity:1;stroke:none;display:inline"
                       inkscape:connector-curvature="0" />
                    <path
                       sodipodi:nodetypes="ccccccccc"
                       id="path3910"
                       d="m 612.73193,145.10481 c 1.24095,-0.33251 2.99232,0.47391 2.99232,0.47391 0.50189,0.28976 0.48507,0.69587 0.48507,0.97102 l 0,3.98778 c 0,0.27515 -2.1e-4,0.78018 -0.48507,0.9101 -0.93086,0.24942 -2.38806,-0.30891 -2.99232,-0.65778 -0.49438,-0.28543 -0.48508,-0.84819 -0.48508,-1.12334 l 0,-3.98778 c 0,-0.27515 0.22404,-0.4869 0.48508,-0.57391 z"
                       style="fill:#ffffff;fill-opacity:1;stroke:none;display:inline"
                       inkscape:connector-curvature="0" />
                    <path
                       sodipodi:nodetypes="ccccccccc"
                       id="path3912"
                       d="m 615.72429,158.84103 c -1.24095,0.33251 -2.99232,-0.47391 -2.99232,-0.47391 -0.50189,-0.28976 -0.48507,-0.69587 -0.48507,-0.97102 l 0,-4.06133 c 0,-0.27515 2.1e-4,-0.78018 0.48507,-0.9101 0.93086,-0.24942 2.38806,0.30891 2.99232,0.65778 0.49438,0.28543 0.48508,0.84819 0.48508,1.12334 l 0,4.06133 c 0,0.27515 -0.22404,0.4869 -0.48508,0.57391 z"
                       style="fill:#ffffff;fill-opacity:1;stroke:none;display:inline"
                       inkscape:connector-curvature="0" />
                    <path
                       sodipodi:nodetypes="ccccccccc"
                       id="path3916"
                       d="m 608.42781,143.46393 c 0.9153,0 2.42378,0.82515 2.42378,0.82515 0.40653,0.23471 0.3929,0.56366 0.3929,0.78653 l 0,3.67874 c 0,0.22287 -1.7e-4,0.63194 -0.3929,0.73718 -0.75424,0 -1.78724,-0.39731 -2.27668,-0.67989 -0.40045,-0.2312 -0.54002,-0.68538 -0.54002,-1.09379 l 0,-3.45809 c 0,-0.22287 0.005,-0.6919 0.39292,-0.79583 z"
                       style="fill:#ffffff;fill-opacity:1;stroke:none;display:inline"
                       inkscape:connector-curvature="0" />
                    <path
                       sodipodi:nodetypes="ccccccccc"
                       id="path3918"
                       d="m 610.85161,156.11418 c -1.00516,0.26934 -2.31346,-0.38386 -2.31346,-0.38386 -0.40653,-0.23471 -0.50322,-0.52689 -0.50322,-0.93363 l 0,-3.47648 c 0,-0.2242 0.0901,-0.7188 0.55838,-0.7188 1.04835,0 1.76886,0.25022 2.2583,0.5328 0.40045,0.2312 0.39292,0.5394 0.39292,0.85475 l 0,3.66036 c 0,0.22287 -0.18147,0.39439 -0.39292,0.46486 z"
                       style="fill:#ffffff;fill-opacity:1;stroke:none;display:inline"
                       inkscape:connector-curvature="0" />
                    <path
                       sodipodi:nodetypes="ccccccccc"
                       id="path3920"
                       d="m 605.63636,142.0152 c 0.68179,0 1.2938,0.42954 1.2938,0.42954 0.24158,0.24158 0.25146,0.42796 0.25146,0.65048 l 0,3.40466 c 0,0.28974 -0.092,0.47179 -0.38017,0.47179 -0.29929,0 -0.96217,-0.27046 -1.27541,-0.45131 -0.25628,-0.14797 -0.39857,-0.32938 -0.39857,-0.65589 l 0,-3.22079 c 0,-0.43838 0.077,-0.62848 0.50889,-0.62848 z"
                       style="fill:#ffffff;fill-opacity:1;stroke:none;display:inline"
                       inkscape:connector-curvature="0" />
                  </g>
                  <g
                     style="display:inline"
                     id="g3983"
                     transform="matrix(-1,0,0,1,1254.8007,0)">
                    <path
                       sodipodi:nodetypes="ccccccccc"
                       id="path3985"
                       d="m 622.802,146.61615 c 1.15975,-0.31075 2.67866,-0.31075 3.83841,0 0.26136,0.098 0.50385,0.22472 0.50385,0.50385 l 0,4.06544 c 0,1.99603 -0.48475,2.50386 -0.76388,2.50386 -1.15975,0.31075 -3.26634,0 -3.26634,0 -0.27914,0 -0.8159,-0.48475 -0.8159,-0.76389 l 0,-5.80541 c 0,-0.27913 0.24301,-0.40448 0.50386,-0.50385 z"
                       style="fill:#ffffff;fill-opacity:1;stroke:none"
                       inkscape:connector-curvature="0" />
                    <path
                       sodipodi:nodetypes="ccccccccc"
                       id="path3987"
                       d="m 622.802,154.83679 c 0.96637,-0.25894 2.86887,-0.25979 3.83841,0 0.25256,0.11885 0.50385,0.22472 0.50385,0.50385 l -0.33097,5.40351 c 0,0.27914 -0.37181,0.94515 -0.65094,0.94515 l -2.84551,0 c -0.27914,0 -0.72451,-0.62924 -0.72451,-0.90838 l -0.29419,-5.44028 c 0,-0.27913 0.23743,-0.42059 0.50386,-0.50385 z"
                       style="fill:#ffffff;fill-opacity:1;stroke:none;display:inline"
                       inkscape:connector-curvature="0" />
                    <path
                       sodipodi:nodetypes="ccccccccc"
                       id="path3989"
                       d="m 617.70223,146.06098 c 1.24095,-0.33251 2.99232,0.47391 2.99232,0.47391 0.50189,0.28976 0.48507,0.69587 0.48507,0.97102 l 0,4.72326 c 0,0.27515 -2.1e-4,0.78018 -0.48507,0.9101 -0.93086,0.24942 -2.38806,-0.30891 -2.99232,-0.65778 -0.49438,-0.28543 -0.48508,-0.84819 -0.48508,-1.12334 l 0,-4.72326 c 0,-0.27515 0.22404,-0.4869 0.48508,-0.57391 z"
                       style="fill:#ffffff;fill-opacity:1;stroke:none;display:inline"
                       inkscape:connector-curvature="0" />
                    <path
                       sodipodi:nodetypes="ccccccccc"
                       id="path3991"
                       d="m 620.69459,160.67977 c -1.24095,0.33251 -2.99232,-0.47391 -2.99232,-0.47391 -0.50189,-0.28976 -0.48507,-0.69587 -0.48507,-0.97102 l 0,-4.50262 c 0,-0.27515 2.1e-4,-0.78018 0.48507,-0.9101 0.93086,-0.24942 2.38806,0.30891 2.99232,0.65778 0.49438,0.28543 0.48508,0.84819 0.48508,1.12334 l 0,4.50262 c 0,0.27515 -0.22404,0.4869 -0.48508,0.57391 z"
                       style="fill:#ffffff;fill-opacity:1;stroke:none;display:inline"
                       inkscape:connector-curvature="0" />
                    <path
                       sodipodi:nodetypes="ccccccccc"
                       id="path3993"
                       d="m 612.73193,145.10481 c 1.24095,-0.33251 2.99232,0.47391 2.99232,0.47391 0.50189,0.28976 0.48507,0.69587 0.48507,0.97102 l 0,3.98778 c 0,0.27515 -2.1e-4,0.78018 -0.48507,0.9101 -0.93086,0.24942 -2.38806,-0.30891 -2.99232,-0.65778 -0.49438,-0.28543 -0.48508,-0.84819 -0.48508,-1.12334 l 0,-3.98778 c 0,-0.27515 0.22404,-0.4869 0.48508,-0.57391 z"
                       style="fill:#ffffff;fill-opacity:1;stroke:none;display:inline"
                       inkscape:connector-curvature="0" />
                    <path
                       sodipodi:nodetypes="ccccccccc"
                       id="path3995"
                       d="m 615.72429,158.84103 c -1.24095,0.33251 -2.99232,-0.47391 -2.99232,-0.47391 -0.50189,-0.28976 -0.48507,-0.69587 -0.48507,-0.97102 l 0,-4.06133 c 0,-0.27515 2.1e-4,-0.78018 0.48507,-0.9101 0.93086,-0.24942 2.38806,0.30891 2.99232,0.65778 0.49438,0.28543 0.48508,0.84819 0.48508,1.12334 l 0,4.06133 c 0,0.27515 -0.22404,0.4869 -0.48508,0.57391 z"
                       style="fill:#ffffff;fill-opacity:1;stroke:none;display:inline"
                       inkscape:connector-curvature="0" />
                    <path
                       sodipodi:nodetypes="ccccccccc"
                       id="path3997"
                       d="m 608.42781,143.46393 c 0.9153,0 2.42378,0.82515 2.42378,0.82515 0.40653,0.23471 0.3929,0.56366 0.3929,0.78653 l 0,3.67874 c 0,0.22287 -1.7e-4,0.63194 -0.3929,0.73718 -0.75424,0 -1.78724,-0.39731 -2.27668,-0.67989 -0.40045,-0.2312 -0.54002,-0.68538 -0.54002,-1.09379 l 0,-3.45809 c 0,-0.22287 0.005,-0.6919 0.39292,-0.79583 z"
                       style="fill:#ffffff;fill-opacity:1;stroke:none;display:inline"
                       inkscape:connector-curvature="0" />
                    <path
                       sodipodi:nodetypes="ccccccccc"
                       id="path3999"
                       d="m 610.85161,156.11418 c -1.00516,0.26934 -2.31346,-0.38386 -2.31346,-0.38386 -0.40653,-0.23471 -0.50322,-0.52689 -0.50322,-0.93363 l 0,-3.47648 c 0,-0.2242 0.0901,-0.7188 0.55838,-0.7188 1.04835,0 1.76886,0.25022 2.2583,0.5328 0.40045,0.2312 0.39292,0.5394 0.39292,0.85475 l 0,3.66036 c 0,0.22287 -0.18147,0.39439 -0.39292,0.46486 z"
                       style="fill:#ffffff;fill-opacity:1;stroke:none;display:inline"
                       inkscape:connector-curvature="0" />
                    <path
                       sodipodi:nodetypes="ccccccccc"
                       id="path4001"
                       d="m 605.63636,142.0152 c 0.68179,0 1.2938,0.42954 1.2938,0.42954 0.24158,0.24158 0.25146,0.42796 0.25146,0.65048 l 0,3.40466 c 0,0.28974 -0.092,0.47179 -0.38017,0.47179 -0.29929,0 -0.96217,-0.27046 -1.27541,-0.45131 -0.25628,-0.14797 -0.39857,-0.32938 -0.39857,-0.65589 l 0,-3.22079 c 0,-0.43838 0.077,-0.62848 0.50889,-0.62848 z"
                       style="fill:#ffffff;fill-opacity:1;stroke:none;display:inline"
                       inkscape:connector-curvature="0" />
                  </g>
                </g>
              </g>
            </g>
          </g>
        </g>
        <path
           id="text4491"
           d="m 684.35193,83.636604 -7.52344,0 0,-5.730468 21.84961,0 0,5.765625 -7.48828,0 0,20.408199 -6.83789,0 0,-20.443356"
           style="font-size:36px;font-style:normal;font-variant:normal;font-weight:normal;font-stretch:normal;text-align:start;line-height:125%;writing-mode:lr-tb;text-anchor:start;fill:#000000;fill-opacity:1;stroke:none;font-family:Choque Display SSi;-inkscape-font-specification:Choque Display SSi"
           inkscape:connector-curvature="0" />
      </g>
    </g>
  </g>
</svg>
