<?xml version="1.0" encoding="UTF-8" standalone="no"?>
<!-- Created with Inkscape (http://www.inkscape.org/) -->
<svg
   xmlns:svg="http://www.w3.org/2000/svg"
   xmlns="http://www.w3.org/2000/svg"
   version="1.0"
   width="500"
   height="500"
   viewBox="0 0 1 1"
   id="svg24400">
  <defs
     id="defs24473" />
  <title
     id="title24402">SVG drawing</title>
  <desc
     id="desc24404">This was produced by version 4.1 of GNU libplot, a free library for exporting 2-D vector graphics.</desc>
  <polygon
     points="182.85,519.35 210.04,519.35 210.04,546.5 182.85,546.5 182.85,519.35 "
     transform="matrix(3.616542e-2,0,0,-3.621889e-2,-6.604516,19.80195)"
     style="font-style:normal;font-variant:normal;font-weight:normal;font-stretch:normal;letter-spacing:normal;word-spacing:normal;text-anchor:start;fill:#ff7d00;fill-opacity:1;fill-rule:evenodd;stroke:#000000;stroke-width:0.46035084;stroke-linecap:butt;stroke-linejoin:miter;stroke-miterlimit:10.43000031;stroke-dasharray:none;stroke-dashoffset:0;stroke-opacity:1"
     id="polygon24410" />
  <path
     d="M 0.26641326,0.095704113 L 0.23736228,0.14787251 L 0.19027961,0.10172363 L 0.22934826,0.17395693 L 0.2443746,0.27127123 L 0.14419866,0.21709602 L 0.2443746,0.28631978 L 0.26641326,0.41674097 L 0.13618463,0.35353673 L 0.09110559,0.40169239 L 0.14319695,0.37962115 L 0.28143963,0.47292228 L 0.28143963,0.58127221 L 0.024989334,0.58127221 L 0.024989334,0.59632099 L 0.28143963,0.59632099 L 0.28143963,0.7568393 L 0.17725689,0.80900791 L 0.29346088,0.79395911 L 0.33753823,0.84211479 L 0.38261751,0.78994619 L 0.49080747,0.77891055 L 0.39764385,0.70467092 L 0.40064916,0.59632099 L 0.68815383,0.59632099 L 0.64708175,0.65149913 L 0.58397088,0.63344082 L 0.55391817,0.75282636 L 0.5609305,0.763862 C 0.52005905,0.80479388 0.47898632,0.82766883 0.4116685,0.84612773 L 0.44172119,0.85716335 L 0.21832892,0.9695262 L 0.20330257,0.95447765 L 0.012968304,0.99159747 L 0.98667812,0.99159747 L 0.98667812,0.94745496 L 0.89351448,0.94344201 L 0.92256549,0.8912734 L 0.80035104,0.87622485 L 0.93458666,0.81302085 L 0.85644948,0.80499475 L 0.90854104,0.79395911 L 0.8855004,0.73376487 C 0.9003264,0.71530551 0.93819305,0.66735001 0.9566254,0.59632099 L 0.98267101,0.59632099 L 0.98267101,0.58127221 L 0.96063239,0.58127221 L 0.96463938,0.55518802 L 0.86746874,0.58528537 L 0.87448114,0.52107795 C 0.85604898,0.51345334 0.81096927,0.5178678 0.7773105,0.52910383 C 0.74004537,0.54435302 0.70678679,0.58127221 0.70318041,0.58127221 L 0.40064916,0.58127221 L 0.4116685,0.46890934 L 0.47578089,0.40570534 L 0.50883914,0.40169239 L 0.62103613,0.29334247 L 0.50583382,0.38263067 L 0.4717739,0.37560798 L 0.4116685,0.42476683 L 0.4116685,0.28230684 L 0.42368953,0.22813188 L 0.49381256,0.16292106 L 0.41667721,0.21809943 L 0.40665956,0.095704113 L 0.3836192,0.27929709 L 0.33753823,0.40971827 L 0.25138693,0.16593082 L 0.26641326,0.095704113 z M 0.85244239,0.53612651 L 0.84042143,0.61437932 L 0.94159905,0.58127221 C 0.93398525,0.60735662 0.9263719,0.63303955 0.91154612,0.65551207 C 0.85224236,0.81241777 0.61722875,0.79817338 0.55792519,0.8912734 C 0.52787271,0.87241302 0.50202668,0.85375233 0.46476156,0.84612773 C 0.67352657,0.77550045 0.66210909,0.53612651 0.85244239,0.53612651 z M 0.87848811,0.63745375 C 0.87848811,0.64507834 0.88590111,0.65149936 0.89351448,0.65149913 C 0.92214901,0.64287235 0.88790864,0.60756889 0.87848811,0.63745375 z M 0.5989974,0.66755087 C 0.5989974,0.66755087 0.63205551,0.67096236 0.63606249,0.67457356 L 0.57595685,0.74881344 L 0.57295153,0.74580367 L 0.5989974,0.66755087 z M 0.87047403,0.74881344 L 0.87848811,0.78292349 L 0.77430509,0.80499475 C 0.8079644,0.79014682 0.84042143,0.76767429 0.87047403,0.74881344 z "
     style="font-style:normal;font-variant:normal;font-weight:normal;font-stretch:normal;letter-spacing:normal;word-spacing:normal;text-anchor:start;fill:#000000;fill-opacity:1;fill-rule:evenodd;stroke:none;stroke-width:0;stroke-linecap:butt;stroke-linejoin:miter;stroke-miterlimit:10.43299961;stroke-dasharray:none;stroke-dashoffset:0;stroke-opacity:1"
     id="path24470" />
</svg>
