<?xml version="1.0" encoding="UTF-8" standalone="no"?>
<!-- Created with Inkscape (http://www.inkscape.org/) -->
<svg
   xmlns:svg="http://www.w3.org/2000/svg"
   xmlns="http://www.w3.org/2000/svg"
   version="1.0"
   width="106.29921"
   height="106.29921"
   viewBox="0 0 1 1"
   id="svg17424">
  <defs
     id="defs17519" />
  <title
     id="title17426">SVG drawing</title>
  <desc
     id="desc17428">This was produced by version 4.1 of GNU libplot, a free library for exporting 2-D vector graphics.</desc>
  <polygon
     points="182.85,519.35 210.04,519.35 210.04,546.5 182.85,546.5 182.85,519.35 "
     transform="matrix(3.616542e-2,0,0,-3.621889e-2,-6.604516,19.80195)"
     style="font-style:normal;font-variant:normal;font-weight:normal;font-stretch:normal;letter-spacing:normal;word-spacing:normal;text-anchor:start;fill:#ff7d00;fill-opacity:1;fill-rule:evenodd;stroke:black;stroke-width:0.4605051;stroke-linecap:butt;stroke-linejoin:miter;stroke-miterlimit:10.43299961;stroke-dasharray:none;stroke-dashoffset:0;stroke-opacity:1"
     id="polygon17434" />
  <path
     d="M 0.50207452,0.14466713 C 0.39755644,0.14140741 0.29665366,0.19736654 0.26699784,0.3085588 C 0.25072351,0.36107586 0.26374314,0.40037443 0.28688893,0.43985304 C 0.29014384,0.44963219 0.29629223,0.4590492 0.29954693,0.46882836 C 0.29629223,0.48186724 0.2928563,0.4987091 0.28960138,0.5150077 C 0.28634648,0.53456581 0.29339875,0.55086484 0.30316347,0.5639035 C 0.30641838,0.56716323 0.30931166,0.57368267 0.31582147,0.583824 C 0.32884111,0.59360317 0.34186094,0.6095398 0.34837056,0.64539653 C 0.32558641,0.63887709 0.29972733,0.62927879 0.27694338,0.62275956 C 0.2537976,0.61624012 0.22775812,0.60627967 0.20822868,0.59650071 C 0.19846395,0.5932412 0.19123108,0.59034344 0.18472084,0.583824 C 0.17821102,0.58056427 0.17224345,0.58056427 0.16573405,0.583824 C 0.15271462,0.59360317 0.15904342,0.60609879 0.15578851,0.61913767 C 0.1525336,0.62565711 0.14313009,0.63290089 0.1431305,0.64268005 C 0.1431305,0.64593977 0.14258785,0.64883712 0.14584276,0.65535677 C 0.15235257,0.66187621 0.1653722,0.6622388 0.17839183,0.65897866 C 0.19141147,0.65245921 0.20208007,0.65245964 0.21184522,0.65897866 C 0.26392334,0.67201732 0.31636392,0.68795398 0.36554919,0.70425258 C 0.36554919,0.71403174 0.36826185,0.71729146 0.36826163,0.72417307 L 0.36554919,0.73413331 C 0.32612885,0.74753437 0.28652688,0.76003 0.24710676,0.77306888 C 0.24059694,0.77958833 0.23119343,0.78357279 0.21817422,0.78031265 C 0.2084095,0.77705294 0.19882516,0.77976941 0.19195414,0.78302913 C 0.18544432,0.79280829 0.18869922,0.79914664 0.19195414,0.80928797 C 0.19882516,0.81580741 0.20189967,0.82305139 0.20189967,0.83283056 C 0.20515458,0.84586902 0.21473849,0.84858571 0.22450321,0.85184542 C 0.23101261,0.85184542 0.23788449,0.84568837 0.2443943,0.83916893 C 0.25415903,0.83264968 0.27025296,0.81924802 0.27965584,0.81924823 L 0.39086518,0.77669077 C 0.41690404,0.81616938 0.46337767,0.83554682 0.5093076,0.83554682 C 0.5516212,0.83554682 0.59122277,0.81598829 0.62051695,0.78302913 L 0.69827312,0.81290986 C 0.71454745,0.82268903 0.7317267,0.82631112 0.74800104,0.83283056 C 0.76102067,0.83934959 0.77024294,0.84894809 0.78326258,0.85546752 C 0.79953712,0.85546752 0.80984451,0.84912875 0.8130992,0.83283056 C 0.80984451,0.82631112 0.81255676,0.8194293 0.81942821,0.81290986 C 0.82268311,0.80639042 0.82666088,0.80313028 0.82666129,0.79298936 C 0.82340638,0.78321022 0.81653451,0.78302913 0.80677021,0.78302913 C 0.79049567,0.78954856 0.77024294,0.78954856 0.7507135,0.78302913 C 0.72105789,0.77324996 0.69230554,0.76021087 0.66301179,0.75043192 L 0.66210749,0.75043192 L 0.66120341,0.74952651 L 0.66029933,0.74952651 L 0.65939503,0.74862108 L 0.65849095,0.74862108 L 0.65849095,0.74771545 L 0.65758686,0.74771545 L 0.65668278,0.74771545 L 0.65668278,0.74681003 L 0.65577849,0.74681003 L 0.6548744,0.74590462 L 0.65397032,0.74590462 L 0.65306603,0.74499919 L 0.65216195,0.74499919 L 0.65216195,0.74409357 L 0.65125787,0.74409357 L 0.65035378,0.74409357 L 0.64944949,0.74409357 C 0.64944949,0.74083384 0.64944991,0.73775562 0.64944949,0.73413331 C 0.65595931,0.71783513 0.65939503,0.70461453 0.66301179,0.69157586 C 0.69230554,0.67853698 0.71834544,0.66567898 0.74800104,0.6526403 C 0.76427557,0.64575869 0.78724075,0.64557781 0.82666129,0.65897866 C 0.83642601,0.66223838 0.84582931,0.66241946 0.85559384,0.6526403 C 0.85559384,0.64938057 0.85559405,0.64593977 0.85559384,0.64268005 C 0.85884875,0.63616062 0.85577466,0.62964097 0.84926483,0.62638145 C 0.84600992,0.61986201 0.83968051,0.61316169 0.84293583,0.60012261 C 0.83968092,0.59034365 0.84239359,0.58400508 0.82937375,0.57748564 C 0.82286393,0.5709662 0.81327961,0.5709662 0.80677021,0.57748564 C 0.79736712,0.58400508 0.78724034,0.5872648 0.77422112,0.59378424 C 0.74492695,0.60356319 0.71490908,0.61605924 0.68561511,0.62909792 C 0.6791053,0.63235763 0.67223426,0.63217656 0.66572402,0.63543627 C 0.66572402,0.62891683 0.66934058,0.62601929 0.66934058,0.62275956 C 0.67259548,0.6129804 0.68254123,0.59034344 0.69556087,0.583824 C 0.71183499,0.5639035 0.72178054,0.54126655 0.70550641,0.50866934 C 0.70550641,0.50540961 0.70514457,0.50196881 0.70188966,0.4987091 C 0.73480017,0.43641286 0.75107513,0.3735715 0.73805549,0.31127505 C 0.72467423,0.22290105 0.6297388,0.14792665 0.50207452,0.14466713 z M 0.50207452,0.15734384 C 0.62322857,0.16060356 0.7118354,0.22652294 0.72810996,0.31489694 C 0.7382363,0.38697254 0.71834523,0.4427508 0.69556087,0.48512696 C 0.68905105,0.46556864 0.68887002,0.44619139 0.68561511,0.42989279 C 0.68561511,0.40345306 0.69863475,0.37411538 0.70188966,0.34477788 C 0.70188966,0.3248574 0.69863475,0.31489736 0.68561511,0.29859834 C 0.68236021,0.2920789 0.67928632,0.29207931 0.67928632,0.29859834 C 0.68905105,0.32141617 0.69574127,0.3409747 0.68923187,0.36379275 C 0.66644772,0.42608919 0.67585039,0.45252996 0.68561511,0.48512696 C 0.69537985,0.5148262 0.7118354,0.54706165 0.67928632,0.56661998 C 0.63986621,0.58980018 0.62648473,0.60628008 0.6232294,0.64539653 C 0.6199745,0.6421368 0.61328386,0.63905795 0.61328386,0.63905816 C 0.60677446,0.63579844 0.60080668,0.63942034 0.59429686,0.64268005 C 0.59104196,0.64593977 0.58724502,0.65227813 0.58435132,0.64901841 C 0.5778415,0.64901841 0.57404414,0.64938057 0.57078924,0.6526403 C 0.56753433,0.65590002 0.56735352,0.65897907 0.5608437,0.65897866 C 0.55758878,0.65571894 0.55107897,0.65245964 0.54456915,0.65897866 C 0.54131425,0.65897866 0.5420373,0.66531681 0.53552769,0.66531702 C 0.52901788,0.66531702 0.52558215,0.66241987 0.52558215,0.66893891 C 0.51907233,0.66893891 0.51527518,0.67219904 0.51202007,0.66893891 C 0.50876516,0.66893891 0.50261677,0.6656796 0.49936206,0.66893891 C 0.49610715,0.66893891 0.48941694,0.66893932 0.48941652,0.66893891 C 0.48579998,0.66241987 0.48272589,0.6620573 0.47947098,0.66531702 C 0.47621607,0.66531702 0.47006767,0.66857652 0.46681298,0.66531702 C 0.46355807,0.6620575 0.46012213,0.66260054 0.45686744,0.66260054 C 0.45361253,0.66260054 0.45017681,0.6622388 0.4469219,0.65897866 C 0.44366698,0.65571894 0.44023126,0.6526403 0.43697636,0.6526403 C 0.43046674,0.6526403 0.43028572,0.65227813 0.42703082,0.64901841 C 0.42015936,0.64539653 0.41075627,0.64938057 0.41075627,0.6526403 L 0.40985219,0.65354572 L 0.40894789,0.65354572 L 0.40894789,0.65445135 L 0.40804381,0.65445135 L 0.40713973,0.65445135 L 0.40713973,0.65535677 L 0.40623564,0.65535677 L 0.40533135,0.65535677 L 0.40442727,0.65535677 L 0.40352319,0.65535677 L 0.40261889,0.65535677 L 0.40171481,0.65535677 L 0.40081073,0.65535677 C 0.39755582,0.61587817 0.38489761,0.59324098 0.35560364,0.58020211 C 0.31618332,0.57042294 0.29629223,0.54452626 0.29954693,0.50866934 C 0.30605674,0.48548934 0.31292778,0.46846577 0.31943802,0.44890786 C 0.32594783,0.42934954 0.32594742,0.40653108 0.31943802,0.38009156 C 0.31618311,0.36053303 0.31238595,0.34133708 0.32215048,0.31489694 C 0.32215048,0.3083775 0.31310902,0.30837792 0.31310902,0.31489694 C 0.3065992,0.33119533 0.30298265,0.35093537 0.30949247,0.3737532 C 0.31274738,0.40309028 0.31238595,0.42934912 0.30587593,0.44890786 C 0.27658196,0.40290982 0.2633815,0.36053261 0.27965584,0.31127505 C 0.30931123,0.19682329 0.4203408,0.16060336 0.50207452,0.15734384 z M 0.6051467,0.41993255 C 0.58971978,0.4205607 0.57332067,0.42255827 0.5608437,0.43260925 L 0.55993961,0.43351468 L 0.55813124,0.4344201 L 0.55722715,0.43623114 L 0.55541878,0.43713657 L 0.55451469,0.43804199 L 0.55361061,0.43894762 L 0.55270653,0.43985304 L 0.55180223,0.44166387 L 0.55089815,0.44256951 L 0.54999407,0.44438035 L 0.54908977,0.44528598 L 0.54818569,0.44709681 L 0.54818569,0.44800224 L 0.54728161,0.44981329 L 0.54728161,0.45162413 L 0.54728161,0.45252975 L 0.54637753,0.45434058 L 0.54637753,0.45615164 L 0.54637753,0.45796248 L 0.54637753,0.45977352 L 0.54728161,0.46158457 L 0.54728161,0.46339542 L 0.54728161,0.46520646 L 0.54818569,0.46701731 L 0.54818569,0.46973378 L 0.54908977,0.47154483 L 0.54999407,0.47335566 L 0.55089815,0.47607213 L 0.55180223,0.47788318 L 0.55270653,0.48059945 L 0.55361061,0.48331591 L 0.55451469,0.48512696 C 0.56102451,0.5017873 0.56771556,0.50794458 0.58435132,0.51772416 C 0.60062586,0.54054179 0.62630349,0.53112522 0.64583295,0.50504745 C 0.65559768,0.48512716 0.66264993,0.46574929 0.65577849,0.44619139 C 0.65577849,0.42989279 0.64655601,0.41993255 0.62051695,0.41993255 C 0.61563468,0.41993255 0.61028872,0.41972309 0.6051467,0.41993255 z M 0.43516798,0.42536528 C 0.42576509,0.42495805 0.41545771,0.42663307 0.40713973,0.42989279 L 0.40533135,0.43079821 L 0.40261889,0.43079821 L 0.39990664,0.43170363 L 0.39719418,0.43260925 L 0.39538582,0.43351468 L 0.39267336,0.4344201 L 0.39086518,0.4344201 L 0.38905681,0.43623114 L 0.38724865,0.43623114 L 0.38544027,0.43804199 L 0.3836321,0.43804199 L 0.38182373,0.43985304 L 0.38091964,0.44075845 L 0.37911126,0.44166387 L 0.37820718,0.44256951 L 0.3763988,0.44347492 L 0.37549473,0.44528598 L 0.37459065,0.44619139 L 0.37278227,0.44709681 L 0.37187819,0.44890786 L 0.37097409,0.44981329 L 0.37097409,0.45162413 L 0.36916573,0.45252975 L 0.36916573,0.45434058 L 0.36826163,0.45524622 L 0.36735756,0.45705706 L 0.36735756,0.45796248 L 0.36645327,0.45977352 L 0.36645327,0.46158457 L 0.36554919,0.46249 L 0.36554919,0.46430084 L 0.36554919,0.46520646 C 0.35903937,0.48150507 0.36862327,0.49816542 0.38815272,0.51772416 C 0.40768197,0.53402235 0.42431836,0.53746315 0.44059289,0.52768441 C 0.46012235,0.5081263 0.47259952,0.48548913 0.47585444,0.47245025 C 0.47910934,0.45615164 0.48236426,0.44564772 0.45957989,0.43260925 C 0.45307009,0.42771958 0.44457108,0.42577272 0.43516798,0.42536528 z M 0.50117044,0.51410228 L 0.50026615,0.5150077 L 0.49845798,0.5150077 L 0.4975539,0.51591311 L 0.49574552,0.51681853 L 0.49393736,0.51772416 L 0.49303306,0.51772416 L 0.49212898,0.51953501 L 0.4903206,0.51953501 L 0.48941652,0.52134605 L 0.48760835,0.52225147 L 0.48670407,0.5231569 L 0.48489589,0.52496795 L 0.48399161,0.52677899 L 0.48308752,0.52768441 C 0.47006788,0.54398302 0.4563252,0.57748564 0.45957989,0.59378424 C 0.46283481,0.61008263 0.47929038,0.61913767 0.50207452,0.60283907 C 0.51545559,0.61587796 0.54456915,0.61931854 0.54456915,0.59650071 C 0.54456915,0.57332072 0.54185649,0.54778599 0.52558215,0.52496795 L 0.52377398,0.5231569 L 0.52286969,0.52134605 L 0.52106153,0.52044063 L 0.52015745,0.51953501 L 0.51925314,0.51862958 L 0.51744499,0.51772416 L 0.51654069,0.51681853 L 0.51473253,0.51591311 L 0.51382843,0.5150077 L 0.51202007,0.5150077 L 0.51111598,0.51410228 L 0.5093076,0.51410228 L 0.50840353,0.51410228 L 0.50659515,0.51410228 L 0.50569107,0.51410228 L 0.50388289,0.51410228 L 0.50297861,0.51410228 L 0.50117044,0.51410228 z M 0.67295732,0.58654047 C 0.66644751,0.60609859 0.65632094,0.61261823 0.65306603,0.65535677 C 0.65306603,0.68795377 0.64981091,0.71457541 0.63679149,0.7377552 C 0.59122318,0.8391683 0.46030295,0.85836466 0.39809827,0.76673052 C 0.38507863,0.7439129 0.3720588,0.71077202 0.36554919,0.67165537 C 0.35903937,0.63217676 0.35180628,0.6129804 0.34204155,0.59016236 C 0.37169716,0.59668159 0.384717,0.61605924 0.39448172,0.66531702 C 0.39448172,0.6783559 0.39737521,0.70171719 0.40713973,0.71149636 C 0.41039464,0.71149636 0.41708547,0.71783471 0.41708527,0.71783471 C 0.42034017,0.72109443 0.42015936,0.72417307 0.42703082,0.72417307 C 0.43317858,0.72417307 0.43697636,0.72489741 0.43697636,0.72779496 C 0.44023126,0.73141686 0.44366698,0.73413373 0.4469219,0.73413331 C 0.45343172,0.73413331 0.45686723,0.73721195 0.45686744,0.74047168 C 0.46337726,0.7437314 0.46355807,0.74047168 0.46681298,0.74047168 C 0.47006767,0.73721195 0.47947098,0.74083384 0.47947098,0.74409357 C 0.4859808,0.74735328 0.49285204,0.74735328 0.49936206,0.74409357 C 0.50261698,0.74083384 0.50569107,0.74409357 0.5093076,0.74409357 C 0.51256252,0.74735328 0.51907233,0.75061301 0.52558215,0.74409357 C 0.52883706,0.73757412 0.53227278,0.74083384 0.53552769,0.74409357 C 0.5387824,0.74409357 0.54167588,0.74101535 0.54818569,0.7377552 C 0.5514406,0.7377552 0.55487632,0.73721195 0.55813124,0.74047168 C 0.56464106,0.74047168 0.57115087,0.74101535 0.57440577,0.73413331 C 0.57802232,0.73123576 0.58109641,0.72417307 0.58435132,0.72417307 C 0.59086114,0.72417307 0.59411605,0.72707041 0.60062586,0.72055119 C 0.60062586,0.71729146 0.60369995,0.71149636 0.60695486,0.71149636 C 0.61020956,0.71149636 0.61364549,0.71113397 0.61690041,0.70787447 C 0.61690041,0.70135503 0.61997491,0.70117395 0.6232294,0.69791422 C 0.62973922,0.69791422 0.62992004,0.69447342 0.63317494,0.68795398 L 0.63317494,0.68433209 L 0.63317494,0.68071019 L 0.63317494,0.67889915 L 0.63317494,0.67708831 L 0.63317494,0.67527727 L 0.63317494,0.67437185 L 0.63317494,0.6725608 L 0.63317494,0.67074996 L 0.63317494,0.66893891 L 0.63317494,0.66803348 L 0.63317494,0.66622243 L 0.63317494,0.66441159 L 0.63317494,0.66350618 L 0.63317494,0.66260054 C 0.63642985,0.63616062 0.63353699,0.60935831 0.67295732,0.58654047 z M 0.81942821,0.58744588 C 0.82568367,0.58622336 0.83054927,0.59034365 0.83299029,0.60012261 C 0.82973539,0.61642141 0.83642601,0.62294085 0.84293583,0.63271981 C 0.84619033,0.63923925 0.84582868,0.6421368 0.83931929,0.64539653 C 0.83606438,0.64901841 0.82648047,0.6455776 0.8130992,0.63905816 C 0.78706014,0.63253851 0.77060458,0.62891683 0.75433004,0.63543627 L 0.66301179,0.67889915 C 0.66301179,0.67237971 0.66301179,0.66911978 0.66301179,0.66260054 C 0.66301179,0.65934082 0.66572402,0.65590002 0.66572402,0.6526403 L 0.68199858,0.64539653 L 0.69827312,0.63815274 L 0.71364358,0.63090897 L 0.72991812,0.6245706 L 0.74528858,0.61732662 L 0.76156311,0.61098827 L 0.77783767,0.60374449 L 0.79320812,0.59650071 C 0.79971793,0.5965005 0.8065896,0.59342208 0.8130992,0.59016236 C 0.81563064,0.58853259 0.81734298,0.58785333 0.81942821,0.58744588 z M 0.17206305,0.59468967 C 0.17450428,0.59387458 0.1767645,0.59487075 0.17839183,0.59650071 C 0.19141147,0.60627967 0.20479295,0.60990176 0.21455767,0.61642121 C 0.26012639,0.62946009 0.30641859,0.6455776 0.3519871,0.65897866 C 0.3519871,0.66875782 0.35506119,0.67817481 0.3583161,0.68795398 L 0.35650772,0.68795398 L 0.35379526,0.68795398 L 0.35108302,0.68704855 L 0.34927464,0.68614313 L 0.34656218,0.68614313 L 0.34384972,0.6852375 L 0.34023318,0.68433209 L 0.33752072,0.68342666 L 0.33480848,0.68252104 L 0.33119173,0.68252104 L 0.32757518,0.68071019 L 0.32486294,0.67980478 L 0.31762964,0.67799372 L 0.31130064,0.67618267 L 0.30316347,0.67346642 L 0.2959304,0.67165537 L 0.2886971,0.66984453 L 0.28055993,0.66712806 L 0.27332685,0.66531702 L 0.26609355,0.66260054 L 0.25795639,0.66078971 L 0.2507233,0.65897866 C 0.23444835,0.65245964 0.21799341,0.64901841 0.20822868,0.64539653 C 0.19846395,0.6421368 0.19141147,0.63887709 0.17839183,0.64539653 C 0.17513693,0.64539653 0.1686269,0.64539653 0.1621173,0.64539653 C 0.15235257,0.64901841 0.15615014,0.6455776 0.15940505,0.63905816 C 0.15940464,0.63253851 0.16247935,0.63235763 0.16573405,0.62909792 C 0.16898853,0.62257869 0.16898896,0.61968092 0.16573405,0.61642121 C 0.16573363,0.61316169 0.16573405,0.60609879 0.16573405,0.60283907 C 0.1673614,0.59794981 0.16962161,0.59550475 0.17206305,0.59468967 z M 0.60333832,0.64901841 L 0.6042424,0.64901841 L 0.6051467,0.64901841 L 0.60605078,0.64901841 L 0.60695486,0.64901841 C 0.61020956,0.65227813 0.6073169,0.65245921 0.61057141,0.65897866 C 0.6073169,0.6654981 0.60749732,0.66893891 0.6042424,0.66893891 C 0.6009875,0.67219904 0.59700932,0.67219862 0.59700932,0.66893891 C 0.59700973,0.66241987 0.59700932,0.66187621 0.59700932,0.65535677 C 0.59700973,0.65535656 0.59737095,0.6526403 0.60062586,0.6526403 L 0.60062586,0.65173488 L 0.60062586,0.65082947 L 0.60062586,0.64992383 L 0.60153015,0.64992383 L 0.60243424,0.64992383 L 0.60333832,0.64901841 z M 0.4207018,0.65535677 C 0.42431836,0.65535677 0.4237759,0.66260054 0.42703082,0.66260054 C 0.42703082,0.66911978 0.42757326,0.67201754 0.42431836,0.67527727 C 0.42431836,0.67853698 0.42431836,0.67853698 0.4207018,0.67527727 L 0.41979772,0.67527727 L 0.41979772,0.67437185 L 0.41889344,0.67346642 L 0.41798935,0.67346642 L 0.41708527,0.67346642 L 0.41708527,0.6725608 L 0.41618119,0.6725608 L 0.4152769,0.6725608 L 0.4152769,0.67165537 L 0.41437281,0.67165537 C 0.41437281,0.66839564 0.4143726,0.6622388 0.41437281,0.65897866 C 0.41437281,0.65571894 0.4174469,0.65535656 0.4207018,0.65535677 z M 0.58163907,0.66078971 C 0.58245837,0.66089172 0.58353785,0.66178587 0.58435132,0.66260054 C 0.5872446,0.66586006 0.58706378,0.66839564 0.59068033,0.67165537 C 0.59068033,0.67491509 0.59086114,0.68197821 0.58435132,0.6852375 L 0.58344723,0.6852375 L 0.58254316,0.6852375 L 0.58163907,0.6852375 L 0.58073478,0.6852375 L 0.5798307,0.6852375 L 0.57892661,0.6852375 L 0.57892661,0.68433209 L 0.57802232,0.68433209 L 0.57711824,0.68433209 L 0.57621415,0.68433209 L 0.57621415,0.68342666 L 0.57531007,0.68342666 L 0.57531007,0.68252104 L 0.57531007,0.68161561 L 0.57440577,0.68161561 L 0.57440577,0.68071019 L 0.57440577,0.67980478 L 0.57440577,0.67889915 C 0.57440577,0.67237971 0.57440577,0.66857652 0.57440577,0.66531702 C 0.57711824,0.66287238 0.57918075,0.66048387 0.58163907,0.66078971 z M 0.43697636,0.66531702 C 0.44023126,0.66531681 0.44330535,0.66839564 0.44330535,0.67165537 C 0.44656047,0.67491509 0.44330535,0.6852375 0.44330535,0.6852375 C 0.44330556,0.68849765 0.44023126,0.68795398 0.43697636,0.68795398 C 0.43697636,0.68795398 0.43697636,0.68849722 0.43335981,0.6852375 C 0.43335981,0.68197821 0.43046674,0.67853698 0.43335981,0.67527727 L 0.4342639,0.67527727 L 0.4342639,0.67437185 L 0.4342639,0.67346642 L 0.4342639,0.6725608 L 0.4342639,0.67165537 L 0.4342639,0.67074996 L 0.43516798,0.66984453 L 0.43516798,0.66893891 L 0.43607227,0.66803348 L 0.43607227,0.66712806 L 0.43607227,0.66622243 L 0.43697636,0.66622243 L 0.43697636,0.66531702 z M 0.55361061,0.66531702 L 0.55451469,0.66531702 L 0.55541878,0.66531702 L 0.55632307,0.66531702 L 0.55722715,0.66531702 L 0.55813124,0.66531702 L 0.55903553,0.66531702 L 0.55903553,0.66622243 L 0.55993961,0.66622243 L 0.5608437,0.66622243 L 0.5608437,0.66712806 L 0.56174778,0.66712806 L 0.56265207,0.66803348 L 0.56355614,0.66893891 L 0.56355614,0.66984453 L 0.56446024,0.66984453 L 0.56446024,0.67074996 L 0.56446024,0.67165537 C 0.56446024,0.67817481 0.56807678,0.68469425 0.56807678,0.68795398 C 0.56156675,0.6912137 0.55813124,0.69519775 0.55813124,0.69519775 C 0.55162142,0.69519775 0.55180223,0.69483537 0.55180223,0.69157586 C 0.54854711,0.68505642 0.55180223,0.67545835 0.55180223,0.66893891 L 0.55180223,0.66803348 L 0.55180223,0.66712806 L 0.55180223,0.66622243 L 0.55270653,0.66622243 L 0.55361061,0.66622243 L 0.55361061,0.66531702 z M 0.61690041,0.66893891 C 0.62015531,0.66893891 0.62322983,0.66893932 0.6232294,0.66893891 C 0.6232294,0.67545835 0.62684595,0.67509596 0.62684595,0.68161561 C 0.62359103,0.68161561 0.61690041,0.68795398 0.61690041,0.68795398 L 0.61690041,0.68704855 L 0.61690041,0.68614313 L 0.61690041,0.6852375 L 0.61690041,0.68433209 L 0.61690041,0.68342666 L 0.61690041,0.68252104 L 0.61690041,0.68161561 L 0.61690041,0.68071019 L 0.61690041,0.67980478 L 0.61690041,0.67799372 L 0.61690041,0.67708831 L 0.61690041,0.67527727 L 0.61690041,0.67437185 L 0.61690041,0.6725608 L 0.61690041,0.67165537 L 0.61690041,0.67074996 L 0.61690041,0.66984453 L 0.61690041,0.66893891 z M 0.45957989,0.67165537 C 0.46283502,0.67165537 0.46319644,0.67889915 0.46319644,0.67889915 C 0.46645135,0.68541859 0.46645135,0.69193845 0.46319644,0.69519775 C 0.45994154,0.69519775 0.45650581,0.69519775 0.4532509,0.69519775 L 0.4532509,0.69429233 L 0.4532509,0.69338692 L 0.4532509,0.69248128 L 0.4532509,0.69157586 L 0.4532509,0.68976503 L 0.4532509,0.68795398 L 0.4532509,0.68704855 L 0.4532509,0.68614313 L 0.4532509,0.6852375 L 0.4532509,0.68433209 L 0.4532509,0.68342666 L 0.4532509,0.68252104 L 0.4532509,0.68161561 C 0.4532509,0.67835569 0.45632499,0.67165537 0.45957989,0.67165537 z M 0.53191115,0.67165537 L 0.53281523,0.67165537 L 0.53371952,0.67165537 L 0.53462361,0.67165537 L 0.53552769,0.67165537 C 0.5387824,0.67817481 0.53824016,0.67889915 0.53824016,0.67889915 C 0.54149548,0.68867831 0.54149506,0.6946545 0.53824016,0.69791422 C 0.53824057,0.69791422 0.5387824,0.70153611 0.53552769,0.70153611 C 0.53227278,0.70153611 0.52883706,0.70171719 0.52558215,0.69519775 C 0.52558215,0.69193845 0.52558215,0.68541859 0.52558215,0.67889915 L 0.52558215,0.67799372 L 0.52558215,0.67708831 L 0.52648644,0.67708831 L 0.52648644,0.67618267 L 0.52739052,0.67527727 L 0.52829461,0.67437185 L 0.52829461,0.67346642 L 0.52919869,0.67346642 L 0.53010299,0.67346642 L 0.53010299,0.6725608 L 0.53100707,0.6725608 L 0.53191115,0.6725608 L 0.53191115,0.67165537 z M 0.47766281,0.67527727 C 0.47929017,0.67486981 0.48146017,0.67527727 0.48308752,0.67527727 C 0.48634222,0.67853698 0.48941652,0.67871807 0.48941652,0.6852375 C 0.49231001,0.68849765 0.49212898,0.6946545 0.49212898,0.69791422 C 0.49212898,0.70117395 0.48634244,0.70153611 0.48308752,0.70153611 C 0.47983241,0.70153611 0.47585444,0.70117395 0.47585444,0.69791422 L 0.47585444,0.6970088 L 0.47495035,0.6970088 L 0.47495035,0.69610338 L 0.47495035,0.69519775 L 0.47404607,0.69519775 L 0.47404607,0.69429233 L 0.47404607,0.69338692 L 0.47404607,0.69248128 L 0.47404607,0.69157586 L 0.47404607,0.69067044 L 0.47314198,0.68976503 L 0.47314198,0.68795398 L 0.47314198,0.68704855 L 0.47314198,0.6852375 L 0.47314198,0.68433209 L 0.47314198,0.68252104 L 0.47314198,0.68071019 L 0.47314198,0.67980478 L 0.47314198,0.67889915 C 0.47476954,0.67726939 0.47603525,0.67568471 0.47766281,0.67527727 z M 0.50297861,0.67889915 L 0.50388289,0.67889915 L 0.50478698,0.67889915 L 0.50569107,0.67889915 C 0.51256252,0.67889915 0.51563661,0.68197778 0.51563661,0.6852375 C 0.51563661,0.68849765 0.51563661,0.69827639 0.51563661,0.70153611 C 0.5123817,0.70479583 0.50207452,0.70479583 0.50207452,0.70153611 C 0.49881982,0.69501667 0.49881961,0.68849722 0.50207452,0.6852375 L 0.50207452,0.68433209 L 0.50207452,0.68342666 L 0.50207452,0.68252104 L 0.50297861,0.68252104 L 0.50297861,0.68161561 L 0.50297861,0.68071019 L 0.50297861,0.67980478 L 0.50297861,0.67889915 z M 0.40894789,0.68252104 L 0.40985219,0.68252104 L 0.41075627,0.68252104 L 0.41166035,0.68252104 L 0.41256444,0.68252104 L 0.41256444,0.68342666 L 0.41346873,0.68342666 L 0.41346873,0.68433209 L 0.41437281,0.68433209 L 0.41437281,0.6852375 C 0.41762751,0.68523792 0.41437281,0.69193845 0.41437281,0.69519775 C 0.4143726,0.69845747 0.41075627,0.69791422 0.41075627,0.69791422 C 0.40750136,0.69791422 0.40713973,0.68849722 0.40713973,0.6852375 L 0.40713973,0.68433209 L 0.40804381,0.68433209 L 0.40804381,0.68342666 L 0.40894789,0.68342666 L 0.40894789,0.68252104 z M 0.60605078,0.68433209 L 0.60695486,0.68433209 L 0.60695486,0.6852375 C 0.61020956,0.68849765 0.61020956,0.69501667 0.60695486,0.70153611 C 0.60695486,0.70479583 0.6042424,0.70153611 0.6042424,0.70153611 C 0.6009875,0.69501667 0.60062586,0.6912137 0.60062586,0.68795398 L 0.60153015,0.68795398 L 0.60243424,0.68795398 L 0.60243424,0.68704855 L 0.60333832,0.68704855 L 0.6042424,0.68614313 L 0.6051467,0.68614313 L 0.6051467,0.6852375 L 0.60605078,0.68433209 z M 0.42612673,0.69248128 L 0.42703082,0.69248128 C 0.42755784,0.69491611 0.43064735,0.69566861 0.43064735,0.70153611 C 0.43064735,0.71131527 0.43064735,0.7109531 0.43064735,0.71421282 C 0.42413754,0.71421282 0.42431836,0.71475608 0.42431836,0.71149636 C 0.4207018,0.70823663 0.4207018,0.70425258 0.4207018,0.70425258 C 0.4207018,0.70099285 0.4207018,0.69845747 0.4207018,0.69519775 L 0.4216059,0.69519775 L 0.42251018,0.69429233 L 0.42341427,0.69429233 L 0.42431836,0.69429233 L 0.42431836,0.69338692 L 0.42522244,0.69338692 L 0.42612673,0.69248128 z M 0.58887215,0.69338692 L 0.58977623,0.69338692 L 0.59068033,0.69338692 L 0.59158461,0.69338692 L 0.59248869,0.69338692 L 0.59248869,0.69429233 L 0.59339278,0.69429233 L 0.59339278,0.69519775 L 0.59429686,0.69519775 C 0.59429686,0.70171719 0.59393523,0.70497692 0.59068033,0.71149636 C 0.59068033,0.71475608 0.59068033,0.71783471 0.58706378,0.71783471 C 0.58417051,0.71783471 0.58435132,0.71747254 0.58435132,0.71421282 C 0.58109641,0.70443367 0.58435132,0.70117395 0.58435132,0.69791422 L 0.58435132,0.6970088 L 0.58435132,0.69610338 L 0.58525562,0.69610338 L 0.58525562,0.69519775 L 0.58615969,0.69519775 L 0.58706378,0.69429233 L 0.58796787,0.69429233 L 0.58887215,0.69338692 z M 0.44511373,0.70063069 L 0.44601781,0.70063069 L 0.4469219,0.70063069 L 0.4469219,0.70153611 C 0.45343172,0.70153611 0.4532509,0.71131527 0.4532509,0.71783471 C 0.4532509,0.71783471 0.45053844,0.72055119 0.45053844,0.72417307 C 0.44728354,0.72417307 0.44656026,0.72417307 0.44330535,0.72055119 C 0.44005065,0.71729146 0.44059289,0.71475608 0.44059289,0.71149636 L 0.44059289,0.71059093 L 0.44059289,0.70968551 L 0.44059289,0.70877988 L 0.44059289,0.70787447 L 0.44149698,0.70696905 L 0.44149698,0.70606363 L 0.44149698,0.70515799 L 0.44240127,0.70515799 L 0.44240127,0.70425258 L 0.44330535,0.70334716 L 0.44330535,0.70244174 L 0.44420943,0.70244174 L 0.44420943,0.70153611 L 0.44511373,0.70153611 L 0.44511373,0.70063069 z M 0.56446024,0.70425258 L 0.56536432,0.70425258 L 0.5662686,0.70425258 L 0.5671727,0.70425258 L 0.56807678,0.70425258 C 0.57133148,0.70425258 0.57078924,0.70425258 0.57078924,0.70425258 C 0.57078965,0.71403174 0.57078924,0.72127594 0.57078924,0.72779496 C 0.56753474,0.73141686 0.5608437,0.72707041 0.5608437,0.72417307 C 0.55758878,0.72055119 0.55758878,0.71475608 0.5608437,0.71149636 L 0.5608437,0.71059093 L 0.5608437,0.70968551 L 0.5608437,0.70877988 L 0.5608437,0.70787447 L 0.56174778,0.70787447 L 0.56174778,0.70696905 L 0.56174778,0.70606363 L 0.56265207,0.70515799 L 0.56355614,0.70515799 L 0.56446024,0.70425258 z M 0.46319644,0.70606363 L 0.46410052,0.70606363 L 0.46500482,0.70606363 L 0.46500482,0.70696905 L 0.4659089,0.70696905 L 0.46681298,0.70696905 L 0.46681298,0.70787447 L 0.46771706,0.70787447 L 0.46862136,0.70787447 L 0.46952543,0.70787447 C 0.47278056,0.70787426 0.47585444,0.71149636 0.47585444,0.71149636 C 0.47585444,0.7180158 0.47314198,0.72489782 0.47314198,0.72779496 C 0.47314198,0.72779496 0.46952543,0.73141686 0.46952543,0.73141686 C 0.46627074,0.73141686 0.46319644,0.72707041 0.46319644,0.72417307 C 0.46319644,0.72055119 0.46319644,0.7143939 0.46319644,0.70787447 L 0.46319644,0.70696905 L 0.46319644,0.70606363 z M 0.53733606,0.70787447 L 0.53824016,0.70787447 L 0.53914423,0.70787447 L 0.54004852,0.70787447 L 0.54095262,0.70787447 L 0.54185669,0.70787447 C 0.5451116,0.71113397 0.54818569,0.7109531 0.54818569,0.71421282 C 0.54818569,0.71747254 0.54456915,0.72489782 0.54456915,0.73141686 C 0.54456915,0.7343144 0.54185669,0.73413331 0.54185669,0.73413331 C 0.53860179,0.73413373 0.53552769,0.7343144 0.53552769,0.73141686 C 0.53552769,0.72779496 0.53552769,0.7180158 0.53552769,0.71149636 L 0.53552769,0.71059093 L 0.53552769,0.70968551 L 0.53552769,0.70877988 L 0.53643198,0.70877988 L 0.53733606,0.70877988 L 0.53733606,0.70787447 z M 0.51473253,0.71149636 C 0.51595324,0.71108912 0.51762581,0.71149636 0.51925314,0.71149636 C 0.52250805,0.71149636 0.52558215,0.714575 0.52558215,0.71783471 C 0.52558215,0.72471633 0.52250805,0.73123576 0.51925314,0.73413331 C 0.51925314,0.73413373 0.51527498,0.73413331 0.51202007,0.73413331 L 0.51202007,0.7332279 L 0.51202007,0.73232247 L 0.51202007,0.73141686 L 0.51202007,0.73051143 L 0.51111598,0.72960601 L 0.5102119,0.72960601 L 0.5102119,0.72870058 L 0.5102119,0.72779496 L 0.5093076,0.72779496 C 0.5093076,0.72127552 0.51202007,0.71747254 0.51202007,0.71421282 C 0.51202007,0.71258307 0.5135118,0.71190379 0.51473253,0.71149636 z M 0.4903206,0.71240198 L 0.49122491,0.71240198 L 0.49212898,0.71240198 L 0.49303306,0.71240198 L 0.49393736,0.71240198 L 0.49484144,0.71240198 L 0.49574552,0.71240198 L 0.49574552,0.7133074 L 0.49664961,0.7133074 L 0.49664961,0.71421282 L 0.49574552,0.71421282 C 0.49900043,0.72073226 0.49900043,0.72779496 0.49574552,0.73141686 C 0.49249061,0.7343144 0.48941652,0.7377552 0.48579998,0.73413331 C 0.4858002,0.73123618 0.48579998,0.72109443 0.48579998,0.71783471 L 0.48579998,0.7169293 L 0.48670407,0.7169293 L 0.48670407,0.71602387 L 0.48670407,0.71511825 L 0.48760835,0.71511825 L 0.48760835,0.71421282 L 0.48851245,0.71421282 L 0.48851245,0.7133074 L 0.48941652,0.7133074 L 0.4903206,0.7133074 L 0.4903206,0.71240198 z M 0.37459065,0.74047168 C 0.37459085,0.7437314 0.37856881,0.7471722 0.38182373,0.75043192 C 0.38182373,0.75695115 0.38453619,0.7634708 0.38453619,0.76673052 L 0.37820718,0.76944698 L 0.37278227,0.77306888 L 0.36554919,0.77578535 L 0.36012427,0.77850182 L 0.35289118,0.78031265 L 0.34656218,0.78302913 L 0.33390418,0.78755664 L 0.3203421,0.79208396 L 0.30678001,0.79661126 L 0.29321794,0.80113878 L 0.27965584,0.80657151 C 0.26663643,0.81309137 0.25415903,0.81906714 0.2443943,0.82558657 C 0.23788449,0.8288463 0.23101261,0.83264968 0.22450321,0.83916893 C 0.22450321,0.83916893 0.22106749,0.83880654 0.21455767,0.83554682 C 0.21455789,0.82250835 0.21112195,0.80946906 0.20461213,0.80294962 C 0.20135722,0.79280829 0.20533541,0.78936748 0.21184522,0.78936748 C 0.22811934,0.79588692 0.23788449,0.78991073 0.2443943,0.78665102 L 0.37459065,0.74047168 z M 0.64312049,0.75043192 L 0.74800104,0.79298936 C 0.76753049,0.7995086 0.78073094,0.80349308 0.80677021,0.79661126 C 0.81327961,0.79661126 0.81599206,0.79969031 0.80948267,0.80657151 C 0.80297285,0.81309116 0.79989897,0.8194293 0.80315366,0.82920847 C 0.79700548,0.83898742 0.78977198,0.84188518 0.78326258,0.84188518 C 0.77675276,0.83862546 0.7707854,0.83246819 0.76427557,0.82920847 C 0.74800104,0.8194293 0.73172649,0.8125477 0.7118354,0.80928797 C 0.68905126,0.79914664 0.66934058,0.79280829 0.64944949,0.78302913 L 0.62955841,0.77306888 C 0.63281331,0.76328972 0.63950436,0.75695115 0.64312049,0.75043192 z "
     style="font-style:normal;font-variant:normal;font-weight:normal;font-stretch:normal;letter-spacing:normal;word-spacing:normal;text-anchor:start;fill:black;fill-opacity:1;fill-rule:evenodd;stroke:none;stroke-width:0;stroke-linecap:butt;stroke-linejoin:miter;stroke-miterlimit:10.43299961;stroke-dasharray:none;stroke-dashoffset:0;stroke-opacity:1"
     id="path17569" />
  <path
     d="M 0.097824844,0.21157706 L 0.097824844,0.067851412 L 0.044136146,0.067851412 L 0.044136146,0.048621299 L 0.17330026,0.048621299 L 0.17330026,0.067851412 L 0.11938925,0.067851412 L 0.11938925,0.21157706 L 0.097824844,0.21157706 z M 0.23499224,0.18523291 L 0.23499224,0.14054791 L 0.19064071,0.14054791 L 0.19064071,0.12187358 L 0.23499224,0.12187358 L 0.23499224,0.077522047 L 0.25388888,0.077522047 L 0.25388888,0.12187358 L 0.29824042,0.12187358 L 0.29824042,0.14054791 L 0.25388888,0.14054791 L 0.25388888,0.18523291 L 0.23499224,0.18523291 z "
     style="font-size:0.22764897px;font-style:normal;font-weight:normal;fill:black;fill-opacity:1;stroke:none;stroke-width:1px;stroke-linecap:butt;stroke-linejoin:miter;stroke-opacity:1;font-family:Bitstream Vera Sans"
     id="text1883" />
</svg>
