<?xml version="1.0" encoding="UTF-8" standalone="no"?>
<!-- Created with Inkscape (http://www.inkscape.org/) -->
<svg
   xmlns:svg="http://www.w3.org/2000/svg"
   xmlns="http://www.w3.org/2000/svg"
   version="1.0"
   width="500"
   height="500"
   viewBox="0 0 1 1"
   id="svg3808">
  <defs
     id="defs3889" />
  <title
     id="title3810">SVG drawing</title>
  <desc
     id="desc3812">This was produced by version 4.1 of GNU libplot, a free library for exporting 2-D vector graphics.</desc>
  <polygon
     points="182.85,519.35 210.04,519.35 210.04,546.5 182.85,546.5 182.85,519.35 "
     transform="matrix(3.616551e-2,0,0,-3.621875e-2,-6.604534,19.80188)"
     style="font-style:normal;font-variant:normal;font-weight:normal;font-stretch:normal;letter-spacing:normal;word-spacing:normal;text-anchor:start;fill:#ff7d00;fill-opacity:1;fill-rule:evenodd;stroke:#000000;stroke-width:0.46036869;stroke-linecap:butt;stroke-linejoin:miter;stroke-miterlimit:10.43000031;stroke-dasharray:none;stroke-dashoffset:0;stroke-opacity:1"
     id="polygon3818" />
  <path
     d="M 0.50271243,0.15773031 C 0.45497394,0.18779178 0.43652939,0.23161791 0.45569696,0.35331283 C 0.43255117,0.34172276 0.42911485,0.33194363 0.38969446,0.3297705 C 0.408139,0.36671356 0.40958563,0.38283189 0.40958563,0.44295483 C 0.39150304,0.44295483 0.38770505,0.42955379 0.3634743,0.39224825 C 0.33562666,0.43389979 0.340871,0.47410373 0.34991214,0.5226366 C 0.3383391,0.49474827 0.30651324,0.48170915 0.29023865,0.48641761 C 0.31338444,0.51358184 0.32134119,0.5758788 0.31917124,0.62042787 C 0.32134119,0.74248497 0.37721844,0.84154477 0.50271243,0.84226915 C 0.68028511,0.84263134 0.68462616,0.6588194 0.67630803,0.56066653 C 0.67630803,0.53531352 0.69818831,0.50778652 0.70976136,0.50090521 C 0.69131681,0.49402388 0.64737544,0.54491128 0.65189616,0.52354207 C 0.65641688,0.50217287 0.65768266,0.41705797 0.6735956,0.37685517 C 0.65515107,0.38156364 0.63091973,0.39170496 0.61934698,0.41488511 C 0.60813559,0.3754067 0.59131823,0.31455852 0.5660025,0.30079531 C 0.57287399,0.34461998 0.56455557,0.34697451 0.56238592,0.36327306 C 0.51427885,0.31353562 0.50635468,0.24635598 0.49819171,0.18036717 L 0.49909586,0.17221789 L 0.50180829,0.1613522 L 0.50271243,0.15773031 z M 0.54611133,0.37776065 C 0.55856625,0.39542356 0.55529267,0.41281958 0.53978233,0.42756175 C 0.5394374,0.42580794 0.53501763,0.380972 0.54611133,0.37776065 z M 0.50542487,0.40311394 C 0.50579992,0.40536169 0.50529372,0.40740043 0.50452072,0.40945226 C 0.49205411,0.43678347 0.52357458,0.47129609 0.52260359,0.49366141 L 0.52260359,0.49637783 C 0.51356216,0.49420497 0.50018083,0.49148826 0.48643784,0.49366141 C 0.47486481,0.44041978 0.50542487,0.40311394 0.50542487,0.40311394 z M 0.43670993,0.45200957 C 0.45660081,0.47591411 0.45750525,0.50162958 0.44665552,0.50271615 L 0.43128507,0.50724353 C 0.41464912,0.49130746 0.44285812,0.4798979 0.43670993,0.45200957 z M 0.57323564,0.45925337 C 0.56744883,0.48569322 0.57520215,0.49544972 0.57142735,0.50724353 C 0.56063389,0.50404906 0.56540925,0.50560861 0.55786521,0.50271615 C 0.55399999,0.48920209 0.55732271,0.46613498 0.57323564,0.45925337 z M 0.61482625,0.48007928 C 0.61092267,0.50531146 0.62827445,0.54321597 0.62561644,0.54473599 C 0.59344743,0.52670936 0.60363193,0.51231016 0.61482625,0.48007928 z M 0.37251573,0.50452711 C 0.38121258,0.51729647 0.38670457,0.52416648 0.38426961,0.53078586 C 0.38217026,0.53954506 0.37170302,0.54696184 0.36257015,0.55795011 C 0.36228998,0.54170054 0.36502097,0.52582759 0.36944448,0.51026708 L 0.37251573,0.50452711 z M 0.50180829,0.5226366 C 0.59684887,0.52292843 0.63937627,0.57598104 0.64124281,0.66702051 C 0.64076863,0.77140982 0.58589307,0.82053775 0.50271243,0.82053775 C 0.41663852,0.82271061 0.35497534,0.75932709 0.35172042,0.67022896 C 0.35135877,0.58076836 0.41103283,0.5222744 0.50180829,0.5226366 z "
     style="font-style:normal;font-variant:normal;font-weight:normal;font-stretch:normal;letter-spacing:normal;word-spacing:normal;text-anchor:start;fill:#000000;fill-opacity:1;fill-rule:evenodd;stroke:none;stroke-width:0;stroke-linecap:butt;stroke-linejoin:miter;stroke-miterlimit:10.43299961;stroke-dasharray:none;stroke-dashoffset:0;stroke-opacity:1"
     id="path3886" />
</svg>
