<?xml version="1.0" encoding="UTF-8" standalone="no"?>
<!-- Created with Inkscape (http://www.inkscape.org/) -->
<svg
   xmlns:svg="http://www.w3.org/2000/svg"
   xmlns="http://www.w3.org/2000/svg"
   version="1.0"
   width="500.29913"
   height="500.30167"
   id="svg1979">
  <defs
     id="defs2046" />
  <title
     id="title1981">SVG drawing</title>
  <desc
     id="desc1983">This was produced by version 4.1 of GNU libplot, a free library for exporting 2-D vector graphics.</desc>
  <polygon
     points="182.85,519.35 210.04,519.35 210.04,546.5 182.85,546.5 182.85,519.35 "
     transform="matrix(18.09355,0,0,-18.1203,-3304.238,9906.912)"
     style="font-style:normal;font-variant:normal;font-weight:normal;font-stretch:normal;letter-spacing:normal;word-spacing:normal;text-anchor:start;fill:#ff7d00;fill-opacity:1;fill-rule:evenodd;stroke:#000000;stroke-width:0.46034938;stroke-linecap:butt;stroke-linejoin:miter;stroke-miterlimit:10.43299961;stroke-dasharray:none;stroke-dashoffset:0;stroke-opacity:1"
     id="polygon1989" />
  <g
     transform="matrix(4.705235,0,0,4.704628,-6.355876,7.454254)"
     style="fill:#000000;fill-opacity:1;stroke:none"
     id="g22541">
    <path
       d="M 99.544427,63.876462 L 99.544427,80.784946 C 95.08375,82.287046 92.622698,82.864796 85.624061,83.172928 C 84.431987,83.172928 81.240284,83.172928 78.894587,82.864796 C 78.01015,82.595178 73.16495,81.670804 71.972854,81.978936 L 58.129387,81.978936 C 55.168439,81.978936 55.053061,78.435456 58.014032,78.435456 L 72.088231,78.435456 C 72.665032,78.127346 72.549676,77.549596 71.972854,77.549596 L 51.707572,77.549596 C 48.438965,77.549596 48.246705,73.351361 51.515291,73.081766 L 69.011906,73.081766 C 69.588706,72.773634 69.47335,72.465502 69.011906,72.195884 L 49.631038,72.195884 C 46.977705,72.195884 46.785447,68.344294 49.43878,68.344294 L 71.011513,68.382807 C 71.742143,68.074698 71.665239,67.419921 70.780779,67.419921 L 52.97655,67.419921 C 49.707964,67.419921 50.130958,62.990582 53.399543,62.990582 L 58.744661,62.990582 C 59.013847,65.571153 62.474713,63.568331 62.167076,62.990582 C 62.167076,62.990582 62.359335,62.875041 62.666972,62.875041 C 64.166683,66.148903 67.204557,64.261622 67.512194,63.067608 L 75.087654,62.990582 C 75.702906,62.990582 75.510646,62.37434 74.933824,62.104722 C 71.357602,61.180349 70.203979,61.180349 68.704269,59.408609 C 67.819831,58.52275 68.127446,57.559842 68.704269,56.36585 C 69.011906,56.057718 69.319543,56.134769 71.049965,56.751009 C 71.703691,56.9436 71.972854,57.020628 72.549676,57.020628 C 74.626187,57.598355 75.972091,57.752432 77.164165,57.752432 C 83.970543,59.216018 91.54598,61.180349 99.544427,63.876462 z "
       style="font-style:normal;font-variant:normal;font-weight:normal;font-stretch:normal;letter-spacing:normal;word-spacing:normal;text-anchor:start;fill:#000000;fill-opacity:1;fill-rule:evenodd;stroke:none;stroke-width:0;stroke-linecap:butt;stroke-linejoin:miter;stroke-miterlimit:10.43299961;stroke-dasharray:none;stroke-dashoffset:0;stroke-opacity:1"
       id="path2017" />
    <path
       d="M 24.328253,70.809324 L 24.328253,70.809324 L 24.366728,71.733698 C 24.366728,71.733698 24.597439,72.041829 24.635891,72.003316 C 24.635891,72.272912 24.674342,72.272912 24.98198,72.581043 C 25.289617,72.581043 25.520349,72.65807 25.520349,72.581043 C 25.520349,72.889175 25.789512,73.23582 25.827964,73.158792 C 25.827964,73.775034 26.058698,73.813547 26.366335,74.083166 C 26.366335,74.083166 27.020061,74.121679 27.289224,74.121679 C 27.596861,74.429811 27.635313,74.391297 27.94295,74.391297 C 28.558223,74.391297 29.019668,74.006138 29.019668,73.698006 C 29.327306,73.428389 29.404209,73.23582 29.673372,73.23582 C 29.673372,72.927688 30.019461,72.927688 30.634735,72.619557 C 30.90392,72.619557 30.865446,72.542529 31.134631,72.542529 C 31.442268,72.542529 32.057542,72.619557 32.057542,72.311425 C 32.057542,71.733698 32.288254,71.425566 32.595891,71.15597 C 32.595891,71.15597 33.095786,70.809324 32.903528,70.809324 L 42.017127,70.809324 L 42.017127,77.318515 L 9.484994,77.318515 L 9.484994,70.809324 L 24.328253,70.809324 z "
       style="font-style:normal;font-variant:normal;font-weight:normal;font-stretch:normal;letter-spacing:normal;word-spacing:normal;text-anchor:start;fill:#000000;fill-opacity:1;fill-rule:evenodd;stroke:none;stroke-width:0;stroke-linecap:butt;stroke-linejoin:miter;stroke-miterlimit:10.43299961;stroke-dasharray:none;stroke-dashoffset:0;stroke-opacity:1"
       id="path2019" />
    <path
       d="M 29.071799,47.72901 C 28.773698,48.30696 28.480337,49.133209 28.180405,49.696488 C 27.295968,51.19861 26.704995,52.374567 26.704995,54.184797 C 26.397358,57.150529 30.055146,57.334982 30.362783,54.369249 C 30.362783,52.597508 29.955976,51.198611 29.379176,49.696488 L 29.071799,47.882719 L 29.071799,47.72901 z M 28.641471,49.857872 L 28.879657,52.859105 C 29.033489,54.322715 28.634135,55.160764 28.211143,55.199278 C 27.78815,55.237791 27.596388,54.949115 27.596388,53.446993 C 27.596387,51.944894 28.526093,50.666704 28.641471,49.857872 z "
       style="font-style:normal;font-variant:normal;font-weight:normal;font-stretch:normal;letter-spacing:normal;word-spacing:normal;text-anchor:start;fill:#000000;fill-opacity:1;fill-rule:evenodd;stroke:none;stroke-width:0;stroke-linecap:butt;stroke-linejoin:miter;stroke-miterlimit:10.43299961;stroke-dasharray:none;stroke-dashoffset:0;stroke-opacity:1"
       id="path2023" />
    <path
       d="M 30.547209,36.938623 L 29.379176,45.085212 L 30.239832,45.269663 L 30.393521,44.378149 L 50.004185,46.345627 C 54.157229,46.653761 54.595271,40.228714 50.403776,39.920582 L 31.530816,37.737911 L 31.592292,37.06159 L 30.547209,36.938623 z M 31.438603,38.537199 C 31.438603,38.537199 45.731643,40.105033 50.526727,40.627644 C 52.537436,40.945241 52.560844,42.201061 52.524678,43.701829 C 49.433121,43.812152 37.619078,43.766611 34.389424,43.763312 L 30.547209,43.763312 L 31.438603,38.537199 z "
       style="font-style:normal;font-variant:normal;font-weight:normal;font-stretch:normal;letter-spacing:normal;word-spacing:normal;text-anchor:start;fill:#000000;fill-opacity:1;fill-rule:evenodd;stroke:none;stroke-width:0;stroke-linecap:butt;stroke-linejoin:miter;stroke-miterlimit:10.43299961;stroke-dasharray:none;stroke-dashoffset:0;stroke-opacity:1"
       id="path2031" />
    <path
       d="M 61.653781,19.999867 L 60.8546,20.184318 L 61.039026,20.922123 L 41.520575,25.348948 C 37.367531,26.234808 38.666251,32.789901 42.780822,32.173637 L 62.637388,27.71607 L 62.852552,28.607583 L 63.743946,28.330907 L 61.653781,19.999867 z M 61.284928,21.782894 L 62.545175,27.131975 L 57.258287,28.330907 C 57.258287,28.330907 44.35613,28.108028 40.045165,28.023488 C 40.519355,27.165306 40.830633,26.58809 42.504182,26.178978 C 47.237791,25.079957 61.284928,21.782894 61.284928,21.782894 z "
       style="font-style:normal;font-variant:normal;font-weight:normal;font-stretch:normal;letter-spacing:normal;word-spacing:normal;text-anchor:start;fill:#000000;fill-opacity:1;fill-rule:evenodd;stroke:none;stroke-width:0;stroke-linecap:butt;stroke-linejoin:miter;stroke-miterlimit:10.43299961;stroke-dasharray:none;stroke-dashoffset:0;stroke-opacity:1"
       id="path2033" />
  </g>
  <path
     d="M 124.88379,287.28494 C 123.48115,290.00398 122.10082,293.89117 120.68957,296.54119 C 116.52809,303.60812 113.74742,309.14056 113.74742,317.65702 C 112.29992,331.60968 129.51067,332.47747 130.95817,318.52479 C 130.95817,310.18941 129.04405,303.60812 126.33007,296.54119 L 124.88379,288.00808 L 124.88379,287.28494 z M 122.859,297.30044 L 123.97972,311.42013 C 124.70353,318.30587 122.82448,322.24858 120.8342,322.42977 C 118.84392,322.61096 117.94163,321.25285 117.94163,314.18592 C 117.94163,307.11911 122.31612,301.1057 122.859,297.30044 z "
     style="font-style:normal;font-variant:normal;font-weight:normal;font-stretch:normal;letter-spacing:normal;word-spacing:normal;text-anchor:start;fill:#000000;fill-opacity:1;fill-rule:evenodd;stroke:none;stroke-width:0;stroke-linecap:butt;stroke-linejoin:miter;stroke-miterlimit:10.43299961;stroke-dasharray:none;stroke-dashoffset:0;stroke-opacity:1"
     id="path2169" />
  <path
     d="M 296.97772,231.96903 C 295.57508,234.68807 294.19475,238.57526 292.7835,241.22528 C 288.62202,248.29221 285.84135,253.82465 285.84135,262.34111 C 284.39385,276.29377 301.6046,277.16156 303.0521,263.20888 C 303.0521,254.8735 301.13798,248.29221 298.424,241.22528 L 296.97772,232.69217 L 296.97772,231.96903 z M 294.95293,241.98453 L 296.07365,256.10422 C 296.79746,262.98996 294.91841,266.93267 292.92813,267.11386 C 290.93785,267.29505 290.03556,265.93694 290.03556,258.87001 C 290.03556,251.8032 294.41005,245.78979 294.95293,241.98453 z "
     style="font-style:normal;font-variant:normal;font-weight:normal;font-stretch:normal;letter-spacing:normal;word-spacing:normal;text-anchor:start;fill:#000000;fill-opacity:1;fill-rule:evenodd;stroke:none;stroke-width:0;stroke-linecap:butt;stroke-linejoin:miter;stroke-miterlimit:10.43299961;stroke-dasharray:none;stroke-dashoffset:0;stroke-opacity:1"
     id="path2172" />
  <path
     d="M 301.28008,166.20456 C 299.87744,168.9236 298.49711,172.81079 297.08586,175.46081 C 292.92438,182.52774 290.14371,188.06018 290.14371,196.57664 C 288.69621,210.5293 305.90696,211.39709 307.35446,197.44441 C 307.35446,189.10903 305.44034,182.52774 302.72636,175.46081 L 301.28008,166.9277 L 301.28008,166.20456 z M 299.25529,176.22006 L 300.37601,190.33975 C 301.09982,197.22549 299.22077,201.1682 297.23049,201.34939 C 295.24021,201.53058 294.33792,200.17247 294.33792,193.10554 C 294.33792,186.03873 298.71241,180.02532 299.25529,176.22006 z "
     style="font-style:normal;font-variant:normal;font-weight:normal;font-stretch:normal;letter-spacing:normal;word-spacing:normal;text-anchor:start;fill:#000000;fill-opacity:1;fill-rule:evenodd;stroke:none;stroke-width:0;stroke-linecap:butt;stroke-linejoin:miter;stroke-miterlimit:10.43299961;stroke-dasharray:none;stroke-dashoffset:0;stroke-opacity:1"
     id="path2174" />
</svg>
