<?xml version="1.0" encoding="UTF-8" standalone="no"?>
<svg
   xmlns:svg="http://www.w3.org/2000/svg"
   xmlns="http://www.w3.org/2000/svg"
   version="1.0"
   width="500"
   height="500"
   viewBox="0 0 1 1">
  <polygon
     points="182.85,519.35 210.04,519.35 210.04,546.5 182.85,546.5 182.85,519.35 "
     transform="matrix(3.616542e-2,0,0,-3.621889e-2,-6.604516,19.80195)"
     style="fill:#ff7d00;stroke:#000000;stroke-width:0.4605051;stroke-miterlimit:10.43299961" />
  <path
     d="M 0.50207452,0.14466713 C 0.39755644,0.14140741 0.29665366,0.19736654 0.26699784,0.3085588 C 0.25072351,0.36107586 0.26374314,0.40037443 0.28688893,0.43985304 C 0.29014384,0.44963219 0.29629223,0.4590492 0.29954693,0.46882836 C 0.29629223,0.48186724 0.2928563,0.4987091 0.28960138,0.5150077 C 0.28634648,0.53456581 0.29339875,0.55086484 0.30316347,0.5639035 C 0.30641838,0.56716323 0.30931166,0.57368267 0.31582147,0.583824 C 0.32884111,0.59360317 0.34186094,0.6095398 0.34837056,0.64539653 C 0.32558641,0.63887709 0.29972733,0.62927879 0.27694338,0.62275956 C 0.2537976,0.61624012 0.22775812,0.60627967 0.20822868,0.59650071 C 0.19846395,0.5932412 0.19123108,0.59034344 0.18472084,0.583824 C 0.17821102,0.58056427 0.17224345,0.58056427 0.16573405,0.583824 C 0.15271462,0.59360317 0.15904342,0.60609879 0.15578851,0.61913767 C 0.1525336,0.62565711 0.14313009,0.63290089 0.1431305,0.64268005 C 0.1431305,0.64593977 0.14258785,0.64883712 0.14584276,0.65535677 C 0.15235257,0.66187621 0.1653722,0.6622388 0.17839183,0.65897866 C 0.19141147,0.65245921 0.20208007,0.65245964 0.21184522,0.65897866 C 0.26392334,0.67201732 0.31636392,0.68795398 0.36554919,0.70425258 C 0.36554919,0.71403174 0.36826185,0.71729146 0.36826163,0.72417307 L 0.36554919,0.73413331 C 0.32612885,0.74753437 0.28652688,0.76003 0.24710676,0.77306888 C 0.24059694,0.77958833 0.23119343,0.78357279 0.21817422,0.78031265 C 0.2084095,0.77705294 0.19882516,0.77976941 0.19195414,0.78302913 C 0.18544432,0.79280829 0.18869922,0.79914664 0.19195414,0.80928797 C 0.19882516,0.81580741 0.20189967,0.82305139 0.20189967,0.83283056 C 0.20515458,0.84586902 0.21473849,0.84858571 0.22450321,0.85184542 C 0.23101261,0.85184542 0.23788449,0.84568837 0.2443943,0.83916893 C 0.25415903,0.83264968 0.27025296,0.81924802 0.27965584,0.81924823 L 0.39086518,0.77669077 C 0.41690404,0.81616938 0.46337767,0.83554682 0.5093076,0.83554682 C 0.5516212,0.83554682 0.59122277,0.81598829 0.62051695,0.78302913 L 0.69827312,0.81290986 C 0.71454745,0.82268903 0.7317267,0.82631112 0.74800104,0.83283056 C 0.76102067,0.83934959 0.77024294,0.84894809 0.78326258,0.85546752 C 0.79953712,0.85546752 0.80984451,0.84912875 0.8130992,0.83283056 C 0.80984451,0.82631112 0.81255676,0.8194293 0.81942821,0.81290986 C 0.82268311,0.80639042 0.82666088,0.80313028 0.82666129,0.79298936 C 0.82340638,0.78321022 0.81653451,0.78302913 0.80677021,0.78302913 C 0.79049567,0.78954856 0.77024294,0.78954856 0.7507135,0.78302913 C 0.72105789,0.77324996 0.69230554,0.76021087 0.66301179,0.75043192 L 0.64944949,0.74409357 C 0.64944949,0.74083384 0.64944991,0.73775562 0.64944949,0.73413331 C 0.65595931,0.71783513 0.65939503,0.70461453 0.66301179,0.69157586 C 0.69230554,0.67853698 0.71834544,0.66567898 0.74800104,0.6526403 C 0.76427557,0.64575869 0.78724075,0.64557781 0.82666129,0.65897866 C 0.83642601,0.66223838 0.84582931,0.66241946 0.85559384,0.6526403 C 0.85559384,0.64938057 0.85559405,0.64593977 0.85559384,0.64268005 C 0.85884875,0.63616062 0.85577466,0.62964097 0.84926483,0.62638145 C 0.84600992,0.61986201 0.83968051,0.61316169 0.84293583,0.60012261 C 0.83968092,0.59034365 0.84239359,0.58400508 0.82937375,0.57748564 C 0.82286393,0.5709662 0.81327961,0.5709662 0.80677021,0.57748564 C 0.79736712,0.58400508 0.78724034,0.5872648 0.77422112,0.59378424 C 0.74492695,0.60356319 0.71490908,0.61605924 0.68561511,0.62909792 C 0.6791053,0.63235763 0.67223426,0.63217656 0.66572402,0.63543627 C 0.66572402,0.62891683 0.66934058,0.62601929 0.66934058,0.62275956 C 0.67259548,0.6129804 0.68254123,0.59034344 0.69556087,0.583824 C 0.71183499,0.5639035 0.72178054,0.54126655 0.70550641,0.50866934 C 0.70550641,0.50540961 0.70514457,0.50196881 0.70188966,0.4987091 C 0.73480017,0.43641286 0.75107513,0.3735715 0.73805549,0.31127505 C 0.72467423,0.22290105 0.6297388,0.14792665 0.50207452,0.14466713 z M 0.50207452,0.15734384 C 0.62322857,0.16060356 0.7118354,0.22652294 0.72810996,0.31489694 C 0.7382363,0.38697254 0.71834523,0.4427508 0.69556087,0.48512696 C 0.68905105,0.46556864 0.68887002,0.44619139 0.68561511,0.42989279 C 0.68561511,0.40345306 0.69863475,0.37411538 0.70188966,0.34477788 C 0.70188966,0.3248574 0.69863475,0.31489736 0.68561511,0.29859834 C 0.68236021,0.2920789 0.67928632,0.29207931 0.67928632,0.29859834 C 0.68905105,0.32141617 0.69574127,0.3409747 0.68923187,0.36379275 C 0.66644772,0.42608919 0.67585039,0.45252996 0.68561511,0.48512696 C 0.69537985,0.5148262 0.7118354,0.54706165 0.67928632,0.56661998 C 0.63986621,0.58980018 0.62648473,0.60628008 0.6232294,0.64539653 C 0.6199745,0.6421368 0.61328386,0.63905795 0.61328386,0.63905816 C 0.60677446,0.63579844 0.60080668,0.63942034 0.59429686,0.64268005 C 0.59104196,0.64593977 0.58724502,0.65227813 0.58435132,0.64901841 C 0.5778415,0.64901841 0.57404414,0.64938057 0.57078924,0.6526403 C 0.56753433,0.65590002 0.56735352,0.65897907 0.5608437,0.65897866 C 0.55758878,0.65571894 0.55107897,0.65245964 0.54456915,0.65897866 C 0.54131425,0.65897866 0.5420373,0.66531681 0.53552769,0.66531702 C 0.52901788,0.66531702 0.52558215,0.66241987 0.52558215,0.66893891 C 0.51907233,0.66893891 0.51527518,0.67219904 0.51202007,0.66893891 C 0.50876516,0.66893891 0.50261677,0.6656796 0.49936206,0.66893891 C 0.49610715,0.66893891 0.48941694,0.66893932 0.48941652,0.66893891 C 0.48579998,0.66241987 0.48272589,0.6620573 0.47947098,0.66531702 C 0.47621607,0.66531702 0.47006767,0.66857652 0.46681298,0.66531702 C 0.46355807,0.6620575 0.46012213,0.66260054 0.45686744,0.66260054 C 0.45361253,0.66260054 0.45017681,0.6622388 0.4469219,0.65897866 C 0.44366698,0.65571894 0.44023126,0.6526403 0.43697636,0.6526403 C 0.43046674,0.6526403 0.43028572,0.65227813 0.42703082,0.64901841 C 0.42015936,0.64539653 0.41441769,0.65037171 0.41075627,0.6526403 C 0.40709485,0.6549089 0.40081073,0.65535677 0.40081073,0.65535677 C 0.39755582,0.61587817 0.38489761,0.59324098 0.35560364,0.58020211 C 0.31618332,0.57042294 0.29629223,0.54452626 0.29954693,0.50866934 C 0.30605674,0.48548934 0.31292778,0.46846577 0.31943802,0.44890786 C 0.32594783,0.42934954 0.32594742,0.40653108 0.31943802,0.38009156 C 0.31618311,0.36053303 0.31238595,0.34133708 0.32215048,0.31489694 C 0.32215048,0.3083775 0.31310902,0.30837792 0.31310902,0.31489694 C 0.3065992,0.33119533 0.30298265,0.35093537 0.30949247,0.3737532 C 0.31274738,0.40309028 0.31238595,0.42934912 0.30587593,0.44890786 C 0.27658196,0.40290982 0.2633815,0.36053261 0.27965584,0.31127505 C 0.30931123,0.19682329 0.4203408,0.16060336 0.50207452,0.15734384 z M 0.6051467,0.41993255 C 0.58971978,0.4205607 0.57273307,0.42588599 0.5608437,0.43260925 C 0.54018605,0.44554202 0.55319891,0.48279025 0.55451469,0.48512696 C 0.56161219,0.49775816 0.56771556,0.50794458 0.58435132,0.51772416 C 0.60062586,0.54054179 0.62630349,0.53112522 0.64583295,0.50504745 C 0.65559768,0.48512716 0.66264993,0.46574929 0.65577849,0.44619139 C 0.65577849,0.42989279 0.64655601,0.41993255 0.62051695,0.41993255 C 0.61563468,0.41993255 0.61028872,0.41972309 0.6051467,0.41993255 z M 0.43516798,0.42536528 C 0.42576509,0.42495805 0.41472117,0.42666243 0.40575767,0.43004635 C 0.37801995,0.43586164 0.36575949,0.45790885 0.36554919,0.46520646 C 0.36511972,0.48003368 0.36862327,0.49816542 0.38815272,0.51772416 C 0.40768197,0.53402235 0.42431836,0.53746315 0.44059289,0.52768441 C 0.46012235,0.5081263 0.47259952,0.48548913 0.47585444,0.47245025 C 0.47910934,0.45615164 0.48236426,0.44564772 0.45957989,0.43260925 C 0.45307009,0.42771958 0.44457108,0.42577272 0.43516798,0.42536528 z M 0.48308752,0.52768441 C 0.47352624,0.54420937 0.4563252,0.57748564 0.45957989,0.59378424 C 0.46283481,0.61008263 0.47929038,0.61913767 0.50207452,0.60283907 C 0.51545559,0.61587796 0.54456915,0.61931854 0.54456915,0.59650071 C 0.54456915,0.57332072 0.53631872,0.54554495 0.52558215,0.52496795 C 0.51234305,0.50723616 0.49321185,0.51083946 0.48308752,0.52768441 z M 0.67295732,0.58654047 C 0.66644751,0.60609859 0.65632094,0.61261823 0.65306603,0.65535677 C 0.65306603,0.68795377 0.64981091,0.71457541 0.63679149,0.7377552 C 0.59122318,0.8391683 0.46030295,0.85836466 0.39809827,0.76673052 C 0.38507863,0.7439129 0.3720588,0.71077202 0.36554919,0.67165537 C 0.35903937,0.63217676 0.35180628,0.6129804 0.34204155,0.59016236 C 0.37169716,0.59668159 0.384717,0.61605924 0.39448172,0.66531702 C 0.39448172,0.6783559 0.39737521,0.70171719 0.40713973,0.71149636 C 0.41039464,0.71149636 0.41708547,0.71783471 0.41708527,0.71783471 C 0.42034017,0.72109443 0.42015936,0.72417307 0.42703082,0.72417307 C 0.43317858,0.72417307 0.43697636,0.72489741 0.43697636,0.72779496 C 0.44023126,0.73141686 0.44366698,0.73413373 0.4469219,0.73413331 C 0.45343172,0.73413331 0.45609942,0.73721195 0.45686744,0.74047168 C 0.46015244,0.74357784 0.46309738,0.74231444 0.46681298,0.74047168 C 0.47083548,0.73797976 0.47778179,0.74114097 0.47947098,0.74409357 C 0.48521299,0.74888891 0.49361985,0.74812109 0.49936206,0.74409357 C 0.50261698,0.74083384 0.50569107,0.74409357 0.5093076,0.74409357 C 0.51256252,0.74735328 0.51907233,0.75061301 0.52558215,0.74409357 C 0.52883706,0.73757412 0.53227278,0.74083384 0.53552769,0.74409357 C 0.5387824,0.74409357 0.54167588,0.74101535 0.54818569,0.7377552 C 0.5514406,0.7377552 0.55487632,0.73721195 0.55813124,0.74047168 C 0.56464106,0.74047168 0.57115087,0.74101535 0.57440577,0.73413331 C 0.57802232,0.73123576 0.58109641,0.72417307 0.58435132,0.72417307 C 0.59086114,0.72417307 0.59411605,0.72707041 0.60062586,0.72055119 C 0.60062586,0.71729146 0.60369995,0.71149636 0.60695486,0.71149636 C 0.61020956,0.71149636 0.61364549,0.71113397 0.61690041,0.70787447 C 0.61690041,0.70135503 0.61997491,0.70117395 0.6232294,0.69791422 C 0.62973922,0.69791422 0.62992004,0.69447342 0.63317494,0.68795398 L 0.63317494,0.66260054 C 0.63642985,0.63616062 0.63353699,0.60935831 0.67295732,0.58654047 z M 0.81942821,0.58744588 C 0.82568367,0.58622336 0.83054927,0.59034365 0.83299029,0.60012261 C 0.82973539,0.61642141 0.83642601,0.62294085 0.84293583,0.63271981 C 0.84619033,0.63923925 0.84582868,0.6421368 0.83931929,0.64539653 C 0.83606438,0.64901841 0.82648047,0.6455776 0.8130992,0.63905816 C 0.78706014,0.63253851 0.77060458,0.62891683 0.75433004,0.63543627 L 0.66301179,0.67889915 C 0.66301179,0.67237971 0.66301179,0.66911978 0.66301179,0.66260054 C 0.66301179,0.65934082 0.66572402,0.65590002 0.66572402,0.6526403 L 0.79320812,0.59650071 C 0.79971793,0.5965005 0.8065896,0.59342208 0.8130992,0.59016236 C 0.81563064,0.58853259 0.81734298,0.58785333 0.81942821,0.58744588 z M 0.17206305,0.59468967 C 0.17450428,0.59387458 0.1767645,0.59487075 0.17839183,0.59650071 C 0.19141147,0.60627967 0.20479295,0.60990176 0.21455767,0.61642121 C 0.26012639,0.62946009 0.30641859,0.6455776 0.3519871,0.65897866 C 0.3519871,0.66875782 0.35506119,0.67817481 0.3583161,0.68795398 L 0.2507233,0.65897866 C 0.23444835,0.65245964 0.21799341,0.64901841 0.20822868,0.64539653 C 0.19846395,0.6421368 0.19141147,0.63887709 0.17839183,0.64539653 C 0.17513693,0.64539653 0.1686269,0.64539653 0.1621173,0.64539653 C 0.15235257,0.64901841 0.15615014,0.6455776 0.15940505,0.63905816 C 0.15940464,0.63253851 0.16247935,0.63235763 0.16573405,0.62909792 C 0.16898853,0.62257869 0.16898896,0.61968092 0.16573405,0.61642121 C 0.16573363,0.61316169 0.16573405,0.60609879 0.16573405,0.60283907 C 0.1673614,0.59794981 0.16962161,0.59550475 0.17206305,0.59468967 z M 0.6002154,0.65040047 C 0.60270178,0.64881588 0.60403301,0.64631628 0.60695486,0.64901841 C 0.60987671,0.65172054 0.6073169,0.65245921 0.61057141,0.65897866 C 0.6073169,0.6654981 0.60749732,0.66893891 0.6042424,0.66893891 C 0.6009875,0.67219904 0.59700932,0.67219862 0.59700932,0.66893891 C 0.59700973,0.66241987 0.59538778,0.66033705 0.59700932,0.65535677 C 0.59863086,0.65037649 0.59772901,0.65198506 0.6002154,0.65040047 z M 0.4207018,0.65535677 C 0.42431836,0.65535677 0.4237759,0.66260054 0.42703082,0.66260054 C 0.42703082,0.66911978 0.42752806,0.67251555 0.42431836,0.67527727 C 0.42110866,0.67803899 0.415616,0.67532256 0.41437281,0.67165537 C 0.41312962,0.66798818 0.4143726,0.6622388 0.41437281,0.65897866 C 0.41437281,0.65571894 0.4174469,0.65535656 0.4207018,0.65535677 z M 0.58163907,0.66078971 C 0.58245837,0.66089172 0.58353785,0.66178587 0.58435132,0.66260054 C 0.5872446,0.66586006 0.58706378,0.66839564 0.59068033,0.67165537 C 0.59068033,0.67491509 0.58964055,0.68270238 0.58435132,0.6852375 C 0.57906209,0.68777262 0.57440577,0.68505917 0.57440577,0.67889915 C 0.57440577,0.67273913 0.57440577,0.66857652 0.57440577,0.66531702 C 0.57711824,0.66287238 0.57918075,0.66048387 0.58163907,0.66078971 z M 0.43697636,0.66531702 C 0.439847,0.66361915 0.44330535,0.66839564 0.44330535,0.67165537 C 0.44656047,0.67491509 0.44330535,0.6852375 0.44330535,0.6852375 C 0.44330556,0.68849765 0.44023126,0.68795398 0.43697636,0.68795398 C 0.43697636,0.68795398 0.43516809,0.68969698 0.43335981,0.6852375 C 0.43155154,0.68077802 0.43410572,0.66701489 0.43697636,0.66531702 z M 0.56446024,0.67165537 C 0.56491231,0.67706559 0.56807678,0.68469425 0.56807678,0.68795398 C 0.56156675,0.6912137 0.55813124,0.69519775 0.55813124,0.69519775 C 0.55162142,0.69519775 0.55180223,0.69483537 0.55180223,0.69157586 C 0.54908615,0.68337621 0.55180223,0.66836437 0.55180223,0.66622243 C 0.55475599,0.66533183 0.56298348,0.66231573 0.56446024,0.67165537 z M 0.61690041,0.66893891 C 0.62015531,0.66893891 0.62322983,0.66893932 0.6232294,0.66893891 C 0.6232294,0.67545835 0.62684595,0.67509596 0.62684595,0.68161561 C 0.62359103,0.68161561 0.61690041,0.68795398 0.61690041,0.68795398 L 0.61690041,0.66893891 z M 0.45957989,0.67165537 C 0.46283502,0.67165537 0.46319644,0.67889915 0.46319644,0.67889915 C 0.46645135,0.68541859 0.46645135,0.69193845 0.46319644,0.69519775 C 0.45994154,0.69519775 0.45650581,0.69519775 0.4532509,0.69519775 C 0.45348138,0.68780159 0.4510781,0.67487641 0.45957989,0.67165537 z M 0.53414563,0.67380525 C 0.53851184,0.67706497 0.53824016,0.67889915 0.53824016,0.67889915 C 0.54149548,0.68867831 0.54149506,0.6946545 0.53824016,0.69791422 C 0.53824057,0.69791422 0.5387824,0.70153611 0.53552769,0.70153611 C 0.53227278,0.70153611 0.52883706,0.70171719 0.52558215,0.69519775 C 0.52558215,0.69193845 0.52433896,0.68510167 0.52558215,0.67889915 C 0.52682534,0.67269663 0.52977941,0.67054553 0.53414563,0.67380525 z M 0.47766281,0.67527727 C 0.47929017,0.67486981 0.48146017,0.67527727 0.48308752,0.67527727 C 0.48634222,0.67853698 0.48941652,0.67871807 0.48941652,0.6852375 C 0.49231001,0.68849765 0.49212898,0.6946545 0.49212898,0.69791422 C 0.49212898,0.70117395 0.48697534,0.70187567 0.48308752,0.70153611 C 0.47736615,0.70040309 0.47247911,0.69554864 0.47314198,0.68976503 C 0.47320121,0.68370308 0.47152591,0.67857663 0.47766281,0.67527727 z M 0.50297861,0.67889915 C 0.50750527,0.67672007 0.51330963,0.67967284 0.51563661,0.6852375 C 0.51563661,0.68849765 0.51563661,0.69827639 0.51563661,0.70153611 C 0.5123817,0.70479583 0.50207452,0.70479583 0.50207452,0.70153611 C 0.497266,0.69400949 0.49845195,0.68107823 0.50297861,0.67889915 z M 0.41421925,0.68496877 C 0.41555441,0.6898448 0.41437281,0.69193845 0.41437281,0.69519775 C 0.4143726,0.69845747 0.41075627,0.69791422 0.41075627,0.69791422 C 0.40676938,0.69472361 0.4062356,0.68750127 0.40713973,0.68433209 C 0.40804387,0.68116291 0.4124944,0.68151396 0.41421925,0.68496877 z M 0.60695486,0.6852375 C 0.60966728,0.68646216 0.61020956,0.69501667 0.60695486,0.70153611 C 0.60695486,0.70479583 0.6042424,0.70153611 0.6042424,0.70153611 C 0.6009875,0.69501667 0.6002868,0.69162117 0.60062586,0.68795398 C 0.60096492,0.68428679 0.60424244,0.68401284 0.60695486,0.6852375 z M 0.42703082,0.69248128 C 0.42834917,0.69324595 0.43064735,0.69566861 0.43064735,0.70153611 C 0.43064735,0.71131527 0.43064735,0.7109531 0.43064735,0.71421282 C 0.42380992,0.71516629 0.42215239,0.71035403 0.4207018,0.70425258 C 0.4207018,0.70099285 0.41964696,0.69728035 0.4207018,0.69519775 C 0.42175664,0.69311515 0.42571247,0.69171661 0.42703082,0.69248128 z M 0.59429686,0.69519775 C 0.59508799,0.70015524 0.59393523,0.70497692 0.59068033,0.71149636 C 0.59068033,0.71475608 0.59068033,0.71783471 0.58706378,0.71783471 C 0.58417051,0.71783471 0.58435132,0.71747254 0.58435132,0.71421282 C 0.58109641,0.70443367 0.58310813,0.70192097 0.58435132,0.69791422 C 0.58559451,0.69390747 0.59350573,0.69024026 0.59429686,0.69519775 z M 0.4469219,0.70153611 C 0.45096794,0.70368661 0.4532509,0.71131527 0.4532509,0.71783471 C 0.4532509,0.71783471 0.45053844,0.72055119 0.45053844,0.72417307 C 0.44728354,0.72417307 0.44656026,0.72417307 0.44330535,0.72055119 C 0.44005065,0.71729146 0.44093195,0.71437125 0.44059289,0.71149636 C 0.44158216,0.70299732 0.44539198,0.700461 0.4469219,0.70153611 z M 0.57078924,0.70425258 C 0.57078965,0.71403174 0.57078924,0.72127594 0.57078924,0.72779496 C 0.56753474,0.73141686 0.5608437,0.72707041 0.5608437,0.72417307 C 0.55758878,0.72055119 0.55697453,0.71552389 0.55884739,0.71149636 C 0.56205682,0.70503888 0.565741,0.70425258 0.57078924,0.70425258 z M 0.46319644,0.70606363 C 0.4673991,0.70716695 0.47202284,0.70913638 0.47585444,0.71149636 C 0.47585444,0.7180158 0.47314198,0.72489782 0.47314198,0.72779496 C 0.47314198,0.72779496 0.46952543,0.73141686 0.46952543,0.73141686 C 0.46627074,0.73141686 0.46319644,0.72707041 0.46319644,0.72417307 C 0.46319615,0.71813659 0.46319644,0.71210011 0.46319644,0.70606363 z M 0.54818569,0.71421282 C 0.54818569,0.71747254 0.54456915,0.72489782 0.54456915,0.73141686 C 0.54456915,0.7343144 0.54185669,0.73413331 0.54185669,0.73413331 C 0.53860179,0.73413373 0.53620578,0.73603481 0.53552769,0.73141686 C 0.5348496,0.72679891 0.53311313,0.71220932 0.53643198,0.70877988 C 0.53975084,0.70535044 0.54555454,0.70979136 0.54818569,0.71421282 z M 0.51473253,0.71149636 C 0.51595324,0.71108912 0.51762581,0.71149636 0.51925314,0.71149636 C 0.52250805,0.71149636 0.52558215,0.714575 0.52558215,0.71783471 C 0.52558215,0.72471633 0.52250805,0.73123576 0.51925314,0.73413331 C 0.51925314,0.73413373 0.51527498,0.73413331 0.51202007,0.73413331 C 0.50952821,0.72662869 0.51059436,0.72451489 0.51202007,0.71421282 C 0.51202007,0.71258307 0.5135118,0.71190379 0.51473253,0.71149636 z M 0.49303306,0.71240198 C 0.49823264,0.71559566 0.49840933,0.72511484 0.49574552,0.73141686 C 0.49249061,0.7343144 0.48941652,0.7377552 0.48579998,0.73413331 C 0.48549631,0.72862791 0.48262114,0.70843099 0.49303306,0.71240198 z M 0.37459065,0.74047168 C 0.37459085,0.7437314 0.37856881,0.7471722 0.38182373,0.75043192 C 0.38182373,0.75695115 0.38453619,0.7634708 0.38453619,0.76673052 L 0.27965584,0.80657151 C 0.26663643,0.81309137 0.25415903,0.81906714 0.2443943,0.82558657 C 0.23788449,0.8288463 0.23101261,0.83264968 0.22450321,0.83916893 C 0.22450321,0.83916893 0.22106749,0.83880654 0.21455767,0.83554682 C 0.21455789,0.82250835 0.21112195,0.80946906 0.20461213,0.80294962 C 0.20135722,0.79280829 0.20533541,0.78936748 0.21184522,0.78936748 C 0.22811934,0.79588692 0.23788449,0.78991073 0.2443943,0.78665102 L 0.37459065,0.74047168 z M 0.64312049,0.75043192 L 0.74800104,0.79298936 C 0.76753049,0.7995086 0.78073094,0.80349308 0.80677021,0.79661126 C 0.81327961,0.79661126 0.81599206,0.79969031 0.80948267,0.80657151 C 0.80297285,0.81309116 0.79989897,0.8194293 0.80315366,0.82920847 C 0.79700548,0.83898742 0.78977198,0.84188518 0.78326258,0.84188518 C 0.77675276,0.83862546 0.7707854,0.83246819 0.76427557,0.82920847 C 0.74800104,0.8194293 0.73172649,0.8125477 0.7118354,0.80928797 C 0.68905126,0.79914664 0.66934058,0.79280829 0.64944949,0.78302913 L 0.62955841,0.77306888 C 0.63281331,0.76328972 0.63950436,0.75695115 0.64312049,0.75043192 z " />
</svg>