<?xml version="1.0" encoding="UTF-8" standalone="no"?>
<!-- Created with Inkscape (http://www.inkscape.org/) -->
<svg
   xmlns:svg="http://www.w3.org/2000/svg"
   xmlns="http://www.w3.org/2000/svg"
   version="1.0"
   width="500"
   height="500"
   viewBox="0 0 1 1"
   id="svg23264">
  <defs
     id="defs23331" />
  <title
     id="title23266">SVG drawing</title>
  <desc
     id="desc23268">This was produced by version 4.1 of GNU libplot, a free library for exporting 2-D vector graphics.</desc>
  <polygon
     points="182.85,519.35 210.04,519.35 210.04,546.5 182.85,546.5 182.85,519.35 "
     transform="matrix(3.616491e-2,0,0,-3.621801e-2,-6.604416,19.80148)"
     style="font-style:normal;font-variant:normal;font-weight:normal;font-stretch:normal;letter-spacing:normal;word-spacing:normal;text-anchor:start;fill:#ff7d00;fill-opacity:1;fill-rule:evenodd;stroke:#000000;stroke-width:0.46051392;stroke-linecap:butt;stroke-linejoin:miter;stroke-miterlimit:10.43299961;stroke-dasharray:none;stroke-dashoffset:0;stroke-opacity:1"
     id="polygon23274" />
  <g
     transform="matrix(20.83112,0,0,20.86171,-5.972624,-4.94264)"
     style="stroke:none;stroke-opacity:1"
     id="g23363">
    <path
       d="M 0.31041448,0.25294001 L 0.31037976,0.25297473 L 0.31034504,0.25300945 L 0.31031031,0.25304418 L 0.31027559,0.2530789 L 0.31022351,0.25314834 L 0.31015406,0.25321779 L 0.31010198,0.25326987 L 0.31006726,0.25333931 L 0.31003254,0.2533914 L 0.30998045,0.25346084 L 0.30996309,0.25351292 L 0.30992837,0.253565 L 0.30989365,0.25363445 L 0.30987629,0.25368653 L 0.30985893,0.25373862 L 0.30984157,0.2537907 L 0.30984157,0.25384278 L 0.30982421,0.25389486 L 0.30982421,0.25394695 L 0.30982421,0.25399903 L 0.30982421,0.25406847 L 0.30982421,0.25412056 L 0.30982421,0.25417264 L 0.30982421,0.25422472 L 0.30984157,0.25432889 L 0.30984157,0.25445042 L 0.30985893,0.25457194 L 0.30987629,0.25462403 L 0.30987629,0.25469347 L 0.30989365,0.25476291 L 0.30989365,0.25483236 C 0.31039712,0.25445042 0.31051865,0.25368653 0.31041448,0.25294001 z "
       style="font-style:normal;font-variant:normal;font-weight:normal;font-stretch:normal;letter-spacing:normal;word-spacing:normal;text-anchor:start;fill:#000000;fill-opacity:1;fill-rule:evenodd;stroke:none;stroke-width:0;stroke-linecap:butt;stroke-linejoin:miter;stroke-miterlimit:10.43299961;stroke-dasharray:none;stroke-dashoffset:0;stroke-opacity:1"
       id="path23324" />
    <path
       d="M 0.30822699,0.27545723 C 0.30333204,0.27680542 0.30054451,0.27255185 0.30013677,0.26818297 C 0.29984163,0.26564826 0.30098746,0.2646066 0.30010205,0.2621587 C 0.30084857,0.26252328 0.30149093,0.26321772 0.30182078,0.263808 C 0.30232425,0.26116912 0.30263675,0.25835664 0.3023937,0.25585666 C 0.3035048,0.25613443 0.30426869,0.25807886 0.30473743,0.258999 C 0.30598742,0.25524902 0.30631728,0.25186363 0.30543187,0.24984975 C 0.30656034,0.24997128 0.30722006,0.25129071 0.30798394,0.25278376 C 0.30873046,0.25179418 0.30860894,0.24974559 0.30860894,0.24762754 C 0.30873046,0.2466206 0.30890407,0.24549214 0.30952907,0.24495395 C 0.3101367,0.2496935 0.31246308,0.2492942 0.31376515,0.25457194 C 0.3142339,0.25353028 0.31432071,0.25240182 0.31419918,0.25097822 C 0.31572695,0.25186363 0.31706374,0.25517958 0.31777554,0.25991913 C 0.31845262,0.25957191 0.31876512,0.25823511 0.31902554,0.25672471 C 0.32050122,0.25882539 0.32102205,0.2614469 0.32027553,0.26457188 C 0.31989359,0.26545729 0.31965053,0.26636006 0.31977206,0.267367 C 0.32039705,0.26698506 0.32060539,0.26606493 0.32096997,0.26530104 C 0.32123038,0.26642951 0.3214908,0.2677663 0.32126511,0.26873852 C 0.32051858,0.27436348 0.31433807,0.27689819 0.31064017,0.27519681 C 0.31326168,0.27353015 0.31597,0.2728878 0.31664708,0.26757533 C 0.31626514,0.26793991 0.31558806,0.26826977 0.31520612,0.2683913 C 0.31577903,0.26658575 0.31595264,0.26497118 0.31527556,0.26406841 C 0.31456376,0.2659434 0.31357418,0.2670545 0.3128103,0.26726283 C 0.31371307,0.26576979 0.31388668,0.26339133 0.31126517,0.25951983 C 0.31176864,0.26413785 0.31126517,0.26627326 0.31006726,0.26787047 C 0.30932074,0.26698506 0.30852213,0.26570034 0.30814019,0.26394688 C 0.30739367,0.26582187 0.30732422,0.2680788 0.30824436,0.27082184 C 0.30730686,0.27056142 0.30656034,0.26965865 0.30557076,0.26401633 C 0.30432056,0.26659182 0.30601851,0.26916918 0.30317494,0.26785311 C 0.30392147,0.27234961 0.30583118,0.2747107 0.30822699,0.27545723 z "
       style="font-style:normal;font-variant:normal;font-weight:normal;font-stretch:normal;letter-spacing:normal;word-spacing:normal;text-anchor:start;fill:#000000;fill-opacity:1;fill-rule:evenodd;stroke:none;stroke-width:0;stroke-linecap:butt;stroke-linejoin:miter;stroke-miterlimit:10.43299961;stroke-dasharray:none;stroke-dashoffset:0;stroke-opacity:1"
       id="path23326" />
    <polygon
       points="192.49,524.55 200.61,524.55 200.61,524.91 192.49,524.91 192.49,524.55 "
       transform="matrix(1.7361e-3,0,0,-1.7361e-3,-3.125e-2,1.1875)"
       style="font-style:normal;font-variant:normal;font-weight:normal;font-stretch:normal;letter-spacing:normal;word-spacing:normal;text-anchor:start;fill:#000000;fill-opacity:1;fill-rule:evenodd;stroke:none;stroke-width:0;stroke-linecap:butt;stroke-linejoin:miter;stroke-miterlimit:10.43299961;stroke-dasharray:none;stroke-dashoffset:0;stroke-opacity:1"
       id="polygon23328" />
  </g>
</svg>
