<?xml version="1.0" encoding="UTF-8" standalone="no"?>
<!-- Created with Inkscape (http://www.inkscape.org/) -->

<svg
   xmlns:dc="http://purl.org/dc/elements/1.1/"
   xmlns:cc="http://creativecommons.org/ns#"
   xmlns:rdf="http://www.w3.org/1999/02/22-rdf-syntax-ns#"
   xmlns:svg="http://www.w3.org/2000/svg"
   xmlns="http://www.w3.org/2000/svg"
   xmlns:sodipodi="http://sodipodi.sourceforge.net/DTD/sodipodi-0.dtd"
   xmlns:inkscape="http://www.inkscape.org/namespaces/inkscape"
   width="300mm"
   height="500mm"
   viewBox="0 0 300 500"
   version="1.1"
   id="svg8"
   inkscape:version="0.92.3 (2405546, 2018-03-11)"
   sodipodi:docname="gravitywarning.svg"
   inkscape:export-filename="/home/housemeista/Dropbox/Fla/Stencilkram Inkscape/Vorlagen/schildcyber.png"
   inkscape:export-xdpi="96"
   inkscape:export-ydpi="96">
  <defs
     id="defs2" />
  <sodipodi:namedview
     id="base"
     pagecolor="#ffffff"
     bordercolor="#666666"
     borderopacity="1.0"
     inkscape:pageopacity="0"
     inkscape:pageshadow="2"
     inkscape:zoom="0.63460477"
     inkscape:cx="-258.82591"
     inkscape:cy="637.02274"
     inkscape:document-units="mm"
     inkscape:current-layer="layer1"
     showgrid="true"
     inkscape:pagecheckerboard="true"
     inkscape:window-width="1920"
     inkscape:window-height="1031"
     inkscape:window-x="0"
     inkscape:window-y="25"
     inkscape:window-maximized="1"
     showguides="true">
    <inkscape:grid
       type="xygrid"
       id="grid3713" />
  </sodipodi:namedview>
  <metadata
     id="metadata5">
    <rdf:RDF>
      <cc:Work
         rdf:about="">
        <dc:format>image/svg+xml</dc:format>
        <dc:type
           rdf:resource="http://purl.org/dc/dcmitype/StillImage" />
        <dc:title />
      </cc:Work>
    </rdf:RDF>
  </metadata>
  <g
     inkscape:label="Ebene 1"
     inkscape:groupmode="layer"
     id="layer1"
     transform="translate(0,203)">
    <text
       xml:space="preserve"
       style="font-style:normal;font-variant:normal;font-weight:normal;font-stretch:normal;font-size:42.33333206px;line-height:1.25;font-family:'Highway Gothic';-inkscape-font-specification:'Highway Gothic';letter-spacing:0px;word-spacing:0px;fill:#000000;fill-opacity:1;stroke:none;stroke-width:0.26458332"
       x="58.208332"
       y="0.66666794"
       id="text3130"><tspan
         sodipodi:role="line"
         id="tspan3128"
         x="58.208332"
         y="27.125324"
         style="stroke-width:0.26458332" /></text>
    <g
       aria-label="WARNING GRAVITY"
       style="font-style:normal;font-variant:normal;font-weight:normal;font-stretch:normal;font-size:42.33333206px;line-height:1.25;font-family:'Highway Gothic';-inkscape-font-specification:'Highway Gothic';letter-spacing:0px;word-spacing:0px;fill:#ff0000;fill-opacity:1;stroke:none;stroke-width:0.26458332"
       id="text3699"
       transform="translate(330.54804,130.19915)">
      <path
         d="m -259.42307,-275.79421 -6.2865,42.545 h -5.969 l -6.731,-27.305 -6.5405,27.305 h -5.969 l -6.2865,-42.545 h 6.858 l 3.302,22.4155 5.3975,-22.4155 h 6.5405 l 5.5245,22.4155 3.302,-22.4155 z"
         style="font-style:normal;font-variant:normal;font-weight:normal;font-stretch:normal;font-size:63.5px;line-height:1;font-family:'Highway Gothic';-inkscape-font-specification:'Highway Gothic';text-align:center;text-anchor:middle;fill:#ff0000;stroke-width:0.26458332"
         id="path3935"
         inkscape:connector-curvature="0" />
      <path
         d="m -220.95695,-233.24921 h -7.112 l -4.191,-11.938 h -13.2715 l -4.191,11.938 h -7.1755 l 14.605,-42.545 h 6.731 z m -13.716,-18.796 -4.191,-11.938 -4.318,11.938 z"
         style="font-style:normal;font-variant:normal;font-weight:normal;font-stretch:normal;font-size:63.5px;line-height:1;font-family:'Highway Gothic';-inkscape-font-specification:'Highway Gothic';text-align:center;text-anchor:middle;fill:#ff0000;stroke-width:0.26458332"
         id="path3937"
         inkscape:connector-curvature="0" />
      <path
         d="m -187.58969,-233.24921 h -7.3025 l -6.858,-18.4785 h -8.0645 v 18.4785 h -6.731 v -42.545 h 16.8275 q 5.207,0.0635 8.1915,3.81 3.048,3.683 3.048,8.128 0,3.3655 -1.8415,6.4135 -1.8415,2.9845 -4.7625,4.318 z m -7.5565,-30.4165 q 0,-2.4765 -1.524,-3.81 -1.4605,-1.3335 -3.302,-1.397 h -9.8425 v 10.4775 h 10.0965 q 1.905,0 3.2385,-1.397 1.3335,-1.397 1.3335,-3.8735 z"
         style="font-style:normal;font-variant:normal;font-weight:normal;font-stretch:normal;font-size:63.5px;line-height:1;font-family:'Highway Gothic';-inkscape-font-specification:'Highway Gothic';text-align:center;text-anchor:middle;fill:#ff0000;stroke-width:0.26458332"
         id="path3939"
         inkscape:connector-curvature="0" />
      <path
         d="m -152.36703,-233.24921 h -5.969 l -16.256,-28.829 v 28.829 h -6.731 v -42.545 h 6.731 l 15.494,27.178 v -27.178 h 6.731 z"
         style="font-style:normal;font-variant:normal;font-weight:normal;font-stretch:normal;font-size:63.5px;line-height:1;font-family:'Highway Gothic';-inkscape-font-specification:'Highway Gothic';text-align:center;text-anchor:middle;fill:#ff0000;stroke-width:0.26458332"
         id="path3941"
         inkscape:connector-curvature="0" />
      <path
         d="m -137.14688,-233.24921 h -6.858 v -42.545 h 6.858 z"
         style="font-style:normal;font-variant:normal;font-weight:normal;font-stretch:normal;font-size:63.5px;line-height:1;font-family:'Highway Gothic';-inkscape-font-specification:'Highway Gothic';text-align:center;text-anchor:middle;fill:#ff0000;stroke-width:0.26458332"
         id="path3943"
         inkscape:connector-curvature="0" />
      <path
         d="m -99.657071,-233.24921 h -5.968999 l -16.256,-28.829 v 28.829 h -6.731 v -42.545 h 6.731 l 15.494,27.178 v -27.178 h 6.730999 z"
         style="font-style:normal;font-variant:normal;font-weight:normal;font-stretch:normal;font-size:63.5px;line-height:1;font-family:'Highway Gothic';-inkscape-font-specification:'Highway Gothic';text-align:center;text-anchor:middle;fill:#ff0000;stroke-width:0.26458332"
         id="path3945"
         inkscape:connector-curvature="0" />
      <path
         d="m -78.086914,-239.28171 q 5.715,-0.127 6.7945,-7.874 h -6.5405 v -7.112 h 14.224 v 1.8415 q -0.0635,9.8425 -3.937,14.9225 -3.81,5.0165 -10.3505,5.0165 -7.6835,-0.0635 -11.7475,-5.842 -4.0005,-5.7785 -4.0005,-16.1925 0,-10.414 4.0005,-16.1925 4.064,-5.7785 11.557,-5.7785 9.2075,0.1905 13.081,8.0645 l -6.2865,3.1115 q -2.0955,-4.3815 -6.7945,-4.445 -4.445,0 -6.477,4.2545 -2.032,4.191 -2.032,10.9855 0,6.7945 2.032,11.049 2.032,4.191 6.477,4.191 z"
         style="font-style:normal;font-variant:normal;font-weight:normal;font-stretch:normal;font-size:63.5px;line-height:1;font-family:'Highway Gothic';-inkscape-font-specification:'Highway Gothic';text-align:center;text-anchor:middle;fill:#ff0000;stroke-width:0.26458332"
         id="path3947"
         inkscape:connector-curvature="0" />
      <path
         d="m -278.44678,-175.78171 q 5.715,-0.127 6.7945,-7.874 h -6.5405 v -7.112 h 14.224 v 1.8415 q -0.0635,9.8425 -3.937,14.9225 -3.81,5.0165 -10.3505,5.0165 -7.6835,-0.0635 -11.7475,-5.842 -4.0005,-5.7785 -4.0005,-16.1925 0,-10.414 4.0005,-16.1925 4.064,-5.7785 11.557,-5.7785 9.2075,0.1905 13.081,8.0645 l -6.2865,3.1115 q -2.0955,-4.3815 -6.7945,-4.445 -4.445,0 -6.477,4.2545 -2.032,4.191 -2.032,10.9855 0,6.7945 2.032,11.049 2.032,4.191 6.477,4.191 z"
         style="font-style:normal;font-variant:normal;font-weight:normal;font-stretch:normal;font-size:63.5px;line-height:1;font-family:'Highway Gothic';-inkscape-font-specification:'Highway Gothic';text-align:center;text-anchor:middle;fill:#ff0000;stroke-width:0.26458332"
         id="path3949"
         inkscape:connector-curvature="0" />
      <path
         d="m -228.9515,-169.74921 h -7.3025 l -6.858,-18.4785 h -8.0645 v 18.4785 h -6.731 v -42.545 h 16.8275 q 5.207,0.0635 8.1915,3.81 3.048,3.683 3.048,8.128 0,3.3655 -1.8415,6.4135 -1.8415,2.9845 -4.7625,4.318 z m -7.5565,-30.4165 q 0,-2.4765 -1.524,-3.81 -1.4605,-1.3335 -3.302,-1.397 h -9.8425 v 10.4775 h 10.0965 q 1.905,0 3.2385,-1.397 1.3335,-1.397 1.3335,-3.8735 z"
         style="font-style:normal;font-variant:normal;font-weight:normal;font-stretch:normal;font-size:63.5px;line-height:1;font-family:'Highway Gothic';-inkscape-font-specification:'Highway Gothic';text-align:center;text-anchor:middle;fill:#ff0000;stroke-width:0.26458332"
         id="path3951"
         inkscape:connector-curvature="0" />
      <path
         d="m -188.64885,-169.74921 h -7.112 l -4.191,-11.938 h -13.2715 l -4.191,11.938 h -7.1755 l 14.605,-42.545 h 6.731 z m -13.716,-18.796 -4.191,-11.938 -4.318,11.938 z"
         style="font-style:normal;font-variant:normal;font-weight:normal;font-stretch:normal;font-size:63.5px;line-height:1;font-family:'Highway Gothic';-inkscape-font-specification:'Highway Gothic';text-align:center;text-anchor:middle;fill:#ff0000;stroke-width:0.26458332"
         id="path3953"
         inkscape:connector-curvature="0" />
      <path
         d="m -153.69408,-212.29421 -13.1445,42.545 h -6.1595 l -12.954,-42.545 h 7.0485 l 9.0805,28.3845 8.9535,-28.3845 z"
         style="font-style:normal;font-variant:normal;font-weight:normal;font-stretch:normal;font-size:63.5px;line-height:1;font-family:'Highway Gothic';-inkscape-font-specification:'Highway Gothic';text-align:center;text-anchor:middle;fill:#ff0000;stroke-width:0.26458332"
         id="path3955"
         inkscape:connector-curvature="0" />
      <path
         d="m -140.06143,-169.74921 h -6.858 v -42.545 h 6.858 z"
         style="font-style:normal;font-variant:normal;font-weight:normal;font-stretch:normal;font-size:63.5px;line-height:1;font-family:'Highway Gothic';-inkscape-font-specification:'Highway Gothic';text-align:center;text-anchor:middle;fill:#ff0000;stroke-width:0.26458332"
         id="path3957"
         inkscape:connector-curvature="0" />
      <path
         d="m -105.23862,-206.32521 h -9.8425 v 36.576 h -6.731 v -36.576 h -9.7155 v -5.969 h 26.289 z"
         style="font-style:normal;font-variant:normal;font-weight:normal;font-stretch:normal;font-size:63.5px;line-height:1;font-family:'Highway Gothic';-inkscape-font-specification:'Highway Gothic';text-align:center;text-anchor:middle;fill:#ff0000;stroke-width:0.26458332"
         id="path3959"
         inkscape:connector-curvature="0" />
      <path
         d="m -63.923934,-212.29421 -14.732,24.0665 v 18.4785 h -6.731 v -18.4785 l -14.922496,-24.0665 h 8.064496 l 10.16,16.4465 10.287,-16.4465 z"
         style="font-style:normal;font-variant:normal;font-weight:normal;font-stretch:normal;font-size:63.5px;line-height:1;font-family:'Highway Gothic';-inkscape-font-specification:'Highway Gothic';text-align:center;text-anchor:middle;fill:#ff0000;stroke-width:0.26458332"
         id="path3961"
         inkscape:connector-curvature="0" />
    </g>
    <text
       xml:space="preserve"
       style="font-style:normal;font-variant:normal;font-weight:normal;font-stretch:normal;font-size:42.33333206px;line-height:1.25;font-family:'Highway Gothic';-inkscape-font-specification:'Highway Gothic';letter-spacing:0px;word-spacing:0px;fill:#000000;fill-opacity:1;stroke:none;stroke-width:0.26458332"
       x="31.75"
       y="53.583332"
       id="text3703"><tspan
         sodipodi:role="line"
         id="tspan3701"
         x="31.75"
         y="80.041985"
         style="stroke-width:0.26458332" /></text>
    <g
       aria-label="Climbing this installation  requires  common sense"
       style="font-style:normal;font-variant:normal;font-weight:normal;font-stretch:normal;font-size:42.33333206px;line-height:1.25;font-family:'Highway Gothic';-inkscape-font-specification:'Highway Gothic';letter-spacing:0px;word-spacing:0px;fill:#ff0000;fill-opacity:1;stroke:none;stroke-width:0.26458332"
       id="text3713"
       transform="translate(321.05147,-53.043522)">
      <path
         id="path3923"
         style="line-height:0;text-align:center;letter-spacing:0px;text-anchor:middle;fill:#ff0000;stroke-width:0.26458332"
         d="m -46.854502,239.21486 h -12.191999 q 0,1.98966 1.058333,3.30199 1.058333,1.27 2.751666,1.22767 2.370667,0.0847 3.640667,-2.07433 l 4.021667,1.651 q -2.116667,4.74133 -7.577667,4.86833 -3.852333,0 -6.223,-2.83633 -2.328333,-2.83634 -2.328333,-8.128 0,-4.36033 2.243667,-7.53533 2.286,-3.21734 6.307666,-3.21734 3.767667,0 6.011333,2.96334 2.286,2.96333 2.286,9.779 z m -4.529666,-4.14867 q 0.04233,-1.778 -1.016,-3.09033 -1.016,-1.31234 -2.751667,-1.31234 -1.862667,-0.0423 -2.963333,1.397 -1.100667,1.397 -1.016,3.00567 z m -15.273068,7.02733 q -0.04233,2.70933 -2.116667,4.40267 -2.074333,1.651 -5.715,1.69333 -4.148666,-0.0423 -7.619999,-3.175 l 2.963333,-2.96333 q 2.582333,2.032 4.656666,2.07433 1.481667,0.0423 2.497667,-0.59267 1.058333,-0.67733 1.016,-1.651 0.04233,-0.97366 -0.931333,-1.82033 -0.973667,-0.84666 -3.132667,-1.69333 -3.132667,-1.05833 -4.572,-2.62467 -1.439333,-1.56633 -1.439333,-3.64066 -0.127,-2.07434 1.693333,-3.85234 1.862667,-1.82033 4.868333,-1.82033 4.572,0.0847 7.577667,3.25967 l -2.836334,2.83633 q -2.074333,-1.905 -4.656666,-1.98967 -1.058333,0 -1.693333,0.46567 -0.592667,0.42333 -0.635,1.18533 -0.04233,0.67734 0.465666,1.10067 0.550334,0.42333 2.667,1.22767 3.005667,0.93133 4.953,2.70933 1.989667,1.778 1.989667,4.86833 z m -35.035464,-15.367 h 4.402667 v 1.31234 q 1.862667,-1.56634 4.953,-1.56634 3.598333,0 5.376333,2.45534 1.778,2.45533 1.778,5.715 v 13.03866 h -4.360333 v -12.954 q 0.08467,-1.60866 -1.058333,-2.87866 -1.143,-1.31234 -2.878667,-1.22767 -1.820333,0 -2.794,1.05833 -0.931333,1.05834 -0.931333,3.048 v 12.954 h -4.487334 z m -3.37013,12.48834 h -12.192 q 0,1.98966 1.05833,3.30199 1.05834,1.27 2.75167,1.22767 2.37067,0.0847 3.64067,-2.07433 l 4.02166,1.651 q -2.11666,4.74133 -7.57766,4.86833 -3.85234,0 -6.223,-2.83633 -2.32834,-2.83634 -2.32834,-8.128 0,-4.36033 2.24367,-7.53533 2.286,-3.21734 6.30767,-3.21734 3.76766,0 6.01133,2.96334 2.286,2.96333 2.286,9.779 z m -4.52967,-4.14867 q 0.0423,-1.778 -1.016,-3.09033 -1.016,-1.31234 -2.75166,-1.31234 -1.86267,-0.0423 -2.96334,1.397 -1.10066,1.397 -1.016,3.00567 z m -15.27306,7.02733 q -0.0423,2.70933 -2.11667,4.40267 -2.07433,1.651 -5.715,1.69333 -4.14867,-0.0423 -7.62,-3.175 l 2.96333,-2.96333 q 2.58234,2.032 4.65667,2.07433 1.48167,0.0423 2.49767,-0.59267 1.05833,-0.67733 1.016,-1.651 0.0423,-0.97366 -0.93134,-1.82033 -0.97366,-0.84666 -3.13266,-1.69333 -3.13267,-1.05833 -4.572,-2.62467 -1.43934,-1.56633 -1.43934,-3.64066 -0.127,-2.07434 1.69334,-3.85234 1.86266,-1.82033 4.86833,-1.82033 4.572,0.0847 7.57767,3.25967 l -2.83634,2.83633 q -2.07433,-1.905 -4.65666,-1.98967 -1.05834,0 -1.69334,0.46567 -0.59266,0.42333 -0.635,1.18533 -0.0423,0.67734 0.46567,1.10067 0.55033,0.42333 2.667,1.22767 3.00567,0.93133 4.953,2.70933 1.98967,1.778 1.98967,4.86833 z m -45.86685,-15.367 h 4.40267 v 1.31234 q 1.86266,-1.56634 4.953,-1.56634 3.59833,0 5.37633,2.45534 1.778,2.45533 1.778,5.715 v 13.03866 h -4.36033 v -12.954 q 0.0847,-1.60866 -1.05834,-2.87866 -1.143,-1.31234 -2.87866,-1.22767 -1.82034,0 -2.794,1.05833 -0.93134,1.05834 -0.93134,3.048 v 12.954 h -4.48733 z m -3.15846,10.58334 q -0.0423,4.27566 -1.69334,6.98499 -2.20133,3.683 -6.94266,3.89467 -4.74134,-0.21167 -6.94267,-3.89467 -1.651,-2.70933 -1.69333,-6.98499 0.0423,-4.445 1.69333,-7.15434 2.24367,-3.556 6.94267,-3.683 4.699,0.127 6.94266,3.683 1.651,2.70934 1.69334,7.15434 z m -8.67834,6.39233 q 2.45534,0 3.59834,-2.413 0.762,-1.69334 0.762,-3.937 0,-2.37067 -0.762,-4.064 -1.10067,-2.413 -3.59834,-2.413 -2.413,0 -3.51366,2.413 -0.762,1.69333 -0.762,4.064 0,2.24366 0.762,3.937 1.27,2.413 3.51366,2.413 z m -12.4202,3.97933 h -4.445 v -13.41966 q 0.0423,-1.22767 -1.05833,-2.413 -1.05834,-1.22767 -2.62467,-1.18534 -1.524,0 -2.49767,1.10067 -0.93133,1.10067 -0.889,2.49767 v 13.41966 h -4.78366 v -13.41966 q 0.0423,-1.31234 -1.016,-2.45534 -1.05833,-1.18533 -2.62467,-1.143 -1.397,0.0423 -2.413,1.143 -0.97366,1.05834 -1.016,2.45534 v 13.41966 h -4.65666 v -21.03966 h 4.572 v 1.27 q 1.905,-1.524 4.48733,-1.524 3.51367,0 5.50333,2.921 2.032,-2.87867 5.63033,-2.87867 3.09034,0 5.41867,2.37067 2.37067,2.37066 2.413,5.54566 z m -32.82487,0 h -4.445 v -13.41966 q 0.0423,-1.22767 -1.05833,-2.413 -1.05833,-1.22767 -2.62467,-1.18534 -1.524,0 -2.49766,1.10067 -0.93134,1.10067 -0.889,2.49767 v 13.41966 h -4.78367 v -13.41966 q 0.0423,-1.31234 -1.016,-2.45534 -1.05833,-1.18533 -2.62467,-1.143 -1.397,0.0423 -2.413,1.143 -0.97366,1.05834 -1.016,2.45534 v 13.41966 h -4.65666 v -21.03966 h 4.572 v 1.27 q 1.905,-1.524 4.48733,-1.524 3.51367,0 5.50333,2.921 2.032,-2.87867 5.63034,-2.87867 3.09033,0 5.41866,2.37067 2.37067,2.37066 2.413,5.54566 z m -31.81812,-10.37166 q -0.0423,4.27566 -1.69334,6.98499 -2.20133,3.683 -6.94266,3.89467 -4.74134,-0.21167 -6.94267,-3.89467 -1.651,-2.70933 -1.69333,-6.98499 0.0423,-4.445 1.69333,-7.15434 2.24367,-3.556 6.94267,-3.683 4.699,0.127 6.94266,3.683 1.651,2.70934 1.69334,7.15434 z m -8.67834,6.39233 q 2.45534,0 3.59834,-2.413 0.762,-1.69334 0.762,-3.937 0,-2.37067 -0.762,-4.064 -1.10067,-2.413 -3.59834,-2.413 -2.413,0 -3.51366,2.413 -0.762,1.69333 -0.762,4.064 0,2.24366 0.762,3.937 1.27,2.413 3.51366,2.413 z m -28.14505,-6.477 q 0,-4.36033 1.651,-7.06967 2.20134,-3.683 6.985,-3.683 6.13833,0 7.874,5.207 l -4.191,1.69334 q -0.93133,-2.70934 -3.72533,-2.667 -2.286,0 -3.302,2.45533 -0.71967,1.73567 -0.71967,4.064 0,2.32833 0.71967,4.064 1.016,2.45533 3.302,2.45533 2.794,0.0423 3.72533,-2.667 l 4.191,1.69333 q -1.73567,5.207 -7.874,5.207 -4.78366,0 -6.985,-3.683 -1.651,-2.70933 -1.651,-7.06966 z m 193.41835,-48.04833 q -0.0423,2.70933 -2.11666,4.40266 -2.07434,1.651 -5.715,1.69334 -4.14867,-0.0423 -7.62,-3.175 l 2.96333,-2.96334 q 2.58233,2.032 4.65667,2.07434 1.48166,0.0423 2.49766,-0.59267 1.05834,-0.67733 1.016,-1.651 0.0423,-0.97367 -0.93133,-1.82033 -0.97367,-0.84667 -3.13267,-1.69334 -3.13266,-1.05833 -4.572,-2.62466 -1.43933,-1.56634 -1.43933,-3.64067 -0.127,-2.07433 1.69333,-3.85233 1.86267,-1.82034 4.86834,-1.82034 4.572,0.0847 7.57766,3.25967 l -2.83633,2.83633 q -2.07433,-1.905 -4.65667,-1.98966 -1.05833,0 -1.69333,0.46566 -0.59267,0.42334 -0.635,1.18534 -0.0423,0.67733 0.46567,1.10066 0.55033,0.42334 2.667,1.22767 3.00566,0.93133 4.953,2.70933 1.98966,1.778 1.98966,4.86834 z m -18.31379,-2.87867 h -12.192 q 0,1.98967 1.05833,3.302 1.05833,1.27 2.75167,1.22767 2.37066,0.0847 3.64066,-2.07434 l 4.02167,1.651 q -2.11667,4.74134 -7.57767,4.86834 -3.85233,0 -6.223,-2.83634 -2.32833,-2.83633 -2.32833,-8.128 0,-4.36033 2.24367,-7.53533 2.286,-3.21733 6.30766,-3.21733 3.76767,0 6.01134,2.96333 2.286,2.96333 2.286,9.779 z m -4.52967,-4.14867 q 0.0423,-1.778 -1.016,-3.09033 -1.016,-1.31233 -2.75167,-1.31233 -1.86266,-0.0423 -2.96333,1.397 -1.10067,1.397 -1.016,3.00566 z m -14.84048,-7.15433 -1.48167,4.10633 q -1.27,-1.27 -2.58233,-1.22766 -2.83633,0.0847 -3.00567,3.97933 v 12.91167 h -4.572 v -21.03967 h 4.52967 v 1.524 q 1.143,-1.69333 3.302,-1.69333 2.159,0.0423 3.81,1.43933 z m -16.89695,-6.77333 q 0,0.97366 -0.67734,1.651 -0.67733,0.635 -1.60866,0.635 -0.889,0 -1.60867,-0.67734 -0.67733,-0.71966 -0.67733,-1.60866 0,-0.889 0.67733,-1.56634 0.71967,-0.71966 1.60867,-0.71966 0.889,0 1.56633,0.71966 0.71967,0.67734 0.71967,1.56634 z m 0.0423,26.543 h -4.61433 v -20.701 h 4.61433 z m -9.29677,0 h -4.40266 v -1.05834 q -1.86267,1.56634 -4.953,1.56634 -3.59834,0 -5.37634,-2.45534 -1.778,-2.45533 -1.778,-5.715 v -13.03866 h 4.36034 v 12.954 q -0.0847,1.60866 1.05833,2.921 1.143,1.27 2.87867,1.18533 1.82033,0 2.75166,-1.05833 0.97367,-1.05834 0.97367,-3.048 v -12.954 h 4.48733 z m -29.03471,0.508 q -8.46667,0 -8.46667,-10.541 0,-11.00667 8.55134,-11.176 2.54,0.0423 3.89466,1.48166 v -1.31233 h 4.48734 v 29.04067 l -4.48734,2.24366 v -10.96433 q -1.778,1.22767 -3.97933,1.22767 z m -4.064,-10.58334 q 0.0423,6.56167 4.02167,6.604 2.37066,0.0423 3.937,-1.98966 v -9.31334 q -1.22767,-2.07433 -3.81,-2.07433 -4.14867,0.254 -4.14867,6.77333 z m -8.19613,1.60867 h -12.192 q 0,1.98967 1.05833,3.302 1.05834,1.27 2.75167,1.22767 2.37067,0.0847 3.64067,-2.07434 l 4.02166,1.651 q -2.11666,4.74134 -7.57766,4.86834 -3.85234,0 -6.223,-2.83634 -2.32834,-2.83633 -2.32834,-8.128 0,-4.36033 2.24367,-7.53533 2.286,-3.21733 6.30767,-3.21733 3.76766,0 6.01133,2.96333 2.286,2.96333 2.286,9.779 z m -4.52967,-4.14867 q 0.0423,-1.778 -1.016,-3.09033 -1.016,-1.31233 -2.75166,-1.31233 -1.86267,-0.0423 -2.96334,1.397 -1.10066,1.397 -1.016,3.00566 z m -14.84048,-7.15433 -1.48166,4.10633 q -1.27,-1.27 -2.58233,-1.22766 -2.83634,0.0847 -3.00567,3.97933 v 12.91167 h -4.572 v -21.03967 h 4.52967 v 1.524 q 1.143,-1.69333 3.302,-1.69333 2.159,0.0423 3.80999,1.43933 z m 130.392616,-54.102 h 4.402666 v 1.31234 q 1.862667,-1.56634 4.953,-1.56634 3.598333,0 5.376333,2.45534 1.778,2.45533 1.778,5.71499 v 13.03867 h -4.360333 v -12.954 q 0.08467,-1.60866 -1.058333,-2.87866 -1.143,-1.31234 -2.878667,-1.22767 -1.820333,0 -2.794,1.05833 -0.931333,1.05834 -0.931333,3.048 v 12.954 h -4.487333 z m -3.158466,10.58333 q -0.0423,4.27567 -1.69333,6.985 -2.20133,3.683 -6.94267,3.89467 -4.74133,-0.21167 -6.94266,-3.89467 -1.651,-2.70933 -1.69334,-6.985 0.0423,-4.44499 1.69334,-7.15433 2.24366,-3.556 6.94266,-3.683 4.699,0.127 6.94267,3.683 1.651,2.70934 1.69333,7.15433 z m -8.67833,6.39234 q 2.45533,0 3.59833,-2.413 0.762,-1.69334 0.762,-3.937 0,-2.37067 -0.762,-4.064 -1.10066,-2.413 -3.59833,-2.413 -2.413,0 -3.51367,2.413 -0.762,1.69333 -0.762,4.064 0,2.24366 0.762,3.937 1.27,2.413 3.51367,2.413 z m -12.91762,-22.56367 q 0,0.97367 -0.67733,1.651 -0.67733,0.635 -1.60867,0.635 -0.889,0 -1.60866,-0.67733 -0.67734,-0.71967 -0.67734,-1.60867 0,-0.889 0.67734,-1.56633 0.71966,-0.71967 1.60866,-0.71967 0.889,0 1.56634,0.71967 0.71966,0.67733 0.71966,1.56633 z m 0.0423,26.543 h -4.61434 v -20.701 h 4.61434 z m -8.49573,-4.52967 -1.22767,4.48734 q -1.05833,0.55033 -2.45533,0.55033 -1.60867,0 -2.921,-1.48167 -1.31234,-1.48166 -1.31234,-3.97933 v -11.557 h -3.00566 v -4.191 h 3.00566 v -5.969 l 4.36034,-2.159 v 8.128 h 3.59833 v 4.10634 h -3.59833 v 11.13366 q 0,1.69333 1.27,1.778 1.05833,0.0423 2.286,-0.84667 z m -13.9958,4.52967 h -4.36033 v -0.67733 q -1.651,1.18533 -3.683,1.22766 -3.38667,-0.0423 -5.63034,-1.905 -2.20133,-1.905 -2.20133,-5.50333 0,-3.09033 2.032,-5.16467 2.07433,-2.11666 5.588,-2.07433 1.94733,0 3.64067,0.46567 0.0847,-3.09033 -3.13267,-3.38667 -2.75167,-0.0847 -4.953,1.524 l -2.24367,-3.429 q 3.048,-2.159 7.06967,-2.286 3.302,0 5.54567,1.905 2.286,1.86267 2.32833,5.461 z m -4.74133,-4.78367 v -4.65666 q -1.86267,-0.508 -3.72534,-0.508 -1.48166,0 -2.45533,0.97366 -0.97367,0.97367 -0.93133,2.20134 0,1.27 0.97366,2.413 1.016,1.143 2.70934,1.143 1.82033,0 3.429,-1.56634 z m -16.13495,4.78367 h -4.572 v -26.543 l 4.572,-2.286 z m -10.33529,0 h -4.572 v -26.543 l 4.572,-2.286 z m -9.5508,0 h -4.36033 v -0.67733 q -1.651,1.18533 -3.683,1.22766 -3.38667,-0.0423 -5.63033,-1.905 -2.20134,-1.905 -2.20134,-5.50333 0,-3.09033 2.032,-5.16467 2.07434,-2.11666 5.588,-2.07433 1.94734,0 3.64067,0.46567 0.0847,-3.09033 -3.13267,-3.38667 -2.75166,-0.0847 -4.953,1.524 l -2.24366,-3.429 q 3.048,-2.159 7.06966,-2.286 3.302,0 5.54567,1.905 2.286,1.86267 2.32833,5.461 z m -4.74133,-4.78367 v -4.65666 q -1.86267,-0.508 -3.72533,-0.508 -1.48167,0 -2.45534,0.97366 -0.97366,0.97367 -0.93133,2.20134 0,1.27 0.97367,2.413 1.016,1.143 2.70933,1.143 1.82033,0 3.429,-1.56634 z m -14.25311,0.254 -1.22766,4.48734 q -1.05834,0.55033 -2.45534,0.55033 -1.60866,0 -2.921,-1.48167 -1.31233,-1.48166 -1.31233,-3.97933 v -11.557 h -3.00567 v -4.191 h 3.00567 v -5.969 l 4.36033,-2.159 v 8.128 h 3.59834 v 4.10634 h -3.59834 v 11.13366 q 0,1.69333 1.27,1.778 1.05834,0.0423 2.286,-0.84667 z m -13.19873,-1.05833 q -0.0423,2.70933 -2.11667,4.40267 -2.07433,1.651 -5.715,1.69333 -4.14867,-0.0423 -7.62,-3.175 l 2.96333,-2.96333 q 2.58234,2.032 4.65667,2.07433 1.48167,0.0423 2.49767,-0.59267 1.05833,-0.67733 1.016,-1.651 0.0423,-0.97366 -0.93134,-1.82033 -0.97366,-0.84667 -3.13266,-1.69333 -3.13267,-1.05834 -4.572,-2.62467 -1.43934,-1.56633 -1.43934,-3.64066 -0.127,-2.07434 1.69334,-3.85234 1.86266,-1.82033 4.86833,-1.82033 4.572,0.0847 7.57767,3.25967 l -2.83634,2.83633 q -2.07433,-1.905 -4.65666,-1.98967 -1.05834,0 -1.69334,0.46567 -0.59266,0.42333 -0.635,1.18533 -0.0423,0.67734 0.46567,1.10067 0.55033,0.42333 2.667,1.22766 3.00567,0.93134 4.953,2.70934 1.98967,1.778 1.98967,4.86833 z m -35.03547,-15.367 h 4.40267 v 1.31234 q 1.86267,-1.56634 4.953,-1.56634 3.59833,0 5.37633,2.45534 1.778,2.45533 1.778,5.71499 v 13.03867 h -4.36033 v -12.954 q 0.0847,-1.60866 -1.05833,-2.87866 -1.143,-1.31234 -2.87867,-1.22767 -1.82033,0 -2.794,1.05833 -0.93133,1.05834 -0.93133,3.048 v 12.954 h -4.48734 z m -4.66262,-5.588 q 0,0.97367 -0.67733,1.651 -0.67733,0.635 -1.60867,0.635 -0.889,0 -1.60866,-0.67733 -0.67734,-0.71967 -0.67734,-1.60867 0,-0.889 0.67734,-1.56633 0.71966,-0.71967 1.60866,-0.71967 0.889,0 1.56634,0.71967 0.71966,0.67733 0.71966,1.56633 z m 0.0423,26.543 h -4.61434 v -20.701 h 4.61434 z M -61.73763,83.343526 q -0.04233,2.709334 -2.116667,4.402667 -2.074333,1.651 -5.715,1.693333 -4.148666,-0.04233 -7.619999,-3.175 l 2.963333,-2.963333 q 2.582333,2.032 4.656666,2.074333 1.481667,0.04233 2.497667,-0.592666 1.058333,-0.677334 1.016,-1.651 0.04233,-0.973667 -0.931333,-1.820334 -0.973667,-0.846666 -3.132667,-1.693333 -3.132667,-1.058333 -4.572,-2.624666 -1.439333,-1.566334 -1.439333,-3.640667 -0.127,-2.074333 1.693333,-3.852333 1.862667,-1.820334 4.868333,-1.820334 4.572,0.08467 7.577667,3.259667 l -2.836333,2.836333 q -2.074334,-1.905 -4.656667,-1.989666 -1.058333,0 -1.693333,0.465666 -0.592667,0.423334 -0.635,1.185334 -0.04233,0.677333 0.465666,1.100666 0.550334,0.423334 2.667,1.227667 3.005667,0.931333 4.953,2.709333 1.989667,1.778 1.989667,4.868333 z M -81.343927,62.388527 q 0,0.973667 -0.677333,1.651 -0.677333,0.635 -1.608667,0.635 -0.888999,0 -1.608666,-0.677333 -0.677333,-0.719667 -0.677333,-1.608667 0,-0.889 0.677333,-1.566333 0.719667,-0.719667 1.608666,-0.719667 0.889,0 1.566334,0.719667 0.719666,0.677333 0.719666,1.566333 z m 0.04233,26.542999 H -85.91593 V 68.230527 h 4.614333 z m -25.806793,-26.627666 4.40267,-2.201333 v 9.186333 q 1.86266,-1.566333 4.952996,-1.566333 3.598334,0 5.376334,2.455333 1.778,2.455333 1.778,5.715 v 13.038666 h -4.360334 V 75.977527 q 0.08467,-1.608667 -1.058333,-2.878667 -1.143,-1.312333 -2.878667,-1.227667 -1.820336,0 -2.793996,1.058334 -0.93134,1.058333 -0.93134,3.048 v 12.953999 h -4.48733 z m -2.78077,22.098 -1.22767,4.487333 q -1.05833,0.550333 -2.45533,0.550333 -1.60867,0 -2.921,-1.481666 -1.31233,-1.481667 -1.31233,-3.979334 V 72.421527 h -3.00567 v -4.191 h 3.00567 v -5.969 l 4.36033,-2.159 v 8.128 h 3.59833 v 4.106333 h -3.59833 v 11.133666 q 0,1.693334 1.27,1.778 1.05833,0.04233 2.286,-0.846666 z m -33.47376,5.037666 q -8.46667,0 -8.46667,-10.541 0,-11.006666 8.55134,-11.175999 2.54,0.04233 3.89466,1.481666 V 67.89186 h 4.48733 v 20.32 q -0.29633,8.297333 -7.57766,10.964333 l -1.86267,-3.725334 q 5.08,-2.032 4.953,-7.238999 -1.778,1.227666 -3.97933,1.227666 z m -4.064,-10.583333 q 0.0423,6.561667 4.02167,6.604 2.37066,0.04233 3.937,-1.989667 v -9.313333 q -1.22767,-2.074333 -3.81,-2.074333 -4.14867,0.254 -4.14867,6.773333 z m -24.91779,-10.879666 h 4.40267 v 1.312333 q 1.86266,-1.566333 4.953,-1.566333 3.59833,0 5.37633,2.455333 1.778,2.455333 1.778,5.715 v 13.038666 h -4.36033 V 75.977527 q 0.0847,-1.608667 -1.05834,-2.878667 -1.143,-1.312333 -2.87866,-1.227667 -1.82034,0 -2.794,1.058334 -0.93134,1.058333 -0.93134,3.048 v 12.953999 h -4.48733 z m -4.66262,-5.588 q 0,0.973667 -0.67734,1.651 -0.67733,0.635 -1.60866,0.635 -0.889,0 -1.60867,-0.677333 -0.67733,-0.719667 -0.67733,-1.608667 0,-0.889 0.67733,-1.566333 0.71967,-0.719667 1.60867,-0.719667 0.889,0 1.56633,0.719667 0.71967,0.677333 0.71967,1.566333 z m 0.0423,26.542999 h -4.61433 V 68.230527 h 4.61433 z m -18.23968,0.508 q -2.20133,0 -3.97933,-1.227666 v 0.719666 h -4.48734 V 62.346194 l 4.48734,-2.243667 v 9.101666 q 1.35466,-1.439333 3.89466,-1.481666 8.55134,0.169333 8.55134,11.175999 0,10.541 -8.46667,10.541 z m 4.064,-10.583333 q 0,-6.519333 -4.14867,-6.773333 -2.58233,0 -3.81,2.074333 v 9.313333 q 1.56634,2.032 3.937,1.989667 3.97934,-0.04233 4.02167,-6.604 z m -17.1192,10.075333 h -4.445 V 75.51186 q 0.0423,-1.227667 -1.05834,-2.413 -1.05833,-1.227667 -2.62466,-1.185333 -1.524,0 -2.49767,1.100666 -0.93133,1.100667 -0.889,2.497667 v 13.419666 h -4.78366 V 75.51186 q 0.0423,-1.312333 -1.016,-2.455333 -1.05834,-1.185334 -2.62467,-1.143 -1.397,0.04233 -2.413,1.143 -0.97367,1.058333 -1.016,2.455333 v 13.419666 h -4.65667 V 67.89186 h 4.572 v 1.27 q 1.905,-1.524 4.48734,-1.524 3.51366,0 5.50333,2.921 2.032,-2.878667 5.63033,-2.878667 3.09033,0 5.41867,2.370667 2.37066,2.370667 2.413,5.545667 z M -241.5822,62.388527 q 0,0.973667 -0.67733,1.651 -0.67734,0.635 -1.60867,0.635 -0.889,0 -1.60867,-0.677333 -0.67733,-0.719667 -0.67733,-1.608667 0,-0.889 0.67733,-1.566333 0.71967,-0.719667 1.60867,-0.719667 0.889,0 1.56633,0.719667 0.71967,0.677333 0.71967,1.566333 z m 0.0423,26.542999 h -4.61433 V 68.230527 h 4.61433 z m -10.37759,0 h -4.572 V 62.388527 l 4.572,-2.286 z m -18.35943,-4.021666 q 3.13266,-0.04233 4.52966,-2.963334 l 4.191,2.074334 q -2.58233,5.249333 -8.72066,5.376333 -4.99533,0 -7.70467,-3.852333 -2.667,-3.852334 -2.667,-10.795 0,-6.942667 2.667,-10.795 2.70934,-3.852333 7.70467,-3.852333 6.13833,0.127 8.72066,5.376333 l -4.191,2.074333 q -1.397,-2.920999 -4.52966,-2.963333 -2.96334,0 -4.318,2.836333 -1.35467,2.794 -1.35467,7.323667 0,4.529666 1.35467,7.366 1.35466,2.794 4.318,2.794 z m -20.77483,-223.0743 c -11.08,0 -19.99981,8.91982 -19.99981,19.99982 v 9.9999 349.99982 9.9999 c 0,11.07998 8.91981,20.00033 19.99981,20.00033 h 10.00042 220.000006 9.999919 c 11.079983,0 19.999801,-8.92035 19.999801,-20.00033 v -9.9999 -349.99982 -9.9999 c 0,-11.08 -8.919818,-19.99982 -19.999801,-19.99982 h -9.999919 -220.000006 z m 0,9.99991 h 10.00042 220.000006 9.999919 c 5.539978,0 9.999901,4.45991 9.999901,9.99991 v 9.9999 151.291541 H -301.05166 v -151.291541 -9.9999 c -10e-6,-5.54 4.45991,-9.99991 9.99991,-9.99991 z"
         inkscape:connector-curvature="0" />
    </g>
    <text
       xml:space="preserve"
       style="font-style:normal;font-variant:normal;font-weight:normal;font-stretch:normal;font-size:42.33333206px;line-height:1.25;font-family:'Highway Gothic';-inkscape-font-specification:'Highway Gothic';letter-spacing:0px;word-spacing:0px;fill:#000000;fill-opacity:1;stroke:none;stroke-width:0.26458332"
       x="-100.54166"
       y="228.20833"
       id="text3739"><tspan
         sodipodi:role="line"
         x="-100.54166"
         y="254.66698"
         style="stroke-width:0.26458332"
         id="tspan3741" /></text>
  </g>
</svg>
