<svg xmlns="http://www.w3.org/2000/svg" viewBox="0 0 575 575"><g stroke="#000"><path d="m574.07 287.5c0 158.27-128.3 286.57-286.57 286.57-158.27 0-286.57-128.3-286.57-286.57 0-158.27 128.3-286.57 286.57-286.57 158.27 0 286.57 128.3 286.57 286.57z" fill="#fff" stroke-linecap="square" stroke-width=".5"/><path d="m451.25 222.88c4.38 5.06 34.81 49.9 34.81 51.28l-248.6 168.21c-5.624-5.497-7.594-9.121-12.43-15.91l233.68-157.81-13.25-18.32-231.6 156.95-12.15-15.95m-18.75 4.87c-12.96-21.2-10.94-46.7 3.84-61.02 20.17-19.56 13.2-40.18-22.64-33.14-36.25 5.112-48.532-37.17-20.29-56.63 16.13-10.41 13.28-15.41 10.16-30.29l12.41-7.29c11.01 32.11-1.44 40.11-9.27 46-25.19 18.433-14.998 36.17 13.15 33.36 42.35-5.396 51.828 30.396 28.67 55.79-18.99 22.02-8.31 35.68-4.13 46.68zm-32.51-40.03c7.8-31.17 9.639-40.27-16.2-35.22-49.25 9.05-54.25-35.95-34.09-52.08 19.84-13.87 13.567-20.941 11.757-25.83l12-6.63c8.863 18.08 1.08 28.59-11.73 40.33-17.19 15.432-9.22 36.28 16.717 30.713 52.82-7.453 40.668 27.502 36.898 45.27-4.779 25.684-.806 29.517 10.654 49.603-.47.24-9.21 5.08-11.84 7.08-18.243-27.27-16.09-45.826-14.17-53.24zm34.84 46.39l12.75-8.24 33.62 50.4-12.34 8.94zm-19.03 12.85l12.93-8.87 34.03 50.68-12.45 8.53z"/></g><path d="m288.96 10.63c-89.63-.112-159.59 33.2-212.6 99.44-.047.05-.109.1-.156.15-40.496 48.38-64.906 110.73-64.906 178.78 0 153.66 124.38 278.34 277.66 278.34 68.68 0 131.54-25.07 180.03-66.53l.03.03c.39-.33.78-.66 1.16-1 .16-.13.31-.27.47-.4.94-.82 1.88-1.64 2.81-2.47.74-.66 1.46-1.31 2.19-1.97.21-.19.42-.37.62-.56.97-.89 1.92-1.79 2.88-2.69.86-.81 1.71-1.62 2.56-2.44.12-.11.23-.23.35-.34 1.08-1.06 2.14-2.12 3.21-3.19.32-.31.63-.62.94-.94 1.25-1.26 2.49-2.55 3.72-3.84.12-.13.25-.25.38-.38 1.4-1.48 2.81-2.98 4.18-4.5 1.26-1.39 2.49-2.8 3.72-4.21.23-.27.46-.52.69-.79 1.05-1.22 2.09-2.45 3.12-3.68 40.33-48.33 64.63-110.55 64.63-178.44 0-153.66-124.41-278.38-277.69-278.38zm0 62.06c119.11 0 215.78 96.91 215.78 216.31 0 50.85-17.52 97.62-46.84 134.56l-304.5-302.78c37.05-30.06 84.21-48.09 135.56-48.09zm-168.62 81.41l304.56 302.84c-37.12 30.24-84.42 48.37-135.94 48.37-119.11 0-215.75-96.91-215.75-216.31 0-51 17.636-97.91 47.13-134.91z" fill="#c00" stroke="#c00" stroke-width="2"/></svg>