<?xml version="1.0" encoding="UTF-8" standalone="no"?>
<!-- Created with Inkscape (http://www.inkscape.org/) -->

<svg
   width="297mm"
   height="420mm"
   viewBox="0 0 297 420"
   version="1.1"
   id="svg8"
   inkscape:version="1.1.2 (0a00cf5339, 2022-02-04)"
   sodipodi:docname="kfz.svg"
   xmlns:inkscape="http://www.inkscape.org/namespaces/inkscape"
   xmlns:sodipodi="http://sodipodi.sourceforge.net/DTD/sodipodi-0.dtd"
   xmlns="http://www.w3.org/2000/svg"
   xmlns:svg="http://www.w3.org/2000/svg"
   xmlns:rdf="http://www.w3.org/1999/02/22-rdf-syntax-ns#"
   xmlns:cc="http://creativecommons.org/ns#"
   xmlns:dc="http://purl.org/dc/elements/1.1/">
  <defs
     id="defs2" />
  <sodipodi:namedview
     id="base"
     pagecolor="#ffffff"
     bordercolor="#666666"
     borderopacity="1.0"
     inkscape:pageopacity="0.0"
     inkscape:pageshadow="2"
     inkscape:zoom="0.50907923"
     inkscape:cx="912.43165"
     inkscape:cy="893.77051"
     inkscape:document-units="mm"
     inkscape:current-layer="layer1"
     showgrid="false"
     showguides="true"
     inkscape:guide-bbox="true"
     inkscape:window-width="1920"
     inkscape:window-height="1176"
     inkscape:window-x="1920"
     inkscape:window-y="0"
     inkscape:window-maximized="1"
     inkscape:pagecheckerboard="0">
    <sodipodi:guide
       position="148,450.54762"
       orientation="1,0"
       id="guide917"
       inkscape:locked="false"
       inkscape:label=""
       inkscape:color="rgb(0,0,255)" />
    <sodipodi:guide
       position="285.75,178.32917"
       orientation="0,1"
       id="guide980"
       inkscape:locked="false" />
    <sodipodi:guide
       position="178.40477,399.14285"
       orientation="0,1"
       id="guide984"
       inkscape:locked="false" />
    <sodipodi:guide
       position="198.81548,46.113094"
       orientation="0,1"
       id="guide986"
       inkscape:locked="false" />
    <sodipodi:guide
       position="357.71668,158.329"
       orientation="0,1"
       id="guide3034"
       inkscape:locked="false"
       inkscape:label=""
       inkscape:color="rgb(0,0,255)" />
  </sodipodi:namedview>
  <metadata
     id="metadata5">
    <rdf:RDF>
      <cc:Work
         rdf:about="">
        <dc:format>image/svg+xml</dc:format>
        <dc:type
           rdf:resource="http://purl.org/dc/dcmitype/StillImage" />
      </cc:Work>
    </rdf:RDF>
  </metadata>
  <g
     inkscape:label="Ebene 1"
     inkscape:groupmode="layer"
     id="layer1"
     transform="translate(0,123)">
    <text
       xml:space="preserve"
       style="font-style:normal;font-variant:normal;font-weight:bold;font-stretch:normal;font-size:4.23333px;line-height:125%;font-family:DINPro;-inkscape-font-specification:'DINPro Bold';font-variant-ligatures:normal;font-variant-caps:normal;font-variant-numeric:normal;font-feature-settings:normal;text-align:start;letter-spacing:0px;word-spacing:0px;writing-mode:lr-tb;text-anchor:start;fill:#000000;fill-opacity:1;stroke:none;stroke-width:0.264583"
       x="146.33704"
       y="169.54645"
       id="text1677"><tspan
         sodipodi:role="line"
         x="146.33704"
         y="169.54645"
         style="font-style:normal;font-variant:normal;font-weight:bold;font-stretch:normal;font-size:42.3333px;line-height:100%;font-family:DINPro;-inkscape-font-specification:'DINPro, Bold';font-variant-ligatures:normal;font-variant-caps:normal;font-variant-numeric:normal;font-feature-settings:normal;text-align:center;writing-mode:lr-tb;text-anchor:middle;stroke-width:0.264583"
         id="tspan3324">KFZ nur zum</tspan><tspan
         sodipodi:role="line"
         x="146.33704"
         y="211.87975"
         style="font-style:normal;font-variant:normal;font-weight:bold;font-stretch:normal;font-size:42.3333px;line-height:100%;font-family:DINPro;-inkscape-font-specification:'DINPro, Bold';font-variant-ligatures:normal;font-variant-caps:normal;font-variant-numeric:normal;font-feature-settings:normal;text-align:center;writing-mode:lr-tb;text-anchor:middle;stroke-width:0.264583"
         id="tspan14484">Be- und </tspan><tspan
         sodipodi:role="line"
         x="146.33704"
         y="254.21304"
         style="font-style:normal;font-variant:normal;font-weight:bold;font-stretch:normal;font-size:42.3333px;line-height:100%;font-family:DINPro;-inkscape-font-specification:'DINPro, Bold';font-variant-ligatures:normal;font-variant-caps:normal;font-variant-numeric:normal;font-feature-settings:normal;text-align:center;writing-mode:lr-tb;text-anchor:middle;stroke-width:0.264583"
         id="tspan13564">Entladen </tspan><tspan
         sodipodi:role="line"
         x="146.33704"
         y="267.96713"
         style="font-style:normal;font-variant:normal;font-weight:bold;font-stretch:normal;font-size:42.3333px;line-height:100%;font-family:DINPro;-inkscape-font-specification:'DINPro, Bold';font-variant-ligatures:normal;font-variant-caps:normal;font-variant-numeric:normal;font-feature-settings:normal;text-align:center;writing-mode:lr-tb;text-anchor:middle;stroke-width:0.264583"
         id="tspan3328" /></text>
    <text
       xml:space="preserve"
       style="font-style:normal;font-variant:normal;font-weight:bold;font-stretch:normal;font-size:4.23333px;line-height:240px;font-family:DINPro;-inkscape-font-specification:'DINPro Bold';font-variant-ligatures:normal;font-variant-caps:normal;font-variant-numeric:normal;font-feature-settings:normal;text-align:start;letter-spacing:0px;word-spacing:0px;writing-mode:lr-tb;text-anchor:start;fill:#000000;fill-opacity:1;stroke:none;stroke-width:0.264583"
       x="77.863091"
       y="250.8869"
       id="text1685"><tspan
         sodipodi:role="line"
         id="tspan1683"
         x="77.863091"
         y="250.8869"
         style="stroke-width:0.264583">a</tspan></text>
    <g
       id="g10454"
       transform="matrix(1.4513737,0,0,1.4513737,242.30711,91.216906)">
      <path
         d="m -118.59105,-109.83153 c 9.84602,-9.84603 20.461107,-15.98119 33.918873,-19.57776 13.453886,-3.60927 25.722438,-3.60927 39.172091,-0.007 13.456708,3.59692 24.078494,9.73737 33.930166,19.59045 9.8460274,9.84603 15.9674273,20.462525 19.5710522,33.910766 3.6032718,13.463411 3.6032718,25.718205 0.00106,39.180205 -3.6046832,13.449652 -9.7317275,24.071791 -19.5777552,33.9178185 -9.85273,9.8513192 -20.467813,15.9864775 -33.924521,19.5830465 -13.449653,3.603625 -25.718205,3.603625 -39.173502,-0.0053 -13.456355,-3.596923 -24.064734,-9.7264363 -33.912174,-19.5724639 -9.85132,-9.8527301 -15.99212,-20.4734581 -19.58728,-33.9284021 -3.60504,-13.451063 -3.60504,-25.718558 0,-39.16821 3.59516,-13.454944 9.73031,-24.071439 19.58199,-33.92311 z"
         style="fill:#154889;fill-opacity:1;fill-rule:evenodd;stroke:none;stroke-width:0.352778"
         id="path5563"
         inkscape:connector-curvature="0" />
      <path
         d="M -131.46356,-53.666841 H 1.2898879 v 2.644422 H -131.46356 Z"
         style="fill:#ffffff;fill-opacity:1;fill-rule:nonzero;stroke:none;stroke-width:0.352778"
         id="path5565"
         inkscape:connector-curvature="0" />
      <path
         d="m -48.749522,-93.41784 c 0,-2.468033 -1.999545,-4.467578 -4.467578,-4.467578 -2.468033,0 -4.467577,1.999545 -4.467577,4.467578 0,2.468033 1.999544,4.467577 4.467577,4.467577 2.468033,0 4.467578,-1.999544 4.467578,-4.467577 z m -21.698302,-26.16482 c 0,2.82081 -2.287764,5.10434 -5.105753,5.10434 -2.816931,0 -5.105753,-2.28353 -5.105753,-5.10434 0,-2.81799 2.288822,-5.1054 5.105753,-5.1054 2.817989,0 5.105753,2.28741 5.105753,5.1054 z m -10.211506,26.040995 0.895703,-0.879122 c 0.245533,-0.2413 0.381706,-0.569384 0.381706,-0.910873 v -9.57192 c 0,-0.35278 -0.285045,-0.63958 -0.637823,-0.63958 -0.352777,0 -0.639586,0.2868 -0.639586,0.63958 z m -7.657747,14.802908 c 0.734484,-4.8895 2.853972,-9.464322 6.112933,-13.181189 -1.468966,-1.6383 -2.283177,-3.762022 -2.283177,-5.965472 v -5.105402 c 0,-4.93218 4.001558,-8.93409 8.933744,-8.93409 3.331986,0 6.38563,1.8549 7.927975,4.808 l 5.301191,10.190695 c 0.767645,1.4732 0.497417,3.279775 -0.673805,4.459464 l 5.265208,4.427361 c 1.786114,1.498247 4.203347,2.014714 6.446661,1.372658 l 0.942622,-0.268817 c 0.975431,-0.281164 2.027061,0.04551 2.669117,0.831145 l 6.494638,7.89058 c 1.103842,1.340908 0.930275,3.319639 -0.389819,4.448175 l -5.903383,-6.888691 1.913819,9.57333 -2.442986,0.360892 1.464734,9.279819 c 0.138994,0.869597 -0.454731,1.689452 -1.325739,1.825977 -0.850195,0.133703 -1.649589,-0.428624 -1.813631,-1.272116 l -1.814689,-9.31545 -2.066925,0.304447 -0.942622,10.130014 c -0.08008,0.880533 -0.858661,1.525411 -1.73355,1.44145 -0.854428,-0.08008 -1.498247,-0.822678 -1.445683,-1.681339 l 1.271764,-21.923022 -9.086497,-8.593666 c -0.846314,-1.184981 -0.782814,-2.792942 0.152752,-3.909483 l -5.659613,-10.869793 c -0.09102,-0.18873 -0.329142,-0.26035 -0.518231,-0.16404 -0.123825,0.0677 -0.203905,0.19579 -0.203905,0.34043 v 9.793819 c 0,0.341489 0.136525,0.669572 0.380294,0.910872 l 1.132769,1.116189 c 3.989564,3.921831 6.589889,9.035697 7.421034,14.565842 z m 13.401322,1.275997 h 3.829756 v 17.231077 c 0,1.055511 -0.854428,1.91382 -1.914173,1.91382 -1.055511,0 -1.915583,-0.858309 -1.915583,-1.91382 z m -5.1054,0 h 3.829403 v 13.401322 c 0,1.055511 -0.854428,1.915583 -1.914172,1.915583 -1.055511,0 -1.915231,-0.860072 -1.915231,-1.915583"
         style="fill:#ffffff;fill-opacity:1;fill-rule:nonzero;stroke:none;stroke-width:0.352778"
         id="path5567"
         inkscape:connector-curvature="0" />
      <path
         d="m -37.094097,0.49971606 c -6.486172,1.92651944 -13.304661,-1.77094436 -15.235414,-8.25570536 -0.04551,-0.1446389 -0.08008,-0.2853972 -0.1143,-0.4300361 h 12.626975 c 0.847372,0 1.529644,-0.6847417 1.529644,-1.5282333 0,-0.2162528 -0.04551,-0.4300363 -0.132291,-0.6258273 l -5.6515,-12.65167 c 6.486525,-1.926519 13.306424,1.769534 15.232944,8.256059 1.926519,6.4861716 -1.770945,13.3060714 -8.257469,15.23682417 z m -9.781117,-22.26098306 4.700411,10.513131 h -10.656358 c 0,-4.30777 2.258483,-8.301214 5.955947,-10.513131 z m -9.02335,10.513131 h -3.062111 l 7.657747,-20.422306 3.170767,7.096831 c -4.799542,2.717447 -7.766403,7.8105 -7.766403,13.325475 z m -6.273094,-0.165453 -19.178058,-21.276733 h 27.157186 z m -16.259175,5.2256969 c -2.793294,6.16126373 -10.054166,8.8952914 -16.219663,6.10058595 -6.161264,-2.79752775 -8.893884,-10.05416685 -6.100584,-16.21825285 2.311045,-5.098697 7.777689,-7.980186 13.288431,-7.008636 l -3.591278,11.611328 c -0.249414,0.811742 0.200025,1.666169 1.006122,1.9198166 0.811742,0.2480028 1.67005,-0.2014361 1.919464,-1.0117666 l 3.591278,-11.616619 c 6.165497,2.798586 8.899525,10.058047 6.104819,16.2235439 z m 52.410783,-9.8089859 c -2.621139,-8.039453 -11.266664,-12.435416 -19.31035,-9.814278 l -4.43865,-9.941277 1.147939,-3.065992 h 3.443464 v -3.059289 h -13.016794 c -0.352778,0 -0.665692,0.2413 -0.74542,0.585612 -0.101953,0.410633 0.156986,0.822677 0.564797,0.923219 l 6.478059,1.549047 -1.143706,3.065992 h -27.360738 l 1.227666,-3.96875 c 0.396875,-1.284111 1.584678,-2.15512 2.925586,-2.15512 h 5.034139 v -3.063522 h -5.034139 c -2.684286,0 -5.057422,1.74625 -5.851172,4.312003 l -4.448175,14.368991 c -7.139516,-1.445683 -14.308316,2.335742 -17.149586,9.0424 -3.29635,7.7900388 0.34431,16.77775808 8.135762,20.0727025 7.790038,3.2988249 16.776347,-0.3446639 20.072349,-8.1318804 3.299178,-7.7900391 -0.344311,-16.7777581 -8.131527,-20.0723491 l 1.215319,-3.937353 18.105966,20.0878716 c 0.581731,0.6462889 1.40582,1.0114139 2.272595,1.0114139 h 6.438194 c 0.115711,0.5704416 0.264583,1.1327694 0.444853,1.6866305 2.621139,8.0436859 11.267016,12.4382386 19.310702,9.8132192 8.039453,-2.62113881 12.434005,-11.2670164 9.812867,-19.3107022"
         style="fill:#ffffff;fill-opacity:1;fill-rule:nonzero;stroke:none;stroke-width:0.352778"
         id="path5569"
         inkscape:connector-curvature="0" />
    </g>
  </g>
</svg>
