<?xml version="1.0" encoding="UTF-8" standalone="no"?>
<!-- Created with Inkscape (http://www.inkscape.org/) -->

<svg
   xmlns:dc="http://purl.org/dc/elements/1.1/"
   xmlns:cc="http://creativecommons.org/ns#"
   xmlns:rdf="http://www.w3.org/1999/02/22-rdf-syntax-ns#"
   xmlns:svg="http://www.w3.org/2000/svg"
   xmlns="http://www.w3.org/2000/svg"
   xmlns:sodipodi="http://sodipodi.sourceforge.net/DTD/sodipodi-0.dtd"
   xmlns:inkscape="http://www.inkscape.org/namespaces/inkscape"
   width="607.8418"
   height="531.36584"
   id="svg3785"
   version="1.1"
   inkscape:version="0.92.5 (2060ec1f9f, 2020-04-08)"
   sodipodi:docname="Lichtkante.svg">
  <defs
     id="defs3" />
  <sodipodi:namedview
     inkscape:document-units="mm"
     id="base"
     pagecolor="#ffffff"
     bordercolor="#666666"
     borderopacity="1.0"
     inkscape:pageopacity="0.0"
     inkscape:pageshadow="2"
     inkscape:zoom="0.70710678"
     inkscape:cx="241.40386"
     inkscape:cy="508.68366"
     inkscape:current-layer="layer3"
     showgrid="false"
     units="mm"
     fit-margin-top="0"
     fit-margin-left="0"
     fit-margin-right="0"
     fit-margin-bottom="0"
     inkscape:window-width="1920"
     inkscape:window-height="1176"
     inkscape:window-x="1920"
     inkscape:window-y="0"
     inkscape:window-maximized="1"
     showguides="true"
     inkscape:guide-bbox="true">
    <sodipodi:guide
       position="415.11298,649.70668"
       orientation="1,0"
       id="guide891"
       inkscape:locked="false" />
  </sodipodi:namedview>
  <metadata
     id="metadata4">
    <rdf:RDF>
      <cc:Work
         rdf:about="">
        <dc:format>image/svg+xml</dc:format>
        <dc:type
           rdf:resource="http://purl.org/dc/dcmitype/StillImage" />
        <dc:title></dc:title>
      </cc:Work>
    </rdf:RDF>
  </metadata>
  <g
     inkscape:groupmode="layer"
     id="layer3"
     inkscape:label="Ebene 2"
     style="display:inline"
     transform="translate(-73.77379,-269.05022)">
    <path
       style="display:inline;fill:#f6bd16;fill-opacity:1;stroke:none;stroke-width:1.44614899px;stroke-linecap:butt;stroke-linejoin:miter;stroke-opacity:1"
       d="m 490.10107,45.411263 c -8.9318,-0.17753 -17.9881,3.812787 -21.5435,10.923497 L 53.04461,777.0797 c -6.78943,10.18415 2.42473,36.08264 17.16749,34.91874 l 836.55547,0.28955 c 14.0638,1.84286 26.6729,-20.17389 19.4955,-32.0069 L 509.58487,56.33476 c -3.819,-7.36531 -11.6029,-10.766852 -19.4838,-10.923497 z m -1.2143,80.835707 365.073,633.54148 -730.641,1.32399 z"
       id="path4316-3"
       inkscape:connector-curvature="0" />
    <path
       style="fill:#000000;fill-opacity:1;stroke:#000000;stroke-width:1.36791074px;stroke-linecap:butt;stroke-linejoin:miter;stroke-opacity:1"
       d="m 490.03533,74.24697 c -8.44851,-0.167926 -17.01489,3.606515 -20.3779,10.33252 L 76.624153,766.33134 c -6.422116,9.63317 2.293543,34.13053 16.238708,33.0296 l 791.296869,0.27388 c 13.30296,1.74316 25.22992,-19.08246 18.44083,-30.27529 L 508.46511,84.57949 C 504.85267,77.612651 497.48988,74.39514 490.03533,74.24697 Z m -1.14856,76.46241 345.32213,599.26618 -691.1125,1.25236 z"
       id="path4316"
       inkscape:connector-curvature="0" />
    <path
       inkscape:connector-curvature="0"
       style="fill:#000000;stroke-width:1.4451189"
       d="m 205.76541,725.27124 v -28.90237 h 534.69398 v 28.90237 z"
       id="path3187" />
    <path
       inkscape:connector-curvature="0"
       style="fill:#000000;stroke-width:1.4451189"
       d="m 299.53918,687.55364 c -13.79078,-8.03241 -7.7616,-19.11603 24.19706,-44.48076 17.18969,-13.64351 42.144,-30.01223 55.4521,-36.37653 l 24.19707,-11.56991 -35.06436,-0.003 c -31.48914,-0.003 -38.22339,1.43611 -66.03759,14.11188 -35.4271,16.14485 -44.13682,17.25038 -49.97512,6.34146 -7.25376,-13.55377 0.0316,-20.80827 39.11505,-38.9474 l 38.09766,-17.68247 41.37954,2.53184 c 26.79827,1.63978 42.28562,1.06537 43.9504,-1.63009 1.41466,-2.28892 8.8525,-18.83423 16.52783,-36.76816 l 13.95623,-32.60631 -21.95426,-15.22722 c -19.95274,-13.83904 -23.07564,-18.14925 -34.25798,-47.28574 -14.9483,-38.94884 -14.56968,-48.59934 1.90394,-48.59934 11.01572,0 12.7013,2.17548 24.19708,31.23191 11.50227,29.07145 14.16982,32.51228 38.57022,49.74532 25.05404,17.69549 27.19424,18.42671 48.39414,16.53939 37.26529,-3.31684 42.40412,-6.90391 52.24105,-36.46035 4.78911,-14.39122 11.24028,-28.26796 14.33601,-30.83739 8.55265,-7.09814 22.14789,-1.02015 22.14789,9.90181 0,10.18852 -18.43538,61.82075 -24.82136,69.51745 -2.18285,2.63098 -16.15065,7.92156 -31.03826,11.75689 l -27.06998,6.97329 -20.03656,46.7207 -20.03658,46.72069 -48.52276,24.19706 c -26.68844,13.30853 -61.10685,33.72475 -76.48725,45.36952 -29.50788,22.34152 -32.13078,23.35889 -43.36224,16.81684 z"
       id="path3189" />
    <path
       inkscape:connector-curvature="0"
       style="fill:#000000;stroke-width:1.4451189"
       d="m 476.20496,465.17874 c -5.55981,-7.66347 -6.94757,-18.56254 -2.14862,-26.94279 3.52538,-6.61923 9.31424,-12.03322 16.12032,-15.15786 8.74889,-3.38576 19.55679,-0.59118 25.26211,6.94727 6.43382,7.18528 10.69027,17.2894 8.32952,26.98037 -2.12157,8.1759 -9.76552,14.08311 -17.9397,15.35873 -7.8694,1.81911 -16.73593,2.49442 -23.99475,-1.70654 -2.25468,-1.37499 -4.19403,-3.26309 -5.6296,-5.47961 z"
       id="path3191" />
    <path
       d="m 697.86252,598.02521 -1.80181,1.13351 q -0.42478,0.26723 -0.69628,-0.16437 l -5.54263,-8.8104 q -0.19395,-0.30826 -0.38431,0.013 c -3.95645,6.85902 -5.24149,13.92125 -3.11604,21.60144 2.21918,8.04198 7.37667,18.93062 4.79381,26.66585 q -3.40774,10.22403 -7.37807,20.23781 -0.16355,0.40888 0.16589,0.6893 c 4.35322,3.77336 4.53718,7.68339 2.59679,13.03506 q -2.05441,5.67203 -4.28156,11.25186 -0.12789,0.32899 -0.45418,0.19008 l -2.35554,-1.02346 q -0.59274,-0.25822 -0.82002,0.35333 l -3.18008,8.57953 a 0.85795735,0.88223918 2.3260106 0 1 -0.56206,0.53536 q -1.48725,0.44793 -2.23463,-0.75529 a 0.87414523,0.8903331 37.626011 0 1 -0.0879,-0.74788 q 1.54683,-4.39644 3.12028,-8.78096 0.15322,-0.44059 -0.27807,-0.60919 l -6.42323,-2.51895 q -0.40886,-0.1635 -0.56122,0.2479 l -3.45357,9.23924 a 0.50182412,0.50991805 16.626011 0 1 -0.57647,0.31485 l -1.9093,-0.40536 q -0.64988,-0.13614 -0.42439,-0.76578 l 3.34679,-9.36331 q 0.17523,-0.51184 -0.3298,-0.69139 l -1.35446,-0.49621 q -0.38477,-0.14046 -0.24429,-0.52522 1.9635,-5.37574 4.05074,-10.67635 c 2.16652,-5.49388 5.1337,-8.57498 11.13158,-8.31294 q 0.41705,0.0244 0.56451,-0.36426 3.49843,-9.15272 6.59682,-18.37891 1.74018,-5.16831 0.667,-8.91102 c -2.54178,-8.91956 -5.3207,-15.32807 -6.03171,-22.82713 -0.69763,-7.32578 2.31509,-15.35055 5.8784,-21.69449 q 0.20994,-0.38069 -0.0185,-0.74378 l -35.56145,-56.52753 a 1.1817148,1.1898087 77.326011 0 0 -0.86814,-0.54398 c -5.94498,-0.64913 -56.07939,-6.90969 -57.54028,-5.67509 q -34.39328,29.06679 -68.70635,57.98746 a 0.71226649,0.70417256 54.126011 0 0 -0.14576,0.92358 q 6.21269,9.89013 12.55921,19.96382 1.68949,2.68557 1.70993,4.37485 c 0.0363,3.55355 -4.22345,6.51059 -7.55354,5.23002 q -1.64486,-0.63862 -3.23094,-3.15979 -14.8149,-23.48848 -29.57718,-47.00052 -1.76481,-2.81987 -1.65323,-4.64956 c 0.21342,-3.56716 4.90881,-6.27241 8.14508,-4.50251 q 1.35259,0.73644 2.9559,3.28499 5.39381,8.58843 10.62404,16.88772 0.32756,0.52066 0.80514,0.12441 l 89.72341,-75.89483 a 0.8903331,0.88223918 57.826011 0 0 0.23454,-1.05598 c -5.85497,-12.62052 -2.45641,-28.012 10.3213,-34.96991 18.05,-9.82531 39.38363,3.15551 38.93696,23.68003 -0.22834,10.74835 -7.37722,19.95042 -17.42003,23.60999 q -12.61901,4.61092 -24.7549,-3.85746 -0.30428,-0.21021 -0.57559,0.0274 l -9.32345,7.87347 q -0.51437,0.42877 0.15509,0.50485 l 45.17262,5.03114 a 1.2059968,1.2221846 32.526011 0 0 0.78623,-0.17904 l 1.93198,-1.21542 a 1.4002513,1.4083452 34.626011 0 1 1.01783,-0.1909 l 8.92689,1.68022 q 0.40001,0.0736 0.61982,0.42289 l 44.29432,70.71304 a 0.647515,0.647515 0 0 1 0.0706,0.53841 l -1.3362,4.24485 q -0.12502,0.39418 0.0947,0.74355 l 11.27052,17.91535 q 0.21982,0.34939 0.61585,0.23414 14.08974,-4.26435 24.53378,3.64275 c 14.74597,11.15812 14.07547,34.62529 -2.84822,43.80894 -15.13081,8.21831 -34.09962,-0.0155 -38.0349,-16.86538 q -3.18969,-13.62788 7.12261,-24.83914 0.24973,-0.27182 0.0558,-0.58013 l -11.40846,-18.1346 q -0.21551,-0.34256 -0.55803,-0.12702 z m 45.92488,40.2447 c 1.94319,-11.39683 -7.60168,-19.59228 -18.56059,-18.4833 q -1.16391,0.11071 -0.54581,1.10837 c 2.02136,3.21311 8.25426,11.31193 8.26073,14.97026 0.009,3.13067 -3.27738,5.55206 -6.43738,4.63303 -3.11534,-0.90885 -8.60962,-11.37522 -10.41297,-14.25695 a 0.68798467,0.68798467 0 0 0 -1.16769,-10e-4 c -5.54141,8.79322 -3.15489,19.76124 6.86001,24.11336 9.6953,4.20892 20.24255,-1.79524 22.0037,-12.08306 z M 647.21132,484.35996 c 1.35715,-9.9572 -6.00815,-18.03206 -15.75446,-18.2788 -11.52152,-0.28697 -18.1871,10.76256 -15.34687,21.38776 a 0.43707262,0.43707262 0 0 0 0.69904,0.22962 q 5.32794,-4.37498 10.77188,-8.97594 c 5.88039,-4.97116 11.9611,3.02257 6.93662,7.30227 q -5.65356,4.79976 -11.30356,9.63553 a 0.1942545,0.1942545 0 0 0 0.0276,0.31734 c 9.8965,5.51673 22.42565,-0.19469 23.96982,-11.61781 z"
       id="path98"
       inkscape:connector-curvature="0"
       style="fill:#000000;stroke:#000000;stroke-width:0.80926651;stroke-miterlimit:4;stroke-dasharray:none;stroke-opacity:1" />
  </g>
</svg>
