<?xml version="1.0" encoding="UTF-8" standalone="no"?>
<!-- Created with Inkscape (http://www.inkscape.org/) -->

<svg
   width="297mm"
   height="420mm"
   viewBox="0 0 297 420"
   version="1.1"
   id="svg8"
   inkscape:version="1.1.2 (0a00cf5339, 2022-02-04)"
   sodipodi:docname="Rollerfailtest.svg"
   xmlns:inkscape="http://www.inkscape.org/namespaces/inkscape"
   xmlns:sodipodi="http://sodipodi.sourceforge.net/DTD/sodipodi-0.dtd"
   xmlns="http://www.w3.org/2000/svg"
   xmlns:svg="http://www.w3.org/2000/svg"
   xmlns:rdf="http://www.w3.org/1999/02/22-rdf-syntax-ns#"
   xmlns:cc="http://creativecommons.org/ns#"
   xmlns:dc="http://purl.org/dc/elements/1.1/">
  <defs
     id="defs2">
    <rect
       x="40.286621"
       y="988.99276"
       width="10.17334"
       height="115.12126"
       id="rect16037" />
  </defs>
  <sodipodi:namedview
     id="base"
     pagecolor="#ffffff"
     bordercolor="#666666"
     borderopacity="1.0"
     inkscape:pageopacity="0.0"
     inkscape:pageshadow="2"
     inkscape:zoom="0.5"
     inkscape:cx="119"
     inkscape:cy="976"
     inkscape:document-units="mm"
     inkscape:current-layer="layer1"
     showgrid="false"
     showguides="true"
     inkscape:guide-bbox="true"
     inkscape:window-width="1920"
     inkscape:window-height="1176"
     inkscape:window-x="1920"
     inkscape:window-y="0"
     inkscape:window-maximized="1"
     inkscape:pagecheckerboard="0">
    <sodipodi:guide
       position="148,450.54762"
       orientation="1,0"
       id="guide917"
       inkscape:locked="false"
       inkscape:label=""
       inkscape:color="rgb(0,0,255)" />
    <sodipodi:guide
       position="285.75,178.32917"
       orientation="0,1"
       id="guide980"
       inkscape:locked="false" />
    <sodipodi:guide
       position="178.40477,399.14285"
       orientation="0,1"
       id="guide984"
       inkscape:locked="false" />
    <sodipodi:guide
       position="198.81548,46.113094"
       orientation="0,1"
       id="guide986"
       inkscape:locked="false" />
    <sodipodi:guide
       position="357.71668,158.329"
       orientation="0,1"
       id="guide3034"
       inkscape:locked="false"
       inkscape:label=""
       inkscape:color="rgb(0,0,255)" />
  </sodipodi:namedview>
  <metadata
     id="metadata5">
    <rdf:RDF>
      <cc:Work
         rdf:about="">
        <dc:format>image/svg+xml</dc:format>
        <dc:type
           rdf:resource="http://purl.org/dc/dcmitype/StillImage" />
        <dc:title />
      </cc:Work>
    </rdf:RDF>
  </metadata>
  <g
     inkscape:label="Ebene 1"
     inkscape:groupmode="layer"
     id="layer1"
     transform="translate(0,123)">
    <path
       style="display:inline;fill:#f6bd16;fill-opacity:1;stroke:none;stroke-width:0.38262692px;stroke-linecap:butt;stroke-linejoin:miter;stroke-opacity:1"
       d="m 148.32128,-84.134914 c -2.3632,-0.047 -4.75935,1.0088 -5.70005,2.89018 L 32.68343,109.45239 c -1.79637,2.69456 0.64155,9.54687 4.54223,9.23892 l 221.33864,0.0766 c 3.72104,0.48759 7.0572,-5.33767 5.15818,-8.46849 L 153.47637,-81.244734 c -1.01044,-1.94874 -3.06993,-2.84873 -5.15509,-2.89018 z"
       id="path4316-3"
       inkscape:connector-curvature="0"
       sodipodi:nodetypes="sccccccs" />
    <text
       xml:space="preserve"
       style="font-style:normal;font-variant:normal;font-weight:bold;font-stretch:normal;font-size:4.23333px;line-height:125%;font-family:DINPro;-inkscape-font-specification:'DINPro Bold';font-variant-ligatures:normal;font-variant-caps:normal;font-variant-numeric:normal;font-feature-settings:normal;text-align:start;letter-spacing:0px;word-spacing:0px;writing-mode:lr-tb;text-anchor:start;fill:#000000;fill-opacity:1;stroke:none;stroke-width:0.264583"
       x="146.33704"
       y="169.54645"
       id="text1677"><tspan
         sodipodi:role="line"
         x="146.33704"
         y="169.54645"
         style="font-style:normal;font-variant:normal;font-weight:bold;font-stretch:normal;font-size:42.3333px;line-height:100%;font-family:DINPro;-inkscape-font-specification:'DINPro, Bold';font-variant-ligatures:normal;font-variant-caps:normal;font-variant-numeric:normal;font-feature-settings:normal;text-align:center;writing-mode:lr-tb;text-anchor:middle;stroke-width:0.264583"
         id="tspan3049">Hindernisse</tspan><tspan
         sodipodi:role="line"
         x="146.33704"
         y="211.87978"
         style="font-style:normal;font-variant:normal;font-weight:bold;font-stretch:normal;font-size:42.3333px;line-height:100%;font-family:DINPro;-inkscape-font-specification:'DINPro, Bold';font-variant-ligatures:normal;font-variant-caps:normal;font-variant-numeric:normal;font-feature-settings:normal;text-align:center;writing-mode:lr-tb;text-anchor:middle;stroke-width:0.264583"
         id="tspan3824">am Boden</tspan></text>
    <text
       xml:space="preserve"
       style="font-style:normal;font-variant:normal;font-weight:bold;font-stretch:normal;font-size:4.23333px;line-height:240px;font-family:DINPro;-inkscape-font-specification:'DINPro Bold';font-variant-ligatures:normal;font-variant-caps:normal;font-variant-numeric:normal;font-feature-settings:normal;text-align:start;letter-spacing:0px;word-spacing:0px;writing-mode:lr-tb;text-anchor:start;fill:#000000;fill-opacity:1;stroke:none;stroke-width:0.264583"
       x="77.863091"
       y="250.8869"
       id="text1685"><tspan
         sodipodi:role="line"
         id="tspan1683"
         x="77.863091"
         y="250.8869"
         style="stroke-width:0.264583">a</tspan></text>
    <path
       style="fill:#000000;stroke-width:1.38640428"
       d="M 527.77148 768.86523 L 530.8418 788.55078 L 521.49805 797.38672 L 302.87891 797.38672 L 302.87891 825.11523 L 815.84766 825.11523 L 815.84766 797.38672 L 661.78516 797.38672 L 663.78125 791.97656 L 614.05664 788.41211 L 612.74219 780.31836 L 559.36914 788.98438 L 563.03516 769.40234 L 545.26367 778.40234 L 527.77148 768.86523 z "
       id="path3187"
       transform="matrix(0.26458333,0,0,0.26458333,0,-123)" />
    <path
       inkscape:connector-curvature="0"
       style="fill:#000000;stroke-width:0.36681947"
       d="m 103.93948,85.737593 c -3.50056,-2.0389 -1.97015,-4.85229 6.14202,-11.29071 4.36332,-3.46318 10.69756,-7.61811 14.07559,-9.23357 l 6.14204,-2.93684 -8.90051,-7.3e-4 c -7.99299,-7.4e-4 -9.70238,0.36454 -16.76256,3.58206 -8.992578,4.09812 -11.203388,4.37873 -12.685348,1.60969 -1.84125,-3.44041 0.008,-5.28184 9.928708,-9.88616 l 9.67046,-4.4884 10.50351,0.64267 c 6.8023,0.41622 10.7335,0.27041 11.15608,-0.41378 0.35909,-0.581 2.24707,-4.78076 4.19531,-9.33299 l 3.54256,-8.27655 -5.57272,-3.86517 c -5.06468,-3.51281 -5.85737,-4.60689 -8.69582,-12.0027 -3.79438,-9.8865202 -3.69828,-12.3361402 0.48328,-12.3361402 2.79616,0 3.22402,0.55221 6.14202,7.9277002 2.91968,7.37931 3.59678,8.25271 9.79042,12.62702 6.35955,4.49172 6.90281,4.67733 12.28405,4.19826 9.45918,-0.84193 10.76359,-1.75245 13.26053,-9.25486 1.21564,-3.65297 2.85315,-7.17535 3.63895,-7.82756 2.17096,-1.80174 5.62189,-0.25894 5.62189,2.51341 0,2.58619 -4.67952,15.69217 -6.3005,17.64585 -0.55408,0.66783 -4.09957,2.01076 -7.87855,2.98429 l -6.87126,1.77005 -5.08595,11.85928 -5.08596,11.85928 -12.31669,6.14203 c -6.77443,3.37814 -15.51097,8.56046 -19.41503,11.51629 -7.49009,5.67103 -8.15585,5.92927 -11.00679,4.26869 z"
       id="path3189" />
    <path
       inkscape:connector-curvature="0"
       style="fill:#000000;stroke-width:0.36681947"
       d="m 148.78316,29.291403 c -1.41127,-1.94524 -1.76352,-4.71179 -0.54539,-6.83898 0.89486,-1.68018 2.36427,-3.05443 4.09188,-3.84756 2.22076,-0.85943 4.96416,-0.15008 6.41237,1.76343 1.63311,1.82387 2.71354,4.38864 2.11431,6.84852 -0.53854,2.07533 -2.47882,3.57478 -4.5537,3.89857 -1.99752,0.46174 -4.24814,0.63316 -6.09067,-0.43318 -0.57231,-0.34901 -1.06458,-0.82828 -1.42898,-1.39091 z"
       id="path3191" />
    <path
       d="m 205.04726,63.012283 -0.45735,0.28772 q -0.10786,0.0678 -0.17675,-0.0417 l -1.40689,-2.23637 q -0.0492,-0.0782 -0.0976,0.003 c -1.00428,1.74105 -1.33047,3.53368 -0.79096,5.48316 0.5633,2.04133 1.87244,4.80522 1.21682,6.76869 q -0.86499,2.5952 -1.87279,5.13703 -0.0415,0.10384 0.0421,0.17497 c 1.105,0.95781 1.15169,1.95031 0.65916,3.30873 q -0.52147,1.43976 -1.08681,2.85611 -0.0324,0.0835 -0.11534,0.0482 l -0.59792,-0.25979 q -0.15047,-0.0656 -0.20815,0.0897 l -0.80721,2.17777 a 0.21777826,0.22394181 2.3260106 0 1 -0.14268,0.13586 q -0.3775,0.11369 -0.56722,-0.19171 a 0.22188729,0.22599631 37.626011 0 1 -0.0223,-0.18984 q 0.39265,-1.11596 0.79204,-2.22891 0.039,-0.11188 -0.0706,-0.15462 l -1.63043,-0.6394 q -0.10371,-0.0414 -0.14246,0.0629 l -0.87662,2.34523 a 0.12737974,0.12943426 16.626011 0 1 -0.14634,0.0799 l -0.48464,-0.10287 q -0.16497,-0.0345 -0.10772,-0.19438 l 0.84953,-2.37672 q 0.0445,-0.12991 -0.0837,-0.17551 l -0.3438,-0.12588 q -0.0976,-0.0356 -0.062,-0.13338 0.4984,-1.36454 1.02821,-2.71002 c 0.54993,-1.39452 1.30311,-2.17661 2.82557,-2.11009 q 0.10579,0.007 0.14329,-0.0925 0.88802,-2.32327 1.6745,-4.66518 0.44171,-1.31189 0.16931,-2.26192 c -0.64519,-2.26408 -1.35058,-3.89078 -1.53105,-5.79429 -0.17709,-1.85952 0.58764,-3.89648 1.49213,-5.50678 q 0.0532,-0.0966 -0.004,-0.1888 l -9.02668,-14.34858 a 0.29995874,0.30201325 77.326011 0 0 -0.22036,-0.13808 c -1.50904,-0.16476 -14.23484,-1.7539 -14.60566,-1.44053 q -8.73016,7.37812 -17.43997,14.71916 a 0.18079705,0.17874255 54.126011 0 0 -0.037,0.23444 q 1.57699,2.51043 3.18795,5.06748 0.42884,0.68169 0.43403,1.11048 c 0.01,0.90201 -1.07205,1.65261 -1.91734,1.32755 q -0.41752,-0.1621 -0.82012,-0.80205 -3.76051,-5.96216 -7.50767,-11.93031 -0.44797,-0.71578 -0.41965,-1.18021 c 0.0542,-0.90546 1.24602,-1.59215 2.06749,-1.1429 q 0.34333,0.18695 0.75031,0.83384 1.36913,2.18004 2.69673,4.28668 0.0832,0.13213 0.20437,0.0316 l 22.77482,-19.26465 a 0.22599631,0.22394181 57.826011 0 0 0.0595,-0.26805 c -1.48618,-3.2035 -0.62352,-7.11037 2.61989,-8.87653 4.58171,-2.49398 9.99689,0.80097 9.88351,6.01079 -0.0579,2.72829 -1.87259,5.06408 -4.42178,5.993 q -3.20314,1.17041 -6.28363,-0.97915 -0.0772,-0.0534 -0.1461,0.007 l -2.36661,1.99856 q -0.1306,0.10883 0.0394,0.1281 l 11.46631,1.27707 a 0.30612228,0.3102313 32.526011 0 0 0.19957,-0.0455 l 0.4904,-0.30852 a 0.35543057,0.35748508 34.626011 0 1 0.25836,-0.0485 l 2.26594,0.4265 q 0.10148,0.0187 0.15734,0.10731 l 11.24338,17.94933 a 0.16436096,0.16436096 0 0 1 0.0179,0.1367 l -0.33917,1.07747 q -0.0317,0.1001 0.0241,0.18875 l 2.86084,4.54751 q 0.0557,0.0887 0.15632,0.0595 3.57645,-1.08244 6.22749,0.92465 c 3.74303,2.83231 3.57282,8.78905 -0.72296,11.12017 -3.84071,2.08608 -8.65563,-0.004 -9.65454,-4.281 q -0.80964,-3.4592 1.80796,-6.305 0.0634,-0.0691 0.0141,-0.14725 l -2.89585,-4.60317 q -0.0548,-0.0869 -0.14164,-0.0323 z m 11.65728,10.21545 c 0.49324,-2.89289 -1.92957,-4.97318 -4.7113,-4.69168 q -0.29544,0.0281 -0.1385,0.28134 c 0.51308,0.81559 2.09521,2.87135 2.09684,3.79995 0.003,0.79468 -0.83191,1.4093 -1.63401,1.17602 -0.79078,-0.2307 -2.18542,-2.88741 -2.64317,-3.61889 a 0.17463351,0.17463351 0 0 0 -0.2964,-3.6e-4 c -1.40659,2.232 -0.80082,5.01605 1.7413,6.12077 2.46099,1.06836 5.13823,-0.45569 5.58528,-3.06709 z m -24.51424,-39.0675 c 0.34449,-2.52746 -1.52507,-4.57713 -3.99901,-4.63977 -2.92455,-0.0728 -4.61649,2.73191 -3.89555,5.42894 a 0.11094364,0.11094364 0 0 0 0.17745,0.0582 q 1.35239,-1.11052 2.73425,-2.2784 c 1.49264,-1.26185 3.03613,0.76723 1.76075,1.85356 q -1.43506,1.21833 -2.86922,2.44583 a 0.04930829,0.04930829 0 0 0 0.007,0.0805 c 2.51207,1.40032 5.69238,-0.0495 6.08435,-2.94899 z"
       id="path98"
       inkscape:connector-curvature="0"
       style="fill:#000000;stroke:#000000;stroke-width:0.20541893;stroke-miterlimit:4;stroke-dasharray:none;stroke-opacity:1" />
    <path
       style="display:inline;fill:#000000;fill-opacity:1;stroke:none;stroke-width:0.36192638px;stroke-linecap:butt;stroke-linejoin:miter;stroke-opacity:1"
       d="m 148.30389,-76.505465 c -2.23533,-0.0444 -4.50186,0.95422 -5.39165,2.73381 L 38.92219,106.60856 c -1.69919,2.54877 0.60683,9.03037 4.29649,8.73908 l 209.36396,0.0725 c 3.51974,0.46121 6.67541,-5.0489 4.87913,-8.01034 L 153.1801,-73.771655 c -0.95579,-1.84331 -2.90386,-2.69461 -4.87621,-2.73381 z M 148,-56.274785 239.36648,102.28107 56.50963,102.61243 Z"
       id="path4316"
       inkscape:connector-curvature="0" />
    <text
       xml:space="preserve"
       transform="matrix(0.26458333,0,0,0.26458333,0,-123)"
       id="text16035"
       style="fill:black;fill-opacity:1;line-height:1.25;stroke:none;font-family:sans-serif;font-style:normal;font-weight:normal;font-size:40px;white-space:pre;shape-inside:url(#rect16037)" />
  </g>
</svg>
